<svg xmlns="http://www.w3.org/2000/svg" data-name="cat_attach_has" viewBox="0 0 128 128"><path d="M38.85 127.65c-4.26.17-7.47-1.61-9.07-3.63-4.52.05-10.25-6.86-9.33-11.3-3.41-3.04-2.49-12.75 1.44-15.09.72-2.44.47-3.92 3.92-6.76 3.45-2.85 4.86-2.33 7.38-2.57 3.03-3.41 12.76-2.5 15.09 1.44 4.51-.05 10.25 6.86 9.33 11.3 1.35 2.25 2.55 3.09 2.09 7.82-.44 4.73-1.79 5.33-3.53 7.28-.71 2.44-.46 3.93-3.92 6.76-3.44 2.86-4.85 2.33-7.38 2.57-1.85 1.06-2.72 2.23-6.03 2.18Zm69.93-.16c-3.42.14-6.14-1.35-7.35-2.93-1.95-.53-3.2-.41-5.49-3.2-2.3-2.78-1.95-3.98-2.1-5.99-1.08-1.73-2.05-2.54-1.68-6.36s1.47-4.42 2.86-5.92c.53-1.95.41-3.19 3.2-5.49 2.78-2.3 3.98-1.96 5.99-2.1 1.73-1.08 2.54-2.05 6.35-1.69 3.81.37 4.43 1.47 5.92 2.86 1.95.53 3.19.41 5.49 3.2 2.3 2.78 1.95 3.98 2.1 5.99 1.08 1.73 2.05 2.54 1.68 6.36-.37 3.81-1.47 4.43-2.86 5.92-.53 1.95-.41 3.2-3.2 5.49-2.78 2.3-3.98 1.96-5.99 2.1-1.43.86-2.22 1.78-4.93 1.76Z" style="fill:#2ac1ec"/><path d="M126.06 94.75c-1.93-1.9-4.09-3.45-6.38-4.59.06-2 .01-4.88-.58-6.3-1.47-3.41-6.99-7.49-9.99-8.7-3.74-1.5-10.79-1.71-16.99-1.9-.63-.03-1.29-.04-1.95-.07V59.42c.03-2.72.42-5.69.76-6.26.38-.36 1.96-.96 3.68-1.45.5.22 1.07.29 1.65.15 1.43-.32 2.32-1.75 2-3.18a2.68 2.68 0 0 0-3.2-2.02c-.63.15-1.15.5-1.52.99-2.17.6-4.81 1.56-5.84 2.84-1.5 1.86-1.71 6.84-1.72 8.9V73c-.99-.07-1.74-.17-2.04-.29-2.11-1.18-8.58-11.65-7.8-15.21.25-.32 1.14-.93 1.68-1.31 1.57-1.08 3.34-2.31 3.46-4.25.08-1.1-.43-2.24-1.49-3.36-.92-.99-3-2.65-4.95-2.65H41.26c-1.7 0-6.52 1.28-7.34 4.14-.58 2.03.75 3.96 2.03 5.82.47.68 1.26 1.83 1.33 2.22.36 4.49-4.17 16.93-6.35 22.41-.67.21-1.32.44-1.96.71-6.96 2.82-12.48 8.24-15.14 14.86-.43 1.07.08 2.28 1.15 2.71s2.28-.08 2.71-1.15c2.24-5.57 6.92-10.15 12.84-12.55.85-.35 1.7-.64 2.56-.88 5.2-1.47 10.69-1.17 15.44.96 5.57 2.24 10.15 6.91 12.55 12.83s2.39 12.45-.06 17.94a2.09 2.09 0 0 0 1.91 2.93c.81 0 1.57-.46 1.92-1.24 1.06-2.38 1.74-4.92 2.02-7.53h17.89c-.14 2.17-.01 4.39.43 6.64a2.084 2.084 0 0 0 2.44 1.64 2.085 2.085 0 0 0 1.64-2.45c-1.74-8.9 2.25-17.39 10.17-21.66 7.92-4.25 17.21-2.92 23.66 3.43.82.81 2.14.79 2.95-.03s.81-2.14-.03-2.95Zm-28.55-4.13c-6.24 3.35-10.47 8.88-12.05 15.32h-18.4c-.13-3.2-.83-6.42-2.07-9.51-2.82-6.96-8.24-12.47-14.79-15.1-4.42-1.96-9.41-2.61-14.33-1.93 2.2-5.75 6.02-16.62 5.6-21.63-.13-1.45-1.06-2.81-2.06-4.25-.44-.65-1.17-1.7-1.38-2.27.65-.5 2.43-1.17 3.25-1.17h33.51c.54.08 1.68.93 2.18 1.54-.39.35-1.06.82-1.5 1.13-1.43.99-2.91 2-3.32 3.57-1.58 5.94 6.81 18.54 9.94 20.11 1.04.51 2.89.71 5.99.85 1.13.06 2.42.1 3.91.14 5.56.17 12.5.38 15.55 1.61 2.46.99 6.87 4.5 7.71 6.46.15.39.25 1.58.26 3.04-5.87-1.68-12.23-1.04-18.01 2.07Z" style="fill:#2ac1ec"/><path d="M49.5 58.76s-3.32 9.38-3.79 12.65c-.14.94 0 3.79 0 3.79s9.26 1.35 12.02 3.16c3.17 2.08 9.79 11.6 9.79 11.6h11.1s-3.23-14.05-5.08-18.47c-1.34-3.22-6.32-12.73-6.32-12.73H49.51Zm-22.61 5.46L14.1 77.97 1.31 64.22l2.29-2.14 8.41 9.05V28.32h4.17v42.81l8.41-9.05z" style="fill:#2ac1ec"/></svg>