<svg xmlns="http://www.w3.org/2000/svg" viewBox="0 0 128 128"><path d="M123.86 118.95h-9.54V69.92l5.29 11.4a3.01 3.01 0 0 0 2.73 1.74c.42 0 .85-.09 1.26-.28 1.5-.7 2.15-2.49 1.45-3.99l-17.58-37.88a3.1 3.1 0 0 0-.96-1.16l-40.58-29.4a3.02 3.02 0 0 0-3.49-.03L22.6 38.3c-.45.31-.8.74-1.02 1.23l-7.53 16.82-.07.15-9.52 21.26c-.68 1.52 0 3.29 1.51 3.97 1.51.67 3.29 0 3.96-1.51l4.05-9.04v47.77H3.53c-1.66 0-3 1.34-3 3s1.34 3 3 3h120.33c1.66 0 3-1.34 3-3s-1.34-3-3-3m-48.41 0H53.01V89.48h22.44zm32.87 0H81.45V83.48H47.01v35.47H19.98V57.79l6.74-15.05 37.42-26.28 38.22 27.69 5.96 12.84z" style="fill:#2ac1ec;stroke-width:0"/><path d="M77.17 70.98H50.7V39.79h26.47zm-20.47-6h14.47V45.79H56.7z" style="fill:#2ac1ec;stroke-width:0"/></svg>