<svg xmlns="http://www.w3.org/2000/svg" data-name="cat_brand" viewBox="0 0 128 128"><path d="M126.2 14.75c-.59-3.05-1.9-5.63-3.89-7.7-2.01-2.07-4.55-3.46-7.58-4.14-2.8-.62-5.91-.61-9.19.04-3.23.64-6.49 1.86-9.7 3.63-3.28 1.81-6.4 4.12-9.25 6.87-2.84 2.76-5.26 5.8-7.18 9.04-1.67 2.82-2.91 5.68-3.67 8.54l-11.3-.18c-.63 0-1.19.23-1.63.64L2.18 90.19a2.29 2.29 0 0 0-.04 3.24l32.47 33.54c.43.43.99.67 1.6.69h.04c.6 0 1.16-.23 1.59-.64l60.62-58.71c.44-.42.69-1 .7-1.61l.23-14.59c2.04-.67 4.08-1.57 6.1-2.68 3.3-1.81 6.41-4.14 9.25-6.9 2.85-2.75 5.27-5.78 7.19-9.02 1.87-3.15 3.19-6.38 3.94-9.56.76-3.28.86-6.37.33-9.2M94.87 48.58c-2.65.53-5.1.54-7.26.06-2.14-.49-3.92-1.45-5.29-2.86-.89-.92-2.33-.93-3.23-.07-.91.89-.93 2.33-.05 3.25 2 2.05 4.54 3.45 7.57 4.13 1.38.31 2.83.46 4.32.46 1.25 0 2.54-.11 3.88-.33l-.2 12.47-58.31 56.46L6.99 91.9 65.3 35.43l29.78.47zm26.55-25.66c-.64 2.72-1.79 5.51-3.42 8.26-1.7 2.89-3.88 5.6-6.42 8.08-2.56 2.47-5.34 4.55-8.28 6.17-1.26.7-2.54 1.29-3.82 1.79l.21-13.53a2.28 2.28 0 0 0-2.25-2.31l-16.95-.27c.65-2.1 1.61-4.2 2.85-6.29 1.71-2.89 3.88-5.61 6.43-8.08 2.54-2.48 5.33-4.55 8.28-6.16 2.8-1.54 5.62-2.6 8.37-3.15 2.66-.53 5.13-.55 7.3-.06 2.15.48 3.93 1.44 5.3 2.86 1.38 1.41 2.28 3.22 2.69 5.39.43 2.19.32 4.64-.29 7.3" style="fill:#2ac1ec"/></svg>