<svg xmlns="http://www.w3.org/2000/svg" data-name="cat_vehicle" viewBox="0 0 128 128"><path d="M28.51 127.49c-4.92.2-8.62-1.86-10.47-4.19-5.22.06-11.84-7.92-10.77-13.05-3.94-3.51-2.88-14.73 1.66-17.43.83-2.82.54-4.53 4.53-7.81 3.98-3.3 5.61-2.69 8.53-2.97 3.5-3.93 14.74-2.88 17.43 1.66 5.21-.06 11.84 7.92 10.78 13.05 1.56 2.59 2.95 3.57 2.42 9.03-.51 5.46-2.07 6.15-4.08 8.41-.82 2.82-.54 4.53-4.52 7.81-3.97 3.3-5.6 2.69-8.53 2.97-2.13 1.22-3.14 2.58-6.96 2.52Zm78.7-.98c-3.83.16-6.88-1.51-8.23-3.28-2.18-.6-3.58-.46-6.15-3.58-2.57-3.11-2.18-4.46-2.35-6.71-1.21-1.94-2.29-2.85-1.89-7.12.42-4.27 1.64-4.96 3.2-6.63.59-2.18.46-3.58 3.58-6.15 3.11-2.58 4.46-2.19 6.71-2.35 1.94-1.21 2.84-2.29 7.12-1.89 4.27.41 4.96 1.65 6.63 3.2 2.18.59 3.58.46 6.15 3.58 2.58 3.11 2.18 4.46 2.35 6.71 1.21 1.94 2.29 2.85 1.89 7.12-.41 4.27-1.65 4.96-3.2 6.63-.59 2.18-.46 3.58-3.58 6.15-3.11 2.58-4.46 2.19-6.71 2.35-1.6.97-2.48 2-5.52 1.97" style="fill:#2ac1ec;stroke-width:0"/><path d="M126.57 89.84c-2.16-2.13-4.58-3.86-7.15-5.14.06-2.24.02-5.46-.65-7.05-1.65-3.81-7.83-8.39-11.19-9.75-4.19-1.68-12.08-1.91-19.02-2.13-.7-.03-1.45-.05-2.18-.08V50.26c.03-3.05.47-6.37.86-7.01.42-.4 2.2-1.07 4.13-1.62.56.25 1.2.33 1.85.17 1.6-.36 2.6-1.96 2.24-3.57a3 3 0 0 0-3.58-2.26c-.7.17-1.29.56-1.7 1.11-2.43.67-5.39 1.74-6.54 3.18-1.68 2.09-1.91 7.66-1.93 9.96v15.24c-1.11-.08-1.95-.19-2.29-.33-2.37-1.32-9.61-13.05-8.73-17.03.28-.36 1.28-1.04 1.88-1.46 1.76-1.21 3.74-2.58 3.88-4.76.09-1.23-.48-2.51-1.67-3.77-1.03-1.11-3.36-2.97-5.54-2.97H31.62c-1.9 0-7.3 1.43-8.22 4.64-.65 2.27.84 4.44 2.27 6.52.53.76 1.42 2.05 1.49 2.49.4 5.03-4.67 18.96-7.11 25.1-.75.23-1.48.5-2.2.79C10.05 77.84 3.87 83.91.9 91.32a2.335 2.335 0 1 0 4.33 1.75c2.51-6.24 7.75-11.36 14.38-14.06.95-.39 1.9-.72 2.86-.98 5.82-1.65 11.97-1.31 17.3 1.07 6.24 2.51 11.36 7.74 14.06 14.37 2.69 6.63 2.68 13.95-.06 20.1a2.36 2.36 0 0 0 1.18 3.08c.31.14.64.2.95.2.9 0 1.76-.51 2.15-1.39 1.18-2.66 1.95-5.51 2.26-8.44h20.04c-.16 2.43-.02 4.92.48 7.44a2.34 2.34 0 0 0 2.29 1.88c.16 0 .3-.02.45-.05a2.34 2.34 0 0 0 1.84-2.74c-1.95-9.96 2.52-19.48 11.4-24.25 8.87-4.76 19.27-3.27 26.5 3.85.92.9 2.4.89 3.3-.03s.9-2.4-.03-3.3Zm-31.98-4.63c-6.99 3.75-11.72 9.95-13.5 17.16H60.48c-.14-3.58-.93-7.19-2.32-10.65-3.16-7.8-9.23-13.96-16.56-16.91-4.95-2.2-10.54-2.93-16.05-2.16 2.46-6.45 6.74-18.62 6.27-24.22-.14-1.62-1.18-3.14-2.3-4.76-.5-.73-1.31-1.9-1.54-2.54.73-.56 2.72-1.31 3.64-1.31h37.53c.61.09 1.88 1.04 2.44 1.73-.44.39-1.18.92-1.68 1.26-1.6 1.11-3.25 2.24-3.72 4-1.77 6.65 7.63 20.77 11.13 22.53 1.17.58 3.24.79 6.71.95 1.26.06 2.71.11 4.37.16 6.23.19 14 .42 17.42 1.81 2.76 1.11 7.69 5.04 8.64 7.24.17.44.28 1.77.3 3.41-6.57-1.88-13.7-1.17-20.18 2.32Z" style="fill:#2ac1ec;stroke-width:0"/><path d="M40.82 49.53s-3.71 10.51-4.25 14.17c-.15 1.05 0 4.25 0 4.25s10.37 1.51 13.46 3.54C53.58 73.82 61 84.48 61 84.48h12.43s-3.62-15.74-5.68-20.69c-1.5-3.61-7.08-14.26-7.08-14.26H40.84Z" style="fill:#2ac1ec;stroke-width:0"/></svg>