<svg xmlns="http://www.w3.org/2000/svg" viewBox="0 0 128 128"><path d="M17.67 32.02v95.53h95.53V32.02zm91.18 91.18H22.02V36.37h86.83z" style="fill:#2ac1ec;stroke-width:0"/><path d="M42.52 36.71v86.16q0 .18-.03.33H38.2c-.01-.1-.03-.22-.03-.33V36.71q0-.18.03-.33h4.29c.01.1.03.22.03.33m50.16 0v86.16q0 .18-.03.33h-4.29c-.01-.1-.03-.22-.03-.33V36.71q0-.18.03-.33h4.29c.01.1.03.22.03.33" style="fill:#2ac1ec;stroke-width:0"/><path d="M42.52 102.23h45.81v4.35H42.52z" style="fill:#2ac1ec;stroke-width:0"/><path d="M54.73 57.2h4.35v45.04h-4.35zm17.05 0h4.35v45.04h-4.35zm-29.26-4.35h45.81v4.35H42.52zm-25.27-19.1-2.44-23.37 95-9.93 2.44 23.37-95.01 9.93Zm2.33-19.49 1.54 14.72 86.36-9.03-1.54-14.72z" style="fill:#2ac1ec;stroke-width:0"/></svg>