<svg xmlns="http://www.w3.org/2000/svg" data-name="cat_tool" viewBox="0 0 128 128"><path d="M49.52 114.65h-3.88c-1.39 0-2.52-1.13-2.52-2.52s1.13-2.52 2.52-2.52h3.88c1.39 0 2.52 1.13 2.52 2.52s-1.13 2.52-2.52 2.52" style="fill:#2ac1ec"/><path d="M124.61 109.62h-24.36V67.59c0-1.39-1.13-2.52-2.52-2.52H3.39C2 65.07.87 66.2.87 67.59v44.55c0 1.38 1.13 2.52 2.52 2.52h8.89c1.38 0 2.52-1.14 2.52-2.52s-1.14-2.52-2.52-2.52H5.91V96.08h89.31v13.54H83.76c-1.39 0-2.52 1.13-2.52 2.52s1.13 2.52 2.52 2.52h40.86c1.39 0 2.52-1.14 2.52-2.52s-1.13-2.52-2.52-2.52Zm-29.4-18.58H5.91V70.11h89.31v20.93Z" style="fill:#2ac1ec"/><path d="M24.96 126.63c-2.69-.71-4.21-2.42-4.87-3.98-1.42-.98-2.34-1.01-3.42-3.7-1.11-2.68-.47-3.35-.15-5.04-.37-1.7-1.01-2.37.2-5.21 1.19-2.85 2.11-2.87 3.58-3.79.98-1.42 1.01-2.34 3.7-3.42 2.68-1.12 3.34-.48 5.04-.15 1.69-.37 2.37-1 5.21.2 2.85 1.19 2.87 2.11 3.79 3.58 1.42.98 2.34 1.01 3.42 3.7 1.11 2.68.47 3.35.15 5.04.37 1.69 1.01 2.37-.2 5.21-1.18 2.85-2.11 2.87-3.58 3.79-.98 1.42-1.01 2.34-3.7 3.42-2.68 1.11-3.34.48-5.04.15-1.38.27-2.1.87-4.14.2Zm37.31 0c-2.69-.71-4.21-2.42-4.87-3.98-1.42-.98-2.34-1.01-3.42-3.7-1.11-2.68-.47-3.35-.15-5.04-.37-1.7-1.01-2.37.2-5.21 1.19-2.85 2.11-2.87 3.58-3.79.98-1.42 1.01-2.34 3.7-3.42 2.68-1.12 3.34-.48 5.04-.15 1.69-.37 2.37-1 5.21.2 2.85 1.19 2.87 2.11 3.79 3.58 1.42.98 2.34 1.01 3.42 3.7 1.11 2.68.47 3.35.15 5.04.37 1.69 1.01 2.37-.2 5.21-1.18 2.85-2.11 2.87-3.58 3.79-.98 1.42-1.01 2.34-3.7 3.42-2.68 1.11-3.34.48-5.04.15-1.38.27-2.1.87-4.14.2Z" style="fill:#2ac1ec"/></svg>