<svg xmlns="http://www.w3.org/2000/svg" data-name="cat_attach_need" viewBox="0 0 128 128"><path d="M44.42 116.03h-3.47c-1.24 0-2.25-1.01-2.25-2.25s1.01-2.25 2.25-2.25h3.47c1.24 0 2.25 1.01 2.25 2.25s-1.01 2.25-2.25 2.25" style="fill:#2ac1ec"/><path d="M111.48 111.54H89.73V74.01c0-1.25-1-2.25-2.25-2.25H3.23c-1.24 0-2.25 1-2.25 2.25v39.78a2.26 2.26 0 0 0 2.25 2.25h7.94c1.23 0 2.25-1.02 2.25-2.25s-1.02-2.25-2.25-2.25H5.48V99.45h79.74v12.09H74.99c-1.25 0-2.25 1-2.25 2.25s1 2.25 2.25 2.25h36.48c1.25 0 2.25-1.02 2.25-2.25s-1-2.25-2.25-2.25ZM85.23 94.95H5.48V76.26h79.74v18.69Zm41.79-9.68-13.81 14.84-13.8-14.84 2.48-2.31 9.07 9.77v-46.2h4.5v46.2l9.08-9.77z" style="fill:#2ac1ec"/><path d="M22.5 126.73c-2.4-.64-3.76-2.16-4.35-3.55-1.26-.87-2.09-.9-3.05-3.3-.99-2.39-.42-2.99-.13-4.5-.33-1.51-.9-2.12.18-4.65 1.06-2.54 1.89-2.56 3.2-3.39.87-1.27.9-2.09 3.3-3.06 2.4-1 2.99-.43 4.5-.13 1.51-.33 2.12-.89 4.65.18 2.54 1.06 2.56 1.89 3.39 3.2 1.27.87 2.09.9 3.06 3.31.99 2.39.42 2.99.13 4.5.33 1.51.9 2.12-.18 4.66-1.06 2.54-1.89 2.56-3.2 3.39-.87 1.26-.9 2.09-3.3 3.05-2.39.99-2.99.43-4.5.13-1.23.24-1.87.78-3.7.18Zm33.31 0c-2.4-.64-3.76-2.16-4.35-3.55-1.26-.87-2.09-.9-3.05-3.3-.99-2.39-.42-2.99-.13-4.5-.33-1.51-.9-2.12.18-4.65 1.06-2.54 1.89-2.56 3.2-3.39.87-1.27.9-2.09 3.3-3.06 2.4-1 2.99-.43 4.5-.13 1.51-.33 2.12-.89 4.65.18 2.54 1.06 2.56 1.89 3.39 3.2 1.27.87 2.09.9 3.06 3.31.99 2.39.42 2.99.13 4.5.33 1.51.9 2.12-.18 4.66-1.06 2.54-1.89 2.56-3.2 3.39-.87 1.26-.9 2.09-3.3 3.05-2.39.99-2.99.43-4.5.13-1.23.24-1.87.78-3.7.18Z" style="fill:#2ac1ec"/></svg>