<svg xmlns="http://www.w3.org/2000/svg" viewBox="0 0 128 128"><path d="M20.18 24.38c-1.55-2.34-6.69-7.15-2.34-9.99 5.43-4.1 10.9-8.15 16.43-12.12 4.24-3.16 6.95 3.06 9.15 5.67 19.33-1.08 38.64-.14 57.99-.45 7.02 0 10.48 3.34 10.49 10.42.03 32.84.02 65.67 0 98.51-.03 6.54-3.62 10.14-10.23 10.16-23.59.03-47.17.01-70.76 0-7.41-.01-11.37-4.17-11.36-11.59.45-30.34-.88-60.26.62-90.61Z" style="fill:#4a3726;stroke-width:0"/><path d="M104 42.4c1.31 23.8.09 47.86.5 71.74 0 5.08-.66 5.72-5.81 5.72h-66.4c-4.44 0-5.16-.71-5.16-5.05.15-24.15-.31-48.34.18-72.48 23.8-2.12 47.85-.4 71.74-.91 1.7 0 3.49-.26 4.96.97Z" style="fill:#7f827e;stroke-width:0"/><path d="M104 42.4c-25.57-.05-51.13.16-76.7-.07V30.38c6.51-4.85 12.98-9.72 19.53-14.49.75-.55 1.88-.79 2.83-.8 18.13.24 36.25-.61 54.34.31v26.99Z" style="fill:#aeaeae;stroke-width:0"/><path d="M35.18 48.15h60.54v62.81H35.18z" style="fill:#f4f8f4;stroke-width:0"/><path d="M77.02 38.31c-8.42-.42-22.58 2.95-23.08-9.2-.07-5.52 3.73-9.63 9.48-9.73 8.93-.16 17.88-.13 26.81 0 5.38.08 9.48 4.4 9.43 9.55-.43 12.17-14.22 8.95-22.65 9.32v.05Z" style="fill:#4a3726;stroke-width:0"/><path d="M56.74 55.3h32.57v8.56H56.74z" style="fill:#50984f;stroke-width:0"/><path d="M62.23 27.27h29.1c.18.87.36 1.75.61 2.94-9.09 1.28-18.13.22-27.27.55-2.19 0-3.64-.53-2.44-3.5Z" style="fill:#f4f8f4;stroke-width:0"/></svg>