<svg xmlns="http://www.w3.org/2000/svg" data-name="fill_grass" viewBox="0 0 128 128"><path d="M97.98 69.28c44.96-23.58-9.28 72.53-27.13 51.5-5.59 5.17-8.87 5.45-13.96 1.2-3.38 4.52-9.94 6.5-13.98 1.44-10.82-13.5-20.55-27.74-29.15-42.76-3.78-6.04 2.5-13.82 9.2-11.88 9.67 1.46 17.17 6.67 24.44 12.8-5.3-23.2-12.94-45.77-19.59-68.6-3.16-8.8 7.14-15.33 13.73-8.63 15.17 14.12 25.34 31.32 31.15 51.19 2.77-11.09 15.77-40.37 29.76-36.29 12.07 6.82-.23 39.55-4.99 49.67.25.01.04.69.52.35Z" style="fill:#4a3726;stroke-width:0"/><path d="M34.98 9.19c30.66 26.04 41.96 70.3 28.29 108.01C55.73 80.68 46.24 44.74 34.98 9.19m44.88 71.54c-5.03-17.19 5.92-48.1 19.13-54.37 4.65 9.57-8.1 46.09-19.13 54.37m-30.57 38.1C38.2 105.6 28.49 91.59 20.35 76.41c20.74 1.46 34.11 22.88 28.94 42.42m27.97-2.26c.44-18.43 14.02-37.74 30.75-43.56.84 10.34-19.81 39.76-30.75 43.56" style="fill:#589058;stroke-width:0"/></svg>