<svg xmlns="http://www.w3.org/2000/svg" data-name="fill_soupcanparsnip" viewBox="0 0 128 128"><defs><linearGradient id="a" x1="-1696.49" x2="-1596.49" y1="-592.62" y2="-592.29" gradientTransform="matrix(.5 0 0 .5 888 370)" gradientUnits="userSpaceOnUse"><stop offset="0" stop-color="#95c24a"/><stop offset=".52" stop-color="#b6d79c"/><stop offset="1" stop-color="#a2c65c"/></linearGradient><linearGradient id="b" x1="-1653.39" x2="-1629.73" y1="-620.92" y2="-547.64" gradientTransform="matrix(.5 0 0 .5 888 370)" gradientUnits="userSpaceOnUse"><stop offset="0" stop-color="#ccb090"/><stop offset="1" stop-color="#e4ded3"/></linearGradient></defs><path d="M61.89 16.64c7.08-.39 16.06.53 22.73 2.98 4.65 1.71 9.31 4.13 9.88 9.62l.02 68.53c-1.09 5.79.96 8.26-4.36 12.14-10.69 7.8-39.7 7.94-50.33 0-2.2-1.65-3.55-3.32-3.84-6.16l.23-76.28c1.14-5.39 9.55-8.1 14.27-9.23 3.57-.86 7.73-1.4 11.4-1.6" style="fill:#0f1210"/><path d="M39 34.5c1.63.67 2.91 2.01 4.5 2.75 10.8 5.01 31.4 4.99 42.34.34 1.98-.84 3.78-2.07 5.66-3.09v70.25c0 1.15-3.13 3.25-4.17 3.83-10.54 5.96-31.7 5.86-42.59.92-2.09-.95-5.39-2.56-5.74-5.01z" style="fill:url(#a)"/><path d="M50.5 21c3.06-1.04 7.71-1.44 9.23-1.52 8.1-.44 20.17.13 27.23 4.31 4.92 2.91 6.82 5.83 1.21 9.63-8.08 5.47-25.43 5.61-34.79 3.95-3.99-.71-17.78-4.58-13.91-10.65 1.63-2.54 8.1-5.45 11.03-5.72" style="fill:#aaa"/><path d="M54.7 20.4c1.25.02 4.24.7 3.03 2.43-1.43 1.27-5.66 1.02-7.78 2.17-1.76.6-3.5 1.83-5.04 1.91-1.19-.11-1.46-1.94.1-2.81 1.47-.86 3.62-1.53 4.93-2.4 1.33-.79 2.92-1.47 4.59-1.32h.18Z" style="fill:#d8c9b4"/><path d="M67.88 45.12c.93.89.1 2.5.1 3.61 0 1.96-.35 6.4 0 7.93.08.32 4.68 2.69 4.53 4.57 2.71 14.16 3.21 28.76 5.42 43.04-1.63 4.57-3.79 3.12-5.84-.12-6.7-10.61-11.49-23.56-18.21-34.29-.32-1.4-.95-3.17-.91-4.59.04-1.82 1.92-5.09 1.79-5.81-.42-2.24-5.02-7.06-5.28-9.25-.2-1.63 5.05-4.34 6.25-4.23 1.95.18 2.47 4.15 4.26 5.02.23-1.34-.52-5.62.47-6.28.81-.54 6.6-.38 7.41.4Z" style="fill:#0f1210"/><path d="M78.36 24.11c2.58-.53 9.59-.43 10.54 2.74 2.08 6.96-12.56 7.7-14.66 2.12-.72-1.92 2.27-4.48 4.12-4.86" style="fill:#0c0e0f"/><path d="m75 103.5-4.26-7.49-14.63-28.37c-2.06-9.76 10.9-13.35 14.24-4.25l4.64 40.1Z" style="fill:url(#b)"/><path d="m62.5 47 3.03.79c-.57 3.1 1.81 8.64-3.03 7.71zm-9.48 3.02 2.24-.97c5.98 7.94.11 9.76-2.24.97" style="fill:#496b2c"/><path d="M86.48 28.97c-.84 1.29-9.53 1.99-9.48-1.46 1.01-.08 1.77-.83 2.77-.98 1.42-.22 8.33-.05 6.7 2.44Z" style="fill:#6c6c6b"/></svg>