<svg xmlns="http://www.w3.org/2000/svg" viewBox="0 0 128 128"><path d="M20.19 88.53C13.1 81.45 9.47 73.1 10.9 62.88-2.83 50.54.62 29.92 5.61 14.19c2.11-6.09 8.42-8.47 16.26-6.73 2.09-3.81 5.8-4.24 9.79-4.23C50.41.45 73.17 6.55 77.68 26.88c5.54 11.11 20.55 10.23 21.66 29.32 14.83 4.9 20.41 20.09 26.67 32.96 6.54 16.43-30.13 23.47-41.59 24.84-2.11 8.21-9.01 10.22-16.93 10.7-22.89 3.84-50.2-7.74-47.3-36.16Z" style="fill:#4a3726;stroke-width:0"/><path d="M59.09 117.77c-15.96 1.28-34.12-10.09-31.3-27.99.43-2.8-.1-4.96-2.41-7.03-11.75-10.39-3.99-16.87-8.3-24.48-12.44-10.02-7.61-25.76-5.23-39.04.39-2.36 1.57-4.44 3.83-4.67 5.5.54 10.59 4.74 15.95 6.13C45.44 23.34 59.23 34.45 56.32 50c-.27 1.49.61 3.73 1.74 4.84 13.08 12.03 4.07 18.54 9.48 26.04 8.26 7.04 7.69 17.87 9.16 27.68 2.42 10.37-11.21 7.97-17.6 9.21Z" style="fill:#7fa95f;stroke-width:0"/><path d="M119.67 94.34c-11.19 6.62-22.58 11.69-36.07 11.45-.64-15.89-2.89-18.59-10.25-31.3.8-9.6-2.61-17.49-9.48-24.08 3.32-21.35-16.45-35.32-35.31-38.11 0-.29-.02-.57-.03-.86 13.65-2.82 29.5-2.54 38.39 9.92 4.24 5.42 2.4 14.4 10.03 17.2 8.22 3.36 13.86 8.96 14.79 18.44.37 5.99 7.86 6.68 11.46 10.02 7.83 7.69 12.72 17.02 16.47 27.32" style="fill:#589058;stroke-width:0"/><path d="M33.33 50.25c-8.53.48-17.39-11.46-9.95-18.05 12.27-10.23 28.97 16.98 9.95 18.05m6.71 8.71c10.57-.47 18.77 16.85 5.58 19.98-12.55 2.67-22.13-19.54-5.58-19.98m14.41 49.78c-14.62.12-17.78-23.6-.64-19.56 9.92 2.08 14.61 19.41.64 19.56" style="fill:#4a3726;stroke-width:0"/></svg>