<svg xmlns="http://www.w3.org/2000/svg" viewBox="0 0 128 128"><path d="M15.74 28.24c-9.09-3.96-11.54-21.25.1-22.76 31.19-.15 62.4.02 93.6-.08 14.64-1.13 12.33 17.81 3 23.28 2.94 23.48 2.98 46.85.02 70.35 8.13 5 11.93 21.61-.26 23.48-31.19.13-62.4-.03-93.6.08-14.13 1.35-12.64-18.23-2.89-22.93-2.94-23.87-3-47.16.03-71.41Z" style="fill:#4a3726;stroke-width:0"/><path d="M16.2 112.77c-.07-.9-.14-1.8-.23-2.85 2.69-2.48 5.37-4.96 7.99-7.38-3.53-25.72-3.56-50.99 0-76.93-2.59-2.18-5.45-4.6-8.32-7.02l.46-.55v-4.46h95.51v5.4c-2.17 1.82-4.89 4.11-7.56 6.36 3.61 25.85 3.71 51.11.04 76.72 2.65 2.32 5.32 4.66 7.63 6.68v4.05c-31.09 1.7-64.5 1.76-95.52-.02" style="fill:#4883af;stroke-width:0"/><path d="M66.78 34.64c36.33 68.2 52.17 56.68-30.38 57.23-4.76-.02-6.38-2.89-4.04-7.01 7.96-14.01 16.03-27.96 24.06-41.93 2.9-3.75 4-11.7 10.36-8.29M95.8 97.65c5.16 1.98 3.21 8.58-2.2 7.81-19.66-.02-39.33-.02-58.99.01-2.3 0-4.34-.33-5.09-2.85-1.09-3.72 3.53-6.16 6.58-6 19.7.91 40.54-1.82 59.69 1.02ZM63.99 29.21c-3.16.02-8.06.75-8.37-3.62-.22-2.17 1.04-3.72 3.02-3.88 3.6-.29 7.29-.43 10.85.07 7.05 4.93.91 8.52-5.5 7.43m-25.93.02c-3.18.01-8.16.7-8.41-3.63-.21-2.17 1.14-3.8 3.37-3.93 3.42-.21 6.88-.23 10.3 0 2.26.15 3.29 1.82 3.2 4.05-.3 4.39-5.39 3.46-8.46 3.49v.04Zm51.95 0c-3.11-.04-8.12.81-8.31-3.64-.1-2.46 1.29-3.89 3.59-4.04 3.12-.21 6.28-.22 9.4-.03 2.25.13 3.91 1.48 3.85 3.89-.13 4.5-5.34 3.84-8.54 3.82Z" style="fill:#4a3726;stroke-width:0"/><path d="M64.03 45.02c7.6 13.16 14.9 25.8 22.41 38.81H41.67c7.5-13.01 14.77-25.63 22.36-38.81" style="fill:#7ecde7;stroke-width:0"/><path d="M56.12 70.46c-5.93-2.78-1.04-10.28 4.07-6.69-.47-6.46 8.11-6.34 7.85-.04.91-.35 1.76-.67 2.52-.96 3.86 1.03 4.3 1.71 3.72 5.76-.62.58-1.34 1.26-2.22 2.1 5.24 2.7 1.45 10.16-3.77 6.86-1.05 6-5.99 6.13-8.5.65-5.48 1.54-9.16-3.91-3.66-7.68Z" style="fill:#4a3726;stroke-width:0"/></svg>