<svg xmlns="http://www.w3.org/2000/svg" viewBox="0 0 128 128"><path d="M8.44 30.74c1.49-4.08 4.58-5.44 8.85-5.53 20.88-.41 41.75-.92 62.62-1.56 6.31-.2 12.44.11 18.45 2.28 4.71 1.7 9.53 3.14 14.38 4.41 4.17 1.09 7.02 3.2 7.48 7.7 4.2 1.42 5.78 4.35 5.65 8.57-.45 14.8-.78 29.61-1.21 44.41-.16 5.4-3.81 9.31-9.28 9.63-13.17.77-26.35 1.36-39.53 1.99-13.37.64-26.74 1.32-40.11 1.76-2.13.07-4.29-1-6.43-1.56-.43-.11-.87-.57-1.24-.5-3.77.69-6.23-1.6-8.84-3.69-4.07-3.27-8.16-6.5-12.32-9.65-3.26-2.47-4.87-5.56-4.8-9.75.24-13.38.3-26.77.45-40.15.05-4.81 1.33-6.59 5.87-8.36Z" style="fill:#4a3726;stroke-width:0"/><path d="M34.04 97.29V84.07c0-13.01-.04-26.02.03-39.03.02-2.7-.88-4.46-3.44-5.56-4.6-1.98-9.11-4.17-14.32-6.58 4.51-.27 8.36-.63 12.22-.71 13.47-.28 26.94-.45 40.41-.7 2.83-.05 5.68-.17 8.49-.48 9.11-1.03 17.65 1.33 26.12 4.22 2.4.82 4.83 1.5 7.22 2.95-.95.06-1.9.16-2.85.16-7.12.05-14.25.02-21.37.12-11.29.15-22.57.36-33.86.6-3.03.06-6.07.13-9.06.53-1.44.19-3.29.82-3.99 1.89-.69 1.05-.15 2.9-.15 4.64 2.19.33 3.66.75 5.12.73 4.92-.07 9.84-.37 14.76-.46 14.61-.25 29.22-.41 43.83-.68 4.91-.09 9.82-.42 15.17-.66 0 4.6.07 8.83-.02 13.05-.08 3.78-.36 7.56-.48 11.34-.22 6.91-.42 13.83-.56 20.74-.05 2.38-1.17 3.4-3.51 3.48-10.6.37-21.2.77-31.8 1.22-12.49.53-24.97 1.12-37.46 1.72-3.37.16-6.73.44-10.51.7Z" style="fill:#589058;stroke-width:0"/><path d="M26.52 95.06c-5.96-4.7-11.47-9.04-16.7-13.16V38.04c5.81 2.64 11.19 5.08 16.7 7.58z" style="fill:#306038;stroke-width:0"/></svg>