<svg xmlns="http://www.w3.org/2000/svg" data-name="fill_squarebalehay" viewBox="0 0 128 128"><defs><linearGradient id="a" x1="-205.69" x2="-415.68" y1="-612.29" y2="-611.77" gradientTransform="matrix(.5 0 0 .5 222 370)" gradientUnits="userSpaceOnUse"><stop offset="0" stop-color="#919d71"/><stop offset="1" stop-color="#63733e"/></linearGradient></defs><path d="M44.4 27.13c4.35-.32 9.37 1.19 14.34.87 1.96-.13 4.65-.98 6.52-1.02 2.11-.05 5.2.91 7.46 1.05 10.76.64 19.02-2.35 29.8 2.7 2.67 1.25 4.27 3.75 6.82 5.18s4.97 1.63 7.49 3.01c.89.49 6.45 4.52 6.59 4.91.65 1.94-.5 4.43-.46 6.42s.93 4.09.84 6.4c-.07 1.91-.85 4.35-.82 6.08s.94 4.29.93 6.02-.95 4.22-.95 6c0 3.85.47 8.36.53 12.53.06 3.87.66 7.44 0 11.46-.51 3.17-5.56 1.3-7.72 1.24-5.18-.16-10 1.04-14.52 1.03-2.12 0-5.23-.91-7.48-1.03-4.9-.27-9.22.97-13.57.98-4.44.01-8.94-1.25-13.97-.98-5.65.3-7.85.32-13.48.02-10.89-.58-19.91 2.88-30.41-2.59-2.29-1.19-3.48-3.19-5.38-4.62-2.2-1.66-4.63-2.16-6.92-3.58-1.05-.65-6.29-4.75-6.43-5.52 1.28-4.22-.29-8.86-.14-12.96.45-12.04-.21-23.98 0-35.99.02-.91.57-6.49.75-6.77.89-1.35 9.1.51 10.98.49 4.24-.04 8.34-1.22 13.07-.98 2.25.12 5.26 1 7.43.98 2.63-.02 6.08-1.14 8.71-1.33Z" style="fill:#0a0c0c"/><path d="M30.5 91.5c2.2-5.64.95-5.34.96-10.75 0-9.22.65-18.26.05-27.5-.24-3.64.89-6.73-2.74-9.26-1.02-.71-2.52-.84-3.39-1.48-.7-.51-1.09-1.82-2.11-2.53s-2.52-.84-3.39-1.47c-.7-.51-1.09-1.83-2.11-2.53-2.12-1.45-3.54-2.61-5.48-4.02-.7-.51-1.83-.14-1.77-.97 5.83.76 11.49-1.43 17.24-1 2.11.16 4.25.92 6.48 1.02 3.58.16 6.25-.88 9.5-1.04s6.78.91 10 1.04c4.95.2 9.66-1.5 14.47-.97 7.17.79 8.66.45 15.55-.05 4.6-.33 16.77 1.72 20.2 4.79 5.34 4.77 6.76 3.81 12.22 6.78.5.27 4.43 3.18 4.58 3.42.81 1.32-.26 3.25-.29 4.75-.3 12.94.36 27.02.54 40 .04 2.58-.03 5.17 0 7.75-3.83.14-7.41-.75-11.27-.52-2.08.12-4.45.89-6.48 1.02-4.95.31-9.53-1.34-14.52-1.02-6.82.43-8.5.64-15.48.03-5.46-.48-10.28 1.32-15.52 1.02-3.8-.22-6.82-1.32-11-1.04-6.73.44-9 1.44-16.23.02-1.42-.51-1.79-5.44 0-5.5Z" style="fill:url(#a)"/><path d="M30.5 97c-8.98-1.77-8.25-4.89-14.88-8.37-.89-.47-2.03-.55-2.96-1.04-.88-.46-5.25-3.7-5.69-4.3-1.16-1.57.04-3.34.08-5.04.3-12.77 0-27.74-.57-40.48-.08-1.87-.11-3.94.27-5.77.95 1.77 3.2 1.69 4.4 2.47.67.43 1.15 1.96 2.39 2.73 4.1 2.56 6.71 4.64 10.43 7.57.99.78 2.06.85 3.01 1.49 2.88 1.93 1.92 5.47 2.02 8.48.33 9.82.77 21.2.52 30.98-.04 1.63-1.93 5.36.98 5.77-.39 1.01.28 4.14 0 5.5Z" style="fill:#415220"/><path d="M113.45 47.96c-1.03 1.55-7.79-.55-9.71-.49-2.55.08-5.34 1.11-8 1.07s-5.45-1.08-7.99-1.08c-3.14 0-6.05 1.26-9.52 1.06-2.19-.13-4.27-1.07-6.48-1.06-2.72 0-5.71 1.12-8.51 1.08-2.56-.04-5.51-1.13-7.99-1.08-2.9.05-5.82 1.19-9.02 1.06-1.54-.06-6.03-.65-7.37-1.13-1.66-.59-1.09-2.18.87-2.42 2.69-.32 6.79.62 10.02.52 14.62-.46 29.42-.45 44 0 4.45.14 8.59-.73 13.02-.52.9.04 5.99.57 6.26.74.51.33.71 1.81.42 2.24Z" style="fill:#0a0c0c"/></svg>