<svg xmlns="http://www.w3.org/2000/svg" data-name="fill_bread" viewBox="0 0 128 128"><defs><linearGradient id="a" x1="-4676.62" x2="-4538.91" y1="-840.24" y2="-681.69" gradientTransform="matrix(.5 0 0 .5 2368 444)" gradientUnits="userSpaceOnUse"><stop offset="0" stop-color="#aa713a"/><stop offset="1" stop-color="#814528"/></linearGradient></defs><path d="M52.4 9.65c30.51-2.11 60.27 46.8 59.1 73.6-1.14 26.02-30.37 43.41-53.51 31.01-22.67-12.14-46.93-56.62-37.37-81.89 4.76-12.59 18.46-21.8 31.78-22.72" style="fill:#0b0c0c"/><path d="M50.89 12.64c18.93-1.95 33.66 13.65 43.02 28.19C105.64 59.05 118 88.4 98.5 105.75c-35.6 31.68-72.2-20.39-76.95-52.57-2.97-20.11 8.37-38.38 29.33-40.54Z" style="fill:url(#a)"/><path d="M83.88 50.13c9.09-1.26-1.29 7.49-3.64 9.35-7.68 6.09-19.88 13.12-29.11 16.39-2.64.94-11.79 4.68-8.82-1.32 2.21-4.45 17-13.49 21.85-16.14 5.04-2.76 14.2-7.52 19.71-8.28Zm5.99 23.99c3.9-.64 4.37.26 2.12 3.12-4.07 5.18-24.85 17.28-31.26 17.29-.8 0-1.26-.09-1.73-.78.07-.79.55-1.39 1.01-1.99 4.24-5.57 22.98-16.51 29.86-17.63ZM70 33.5c.16.76-.15 1.17-.46 1.78-3.02 5.84-23.93 17.13-30.51 18.49-2.74.57-3.94-.14-2.25-2.75 3.22-4.96 22.8-16.17 28.7-17.3 1.52-.29 2.99-.28 4.52-.22" style="fill:#531e0b"/></svg>