<svg xmlns="http://www.w3.org/2000/svg" data-name="fill_pigfood" viewBox="0 0 128 128"><path d="M15.38 37.71c-1.46-10.7-6.31-31.6 9.5-32.68 25.39-.13 50.78-.23 76.17-.37 6.7-.11 11.65 5.76 11.16 12.28.95 26.3 1.89 52.59 2.86 78.89.07 9.54 4.33 24.7-9.12 26.48-111.91-4.32-94.56 27.45-89.94-84.71-.21.04-.42.07-.63.11" style="fill:#4a3726;stroke-width:0"/><path d="M21.93 31.22c.48-5.72-.94-11.68.98-17.7 25.49-.39 50.88-.05 76.36-.74 4.13-.05 4.52.44 4.59 4.52.26 30.79 1.67 61.56 3.71 92.28.18 3.79-.8 4.72-4.55 4.72-26.13 0-52.25.01-78.38 0-8.01 1.82-2.37-16-3.39-21.08 1.03-17.66 1.04-35.2 2.93-52.83 23.72-1.8 47.53.98 71.17-2.34.51-2.85.96-5.38 1.55-8.7-1.26-1.09-2.8-2.42-4.76-4.13-1.76 2.12-3.05 3.68-4.98 6z" style="fill:#876f47;stroke-width:0"/><path d="M45.27 48c3.01 1.24 5.52 2.27 7.91 3.26 16.75-11.24 15.32-2.3 23.88 10.71 2.41 2.7 5.11 4.5 9.07 2.65.87-.41 2.7.39 3.65 1.17 17.75 14.93-3.55 36.38-20.84 39.19C53.44 108.84 31 100.81 34 81.57c2.11-11.65.99-25.41 11.26-33.56Z" style="fill:#4a3726;stroke-width:0"/><path d="M48.22 57.37c4.56 3.31 7.81 13.24 14.14 6.4-.67-1.93-1.45-4.18-2.39-6.9.81-.61 1.94-1.45 3.47-2.6 4.74 8.13 8.25 16.02 16.96 20.2 2.17-.56 3.88-1 5.5-1.42 3.71 5 3.65 9.02-.25 13.2-10.29 15.12-48.38 18.07-43.24-7.18 1.86-7.04 1.11-14.72 4.54-21.35.42-.12.84-.24 1.27-.35" style="fill:#d2938b;stroke-width:0"/></svg>