<svg xmlns="http://www.w3.org/2000/svg" data-name="fill_mashedpotato" viewBox="0 0 128 128"><path d="M30.23 108.34c-4.86-4.26-9.73-8.01-13.99-12.37-9.08-9.3-13.72-20.5-12.65-33.67.39-4.8 3.71-7.88 7.38-10.45 6.39-4.45 13.77-6.38 21.23-8.08 14.21-3.24 28.67-3.44 43.06-2.69 13.4.7 26.77 2.59 38.92 9.03 4.81 2.55 9.33 5.94 10.07 11.72.8 6.26-.03 12.51-2.42 18.51-4.47 11.21-12.5 19.29-22.18 26-.68.47-1.39.9-2.01 1.3 1.49 7.66.14 11.05-6.81 14.07-10.99 4.78-22.44 6.08-34.15 5.18-7.05-.54-13.86-2.64-20.36-5.6-6.05-2.76-7.95-6.8-6.1-12.95Z" style="fill:#4a3726;stroke-width:0"/><path d="M65.12 80.97c-14.98-.47-28.66-1.27-41.73-6-3.34-1.21-6.51-3.04-9.5-5-3.84-2.52-4.1-7.27-.7-10.43 4.67-4.33 10.59-6.18 16.59-7.66 9.38-2.31 18.92-3.4 28.6-3.61 14.03-.29 27.92.39 41.53 4.08 5.42 1.47 10.73 3.3 14.92 7.26 3.54 3.35 3.18 7.44-.67 10.38-5.97 4.56-13 6.56-20.18 7.87-6.29 1.14-12.7 1.7-19.07 2.39-3.66.4-7.35.54-9.8.71Z" style="fill:#7b5b3b;stroke-width:0"/><path d="M13.44 78.53c24.18 12.32 76.67 12.4 100.73.18-3.02 11.45-20.36 27.1-41.56 30.07-29.7 4.17-53.34-14.22-59.17-30.25" style="fill:#a5805b;stroke-width:0"/><path d="M90.6 111.02v2.67c-17.78 8.29-35.42 8.3-53.2.03v-2.66c17.76 7.24 35.32 7.29 53.2-.04" style="fill:#7b5b3b;stroke-width:0"/><path d="M107.75 77.01c-1.24 1.65-2.95 3.06-5.36 4.42-2.38 1.33-5.06 2.41-8.46 3.4-3.69 1.07-7.81 1.89-12.6 2.51-3.29.42-6.54.72-9.65.86-1.33.06-2.67.1-4 .15l-1.86.06s-.05 0-.08.01h-4.76c-3.63-.08-7.2-.36-10.7-.84-4.14-.57-8.09-1.42-11.74-2.53-4.31-1.31-8-2.88-11.28-4.8-3.05-1.79-5.43-3.71-7.28-5.88-2.04-2.4-3.22-4.86-3.61-7.55l-.09-.66-.04-.31v-1.53l.02-.21.06-.43c.24-2.13 1.04-4.23 2.4-6.24 1.04-1.55 2.4-3.03 4.02-4.38.03-.03.05-.04.05-.05s0-.03-.02-.06c-1.08-2.21-1.64-4.46-1.65-6.7 0-2.14.51-4.26 1.52-6.3 1.21-2.45 3.01-4.61 5.5-6.63 2.25-1.83 4.84-3.34 7.93-4.64a17.4 17.4 0 0 1-.28-4.06c.09-2.02.66-4.02 1.69-5.97 1.08-2.02 2.59-3.91 4.52-5.62 3.41-3.03 7.57-5.31 12.69-6.95 3.53-1.13 7.18-1.8 10.86-1.99.75-.04 1.52-.07 2.28-.08h.03c1.27 0 2.34.66 2.72 1.7.39 1.02-.06 2.11-1.11 2.76-1.29.8-2.3 1.7-3.08 2.75-.57.77-.71 1.72-.39 2.62.33.92 1.12 1.66 2.21 2.07.95.35 1.97.55 3.12.62.44.03.89.04 1.34.06.57.01 1.14.03 1.71.08 3.17.24 6.09 1.19 8.65 2.8 3.61 2.29 5.91 5.35 6.84 9.1.6 2.45.47 4.93-.4 7.38 3.04 1.03 5.6 2.19 7.82 3.56 2.16 1.33 3.82 2.75 5.09 4.34 1.65 2.05 2.48 4.24 2.5 6.53 0 2.1-.7 4.11-2.1 5.95-.88 1.13-1.97 2.16-3.34 3.14 2.24 1.03 4.07 2.14 5.61 3.37 1.97 1.59 3.29 3.25 4.01 5.06 1.29 3.2.85 6.27-1.3 9.13Z" style="fill:#4a3726;stroke-width:0"/><path d="M103.03 74.31c-.87 1.16-2.09 2.14-3.95 3.16-1.93 1.05-4.13 1.92-6.93 2.73-2.78.81-5.84 1.46-9.34 2-3.02.45-6.14.79-9.55 1.03-3.14.21-6.42.32-9.75.34-2.66 0-5.12-.08-7.53-.28-5.73-.45-10.87-1.4-15.69-2.88-3.39-1.03-6.33-2.25-9-3.71-2.37-1.3-4.26-2.68-5.79-4.2-1.63-1.63-2.68-3.28-3.21-5.04-.63-2.14-.43-4.28.64-6.37.64-1.25 1.56-2.45 2.79-3.65 2.41 2.8 5.5 5.19 9.2 7.08 2.35 1.2 4.92 2.16 7.62 2.85 1.62.41 3.2-.28 3.67-1.61.22-.62.14-1.27-.21-1.83-.37-.59-1.02-1.03-1.83-1.23-2.39-.61-4.63-1.46-6.67-2.54-3.45-1.82-6.07-4-8.02-6.64-1.49-2.01-2.34-4.02-2.59-6.13-.25-2.06.18-4.09 1.28-6.02 1.23-2.18 3.11-4.09 5.75-5.84 1.11-.73 2.31-1.4 3.65-2.02 1.45 3.23 3.61 6.06 6.4 8.41 2.43 2.04 5.22 3.55 8.27 4.5 1.34.42 2.78-.01 3.48-1.05.69-1.03.43-2.33-.64-3.09-.26-.18-.55-.32-.86-.42-2.71-.84-5.12-2.27-7.16-4.25-2.92-2.81-4.73-6.13-5.38-9.85-.33-1.87-.29-3.49.14-4.96.54-1.88 1.57-3.61 3.17-5.29 1.73-1.81 3.88-3.36 6.57-4.74 2.9-1.48 6.09-2.56 9.49-3.21-.09.17-.17.33-.25.5-1.47 3.07-.39 7.57 3.95 9.78 1.49.76 3.14 1.24 4.9 1.43 1.16.12 2.34.17 3.43.21 3.02.1 5.63 1.01 7.74 2.74 2.67 2.17 3.93 4.89 3.73 8.1-.05.71-.2 1.43-.45 2.15l-.31-.07c-.51-.11-1-.22-1.51-.31-1.34-.23-2.79-.48-4.22-.7-1.49-.22-2.92.67-3.2 1.97-.27 1.28.71 2.54 2.18 2.8.55.1 1.09.19 1.64.27.62.1 1.23.19 1.84.31 3.41.64 6.4 1.48 9.12 2.58 2.58 1.04 4.55 2.14 6.2 3.46 1.41 1.12 2.31 2.2 2.85 3.38.99 2.18.59 4.24-1.17 6.13-1 1.07-2.31 1.98-4.16 2.91-2.18-.65-4.46-1.21-6.96-1.69-2.67-.51-5.41-.91-8.38-1.21-.78-.08-1.53.1-2.14.52-.59.39-.96.96-1.04 1.59-.18 1.37.92 2.57 2.52 2.74 4.23.43 7.95 1.06 11.38 1.91 3.04.75 5.63 1.63 7.93 2.68 1.94.89 3.42 1.78 4.66 2.82 1.22 1.01 1.98 1.98 2.41 3.05.65 1.63.42 3.22-.7 4.73Z" style="fill:#beb696;stroke-width:0"/><path d="M96.3 125.4c-7.11-.12-12.4-3.66-17.45-8.04-7.97-6.9-11.93-16.02-14.94-25.76-1.69-5.49-2.95-11.02-1.45-16.72 2.05-7.76 6.72-13.7 13.5-17.85 4.76-2.91 9.95-2.02 15.07-.86 9.03 2.05 15.38 7.33 19.87 15.42 2.48 4.48 6.04 8.36 8.92 12.63 4.66 6.9 6.81 14.47 4.49 22.69-2.54 8.97-9.31 13.74-17.75 16.38-3.31 1.04-6.83 1.43-10.25 2.11Z" style="fill:#4a3726;stroke-width:0"/><path d="M96.14 120.04c-5.28.33-9.17-2.42-13.02-5.52-7.95-6.39-11.72-15.2-14.53-24.58-.67-2.24-1.18-4.55-1.58-6.86-1.18-6.89 1.65-12.4 6.1-17.34 2.8-3.11 5.96-6.03 10.33-5.72 3.81.27 7.64 1.34 11.27 2.6 5.44 1.9 8.78 6.22 11.68 11.04 2.15 3.58 4.63 7 7.22 10.28 3.44 4.36 5.92 9.13 6.55 14.63.72 6.34-1.55 11.68-6.57 15.66-5.08 4.03-11.09 5.51-17.44 5.81Z" style="fill:#a5805b;stroke-width:0"/><path d="M107.3 106.7c.01 2.39-1.52 4.04-3.79 4.08-2.31.04-4.16-1.85-4.18-4.26-.01-1.87 2.03-3.78 4.06-3.8 2.25-.02 3.9 1.65 3.91 3.98M75.29 86.63c-1.84 0-3.65-1.85-3.62-3.71a3.63 3.63 0 0 1 3.68-3.6c2.02.03 3.62 1.64 3.62 3.65 0 1.93-1.73 3.66-3.67 3.66Zm35.87 8.22c-.06 1.79-1.58 3.27-3.35 3.23-1.68-.04-3.31-1.77-3.21-3.43.11-1.93 1.69-3.43 3.51-3.34 1.65.09 3.11 1.78 3.05 3.54m-17.79 6.78c-1.71-.04-2.72-1.1-2.64-2.8.08-1.64 1.26-2.73 2.88-2.65 1.51.07 2.83 1.46 2.76 2.89-.08 1.5-1.36 2.6-2.99 2.57ZM78.53 75.17c-1.5 0-2.64-1.11-2.67-2.62a2.663 2.663 0 0 1 2.56-2.74c1.52-.05 2.79 1.21 2.77 2.74-.03 1.55-1.1 2.62-2.65 2.63Z" style="fill:#4a3726;stroke-width:0"/></svg>