<svg xmlns="http://www.w3.org/2000/svg" data-name="fill_olive" viewBox="0 0 128 128"><defs><linearGradient id="a" x1="-1879.61" x2="-1797.52" y1="181.72" y2="203.77" gradientTransform="translate(962)scale(.5)" gradientUnits="userSpaceOnUse"><stop offset="0" stop-color="#8e964d"/><stop offset=".41" stop-color="#8a9249"/><stop offset=".78" stop-color="#68721d"/><stop offset="1" stop-color="#656e19"/></linearGradient><linearGradient id="b" x1="-1726.42" x2="-1798.38" y1="136.63" y2="171.59" gradientTransform="translate(962)scale(.5)" gradientUnits="userSpaceOnUse"><stop offset="0" stop-color="#656f19"/><stop offset=".6" stop-color="#8b934a"/><stop offset="1" stop-color="#8d954d"/></linearGradient><linearGradient id="c" x1="26.78" x2="44.33" y1="6.02" y2="65.48" gradientUnits="userSpaceOnUse"><stop offset="0" stop-color="#786047"/><stop offset=".35" stop-color="#775f46"/><stop offset="1" stop-color="#4b3621"/></linearGradient></defs><path d="M66.5 106.75c-1.39 10.2-10.58 19.46-21.25 18.74-21.1-1.42-32.62-34.61-20.46-50.45.84-1.09 3.68-3.26 3.7-4.28-8.77-19.33-11.99-42.2-4.5-62.52 1.5-4.09 1.73-6.64 6.5-4.98C38.37 6.01 34.47 8.31 33 14.5c3.21-.58 6.37-1.55 9.33-2.91 6.95-3.18 12.98-10.39 21.3-8.97C72.01 4.05 70.71 14.25 66 19c16.61 3.84 9.88 19.67-4.39 21.37-11.96 1.43-22.45-2.48-30.86-10.86v1.99c8.79 9.17 18.31 17.73 29.22 24.3 20.13-14.46 54.53 10.12 47.27 33.7-5.17 16.79-29.44 15.47-40.5 5.51-.34.32-.24.54-.24.74 0 3.27.41 7.96 0 11M53.04 71.47c.47-.62.49-1.56.62-2.33.57-2.87.12-4.89-2.34-6.31-6.04-4.02-11.55-8.89-16.92-13.85-.85-.81-2.56-2.24-2.3-.16.66 4.33 2.12 8.79 3.57 12.84 1.05 2.47 1.67 6.08 4.86 6.34 2.99.06 5.73.91 8.59 2.44 1.15.4 2.77 1.69 3.84 1.11l.07-.07Z" style="fill:#0a0c0c"/><path d="M32.83 116.17c-6.03-5.72-9.81-13.39-10.35-21.9-2.01-31.22 31.63-31.76 40.03-3.53 6.49 21.82-10.32 43.79-29.68 25.43" style="fill:url(#a)"/><path d="M66.99 91.76c-3.18-2.51-4.05-8.15-6.59-11.91-.93-1.38-3.85-4.24-4.19-5.31-1.59-5.04 1.02-12.67 5.04-16.02 15.06-12.52 42.36 4.35 44.18 22.3.92 9.03-4.13 17.32-13.42 18.47-4.68.58-9.77.6-14.18-.86-4.14-1.37-7.64-4.12-10.85-6.66Z" style="fill:url(#b)"/><path d="M31.5 19.5c2.73.96 5.48 1.97 8.39 2.36 4.22.57 9.6.45 13.86.14 5.39-.4 11.46-2.59 16.51 1 6.9 4.9 1.06 11.95-4.98 14.02-10.69 3.67-26.47-1.18-33.53-10.01-2.37-2.96.02-4.17-.24-7.51ZM48 20c-.32-.39-.38-.8-.14-1.23.42.27 6.98-5.27 5.32-4.59-3.16 2.9-6.55 4.67-10.18 5.32-3.78-.36-5.77-.2-9.5-1.76-.48-.2-1.15-.05-1-.74 3.87-.69 7.77-1.72 11.34-3.41 5.57-2.63 15.52-12.26 21.65-7.84 3.76 2.72 1.5 9.04-1.28 11.71-1.08 1.04-3.02 1.24-4.52 1.48-3.49.56-8.16 1-11.69 1.06" style="fill:#337a54"/><path d="M55.62 61.31c-.7.31-1.63-.16-2.31-.56-3.93-2.46-7.79-5.11-11.36-8.06-2.35-2.02-4.17-4.24-6.8-5.95-1.42-1.04-3.06-2.4-4.08-3.6-.69-.87-1.91-2.35-2.78-1.15-.26 2.54.81 5.23 1.24 7.76 1.36 5.65 3.23 11.16 5.28 16.61 1.03 2.11-.72 2.18-2.69 2.52-1.24.25-2-.34-2.41-1.55-6.29-15.35-9.09-32.2-5.59-48.71.73-3.43 1.7-7.16 2.64-9.72.54-1.47.39-2.4 1.35-3.22.88-.65 3.37.42 3.84 1.29.3.56.1 1.12-.09 1.71-2.4 6.6-3.74 13.4-4.31 20.41-.08.94-.05 2 .29 2.81 1.07 2.38 4.08 4.84 7.17 7.77 3.79 3.65 7.15 6.67 12.44 10.87a69.5 69.5 0 0 0 9.62 6.47c1.91.95-.29 3.46-1.33 4.23l-.13.06Z" style="fill:url(#c)"/><path d="M27.92 7.65c1.01-.5 2.42.28 2.26 1.35-.23 2.43-2.84 9.04-3.38 12.25-.12.5-.18 1.08-.72 1.25-1.16.31-2.81-.32-2.34-1.77.71-3.83 1.81-8.34 3.29-11.92.17-.41.4-.83.76-1.07l.13-.08Zm5.31 32.98c1.38.98 6.57 5.55 4.53 6.95-.65.21-1.07.02-1.64-.21-2.32-1.45-6.73-5-6.38-7.91.71-1.93 3.49 1.17 3.49 1.17" style="fill:#937657"/><path d="M48 20c-2.04.03-3.37-.35-5-.5.92-.75 2.09-.98 3.16-1.59 1.22-.71 6.61-4.96 7.03-4.88.56.12 1.51 1.14 1.09 1.97-.94 1.86-4.81 3.43-6.28 5" style="fill:#1b422e"/><path d="M24.82 87.03c2.54-2.19 2.08 5.34 2.22 6.6.43 5.4 2.03 10.67 5.47 14.99 1.05 1.35 2.43 2.75 3.18 4.23.78 1.46.54 2.64-1.13 1.89-6.46-4.16-10.76-14.63-10.56-22.3 0-1.71-.17-3.87.74-5.31l.07-.1Zm67.52 9.15c-.45.58-1.54.87-2.36.94-7.25.66-14.62-1.71-20.54-5.92-1.45-.97-2.36-3.53.32-2.9 2.41.86 4.54 2.76 6.96 3.67 2.72 1.12 6.14 2.15 9.06 2.42 2.08.43 5.17-1.1 6.7.7.15.4.2.49-.07.98l-.08.1Z" style="fill:#ced598"/><path d="M56.4 24.81c-.19-3.45 9.35-1.99 11.18-.91 1.28.51 3.89 2.72 2.25 3.93-1.27.49-3.56-1.77-5.28-2.04-2.1-.45-4.59-.07-6.72-.32-.67-.1-1.17-.3-1.38-.58l-.06-.09Zm8.11-17.18c.28.67-.09 2.05-.76 2.3-.5.2-1.18-.09-1.99-.24-1.02-.25-1.95-.23-2.83.17-.79.29-1.9 1.13-2.53.14-1.36-2.43 3.56-3.81 5.35-3.44.76.21 2.1.56 2.7.98z" style="fill:#5ca47e"/></svg>