<svg xmlns="http://www.w3.org/2000/svg" data-name="fill_raisins" viewBox="0 0 128 128"><path d="M80.79 99.04c1.34 12.6-9.9 22.91-22.38 21.1-4.62-1.12-8.45-5.12-12.73-7.13-10.72-5.36-23.87-8.02-29.82-19.51C-6.23 66.27-.76 49.29 34.82 44.86c-.98-19.15 10.43-51.79 33.25-29.97 3.91 6.72 9.66 9.77 16.2 13.62 8.87-4.68 19.74-11.99 29.21-4.39 1.45.96 2.95 3.3 2.83 4.89.37 14.76 12.95 36.11 7.65 50.14-5.03 15.9-29.82 43.3-42.6 19.67l-.57.21Z" style="fill:#4a3726;stroke-width:0"/><path d="M72.57 76.34c-.76 4.79.45 9.52 4.64 13.26-6.93 9.49-1.05 24.3-18.08 22.83-8.53-6.69-18.41-10.18-27.86-14.57-8.98-5.28-13.61-16.09-19.46-24.42-3.75-5.82-1.01-13.73 5.41-16.34 13.69-6.05 30.36-6.4 42.42 3.1 3.58 6.33 6.9 11.48 12.92 16.14Zm18.59 23.94c-3.49-8.91-11.85-16.81-11.99-26.95.02-.88-.64-1.88-1.22-2.65-2.62-4.47 1.56-9.52.53-14.62 2.55-2.9 4.83-6.66 5.3-10.46.36-5.96 3.57-10.72 9.15-12.81 4.59-2.13 10.32-6.33 14.95-3.11 2.82 15.72 10.7 30.25 9.07 45.86-1.88 8.94-15.64 26.73-25.79 24.73Z" style="fill:#7f473f;stroke-width:0"/><path d="M42.95 44.02c-1.2-7.01 2.4-31.93 13.61-27.91 7.73 3.34 10.34 12.37 18.36 15.47 3.53 1.84 4.18 3.17 2.49 6.93-.84 3.22-.44 7.37-2.68 10.16-4.45 4.75-3.15 7.56-4.09 13.12-.27.08-.54.16-.8.24-3.67-4.81-5.68-11.24-12.85-11.49-5.12-1.21-8.84-4.12-14.03-6.53Z" style="fill:#5f3b3f;stroke-width:0"/><path d="M19.26 71.74c3.53-3.52 4.98-2.85 9.06 4.41 4.3.15 6.86 2.93 7.98 6.63 2.03.67 3.54 1.1 5.01 1.66 4.21 1.52 1.99 8.28-2.24 6.88-4.12-.89-8.55-1.29-10.14-6.38-5.1-3.25-10.4-5.44-9.67-13.2m39.77 7.49c6.44.48 8.16 5.31 10.04 10.9-.97 1.02-2.23 2.35-4.12 4.35-2.05-2.63-3.67-4.71-5.81-7.46-3.24-.49-6.72-2.15-7.45-6.53-2.85-1.63-6.79-.92-7.71-5.91 4.22-6.37 12.21-.94 15.51 3.81-.15.28-.3.56-.46.84m48.64-10.86c-1.13 1.62-2.25 3.23-3.62 5.19.32 1.56.71 3.46 1.3 6.3-2.16 2.4-4.72 5.24-7.12 7.92-1.69-.53-2.62-.82-3.49-1.09-3.29-3.95.32-6.07 2.41-8.82-1.73-3.93-1.86-7.75 2.42-10.44-1.21-3.15-2.59-8.42 1.41-9.44 5.48-.68 5.13 6.57 6.7 10.38ZM92.59 44.24c4.35-.22 6.41 2.38 4.28 5.78-2.86 4.29-1.94 9.17-3.98 13.6h-3.8c-4.37-3.64-2.52-14.06 3.5-19.39Z" style="fill:#4a3726;stroke-width:0"/></svg>