<svg xmlns="http://www.w3.org/2000/svg" data-name="fill_baletwine" viewBox="0 0 128 128"><defs><linearGradient id="a" x1="-5271.84" x2="-5423.42" y1="-618.03" y2="-560.87" gradientTransform="matrix(.5 0 0 .5 2738 370)" gradientUnits="userSpaceOnUse"><stop offset="0" stop-color="#1c8b74"/><stop offset=".47" stop-color="#28b195"/><stop offset="1" stop-color="#1c8770"/></linearGradient><linearGradient id="b" x1="-5289.62" x2="-5408.61" y1="-683.56" y2="-682.76" gradientTransform="matrix(.5 0 0 .5 2738 370)" gradientUnits="userSpaceOnUse"><stop offset="0" stop-color="#1c8b75"/><stop offset=".5" stop-color="#28b195"/><stop offset="1" stop-color="#1c8b74"/></linearGradient></defs><path d="M96 22.5c1.11 1.75 2 3.58 2.02 5.73v81.04c-.66 7.93-9.71 11.73-16.41 13.59-13.16 3.65-33.81 3.53-45.57-4.15-2.93-1.92-5.41-4.34-6.06-7.94V27.73c.79-9.29 16.18-13.65 23.82-14.68 8.18-1.1 13.92.42 21.44.45 2.42 0 5.24-1.13 8.02-1.03 9.33.34 23.98 5.73 31.98-1.48 3.21-2.9 2.36-8.36 6.51-8.53 5.81-.25 3.77 6.52 2.17 9.71-4.85 9.68-18.19 11.67-27.93 10.33Z" style="fill:#070d0d"/><path d="M32.5 45c.01-3.16-.01-6.34 0-9.5 2.66.87 4.05 2.96 6.66 4.09C55.38 46.61 80.39 46.22 95 35.5V111c-.47 3.44-6.07 6.5-9.01 7.74-12.35 5.21-32 5.12-44.33-.15-3.87-1.65-7.65-3.86-8.66-8.09l-.3-1.34z" style="fill:url(#a)"/><path d="m70 15.5-3.53 2.72c-1.22 2.62-2 1.48-4.22 1.77-5.77.76-15.06 2.22-13.63 10.13.72 3.98 8.56 6.41 12.18 6.82 6.38.73 21.13-1.53 18.32-10.82L75 21.5c5.12-1.22 13.99-2.28 17.95 1.79 6.39 6.57-.99 11.93-6.96 14.44-12.39 5.23-32.39 5.22-44.67-.31-8.66-3.9-12.9-10.37-3.08-16.44 8.49-5.25 22.01-6.42 31.76-5.48" style="fill:url(#b)"/><path d="M65.5 34H63c-.42-10.5 6.86-17.82 17.23-18.52 12.2-.83 28.77 7.31 38.27-4.23.51-.61 2.62-5.25 3.46-2.45 1.01 3.39-6.05 8.44-8.84 9.57C99.78 23.74 85.2 14.13 73 19.75c-5.24 2.41-7.56 8.79-7.5 14.25M63 22.5c-.34 1.6-1.26 2.86-1.75 4.5-.63 2.12-.82 4.31-1.29 6.45-2.57.47-8.36-1.67-8.88-4.32-.92-4.74 8.57-6.49 11.92-6.63" style="fill:#18a085"/><path d="M75.35 31.35c-.98.83-6.51 2.94-7.35 2.15-.38-1.94 1.99-8.48 3.5-9.28 1.77-.93 6.16 2.52 5.42 4.92-.05.15-1.42 2.07-1.58 2.21ZM33 110.5c-.07-.31-.82-.98-.53-1.69.14-21.27-.07-42.55.03-63.81z" style="fill:#18a085"/><path d="M41.5 85.01c2.55-.89 5.3.73 7.99 1.25 12.13 2.35 24.29 2.4 36-2.01 1.38-.52 5.28-3.61 5.54-.99.2 1.98-4.74 3.53-6.43 4.1-11.13 3.76-24.28 3.98-35.7 1.49-1.51-.33-5.88-1.29-6.89-2.11-.68-.56-.56-.94-.51-1.73M91 47c.57 3.03-3.53 4.02-5.87 4.87-10.38 3.79-24.87 4.14-35.63 1.88-.99-.21-6.39-1.47-6.52-2.05-.21-.93.12-2.23 1.25-2.21 13.31 4.27 28.27 4.13 41.41-.62 1.8-.65 3.32-2.14 5.37-1.88Zm-5.13 10.58c1.12-.13 1.95.41 1.58 1.62s-6.43 2.82-7.85 3.15c-9.25 2.13-22.02 2.48-31.21 0-1.18-.32-3.91-1.39-1.91-2.62 1.14-.7 7.35 1.06 9.27 1.26 7.78.83 15.62.52 23.25-1.24 2.09-.48 5.19-1.98 6.87-2.17M70.5 99c-4.34.27-8.66.28-13 0-2.07-.24-9.7-1.01-11-1.75-1.19-.67-.14-2.37.82-2.65 9.82 2.47 20.35 2.62 30.29.75 1.57-.29 3.85-1.39 5.16-1.39 1.74 0 2.59 1.42.89 2.44-2.29 1.37-10.19 2.26-13.15 2.6Zm20.44-32.05c-.25.37-6.89 2.98-7.94 3.3-6.22 1.91-18 3.59-24.25 2.26-2.35-.5-2.47-2.15-.49-2.51 3.4-.61 8.74.27 12.5 0 4.11-.3 9.61-1.62 13.51-2.99 1.1-.38 5.19-2.51 5.5-2.53 1.19-.05 1.65 1.79 1.18 2.46ZM35.8 99.03c1.57-.47 3.38 1.42 4.85 2.06 5.5 2.4 12.6 4 18.59 4.41 2.74.18 6.53-.44 9 0 1.89.34 1.86 2.26-.48 2.52-8.32.96-23.46-1.41-30.62-5.93-.88-.56-3.44-2.44-1.35-3.06Zm27.7 15.47c6.62-.63 13.41-.85 19.77-2.98 1.99-.67 4.48-2.39 6.22-2.79s2.03 1.53 1.02 2.53c-.87.86-7.06 2.94-8.62 3.38-4.18 1.17-9.8 2.11-14.13 2.36-2.38.14-4.75.6-4.25-2.5Zm-27.18-6.93c.44-.08 6.5 3.25 8.07 3.79 3.99 1.36 8.16 1.88 12.26 2.74 2.13 1.84.23 2.51-1.84 2.36-3.55-.26-17.99-3.91-19.6-6.94-.45-.84.49-1.82 1.1-1.94ZM91 73.5c.05.87.17 1.54-.5 2.24-1.84 1.93-18 6.56-19.5 5.25-.02-.95-.25-2.06.83-2.42 4.85-.51 9.6-1.66 14.16-3.34 1.67-.62 3.06-2.05 5.01-1.74Zm0 26.5c.63 2.45-2.62 3.46-4.5 4.24-1.39.58-9.55 3.6-9.99 1.5.91-2.35 5-2.42 7.27-3.22 1.17-.41 6.6-3.13 7.23-2.52Z" style="fill:#5dbba9"/><path d="M70.5 99c-4.99.56-8.05.56-13 0z" style="fill:#18a085"/></svg>