<svg xmlns="http://www.w3.org/2000/svg" viewBox="0 0 128 128"><path d="M9.77 50.14c1.02-9.32 5.88-14.67 15.33-16.99 3.67-9.18 10.38-12.72 23.29-12.28C58.7 9.46 72.21 10.3 84.97 23.13c12.2.63 19.26 4.79 20.99 12.45 7.14 3.02 11.38 8.36 12.23 16.18 9.72 4.61 10.74 18.92 2.19 24.64-1.85 1.24-3.07 3.59-4.23 5.64-9.73 17.73-24.9 29.31-45.81 30.93-5.46 3.24-13.08 2.22-20.49.9-16.08-2.75-27.55-13.19-33.58-28.18-1.84-4.73-4.09-8.63-8.97-11.49-8.54-5.03-6.66-19.65 2.47-24.05Z" style="fill:#4a3726;stroke-width:0"/><path d="M17.91 55.94c-4.07-18.25 17.8-22.01 21.79-2.44 6.72-3.67 15.32 2.93 11.78 10.21-6.47 14.59 1.7 32.72 14.5 40.93.71.49.65.51 1.02 1.62-25.23 6.3-40.65-12.18-48.69-32.99-.99-1.58-2.98-2.64-4.7-3.62-7.85-3.85-4.31-14.53 4.3-13.72Zm57.41 48.88c-2.8-3.16-5.07-5.73-7.48-8.45 15.44-6.85 15.95-22.48 11.66-36.11-.49-7.19 5.26-12.65 12.34-6.07.86-16.92 22.34-15.44 17.9 4.48 6.15-2.93 12.26 5.5 7.71 10.09-5.63 4.23-7.92 10.69-11.8 16.06-7.41 10.4-17.75 18.19-30.33 19.99Z" style="fill:#7fa95f;stroke-width:0"/><path d="M80 43.75c-2.8 4.06-5.49 7.15-7.23 10.72C70.01 67.69 83.01 85.5 61.7 90.48c-14.19-20.65 8.38-28.64-10.08-43.61 2.66-4.07 5.97-4.46 11.56-1.21 1.94-7.97 14.29-9.85 16.81-1.91Z" style="fill:#7fa95f;stroke-width:0"/><path d="M87.57 42.68c-7-12.7-16.64-15.09-26.77-6.41q-8.97.79-15.92 6.66c-3.81-3.15-7.56-6.25-11.44-9.47 2.05-5.2 8.48-6.58 18.88-3.51 3.69-14.83 23.05-10.36 28.9.82 5.85-.33 11.72-.53 16.15 3.87-3.48 2.85-6.66 5.46-9.8 8.03Z" style="fill:#50984f;stroke-width:0"/></svg>