<svg xmlns="http://www.w3.org/2000/svg" data-name="fill_electriccharge" viewBox="0 0 128 128"><defs><linearGradient id="a" x1="-1598.45" x2="-1699.45" y1="294.83" y2="295.21" gradientTransform="matrix(.5 0 0 .5 888 -74)" gradientUnits="userSpaceOnUse"><stop offset="0" stop-color="#632e88"/><stop offset="1" stop-color="#946eae"/></linearGradient><linearGradient id="b" x1="-1598.4" x2="-1699.39" y1="189.49" y2="190.91" gradientTransform="matrix(.5 0 0 .5 888 -74)" gradientUnits="userSpaceOnUse"><stop offset="0" stop-color="#632f88"/><stop offset="1" stop-color="#936dad"/></linearGradient><linearGradient id="c" x1="-1670.18" x2="-1627.18" y1="165.65" y2="166.09" gradientTransform="matrix(.5 0 0 .5 888 -74)" gradientUnits="userSpaceOnUse"><stop offset="0" stop-color="#a8a8a8"/><stop offset="1" stop-color="#787777"/></linearGradient><linearGradient id="d" x1="-1670.28" x2="-1625.81" y1="181.37" y2="182.05" gradientTransform="matrix(.5 0 0 .5 888 -74)" gradientUnits="userSpaceOnUse"><stop offset="0" stop-color="#a3a3a3"/><stop offset="1" stop-color="#767575"/></linearGradient></defs><path d="M80.01 12.1c.21.24 4.66.99 5.76 1.38 3.16 1.12 7.2 3.17 7.69 6.81.83 6.18.22 12.43.07 18.94.04 24.48-.02 50.06 0 74.54 0 5.1-3.59 6.93-8.13 8.37-11.6 3.69-33.8 4.05-45.02-.76-2.8-1.2-5.64-3.33-5.87-6.63l-.02-93.52c-.06-4.2 3.96-6.28 7.39-7.61 1.18-.46 5.88-1.42 6.09-1.66.5-.59-1.08-4.29 2.57-6.69 5.17-3.4 22.88-3.29 27.73.72 2.97 2.46.96 5.19 1.75 6.11Z" style="fill:#0e0e12"/><path d="M90.5 25v91.25c0 .41-2.86 2.21-3.5 2.5-9.69 4.46-37.65 4.68-47.03-.47-.53-.29-2.47-1.66-2.47-2.03V25c2.5 1.81 5.54 2.58 8.49 3.26 11.17 2.56 26.95 2.58 38.01-.51 2.26-.63 4.61-1.35 6.5-2.75" style="fill:url(#a)"/><path d="M48 15c-.59 4.09 2.19 6.83 5.88 7.88 5.38 1.53 16.9 1.41 21.98-.77 3.14-1.35 4.49-3.66 4.15-7.1 4.57.14 16.04 4.35 7.45 8.7-9.56 4.85-39.18 5.3-48.12-.79C33 18.61 44.4 15.1 48 15" style="fill:url(#b)"/><path d="M76.98 8.02c.85 1.22-1.65 2.72-2.62 3.09-4.96 1.9-16.19 1.79-21.13-.09-1.46-.56-3.07-1.27-1.99-3.03.63-1.04 7.94-2.35 9.52-2.48 3.17-.27 7.75-.04 10.86.63.78.17 5.17 1.62 5.36 1.89Z" style="fill:url(#c)"/><path d="M53.66 13.9c7.46 1.45 16.13 1.63 23.34-.89.1 5.16.91 5.72-4.11 7.14s-18.32 1.76-22.28-1.92c-.11-1.65-.14-4.3-.09-5.87l3.13 1.54Z" style="fill:url(#d)"/><path d="M73 68h11.75c1.26 0 1.75 3.6.48 4.48-10.39 10.93-19.56 23.14-29.97 34.03-1.15 1.2-3.48 4.01-4.99 4.03-2.78.03-2.45-1.44-2.22-3.75L55.01 84H43.26c-1.05 0-1.89-3.39-.77-4.28l34.03-37.98c1.28-.62 3.23.05 3.5 1.51-1.1 8.42-5.2 16.41-7.01 24.74Z" style="fill:#0e0f0e"/><path d="M43 33.5c.66 6.08.57 12.4 0 18.5-1.2 1.92-1.83 1.19-2.5-.5-.64-5.76-.55-11.72 0-17.5.67-1.69 1.3-2.42 2.5-.5m-2.5 23.75c.34-1.18 2.5-.75 2.5 0v9c0 .94-2.5.94-2.5 0 0-2-.41-7.58 0-9M43 105v10c-.64-.03-1.46.17-2.03-.22-.63-.43-.72-7.97-.4-8.96.34-1.05 1.5-.84 2.43-.82" style="fill:#c3abd3"/><path d="m45 81.5 31.01-36 1 .25-7.51 24.74H83l-31.01 36c-.84 0-1.08.32-.9-.64C52.54 98 57.18 89.56 58.5 81.5z" style="fill:#f9e150"/></svg>