<svg xmlns="http://www.w3.org/2000/svg" data-name="fill_roundbalecotton" viewBox="0 0 128 128"><path d="M122.34 48.87c-.49 2.97.09 5.76 1.12 8.59 1.58 4.36 1.49 8.88-.05 13.26-.92 2.6-1.41 5.15-1.11 7.92.65 5.95-1.37 11.08-5.03 15.71-.82 1.03-1.53 2.28-1.87 3.54-2.53 9.52-8.86 15.09-20.37 15.47-2.34.08-4.69.49-7 .94-5.4 1.04-10.71 1.24-16.07-.42-1.61-.5-3.64-.45-5.26.04-4.33 1.31-8.69 1.3-13.1.97-2.31-.17-4.47-.89-6.12-2.56-.93-.94-1.57-.8-2.59-.15-7.48 4.73-15.86 3.93-22.39-2.04-2.25-2.06-4.46-4.17-6.83-6.08-5.17-4.18-7.62-9.61-8.1-16.15-.13-1.73-.64-3.55-1.43-5.1-2.69-5.27-3.37-10.68-1.98-16.44.38-1.57.39-3.38 0-4.94-1.36-5.53-1-10.83 1.87-15.75 1.45-2.48 1.64-5.13 1.86-7.79.5-5.93 3.48-10.38 7.91-14.07 1.65-1.37 3.44-2.62 4.86-4.21 6.75-7.53 14.92-8.21 23.83-5.01 2 .72 3.6 1.41 5.49-.3.84-.76 2.27-1.08 3.46-1.18 4.4-.35 8.81-.58 13.09.96 1.97.71 3.92.64 5.98.02 5.77-1.73 11.55-1.57 17.4-.12 2.7.67 5.57.65 8.37.97 8.37.95 13.97 5.34 16.5 13.43.72 2.29 1.71 4.33 3.19 6.26 3.19 4.16 4.96 8.86 4.36 14.24Z" style="fill:#4b3824;stroke-width:0"/><path d="M113.55 49.78c-.94 3.38.21 6.51 1.33 9.57 1.15 3.12 1.21 6.11-.03 9.2-1.28 3.18-1.82 6.47-1.34 9.93.56 4.03-.72 7.51-3.31 10.66-1.26 1.54-2.36 3.39-2.95 5.27-2.47 7.86-4.63 9.82-12.61 10.14-3.07.12-6.01.55-9.01 1.25-3.74.87-7.63.91-11.38-.43-3.2-1.14-6.45-1.18-9.63-.05-3.19 1.14-6.44.99-9.72.83-1.08-.05-1.45-.34-.6-1.32 3.31-3.83 5.13-8.43 6.87-13.11.93-2.53 2.27-4.93 3.64-7.26 3.28-5.63 4.11-11.55 3.01-17.96-.61-3.52-.44-7.18-.58-10.77-.12-3.16.29-6.43-.4-9.45-.64-2.77-2.04-5.6-3.83-7.82-3.76-4.69-5.33-10.45-8.3-15.49-.53-.9-.09-1.27.74-1.25 2.45.06 5.04-.29 7.31.4 4.62 1.4 9.01 1.53 13.6-.03 3.5-1.19 7.09-.82 10.66.14 2.04.55 4.18.77 6.29 1.05 1.79.23 3.63.17 5.38.52 3.54.71 6.2 2.59 7.36 6.21 1.18 3.66 2.54 7.16 5.16 10.16 2.34 2.68 2.76 6.12 2.33 9.63Z" style="fill:#f4f8f4;stroke-width:0"/><path d="M59.03 53.21c-.9 5.73-.27 11.39.59 17.08.53 3.52-.32 6.84-2.13 10.04-1.99 3.52-3.75 7.21-5.15 11-1.84 4.96-4.59 8.99-9.31 11.56-.89.48-1.69 1.12-2.53 1.68-3.76 2.5-8.05 2.44-11.55-.47-3.2-2.66-6.18-5.59-9.31-8.35-2.72-2.39-3.13-5.7-3.3-8.92-.15-2.92-.9-5.51-2.3-8.02-1.82-3.27-2.65-6.71-1.3-10.38 1.15-3.12.87-6.22-.06-9.29-1.08-3.57-.67-6.92 1.35-9.99s2.35-6.57 2.51-10.02c.18-3.91 2.29-6.44 5.03-8.78 2.31-1.97 4.52-4.06 6.75-6.13 2.56-2.37 5.37-3.13 8.95-2.61 5.97.86 10.06 3.77 12.06 9.41 1.61 4.52 4.07 8.52 6.88 12.34 2.17 2.94 3.25 6.16 2.83 9.83Z" style="fill:#aeaeae;stroke-width:0"/><path d="M45.98 63.77c-.39-7.94-3.84-14.46-8.24-20.59-1.52-2.12-3.77-3.18-6.3-3.65-2.67-.5-4.28-3.16-3-5.95.76-1.65 2.13-2.25 3.82-2.27 3.07-.03 5.95.93 8.09 2.97 2.67 2.55 5.29 5.32 7.22 8.44 3.2 5.19 5.81 10.79 6.22 17 .24 3.67.28 7.46-.39 11.05-.8 4.28-2.05 8.58-3.84 12.54-2.86 6.33-8.06 9.46-15.16 9.33-5.06-.1-8.5-2.92-11.21-6.66-5-6.9-7.07-14.55-4.75-23.02.65-2.38 1.11-4.88 2.2-7.05 3.55-7.04 13.15-7.6 17.52-1.04 4.05 6.08 3.76 12.54.86 18.95-.54 1.21-1.83 2.35-3.06 2.91-1.44.66-3.14.44-4.29-1.03-1.11-1.43-1.75-2.98-.64-4.67 1.66-2.54 1.72-5.34 1.41-8.18-.1-.97-.46-2-.99-2.83-.9-1.41-2.77-1.22-3.55.24-3.42 6.43-1.96 16.62 3.12 21.76 3.37 3.41 8.13 2.82 10.46-1.43.96-1.76 1.69-3.7 2.17-5.64.91-3.69 1.57-7.45 2.33-11.18" style="fill:#4a3724;stroke-width:0"/></svg>