<svg xmlns="http://www.w3.org/2000/svg" data-name="fill_soymilk" viewBox="0 0 128 128"><path d="M31.81 106.01V61.49h.08v-8.13c-7.36-6.77-4.51-17.58 5.36-20-1.5-5.39.32-9.61 4.84-12.59C45.17 8.68 53.3 1.8 64.28 1.91c8.8.09 19.13 5.73 21.63 18.82 4.38 2.93 6.45 6.94 4.84 12.59 4.53 1.14 7.94 3.64 9.11 8.29 1.17 4.67-.32 8.59-3.68 11.49v8.29h.06v45.97c2.18 8.48-5.44 18.43-16.04 18.62-10.73.19-21.47.14-32.21.01-8.09-.09-14.98-6.12-16.26-14.1-.29-1.82-.04-3.73-.04-5.59.05-.1.09-.19.14-.29Z" style="fill:#4a3726;stroke-width:0"/><path d="M38.99 102.02V65.27h50.06v36.75z" style="fill:#4883af;stroke-width:0"/><path d="M47.78 39.49h32.59c.83 1.36 1.7 2.78 2.67 4.37 1.43-.9 2.72-1.84 4.12-2.57 1.89-.99 3.71-.89 5.03 1 1.29 1.85.81 3.94-1.23 5.41-1.45 1.05-2.99 1.97-4.7 3.09.96 2.18 1.9 4.3 2.96 6.73H38.74c1-2.17 1.92-4.19 3.04-6.61-1.47-.99-3.01-2.01-4.52-3.07-2.26-1.58-2.76-3.62-1.41-5.57 1.23-1.79 3.31-2.07 5.55-.71 1.13.69 2.21 1.45 3.47 2.28 1.07-1.58 2.07-3.08 2.93-4.35Zm31.11-14.82c1.33.99 2.69 1.75 3.7 2.83.69.73 1.46 2.18 1.16 2.84-.39.87-1.74 1.62-2.79 1.8-1.66.3-3.4.09-5.11.09H48.22c-1.6 0-3.74.27-3.88-1.81-.08-1.23 1.25-2.67 2.18-3.82.62-.77 1.66-1.21 2.51-1.8.77-11.31 8.52-15.82 15.68-15.57 7.89.28 13.29 6.11 14.18 15.44m-30.22 93.84c-5.32.14-9.21-3.29-9.68-8.74h49.85c.4 4.8-3.93 8.83-9.43 8.75-1.67.16-29.03.16-30.74 0Z" style="fill:#aeaeae;stroke-width:0"/><path d="M70.81 22.3H57.37c.55-3.26 3.1-5.5 6.36-5.67s5.91 1.84 7.09 5.67ZM51.32 90.48c-2.05-2.05-3.1-4.47-2.69-7.43-3.98-3.57-2.98-9.54-1.53-14.1.61-1.76 2.44-2.45 4.71-1.95.61-1.1 1.68-1.23 2.83-1.23 5.43-.81 12.02.96 13.33 6.85 1.6 3.22 5.95 2.96 6.27 8.49 4.29 1.42 5.91 5.82 7.72 9.54 1.89 4.76-8.72 6.8-12.04 7.19-.61 2.38-2.61 2.96-4.9 3.1-6.63 1.11-14.54-2.24-13.69-10.47Z" style="fill:#4a3726;stroke-width:0"/><path d="M62.58 98.95c-4.62.37-9.88-2.92-9.06-8.1.13-.81-.03-1.44-.7-2.03-3.4-3.01-1.15-4.88-2.4-7.09-3.6-2.9-2.2-7.46-1.51-11.3.11-.68.46-1.28 1.11-1.35 1.59.16 3.07 1.37 4.62 1.77 4 .77 7.99 3.99 7.15 8.49-.08.43.18 1.08.5 1.4 3.79 3.48 1.18 5.37 2.74 7.54 2.39 2.04 2.23 5.17 2.65 8.01.7 3-3.25 2.31-5.1 2.67Z" style="fill:#7fa95f;stroke-width:0"/><path d="M80.12 92.16c-3.24 1.92-6.54 3.39-10.44 3.32-.19-4.6-.84-5.38-2.97-9.06.23-2.78-.76-5.06-2.75-6.97.96-6.18-4.76-10.23-10.22-11.03v-.25c3.95-.82 8.54-.73 11.12 2.87 1.23 1.57.69 4.17 2.9 4.98 2.38.97 4.01 2.59 4.28 5.34.11 1.73 2.27 1.93 3.32 2.9 2.27 2.23 3.68 4.93 4.77 7.91Z" style="fill:#589058;stroke-width:0"/><path d="M55.12 79.4c-2.47.14-5.04-3.32-2.88-5.23 3.55-2.96 8.39 4.92 2.88 5.23m1.94 2.52c3.06-.14 5.43 4.88 1.62 5.78-3.63.77-6.41-5.66-1.62-5.78m4.17 14.41c-4.23.03-5.15-6.83-.18-5.66 2.87.6 4.23 5.62.18 5.66" style="fill:#4a3726;stroke-width:0"/></svg>