<svg xmlns="http://www.w3.org/2000/svg" viewBox="0 0 128 128"><path d="M20.61 104c1.1-4.89-1.76-10.35 3.62-14.06V38.06c-5.47-3.59-2.47-9.21-3.63-14.06-1.74 0-3.49.06-5.23-.01-3.78-.15-6.34-2.8-6.37-6.53-.02-2.5-.04-5 0-7.5.06-3.55 2.48-5.95 6.08-5.95q48.9-.03 97.8 0c3.74 0 6.09 2.43 6.12 6.22.02 2.29.01 4.58 0 6.87-.02 4.29-2.58 6.84-6.96 6.9-1.54.02-3.08 0-4.62 0-1.23 4.82 1.84 10.45-3.65 14.04v51.9c5.33 3.71 2.56 9.15 3.61 14.06 1.64 0 3.37-.04 5.11 0 3.95.12 6.49 2.76 6.51 6.71q.015 3.435 0 6.87c-.02 4.02-2.31 6.4-6.25 6.41-32.49.01-64.99.01-97.48 0-3.93 0-6.24-2.4-6.26-6.4q-.015-3.435 0-6.87c.02-3.95 2.55-6.58 6.5-6.71 1.66-.05 3.32 0 5.11 0Zm21.92-45.83h-.08v13.46s.02 0 .03-.01v18.6c5.23 3.58 2.69 8.99 3.6 13.64h5.86c.92-4.8-1.76-10.33 3.56-13.96V38.03c-5.45-3.7-2.43-9.34-3.61-13.81h-5.84c-.82 4.6 1.53 9.72-3.52 13.51v20.45Zm43 32.06V58.15s-.04.01-.06.02V37.69c-5.12-3.79-2.57-9.12-3.55-13.49h-4.63c-.75 4.79 1.57 10.12-3.57 13.71V58.1v-.02 32.14c5.47 3.51 2.49 9.15 3.67 13.67h4.55c.84-4.67-1.57-10.06 3.58-13.66Z" style="fill:#4a3726;stroke-width:0"/><path d="M15.5 16.95v-6.29h96.89v6.29zm97.02 94.1v6.27h-96.9v-6.27h96.89Z" style="fill:#7b5b3b;stroke-width:0"/><path d="M59 31.74v-7.91h11.07v7.91zm-20.15-7.52v7.56H27.79v-7.56zm50.26 7.49v-7.52h11.02v7.52zm3.16 6.8h5.04v15.96h-5.04zM38.86 96.22v7.66H27.81v-7.66zm31.24 7.68H59.08v-7.67H70.1zm30.14-7.65v7.6H89.18v-7.6zm-2.88-6.77h-5.01V74.9h5.01zM35.68 54.53h-4.69V38.61h4.69zm31.23-.02h-4.73V38.56h4.73zM31 74.85h4.73v14.53H31zm35.91 14.64h-4.7V74.87h4.7zM30.74 61.57h4.96v6.41h-4.96zm36.24 6.51h-5.02v-6.42h5.02zm30.38-.04h-5v-6.42h5z" style="fill:#a5805b;stroke-width:0"/></svg>