<svg xmlns="http://www.w3.org/2000/svg" data-name="fill_goat" viewBox="0 0 128 128"><path d="M116.71 4.11c-.27-.1-6.79-2.36-15.36-.26-7.43 1.81-17.85 7.36-26.17 23.32-1.63-.61-3.25-.85-4.75-.91l1.5-1.51c.94-.93 1.11-2.45.28-3.47a2.52 2.52 0 0 0-3.74-.2l-1.94 1.95v-2.82c0-1.32-.95-2.52-2.27-2.65a2.514 2.514 0 0 0-2.78 2.5v2.97l-1.84-1.84c-.93-.94-2.45-1.12-3.47-.28a2.52 2.52 0 0 0-.2 3.74l1.61 1.61c-1.51.06-3.12.3-4.76.91C44.5 11.21 34.08 5.66 26.66 3.85c-8.57-2.1-15.09.16-15.37.26-1.11.4-1.8 1.51-1.66 2.68a2.5 2.5 0 0 0 2.23 2.2c.04.01 4.06.51 9.46 3.94 4.82 3.05 11.71 9.1 17.72 20.69-2.15-1.49-4.66-2.59-7.36-3.2-3.89-.87-7.84-.61-11.11.75-3.45 1.43-5.95 3.96-7.05 7.11 0 .01-.01.01-.01.02s0 .02-.01.03c-.22.65-.38 1.32-.48 2.02-.54 3.67.74 7.48 3.58 10.71 2.7 3.07 6.53 5.29 10.79 6.25 1.51.34 3.02.5 4.49.5 2.19 0 4.3-.37 6.21-1.09l.09.94s.01.02.01.03c.54 4.7 1.78 9.51 3.49 13.54.73 1.75 1.47 3.35 2.11 4.77 2.48 5.44 3.63 8.17 2.7 10.8-2.28 6.44.72 10.7 3.62 13.47.21 3.72 1.71 15.24 12.26 24.17a2.51 2.51 0 0 0 3.26 0c10.55-8.93 12.06-20.45 12.26-24.17 2.91-2.77 5.91-7.03 3.62-13.47-.93-2.63.22-5.36 2.7-10.8.65-1.42 1.38-3.02 2.12-4.77 1.71-4.04 2.95-8.84 3.49-13.54v-.02c.04-.32.07-.64.1-.95 1.9.72 4.01 1.09 6.21 1.09 1.47 0 2.98-.16 4.48-.5 1.3-.29 2.57-.71 3.79-1.23 3.48-1.74 6.64-4.5 7.84-6.23 1.18-1.19 2.35-4.28 2.56-5.17.33-1.46.4-2.91.19-4.34-.1-.69-.26-1.36-.49-2.01 0 0 0-.02-.01-.03v-.02c-1.1-3.15-3.61-5.68-7.05-7.11-3.28-1.36-7.22-1.62-11.11-.75-2.7.61-5.21 1.71-7.36 3.2 6-11.59 12.9-17.64 17.72-20.7 5.4-3.42 9.42-3.92 9.44-3.92a2.53 2.53 0 0 0 2.24-2.21c.14-1.17-.55-2.28-1.66-2.68M28.5 52.39c-6.37-1.44-11.17-6.62-10.49-11.32.02-.13.05-.27.07-.4 1.27-.77 2.58-1 4.05-.7 5.07 1.04 10.53 7.89 13.43 12.29-2.1.63-4.56.69-7.06.13m9.7-5.16c-.62-.87-1.33-1.79-2.1-2.73-4.08-4.99-8.08-8.07-11.93-9.2 1.92-.46 4.13-.47 6.4.04 3.83.86 7.2 3.08 9.07 5.91-.67 1.84-1.15 3.84-1.44 5.98M23.55 8.35c.62.11 1.26.24 1.91.4 8.97 2.19 16.77 9.21 22.69 20.36l-4.87 1.74C36.9 18.69 29.51 12.01 23.55 8.35M64 119.11c-5-4.87-7.19-10.32-8.14-14.29 1.16.87 2.24 1.71 3.11 2.57.48.46 1.11.72 1.78.72h6.51c.67 0 1.3-.26 1.77-.72.87-.86 1.95-1.7 3.12-2.57-.96 3.97-3.14 9.42-8.15 14.29m6.42-56.41c.38.2.79.3 1.19.3.9 0 1.77-.49 2.23-1.34 1.77-3.32 4.34-5.37 6.87-5.49 1.52-.07 2.88.59 3.98 1.91-.54 3.92-1.6 7.86-3.01 11.19-.71 1.68-1.39 3.18-2.05 4.64-2.63 5.75-4.52 9.91-2.87 14.57 1.19 3.35.34 5.8-3.02 8.75-1.09.96-2.36 1.89-3.58 2.79-1.33.97-2.69 1.97-3.89 3.05h-4.53c-1.2-1.08-2.57-2.08-3.89-3.05-1.22-.9-2.49-1.83-3.58-2.79-3.37-2.95-4.21-5.4-3.02-8.75 1.65-4.66-.25-8.82-2.87-14.57-.66-1.46-1.35-2.96-2.06-4.64-1.41-3.33-2.46-7.27-3-11.19 1.1-1.32 2.46-1.98 3.98-1.91 2.53.12 5.1 2.17 6.87 5.49A2.54 2.54 0 0 0 56.4 63c.4 0 .81-.1 1.18-.3 1.23-.66 1.7-2.18 1.04-3.41-2.62-4.91-6.77-7.96-11.09-8.16-1.63-.07-3.19.27-4.61.97.02-3.87.64-7.26 1.84-10.09.01-.02.02-.04.02-.06l.27-.6.03-.06c.02-.04.04-.09.06-.14.01-.03.02-.06.03-.1.02-.04.03-.09.04-.13 0-.04.02-.08.03-.12s.02-.08.02-.12c.01-.04.02-.09.02-.13v-.11c0-.05.01-.1.01-.15v-.1s-.01-.1-.01-.15v-.07l-.5-4.3 7.75-2.77s.08-.03.12-.05c.03-.01.05-.02.08-.03.02-.01.03-.01.04-.02h.01c.08-.04.15-.08.22-.12l.02-.01s0-.01.01-.01c2.75-1.73 5.78-1.45 8.45-1.19v3.07c0 1.4 1.13 2.53 2.52 2.53s2.52-1.13 2.52-2.53v-3.07c2.68-.26 5.7-.54 8.46 1.19 0 0 .01 0 .01.01 0 0 .01 0 .02.01.07.04.14.08.22.12.02.01.03.01.04.02.03 0 .06.02.09.03h.01s.07.04.1.05l7.59 2.71-.68 3.4c-.13.61-.02 1.21.26 1.71.21.41.41.84.6 1.27 0 .02.01.03.02.04 1.19 2.82 1.81 6.2 1.83 10.07a9.46 9.46 0 0 0-4.61-.97c-4.32.2-8.47 3.25-11.09 8.16-.66 1.23-.2 2.75 1.03 3.41m39.5-22.03.01.01c.18.86.18 1.77-.01 2.68-.19.94-.81 2.95-1.69 4.02-1.14 1.11-4.72 3.59-5.83 4.07-.93.4-1.9.71-2.89.94-2.5.56-4.96.5-7.06-.13 2.89-4.4 8.34-11.25 13.42-12.28 1.48-.31 2.78-.09 4.05.69m-12.48-5.33c2.27-.51 4.48-.49 6.39-.04-3.84 1.13-7.85 4.21-11.93 9.2-.77.94-1.47 1.86-2.09 2.73-.29-2.14-.77-4.14-1.44-5.98 1.87-2.83 5.24-5.05 9.07-5.91m-12.71-4.49-4.87-1.74c5.9-11.18 13.43-18 22.42-20.3.75-.19 1.47-.34 2.17-.45-5.95 3.65-13.34 10.34-19.72 22.49" style="fill:#4a3726;stroke-width:0"/><path d="M72.15 104.82c-.96 3.97-3.14 9.42-8.15 14.29-5-4.87-7.19-10.32-8.14-14.29 1.16.87 2.24 1.71 3.11 2.57.48.46 1.11.72 1.78.72h6.51c.67 0 1.3-.26 1.77-.72.87-.86 1.95-1.7 3.12-2.57" style="fill:#f4f8f4;stroke-width:0"/><path d="M84.69 58.08c-.54 3.92-1.6 7.86-3.01 11.19-.71 1.68-1.39 3.18-2.05 4.64-2.63 5.75-4.52 9.91-2.87 14.57 1.19 3.35.34 5.8-3.02 8.75-1.09.96-2.36 1.89-3.58 2.79-1.33.97-2.69 1.97-3.89 3.05h-4.53c-1.2-1.08-2.57-2.08-3.89-3.05-1.22-.9-2.49-1.83-3.58-2.79-3.37-2.95-4.21-5.4-3.02-8.75 1.65-4.66-.25-8.82-2.87-14.57-.66-1.46-1.35-2.96-2.06-4.64-1.41-3.33-2.46-7.27-3-11.19 1.1-1.32 2.46-1.98 3.98-1.91 2.53.12 5.1 2.17 6.87 5.49A2.54 2.54 0 0 0 56.4 63c.4 0 .81-.1 1.18-.3 1.23-.66 1.7-2.18 1.04-3.41-2.62-4.91-6.77-7.96-11.09-8.16-1.63-.07-3.19.27-4.61.97.02-3.87.64-7.26 1.84-10.09.01-.02.02-.04.02-.06l.27-.6.03-.06c.02-.04.04-.09.06-.14.01-.03.02-.06.03-.1.02-.04.03-.09.04-.13 0-.04.02-.08.03-.12s.02-.08.02-.12c.01-.04.02-.09.02-.13v-.11c0-.05.01-.1.01-.15v-.1s-.01-.1-.01-.15v-.07l-.5-4.3 7.75-2.77s.08-.03.12-.05c.03-.01.05-.02.08-.03.02-.01.03-.01.04-.02h.01c.08-.04.15-.08.22-.12l.02-.01s0-.01.01-.01c2.75-1.73 5.78-1.45 8.45-1.19v3.07c0 1.4 1.13 2.53 2.52 2.53s2.52-1.13 2.52-2.53v-3.07c2.68-.26 5.7-.54 8.46 1.19 0 0 .01 0 .01.01 0 0 .01 0 .02.01.07.04.14.08.22.12.02.01.03.01.04.02.03 0 .06.02.09.03h.01s.07.04.1.05l7.59 2.71-.68 3.4c-.13.61-.02 1.21.26 1.71.21.41.41.84.6 1.27 0 .02.01.03.02.04 1.19 2.82 1.81 6.2 1.83 10.07a9.46 9.46 0 0 0-4.61-.97c-4.32.2-8.47 3.25-11.09 8.16-.66 1.23-.2 2.75 1.03 3.41.38.2.79.3 1.19.3.9 0 1.77-.49 2.23-1.34 1.77-3.32 4.34-5.37 6.87-5.49 1.52-.07 2.88.59 3.98 1.91M48.15 29.11l-4.87 1.74C36.9 18.69 29.51 12.01 23.55 8.35c.62.11 1.26.24 1.91.4 8.97 2.19 16.77 9.21 22.69 20.36m56.3-20.75C98.5 12.01 91.11 18.7 84.73 30.85l-4.87-1.74c5.9-11.18 13.43-18 22.42-20.3.75-.19 1.47-.34 2.17-.45" style="fill:#d6d6d5;stroke-width:0"/><path d="M103.83 35.3c-3.84 1.13-7.85 4.21-11.93 9.2-.77.94-1.47 1.86-2.09 2.73-.29-2.14-.77-4.14-1.44-5.98 1.87-2.83 5.24-5.05 9.07-5.91 2.27-.51 4.48-.49 6.39-.04m-64.19 5.95c-.67 1.84-1.15 3.84-1.44 5.98-.62-.87-1.33-1.79-2.1-2.73-4.08-4.99-8.08-8.07-11.93-9.2 1.92-.46 4.13-.47 6.4.04 3.83.86 7.2 3.08 9.07 5.91" style="fill:#6b6864;stroke-width:0"/><path d="M110.98 42.62c-1.15 6.53-10.15 10.91-16.5 10.55-.95-.06-2.21-.37-2.32-1.35-.08-1.25 1.05-2.53 1.83-3.52 3.01-3.59 6.75-7.3 10.64-8.77 2.48-1.1 6.71-.76 6.37 2.91l-.02.19Zm-94.25 0c1.15 6.53 10.15 10.91 16.5 10.55.95-.06 2.21-.37 2.32-1.35.08-1.25-1.05-2.53-1.83-3.52-3.01-3.59-6.75-7.3-10.64-8.77-2.48-1.1-6.71-.76-6.37 2.91l.02.19Z" style="fill:#d5b5ad;stroke-width:0"/><path d="M49.93 59.45c-1.39 0-2.52 1.13-2.52 2.52v1.22c0 1.39 1.13 2.52 2.52 2.52s2.52-1.13 2.52-2.52v-1.22c0-1.39-1.13-2.52-2.52-2.52m10.5 31.21-.82-1.28a2.53 2.53 0 0 0-3.49-.76 2.52 2.52 0 0 0-.76 3.48l.82 1.28a2.51 2.51 0 0 0 3.48.76 2.53 2.53 0 0 0 .76-3.49Zm17.65-31.21c-1.39 0-2.52 1.13-2.52 2.52v1.22c0 1.39 1.13 2.52 2.52 2.52s2.52-1.13 2.52-2.52v-1.22c0-1.39-1.13-2.52-2.52-2.52m-6.19 29.17a2.525 2.525 0 0 0-3.49.76l-.82 1.28c-.75 1.17-.42 2.73.76 3.48a2.51 2.51 0 0 0 3.48-.76l.82-1.28c.75-1.17.42-2.73-.76-3.48Z" style="fill:#4a3726;stroke-width:0"/></svg>