<svg xmlns="http://www.w3.org/2000/svg" viewBox="0 0 128 128"><path d="M63.9 2.47c10.52 0 21.04.13 31.56-.07 3.59-.07 6.13 1.37 7.65 4.23 7.2 15.38 15.54 31.13 14.5 48.66-.25 3.87.74 7.82.61 11.71.13 19.78-5.82 38.58-16.24 55.31-1.27 2.36-3.49 3.31-6.2 3.3-21.25-.03-42.49-.03-63.74 0-2.7 0-4.79-.99-6.23-3.28-8.39-15.21-16.16-31.87-15.43-49.6-1.33-16.03-.76-32.6 5.45-47.76 2.55-6.18 5.67-12.13 8.73-18.09 1.63-3.18 4.31-4.57 8.11-4.49 10.41.21 20.83.07 31.24.07Z" style="fill:#4a3726;stroke-width:0"/><path d="M90.01 52.22H67.68V37.25c.06-2.94.45-7.31-3.61-7.28-2.52-.08-3.88 1.35-3.9 3.84-.15 6.16.22 12.17-.17 18.35H37.48c.99-5.15 1.95-10.1 2.91-15.04.84-2.8 1.68-6.12-1.91-6.99-2.4-.75-4.17.42-4.75 2.78-1.5 6.46-2.92 12.71-3.83 19.33H17.72c.84-9.04 2.72-17.64 5.95-25.99h81.06c1.95 8.37 3.95 16.96 6.04 25.96H98.29c-.99-6.14-2.02-12.54-3.69-18.61-.62-2.56-2-4.17-4.87-3.55-6.49 1.29 1.71 16.88.29 22.18Zm-29.8 23.63c0 5.54-.03 10.83.02 16.12-.46 2.76 1.34 5.69 4 5.97 3.23-.45 4.19-3.63 3.74-6.65.03-5.05.01-10.11.01-15.4h22.47c-.85 4.58-1.63 8.93-2.46 13.26-.65 3.08-2.75 8.11 1.9 8.93 2.36.42 3.93-.78 4.41-2.96 1.34-6.43 2.66-12.65 3.71-19.16h12.56c-2.08 8.9-4.12 17.59-6.1 26.07H24.04c-3.46-8.03-5.16-16.81-6.29-26.07h11.99c1.17 5.7 2.32 11.37 3.5 17.03.42 2.91 2.26 6.28 5.6 4.96 2.12-.74 2.82-2.53 2.3-4.81-1.27-5.64-2.45-11.3-3.74-17.26h22.8Z" style="fill:#a5805b;stroke-width:0"/><path d="M17.19 67.91V60.2h93.28v7.71zm79.05-57.78c1.55 2.71 3.07 5.38 4.8 8.42H26.79c1.69-3 3.22-5.71 4.75-8.42h64.69ZM32.08 117.96c-1.52-2.57-3.07-5.21-4.91-8.33h73.44c-1.76 2.99-3.34 5.69-4.89 8.33z" style="fill:#7f827e;stroke-width:0"/></svg>