<svg xmlns="http://www.w3.org/2000/svg" data-name="fill_goatcheese" viewBox="0 0 128 128"><path d="M51.62 22.41c4.82-1.42 8.41.18 11.8 3.06 7.35 6.24 14.85 12.31 22.26 18.47 6.76 5.61 5.73 12.85-2.29 16.41-.63.28-1.18.74-1.7 1.07-.67 2.44.54 3.67 2.53 4.15 2 .48 3.09-.46 3.73-2.52 2.28-7.32 9.43-9.4 15.36-4.57 4.17 3.4 8.31 6.84 12.43 10.29 5.65 4.73 6.22 11.28 1.26 16.81-16.89 18.77-37.71 30.82-62.4 36.12-12.01 2.58-24.14 3.03-36.35 1.75-7.13-.75-11.21-5.48-10.59-12.59.27-3.13.68-6.28 1.4-9.33 1.17-4.96 4.78-7.28 9.64-7.86-.08-.38-.06-.69-.17-.75-5.67-3.13-7.13-7.76-6.11-14.09C15.96 57 19.07 35.09 22.46 13.24c1.33-8.59 10.9-12.22 17.74-6.85 2 1.57 3.85 3.32 5.9 4.81 3.7 2.69 5.86 6.1 5.51 11.21Z" style="fill:#4a3726;stroke-width:0"/><path d="M15.2 113.26c.56-3.66 1.14-7.42 1.74-11.32 4.92-.3 8.59-2.12 9.63-6.85 1.2-5.43-2.23-8.47-6.89-10.9.45-3.22.87-6.41 1.36-9.58 3.02-19.76 6.05-39.51 9.11-59.26.6-3.85 2.83-4.69 5.87-2.26 2.6 2.08 5.14 4.24 7.5 6.2.85 10.66 3.25 12.69 12.41 10.21 8.66 7.15 17.59 14.52 27.1 22.37-6.6 2.48-10.58 6.24-9.19 13.01.93 4.56 4.18 7.58 8.72 8.37 7.48 1.3 11.87-2.57 13.77-10.54 5.88 5.45 12.15 9.08 16.88 15.27-16.56 19.29-36.82 31.34-61.22 36.21-16.24 3.24-33.01 2.74-36.76-.93Z" style="fill:#e5dd75;stroke-width:0"/><path d="M54.81 68.13c0 6.7-5.28 12.06-11.9 12.08-6.28.02-11.84-5.52-11.92-11.87-.09-6.58 5.34-12.02 12-12.02 6.46 0 11.81 5.34 11.82 11.8Zm.38 17.14c-.03-2.98 2.34-5.45 5.3-5.5 3.28-.06 6.51 3.08 6.51 6.34 0 2.9-2.53 5.49-5.38 5.51-3.5.03-6.4-2.83-6.43-6.35m64.78-79.96c-.18-.07-4.48-1.56-10.14-.17-4.9 1.19-11.78 4.86-17.27 15.39-1.08-.4-2.14-.56-3.14-.6l.99-1c.62-.61.73-1.62.18-2.29-.63-.78-1.78-.82-2.47-.13l-1.28 1.29v-1.86c0-.87-.63-1.66-1.5-1.75-1-.11-1.83.68-1.83 1.65v1.96l-1.21-1.21c-.61-.62-1.62-.74-2.29-.18-.78.63-.82 1.78-.13 2.47l1.06 1.06c-1 .04-2.06.2-3.14.6-5.49-10.53-12.37-14.2-17.27-15.39-5.66-1.39-9.96.11-10.14.17-.73.26-1.19 1-1.1 1.77s.7 1.37 1.47 1.45c.03 0 2.68.34 6.24 2.6 3.18 2.01 7.73 6.01 11.7 13.66-1.42-.98-3.08-1.71-4.86-2.11-2.57-.57-5.17-.4-7.33.49-2.28.94-3.93 2.61-4.65 4.69v.03c-.15.43-.25.87-.32 1.33-.36 2.42.49 4.94 2.36 7.07 1.78 2.03 4.31 3.49 7.12 4.12 1 .22 1.99.33 2.96.33 1.45 0 2.84-.24 4.1-.72l.06.62v.02c.36 3.1 1.17 6.28 2.3 8.94.48 1.16.97 2.21 1.39 3.15 1.64 3.59 2.4 5.39 1.78 7.13-1.5 4.25.48 7.06 2.39 8.89.14 2.46 1.13 10.06 8.09 15.95.31.26.69.4 1.08.4s.77-.13 1.08-.4c6.96-5.89 7.96-13.5 8.09-15.95 1.92-1.83 3.9-4.64 2.39-8.89-.61-1.74.15-3.54 1.78-7.13.43-.94.91-1.99 1.4-3.15 1.13-2.67 1.95-5.83 2.3-8.94v-.02c.03-.2.05-.42.07-.62 1.25.48 2.65.72 4.1.72.97 0 1.97-.11 2.96-.33.86-.19 1.7-.47 2.5-.81 2.3-1.15 4.38-2.97 5.17-4.11.78-.79 1.55-2.82 1.69-3.41a7.9 7.9 0 0 0 .13-2.86c-.07-.46-.17-.9-.32-1.33v-.02c-.73-2.09-2.38-3.76-4.65-4.71-2.16-.9-4.77-1.07-7.33-.49-1.78.4-3.44 1.13-4.86 2.11 3.96-7.65 8.51-11.64 11.7-13.66 3.56-2.26 6.22-2.59 6.23-2.59.77-.09 1.39-.69 1.48-1.46s-.36-1.5-1.1-1.77ZM61.76 37.17c-4.2-.95-7.37-4.37-6.92-7.47.01-.09.03-.18.05-.26.84-.51 1.7-.66 2.67-.46 3.35.69 6.95 5.21 8.86 8.11-1.39.42-3.01.46-4.66.09Zm6.4-3.4c-.41-.57-.88-1.18-1.39-1.8-2.69-3.29-5.33-5.33-7.87-6.07 1.27-.3 2.73-.31 4.22.03 2.53.57 4.75 2.03 5.99 3.9-.44 1.21-.76 2.53-.95 3.95ZM58.49 8.1c.41.07.83.16 1.26.26 5.92 1.45 11.07 6.08 14.98 13.44l-3.21 1.15C67.31 14.92 62.43 10.52 58.5 8.1Zm26.7 73.11c-3.3-3.21-4.75-6.81-5.37-9.43.77.57 1.48 1.13 2.05 1.7.32.3.73.48 1.17.48h4.3c.44 0 .86-.17 1.17-.48.57-.57 1.29-1.12 2.06-1.7-.63 2.62-2.07 6.22-5.38 9.43m4.23-37.23c.25.13.52.2.79.2.59 0 1.17-.32 1.47-.88 1.17-2.19 2.86-3.54 4.53-3.62 1-.05 1.9.39 2.63 1.26-.36 2.59-1.06 5.19-1.99 7.39-.47 1.11-.92 2.1-1.35 3.06-1.74 3.8-2.98 6.54-1.89 9.62.79 2.21.22 3.83-1.99 5.77-.72.63-1.56 1.25-2.36 1.84-.88.64-1.78 1.3-2.57 2.01H83.7c-.79-.71-1.7-1.37-2.57-2.01-.81-.59-1.64-1.21-2.36-1.84-2.22-1.95-2.78-3.56-1.99-5.77 1.09-3.08-.16-5.82-1.89-9.62-.44-.96-.89-1.95-1.36-3.06-.93-2.2-1.62-4.8-1.98-7.39.73-.87 1.62-1.31 2.63-1.26 1.67.08 3.37 1.43 4.53 3.62.3.56.88.88 1.47.88.26 0 .53-.07.78-.2a1.67 1.67 0 0 0 .69-2.25c-1.73-3.24-4.47-5.25-7.32-5.39a6.2 6.2 0 0 0-3.04.64c.01-2.55.42-4.79 1.21-6.66 0-.01.01-.03.01-.04.07-.15.13-.28.18-.4 0-.01.01-.03.02-.04.01-.03.03-.06.04-.09 0-.02.01-.04.02-.07l.03-.09c0-.03.01-.05.02-.08 0-.03.01-.05.01-.08s.01-.06.01-.09v-.39l-.33-2.84 5.11-1.83s.05-.02.08-.03c.02 0 .03-.01.05-.02.01 0 .02 0 .03-.01.05-.03.1-.05.15-.08h.01c1.81-1.14 3.81-.96 5.58-.79v2.03c0 .92.75 1.67 1.66 1.67s1.66-.75 1.66-1.67v-2.03c1.77-.17 3.76-.36 5.58.79h.01c.05.03.09.05.15.08.01 0 .02 0 .03.01.02 0 .04.01.06.02s.05.03.07.03l5.01 1.79-.45 2.24c-.09.4-.01.8.17 1.13.14.27.27.55.4.84 0 .01 0 .02.01.03.79 1.86 1.19 4.09 1.21 6.65-.94-.46-1.97-.69-3.04-.64-2.85.13-5.59 2.15-7.32 5.39-.44.81-.13 1.82.68 2.25Zm26.07-14.54c.12.57.12 1.17 0 1.77-.13.62-.53 1.95-1.12 2.65-.75.73-3.12 2.37-3.85 2.69-.61.26-1.25.47-1.91.62-1.65.37-3.27.33-4.66-.09 1.91-2.9 5.5-7.42 8.86-8.1.98-.2 1.83-.06 2.67.46Zm-8.23-3.52c1.5-.34 2.96-.32 4.22-.03-2.53.75-5.18 2.78-7.87 6.07-.51.62-.97 1.23-1.38 1.8a19.2 19.2 0 0 0-.95-3.95c1.23-1.87 3.46-3.33 5.99-3.9Zm-8.39-2.97-3.21-1.15c3.89-7.38 8.86-11.88 14.8-13.4.49-.13.97-.22 1.43-.3-3.93 2.41-8.8 6.82-13.02 14.84Z" style="fill:#4a3726;stroke-width:0"/><path d="M90.57 71.78c-.63 2.62-2.07 6.22-5.38 9.43-3.3-3.21-4.75-6.81-5.37-9.43.77.57 1.48 1.13 2.05 1.7.32.3.73.48 1.17.48h4.3c.44 0 .86-.17 1.17-.48.57-.57 1.29-1.12 2.06-1.7" style="fill:#f4f8f4;stroke-width:0"/><path d="M98.84 40.93c-.36 2.59-1.06 5.19-1.99 7.39-.47 1.11-.92 2.1-1.35 3.06-1.74 3.8-2.98 6.54-1.89 9.62.79 2.21.22 3.83-1.99 5.77-.72.63-1.56 1.25-2.36 1.84-.88.64-1.78 1.3-2.57 2.01H83.7c-.79-.71-1.7-1.37-2.57-2.01-.81-.59-1.64-1.21-2.36-1.84-2.22-1.95-2.78-3.56-1.99-5.77 1.09-3.08-.16-5.82-1.89-9.62-.44-.96-.89-1.95-1.36-3.06-.93-2.2-1.62-4.8-1.98-7.39.73-.87 1.62-1.31 2.63-1.26 1.67.08 3.37 1.43 4.53 3.62.3.56.88.88 1.47.88.26 0 .53-.07.78-.2a1.67 1.67 0 0 0 .69-2.25c-1.73-3.24-4.47-5.25-7.32-5.39a6.2 6.2 0 0 0-3.04.64c.01-2.55.42-4.79 1.21-6.66 0-.01.01-.03.01-.04.07-.15.13-.28.18-.4 0-.01.01-.03.02-.04.01-.03.03-.06.04-.09 0-.02.01-.04.02-.07l.03-.09c0-.03.01-.05.02-.08 0-.03.01-.05.01-.08s.01-.06.01-.09v-.39l-.33-2.84 5.11-1.83s.05-.02.08-.03c.02 0 .03-.01.05-.02.01 0 .02 0 .03-.01.05-.03.1-.05.15-.08h.01c1.81-1.14 3.81-.96 5.58-.79v2.03c0 .92.75 1.67 1.66 1.67s1.66-.75 1.66-1.67v-2.03c1.77-.17 3.76-.36 5.58.79h.01c.05.03.09.05.15.08.01 0 .02 0 .03.01.02 0 .04.01.06.02s.05.03.07.03l5.01 1.79-.45 2.24c-.09.4-.01.8.17 1.13.14.27.27.55.4.84 0 .01 0 .02.01.03.79 1.86 1.19 4.09 1.21 6.65-.94-.46-1.97-.69-3.04-.64-2.85.13-5.59 2.15-7.32 5.39-.44.81-.13 1.82.68 2.25.25.13.52.2.79.2.59 0 1.17-.32 1.47-.88 1.17-2.19 2.86-3.54 4.53-3.62 1-.05 1.9.39 2.63 1.26ZM74.73 21.81l-3.21 1.15c-4.21-8.03-9.09-12.43-13.02-14.85.41.07.83.16 1.26.26 5.92 1.45 11.07 6.08 14.98 13.44Zm37.15-13.7c-3.93 2.41-8.8 6.82-13.02 14.84l-3.21-1.15c3.89-7.38 8.86-11.88 14.8-13.4.49-.13.97-.22 1.43-.3Z" style="fill:#d6d6d5;stroke-width:0"/><path d="M111.47 25.89c-2.53.75-5.18 2.78-7.87 6.07-.51.62-.97 1.23-1.38 1.8a19.2 19.2 0 0 0-.95-3.95c1.23-1.87 3.46-3.33 5.99-3.9 1.5-.34 2.96-.32 4.22-.03Zm-42.36 3.93c-.44 1.21-.76 2.53-.95 3.95-.41-.57-.88-1.18-1.39-1.8-2.69-3.29-5.33-5.33-7.87-6.07 1.27-.3 2.73-.31 4.22.03 2.53.57 4.75 2.03 5.99 3.9Z" style="fill:#6b6864;stroke-width:0"/><path d="M116.2 30.72c-.76 4.31-6.7 7.2-10.89 6.96-.62-.04-1.46-.25-1.53-.89-.06-.83.69-1.67 1.21-2.32 1.99-2.37 4.45-4.82 7.03-5.79 1.64-.73 4.43-.5 4.2 1.92v.12Zm-62.21 0c.76 4.31 6.7 7.2 10.89 6.96.62-.04 1.46-.25 1.53-.89.06-.83-.69-1.67-1.21-2.32-1.99-2.37-4.45-4.82-7.03-5.79-1.64-.73-4.43-.5-4.2 1.92v.12Z" style="fill:#d5b5ad;stroke-width:0"/><path d="M75.9 41.83c-.92 0-1.66.75-1.66 1.66v.8c0 .92.75 1.66 1.66 1.66s1.66-.75 1.66-1.66v-.8c0-.92-.75-1.66-1.66-1.66m6.93 20.6-.54-.84c-.5-.77-1.53-1-2.3-.5s-1 1.53-.5 2.3l.54.84a1.66 1.66 0 0 0 2.3.49c.77-.5 1-1.53.5-2.3Zm11.65-20.6c-.92 0-1.66.75-1.66 1.66v.8c0 .92.75 1.66 1.66 1.66s1.66-.75 1.66-1.66v-.8c0-.92-.74-1.66-1.66-1.66m-4.09 19.26c-.77-.5-1.8-.27-2.3.5l-.54.84c-.5.77-.27 1.8.5 2.3a1.66 1.66 0 0 0 2.3-.49l.54-.84c.5-.77.27-1.8-.5-2.3Z" style="fill:#4a3726;stroke-width:0"/></svg>