<svg xmlns="http://www.w3.org/2000/svg" data-name="fill_onionjuice" viewBox="0 0 128 128"><path d="M41.71 124.74c-.4-.09-.8-.18-1.2-.28-4.15-1.05-7.09-4.73-7.35-9.01-.29-4.79-.67-9.58-1.02-14.37l-.87-12.3-.9-12.6-.87-12.24c-.34-4.79-.69-9.58-1.03-14.37-.22-3.1-.45-6.19-.64-9.29-.04-.67-.19-1.08-.9-1.41-3.5-1.62-5.32-4.42-5.42-8.27-.06-2.21-.05-4.43.03-6.64.14-3.62 2.61-6.86 6.05-8.02.43-.15.63-.36.73-.8.28-1.23.59-2.46.92-3.68C30.5 6.7 34.98 3.25 39.9 3.25h48.16c5.11 0 9.59 3.51 10.83 8.47.3 1.19.57 2.38.9 3.56.06.23.31.5.53.58 3.74 1.34 6.12 4.58 6.19 8.55.04 2.13.08 4.27-.01 6.4-.16 3.91-2.14 6.64-5.7 8.21-.42.18-.55.4-.58.82-.56 8.02-1.12 16.05-1.69 24.07-.57 8-1.16 16.01-1.73 24.01-.46 6.37-.9 12.74-1.35 19.1-.22 3.04-.41 6.07-.68 9.1-.38 4.2-3.81 7.81-7.99 8.48-.15.02-.3.08-.44.12H41.73Zm-3.5-24.34h51.62c1.15-16.17 2.31-32.31 3.46-48.48H34.75c1.16 16.18 2.31 32.31 3.46 48.48m25.81-66.77h33.21c1.93 0 3.21-1.25 3.22-3.17.02-2 .02-3.99 0-5.99-.01-1.39-.9-2.52-2.23-2.86-.39-.1-.82-.11-1.23-.11h-66.3c-1.87.04-3.1 1.29-3.1 3.16v5.81c0 .27.01.56.08.82.36 1.48 1.55 2.34 3.21 2.34h33.15Zm25.36 72.91h-50.7c0 .2-.01.38 0 .55.18 2.58.39 5.16.55 7.75.15 2.47 1.56 3.84 4.03 3.84h41.46c2.56 0 3.95-1.33 4.1-3.89.09-1.52.22-3.04.32-4.55.09-1.22.16-2.43.25-3.69Zm4.78-66.8H33.88c.12 1.76.25 3.47.36 5.18.06.85.04.85.91.85h57.34q1.24 0 1.33-1.21c.01-.16.03-.31.04-.47.1-1.44.2-2.87.3-4.35m-.64-24.36c-.19-.74-.35-1.41-.52-2.08-.61-2.42-2.6-3.97-5.09-3.97h-47.8c-.3 0-.6 0-.89.05-2.69.43-4.67 3.01-4.62 6h58.91Z" style="fill:#4a3726;stroke-width:0"/><path d="M93.29 51.92c-1.16 16.16-2.31 32.3-3.46 48.47H38.2c-1.15-16.17-2.3-32.29-3.46-48.47z" style="fill:#aecace;stroke-width:0"/><path d="M64.02 33.63H30.87c-1.66 0-2.85-.86-3.21-2.34a3.8 3.8 0 0 1-.08-.82c0-1.94-.01-3.87 0-5.81 0-1.87 1.24-3.12 3.1-3.16h66.3c.41 0 .84 0 1.23.11 1.33.34 2.22 1.47 2.23 2.86.02 2 .02 3.99 0 5.99-.02 1.93-1.29 3.17-3.22 3.17H64.01Zm25.36 72.91c-.08 1.25-.16 2.47-.25 3.69-.11 1.52-.23 3.03-.32 4.55-.15 2.56-1.54 3.89-4.1 3.89H43.25c-2.47 0-3.88-1.36-4.03-3.84-.16-2.58-.36-5.17-.55-7.75-.01-.17 0-.35 0-.55h50.7Zm4.78-66.8c-.1 1.48-.2 2.92-.3 4.35-.01.16-.03.31-.04.47q-.08 1.21-1.33 1.21H35.15c-.86 0-.85 0-.91-.85-.11-1.71-.24-3.43-.36-5.18zm-.64-24.36H34.61c-.06-2.99 1.93-5.57 4.62-6 .29-.05.59-.05.89-.05h47.8c2.49 0 4.47 1.55 5.09 3.97.17.67.33 1.34.52 2.08Z" style="fill:#d6d6d5;stroke-width:0"/><path d="M88.4 79.66c0-3.9-3-7.59-8.25-10.12-10.75-5.76-12.78-15.19-12.8-15.28l-.14-.68h-6.43l-.13.68c-.02.09-2.02 9.5-12.79 15.27-5.25 2.54-8.26 6.23-8.26 10.13 0 6.72 8.62 12.07 20.97 13.01.49.04.93.07 1.36.09l-3.96.66a.84.84 0 0 0-.69.97c.07.41.42.7.83.7.05 0 .09 0 .14-.01l3.18-.53-1.56 1.56c-.33.33-.33.86 0 1.19.16.16.38.25.59.25s.43-.08.6-.25l2.1-2.1v2.68c0 .46.38.84.84.84s.84-.38.84-.84V95.2l2.1 2.1c.16.16.38.25.59.25s.43-.08.6-.25c.33-.33.33-.86 0-1.19l-1.57-1.57 3.16.63c.06.01.11.02.17.02a.843.843 0 0 0 .16-1.67l-3.71-.74c.34-.02.69-.03 1.06-.05 12.36-.71 20.99-6.08 20.99-13.07ZM69.61 73c-.47-1.1-.7-1.63-.87-2.01-.19-.44-.3-.68-.58-1.36-.44-1.08-.85-2.33-1.22-3.73a90 90 0 0 1-1.29-5.53c1.1 2.55 2.99 6.02 6.02 9.05.69.69.96.94 1.44 1.39.41.38.97.9 2.08 1.97 1.68 1.6 2.44 3.64 2.27 6.06-.36 5.07-4.72 9.28-9.6 11.32 1.66-2.34 2.74-5.94 2.86-10 .08-2.84-.29-5.25-1.11-7.17Zm-3.74-17.74c.67 2.39 3.59 10.46 13.51 15.77l.03.02c4.65 2.25 7.31 5.39 7.31 8.62 0 5.39-6.68 9.82-16.28 11.1 4.57-2.51 8.35-6.77 8.7-11.8.2-2.9-.76-5.46-2.78-7.4-1.12-1.08-1.68-1.6-2.1-1.98-.46-.43-.73-.68-1.4-1.35-3.67-3.67-5.58-8.08-6.39-10.38-.4-1.13-.72-1.97-1.04-2.58h.43Zm-24.59 24.4c0-3.23 2.66-6.37 7.34-8.63 9.92-5.3 12.84-13.38 13.51-15.77h.44c-.32.61-.64 1.45-1.04 2.58-.81 2.3-2.72 6.71-6.39 10.38-.67.67-.94.92-1.4 1.35-.41.38-.98.91-2.1 1.98-2.02 1.94-2.99 4.5-2.78 7.4.35 4.93 3.97 9.12 8.41 11.65-9.44-1.48-15.98-5.83-15.98-10.94Zm9.26-.82c-.17-2.42.59-4.46 2.27-6.06 1.11-1.07 1.67-1.59 2.08-1.97.48-.44.75-.7 1.44-1.39 2.94-2.94 4.81-6.31 5.92-8.84-.3 1.47-.69 3.23-1.24 5.32-.37 1.39-.78 2.64-1.22 3.72-.28.68-.39.93-.58 1.36-.17.39-.4.92-.86 2.01-.82 1.92-1.19 4.33-1.11 7.17.11 4.04 1.19 7.62 2.83 9.96-4.85-2.05-9.17-6.25-9.53-11.29Zm13.55 12.32h-.24c-2.31-.68-4.76-4.94-4.94-11.04-.07-2.55.26-4.78.98-6.46.46-1.08.69-1.61.86-1.99.2-.45.31-.71.6-1.41.46-1.14.9-2.46 1.29-3.92.61-2.3 1.04-4.23 1.35-5.8.3 1.57.74 3.5 1.34 5.8.39 1.46.82 2.78 1.29 3.92.29.7.4.95.6 1.4.17.38.4.91.86 2 .71 1.67 1.05 3.9.98 6.46-.18 6.1-2.64 10.37-4.95 11.04Z" style="fill:#4a3726;stroke-width:0"/><path d="M86.72 79.66c0 5.39-6.68 9.82-16.28 11.1 4.57-2.51 8.35-6.77 8.7-11.8.2-2.9-.76-5.46-2.78-7.4-1.12-1.08-1.68-1.6-2.1-1.98-.46-.43-.73-.68-1.4-1.35-3.67-3.67-5.58-8.08-6.39-10.38-.4-1.13-.72-1.97-1.04-2.58h.43c.67 2.39 3.59 10.46 13.51 15.77l.03.02c4.65 2.25 7.31 5.39 7.31 8.62Z" style="fill:#d6d6d5;stroke-width:0"/><path d="M77.46 78.84c-.36 5.07-4.72 9.28-9.6 11.32 1.66-2.34 2.74-5.94 2.86-10 .08-2.84-.29-5.25-1.11-7.17-.47-1.1-.7-1.63-.87-2.01-.19-.44-.3-.68-.58-1.36-.44-1.08-.85-2.33-1.22-3.73a90 90 0 0 1-1.29-5.53c1.1 2.55 2.99 6.02 6.02 9.05.69.69.96.94 1.44 1.39.41.38.97.9 2.08 1.97 1.68 1.6 2.44 3.64 2.27 6.06Z" style="fill:#d6d6d5;stroke-width:0"/><path d="M69.04 80.11c-.18 6.1-2.64 10.37-4.95 11.04h-.24c-2.31-.68-4.76-4.94-4.94-11.04-.07-2.55.26-4.78.98-6.46.46-1.08.69-1.61.86-1.99.2-.45.31-.71.6-1.41.46-1.14.9-2.46 1.29-3.92.61-2.3 1.04-4.23 1.35-5.8.3 1.57.74 3.5 1.34 5.8.39 1.46.82 2.78 1.29 3.92.29.7.4.95.6 1.4.17.38.4.91.86 2 .71 1.67 1.05 3.9.98 6.46Z" style="fill:#d6d6d5;stroke-width:0"/><path d="M58.34 73c-.82 1.92-1.19 4.33-1.11 7.17.11 4.04 1.19 7.62 2.83 9.96-4.85-2.05-9.17-6.25-9.53-11.29-.17-2.42.59-4.46 2.27-6.06 1.11-1.07 1.67-1.59 2.08-1.97.48-.44.75-.7 1.44-1.39 2.94-2.94 4.81-6.31 5.92-8.84-.3 1.47-.69 3.23-1.24 5.32-.37 1.39-.78 2.64-1.22 3.72-.28.68-.39.93-.58 1.36-.17.39-.4.92-.86 2.01Z" style="fill:#d6d6d5;stroke-width:0"/><path d="M51.64 71.56c-2.02 1.94-2.99 4.5-2.78 7.4.35 4.93 3.97 9.12 8.41 11.65-9.44-1.48-15.98-5.83-15.98-10.94 0-3.23 2.66-6.37 7.34-8.63 9.92-5.3 12.84-13.38 13.51-15.77h.44c-.32.61-.64 1.45-1.04 2.58-.81 2.3-2.72 6.71-6.39 10.38-.67.67-.94.92-1.4 1.35-.41.38-.98.91-2.1 1.98Z" style="fill:#d6d6d5;stroke-width:0"/></svg>