<svg xmlns="http://www.w3.org/2000/svg" data-name="fill_strawberryjuice" viewBox="0 0 128 128"><path d="M41.71 124.74c-.4-.09-.8-.18-1.2-.28-4.15-1.05-7.09-4.73-7.35-9.01-.29-4.79-.67-9.58-1.02-14.37l-.87-12.3-.9-12.6-.87-12.24c-.34-4.79-.69-9.58-1.03-14.37-.22-3.1-.45-6.19-.64-9.29-.04-.67-.19-1.08-.9-1.41-3.5-1.62-5.32-4.42-5.42-8.27-.06-2.21-.05-4.43.03-6.64.14-3.62 2.61-6.86 6.05-8.02.43-.15.63-.36.73-.8.28-1.23.59-2.46.92-3.68C30.5 6.7 34.98 3.25 39.9 3.25h48.16c5.11 0 9.59 3.51 10.83 8.47.3 1.19.57 2.38.9 3.56.06.23.31.5.53.58 3.74 1.34 6.12 4.58 6.19 8.55.04 2.13.08 4.27-.01 6.4-.16 3.91-2.14 6.64-5.7 8.21-.42.18-.55.4-.58.82-.56 8.02-1.12 16.05-1.69 24.07-.57 8-1.16 16.01-1.73 24.01-.46 6.37-.9 12.74-1.35 19.1-.22 3.04-.41 6.07-.68 9.1-.38 4.2-3.81 7.81-7.99 8.48-.15.02-.3.08-.44.12H41.73Zm-3.5-24.34h51.62c1.15-16.17 2.31-32.31 3.46-48.48H34.75c1.16 16.18 2.31 32.31 3.46 48.48m25.81-66.77h33.21c1.93 0 3.21-1.25 3.22-3.17.02-2 .02-3.99 0-5.99-.01-1.39-.9-2.52-2.23-2.86-.39-.1-.82-.11-1.23-.11h-66.3c-1.87.04-3.1 1.29-3.1 3.16v5.81c0 .27.01.56.08.82.36 1.48 1.55 2.34 3.21 2.34h33.15Zm25.36 72.91h-50.7c0 .2-.01.38 0 .55.18 2.58.39 5.16.55 7.75.15 2.47 1.56 3.84 4.03 3.84h41.46c2.56 0 3.95-1.33 4.1-3.89.09-1.52.22-3.04.32-4.55.09-1.22.16-2.43.25-3.69Zm4.78-66.8H33.88c.12 1.76.25 3.47.36 5.18.06.85.04.85.91.85h57.34q1.24 0 1.33-1.21c.01-.16.03-.31.04-.47.1-1.44.2-2.87.3-4.35m-.64-24.36c-.19-.74-.35-1.41-.52-2.08-.61-2.42-2.6-3.97-5.09-3.97h-47.8c-.3 0-.6 0-.89.05-2.69.43-4.67 3.01-4.62 6h58.91Z" style="fill:#4a3726;stroke-width:0"/><path d="M93.29 51.92c-1.16 16.16-2.31 32.3-3.46 48.47H38.2c-1.15-16.17-2.3-32.29-3.46-48.47z" style="fill:#aecace;stroke-width:0"/><path d="M64.02 33.63H30.87c-1.66 0-2.85-.86-3.21-2.34a3.8 3.8 0 0 1-.08-.82c0-1.94-.01-3.87 0-5.81 0-1.87 1.24-3.12 3.1-3.16h66.3c.41 0 .84 0 1.23.11 1.33.34 2.22 1.47 2.23 2.86.02 2 .02 3.99 0 5.99-.02 1.93-1.29 3.17-3.22 3.17H64.01Zm25.36 72.91c-.08 1.25-.16 2.47-.25 3.69-.11 1.52-.23 3.03-.32 4.55-.15 2.56-1.54 3.89-4.1 3.89H43.25c-2.47 0-3.88-1.36-4.03-3.84-.16-2.58-.36-5.17-.55-7.75-.01-.17 0-.35 0-.55h50.7Zm4.78-66.8c-.1 1.48-.2 2.92-.3 4.35-.01.16-.03.31-.04.47q-.08 1.21-1.33 1.21H35.15c-.86 0-.85 0-.91-.85-.11-1.71-.24-3.43-.36-5.18zm-.64-24.36H34.61c-.06-2.99 1.93-5.57 4.62-6 .29-.05.59-.05.89-.05h47.8c2.49 0 4.47 1.55 5.09 3.97.17.67.33 1.34.52 2.08Z" style="fill:#d6d6d5;stroke-width:0"/><path d="M48.34 68.1c-1.88-3.3-1.67-4.67.98-6.61.25-4.44 1.82-6.09 7.26-4.54 2.01-3.51 5.7-5.03 8.4-1.26 3.59.08 4.33.64 5.12 4 14.09 3.21 15.06 23.88 6.85 33.83-12.07 15.49-39.45-11.25-28.6-25.43Z" style="fill:#4a3726;stroke-width:0"/><path d="M50.41 69.82c3.75 1.13 3.54 1.04 6.11.26 3.25.65 6-.2 8.18-2.77 2.41-1.18 3.98-2.31 5.06-4.87 3.23.28 5.3 2.19 6.79 4.84 4.71 8.2 3.71 19-2.83 25.92-10.51 9.45-31.7-12.71-23.3-23.39Z" style="fill:#de5b47;stroke-width:0"/><path d="M56.32 67.18c-2.96 1.63-6.08.44-6.54-2.75.81-.48 1.71-1.02 2.66-1.58-.39-1.21-.66-2.44.1-3.76 1.84-.11 3.55.46 5.13 1.17 2.12-3.04 3.46-6.6 6-1.43 1.13-.07 3.2-1.31 3.59.46.7 2.59-.9 4.77-3.91 5.28-1.07 2.57-4.29 3.92-7.03 2.61" style="fill:#7fa95f;stroke-width:0"/><path d="M53.85 80.29c-1.64-.36-2.86-2.76-2.21-4.12 2.79-3.17 4.57 2.21 2.21 4.12m20.78-7.61c-3 .59-5.37-4.31-1.71-4.63 1.72.88 2.34 2.56 1.71 4.63m-9.66 6.13c-1.56-.2-3.09-2.07-2.93-3.52 1.96-3.91 4.99.89 2.93 3.52m8.2 4.58c-1.82-.56-2.83-2.55-2.27-4.31 3.06-2.7 4.36 2.61 2.27 4.31m-11.72 4.36c-5.07-1.51-2.95-6.75-.2-4.27.93 1.25 1.24 3.03.2 4.27m8.27 4.82c-1.84-.59-4.16-3.9-1.56-4.89 2.7-.94 3.09 3.64 1.56 4.89" style="fill:#4a3726;stroke-width:0"/></svg>