<svg xmlns="http://www.w3.org/2000/svg" xmlns:xlink="http://www.w3.org/1999/xlink" data-name="fill_pancake" viewBox="0 0 128 128"><defs><linearGradient id="a" x1="56.22" x2="75.72" y1="34.06" y2="87.63" gradientUnits="userSpaceOnUse"><stop offset="0" stop-color="#efcd24"/><stop offset=".21" stop-color="#efce27"/><stop offset=".4" stop-color="#f0d131"/><stop offset=".57" stop-color="#f3d743"/><stop offset=".73" stop-color="#f6df5c"/><stop offset=".89" stop-color="#faea7c"/><stop offset="1" stop-color="#fef396"/></linearGradient><linearGradient xlink:href="#a" id="b" x1="67.11" x2="60.85" y1="54.35" y2="32.55"/></defs><ellipse cx="64" cy="80.42" rx="58.49" ry="9.65" style="fill:#dccb94"/><path d="M64 89.87c-15.75 0-30.59-.79-41.76-2.23-17.01-2.19-19.19-5.01-19.19-7.22s2.18-5.03 19.19-7.22c11.18-1.44 26.01-2.23 41.76-2.23s30.59.79 41.76 2.23c17.01 2.19 19.19 5.01 19.19 7.22s-2.18 5.03-19.19 7.22C94.58 89.08 79.75 89.87 64 89.87M8.16 80.42c2.7 2.03 21.16 5.61 55.84 5.61s53.14-3.58 55.84-5.61c-2.7-2.03-21.16-5.61-55.84-5.61s-53.14 3.58-55.84 5.61" style="fill:#101314"/><ellipse cx="64" cy="71.61" rx="58.49" ry="9.65" style="fill:#dccb94"/><path d="M64 81.06c-15.75 0-30.59-.79-41.76-2.23-17.01-2.19-19.19-5.01-19.19-7.22s2.18-5.03 19.19-7.22c11.18-1.44 26.01-2.23 41.76-2.23s30.59.79 41.76 2.23c17.01 2.19 19.19 5.01 19.19 7.22s-2.18 5.03-19.19 7.22C94.58 80.27 79.75 81.06 64 81.06M8.16 71.61c2.7 2.03 21.16 5.61 55.84 5.61s53.14-3.58 55.84-5.61C117.14 69.58 98.68 66 64 66s-53.14 3.58-55.84 5.61" style="fill:#101314"/><ellipse cx="64" cy="63.95" rx="58.49" ry="9.65" style="fill:#dccb94"/><path d="M64 73.4c-15.75 0-30.59-.79-41.76-2.23-17.01-2.19-19.19-5.01-19.19-7.22s2.18-5.03 19.19-7.22C33.42 55.29 48.25 54.5 64 54.5s30.58.79 41.76 2.23c17.01 2.19 19.19 5.01 19.19 7.22s-2.18 5.03-19.19 7.22C94.58 72.61 79.75 73.4 64 73.4M8.16 63.95c2.7 2.03 21.16 5.61 55.84 5.61s53.14-3.58 55.84-5.61c-2.7-2.03-21.16-5.61-55.84-5.61s-53.14 3.58-55.84 5.61" style="fill:#101314"/><ellipse cx="64" cy="54.88" rx="58.49" ry="9.65" style="fill:#dccb94"/><path d="M64 64.33c-15.75 0-30.58-.79-41.76-2.23-17.01-2.19-19.19-5.01-19.19-7.22s2.18-5.03 19.19-7.22c11.18-1.44 26.01-2.23 41.76-2.23s30.58.79 41.76 2.23c17.01 2.19 19.19 5.01 19.19 7.22s-2.18 5.03-19.19 7.22C94.58 63.54 79.75 64.33 64 64.33M8.16 54.88c2.7 2.03 21.16 5.61 55.84 5.61s53.14-3.58 55.84-5.61c-2.7-2.03-21.16-5.61-55.84-5.61s-53.14 3.58-55.84 5.61" style="fill:#101314"/><path d="M113.36 53.75c-.07-1.71-.56-3.07-1.96-3.94-3.07-1.9-9.53-3.33-17.73-4.33-16.66-1.87-32.1-2.1-48.53-1.25-19.31 1.03-34.61 3.94-32.36 8.73 1.95 3.08 3.79 4.86 5.57 8.96 2.47 4.69 4.51 12.31 10.23 10.48 1-.38 1.95-1.07 2.78-1.79 7.11-7.13 9.86-12.19 21.88-11.36 13.87.24 15.88 12.64 22.46 22.15 1.8 2.7 4.68 5.71 7.65 3.15C87.33 81.39 91.4 70 94.93 63.8c3.69-7.04 8.26-3.16 12.83.24 4.65 3.2 5.6-7.68 5.61-10.14v-.14Z" style="fill:url(#a)"/><path d="M80.81 87.8c-7.06-1.21-10.46-12.56-14.95-19.05-3.67-6.85-12.19-8.2-19.32-6.97-5.41 1.03-7.77 4.33-11.42 8.11-13.55 13.75-15.73-3.48-22.09-12.81-1.59-2.8-3.27-5.42-2.45-7.07 1.94-3.41 9.49-4.81 13.9-5.78 21.49-3.55 48.79-3.09 68.95-.97 6.4.86 16.62 2.07 20.78 6.56 1.93 2.63 1.38 5.65.85 8.94-3.41 17.54-10.77.47-16.83 4.88-5.49 4.91-9.16 24.09-17.3 24.15h-.12Zm-31.7-30.19c5.75-.47 12.06.68 16.24 4.88 4.09 3.25 10.75 22.6 16.89 21.79 3.08-1.31 5.2-7.37 7.35-11.64 2.07-4.21 3.63-9.33 6.88-12.51 2.98-2.86 7.6-.07 10.81 1.39 2.21.98 3.84 1.06 4.91-1.33 1.01-2.62 2.53-8.88-.83-10.18-3.43-1.61-10.54-3.43-20.85-4.71-21.94-2.65-57.15-2.89-76.3 4.52-1.76.81-.94 2.22-.01 3.61 1.76 2.65 3.36 5.43 4.64 8.5 1.39 3.32 3.56 8.66 6.99 8.66 5.08-.15 8.38-5.41 11.85-8.33 2.96-2.74 7.15-4.21 11.21-4.62l.2-.02Zm62.11-4.93h.01z" style="fill:#101314"/><path d="M49.15 35.9H78.8V51H49.15z" style="fill:url(#b)"/><path d="M78.43 52.28H49.56c-1.04 0-1.87-.77-1.87-1.72V36.52c0-.95.84-1.72 1.87-1.72h28.87c1.04 0 1.87.77 1.87 1.72v14.04c0 .95-.84 1.72-1.87 1.72M49.4 50.24h29.2V36.83H49.4z" style="fill:#101314"/></svg>