<svg xmlns="http://www.w3.org/2000/svg" data-name="fill_cement" viewBox="0 0 128 128"><defs><linearGradient id="a" x1="-2388.45" x2="-2388.06" y1="-1316.23" y2="-1098.23" gradientTransform="matrix(.5 0 0 .5 1258 666)" gradientUnits="userSpaceOnUse"><stop offset="0" stop-color="#d8d9d8"/><stop offset="1" stop-color="#b9b9b9"/></linearGradient><linearGradient id="b" x1="-2387.99" x2="-2388" y1="-1253.98" y2="-1162.98" gradientTransform="matrix(.5 0 0 .5 1258 666)" gradientUnits="userSpaceOnUse"><stop offset="0" stop-color="#c9c9c9"/><stop offset="1" stop-color="#a0a0a0"/></linearGradient></defs><path d="M110 57c-.29 3.71-.45 7.55-.5 11.5-.03 5.8-.18 11.48-.5 17.25-.19 3.42-1.3 8.34-1 11.51.27 2.92 3.64 8.53 4.53 12.01.77 3 .98 9.3-2.16 10.88-5.98 3-15.43 1.03-21.04-2.22-.9-.52-1.52-1.64-2.46-2.04-1.93-.84-9.82.96-12.62 1.12-10.63.61-22.01.01-32.51-1.55-5.11 4.7-13.55 6.93-20.45 6.01-9.05-1.21-6.52-10.65-4.3-16.72.61-1.68 2.89-5.86 3.01-7.03.36-3.72-1.26-11.68-1.5-15.96-.76-14.01-.45-27.97.5-42 .17-2.55 1.04-6.05 1.05-8.5s-2.86-7.59-3.68-10.37c-2.5-8.48-3.14-17.58 8.4-16.91 7.01.41 12.15 4.51 17.49 8.53 14.33-2.21 29.16-2.21 43.48 0 4.17-2.93 7.8-6.28 12.87-7.65 15.49-4.2 16.46 6 12.41 17.91-.73 2.14-2.75 5.21-3.04 7.46-.44 3.34.81 8.86 1.05 12.51.3 4.73.76 9.63.98 14.27Z" style="fill:#0c0e0f"/><path d="M21.88 6.61c1.55-.23 3.67.22 5.23.54 5.15 1.04 10.02 3.95 13.11 8.2 10.32-1.38 21.12-2.52 31.56-1.86 5.04.32 10.31 1.99 15.47 1.51 3.68-2.92 6.63-5.74 11.25-7.25 12.82-4.18 13.32 3.02 10.15 13.15-.89 2.84-2.9 5.93-3.17 8.83-.56 6.11 1.32 15.04 1.55 21.5.29 8.09.32 17.46 0 25.54-.25 6.4-2.23 15.45-1.54 21.49.59 5.13 6.3 11.2 4.91 17.38-1.18 5.26-13.11 2.94-16.73 1.44-2.38-.99-4.26-3.19-5.67-3.83-2.12-.97-13.85 1.11-17.22 1.27-4.49.2-10.04.21-14.52-.02-3.28-.17-14.04-2.25-16.25-1.24-1.27.58-3.15 2.72-5.33 3.67-3.52 1.54-13.89 3.57-16.41.06-3.46-4.81 3.7-13.9 4.25-18.72.67-5.8-1.3-14.81-1.54-20.99-.33-8.4-.31-18.14 0-26.54.22-6.12 2.07-14.77 1.55-20.5-.32-3.58-3.36-8.71-4.28-12.72S16.2 7.47 21.88 6.62Z" style="fill:url(#a)"/><path d="M94 74c-.52-.35-1.03-.72-1.5-1.13s-.89-.82-1.23-1.3c-7.38-10.6-14.64-21.33-21.59-32.22-3.22-3.68-8.16-3.68-11.37 0-6.95 10.89-14.21 21.62-21.59 32.22-.34.48-.77.9-1.23 1.3s-.97.78-1.5 1.13c-.69-1.16-1.15-3.04-1.38-4.37-3.7-21.8 15.15-40.82 37-37C88.15 35.87 100.79 56.1 93.99 74Z" style="fill:#c93f3f"/><path d="M94 74c2.38 3.85 4.73 7.61 1.72 11.97-3.22 4.67-8.27 3.45-13.22 3.53-12.14 1.79-24.86 1.79-37 0-5.63-.1-13.2 1.05-14.38-6.37-.63-3.96.92-5.98 2.88-9.13 7.41-11.96 16.24-23.16 23.51-35.24 3.76-4.26 9.24-4.24 12.98 0C77.76 50.84 86.59 62.04 94 74" style="fill:#0e0e0f"/><path d="M82.5 89.5c-10.17 8.45-27.04 8.97-37 0 12.26.21 24.74.22 37 0" style="fill:#c93f3f"/><path d="M22.98 18.02c.38 2.63 1.79 5.35 3.1 7.65.55.97 1.69 1.37 1.92 2.59.4 2.19-.81 5.67-.99 7.99s.38 5.4 0 7.5c-.3 1.67-2.44 1.54-2.51.97.15-2.97-.18-6 0-8.97.11-1.74 1.2-5.04 1.02-6.48-.09-.72-2.53-3.78-3.11-4.93-1.05-2.1-3.63-7.15.57-6.32M26.5 100c-.06 2.74-2.32 4.77-3.38 7.37-.72 1.75-1.37 6.38-1.85 7.15-.42.69-1.53.47-2.27.48-1.2-2.36 3.75-14.14 5.09-14.9.59-.34 1.68-.02 2.4-.1ZM89 18.5c-1.48-1.49 3.2-5.58 4.33-6.41 1.18-.87 7.99-4.72 8.66-2.33.56 1.99-3.31 2.24-4.62 2.88-.95.46-2.52 1.49-3.34 2.16-1.84 1.52-2.67 4.09-5.04 3.71Z" style="fill:#fcfcfc"/><path d="M90 86.5c-17.32.52-34.65.52-52 0-2.5-.59-3.39-.76-4.16-3.59-.68-2.5-.05-3.13 1.07-5.24 6.52-12.31 17.43-24.32 24.38-36.62 2.38-3.53 7.04-3.53 9.42 0 6.86 12.31 17.9 24.37 24.38 36.62 1.12 2.12 1.75 2.73 1.07 5.24-.77 2.83-1.66 3-4.16 3.59" style="fill:url(#b)"/><path d="M53.37 62.58c2.79-.53 4.6 2.56 2.64 4.68-3.88 4.2-7.45-3.77-2.64-4.68m23.25 11.04c2.37-1.92 6.62 1.09 4.41 4.17-2.8 3.92-7.08-2-4.41-4.17m-4.3-6.56c4.34-1.44 3.69 5.49.18 3.7-1.22-.62-1.54-3.25-.18-3.7M66 51.5c-.8-2.41 1.58-4.34 2.76-2.01 1.02 2.02-1.27 2.21-2.76 2.01M45.53 71.97c-.81-.57-.51-4.33 1.99-2.74 1.67 1.06-.45 3.84-1.99 2.74M51 75c.9 3.29-2.63 4.17-3 .76z" style="fill:#6b6b6b"/></svg>