<svg xmlns="http://www.w3.org/2000/svg" data-name="fill_coleslaw" viewBox="0 0 128 128"><path d="M29.56 102.97c-4.86-4.26-9.73-8.01-13.99-12.37C6.49 81.29 1.86 70.09 2.93 56.93c.39-4.8 3.71-7.88 7.38-10.45 6.39-4.45 13.77-6.38 21.23-8.08 14.21-3.24 28.67-3.44 43.06-2.69 13.4.7 26.77 2.59 38.92 9.03 4.81 2.55 9.33 5.94 10.07 11.72.8 6.26-.03 12.51-2.42 18.51-4.47 11.21-12.5 19.29-22.18 26-.68.47-1.39.9-2.01 1.3 1.49 7.66.14 11.05-6.81 14.07-10.99 4.78-22.44 6.08-34.15 5.18-7.05-.54-13.86-2.64-20.36-5.6-6.05-2.76-7.95-6.8-6.1-12.95" style="fill:#4a3726;stroke-width:0"/><path d="M64.45 75.59c-14.98-.47-28.66-1.27-41.73-6-3.34-1.21-6.51-3.04-9.5-5-3.84-2.52-4.1-7.27-.7-10.43 4.67-4.33 10.59-6.18 16.59-7.66 9.38-2.31 18.92-3.4 28.6-3.61 14.03-.29 27.92.39 41.53 4.08 5.42 1.47 10.73 3.3 14.92 7.26 3.54 3.35 3.18 7.44-.67 10.38-5.97 4.56-13 6.56-20.18 7.87-6.29 1.14-12.7 1.7-19.07 2.39-3.66.4-7.35.54-9.8.71Z" style="fill:#7b5b3b;stroke-width:0"/><path d="M12.78 73.16c24.18 12.32 76.67 12.4 100.73.18-3.02 11.45-20.36 27.1-41.56 30.07-29.7 4.17-53.34-14.22-59.17-30.25" style="fill:#a5805b;stroke-width:0"/><path d="M89.94 105.64v2.67c-17.78 8.29-35.42 8.3-53.2.03v-2.66c17.76 7.24 35.32 7.29 53.2-.04" style="fill:#7b5b3b;stroke-width:0"/><path d="M20.79 17.19H6.78l11.69 54.63 14.02 3.68z" style="fill:#96a775;stroke-width:0"/><path d="M32.49 78c-.21 0-.42-.03-.63-.08l-14.01-3.68c-.91-.24-1.61-.97-1.81-1.89L4.33 17.71c-.16-.74.03-1.51.5-2.1s1.19-.93 1.94-.93h14.01c1.19 0 2.22.84 2.45 2.01L34.93 75c.17.84-.11 1.72-.74 2.31a2.5 2.5 0 0 1-1.71.68ZM20.6 69.79l8.65 2.27-10.51-52.38H9.87z" style="fill:#4a3726;stroke-width:0"/><path d="M108.71 17.19h14.01l-11.69 54.63-14.02 3.68z" style="fill:#96a775;stroke-width:0"/><path d="M97.01 78c-.63 0-1.25-.24-1.71-.68-.63-.59-.91-1.47-.74-2.31l11.7-58.31a2.496 2.496 0 0 1 2.45-2.01h14.01c.75 0 1.47.34 1.94.93s.66 1.36.5 2.1l-11.7 54.63c-.2.92-.9 1.66-1.81 1.89l-14.01 3.68c-.21.05-.42.08-.63.08m13.75-58.31-10.51 52.38 8.65-2.27 10.73-50.11z" style="fill:#4a3726;stroke-width:0"/><path d="m88.35 13.61 14.92-4.9L88.95 75.6l-12.34 1.37z" style="fill:#9928a4;stroke-width:0"/><path d="M76.61 79.47c-.69 0-1.36-.29-1.83-.8-.54-.58-.77-1.38-.63-2.16l11.74-63.36c.17-.9.81-1.63 1.68-1.92l14.92-4.89c.85-.28 1.79-.08 2.45.52.67.6.96 1.51.77 2.38L91.39 76.13a2.5 2.5 0 0 1-2.17 1.96l-12.34 1.37c-.09.01-.18.02-.28.02Zm13.93-63.95L79.68 74.11l7.21-.8 13.03-60.87z" style="fill:#4a3726;stroke-width:0"/><path d="m40.63 13.61-14.92-4.9L40.03 75.6l12.34 1.37z" style="fill:#9928a4;stroke-width:0"/><path d="M52.37 78.97c-.07 0-.15 0-.22-.01l-12.34-1.37c-.86-.1-1.55-.73-1.74-1.57L23.75 9.13c-.15-.7.09-1.43.62-1.91s1.28-.64 1.96-.41l14.92 4.89c.7.23 1.21.82 1.34 1.54L54.34 76.6a2.003 2.003 0 0 1-1.96 2.37Zm-10.69-5.2 8.23.91-11.04-59.55-10.48-3.44 13.29 62.07Z" style="fill:#4a3726;stroke-width:0"/><path d="m66.73 15.21 14.92-4.9L67.33 77.2l-12.35 1.37z" style="fill:#9928a4;stroke-width:0"/><path d="M54.98 81.07c-.69 0-1.36-.29-1.83-.8-.54-.58-.77-1.38-.63-2.16l11.75-63.36c.17-.9.81-1.63 1.68-1.92l14.92-4.89c.85-.28 1.79-.08 2.45.52s.96 1.51.77 2.38L69.77 77.73a2.5 2.5 0 0 1-2.17 1.96l-12.34 1.37c-.09.01-.18.02-.28.02Zm13.93-63.95L58.05 75.71l7.21-.8 13.03-60.87z" style="fill:#4a3726;stroke-width:0"/><path d="m60.1 15.21-14.92-4.9L59.5 77.2l12.35 1.37z" style="fill:#96a775;stroke-width:0"/><path d="M71.85 81.07c-.09 0-.18 0-.28-.02l-12.34-1.37a2.51 2.51 0 0 1-2.17-1.96L42.74 10.83a2.498 2.498 0 0 1 3.22-2.9l14.92 4.89c.87.28 1.51 1.02 1.68 1.92L74.3 78.1c.14.78-.09 1.58-.63 2.16-.48.51-1.14.8-1.83.8Zm-10.28-6.16 7.21.8-10.86-58.59-9.38-3.08z" style="fill:#4a3726;stroke-width:0"/><path d="M27.98 30.06H16.77l9.35 43.71 11.21 2.94z" style="fill:#9928a4;stroke-width:0"/><path d="M37.33 78.71c-.17 0-.34-.02-.51-.07L25.61 75.7c-.73-.19-1.29-.78-1.45-1.52l-9.35-43.7a1.996 1.996 0 0 1 1.96-2.42h11.21a2 2 0 0 1 1.96 1.61l9.36 46.65a1.992 1.992 0 0 1-1.96 2.39Zm-9.51-6.57 6.92 1.82-8.4-41.9h-7.1l8.58 40.09Z" style="fill:#4a3726;stroke-width:0"/><path d="M98.31 30.06h11.21l-9.36 43.71-11.21 2.94z" style="fill:#9928a4;stroke-width:0"/><path d="M88.96 78.71A1.992 1.992 0 0 1 87 76.32l9.36-46.65a2.01 2.01 0 0 1 1.96-1.61h11.21a1.996 1.996 0 0 1 1.96 2.42l-9.36 43.71a2.02 2.02 0 0 1-1.45 1.52l-11.21 2.94c-.17.04-.34.07-.51.07Zm10.99-46.65-8.4 41.9 6.92-1.82 8.58-40.09h-7.1Z" style="fill:#4a3726;stroke-width:0"/><path d="m82.03 27.19 11.93-3.91-11.45 53.51-9.88 1.09z" style="fill:#96a775;stroke-width:0"/><path d="M72.63 79.88c-.55 0-1.08-.23-1.46-.64-.43-.46-.62-1.1-.5-1.73l9.4-50.69c.13-.72.65-1.31 1.34-1.54l11.94-3.92c.68-.22 1.43-.07 1.96.41s.77 1.21.62 1.91L84.47 77.19a2.01 2.01 0 0 1-1.74 1.57l-9.88 1.1c-.07 0-.15.01-.22.01Zm11.15-51.16-8.69 46.87 5.76-.64 10.43-48.7-7.5 2.46Z" style="fill:#4a3726;stroke-width:0"/><path d="m43.85 27.19-11.94-3.91 11.46 53.51 9.87 1.09z" style="fill:#96a775;stroke-width:0"/><path d="M53.24 79.48h-.18l-9.88-1.1c-.68-.08-1.24-.58-1.39-1.26L30.33 23.61c-.12-.56.07-1.14.5-1.52s1.02-.51 1.57-.33l11.94 3.92c.56.18.97.65 1.07 1.23l9.4 50.69c.09.5-.06 1.01-.4 1.38-.3.33-.73.51-1.17.51Zm-8.55-4.16 6.59.73-8.83-47.64-8.39-2.75z" style="fill:#4a3726;stroke-width:0"/><path d="m64.72 28.47 11.94-3.91L65.2 78.07l-9.87 1.09z" style="fill:#9928a4;stroke-width:0"/><path d="M55.33 81.16c-.55 0-1.08-.23-1.46-.64-.43-.46-.62-1.1-.5-1.73l9.4-50.69c.13-.72.65-1.31 1.34-1.54l11.94-3.92c.68-.22 1.43-.07 1.96.41s.77 1.21.62 1.91L67.17 78.47a2.01 2.01 0 0 1-1.74 1.57l-9.88 1.1c-.07 0-.15.01-.22.01ZM66.47 30l-8.69 46.87 5.76-.64 10.43-48.69z" style="fill:#4a3726;stroke-width:0"/><path d="m59.43 28.47-11.94-3.91 11.46 53.51 9.87 1.09z" style="fill:#96a775;stroke-width:0"/><path d="M68.82 81.16c-.07 0-.15 0-.22-.01l-9.88-1.1c-.86-.09-1.56-.73-1.74-1.57L45.52 24.97c-.15-.7.09-1.43.62-1.91s1.28-.64 1.96-.41l11.94 3.92c.69.23 1.21.82 1.34 1.54l9.4 50.69a2.003 2.003 0 0 1-1.96 2.37Zm-8.22-4.92 5.76.64-8.69-46.87-7.5-2.46 10.43 48.7Z" style="fill:#4a3726;stroke-width:0"/></svg>