<svg xmlns="http://www.w3.org/2000/svg" data-name="fill_drymaize2" viewBox="0 0 128 128"><path d="M100.99 100.2c4.98 7.14 6.49 17.58-3.57 21.52-12.23 5.8-30.23 10.84-30.1-8.95-27.95-7.23-27.68-38.6-34.58-61.29-1.43-3.95-5.35-6.44-8.06-9.53-6.79-5.97-1.93-16.38 7.41-15.2-1.63-30.48 33.37-33.91 43.24-9.71 5.87-4.89 14.82-.37 14.1 7.32-1.05 8.57 1.53 16.09 5.64 23.54 9.52 15.38 16.96 35.7 5.92 52.29Z" style="fill:#4a3726;stroke-width:0"/><path d="M29.2 33.72c8.32 1.93 20.79-2.28 26.13 5.76 10 20.49 21.02 40.61 30.53 61.29-20.8 15.86-38.13-7.63-40.67-27.61-3.33-10.05-2.89-22.18-9.97-30.46-2.21-2.83-5.73-4.67-6.83-8.25l.8-.74Zm63.38 63.31C83.85 80.12 75.98 63.79 67.35 47c-5.52-10.58 8.31-16.95 13.35-25.62 4.76 6.84-1.82 14.07 6.57 26.35 7.4 13.78 21.14 36.92 5.31 49.3m-12.94 23.34c-3.37.04-6.42-4.03-5.16-7.12 4.68-3.97 11.94-4.8 17.55-7.43 4.38-2.97 7.6 4.75 5.37 7.4-5.04 3.61-11.84 5.01-17.5 7.79-.09-.22-.17-.43-.26-.65Z" style="fill:#306038;stroke-width:0"/><path d="M69.86 22.79c-2.91 3.88-5.74 7.66-8.84 11.78-.94-.26-2.28-.2-2.8-.83-3.52-4.35-8.63-4.07-13.55-4.58-4.82.02-5.54 0-5.82-6.72 1.98-20.45 26.07-19.06 31.01.35" style="fill:#f3f34e;stroke-width:0"/></svg>