<svg xmlns="http://www.w3.org/2000/svg" data-name="fill_barrel" viewBox="0 0 128 128"><defs><linearGradient id="a" x1="-676.8" x2="-845.84" y1="-418.04" y2="-417.86" gradientTransform="matrix(.5 0 0 .5 444 296)" gradientUnits="userSpaceOnUse"><stop offset="0" stop-color="#a97737"/><stop offset=".49" stop-color="#c19a6d"/><stop offset="1" stop-color="#a97736"/></linearGradient><linearGradient id="b" x1="-844.89" x2="-675.89" y1="-510.61" y2="-510.46" gradientTransform="matrix(.5 0 0 .5 444 296)" gradientUnits="userSpaceOnUse"><stop offset="0" stop-color="#a97736"/><stop offset=".5" stop-color="#c19a6d"/><stop offset="1" stop-color="#a97737"/></linearGradient><linearGradient id="c" x1="-670.94" x2="-841.96" y1="-464.12" y2="-464.08" gradientTransform="matrix(.5 0 0 .5 444 296)" gradientUnits="userSpaceOnUse"><stop offset="0" stop-color="#71706f"/><stop offset=".51" stop-color="#a9a9a8"/><stop offset="1" stop-color="#777675"/></linearGradient><linearGradient id="d" x1="27" x2="100.55" y1="109.11" y2="109.16" gradientUnits="userSpaceOnUse"><stop offset="0" stop-color="#7b7978"/><stop offset=".47" stop-color="#aaaaa8"/><stop offset="1" stop-color="#737271"/></linearGradient><linearGradient id="e" x1="26.94" x2="101" y1="18.98" y2="19" gradientUnits="userSpaceOnUse"><stop offset="0" stop-color="#7a7978"/><stop offset=".47" stop-color="#a9a9a8"/><stop offset="1" stop-color="#737271"/></linearGradient></defs><path d="m96.86 12.14 6.54 10.71c.52 2.27-.88 3.02-.82 3.81.05.7 2.59 5.57 3.07 6.94 1.58 4.52 2.95 9.49 3.88 14.17.23 1.18.5 5.83.72 6.21.44.77 1.63 1.08 2.27 1.76 1.31 1.38.38 2 .52 3.43.27 2.64.65 4.79.46 7.58-.08 1.22-.54 5.29-1.22 5.79-.54.39-1.48.25-1.79.81-1.12 7.25-2.53 14.5-4.97 21.42-.55 1.55-2.83 5.27-2.93 6.57-.06.78 1.25 1.32.82 3.29-.33 1.51-5.9 10.62-7.13 11.4-.48.31-.9.55-1.5.5l-63.28-.28-6.77-10.72c-.84-2.57.76-3.31.69-4.19-.04-.58-2.33-4.93-2.79-6.21-1.28-3.56-2.51-7.44-3.38-11.12-.59-2.49-1.03-8.47-1.85-10.15-.72-1.48-2.54-.99-2.9-4.1-.26-2.25-.32-10.39.12-12.41s2.21-2.03 2.79-3.21c1.04-2.13 1.9-10.73 2.86-14.14.65-2.31 1.55-4.85 2.37-7.13.46-1.27 2.75-5.64 2.79-6.21.05-.63-.78-1.19-.92-1.94-.35-1.88 1.59-4.67 2.6-6.38.62-1.06 3.46-5.68 4.04-6.2.55-.49 1.39-.58 2.1-.65 19.9 1.09 41.31-1.43 61.03-.02.86.06 1.92.06 2.59.66Z" style="fill:#0c0d0d"/><path d="M28.19 100.55c-4.17-7.6-6.82-16.55-7.62-25.2-.07-.64-.18-1.58.15-2.01.3-.4 1.12-.33 2.34-.34h6.37c1.23.03 1.98-.17 1.95 1.03.15 3.84 3.11 14.47 5.25 19.86.62 1.49.82 2.16 2.14 2.08 1.69-.05.89-1.71.56-2.92-1.96-5.85-4.32-11.61-4.8-17.77-.02-.71-.15-1.17.14-1.62 5.04-.41 13.92-.02 19.59-.15h6.7c1.58-.13 1.53.29 1.62 1.59.32 6.12-.8 12.68-.08 18.68.94 4.21 3.16 1.76 3.16-1.2.46-5.94-.77-12.67-.07-18.67.19-.58.72-.37 1.75-.41h25.33c.54-.02.78.06.82.61-.17 4.41-1.34 8.94-2.77 13.01-.53 2.21-4.09 7.47-1.61 9.06.25.09.51.03.73-.14 2.54-2.33 5.95-16.75 6.62-21.7.04-.84.3-1.37 1.21-1.32 1.75-.02 6.49-.01 8.55 0 1.49-.11 1.36 1.21 1.22 2.34-.89 8.7-3.41 18.19-7.99 25.61-5.06-.2-67.53.63-71.2-.33l-.05-.08Z" style="fill:url(#a)"/><path d="M29.61 26.71c22.52-.65 45.27.06 67.82.26 1.68.04 2.67.45 3.39 1.99 3.4 7.28 6.05 15.6 6.74 23.68.03.91.17 1.67-.56 2.13-2.33.55-6.34.11-8.66.22-1.47.06-1.85-1.04-1.93-2.35-.76-6.37-1.63-12.55-4.01-18.43-.51-1.42-2.26-3.21-2.65-.78-.08.66.09 1.49.29 2.17 1.68 5.95 4.04 12.3 3.4 18.51-.27.82-.98.64-2.1.65-5.53-.05-12.15-.12-17.81-.18-2.8-.03-5.2-.05-6.57-.07-1.85.24-1.48-1.47-1.59-2.75-.51-3.32 1.98-19.28-1.45-19.61-1.34.34-1.49 2.44-1.61 3.65-.28 5.1.39 10.76.28 15.96-.11 1.38.28 3.01-1.72 2.75-6.82.06-16.65.16-23.74.22-1.62-.05-2.47.3-2.69-.64-.26-1.4-.01-3.11.12-4.58.64-4.98 2.14-9.87 3.56-14.69.59-2.32-.86-3.9-2.3-1.34-2.54 5.26-3.67 12.78-4.34 18.53-.1 1.07-.44 2.09-1.57 2.36-1.49.41-4.46.48-6.64.46-1.76-.09-2.92.13-2.86-1.6.87-6.48 3.43-22.87 9.02-26.48l.15-.05Z" style="fill:url(#b)"/><path d="M64.65 57.52c7.44.21 15.09.57 22.77.39 6.85-.27 13.69-.5 20.51-.03 3.04.22 3.06 3.29 3.05 6.02 0 2.88.12 6.38-3.78 6.31-6.48.36-13.2.17-19.6-.12-18.91.45-38.32-.16-57.32.22-3.23 0-6.5-.04-9.66-.18-3.04.02-3.82-1.92-3.7-4.71.1-2.12-.13-5.62 1.21-6.8.64-.57 1.63-.72 2.52-.77 6.83-.3 13.7-.16 20.53.06 7.74-.12 15.56-.57 23.28-.4h.18Z" style="fill:url(#c)"/><path d="M98.41 108.66c-.7 1.2-3.1 5.15-4.15 5.35-17.92-.21-61.06.68-61.78.03-1.94-1.77-3.66-7.57-5.48-9.79 1.17-.48 50.68-.11 73.5-.25.43.43-1.68 3.93-2.09 4.66" style="fill:url(#d)"/><path d="M31.97 104.39c1.52.94 2.93 3.63 4.01 5.19.74 1.23 1.37 3.64-.53 4.02-2.39-.12-6.59-6.54-5.43-8.51.3-.69 1.05-1.12 1.82-.76z" style="fill:#c2c2c1"/><path d="M101 24c-22.99-.14-73.09.42-74.06-.06 1.9-2.34 3.72-7.54 5.83-9.43.73-.66.94-.59 1.69-.68 1.69.12 41.88.37 59.8.16.43 0 .69.23.99.51 2.08 2.02 3.92 7.03 5.75 9.5" style="fill:url(#e)"/><path d="M39.36 113.5c-.92-.72-1.89-2.75-2.7-3.89-.56-1.03-1.21-1.94-.82-2.93.2-.38.64-.61 1.07-.63 1.6.04 2.1 1.91 3 3.13.79 1.28 1.62 2.43.71 3.72-.26.37-.72.82-1.15.65l-.1-.05Zm1.15-99.36c1.66 1.43-1.82 8.69-4.13 7.13-.87-1.27.62-2.95 1.25-4.2.79-.95 1.58-3.42 2.78-2.99l.1.07Zm-4.73.43c1.49 2.39-1.72 5.2-2.94 7.5-.33.5-.71 1.04-1.19 1.37-.95.71-2.29.32-2.43-.65-.31-1.86 4.15-9.7 6.47-8.3z" style="fill:#c2c2c1"/><path d="M31.18 99.35c-.73.66-1.93.37-2.34-.49-1.16-2.17-3.68-8.83-4.31-11.36-.45-1.27.57-3.31 1.97-2.01 1.71 1.98 1.72 5.01 2.8 7.34.6 1.95 2.89 4.39 1.96 6.42l-.09.1Zm.07-71.01c.98 1.33-.08 3.36-.64 4.76-1.49 2.85-2.12 6.05-3.37 9-.71 1.66-2.39 2.04-2.68-.08-.14-1.19.14-2.37.52-3.51.93-2.68 2.4-5.34 3.25-8 .33-1.16 1.48-3.4 2.83-2.26l.08.09Z" style="fill:#f7d2a2"/><path d="M19.91 59.32c.65-.85 1.94-.8 2.33.12.52 1.56.18 3.34.27 4.99-.02 2.82.33 5.67-2.2 4.61-.89-.74-.83-1.94-.91-3.17.04-1.94-.43-4.84.41-6.43l.09-.13Zm5.62-.41c2.97-.39 2.62 7.01.54 7.92-1.31.43-1.07-1.14-1.1-3.53.12-1.26-.34-3.6.47-4.34z" style="fill:#c2c2c1"/></svg>