<svg xmlns="http://www.w3.org/2000/svg" viewBox="0 0 128 128"><path d="M36.89 20.25c1.33-8.96 6.18-11.82 14.27-8.71 7.68-9.35 19.23-9.01 23 .06 3.9-.28 7.74-1.35 11.17-.59 4.16.92 5.54 4.89 5.55 9.32 4.19-1.87 7.62-.29 10.98 1.77 19.17 11.76 26.16 29.71 24.33 51.08-2.14 25.01-18.21 42.41-42.77 47.78-20.05 4.38-39.63 3.3-57.5-7.73C7.91 102.09.48 85.12 1.64 64.38 2.67 46 10.37 31.25 26.73 21.73c3.12-1.81 6.28-3.17 10.16-1.48" style="fill:#4a3726;stroke-width:0"/><path d="M95.5 28.83c8.03 3.47 13.84 9.42 17.33 17.21 7.43 16.6 7.49 33.05-3.15 48.48-7.7 11.17-19.19 16.59-32.1 18.78-12.33 2.09-24.73 1.8-36.71-2.48-15.51-5.55-26.19-15.78-29.62-32.29-3.7-17.78 1.66-38.05 17.97-48.2 1.11-.69 2.29-1.29 3.58-2.01-.17 9.2 3.38 11.41 20.36 13.01 10.38 10.36 13.06 10.38 21.28.35 4.05-.61 8-.86 11.76-1.84 6.87-1.78 8.54-4 9.31-11.03l-.02.02Z" style="fill:#ce4430;stroke-width:0"/><path d="M57.61 32.3c-4.58.6-9.46 1.38-14.83-1.17 3.54-1.39 6.42-2.52 9.33-3.67-2.16-2.69-3.97-4.93-5.77-7.17l.65-.47c4.47 1.23 8.93 2.46 14.11 3.89-.33-3.36-.59-5.96-.9-9.04 1.77-.33 3.33-.62 5.47-1.01.36 3.42.67 6.37 1.05 9.89 4.99-1.34 9.8-2.63 15.6-4.19-2.32 2.99-4.18 5.38-6.45 8.3 3.1 1.07 6.07 2.1 9.63 3.34-5.21 2.41-10.18 2.19-15.4 1.32-1.74 2.63-3.51 5.31-5.8 8.79-2.43-3.2-4.47-5.89-6.68-8.79Z" style="fill:#306038;stroke-width:0"/></svg>