<svg xmlns="http://www.w3.org/2000/svg" data-name="fill_soupcancarrot" viewBox="0 0 128 128"><defs><linearGradient id="a" x1="-1545.13" x2="-1445.13" y1="-592.4" y2="-592.31" gradientTransform="matrix(.5 0 0 .5 814 370)" gradientUnits="userSpaceOnUse"><stop offset="0" stop-color="#f5a023"/><stop offset=".53" stop-color="#fbc670"/><stop offset="1" stop-color="#f5a023"/></linearGradient><linearGradient id="b" x1="-1492.18" x2="-1471.72" y1="-595.57" y2="-531.77" gradientTransform="matrix(.5 0 0 .5 814 370)" gradientUnits="userSpaceOnUse"><stop offset="0" stop-color="#e5661e"/><stop offset="1" stop-color="#ea883e"/></linearGradient></defs><path d="M63.39 16.64c8.26-.42 23.96 1.09 30.12 7.09 3.36 3.27 1.82 6 2.51 10-1.39 22.23 1.77 46.56 0 68.54-.27 3.4-1.15 5.09-3.78 7.22-10.4 8.41-41.59 8.68-51.75-.23-1.47-1.29-2.81-2.94-3.01-4.99l.12-76.9c4.04-8.6 17.23-10.29 25.78-10.72Z" style="fill:#0c0d0d"/><path d="M93 34.5c.44 22.98.47 46.97 0 70-.73 2.29-1.96 3.1-4.03 4.22-9.39 5.11-26.15 5.42-36.38 2.94-3.32-.81-11.55-3.38-12.09-7.16v-70l6.01 3.24c10.39 4.33 30.07 4.31 40.49 0 1.32-.55 5.37-3.32 6.01-3.24Z" style="fill:url(#a)"/><path d="M58.89 19.64c7.89-.77 17.52-.38 25 2.21 7.46 2.59 14.63 7.46 3.86 12.65-10.24 4.93-26.88 4.9-37.64 1.62-5.6-1.71-14.64-6.19-6.59-11.85 3.28-2.3 11.33-4.24 15.36-4.64Z" style="fill:#a9aaaa"/><path d="M93 104.5v-70c.77.09.45.67.51 1.24l.03 67.06c.29.77-.42 1.33-.53 1.7Z" style="fill:#e69722"/><path d="M76.34 71.16c.91.91 2.28 3.89 2.55 5.2 1.93 9.29 2.07 19.1 4.13 28.4-.52 3.89-4.48 5.6-7.54 2.87L62.13 83.11c-1.23-3.34-2.15-5.5-.73-8.97.48-1.17 1.5-1.93 1.6-3.15-1.42.33-2.41-1.13-3.36-1.39-1.03-.28-2.12.09-3.14-.36-.93-.41-1.25-1.93-1.84-2.28-.82-.48-2.29-.22-2.92-.96-.52-.62-.42-2.16-1.02-2.98-.46-.63-1.64-.84-1.99-1.51-.47-.92-.08-2.13-.35-3.15-.18-.66-.95-1.17-1.17-1.84-1.22-3.72 1.82-6.7 5.5-6.01.91.17 3.93.92 4.81 1.2 1.37.43 1.74 2.49 2.71 2.28 1.09-.24.5-2.64 1-3.5.11-.18 3.07-2.65 3.26-2.74.91-.42 5.2-.5 6 0 .23.14 3.2 3.92 3.3 4.24.38 1.21-.21 1.84-.15 2.7.07.97.93 1.87.85 3.04-.02.27-1.25 4.92-1.36 5.16-.51 1.11-4.16 2.93-3.62 4.82.19.67 5.49 2.12 6.82 3.46Z" style="fill:#10100c"/><path d="M76.63 30.87c-.83-1.02-.7-3.86-.03-5.03 1.61-2.85 12.69-2.71 13.8 1.01 2.09 7-11.61 6.68-13.77 4.03Z" style="fill:#0c0d0d"/><path d="M59.5 21c.78 3.3-3.85 2.57-6.51 3.24s-4.85 2.34-7.49 2.75c.11-.67-.24-1.97.07-2.42.12-.18 3.35-1.59 3.93-1.82 3.18-1.22 6.57-2.01 9.99-1.76Z" style="fill:#d0d1d1"/><path d="M79.93 105.93c-.47.65-2.35.64-2.66-.45L63.73 80.02c-2.36-8.58 8.7-12.16 11.66-5.16 1.07 2.53.73 4.48 1.15 6.85.55 3.05 4.26 23.02 3.39 24.23Z" style="fill:url(#b)"/><path d="M56.9 54.6c.22.13.58 1.47 1.31 1.94.82.53 1.82.3 2.19.55.26.17.54 1.94 1.08 2.68s1.82 1.15 1.92 1.33c.11.19.9 3.73.99 4.27.14.81-.51 1.73.11 2.63-1.58.42-2.61-.53-3.87-.88-.83-.23-1.89.08-2.64-.36-.47-.28-.67-1.32-1.22-1.78-.78-.65-2.2-.62-2.67-1.08s-.43-1.89-1.08-2.67c-.46-.55-1.5-.75-1.78-1.22-.44-.75-.13-1.81-.36-2.64-.27-.96-1.51-2.82-.82-3.8 1.1-1.56 3.12.47 3.91.72.99.32 2.38 0 2.93.32Z" style="fill:#4a6c2e"/><path d="M63.62 52.11c.47-.79 4.17-2.23 5.09-2.03.25.05 2.1 2.43 2.19 2.77.49 1.7.58 6.63.01 8.31-.25.74-1.32 1-1.92 1.58-.41.41-.82 1.65-1.25 1.75-1.65.4-1.07-3.23-1.61-4.38-.77-1.64-3.13-1.39-3.09-4.81 0-.35.49-3.05.57-3.2Z" style="fill:#183d1d"/><path d="M87.98 28.97c-.7 1.07-8.52 2-9-.72.03-2.99 10.82-2.05 9 .72" style="fill:#6d6c6b"/></svg>