<svg xmlns="http://www.w3.org/2000/svg" data-name="fill_chocolate" viewBox="0 0 128 128"><defs><linearGradient id="a" x1="-2034.86" x2="-1992.92" y1="-439.36" y2="-416.02" gradientTransform="matrix(.5 0 0 .5 1110 296)" gradientUnits="userSpaceOnUse"><stop offset="0" stop-color="#8c4b11"/><stop offset=".54" stop-color="#652d0e"/><stop offset="1" stop-color="#632c0e"/></linearGradient><linearGradient id="b" x1="-2105.27" x2="-2063.12" y1="-560.12" y2="-537.16" gradientTransform="matrix(.5 0 0 .5 1110 296)" gradientUnits="userSpaceOnUse"><stop offset="0" stop-color="#8c4b12"/><stop offset=".54" stop-color="#652d0e"/><stop offset="1" stop-color="#642c0e"/></linearGradient><linearGradient id="c" x1="-2081.66" x2="-2039.66" y1="-519.8" y2="-496.57" gradientTransform="matrix(.5 0 0 .5 1110 296)" gradientUnits="userSpaceOnUse"><stop offset="0" stop-color="#8c4b11"/><stop offset=".54" stop-color="#652d0e"/><stop offset="1" stop-color="#642c0e"/></linearGradient><linearGradient id="d" x1="-2058.92" x2="-2015.56" y1="-479.39" y2="-456.56" gradientTransform="matrix(.5 0 0 .5 1110 296)" gradientUnits="userSpaceOnUse"><stop offset="0" stop-color="#8c4b11"/><stop offset=".55" stop-color="#652d0e"/><stop offset="1" stop-color="#642c0e"/></linearGradient><linearGradient id="e" x1="-2099.23" x2="-2056.15" y1="-455.91" y2="-432.57" gradientTransform="matrix(.5 0 0 .5 1110 296)" gradientUnits="userSpaceOnUse"><stop offset="0" stop-color="#8d4b11"/><stop offset=".55" stop-color="#642d0e"/><stop offset="1" stop-color="#642c0e"/></linearGradient><linearGradient id="f" x1="-2145.51" x2="-2103.34" y1="-536.4" y2="-513.47" gradientTransform="matrix(.5 0 0 .5 1110 296)" gradientUnits="userSpaceOnUse"><stop offset="0" stop-color="#8c4b11"/><stop offset=".54" stop-color="#652d0e"/><stop offset="1" stop-color="#642c0e"/></linearGradient><linearGradient id="g" x1="-2122.77" x2="-2079.68" y1="-496.43" y2="-473.1" gradientTransform="matrix(.5 0 0 .5 1110 296)" gradientUnits="userSpaceOnUse"><stop offset="0" stop-color="#8d4b12"/><stop offset=".53" stop-color="#662e0e"/><stop offset="1" stop-color="#642c0e"/></linearGradient><linearGradient id="h" x1="-2115.72" x2="-2079.13" y1="-392.14" y2="-371.51" gradientTransform="matrix(.5 0 0 .5 1110 296)" gradientUnits="userSpaceOnUse"><stop offset="0" stop-color="#8d4b11"/><stop offset="1" stop-color="#642c0e"/></linearGradient><linearGradient id="i" x1="-2139.74" x2="-2097.21" y1="-432.66" y2="-410.4" gradientTransform="matrix(.5 0 0 .5 1110 296)" gradientUnits="userSpaceOnUse"><stop offset="0" stop-color="#8d4c11"/><stop offset=".52" stop-color="#672f0e"/><stop offset="1" stop-color="#642c0e"/></linearGradient><linearGradient id="j" x1="-2075.78" x2="-2033.32" y1="-415.26" y2="-392.88" gradientTransform="matrix(.5 0 0 .5 1110 296)" gradientUnits="userSpaceOnUse"><stop offset="0" stop-color="#8c4b11"/><stop offset=".54" stop-color="#652d0e"/><stop offset="1" stop-color="#642c0e"/></linearGradient></defs><path d="m73.88 5.12 46.94 81.63-1.14 1.69-60.94 34.95c-.86-.05-5.32-7.86-6.15-9.23-13.1-21.72-27.34-45.5-39.18-67.82-.69-1.3-2.7-4.77-2.45-6.01L72.75 4.7z" style="fill:#0a0b0a"/><path d="m89.5 78.51 17.99-10.01 10 17.72L99.8 96.47z" style="fill:url(#a)"/><path d="m82.5 25.99-17.76 9.96L54.53 18.3 72.2 8.03z" style="fill:url(#b)"/><path d="m84.45 28.56 9.49 17.13-17.65 10.35c-1.17-2.51-10.2-16.16-9.75-17.71l15.99-9.55z" style="fill:url(#c)"/><path d="M95.96 48.53c.74 2.72 9.96 16.1 9.5 17.65-.3 1.02-14.17 7.99-15.99 9.55-.49.25-1.12.42-1.65.31-.97-.2-8.51-15.21-9.76-17.22l17.89-10.29Z" style="fill:url(#d)"/><path d="M67.54 87.97 57.5 70.01l17.76-9.96 10.23 17.67z" style="fill:url(#e)"/><path d="m52.43 20.06 9.01 15.74.53 2.16c-5.77 2.12-11.04 6.79-16.49 9.27-.49.22-.91.39-1.46.25l-9.48-17.66 15.44-9.09z" style="fill:url(#f)"/><path d="M63.96 40.03 74 57.99l-17.75 10-10.24-17.71z" style="fill:url(#g)"/><path d="M59.04 119.97 49 102.28 66.72 92 77 109.72z" style="fill:url(#h)"/><path d="M37.76 82.98c-.22-.49-.39-.91-.25-1.46.44-.09.93-.17 1.32-.41 4.27-2.66 10.41-6.66 14.81-8.72.5-.23 1.33-.65 1.79-.33l9.61 17.62-16.88 9.74c-1.55.14-8.99-13.35-10.39-16.44Z" style="fill:url(#i)"/><path d="M87.48 80.52c.57 2.8 9.94 16.13 9.48 17.66-.23.79-12.41 7.55-14.13 8.41-.79.4-3.16 1.84-3.8 1.38-2.09-5.39-6.74-10.63-8.98-15.77-.3-.7-.74-1.35-.53-2.16 5.72-2.3 10.97-6.76 16.49-9.27.49-.22.91-.4 1.46-.25Z" style="fill:url(#j)"/><path d="m26.23 61.5 15.41-9.11c.59-.28 1.4-.56 2.03-.42.94.2 8.06 14.76 9.63 16.52.56 1.16-1.23 1.84-2.15 2.41-4.96 3.08-10.26 5.8-15.38 8.61-.9-2.41-2.77-4.42-3.89-6.67-.36-.72-6.28-10.35-5.66-11.34ZM42 49.49c-2.75.53-16.26 9.9-17.67 9.47-1.3-.4-8.64-15.12-10.26-17.22l17.64-10.2 10.3 17.96Z" style="fill:#6c320e"/><path d="M30.17 66.91c-.18-1.19-.91-4.82 1.17-3.67 1.61 1.36 3.78 6.02 3.83 7.62-.14.66-1.01.55-1.56.47-1.87-.21-3.16-2.49-3.42-4.26l-.03-.15Zm15.19 28.01c-1.12-.98-1.62-2.35-1.56-3.75.02-.43.11-.85.28-1.17 1.02-1.7 2.97.04 3.54 1.2 1.13 1.76 2.45 4.06 1.6 4.87-1.14.8-2.85-.36-3.74-1.03l-.13-.11ZM74 108c1.22 2.44-6.15 5.82-7 5-1.32-2.5 6.3-5.67 7-5m5.56-4.45c2.45-.5 6.6-4.42 8.73-4.56 1.77-.11 2.42 1.28.89 2.44-.58.44-7.59 4.4-8.04 4.49-1.61.32-1.9-1.05-1.59-2.38Zm-56.12-62.6c-.13.19-3.08 1.13-3.47 1.88-.18.86 3.49 6.74-.17 5.64-.66-.2-3.92-5.85-3.21-6.88.18-.27 5.35-3.09 5.67-3.1 1.19-.05 1.65 1.79 1.18 2.46M22 51c1.49-1.49 6.49 4.8 3.23 5.99-1.11.24-3.76-4.77-3.23-5.99" style="fill:#ab6d36"/></svg>