<svg xmlns="http://www.w3.org/2000/svg" data-name="fill_milkcow" viewBox="0 0 128 128"><defs><linearGradient id="a" x1="720.04" x2="719.52" y1="-537.64" y2="-353.64" gradientTransform="matrix(.5 0 0 .5 -296 296)" gradientUnits="userSpaceOnUse"><stop offset="0" stop-color="#e6e5e5"/><stop offset="1" stop-color="#b9b9b9"/></linearGradient><linearGradient id="b" x1="720.02" x2="719.99" y1="-420.79" y2="-400.79" gradientTransform="matrix(.5 0 0 .5 -296 296)" gradientUnits="userSpaceOnUse"><stop offset="0" stop-color="#dfbab7"/><stop offset="1" stop-color="#da9e9a"/></linearGradient></defs><path d="M82.04 15.95c4.23-.51 10.28.57 9.25 6.06-.49 2.65-3.21 3.95-3.23 4.22-.01.17 1.28 2.95 1.41 3.06 1.17.92 8.85-4.61 13.21-2.23 1.54.84 3.07 2.95 3.28 4.74.82 7.09-7.58 7.82-12.47 9.7l2.03 6.72c-1.13 20.59 1.41 42.63 0 63.05-.43 6.26-3.14 11.67-9.82 12.68-14.06-.79-29.58 1.23-43.47.07-6.87-.57-9.73-6.59-10.23-12.77-1.58-19.94 1.19-41.86-.02-62.02-.44-1.9 2.35-6.12 1.99-7.42-.5-1.79-11.21-1.73-11.93-8.11-.29-2.61.77-5.04 2.99-6.43 4.13-2.58 9.31 1.46 13.47 2.23-.32-.84 1.1-3.32.99-3.47-.45-.59-2-.41-2.87-2.93-2.25-6.48 4.98-7.83 9.83-7.15 3.24-18.19 32.33-18 35.59 0m6.46 4.55c-1.33-3.45-5.89-1.53-9-2C79.04.79 49.08.27 49 18.5c-2.79.42-9.66-1.5-10 2.5-.19 2.15.78 2.82 2.74 3 13.84 1.26 29.49-.97 43.53.02 2.41-.05 4.15-1.12 3.23-3.52m-3.05 6.05-42.2-.06c-2.19.2-2.19 6.17-3.54 6.46-3.18-.41-12.58-6.16-14.45-1.95-2.7 6.08 8.92 6.61 12.27 8.77l-2.54 8.96c1.27 20.42-1.67 42.84-.01 63.02.37 4.45 2.37 8.82 7.24 9.26 13.85 1.23 29.49-.98 43.54-.01 4.12-.63 6.43-4.3 6.76-8.24 1.72-20.48-1.34-43.31 0-64.04l-2.49-8.44c2.98-2.89 15.53-2.9 12.7-9.28-1.96-4.42-11.84 2.1-15.21 1.97l-2.08-6.43Z" style="fill:#0a0c0d"/><path d="m85.45 26.55 2.08 6.43c3.37.12 13.25-6.39 15.21-1.97 2.83 6.39-9.73 6.39-12.7 9.28l2.49 8.44c-1.34 20.73 1.72 43.56 0 64.04-.33 3.94-2.64 7.62-6.76 8.24-14.05-.97-29.69 1.24-43.54.01-4.88-.43-6.88-4.8-7.24-9.26-1.66-20.18 1.28-42.6.01-63.02l2.54-8.96c-3.35-2.16-14.97-2.7-12.27-8.77 1.87-4.2 11.26 1.55 14.45 1.95 1.35-.29 1.35-6.26 3.54-6.46l42.2.06Z" style="fill:url(#a)"/><path d="M88.5 20.5c-1.33-3.45-5.89-1.53-9-2C79.04.79 49.07.27 49 18.5c-2.79.42-9.65-1.5-10 2.5-.19 2.15.78 2.82 2.74 3 13.85 1.26 29.49-.96 43.53.02 2.41-.05 4.15-1.12 3.23-3.52m-33.89-6.64c1.03-2.07 3.57-4.2 5.87-4.63 7.77-1.47 13.4 1.06 14.52 9.27H53.5c.21-1.39.5-3.41 1.11-4.64" style="fill:#b9b9ba"/><path d="M39 71.5c1.31-.02 2.67.55 4.09 1.71 4.45 1.29 5.05 1.86 5.15 6.27 1.38 2.73 2.27 5.5 2.66 8.31-3.94 11.16 3.53 13.59 12.83 10.68 10.84 2.93 17.18.39 13.31-11.96 1.73-3.74 2.86-7.6 3.39-11.56 2.67-.77 5.1-1.96 7.28-3.58l1.28.13c.83.51.5 1.91.51 2.74.18 15.94-7.63 37.21-26.78 36.28-17.81-.87-24.38-21.35-24.23-36.28 0-.84-.33-2.24.51-2.74" style="fill:#56a1ce"/><path d="m43 58 .73-.85c2.37.31 4.62.85 6.74 1.64-.61-7.81 10.42-12.8 11.12-2.8h5.02c.2-10.06 11.7-4.94 10.93 2.8 2.13-.76 4.36-1.32 6.69-1.69l.77.89c1.55.05 6.34 1.4 6.78 2.96.95 3.39-.44 8.03-2.78 10.54-2.06 2.22-5.04 3.38-7.94 4.06-.17 1.19.07 2.38-.18 3.58-.44 2.13-2.78 6.28-2.88 7.64-.08 1.18.8 2.31.95 3.51 1.04 7.82-2.5 11.03-10.16 10.16-1.71-.19-3.11-1.03-5.05-.99-1.64.04-3.04.82-4.55.99-7.35.83-11.06-2.02-10.2-9.71.15-1.39 1.07-2.81 1-3.96-.09-1.36-2.44-5.51-2.88-7.64-.25-1.19 0-2.39-.18-3.58-2.92-.67-5.86-1.85-7.94-4.06-2.45-2.59-3.75-7.05-2.78-10.55.41-1.47 5.41-2.9 6.78-2.95Z" style="fill:#0e1112"/><path d="M85 58c-2.84-.1-5.88 1.65-8.5 2.5.11-2.14.05-4.29-1.08-6.17-2.88-4.85-9.71-3.31-7.43 2.67h-8c2.28-5.98-4.54-7.53-7.43-2.67-1.12 1.89-1.19 4.04-1.08 6.17-2.59-.83-5.7-2.62-8.5-2.5 8.3-19.9 33.61-19.97 42 0Z" style="fill:#56a1ce"/><path d="M38.5 48c-1.13-1.22 4.83-14.11 5-16.63.96-1.1 2.82-1.34 3.03.39.35 2.95-4.71 11.81-5.11 15.41-.48 1.18-1.83.82-2.92.83m.93 60.57c.37.51-.35 3.72 1.06 5.69 1.91 2.68 4.5 1.09 6.03 1.97.71.41.72 1.61 0 2.03-.82.47-3.63.34-4.65.13-3.94-.82-5.52-5.56-4.86-9.14.28-1.54 1.92-1.38 2.43-.68Z" style="fill:#e5e4e4"/><path d="M75 18.5H53.5c.21-1.39.5-3.41 1.11-4.64 1.03-2.07 3.57-4.2 5.87-4.63C68.26 7.77 73.89 10.29 75 18.5M71.5 16c-1.64-6.45-12.85-6.05-15 0z" style="fill:#0a0c0d"/><path d="M89.43 62.06c.59.83-.47 4.15-.92 5.2C86.77 71.32 82.2 73.68 78 72c.98 4.36-.17 9.1-2.26 13.01-5.04-3.39-12.57-3.84-18.35-2.36-2.13.55-3.45 1.59-5.39 2.35-1.35-4.03-3.64-8.5-2.02-12.75-1.55.21-3.05.48-4.63.14-3.55-.75-6.13-4.33-6.74-7.76-.46-2.61 0-3.09 2.74-3.51s4.69-.1 7.15 1.11c1.07.53 3.64 2.79 4.23 2.79 1.19.01 2.93-3.6 4.56-4.46.79-.42 3.13-1.01 3.99-1.02.91-.01 1.7.49 2.47.49 2.32-.01 3.54-.81 6.24.21 2.19.83 4.03 4.8 5.24 4.78.59 0 4.68-3.48 7.12-3.9 1.35-.23 6.36-.06 7.07.94Z" style="fill:#e5e4e4"/><path d="M61.39 84.64c6.31-.72 16.46 1.08 15 9.49-1.09 6.28-7.71 3.01-11.61 2.85-4.41-.19-12.46 3.83-13.24-3.28-.69-6.24 4.56-8.46 9.86-9.06Z" style="fill:url(#b)"/><path d="M57.5 54c.65 3.67-.8 3.91-3.49 5.5-.16-2.29 1.11-5.02 3.49-5.5" style="fill:#aa906b"/><path d="M74 59.5c-2.7-1.59-4.14-1.83-3.49-5.5 2.39.48 3.65 3.21 3.49 5.5" style="fill:#a88f68"/><path d="M56.93 75.93c-.83 1.19-4.33.25-3.2-1.94 1.32-2.56 4.58-.04 3.2 1.94m17 0c-.26.37-2.2.86-2.7.09-.42-.64-.43-2.35.24-2.81 1.93-1.32 3.34 1.47 2.46 2.72m-3.57 12.15c1.2-.25 2.58.18 2.13 1.66-.2.67-1.51.65-1.98 1.02-.8.64-.45 2.75-2.26 2.23-2-.57-.29-4.42 2.1-4.91Zm-14.04-.04c3.02-.9 5.58 4.34 3.43 4.95-1.81.52-1.46-1.59-2.26-2.23-.27-.22-4.2-1.81-1.17-2.72" style="fill:#0e1112"/></svg>