<svg xmlns="http://www.w3.org/2000/svg" data-name="fill_forage" viewBox="0 0 128 128"><defs><linearGradient id="a" x1="-3659.68" x2="-3689.76" y1="206.35" y2="267.33" gradientTransform="matrix(.5 0 0 .5 1924 -74)" gradientUnits="userSpaceOnUse"><stop offset="0" stop-color="#698d5b"/><stop offset="1" stop-color="#487a37"/></linearGradient><linearGradient id="b" x1="-3694.2" x2="-3650.58" y1="303.77" y2="371.89" gradientTransform="matrix(.5 0 0 .5 1924 -74)" gradientUnits="userSpaceOnUse"><stop offset="0" stop-color="#dec47c"/><stop offset="1" stop-color="#faeaba"/></linearGradient><linearGradient id="c" x1="-3793.09" x2="-3772.35" y1="225.18" y2="270.67" gradientTransform="matrix(.5 0 0 .5 1924 -74)" gradientUnits="userSpaceOnUse"><stop offset="0" stop-color="#fae9b8"/><stop offset="1" stop-color="#e0c782"/></linearGradient></defs><path d="M111.31 102.19c1.85 2.22 2.52 3.43.69 6.06-5.65 8.16-8.32.98-13.2-2.73-1.66 1.46-2.14 3.63-4.05 4.98-1.11.78-2.39.89-3.27 1.73-.82.78-1.28 2.43-2.23 3.27-4.25 3.81-11.46 1.18-16.53 1.47-4.06.24-6.76 2.3-10.92.46-.63-.28-4.13-2.65-4.3-2.44-.92 1.76-.46 6.34-2.35 6.9-4.99 1.5-3.37-5.99-5.69-8.87-7.05 1.61-15.09 6.57-19.73-2.01-1.14-2.11-1.11-4.78-2.01-6.49-.68-1.31-2.61-2.26-3.55-3.2-.67-.67-1.23-2.18-1.81-2.68-1.45-1.26-5.36.01-6.89-2.36-2.57-3.98 3.23-6.42 5.49-8.61.32-1.05-3.33-7.19-3.74-9.14-1.6-7.65 4.35-8.99 6.52-14.54 1.01-2.59 1-5.33 1.48-8.02.24-1.33 1.23-3.22 1.27-4.28.1-2.49-6.81-8.41-6.3-11.21.42-2.33 5.02-5.92 7.44-5.4 2.81.61 5.47 7.59 6.89 7.22 3.23-.84 3.79-6.03 5.06-8.47 2.06-3.95 11.76-10.69 16.01-11.99 5.14-1.58 19.49-1.56 24.25 1.05 1.41.77 5.12 4.56 5.87 4.58 2.13.07 8.48-4.17 10.78-2.74.76.47 2.75 6.13 3.12 7.38.72 2.42 1.1 6.68 1.98 8.52 1.35 2.81 6.23 5.47 8.13 9.37 5.52 11.3-1.99 17.6-4.02 27.47-1.11 5.39-.78 10.97-2.23 16.27.11 1.28 6.54 6.92 7.82 8.44Z" style="fill:#0c0d0d"/><path d="M37.88 2.62c.64.64.72 4.02 1.23 5.52.88 2.58 3.2 5.26 5.74 6.26s7.48.41 7.16 3.84c-.24 2.61-3.21 1.99-4.64 2.38-3.72 1.02-6.84 2.95-8.26 6.74-.88 2.34.11 6.59-3.35 6.61-3.11.02-2.45-4.04-2.99-5.98-.67-2.45-3.35-5.27-5.65-6.35-1.8-.85-6.59-1.09-7.04-2.46-1.44-4.39 3.49-3.64 5.94-4.41s5.26-3.4 6.24-5.76.23-6.98 3.49-7.03c.56 0 1.76.27 2.15.65Z" style="fill:#0c0d0d"/><path d="M79.44 60.56c.56.39 1.75 6.51 2.87 6.89 1.99.68 7.08-2.79 8.84-4.04C97.34 59 101.48 52.86 101.5 45c2.93 2.29 5.53 4.96 6.65 8.6 2.76 9.03-3.11 14.58-4.92 22.88-1.11 5.1-.74 10.49-2.24 15.52-3.47-2.04-8.45-9.76-11.76-10.99-.7-.26-1.73-.44-2.49-.51-6.26-.58-12.72-.49-19.01-1.01-4.35-.09-4.51 9.2-1.11 10.63 6.19.95 12.54.4 18.65 1.85l10.99 10.54c.43 4.29-3.57 5.48-6.02 7.48-1.97 1.61-2.62 4.27-5.61 4.89-4.49.4-8.89-.78-13.41-.41-2.78.23-4.82 1.6-7.75.78-.77-.21-4.17-2.14-3.98-3.01.11-.51 2.83-2.23 3.5-2.51 2.46-1.01 8.11-.29 6.91-4.4-.7-2.4-4.74-1.76-6.91-2.61s-4.31-3.08-5.26-5.24-.91-7.83-3.97-7.53c-2.71.26-2.29 4.84-3.18 6.87-1.42 3.24-4.2 5.48-7.56 6.44-1.64.47-4.27-.24-4.94 2.07-1.45 4.97 6.7 2.57 8.41 5.64-5.36 1.78-11.74 4.89-14.75-1.99-.84-1.93-.87-4.47-1.82-6.18-1.02-1.85-3.44-2.44-4.43-4.31 10.92-.51 16.57-9.68 14.78-20.03-3.21-7.18-14.39 7.52-16.52 7.03-1.46-2.29-4.42-6.91-4.16-9.64.37-3.79 5.41-7.13 6.79-10.72 1.3-3.36 1.12-7.63 2.11-11.14l9 12.24c2.86 1.48 8.67-2.61 8.54-5.48-.15-3.3-8.61-11.83-10.06-15.53.7-1.51 2.38-1.92 3.44-3.57 1.51-2.34 1.85-5.57 3.58-7.92 2.24-3.05 11.16-8.69 14.88-9.62 4.13-1.03 6.47-.3 10.34-.11 5.55.27 10.99-.61 14.27 5.21-9.67 5.85-14.5 13.3-13.44 24.96.1 1.14 1.36 7.7 1.91 8.1 1.41 1.04 6.93-2.83 8.48-1.73Z" style="fill:#876842"/><path d="M94.95 27.54c7 14.77 5.26 30.69-11.45 36.97-.06-1.06-2.17-6.64-2.58-6.92-1.6-1.13-7.89 2.17-8.42 1.42-.51-4.74-1.41-8.77-.28-13.53 2.42-10.12 13.3-15.95 22.73-17.94" style="fill:url(#a)"/><path d="M105.67 100.83c.96.99 4.85 3.57 4.85 4.92 0 .93-2.92 3.91-4.17 3.18L86.48 89.27c-2.55-1.34-18.54-.79-19.43-1.82-1.32-7.22 2.04-5.43 8.9-4.95 3.41.24 10.14-.04 13.04 1.25 1.7.75 8.62 9.02 10.55 10.95 2.05 2.05 4.12 4.05 6.12 6.13Z" style="fill:url(#b)"/><path d="M35.82 90.34c-.49.77-2.88 2.96-3.75 3.48-4.21 2.52-9.92 1.86-14.57 1.17l.33-1.52L36.8 79.04c.53-.17.98.33 1.12.78.73 2.4-.74 8.35-2.1 10.51Z" style="fill:#558146"/><path d="M33.69 47.32c.51.71 1.55 1.56 2.22 2.53 2.39 3.46 4.81 6.92 7.05 10.48.24 1.07-3.95 3.47-5.49 1.83L23.22 41.53c-1.1-1.51 3.07-3.95 4.28-3.3.38.2 4.41 5.92 5.13 6.9.53.73.64 1.61 1.06 2.19" style="fill:url(#c)"/><path d="M54.5 95.5c.35 4 3.3 7.21 6.66 9.09l4.34 1.9c-3.43.22-6.92 2.55-8.91 5.34-1.08 1.52-1.25 2.55-1.97 4.03-1 2.06-1.11-.38-1.51-1.2-1.54-3.2-3.65-5.49-6.77-7.25L42.5 106c6.2-.95 8.86-4.34 10.95-9.8.26-.67-.21-.87 1.04-.7Zm-8-78c.16 1.35-.06.78-.74 1-5.76 1.81-8.48 5.22-10.01 11-.85-4.63-2.91-7.7-6.98-10.02-1.3-.74-3.09-.7-3.77-1.98 5.38-.65 9.54-5.43 10.75-10.51 1.7 5.23 5.08 9.57 10.75 10.51" style="fill:#f8f2bf"/><path d="M42.5 48c-.82-5.28 4.54-4.74 7.25-6.99 1.9-1.57 2.72-4.71 4.77-6.23 1.58-1.17 8.38-3.09 8.97-1.02.69 2.43-3.25 1.58-4.64 1.86-4.12.82-4.88 5.64-7.38 7.62-1.49 1.18-4.02 1.36-5.47 2.53-1.27 1.03-1.18 2.79-3.51 2.23Zm55.32 15.06c.59-.16 1.09-.14 1.45.42 1.38 2.17-2.89 4.52-3.18 6.37-.18 1.17.75 2.71.87 3.96.16 1.71-.78 7.34-3.2 6.69-1.8-.48.75-4.26.75-5.74 0-1.95-1.41-3.63-.92-5.9.16-.71 3.67-5.64 4.23-5.8" style="fill:#4b361f"/><path d="M94.25 35c.93-.26 1.22.12 1.65.84.87 1.45 1.68 6.62 1.63 8.41-.05 1.59-1.71 9.66-3.72 9.22-2.41-.53-.37-2.94-.07-3.98.81-2.76 1.04-5.85.76-8.74-.13-1.29-1.86-5.29-.24-5.75Z" style="fill:#83b474"/><path d="M86.3 41.52c.75-.15 2 1.21 1.5 1.98-1.96 2.8-2.94 8.15-4.87 10.68-1.13 1.48-2.54.95-2.35-.81.1-.91 2.73-6.92 3.33-8.21.34-.73 1.78-3.52 2.39-3.64" style="fill:#395b2e"/></svg>