<svg xmlns="http://www.w3.org/2000/svg" data-name="fill_silageadditive" viewBox="0 0 128 128"><defs><linearGradient id="a" x1="-998.71" x2="-1116.7" y1="181.3" y2="182.31" gradientTransform="matrix(.5 0 0 .5 592 -74)" gradientUnits="userSpaceOnUse"><stop offset="0" stop-color="#376f37"/><stop offset="1" stop-color="#5c925a"/></linearGradient><linearGradient id="b" x1="-1131.25" x2="-982.25" y1="306.38" y2="306.62" gradientTransform="matrix(.5 0 0 .5 592 -74)" gradientUnits="userSpaceOnUse"><stop offset="0" stop-color="#a3cb89"/><stop offset="1" stop-color="#86b468"/></linearGradient></defs><path d="M93 15.5c.93.05 4.18-.64 4.4 1.35.12 1.01.29 8.83 0 9.81-.13.43-.49.9-.9 1.1-1.04.51-2.76-.26-3 .74 5.71 1.8 9.36 8.6 9.94 14.31.29 2.87-1.05 7.22 1.59 8.53.29 18.86.23 35.92.5 53.93.45 1.61-1.9 2.01-2.04 2.57-.38 1.57.23 4.44-.03 6.37-.55 4.12-4.16 7.56-8.2 8.3H33.23c-4.23 0-8.16-4.31-8.69-8.3-.45-3.43.9-5.58-2.03-8.47-.38-17.14.12-35.84-.01-52.5-.03-3.72 1.64-2.18 1.93-3.05.49-1.47-.08-5.04.08-6.93.55-6.43 4.4-11.39 9.49-15.01-1.22-.48-2.91.07-3.4-1.6-.31-1.06.1-9.24.15-10.16.07-1.35 3.83-.95 4.26-.99-.09-.67-.14-9.84 1.49-9.76l54.25-.24c3.16-.27 2.19 9.1 2.26 9.99Z" style="fill:#090c0d"/><path d="M101 50.5H27v-7.25c0-6.88 7.42-13.57 13.97-14.53 13.64-1.99 30.76 1.02 44.77-.22 11.52 1.3 16.38 11.24 15.25 22Z" style="fill:#d4d5d5"/><path d="M57 8.5h33V18h4.5c.48 1.06.38 6.98.02 7.25L33 25v-7h5V8.5c6.33 0 12.67.01 19 0" style="fill:url(#a)"/><path d="M101 108c.34 5.96-.14 11.44-7.23 12.02l-60.48-.06c-6.25-1-6.64-6.67-6.29-11.96z" style="fill:#d4d5d5"/><path d="M25 53h78v52.5H25z" style="fill:#95bf79"/><path d="M29.5 47c-.48-5.24.8-9.92 4.99-13.26 1.16-.93 2.89-2.5 4.52-1.51 1.88 1.14-2.23 2.81-2.77 3.26-1.88 1.58-3.72 3.89-4.13 6.37-.41 2.5 1.01 5.68-2.61 5.14M40.25 9.5c2.79-.8 1.98 7.71.99 7.99-2.79.8-1.98-7.71-.99-7.99M37 115.5c.36 4.94-5.84 1.82-7.43-.82-2.31-3.85.48-6.26 1.8-3.29.43.98.14 1.87 1.15 2.85s3.09 1.41 4.48 1.27Z" style="fill:#fcfdfb"/><path d="M25.5 53.5h77V105h-77z" style="fill:url(#b)"/><path d="M64.51 100.5c-.09-.06-.49-1.77-.47-2.19.46-12.02 4.54-26.76 12.71-35.82.86-.95 4.36-4.31 5.26-4.74 1.26-.6 2.2-.43 2.49 1.01 2.41 12.05-6.18 28.12-14 36.98-.85.97-4.89 5.51-5.98 4.76Zm-5.55-7.54c-1.41.94-3.55-2.12-4.45-3.22-4.67-5.7-8.87-15.52-7.51-22.99.58-3.19 4.18.55 5.26 1.74 2.31 2.56 4.37 6.81 5.38 10.12.65 2.13 2.83 13.34 1.32 14.35" style="fill:#090c0d"/><path d="M30 74c.63 6.23.63 12.78 0 19-1.02.8-2.36.72-2.5-.75.48-5.38-.64-11.78-.02-17.02.2-1.73 1.09-2.35 2.52-1.23m0-17c.55 4.25.54 8.75 0 13-.81.63-2.06.8-2.43-.33-.21-.66-.29-11.56-.1-12.35.17-.71 1.86-.85 2.52-.33Z" style="fill:#fcfdfb"/></svg>