<svg xmlns="http://www.w3.org/2000/svg" data-name="fill_horse" viewBox="0 0 128 128"><path d="M86.02 93.17c3.47 7.64 2.44 17.47-6.25 21.71 1.44 16.73-32.89 16.46-31.46.15-9.11-4.81-9.67-14.4-6.46-21.6-1.38-5.06-1.49-9.27-4.42-13.1-12.08-12.02-3.85-27.96-2.89-43.2-13.47-22.62 8.04-57 22.79-19.4 4.53.52 8.66 1 12.96 1.49C71.94 11.35 77.08 4.23 84.65.98c2.76-.96 5.65.19 7.39 2.86 7.41 11.08 7.43 22.7.93 34.26 2.54 13.07 8.9 30.36-1.72 41.25-4.05 3.76-3.08 8.78-5.22 13.82Z" style="fill:#4a3726;stroke-width:0"/><path d="M86.1 7.33c5.32 5.06 8.26 18.98-.16 29.38 2.15 11.46 7.44 25.96 1.93 36.63-3.58 3.9-6.74 7.88-6.36 13.52-11.67-3.4-23.04-3.26-34.74-.19-.62-4.25-1.59-8.57-5.09-11.46-8.92-9.69-2-26.65.63-38.05-6.8-8.22-7.93-21.07-.8-29.9 8.45 4.55 13 15.5 9.07 24.61-3.01 5.61-.81 12.23-1.24 18.35.23.05.45.11.68.16.7-.81 1.4-1.63 1.97-2.29 2.58 5.36 5.14 10.66 7.69 15.96.31-.08.61-.15.92-.23.52-4.02 1.05-8.03 1.66-12.73 1.1 1.72 1.78 2.79 2.79 4.39 1.42-4.66 2.9-8.45 5.87-12.02 12.66-11.19-3.38-24.21 15.17-36.13Z" style="fill:#7b5b3b;stroke-width:0"/><path d="M64.04 90.69c7.1-.49 16.92-.29 17.08 9.09 1.68 14.53-20.97 13.99-30.04 9.22-4.18-2.19-5.36-5.47-4.11-11.1 1.75-8.14 10.61-7.42 17.07-7.21" style="fill:#d5b5ad;stroke-width:0"/><path d="M64.25 42.11c-.22-1.34-.35-2.14-.62-3.71-2.3 2.69-3.88 3.87-4.11 7.34-.8.08-1.49.15-2.24.22-1.92-3.47.07-6.6.61-9.78-.19-.11-.38-.22-.57-.32-.68.64-1.35 1.29-2.24 2.14-1.4-1.85.27-3.09.75-4.54.59-3.61 1.7-6.61 4.63-8.99h2.61c.51.47 1.05.97 1.51 1.4 12.36-1.81 6.93 13.67-.34 16.24Z" style="fill:#674f47;stroke-width:0"/><path d="M72.85 117.51c-3.22 4.16-14.78 4.12-17.67 0z" style="fill:#d5b5ad;stroke-width:0"/><path d="M47.54 64.52c-5.49.22-5.06-8.12-.19-8.47 5.38.35 6.19 8.04.19 8.47m32.83 0c-5.78-.25-5.29-8.55.22-8.47 4.99.34 5.19 8.53-.22 8.47m-5.39 29.5c3.91 2.15 3.85 8.08 1.41 11.69-2.39 4.07-8.57-.86-5.18-3.98 2.07-1.67 3.12-3.54 2.87-6.21-.04-.47.59-1 .9-1.5m-22.19-.28c1.87 2.68.52 5.46 3.42 7.53 1.89 1.69 1.41 5.54-1.47 5.79-6.11-.97-6.18-9.7-1.95-13.32" style="fill:#4a3726;stroke-width:0"/></svg>