<svg xmlns="http://www.w3.org/2000/svg" data-name="fill_roundbalesilage" viewBox="0 0 128 128"><path d="M19.17 27.67c1.71-1.83 8.99-7.58 11.19-8.06 2.47-.53 2.85-.64 5.11-1.39 2.78-.92 4.52 1.27 7.28 1.32 11.74.23 23.71-.93 35.5-.54 7.02.23 14.94-.48 21.76 1.24 3.45.87 7.47 2.47 9.7 5.3 1.68 2.13 6.07 7.52 6.89 9.61 1.13 2.88 1.91 5.36 3.16 8.34 1.52 3.64.84 5.26 1.29 8.71.2 1.53 1.21 3.04 1.42 4.58.23 1.7.23 12.14.04 13.97s-1.24 3.36-1.46 5.03c-.9 6.87-1.92 10.22-4.3 16.7-.63 1.73-7.82 11.23-9.27 12.23-3.64 2.51-10.33 4.46-14.72 4.28-11.44-.48-23.07-.32-34.5 0-3.65.1-7.14-.65-10.52-.52-2.79.11-9.28 1.95-11.25 1.3-2.89-.95-3-.89-6.11-1.4-2.14-.35-9.36-6.13-11.11-7.89-.5-.5-6.48-11.31-6.78-12.22-1-3.02-1.88-7.31-2.83-10.67C9.21 76 8.41 65.2 8.5 63.21c.09-2.19 1.03-4.04 1.06-5.98.03-1.75-.65-2.92-.42-4.86.26-2.22 1.72-4.24 2.25-6.27.56-2.16.41-4.55 1.23-6.77.33-.9 6.11-11.19 6.57-11.68Z" style="fill:#0a0c0c"/><path d="M109.19 30.32c.98 1.42 3.36 3 4.24 4.5.3.52 4.21 10.54 4.36 11.14.39 1.64 2.17 10.94 2.24 12.3.11 2.12-.62 4.92-.55 7.51.14 5.28-.72 10.53-1.6 15.86-.35 2.13-1.93 3.49-2.62 5.38-.91 2.47-.52 4.37-2.26 6.74-.94 1.28-3.17 2.89-4 4.1-.7 1.03-.79 2.68-2 3.9-.95.95-9.87 4.66-11.26 4.76-2.48.18-4.73-1.05-6.99-1.05-1.92 0-3.8 1-5.98 1.06-2.67.08-5.24-.95-7.57-.98-1.81-.02-3.87.96-5.94.99-2.43.03-4.91-1.04-7.01-1.04-1.74 0-4.08.95-5.98 1.03-3.8.15-6.99-1.83-10.77-.53 1.45-2.69 4.86-3.91 6.72-6.02.56-.64 5.52-9.76 6.03-10.97.55-1.3 3.53-11.92 3.71-13.29.27-2.08-.46-3.36-.46-4.96s.91-3.5 1.02-5.48c.19-3.27-1.03-5.66-1.02-8.02.02-6.67-.24-5.3-1.77-11.22-.48-1.87-.4-4.26-.96-6.04-.22-.69-6.09-11.45-6.54-11.96-1.86-2.11-5.27-3.33-6.72-6.02 3.48-1.63 7.04.53 10.25.53 2.41 0 4.71-1.2 7.51-1.06 2.07.1 3.88 1.11 5.98 1.06s4.03-1.11 6.51-1.07c2.25.04 4.44 1.07 6.49 1.07 1.77 0 3.72-.91 5.5-1.03 4-.28 13.76 1.7 17.43 3.56 2.97 1.5 2.43 3 4 5.26Z" style="fill:#6d5547"/><path d="M29.87 22.62c1.41-.37 10.3-.33 11.66.1 2.27 2.44 6.43 4.73 8.49 7.01.41.45 5.58 9.82 5.87 10.63.8 2.2.6 4.54 1.24 6.76 3.95 13.71 2.8 26.09-.98 39.8-.63 2.29-2.28 3.41-3.26 5.24-.92 1.71-1.18 3.97-2.39 5.61-.32.43-7.45 6.61-8.03 6.97-.61.38-1 .63-1.75.75-1.9.3-9.56.43-11.24-.21s-3.36-3.04-4.75-4.25c-1.05-.93-2.55-1.44-3.51-2.49-.44-.47-6-10.54-6.25-11.25-.66-1.89-.48-3.92-1.01-5.99-.42-1.65-1.71-3.54-1.94-5.06-.28-1.84-1.11-10.79-1.04-12.45.11-2.78.64-9.36 1.04-12 .23-1.52 1.52-3.41 1.94-5.06.5-1.96.35-3.87.87-5.63.87-2.93 5.25-7.79 6.16-11.34 2.59-1.1 6.7-6.55 8.88-7.12Z" style="fill:#6d5547"/><path d="M33 64.5c.33-2.69-.27-7.51-2.24-9.51-.84-.85-3.49-.65-4.43-.03-.27.18-2.62 5.42-2.72 5.9-.93 4.58-.44 14.97 1.69 19.1.63 1.22 4.35 5.34 5.52 5.98 4.21 2.31 9.51-1.98 11.07-5.8 2.45-5.97 2.5-9.05 2.61-15.39.11-5.82.08-8.26-1.65-13.85-2.06-6.63-3.33-8.79-9.09-12.91-1.32-.95-2.73-.41-2.26-2.99 2.7-.71 3.02.8 4.53 1.72 1.84 1.12 3.29 1.4 4.69 3.31 8.15 11.07 9 29.78 3.3 42.23-2.15 4.7-8.92 8.66-13.85 6.32-2.32-1.1-6.44-5.66-7.53-7.97-.87-1.84-2.46-9.76-2.6-11.94-.05-.77.9-8.61 1.08-9.31.08-.29 2.4-4.98 2.65-5.35 1.18-1.74 4.42-2.76 6.44-2.51 3.83.47 5.72 7.98 5.32 11.27-.22 1.84-.67 1.83-2.52 1.73Z" style="fill:#0a0c0c"/></svg>