<svg xmlns="http://www.w3.org/2000/svg" viewBox="0 0 128 128"><path d="M41.76 124.8c-.4-.09-.8-.18-1.2-.28-4.15-1.05-7.09-4.73-7.35-9.01-.29-4.79-.67-9.58-1.02-14.37l-.87-12.3-.9-12.6L29.55 64c-.34-4.79-.69-9.58-1.03-14.37-.22-3.1-.45-6.19-.64-9.29-.04-.67-.19-1.08-.9-1.41-3.5-1.62-5.32-4.42-5.42-8.27-.06-2.21-.05-4.43.03-6.64.14-3.62 2.61-6.86 6.05-8.02.43-.15.63-.36.73-.8.28-1.23.59-2.46.92-3.68 1.26-4.76 5.74-8.21 10.66-8.21h48.16c5.11 0 9.59 3.51 10.83 8.47.3 1.19.57 2.38.9 3.56.06.23.31.5.53.58 3.74 1.34 6.12 4.58 6.19 8.55.04 2.13.08 4.27-.01 6.4-.16 3.91-2.14 6.64-5.7 8.21-.42.18-.55.4-.58.82-.56 8.02-1.12 16.05-1.69 24.07-.57 8-1.16 16.01-1.73 24.01-.46 6.37-.9 12.74-1.35 19.1-.22 3.04-.41 6.07-.68 9.1-.38 4.2-3.81 7.81-7.99 8.48-.15.02-.3.08-.44.12H41.78Zm-3.51-24.35h51.62c1.15-16.17 2.31-32.31 3.46-48.48H34.79c1.16 16.18 2.31 32.31 3.46 48.48m25.82-66.76h33.21c1.93 0 3.21-1.25 3.22-3.17.02-2 .02-3.99 0-5.99-.01-1.39-.9-2.52-2.23-2.86-.39-.1-.82-.11-1.23-.11h-66.3c-1.87.04-3.1 1.29-3.1 3.16v5.81c0 .27.01.56.08.82.36 1.48 1.55 2.34 3.21 2.34h33.15Zm25.35 72.91h-50.7c0 .2-.01.38 0 .55.18 2.58.39 5.16.55 7.75.15 2.47 1.56 3.84 4.03 3.84h41.46c2.56 0 3.95-1.33 4.1-3.89.09-1.52.22-3.04.32-4.55.09-1.22.16-2.43.25-3.69Zm4.78-66.8H33.92c.12 1.76.25 3.47.36 5.18.06.85.04.85.91.85h57.34q1.24 0 1.33-1.21c.01-.16.03-.31.04-.47.1-1.44.2-2.87.3-4.35m-.64-24.37c-.19-.74-.35-1.41-.52-2.08-.61-2.42-2.6-3.97-5.09-3.97h-47.8c-.3 0-.6 0-.89.05-2.69.43-4.67 3.01-4.62 6h58.91Z" style="fill:#4a3726;stroke-width:0"/><path d="M93.34 51.98c-1.16 16.16-2.31 32.3-3.46 48.47H38.25c-1.15-16.17-2.3-32.29-3.46-48.47z" style="fill:#aecace;stroke-width:0"/><path d="M64.07 33.69H30.92c-1.66 0-2.85-.86-3.21-2.34a3.8 3.8 0 0 1-.08-.82c0-1.94-.01-3.87 0-5.81 0-1.87 1.24-3.12 3.1-3.16h66.3c.41 0 .84 0 1.23.11 1.33.34 2.22 1.47 2.23 2.86.02 2 .02 3.99 0 5.99-.02 1.93-1.29 3.17-3.22 3.17H64.06Zm25.35 72.91c-.08 1.25-.16 2.47-.25 3.69-.11 1.52-.23 3.03-.32 4.55-.15 2.56-1.54 3.89-4.1 3.89H43.29c-2.47 0-3.88-1.36-4.03-3.84-.16-2.58-.36-5.17-.55-7.75-.01-.17 0-.35 0-.55h50.7Zm4.78-66.8c-.1 1.48-.2 2.92-.3 4.35-.01.16-.03.31-.04.47q-.08 1.21-1.33 1.21H35.19c-.86 0-.85 0-.91-.85-.11-1.71-.24-3.43-.36-5.18zm-.64-24.37H34.65c-.06-2.99 1.93-5.57 4.62-6 .29-.05.59-.05.89-.05h47.8c2.49 0 4.47 1.55 5.09 3.97.17.67.33 1.34.52 2.08Z" style="fill:#d6d6d5;stroke-width:0"/><path d="M57.29 66.69c-1.12-.56-2.05-.96-2.93-1.47-2.2-1.28-3.19-3.97-.99-6.09.79-.77 1.29-1.57 1.35-2.79.13-2.53 3.23-4.63 5.7-3.35 1.07.55 2.03 1.32 3.22 2.11 1.07-.23 2.15.38 3.11 1.15 1.1.88 1.37 2.17 1.05 3.46-.29 1.15-.87 2.22-1.54 3.87.28.16.76.48 1.26.73 2.51 1.25 4.24 3.23 5.11 5.84.51 1.53.83 3.2.87 4.81.04 2.16.24 4.25.87 6.33.39 1.31.41 2.72.6 4.09.27 1.98.46 3.96.81 5.92.55 3.12-.73 5.44-3.99 5.65-1.65.11-2.97-1.09-3.87-2.48-1.24-1.92-2.34-3.92-3.55-5.85-2.31-3.67-4.7-7.29-6.97-10.98-.5-.81-.86-1.83-.91-2.77-.1-1.93 0-3.87.13-5.79.05-.72.41-1.42.7-2.39Z" style="fill:#4a3726;stroke-width:0"/><path d="M58.85 67.95c.77.1 1.43.08 2 .29 1.66.61 2.63.34 3.61-1.14.3-.45.61-.88.93-1.36 1.63.23 2.84 1.05 3.74 2.18 1.57 1.97 2.28 4.29 2.54 6.82.35 3.3.94 6.57 1.41 9.86.37 2.59.78 5.17 1.05 7.77.11 1.11-.47 2.07-1.48 2.61-1 .54-1.87.06-2.5-.71-.66-.81-1.21-1.72-1.78-2.61-2.84-4.46-5.62-8.94-8.5-13.37-2.07-3.18-2.1-6.51-1.02-10.34" style="fill:#dd6534;stroke-width:0"/><path d="M53.89 61.94c.31-1.66.94-1.96 3.43-2.38-.21-.44-.37-.84-.59-1.22-.54-.91-.49-1.8.11-2.64.63-.88 1.53-1.23 2.58-.97 1.02.26 1.75.86 1.88 1.99.05.41.15.82.26 1.36.36-.21.63-.3.79-.48.71-.79 1.47-1.16 2.47-.51 1.04.67 1.42 1.62.98 2.84-.39 1.06-.88 2.09-1.37 3.11-.43.88-.92 1.72-1.39 2.57-.5.9-1.28.99-2.12.61-1.92-.88-3.85-1.75-5.7-2.76-.58-.31-1.42-.84-1.33-1.53Z" style="fill:#7fa95f;stroke-width:0"/></svg>