<svg xmlns="http://www.w3.org/2000/svg" data-name="fill_seedtreatingliquid" viewBox="0 0 128 128"><defs><linearGradient id="a" x1="-1352.26" x2="-1352.23" y1="-484.05" y2="-399.05" gradientTransform="matrix(.5 0 0 .5 740 296)" gradientUnits="userSpaceOnUse"><stop offset="0" stop-color="#7ba258"/><stop offset="1" stop-color="#386c2b"/></linearGradient><linearGradient id="b" x1="-1352.01" x2="-1352" y1="-575.04" y2="-549.04" gradientTransform="matrix(.5 0 0 .5 740 296)" gradientUnits="userSpaceOnUse"><stop offset="0" stop-color="#779f56"/><stop offset="1" stop-color="#407331"/></linearGradient><linearGradient id="c" x1="-1389.35" x2="-1363.86" y1="-472.44" y2="-440.33" gradientTransform="matrix(.5 0 0 .5 740 296)" gradientUnits="userSpaceOnUse"><stop offset="0" stop-color="#b4c838"/><stop offset="1" stop-color="#8cae42"/></linearGradient></defs><path d="M96.5 98.5c-.15 12.2 1.12 21.6-13.74 24.51-12.01-.74-25.15.97-37.02.01-4.6-.37-9.27-2.77-11.95-6.55-3.46-4.88-2.05-10.63-2.26-16.24-.62-16.71-1.97-38.47.1-54.85 1.25-9.91 9.95-19.03 19.29-21.95.58-.83-.3-13.56.11-16.15.25-1.62 1.06-2.62 2.7-2.8 4.5-.5 16.05-.5 20.55 0 3.37.37 2.03 2.54 2.19 4.27.11 1.2.51 2.3.56 3.49.16 3.72-.23 7.48.06 11.2 10.32 3.37 18.61 12.78 19.4 23.8.12 1.75-.02 3.53.02 5.28.35 15.33.19 30.67 0 46Z" style="fill:#0a0d0d"/><path d="M96.5 98.5c.18-15.16.36-30.86 0-46z" style="fill:#919191"/><path d="M33.84 77.21c-.44-7.83.25-16.28.66-24.21 19.09-.44 39.73-.44 59 0 .45 2.44.44 18.45.5 24 .17 7.05 0 14.05-.5 21h-59c-.43-6.71-1.08-14.15-.66-20.79" style="fill:url(#a)"/><path d="M94 50H34c-.44-9.99 9-23.16 19.23-24.02 4.6-.39 20.66-.57 24.41.64C87.07 29.64 93.97 40.23 94 50.01Z" style="fill:#e4deca"/><path d="M94 100.5v9.75c0 .46-1.08 2.95-1.41 3.59-2.62 5.08-6.95 6.35-12.32 6.68-9.44.59-23.64.66-33.04 0-5.34-.37-9.9-2.15-12.17-7.33-.2-.46-1.05-2.74-1.05-2.95v-9.75h60Z" style="fill:#cdc3ac"/><path d="M74 7.5c-.56 4.67.76 11.06 0 15.5-6.67.48-13.34.48-20 0-.76-4.43.56-10.83 0-15.5 6.56-.45 13.43-.45 20 0" style="fill:url(#b)"/><path d="M74 7.5H54c.51-.83 1.9-.5 2.74-.51 4.83-.05 9.68-.06 14.51 0 .84 0 2.24-.33 2.74.51Z" style="fill:#6b924d"/><path d="M74 23c-.09.52-.26.46-.73.51-5.78.72-13.05-.53-19-.05-.3-.06-.24-.24-.28-.46h20Z" style="fill:#4e7d39"/><path d="M63 93.5c.73-.69-2.3-10.25-2.55-11.95-8.35.29-13.22.14-16.55-8.21-1.47-3.7-1.76-7.62-1.4-11.59.13-1.49 1.13-7.15 2.75-7.28 3.36-.27 13.05 5.96 15.52 8.5 3.31 3.4 4.94 6.25 4.11 11.15-.34 2.01-2.29 3.8-2.38 5.15-.14 2.11 2.35 5.34 2 7.72.91.2.98-.27 1.41-.83.31-.4 2.44-3.81 2.5-4.04.25-1.04-.42-2.19-.44-3.35-.05-3.06-.36-4.03 1.54-6.51 3.94-5.13 12.23-7.47 18.27-5.3 1.31 9.19-3.05 20.01-14 18.49-1.21-.17-2.8-1.35-3.78-.73-1.83 2.69-3.96 5.24-3.5 8.77h8.25c2.04 0 1.87 3 .5 3h-23c-1.32 0-.48-3 .5-3H63Z" style="fill:#0a0d0d"/><path d="M55.44 30.95c-.1.15-2.6 1.07-3.27 1.47-4.13 2.43-6.9 5.54-10.12 8.88-3.44.01-.41-3.5.7-4.81 1.51-1.78 10.11-8.36 12-7.99.68.13 1.07 1.91.7 2.45Zm-.39-22.1c.33-.59.88-.39 1.24.11 1.01 1.52 1.02 3.68 1.01 5.63-.04 2.15-.52 4.86-2.14 4.14-.72-.87-.3-2.28-.43-3.62.01-1.84-.29-4.66.26-6.15z" style="fill:#fdfcfb"/><path d="M59.17 65.83c.37.41 1.05.55 1.55 1.19 2.38 3 2.62 6.82-.22 9.48-.79-2.23-2.52-4.85-4.01-6.74-.86-1.09-6.55-7.81-6.01-3.02.17 1.51 8.68 8.88 8.01 12.26-12.83 1.89-15.16-11.87-12.5-21.5.55-.7 9.7 4.63 10.75 5.5 1.1.92 1.58 1.91 2.42 2.83Z" style="fill:url(#c)"/><path d="M85.5 69c-.19 7.82-3.68 16.18-13 13.5-.55-.42 1.36-2.16 1.74-2.51 1.63-1.53 3.83-2.7 5.45-4.05 1.69-1.42.6-2.83-1.32-2.34-.68.18-3.32 2.29-4.1 2.92-.58.47-3.19 3.61-3.76 2.99-1.09-8.44 8.12-11.31 15-10.5Z" style="fill:#9ab73d"/></svg>