<svg xmlns="http://www.w3.org/2000/svg" data-name="fill_mineralfeed" viewBox="0 0 128 128"><defs><linearGradient id="a" x1="-761.3" x2="-760.24" y1="-576.64" y2="-366.64" gradientTransform="matrix(.5 0 0 .5 444 296)" gradientUnits="userSpaceOnUse"><stop offset="0" stop-color="#d8d8d8"/><stop offset="1" stop-color="#c2c2c2"/></linearGradient></defs><path d="M55.9 4.15c11.25-.88 23.63.06 34.23 3.98 13.65 5.04 27.59 15.6 23.23 31.98-.35 1.31-1.8 3.59-1.82 4.63-.01.96 1.23 4.08 1.52 5.49 3.37 16.28 4.16 33.28-.34 49.52 5.5 7.71 4.42 17.58-6.97 16.74-3.16-.23-7.64-2.49-9.99-2.5-1.33 0-3.13.76-4.57.95-15.52 1.96-28.74 3.18-44.44 1.56-4.18-.43-11.49-2.48-15.01-2.42-1.89.03-6.46 1.99-9.12 2.29-8.31.91-12.62-3.68-9.85-11.85.38-1.13 1.42-2.32 1.64-3.38.46-2.21-1.36-7.38-1.76-10.02-1.78-11.75-1.56-23.5.51-35.2.56-3.14 2.76-9.24 2.82-11.71.04-1.39-1.08-2.56-1.45-3.97-6-23.01 23.15-34.67 41.37-36.09" style="fill:#0a0c0c"/><path d="M60.39 6.64c16.46-.86 49.39 6 51.05 26.67.4 4.99-2.99 8.93-2.92 11.38.09 3.26 2.84 9.81 3.44 13.6 1.6 10.18 1.7 23.2-.09 33.32-.52 2.95-1.29 5.89-2.26 8.73 1.22 2.62 3.09 3.75 3.4 6.9.68 7.07-4.06 7.03-9.53 6.03-1.89-.34-6.1-2.19-7.2-2.21-1.55-.04-4.74 1.09-6.6 1.37-16.71 2.46-32.06 2.74-48.86.51-2.26-.3-7.87-1.97-9.5-1.79-1.4.15-4.75 1.76-6.79 2.13-6.09 1.11-10.73.81-9.41-6.91.34-2 1.91-3.44 2.27-4.74.55-1.97-1.95-10.11-2.33-12.94-1.74-12.89-.73-25.65 2.08-38.29.39-1.73 1.77-4.73 1.84-6.19.07-1.35-2.24-5.42-2.49-7.95-1.94-20.59 28.16-28.8 43.9-29.62" style="fill:url(#a)"/><path d="M87.07 17.92c.12.19 2.59.94 3.09.93 2.92-.08 6.41-2.85 9.32-.08.8.77 1.9 4.83 2 6.05.09 1.14-.41 2.1-.34 2.87.11 1.13 1.65 3.01 1.87 5.06.39 3.73-.41 6.44-2.59 9.42-1.29 1.77-3.8 3.22-4.63 4.37-.54.74-.48 1.83-1.27 2.73-1.09 1.26-5.1 3.3-6.76 3.28-1.2-.01-2.32-.67-3.46-.55-1.43.15-4.42 1.53-6.17 1.87-2.17.42-4.57.42-6.65.85s-5.56 2.26-7.24 2.22c-1.42-.04-3.22-1.7-4.5-1.92s-5.05-.54-6.48-.57c-1.99-.04-3.84.92-5.98.52-1.5-.28-3.83-2.44-5.32-3.18-2.08-1.03-4.6-1.61-6.58-2.81-.99-.6-2.48-2.51-4-3.1-2.47-.96-4.13.28-5.62-2.88-1.57-3.33-1.27-7.99-.52-11.54.27-1.3 2.27-4.26 2.21-4.63-.24-1.54-3.01-2.47-2.41-6.06.38-2.3 5.54-5.4 7.72-5.32 3.17.12 3.39 3.5 5 3.53 1.46.03 2.29-1.63 3.3-2.21 1.75-1.01 16.83-4.44 18.36-3.96 1.25.39 2.16 1.6 3.79 1.21 1.02-.24.49-6.26 6.07-6.07 1.5.05 14.25 4.42 15.7 5.33 2.58 1.63 1.52 3.74 2.11 4.64Z" style="fill:#0a0c0c"/><path d="M45.25 92.5c-1.27-.27-3.01-2.42-3.22-3.78-.33-2.13-.27-10.11.59-11.86 1.86-3.79 8.89-1.94 12.39-2.36.69-3.45-1.93-11.25 2.48-12.26 2-.46 11.23-.58 12.89.13 3.62 1.55 1.63 8.91 2.12 12.13 3.15.26 9.83-.94 12.02 1.73 1.29 1.57 1.3 10.28.95 12.49-.19 1.22-2.16 3.78-3.22 3.78H72.5v9.75c0 1.63-2.79 2.66-4.23 2.77-2.26.18-8.42.31-10.42-.13-.93-.21-2.85-1.83-2.85-2.65v-9.75c-2.83-.41-7.13.56-9.75 0Z" style="fill:#647321"/><path d="M21.5 88c-.93.02-2.1.22-2.43-.82-1.4-10.25-1.75-21.24 1.07-31.29.23-.81.59-2.44.95-3.05.98-1.64 2.49-.91 2.4.85-.08 1.51-1.48 5.15-1.84 7.21-.97 5.52-1.48 11.22-1.15 16.84.09 1.6 1.59 9.58 1 10.25Z" style="fill:#fcfcfc"/><path d="M69.5 45c1.75-.65 6.53-3.08 8.03-2.79s3.82 6.21 1.33 6.9c-4.16 1.03-8.41 3.46-12.45 4.54-.84.23-2.95.8-3.46.05-.35-.5-1.57-4.27-1.47-4.94.15-1.11 1.12-1.39 2.03-1.76l6-2ZM59.44 15.56c.65 1.97 1.25 4 1.09 6.11l-.31.38c-3.86.33-12.56 4.02-15.95 3.47-1.51-.25-2.01-2.58-2.13-3.91-.08-.85-.05-.86-.21-2.79 1.84-.5 16.32-4.09 17.51-3.26m23.15 26.86c-.32-.25-3.59-6.78-3.59-7.19.03-1.36 4.25-3.83 5.17-3.66 1.02.19 2.77 3.54 3.41 4.59 1.01 1.65 5.55 9.33 5.44 10.58-.1 1.05-4.5 3.31-5.21 3.18-1.14-.21-4.96-7.29-5.23-7.5ZM35.5 34.5c1.38-.71 8.01-2.59 8.94-1.93.49 1.94 2.66 5.68.21 6.83-3.07.09-13.68 4.28-15.82 3.56-.82-.28-1.9-4.27-1.83-5.19.11-1.44 8.51-3.26 8.51-3.26ZM65 24c.1-1 .14-2.1 1.36-2.44.24-.06 4.48.4 4.82.51 1.24.39.88 3.51.82 4.68-.17 3.01-.6 7.98-1.11 10.88-.14.78-.67 2.29-1.38 2.65-.57.29-5.25-.28-5.75-1.28-.42-.84.15-5.8.28-7.22.04-.41.97-7.78.97-7.78ZM48 42.5c.71-.36 2.08-3.25 4-7 1.39-1.97 4.14-.27 5.69 1.06 1.16 1 .99 1.46.42 2.8-.77 1.82-6.11 10.57-7.38 12.12-.88 1.08-1.33 1.31-2.71.76-.8-.32-3.81-2.29-3.95-3.06-.25-1.35 3.15-5.38 3.92-6.68Zm36.45-26.17c.2.64-.68 3.81-1.05 4.07-.43.3-3.3.52-4.15 1.04-1.69-.7-12.72-3.85-13.19-4.5-.78-1.11.48-3.4.94-4.44l1.45-2.72c4.93 1.82 15.55 5.1 16 6.55M91 21.5c1.35-.31 4.91-1.85 6-1.28 1.25.65 3.09 6.23.53 7.04-1.99.64-7.94 2.1-9.86 2.2-2.24.12-4.23-.96-6.66.03-.88-3.37-2.19-6.11 2.49-6.49.85.13 7.5-1.5 7.5-1.5m-63.45-.12c.42-1.39 4.3-3.7 5.82-3.04.98.43 4.46 7.06 5.32 8.48.55.91 2.43 1.7 1.81 3.68l-6.71 1.52c-.41 0-6.48-9.84-6.24-10.64" style="fill:#7e5e3c"/><path d="M48.5 43.04c.02-.89.67-1.82 1.22-2.86.8-1.3 1.39-2.9 2.58-3.87.6-.46 1.41-.69 2.05-.26 1.78 1.22-1.59 6.31-3.34 8.24-1 1.34-2.44.33-2.51-1.08zM70.14 11.3c1.9.73 4.55 1.1 5.97 2.71.27.41.38.84.21 1.27-.6 1.42-3.12.78-5.33-.23-1.38-.63-2.69-1.23-3.02-2.05-.55-1.23.93-2.04 2-1.74l.18.04Zm-5.1 20.29c-.66-1.42.1-3.45.15-5.07.02-1.24.66-2.85 2.1-2.35 1.7.65 1.11 4.48.53 7.12-.2 1.86-1.72 1.84-2.7.45l-.08-.14Zm25.9-9.24c.92.7.61 2.14-.5 2.56-.52.22-1.23.35-1.92.51-1.74.3-6.49 1.8-5.3-1.22.71-1.34 2.7-1.12 4.09-1.57 1.12-.16 2.46-.86 3.52-.35l.11.08ZM36.42 35.62c5.41 1.5-3.81 3.7-6.01 3.27-1.89-.18-1.5-1.51-.29-2.18 1.71-.86 4.06-1.36 6.12-1.12zm-7.19-13.34c.23-1.16 1.92-2 2.69-.95.35.42.65 1.09 1.01 1.85.88 1.97 1.86 3.66.36 4.47-1.58.64-4.17-3.8-4.08-5.21zm40.43 23.17c.94.27 2.14 1.94.92 2.65-.92.48-3.59 1.55-5.14 2.09-1.61.78-2.19-1.12-1.88-2.4.12-.45.54-.67 1.05-.84 1.56-.48 3.35-1.21 4.9-1.52l.14.02Zm-19.4-27.1c1.87 1.36.39 2.85-1.43 3.25-1.21.3-3.42 1.11-4.37.95-.71-.17-1.07-1.09-.95-1.76.19-1 .97-1.44 1.87-1.85 1.45-.28 3.3-1.19 4.73-.67l.15.09Z" style="fill:#a5825e"/><path d="M70 77.5h11.75c.05 0 .75.7.75.75V89.5c-4.09.9-8.34.36-12.5.5v11.25c0 .17-.53.8-.58 1.18-.45.32-10.26.29-11.09.09-.28-.07-.84-1.11-.84-1.27V90c-2.03-.29-11.53.62-12.4-.6-.93-1.3-1.09-11.9.65-11.9h11.75V65.75c0-.07.78-.89 1-1 .9-.42 8.46-.47 9.74-.24.55.1 1.76.88 1.76 1.24V77.5Z" style="fill:#b2cb2c"/><path d="M83.81 42.4c-.47-.3-.7-.99-1.16-1.82-.7-1.41-2.17-3.05-1.93-4.68 1.13-2.41 3.05 1 4.12 2.61.71 1.12 1.67 2.79.8 3.59-.41.43-1.18.63-1.7.36l-.12-.07Z" style="fill:#a5825e"/></svg>