<svg xmlns="http://www.w3.org/2000/svg" data-name="fill_sugarbeetcut" viewBox="0 0 128 128"><defs><linearGradient id="a" x1="-1662.25" x2="-1669.93" y1="-410.54" y2="-344.98" gradientTransform="matrix(.5 0 0 .5 888 222)" gradientUnits="userSpaceOnUse"><stop offset="0" stop-color="#c4a985"/><stop offset=".64" stop-color="#e3ccab"/><stop offset="1" stop-color="#e6cfad"/></linearGradient><linearGradient id="b" x1="-1622.8" x2="-1594.63" y1="-285.75" y2="-224.97" gradientTransform="matrix(.5 0 0 .5 888 222)" gradientUnits="userSpaceOnUse"><stop offset="0" stop-color="#c6ab87"/><stop offset=".37" stop-color="#e5ceac"/><stop offset="1" stop-color="#e6cfad"/></linearGradient><linearGradient id="c" x1="-1745.7" x2="-1705.12" y1="-289.25" y2="-283.42" gradientTransform="matrix(.5 0 0 .5 888 222)" gradientUnits="userSpaceOnUse"><stop offset="0" stop-color="#dbc787"/><stop offset=".63" stop-color="#fbf0cb"/><stop offset="1" stop-color="#fcf2cf"/></linearGradient><linearGradient id="d" x1="-1557.81" x2="-1568.93" y1="-363.76" y2="-338.07" gradientTransform="matrix(.5 0 0 .5 888 222)" gradientUnits="userSpaceOnUse"><stop offset="0" stop-color="#ddc98a"/><stop offset="1" stop-color="#fbefca"/></linearGradient></defs><path d="M40.9 12.65c8.82-.94 27.99 1.31 35.95 5.26 14.1 7 15.71 21.8 11.41 35.59-1.52 4.87-2.28 4.37-6.94 3.93-18.49-1.74-39.75-4.01-58-7-2.3-.38-5.02-.21-5.34-3.16-1.83-16.52 4.79-32.7 22.92-34.63Z" style="fill:#0d0f0f"/><path d="M104.88 62.09c3.56-.47 3.81 3.51 4.06 6.22 1.01 11.15-1.85 26.4-7 36.38-2.8 5.42-8.13 9.84-14.32 10.68-11.98 1.63-33.49-10.48-41.13-19.61-1.68-2-3.96-4.47-.85-6.37z" style="fill:#0c0e0d"/><path d="M19.37 66.12c5.84-1.02 15.88 7.67 19.05 12.22 3.55 5.09.71 8.65-4.43 10.4-5.48 1.87-11.92 2.16-17.48.52-5.13-1.51-6.02-4.85-5.45-9.95.43-3.83 4.17-12.46 8.32-13.18Zm93.96-27.45c5.33 5.27 4.89 9.98-1.48 13.93-3.95 2.45-14.71 6.7-15.82-.38-.7-4.5 2.51-16.69 7.47-18.01 2.67-.71 7.91 2.55 9.84 4.45Z" style="fill:#0d0f0f"/><path d="M40.86 60.61c8.72-1.82 17.04 8.29 11.56 16.06-5.34 7.57-19.27-2.04-18.41-8.87.37-2.97 3.95-6.58 6.85-7.18Z" style="fill:#0c0e0d"/><path d="m84.96 54.97-63.92-7.51c-2.26-14.01 2.69-28.51 17.84-31.82 7.56-1.65 28.5.79 35.61 4.12 14.49 6.79 15.18 21.55 10.47 35.21" style="fill:url(#a)"/><path d="M105.5 65c2.17 11.38.05 23.42-4.12 34.13-6.52 16.73-17.09 15.95-31.71 9.46-8.54-3.78-17.01-9.35-22.66-16.84z" style="fill:url(#b)"/><path d="M28.83 72.68c2.05 1.42 6.37 5.4 7.61 7.63 3.81 6.87-11.19 7.53-15.13 7.13-7.01-.7-8.32-2.32-7.08-9.47.43-2.47 3.34-8.81 6.02-9.02 2.13-.17 6.71 2.43 8.58 3.72Z" style="fill:url(#c)"/><path d="M99.12 52.88c-1.91-1.95 1.94-13.48 3.84-15.17 1.8-1.61 3.93-.14 5.7.89 3.3 1.92 7.48 6.26 4.12 9.92-1.96 2.13-11.61 6.45-13.65 4.36Z" style="fill:url(#d)"/><path d="m44 63 6 4.5c.68 1.2 1.54 2.12 1.52 3.76 0 .74-1.36 4.38-1.87 4.77-3.38 2.59-11.43-2.35-12.42-6.01-1.11-4.1 3.01-7.33 6.77-7.02" style="fill:#e4cdab"/><path d="M50 67.5c-2.07-.83-5.32-2.14-6-4.5 2.76.23 4.78 2.37 6 4.5" style="fill:#d6bd9b"/><path d="M24.56 35.06c.34-.51 2.91-.6 3.68-.57 5.08.22 12.79 1.29 17.95 2.07 3.15.47 7.56 1.41 3.05 4.45l-22.46-2.54c-1.68.12-3.07-2.14-2.22-3.41m45.37 12.87c-.71.5-11.62-.58-13.06-1.04-2.2-.7-1.51-3.82.91-3.86 2.02-.03 7.12.74 9.35 1.1 1.25.2 3.32.59 3.35 2.1 0 .31-.4 1.59-.55 1.7m30.94 31.65c2.52-.5 3.74 2.06 1.3 3.84C100 85 84 93.05 81.52 93.77c-3.24.94-4.74-1.56-2.2-3.7zM85.38 98.62c.72.71.63 2.29-.23 2.91-.72.52-10.38 4.8-10.98 4.86-1.69.16-2.88-1.59-1.7-3.18.44-.6 9.89-4.96 10.9-5.12.62-.1 1.57.1 2.01.53" style="fill:#8f7c60"/></svg>