<svg xmlns="http://www.w3.org/2000/svg" data-name="fill_clothes" viewBox="0 0 128 128"><path d="M18.38 75.11C12.51 68.75 8.02 63.49 2.86 56.95.33 53.72.74 49.67 3.89 47.1c8.36-7.22 15.74-13.2 26.81-16.3 0-3.59 3.02-5.46 6.72-7.01C51.9 17.72 66.31 11.51 80.75 5.36c4.75-2.02 8.28-.71 10.35 3.96 9.68 22.99 19.31 46.2 28.7 69.43 2.1 5.15 4.17 10.31 6.21 15.49 1.82 4.63.38 8.1-4.14 10.06-4.77 2.07-9.56 4.12-14.35 6.15-3.79 1.62-4.47 1.62-8.59.12-.56 3.85-3.6 5.16-6.72 6.44-4.56 1.88-9.07 3.86-13.64 5.72-7.31 3.23-9.89-3.88-12.32-9.41H26.93c-6.01 0-8.57-2.52-8.57-8.46V75.1Z" style="fill:#4a3726;stroke-width:0"/><path d="M67.02 106.3H25.41V63.61c-1.89 1.37-3.36 2.43-5.06 3.65-4.06-4.89-8.05-9.7-12.04-14.49 8.25-9.87 18.32-15.01 27.92-14.29 5.11 10.26 16.34 8.34 19.63-.06 12.95-1.31 18.7 7.05 28.45 14.05-4.23 5.11-8.21 9.91-12.28 14.83-1.69-1.24-3.16-2.32-5-3.68v42.68Z" style="fill:#f4f8f4;stroke-width:0"/><path d="M94.67 34.64c8.38 20.92 16.71 41.72 25.2 62.93-5.53 2.37-10.98 4.71-16.76 7.19C96.32 91.22 89.69 78 83.01 64.69c4.41-5.66 12.82-12.36 4.2-18.38-6.44-5.64-13.56-10.43-21-14.61 3.15-1.32 6.87-2.89 10.79-4.53 4.3 6.22 10.51 7.63 17.67 7.48Zm-2.52 74.81c-5.77 2.45-11.1 4.7-16.66 7.06-1.04-2.11-1.93-3.93-2.83-5.76l.55-.07c1.25-12.08.45-24.39.65-36.43 1.52-1.18 2.91-2.25 4.55-3.51 4.57 12.87 9.08 25.59 13.74 38.72Z" style="fill:#4883af;stroke-width:0"/><path d="M42.51 34.33c-1.71-1.2-2.87-2.01-4.41-3.09 15.6-6.67 30.91-13.22 46.45-19.87.63 1.75.98 2.73 1.55 4.31-14.73 6.3-29.32 12.54-43.59 18.65" style="fill:#7b5b3b;stroke-width:0"/><path d="M83.52 24.39c2-.89 3.51-1.57 5.39-2.41l2.68 5.46c-3.32.31-5.65-.42-8.07-3.05" style="fill:#4883af;stroke-width:0"/></svg>