<svg xmlns="http://www.w3.org/2000/svg" data-name="fill_goatmilkbottled" viewBox="0 0 128 128"><path d="M48.85 5.1c9.38.37 19.65-.83 28.92-.12 2.04.16 3.35.55 3.7 2.8.23 1.49.27 6.51.02 7.96-.4 2.35-4.27 1.8-2.89 6.41l16.66 16.83 1.5 2.5.24 74.77c-.38 3.59-3.24 5.97-6.73 6.27-16.94 1.44-35.88-1.13-53.03 0-2.8-.32-5.01-2.5-6-5l-.21-75.24 1.71-3.29 16.5-16.49c2.02-4.45-2.45-4.39-2.77-7.22-.29-2.65-.68-9.27 2.37-10.18Z" style="fill:#030304"/><path d="M75.5 18.5c.13 1.41-.34 3.18.26 4.49.15.32 4.04 4.52 4.73 5.27 3.64 3.95 9.84 8.71 12.78 12.72.68.92 1.03 1.67 1.19 2.81l.06 71.47c-.41 3.15-2.17 4.49-5.24 4.76-16.24 1.43-34.57-1.13-51.04-.01-2.21-.25-3.83-1.38-4.5-3.5l-.12-73.15c.18-.98.54-1.61 1.11-2.39 2.95-4 9.15-8.77 12.78-12.72.69-.75 4.58-4.95 4.73-5.27.6-1.32.13-3.08.26-4.49h23Z" style="fill:#e5f7fa"/><path d="M49.82 7.57h28.36c1.33.43 1.06 7.24.35 7.71l-28.71.15c-1.27-.42-1.28-7.45 0-7.86" style="fill:#334ab5"/><path d="M89 68c-.31 4.13.86 9.04.44 13.69-1.15 12.71-10.21 28.05-24.17 28.83-15.38.86-25.47-15.08-26.71-28.83-.42-4.65.76-9.56.44-13.69 1.03-.29 2.05.51 3.08 2.4 5.09 2.44 5.37 4.31 4.97 9.74 1.28 5.18 3.68 10.03 7.18 14.53 3.67 13.95 15.86 13.95 19.53 0 3.5-4.51 5.89-9.35 7.18-14.53-.46-5.66.02-7.29 5.12-9.87q1.425-2.835 2.94-2.28Z" style="fill:#66d353"/><path d="M48 50.5c4.6-1.84 10.69 2.91 12.19 7.43a47 47 0 0 0 7.41.1c1.81-4.49 7.57-9.38 12.39-7.53 1.61-.23 4.27-1.11 4.03 1.74-.08.96-.57.88-1.03 1.26l-.03 1.24c-2.83 1.41-4.14 4.6-4.49 7.58q4.8-1.11 8.52.18c4.75-.29 2.23 2.45 2 5.5-.97.83-1.35 2.1-2.25 3s-4.28 2.62-4.51 2.99c-.63 1.03-.08 4.26-.24 5.76-.8 7.54-4.88 10.32-7.77 16.23-.76 1.56-.91 3.07-1.81 4.69-4.1 7.34-12.73 7.34-16.83 0-.9-1.62-1.05-3.13-1.81-4.69-2.89-5.91-6.97-8.69-7.77-16.23-.16-1.5.39-4.73-.24-5.76-.23-.37-3.64-2.12-4.51-2.99s-1.28-2.17-2.25-3c-.23-3.05-2.75-5.79 2-5.5 2.48-.86 5.31-.92 8.52-.18-.35-2.88-1.57-6.03-4.28-7.45l-.23-1.37c-.47-.38-.95-.3-1.03-1.26-.23-2.85 2.42-1.98 4.03-1.74Z" style="fill:#080a07"/><path d="M80 50.5c-4.13.6-7.72 2.02-10.22 5.53-.48.68-1.23 2.8-1.36 2.89-.36.26-8.49.26-8.85 0-.14-.1-.99-2.39-1.58-3.17-2.48-3.34-6.02-4.67-10-5.25 8.71-9.92 23.28-9.92 32 0Zm-35 3c.78.63 1.79 1 2.5 1.75 1.84 1.94 3.28 5.56 3 8.25-3.14-.28-6.35-.81-9.5-1 .53-3.34 2.95-5.88 4-9m42 9c-3.14.19-6.36.72-9.5 1-.28-2.68 1.16-6.31 3-8.25.71-.75 1.72-1.12 2.5-1.75 1.05 3.12 3.47 5.66 4 9" style="fill:#66d353"/><path d="M50.5 8.5c3.51-1.55 2.93 6.16 1.74 6.5-2.74.78-1.51-5-1.74-6.5" style="fill:#859cfc"/><path d="M86.5 65.5c.89 3.82-6.61 5.74-7.27 6.99-.42.79.37 4.18.27 5.75-.48 7.46-4.64 10.26-7.6 15.9-1.32 2.52-1.67 5.22-3.68 7.82-1.45 1.87-6.04 1.86-7.92.49L50.12 84.63c-.64-1.99-1.48-4.3-1.61-6.38-.1-1.57.68-4.96.27-5.75-.66-1.26-8.16-3.17-7.27-6.99 3.48-.44 7.32 1.09 10.74.49 1.11-.2 3.69-2.71 5.62-3.38 3.86-1.34 8.02-1.37 11.91-.14 2.12.67 4.83 3.32 5.98 3.52 3.42.6 7.26-.93 10.74-.49Zm-30.57-6.08c-.18.26-2.53 1.36-2.93 1.08-.49-2.54-1.8-4.84-3.5-6.75 2.09-.77 7.6 4.01 6.42 5.68Zm17.24-3.25c1.33-1.32 3.42-2.39 5.32-2.43-1.63 1.12-3.4 7.71-6 6.04-1.57-1.01-.27-2.66.68-3.61" style="fill:#d4c7b4"/><path d="M68 94c.35 2.41-.85 4.39-3.16 5.13-2.07.67-3.38-.95-5.34-1.15.56-1.41.04-2.55 0-3.98 2.62-1.14 3.33 2.28 4.29 2.48 1.27.27 1.97-3.51 4.21-2.48M53.32 78.07c4.06-1.33 6.24 3.49 1.92 3.47-2.92-.01-3.69-2.89-1.92-3.47m18.53.03c4.41-1.32 4.74 2.89 1.89 3.39-4.11.72-4.03-2.75-1.89-3.39" style="fill:#080a07"/></svg>