<svg xmlns="http://www.w3.org/2000/svg" data-name="fill_chips" viewBox="0 0 128 128"><path d="M111.88 90.83c-1.62 7.31-.72 15.12-1.2 22.65.03 3.89-1.42 8.58-5.32 10.04-2.52 1.01-4.77-.74-6.87-1.93-2.61-1.49-6.47-1.57-9-.21-1.73.95-3.24 2.79-5.35 2.73-1.74-.03-3.3-1.22-4.77-2.07-4.34-2.96-9.46-1.56-13.27 1.45-2.7 1.69-5.06-.3-7.39-1.76-3.85-2.17-8.54-1.41-11.87 1.27-.74.5-1.67.99-2.5.98-1.81.05-3.29-1.57-4.84-2.48-2.46-1.52-5.59-1.89-8.32-.93-2.29.76-4.38 2.97-6.75 3.26-3.65.56-5.54-3.3-6.06-6.43-1.03-8.37-1.07-16.7-1.78-24.42-.21-3.33-3.14-5.49-3.83-8.6-.82-11.59.05-23.41-.39-35.08 0-1.86.04-3.79.43-5.58.79-3.72 4.12-6.55 4.06-10.57.4-6.75.73-13.54 1.16-20.69.23-2.56.69-5.48 2.7-7.21 2.25-2 5.87-.51 8.68.58 3.54 1.15 7.97 1.79 11.12-.26 2.75-2.11 4.41-2.28 7.31-.28 3.87 2.11 9.25 2.2 13.17.09 1.95-1.1 4.16-1.11 6.18-.16 4.88 2.28 9.63 2.12 14.33-.26 2.06-.77 4.17-.27 6.11.67 4.29 2.04 8.59 1.79 12.76-.41 1.14-.55 2.39-1.06 3.63-1.09 6.01.3 6.77 7.65 6.39 12.39-.13 5.21.36 10.39.78 15.59.21 5.59 4.8 9.92 4.32 15.7.09 10.67.22 21.38.06 32.04.25 3.85-1.75 7.86-3.58 10.76l-.1.25Z" style="fill:#4a3726;stroke-width:0"/><path d="M21.64 89.23c-1.35-13.18-1.31-26.81-1.19-40 .22-3.35.39-6.79 1.04-10.11.86-4.36 2.77-8.02 3.23-12.37.47-3.48.42-7.31.47-11.12.04-1.8.38-4.17 2.63-3.48 4.1 1.76 8.2 3.29 12.22.72 1.31-.66 2.72-1.27 4.19-1.3 3.07-.16 5.6 2.4 8.57 2.71 3.54.57 6.67-2.52 10.51-2.68 4.27-.15 7.77 3.93 12.15 2.7 2.65-.54 5.3-3.11 7.8-3.01 3.73.28 6.79 3.82 10.79 3 4.27-.34 8.68-5.56 8.84.84.07 4.9.18 10.3 1.41 15.22 1.06 4.37 2.58 8.52 2.85 13 .91 14.66 1.33 29.46-.28 44.07-.68 4.36-2.76 8.47-3.3 12.96-.55 3.68-.49 7.44-.54 10.99-.05 1.46-.24 3.69-2.04 3.75-2.44-.13-6.34-3.57-9.58-2.47-2.01.4-3.72 1.89-5.55 2.69-2.46 1.18-5-.02-7.21-1.24-3.31-1.85-6.64-2.01-9.94-.12-7.35 5.04-8.63-1.66-15.4-1.17-3.12.21-5.99 3.11-8.66 3.11-3.96-.36-7.34-4.45-11.62-2.89-2.76.81-5.65 2.98-7.02 1.6-1.28-1.36-1.05-3.86-.99-5.72.63-6.85-1.52-13.01-3.3-19.38l-.07-.32Z" style="fill:#cbb256;stroke-width:0"/><path d="M86.28 33.82c2.3.53 3.91 3.19 3.15 5.55-.66 2.24-2.04 4.6-.44 6.51 1.51 1.78 4.16 2.1 6.13 3.24 11.54 5.96 9.88 23.27-.53 29.64-2.94 2.14-6.05 4.04-9.65 4.43-3.6.5-8.05-.41-9.95 3.53-1.47 2.48-3.14 5.04-5.46 6.82-5.08 4.08-12.34 3.56-18.62 2.07-9.27-2.29-16.92-8.57-21.53-17.31-3.05-5.82-1.95-12.15 3.16-17.28 2.57-2.94 8.06-4.73 7.2-9.43-.26-1.47-1.1-2.75-1.81-4.05-2.57-4.09-3.87-15.67 3.9-13.25 13.42 3.64 26.73 5.11 40.53.14 1.16-.43 2.51-.86 3.66-.66l.27.05Z" style="fill:#4a3726;stroke-width:0"/><path d="M67.69 79.2c2.99 8.29-6.05 12.23-12.98 10.45-7.45-1.38-14.35-5.58-18.2-12.33-3.12-5.04-1.35-13.49 5.14-14.45 6.08-.39 11.47 5.11 16.6 7.96 3.58 2.44 7.76 4.56 9.32 8.1l.12.28ZM44.76 43.36c3.44-1.9 8.96.23 13.14.24 3.75.3 7.5.22 11.22-.13 3.29-.24 6.93-1.13 9.49-.15 4.09 1.46 2.83 6.57.73 9.35-4.51 6.44-12.65 9.76-20.42 8.15-4.94-.88-9.22-3.87-11.96-8.04-1.67-2.34-4.8-7.29-2.37-9.29l.18-.13Zm22.9 24.94c.37-2.01 3.7-3.12 6.32-4.36 3.26-1.46 5.87-3.73 8.64-6.05 7.7-6.46 17.52-1.26 13.93 8.77-3.85 10.93-25.93 15-28.94 1.86l.04-.23Z" style="fill:#d3cb8c;stroke-width:0"/></svg>