<svg xmlns="http://www.w3.org/2000/svg" data-name="fill_sugar" viewBox="0 0 128 128"><path d="M6.11 66.14c.57-3.3 2.67-5.14 5.54-6.5 5.01-2.36 9.91-4.95 14.88-7.39 1.27-.62 2.65-1.04 4.35-1.7 0-5.9.08-12.1-.03-18.31-.06-3.69 1.16-6.53 4.61-8.28.6-3.18 2.64-5.06 5.51-6.43 6.3-3.02 12.55-6.14 18.73-9.38 3-1.57 5.75-1.5 8.72.04a781 781 0 0 0 18.98 9.49c2.67 1.29 4.58 3.08 5.15 6.21 3.68 1.83 4.76 4.98 4.63 8.99-.19 5.92-.05 11.85-.05 17.2 7.4 3.71 14.46 7.05 21.3 10.81 1.73.95 2.72 3.23 3.83 5.07 3.04 1.86 4.29 4.54 4.25 8.17-.12 9.2-.11 18.4 0 27.59.04 3.82-1.59 6.34-4.93 7.99-6.68 3.3-13.25 6.82-20.04 9.88-2.1.95-4.74.7-7.14.94-.44.04-1-.4-1.33-.24-3.76 1.73-6.85-.12-10.03-1.73-6.23-3.16-12.49-6.25-18.96-9.48-6.98 3.48-14.1 6.95-21.14 10.56-2.44 1.25-4.83 1.74-7.45.84-.35-.12-.8-.35-1.07-.23-4.09 1.92-7.4-.28-10.81-1.99-5.64-2.82-11.26-5.7-16.93-8.46-3.58-1.74-5.21-4.43-5.15-8.46.13-9.1.09-18.21.01-27.31-.03-3.5 1.2-6.12 4.59-7.9Z" style="fill:#4a3726;stroke-width:0"/><path d="M119.04 72.89v29.78c-7.26 3.63-14.39 7.18-21.82 10.89V83.8c7.09-3.54 14.34-7.17 21.82-10.91" style="fill:#f4f8f4;stroke-width:0"/><path d="M38.43 60.61V30.95L60.1 41.68v29.7c-7.39-3.67-14.47-7.19-21.67-10.76Z" style="fill:#7f827e;stroke-width:0"/><path d="M89.51 60.59c-7.19 3.59-14.27 7.13-21.65 10.82V41.73c7.06-3.53 14.21-7.11 21.65-10.83z" style="fill:#f4f8f4;stroke-width:0"/><path d="M30.77 113.46c-7.55-3.77-14.61-7.3-21.62-10.8V73.02L30.77 83.8zm29.36-10.7c-7.04 3.52-14.09 7.04-21.56 10.77V83.8c4.77-2.39 9.87-4.95 15.06-7.55 2.18 1.09 4.3 2.16 6.5 3.26zm29.33 10.72c-7.47-3.73-14.53-7.25-21.66-10.81V79.52c2.11-1.07 4.23-2.14 6.49-3.28 5.03 2.51 10.06 5.03 15.17 7.58v29.65Z" style="fill:#7f827e;stroke-width:0"/><path d="M42.62 24.86c7.51-3.76 14.42-7.21 21.36-10.68C71.03 17.72 78 21.21 85.36 24.9c-7.27 3.64-14.08 7.05-21.27 10.66-6.81-3.39-13.85-6.9-21.47-10.69Z" style="fill:#f4f8f4;stroke-width:0"/><path d="m13.37 67.05 17.91-8.94c-1.9 6.66 2.38 8.34 6.5 10.22 2.43 1.11 4.78 2.37 7.73 3.84-3.88 1.97-7.32 3.72-10.87 5.53-6.84-3.42-13.65-6.83-21.27-10.64Z" style="fill:#7f827e;stroke-width:0"/><path d="M114.62 67.05c-7.49 3.75-14.38 7.21-21.27 10.66-3.6-1.81-7.08-3.56-10.98-5.51 3.78-1.9 7.02-3.75 10.44-5.17 3.21-1.34 4.72-3.39 4.23-6.86-.06-.46.05-.94.1-1.81 5.72 2.85 11.24 5.59 17.48 8.69" style="fill:#f4f8f4;stroke-width:0"/></svg>