<svg xmlns="http://www.w3.org/2000/svg" data-name="fill_balenet" viewBox="0 0 128 128"><defs><linearGradient id="a" x1="-5142" x2="-5261" y1="-692.97" y2="-692.97" gradientTransform="matrix(.5 0 0 .5 2664 370)" gradientUnits="userSpaceOnUse"><stop offset="0" stop-color="#b82930"/><stop offset=".5" stop-color="#eb69a4"/><stop offset="1" stop-color="#b7282e"/></linearGradient><linearGradient id="b" x1="31.42" x2="95.71" y1="73.99" y2="73.99" gradientUnits="userSpaceOnUse"><stop offset="0" stop-color="#c53b4f"/><stop offset=".5" stop-color="#e76398"/><stop offset=".64" stop-color="#e35e90"/><stop offset=".85" stop-color="#d9537b"/><stop offset="1" stop-color="#d14a69"/></linearGradient><linearGradient id="c" x1="-5200.04" x2="-5200.04" y1="-704.04" y2="-687.04" gradientTransform="matrix(.5 0 0 .5 2664 370)" gradientUnits="userSpaceOnUse"><stop offset="0" stop-color="#b1262b"/><stop offset="1" stop-color="#5e1618"/></linearGradient></defs><path d="M59.89 7.64c8.5-.51 17.75.52 25.73 3.48 4.85 1.8 11.79 5.35 12.38 11.12l-.11 84.39c-2.74 7.33-11.29 10.47-18.38 12.12-11.37 2.64-25.05 2.44-36.14-1.38-5.03-1.73-12.77-5.73-13.37-11.63l.11-84.39C34.49 10.98 49.78 8.24 59.89 7.63Z" style="fill:#0b0b0c"/><path d="M57.4 10.65c9.92-.81 25.54.36 33.77 6.44 8.7 6.42 2.26 12.58-5.17 15.66-12.35 5.12-31.67 5.19-43.99 0-7.4-3.12-13.91-9.21-5.17-15.66 4.91-3.62 14.5-5.95 20.56-6.44" style="fill:url(#a)"/><path d="m95.47 100.9.06.09c-.03 4.02-.65 7.38-4.46 9.9.01-.03.4.04.41 0-12.47 9.81-44.94 10.56-56.17-1.68-.04.06-.1.11-.15.09-6.03-2.37-3-55.04-2.81-73.17.02-2.04-.95-9.04 2.55-5.5 18.19 11.41 42.42 10.44 60.2-.71 1.23 20.27.2 50.27.29 70.97h.08Z" style="fill:url(#b)"/><path d="M60.39 14.14c4.99-.57 16.81.39 18.73 6 3.41 10.01-13.54 11.04-19.81 10.31-14.8-1.72-14.75-14.49 1.09-16.31Z" style="fill:#0e0b0d"/><path d="M61.39 16.64c1.46-.14 2.88-.24 4.35-.14 4.4.29 16.05 3.78 9 8.99-4.6 3.4-16.9 3.4-21.5 0-6.84-5.07 3.68-8.42 8.14-8.85Z" style="fill:url(#c)"/><path d="M92.78 58.85c.15-1.39 1.98-.74 2.6.13.04.43.08.87.11 1.31.01-9.63.1-18.97.07-26.2.29 5.74-2.27 11.5-3.43 17.1-.31 1.48-.59 1.13-1.22.25-1.89-2.65-5.47-8.19-6.19-10.94-.32-1.09.2-2.17.68-3.17 1.64-3.03 5.51-3.62 7.86-6.05-2.65 1.06-5.6 3.41-8.63 4.46-6.95 2.15-14.31 3.22-21.46 3.26-6.71-.36-14.44-.68-20.74-3.7-1.48-.44-5.22-3.39-7.68-4.15 1.37 1.15 2.75 2.03 4.29 2.89 1.55.84 3.21 1.28 3.79 3.02 2.31 5.71 2.42 5.64-1.45 10.24-.97 1.11-2.67 6.49-4.32 6.17-.38-.17-.67-.89-.84-1.37-1.78-5.24-3.4-10.3-3.87-15.67-.56 14.89-1.29 58.44-.14 65.59-.41-6.7.17-15.11.24-21.91.02-1.73.44-.17 1.18 1.19 1.2 2.43 2.94 5.98 4.08 8.3.54 1.26 1.27 1.99 1.07 3.27-1.51 5.32-2.74 10.97-3.47 16.37 9.64 11.95 44.85 11.27 55.8 1.58.58-1.51 1.22-3.3 1.7-4.98.62-1.66 1.39-4.88 2.58-4.88 0-1.11 0-5.33.02-11.28-1.23 1.76-1.02 4.95-2.53 6.4-1.43.92-9.38-4.28-9.52-6.1.34-3.62 2.33-6.75 3.05-10.34 1.51-5.31 1.01-4.34 6.36-1.65 1.28.56 2.2 1.18 2.67 2.15 0-1.3.01-2.62.01-3.98-.8 1.46-5.52-2.59-5.97-3.16-.47-.58-.34-1.33-.15-2.04 1.09-3.98 2.68-8.22 3.45-12.11M68.07 43.49c1.4-1.44 2.36-4.09 4.4-4.83 2.53-.36 5.13-.74 7.64-1.2 4.76-.09-5.75 14.75-6.13 17.67-.53.93-.95-.36-1.41-.96-1.18-2.41-6.22-8.65-4.5-10.68m-5.99 43.16c.78-1.78 1.75-3.61 2.47-5.4.75-1.78 1.47-3.08 3.04-2.1 1.6 1.11 2.6 2.52 4.06 3.78 2.6 2.73 6.7 5.31 7.72 8.93-.82 5.72-3.12 15.81-8.89 9.93-4.55-4.89-11.75-8.31-8.4-15.14m-1.86.88c-1.02 3.2-2.9 1.07-4.23-.58-6.51-7.99-9.05-10.31-4.35-18.85 1.6-2.47 3.36-7.72 5.93-2.8 8.03 12.43 7.97 7.77 2.65 22.23m6.64-16.4c-.42.97-.72 1.43-1.27 1.23-3.19-2.34-5.22-6.29-7.43-9.63-.47-.8-1.08-1.65-1.06-2.56.78-2.64 3.12-4.95 4.59-7.56 1.27-1.73 2.86-4.73 4-5.69.31-.09.6.43 1.17 1.43 1.43 2.58 3.14 5.64 4.6 8.28.88 1.57.8 1.79.06 3.51-1.48 3.5-3.21 7.57-4.66 10.99m-1.32-31.6c.51-.17 1.39.02 1.91-.06l.05.06c.04.56-.77 2.06-1.41 1.88-.53-.47-.76-1.25-.55-1.88m-14.29-.43c.17-.28.36-.49.67-.56 3.31.51 7.33.41 10.51 1.11.72 1.83 2.42 4.35.8 6.1-2.8 3.46-4.38 8.65-7.75 11.19-.64.48-1.5-1.77-2.27-2.96-1.93-3.5-4.57-8.88-5.06-10.47-.37-1.73 2.41-2.79 3.1-4.41m-5.07-1.95c.69.27 1.66.6 2.32.82l.02.03c-.4.49-1.47 1.57-1.86 1.95-.2.21-.3-.2-.42-.57-.19-.64-.59-1.68-.71-2.27-.03-.19.31-.08.65.04m-2.11 9.67c2.52-3.48 3.79 1.75 4.91 3.56 4.21 7.42 6.3 9.32 1.36 17.01-1.24 2.06-2.39 6.31-3.99 5.2-1.33-1.13-2.52-4.09-3.57-5.99-1.41-3.21-3.56-6.19-3.82-9.66.05-3.19 3.13-7.16 5.11-10.12m-11.61 3.37c.03-.36-.04-1.04.21-1.14 1.09 1.49 1.83 3.88 2.48 5.7.82 2.11-.2 4.15-1.27 6.1-.34.53-.74 1.57-1.2 1.7l-.05-.03c-.45-3.97-.03-8.29-.17-12.33m5.94 36.2c-1.87-4.64-4.16-9.87-5.66-14.74-.99-2.62.65-4.98 1.71-7.52.7-1.24 1.42-3.97 2.77-4.18.5.07.99.88 1.63 2.13 1.75 3.46 3.77 7.49 5.54 11.02 1.71 2.66.58 4.81-.45 7.54-1.11 2.37-2.17 6.44-4.16 7.85-.52 0-.83-.81-1.38-2.1m13.16 28.06c-.22.95.05 1.84-.36 2.12-4.38-.64-9.55-2.18-12.99-5.08-.87-5.07 1.03-10.42 2.25-15.36.19-.58.46-.71.89-.09 2.89 4.24 7.8 9.29 10.77 12.91.73 1.62-.35 3.48-.56 5.5m1.42-8.38c-.61 0-1.16-.55-1.6-.97-3.38-3.65-7.64-7.8-9.07-12.69-.58-4.37 1.99-8.7 3.8-12.61.3-.57.78-1.34 1.46-1.21.68.17 1.09.97 1.46 1.55 2.32 4.32 6.57 7.87 8.19 12.52.35 3.73-1.81 7.53-2.75 11.17-.25.81-.5 2.15-1.49 2.24m11.32 11.4c-2.97.21-6.08-.02-9.07-.27-.43-.05-.94-.13-1.19-.47-.48-1.02-.05-4.51.66-5.11.22-.18.47-.16.74-.08 1.41.49 4.38 2.78 6.77 4.42.59.49 1.86 1.04 2.12 1.48zm4.48-1.25c-3.7-.36-8.51-4.6-11.93-6.75-2-1.15-1.31-2.4-.75-4.8.77-2.88 1.49-5.87 3.02-8.45 1.01-1.53 1.67-.24 3.06 1.06 2.73 2.66 8.77 6.23 11.12 9.45.27 1.45-1.25 3.9-1.79 5.61-.81 1.52-.88 3.8-2.73 3.88m17.18-2.61-.06.06c-3.99 1.73-8.36 2.82-12.7 3.27-2.12-.14 1.71-6.99 2.11-7.95.95-2.24 2.91.07 4.42.69 1.59.9 3.71 2.1 5.19 2.94.83.46 1.28.73 1.04.99m.33-17.93c7.37 3.91 6.44 4.68 3.5 11.65-2.09 6.24-7.07 1.43-10.8-.22-1.61-.93-1.8-1.45-1.24-3.2.81-2.56 1.78-5.45 2.6-7.98 1.09-4.43 3.55-1.66 5.94-.25m-2.35-14.3c-.86 2.12-1.31 5.48-3.52 6.16-2.48.2-11.66-9.29-12.4-11.64-.69-2.32 1.06-5.11 2.06-7.39 1.13-2.19 1.85-4.54 3.17-6.52 1.6-2.86 6.37 5.35 8.76 7.23 5.56 4.61 3.69 5.89 1.93 12.16m3.83-12.55c-.33 1.13-.59 1.66-1.17 1.51-3.6-2.39-6.51-6.18-9.36-9.48-.62-.8-1.37-1.66-1.53-2.63.21-2.97 2.37-5.75 3.48-8.75 1.03-2.02 2.19-5.39 3.21-6.59.31-.15.67.4 1.37 1.45 2.01 3.02 4.4 6.6 6.45 9.69 1.3 1.65.89 2.61.33 4.6-.88 3.23-1.92 7.06-2.78 10.2" style="fill:#ec7cad"/></svg>