<svg xmlns="http://www.w3.org/2000/svg" viewBox="0 0 128 128"><path d="M56.72 6.33c10.31 0 20.62.15 30.93-.05 5.66-.11 8.11 3.53 8.5 8.27.37 4.48.34 8.92-2.67 12.88-.8 1.05-.71 3.35-.17 4.74 3.02 7.84 4.48 15.87 4.4 24.3-.16 17.6 0 35.2-.09 52.8-.01 2.43-.4 4.98-1.25 7.25-1.51 4.06-5.32 5.09-9.06 5.12-20.39.14-40.78.09-61.17.05-5.75-.01-10.76-4.45-10.55-11.38.54-17.7.32-35.43.14-53.14-.09-8.66 1.34-16.9 4.35-25.01.63-1.7.24-4.34-.71-5.95-3.29-5.59-3.13-11.23-.3-16.6.89-1.69 3.93-3.09 6.03-3.15 10.53-.32 21.07-.14 31.61-.14Z" style="fill:#4a3726;stroke-width:0"/><path d="M56.48 116.57H26.91c-4.83 0-6.89-1.97-6.89-6.76-.02-18.74-.36-37.48.18-56.2.18-6.32 2.49-12.61 4.07-18.86.69-2.74 3.19-2.81 5.56-2.8 16.08.12 32.16.24 48.23.32 2.14.01 4.28-.24 6.43-.32 2.57-.09 4.47.96 5.07 3.57 1.66 7.26 4.14 14.3 4 21.99-.31 17.25-.09 34.52-.1 51.78 0 5.47-1.93 7.3-7.4 7.28-9.86-.03-19.71 0-29.57 0Z" style="fill:#f4f8f4;stroke-width:0"/><path d="M90.68 12.59v10.08c-1.34.27-2.69.79-4.05.79-19.91.05-39.83.05-59.74 0-1.28 0-2.57-.4-4.05-.65V12.78c1.44-.32 2.89-.9 4.34-.91 19.69-.06 39.37-.05 59.06-.01 1.38 0 2.75.43 4.44.72Z" style="fill:#dd6534;stroke-width:0"/><path d="M86.21 108.3c-1.42.38-2.73 1.02-4.04 1.02q-25.47.105-50.94 0c-1.3 0-2.6-.67-4.23-1.12 1.83-22.8-1.99-45.28 2.28-67.9 1.8-.35 3.18-.84 4.55-.84q22.92-.075 45.84 0c1.29 0 2.58.44 4.44.78.71 5.61 1.92 11.04 2 16.49.26 16.9.1 33.8.1 51.57" style="fill:#4a3726;stroke-width:0"/><path d="M79.66 75.42v27.55H33.79V75.42z" style="fill:#dd6534;stroke-width:0"/><path d="M73.39 56.36c-2.35-1.17-4.31-2.01-6.15-3.08-4.61-2.68-6.7-8.33-2.09-12.78 1.67-1.61 2.71-3.3 2.84-5.86.28-5.3 6.78-9.72 11.96-7.03 2.24 1.16 4.25 2.77 6.75 4.42 2.25-.49 4.51.8 6.52 2.42 2.31 1.85 2.89 4.56 2.2 7.26-.61 2.41-1.83 4.66-3.24 8.12.59.35 1.59 1 2.65 1.53 5.27 2.62 8.89 6.78 10.73 12.25 1.08 3.22 1.75 6.72 1.82 10.11.09 4.54.51 8.92 1.82 13.3.82 2.74.87 5.71 1.25 8.58.56 4.15.96 8.32 1.69 12.43 1.16 6.55-1.53 11.42-8.38 11.85-3.46.22-6.24-2.28-8.12-5.2-2.59-4.02-4.91-8.23-7.46-12.28-4.85-7.7-9.87-15.31-14.63-23.06-1.05-1.7-1.8-3.84-1.9-5.82-.21-4.04 0-8.12.27-12.16.1-1.52.85-2.99 1.47-5.01Z" style="fill:#4a3726;stroke-width:0"/><path d="M76.67 59c1.62.22 3 .16 4.19.6 3.49 1.28 5.52.71 7.58-2.39.62-.94 1.28-1.86 1.96-2.85 3.41.48 5.96 2.21 7.84 4.57 3.3 4.14 4.78 9.01 5.34 14.32.73 6.93 1.97 13.8 2.95 20.7.78 5.43 1.64 10.86 2.21 16.31.24 2.33-.99 4.35-3.11 5.48-2.1 1.12-3.92.13-5.24-1.49-1.39-1.71-2.54-3.62-3.73-5.48C90.71 99.42 84.86 90 78.81 80.7c-4.35-6.68-4.41-13.66-2.15-21.71Z" style="fill:#dd6534;stroke-width:0"/><path d="M66.26 46.4c.64-3.49 1.97-4.12 7.2-5-.44-.91-.78-1.77-1.25-2.55-1.14-1.92-1.02-3.79.24-5.54 1.32-1.84 3.22-2.59 5.43-2.03 2.14.54 3.67 1.8 3.95 4.18.1.87.32 1.72.54 2.86.75-.44 1.32-.62 1.66-1 1.48-1.65 3.09-2.43 5.18-1.08 2.19 1.41 2.99 3.4 2.06 5.96-.81 2.23-1.84 4.39-2.88 6.53-.9 1.84-1.93 3.61-2.93 5.4-1.05 1.89-2.7 2.08-4.45 1.28-4.03-1.85-8.07-3.68-11.96-5.8-1.21-.66-2.97-1.76-2.8-3.21Z" style="fill:#7fa95f;stroke-width:0"/></svg>