<svg xmlns="http://www.w3.org/2000/svg" data-name="fill_ethanol" viewBox="0 0 128 128"><path d="M94.38 55.29v48.35h.19c0 4.57.34 9.17-.1 13.7-.41 4.23-4.63 7.55-8.94 7.57-14.31.06-28.62.07-42.93 0-5-.02-9.08-4.06-9.17-9.23-.06-3.82-.02-15.87-.04-18.07-.07-12.24-.03-24.48-.03-36.72 0-6.41-.12-12.83.05-19.24.05-1.89.48-4.07 1.51-5.58 3.66-5.33 7.67-10.43 11.09-15.02 0-3.41-.29-6.4.07-9.31.61-4.98 4.93-8.59 9.95-8.66 4.8-.06 9.6-.01 14.4-.01 9.88-.18 14.68 8.33 11.08 17.19 3.82 5.08 7.56 10.01 11.22 15 .76 1.04 1.65 2.31 1.69 3.5.18 5.41.08 10.84.08 16.26z" style="fill:#4a3726;stroke-width:0"/><path d="M87.15 100.02H40.71V59.05h46.44z" style="fill:#aecace;stroke-width:0"/><path d="M76.8 26.01c3.42 4.6 6.92 9.01 10.03 13.69.82 1.23.5 3.26.56 4.92.08 2.16.02 4.32.02 6.71H40.58c0-3.46-.03-6.91.03-10.37 0-.52.29-1.11.61-1.54 3.02-4.07 6.02-8.16 9.16-12.13.54-.69 1.73-1.21 2.62-1.22 7.81-.09 15.62-.05 23.8-.05Zm10.47 82.05-.06 7.91c-1.22.93-2.64.85-4.06.85H47.27c-1.2 0-6.74-.16-6.74-2.36v-6.55c.4-.25.54-.43.69-.43 15.17 0 30.35.02 45.52.04q.27.255.51.54Z" style="fill:#d6d6d5;stroke-width:0"/><path d="M74.88 11.13c.37 3.35 1.24 7.84-3.37 7.73-4.97-.1-9.94 0-14.91-.05-2.48-.03-3.71-1.51-3.72-4.24 0-2.72 1.23-4.21 3.71-4.24 4.88-.05 9.75-.06 14.63.02 1.07.02 2.13.44 3.66.78" style="fill:#aecace;stroke-width:0"/><path d="M46.05 87.28h4.21c0 1.58 0 2.57.03 2.98.02.41.11.76.26 1.04s.35.42.61.42c.22 0 .39-.13.53-.4s.22-.61.24-1.03.03-1.26.03-2.54v-5.4c-.21.91-.52 1.59-.94 2.04s-.94.68-1.55.68q-1.155 0-2.04-1.26c-.59-.84-.97-1.84-1.13-3.02-.16-1.17-.24-2.76-.24-4.75v-2.7c0-2.37.05-4.14.14-5.3s.33-2.23.73-3.22c.39-.98.93-1.75 1.62-2.29s1.49-.82 2.4-.82c1.13 0 2.05.31 2.77.94s1.28 1.53 1.68 2.71q.6 1.77.69 3.72c.06 1.3.09 3.81.09 7.54v4.71c0 4.04-.03 6.73-.08 8.1-.06 1.36-.3 2.65-.73 3.86s-1.01 2.13-1.74 2.73c-.73.61-1.57.91-2.53.91-1.19 0-2.16-.39-2.92-1.15-.76-.77-1.3-1.85-1.63-3.25s-.5-3.16-.5-5.28Zm4.21-10.57c0 1.42.09 2.31.28 2.64.18.34.37.5.57.5.29 0 .51-.21.64-.64.14-.42.2-1.26.2-2.5v-6.14c0-1.49-.06-2.47-.19-2.93s-.34-.69-.64-.69c-.18 0-.37.18-.56.53-.19.36-.29 1.32-.29 2.88v6.35Zm17.3-2.85v11.31q0 3.855-.21 5.61c-.21 1.755-.43 2.27-.87 3.29s-.97 1.75-1.59 2.2c-.62.44-1.31.67-2.08.67-1.01 0-1.85-.24-2.51-.7-.67-.47-1.2-1.2-1.6-2.19s-.68-2.03-.84-3.13c-.17-1.1-.25-2.84-.25-5.23V73.85c0-3.11.13-5.45.4-6.99.27-1.55.8-2.79 1.6-3.73.8-.93 1.76-1.4 2.89-1.4.92 0 1.75.33 2.48.97.73.65 1.28 1.44 1.64 2.38s.61 1.99.74 3.16.19 3.05.19 5.61Zm-4.22-2.85c0-1.8-.04-2.93-.13-3.38s-.29-.68-.61-.68-.52.24-.62.72-.15 1.6-.15 3.34v16.55c0 1.97.05 3.16.14 3.56.09.41.3.61.61.61s.52-.24.62-.71.15-1.54.15-3.2v-16.8Zm11.57-2.85v5.82q0 2.28-.21 3.42c-.14.76-.45 1.42-.92 1.99-.47.56-1.09.85-1.86.85-.89 0-1.57-.27-2.03-.81-.47-.54-.78-1.18-.94-1.94-.16-.75-.25-1.84-.25-3.25v-6.1c0-1.68.09-2.91.26-3.72.17-.8.5-1.46.99-1.96q.735-.75 1.8-.75c.79 0 1.44.28 1.93.83s.82 1.22.99 2 .25 1.98.25 3.6Zm-2.67-1.49c0-.89-.02-1.45-.07-1.65-.05-.21-.17-.32-.37-.32-.19 0-.31.11-.36.34-.06.22-.08.77-.08 1.63v8.55c0 .98.02 1.56.07 1.76s.18.29.39.29c.18 0 .3-.11.35-.34.05-.22.08-.75.08-1.57v-8.69Zm7.58-4.94-6.6 35.21h-1.61l6.63-35.21zm2.92 22.81v5.84c0 1.51-.07 2.65-.21 3.41a4.24 4.24 0 0 1-.92 2c-.47.57-1.09.85-1.86.85-.88 0-1.56-.27-2.03-.82a4.25 4.25 0 0 1-.95-1.95c-.16-.75-.24-1.83-.24-3.22v-6.12c0-1.66.08-2.89.26-3.7.17-.8.5-1.46.99-1.97s1.09-.76 1.81-.76c.8 0 1.45.28 1.94.84s.82 1.23.99 2.01c.16.78.25 1.98.25 3.58Zm-2.67-1.47c0-.89-.02-1.45-.07-1.66-.04-.22-.17-.33-.37-.33-.19 0-.31.11-.36.34-.05.22-.08.78-.08 1.65v8.55c0 .97.02 1.54.07 1.74s.17.29.38.29c.19 0 .31-.11.35-.33.05-.22.07-.74.07-1.58v-8.67Z" style="fill:#4a3726;stroke-width:0"/></svg>