<svg xmlns="http://www.w3.org/2000/svg" data-name="fill_weed" viewBox="0 0 128 128"><defs><linearGradient id="a" x1="-1720.54" x2="-1724.97" y1="-194.23" y2="-77.31" gradientTransform="matrix(.5 0 0 .5 962 148)" gradientUnits="userSpaceOnUse"><stop offset="0" stop-color="#5d8266"/><stop offset="1" stop-color="#2d5537"/></linearGradient><linearGradient id="b" x1="-1862.14" x2="-1756.76" y1="-112.1" y2="-59" gradientTransform="matrix(.5 0 0 .5 962 148)" gradientUnits="userSpaceOnUse"><stop offset="0" stop-color="#5d8266"/><stop offset="1" stop-color="#2d5537"/></linearGradient><linearGradient id="c" x1="-1791.93" x2="-1738.48" y1="-156.89" y2="-61.9" gradientTransform="matrix(.5 0 0 .5 962 148)" gradientUnits="userSpaceOnUse"><stop offset="0" stop-color="#547a5d"/><stop offset="1" stop-color="#2d5637"/></linearGradient></defs><path d="M51.33 8.17c.45.36.48 1.55 1.4 1.31 3.72-4.13 11.77-1.75 11.77 4.01 6.27-1.96 11.98 2.45 10 9 6.51-.28 8.84 7.02 5.5 11.99 3.88 1.42 5.26 6.43 3.22 9.98-.56.97-2.43 2.02-2.65 2.89-.27 1.05 1.03 2.41 1.17 3.58.56 4.65-2.64 8.31-7.24 8.58 1.7 3.6-.66 6.63-3.42 8.74l21.65 37.27.76.49c.84-5.43-4.3-6.8-4.94-11.8-.2-1.57.21-3.19-.27-4.73-.41-1.32-2.01-2.13-2.71-3.29-2.8-4.67.88-6.66 1.41-10.46.24-1.68-.48-2.93-.52-4.46-.14-5.13 3.49-5.85 5.15-9.39 1.01-2.16.95-4.78 2.29-7.21.61-1.11 5.25-7 6.11-7.39 1.17-.54 3.11-.41 4.19.29.82.54 4.67 6.64 5.17 7.82 1 2.35.67 4.82 1.52 6.99 1.25 3.18 4.6 4.67 4.61 8.89 0 1.68-1.08 3.71-1.03 5.49.11 3.35 2.74 4.15 1.54 8.54-.76 2.79-2.88 3.48-3.91 5.59-1.1 2.26-.19 4.81-1.68 7.32-.95 1.6-3.68 3.13-4.21 4.79-.45 1.43-.06 2.83-.26 4.24-.44 3.13-4.33 8.32-7.96 7.29 1.1 6.24-5.82 9.82-9.99 5 .09 2.18-1.4 3.37-3.37 3.88-.68.18-3.7.61-4.35.59-1.95-.08-4.76-2.29-6.58-2.47s-4.31 1.09-6.46 1.04c-2.62-.06-4.13-1.76-6.04-2.03-2.88-.4-5.23 1.6-8.21.24-2.24-1.03-3.59-3.63-5.53-4.97-2.32-1.6-5.6-1.63-7.48-4.02-1.27-1.61-1.68-4.62-2.76-6.24-.82-1.23-4.13-3.09-5.24-4.4-1.12-1.32-4.59-8.32-4.53-9.86.07-1.72 1.22-3.23 2.89-3.65 1.55-.39 6.83-1.1 8.39-1.11 2.38-.01 5.3 1.71 7.5 1.75 2.42.04 4.83-1.5 7.27-1.04 2.84.53 5.1 3.39 7.47 4.07 3.33.95 6.74-.21 8.95 3.55.81 1.38.89 3.49 1.85 4.65 1.32 1.6 4.35 2.12 5.95 4.54 1.13 1.71.93 4.18 2.26 5.74.92 1.08 1.83.8 2.65 1.25.6.33.07 1.16.86.98L61.91 74.1c-3.03.25-4.54 1.17-7.56-.19-.75-.34-1.42-1.57-2.1-1.39-.39.1-.58 1.06-.92 1.33-4.43 3.55-9.81 2.64-11.84-2.83-5.1 3.77-11.45-.54-11.51-6.48-5.6.89-10.78-5.16-7.53-10.27-4.26-2.21-6.51-4.69-5.35-9.89.33-1.46 2.54-2.77 2.37-3.54-.12-.53-1.66-1.49-2.09-2.44-1.9-4.23.5-9.28 5.12-9.87-3.1-5.7 1.14-11.58 7.5-11-.43-6.15 6.44-9.99 11.49-6.5C41.47 5.7 47 4.74 51.33 8.2Z" style="fill:#0b0d0c"/><path d="M22.69 26.9c-1.59-2.31-.25-6.02 2.63-6.63 2.94-.6 5.22 1.93 7.52 3.33 1.02.7.33-.55.13-1.11-1.06-2.7-4.04-6.42-1.09-8.9 2.24-1.71 5.31-1.64 6.61.33.63.39 4.06 7.36 3.4 3.68-.43-4.02-.35-10.04 5.71-8.51 3.24.78 3.41 5.05 3.31 7.83 0 .74.09 1.38.58 1.52.72.16.69-1.04.85-1.54.65-3.81 2.24-7.72 6.4-6.88 4.83.77 3.1 6.24 2.11 9.36-.18.61-.34.98-.37 1.45.05.1-.07.12.31.3.55.13.7-.62 1-.94 2.18-2.55 4.72-6.34 8.62-3.62.72.47 1.38 1.17 1.69 1.88 1.15 2.65-1.62 5.81-3.73 7.95-.5.55-1.59.8-1.66 1.45 3.48-.24 6.79-4.45 10.29-2.08 2.79 1.7 2.73 5.66.02 7.57-1.61 1.02-4.41 2.1-5.94 2.89-1.03.44-.3.2.52.26h6.59c.23.02.33.06.61.21 1.29.86 2.83 2.65 2.76 4.09.68 5.96-9.47 4.54-10.46 4.89-.05.03-.01.08.14.16 3.57 1.54 10.12 3.56 7.34 8.6-2.43 4.91-6.91.77-10.51.14-.78-.12-.05.53.28.93 1.56 1.79 3.8 3.47 4.12 5.97.3 3.65-3.92 5.63-7.03 4.04-1.82-.89-2.38-3.93-4.63-3.95-.3.08 0 .55.16.96.81 1.96 1.61 4.2 1.2 6.34-.32 2.64-4.44 4.05-6.31 2.72-2.6-1.65-3.19-5.09-3.87-7.85-.4-.4-.66.3-.75.79-.79 2.57-.17 6.36-2.23 7.85-1.23.85-3.09.81-4.6.21-1.14-.44-2.28-1.12-2.39-2.34-.05-1.51.08-5.67-.05-7.16-.09 0-.48.41-.74.76-1.56 2.1-2.33 5.6-5.47 5.67-3.58.3-5.5-2.58-4.69-5.89.44-1.42 1.63-2.77 2.33-4.1.45-.75.71-1.39.59-1.47-.7.16-4 1.77-4.36 1.89-2.27 2.15-4.62 2.01-6.51-.32-3.43-4.06 2.27-6.3 4.61-8.84.16-.31-.08-.32-.46-.32-3.03.05-7.34 2.37-9.17-1.17-3.04-6.22 2.61-6.68 7.5-7.75.37-.15 1.22-.16 1.15-.69.07-.02-.3-.43-.3-.36-1.02-.26-2.34-.28-3.43-.46-2.32-.35-4.99-1.21-5.43-3.48-.79-4.44 1.94-6.11 6.08-5.44.88.11 1.72.27 2.38.37.89.1 1.46.26 1.57-.32.11-1.14-4.23-3.39-4.83-4.19l-.08-.1Z" style="fill:#f9e465"/><path d="M101.31 49.53c1.56-.48 4.14 4.35 4.78 5.63 1.66 3.37 1.37 6.15 2.55 8.95.72 1.72 3.09 3.37 3.63 5.37.81 2.97-.48 5.11-.28 7.76.15 2.06 1.63 4.33 1.55 6.5-.11 2.87-2.98 3.59-3.9 5.64s-.21 4.59-1.01 6.49c-.69 1.63-3.39 3.07-4.32 5.18-1.06 2.4-.39 4.67-1.19 6.81-.31.84-2.91 4.31-3.81 4.12-.65-.14-2.86-3.68-3.07-4.46-.62-2.26.28-4.8-.61-6.89-.67-1.57-3.44-3.64-3.9-5.1-.65-2.05.21-4.51-.44-6.56-.63-1.97-3.78-3.73-3.8-6.21-.01-2.29 2.24-4.63 2.42-6.62.18-1.95-.99-4.97-.3-7.29.35-1.16 3.62-3.87 4.34-5.16 1.07-1.92 1.05-4.94 1.97-7.03.34-.77 4.98-6.99 5.41-7.12Z" style="fill:url(#a)"/><path d="M53.17 117.82c-1.26-.79-2.44-3.09-3.7-4.04-2.32-1.76-5.73-1.67-7.48-4.02-1.21-1.62-1.53-3.98-2.78-5.72-1.51-2.11-4.11-3.11-5.64-5.36-.46-.67-3.47-6.62-3.5-7.01-.05-.52.25-.9.64-1.19.91-.69 7.63-1.12 9.04-.97 2.74.29 4.23 1.68 7.51 1.53 1.88-.09 4.32-1.18 5.94-1.02 1.86.19 4.36 3.1 6.66 3.88s4.31.28 6.01.99c2.38 1.01 2.25 4.68 3.61 6.39 1.18 1.48 4.45 2.36 5.75 4.25 1.1 1.6 1.44 4.61 2.54 5.96 2.12 2.59 5.61 1.81 7.34 6.67 1.19 3.33-3.36 3.21-5.75 2.74-1.63-.32-4.29-2.29-5.64-2.38-1.67-.11-4.31 1.62-6.46 1.53-2.01-.08-4.09-2.18-6.14-2.44-2.65-.34-4.9 2.13-7.95.23Z" style="fill:url(#b)"/><path d="M65.32 68.54c1.03-.33 3.26.54 3.92 1.47 7.47 14.38 16.77 27.85 24.35 42.15.49.93 1.88 3.29 1.92 4.13.12 2.23-3.18 3.72-4.76 2.2-7.52-13.51-15.92-26.59-23.34-40.16-.79-1.45-3.09-4.94-3.33-6.21-.17-.93.31-3.29 1.24-3.59Z" style="fill:url(#c)"/><path d="M23.03 59.15c-.21-.49-.06-1.16.38-1.57.87-.72 2.49.57 3.79.41.76-.03 1.57-.29 2.33-.15.74.12 1.22.65.88 1.17-1.47 1.86-5.78 2.23-7.32.27l-.06-.12Z" style="fill:#fefdf6"/><path d="M46.38 22.63c26.16-3.76 29.9 34.51 5.82 37.32s-28.58-34.04-5.82-37.32" style="fill:#fbdd35"/><path d="M20.7 36.09c.55-.19 1.27-.07 2.26.08 1.55.34 2.98.46 4.22 1.29 1.09.72.88 2.06-.38 2.45-.73.3-2.05-.21-3.21-.49-1.08-.32-2.27-.5-3.1-1.27-.75-.64-.73-1.6.08-2l.14-.06Zm5.23-7.23c-.79-.54-1.6-.85-1.79-1.79-.09-.5-.01-1.18.49-1.42 1.57-.7 5.7 2.39 6.27 3.71.21.36-.24 1.01-.43 1.12-1.51 1.4-3.04-.81-4.38-1.5l-.16-.11Zm6.84-11.88c1.54-.4 5.61 5.32 3.16 6.44-1.51.53-5.16-5.63-3.27-6.4l.11-.03Zm-7.9 32.91c-1.93.54-5.32.44-6.19-1.82-.31-.79.26-1.65 1.14-1.58 1.32.29 2.48 1.08 3.92 1.07 1.17.03 1.71 1.28 1.23 2.24z" style="fill:#fefdf6"/><path d="M102.5 71.5c.03 12.18-.78 24.35-1.52 36.48-3.61.98-3.1-2.59-2.99-5.25.35-8.79 1.17-17.68 2.02-26.48.23-2.4-1.08-5.25 2.5-4.75Z" style="fill:#385f41"/><path d="M92 69.5c-.41-2.49 2.48-3.82 3.37-5.88.59-1.38.77-3.58 1.15-5.1 1.48-.14 2.56-.14 2.39 1.6-.36 3.65-2.66 9.33-6.91 9.38" style="fill:#669773"/><path d="M49.02 102.98c-.44-.63.53-2.27 1.3-2.4 10.68 4.6 20.87 10.44 31.37 15.48 1.57 1.07.97 3.16-.94 2.99-8.74-4.01-17.33-8.6-25.74-13.31-.94-.53-5.8-2.49-5.99-2.76" style="fill:#385f41"/><path d="M36 98c1.12-1.12 5.77 2.69 6.5 3.74.65.92 3.09 6.35 1.24 6.75-2.41-.58-2.32-4-3.52-5.47-1.34-1.65-4.89-2.12-4.22-5.02" style="fill:#669773"/></svg>