<svg xmlns="http://www.w3.org/2000/svg" data-name="fill_mohn" viewBox="0 0 128 128"><path d="M113.11 91.44c-5.14 7.64-11.86 14.36-20.06 18.66-9.43 4.67-17.84 8.03-25.21-1.91-.68-.83-.75-.83-1.39.06-5.43 7.67-15.46 11.44-24.59 9.27-3.31-.73-6.2-2.39-8.92-4.36-6.64-4.7-12.43-10.68-16.38-17.84-2.08-3.79-3.61-7.8-4.78-11.97-.6-2.14-.84-4.28-.59-6.43.3-3.76 2.98-6.57 5.74-8.86.93-.8 1.02-1.15.17-2.05-1.91-2.01-3.51-4.23-4.63-6.78-3.11-6.84-2.48-14.77 1.45-21.15C20.86 26.1 34.91 14.65 48.91 13c3.95-.05 7.07 1.67 9.69 4.42 2 2.09 1.78 1.94 3.59.08 3.22-3.3 7-5.67 11.51-6.82 5.56-1.55 11.42-.86 16.37 2.11 8.22 4.46 15.34 11.03 20.11 19.1 2.51 4.25 4.33 8.78 5.55 13.54 1.55 5.5-1 10.09-5.07 13.69-.73.77-.69 1.24-.05 2.07 1.3 1.71 2.68 3.36 3.79 5.18 4.67 7.67 3.82 17.87-1.3 25.08Z" style="fill:#4a3726;stroke-width:0"/><path d="M47.02 119.9c-1.87 0-3.74-.21-5.57-.65-3.09-.68-6.05-2.12-9.55-4.65-7.33-5.19-13.02-11.39-16.9-18.42-2.04-3.73-3.65-7.76-4.93-12.35-.69-2.43-.91-4.83-.65-7.11.34-4.34 3.38-7.51 6.1-9.8-2.06-2.23-3.6-4.52-4.68-6.98-3.32-7.29-2.74-15.82 1.56-22.8C18.86 25.98 33 13.08 48.7 11.23h.19c4.2-.09 7.76 1.56 11 4.96l.13.13c.14.14.28.3.42.44l.06-.06.43-.44c3.57-3.66 7.72-6.12 12.34-7.3 6.1-1.69 12.41-.88 17.73 2.3 8.71 4.72 15.9 11.55 20.73 19.72 2.53 4.27 4.46 8.98 5.74 14 1.52 5.4-.33 10.67-5.35 15.23.27.35.53.69.8 1.03 1.03 1.33 2.1 2.7 3.02 4.19 4.92 8.08 4.38 18.94-1.36 27.02-5.7 8.46-12.85 15.11-20.7 19.23-7.7 3.82-18.13 8.99-26.69-1.43-4.79 6.08-12.47 9.65-20.17 9.65m2.02-105.12c-14.45 1.75-27.52 13.76-33.57 24.19-3.7 6.01-4.21 13.29-1.37 19.52.97 2.21 2.37 4.26 4.3 6.29.56.6 1.12 1.34 1.07 2.35-.06 1.15-.91 1.88-1.37 2.28-2.41 2-4.88 4.46-5.13 7.66-.21 1.9-.04 3.78.53 5.8 1.21 4.33 2.72 8.12 4.62 11.6 3.61 6.55 8.95 12.35 15.85 17.24 3.1 2.24 5.65 3.5 8.27 4.08 8.42 2 17.77-1.52 22.76-8.56.42-.59.99-1.39 2.07-1.43 1.06-.02 1.69.71 2.14 1.26 6.5 8.75 13.34 6.25 23.04 1.44 7.29-3.83 14-10.08 19.37-18.06l.03-.04c4.86-6.83 5.36-16.34 1.23-23.12-.81-1.32-1.77-2.55-2.78-3.86-.3-.39-.6-.77-.9-1.16-1.19-1.55-1.14-2.98.17-4.37l.12-.11c4.19-3.7 5.71-7.69 4.54-11.88-1.21-4.73-3.02-9.13-5.37-13.11-4.5-7.61-11.22-13.98-19.43-18.44-4.54-2.72-9.87-3.4-15.05-1.96-4.07 1.04-7.56 3.11-10.71 6.35l-.4.42c-.8.83-1.49 1.55-2.61 1.55-1.16 0-1.86-.73-3.01-1.93l-.13-.13c-2.48-2.6-5.18-3.87-8.23-3.87h-.06Z" style="fill:#4a3726;stroke-width:0"/><path d="M82.59 83.33c-.87-1.76-3.88-4.56-4.51-6.42-1.09-2.58.35-5.6 2.96-6.61 1.21-.55 3.36-.57 4.63-.73.18-.06.03-.17-.39-.32-.99-.43-2.65-.74-3.34-1.68-.34-.8 3.07-1.61 2.47-1.83-1.32-.56-3.68-1.04-4.06-2.65.52-3.94 9.03-3.79 12.41-3.77 11.65.23 20.38 6.95 20.31 19.13-1.15 13.73-13.19 24.73-26.07 28.58-4.26 1.23-9.69 1.28-13.12-1.73-3.65-3.35-1.8-8.23-1.58-12.89.09-1.51.08-3.01 0-4.52-.15-3.3-2.16-11.94 3.87-9.53 2.63 1.07 4.59 3.88 6.42 4.99ZM47.83 46.08c.83 1.92 3.38 4.13 3.9 6.41.49 2.01-1.35 2.32-1.93 3.14-.47.98.32 2.43-1.33 3.27-1.15.56-2.85.63-4.02.79-.15.05 0 .12.39.25.27.1.64.23 1.03.39.61.27 1.32.55 1.79 1.01.92.83-2.51 1.66-2.06 1.94.39.23.87.35 1.33.58 3.93 1.66-.35 3.44-2.57 3.83-5.71.93-12.05.86-17.52-1.14-6.25-2.28-10.68-8.3-11.21-14.89-1.79-15.41 19.58-33.93 34.49-31.35 7.51 1.48 6.12 7 5.18 13.22-.2 2.08-.2 4.18-.06 6.27-.25 2.51 3.27 12.57-2.01 10.47-2.09-.87-3.83-3.32-5.38-4.2Zm32.37 7.24c-.41-1.29 2.62-3.65 2.85-4.24-1.36.6-3.88 2.65-5.71 2.85-.6.12-1.3-.01-1.66-.41-.55-.52-.7-1.34-1.03-1.97-.53-.69-1.52.09-2.65-.41-.28-.11-.55-.26-.78-.44-.5-.35-.81-.95-1.35-1.18-.41-.16-1.04.38-1.6-.21-.44-.48-.66-1.25-.94-1.8-.16-.36-.26-.33-.4-.08-.31.59-1.21 2.51-2.24 2.56-3.63-.9-3.43-10.12-3.39-13.33.27-5.71 1.8-11.74 6.13-15.64 4.52-4.13 11.18-5.65 17.05-4.07 11.86 3.43 20.86 14.03 24.39 25.74 1.28 4.54 1.64 11.85-3.43 13.96-3.76 1.08-8.43-1.48-12.69-1.29-2.69-.11-5.43.11-8.1.45-1.44.11-3.67.57-4.45-.42l-.03-.05Zm-33.97 26.8c2.2-1.06 8.09-6.77 7.89-.38.02.81-.02.92.7.48 4.41-2.93 3.65 3.56 3.34 5.92-.22 2.25.63-.63.91-1.44.47-1.09.72-2.59 1.65-3.3.75-.4 1.23 3.61 1.53 3.53.55-.87.68-2.51 1.36-3.32 2.12-1.76 2.68 8.9 2.49 10.14 0 8.33-3.19 17.04-11.13 20.5-16.21 6.6-31.16-10.09-35.83-24.26-1.45-4.86-2-12.75 3.33-15.24 2.97-1.04 6.17.6 9.68 1.13 3.41.57 6.93.54 10.37.19 2.75-.3 5.77-.93 6.96-.42 2.53 1.19-2.98 5.34-3.27 6.47z" style="fill:#db163b;stroke-width:0"/></svg>