<svg xmlns="http://www.w3.org/2000/svg" data-name="fill_roadsalt" viewBox="0 0 128 128"><defs><linearGradient id="a" x1="-1648.16" x2="-1647.94" y1="-413.14" y2="-220.14" gradientTransform="matrix(.5 0 0 .5 888 222)" gradientUnits="userSpaceOnUse"><stop offset="0" stop-color="#b3cddd"/><stop offset="1" stop-color="#84a7ce"/></linearGradient><linearGradient id="b" x1="-1649.81" x2="-1649.99" y1="-355.68" y2="-283.68" gradientTransform="matrix(.5 0 0 .5 888 222)" gradientUnits="userSpaceOnUse"><stop offset="0" stop-color="#56a2cf"/><stop offset="1" stop-color="#2e6aa2"/></linearGradient></defs><path d="M107 58c.49 3.58.48 7.42 0 11-.28 9.27-1.75 18.05-3.63 27.12-.29 1.41-1.31 3.34-1.35 4.69-.07 2.8 4.15 9.47 4.89 12.56.31 2.02-1.79 3.33-3.64 3.15H23.72c-1.54.32-3.17-1.17-3.1-2.68.14-2.85 4.72-9.3 5.32-12.57-7.14-24.41-7.13-50.15 0-74.54-.6-3.27-5.18-9.72-5.32-12.57-.05-1.08 1.02-2.53 2.14-2.65l82.73.25c.39.36 1.07.81 1.28 1.26.79 1.7-4.71 11.26-5.21 13.71 3.21 10.14 5.1 20.64 5.44 31.27" style="fill:#090c0d"/><path d="M103.5 15c-1.16 4.03-3.37 7.71-4.88 11.66 7.8 24.56 7.76 50.39.39 75.06L104 113.5H24.35L24 113c.8-2.01 4.76-10.27 4.87-11.32.14-1.38-1.8-7.1-2.21-9.09-3.71-18.15-4.41-34.37-1-52.69.51-2.73 3.39-11.95 3.21-13.59-.14-1.31-4-9.14-4.87-11.32.03-.28.06-.5.09-.5 26.09-.17 52.96-.16 79.06 0 .12 0 .23.22.35.5Z" style="fill:url(#a)"/><path d="M32.5 84.5c-1.31-.69-2.6-1.95-1.74-3.48l29.25-39.28c.46-2.32 2.39-2.65 4.49-1.98l29.91 40.08c1.29 2.18 1.77 3.69-.91 4.66-20.06.47-40.94.46-61 0" style="fill:#193e5d"/><path d="M71 102.5c-4.74.57-9.76.57-14.5 0-.63-.81-.8-2.06.33-2.43 1.23-.4 10.08-.24 11.95-.1 1.48.11 3.63.81 2.22 2.53M57.5 26c4.01-.67 8.47-.52 12.5 0 .33.02.67-.03 1 0-.09.65.23 2.06-.07 2.45-.17.22-.74-.03-.93.05-4.28.49-8.72.57-13 0-1.58-.99-1.45-2.22.5-2.5m24.75 74h8.5c.14 0 1.37 1.2 1.25 1.74-.44 1.93-8.49 1.36-10 .52-.97-.54-.5-1.82.25-2.25Zm-46 0h8.5c.79 0 1.83 2.5.5 2.5h-9c-.76 0-1.16-2.05 0-2.5m9.25-74v2.5h-9.25c-.94 0-.94-2.5 0-2.5zm46 0v2.5h-9.25c-.94 0-.94-2.5 0-2.5z" style="fill:#f6f9fb"/><path d="M70 28.5c-.66.27-.69.46-1.69.53-2.61.19-7.58.27-10.11 0-.77-.08-.74-.24-1.2-.53zm0-2.5c-3.28-.16-9.47-.44-12.5 0 .51-.83 1.9-.5 2.74-.51 2.33-.02 4.68-.03 7.01 0 .84 0 2.24-.33 2.74.51Z" style="fill:#9ebcd7"/><path d="m33.5 82 29.26-39.5L92.5 82z" style="fill:url(#b)"/><path d="M59.5 66c-.87-1.9-5.14-3.99-4.46-6.2.93-3.03 5.19 3.26 6.46 3.7l-.02-6.17c4.16-2.67 2.86 4.12 3.03 6.67 1.58-.63 4.06-4.92 5.74-4.5 3.04.77-3.49 5.51-3.74 6.49 2.69.5 8.2-1.64 7.5 2.5h-7.5c.58 1.54 6.67 5.37 4.46 6.96-1.76 1.27-4.94-3.83-6.46-4.46-.44 2.64 1.55 7.68-2.5 7v-7c-2.85.46-3.83 5.48-7 4-.18-3.22 3.98-3.68 4.5-6.5-2.69-.49-8.2 1.64-7.5-2.5h7.5Z" style="fill:#f6f9fb"/></svg>