<svg xmlns="http://www.w3.org/2000/svg" data-name="fill_air" viewBox="0 0 128 128"><defs><linearGradient id="a" x1="1637.13" x2="1872.11" y1="1025.89" y2="1029.08" gradientTransform="matrix(.5 0 0 .5 -814 -444)" gradientUnits="userSpaceOnUse"><stop offset="0" stop-color="#f1f2f2"/><stop offset="1" stop-color="#89d0ec"/></linearGradient><linearGradient id="b" x1="1847.23" x2="1645.06" y1="968.79" y2="969.1" gradientTransform="matrix(.5 0 0 .5 -814 -444)" gradientUnits="userSpaceOnUse"><stop offset="0" stop-color="#89d0ec"/><stop offset="1" stop-color="#f0f1f2"/></linearGradient><linearGradient id="c" x1="1829.22" x2="1645.66" y1="1063.4" y2="1064.05" gradientTransform="matrix(.5 0 0 .5 -814 -444)" gradientUnits="userSpaceOnUse"><stop offset="0" stop-color="#8ad0ec"/><stop offset="1" stop-color="#f0f2f2"/></linearGradient></defs><path d="m111.08 66.16-3.08-4.9c.26-1.24 5.44-.8 6.51-.52 1.63.43 8.77 7.2 9.27 8.74.38 1.2.37 1.74-.26 2.8-.28.47-7.27 7.43-7.76 7.74-2.14 1.3-5.46 1.23-7.76.48-.94-1.41 2.55-4.09 3.08-5.5-3.47.12-5.77-.57-9.07-1.75-3.08-1.1-5.76-2.93-8.34-4.31-11.58-6.21-15.67 8.41-30.19 4.84-8.28-2.04-11.47-10.84-21.63-5.17-6.86 3.83-9.81 7.57-18.98 5.28-4.52-1.13-8.23-5.69-11.86-6.64-2.81-.74-7.37.32-7.06-4.49.33-5.19 8.51-2.89 11.56-1.51 3.46 1.57 6.57 5.21 10.28 5.72 8.33 1.13 11.74-6.59 20.02-7.39 11.74-1.13 14.87 8.05 23.46 7.46 7.14-.49 9.83-8.1 20.5-7.54 9.27.49 11.61 8.56 21.31 6.68Z" style="fill:url(#a)"/><path d="M97.72 35c2.05.24-5.56-4.93-.49-5.53 2.93-.34 4.97-.33 7.5 1.14 3.23 1.88 8.02 7.74 6.3 10.66-.47.8-7.92 7.94-8.74 8.26-1.25.49-6.38 1.05-6.78-.3.27-2.46 1.77-3.16 2.87-5.26l-12.16.09c-3.09 0-9.74 8.06-18.88 7.49-8.22-.51-11.65-7.66-18.85-7.32s-10.8 7.16-20.73 6.79c-6.82-.25-9.95-3.34-15.24-6.11-2.19-1.15-6.43-2.07-4.62-6.28 2.95-6.88 12.98 2.88 16.13 4.11 9.6 3.73 13.6-5.7 22.3-6.69 11.63-1.32 14.87 8.31 23.53 6.75 5.59-1.01 9.05-5.15 16.17-6.31 3.19-1.41 8.85-1.84 11.72-1.5Z" style="fill:url(#b)"/><path d="M85 96.99c-.95-1.4.22-1.63.72-3.01-4.57-.84-3.25-.65-6.57 1.41-7.78 4.82-11.87 4.13-18.15 1.35-5.25-2.32-6.03-6.26-13.27-5.77-6.77.46-10.28 7.84-19.96 7.53-7.09-.23-9.21-4.05-14.43-6.6-2.5-1.22-7.61-1.58-5.27-6.09 3.28-6.31 12.69 3.16 15.94 4.43 10.28 4 14.68-7.78 26.24-6.74 7.54.68 11.97 7.06 17.51 7.49 8.59.66 12.67-8.65 21.74-7.5L85 77.75c3.16-1.81 7.04-1.39 9.78.71 2.01 1.54 8.21 7.34 7.46 9.88-.17.58-9.02 7.93-9.78 8.36-2.18 1.23-5.42 1.9-7.46.28Z" style="fill:url(#c)"/><path d="M106 64c-2.47-6.42 4.53-6.82 9.14-5.88 2.01.41 10.84 8.92 11.26 10.74.35 1.49.25 3.04-.35 4.44-.48 1.12-6.6 7.35-7.79 8.21-4.62 3.33-15.82 3.5-11.75-4.49-9.87-.67-13.3-9.81-21.14-6.9-5.35 1.97-7.12 6.24-14.61 6.89-16.08 2.23-17.17-15.31-31.59-3.09-6.42 3.71-13.62 4.32-20.49 1.19-2.63-1.2-5.42-4.25-7.88-5.12-2.14-.75-4.2-.14-6.23-1.27C-.51 65.9.76 57.74 6.77 57c10.2-1.26 13.29 6.43 19.49 7.03s6.15-1.69 10.43-4.12c7.29-4.13 15.4-4.14 22.69 0 4.29 2.43 4.4 4.7 10.43 4.12 3.19-.31 4.49-2.43 7.07-3.92 11.64-6.48 19.08-2.83 29.15 3.9Zm6.5 3c-9.7 1.88-13.46-7.02-22.73-7.51-10.67-.57-13.36 7.04-20.5 7.54-8.59.59-11.72-8.59-23.46-7.46-8.28.8-11.69 8.53-20.02 7.39-3.71-.51-6.82-4.15-10.28-5.72-3.05-1.38-11.23-3.68-11.56 1.51-.31 4.8 4.26 3.75 7.06 4.49 3.62.95 7.34 5.52 11.86 6.64 9.17 2.29 12.11-1.45 18.98-5.28 10.16-5.67 13.35 3.13 21.63 5.17 14.51 3.57 19.29-11.58 30.87-5.37 5.18 4.2 11.17 6.86 18.15 6.11-.54 1.41-5.44 4.58-4.5 5.99 2.3.75 5.62.82 7.76-.48.5-.3 7.49-7.26 7.76-7.74.62-1.07.64-1.61.26-2.8-.49-1.54-7.63-8.31-9.27-8.74-1.07-.28-6.25-.72-6.51.52zM94 33.5c-4.77-7.65 6.99-7.99 11.25-5 .91.64 7.8 7.57 8.18 8.32 3.12 5.05-4.58 10.78-7.7 13.67-4.28 3.97-16.08 3.4-11.74-4.48-17.74-1.06-16.68 17.4-40.98 1.23-8.47-4.08-11.91 4.77-19.99 6.04-11 1.73-12.59-2.16-20.69-6.36-2.78-1.44-5.54-.9-6.86-4.64-2.12-6.02 2.94-9.55 8.62-8.12 6.92 1.73 10.87 9.34 18.53 5.73 8.27-3.89 7.9-7.57 19.61-6.38 7.86.8 12.54 9.51 20.12 6.6 9.13-5.8 10.04-7.41 21.64-6.61Zm5 2.5c-17.32-.94-16.37 3.13-28.74 7.5-8.75.87-12.32-8.77-23.95-7.45-8.7.99-12.7 10.42-22.3 6.69-3.15-1.23-13.18-10.99-16.13-4.11-1.81 4.21 3.57 4.63 5.07 5.67 18.04 12.54 19.81 3.81 35.28-.83 7.21-.34 11.29 7.39 19.53 7.51s15.49-6.76 18.49-7.49 13.75 0 13.75 0c-5.14 5.12-7.01 7.85 2.29 6.04.67-.27 5.85-5.16 7.92-7.32.65-.68.98-1.61.85-2.54-.69-5.23-8.6-11.45-13.83-10.2-5.07.6 3.27 5.1 1.77 6.52Z" style="fill:#101314"/><path d="M82.49 96.5c-21.4 14.15-27.07-7.8-38.02-1.78-12.04 9.23-20.48 7.95-32.13-.31-3.46-1.8-7.87-1.75-7.32-7.6.62-6.51 7-6.18 11.65-4.24 5.72 2.39 8.41 7.86 15.52 4.88 8.31-3.48 7.79-7.5 19.57-6.47 7.39.65 12.09 7.64 17.75 7.29 5.2-.33 9.07-6.36 14.48-6.77-6.05-7.66 6.16-8.86 10.75-5.49 3.01 3.09 10.52 8.05 8.63 13.13-.45 1.74-9.02 10.16-10.86 10.64-3.03.79-10.01 1.11-10.02-3.26Zm2.51.49c6.44 2.82 11.48-3.82 15.17-8.02.54-.61.69-1.46.44-2.23-1.76-5.47-9.97-12.39-15.61-8.99l4.5 5.74c-9.07-1.16-13.15 8.16-21.74 7.5-5.54-.43-9.97-6.81-17.51-7.49-11.56-1.05-15.96 10.74-26.24 6.74-3.25-1.26-12.66-10.74-15.94-4.43-2.34 4.51 2.77 4.88 5.27 6.09 5.22 2.54 7.35 6.37 14.43 6.6 9.68.31 13.19-7.07 19.96-7.53 7.24-.49 8.03 3.45 13.27 5.77C75.7 103.14 79.39 91 89.5 91c-.5 1.38-5.44 4.58-4.5 5.99" style="fill:#101314"/></svg>