<svg xmlns="http://www.w3.org/2000/svg" data-name="fill_tarp" viewBox="0 0 128 128"><defs><linearGradient id="a" x1="-2092.6" x2="-2092.4" y1="-396.16" y2="-230.16" gradientTransform="matrix(.5 0 0 .5 1110 222)" gradientUnits="userSpaceOnUse"><stop offset="0" stop-color="#5d6d68"/><stop offset="1" stop-color="#37534a"/></linearGradient></defs><path d="m124.38 82.88-59.37 28.9-1.63.14L3.62 82.88c-.57-.77-.58-1.69-.65-2.61-.18-2.53-.31-7.65 0-10.05.14-1.13.88-1.64.95-2.07.08-.47-.82-1.32-.95-2.37-.59-4.8.42-10.97.13-15.93l2.39-2.11c16.55-7.98 33.04-16.04 49.7-23.8 2.67-1.24 7-4.46 9.95-3.84 18.24 9.01 36.89 17.29 55.04 26.47 1.84.93 5.28 2.07 4.83 4.65-.13.76-1.03 1.34-.93 1.94.07.42.81.94.95 2.07.72 5.8.42 18.96 0 25.05-.06.91-.08 1.83-.65 2.61Z" style="fill:#090c0d"/><path d="M6.5 50.5c1.12-.67 2.12-1.36 3.32-1.93C27.94 39.93 46 31.15 64.17 22.61c8.37 4.73 17.36 8.28 26.01 12.46s16.61 8.4 24.83 12.17c2.33 1.07 5.25 1.9 6.99 3.75L93.7 64.5l-1.33-.1c-9.3-4.59-18.6-9.41-28.13-13.43l-2.61.42-26.42 13.12c-2.01.29-11.32-5.28-14.04-6.44s-6.91-3.34-5.63 1.61c5.85 3.62 12.56 6.18 18.79 9.22 7.57 3.7 15.35 8.05 22.98 11.52 2.47 1.12 5.97 3.16 8.54 2.18l56.14-27.11v25.5l-57.74 27.95-2.94-1.03L5.5 81V70.5l12.18 5.57c15.27 7.66 30.6 15.23 46.15 22.32 15.96-7.02 31.41-15.26 47.29-22.52 3-1.24 2.01-4.99-1.13-4.17L63.82 93.89 6.5 66c-1.12-.21-.99-2.82 0-3 .25-.84.86-.92 1.81-.21.36-.33 1.46-10.33-1.81-7.29-1.15.13-1.18-4.35 0-5" style="fill:url(#a)"/><path d="m38.5 66 25.33-12.39c3.14.94 5.66 3.19 8.86 3.96l16.81 8.44h-51Z" style="fill:#485f58"/><path d="m84 69-16.82 8.43c-2.1 1.17-3.87 1.38-6.02.16L44 69z" style="fill:#233c34"/><path d="M6.5 50.5c-.57.97-.62 2.2-.54 3.3.06.88.54 1.61.54 1.7 1.67 1.29 1.7 6.23 0 7.5-.03.51-1.19 1.8 0 3l-.93-.05-.09-15.14c.11-.61.85-.2 1.02-.31" style="fill:#485f58"/><path d="M41.5 37.49c-.28-1.73 1.03-2.27 2.31-2.93 5.74-2.95 12.46-5.15 18.18-8.34 2.5-.75 2.76 1.58.36 2.88-5.81 3.14-12.6 5.31-18.35 8.69zm77 23.26c.45-1.56 3-.21 3 .5v14c0 .99-3 .99-3 0zM22.88 84.62c1.74 1.62-.1 2.82-2.39 2.15-1.64-.48-9.82-4.54-11.45-5.55s-1.24-3 .6-2.64zM6.5 55.5c.42-2.14 2.76-2.13 3.02.23.31 2.72-.27 5.98-.03 8.78l-3-1.5c.15-2.3.11-5.19 0-7.5Z" style="fill:#87a59e"/></svg>