<svg xmlns="http://www.w3.org/2000/svg" data-name="fill_oil_canola" viewBox="0 0 128 128"><path d="M30.58 25.16c-6.15-8.28-5.01-17.93 2.89-22.76C35.66 1.06 38.5.32 41.08.2 47.35-.11 53.64.17 59.92.08c6-.08 10.49 2.5 13.28 7.68 2.8 5.18 2.32 10.4-.77 15.4-.53.85-.98 1.76-1.64 2.96 9.67.74 16.42 5.53 20.55 13.56 4.42 8.59 2.19 16.47-3.8 23.25.98 3.7 1.9 7.19 3.1 11.75.94 1.02 2.74 2.99 4.72 5.16 1.61-1.36 3.3-2.86 5.07-4.27 4.14-3.29 8.46-2.91 12.07 1 5.88 6.37 6.77 15.08 1.64 22.64-2.9 4.27-6.53 8.11-10.22 11.75-2.91 2.87-6.49 2.45-9.32.64-3.32.81-6.21 1.49-9.08 2.22-.63.16-1.27.39-1.81.74-7.45 4.78-13.45 4.47-19.78-.55H45.42c-2.42 0-4.86-.23-7.25.04-10.25 1.18-16.78-4.03-21.8-12.21-11.11-18.08-6.06-42.28 11.51-54.18 2-1.36 2.82-2.79 2.75-5.2-.16-5.79-.05-11.59-.05-17.29Z" style="fill:#4a3726;stroke-width:0"/><path d="M74.94 72.83c-2.33-6.39-6.68-10.87-12.19-14.64-4.62-3.16-6.71-8.04-6.67-13.77.07-9.65.02-19.3.02-29.18H45.52v5.08c0 7.73-.07 15.46.02 23.2.08 6.82-2.59 11.96-8.31 15.83-13.25 8.96-15.7 25.92-5.53 37.76.85.99 2.54 1.75 3.86 1.78 7.04.17 14.09.08 21.88.08.69 2.33 1.4 4.69 2.25 7.57H49.31c-4.35 0-8.72-.25-13.04.06-5.38.39-8.92-2.11-11.9-6.19C12.91 84.73 17.26 63.2 32.6 53.4c3.85-2.46 5.55-5.85 5.44-10.45-.17-7.05-.05-14.1-.05-21.15-.26.09-3.47-4.56-3.82-7.11-.51-3.7 2.62-7.07 6.37-7.18 6.76-.21 13.53-.16 20.29-.04 2.96.05 5.07 1.84 6.2 4.52 1.15 2.72.52 5.3-1.27 7.58-.53.67-1.27 1.17-2.02 1.86v14.29c4.34-2.06 8.64-2.87 13.06-.57 3.82 1.99 6.67 4.88 8.4 8.81 2.12 4.82.88 12.25-7.56 17.05 1.64 3.37 3.29 6.75 5 10.26-2.8.56-5.04 1.01-7.7 1.54Z" style="fill:#aecace;stroke-width:0"/><path d="M88.72 90.68c4.45 3.61 5.69 7.01 3.98 10.86-1.74 3.9-4.99 5.15-11.01 4.21-3.63 4.56-7.38 5.75-11.39 3.63-3.72-1.98-4.97-5.85-3.44-10.7-4.57-3.22-5.93-6.73-4.16-10.71 1.8-4.05 5.32-5.43 10.95-4.29 3.98-4.62 7.49-5.78 11.43-3.76 3.59 1.84 4.77 5.33 3.65 10.76Z" style="fill:#e5dd75;stroke-width:0"/><path d="M54.65 92.06H38.07c-5.17-4.61-6.42-12.59-3.12-19.15h31.64c.35.93.7 1.87 1.11 2.99-8.36 2.23-12.77 7.5-13.05 16.16" style="fill:#d3cb8c;stroke-width:0"/><path d="M99.83 104.41c1.53-9.14.82-9.14-2.54-16.26 2.8-2.43 5.67-4.93 8.48-7.37 3.96 2.94 5.11 7.05 3.4 11.7-1.78 4.82-5.22 8.32-9.34 11.92Z" style="fill:#29a45f;stroke-width:0"/><path d="M78.55 48.39c.01 2.64-3.11 5.79-5.78 5.84-3.64.06-7.42-3.57-7.37-7.07.04-3.04 2.66-5.7 5.68-5.76 2.86-.06 7.46 4.25 7.47 6.99" style="fill:#4a3726;stroke-width:0"/></svg>