<svg xmlns="http://www.w3.org/2000/svg" viewBox="0 0 128 128"><path d="M58.94 125.09h-.21c-.36 0-.72-.05-1.07-.15-.28-.08-.56-.17-.83-.25-.36-.12-.74-.23-.95-.26-2.88-.4-4.7-2.36-4.88-5.25-.15-2.43-.33-4.87-.5-7.3-.22-3.06-.44-6.12-.61-9.18-.31-5.44.18-10.57 1.44-15.3-4.25 2.91-8.43 4.86-12.82 6.03-5.22 1.39-10.87 2.46-16.83.97-8.8-2.2-14.61-7.7-16.81-15.9a51 51 0 0 1-.44-1.86l-.16-.72c-.07-.29-.1-.58-.1-.88v-2.95c0-.48.09-.95.26-1.4.61-4.64 2.83-8.22 6.53-10.54-3.85-3.41-5.74-8.33-4.99-13.62.83-5.91 4.32-11.39 9.57-15.05 5.44-3.79 12.04-5.1 18.6-3.68 4.73 1.02 9.02 3.34 12.77 6.92-.99-3.95-1.14-7.89-.45-11.78C48.69 10.3 58.27 3.82 66.77 3.01c7.67-.74 14.62 3.04 17.67 9.63.22.48.42.97.6 1.46 3.97-3.01 8.6-3.63 13.44-1.8 9.11 3.45 16.93 14.93 13.68 27.46-1.81 6.98-6.28 12.48-12.94 15.91-1.81.93-3.64 1.83-5.48 2.7 3.25-.12 6.56-.05 9.94.64 10.04 2.05 16.72 8.11 19.31 17.5.29 1.05.45 2.04.61 3 .06.37.12.75.19 1.12.05.24.07.48.07.73v3.16c0 .35-.05.69-.14 1.03l-.12.42c-.39 3.29-1.55 6.36-3.43 9.1-2.8 4.08-6.11 6.29-10.11 6.73-1.22.14-2.72.25-4.38.13.72 4.4-.49 8.99-3.56 12.54-5.2 6.03-12.43 8.29-20.9 6.54-7.77-1.6-13.73-6.74-17.74-15.26-1.5-3.19-2.23-6.5-2.58-9.75a29 29 0 0 0-.1 3.23c.15 7.56.82 14.5 2.04 21.23.21 1.15-.1 2.33-.85 3.23a3.94 3.94 0 0 1-3.02 1.42Z" style="fill:#4a3726;stroke-width:0"/><path d="M61.3 48.05c1.46 3.66 6.27 9.25 1.46 12.22-4.71 2.63-7.41-3.94-10.14-6.7-5.74-6.51-11.21-16.28-20.16-18.07-8.19-2.1-17.6 3.95-18.71 12.14-1.46 8.47 8.56 6.86 9.42 12.93.1 2.75-2.8 4.56-5.28 5.08-11.53 3.75-4.42 19.9 5.7 21.11C43.65 91.35 55.45 67.74 61.95 74c11.76-5.25 3.5 22.29 8.64 28.4 4.32 15.29 32.36 14.98 26.18-2.1-1.14-2.06-2.02-4.33-.44-6.29 4.96-4.6 12.85 4.78 17.33-3.4 2.39-3.43 2.83-8.07 1.72-12-5.42-20.17-30.28-8.49-44.32-11.72s.04.02.08.04c-11.89-10.16 33.03-13.85 33.38-29.14 2.27-8.78-3.68-16.16-8.84-18.12-5.04-2.42-7.58 3.4-11.23 5.32-6.39 2.59-5.8-5.26-7.16-9.04C66.07.36 47.23 22.08 56.01 37m14.05 23.9s-.01.02-.02.02c0 0 .01-.02.02-.02" style="fill:#29a45f;stroke-width:0"/></svg>