<svg xmlns="http://www.w3.org/2000/svg" data-name="fill_emptypallet" viewBox="0 0 128 128"><path d="M43.65 10.58h8.89c0-1.72-.03-3.43.01-5.13.03-1.21.33-2.38 1.51-2.98.61-.31 1.34-.51 2.02-.51 4.77-.04 9.54-.03 14.32-.02 2.27 0 3.57 1.33 3.57 3.62v5.01H84.4c0-1.71-.03-3.4 0-5.08.03-1.21.29-2.38 1.47-3 .6-.31 1.34-.53 2.01-.54 7.12-.04 14.24-.03 21.37-.02 2.15 0 3.46 1.33 3.48 3.49.01 1.37 0 2.74 0 4.11v112.74c0 1.29-.22 2.54-1.47 3.22-.6.32-1.34.54-2.01.54-7.12.04-14.24.03-21.37.02-2.16 0-3.46-1.32-3.49-3.48-.01-1.17 0-2.34 0-3.54H73.96c0 1.12.06 2.26-.02 3.4-.05.71-.2 1.46-.51 2.1-.57 1.17-1.72 1.5-2.9 1.51-4.85.04-9.69.03-14.54 0-2.15 0-3.44-1.35-3.46-3.51-.01-1.15 0-2.3 0-3.49h-8.96c0 1.16.03 2.32 0 3.49-.04 1.21-.33 2.37-1.5 2.98-.59.3-1.29.51-1.95.51-7.15.04-14.29.03-21.44.02-2.11 0-3.4-1.33-3.45-3.45V5.67c0-1.29.25-2.54 1.5-3.2.6-.32 1.34-.52 2.02-.52 7.1-.04 14.19-.03 21.29-.02 2.19 0 3.51 1.33 3.53 3.52.01 1.66 0 3.33.01 4.99 0 .02.02.04.05.13Zm40.72 86.94V32.09H74v65.42h10.37ZM52.51 32.09h-8.88v65.45h8.88z" style="fill:#4c3928;stroke-width:0"/><path d="M87.56 5.05h15.95v.88c0 14.25-.01 28.49 0 42.74 0 .45.09.94.3 1.33.32.58.94.68 1.55.55.68-.15 1.03-.66 1.08-1.32.05-.58 0-1.17 0-1.76V5.08h3.18v117.85H94.54v-55c-.04-.95-.58-1.5-1.44-1.51-.9 0-1.45.55-1.48 1.54-.01.27 0 .54 0 .81v54.17h-4.05V5.05ZM32.43 122.94H18.38V5.08h3.92v44.15c0 .32-.01.64.05.95.15.73.67 1.12 1.42 1.12.74 0 1.26-.4 1.41-1.13.06-.31.05-.63.05-.95V5.06h15.22v117.85h-5.09V57.23c0-1.22-.46-1.82-1.4-1.85-.84-.03-1.41.44-1.52 1.27-.04.29-.02.59-.02.88v65.4ZM63.12 5.05h7.73v117.89h-2.32c.06-.62.16-1.18.16-1.75-.04-5.01-.08-10.03-.14-15.04-.01-.97-.6-1.55-1.49-1.53-.85.01-1.42.59-1.43 1.53-.01 4.11 0 8.23 0 12.34v4.44h-9.95V5.08h4.51v69.49c0 .34-.02.69.05 1.02.15.73.67 1.13 1.41 1.13.75 0 1.27-.39 1.42-1.12.07-.33.05-.68.05-1.02z" style="fill:#a5805c;stroke-width:0"/><path d="M74.03 28.9V13.73h10.33V28.9zm-.01 86.96v-15.15h10.33v15.15zM43.63 28.9V13.75h8.85V28.9zm-.01 86.96v-15.15h8.86v15.15z" style="fill:#7d5d3d;stroke-width:0"/></svg>