<svg xmlns="http://www.w3.org/2000/svg" xmlns:xlink="http://www.w3.org/1999/xlink" data-name="fill_popcorn" viewBox="0 0 128 128"><defs><linearGradient id="a" x1="101.38" x2="89.84" y1="40.4" y2="122.49" gradientUnits="userSpaceOnUse"><stop offset="0" stop-color="#ce5746"/><stop offset="1" stop-color="#b83d2b"/></linearGradient><linearGradient xlink:href="#a" id="b" x1="84.13" x2="77.05" y1="41.07" y2="121.92"/><linearGradient id="c" x1="63.96" x2="63.96" y1="96.8" y2="121.86" gradientUnits="userSpaceOnUse"><stop offset="0" stop-color="#ce5746"/><stop offset=".05" stop-color="#c95140"/><stop offset=".22" stop-color="#bf4534"/><stop offset=".45" stop-color="#b93e2d"/><stop offset="1" stop-color="#b83d2b"/></linearGradient><linearGradient id="d" x1="64.15" x2="64.57" y1="41.37" y2="65.38" gradientUnits="userSpaceOnUse"><stop offset="0" stop-color="#ce5746"/><stop offset=".51" stop-color="#cc5443"/><stop offset=".76" stop-color="#c54d3c"/><stop offset=".96" stop-color="#bb402f"/><stop offset="1" stop-color="#b83d2b"/></linearGradient><linearGradient xlink:href="#a" id="e" x1="44.3" x2="49.98" y1="41.15" y2="122.36"/><linearGradient xlink:href="#a" id="f" x1="26.64" x2="38.23" y1="40.24" y2="122.64"/><linearGradient id="g" x1="45.16" x2="84.87" y1="58.01" y2="3.36" gradientUnits="userSpaceOnUse"><stop offset="0" stop-color="#ffe254"/><stop offset=".15" stop-color="#fee45e"/><stop offset="1" stop-color="#fef396"/></linearGradient></defs><path d="M104.31 20.43q.06-.555.06-1.14c0-5.53-4.51-10.04-10.05-10.04-1.63 0-3.2.38-4.61 1.11-2.27-3.51-6.2-5.73-10.52-5.73-2.72 0-5.3.86-7.43 2.43C69.9 4.57 66.92 3 63.7 3s-5.98 1.45-7.86 3.79c-2.05-1.39-4.5-2.16-7.03-2.16-4.32 0-8.25 2.22-10.52 5.73a10 10 0 0 0-4.62-1.11c-5.54 0-10.04 4.51-10.04 10.04q0 .585.06 1.14c-5.16 1.58-8.79 6.34-8.79 11.97 0 2.81.94 5.52 2.66 7.72l10.25 82.84a2.313 2.313 0 0 0 2.3 2.04h67.78c1.17 0 2.16-.87 2.3-2.04l10.25-82.84a12.5 12.5 0 0 0 2.66-7.72c0-5.63-3.63-10.39-8.79-11.97" style="fill:#101314"/><path d="M80.51 80.99C80.51 90.1 73.1 97.5 64 97.5s-16.51-7.41-16.51-16.51S54.9 64.46 64 64.46s16.51 7.42 16.51 16.53" style="fill:#d6d6d5"/><path d="m108.02 41.33-10.49 80.68-11.62-.07 7.69-80.45z" style="fill:url(#a)"/><path d="m90.27 41.61-6.18 80.1h-9.42l.74-25.55c4.6-3.47 7.58-8.98 7.58-15.17 0-5.79-2.6-10.97-6.69-14.46l.76-24.92z" style="fill:url(#b)"/><path d="m73.13 97.33-.51 24.53H56.06L54.79 96.8c2.08.79 4.54 3.03 9.21 3.18s7.05-1.86 9.13-2.65" style="fill:url(#c)"/><path d="m74.58 41.78-.91 23.44c-2.37-1.06-4.54-3.11-9.67-3.23-5.58-.13-7.14 1.56-9.51 2.62l-.76-23.06z" style="fill:url(#d)"/><path d="m53.86 122.09-9.87-.15-6.26-80.33h13.21l.76 24.92C47.61 70.02 45 75.2 45 80.99c0 6.19 2.99 11.71 7.59 15.17z" style="fill:url(#e)"/><path d="m42.16 122.09-11.77-.08-10.07-80.88 14.22.21z" style="fill:url(#f)"/><path d="M102.96 22.9c-3.53-1.56-.17-4.36-1.82-7.06-1.88-3.87-9.27-4.05-10.8-.6-.63 1.43-.48 3.06-.02 4.53.45 1.21 1.08 4-.98 3.34-1.85-.87-2.4-3.46-1.9-5.36.39-1.71 1.15-3.77.45-5.47-2.26-4.54-9.16-7.18-13.02-4.01-1.19.89-1.83 2.2-3.42 1.86-1.42-.35-2.31-1.58-3.15-2.7-1.9-2.83-6.29-2.76-8.56-.34-1.16 1.03-2.29 1.98-3.9 2.27-2.7.33-6.51-3.91-10.97-1.66-2.33 1.06-3.51 2.23-4.79 4.21-1.09 1.76-2.84 1.02-4.41.23-5.79-2.66-11.9 3.06-10.1 9.09.45 1.96 1.6 4.06 3.75 4.55.76.24 1.89.27 2.49.76.41.36.33.92.05 1.32-.66.76-1.65.62-2.9.17-2.82-.67-4.85-5.82-7.83-3.39-3.88 2.71-5.06 9.88-2.55 14.05 3.24 1.16 34.62.06 60.07.43h24.58c3.24-.13 4.87.28 5.77-.19 3.48-5.46 1.87-13.29-4.25-14.7l-1.78-1.33Z" style="fill:url(#g)"/><path d="M62.21 22.79c0 .76-.61 1.36-1.36 1.36s-1.37-.61-1.37-1.36a2.992 2.992 0 0 0-5.14-2.08 1.375 1.375 0 0 1-2.16-.26c-.41-.7-1.14-1.12-1.96-1.12a2.279 2.279 0 1 0 0 4.56c.76 0 1.37.61 1.37 1.36s-.61 1.37-1.37 1.37c-2.76 0-5.01-2.25-5.01-5.01s2.25-5.02 5.01-5.02c1.24 0 2.42.47 3.33 1.28.87-.53 1.88-.81 2.93-.81 3.16 0 5.72 2.57 5.72 5.72Z" style="fill:#e2d55a"/></svg>