<svg xmlns="http://www.w3.org/2000/svg" data-name="fill_lime" viewBox="0 0 128 128"><path d="M100.54 52.71c7.44 2.43 7.79 2.9 8.18 12.22 3.46.27 5.27 2.87 7.13 5.45 2.16 3.01 4.41 5.95 6.61 8.93 3.4 4.61 4.06 9.56 1.37 14.66-2.58 4.9-6.85 7.15-12.37 7.09-3.44-.04-6.88 0-10.63 0-4.28 5.03-8.76 10.23-13.16 15.49-1.75 2.09-3.78 3.41-6.64 3.24-1.83 2.3-4.29 2.88-7.09 2.65-11.16-.89-22.34-1.7-33.5-2.65-4.38-.37-6.25-2.32-6.82-6.61q-3.65-2.1-6.58-12.13H16.33c-5.42 0-9.57-2.31-12.11-7.09-2.59-4.89-2.19-9.79 1.07-14.21C18.28 62.14 31.22 44.5 44.45 27.08c9.76-12.85 29.36-12.71 39.24.05 5.02 6.48 9.89 13.09 14.64 19.78 1.1 1.55 1.42 3.65 2.22 5.8Z" style="fill:#4a3726;stroke-width:0"/><path d="M25.4 94.25c-3.27 0-6.53.08-9.78-.03-2.47-.08-4.41-1.31-5.5-3.54-1.28-2.63-.79-5.11.95-7.43 5.06-6.77 10.07-13.58 15.11-20.37l22.83-30.75c7.74-10.42 22.29-10.41 30.01.02 4.55 6.14 9.09 12.29 13.64 18.44-6.76.85-13.65 1.01-17.36 8.04-11.4.98-22.9 1.9-34.38 3.02-1.73.17-3.64.98-5.01 2.06C29.46 68.77 25.3 75.14 25.4 83.7c.04 3.4 0 6.79 0 10.54Z" style="fill:#aeaeae;stroke-width:0"/><path d="M72.36 95.01c-9.58-1.25-18.4-2.36-27.2-3.61-.9-.13-1.88-.94-2.47-1.71-2.73-3.56-5.29-7.24-7.99-10.82-1.35-1.78-1.31-3.36.26-4.92.25-.25.53-.48.72-.77 2.81-4.21 6.88-5.31 11.74-5.54 8.17-.37 16.31-1.43 24.48-1.96 1.48-.1 3.27.57 4.5 1.46 4.78 3.44 9.68 6.81 13.94 10.83 2.29 2.16 3.48 5.55 4.9 8.52.26.55-.59 2.32-1.23 2.51-7.41 2.18-14.88 4.16-21.65 6.01" style="fill:#d6d6d5;stroke-width:0"/><path d="M75.39 115.68c-11.85-.9-23.18-1.75-34.99-2.65 1.61-5.1 3.08-9.75 4.69-14.82 8.7 1.13 17.28 2.24 25.88 3.35 1.49 4.76 2.88 9.16 4.43 14.12Z" style="fill:#7f827e;stroke-width:0"/><path d="M104 94.26c-1.45-5.5-2.77-10.46-4.07-15.37 2.72-1.8 5.72-3.78 8.72-5.75-.04-.3-.09-.6-.13-.9.53.62 1.1 1.21 1.58 1.86 2.42 3.25 4.83 6.5 7.21 9.78 1.59 2.2 1.81 4.62.49 6.97-1.31 2.32-3.44 3.44-6.15 3.41-2.72-.03-5.44 0-7.66 0Z" style="fill:#aeaeae;stroke-width:0"/><path d="M100.12 71.05c-1.42.66-2.84 1.32-4.29 1.99l-13.02-9.87c-.22-1.03-.46-2.12-.64-2.98 6.67-4.63 13.01-1.45 19.59-.07v9.82c-.6.28-1.3.43-1.63 1.1Z" style="fill:#d6d6d5;stroke-width:0"/><path d="M77.54 100.43c6.21-1.62 12.04-3.13 17.88-4.65.14.18.29.36.43.53-4.63 5.46-9.26 10.92-14.21 16.75-1.45-4.48-2.74-8.45-4.1-12.64Zm-38.69-4.77c-1.05 3.39-2.05 6.64-3.1 10.03-1.79-2.88-4.31-15.69-3.61-19.04 2.31 3.1 4.41 5.92 6.71 9Z" style="fill:#7f827e;stroke-width:0"/></svg>