<svg xmlns="http://www.w3.org/2000/svg" viewBox="0 0 128 128"><path d="M119.86 73.44c9.38 15.23 1.42 33.16-15.09 37.05-2.56 7.87-7.8 12.93-16.16 13.99-5.79.74-11.12-.64-14.95-5.25H54.32c-9.47 10.31-25.23 6.08-31.2-8.77C6.86 106.64-1.34 88.85 8.06 73.47 1.32 64.22.4 54.5 6.98 43.73 1.68 37.81.12 30.84 1.77 23.14c1.06-4.94 5.14-7.22 9.91-5.59 6 2.05 11.95 4.24 18.54 6.59 2.12-2.89 4.55-5.71 6.42-8.86C40.89 8.1 48.5 4.83 57.6 6.75c6.62-4.05 13.71-4.86 21.05-1.74 4.22 1.79 7.41 4.81 9.91 8.67.92 1.42 2.36 2.53 3.65 3.69 2.23 2.01 4.53 3.95 7.12 6.19 4.98-1.77 10.4-3.72 15.83-5.62 6.31-2.21 10.68.54 11.47 7.18.85 7.08-.56 11.81-5.62 18.79 6.29 10 5.98 19.79-1.15 29.54Z" style="fill:#4a3726;stroke-width:0"/><path d="M60.36 101.44v10.38c-5.37.9-12.1-3.23-13.53-8.54-.96-3.55-1.31-7.25-2.16-10.83-1.09-4.57-1.82-9.36-3.78-13.56-4.23-9.08-5.01-18.35-3.4-27.81 3.47.2 6.92.37 10.35.63.62.05 1.28.36 1.81.71 9.09 6.12 18.25 5.97 26.7.8 5.09-.39 9.39-.71 14.44-1.09.1 3.74.4 8.01.29 12.27-.17 6.21-3.13 11.62-5.21 17.3-1.31 3.59-1.78 7.48-2.62 11.24-.84 3.78-1.18 7.76-2.61 11.3-2.21 5.49-7.1 7.49-12.95 8.02v-10.89c2.19-1.42 4.59-2.93 6.94-4.49 2.5-1.66 3.06-3.44 1.82-5.46-1.17-1.9-3.22-2.09-5.72-.5-2.16 1.36-4.3 2.75-6.72 4.3-2.22-1.4-4.44-2.79-6.65-4.2-2.57-1.63-4.77-1.48-6.01.44-1.23 1.91-.46 3.83 2.2 5.55 2.23 1.43 4.44 2.89 6.81 4.44Z" style="fill:#d5b5ad;stroke-width:0"/><path d="M75.96 44.38c-8.24 7.93-19.27 6.52-25.54-.87-7.75 2.9-12.79.28-15.44-5.54-2.45-5.38.24-10.92 6.41-14.24 1.61-8.17 7.6-12.96 17.51-8.62 8.64-8.59 21.91-4.94 25.21 6.61 8.92 4.05 12.1 10.03 9.13 17.15-2.59 6.21-9.34 8.41-17.28 5.5Zm21.78 58.91c.49 6.15-1.37 10.74-6.96 13.04-3.44 1.42-6.91 1.51-10.46-.77 7.74-5.79 9.01-14 10.1-22.54.6-4.69 2.21-9.39 4.15-13.73 3.83-8.57 4.2-17.41 3.31-26.48-.04-.37 0-.74 0-.89 5.61-1.04 11.14-2.08 17.06-3.18 6.37 5.12 3.78 17.3-5.93 24.18 6.72 4.98 9.24 11.68 6.57 19.5-2.72 7.99-9.11 11.23-17.83 10.87Zm-50.7 12.37c-3.33 2.37-6.87 2.05-10.23.56-5.39-2.39-7.16-6.97-6.54-12.96-8.55.5-15.04-2.7-17.88-10.74-2.76-7.83-.2-14.51 6.45-19.53-9.87-8.02-11.83-16.43-6-24.34 5.62 1.1 11.14 2.17 16.87 3.29 0 3.07.11 6.46-.02 9.84-.26 6.72 1.52 12.97 4.36 18.93 2.24 4.69 3.41 9.52 3.8 14.72.55 7.42 2.58 14.39 8.79 19.35.19.15.23.49.4.89Z" style="fill:#beb696;stroke-width:0"/><path d="M26.37 30.52c.98 4.86 1.85 9.15 2.7 13.38C15.8 45.04 6.1 37.05 9.05 24.35c6.02 2.14 11.99 4.27 17.31 6.16Zm92.47-6.18c2.75 10.89-4.3 19.99-19.46 19.76l2.57-12.93c-.24-.09-.48-.18-.71-.27.57-.3 1.11-.66 1.71-.88 5.22-1.88 10.46-3.74 15.9-5.68Z" style="fill:#d5b5ad;stroke-width:0"/><path d="M50.94 63.59c-.01 2.7-2.18 4.96-4.77 4.97-2.71.01-5.09-2.4-5.02-5.08.07-2.57 2.47-4.88 4.98-4.82 2.71.06 4.81 2.22 4.8 4.93Zm35.81.07c-.05 2.77-2.32 4.86-5.21 4.79-2.68-.06-4.65-2.24-4.54-5.04.11-2.68 2.33-4.82 4.96-4.77 2.54.06 4.83 2.46 4.79 5.01Z" style="fill:#4a3726;stroke-width:0"/></svg>