<svg xmlns="http://www.w3.org/2000/svg" viewBox="0 0 128 128"><path d="M116.08 98.38c-16.56 16.03-55.75 16.09-77.39 11.94-10.81-2.46-28.08-6.73-30.26-19.43-.63-3.84-.04-7.88.45-11.74 1.5-11.24 2.89-22.5 4.3-33.72.6-4.38.83-8.89 2.1-13.13 1.29-4.56 4.49-7.95 8.82-9.89 9.17-4.19 19.32-5.45 29.32-6.24 14.48-1.51 43.97-.03 55.33 9.09 5.65 5.32 4.94 14.04 6.04 21.17 1.51 11.97 3.12 23.93 4.69 35.94.73 5.49.6 11.57-3.29 15.88z" style="fill:#4a3726;stroke-width:0"/><path d="M111.78 95.55c-15.19 14.71-51.15 14.76-71 10.96-9.92-2.26-25.77-6.18-27.76-17.82-.58-3.53-.03-7.23.41-10.77 1.38-10.31 2.65-20.64 3.95-30.94.55-4.02.76-8.15 1.92-12.04 1.19-4.18 4.12-7.3 8.09-9.08 8.42-3.85 17.73-5 26.89-5.72 13.29-1.38 40.34-.02 50.77 8.34 5.18 4.88 4.53 12.88 5.54 19.43 1.39 10.99 2.86 21.96 4.3 32.97.67 5.04.55 10.62-3.02 14.57l-.1.12Z" style="fill:#674f47;stroke-width:0"/><path d="M64.51 99.42c-1.63 0-2.67-1.63-3.26-2.99-1.04-2.35-1.36-5.18-1.6-7.88-2.76-35.69-3.69-35.84-14.96-37.64-4.52-.72-10.72-1.71-19.05-4.94-1.88-.78-6.36-3.02-8.14-7.24-.51-1.23-.5-2.25.04-3.06.8-1.2 2.29-1.2 2.78-1.2.19 0 .39 0 .59.02.44.03.88.08 1.32.12.82.08 1.68.16 2.48.16.52 0 .97-.03 1.39-.1 1.86-.29 5.75-1.69 7.13-2.69-.95-.46-2.3-.79-3.61-1.12-1.53-.38-3.11-.78-4.33-1.42l-.09-.05c-1.89-1.15-2.02-2.35-1.79-3.15.43-1.54 2.45-2.33 5.98-2.33.5 0 .92.02 1.24.07 2.45.2 4.85.91 7.16 1.61 2.66.79 5.17 1.54 7.67 1.54.32 0 .64-.01.96-.04l-.03-.02c-.91-.44-2.44-.89-3.91-1.33-1.41-.42-2.75-.81-3.73-1.24-1.96-.79-2.26-1.94-2.17-2.77.15-1.28 1.41-2.22 3.37-2.51.89-.16 1.91-.25 2.98-.25 1.35 0 2.78.14 4.14.41 2.27.44 4.41 1.34 6.48 2.2 2.48 1.04 4.83 2.02 7.29 2.22h.09l.09.03c.09.02.36.05.8.05h.35c-.55-.22-1.28-.48-2.24-.78-2.88-.8-5.49-1.71-5.2-3.79.22-1.6 1.92-2.31 5.52-2.31 1.11 0 2.24.09 3.18.24 2.8.35 5.42 1.47 7.96 2.56.85.37 1.68.72 2.51 1.04-.61-.45-.81-.96-.7-1.72.25-1.63 2.08-1.63 2.96-1.63.29 0 .62 0 1 .02 6.85.26 13.61 2.41 19.41 4.4.63.22 1.26.43 1.91.64 2.58.85 5.51 1.8 7.7 3.63l.06.05.06.06c.71.72 1.04 1.5.99 2.32-.08 1.3-1.06 2.08-1.84 2.7-.26.2-.67.53-.81.72v.07c.1.58.88.94 2.14 1.46 1.11.46 2.37.99 3.16 2.06l.09.12.07.14c.51 1.05.46 2 .41 2.92l-.03.45c-.54 4.63-.47 8.18.21 10.94 1.16 5.44 1.68 11.02 2.12 16.28.22 3.54.63 7.1 1.03 10.55.34 2.96.7 6.02.93 9.04v.13c0 1.3 0 5.27-2.74 5.27s-3.82-4.53-4.05-5.57c-.8-2.93-1.18-7.9-1.62-13.65-.67-8.77-1.68-22-4.85-24.07-.69-.36-1.57-.56-2.56-.56-3.15 0-7.06 2.05-7.59 4.8-.42 1.9-.17 3.89.1 6 .06.49.12.97.17 1.45.42 3.53.72 7.14 1.01 10.64.35 4.19.71 8.52 1.28 12.72.31 1.94.46 5.72-.93 7.34-.46.54-1.07.83-1.73.83-1.89 0-2.96-2.27-3.75-4.49l-.03-.09-.02-.09c-1.11-4.71-1.5-9.59-1.88-14.31-.25-3.12-.51-6.34-.97-9.42-.06-.45-.11-.87-.16-1.3-.72-5.96-1.45-9.6-5.54-9.89h-.05c-1.27 0-2.18.35-2.78 1.06-1.01 1.2-1.28 3.59-.75 6.56v.09c.66 5.16 1.15 10.44 1.63 15.56.4 4.28.82 8.7 1.31 13.01v.1c.1 1.7-.02 3.97-1.14 5.14-.47.49-1.08.77-1.72.77-2.33 0-3.43-3.34-3.79-4.44l-.03-.08-.02-.08c-1.12-5.09-1.47-10.32-1.81-15.38-.3-4.4-.61-8.95-1.42-13.33-.58-3.86-1.64-6.2-3.27-7.22-.37-.24-.69-.36-.97-.36-.74 0-.94 1.01-.98 1.32-.2 1.19.07 2.88.32 4.22C64.8 65.28 65.41 72.1 66 78.69c.33 3.67.67 7.47 1.13 11.16.3 2.59.53 5.07-.04 7.14-.67 2.1-1.91 2.41-2.59 2.41ZM51.33 35.17c.29.77 1.04 1.66 1.7 2.46l.2.24c.45.51.92 1.07 1.39 1.63 1.85 2.21 3.59 4.29 5.89 5.21 1 .4 2.05.63 2.91.63s1.44-.2 1.83-.58c.47-.85-.6-2.62-1.25-3.69-1.77-2.74-3.95-5.66-6.69-6.62l-.11-.04c-.51-.22-1.58-.44-2.81-.44-1.64 0-2.7.39-2.99.76-.04.05-.12.15-.07.45Zm15.79 1.48c.5.77.95 1.56 1.39 2.33 1.03 1.79 1.99 3.49 3.24 4.45l.08.06c.95.82 2.92 1.37 4.92 1.37s3.86-.59 4.59-1.51c.44-1.07-.56-2.85-1.3-4.16-2.05-3.39-4.17-6.56-7.46-7.58-1.22-.35-2.75-.56-4.07-.56-1.76 0-3.11.37-3.77 1.01-.06.85.73 2.03 1.44 3.08.33.49.67 1 .95 1.5Zm-26.84 6.68c.76.1 1.7.27 2.77.47 2.21.41 4.96.92 7.05.92 1.21 0 1.8-.17 2.05-.29.04-.94-1.72-2.97-2.41-3.77l-.25-.3c-1.75-2.04-4.09-3.16-6.57-3.16-.75 0-1.51.1-2.25.31-5.92 1.68-8.15 2.88-8.98 3.48 1.67.93 3.86 1.36 5.98 1.78.87.17 1.76.35 2.62.56Zm43.95-6.17c.81 1.5 1.57 2.91 2.64 3.89.91.88 2.1 1.29 3.68 1.29 1.05 0 2.25-.18 3.67-.56 3.93-.99 4.75-2.13 4.92-2.52.65-2.74-3.33-6.53-6.37-7.77-1.46-.62-5.01-1.28-8.02-1.28-2.26 0-3.38.36-3.76.62-.11.74 1.33 3.05 1.88 3.95.51.82.98 1.59 1.31 2.29l.04.08ZM47.67 26.85" style="fill:#ad996e;stroke-width:0"/><path d="M60.26 18.68c.99 0 2.03.07 2.91.22 4.53.56 8.58 3.29 12.95 4.45 1.87.49 3.65.79 5.12.79.9 0 1.69-.12 2.3-.38.88-.59-.45-1.2-1.06-1.5-1.17-.75-11.17-3.08-6.32-3.08.27 0 .58 0 .94.02 6.46.25 12.97 2.26 18.94 4.31 3.02 1.07 6.64 1.93 9.09 3.98 2.05 2.09-2.66 2.66-2.1 4.91.41 2.6 4.33 2.55 5.58 4.25.36.74.28 1.42.23 2.41v.12c-.42 3.49-.65 7.81.25 11.45 1.12 5.26 1.63 10.65 2.08 16.02.4 6.56 1.46 13.08 1.95 19.58 0 2.6-.48 3.62-1.09 3.62-.84 0-1.94-1.94-2.44-4.31-2.21-7.98-1.25-35.05-7.24-38.76-.98-.54-2.16-.78-3.39-.78-3.96 0-8.53 2.54-9.21 6.15-.57 2.61-.03 5.32.25 7.95.92 7.76 1.25 15.65 2.29 23.4.48 3.04.04 6.3-1.02 6.3-.57 0-1.32-.95-2.2-3.39-1.81-7.69-1.66-15.82-2.82-23.6-.71-5.55-1.01-12.19-7.28-12.6h-.12c-5.46 0-5.93 5.26-5.16 9.57 1.18 9.45 1.84 19.07 2.93 28.55.14 2.61-.41 4.16-1.21 4.16-.65 0-1.46-1.01-2.22-3.3-2.05-9.37-1.46-19.14-3.22-28.65-.45-3-1.37-6.66-4.02-8.32-.64-.42-1.27-.61-1.85-.61-1.32 0-2.38 1.02-2.62 2.74-.23 1.4.04 3.22.33 4.76 2.11 10.13 2.37 20.7 3.68 31.02.24 2.06.52 4.62 0 6.5-.27.85-.62 1.19-1 1.19-.61 0-1.28-.92-1.74-1.99-.96-2.17-1.26-4.94-1.47-7.36-3.93-50.67-4.86-32.28-35.06-43.97-2.94-1.22-5.99-3.44-7.21-6.34-.66-1.57.09-1.96 1.29-1.96.15 0 .32 0 .48.02 1.26.09 2.59.29 3.91.29.56 0 1.11-.03 1.66-.13 2.39-.38 12.12-3.5 7.78-5.72-2.22-1.16-5.99-1.5-8.1-2.61-3.03-1.84 1.08-2.4 3.33-2.4.44 0 .82.02 1.05.06 5 .39 9.94 3.16 15.03 3.16.55 0 1.1-.03 1.66-.1 2.73-.39 2.48-2.07 0-3.1-1.94-.94-5.8-1.75-7.69-2.59-2.36-.96-.76-1.9.78-2.13.87-.16 1.8-.23 2.73-.23 1.29 0 2.6.14 3.82.38 4.73.92 9.06 4.05 13.95 4.45.26.05.66.08 1.12.08 1.92 0 4.89-.51 2.92-2.21-.81-.61-2.52-1.25-4.31-1.81-6.8-1.9-3.77-2.86-.17-2.86m30.31 25.24c1.38 0 2.79-.27 4.09-.61 2.96-.75 5.46-1.87 6.08-3.62 1.07-3.99-3.95-8.42-7.33-9.8-1.65-.71-5.41-1.4-8.64-1.4-2.28 0-4.3.35-5.12 1.28l-.05.08c-1.12 1.97 2.13 5.72 3.12 7.9.87 1.6 1.74 3.25 3.05 4.46 1.33 1.29 3.04 1.73 4.81 1.73m-13.83 2.5c2.47 0 4.91-.72 6.02-2.31.96-1.85-.33-4.13-1.29-5.83-2.11-3.49-4.52-7.14-8.41-8.35-1.22-.35-2.9-.64-4.56-.64-2.13 0-4.23.47-5.28 1.88l-.04.09c-.64 2.14 1.52 4.31 2.52 6.14 1.68 2.61 2.92 5.61 5.04 7.24 1.32 1.14 3.67 1.77 6 1.77m-13.33.49c1.19 0 2.32-.32 3.12-1.18l.07-.09c1.14-1.71-.25-3.98-1.21-5.56-1.96-3.03-4.34-6.17-7.53-7.28-.8-.34-2.12-.58-3.47-.58-2.55 0-5.21.83-4.66 3.31.4 1.17 1.4 2.31 2.22 3.31 2.47 2.8 4.61 6 7.94 7.32 1.03.41 2.3.75 3.52.75m-13.31-.61c1.52 0 2.78-.24 3.43-.91l.05-.07c.95-1.89-1.43-4.46-2.84-6.11-2.05-2.39-4.85-3.74-7.83-3.74-.89 0-1.79.12-2.69.37-2.51.72-12.51 3.59-10.28 5.93 2.73 2.01 6.74 2.3 10.03 3.12 2.28.29 6.83 1.42 10.13 1.42m10.16-31.02c-1.82 0-6.65 0-7.17 3.74-.02.17-.04.33-.04.49-1.79-.74-3.66-1.44-5.67-1.83-1.45-.29-3-.44-4.45-.44-1.15 0-2.25.09-3.28.28-2.71.42-4.47 1.9-4.72 3.95-.04.36-.05.92.14 1.55-1.38-.35-2.8-.64-4.27-.76-.39-.05-.87-.08-1.42-.08-4.37 0-6.92 1.19-7.58 3.54-.25.89-.5 3.17 2.53 5.01l.09.05.09.05c1.21.63 2.63 1.03 4.04 1.39-1.04.35-2.05.63-2.69.73-.36.06-.72.09-1.14.09-.72 0-1.5-.08-2.32-.16-.46-.04-.91-.09-1.35-.12-.27-.02-.5-.03-.73-.03-2.37 0-3.57 1.06-4.16 1.94-.59.89-1.11 2.41-.19 4.61 2.02 4.79 6.96 7.27 8.99 8.12l.04.02h.04c8.49 3.3 14.79 4.31 19.39 5.04 6.11.98 7.76 1.36 9.18 4.51 2 4.46 3.01 13.74 4.39 31.6.25 2.87.59 5.85 1.74 8.45 1.48 3.44 3.62 3.96 4.77 3.96.71 0 3.11-.25 4.15-3.5l.02-.06.02-.06c.65-2.36.42-5.02.09-7.76-.47-3.69-.8-7.47-1.13-11.13-.59-6.63-1.2-13.49-2.59-20.15-.1-.56-.37-1.98-.35-3.01.91.96 1.58 2.83 1.99 5.58v.06l.02.06c.79 4.28 1.1 8.78 1.39 13.14.35 5.12.71 10.41 1.85 15.62l.04.16.05.16c.45 1.38 1.83 5.58 5.36 5.58 1.1 0 2.14-.46 2.92-1.28 1.22-1.29 1.76-3.43 1.6-6.37v-.1l-.02-.1c-.5-4.29-.91-8.71-1.31-12.98-.48-5.12-.98-10.42-1.62-15.6v-.09l-.03-.09c-.51-2.88-.11-4.61.39-5.21.1-.12.39-.46 1.5-.47 2.54.21 3.23 2.32 3.97 8.44.05.43.1.85.16 1.27v.08c.45 3.03.7 6.08.96 9.31.38 4.78.78 9.73 1.92 14.56l.04.18.06.18c.65 1.81 2.01 5.58 5.31 5.58 1.15 0 2.21-.5 2.99-1.41 2.12-2.48 1.47-7.57 1.3-8.67-.56-4.15-.92-8.45-1.26-12.6-.29-3.51-.6-7.14-1.02-10.71-.05-.46-.11-.96-.17-1.45-.25-1.96-.48-3.81-.13-5.4v-.04l.02-.04c.33-1.75 3.29-3.46 5.96-3.46.67 0 1.25.11 1.69.32.24.21 1.43 1.52 2.46 7.49.79 4.54 1.22 10.25 1.61 15.28.44 5.81.83 10.84 1.66 13.92.38 1.74 1.81 6.84 5.66 6.84 2 0 4.38-1.2 4.4-6.92v-.26c-.23-3.05-.59-6.13-.93-9.11-.4-3.43-.81-6.97-1.02-10.42v-.08c-.44-5.31-.97-10.95-2.14-16.43v-.05l-.02-.05c-.63-2.56-.69-5.92-.18-10.28v-.07l.01-.07v-.12l.01-.04v-.04l.02-.28c.06-1.02.13-2.3-.58-3.74l-.13-.27-.18-.24c-1.06-1.44-2.61-2.08-3.85-2.6-.05-.02-.11-.05-.17-.07.78-.71 1.61-1.74 1.7-3.25.06-.9-.15-2.25-1.46-3.59l-.12-.12-.13-.11c-2.44-2.02-5.52-3.04-8.25-3.93-.63-.21-1.25-.41-1.85-.62-5.94-2.04-12.84-4.23-19.92-4.5-.4-.02-.76-.02-1.06-.02-2.83 0-3.98 1.13-4.41 2.31-2.53-1.08-5.15-2.17-8.11-2.55-1.03-.17-2.2-.25-3.39-.25Zm22.87 16.59c.41-.05.95-.08 1.63-.08 3.02 0 6.26.67 7.34 1.13h.03l.03.02c2.66 1.08 5.45 4.03 5.41 5.61-.26.24-1.16.88-3.73 1.53-1.31.35-2.38.51-3.28.51-1.5 0-2.15-.46-2.51-.8l-.03-.03-.03-.03c-.86-.8-1.57-2.09-2.31-3.47l-.02-.04c-.36-.78-.86-1.58-1.38-2.42-.32-.51-.8-1.28-1.15-1.95Zm-16.44.93c.41-.1 1-.19 1.8-.19 1.16 0 2.51.19 3.61.5 2.7.86 4.62 3.72 6.5 6.84.34.6 1.04 1.85 1.16 2.5-.5.32-1.57.65-3.03.65-1.76 0-3.29-.5-3.83-.97l-.07-.06-.08-.06c-.98-.76-1.87-2.31-2.81-3.96-.44-.77-.9-1.57-1.4-2.36-.31-.55-.66-1.07-1-1.58-.25-.37-.59-.88-.85-1.33Zm-13.13 2.76c.23-.03.51-.04.82-.04 1.09 0 1.92.21 2.16.31l.11.05.11.04c2.27.79 4.29 3.56 5.81 5.9.26.43.71 1.19.96 1.76h-.13c-.65 0-1.48-.18-2.28-.51-1.93-.76-3.54-2.69-5.25-4.74-.46-.54-.93-1.11-1.41-1.66l-.17-.2c-.23-.28-.5-.6-.74-.91Zm-17.54 5.09c1.24-.46 2.9-1.01 5.11-1.64.57-.16 1.18-.24 1.78-.24 2 0 3.88.92 5.32 2.59l.26.3c.26.31.7.8 1.09 1.31-1.88-.07-4.27-.52-6.23-.88-1.06-.2-1.98-.37-2.77-.48-.86-.21-1.75-.38-2.6-.55-.65-.13-1.31-.26-1.96-.4Z" style="fill:#4a3726;stroke-width:0"/></svg>