<svg xmlns="http://www.w3.org/2000/svg" viewBox="0 0 128 128"><path d="M68.74 70.03H31v3.1c0 8.7.01 17.4 0 26.09-.01 5.82-3.05 8.84-8.86 8.87-1.5 0-3 .02-4.5 0-5.33-.06-8.34-3.05-8.34-8.36-.01-17.8 0-35.59 0-53.39v-3.38c-4.84-1.53-6.41-5.09-6.21-9.77.1-2.29-.03-4.61.26-6.87.47-3.62 3.24-6.08 6.87-6.39.89-.08 1.8-.05 2.7-.05H115.2c6.99 0 9.63 2.59 9.72 9.52.01 1.1-.04 2.2.01 3.3.18 3.76-.49 7.17-3.91 9.32v56.87c0 6.33-2.82 9.19-9.05 9.2-11.3 0-22.6.01-33.89 0-6.07 0-8.96-2.93-8.98-9.02-.02-9.4-.02-18.8-.04-28.19 0-.19-.12-.38-.28-.86Z" style="fill:#4a3726;stroke-width:0"/><path d="M76.85 100.15V43h36.26v57.15zM10.96 35.12V27.6h105.92v7.52z" style="fill:#a5805b;stroke-width:0"/><path d="M69.05 61.92H31.17V43.05h37.89v18.87Z" style="fill:#7b5b3b;stroke-width:0"/><path d="M16.87 100.16V43.01h6.15v57.15z" style="fill:#a5805b;stroke-width:0"/><path d="M104.07 51.51v7.18H86.03v-7.18zm.02 32.88v7.31H85.96v-7.31zm-18.1-16.36h17.99v7.05H85.99z" style="fill:#4a3726;stroke-width:0"/></svg>