<svg xmlns="http://www.w3.org/2000/svg" data-name="fill_manure" viewBox="0 0 128 128"><defs><linearGradient id="a" x1="-1203.33" x2="-1203.62" y1="-495.72" y2="-362.72" gradientTransform="matrix(.5 0 0 .5 666 296)" gradientUnits="userSpaceOnUse"><stop offset="0" stop-color="#7f6246"/><stop offset="1" stop-color="#442f1d"/></linearGradient><linearGradient id="b" x1="-1225.49" x2="-1223.74" y1="-573.49" y2="-448.5" gradientTransform="matrix(.5 0 0 .5 666 296)" gradientUnits="userSpaceOnUse"><stop offset="0" stop-color="#9c9a5d"/><stop offset="1" stop-color="#626534"/></linearGradient><linearGradient id="c" x1="-1267.43" x2="-1267.01" y1="-459.44" y2="-398.44" gradientTransform="matrix(.5 0 0 .5 666 296)" gradientUnits="userSpaceOnUse"><stop offset="0" stop-color="#9c9a5d"/><stop offset="1" stop-color="#626534"/></linearGradient><linearGradient id="d" x1="-1139.28" x2="-1139.02" y1="-539.81" y2="-476.81" gradientTransform="matrix(.5 0 0 .5 666 296)" gradientUnits="userSpaceOnUse"><stop offset="0" stop-color="#9c9a5d"/><stop offset="1" stop-color="#626534"/></linearGradient></defs><path d="M86.06 76.95c4.54 1.02 8.92 4.98 10.33 9.42.45 1.41.5 4.07.85 4.65.21.35 2.93 1.67 3.72 2.28 10.74 8.33 5.19 25.15-8.19 26.23-18.6 1.5-39.2-1.16-58.02-.02-10.07-1.31-15.91-12.1-11.34-21.34.54-1.09 2.97-3.7 3.02-3.98.09-.47-1.97-4.43-2.29-5.57-2.41-8.63.98-22.7 10.5-25.72 3.11-.98 6.53.26 6.4 3.84-.09 2.6-5.72 9.35-5.04 13.26.36.39 3.25-1.92 4-2.25.99-.44 3.03-.62 3.51-.99s.91-2.85 1.23-3.77c.22-.63 1.06-1.35 1.09-1.74s-2.87-5.57-3.31-7.03c-2.02-6.72-.97-13.77 1.89-20.06 5.19-11.44 12.51-12.14 4.49-26.32-1.53-2.7-5.67-6.76-4.69-9.87 2.31-7.28 12.8 2.31 15.3 5.26 6.81 8.08 8.15 18.24 3.08 27.6-3.8 7.01-8.84 10.97-8.11 19.93.12 1.43.2 3.87 2.03 3.53 6.86-1.27 9.75-7.1 6.85-13.42-.88-1.91-3.36-3.55-.91-5.67 2.77-2.4 11.8 1.08 14.7 2.87 10.07 6.24 10.25 18.29 8.89 28.86Z" style="fill:#090b0c"/><path d="M92.38 22.59c3.84-.51 8.11 5.03 9.71 8.07 5.05 9.58 3.86 23.65-5.43 30.26-2.1 1.5-4.02 2.51-6.51 1.19-5.52-2.94-.37-8.79.87-12.83 2.07-6.79.97-11.46-1.13-17.9-.31-.95-1.1-1.87-1.28-2.73-.57-2.68.87-5.66 3.78-6.04Z" style="fill:#090b0c"/><path d="M35 116.5c-.63-.1-1.38.12-2.12-.11-8.37-2.56-11.18-13.52-5.11-19.89 1.14-.27 8.5 8.73 12.74 3.62 2.94-3.54-.67-6.17-2.19-9.18-4.14-8.18-.18-10.39 7.72-11.66l1.47-5.78c.73-.54 2.52 2 3.31 2.43 3.09 1.69 6.73.06 6.73-3.68 0-1.89-1.24-3.35-1.03-5.23 7.69-.93 11.48-6.62 10.44-14.23-.27-1.96-1.56-3.2-1.95-4.55s2.9-.63 3.52-.51c15.55 2.84 17.62 18.75 13.98 31.77 4.85-.35 10.66 4.06 11.37 8.88.18 1.24-.12 3.98.36 4.64.23.32 3.93 1.65 5.02 2.48 8.46 6.34 4.75 20.31-5.75 21q-29.265.81-58.5 0Z" style="fill:url(#a)"/><path d="M54.33 11.67c4.22 3.83 8.18 9.78 8.67 15.58 1.31 15.49-14.72 19.67-10.25 38.25.38 1.6 2.91 6.91 2.19 7.93-1.78 2.53-6.42-3.28-7.35-4.77-4.1-6.59-4.01-14.93-1.18-22.01 4.14-10.32 12.35-13.25 6.83-26.14-.91-2.13-6.61-10.51-6.62-11.18 0-.15.37-1.26.43-1.3 1.21-.88 6.22 2.66 7.29 3.64Z" style="fill:url(#b)"/><path d="M38 65.5c.27 2.59-1.78 4.61-2.75 7-2.88 7.12-2.35 13.59 1.16 20.33.72 1.38 3.13 3.65 2.36 5.15-1.15 2.24-5.35-.67-6.73-1.79-3.95-3.19-6.28-9.99-6.06-14.98.27-6.34 4.61-16.03 12.02-15.73Z" style="fill:url(#c)"/><path d="M93.5 116.5c-18.46-.13-38.29 1.88-56.81.54-.96-.07-1.4-.49-1.69-.54z" style="fill:#58402b"/><path d="M96.33 27.17c7.56 7.43 8.36 22.85.42 30.32-1.26 1.19-4.77 3.95-6 1.5-1-1.98 2.51-7.34 3.23-9.78 1.37-4.69 1.3-8.91.19-13.64-.48-2.04-3.87-8.74-2.2-9.86 1.55-.8 3.26.37 4.36 1.46" style="fill:url(#d)"/></svg>