<svg xmlns="http://www.w3.org/2000/svg" xmlns:xlink="http://www.w3.org/1999/xlink" data-name="fill_oilolive" viewBox="0 0 128 128"><defs><linearGradient id="b" x1="52.26" x2="52.26" y1="3.89" y2="124.14" gradientUnits="userSpaceOnUse"><stop offset="0" stop-color="#eaf6fb"/><stop offset="1" stop-color="#d5edf5"/></linearGradient><linearGradient id="c" x1="557.91" x2="557.98" y1="-870.11" y2="-803.11" gradientTransform="matrix(.5 0 0 .5 -222 518)" gradientUnits="userSpaceOnUse"><stop offset="0" stop-color="#faf294"/><stop offset="1" stop-color="#eecd25"/></linearGradient><linearGradient id="d" x1="555.81" x2="555.81" y1="-896.02" y2="-876.02" gradientTransform="matrix(.5 0 0 .5 -222 518)" gradientUnits="userSpaceOnUse"><stop offset="0" stop-color="#faf294"/><stop offset="1" stop-color="#f1d742"/></linearGradient><linearGradient id="a" x1="95.08" x2="122.17" y1="92.22" y2="92.22" gradientUnits="userSpaceOnUse"><stop offset="0" stop-color="#8d944d"/><stop offset="1" stop-color="#727b2a"/></linearGradient><linearGradient xlink:href="#a" id="e" x1="77.19" x2="99.37" y1="95.34" y2="110.3"/></defs><path d="M114.84 79.91c-2.75-1.62-5.65-2.59-8.84-2.91 3.88-3.19 4.44-11.2-1.36-12.39-5.33-1.1-6.38 5-11.14 5.89 2.68-13.26 1.29-26.18-9.26-35.49-4.19-3.7-9.77-6.78-15.19-8.05.17-1.38-.45-7.23.02-7.89.23-.31 3.3-1.43 4.37-3.38.99-1.82.9-7.38-.21-9.17-4.3-6.86-21.99-6.78-27.7-1.74-3.09 2.72-3.08 10.63.21 13.22.64.51 2.19.94 2.28 1.33.15.61.18 7.33-.07 7.62-.15.17-3.99 1.41-4.21 1.39-.93-.11-2.25-2.58-2.91-3.17C22.92 8.99-.16 32.9 14.01 49.74c2.51 2.99 5.35 3.93 8.41 6.09-.29 7.36 1.1 14.57 2.82 21.68 3.38 13.94 9.41 29.54 16.5 42 1.06 1.87 2.02 4.08 3.99 5.01 5.95 2.82 20.16 3.13 25.89-.15 3.3-1.88 4.75-7.95 7.13-10.86 6.09 8.6 19.14 8.33 22.59-2.42.44-1.35.57-6.53 1.41-6.58 20.77 10.75 30.81-13.54 12.09-24.6M30.01 38.26c-1.08 1.29-4.16 6.78-4.5 7.03-.65.47-2.85-.95-3.35-1.45-6.2-6.24.39-17.24 9.53-12.78 5.42 2.66.86 4.16-1.68 7.2" style="fill:#0d0f0f"/><path d="M92 56c-.73-7.37-4.61-14.74-10.26-19.49-4.26-3.58-9.74-6.35-15.19-7.55l-.07-11.13c5.7-1.49 7.42-9.23 1.97-12.03-4.85-2.49-15.5-2.69-20.12.28-3.34 2.14-3.47 7.88-.3 10.14.62.43 2.9 1.23 2.99 1.61l-.07 11.13L42.01 32c-7.34-17-32.37-9.3-29.39 9.13.77 4.82 3.52 7.56 7.38 9.87 1.05.26 1.81.65 2.5 1.5.14.06.35-.05.5 0 2.85.98 2.68 1.16 2.5 4.25-1 16.75 8.81 43.25 16.74 58.26.55 1.04 3.47 6.49 3.88 6.87.59.56 6.93 2.01 8.13 2.12 4.03.35 13.47.17 16.74-2.26 1.09-.81 6.11-10.2 5.93-11.37-.11-.73-.98-1.5-.93-2.37-2.53 2.21-4.37 9.59-7.2 11.04-4.08 2.08-11.39 2.15-15.82 1.24-3.88-.81-5.01-1.08-7.06-4.44-5.29-8.69-13.54-29.72-14.38-39.65-.54-6.43 9.95-8.46 14.78-9.13 10.32-1.42 21.77-.84 31.91 1.47.52-4.74 5.36-4.01 8.04-1.54 1.78 1.64.57 3.01.94 3.52 1.19 1.64 2.99.59 3.56-1C92.03 65.98 92.37 59.73 92 56M31.51 40.76c-1.08 1.34-4.13 7.27-4.5 7.5-1.61 1-6.2-1.76-7.35-2.92-.66-.67-1.61-2.89-1.9-3.85-4.16-13.66 15.3-20.06 20.2-6.79-2.14 1.85-4.67 3.86-6.45 6.06m18.72-28.74c-1.18-.89-.55-2.15.62-2.44.89-.23 3.11.81 4.4.92 1.62.13 3.9.13 5.52.02 1.41-.09 5.32-1.13 5.92-.98 1.07.27 1.3 2.29-.04 2.86-3.1 1.31-13.75 1.66-16.42-.38" style="fill:url(#b)"/><path d="M69.4 114.15c-1.8 2.87-2.41 3.07-5.78 3.72-4.76.93-10.02.37-14.5-1.5-5.91-11.21-11.49-23.29-13.62-35.88 2.9 1.46 6.18 2.34 9.39 2.86 10.81 1.76 21.39 1.23 32.09-.84-.27 1.46 1.5 5.36 1.42 6.15-.04.39-2.67 3.21-3.2 7.75-1 8.54-5.17 16.72-5.8 17.73Z" style="fill:url(#c)"/><path d="M77.5 71c-.43 2.99-1.25 5.92-1.02 8.98-1.81.05-3.52.69-5.29.96-9.16 1.41-25.47 1.5-33.88-2.5-2.04-.97-3.87-1.83-2.56-4.45 1.1-2.21 10.51-4.09 13.06-4.43 9.87-1.33 19.98-.52 29.69 1.44" style="fill:url(#d)"/><path d="M86.5 111c-.42.16-.82.16-1.21.04l.06-.12z" style="fill:#8d944d"/><path d="M99.8 81.07c-.47.24-.62.81-.8.93-.22.15-.84.1-1.26.47-1.28 1.18-2.95 4.59-2.62 6.22.11.59 3.69 4.61 4.46 5.98 1.74 3.07 1.17 5.38 4.17 7.33 2.64 1.73 7.12 2.89 10.25 2.5 3.12-.39 6.9-2.81 7.77-5.98 3.04-11.06-11.99-22.42-21.97-17.45" style="fill:url(#a)"/><path d="M88.79 116.96c-1.06-.14-5.44-2.08-6.04-2.71-1.78-1.87-4.7-4.87-5.62-11.13C75.99 95.35 80.29 85.98 89.5 89c13.19 4.32 13.71 29.82-.71 27.96" style="fill:url(#e)"/><path d="M86.5 111c-.42.16-.82.16-1.21.04l.06-.12z" style="fill:#727b2a"/><path d="M94.5 79c-.07.01-.31.44-.74.45-1.18.03-7.21-2.59-7.76-3.71-.49-1.02.86-.67 1.23-.75 1.6-.34 3.83-.52 5.27-.99.65-.21 3.44-1.65 4.16-2.09 1.5-.9 4.97-4.61 5.69-4.83 1.52-.46 3.42.35 3.93 1.89 2.13 6.48-6.94 9.59-11.78 10.03" style="fill:#468d68"/><path d="M75.42 91.48c-.54 3.51-2.24 7.16-2.78 10.54-.69 3.02-2.36 5.17-4.19 7.27-.85.97-2.23 4.18-3.62 2.81-.35-.61-.06-1.65.25-2.35.73-1.56 1.61-3.04 2.34-4.61 2.36-4.6 3.49-9.55 5.3-14.37 1.02-3.28 2.78-1.84 2.7.52v.18Z" style="fill:#faf5c1"/><path d="M93.81 83.33c-.13 2.46-3.62 1.02-5.01.45-2.04-.64-3.77-3.44-5.92-2.15-.21.19-.17.61-.1.78.28.98 1.19 2.07.62 3.18-.49 1.22-2.13 1.87-2.85.67-.4-.75-.32-1.99-.54-3.01-.2-1.22-.65-2.23-.8-3.49-.27-3 .33-6.46 1.09-9.5.25-.99.74-2.25 1.83-2.4 2.97-.14 1.66 3.03 1.28 4.86-.25 1.31-.27 2.71.32 3.91 1.26 2.69 4.66 3.17 7.42 4.52.97.49 2.33.98 2.63 2.06z" style="fill:#5c4832"/><path d="M82.73 112.37c-1.99-2.37-3.8-6.21-4.61-9.48-.37-1.82-.46-3.96.43-5.58.33-.62.95-1.01 1.44-.42 1.06 1.36.99 3.74 1.64 5.97.52 3.05 3.68 6.28 4.38 8.62.47 2.1-2.02 2.31-3.15 1.01z" style="fill:#e7f2f8"/><path d="M20 51h2.5v1.5c-1.56-.64-1.54-.93-2.5-1.5" style="fill:#d8ecf3"/><path d="M19.66 45.34c-.66-.67-1.61-2.89-1.9-3.85-4.16-13.66 15.3-20.06 20.2-6.79-2.15 1.85-4.68 3.86-6.45 6.06-1.08 1.34-4.13 7.27-4.5 7.5-1.61 1-6.2-1.76-7.35-2.93Zm2.5-1.5c.5.5 2.7 1.92 3.35 1.45.34-.25 3.42-5.73 4.5-7.02 2.54-3.04 7.1-4.55 1.67-7.2-9.14-4.47-15.73 6.53-9.52 12.77" style="fill:#0d0f0f"/><path d="M50.85 9.58c.89-.22 3.11.82 4.4.92 1.61.13 3.9.13 5.52.02 1.4-.09 5.32-1.13 5.92-.98 1.08.27 1.3 2.29-.04 2.86-3.1 1.32-13.75 1.66-16.42-.37-1.18-.9-.55-2.15.62-2.45" style="fill:#171b1c"/><path d="M111.62 100.98c.9.1 2.14-.04 3.17.03.29.05.51.19.64.42.66 1.56-.98 2.21-2.29 2.17-2.56.1-10.42-.57-8.21-3.79.95-.67 2.15.22 3.79.53 1.07.3 2.06.55 2.74.63l.17.02Z" style="fill:#e7f2f8"/></svg>