<svg xmlns="http://www.w3.org/2000/svg" data-name="fill_chocolateicecream" viewBox="0 0 128 128"><path d="M119.66 108.71c-1.55 2.4-3.67 4.44-6.67 6.41-2.96 1.93-6.3 3.5-10.53 4.93-4.59 1.55-9.72 2.75-15.69 3.65-4.09.61-8.14 1.04-12.02 1.25-1.66.09-3.32.15-4.98.22l-2.32.09s-.06.01-.1.02l-.18.02-5.75-.03c-4.52-.11-8.97-.52-13.32-1.22-5.15-.83-10.07-2.06-14.62-3.67-5.36-1.9-9.96-4.18-14.04-6.97-3.8-2.6-6.76-5.39-9.06-8.54-2.54-3.48-4.01-7.06-4.49-10.95-.04-.32-.08-.64-.11-.96l-.05-.45v-2.22l.03-.31c.03-.21.05-.41.07-.62.3-3.09 1.3-6.14 2.99-9.06 1.3-2.25 2.99-4.39 5-6.35.04-.04.06-.06.06-.07s-.01-.04-.03-.09c-1.35-3.21-2.04-6.48-2.05-9.73 0-3.11.63-6.18 1.89-9.14 1.51-3.55 3.75-6.69 6.85-9.62 2.8-2.65 6.03-4.85 9.87-6.74-.31-1.98-.43-3.94-.35-5.89.11-2.93.82-5.84 2.11-8.66 1.34-2.93 3.23-5.68 5.63-8.16 4.25-4.4 9.42-7.7 15.8-10.09 4.39-1.64 8.94-2.61 13.52-2.89.93-.06 1.89-.1 2.84-.11H70c1.58 0 2.91.96 3.39 2.46.48 1.48-.07 3.06-1.38 4-1.61 1.16-2.86 2.47-3.83 3.99-.71 1.12-.89 2.5-.49 3.8.41 1.34 1.39 2.41 2.75 3 1.18.51 2.45.8 3.89.9.55.04 1.11.06 1.67.08.71.02 1.42.04 2.13.11 3.95.35 7.58 1.72 10.77 4.07 4.5 3.33 7.36 7.77 8.51 13.21.75 3.55.58 7.15-.5 10.71 3.79 1.49 6.97 3.18 9.73 5.17 2.69 1.93 4.76 3.99 6.34 6.3 2.05 2.98 3.09 6.16 3.11 9.47 0 3.05-.87 5.96-2.62 8.64-1.09 1.64-2.45 3.14-4.16 4.56 2.79 1.5 5.07 3.11 6.98 4.89 2.45 2.31 4.09 4.71 4.99 7.34 1.61 4.64 1.06 9.1-1.62 13.25" style="fill:#4a3726;stroke-width:0"/><path d="M113.78 104.79c-1.08 1.69-2.6 3.11-4.92 4.59-2.4 1.52-5.14 2.78-8.63 3.96-3.46 1.17-7.27 2.12-11.63 2.9-3.76.66-7.65 1.15-11.89 1.49-3.91.31-7.99.47-12.14.49-3.31.01-6.38-.12-9.37-.4-7.13-.66-13.53-2.03-19.54-4.18-4.22-1.5-7.88-3.27-11.2-5.39-2.95-1.89-5.31-3.89-7.21-6.09-2.03-2.37-3.34-4.76-4-7.31-.79-3.1-.53-6.21.8-9.24.8-1.82 1.94-3.56 3.47-5.3 3 4.07 6.85 7.53 11.46 10.27 2.93 1.74 6.12 3.13 9.49 4.14 2.02.6 3.99-.4 4.57-2.34.27-.9.18-1.84-.26-2.65-.46-.85-1.27-1.49-2.28-1.79-2.97-.88-5.76-2.12-8.31-3.69-4.29-2.64-7.56-5.8-9.99-9.64-1.86-2.92-2.91-5.83-3.23-8.9-.31-2.99.22-5.93 1.59-8.74 1.53-3.16 3.87-5.93 7.16-8.47 1.38-1.06 2.87-2.03 4.54-2.93 1.81 4.69 4.49 8.8 7.97 12.2 3.03 2.96 6.5 5.15 10.3 6.53 1.67.61 3.46-.02 4.33-1.53a3.52 3.52 0 0 0-.8-4.48 3.8 3.8 0 0 0-1.07-.61c-3.37-1.22-6.37-3.3-8.92-6.17-3.64-4.08-5.89-8.89-6.7-14.3-.41-2.71-.36-5.07.17-7.2.67-2.73 1.96-5.24 3.95-7.68 2.15-2.63 4.83-4.88 8.18-6.88 3.61-2.15 7.58-3.72 11.82-4.66-.11.24-.21.48-.31.72-1.83 4.46-.49 10.98 4.92 14.19 1.86 1.1 3.91 1.8 6.1 2.08 1.44.18 2.91.25 4.27.3 3.76.14 7.01 1.47 9.64 3.97 3.33 3.15 4.89 7.1 4.64 11.75-.06 1.03-.25 2.08-.56 3.12l-.38-.1c-.63-.16-1.25-.32-1.88-.45-1.67-.34-3.47-.7-5.25-1.01-1.86-.32-3.64.97-3.99 2.86-.34 1.86.88 3.68 2.71 4.07q1.02.21 2.04.39c.77.14 1.53.28 2.29.45 4.25.93 7.97 2.15 11.36 3.75 3.21 1.51 5.66 3.11 7.72 5.02 1.75 1.63 2.88 3.19 3.55 4.9 1.23 3.17.74 6.16-1.46 8.9-1.25 1.56-2.87 2.88-5.18 4.22-2.72-.95-5.55-1.75-8.66-2.45-3.32-.74-6.73-1.32-10.43-1.75a3.56 3.56 0 0 0-2.67.75c-.73.57-1.19 1.39-1.29 2.31-.23 1.99 1.15 3.73 3.14 3.97 5.27.63 9.9 1.54 14.17 2.77 3.78 1.09 7.01 2.36 9.87 3.89 2.42 1.29 4.26 2.59 5.8 4.09 1.52 1.47 2.47 2.88 3 4.43.81 2.37.52 4.68-.87 6.86" style="fill:#7b5b3b;stroke-width:0"/></svg>