<svg xmlns="http://www.w3.org/2000/svg" data-name="fill_bowl" viewBox="0 0 128 128"><defs><linearGradient id="a" x1="-4311.75" x2="-4311.7" y1="-767.1" y2="-698.1" gradientTransform="matrix(.5 0 0 .5 2220 444)" gradientUnits="userSpaceOnUse"><stop offset="0" stop-color="#d3a978"/><stop offset=".25" stop-color="#d2a876"/><stop offset="1" stop-color="#ac7a3a"/></linearGradient><linearGradient id="b" x1="-4312.03" x2="-4312.12" y1="-811.78" y2="-759.78" gradientTransform="matrix(.5 0 0 .5 2220 444)" gradientUnits="userSpaceOnUse"><stop offset="0" stop-color="#cfa16d"/><stop offset=".21" stop-color="#cfa16c"/><stop offset="1" stop-color="#a46e28"/></linearGradient><linearGradient id="c" x1="-4311.93" x2="-4311.95" y1="-692.86" y2="-681.86" gradientTransform="matrix(.5 0 0 .5 2220 444)" gradientUnits="userSpaceOnUse"><stop offset="0" stop-color="#a06823"/><stop offset=".45" stop-color="#a46e29"/><stop offset="1" stop-color="#bc8b4d"/></linearGradient></defs><path d="M91.55 95.05c.45 7.72-.04 10.31-7.93 11.82-9.86 1.89-28.92 1.93-38.74 0-8.13-1.61-8.93-3.43-8.46-11.79C20.69 89.59 9.86 76.83 7.56 60.19c-1.01-7.31-1.5-12.3 5.28-16.61 19.46-12.36 82.37-12.21 102.01-.18 2.36 1.45 5.35 3.94 5.67 6.83 2.12 19.64-9.9 39.21-28.96 44.81Z" style="fill:#0d0d0c"/><path d="M118 57.5c-.51 7.14-2.88 14.38-7.01 20.24-16.82 23.85-67.14 24.73-88 6.52-7.42-6.48-12.77-16.91-12.74-26.76 6.72 5.27 15.84 7.41 24.16 8.84 17.19 2.97 34.99 3.23 52.29 1.1 10.65-1.31 22.51-3.61 31.3-9.94" style="fill:url(#a)"/><path d="M57 37.5c4.63-.47 9.37-.48 14 0 11.19.23 24.26 1.18 34.89 4.86 3.34 1.16 11.99 4.87 12.15 8.91.21 5.34-9.48 8.61-13.66 9.87-22.24 6.71-58.49 6.72-80.77 0-6.15-1.86-20.43-7.52-10.09-14.85 9.72-6.89 31.7-8.53 43.47-8.78Z" style="fill:url(#b)"/><path d="M56.5 105c-5.68-.14-11.99-.04-17.02-2.83.07-1.64-.06-3.3.02-4.93.03-.76-.2-.83.76-.75 4.66.86 9.32 2 14.05 2.46 5.99.59 13.46.62 19.44.06 4.97-.47 9.84-1.72 14.75-2.5-.26 2.49 1.04 5.28-1.64 6.61-3.56 1.75-11.32 1.79-15.36 1.89-4.93.5-10.07.5-15 0Z" style="fill:url(#c)"/><path d="M38 69.5V72c-.7.71-12.26-1.65-14.1-2.14-1.65-.44-10.78-3.17-10.37-5.05 1.36-2.56 3.97.16 5.98.93 5.93 2.29 12.18 3.21 18.49 3.76m5.75 1h7.5c.79 0 1.83 2.5.5 2.5h-7.5c-.51 0-2.01-1.94-.5-2.5" style="fill:#fad5a6"/><path d="M45.4 40.65c1.51-.12 6.32-.95 5.6 1.6-.34 1.19-3.23.64-4.25.75-7.34.82-15.02 2.05-22.01 4.49-2.11.74-6.08 3.14-7.6 3.43-1.66.32-2.28-1.11-.82-2.35 2.2-1.88 8.36-3.86 11.3-4.7 5.42-1.55 12.15-2.78 17.78-3.22" style="fill:#ebc291"/></svg>