<svg xmlns="http://www.w3.org/2000/svg" data-name="fill_soupcanbeetroot" viewBox="0 0 128 128"><defs><linearGradient id="a" x1="-1742.78" x2="-1842.78" y1="-592.49" y2="-592.34" gradientTransform="matrix(.5 0 0 .5 962 370)" gradientUnits="userSpaceOnUse"><stop offset="0" stop-color="#dd386a"/><stop offset=".46" stop-color="#ed6e6e"/><stop offset="1" stop-color="#dc3569"/></linearGradient><linearGradient id="b" x1="-1787.06" x2="-1770.08" y1="-589.95" y2="-537.63" gradientTransform="matrix(.5 0 0 .5 962 370)" gradientUnits="userSpaceOnUse"><stop offset="0" stop-color="#ad1033"/><stop offset="1" stop-color="#db3650"/></linearGradient><linearGradient id="c" x1="-1826.27" x2="-1803.52" y1="-632.84" y2="-608.94" gradientTransform="matrix(.5 0 0 .5 962 370)" gradientUnits="userSpaceOnUse"><stop offset="0" stop-color="#6aaa35"/><stop offset="1" stop-color="#90be21"/></linearGradient></defs><path d="M62.39 16.64c7.67-.49 17.2.5 24.37 3.34 3.53 1.4 8.28 4.05 8.75 8.25l-.24 76.79c-1.14 5.36-9.56 8.13-14.27 9.23-9.84 2.3-21.77 2.23-31.5-.51-5.28-1.49-11.93-4.27-12.51-10.49l.22-75.28c1.24-5.85 9.11-8.49 14.27-9.73 3.39-.81 7.42-1.38 10.9-1.6Z" style="fill:#0e0c0e"/><path d="M92.5 34.5c.44 23.04.47 46.96 0 70-1.33 4.18-8.11 6.21-12.09 7.16-9.68 2.3-25.98 2.14-35.02-2.3-1.28-.63-5.39-3.16-5.39-4.61V34.5c15.01 8.91 37.51 8.98 52.5 0" style="fill:url(#a)"/><path d="M55.04 20.57c1.2-.53 3.9-.99 5.21-1.07 9.03-.57 20.77.05 28.71 4.79 10.06 6.01-2.34 11.12-8.35 12.56-10.37 2.48-27.21 2.31-36.62-3.09-9.55-5.48-.44-10.83 6.33-12.06 1.94-.46 4.73-1.14 4.73-1.14Z" style="fill:#a8a9a9"/><path d="M56.01 21.05c1.13.07 2.91.31 3.03 1.48-.77 1.93-5.89 1.83-7.98 2.77-1.82.48-5.89 2.79-6.22.51.73-1.95 3.84-2.54 5.59-3.54 1.64-.78 3.45-1.35 5.39-1.23h.19Z" style="fill:#d1d1d1"/><path d="M92.5 104.5v-70l.51 1.24.03 67.06c.29.77-.42 1.33-.53 1.7Z" style="fill:#e54b6c"/><path d="M78.63 51.36c.78.67 2.56.49 3.12 1.64.36.75.15 1.71.51 2.49.31.67 1.46 1.08 1.68 1.87.27.98-.5 1.86-.36 2.79.1.65.91 1.25.83 2.03s-1.15 1.48-1.33 2.2c-.38 1.47 1.15 2.34-.82 4.13-2.43 2.22-4.43-1.29-7.26-1.01V71c5.8.11 12.07 2.79 14.24 8.51 3.98 10.5-4.13 14.01-7.62 22.36-.7 1.67-.93 5.47-2.89 5.65-1.31.12-5.84-3.66-7.89-4.6-5.62-2.58-10.39-1.94-14.55-7.45-3.67-4.87-2.51-10.99.49-15.93l5.21-5.27-2.74-2.75c-2.63 2.15-.9 5.54-5.46 4.98-2.66-.32-2.29-2.47-2.89-2.89-.5-.35-1.91 0-2.89-.86-.92-.79-.75-2.24-1.51-2.99-.54-.53-1.88-.62-2.26-1.24-.58-.95-.02-2.24-.22-3.17-.12-.56-1.61-.57-1.95-1.69-.35-1.18.4-2.22.39-3.35 0-.75-.55-1.6-.51-2.56.06-1.79 1.34-1.8 1.79-2.76.41-.87.1-1.88.72-2.78.9-1.31 2.87-.94 4.02-1.48.96-.45 1.46-2.12 2.78-2.25 1.14-.11 2.12.81 3.07.88 1.89.13 2.36-1.87 5.06-.02 1.07.73.37 1.53 2.88 1.19 1.68-.23 1.75-1.2 2.58-1.44 1.21-.35 2.95-.56 4.54-.97.61-.16 6.44.74 7.27.97 1.22.34 1.4 1.76 1.98 2.26Zm.74-27.24c2.62-.47 9.57-.49 10.53 2.73 1.83 6.12-8.02 6.7-11.84 4.85-4.24-2.06-2.82-6.84 1.31-7.58" style="fill:#0e0c0e"/><path d="M71.89 73.64c8.43-1 16.85 3.68 15.57 13.07-.46 3.4-5.05 7.83-6.86 11.14-1.13 2.07-1.67 4.17-2.84 6.14-1.92-1.3-3.8-2.6-5.92-3.58-5.36-2.47-13.48-2.52-14.72-9.78-1.56-9.17 6.3-15.99 14.77-16.99" style="fill:url(#b)"/><path d="M62.93 53.57c.25.17.27 1.54 1.09 2.16.6.46 2.27.59 2.43.82.25.39-.1 1.49.2 2.33.26.7 3.1 1.66 3.35 2.61-2.55.19-8.38 2.1-8 5.21.09.77 1.48 2.81 1 3.29-.91.9-2.64-1.72-3.35-1.93-2.57-.76-4.12 3.68-4.65 5.61-.48 1.75-1.64-1.6-1.97-1.95-.91-.94-2.33-.79-2.91-1.34-.17-.16-2.89-3.28-3.01-3.49-.3-.53.02-1.56-.36-2.39-.29-.64-1.5-1.08-1.68-1.85s.45-1.59.45-2.41-.62-1.66-.44-2.4c.15-.61 1.22-1.22 1.56-1.97s.32-2.26.4-2.35c.1-.11 1.99.03 2.87-.39s1.02-1.59 1.44-1.67c.83-.17 2 .53 2.93.56 1.1.03 2.11-.61 2.97-.54 1.04.09 1.67 1.46 2.72 1.79.94.3 2.6.05 2.96.29Z" style="fill:url(#c)"/><path d="M79.44 54.57c.24.37-.05 1.42.16 2.07.24.74 1.2 1.11 1.3 1.67.03.19.05 3.64.02 3.84-.16 1.13-1.85 2.56-.42 4.11-1.3.05-2.52-1.02-3.76-1.23-1.08-.18-2.3.03-3.4-.05-.8.19-.63 3.88-2.32 4.02-.43-.93-.3-2.83-.73-3.52-.63-1.02-2.66.16-2.77-.97 3.29-.23 5.93-.56 4.78-4.55-.43-1.49-2.39-1.55-2.68-2.06-.66-1.15.62-2.41-1.97-3.78-1.35-.72-2.56-.03-2.13-2.11 2.07.64 3.92-1.22 5.71-1.01.35.04 4.1.96 4.46 1.09.74.25.81 1.22 1.36 1.64.63.48 2.24.58 2.41.85Z" style="fill:#4a8023"/><path d="M80.36 26.61c1.57-.34 7.89-.44 7.13 2.13-.49 1.67-9.04 1.96-9.01-.49.03-.96 1.08-1.46 1.88-1.64" style="fill:#6d6c6b"/></svg>