<svg xmlns="http://www.w3.org/2000/svg" data-name="fill_fertilizer" viewBox="0 0 128 128"><defs><linearGradient id="a" x1="-611.71" x2="-611.97" y1="-559.83" y2="-366.83" gradientTransform="matrix(.5 0 0 .5 370 296)" gradientUnits="userSpaceOnUse"><stop offset="0" stop-color="#e7c394"/><stop offset="1" stop-color="#a77b52"/></linearGradient><linearGradient id="b" x1="-617.12" x2="-584.18" y1="-474.11" y2="-430.07" gradientTransform="matrix(.5 0 0 .5 370 296)" gradientUnits="userSpaceOnUse"><stop offset="0" stop-color="#b4c838"/><stop offset="1" stop-color="#8aad43"/></linearGradient></defs><path d="M57.89 12.64c13.3-.71 37.66 1.14 48.11 10.1 3.79 3.25 5.76 7.18 3.59 12.1-.6 1.37-3.03 3.52-3.1 4.41-.13 1.68 1.2 5.96 1.45 8.05 1.49 12.41 1.87 23.94 1.06 36.44-.21 3.18-2.04 12.37-1.11 14.61.48 1.16 1.78 2.32 2.36 3.63 1.49 3.39 1.7 6.34-.53 9.47-3.49 4.89-13.39 5.78-18.95 6.05-16.57.8-38.51.95-55.02-.02-4.47-.26-11.91-1.25-15.5-4-3.99-3.05-4.45-7.08-2.5-11.5.78-1.78 2.72-3.26 2.79-5.25.06-1.77-.86-4.57-1.03-6.5-1.56-17.15-1.32-34.07 1.96-51.03-.02-.99-1.72-2.03-2.38-3.04-3.77-5.76-.71-11.13 4.26-14.58 9.15-6.34 23.6-8.36 34.55-8.95Z" style="fill:#0c0d0d"/><path d="M38.5 114.5c-6.27-.16-21.14-.07-18.76-10.01.54-2.23 3.7-5.49 3.76-6.25.09-1.14-.79-3.66-.95-5.05-2.03-18.3-1.99-36.9 1.95-54.94-.11-1.36-1.28-1.28-1.84-1.92-6.44-7.42.88-12.46 7.49-15.42 16.94-7.57 47.08-7.51 64.46-1.29 4.65 1.66 10.41 4.24 12.57 8.92 2.7 5.86-3.52 7.37-3.71 9.71.63 5.02 1.97 9.96 2.51 14.99 1.59 14.82.85 30.25-1.51 44.96 1.93 3.19 5.74 7.26 3.23 11.27-3.19 5.1-12.94 4.89-18.23 5.02-16.99.43-34.01.43-51 0Z" style="fill:url(#a)"/><path d="M89.5 114.5h-51c16.6.43 34.4.43 51 0" style="fill:#b68c61"/><path d="M60.39 18.14c9.71-.44 26.13 1.06 34.95 5.26 4.31 2.05 6.62 5.38 1.15 7.84-10.36 4.65-35.24 4.73-46.74 3.76-5.5-.47-15.39-1.56-19.93-4.58-3.39-2.25-.49-5.33 2.15-6.69 7.38-3.79 20.1-5.21 28.41-5.59Z" style="fill:#452810"/><path d="M89.44 51.56c.46 5.26.33 10.71-.66 15.96-2.75 14.56-12.04 25.58-27.97 23.92-3.49-.36-6.64-2.06-9.98-2.91-1.99 2.36-3.92 4.8-5.73 7.3-1.05 1.45-4.27 7.28-5.42 7.59-1.45.39-1.91-.82-1.57-2.06.27-.98 4.74-6.96 5.71-8.31.77-1.07 5.02-6.01 5.13-6.41.32-1.12-1.67-6.02-1.87-7.95-2.29-21.92 24.72-31.14 42.38-27.13Z" style="fill:#0f110e"/><path d="M86.95 54.05c.54 11.11-2.25 26.97-13.11 32.54-6.23 3.2-13.98 2.2-20.34-.09-.62-.83 3.71-5 4.49-5.75 2.27-2.19 5.31-4.68 7.77-6.73 1.43-1.19 7.22-4.5 6.74-6.25-.56-2.04-4.06.93-4.95 1.54-6.11 4.22-11.11 9.72-16.55 14.7-1.91-6.98-2.36-12.98 2.29-18.96 7.57-9.75 21.93-13.07 33.66-10.99Z" style="fill:url(#b)"/></svg>