<svg xmlns="http://www.w3.org/2000/svg" xmlns:xlink="http://www.w3.org/1999/xlink" data-name="fill_stagecoach" viewBox="0 0 128 128"><defs><linearGradient id="a" x1="25.55" x2="25.55" y1="121.9" y2="78.95" gradientUnits="userSpaceOnUse"><stop offset="0" stop-color="#e6a501"/><stop offset="1" stop-color="#dc9600"/></linearGradient><linearGradient xlink:href="#a" id="b" x1="102.72" x2="102.72" y1="78.92" y2="121.88"/><linearGradient id="c" x1="-6623" x2="-6623" y1="-1118" y2="-1072" gradientTransform="matrix(.5 0 0 .5 3404 592)" gradientUnits="userSpaceOnUse"><stop offset="0" stop-color="#3b3b3b"/><stop offset="1" stop-color="#1e1e1e"/></linearGradient><linearGradient id="d" x1="-6734.51" x2="-6734.48" y1="-1117.05" y2="-1071.05" gradientTransform="matrix(.5 0 0 .5 3404 592)" gradientUnits="userSpaceOnUse"><stop offset="0" stop-color="#3b3b3b"/><stop offset="1" stop-color="#1e1e1e"/></linearGradient></defs><path d="M48.5 91c8.62 21.68-14.66 41.78-35.01 30.26S.45 78.65 23.5 76.5c-.29-1.71-1.46-3.07-2.02-4.73-2.01-5.92-1.22-10.07-1.46-16.04-.6-15.1-.62-30.42-.43-45.48 0-.75.5-5.51.65-5.76 1.67-2.87 3.01 3.21 2.26 4.52h26c.25-1.94-1.05-4.99 1.76-5.03 1.7-.03 1.18 4.01 1.24 5.03h26c-.89-6.82 3.38-6.82 2.5 0h26c.33-.33-1.02-7.49 2.42-4.18-.24 1.78.46 3.84.49 5.42.08 5.44-.41 11.04-.43 16.48-.06 14.66.98 30.03-1.12 44.38L105 76.5c17.68 1.34 27.78 21.07 18.58 36.34-7.02 11.66-22.07 15.07-33.74 8.07-10.34-6.21-14.13-18.71-9.85-29.9h-31.5Zm0-79.5h-26V16c8.67-.08 17.37.3 26-.5zm28.25 0H51.5v4c8.67.07 17.39-.3 26 .5-.08-1.08.43-4.14-.75-4.5m29.25 0H80V16h26zm-27 7H22.5v4.22c0 .53.82.27 1.24.29 18.27.47 36.97.03 55.27 0 8.99-.02 18.01.01 27 0v-4.22l-27-.28Zm27 7H22.5v40.25c0 .83 1.34 4.68 1.76 5.74.36.9 1.86 4.11 2.46 4.54 1.02.74 4.16.85 5.68 1.32 6.02 1.86 10.48 5.27 14.11 10.39l3.5.25V42.24c0-.05.7-.75.75-.75h27c.05 0 .75.7.75.75v45.75l3.5-.25c3.62-5.12 8.09-8.54 14.11-10.39 1.52-.47 4.66-.58 5.68-1.32.58-.42 2.12-3.66 2.46-4.54.31-.81 1.76-5.3 1.76-5.74V25.5ZM76 44H52.5v44H76zM4 102c2.52 25.66 39.83 27.05 43 1 2-16.45-13.62-28.44-29.26-22.51C9.42 83.64 3.12 92.99 4 102m78 4.5c6.35 21.81 37.93 19.79 42-2 3.74-20.03-19.94-33.59-35.51-20.26-6.66 5.7-8.93 13.89-6.49 22.26" style="fill:#030200"/><path d="M106 25.5v40.25c0 .44-1.44 4.93-1.76 5.74-.34.89-1.87 4.12-2.46 4.54-1.02.74-4.16.85-5.68 1.32-6.02 1.86-10.48 5.27-14.11 10.39l-3.5.25V42.24c0-.05-.7-.75-.75-.75h-27c-.05 0-.75.7-.75.75v45.75l-3.5-.25c-3.62-5.12-8.09-8.54-14.11-10.39-1.52-.47-4.66-.58-5.68-1.32-.6-.43-2.1-3.64-2.46-4.54-.42-1.06-1.76-4.91-1.76-5.74V25.5h83.5Z" style="fill:#821517"/><path d="M52.5 44H76v44H52.5z" style="fill:#821517"/><path d="M106.01 18.78V23c-9 .01-18.02-.02-27.01 0-18.3.03-37.01.47-55.27 0-.42-.01-1.23.24-1.24-.28V18.5H79z" style="fill:#e6a501"/><path d="M17.74 80.49C9.42 83.65 3.12 92.99 4 102c2.52 25.66 39.83 27.05 43 1 2-16.45-13.62-28.44-29.26-22.51m25.17 22.59c-2.27 19.24-32.1 19.17-34.33-.02L7.5 102l.97-1.27c.11-22.99 34.57-23.01 34.57 0L44 102z" style="fill:url(#a)"/><path d="M88.49 84.24c-6.66 5.7-8.92 13.89-6.49 22.26 6.35 21.81 37.93 19.79 42-2 3.74-20.03-19.94-33.59-35.51-20.26m30.79 21.52c-5.25 16.1-28.78 15.64-33.66-.51L84.5 105l.83-1.19c-2.52-26.93 37.44-27.47 34.39-.03l.78 1.22z" style="fill:url(#b)"/><path d="M82 61V30c.92-.23 1.75-.45 2.73-.53 4.09-.32 12.03-.41 16.04.01.67.07 2.74.65 2.74 1.26v29.5c0 .05-.7.75-.75.75H82.01ZM26 30.75c.28-1.03 1.82-1.21 2.72-1.28 2.27-.18 16.65-.24 17.77.28.23.11 1 .92 1 1v29.5c0 .05-.7.75-.75.75h-20c-.05 0-.75-.7-.75-.75v-29.5Z" style="fill:#030200"/><path d="M24.07 63.07c.21-.3 1.67-.83 2.18-.08.58.84 1.06 5.06 1.73 6.77.44 1.12 1.47 2.16 1.8 3.21.52 1.66-1.44 2.07-2.53 1.02-1.33-1.28-4.18-9.52-3.18-10.92M56.5 72.5v11.75c0 .94-2.5.94-2.5 0v-11.5c0-.99 1.82-.52 2.5-.25" style="fill:#a9474a"/><path d="M66.5 62c.7 2.57 1.23 6.55-2.25 6.55-3.67-.01-2.93-3.91-2.25-6.55-9.69 3.15-8.25-7.98 0-4 .03-1.05-.46-1.93-.5-3-.22-5.43 5.72-5.44 5.5 0-.04.89-.41 1.63-.5 2.5 8.81-2.52 9.34 7.35 0 4.5" style="fill:#dc9600"/><path d="M120.5 105c-3.12 14.26-22.27 18.08-31.95 7.7-.88-.95-3.85-6.58-4.05-7.7-2.63-14.79 10.34-26.47 24.77-21.52 9.03 3.1 13.23 12.41 11.23 21.52M101 85c-3.19.53-6.22 1.26-8.49 3.75 1.83 1.21 4.89 5.74 6.51 6.52.45.21 1.98-.17 1.98-.27zm3 0v9.25c0 .21 1.44 1.28 2.01 1.02.38-.17 5.11-5.03 5.75-5.77.33-.39.89-.61.75-1.25-2.51-1.77-5.41-2.95-8.51-3.26Zm-7 14c-.01-.72.64-1.23.27-1.98-.78-1.62-5.31-4.68-6.52-6.51-2.35 2.21-3.4 5.35-3.75 8.49zm21.5 0c-.8-3.01-1.58-6.13-3.75-8.49-1.21 1.83-5.74 4.88-6.52 6.51-.21.45.17 1.98.27 1.98zm-17.15-1.4c-4.01 1.19-1.04 8.36 3.12 5.62 3.12-2.06 1.14-6.88-3.12-5.62M97 102c-.62-.42-8.45.32-10 0 .35 3.14 1.4 6.28 3.75 8.49 1.21-1.83 5.74-4.89 6.52-6.51.22-.45-.19-1.93-.27-1.98m21.5 0h-10c-.1 0-.49 1.54-.27 1.98.78 1.62 5.31 4.68 6.52 6.51 1.43-.68 4.25-8.02 3.75-8.49m-17 14v-9.25c0-.21-1.44-1.28-2.01-1.02-.37.17-5.24 5.11-5.75 5.76-.29.38-.89.61-.74 1.25 2.45 1.79 5.42 3.19 8.5 3.26m2.5-10c-.37.33.28 8.59 0 10 3.09-.31 5.99-1.48 8.51-3.26.14-.63-.42-.86-.75-1.25-.88-1.04-4.61-4.99-5.5-5.54-.49-.31-2.15-.04-2.26.05m-60-4c-1.24 22.21-35.54 21.73-36.5 0-1.16-26.2 37.95-25.91 36.5 0M24.5 85c-3.08.07-6.06 1.47-8.5 3.26-.15.64.45.86.74 1.25.63.82 4.81 5.11 5.5 5.54.51.32 2.26.07 2.26-.05zm2.5 0v9.25c0 .29 1.92 1.57 2.5 1.04l6.01-7.03C33 86.49 30.1 85.31 27 85M10 99h9.75c.3 0 .78-.84.77-1.25-.03-1.25-5.73-5.81-6.77-7.24C11.5 92.73 10.66 95.99 10 99m21.5 0c.61.42 8.46-.32 10 0 0-1.36-2.38-7.75-3.27-8.02-1.42-.43-1.37 1.03-2.2 1.8-1.03.96-5.01 3.78-4.94 4.88 0 .12.35 1.3.4 1.34Zm-7.16-1.4c-3.22.98-1.63 6.87 1.8 6.33 4.42-.7 3.67-8-1.8-6.33M10 102c.66 3.01 1.5 6.27 3.75 8.49 1.04-1.43 6.74-5.99 6.77-7.24.01-.42-.47-1.25-.77-1.25zm31.5 0h-10c-.1 0-.49 1.54-.27 1.98.78 1.63 5.31 4.68 6.52 6.51 2.12-2.37 3.18-5.41 3.75-8.49m-17 4c-.85.11-1.44-.56-2.26-.05-.69.43-4.87 4.72-5.5 5.54-.29.38-.89.61-.74 1.25 2.45 1.79 5.42 3.19 8.5 3.26zm2.5 10c3.08-.07 6.06-1.47 8.5-3.26.15-.64-.45-.86-.74-1.25-.51-.66-5.38-5.6-5.75-5.76-.57-.26-2.01.81-2.01 1.02z" style="fill:#030200"/><path d="M84.5 58V32.5h16V58c-5.21.55-10.78.54-16 0" style="fill:url(#c)"/><path d="M28.5 37c.03-1.5-.02-3.01 0-4.5H45c-.07 5.34-.41 10.65-.5 16 .39 3.15.43 6.37 0 9.5-4.87.42-10.53.41-15.5 0-.39-6.84-.55-13.84-.5-21" style="fill:url(#d)"/><path d="M66.25 58c.32.17.32.33 0 .5z" style="fill:#dc9600"/><path d="M101.35 97.6c4.27-1.26 6.24 3.56 3.12 5.62-4.16 2.75-7.13-4.43-3.12-5.62m-77.01 0c5.46-1.67 6.21 5.63 1.8 6.33-3.43.54-5.01-5.34-1.8-6.33" style="fill:#2c2c2c"/></svg>