<svg xmlns="http://www.w3.org/2000/svg" viewBox="0 0 128 128"><path d="M66.69 4.8c11.53 1.15 20.95 9.66 23.17 21.02.36 1.85.51 3.76.52 5.64.03 21.67.11 43.34-.01 65.01-.07 11.35-5.33 19.67-15.64 24.57-11.45 5.45-26.3.92-32.97-9.86-2.78-4.49-4.14-9.35-4.15-14.59-.01-21.75-.11-43.49.04-65.24.08-11.25 5.36-19.46 15.54-24.4 2.55-1.24 5.29-1.89 8.11-2.15.21-.02.43-.02.61-.16h3.71c.33.23.72.06 1.07.16" style="fill:#4a3726;stroke-width:0"/><path d="M44.09 60.9c-.02-.26-.05-.44-.05-.63 0-9.88-.09-19.77.04-29.65.11-9.18 6.35-16.8 15.26-19.01 11.4-2.83 22.73 4.76 24.38 16.36.15 1.03.23 2.07.23 3.11.02 9.65.01 19.31 0 28.96 0 .26-.03.53-.04.87H44.08Z" style="fill:#ce4430;stroke-width:0"/><path d="M83.9 67.47c.03.17.06.28.06.39 0 10.01.1 20.01-.05 30.02-.16 10.81-9.57 19.47-20.38 19.01-9.49-.4-17.04-6.64-19.05-15.8-.29-1.35-.41-2.75-.42-4.13-.04-9.62-.02-19.24-.02-28.86v-.62H83.9Z" style="fill:#7ecde7;stroke-width:0"/><path d="M50.48 39.01c0-3.05-.19-6.11.04-9.14.52-6.91 6.19-12.19 13.09-12.44 2.09-.07 3.59 1.14 3.68 2.99.1 1.91-1.17 3.3-3.27 3.41-2.07.11-3.83.81-5.26 2.31-1.41 1.47-1.96 3.26-1.96 5.28.02 5.4.03 10.81 0 16.21-.02 2.64-2.55 4.17-4.76 2.93-1.26-.71-1.66-1.86-1.66-3.22V39h.09Z" style="fill:#4a3726;stroke-width:0"/></svg>