<svg xmlns="http://www.w3.org/2000/svg" data-name="fill_cowmilkbottled" viewBox="0 0 128 128"><defs><linearGradient id="a" x1="-315.88" x2="-315.95" y1="-420.55" y2="-400.55" gradientTransform="matrix(.5 0 0 .5 222 296)" gradientUnits="userSpaceOnUse"><stop offset="0" stop-color="#dfb9b7"/><stop offset="1" stop-color="#da9e9b"/></linearGradient></defs><path d="M48.85 5.1c9.38.37 19.65-.83 28.92-.12 2.04.16 3.35.55 3.7 2.8.23 1.49.27 6.51.02 7.96-.4 2.35-4.27 1.8-2.89 6.41l16.66 16.83 1.5 2.5.24 74.77c-.38 3.59-3.24 5.97-6.73 6.27-16.94 1.44-35.88-1.13-53.03 0-2.8-.32-5.01-2.5-6-5l-.21-75.24 1.71-3.29 16.5-16.49c2.02-4.45-2.45-4.39-2.77-7.22-.29-2.65-.68-9.27 2.37-10.18Z" style="fill:#030304"/><path d="M75.5 18.5c.13 1.41-.34 3.18.26 4.49.15.32 4.04 4.52 4.73 5.27 3.64 3.95 9.84 8.71 12.78 12.72.68.92 1.03 1.67 1.19 2.81l.06 71.47c-.41 3.15-2.17 4.49-5.24 4.76-16.24 1.43-34.57-1.13-51.04-.01-2.21-.25-3.83-1.38-4.5-3.5l-.12-73.15c.18-.98.54-1.61 1.11-2.39 2.95-4 9.15-8.77 12.78-12.72.69-.75 4.58-4.95 4.73-5.27.6-1.32.13-3.08.26-4.49h23Z" style="fill:#e4f6fb"/><path d="M49.82 7.57h28.36c1.33.43 1.06 7.24.35 7.71l-28.71.15c-1.27-.42-1.28-7.45 0-7.86" style="fill:#334ab5"/><path d="m38.5 71.5 1.07-.3c2.41 1.69 5.11 2.99 8.08 3.88l1.05 6.13q3.24 4.815 1.26 9.18c-1.12 10.81 6.11 9.82 14.12 8.07 10.54 3.09 16.85.06 12.93-11.74q2.7-5.52 3.33-11.64c2.97-.89 5.67-2.19 8.08-3.88l1.07.3c1.91 15.38-6.4 38.02-24.23 39.02-19.41 1.08-28.81-22.7-26.77-39.02Z" style="fill:#559fcd"/><path d="M42.5 58.5c.86-1.07 2.16-1.31 3.9-.71l4.04 1.08c-.27-7.88 9.85-12.53 11.4-2.76 3.67.78 5.29-.06 4.87-2.53 4.27-6.91 10.84-.6 11.06 5.37 2.18-.81 4.47-1.56 6.83-1.39l.91.94c5.5.23 7.34 2.01 6.38 7.63-.16.92-1.84 4.69-2.38 5.37-1.64 2.06-5.88 3.61-8.46 4.04.11 2.15-.2 3.92-.79 5.96-.47 1.62-2.17 4.13-2.24 5.28s.79 2.31.95 3.51c1.04 7.84-2.44 11.04-10.16 10.16-1.71-.19-3.11-1.03-5.05-.99-1.64.04-3.04.82-4.55.99-7.72.87-11.18-2.35-10.22-10.22.16-1.33 1.09-2.34 1.02-3.44s-1.79-3.68-2.25-5.29c-.59-2.04-.9-3.81-.79-5.96-2.57-.43-6.81-1.99-8.46-4.04-.54-.67-2.23-4.44-2.38-5.37-.96-5.62.88-7.4 6.38-7.63Z" style="fill:#070809"/><path d="M85.5 58.5c-3.58-.15-5.76.76-9 2 1.05-3.92-2.8-10.85-7.19-8.43-3.23 1.78-1.06 4.68-1.32 4.93-2.71.21-5.28.21-8 0 1.84-4.27-2.38-7.1-5.98-4.23-2.24 1.79-2.8 5.02-2.52 7.73-3.24-1.24-5.42-2.15-9-2 9.28-20.42 33.71-20.43 43 0Z" style="fill:#559fcd"/><path d="M50.5 8.5c3.51-1.55 2.93 6.16 1.74 6.5-2.74.78-1.51-5-1.74-6.5" style="fill:#859cfc"/><path d="M89.44 62.06c.8 6.43-4.93 12.37-11.43 9.94.93 4.44.07 9.32-2.75 12.99-5.74-4.08-13.66-3.49-20.14-1.64-.95.27-2.46 1.4-3.12.93-1.85-3.6-3.46-8.1-2-12.05-2.58.5-5.2.46-7.47-1.02-1.94-1.26-5.77-7.9-3.73-9.28 2.27-1.54 6.91-.92 9.33.18 1.33.61 3.9 3.1 5.03 2.82s2.34-3.1 3.59-3.95c2.03-1.39 10.8-1.39 13.17-.66 2.53.78 3.79 4.69 5.33 4.68.85 0 3.22-2.18 4.3-2.71 3.43-1.69 6.37-1.63 9.89-.23" style="fill:#e4f6fb"/><path d="M62.4 84.65c6.28-.43 15.91 1.59 14 10-1.26 5.53-8.13 2.48-11.62 2.33-4.3-.18-12.58 3.75-13.29-3.22s5.34-8.73 10.91-9.11" style="fill:url(#a)"/><path d="M58 54.5c-.41.8-.3 2.97-.59 3.41-.17.26-2.84 1.06-3.41 1.59-.09-2.51 1.07-5.41 3.99-5Z" style="fill:#a78e68"/><path d="M74 59c-3.35-.33-3.97-1.16-3.5-4.49 2.84-.13 2.87 2.42 3.5 4.49" style="fill:#ab906a"/><path d="M54.85 73.07c2.35-.69 3.6 2.67 1.3 3.34-3.3.96-3.1-2.81-1.3-3.34m16.21 3.37c-.68-1.01-.46-2.98.76-3.38 3.1-1.02 3.22 4.69-.76 3.38m-14.74 11.6c2.34-.71 5.47 3.02 3.69 4.72s-1.65-.5-2.53-1.49c-.38-.43-3.87-2.41-1.16-3.23m11.69 5.46c-1.99-2.59 1.66-6.73 4.01-5.27 1.86 1.16-.81 2.28-1.27 2.76-.87.93-1.25 2.18-2.74 2.5Z" style="fill:#070809"/></svg>