<svg xmlns="http://www.w3.org/2000/svg" xmlns:xlink="http://www.w3.org/1999/xlink" data-name="fill_riceoil" viewBox="0 0 128 128"><defs><linearGradient id="b" x1="54.1" x2="49.9" y1="3.35" y2="123.57" gradientUnits="userSpaceOnUse"><stop offset="0" stop-color="#eaf6fb"/><stop offset="1" stop-color="#d5edf5"/></linearGradient><linearGradient id="a" x1="259.03" x2="259.09" y1="-871.09" y2="-804.09" gradientTransform="matrix(.5 0 0 .5 -74 518)" gradientUnits="userSpaceOnUse"><stop offset="0" stop-color="#fef396"/><stop offset="1" stop-color="#efcd24"/></linearGradient><linearGradient id="c" x1="246.53" x2="246.5" y1="-896.88" y2="-877.88" gradientTransform="matrix(.5 0 0 .5 -74 518)" gradientUnits="userSpaceOnUse"><stop offset="0" stop-color="#fef395"/><stop offset="1" stop-color="#f3d843"/></linearGradient><linearGradient id="d" x1="389.32" x2="365.04" y1="-889.85" y2="-813.63" gradientTransform="matrix(.5 0 0 .5 -74 518)" gradientUnits="userSpaceOnUse"><stop offset="0" stop-color="#63a361"/><stop offset="1" stop-color="#2a7028"/></linearGradient><linearGradient xlink:href="#a" id="e" x1="74.95" x2="83.95" y1="93.05" y2="93.05"/><linearGradient xlink:href="#a" id="f" x1="64.64" x2="83.82" y1="66.52" y2="66.52"/><linearGradient xlink:href="#a" id="g" x1="81.31" x2="90.14" y1="86.89" y2="71.6"/><linearGradient xlink:href="#a" id="h" x1="62.91" x2="73.56" y1="97.5" y2="97.5"/><linearGradient xlink:href="#a" id="i" x1="66.49" x2="67.5" y1="95.06" y2="95.06"/><linearGradient xlink:href="#a" id="j" x1="61.68" x2="72.92" y1="76.17" y2="76.17"/><linearGradient xlink:href="#a" id="k" x1="70.36" x2="80.56" y1="88.32" y2="73.2"/><linearGradient xlink:href="#a" id="l" x1="54.99" x2="67.01" y1="89.51" y2="89.51"/></defs><path d="M121.22 66.98c-1.94 1.22-6.21 8.56-7.61 10.87-.31.51.08.89-1.11.65.01-1.95-1.44-3.57-1.97-5.28-.8-2.55-1.09-5.44-1.9-8.1-.82-2.69-4.55-12.14-7.4-12.62-3.62-.61-3.59 3.14-4.09 5.89-.17.93-.49 5.38-.64 5.61-.04.07-1.45.06-1.5 0-.32-.4 0-8.8 0-10.25 0-8.13-9.06-18.72-15.74-22.76-1.58-.95-9.25-4.03-9.52-4.48-.38-.63-.43-6.38-.16-7.18.34-1.04 3.7-1.87 4.3-4.2.56-2.15.38-7.55-.88-9.38-4.42-6.4-20.74-5.79-26.67-1.67-4.85 3.38-3.81 13.32 2.19 15.25-.31 1.63.58 6.52-.51 7.43-.77.64-3.3.68-4.27 1.68-6.13-9.48-18.69-11.83-27.48-4.43-10.92 9.18-6.93 27.34 6.69 31.04-.51 10.38 1.86 20.58 4.8 30.45 2.36 7.94 5.65 16.34 9.16 23.84 1.29 2.74 6.19 12.99 8.1 14.4 3.21 2.37 13.26 3.08 17.24 2.76 2.2-.18 9.54-1.62 10.97-3.03 1.06-1.05 3.67-5.85 4.54-7.46 5.21-9.59 8.18-19.42 12-29.5 1.61-4.27 4.65-7.87 3.74-13.01.95-.03 2.27.14 2.66 1.11.65 1.59.55 6.3.91 8.57.86 5.42 2.66 10.73 4.69 15.81.65 1.6 2.33 3.93 2.63 5.37.67 3.22-.98 12.3 1.31 14.18 3.1 2.55 7.09-5.43 8.39-7.7 5.49-9.68 9.47-22.1 10.85-33.15.36-2.92 2.37-14.56-3.72-10.71M21.5 33.25c.82-1.16 2.97-2.85 4.36-3.14 3.03-.63 7.26.16 8.66 3.14 0 1-3.61 3.93-4.51 5.01-1.85 2.24-3.08 4.87-4.76 7.23-4.62-2.25-7.01-7.7-3.75-12.24" style="fill:#060705"/><path d="M91.95 54.3c-.07-.44-.43-.7-.45-.8-.73-4-.97-6.03-3.08-9.67-4.63-7.95-13.03-12.82-21.7-15.3-.81-3.76.33-7.47.25-11.23 4.53-1.34 5.4-4.48 4.43-8.95-.92-4.15-11.12-5.08-14.59-4.79-5.81.49-11.78 2.18-10.78 9.16.55 3.86 4.44 3.71 4.89 5.11.3.89.26 8.16.11 9.45-.07.55.04 1.11-.52 1.48l-8.2 2.78c-3.95-9.05-15.7-12.13-23.55-6.03-9.28 7.22-7.98 21.02 2.74 25.99 1.38.64 2.58 1.84 4.5 1.5-1.38 7.29.12 14.85 1.74 22.01 3.08 13.57 9.24 30.28 16.17 42.33 2.47 4.28 3.02 4.89 8.06 5.94 4.34.89 15.82 1.08 19.3-1.76 1-.81 4.1-6.97 4.92-8.58 1.07-2.08 2.3-4.62 3.24-6.76.42-.96 2.61-5.63 2.07-6.18-1.15-.1-2.29.35-2.93 1.32-2.12 4.36-3.91 8.97-6.31 13.19-.56.99-1.8 3.39-2.57 3.93-4.01 2.83-17.2 2.65-21.38 0-1.74-1.12-5.65-9.39-6.74-11.76-3.64-7.95-9.07-22.65-9.86-31.16-.45-4.93 6.52-6.9 10.28-7.78 3.49-.81 8.2-1.49 11.76-1.74 1.47-.1 8.23.27 8.69-.06.22-.16.67-2.92 2.89-4.36 4.65-3.01 13.25-2.49 17.84.5.88.58 2.02 2.19 2.68 2.35.98.24 4.59-.98 6.13-.45.79-3.33.49-6.35-.03-9.68M50.8 11.95c-1.55-1.04-.9-2.47.93-2.47 2.59 0 5.17 1.23 8.54 1.04 1.52-.09 7.38-1.9 7.71-.23.06.28-.38 1.41-.61 1.59-1.94 1.58-14.39 1.54-16.57.07M20.99 45.76c-9.45-7.83.92-23.56 12.36-17.36 1.39.74 5.58 5.11 4.58 6.53-.14.21-3.26 2.25-3.88 2.87-2.7 2.68-5.71 6.96-6.57 10.68-2.44.15-4.68-1.22-6.49-2.72" style="fill:url(#b)"/><path d="M71 104.5c.8-1.52 2.71-5.2 4.49-3.99.48.62-2.38 7.13-3 8.13-.38.62-2.2 1.59-2.4 2.19-.51 1.54.08 2.89-1.36 4.65-2.6 3.19-16 3.15-19.09.88-.7-.51-5.83-11.01-6.57-12.68-3.27-7.43-5.6-15.31-7.57-23.18C42.09 82.75 49 84.01 56 84l-3.77 7.47c-1.3 6.03 2.74 8.71 8.27 7.03-.51 4.82.72 9.38 6.5 8.5l.38 1.04c-3.11 5.44 1.29 2.72 1.45-1.23l2.16-2.31Z" style="fill:url(#a)"/><path d="M59 81.5c-6.13-.01-13.14-.31-19-2.24-4.49-1.48-8.44-4.37-2.34-7.35 4.92-2.39 11.27-2.56 16.59-2.91 3.09-.2 7.14-1.67 9.74.75-3.82 3.13-6.92 6.4-4.99 11.75" style="fill:url(#c)"/><path d="M114.99 79.79c1.34-3.47 5.3-7.5 7.76-10.29.02 3.23-.27 6.88-.8 10.2-1.7 10.54-6.22 24.35-12.24 33.26-.33.49-1.99 3.32-2.7 2.54-.22-7.94.59-16.01 3.26-23.51.29-.8 1.95-7.63 4.73-12.2Z" style="fill:url(#d)"/><path d="M105.5 99.5c-.76-.12-.96-.92-1.24-1.51-2.74-5.74-4.81-15.39-5.27-21.74-.16-2.18 2.75 1.14 3.21 1.8 1.12 1.62 3.3 7.95 3.3 9.7z" style="fill:#3c7e3a"/><path d="M82.12 94.69c-.38.65-.79 1.42-1.55 1.73-1.19.36-2.21.69-3.34 1.32-3.06 1.32-2.45-2.67-1.6-5.53.47-1.51.6-2.48 1.85-3.68 1.58-1.5 2.21 1.29 3.68 1.51.94.38 2.33.18 2.69.85.49 1.37-1.02 2.58-1.63 3.64l-.09.15Z" style="fill:url(#e)"/><path d="M83.31 68.19c-1.14 1.46-3.16 1.76-4.86 2.24-3.19.99-6.97.46-10.26-.87-1.55-.68-4.01-1.78-3.47-3.8.8-2 2.35-2.98 4.92-3.44 2.84-.4 5.54-.26 8.24.35 2.42.61 7.38 2.21 5.53 5.37z" style="fill:url(#f)"/><path d="M90.77 76.04c-1.2 3.2-1.55 7.15-4.04 9.74-1.4 1.56-3.79 2.39-5.58.97-3.31-2.4 1.43-10.59 2.96-13.44 3.07-4.42 7.53-2.75 6.71 2.53l-.04.2Z" style="fill:url(#g)"/><path d="M72.24 97.61c-1.12 2.89-5.03 8.86-8.41 6.11-1.62-2.07-.72-4.93-.2-7.25.39-1.7 1.03-4.27 2.6-5.23 1.85-1.12 6.06-.84 7.15 1.13.57 1.29-.39 3.5-1.06 5.06l-.08.19Z" style="fill:url(#h)"/><path d="M67.5 95.5c-.67-.09-.96-.42-1.01-.88.29 0 .62.25 1.01.88" style="fill:url(#i)"/><path d="m106.5 68.5-6.2-3.04-.71-.78c-.47-3.11.52-6.13.93-9.17 2 .89 6.62 12.34 5.99 13Z" style="fill:#5d9a5a"/><path d="M115.89 80.14c1.27-.55 2.49.3 1.93 1.7-1.1 4.38-3.42 8.65-4.99 12.94-.16.35-.35.68-.6.94-.39.33-.9.71-1.43.63-1.83-.4.42-4.5.48-5.76.68-3.19 2.39-5.87 3.73-9.09.2-.46.38-1.02.75-1.28l.12-.08Z" style="fill:#80cd7b"/><path d="M61.93 79.94c-1.05-2.93 1.45-6.94 4.28-8.29.77-.08 1.56.54 2.41.67 1.18.36 3.48.57 4.27 1.21.14.3-.38.72-.62.99-3.04 3.14-3.53 6.66-8.77 6.13-.51-.06-1.22-.21-1.5-.58l-.08-.12Z" style="fill:url(#j)"/><path d="M105 71.5c2.01 2.34-.37 4.68-2.5 2.5-.1-.12-.8.1-1.5-1q-2.49-2.31-6.75-2.64c-2.46-.44-2.87-3.37-.25-3.36 5.17.68 7.08.94 11 4.5" style="fill:#80cd7b"/><path d="M80.43 73.15c-.39 3.46-2.99 6.49-3 10.1 0 .77.14 1.48-.24 2.2-.27.55-.93 1.14-1.44 1.56-2.15 1.84-6.12 3-6.39-.89-.17-5.88 6.29-13.37 11.01-13.05z" style="fill:url(#k)"/><path d="M75.47 63.2c.64.28 1.3.88 1 1.47-.46.8-3.44.52-4.98.78-1.49.16-2.64 1.26-4.15 1.21-.9-.04-1.32-.85-.96-1.48 1.24-2.17 6.48-2.67 8.96-2.05l.14.06Z" style="fill:#e2f6fa"/><path d="M105 71.5c2.76 2.51 5.99 5.66 3.49 9.5-.65-1.17-2.31-1.01-2.41-1.11-.34-.31-2.42-4.56-3.58-5.89 2.05.28 2.78-.42 2.5-2.5" style="fill:#5d9a5a"/><path d="M73.41 78.48c.74-.34 1.77.13 1.56 1.07-.38 1.4-1.96 2.55-2.23 4.07-.5 1.32.07 5.06-2.14 4.22-2.54-1.76.44-8.14 2.66-9.3zm10.26 8.33c-1.74 1.67-2.93-1.09-3.14-2.61-.31-1.68.07-3.05.68-4.59.23-.62.69-1.09 1.26-1.37 2.1-.59 1.22 1.85.89 3.27-.35 1.38.04 2.61.48 3.85.15.5.16.98-.08 1.34l-.09.12Zm-14.95 5.03c.14.99-.46 1.95-.78 2.85-.82 1.69-1.34 2.85-2.05 4.5-.74 1.28-2.12.65-2.1-.75.12-2.36 1.58-7.24 3.93-7.63.48 0 .85.37.97.86l.03.16Z" style="fill:#e2f6fa"/><path d="M94 67c-3.25 4 4.89 2.6 6.74 5.01.26.34.16.83.26.99-2.5-1.63-6.3-1.61-8.62-2.63-2.02-.88-3.1-3.53-6.37-1.88.1-.5-.38-1.34.34-1.49 1.97-.4 3.94-.64 5.96-.54.96.05 1.46.5 1.69.53Z" style="fill:#5d9a5a"/><path d="M65.63 72.85c1.42-.27 1.94 1.72.75 2.72-.8.75-1.41 1.93-1.62 3.15-.17 1.17-1.05 1.77-1.91 1.17-2.2-1.75 1.04-6.25 2.64-7l.13-.04Z" style="fill:#e2f6fa"/><path d="M66.13 86.84c-3.21 2.61-3.27 8.85-8.23 9.23-1.93.04-3.15-2.36-2.87-4.08.49-2.34 3.06-5.63 4.51-7.2.6-.66 1.15-1.32 2.01-1.63 1.38-.46 2.92-.09 4.31-.09 1.87.07 1.04 2.64.35 3.64l-.09.13Z" style="fill:url(#l)"/><path d="M70.88 104.62c-.45 1.56-1.59 3.25-1.7 4.97-.1.95-.19 1.52-.94 1.92-.89.4-2.17 1.3-3.14 1.06-.2-.11-.26-.38-.25-.74.06-1.17.51-2.47 1.08-3.52.91-1.89 3.26-2.61 4.92-3.7l.03.02Z" style="fill:#f7ec90"/><path d="M76.83 90.25c1.46-1.25 1.42.58 1.48 2.21.08 1.1.34 2.28.14 3.39-.22 1.54-1.62 2.35-2.31 1.21-.9-1.92-.74-5.19.59-6.72l.1-.1Zm-18.2-3.19c.88-.38 2.37.23 1.74 1.49-.23.52-.66 1.14-1.05 1.77-.76 1.2-1.16 2.36-2.21 2.66-.75.25-1.55-.26-1.33-1.25.38-1.61 1.41-3.77 2.72-4.61l.14-.06Z" style="fill:#e2f6fa"/><path d="M67.37 11.88c-1.94 1.58-14.4 1.54-16.58.07-1.55-1.04-.9-2.48.93-2.48 2.59 0 5.17 1.23 8.55 1.04 1.52-.08 7.38-1.9 7.71-.23.06.28-.38 1.41-.61 1.59Z" style="fill:#0a0b0b"/></svg>