<svg xmlns="http://www.w3.org/2000/svg" viewBox="0 0 128 128"><path d="M123.37 21.04c.22-4.27-2.19-8.28-6.59-10.99-.14-.08-.27-.16-.41-.23-4.9-2.58-9.92-4-14.77-5.38-1.67-.47-3.25-.92-4.81-1.41-3.57-1.22-6.94-1.84-10.28-1.87h-1.54c-1.67 0-3.34-.01-5.02-.03-1.72-.02-3.45-.03-5.18-.03-7.42 0-15.39.27-23.31 2.26-.04.01-.08.03-.12.04-1.68.45-3.53.66-5.85.66-2.02 0-4.13-.16-6.36-.33-2.4-.18-4.88-.36-7.45-.36h-.44c-.42 0-.86-.02-1.31-.03-.63-.02-1.27-.04-1.91-.04-8.8 0-11.82 4.86-12.86 8.12a99.6 99.6 0 0 0-7.11 28.69c-.23 1.13-.65 2.4-1.08 3.73-.43 1.3-.87 2.65-1.24 4.13-1.49 5.59-1.94 11.83-1.31 18.57.57 9.08 4.79 16.78 8.44 22.5 3.47 6.09 8.44 13.67 16.32 18.75 2.5 1.76 5.39 2.69 8.37 2.69 2.05 0 4.07-.43 6.02-1.28 2.62-1.04 5.63-2.32 8.48-4.25.77-.49 1.44-1 2.04-1.45.21-.16.47-.35.71-.53.14.16.28.35.37.55.08.18.16.35.26.52 3.91 7.04 9.65 12.15 14.22 15.81q.21.18.45.33c.27.19.71.52 1.18.87 3.01 2.25 7.14 5.33 11.74 5.33s8.56-3.3 9.63-8.41c.04-.18.07-.36.1-.54.55-4.27-.01-8.34-.49-11.93-.23-1.68-.45-3.26-.54-4.76-.01-.16-.03-.32-.05-.48-.98-7.35.7-14.29 4.7-19.54.2-.25.38-.52.53-.8.11-.19.32-.52.53-.85.78-1.23 1.85-2.9 2.52-4.82 1.91-5.5-.74-9.02-1.96-10.28-.18-.18-.37-.36-.57-.52-1.87-1.54-4.28-2.32-7.15-2.32-.8 0-1.53.06-2.14.12-.16.01-.33.03-.5.04.36-1.52.33-3.17-.1-4.84-.13-.57-.3-1.11-.48-1.64q.585-.135 1.17-.33c1.64-.51 3.03-1.25 4.16-1.85l.63-.33c.04-.02.07-.04.11-.06 3.4-1.82 7.49-2.77 11.82-3.77 1.09-.26 2.17-.51 3.25-.77l.31-.09.16-.05c3.52-1.03 12.86-3.79 12.59-12.26-.02-.61-.12-1.21-.29-1.79a8.6 8.6 0 0 0-2.42-3.9c2.94-2.26 4.66-5.27 4.83-8.57m-59.55 51.7c-.3.2-.74.31-1.29.31-.15 0-.31-.01-.47-.02-.04-.01-.07-.01-.1-.01l-.67-.07c-2.8-.25-5.45-.5-7.17-1.47-.12-.07-.24-.13-.36-.19-.14-.07-.55-.28-.69-.87-.06-.28-.1-.83.33-1.38 1.84-2.37 4.32-4.28 7.42-5.73.21.23.44.47.69.7.07.06.14.12.21.17 2.73 2.32 5.92 3.4 8.83 3.94-1.45.95-2.85 1.93-4.2 2.87-.84.59-1.69 1.18-2.53 1.75" style="fill:#4a3726;stroke-width:0"/><path d="m104.29 31.47.03.09c.19.7 1.79 1.01 3.39 1.31 2.01.49 5.96.72 6.54 2.65.1 3.14-5.25 4.64-7.74 5.38-5.62 1.38-11.52 2.39-16.71 5.18-1.22.63-2.47 1.36-3.77 1.75-2.69.99-7.56-.49-9.07 2.48-.2.86.73 2.02 1.59 3.26.93 1.38 1.81 2.94 2.19 4.56.71 2.69-1.45 3.6-3.59 3.6-.18 0-.36 0-.53-.02-3.54-.17-7.55-.48-10.39-2.87-1.01-.93-1.07-2.29-1.69-3.31-.27-.39-.66-.52-1.09-.52-.64 0-1.37.29-1.94.49-5.33 1.81-10.15 4.76-13.62 9.22-3.32 4.22-2.08 10.46 2.78 12.85 3.22 1.83 6.96 2.07 10.64 2.42.4.04.81.06 1.22.06 1.85 0 3.65-.47 5.22-1.52 6.5-4.41 12.86-9.62 21-10.31.47-.04 1-.09 1.52-.09 1 0 2.01.15 2.71.73 1.94 1.99-1.04 5.63-2.17 7.61-5.37 7.04-7.24 15.98-6.08 24.71.33 5.1 1.73 10.25 1.07 15.35-.44 2.09-1.47 2.85-2.78 2.85-2.85 0-7-3.64-8.99-4.99-4.84-3.88-9.44-8.28-12.48-13.75-1.19-2.62-3.88-4.96-6.77-4.96-.56 0-1.13.09-1.69.28-1.83.65-3.25 2.12-4.88 3.14-2.24 1.53-4.73 2.6-7.35 3.64a8 8 0 0 1-3.31.74c-1.55 0-3.07-.49-4.45-1.49-6.3-4.02-10.62-10.17-14.24-16.57-3.79-5.91-7.04-12.29-7.46-19.43-.51-5.37-.31-11 1.11-16.28.71-2.89 1.94-5.68 2.48-8.61.85-9.4 3.15-18.64 6.78-27.33.82-3.04 3.5-3.47 6.25-3.47 1.1 0 2.21.07 3.22.07h.44c4.61 0 9.23.69 13.81.69 2.58 0 5.14-.22 7.68-.91 7.05-1.77 14.32-2.05 21.6-2.05 3.41 0 6.81.06 10.2.06h1.47c2.79.03 5.53.61 8.16 1.52 6.23 1.96 12.67 3.26 18.51 6.33 4.61 2.84 4.33 6.75-.68 9.17-2.53 1.57-5.14 2.96-7.32 4.84-.39.36-.94.96-.82 1.45" style="fill:#d2938b;stroke-width:0"/><circle cx="86.48" cy="13.57" r="2.16" style="fill:#4a3726;stroke-width:0"/></svg>