<svg xmlns="http://www.w3.org/2000/svg" data-name="fill_sunflower" viewBox="0 0 128 128"><defs><linearGradient id="a" x1="-971.89" x2="-1018.64" y1="-147.24" y2="-133" gradientTransform="matrix(.5 0 0 .5 518 148)" gradientUnits="userSpaceOnUse"><stop offset="0" stop-color="#eece25"/><stop offset=".29" stop-color="#eece27"/><stop offset="1" stop-color="#faf18f"/></linearGradient><linearGradient id="b" x1="-799.05" x2="-850.76" y1="-192.61" y2="-191.96" gradientTransform="matrix(.5 0 0 .5 518 148)" gradientUnits="userSpaceOnUse"><stop offset="0" stop-color="#f9ee87"/><stop offset="1" stop-color="#efd02b"/></linearGradient><linearGradient id="c" x1="-869.82" x2="-840.87" y1="-115.11" y2="-74.96" gradientTransform="matrix(.5 0 0 .5 518 148)" gradientUnits="userSpaceOnUse"><stop offset="0" stop-color="#eecd25"/><stop offset=".32" stop-color="#efcf29"/><stop offset="1" stop-color="#faf18e"/></linearGradient><linearGradient id="d" x1="-845.49" x2="-799.4" y1="-148.48" y2="-130.4" gradientTransform="matrix(.5 0 0 .5 518 148)" gradientUnits="userSpaceOnUse"><stop offset="0" stop-color="#eece25"/><stop offset=".34" stop-color="#efcf29"/><stop offset="1" stop-color="#f9f08c"/></linearGradient><linearGradient id="e" x1="-946.81" x2="-977.3" y1="-114.2" y2="-75.18" gradientTransform="matrix(.5 0 0 .5 518 148)" gradientUnits="userSpaceOnUse"><stop offset="0" stop-color="#eece25"/><stop offset=".28" stop-color="#eece26"/><stop offset="1" stop-color="#faf292"/></linearGradient><linearGradient id="f" x1="-976.57" x2="-948.19" y1="-263.83" y2="-223.18" gradientTransform="matrix(.5 0 0 .5 518 148)" gradientUnits="userSpaceOnUse"><stop offset="0" stop-color="#faf294"/><stop offset=".72" stop-color="#efd02a"/><stop offset="1" stop-color="#eecd25"/></linearGradient><linearGradient id="g" x1="-1019.54" x2="-972.01" y1="-204.31" y2="-188.8" gradientTransform="matrix(.5 0 0 .5 518 148)" gradientUnits="userSpaceOnUse"><stop offset="0" stop-color="#faf292"/><stop offset=".7" stop-color="#efcf2a"/><stop offset="1" stop-color="#eece25"/></linearGradient><linearGradient id="h" x1="-839.6" x2="-868.84" y1="-261.68" y2="-221.49" gradientTransform="matrix(.5 0 0 .5 518 148)" gradientUnits="userSpaceOnUse"><stop offset="0" stop-color="#faf294"/><stop offset="1" stop-color="#f0d231"/></linearGradient><linearGradient id="i" x1="-908.33" x2="-907.96" y1="-284.28" y2="-235.81" gradientTransform="matrix(.5 0 0 .5 518 148)" gradientUnits="userSpaceOnUse"><stop offset="0" stop-color="#f9ed84"/><stop offset=".67" stop-color="#efcf29"/><stop offset="1" stop-color="#eece25"/></linearGradient><linearGradient id="j" x1="-906.61" x2="-907.73" y1="-101.93" y2="-53.97" gradientTransform="matrix(.5 0 0 .5 518 148)" gradientUnits="userSpaceOnUse"><stop offset="0" stop-color="#eece25"/><stop offset=".27" stop-color="#eece26"/><stop offset="1" stop-color="#faf294"/></linearGradient></defs><path d="M74.03 11.97c3.03-.05 4.78-3.15 8.01-2.26 1.62.45 3.38 6.17 4.2 6.23 2.75-1.45 6.08-2.32 9.15-2.8 2.27-.35 5.34-1.34 6.49 1.23 1.82 4.08.88 9.76 1.12 14.13 1.82-.01 6.04.14 7.24 1.51 1.96 2.24-.39 5.45-.22 7.97 2.58.28 4.98 1.39 7.33 2.43 2.04.9 6.86 2.71 6.56 5.22-.27 2.28-4.02 7.95-5.49 10.04-.52.73-2.33 2.17-1.9 2.81.45.05.87.21 1.18.55 4.96 5.34 3.96 5.3-.4 10.31-.3.34-1.02-.2-.81.92.08.43.65.14 1 .61 1.47 1.93 6.54 9.89 6.48 11.92-.08 2.71-11.23 7-13.98 7.23 2.23 7.36.92 9.77-7 9.49.19 2.62.05 13.92-2.01 15.24-2.77 1.77-12.33-1.57-15.48-2.74-.12 1.17-2.1 5.56-2.83 6.04-2.96 1.93-7.28-2.9-8.6-1.98-.61 1.31-1.46 2.77-2.36 3.9-1.34 1.69-5.95 6.95-7.97 6.85-2.42-.12-8.97-8.22-9.77-10.78-3.03.05-4.78 3.15-8.01 2.26-1.62-.45-3.38-6.17-4.2-6.23-2.83 1.43-6.42 2.49-9.56 2.89-1.67.21-4.68.74-5.72-.67-2-2.69-1.29-11.39-1.47-14.78-7.94.27-9.21-2.15-7-9.49-2.35-.21-4.54-1.15-6.68-2.07-1.47-.63-6.81-3.12-7.12-4.4-.97-4.03 6.5-10.95 6.72-13.36.17-1.81-4.12-3.71-3.97-6.42.12-2.12 4.12-4.25 3.97-5.92-.19-2.08-6.78-8.6-6.86-12.59-.03-1.72 1.66-2.24 2.93-3 3.17-1.88 7.4-3.6 11.01-4.24-2.22-7.36-.92-9.77 7-9.49.07-4-.69-10.98 1.27-14.48 1.37-2.46 7.25-.75 9.64-.18 2.01.48 4.05 1.06 5.85 2.11.82-.06 2.58-5.78 4.2-6.23 3.23-.89 4.98 2.2 8.01 2.26.93-2.68 7.24-10.57 9.86-10.88 2.42-.28 9.5 8.35 10.21 10.88Z" style="fill:#0f110c"/><path d="M60.39 34.14c21.4-2.46 38.39 17.64 32.36 38.36C86 95.7 55.74 101.58 40.51 82.74c-14.68-18.15-3.1-45.96 19.88-48.6" style="fill:#674930"/><path d="M11.63 73.63c1.07-1.13 2.23-2.58 3.34-3.73 2.83-2.85 8.12-5.27 12.01-5.81 5.43-.59 4.42.61 4.93 5.06.23 1.7 1.09 3.36-.16 3.92-1.36.58-3.18.76-4.42 1.56-.97.56-1.38 1.56-.4 2.03 1.48.71 4.71-1.05 6.29-1.02 1.05.32 1.05 1.4 1.64 2.49.41 1.15 1.12 2 .97 3.07-.18.67-1.29 1.09-2.19 1.87-1.92 1.59-3.33 3.82-5.65 4.58-6.67 1.57-13.35-1.14-19.34-3.75-.56-.25-1.24-.56-1.56-1.02-.65-1.24.52-2.76 1-3.93 1.02-1.88 1.99-3.59 3.43-5.2l.11-.13Z" style="fill:url(#a)"/><path d="M99.48 40.9c5.94-3.2 15.76 1.42 21.33 4.13 1.53 1.38-6.01 11.17-7.46 12.49-3.52 3.5-8.17 6.04-13.16 6.43-1.21.01-3.32.4-3.65-1.05-.15-1.21.03-2.98-.33-4.5-.12-.99-.71-2.07-.46-3.05.15-.41.62-.63 1.05-.76 2.03-.56 5.89-.89 4.86-3.26-1-.83-2.93.08-4.11.4-1.3.34-2.73 1.12-3.34.19-.93-1.83-1.86-4.08-2.71-5.93-.19-.53-.53-.89-.39-1.38.43-1.01 6.26-2.91 8.25-3.65z" style="fill:url(#b)"/><path d="M77.77 103.18c-1.41-1.98-3.3-4.87-3.15-7.41.26-1.07 1.38-1.62 2.3-2.11 1.93-.88 3.7-2.07 5.29-1.44 1.17.52 1.92 1.86 2.89 2.67 2.12 1.8 2.57-.25 1.57-1.89-.68-1.29-1.61-2.39-1.46-3.43.3-1.64 2.14-3.44 3.71-3.73 1.53-.14 3.39 1.36 4.92 2 5.06 1.79 5.99 6.53 6.27 11.88.01 3.24 2.07 12.47-2.42 13.11-4.73-.34-8.98-1.59-12.98-4.4-2.29-1.55-4.99-3.1-6.82-5.11l-.11-.13Z" style="fill:url(#c)"/><path d="M101.13 88.03c-2.94-.34-10.18-3.12-10.16-5.24.11-1.19 1.02-2.21 1.58-3.29.28-.48.57-.97.84-1.46.72-1.24.88-2.35 1.6-2.4.61-.03 1.13.19 1.76.38 1.27.37 5.33 2.01 4.94-.47-.48-1.34-3.83-2-5.41-2.4-.53-.12-.8-.46-.74-1 .16-1.18.47-3.74.82-5 .4-.92 1.52-.36 2.84-.57 1.97-.16 4-.84 5.89-1 5.49-.24 13.33 10.25 15.49 15.21.51.97.72 2.05-.45 2.57-2.13 1.13-6.44 3.09-8.66 3.86-2.77.86-7.76.79-10.22.8h-.12Z" style="fill:url(#d)"/><path d="M29.99 91.19c1.06-2.48 5.4-6.95 7.08-7.58.63-.19 1.03.21 1.51.68 1.03 1.08 2.31 2.51 3.37 3.66 1.16 1.25 1.62 1.81 1.03 2.72-.8 1.39-2.87 3.13-2.39 4.84 1.63 2.12 3.78-2.77 5.07-3.44 1.3-.56 2.6.51 3.85.94.82.39 1.37.61 1.68 1.24.33.77-.31 2.09-.51 3.45-.43 2.31-.6 4.88-1.96 6.79-4.11 4.97-11.62 7.16-17.99 8.05-.95.11-2.15.22-2.51-.76-.68-1.91-1.03-7.51-.96-10.25.37-3.08 1.88-7.29 2.68-10.2l.05-.12Z" style="fill:url(#e)"/><path d="M27.38 25.06c-.09-1.96.15-5.45.62-7.84.15-.72.5-1.42 1.23-1.67 6.7-.75 18.8 5.17 21.94 10.83 3.68 6.8 3.11 6.44-3.6 9.39-2.74 1.49-3.7-2.93-5.71-3.68-1.25-.49-1.71.78-1.08 2.04.66 1.52 2.17 2.67 2.37 3.85-.15 1.38-1.95 2.47-2.84 3.53-1.13 1.13-1.42 1.05-2.74.48-2.16-.95-4.63-1.94-6.39-3.51-.46-.44-.81-.91-1.11-1.47-1.64-3.41-2.34-8.72-2.67-11.83v-.13Z" style="fill:url(#f)"/><path d="M10.36 52.15c-1.34-1.72-3.51-4.72-3.51-6.3.06-.92.87-1.31 1.67-1.73 8.13-3.95 17.49-6.26 25.79-1.4 3.32 1.66 3.04 2.67.99 6.11-.74 1.1-1.17 2.75-2.52 3.19-1.62.49-3.97-1.75-5.57-.94-1.1.58-.81 1.68.36 2.38 1.39 1.03 3.74.75 4.68 2.04.46 1.39-.1 3.73-.59 5.13-.48 1-1.77.7-3.47.92-1.91.19-3.96.84-5.83.86-.55-.02-1.02-.13-1.52-.35-3.12-1.46-8.06-6.3-10.35-9.75l-.11-.15Z" style="fill:url(#g)"/><path d="M84.34 19.39c2.63-1.69 9.92-3.8 13.57-4.22.45-.04.91 0 1.25.25 2.62 4.07 1.39 19.48-2.32 22.88-1.07.79-3.07 1.47-4.46 2.34-1.32.76-2.54 1.83-3.69 1.53-1.45-.57-3.22-2.33-3.66-3.8-.14-1.64 2.21-3.26 2.47-4.98.31-1.25-.69-1.98-1.8-.99-1.51 1.13-2.57 4.09-4.82 3.67-1.47-.41-3.4-1.44-4.82-2.16-.58-.33-1.12-.75-1.32-1.39-.44-2.79 1.57-4.68 3.38-6.67 2.07-2.19 4.33-4.87 6.12-6.38z" style="fill:url(#h)"/><path d="M66.17 5.52c4.27 4.41 8.25 9.71 9.08 15.95.47 2.26-.83 4.09-1.78 6.17-1.56 3.63-.75 5.03-5.24 4.42-1.08-.17-1.82-.09-2.39-.96-.57-1.81.14-5.72-1.73-6.65-1.41-.05-1.66 3.3-1.71 4.65-.04.99 0 1.78-.38 2.22-.77.86-2.78.77-4.29.86-2.06.08-1.88-1.5-2.68-3.51-.91-2.58-2.91-5.02-2.42-7.78 1.01-4.04 4.73-11.06 8.16-14.29 1.54-1.7 3.15-3.81 5.23-1.22l.13.14Z" style="fill:url(#i)"/><path d="M58.54 96.32c1.14.18 2.84-.37 3.68.62.34.79.03 2.57.25 3.64.36 4 2.56 4.51 3.06 0 .12-.98.11-2.22.07-3.12-.01-.61.09-.98.74-1.12.97-.15 3.28-.28 4.5-.37.32 0 .61 0 .85.17.47.3.47 1.81.9 2.7.81 2.12 2.61 4.25 2.85 6.43.28 5.8-6.53 15.29-11.35 18.67-.14.02-.27 0-.41-.05-1.94-1.23-6.61-6.65-8.01-9.55-.48-1.49-3.49-11.99-1.19-17.24.68-.99 2.79-.75 3.87-.77h.19Z" style="fill:url(#j)"/><path d="M58.09 11.24c1.13-1.13 3.19-1.12 3 .61-.13 1.34-.65 2.25-1.13 3.4-.86 1.85-1.57 3.83-1.91 6.02-.36 2.2-.75 4.54-1.27 5.1-1.16.96-1.94-4.44-1.91-5.64-.16-3.45 1.09-7.57 3.1-9.38zm-28.88 88.4c-.15-1.28.4-3.31.98-4.93.66-1.7 1.91-2.68 3.2-4.04.51-.5 1.19-1.06 1.92-1.03 2.36.41-1.46 5.61-1.7 6.96-.85 2.27-1.15 4.92-.96 7.44.25 1.38-.45 4.58-1.86 2.42-.78-1.97-1.03-4.86-1.55-6.66l-.02-.16Zm1.95-63.84c-2.51-2.68-3.42-12.4-.18-14.42 2.07.61 1.36 6.7 2.18 8.8.44 2.42 2.15 4.7 2.42 6.88-.02 3.03-3.53 0-4.3-1.11zm25.85 62.19c1.54 2.28.67 7.85 1.83 10.98.53 2.09 1.43 4.1 1.61 6.22.02.5 0 .95-.27 1.26-1.14.9-2.99-.95-4.15-3.23-.83-1.64-1.27-3.54-1.48-5.63-.36-2.02-.38-11.08 2.39-9.68l.07.07Zm28.04 9.4c-2.74-1.54-5.33-4.53-6.58-7.35-2.01-5.57 5.87 2.1 7.97 3.19 2.52 1.58 5.36 2.52 7.5 3.94.52.38 1.21.79 1.26 1.4-.08.41-.52.51-.98.66-2.97.69-6.39-.24-9-1.74zm-.71-85.42c1.87-.17 9.78-3.96 10.39-1.48-.41 1.44-2.78 1.89-4.15 2.47-3.69 1.13-6.59 3.61-8.72 6.61-1.67 2.08-3.51 1.21-3.63-1.07.2-2.56 3.41-5.54 5.96-6.48l.16-.05Zm15.97 20.12c3.08.41 7.07-.44 10.18.58.9.33 1.99.77 2.05 1.57-.57 1.64-6.28.42-8.32.72-1.66.06-3.31.32-4.85.83-1.72.54-3.52 1.53-4.95 1.37-.81-.06-1.42-.6-1.41-1.24.26-2.07 4.81-3.91 7.13-3.84h.17ZM19.18 58.06c-3.37-1.02-6.83-5.84-6.45-10.24.35-.84 1.08-.26 1.66.33 1.29 1.5 2.58 3.61 4 4.77.79.72 1.68 1.29 2.46 2.02 2.19 1.95.32 3.53-1.51 3.15l-.15-.03Zm82.87 28.42c-1.4-.24-4.66-1.68-2.58-2.76 1.24-.61 3.82-.24 5.69-.38 2.89.08 6.39-1.66 8.82-1.83.82-.03 1.59.49 1.18 1.17-.7 1.16-2.65 1.59-3.96 2.2-2.69 1.32-5.8 2.49-8.96 1.64zm-90.68-8.75c.71-2.82 2.66-5.09 4.6-6.79 2.75-2.29 5.35-2.55 1.89 2.92-1.59 2.25-4.28 7.75-5.65 8.1-1.49.11-1.14-2.76-.89-4.03l.05-.21Z" style="fill:#fdfbf0"/><path d="M20.5 37.5c-1.17-5.52-.87-6.47 4.97-6.47l2.03 6.47zm87 0h-7l2.03-6.47c5.83 0 6.14.95 4.97 6.47m-80 53-2.03 6.47c-5.83 0-6.14-.95-4.97-6.47zm80 0c1.17 5.52.87 6.47-4.97 6.47l-2.03-6.47zm-89-26.99c.25.34.09.7-.31 1.03-.48.39-4.19 2.97-4.46 2.99-1.55.15-3.11-2.31-4.2-3.34-.15-.68 2.94-3.64 3.74-3.71 1.31-.13 2.05 1.2 3.06 1.95.62.45 2.09.99 2.16 1.09Zm91 .98c-.25-.34-.09-.7.31-1.03.48-.39 4.19-2.97 4.46-2.99 1.55-.15 3.11 2.31 4.2 3.34.15.68-2.94 3.64-3.74 3.71-1.31.13-2.05-1.2-3.06-1.95-.62-.45-2.09-.99-2.16-1.09Zm-26 46.02c.18.23-2.04 4.99-2.31 5.03-.98.15-4.95-1.51-5.13-2.34.39-1 1.43-5.52 2.2-5.7 1.86.79 3.13 2.76 5.24 3.01m-36.94 4.93c-.29-.21-1.73-3.91-1.51-4.61.25-.77 3.36-2.39 4.14-2.24 1.23.24 2.09 3.55 2.81 4.63-.82.89-4.52 2.88-5.44 2.23ZM81.44 12.56c.36.26 1.94 4.14 1.34 4.97-.39.54-4.03 1.64-4.78 1.25-.8-.42-2.3-3.58-1.79-4.28.47-.66 4.49-2.47 5.23-1.94m-31.05 5.83c-1.46 1.55-5.85.14-5.31-2.52.06-.27 1.33-3.2 1.47-3.31.91-.65 4.62 1.34 5.44 2.23-.67.8-1.15 3.12-1.61 3.6Z" style="fill:#eacb26"/></svg>