<svg xmlns="http://www.w3.org/2000/svg" data-name="fill_lime" viewBox="0 0 128 128"><defs><linearGradient id="a" x1="720.13" x2="719.94" y1="-546.84" y2="-393.84" gradientTransform="matrix(.5 0 0 .5 -296 296)" gradientUnits="userSpaceOnUse"><stop offset="0" stop-color="#e5dfcb"/><stop offset="1" stop-color="#cfc4ac"/></linearGradient></defs><path d="M88.34 30.66c1.68 1.67 1.99 4.87 3.23 6.52 1.12 1.5 3.82 2.97 5.15 4.85 1.22 1.72 1.84 4.22 3.06 5.94s3.72 3.28 4.94 5.06c1.15 1.68 1.41 3.76 2.56 5.44 1.32 1.92 4.22 3.67 5.45 5.55 1.03 1.57 1.36 3.77 2.55 5.45 1.32 1.87 3.86 3.46 5.22 5.28 2.09 2.79 2 4.29 4.77 7.21 1.85 1.95.59 2.36.74 4.23.13 1.62 1.51 2.91.9 4.95-.23.77-1.39 1.35-1.69 2.32-.37 1.17.02 2.56-.46 3.54-.42.86-2.4 1.4-3.28 2.22-.71.66-1.1 1.85-1.69 2.3-.31.23-6.86 1.91-7.51 1.99-3.4.4-8.04-1.02-11.46-.97-3.13.05-7.3 1.39-10.55 1.37-1.81-.01-5.47-1.11-6.96-.91-1.7.23-4.19 2.17-6.59 2.45-7.87.93-16.52 1.05-24.44 1.56-2.85.18-6.77 1.01-9.51 1.02-2.88 0-3.85-3.75-5.56-5.56l-11.43 1.45c-2.91-.19-6.71-1.41-9.5-1.41-1.31 0-2.87.99-3.94.88-1.28-.14-2.08-1.73-3.17-2.26-1.17-.57-2.71-.35-3.67-1.33s-.87-2.56-1.44-3.43-2.22-.86-2.52-2.61c-.23-1.33.34-2.52.27-3.51-.05-.63-.66-1.25-.75-2.01-.41-3.21 1.22-3.11 1.85-5.1.25-.77.1-1.66.41-2.61.47-1.43 3.77-3.4 4.94-5.04s1.84-4.22 3.06-5.94 3.67-3.27 4.94-5.06 1.84-4.22 3.06-5.94 3.67-3.27 4.94-5.06 1.84-4.22 3.06-5.94 3.67-3.27 4.94-5.06 1.84-4.22 3.06-5.94c1.31-1.84 3.49-2.88 4.73-4.27 1.37-1.53 2-4.32 3.73-5.77 1.46-1.23 3.48-1.47 5.1-2.4 1.48-.86 4.52-3.52 5.63-3.87 1.96-.62 4.67-.02 6.78-.22s3.77-1.22 6-1.02c1.77.16 3.95 1.7 5.75 2.27s4.81.69 6.46 1.54c1.21.63 2.73 3.28 4.03 4.47s3.77 2.34 4.84 3.41Z" style="fill:#0d0f0f"/><path d="M86.35 32.64c1.13 1.24 2.19 5.09 3.43 6.83s3.32 2.52 4.24 3.76c.99 1.35 1.67 4.01 2.78 5.72 1.56 2.42 3.84 3.97 5.43 6.07 1.24 1.65 2.05 4.09 3.28 5.72s3.47 3.07 4.72 4.78 1.95 4.31 3.05 5.95c1.16 1.73 3.6 2.66 4.95 4.55 1.03 1.44 1.4 3.29 2.27 4.73.7 1.16 2.49 2.64 2.76 3.24.13.29 1.19 5.86 1.14 6.17-.14.78-1.53 1.77-1.77 2.69s.1 2.64-.19 3.06c-.19.27-2.15.65-2.78 1.22-.54.49-.96 2.09-1.24 2.25-.63.37-2.2-.05-3.14.11-1.21.21-1.79 1.41-3.52 1.52-2.33.15-5.98-.96-8.47-1.06-4.81-.19-9.47 1.14-14.27 1.02l5.69-2.55.75-.75 6.47-18.34c-2.54-4.01-6.7-7.07-9.94-10.59-6.78-1.95-15.41-1.87-21.98-4.02-4-1.31-15.32-8.77-18.24-8.77-5.65 2.33-13.44 3.68-18.76 6.27-3.7 1.8-2.14 4.72-2.5 8-.71 6.62-1.6 13.25-1.47 19.97-.12 1.45 6.94 9.41 6.47 9.78-2.63.13-5.65.93-8.23 1.03-3.35.13-6.76-.91-10.01-1.05-1.67-.07-3.46.62-4.51.53s-1.48-1.25-2.29-1.73c-.94-.55-2.63-.55-3.21-1.29-.4-.52-.39-1.54-.82-2.18-.55-.8-2.22-2.05-2.33-2.62s.45-1.56.42-2.43c-.03-1.19-1.08-2.75-.94-3.45.15-.75 1.56-1.26 1.81-2.16.28-1-.12-2.08.35-3.15s3.95-3.61 4.97-5.03c1.29-1.82 1.9-4.41 3.28-6.22 1.24-1.63 3.49-2.53 4.51-3.99 1.12-1.61 1.82-4.86 2.98-6.39 1.04-1.38 3.92-3.04 5.24-4.89 1.22-1.72 1.84-4.22 3.06-5.94s3.67-3.27 4.94-5.06 1.84-4.22 3.06-5.94 3.4-3.12 4.71-4.79c.97-1.23 2.09-4.06 2.64-4.61.79-.8 4.38-1.8 5.73-2.52s2.94-2.65 4.5-3c1.06-.24 10.32-1.2 11.39-1.12.58.04 10.71 3.02 11.23 3.3.97.52 2.38 2.91 3.52 3.98 1.24 1.15 4.05 2.5 4.86 3.39Z" style="fill:url(#a)"/><path d="m99 79.99-17.87 7.38-33.8 3.14L33.5 65l16.47-5.79 2.66-.12c5.66 2.06 11.32 6.82 16.97 8.55s16.3 1.6 21.04 3.96c2.43 1.21 6.14 6.4 8.36 8.38Z" style="fill:#dad2bc"/><path d="m79.5 90.5-2.53 11.97L44 105l3.08-11.42zm-38.49 13L31.5 89.21 33.01 70l11.87 21.82c-1.26 3.38-1.71 7-2.9 10.4-.19.54-.22 1.2-.97 1.27Zm38.99-2 3-11.75 14.5-6.25-4.26 12.49z" style="fill:#a59e8d"/><path d="M50 88c-1.37.22-1.73-.39-2.42-1.33-2.33-3.2-3.82-8.39-6.37-11.65-.67-1.94.92-2.74 2.31-1.29.59.62 1.99 3.4 2.57 4.43.79 1.41 4.83 8.89 3.91 9.84" style="fill:#fbf5e3"/></svg>