<svg xmlns="http://www.w3.org/2000/svg" data-name="fill_pictureframe" viewBox="0 0 128 128"><defs><linearGradient id="a" x1="-909.16" x2="-909.25" y1="-1089.91" y2="-967.91" gradientTransform="matrix(.5 0 0 .5 518 592)" gradientUnits="userSpaceOnUse"><stop offset="0" stop-color="#d2a775"/><stop offset="1" stop-color="#a97636"/></linearGradient><linearGradient id="b" x1="-909.03" x2="-908.99" y1="-1048.07" y2="-987.07" gradientTransform="matrix(.5 0 0 .5 518 592)" gradientUnits="userSpaceOnUse"><stop offset="0" stop-color="#84c494"/><stop offset="1" stop-color="#219e38"/></linearGradient><linearGradient id="c" x1="-909.53" x2="-909.44" y1="-1069.26" y2="-1026.26" gradientTransform="matrix(.5 0 0 .5 518 592)" gradientUnits="userSpaceOnUse"><stop offset="0" stop-color="#28ace3"/><stop offset="1" stop-color="#74ccf3"/></linearGradient></defs><path d="M116.5 46v64c-.3 2.03-1.62 3.16-3.73 3.02H13.73c-1.19-.08-2.71-.07-3.01-1.48l.03-67.05c1.11-2.26 9.73-.03 12.04-1.46L63.77 8.47l1.5.5 38.54 33.96c3.45 1.89 11.83-1.66 12.69 3.06Zm-17-2.5L63.77 11.97 27 43.5z" style="fill:#090b0b"/><path d="M113.5 46.5V110l-100.25.13.21-63.88z" style="fill:url(#a)"/><path d="M106 56c.06 8.68.06 37.32 0 45-.78 1.46-2.09 2.08-3.73 2.02H24.23c-2.16.1-3.68-1.06-3.74-3.26.06-14.27.13-28.77-.01-42.53-.03-2.56.96-3.74 3.75-3.75h79.05c1.73.05 2.2 1.11 2.72 2.52" style="fill:#101614"/><path d="M17 50.5V75c-1.12.74-2.29.79-2.5-.75.62-7.12-.83-15.58-.02-22.52.2-1.69 1.08-2.49 2.52-1.23" style="fill:#fbd7a8"/><path d="M103.5 84v16h-80V76.75c4.63-2.55 9.72-7.47 14.33-9.67.62-.29 1.14-.72 1.89-.59l25.15 17.43c7.13-2.53 13.7-6.96 20.8-9.81z" style="fill:url(#b)"/><path d="M103 56.5v24c-5.99-2.38-11.06-7.01-17.26-9.03-7.15 1.87-13.42 6.85-20.41 9.44L40.22 63.5l-2.59.4c-4.1 2.52-8.27 6.31-12.49 8.5-.56.29-.88.78-1.65.6V56.5h79.5Z" style="fill:url(#c)"/><path d="m84.5 77-.08 2.43c-3.87 1.04-7.79 4.77-11.41 5.85-2.03.61-2.71-.93-1.28-2.3.71-.68 9.14-5.13 10.41-5.59.8-.29 1.48-.53 2.36-.39m-47.65-6.43c2.17-.43 1.98 1.59.4 2.93-.85.72-8.41 5.51-9.23 5.78-1.97.65-2.73-.88-1.28-2.3.66-.65 9.53-6.3 10.11-6.42Z" style="fill:#bfdfc4"/></svg>