<svg xmlns="http://www.w3.org/2000/svg" data-name="fill_oilradish" viewBox="0 0 128 128"><path d="M63.22 116.89c-9.88 4.52-17.26 1.98-22.25-7.49-5.44-5.4-12.45-8.78-10.48-18.06-7.75-5.72-14.58-11.93-11.76-21.76C11.31 53.79-2.19 39.84 4.16 21.92 8.13 11.44 19.65 3.61 31.87 3.29 58.46 1.93 64.42 33.25 63 54.16c5.23 5.16 6.22 7.13 6.71 13.51 1.15-.73 2.21-1.39 3.43-2.16-6.54-21.78 15.3-45.18 37.18-33.75 21.96 9.84 18.6 39.14-.64 51.65 2.44 12.57.04 17.29-10.51 20.93-1.93 14.64-26.37 30.22-35.95 12.55" style="fill:#4a3726;stroke-width:0"/><path d="M39.57 88.6c-23.02-15.93-6.96-12.95-15.04-26.16C8.17 44.35 1.31 9.46 35.75 11.24c18.05 3.1 19.63 24.67 19.31 39.4.94 18.21 11.93 4.02 3.85 32.2 3.77 2.51 6.99 5.44 4.21 9.85-3.89 6.01 3.91 14.95-5.35 18.13-8.61 3.67-9.28-8.57-15.8-11-5.16-2.4-4.04-6.53-2.41-11.22Z" style="fill:#589058;stroke-width:0"/><path d="M103.32 90.13c-.45 8.23-10.28 5.17-13.16 11.58.83 4.42 1.34 7.58-3.64 8.87-5.33 1.38-6.52 9.66-13.48 5.77-6.97-3.76-.5-9.65-3.54-14.44-2.58-4.34-1.64-6.23 4.42-9.24-5.97-28.52 9.42-14.23 6.67-28.97-5.36-18.83 14.05-35.74 31.04-22 11.43 9.28 5.57 26.95-5.16 34.32-6.26 3.36-5.24 8.38-3.15 14.11" style="fill:#306038;stroke-width:0"/><path d="M50.5 96.36c-8.87-15.6-11.61-34.55-18.04-51.4-1.02-3.2-.25-5.4 2-6.13 6.73-4.27 16.62 44.44 20.26 51.23 1.01 3.24.24 4.54-4.22 6.3m49.1-46.6c1.17 1.25 2.33 2.5 3.33 3.57C96.54 69.4 91.72 82.8 85.28 98.01c-1.91 3.93-6.44 1.14-6.51-2.17 0-1.81.91-3.67 1.59-5.44 5.86-13.2 9.04-27.93 17.06-39.99.72-.22 1.45-.43 2.17-.65Z" style="fill:#4a3726;stroke-width:0"/></svg>