<svg xmlns="http://www.w3.org/2000/svg" viewBox="0 0 128 128"><path d="M86.08 96.24c-2.12.53-4.24 1.06-6.95 1.74-2.05 2.51-4.42 5.41-6.77 8.32-4.18 5.15-14.47 3.96-17.84-1.77-1.47-2.51-3.92-4.44-5.93-6.65-2.17-.53-4.37-1.07-6.71-1.64-3.6 9.79-17.53 3.89-25.56 5.46-10.7.68-17.86-12.65-11.15-21.07 8.05-9.24 38.35-50.84 42.66-56.24 18.94-17.41 37.98 7.17 50.09 23.47 6.26 8.43 18.56 26.3 24.47 32.02 7.4 8.68.36 22.73-11.06 21.83-8-1.43-21.78 4.1-25.25-5.48Z" style="fill:#4a3726;stroke-width:0"/><path d="m43.46 54.82.18-2.73c1.81-.47 3.7-.96 5.92-1.54.94 3.32 1.78 6.25 2.68 9.45.47.29 1.12.69 1.81 1.12 2.33-1.41 4.56-2.76 7.41-4.48-2.71-3.01-5.14-5.73-7.77-8.65 1.68-1.59 3.04-2.88 4.42-4.18.94.56 1.59.95 2.65 1.59v-6.11h6.43v6.12c1.01-.58 1.69-.97 2.96-1.71 1.07 1.39 2.22 2.88 3.59 4.65-.92 3.41-6.1 4.46-6.51 8.86 2.37 1.36 4.51 2.58 6.82 3.9 3.66-2.42 2.32-7.04 4.77-10.37 1.65.35 3.49.74 5.4 1.15.08 1.08.14 1.93.22 2.98 1.77-.85 3.47-1.65 5.44-2.6 1.08 1.89 2.02 3.52 3.1 5.4-1.78 1.17-3.35 2.21-5.11 3.37.87.46 1.54.82 2.47 1.32-.45 1.85-.89 3.69-1.31 5.43-4.13 1.1-7.62-3.12-11.57-.9v7.74c3.86 2.34 7.34-1.79 11.5-.93.46 1.65.96 3.47 1.49 5.37-.98.56-1.71.98-2.53 1.45l5.05 3.53c-1.18 1.96-2.11 3.5-3.16 5.24-1.9-.95-3.53-1.76-5.32-2.66-.05.96-.1 1.78-.16 2.86-1.74.5-3.47 1.01-5.24 1.52-2.84-3.04-1.28-7.99-4.91-10.61-2.38 1.37-4.58 2.64-6.99 4.03.53 4.31 5.09 5.5 6.79 9.3-1.21 1.28-2.55 2.7-3.95 4.18-.99-.55-1.72-.97-2.76-1.55v5.82h-6.33c-.15-1.73-.3-3.53-.47-5.48-.83.33-1.6.63-2.8 1.1l-3.7-3.64c1.38-4.21 6.61-5.24 6.66-9.86-2.35-1.33-4.49-2.53-6.9-3.89-3.35 2.67-2.24 7.25-4.66 10.6a911 911 0 0 0-5.42-1.49c-.06-1.04-.1-1.81-.15-2.82-1.81.86-3.52 1.67-5.44 2.59-1.1-2-1.99-3.64-3-5.48 1.87-1.19 3.4-2.17 5.07-3.24-.83-.47-1.53-.86-2.55-1.43.53-1.92 1.04-3.79 1.53-5.54 4.1-.41 7.42 2.82 11.36 1.26V66.7c-3.91-1.67-7.32 1.88-11.37 1.21-.49-1.73-1-3.53-1.51-5.36.95-.6 1.57-1 2.46-1.57-1.62-1.03-3.12-1.98-5-3.18 1.09-1.94 2.08-3.69 3.11-5.52 2.06.94 3.71 1.7 5.36 2.46l-.04.06Z" style="fill:#7ecde7;stroke-width:0"/><path d="M99.33 60.18c13.82 20.68 37.79 38.09-5.49 34.75 7.14-7.04 5.02-16.08.95-23.91 1.3-3.93 2.47-7.45 3.64-10.96l.91.12ZM34.25 94.94c-43.57 3.32-19.23-14.24-5.18-35.27 10.61 16.82-8.52 19.94 5.18 35.27M88 46.15c-2.83-.74-5.67-1.49-9.01-2.36-5.91-9.09-15.68-17.78-24.61-6.04-1.47 2.26-4.16 3.73-6.29 5.56l.56.59-8.67 2.22-.38-.59c17.06-27.67 31.69-27.55 48.81-.04l-.42.66Z" style="fill:#aecace;stroke-width:0"/><path d="M57.34 74.71v-7.64c2.07-1.25 4.16-2.52 6.54-3.95 2.19 1.26 4.43 2.55 6.65 3.82v7.68c-1.94 1.17-4.02 2.43-6.41 3.87-2.19-1.22-4.46-2.48-6.79-3.78Z" style="fill:#4a3726;stroke-width:0"/></svg>