<svg xmlns="http://www.w3.org/2000/svg" data-name="fill_ironore" viewBox="0 0 128 128"><defs><linearGradient id="a" x1="276.39" x2="275.93" y1="-546.61" y2="-393.61" gradientTransform="matrix(.5 0 0 .5 -74 296)" gradientUnits="userSpaceOnUse"><stop offset="0" stop-color="#ce7541"/><stop offset="1" stop-color="#9f4b19"/></linearGradient><linearGradient id="b" x1="269.72" x2="285" y1="-487.63" y2="-376.68" gradientTransform="matrix(.5 0 0 .5 -74 296)" gradientUnits="userSpaceOnUse"><stop offset="0" stop-color="#f7bc9b"/><stop offset="1" stop-color="#cb6f3d"/></linearGradient><linearGradient id="c" x1="229.35" x2="272.04" y1="-426.75" y2="-384.59" gradientTransform="matrix(.5 0 0 .5 -74 296)" gradientUnits="userSpaceOnUse"><stop offset="0" stop-color="#f8bd9c"/><stop offset="1" stop-color="#c96c3b"/></linearGradient><linearGradient id="d" x1="316.58" x2="311.65" y1="-429.06" y2="-371.27" gradientTransform="matrix(.5 0 0 .5 -74 296)" gradientUnits="userSpaceOnUse"><stop offset="0" stop-color="#f8bc9c"/><stop offset="1" stop-color="#cb6e3c"/></linearGradient><linearGradient id="e" x1="312.84" x2="317.39" y1="-470.88" y2="-435.17" gradientTransform="matrix(.5 0 0 .5 -74 296)" gradientUnits="userSpaceOnUse"><stop offset="0" stop-color="#f7bc9b"/><stop offset="1" stop-color="#dc885c"/></linearGradient><linearGradient id="f" x1="224.35" x2="249.08" y1="-457.53" y2="-438.83" gradientTransform="matrix(.5 0 0 .5 -74 296)" gradientUnits="userSpaceOnUse"><stop offset="0" stop-color="#f7bc9b"/><stop offset="1" stop-color="#e19165"/></linearGradient></defs><path d="M88.34 30.66c1.62 1.6 1.99 5.04 3.43 6.82 1.19 1.48 3.62 2.66 4.95 4.55 1.22 1.72 1.84 4.22 3.06 5.94s3.67 3.27 4.94 5.06 1.84 4.22 3.06 5.94 3.83 3.33 4.95 5.05c1.03 1.57 1.36 3.77 2.55 5.45 1.32 1.87 3.86 3.46 5.22 5.28 2.09 2.79 2 4.29 4.77 7.21 1.85 1.95.59 2.36.74 4.23.12 1.49 1.29 2.63.99 4.52-.2 1.26-1.61 2.11-1.88 3.15-.24.92.04 1.94-.21 2.79-.36 1.25-2.26 1.52-3.17 2.33-1.44 1.29-1.36 3.04-4.11 3.4-.72.09-1.42-.38-2.15-.18-.85.24-1.21 1.12-2.71 1.32-3.77.49-7.9-.95-11.52-.93-3.24.02-7.27 1.21-10.55 1.37-.97.05-1.97-.7-2.87-.42-1.08.34-3.91 6.59-5.57 7.96-.7.58-9.06 4.86-9.6 4.9-3.91-2-6.83-5.4-9.91-8.4-1.98 1.42-.51 7.86-3.77 6.78-.8-.27-8.42-5.51-9.23-6.29-1.24-1.18-2.37-4.55-3.59-4.91-3.05.2-6.49-1-9.41-1-3.07 0-6.75 1.11-10 1.14-3.5.02-7.77-1.29-10.95-1.19-1.14.04-2.56.97-3.58.93-1.21-.04-1.75-1.67-2.75-2.19-1.22-.64-2.87-.35-3.99-1.51-.95-.98-.87-2.54-1.45-3.43s-2.22-.86-2.52-2.61c-.23-1.33.34-2.52.27-3.51-.05-.63-.66-1.25-.75-2.01-.41-3.21 1.22-3.11 1.85-5.1.25-.77.1-1.66.41-2.61.47-1.43 3.77-3.4 4.94-5.04 1.38-1.94 2.17-5.22 3.55-6.95 1.07-1.34 3.22-2.31 4.45-4.05s1.84-4.22 3.06-5.94 3.67-3.27 4.94-5.06 1.84-4.22 3.06-5.94 3.67-3.27 4.94-5.06 1.84-4.22 3.06-5.94c1.31-1.84 3.49-2.88 4.73-4.27 1.37-1.53 2.01-4.32 3.73-5.77 1.57-1.32 3.81-1.62 5.43-2.57s3.98-3.44 5.68-3.82c1.92-.43 4.37.09 6.4-.1s3.77-1.22 6-1.02c1.74.15 4.27 1.79 6.14 2.38s4.55.63 6.08 1.42c1.23.64 2.73 3.27 4.03 4.47s3.76 2.33 4.84 3.41Z" style="fill:#0e0d0c"/><path d="M86.36 32.64c.89 1.17 1.67 4.66 2.92 6.33.89 1.19 2.1 1.55 2.99 2.51 2.22 2.38 3.24 5.58 5.01 7.99 1.3 1.77 3.78 3.32 4.95 5.05 1.1 1.62 1.82 4.27 3.05 5.95 1.4 1.92 4.23 3.69 5.45 5.55 1.03 1.57 1.36 3.77 2.55 5.45 1.31 1.85 3.5 2.79 4.73 4.27 1.33 1.59 1.6 3.86 2.56 5.44.64 1.05 2.33 2.06 2.67 2.83.55 1.22.08 2.49.27 3.72.14.89 1 1.79.89 2.43-.12.73-1.55 1.77-1.79 2.7s.1 2.64-.19 3.06c-.19.27-2.15.65-2.78 1.22-.54.49-.96 2.09-1.24 2.25-.63.37-2.2-.05-3.14.11-1.21.21-1.79 1.41-3.52 1.52-2.33.15-5.98-.96-8.47-1.06-4.65-.19-9.15 1.05-13.77 1.02-.78-.73 6.2-9.8 6.37-11.31.29-2.45-3.32-10.03-3.83-12.93.31-2.53 2.88-5.6 2.99-8.02.05-1.13-2.29-8.55-2.92-9.61-.3-.52-.4-.72-.96-1.04-.95-.52-8.02-2.67-8.89-2.59-1.02.1-6.99 4.83-7.26 4.5.06-1.06.13-1.83-.48-2.78-1.87-2.95-7.02-5.84-9.25-8.75-.43-.41-.95-.49-1.52-.52-1.26-.06-9.94 2.49-10.79 3.26-1.51 1.36-3.09 8.03-3.97 10.29-2.17-.21-4.49-2.86-6.63-2.43-.9.18-8.05 4.54-8.27 5.27.59 3.46-1.25 8.72-.59 11.81.1.45 4.79 4.38 5.22 5.83.32 1.09-1.09 2.64-1.22 3.8-.31 2.8 8.14 14.17 7.5 14.7-3.34.12-6.38-.65-9.77-.52s-6.66 1.17-10 1.04c-2.82-.11-6.15-1.11-8.99-1.06-1.24.02-2.64.61-3.48.55-1.09-.09-1.48-1.25-2.29-1.73-.94-.55-2.63-.55-3.21-1.29-.4-.52-.39-1.54-.82-2.18-.55-.8-2.22-2.05-2.33-2.62s.45-1.56.42-2.43c-.03-1.19-1.08-2.75-.94-3.45.15-.75 1.56-1.26 1.81-2.16.28-1-.12-2.08.35-3.15s3.95-3.61 4.97-5.03c1.22-1.72 1.84-4.22 3.06-5.94s3.31-2.67 4.45-4.05c1.32-1.59 1.88-4.25 3.05-5.95 1.33-1.94 4.05-3.61 5.44-5.56 1.21-1.69 1.71-4.16 2.77-5.73 1.18-1.75 3.91-3.43 5.23-5.27 1.21-1.69 1.71-4.16 2.77-5.73s3.65-3.33 5-5c1.15-1.43 1.93-3.7 3.25-4.75.43-.34 9.08-5.26 9.61-5.39 1.06-.24 10.32-1.2 11.39-1.12.58.04 10.7 3.03 11.22 3.3 1.27.66 2.34 2.86 3.52 3.98 1.04.98 4.42 2.79 4.87 3.38Z" style="fill:url(#a)"/><path d="M55.97 77.28c-.92-2.04-4.69-14.28-4.38-15.9.13-.69 2.86-7.57 3.16-7.87.4-.42 8.47-3 8.93-2.91l8.72 8.26c.34 2.95-.1 5.95.1 8.9.49 7.19 2.42 18.02 1.38 24.88-.51 3.35-2.91 7.45-3.34 10.66-.4 2.98.61 5.84.21 8.71-1.36-1.95-4.66-3.25-5.62-5.38-1.69-3.74-8.79-28.54-9.15-29.35Z" style="fill:url(#b)"/><path d="M40.48 86.26c0-2.63 2.76-5.54 3.05-8.24 1.91-.2 3.34 1.18 4.88 1.83 1.28.54 3.8.78 4.52 1.98l7.48 21.55L59 111.5c-.28.36-7.15-4.83-7.51-5.24-1.9-2.12-11.01-19.07-11.01-20" style="fill:url(#c)"/><path d="m79.82 83.46 10.37-3c.49.06 2.96 8.21 2.72 9.16l-12.04 19.75c-1.46.65-5.98 3.43-7.15 1.66-.16-.24-.74-5.01-.76-5.78-.05-1.84 1.62-6.25 2.3-8.27.28-.82 3.77-12.99 4.56-13.53Z" style="fill:url(#d)"/><path d="m77 84-.99-3.75c.9-3.85-1.79-14.28-.26-17.25.25-.49 5.93-4.26 6.62-4.41.95-.21 6.32 1.17 7.12 1.68.45.28.61.76.78 1.22.31.84 2.15 6.82 2.11 7.19-.05.51-3.8 8.93-4.14 9.32-.83.96-8.22 2.2-9.9 3.1-1.1.59-1.28 1.75-1.35 2.91Z" style="fill:url(#e)"/><path d="M42.07 75.07c-.32.22-1.42 3.68-1.57 4.43-.89-.68-3.37-3.2-3.74-4-.43-.94-.46-7.97-.25-9.24.24-1.4 5.58-4.23 6.74-4.23.81 0 5.7 2.56 6.19 3.27.81 1.16 3.23 10.09 3.08 11.43-.05.41-.15.79-.5 1.04-1.27.91-8.19-3.95-9.95-2.71Z" style="fill:url(#f)"/><path d="M59.3 82.67c-1.86-2.86-2.71-8.35-3.83-12.19-.58-2.54-1.52-5.19-.97-7.51 1.14-1.87 3.61 2.74 4.94 6.48 1.32 3.77 3.38 10.45 2.66 13.05-.36 1.75-1.68 1.92-2.72.29zM77.23 95.9c.23-2.9 1.6-9.85 4.62-10.37.71-.11 1.11.62 1.08 1.36-.24 2.15-1.62 5.82-2.2 8.28-.44 1.57-.99 2.86-1.81 3.1-1.06.27-1.66-1.12-1.67-2.19v-.18Zm-30.68-.69c-1.2-1.66-2.8-4.38-2.8-6.61-.11-1.11.52-2.1 1.59-1.51 1.53 1.24 2.81 4.66 3.93 7.01.93 2.36-1.42 2.38-2.6 1.22l-.11-.11Zm35.31-34.62c1.45-.39 2.79.48 1.9 1.92-.24.38-6.1 4.07-6.5 3.99-.9-.61-1.07-1.62-.52-2.51.16-.26 4.8-3.31 5.12-3.4M38 66.5c3.27-.95 2.79 3.98 2.52 6.27-.32 2.77-2.52 1.6-2.52.98z" style="fill:#fbe4d5"/></svg>