<svg xmlns="http://www.w3.org/2000/svg" data-name="fill_roundbalewood" viewBox="0 0 128 128"><defs><linearGradient id="a" x1="89.04" x2="-54.96" y1="-611.67" y2="-611.63" gradientTransform="matrix(.5 0 0 .5 74 370)" gradientUnits="userSpaceOnUse"><stop offset="0" stop-color="#b18161"/><stop offset="1" stop-color="#815e4f"/></linearGradient></defs><path d="M108.88 23.13c.97.91 1.74 5.24 2.6 6.53.79 1.19 4.9 2.41 5.43 4.2s-.34 4.5.2 6.3c.32 1.08 3.76 3.73 4.19 5.33.39 1.43-1.01 4.39-.79 6.23.25 2.05 2.9 4.53 3 6.08s-1.83 3.91-2 5.51c-.24 2.19 1.94 4.92 1.88 6.37-.09 2.02-2.6 4.55-2.87 6.11-.4 2.29 1.26 4.54.92 6.36-.32 1.72-3.93 4.38-4.33 5.71-.55 1.83.47 5.08-.34 6.66-.57 1.1-4.53 2.69-5.28 3.84s-1.77 5.85-2.6 6.53c-.94.76-5.4.86-6.9 1.35-1.8.6-4.43 3.64-6.25 3.76-2.25.15-4.86-2-6.98-2-2.44 0-4.65 2.36-7.46 2-1.89-.24-3.87-2.12-6.03-2.03-1.91.08-4.39 2.06-6.51 2.06s-4.69-2.04-6.49-2.04c-2.1 0-4.61 1.98-6.52 2.07-2.19.1-4.73-2.05-6.99-2.05-2.14 0-4.37 2.04-6.5 2.03-2.32 0-5.13-2.21-7.11-2.41s-4.52 1.47-6.79.8c-1.39-.41-3.18-4.24-4.59-5.41-1.56-1.3-5.06-1.79-5.98-3.02-1.12-1.49-.68-5.15-1.55-6.95s-4.15-2.63-4.63-4.88c-.44-2.05.84-3.95.3-6.29-.41-1.78-3.18-3.57-3.4-5.64-.21-1.95 1.68-4.52 1.4-6.35-.25-1.66-2.51-4.48-2.4-6.08.09-1.38 2.17-4.1 2.4-5.65.28-1.83-1.61-4.39-1.4-6.35.22-2.07 2.99-3.86 3.4-5.64.54-2.34-.74-4.24-.3-6.29.48-2.25 3.74-3.04 4.63-4.88s.39-5.83 1.78-7.22c1.12-1.11 4.16-1.44 5.75-2.75 1.34-1.11 3.1-4.74 4.25-5.25 1.22-.55 2.5-.05 3.73-.27 1.08-.2 1.83-1 3.01-1.01 2.53-.01 5.27 1.43 9.01 1.03 1.86-.2 3.54-1.52 4.99-1.53 2.08 0 4.94 2.06 7.02 2.05s4.26-2.26 6.99-2.06c1.98.14 4.44 2.1 6.46 2.01s4.37-2.09 6.52-2.01 4.74 2.05 6.51 2.06c2.09 0 4.7-2.04 6.5-2.05 2.03 0 5.96 2.16 8.25 2.78 2.04.55 11.16 1.69 11.88 2.37Z" style="fill:#0b0c0c"/><path d="M109.14 31.36c.68.92 4.44 2.17 5.11 3.64.81 1.79-.21 4.75.35 6.65.38 1.28 3.42 2.91 3.8 4.2.69 2.28-1.17 5.25-.81 6.79.33 1.39 2.93 3.93 2.95 5.6.02 1.78-2.15 4.28-2.04 5.97.1 1.52 2.06 3.85 2.04 5.55s-2.9 4.58-3.04 6.01c-.17 1.76 1.51 4.34.91 6.38-.38 1.27-3.43 2.93-3.81 4.2-.53 1.8.35 4.55-.19 6.31-.44 1.45-4.24 2.64-5.13 3.87-1.02 1.42-1.26 5.75-3.13 6.37-1.4.46-3.57.27-5.15.85-1.78.66-3.97 3.28-5.73 3.3s-4.43-2.08-6.52-2.07c-1.77 0-4.36 1.98-6.51 2.06-2.28.08-4.49-2.05-6.47-2.06-2.09 0-4.6 1.98-6.51 2.06-2.45.11-5.04-2.05-6.99-2.06-2.18-.01-4.88 2.23-6.59 2.42-1.2.13-4.7-2.29-6.46-2.37-1.48-.06-2.71 1.13-4.21.97.97-4.24 8.13-4.11 8.89-7.36.38-1.62.13-4.07.88-5.62.63-1.31 4.13-2.69 4.63-4.37.69-2.31-.63-4.65-.41-6.37s3.18-3.71 3.5-5.56c.44-2.55-1.55-5.01-1.35-6.91.15-1.4 2.25-3.63 2.34-5.61.1-2.29-2.18-4.47-2.34-6.03s1.56-4.45 1.37-6.39c-.18-1.8-2.52-3.46-2.9-5.14-.5-2.2.38-5.32-.2-7.3-.46-1.56-4.17-3.53-4.65-4.35-.57-.97-.47-4.24-.87-5.63-.85-2.91-4.6-2.75-6.64-4.36-3.06-2.41-1.43-4.16 2-4.04 2.2.08 4.46 2.1 6.47 2 1.86-.09 4.58-2.05 6.5-1.96 1.81.09 4.87 2 6.53 2.01 2.08.01 4.7-2.04 6.5-2.05 2.08 0 4.89 2.04 7.01 2.04 1.92 0 3.81-1.61 5.62-1.91 2.5-.4 6.55 1.76 9.31 2.45 2.26.57 7.9.98 9.32 1.68s1.85 5.06 2.63 6.12Z" style="fill:url(#a)"/><path d="M50.87 29.62c.92.98.64 4.8 1.4 6.36.6 1.25 4.43 3.8 4.62 4.83.22 1.17-.78 4.17-.29 6.34.4 1.78 2.75 2.91 2.94 5.1s-1.38 3.99-1.02 6.47c.24 1.69 2.24 3.82 2.38 5.12.13 1.16-2.14 3.82-2.38 5.45-.35 2.48 1.22 4.19 1.02 6.47s-2.54 3.31-2.94 5.1c-.49 2.17.51 5.17.29 6.34-.19 1.03-4.02 3.58-4.62 4.83-.75 1.56-.48 5.38-1.4 6.36-.83.88-4.21 1.33-5.63 2.61-1.09.98-2.47 4.3-3.25 4.79-.68.43-5.07-.84-6.75-.81-1.81.03-4.84 1.28-5.91 1.07-.3-.06-2.71-4.28-3.57-5.05-1.29-1.14-5.27-2.16-5.65-2.6-.83-.98-.59-5.72-1.23-6.77-.35-.58-3.85-2.49-4.29-3.96-.63-2.12.59-5.09.31-6.29-.31-1.36-3.21-3.81-3.42-5.14-.35-2.18 1.53-4.94 1.39-6.4-.16-1.6-2.48-4.41-2.38-6.04.1-1.45 2.46-4.45 2.38-5.95-.09-1.67-1.74-3.91-1.39-6.07.21-1.32 3.11-3.78 3.42-5.14.28-1.2-.94-4.16-.31-6.29.44-1.47 3.94-3.38 4.29-3.96.63-1.05.39-5.79 1.23-6.77.38-.44 4.36-1.46 5.65-2.6.87-.77 3.27-4.99 3.57-5.05 4.32 1.27 7.99 1.29 12.34.09.83.24 2.54 4.03 3.57 4.96 1.42 1.29 4.81 1.73 5.63 2.61Z" style="fill:#623d31"/><path d="M23.6 53.1c.44-.62 8.84-1.5 9.36-1.06.38 1.22.35 2.82.78 3.97.47 1.26 1.88 1.99 2.18 3.35.38 1.74-.92 6.02-3.41 5.14-.29-1.43.63-2.86.5-4.21-.12-1.24-1.12-1.94-1.61-2.94-.4-.81-.31-2.63-1.18-2.81-6.03.49-3.35.58-4.98 3.93-.33.68-1.39 1.04-1.65 1.87-.47 1.54.47 2.65.4 3.87s-1.25 2.15-1.4 3.14c-.23 1.5 1.64 4.61 1.87 6.43s-.37 4.25.3 5.7c.19.42 5.92 6.18 6.47 6.54 1.48.97 2.63.12 4.11-.44.75-.29 5.85-2.92 6.06-3.2.42-.58.6-4.09.95-5.3.53-1.82 2.51-4.38 2.66-5.89.17-1.7-1.09-4.3-.98-5.93.07-1.2 1.5-2.66 1.36-3.95-.09-.89-1.19-1.89-1.36-3.11-.22-1.61.71-3.33.41-4.35-.21-.73-1.4-1.34-1.71-2.33-.48-1.52.13-3.19-.47-4.53-.43-.96-2.11-1.4-2.69-2.31-.66-1.03-.49-2.85-1.3-3.7-.7-.74-2.41-.76-3.51-1.49-.83-.55-3.5-3.21-3.24-4.25 2.51-2.48 3.16 1.09 4.52 1.97 1.24.8 3.42.66 4.5 2 .91 1.13.67 2.86 1.45 4.05.63.94 2.36 1.41 2.78 2.22.64 1.22-.02 3.18.36 4.64.29 1.11 2.12 2.48 2.26 3.68.12 1.03-.84 2.39-.82 3.46s1.32 2.61 1.43 4.04c.13 1.71-.98 3.11-1.03 4.94s1.05 4.1.9 5.44-2.47 4.53-3.02 6.4c-.44 1.51-.52 5.34-1.33 6.17-.22.23-3.8 2.14-4.5 2.5-1.68.87-6.95 3.47-8.51 2.5-.41-.25-.76-1.27-1.24-1.77-1.88-1.94-7.01-6.21-7.54-8.46-.46-1.95-.01-3.84-.26-5.74-.22-1.67-1.96-4.71-1.84-5.97.09-.91 1.26-1.93 1.38-3.12.14-1.44-.89-2.75-.41-4.35.29-.97 1.73-1.52 2.14-2.37.53-1.1.43-3.77.87-4.38Z" style="fill:#0b0c0c"/></svg>