<svg xmlns="http://www.w3.org/2000/svg" data-name="fill_doghouse" viewBox="0 0 128 128"><defs><linearGradient id="a" x1="247.52" x2="289.06" y1="-1124.75" y2="-933.2" gradientTransform="matrix(.5 0 0 .5 -74 592)" gradientUnits="userSpaceOnUse"><stop offset="0" stop-color="#a97535"/><stop offset=".68" stop-color="#d1a774"/><stop offset="1" stop-color="#d3a978"/></linearGradient><linearGradient id="b" x1="259.55" x2="280.96" y1="-1039.53" y2="-941.85" gradientTransform="matrix(.5 0 0 .5 -74 592)" gradientUnits="userSpaceOnUse"><stop offset="0" stop-color="#2c1f14"/><stop offset="1" stop-color="#563a25"/></linearGradient></defs><path d="M105 59c.07 20.86-.1 41.69-.5 62.5-.75 1.91-1.15 1.86-3.23 2.02H23.73c-.9.37-3.73-1.13-3.73-1.77V58.5c-2.79 1.42-9.6 8.58-12.26 8.54-1.02-.01-2.58-1.17-2.98-2.05-.47-1.05-.47-10.61-.23-12.21.16-1.04.84-2.2 1.47-3.03C23.3 36.54 39.95 21.53 57.55 8.8c2.66-1.92 4.7-4.43 7.91-1.5l53.04 41.96c1.3 1.56 1.85 2.95 2.02 4.98.18 2.14.28 9.44-.58 10.96-3.33 5.91-11.3-5.2-14.94-6.19Z" style="fill:#0e0f0e"/><path d="m105 59 .03 60.8c.25.8-.36 1.25-.53 1.7z" style="fill:#666767"/><path d="m40 43 21.51-17.27 1.12-.17 39.36 30.69v64.25h-9V97.25c0-1.36-3-1.36-3 0v23.25h-7.5V84.75c0-1.6-2-6.04-2.91-7.59C69.74 60.5 43.75 66.47 42.49 86c.03 11.53-.14 23.03-.5 34.5h-19c-.43-11.64-.44-23.92 0-35.5-.41-9.15-.45-19.17 0-28.5.34-.65.72-1.01 1.25-1.49 2.96-2.67 7.94-6.41 11.26-8.75.49-.35.59-1 1.49-.75v20.75c.14 1.47 1.49 1.55 2.5.75.12-8.03.29-16.03.5-24Z" style="fill:url(#a)"/><path d="M79.5 97c.45 7.81.71 15.7 0 23.5-11.11.43-22.91.43-34 0-.04-6.68-.2-13.18-.5-19.5v-.5c.16-4.94.33-9.94.5-15 .95-14.88 21.4-20.4 30.49-8.74C80.78 82.9 79.43 89.67 79.5 97" style="fill:url(#b)"/><path d="M7 53.25c.07-.36 1.18-2.08 1.54-2.46L62.24 9c1.63-.05 11.55 8.85 13.64 10.48 13.74 10.71 27.77 21.11 41.14 32.25.23.36.98 2.28.98 2.52v9c0 .17-.82.92-1.24.76C98.18 50.6 80.82 35.39 62.24 21.98L8.98 63.73 7 64c.44-3.15-.59-7.81 0-10.75" style="fill:#775221"/><path d="M79.5 97c.83.51.5 1.9.51 2.74.07 5.74.65 14.11.02 19.53-.06.5-.22 1.72-.78 1.72H45v-20c.83.51.5 1.9.51 2.74.07 5.58-.06 11.18 0 16.76h34c-.05-7.82.07-15.68 0-23.5Z" style="fill:#3d291a"/><path d="m23 120.5-.51-.73c.05-11.59-.02-23.19.01-34.77.14-.44.31-.43.5 0zm19 0 .5-34.5c-.71 10.99.52 22.7.01 33.77z" style="fill:#d3a977"/><path d="M23 85h-.5c.03-9.09 0-18.2-.03-27.3-.17-.61.37-.9.53-1.2zm16.5-18c.61-7.23-.81-15.73-.03-22.8.05-.48.04-.93.53-1.2-.4 3.07.74 23.02-.5 24" style="fill:#bb8b50"/><path d="M45 100.5c0-4.08-.09-8.18-.01-12.27.02-.95-.25-1.97.51-2.73-.25 3.94.05 8.25 0 12.26 0 .84.33 2.24-.51 2.74Z" style="fill:#3d291a"/><path d="M27 71c.55 4.79.4 9.71 0 14.5.09 5.6.5 11.14.49 16.74-.47 2.67-2.99 1.39-2.99.51v-31c0-.08.55-1.22.81-1.28.89-.11 1.15 0 1.69.53" style="fill:#f9d4a5"/><path d="M27 85.5c-.08-4.82.06-9.68 0-14.5.66.66.45.83.53 1.71.26 3.04.01 6.9-.02 10.04 0 .84.33 2.24-.51 2.74Zm-2.65-45.43c2.61-.49 1.56 1.89.15 3.18-4.2 3.87-9.49 7.41-13.85 11.18-2.93-1.06-1.14-2.32.33-3.69 3.68-3.45 8.51-6.24 12.03-9.96.4-.27.86-.62 1.33-.7Z" style="fill:#bb8b50"/></svg>