<svg xmlns="http://www.w3.org/2000/svg" data-name="fill_peppergrinder" viewBox="0 0 128 128"><defs><linearGradient id="a" x1="-801.02" x2="-720.02" y1="-998.67" y2="-998.66" gradientTransform="matrix(.5 0 0 .5 444 592)" gradientUnits="userSpaceOnUse"><stop offset="0" stop-color="#aa7737"/><stop offset="1" stop-color="#d1a673"/></linearGradient><linearGradient id="b" x1="-720.88" x2="-799.88" y1="-1128.48" y2="-1128.31" gradientTransform="matrix(.5 0 0 .5 444 592)" gradientUnits="userSpaceOnUse"><stop offset="0" stop-color="#d1a673"/><stop offset="1" stop-color="#ab7838"/></linearGradient><linearGradient id="c" x1="-751.84" x2="-770.84" y1="-1056.89" y2="-1056.87" gradientTransform="matrix(.5 0 0 .5 444 592)" gradientUnits="userSpaceOnUse"><stop offset="0" stop-color="#cb9f6b"/><stop offset="1" stop-color="#af7d3f"/></linearGradient></defs><path d="M88.5 112.5c-2.23 9.84-19.39 11.5-27.77 11.02-5.79-.33-19.23-2.94-20.99-9.51l-.02-44.05c1.24-3.3 4.36-5.24 7.52-6.48 1.28-.5 7.72-1.89 7.79-2.29.08-.47.08-2.38-.1-2.63-.21-.3-5.71-1.73-6.93-2.32-7.09-3.44-8.81-10.23-3.02-15.99-12.1-10.47-3.33-31.01 12.5-30.27.47-8.77 12.59-8.73 13.03 0C86.49 9.32 95.3 29.99 82.5 40.26c-.3.97.55.57.98 1.09 5.38 6.57.97 12.85-5.86 15.52-1.08.42-4.43.99-4.61 1.14s.09 2.53-.05 3.18c4.51 1.24 13.08 3.11 15.15 7.93.54 1.25.31 2.15.38 3.37.79 13.26.63 26.7 0 40Z" style="fill:#0a0c0c"/><path d="M42.5 71c.27-.9.29-1.47.99-2.26 1.64-1.86 8.27-4.25 10.76-4.26 1.35 0 .61 1.92.87 3.16.57 2.75 1.91 2.67 4.29 3.21 3.38.76 8.29.95 11.44-.74 3.02-1.63 1.87-5.59 2.4-5.61 4.17.62 10.89 2.05 12.24 6.51.51 14.16.51 28.33 0 42.5-.07.18.12.56-.13.86-.12.14-2.64 2.22-2.89 2.38-6.21 3.97-18 4.72-25.18 3.71-4.27-.6-13.21-2.61-14.81-6.94-.51-14.16-.51-28.32 0-42.5Z" style="fill:url(#a)"/><path d="M57.5 12.5c.19.31-.25 1.43.71 2.55 1.83 2.13 10.26 2.18 11.83-.26.5-.78.35-2.24.73-2.29 2.32-.37 8.43 2.17 10.27 3.73 1.3 1.1 3.78 5.1 4.23 6.77.9 3.33 1.26 6.63-.17 9.85-6.4 14.44-41.08 14.02-43.04-2.64-.69-5.89 1.83-12.75 7.28-15.61 1.07-.56 7.83-2.65 8.16-2.09Z" style="fill:url(#b)"/><path d="M49.5 43.5q-1.27 1.11 0 0c6.37 3 16.76 2.95 23.51 1.26 1.35-.34 6.79-2.75 7.17-2.68 1.91.36 3.05 4.92 2.8 6.64-.98 6.95-17.85 8.21-23.17 7.73-4.06-.37-14.78-2.72-15.34-7.67-.28-2.53 1.17-7.95 4.21-6.2.43.25.72.88.81.93Z" style="fill:#775221"/><path d="M70.5 58.5v9c-3.97 1.53-9.06 1.52-13 0V59h11.75c.14 0 .7-.69 1.25-.5" style="fill:url(#c)"/><path d="M60.05 13.45c-.39-2.92 0-7.33 3.71-7.48 2.21-.09 3.69 1.31 4.13 3.39 1.25 5.97-3.66 4.94-7.84 4.09" style="fill:#775221"/><path d="M46.82 74.04c.81-.24 8.07 2.12 9.98 2.4 4.63.67 9.76.69 14.39 0 3.44-.51 6.64-1.91 9.98-2.4 2.13 1.6-.13 2.56-1.69 3.2-7.86 3.24-23.49 3.06-31.34-.14-1.31-.54-3.64-2.37-1.33-3.05Z" style="fill:#0a0c0c"/><path d="M44 103c-.46-6.84-.46-13.67 0-20.5 1.02-.8 2.36-.72 2.5.75-.34 5.71.45 11.89.03 17.53-.11 1.48-.81 3.63-2.53 2.22" style="fill:#f8d3a3"/><path d="M44 103c-.46-.38-.59-.55-.53-1.2.5-5.8-.57-12.4 0-18.1.07-.66-.04-.76.53-1.2z" style="fill:#b7874b"/><path d="M46.5 31.5c-3.53 1.07-2.76-5.28-2.28-7.53.6-2.81 2.57-5.58 5.12-6.89 1.26-.64 2.92-.24 2.63 1.11-.11.51-2.99 2.34-3.74 3.29-2.43 3.07-1.65 6.35-1.74 10.01Z" style="fill:#f8d3a3"/><path d="M49.5 43.5c.62 1.62-1.53 2.98-1.4 4.17.14 1.29 2.27 2.25 1.9 3.57-1.15 1.82-3.23-.28-3.93-1.56-1.36-2.46.04-7.14 3.43-6.19Z" style="fill:#b7874b"/></svg>