<svg xmlns="http://www.w3.org/2000/svg" data-name="fill_roundbalewood" viewBox="0 0 128 128"><path d="M35.62 11.8c17.68 8.45 14.31-3.46 26.96 1.16 4.63 2.43 9.2 2.33 13.85.02 8.64-3.64 16.78 4.88 25.98 3.03 5.35-.24 8.59 2.11 9.69 7.16.48 9.88 13.53 13.96 10.18 24.11-1.13 3.74-.88 7.19 1.36 10.59 6.23 7.79-4.6 14.66-1.41 22.74 3.77 9.87-8.49 13.49-9.59 22.48-1.85 7.49-4.3 9.32-12 9.08-8.92-1.32-16.75 7.19-25.24 2.71-9.01-4.89-17.63 6.01-26.35-1.52-1.23-.73-2.06-.94-3.35-.41-16.29 9.19-18.93-3.83-31.96-10.1-9.36-4.46-2.03-16.22-9.26-22.58-5.89-6.6 3.66-14.19-.74-21.26-5.19-8.73 6.35-14.05 4.66-22.68-.57-5.46 1.52-9.42 6.6-11.78 8.4-2.85 11.1-12.47 20.63-12.76Z" style="fill:#4a3726;stroke-width:0"/><path d="M54.13 106.09c-.07-7.65 5.62-11.03 11.57-14.49 5.79-7-5.44-12.22 7.4-26.1 2.88-8.44-10.8-8.21-5.69-27.47-.42-6.34-11.48-6.73-12.54-13.24-.46-10.02 11.84 1.55 17.05-1.11 11.78-6.48 16.93 2.39 28.62.94 5.66-1.1 3.23 11.66 11.79 16.75 4.29 4.5-3.66 11.81 3.54 20.4 2.79 5.31-6.82 10.35-2.12 21.01.98 4.74-9.28 8.38-9.46 18.06-.35 2.25-1.51 2.88-3.45 2.67-7.96-2.07-14.92 5.05-22.26 3.22-10.49-6.94-17.37 3.37-24.47-.63Z" style="fill:#a5805b;stroke-width:0"/><path d="M58.75 41.27c-6.03 19.08 11.15 17.32 1.91 27.42-7.33 6.36 2.17 15.63-4.95 19.56-5.83 2.56-9.22 6.8-9.48 13.27-.45 2.23-3.37 3.39-5.45 4.01-8.62 4.97-14.44-6.62-21.77-9.79-4.28-3.3 1.04-11.89-6.71-19.47-1.19-1.38-1.15-2.75-.48-4.31 6.01-8.9-2.85-15.09.68-20.69 7.9-7 1.67-16.08 7.02-19.46 5.71-2.41 11.18-10.96 17.16-10.56 5.49 1.56 11.02 2.66 11.16 9.78 1.79 4.45 8.87 5.85 10.91 10.22Z" style="fill:#7b5b3b;stroke-width:0"/><path d="M32.23 58.01c-9.89 2.69-3.5 36.58 7.11 24.54 7.4-12.23 10.22-37.6-7.17-42.39-2.31-.32-3.68-2.41-3.46-4.34.26-2.24 1.94-3.7 4.45-3.7 25.45 2.4 25.22 45.37 9.56 58.98-21.18 13.32-31.27-27.48-17.18-39.2 12.49-9.94 19.56 8.41 14.81 18.13-1.87 5.9-9.45 3.62-8.11-2.17.67-3.24 1.8-6.48 0-9.86Z" style="fill:#4a3726;stroke-width:0"/></svg>