<svg xmlns="http://www.w3.org/2000/svg" data-name="fill_strawberry" viewBox="0 0 128 128"><defs><linearGradient id="a" x1="-2180.88" x2="-1997.58" y1="-184.24" y2="-142.43" gradientTransform="matrix(.5 0 0 .5 1110 148)" gradientUnits="userSpaceOnUse"><stop offset="0" stop-color="#e85d4d"/><stop offset="1" stop-color="#cb2f20"/></linearGradient></defs><path d="M59.04 13.46c1.52.4 2.71-.77 4.06-1.12 2.89-.74 5.52-1.12 8.53-.72 3.93.53 4.92 1.18 4.38 5.37 15.42-1.38 27.11 11.66 33.43 24.32 10.17 20.39 7.28 46.26-4.34 65.52-14.97 24.79-57.15 11.88-74.35-4.32C19.5 91.91 9.95 73.2 14.38 57.62c.78-2.75 2.16-4.77 3.15-7.35-.05-.59-3.33-.39-2.93-3.39.63-4.76 5.16-9.42 8.91-12.13-3.47-2.22-7.16-11.74-5.03-15.03.57-.88 3.51-2.08 4.62-2.38 5.48-1.46 10.08-.11 15.41 1.16-.76-4.58 5.94-15.94 10.34-16.39 3.23-.34 10.57 7.63 10.2 11.36Z" style="fill:#0c0c0c"/><path d="M20.07 51.54c4.22 1.26 8.16 1.3 12.28-.45 1.77-.75 4.22-3.12 5.53-3.49 1.64-.45 5.76.69 8.34.36 7.02-.92 12.87-6.02 15.73-12.27.41-.89.5-2.47 1.05-2.95.49-.42 2.64-.79 3.67-1.33 3.3-1.75 5.55-3.89 7.28-7.22.8-1.55.73-3.95 2.55-4.49.64-.19 6.02.34 7.04.53 14.61 2.69 26.55 24.2 28.84 37.66 2.66 15.58-1.95 36.71-10.95 49.78-12.8 18.59-47.3 8.55-62.57-2.26C23.29 94.4 8.6 70.02 20.09 51.54Z" style="fill:url(#a)"/><path d="M73.49 15.02c-.28 5.63-2.39 10.84-7.52 13.7-1.43.8-4.42 1.35-5.21 2.29-.94 1.11-1.59 4.79-2.84 6.66-3.07 4.58-9.22 7.7-14.69 7.85-2.09.06-4.36-1.53-6.38-.93-.68.2-3.26 2.91-4.83 3.68-3.57 1.74-6.24 1.94-10.03.99-2.29-.58-5.05-.99-4.27-3.77 1.44-5.09 5.53-6.69 8.96-9.55 2.35-1.96-2.27-3.77-3.68-5.69-1.24-1.67-2.65-6.01-2.51-7.99.21-2.98 8.6-2.97 10.75-2.75 3.25.32 5.95 2.7 9.22 2.45.61-5.2 1.63-10.47 5.28-14.47 2.05-2.25 3.13-3.06 5.73-1.21 1.99 1.42 4.29 4.26 4.81 6.69.26 1.21.04 2.29.22 3.28.52 2.87 3.98.06 5.51-.49 3.81-1.39 7.5-1.87 11.48-.74" style="fill:#85bf67"/><path d="M75.33 53.66c6.45-.99 12.62 6.14 10.7 12.4-1.37 4.56-7.51 5.51-11.92 2.04-5.31-3.74-6.67-12.82 1.02-14.41l.19-.03Zm6.01-20.48c4.02-.9 8.98 1.13 11.1 4.82 1.8 3.02 1.86 7.83-1.3 9.91-8.9 5.53-22.21-9.96-9.98-14.68l.19-.05ZM50.41 89.16c5.25-.96 9.91 3.55 10.5 8.97.54 3.63-1.44 7.88-5.43 8.15-8.69 1.21-14.73-14.23-5.26-17.08zm1.32-6.81c-6.17-5.23-4.65-19.05 5.53-15.78 5.53 2.24 7.59 11.03 3.93 15.21-2.23 2.7-6.68 2.79-9.32.68l-.15-.12Zm29.65 6.75c.91-.17 1.31-.04 2.14.12 9.93 1.96 10.98 17.87 1.25 17.3-8.99-.52-12.41-15.74-3.39-17.43ZM32.65 61.56c9.11-1.11 11.85 15.59 3.17 17.85-10.04 2.11-12.86-16.1-3.36-17.83l.18-.03Zm72.07 16.86c-9.36 6.76-18.58-10.18-10.37-15.15 8.06-4.14 16.32 9.09 10.5 15.04z" style="fill:#d43e2d"/><path d="M20.52 55.02c.71-.47 1.92.21 2 1.23.11 1.46-1.74 5.02-1.97 7.05-.8 6.92 1.28 13.71 4.88 19.55-.25 2.84-1.86 1.73-3.02 0-3.59-5.37-5.36-14.22-4.35-20.55.16-1.03 2.03-6.99 2.47-7.28ZM25.5 86.5c2.7-.51 3.15 2.1 4.51 3.74 1.16 1.4 3 3.1 4 4.5 1.19 1.68-.6 2.02-2.04 1.54-1.53-.51-7.59-8.66-6.47-9.78" style="fill:#f5b1a9"/><path d="M27.16 29.34c1.2 1.19 3.44 1.05 2.83 3.66-3.88.88-7.72-5.09-7.98-8.3-.19-2.35 1.67-3.1 2.37-1.33s1.28 4.5 2.78 5.97M20.3 45.02c.52-.14 2.93.97 4.45 1.01 1.9.05 6.31-2 6.28.23-.05 2.91-9.91 3.22-11.3 1.27-.51-.71-.31-2.27.58-2.51Z" style="fill:#cde1b4"/><path d="M74.2 57.05c2.46-1.89 6.32.24 7.89 2.54 1.44 1.95 1.12 5.11-.73 6.76-4.67 4.1-10.06-5.71-7.28-9.18l.12-.11Z" style="fill:#e7c976"/><path d="M76.07 64.86c-1.41-.72-2.92-4.86-1.86-6.15.63-.48 1.56-.28 1.94.39.39.71.42 1.82.91 2.56.55.99 1.81 1.89 1.43 2.61-.46.66-1.55.85-2.26.64l-.15-.06Z" style="fill:#fdfcf7"/><path d="M80.24 37.08c3.74-3.97 13.52 2.96 9.71 7.75-1.79 2.11-5.89 1.26-7.9-.5-1.49-1.55-3.3-4.76-1.91-7.1zm-30.65 62.95c-1.2-2.02-1.58-5.32-.04-7.33 2.07-2.42 7 .85 8.04 3.9 2.61 6.77-4.17 9.62-7.9 3.59l-.1-.15Z" style="fill:#e7c976"/><path d="M49.23 93.55c.97-.5 2.25.19 2.26 1.35.06.78.19 1.66.41 2.44.13.89.85 2.12.36 2.92-1.11.43-2.76-.54-3.17-1.63-.45-1.5-.85-3.75.02-5.01l.11-.08Z" style="fill:#fdfcf7"/><path d="M51.44 75.98c-.47-2.4-.21-6.9 2.97-7.16 4.19-.37 7.56 7.35 4.49 11.1-2.69 3.18-6.93-.67-7.42-3.75z" style="fill:#e7c976"/><path d="M51.71 76.14c-1.38-1.56.52-8.13 3.07-6.31.76 1.13.13 2.51-.14 3.84-.32 1.97-1.2 4.32-2.84 2.6z" style="fill:#fdfcf7"/><path d="M80.56 100.61c-1.8-2.26-2.18-5.67-.35-7.93 2.94-2.49 7.45 1.7 8.29 4.98 1.85 6.26-4.3 7.71-7.8 3.12z" style="fill:#e7c976"/><path d="M79.81 94.16c1.53-.86 2.5 1.41 2.65 2.86.19.96.84 2.41.05 3.13-2.65 1.93-4.44-4.63-2.82-5.91z" style="fill:#fdfcf7"/><path d="M31.57 64.95c5.27-2.71 8.95 6.31 5.67 10.07-1.36 1.79-4.01 2.17-5.64.52-2.38-2.49-2.52-8.05-.17-10.48l.14-.1Z" style="fill:#e7c976"/><path d="M30.12 72.08c-.66-1.65-.02-4.19 1.05-5.64.94-1.28 2.79-1.02 2.57.74-.07.7-.37 1.48-.5 2.35-.24 1.52-.17 3.28-1.14 3.51-.72.18-1.51-.21-1.91-.82l-.09-.14Z" style="fill:#fdfcf7"/><path d="M95.37 66.51c1.8-2.26 5.16-.65 6.74 1.38 1.14 1.35 1.98 3.53 1.84 5.35-.11 2.99-2.67 4.65-5.21 3.48-3.46-1.52-5.47-6.82-3.48-10.08l.1-.14Z" style="fill:#e7c976"/><path d="M95.03 72.57c-.44-1.21-.29-2.89-.21-4.19.08-.72.46-1.41 1.15-1.46 1.67.07 1.53 1.91 1.83 3.32.26 1.24.87 2.58.3 3.3-.87.97-2.54.27-2.99-.8l-.07-.16Zm-13.1-29.03c-1.13-.94-2.36-3.91-.75-4.91.43-.14.96.19 1.42.72.89 1.23 2.17 2.07 3.34 2.99.98.9.6 2.09-.73 2.18-1.05.07-2.33-.29-3.14-.87l-.15-.11Z" style="fill:#fdfcf7"/></svg>