<svg xmlns="http://www.w3.org/2000/svg" xmlns:xlink="http://www.w3.org/1999/xlink" data-name="fill_jarredgreenbeans" viewBox="0 0 128 128"><defs><linearGradient id="b" x1="-3655.97" x2="-3786.97" y1="-1298.89" y2="-1298.79" gradientTransform="matrix(.5 0 0 .5 1924 666)" gradientUnits="userSpaceOnUse"><stop offset="0" stop-color="#508424"/><stop offset="1" stop-color="#365d18"/></linearGradient><linearGradient id="c" x1="-3655.6" x2="-3786.59" y1="-1275.52" y2="-1274.6" gradientTransform="matrix(.5 0 0 .5 1924 666)" gradientUnits="userSpaceOnUse"><stop offset="0" stop-color="#365d18"/><stop offset="1" stop-color="#508424"/></linearGradient><linearGradient id="d" x1="-3720.26" x2="-3719.8" y1="-1192.67" y2="-1105.68" gradientTransform="matrix(.5 0 0 .5 1924 666)" gradientUnits="userSpaceOnUse"><stop offset="0" stop-color="#8fc25a"/><stop offset="1" stop-color="#518624"/></linearGradient><linearGradient id="e" x1="-3780.94" x2="-3683.44" y1="-1215.52" y2="-1122.14" gradientTransform="matrix(.5 0 0 .5 1924 666)" gradientUnits="userSpaceOnUse"><stop offset="0" stop-color="#91c35b"/><stop offset="1" stop-color="#6fb32b"/></linearGradient><linearGradient id="f" x1="-3675.06" x2="-3674.51" y1="-1192.7" y2="-1136.7" gradientTransform="matrix(.5 0 0 .5 1924 666)" gradientUnits="userSpaceOnUse"><stop offset="0" stop-color="#8fc25a"/><stop offset="1" stop-color="#679f2f"/></linearGradient><linearGradient id="g" x1="-3720.87" x2="-3683.51" y1="-1225.41" y2="-1138.06" gradientTransform="matrix(.5 0 0 .5 1924 666)" gradientUnits="userSpaceOnUse"><stop offset="0" stop-color="#6eb32b"/><stop offset="1" stop-color="#508424"/></linearGradient><linearGradient id="a" x1="-3679.52" x2="-3679.45" y1="-1213.67" y2="-1196.67" gradientTransform="matrix(.5 0 0 .5 1924 666)" gradientUnits="userSpaceOnUse"><stop offset="0" stop-color="#8ec259"/><stop offset="1" stop-color="#5d9426"/></linearGradient><linearGradient xlink:href="#a" id="h" x1="51.66" x2="58.47" y1="56.38" y2="69.76"/></defs><path d="M104.5 56c.19 18.35.03 36.69-.5 55-.94 3.12-3.16 4.43-6.06 5.69-14.98 6.49-53.33 6.5-68.28-.1-3.39-1.5-5.75-2.83-6.16-6.84-1.72-16.8 1.31-36.42-.02-53.53-.9-7.06 4.68-17.91 4.55-24-.02-1.1-.9-1.72-1.06-2.95-.34-2.51-.31-10.51 0-13.05.47-3.76 6.23-5.64 9.42-6.58 14.45-4.28 36.93-4.13 51.62-.9 3.78.83 12.45 2.9 13.02 7.48.32 2.6.31 9.93 0 12.54-.18 1.51-1.11 2.3-1 3.91.49 7.03 4.83 15.79 4.48 23.32Z" style="fill:#0d1010"/><path d="m104 111 .5-55c-1.16 17.18 1.53 36.36.03 53.31-.09 1.03-.37 1.15-.53 1.69" style="fill:#7e7e7f"/><path d="M26.5 67.5c.05-5.06-.39-10.8 0-15.75.47-5.86 2.95-12.42 4-18.25 5.11 2.4 10.74 3.61 16.31 4.43 11.02 1.62 23.32 1.45 34.37 0 5.58-.73 11.19-2.1 16.31-4.43 1.54 5.98 2.88 11.86 3.51 18l-.25 1.34c-4.87 1.75-9.95 2.97-15.25 3.66l-1.88.73c-4.54-.33-9.06-.71-13.58-1.16-1.28-3.14-2.29-6.47-3.06-9.99-5.14-1.16-7.79 5.29-8.78 9.48-.87 1.24-11.18 1.71-12.15 1.29-1.89-2.23-3.45-4.83-4.69-7.8-3.44-3.69-7.55 7.94-7.14 10.39-4.21 1.33-5.95 3.77-5.21 7.31l-1 .76c-.04 1.44-1.17 1.35-1.5 0Z" style="fill:#f3f3f6"/><path d="M59.39 9.14c8.29-.36 31.53.66 37.86 5.85 1.53 1.26 1.57 2.16-.07 3.44-9.69 7.53-56.69 7.53-66.36 0-1.64-1.28-1.6-2.18-.07-3.44 5.06-4.15 21.94-5.56 28.64-5.85" style="fill:url(#b)"/><path d="M98.5 21v8.25c0 .34-2.59 2.06-3.16 2.34-12.5 6.13-49.28 5.99-61.98.3-.72-.32-3.86-2.12-3.86-2.64V21l6.62 2.63c18.04 4.43 37.72 4.52 55.76 0z" style="fill:url(#c)"/><path d="M101 51.5c.02.18.84 1.05.54 1.69l-.15 57.46c-.3 1.65-3.98 3.31-5.54 3.93-14.66 5.84-46.97 5.6-61.95.77-1.68-.54-6.46-2.36-7.14-3.86-.37-14.58-.39-29.36-.26-43.99H28l.6 2.42c.15 13.75.45 27.44.89 41.06 12.43 5.91 28.84 6.22 42.69 5.52 3.72-.19 25.18-1.6 26.75-7.06l.1-45.64-.57-1.49c-3.64-2.5-7.79-4.07-12.46-4.71l-.49-1.11c.34-.84 1.05-1.16 1.87-1.38 4.38-1.19 9.72-.94 13.63-3.62Z" style="fill:#e7e8ef"/><path d="M85.5 56.5c3.14.54 8.53 1.97 11.34 3.42 1.67.86 2.95 1.77 3.19 3.81l-.13 45.92c-.84 3.77-9.46 5.57-12.8 6.2-12.59 2.35-29.6 2.37-42.28.59-3.23-.45-15.28-2.6-16.56-5.44-.15-14.39-.68-29.07-.26-43.49.05-1.64-.32-3.93.37-5.38.85-1.77 4.8-2.81 5.05-3.19.21-.32.09-2.09.3-2.95.78-3.17 3.25-9.67 7.43-8.38 1.93.6 3.69 7.85 5.17 8.33l10.85-.4c1.44-4.4 1.95-7.84 6.49-10.11 6.77-3.38 4.48 6.21 6.82 9.86 4.98.46 10.09.37 15.02 1.23Z" style="fill:#0c100d"/><path d="M30.5 68c.92.5 4.46 1.25 4.89 1.61.27.23 1.74 5.17 2.69 6.56 1.11 1.63 3.17 2.86 4.15 4.35 1.84 2.8 2.03 5.65 4.78 8.72 2.31 2.58 4.96 3.17 6.94 5.06 2.2 2.09 3.3 5.36 6.3 7.7 3.44 2.67 5.18 2.12 8.75 3.25 1.77.55 3.29 2.3 4.99 3.01 5.69 2.4 6.92.36 11.87-.64 3.75-.76 8.16-.21 11.39-3.11 1.03 4.76.16 5.52-3.98 7.02-13.25 4.78-44.8 4.67-58.16.12-1.6-.54-3.31-1.3-4.61-2.39V68.01Z" style="fill:url(#d)"/><path d="M37 54.5c.29-.73 2.38-4.84 3.49-4 7.44 17.16 16.93 32.54 32.54 43.22C77.68 96.9 83.2 99.3 88 102.25c.19.78-.69 1.02-1.14 1.36-6.13 4.68-11.19 3.49-16.86-1.11.99-1.33-.69-2.22-5.02-2.67q-3.06-3-4.98-1.83c-1.7-1.95-3.62-5.62-5.5-7 1.82-1.12.84-2.39-2.96-3.79-1.45-3.67-2.8-4.58-4.04-2.71-1.41-2.34-2.7-4.87-4.5-7 .04-.68.44-1.13 1.18-1.35-1.69-1.48-2.94-3.22-3.75-5.24l-1.44.58c-1.07-3.26-.49-4.86-1-7.5l1.47-.8-1.44-4.4c.65-2.13.31-3.56-1.03-4.31Z" style="fill:url(#e)"/><path d="M97.5 68v33c-6.85-5.42-13.89-12.8-18.4-20.35-.76-1.27-3.45-6.27-3.6-7.4s.19-.59.76-.74c3.66-.94 8.33-.9 12.27-1.74 3.08-.66 6.03-1.7 8.98-2.77Z" style="fill:url(#f)"/><path d="M62.5 50c.91-1.14 1.81-2.49 3.5-2.5 1.74 10.39 4.03 21.1 8.64 30.61 2.89 5.95 8.05 12.56 12.6 17.4 2.43 2.59 5.14 4.85 7.75 7.24l-4.49 1.75.52-2.72c-1.68-2.89-6.19-4.11-9.17-5.88-4.04-2.4-9.17-5.35-12.18-8.84-.44-.51-.52-1.39-.67-1.56.18-.58.71-1.02 1.57-1.32-2.64-1.48-3.92-3.35-4.38-6.3-.62.27-1.18.81-1.69 1.61-1.2-3.23-1.65-6.69-3-10l1.42-.89c-.98-2.11-1.27-4.43-.88-6.96-.92-.01-1.43-.39-1.53-1.15.05-1.16-.09-2.35 0-3.5 1.47.09 2.08-.96 1.83-3.13 1.29-1.69 1.35-2.98.17-3.87Z" style="fill:url(#g)"/><path d="m74 70-3-12c.84-.76 16.21 1.67 18.52 2.23 2.69.65 6.07 1.42 7.96 3.57.35 1.64-5.22 3.23-6.37 3.56-5.56 1.58-11.39 1.97-17.11 2.65Z" style="fill:url(#a)"/><path d="M58 70c-1.11-.21-3.59.37-4.4-.1-.38-.22-.77-1.72-1.05-2.3a.3.3 0 0 0-.05-.1c-.6-1-5.54-8.49-5-9L58 58c0 2.78-1.55 6.3-1 9 .12.6 1.43 1.86 1 3" style="fill:url(#h)"/><path d="M47.5 84.5c0-1.49.61-2.49 2.17-1.93.98.35 1.53 2.9 2.57 3.93 1.11 1.09 4.06 1.85 4.21 2.04.66.84-.28 2.99-1.96 2.46-3.36-2.47-3.56-1.31-6.5-5.5l-.5-1Z" style="fill:#c2d997"/><path d="M60 98c.92-3.64 3.43.03 4.99.76 2.59 1.21 7.21.35 6.51 3.74-.5.02-1 0-1.5 0-4.46.1-7.16-1.24-10-4.5M38 64c-.08-.41-1.01-1.69-1.24-2.51-.81-2.94-.91-4.13.24-6.99 3.92-.3 1.81 1.95 2.02 4.19.17 1.83 3.78 6.98-1.02 5.31m26.5 15.5c-.04-.84-.21-2.08.81-2.44 2.45-.88 1.84 1.95 2.76 3.63.71 1.3 3.24 2.6 3.39 3.11.5 1.58-1.29 1.93-2.46 1.71l-1-.5c-1.78-2.26-2.43-2.62-3.5-5.5Z" style="fill:#c5da9d"/><path d="m60.5 60.5 2.44.07c.29 1.83-.19 3.84.08 5.66.19 1.3 1.86 2.57-.04 3.55-.59.3-1.02.06-1.48-.28L61 69c-1.67-4.24-.66-4.67-.5-8.5" style="fill:#c2d997"/><path d="M39 71.5c-.25-1.46 1.84-1.92 2.46-1.46.17.13.89 2.88 1.82 3.93 1.4 1.6 4.76 3.07-.28 3.53-2.11-2.51-2.78-2.28-4-6" style="fill:#c5da9d"/><path d="M60.5 57c.28-3.47-.4-4.01 2-7 4.01.14.96 2.92.71 4.47s.84 5.03-2.71 2.53" style="fill:#c2d997"/><path d="M61 79c-.97.24-.96-.36-1.41-.84-1.56-1.71-2.81-3.74-4.09-5.65 5.23-.91 5.76 2.03 5.5 6.49" style="fill:#73ac3f"/><path d="M35.5 67c-.13.16-1.64-.84-2-1-1.07-.47-2.77-.54-2.98-2.2l3.23-2.29c.46.03 1.66 3.28 1.75 3.99.06.49-.03 1.01 0 1.5" style="fill:#538824"/><path d="M48 85.5c-.32-.46-.35-.76-.5-1 0 .06.7.51.5 1" style="fill:#73ac3f"/><path d="M69 85.5s-.52.11-1-.5c.57-.25.95.49 1 .5" style="fill:#538824"/><path d="M61.5 69.5c-.05-.12-.41-.27-.5-.5.31.02.38.41.5.5" style="fill:#73ac3f"/><path d="M35 74c.57 6.09.65 12.41 0 18.5-1.89 2.96-2.85.31-3-2 .1-5.54.26-11.21.5-17 1.2-1.92 1.83-1.19 2.5.5m-2.5 24.25c.34-1.18 2.5-.75 2.5 0v10c0 .94-2.5.94-2.5 0 0-2.19-.44-8.46 0-10" style="fill:#f3f3f6"/><path d="M35 92.5V74c.26.66.45.67.53 1.69.31 3.89.4 11.8 0 15.61-.08.77-.23.73-.53 1.2m-3-2c-.27-4.19-.47-11.75-.03-15.8.08-.77.24-.74.53-1.2-.05 4.74.06 9.51 0 14.26 0 .84.33 2.24-.51 2.74Z" style="fill:#73ac3f"/></svg>