<svg xmlns="http://www.w3.org/2000/svg" viewBox="0 0 128 128"><path d="M63.79 119.89c-30.9-.06-55.76-25.22-55.68-56.34.08-30.5 25.28-55.47 55.95-55.43 30.91.04 55.94 25.23 55.82 56.18-.12 30.74-25.25 55.65-56.09 55.59m.24-103.55c-25.96-.08-47.54 21.42-47.69 47.49-.14 25.95 21.32 47.55 47.5 47.79 25.75.24 47.66-21.57 47.78-47.54.11-25.92-21.56-47.67-47.59-47.74" style="fill:#4a3726;stroke-width:0"/><path d="M64.03 16.34c26.03.08 47.7 21.82 47.59 47.74-.11 25.98-22.02 47.78-47.78 47.54-26.18-.24-47.65-21.84-47.5-47.79.15-26.08 21.73-47.57 47.69-47.49m-34.2 47.78c.02 18.93 15.22 34.02 34.28 34.02 18.71 0 34.03-15.32 34.03-34.02 0-19.18-15.15-34.31-34.35-34.29-18.95.02-33.98 15.19-33.97 34.29Z" style="fill:#f4f8f4;stroke-width:0"/><path d="M29.83 64.12c-.02-19.1 15.01-34.28 33.97-34.29 19.2-.02 34.35 15.11 34.35 34.29 0 18.7-15.33 34.02-34.03 34.02-19.06 0-34.26-15.09-34.28-34.02Zm34.3 25.8c14.07-.06 25.84-11.9 25.8-25.97-.04-14.08-11.83-25.85-25.91-25.86-14.24 0-26.03 11.87-25.94 26.13.09 14.08 11.93 25.77 26.05 25.7" style="fill:#4a3726;stroke-width:0"/></svg>