<svg xmlns="http://www.w3.org/2000/svg" viewBox="0 0 128 128"><path d="M21.7 104c-2.77-26.82-2.63-53.18-.07-80.01-4.35-6.85.54-13.18 6.75-17.92 4.02-3.81 8.54-4.35 11.98-2.77h34.56v.01c7.88 1.54 17.65-4.29 25.11 3.16 6.13 4.76 10.48 10.91 6.26 17.51 2.75 26.8 2.63 53.17.03 80.01 5.13 8.02-2.51 15.18-9.63 19.98-3.38 2.01-6.96 1.71-9.06.7H75.12v-.01H40.44c-3.9 1.86-8.69.8-12.88-3.48-5.88-4.32-10.11-10.95-5.88-17.18Z" style="fill:#4a3726;stroke-width:0"/><path d="M28.95 98.64c-2.55-22.81-.88-45.76-.42-68.9 23.27-1.64 47.57-1.3 70.92-.14v68.44c-23.19 2.19-47.09.72-70.5.61Z" style="fill:#96a775;stroke-width:0"/><path d="M29.25 20.68c-3.34-4.1 3.76-8.36 6.59-9.61 1.91-.24 4.09 1.75 6.32 2.84q5.48-3.24 10.99.35c1.24-1.06 2.56-2.19 4.57-3.92 1.89 1.12 4 2.35 6.23 3.67 4.46-3.73 6.61-3.69 11.37.12 3.28-3.85 6.93-4.92 10.2.17 2.49-1.5 4.6-2.76 6.66-4 2.87 2.53 5.19 4.58 7.34 6.48.45 2.99-.63 4.2-3.36 4.19-22.28-.26-44.67.43-66.92-.29Zm34.81 92.22c-3.66 5.35-7.37 5.24-10.82.77q-5.92 3.57-11.1.33c-6.42 5.25-8.79 1.56-13.9-2.67.13-1.45.23-2.53.36-3.95h70.56c.2 1.24.38 2.4.58 3.61-3.85 4.06-8.95 8.69-13.44 2.75q-6.17 3.73-11.34-.12c-3.45 4.02-7.3 5.22-10.91-.71Z" style="fill:#beb696;stroke-width:0"/><path d="M46.47 83.56c.87-8.04 7.63-7.95 13.53-9.77V62.86c-10.22-.19-19.22-9.97-15.39-20.22 8.12-2.7 13.95.16 18.9 8.78 5-5.52 11.35-12.93 19.61-8.8 3.96 9.08-1.99 17.11-15.08 20.37v10.96c5.28 1.38 11.43 1.54 13.63 9.21-7.77 6.91-27.03 6.61-35.19.41Z" style="fill:#4a3726;stroke-width:0"/></svg>