<svg xmlns="http://www.w3.org/2000/svg" data-name="fill_grape" viewBox="0 0 128 128"><defs><linearGradient id="a" x1="-840.4" x2="-879.61" y1="125.65" y2="132.81" gradientTransform="translate(518)scale(.5)" gradientUnits="userSpaceOnUse"><stop offset="0" stop-color="#454a84"/><stop offset="1" stop-color="#7d83bf"/></linearGradient><linearGradient id="b" x1="-887.12" x2="-924.99" y1="145.93" y2="148.6" gradientTransform="translate(518)scale(.5)" gradientUnits="userSpaceOnUse"><stop offset="0" stop-color="#454a84"/><stop offset="1" stop-color="#767dba"/></linearGradient><linearGradient id="c" x1="-963.81" x2="-926.01" y1="111.06" y2="119.37" gradientTransform="translate(518)scale(.5)" gradientUnits="userSpaceOnUse"><stop offset="0" stop-color="#7d84bf"/><stop offset="1" stop-color="#454a84"/></linearGradient><linearGradient id="d" x1="-894.41" x2="-855.46" y1="226.33" y2="228.17" gradientTransform="translate(518)scale(.5)" gradientUnits="userSpaceOnUse"><stop offset="0" stop-color="#7b81bd"/><stop offset="1" stop-color="#454985"/></linearGradient><linearGradient id="e" x1="-895.86" x2="-933.75" y1="195.19" y2="196.76" gradientTransform="translate(518)scale(.5)" gradientUnits="userSpaceOnUse"><stop offset="0" stop-color="#454a84"/><stop offset="1" stop-color="#7980bc"/></linearGradient><linearGradient id="f" x1="-934.14" x2="-973.15" y1="164.42" y2="165.95" gradientTransform="translate(518)scale(.5)" gradientUnits="userSpaceOnUse"><stop offset="0" stop-color="#454984"/><stop offset="1" stop-color="#787ebb"/></linearGradient><linearGradient id="g" x1="-847.94" x2="-885.78" y1="176.91" y2="179.61" gradientTransform="translate(518)scale(.5)" gradientUnits="userSpaceOnUse"><stop offset="0" stop-color="#454984"/><stop offset="1" stop-color="#797fbc"/></linearGradient><linearGradient id="h" x1="-918.71" x2="-880.59" y1="94.49" y2="99.48" gradientTransform="translate(518)scale(.5)" gradientUnits="userSpaceOnUse"><stop offset="0" stop-color="#7d84be"/><stop offset="1" stop-color="#454a84"/></linearGradient><linearGradient id="i" x1="-908.16" x2="-923.97" y1="9.12" y2="61.81" gradientTransform="translate(518)scale(.5)" gradientUnits="userSpaceOnUse"><stop offset="0" stop-color="#6fb53e"/><stop offset="1" stop-color="#1f6424"/></linearGradient><linearGradient id="j" x1="-972.41" x2="-928.95" y1="43.35" y2="90.33" gradientTransform="translate(518)scale(.5)" gradientUnits="userSpaceOnUse"><stop offset="0" stop-color="#786047"/><stop offset="1" stop-color="#493625"/></linearGradient></defs><path d="M49 17.25c.72-5.35 6.66-12.53 11.13-15.37C62.85.15 66.73.4 68.26 3.49c6.1 12.3.42 26.83-11.76 32.26.98.88 1.9 1.87 2 3.25l5.65-3.1C74.19 32.05 85.18 41.52 82 51.99c4.94-1.4 10.06-1.83 14.47 1.28 9.13 6.45 6.77 21.36-3.97 24.22 8.71 7.15 7.18 21.06-4 24.5 6.11 5.21 8.08 13.05 3.11 19.86-8.6 11.76-27.99 2.82-24.11-11.36-10.98 4.11-21.01-3.32-20-15-6.51 2.17-13.16.72-17.22-5.03-5.36-7.6-1.16-19.5 8.22-20.98l-3.49-3.26c-7.54-9.24-.5-22.38 10.99-22.49-2.8-4.67-7-7.81-11.82-10.18-1.99-.98-4.96-1.48-6.45-3.05-3.37-3.56-1.88-10.39 3.14-11.41s14.61 5.08 18.39 8.39c-.15-1.07-.25-1.47-.25-1.75 0-2.56-.32-6.12 0-8.5Z" style="fill:#0a0c0e"/><path d="M88.33 53.18c8.05-.21 13.95 9.1 10.45 16.32-3.11 7.46-13.92 8.54-18.95 2.42-6.46-7.05-1.22-18.74 8.3-18.74z" style="fill:url(#a)"/><path d="M60.64 63.27c10.27-4.39 20.2 7.5 13.86 16.75-3.43 5.19-11.18 6.53-16.12 2.73-7.04-4.91-5.82-16.07 2.08-19.39l.18-.08Z" style="fill:url(#b)"/><path d="M43.67 46.55c9.18-1.8 16.24 8.12 11.93 16.33-3.26 6.87-13.42 8.24-18.26 2.3-5.63-6.23-2.29-17.11 6.13-18.59z" style="fill:url(#c)"/><path d="M78.72 102.53c8.57-1.8 15.91 7.72 12.27 15.63-3.37 8.25-14.84 9.2-19.52 1.74-4.41-6.28-.46-15.98 7.07-17.33l.19-.04Z" style="fill:url(#d)"/><path d="M49.66 99.69c-1.4-7.98 6.83-15.04 14.5-12.36 11.6 3.8 9.89 20.21-2.16 21.79-5.74.81-11.47-3.51-12.31-9.24z" style="fill:url(#e)"/><path d="M31.34 87.55c-4.08-7.95 2.84-17.62 11.67-16.11 8.04.97 12.93 11.4 7.55 17.83-4.85 6.84-15.48 5.93-19.14-1.55l-.08-.16Z" style="fill:url(#f)"/><path d="M76.67 97.28c-5.82-5.2-4.01-15.63 3.3-18.46 7.88-3.54 17.2 3.52 15.74 12.06-1.17 8.83-12.5 12.64-18.89 6.53l-.15-.14Z" style="fill:url(#g)"/><path d="M59.2 53.87c-2.64-5.32-.49-12.33 4.69-15.19 9.29-5.47 19.52 5.52 14.75 14.68-3.82 8.35-15.27 8.9-19.36.67z" style="fill:url(#h)"/><path d="M58.73 5.98c4.3-4.23 6.98-4.29 8.54 2 1.39 5.58 1.21 11.72-1.86 16.68-1.62 2.62-7.28 9.25-10.57 8.25-2.57-.79-3.36-11.92-3.06-14.07.27-1.92.98-5 2.51-7.62 1.45-2.48 3.71-4.53 4.44-5.24" style="fill:url(#i)"/><path d="M52.19 34.32c1.29 1.51 4.69 4.95 4.82 6.96.1 1.61-1.96 3.79-1.51 5.72-.31.44-5.45-2.23-6.03-2.72-1.29-1.08-2.85-4.26-4.21-5.79-3.28-3.69-7.23-5.79-11.58-7.92-3.01-1.47-6.99-1.86-4.8-6.95 1.75-4.07 7.97-.97 10.81.43 5.34 2.63 8.69 5.81 12.5 10.26Z" style="fill:url(#j)"/><path d="M57.88 8.94c.88-.75 4.71-4.08 5.58-2.56-.06 1.59-2.36 3.12-3.72 4.99-1.07 1.28-1.76 2.74-2.43 4.24-.78 1.52-1.75 3.45-3.14 2.73-1.66-2.36 1.91-7.55 3.56-9.26l.14-.14Z" style="fill:#91c275"/><path d="M60.55 50.56c-3.4-2.01.41-6.04 3.23-4.4 2.91 2.12.16 6.05-3.08 4.48l-.16-.08Zm-29.5 33.31c-1.21-3.79 4.87-4.75 5.63-1.3.54 3.1-4.34 4.11-5.55 1.47l-.07-.16Zm20.33 13.38c.9-2.97 6.14-2.22 5.51 1.11-.57 3.21-6.17 2.28-5.55-.94zm28.69-34.76c3.04-.7 4.34 4.18 1.21 4.88-2.89.69-4.04-3.85-1.39-4.83l.17-.05Zm-23.48 9.5c3.75-1.23 4.96 4.45.83 4.52-2.4-.09-3.29-3.39-1.01-4.44zM36.77 58.66c-2.01-1.59.17-5.15 2.5-4.03 2.82 1.41.34 5.87-2.36 4.14zm38.17 51.97c2.56 2.96-1.97 6.53-3.99 2.99-1.19-2.26 1.92-4.86 3.85-3.12zm.91-23.96c2.04-.81 4.32 1.78 3.42 3.75-.56 1.39-2.62 2.1-3.78 1.06-1.26-1.13-1.31-3.83.2-4.72l.16-.08Z" style="fill:#aaadd7"/><path d="M32.91 24.09c-.35-.6.49-.92 1-.93 3.35-.03 6.5 2.16 9.24 3.98 3.53 2.73 2.39 4.21-.59 2.62-2.05-1.06-4.21-2.54-6.35-3.49-1.56-.71-2.89-1.46-3.24-2.09l-.05-.09Z" style="fill:#8b6f53"/></svg>