<svg xmlns="http://www.w3.org/2000/svg" data-name="fill_pea" viewBox="0 0 128 128"><defs><linearGradient id="a" x1="-5515.33" x2="-5545.53" y1="314.29" y2="376.38" gradientTransform="matrix(.5 0 0 .5 2812 -74)" gradientUnits="userSpaceOnUse"><stop offset="0" stop-color="#b4d6a5"/><stop offset="1" stop-color="#54b043"/></linearGradient><linearGradient id="b" x1="-5399.14" x2="-5429.61" y1="289.39" y2="352.09" gradientTransform="matrix(.5 0 0 .5 2812 -74)" gradientUnits="userSpaceOnUse"><stop offset="0" stop-color="#b5d6a5"/><stop offset="1" stop-color="#54b043"/></linearGradient><linearGradient id="c" x1="-5504.53" x2="-5534.18" y1="244.75" y2="305.8" gradientTransform="matrix(.5 0 0 .5 2812 -74)" gradientUnits="userSpaceOnUse"><stop offset="0" stop-color="#b5d6a5"/><stop offset="1" stop-color="#55b044"/></linearGradient><linearGradient id="d" x1="-5471.26" x2="-5498.79" y1="181.5" y2="237.97" gradientTransform="matrix(.5 0 0 .5 2812 -74)" gradientUnits="userSpaceOnUse"><stop offset="0" stop-color="#b5d6a5"/><stop offset="1" stop-color="#5ab24a"/></linearGradient><linearGradient id="e" x1="-5431.02" x2="-5461.38" y1="237.57" y2="299.79" gradientTransform="matrix(.5 0 0 .5 2812 -74)" gradientUnits="userSpaceOnUse"><stop offset="0" stop-color="#b5d6a5"/><stop offset="1" stop-color="#54b042"/></linearGradient><linearGradient id="f" x1="-5571.22" x2="-5599.69" y1="282.06" y2="340.3" gradientTransform="matrix(.5 0 0 .5 2812 -74)" gradientUnits="userSpaceOnUse"><stop offset="0" stop-color="#aed39e"/><stop offset="1" stop-color="#54b042"/></linearGradient><linearGradient id="g" x1="-5544.76" x2="-5575.95" y1="204.72" y2="268.82" gradientTransform="matrix(.5 0 0 .5 2812 -74)" gradientUnits="userSpaceOnUse"><stop offset="0" stop-color="#b5d6a5"/><stop offset="1" stop-color="#54b043"/></linearGradient><linearGradient id="h" x1="-5459.13" x2="-5483.64" y1="309.72" y2="361.22" gradientTransform="matrix(.5 0 0 .5 2812 -74)" gradientUnits="userSpaceOnUse"><stop offset="0" stop-color="#7dbb79"/><stop offset="1" stop-color="#47ad40"/></linearGradient></defs><path d="M89.5 39c11.35.1 21.24 9.75 21.02 21.24-.04 2.02-.47 3.75-.46 5.7 31.33 10.64 11.88 54.9-17.28 39.02-6.44 7.99-18.01 9.48-26.96 4.59-2.39 2.6-4.13 5.36-7.14 7.36-9.84 6.52-23.79 3.88-30.08-6.26-.8-1.3-2.77-6.73-3.07-6.96-.49-.37-1.86.37-2.74.32-25.65-1.3-28.43-37.87-3.27-43.03C3.06 41.61 25.99 14.99 47.49 28.5c1.57-8.43 8.46-15.61 16.88-17.38C80.89 7.65 93.97 23.13 89.5 39" style="fill:#0b0f0e"/><path d="M44.4 80.1c5.47-.77 11.21 1.05 14.75 4.52 12.08 11.98 5.8 32.2-11.89 33.28-23.2 1.31-26.37-35.32-3.08-37.77z" style="fill:url(#a)"/><path d="M87.49 79.23c4.85-11.24 20.21-14.9 29.44-6.75 13.25 11.06 4.78 33.67-12.54 33.12-12.92-.12-22.48-14.26-16.98-26.18l.08-.18Z" style="fill:url(#b)"/><path d="M35.61 54.65c12.85-18.69 38.62-7.11 34.96 14.14-.92 4.65-5.99 12.23-11.21 12.4-1.81-.29-3.39-1.58-5.16-2.15-3.2-1.16-6.42-1.61-9.92-1.26-1.92.09-3.99 1.11-5.66-.18-5.98-5.47-7.68-15.71-3.12-22.79l.1-.16Z" style="fill:url(#c)"/><path d="M56.78 17.86c14.38-11.06 33.41.63 30.62 18.05-.45 4.31-3.69 3.42-6.75 4.82-4.07 1.76-7.86 4.9-9.91 8.87-.42.9-1.03 1.83-2.03.95-3.81-3.91-8.71-6.78-14.19-7.39-.81-.1-1.63-.3-2.02-1.05-1.02-2.05-2.35-5.83-2.47-8.21-.22-1.82.89-11.95 6.57-15.88l.19-.15Z" style="fill:url(#d)"/><path d="M107.37 65.01c-1.04.89-2.93.41-4.28.53-2.65-.08-4.47.11-6.66 1.3-3.66 2.02-7.12 4.59-9.27 7.65-1.06 1.28-1.59 3.89-3.49 4.04-3.12-.37-6.38-3.04-8.64-5.26-1.97-1.7-2.07-3.84-1.71-6.48.18-2.32.3-4.82-.32-7.24-.92-2.92-2.11-5.49-.37-8.43 3.5-6.62 11.35-10.48 18.82-9.51 10.59 1.25 18.95 12.93 16 23.32l-.08.1Z" style="fill:url(#e)"/><path d="M9.9 68.76c2.8-2.84 9.49-6.57 13.15-4.71 2.36 1.05 4.93 2.92 7.45 3.45.3.14.5.32.56.69.31 4.3 2.93 7.97 5.6 11.19.29.38.26.69-.22.94-7.29 3.38-11.71 11.99-11.42 19.91 0 .61-.37.86-.95.89-17.24.39-26.29-19.35-14.29-32.21l.13-.15Z" style="fill:url(#f)"/><path d="M16.74 42.45c2.72-12.91 17.15-19.04 28.6-12.64 2.75 1.42 2.59 4.48 3.16 7.3.25 1.61 1.4 3.78 1.11 4.93-.2.96-1.57 1.35-2.54 1.6-8.44 2.14-14.89 9.26-16.26 17.79-.17.96-.39 2.27-1.26 2.66-.54.28-1.48.07-2.14-.22-8.02-3.45-12.37-12.47-10.71-21.22l.05-.2Z" style="fill:url(#g)"/><path d="M67.08 106.91c1.75-8.03 1.31-16.56-4.79-22.78-.32-.38-.16-.66.21-.9 3.64-2.42 6.74-5.58 8.9-9.34.1-.14.21-.24.33-.25s.24.06.38.18c3.05 3.59 6.93 5.68 11.11 7.68.41 1.86-.32 3.89-.14 5.83.21 4.68 1.83 9.98 5.13 13.49.72.83 2.23 1.8 2.37 2.87-5.48 6.73-16.17 7.93-23.44 3.35z" style="fill:url(#h)"/><path d="M88.08 82.4c1.48-3.05 3.55-5.95 6.15-7.93.69-.45 2.33-1.4 2.39-.09-.02 1.05-1.75 3.25-3.04 5.4-1.42 2.34-2.08 5.16-1.87 7.95.17 2.39.6 5.09.2 6.13-.69 1.54-2.4-.42-3.04-1.27-2.02-2.83-2.43-6.83-.86-10l.08-.18ZM53.94 22.8c2.18-2.29 4.65-4.54 7.55-5.75.82-.27 2.37-.56 2.31.62-.09 1.06-2.67 2.86-4.03 4.15-2.27 2.11-3.56 5.08-4.06 8.16-.39 2.28-.65 4.93-1.58 5.44-1.06.7-2.85-1.74-2.91-4.38-.15-2.8.95-6.06 2.61-8.08l.12-.15ZM38.88 53.6c.77-.75 2.26-1.39 2.58.15.17 1.45-.32 2.67-.71 4.19-1.03 3.15-1.54 6.67-.71 10 .18 1.44 3.06 8.43.32 6.72-4.38-4.78-6.34-15.76-1.58-20.95l.11-.11ZM19.13 40.72c.66-1.1 4.31-5.92 5.18-3.49.22 1-.77 2.89-1.47 4.58-.87 2.07-1.18 4.42-.74 6.67.33 2.28 1.81 4.67 1.6 6.65-.06.73-.53 1.33-1.21.99-1.7-1-2.65-3.48-3.29-5.45-1.17-3.64-1.4-5.99-.16-9.79l.1-.16ZM5.94 80.13c.32-2.06 1.76-6.19 3.53-6.24 1.37 1.09-.19 6.96.16 9.35-.17 2.01 2.49 8.53 1.04 9.3-2.28-.43-5.56-8.53-4.76-12.21zm23.3 14.37c.68-3.88 5.73-11.12 10.06-10.48.92.57-.09 1.61-.64 2.24-2.72 2.33-5.48 5.02-6.15 8.73-.72 2.56-.04 5.46-1.81 7.18-2.43.35-1.79-5.95-1.49-7.46l.04-.2Zm59.03-51.14c1.28 1.79-2.04 2.43-3.3 2.79-3.46 1.07-5.98 2.66-7.75 5.75-.62 1.05-1.03 2.34-1.73 3.31-1.78 2.22-2.33-.83-1.74-2.22 1.51-5.34 6.97-8.93 12.28-10 .72-.15 1.62-.14 2.14.29l.09.08Z" style="fill:#dbebd2"/></svg>