<svg xmlns="http://www.w3.org/2000/svg" data-name="fill_wine" viewBox="0 0 128 128"><defs><linearGradient id="a" x1="-528.63" x2="-697.67" y1="-417.6" y2="-417.43" gradientTransform="matrix(.5 0 0 .5 370 296)" gradientUnits="userSpaceOnUse"><stop offset="0" stop-color="#a97737"/><stop offset=".49" stop-color="#c19a6d"/><stop offset="1" stop-color="#a97736"/></linearGradient><linearGradient id="b" x1="-696.72" x2="-527.72" y1="-510.18" y2="-510.03" gradientTransform="matrix(.5 0 0 .5 370 296)" gradientUnits="userSpaceOnUse"><stop offset="0" stop-color="#a97736"/><stop offset=".5" stop-color="#c19a6d"/><stop offset="1" stop-color="#a97737"/></linearGradient><linearGradient id="c" x1="-522.77" x2="-693.79" y1="-463.69" y2="-463.65" gradientTransform="matrix(.5 0 0 .5 370 296)" gradientUnits="userSpaceOnUse"><stop offset="0" stop-color="#71706f"/><stop offset=".51" stop-color="#a9a9a8"/><stop offset="1" stop-color="#777675"/></linearGradient><linearGradient id="d" x1="27.08" x2="100.64" y1="109.33" y2="109.37" gradientUnits="userSpaceOnUse"><stop offset="0" stop-color="#7b7978"/><stop offset=".47" stop-color="#aaaaa8"/><stop offset="1" stop-color="#737271"/></linearGradient><linearGradient id="e" x1="27.03" x2="101.09" y1="19.2" y2="19.22" gradientUnits="userSpaceOnUse"><stop offset="0" stop-color="#7a7978"/><stop offset=".47" stop-color="#a9a9a8"/><stop offset="1" stop-color="#737271"/></linearGradient><linearGradient id="f" x1="-858.17" x2="-887.09" y1="718.18" y2="723.46" gradientTransform="matrix(.5 0 0 .5 518 -296)" gradientUnits="userSpaceOnUse"><stop offset="0" stop-color="#454a84"/><stop offset="1" stop-color="#7d83bf"/></linearGradient><linearGradient id="g" x1="-892.62" x2="-920.56" y1="733.14" y2="735.11" gradientTransform="matrix(.5 0 0 .5 518 -296)" gradientUnits="userSpaceOnUse"><stop offset="0" stop-color="#454a84"/><stop offset="1" stop-color="#767dba"/></linearGradient><linearGradient id="h" x1="-949.19" x2="-921.31" y1="707.42" y2="713.55" gradientTransform="matrix(.5 0 0 .5 518 -296)" gradientUnits="userSpaceOnUse"><stop offset="0" stop-color="#7d84bf"/><stop offset="1" stop-color="#454a84"/></linearGradient><linearGradient id="i" x1="-898" x2="-869.27" y1="792.44" y2="793.8" gradientTransform="matrix(.5 0 0 .5 518 -296)" gradientUnits="userSpaceOnUse"><stop offset="0" stop-color="#7b81bd"/><stop offset="1" stop-color="#454985"/></linearGradient><linearGradient id="j" x1="-899.07" x2="-927.02" y1="769.48" y2="770.63" gradientTransform="matrix(.5 0 0 .5 518 -296)" gradientUnits="userSpaceOnUse"><stop offset="0" stop-color="#454a84"/><stop offset="1" stop-color="#7980bc"/></linearGradient><linearGradient id="k" x1="-927.31" x2="-956.08" y1="746.78" y2="747.91" gradientTransform="matrix(.5 0 0 .5 518 -296)" gradientUnits="userSpaceOnUse"><stop offset="0" stop-color="#454984"/><stop offset="1" stop-color="#787ebb"/></linearGradient><linearGradient id="l" x1="-863.72" x2="-891.64" y1="755.99" y2="757.98" gradientTransform="matrix(.5 0 0 .5 518 -296)" gradientUnits="userSpaceOnUse"><stop offset="0" stop-color="#454984"/><stop offset="1" stop-color="#797fbc"/></linearGradient><linearGradient id="m" x1="-915.93" x2="-887.81" y1="695.2" y2="698.88" gradientTransform="matrix(.5 0 0 .5 518 -296)" gradientUnits="userSpaceOnUse"><stop offset="0" stop-color="#7d84be"/><stop offset="1" stop-color="#454a84"/></linearGradient><linearGradient id="n" x1="-908.14" x2="-919.81" y1="632.23" y2="671.1" gradientTransform="matrix(.5 0 0 .5 518 -296)" gradientUnits="userSpaceOnUse"><stop offset="0" stop-color="#6fb53e"/><stop offset="1" stop-color="#1f6424"/></linearGradient><linearGradient id="o" x1="-955.53" x2="-923.48" y1="657.48" y2="692.13" gradientTransform="matrix(.5 0 0 .5 518 -296)" gradientUnits="userSpaceOnUse"><stop offset="0" stop-color="#786047"/><stop offset="1" stop-color="#493625"/></linearGradient></defs><path d="m96.95 12.36 6.54 10.71c.52 2.27-.88 3.02-.82 3.81.05.7 2.59 5.57 3.07 6.94 1.58 4.52 2.95 9.49 3.88 14.17.23 1.18.5 5.83.72 6.21.44.77 1.63 1.08 2.27 1.76 1.31 1.38.38 2 .52 3.43.27 2.64.65 4.79.46 7.58-.08 1.22-.54 5.29-1.22 5.79-.54.39-1.48.25-1.79.81-1.12 7.25-2.53 14.5-4.97 21.42-.55 1.55-2.83 5.27-2.93 6.57-.06.78 1.25 1.32.82 3.29-.33 1.51-5.9 10.62-7.13 11.4-.48.31-.9.55-1.5.5l-63.28-.28-6.77-10.72c-.84-2.57.76-3.31.69-4.19-.04-.58-2.33-4.93-2.79-6.21-1.28-3.56-2.51-7.44-3.38-11.12-.59-2.49-1.03-8.47-1.85-10.15-.72-1.48-2.54-.99-2.9-4.1-.26-2.25-.32-10.39.12-12.41.44-2.01 2.21-2.03 2.79-3.21 1.04-2.13 1.9-10.73 2.86-14.14.65-2.31 1.55-4.85 2.37-7.13.46-1.27 2.75-5.64 2.79-6.21.05-.63-.78-1.19-.92-1.94-.35-1.88 1.59-4.67 2.6-6.38.62-1.06 3.46-5.68 4.04-6.2.55-.49 1.39-.58 2.1-.65 19.9 1.09 41.31-1.43 61.03-.02.86.06 1.92.06 2.59.66Z" style="fill:#0c0d0d"/><path d="M28.28 100.77c-4.17-7.6-6.82-16.55-7.62-25.2-.07-.64-.18-1.58.15-2.01.3-.4 1.12-.33 2.34-.34h6.37c1.23.03 1.98-.17 1.95 1.03.15 3.84 3.11 14.47 5.25 19.86.62 1.49.82 2.16 2.14 2.08 1.69-.05.89-1.71.56-2.92-1.96-5.85-4.32-11.61-4.8-17.77-.02-.71-.15-1.17.14-1.62 5.04-.41 13.92-.02 19.59-.15h6.7c1.58-.13 1.53.29 1.62 1.59.32 6.12-.8 12.68-.08 18.68.94 4.21 3.16 1.76 3.16-1.2.46-5.94-.77-12.67-.07-18.67.19-.58.72-.37 1.75-.41h25.33c.54-.02.78.06.82.61-.17 4.41-1.34 8.94-2.77 13.01-.53 2.21-4.09 7.47-1.61 9.06.25.09.51.03.73-.14 2.54-2.33 5.95-16.75 6.62-21.7.04-.84.3-1.37 1.21-1.32 1.75-.02 6.49-.01 8.55 0 1.49-.11 1.36 1.21 1.22 2.34-.89 8.7-3.41 18.19-7.99 25.61-5.06-.2-67.53.63-71.2-.33l-.05-.08Z" style="fill:url(#a)"/><path d="M29.7 26.93c22.52-.65 45.27.06 67.82.26 1.68.04 2.67.45 3.39 1.99 3.4 7.28 6.05 15.6 6.74 23.68.03.91.17 1.67-.56 2.13-2.33.55-6.34.11-8.66.22-1.47.06-1.85-1.04-1.93-2.35-.76-6.37-1.63-12.55-4.01-18.43-.51-1.42-2.26-3.21-2.65-.78-.08.66.09 1.49.29 2.17 1.68 5.95 4.04 12.3 3.4 18.51-.27.82-.98.64-2.1.65-5.53-.05-12.15-.12-17.81-.18-2.8-.03-5.2-.05-6.57-.07-1.85.24-1.48-1.47-1.59-2.75-.51-3.32 1.98-19.28-1.45-19.61-1.34.34-1.49 2.44-1.61 3.65-.28 5.1.39 10.76.28 15.96-.11 1.38.28 3.01-1.72 2.75-6.82.06-16.65.16-23.74.22-1.62-.05-2.47.3-2.69-.64-.26-1.4-.01-3.11.12-4.58.64-4.98 2.14-9.87 3.56-14.69.59-2.32-.86-3.9-2.3-1.34-2.54 5.26-3.67 12.78-4.34 18.53-.1 1.07-.44 2.09-1.57 2.36-1.49.41-4.46.48-6.64.46-1.76-.09-2.92.13-2.86-1.6.87-6.48 3.43-22.87 9.02-26.48l.15-.05Z" style="fill:url(#b)"/><path d="M64.73 57.74c7.44.21 15.09.57 22.77.39 6.85-.27 13.69-.5 20.51-.03 3.04.22 3.06 3.29 3.05 6.02 0 2.88.12 6.38-3.78 6.31-6.48.36-13.2.17-19.6-.12-18.91.45-38.32-.16-57.32.22-3.23 0-6.5-.04-9.66-.18-3.04.02-3.82-1.92-3.7-4.71.1-2.12-.13-5.62 1.21-6.8.64-.57 1.63-.72 2.52-.77 6.83-.3 13.7-.16 20.53.06 7.74-.12 15.56-.57 23.28-.4h.18Z" style="fill:url(#c)"/><path d="M98.5 108.88c-.7 1.2-3.1 5.15-4.15 5.35-17.92-.21-61.06.68-61.78.03-1.94-1.77-3.66-7.57-5.48-9.79 1.17-.48 50.68-.11 73.5-.25.43.43-1.68 3.93-2.09 4.66" style="fill:url(#d)"/><path d="M32.06 104.61c1.52.94 2.93 3.63 4.01 5.19.74 1.23 1.37 3.64-.53 4.02-2.39-.12-6.59-6.54-5.43-8.51.3-.69 1.05-1.12 1.82-.76z" style="fill:#c2c2c1"/><path d="M101.09 24.22c-22.99-.14-73.09.42-74.06-.06 1.9-2.34 3.72-7.54 5.83-9.43.73-.66.94-.59 1.69-.68 1.69.12 41.88.37 59.8.16.43 0 .69.23.99.51 2.08 2.02 3.92 7.03 5.75 9.5" style="fill:url(#e)"/><path d="M39.44 113.71c-.92-.72-1.89-2.75-2.7-3.89-.56-1.03-1.21-1.94-.82-2.93.2-.38.64-.61 1.07-.63 1.6.04 2.1 1.91 3 3.13.79 1.28 1.62 2.43.71 3.72-.26.37-.72.82-1.15.65l-.1-.05Zm1.15-99.35c1.66 1.43-1.82 8.69-4.13 7.13-.87-1.27.62-2.95 1.25-4.2.79-.95 1.58-3.42 2.78-2.99l.1.07Zm-4.72.43c1.49 2.39-1.72 5.2-2.94 7.5-.33.5-.71 1.04-1.19 1.37-.95.71-2.29.32-2.43-.65-.31-1.86 4.15-9.7 6.47-8.3z" style="fill:#c2c2c1"/><path d="M31.26 99.57c-.73.66-1.93.37-2.34-.49-1.16-2.17-3.68-8.83-4.31-11.36-.45-1.27.57-3.31 1.97-2.01 1.71 1.98 1.72 5.01 2.8 7.34.6 1.95 2.89 4.39 1.96 6.42l-.09.1Zm.07-71.01c.98 1.33-.08 3.36-.64 4.76-1.49 2.85-2.12 6.05-3.37 9-.71 1.66-2.39 2.04-2.68-.08-.14-1.19.14-2.37.52-3.51.93-2.68 2.4-5.34 3.25-8 .33-1.16 1.48-3.4 2.83-2.26l.08.09Z" style="fill:#f7d2a2"/><path d="M19.99 59.54c.65-.85 1.94-.8 2.33.12.52 1.56.18 3.34.27 4.99-.02 2.82.33 5.67-2.2 4.61-.89-.74-.83-1.94-.91-3.17.04-1.94-.43-4.84.41-6.43l.09-.13Zm5.63-.41c2.97-.39 2.62 7.01.54 7.92-1.31.43-1.07-1.14-1.1-3.53.12-1.26-.34-3.6.47-4.34z" style="fill:#c2c2c1"/><path d="M52.92 29.48c.53-3.95 4.91-9.24 8.21-11.34 2-1.27 4.87-1.09 6 1.19 4.5 9.07.31 19.79-8.67 23.79.72.65 1.4 1.38 1.48 2.4l4.17-2.28c7.41-2.84 15.51 4.15 13.16 11.87 3.64-1.03 7.42-1.35 10.67.95 6.73 4.76 4.99 15.75-2.93 17.87C91.43 79.2 90.3 89.46 82.06 92c4.51 3.84 5.96 9.63 2.3 14.65-6.34 8.68-20.65 2.08-17.79-8.38-8.1 3.03-15.5-2.45-14.75-11.07-4.8 1.6-9.7.53-12.7-3.71-3.96-5.6-.85-14.38 6.06-15.47l-2.57-2.4c-5.56-6.82-.37-16.5 8.1-16.59-2.07-3.44-5.16-5.76-8.72-7.51-1.47-.72-3.66-1.09-4.76-2.25-2.49-2.63-1.39-7.67 2.31-8.42s10.78 3.75 13.56 6.19c-.11-.79-.19-1.09-.19-1.29 0-1.89-.24-4.51 0-6.27Z" style="fill:#0a0c0e"/><path d="M81.93 55.98c5.94-.15 10.29 6.71 7.71 12.04-2.29 5.5-10.26 6.3-13.98 1.78-4.77-5.2-.9-13.82 6.12-13.82z" style="fill:url(#f)"/><path d="M61.51 63.42c7.57-3.24 14.9 5.53 10.22 12.35-2.53 3.83-8.25 4.82-11.89 2.01-5.19-3.62-4.3-11.86 1.53-14.31l.13-.06Z" style="fill:url(#g)"/><path d="M48.99 51.08c6.77-1.33 11.98 5.99 8.8 12.04-2.4 5.07-9.9 6.08-13.47 1.7-4.16-4.59-1.69-12.62 4.52-13.71l.14-.03Z" style="fill:url(#h)"/><path d="M74.85 92.38c6.32-1.32 11.73 5.7 9.05 11.53-2.48 6.08-10.95 6.78-14.4 1.28-3.25-4.64-.34-11.78 5.21-12.78z" style="fill:url(#i)"/><path d="M53.41 90.28c-1.03-5.89 5.04-11.09 10.7-9.12 8.56 2.8 7.3 14.91-1.59 16.07-4.23.6-8.46-2.59-9.08-6.81l-.02-.14Z" style="fill:url(#j)"/><path d="M39.9 81.33c-3.01-5.86 2.1-13 8.61-11.89 5.93.71 9.53 8.41 5.57 13.15-3.57 5.04-11.41 4.37-14.12-1.15l-.06-.12Z" style="fill:url(#k)"/><path d="M73.33 88.5c-4.3-3.84-2.96-11.53 2.44-13.61 5.81-2.61 12.69 2.6 11.61 8.9-.87 6.51-9.22 9.32-13.93 4.82l-.11-.1Z" style="fill:url(#l)"/><path d="M60.44 56.49c-1.95-3.93-.36-9.09 3.46-11.2 6.85-4.04 14.39 4.07 10.88 10.83-2.82 6.16-11.26 6.57-14.28.49z" style="fill:url(#m)"/><path d="M60.1 21.16c3.17-3.12 5.15-3.16 6.3 1.47 1.02 4.12.89 8.65-1.37 12.31-1.19 1.94-5.37 6.83-7.8 6.08-1.89-.58-2.48-8.79-2.26-10.38.2-1.41.72-3.69 1.85-5.62 1.07-1.83 2.74-3.34 3.27-3.86Z" style="fill:url(#n)"/><path d="M55.27 42.07c.95 1.11 3.46 3.65 3.55 5.14.08 1.19-1.45 2.79-1.11 4.22-.23.32-4.02-1.65-4.45-2.01-.95-.79-2.1-3.14-3.1-4.27-2.42-2.72-5.33-4.27-8.54-5.84-2.22-1.09-5.15-1.37-3.54-5.12 1.29-3 5.88-.71 7.97.32 3.94 1.94 6.41 4.28 9.22 7.57Z" style="fill:url(#o)"/><path d="M59.48 23.35c.65-.56 3.47-3.01 4.12-1.89-.05 1.17-1.74 2.3-2.74 3.68-.79.94-1.3 2.02-1.79 3.13-.57 1.12-1.29 2.54-2.31 2.02-1.23-1.74 1.41-5.57 2.63-6.83l.1-.1Z" style="fill:#91c275"/><path d="M61.44 54.05c-2.51-1.48.31-4.45 2.38-3.25 2.14 1.56.12 4.46-2.27 3.31l-.12-.06ZM39.69 78.61c-.89-2.79 3.59-3.51 4.15-.96.4 2.29-3.2 3.03-4.1 1.08zm14.99 9.88c.67-2.19 4.53-1.64 4.06.82-.42 2.37-4.55 1.68-4.09-.69zm21.16-25.64c2.24-.52 3.2 3.08.9 3.6-2.13.51-2.98-2.84-1.02-3.56l.13-.04Zm-17.32 7c2.77-.91 3.66 3.28.61 3.34-1.77-.06-2.43-2.5-.74-3.28zM43.9 60.02c-1.48-1.18.13-3.8 1.85-2.97 2.08 1.04.25 4.33-1.74 3.05zm28.16 38.33c1.89 2.18-1.45 4.81-2.94 2.2-.88-1.67 1.41-3.58 2.84-2.3zm.67-17.67c1.5-.6 3.18 1.31 2.52 2.76-.41 1.03-1.93 1.55-2.78.78-.93-.83-.97-2.82.15-3.48l.12-.06Z" style="fill:#aaadd7"/><path d="M41.05 34.52c-.26-.44.36-.68.74-.68 2.47-.03 4.79 1.59 6.81 2.93 2.61 2.01 1.76 3.1-.44 1.93-1.51-.79-3.11-1.87-4.68-2.57-1.15-.52-2.13-1.08-2.39-1.54l-.04-.06Z" style="fill:#8b6f53"/></svg>