<svg xmlns="http://www.w3.org/2000/svg" viewBox="0 0 128 128"><path d="M45.16 123.35c-15.23-.8-29.13-9.06-36.55-26.04C1.05 80 4.11 63.69 17 49.89c10.73-11.48 21.97-22.51 33.34-33.36C63.5 3.98 82.63 1.21 98.73 8.95c16.11 7.74 25.88 24.44 24.61 42.44-.73 10.36-4.72 19.43-12.01 26.84-10.96 11.14-21.98 22.21-33.17 33.11-8.22 8.02-18.61 11.98-33.01 12Z" style="fill:#4a3726;stroke-width:0"/><path d="M84.64 80.09c-.11 20.33-16.31 36.31-36.69 36.21-20.14-.1-36.19-16.52-36.06-36.89.13-20.07 16.41-35.95 36.74-35.84 20.21.11 36.12 16.24 36.01 36.52" style="fill:#a5805b;stroke-width:0"/><path d="M91.18 88.53c5.27-31.16-20.63-56.48-51-51.46-.03-.16-.14-.41-.08-.47 5.74-5.64 11.14-11.68 17.3-16.83 20.72-17.32 53.66-5.09 58.36 21.5 2.22 12.57-1.18 23.52-10.01 32.7-4.67 4.86-9.54 9.54-14.57 14.55Z" style="fill:#a5805b;stroke-width:0"/><path d="M48.66 61.45c10.1.25 18.37 8.96 18.07 19.03-.29 9.79-8.97 18.26-18.65 17.83-11.06-.5-18.26-8.6-18.2-18.87.06-10.08 8.9-18.23 18.78-17.99" style="fill:#4a3726;stroke-width:0"/><path d="M48.24 68.48c6.27 0 11.51 5.19 11.47 11.33-.04 6.25-5.27 11.66-11.25 11.65-6.11-.01-11.61-5.45-11.73-11.61-.12-5.95 5.36-11.37 11.51-11.37" style="fill:#7b5b3b;stroke-width:0"/></svg>