<svg xmlns="http://www.w3.org/2000/svg" viewBox="0 0 128 128"><path d="M30.23 106.43c-4.86-4.26-9.73-8.01-13.99-12.37-9.08-9.3-13.72-20.5-12.65-33.67.39-4.8 3.71-7.88 7.38-10.45 6.39-4.45 13.77-6.38 21.23-8.08 14.21-3.24 28.67-3.44 43.06-2.69 13.4.7 26.77 2.59 38.92 9.03 4.81 2.55 9.33 5.94 10.07 11.72.8 6.26-.03 12.51-2.42 18.51-4.47 11.21-12.5 19.29-22.18 26-.68.47-1.39.9-2.01 1.3 1.49 7.66.14 11.05-6.81 14.07-10.99 4.78-22.44 6.08-34.15 5.18-7.05-.54-13.86-2.64-20.36-5.6-6.05-2.76-7.95-6.8-6.1-12.95Z" style="fill:#4a3726;stroke-width:0"/><path d="M65.12 79.06c-14.98-.47-28.66-1.27-41.73-6-3.34-1.21-6.51-3.04-9.5-5-3.84-2.52-4.1-7.27-.7-10.43 4.67-4.33 10.59-6.18 16.59-7.66 9.38-2.31 18.92-3.4 28.6-3.61 14.03-.29 27.92.39 41.53 4.08 5.42 1.47 10.73 3.3 14.92 7.26 3.54 3.35 3.18 7.44-.67 10.38-5.97 4.56-13 6.56-20.18 7.87-6.29 1.14-12.7 1.7-19.07 2.39-3.66.4-7.35.54-9.8.71Z" style="fill:#7b5b3b;stroke-width:0"/><path d="M13.44 76.62c24.18 12.32 76.67 12.4 100.73.18-3.02 11.45-20.36 27.1-41.56 30.07-29.7 4.17-53.34-14.22-59.17-30.25" style="fill:#a5805b;stroke-width:0"/><path d="M90.6 109.1v2.67c-17.78 8.29-35.42 8.3-53.2.03v-2.66c17.76 7.24 35.32 7.29 53.2-.04" style="fill:#7b5b3b;stroke-width:0"/><path d="M53.82 18.11C53.38-.56 77.14.76 77.22 20.69c7.83-2.04 15.48 6.33 10.23 12.6C77.59 46 72.73 66.65 77.63 78.2c.35.83-.16-1.16 0 0-27.83.39-22.96-21.1-27.03-43.15-.7-1.76-2.58-3.24-4.18-4.58-7.43-5.53-1.48-15.1 7.4-12.35Z" style="fill:#589058;stroke-width:0"/><path d="M77.73 81.41c-.36 0-.73-.06-1.09-.21-23.96-.12-25.66-16.68-27.31-32.69-.42-4.1-.86-8.33-1.62-12.56-.49-.91-1.82-2.02-2.91-2.93l-.25-.21c-4.92-3.71-5.3-8.96-3.48-12.54 1.57-3.1 5.18-5.82 9.95-5.66.68-4.83 3.01-8.69 6.66-10.88 4.11-2.46 9.4-2.45 13.82.03 4.7 2.65 7.7 7.51 8.51 13.61 4.21.11 8.24 2.29 10.53 5.9 2.43 3.85 2.15 8.39-.74 11.88-9.05 11.7-13.46 30.4-9.79 40.86.25.33.45.73.58 1.21.15.56.19 1.06.14 1.5l.31 2.34-2.08.08c-.08.04-.15.07-.23.09a3 3 0 0 1-1 .17ZM50.72 20.62c-2.12 0-3.63 1.06-4.29 2.38-.87 1.72-.22 3.57 1.78 5.06l.44.36c1.78 1.49 3.79 3.17 4.73 5.51l.11.28.05.29c.85 4.59 1.31 9.06 1.75 13.39 1.58 15.36 2.67 25.89 18.21 27.18-2.83-12.63 1.86-31.09 11.58-43.62l.07-.09c1.6-1.91 1.05-3.7.31-4.87-1.31-2.07-4.3-3.73-7.48-2.9l-3.74.97-.02-3.86c-.02-5.42-2.09-9.68-5.67-11.7-2.54-1.43-5.52-1.48-7.79-.12-2.65 1.59-4.05 4.84-3.95 9.16l.1 4.17-3.98-1.23c-.8-.25-1.54-.36-2.22-.36Z" style="fill:#4a3726;stroke-width:0"/><path d="M104.86 30.37c4.37-16.12-19.13-19.44-23.42-2.15-7.23-3.24-16.47 2.59-12.66 9.02 6.95 12.88-1.83 28.89-15.58 36.14-.76.43-.69.45-1.09 1.43 27.12 5.56 43.69-10.76 52.33-29.13 1.06-1.39 3.2-2.33 5.05-3.2 8.43-3.4 4.64-12.83-4.62-12.11Z" style="fill:#589058;stroke-width:0"/><path d="M62.73 78.94c-3.51 0-7.25-.37-11.23-1.19l-3.53-.72 1.46-3.61c.49-1.23.91-1.87 2.28-2.64 7.59-4 13.38-10.67 15.57-17.88 1.53-5.04 1.14-9.94-1.13-14.18-2.01-3.45-1.63-7.29 1.03-10.27 2.89-3.24 7.78-4.7 12.29-3.91 2.1-5.15 6.04-8.81 11.13-10.24 5.24-1.46 10.66-.22 14.15 3.25 2.62 2.6 3.84 6.08 3.59 10.03 4.72.85 7.8 4.04 8.59 7.38.76 3.26-.42 7.9-6.27 10.3l-.28.13c-1.18.55-2.76 1.29-3.43 1.96-6.02 12.63-19.23 31.62-44.24 31.62Zm-3.02-6.12C83.74 74.3 96.22 56.1 101.72 44.4l.14-.29.19-.25c1.44-1.89 3.77-2.98 5.82-3.94l.49-.22c.98-.39 3.2-1.51 2.75-3.4-.38-1.62-2.61-3.2-6.02-2.94l-4.24.33 1.11-4.1c.9-3.3.41-6-1.41-7.8-1.94-1.92-5.2-2.6-8.31-1.73-3.89 1.09-6.77 4.33-7.9 8.88l-.87 3.48-3.27-1.47c-3.18-1.43-6.91-.35-8.54 1.47-1.22 1.36-.76 2.52-.31 3.28l.06.1c3.07 5.69 3.63 12.2 1.61 18.82-2.12 6.96-6.94 13.46-13.32 18.18Z" style="fill:#4a3726;stroke-width:0"/><path d="M117.31 41.17c3.4-12.54-14.89-15.13-18.23-1.68-5.62-2.52-12.82 2.01-9.85 7.02C94.64 56.54 87.8 69 77.1 74.64c-.59.33-.54.35-.85 1.12 21.11 4.33 34-8.37 40.73-22.67.82-1.08 2.49-1.81 3.93-2.49 6.56-2.65 3.61-9.98-3.6-9.43" style="fill:#589058;stroke-width:0"/><path d="M84.56 79.64c-2.78 0-5.75-.3-8.91-.94l-3.54-.72 1.44-3.55c.42-1.06.84-1.69 2.07-2.39 5.77-3.04 10.15-8.08 11.81-13.53.8-2.61 1.3-6.56-.82-10.52-1.69-2.9-1.35-6.25.89-8.76 2.29-2.56 6.06-3.78 9.65-3.33 1.76-3.95 4.89-6.75 8.9-7.88 4.3-1.21 8.77-.17 11.66 2.69 2.05 2.04 3.08 4.71 3.01 7.74 3.63.86 6.01 3.44 6.64 6.13.86 3.67-1.2 7.11-5.26 8.78l-.21.1c-.74.34-1.92.89-2.4 1.31-4.78 9.98-15.23 24.88-34.95 24.88Zm-6.05-2.34-.03.02.04-.02Zm5.51-3.7h.26c16.98 0 25.95-13.2 29.99-21.79l.13-.29.19-.25c1.22-1.61 3.19-2.52 4.78-3.26l.42-.19c.47-.19 1.98-.88 1.75-1.88-.19-.79-1.44-1.97-3.99-1.78l-4.24.33 1.11-4.1c.44-1.62.64-3.88-.92-5.42-1.34-1.33-3.62-1.79-5.82-1.18-1.64.46-4.56 1.91-5.68 6.43l-.86 3.48-3.27-1.47c-2.2-.99-4.77-.26-5.88.98-.61.68-.51 1.2-.17 1.77l.06.1c2.47 4.59 2.93 9.83 1.3 15.16-1.52 5.01-4.8 9.72-9.16 13.35Z" style="fill:#4a3726;stroke-width:0"/><path d="M27.45 30.37c-4.37-16.12 19.13-19.44 23.42-2.15 7.23-3.24 16.47 2.59 12.66 9.02-6.95 12.88 1.83 28.89 15.58 36.14.76.43.69.45 1.09 1.43-27.12 5.56-43.69-10.76-52.33-29.13-1.06-1.39-3.2-2.33-5.05-3.2-8.43-3.4-4.64-12.83 4.62-12.11Z" style="fill:#589058;stroke-width:0"/><path d="M69.58 78.94c-25.01 0-38.23-18.99-44.24-31.62-.67-.67-2.25-1.41-3.42-1.95l-.28-.13c-5.85-2.4-7.04-7.04-6.27-10.3.78-3.34 3.87-6.53 8.59-7.38-.26-3.95.97-7.43 3.59-10.03 3.5-3.47 8.92-4.71 14.15-3.25 5.09 1.43 9.03 5.09 11.13 10.24 4.52-.78 9.4.67 12.3 3.91 2.66 2.99 3.05 6.82 1.03 10.27-2.27 4.24-2.66 9.14-1.13 14.18 2.2 7.21 7.99 13.88 15.49 17.83 1.45.82 1.88 1.46 2.36 2.69l1.47 3.61-3.53.72c-3.98.82-7.72 1.19-11.23 1.19ZM26.49 33.33c-2.99 0-4.94 1.47-5.29 2.97-.44 1.89 1.78 3 2.75 3.4l.5.23c2.05.96 4.38 2.04 5.82 3.93l.19.25.14.29c5.5 11.69 17.98 29.88 42 28.42-6.36-4.7-11.19-11.21-13.31-18.18-2.02-6.62-1.46-13.13 1.61-18.82l.06-.1c.45-.76.9-1.92-.31-3.28-1.62-1.82-5.35-2.9-8.54-1.47l-3.27 1.47-.86-3.48c-1.13-4.55-4.01-7.79-7.89-8.88-3.12-.87-6.38-.19-8.31 1.73-1.82 1.8-2.3 4.5-1.41 7.8l1.11 4.1-4.24-.33c-.25-.02-.5-.03-.74-.03Z" style="fill:#4a3726;stroke-width:0"/><path d="M12.56 41.17c-3.4-12.54 14.89-15.13 18.23-1.68 5.62-2.52 12.82 2.01 9.85 7.02C35.23 56.54 42.07 69 52.77 74.64c.59.33.54.35.85 1.12-21.11 4.33-34-8.37-40.73-22.67-.82-1.08-2.49-1.81-3.93-2.49-6.56-2.65-3.61-9.98 3.6-9.43" style="fill:#589058;stroke-width:0"/><path d="M45.32 79.64c-19.73 0-30.17-14.9-34.95-24.88-.48-.42-1.66-.97-2.39-1.31l-.21-.1c-4.06-1.67-6.12-5.11-5.26-8.78.63-2.69 3.01-5.27 6.64-6.13-.06-3.03.96-5.7 3.01-7.74 2.89-2.87 7.36-3.9 11.66-2.69 4.01 1.12 7.14 3.93 8.9 7.88 3.59-.44 7.37.77 9.65 3.33 2.24 2.51 2.58 5.86.89 8.76-2.12 3.96-1.62 7.91-.82 10.52 1.66 5.45 6.04 10.49 11.73 13.49 1.31.74 1.73 1.37 2.15 2.44l1.44 3.55-3.53.72c-3.16.65-6.12.94-8.91.94m-33.54-35.5c-2.18 0-3.26 1.07-3.44 1.8-.23.99 1.28 1.69 1.75 1.88l.42.19c1.58.74 3.55 1.66 4.77 3.26l.19.25.13.29C19.64 60.4 28.62 73.6 45.59 73.6h.25c-4.34-3.62-7.62-8.34-9.15-13.35-1.62-5.33-1.17-10.57 1.3-15.16l.06-.1c.34-.57.44-1.09-.17-1.77-1.11-1.24-3.67-1.97-5.88-.98l-3.27 1.47-.86-3.48c-1.12-4.53-4.04-5.97-5.68-6.43-2.2-.61-4.48-.15-5.82 1.18-1.56 1.55-1.36 3.8-.92 5.42l1.11 4.1-4.24-.33c-.19-.01-.38-.02-.55-.02Z" style="fill:#4a3726;stroke-width:0"/></svg>