<svg xmlns="http://www.w3.org/2000/svg" xmlns:xlink="http://www.w3.org/1999/xlink" data-name="fill_lettuce" viewBox="0 0 128 128"><defs><linearGradient id="b" x1="787.97" x2="865.15" y1="-368.9" y2="-260.58" gradientTransform="matrix(.5 0 0 .5 -370 222)" gradientUnits="userSpaceOnUse"><stop offset="0" stop-color="#c3d87b"/><stop offset="1" stop-color="#95b72c"/></linearGradient><linearGradient id="c" x1="935.24" x2="893.5" y1="-373.69" y2="-244.25" gradientTransform="matrix(.5 0 0 .5 -370 222)" gradientUnits="userSpaceOnUse"><stop offset="0" stop-color="#c3d87b"/><stop offset=".18" stop-color="#c3d87a"/><stop offset="1" stop-color="#92b426"/></linearGradient><linearGradient id="d" x1="826.86" x2="784.35" y1="-279.88" y2="-240.42" gradientTransform="matrix(.5 0 0 .5 -370 222)" gradientUnits="userSpaceOnUse"><stop offset="0" stop-color="#92b526"/><stop offset=".48" stop-color="#93b527"/><stop offset=".81" stop-color="#c2d879"/><stop offset="1" stop-color="#c3d87b"/></linearGradient><linearGradient id="e" x1="883.35" x2="873.22" y1="-414.98" y2="-371.14" gradientTransform="matrix(.5 0 0 .5 -370 222)" gradientUnits="userSpaceOnUse"><stop offset="0" stop-color="#92b426"/><stop offset="1" stop-color="#647e17"/></linearGradient><linearGradient id="a" x1="956.89" x2="883.89" y1="-283.54" y2="-283.14" gradientTransform="matrix(.5 0 0 .5 -370 222)" gradientUnits="userSpaceOnUse"><stop offset="0" stop-color="#c1d676"/><stop offset="1" stop-color="#9ec03d"/></linearGradient><linearGradient id="f" x1="841.68" x2="832.74" y1="-392.11" y2="-357.24" gradientTransform="matrix(.5 0 0 .5 -370 222)" gradientUnits="userSpaceOnUse"><stop offset="0" stop-color="#c3d87a"/><stop offset=".67" stop-color="#93b528"/><stop offset="1" stop-color="#92b426"/></linearGradient><linearGradient xlink:href="#a" id="g" x1="121.21" x2="72.95" y1="83.95" y2="111.81"/></defs><path d="M87.04 22.96c5.74-1.24 12.94-.3 15.56 5.69.53 1.22.81 4.6.97 4.78.1.11 2.01.51 2.79.96 3.87 2.22 4.25 7.72 4.71 8.04.39.28 2.99-.05 4.08.17 2.35.48 4.85 2.99 5.95 5.05 3.47 6.48-.42 4.49-4.44 6.24-2.17.95-7.28 5.37-6.99 7.86.03.27 2.17 3.02 2.61 4.71.39 1.48.12 5.72.3 5.96.11.16 2.87 1.18 3.6 1.65 10.41 6.69 9.74 18.61-2.59 21.99-.32 4.35-2.61 8.97-5.81 11.94-10.84 10.03-29.73 3.88-41.03-2.51-5.95 4.08-12.55 8.4-19.99 8.99-9.55.76-20.08-3.29-20.75-14-3.34.47-5.14 1.21-8.51.26C8.93 98.32 4.21 88.51 12 82.23c-6.36-4.79-4.82-12.5 1-17.01 1.89-1.46 3.47-1.67 5.38-2.62 1.4-.7.11-2.23-.47-3.27-1.59-2.84-3.93-4.39-6.91-5.59-1.46-.59-4.84-.6-4.77-2.29.23-5.14 6.54-10.35 11.78-8.97-.16-2.23.81-4.82 2.28-6.47 1.18-1.33 3.65-2.04 4-2.51 1.33-1.75-2.29-5.7-2.29-6.78-.02-2.48 9.76-6.03 12-4.24 3.01-9.82 13.65-12.01 21.21-5.52 8.44-12.06 28-7.75 31.84 5.98Z" style="fill:#0d100c"/><path d="M26.74 79.03c-3.33-6.01-3.15-11.43-4.99-17.53s-6.13-9.81-12.25-11c.39-3.03 3.37-5.34 6.32-5.47 1.35-.06 3.19.96 4.21.26.56-.38.6-4.05 1.11-5.39 1.5-3.88 7.06-5.4 10.53-3.33s3.51 7.14 3.84 7.41c1.28 1.07 3.45-2.04 4.69-2.53 5.42-2.13 12.08.77 16.3 4.28 1.88 1.57 6.39 6.4 5.92 8.88-.36 1.92-2.1 5.09-2.68 7.37-1.91 7.43-2.74 18.12-2.26 25.78.21 3.36 1.46 6.76 1.02 10.23-7.89-.97-15.98-3.01-22.46-7.79-1.55-1.15-5.34-4.59-6.41-5.98-.57-.73-2.34-4.21-2.89-5.2Z" style="fill:url(#b)"/><path d="M64.36 57.34c2.57-9.16 13.36-19.32 23.65-16.1 1.87.59 3.5 3.7 4.95 2.72.39-.26.97-6.02 4.18-7.57 3.92-1.89 9.68.02 10.64 4.58.25 1.21-.01 3.84.69 4.31 1.42.76 2.88-.27 4.24-.24 2.76.06 6.37 2.39 6.28 5.44-5.03 1.11-9.99 4.47-11.5 9.52-4.51-2.03-9.22-.89-11.99 3.25-.49.73-.93 2.62-1.04 2.71-.64.46-2.58-.43-3.58-.34-6.19.54-6.27 7.89-7.72 12.29-2.57 7.8-8.34 14.79-16.01 17.99-1.11.47-3.84 1.48-4.91 1.61-.97.11-.98-1.09-1.08-1.87-1.29-9.62-1.28-23.16 1.22-32.53.23-.88 1.09-3.84 2-5.75Z" style="fill:url(#c)"/><path d="M35.48 110.28c-5.02-1.65-7.88-8.84-7.48-13.78-2.08-.24-3.27 1.53-5.37 1.88-2.9.49-5.77-.48-8.09-2.17-3.05-2.22-3.97-4.16-3.55-7.97.54-4.89 6.01-3.65 6.04-5.99.02-1.34-3.91-2.37-5.04-3.62-4.68-5.18 2.18-13.08 8.01-13.12.78 6.71 2.99 13.36 6.79 18.96 8.13 11.97 22.01 15.61 35.83 16.55.14.04 1.8 2.13 1.86 2.26.36.86-.39.67-.62.85-6.34 4.95-15.2 9.21-23.36 7.37 0 0-3.32-.66-5.03-1.22Z" style="fill:url(#d)"/><path d="M60.35 15.49C69.71 8.5 82.98 15 85.07 25.93c6.6-.71 15.06-1.88 15.44 7.06-4.27-.15-8.35 2.69-9.01 7-5.69-3.61-11.95-1.83-17.49 1-.43-5.11-4.97-8.44-9.99-8.02-.95-9.01-10.65-12.74-18.17-8.38-1.51.87-2.55 2.11-4.03 2.87-1.79-1.31-2.91-3.7-5.32-3.97 2.35-7.71 10.12-9.85 16.47-4.72 1.66 1.34.69 2.6 3.91 2.24-1.44-2.93 3-5.18 3.46-5.52Z" style="fill:url(#e)"/><path d="M67.5 99c1.85-1.69 4.48-2.56 6.67-4.08 5.29-3.68 9.47-9.93 11.48-16.02 1.15-3.48 1.26-11.16 6.5-10.29 1.76.29 2.23 3.72 3.96.76s1.73-8.04 7.07-7.7c10.23.65 6.8 17.03 3.31 22.98-4.69 8.01-15.8 14.37-25.24 14.37H67.5Z" style="fill:url(#a)"/><path d="M46.05 27.76c1.18-1.16 2.96-2.05 4.24-2.22 7.4-.97 11.06 3.48 11.78 10.39 3.6.23 6.89-.91 8.69 3.06 1.97 4.35.05 3.7-2.09 6.17-.54.63-4.36 6.04-4.66 5.83C60.8 43.7 50.83 37.13 42.8 38.04c-1.15.13-5.32 1.74-5.76 1.41-1-3.31-3.18-5.34-6.51-6.25-.89-.24-2.65-.07-2.97-.28-.26-.17-1.97-5.67-1.84-5.95.54-1.15 3.78-1.88 5.03-1.98 2.84-.24 4.63.29 6.86 1.99 2.03 1.55 2.02 4.46 5.25 3.7.94-.91 2.01-1.78 3.18-2.93Z" style="fill:url(#f)"/><path d="M117.67 91.42c-1.24.85-5.64 2.25-5.93 2.57-.54.64-1.6 5.81-2.47 7.53-4.37 8.67-13.05 9.69-21.77 8.48-7-.98-15.24-3.73-20.5-8.5h15.75c1.08 0 5.57-1.17 6.96-1.54 12.59-3.32 20.24-11.7 22.8-24.46 2.41.8 5.78 3.26 6.99 5.5 1.97 3.65 1.75 7.95-1.83 10.42" style="fill:url(#g)"/><path d="M65.41 57.6c1.69-2.87 4.88-6.76 7.55-8.24 2.02-1.03 2.13.29.83 2.21-1.18 1.82-2.92 3.83-3.96 5.88-1.92 3.53-3.16 7.69-3.77 11.65-.28 1.91-1.44 5.09-2.2 4.44-1.28-1.22-1.03-3.58-.98-5.45.23-3.54.65-7.35 2.43-10.32l.1-.18ZM28.48 80.03c-.36-1.19-.67-2.52-1.25-3.73-.6-1.32-1.36-3.04-.64-3.91.47-.63 1.43-.75 2.04-.24.76.63.99 1.82 1.39 2.74 1.14 3.38 3.17 5.65 5.57 8.05 1.2 1.52-.37 2.58-2.17 1.54-1.79-1.15-4.2-2.23-4.89-4.28l-.06-.17Zm9.77 29.85c-1.67-.46-2.99-1.87-4.45-2.79-1.99-1.43-3.27-3.75-3.71-6.16-.24-1.27-.54-3.56 1.02-3.92 2.48.16 1.39 4.89 3.08 6.43 1.54 2.07 4.35 2.47 5.17 4.68.28.76 0 1.85-.97 1.79h-.15ZM46.88 29c.74-.34 2.08-.58 3.06-.83 1.13-.27 2.03-.49 2.56-.2.6.34.72.9.48 1.41-.34.59-1.59.8-2.34 1.11-1.65.52-2.66 1.96-3.8 3.04-1.15 1.19-3.01 0-2.64-1.56.26-1.16 1.56-2.36 2.55-2.91zM16.52 49.44c1.85-.43 3.96 1.28 5.34 2.5 2.83 2.62 4.3 5.21 5.34 9.14.48 1.92 1.03 4.18.69 6.11-.55 2.47-2.04.73-2.48-.77-1.19-4.32-1.93-9.13-5.38-12.17-.87-1.03-4.85-3.49-3.59-4.76l.08-.04Z" style="fill:#f8faf2"/><path d="M60.19 17.54c1.76-2.21 10.79-5.25 12.09-1.67-.06 1.12-1.35 1.22-2.42 1.29-1.58 0-3.45.19-5.04.96-2.17.71-3.82 3.58-5.45 4.17-.72.25-1.6-.1-1.59-.95.01-1.43 1.31-2.63 2.26-3.65l.14-.14Z" style="fill:#b6d065"/><path d="M79.63 92.03c1.21-1.81 3.4-3.14 4.45-5.17 2.08-2.99 2.87-6.41 4.51-9.57.79-1.46 2.07-1.94 2.12.17-.24 5.23-4.35 13.17-8.93 15.81-1.1.46-2.66.21-2.19-1.12l.05-.11Z" style="fill:#f8faf2"/></svg>