<svg xmlns="http://www.w3.org/2000/svg" data-name="fill_soup_parsnip" viewBox="0 0 128 128"><path d="M26.48 63.08C29.44 24.76 12.06 4.57 62.53 2.37c9.78-.33 31.85 2.15 37.43 10.82 3.97 7.31 1.16 16.43 1.64 24.37-.3 23.64.32 47.33-.07 70.97-5.14 21.99-50.18 19.15-66.27 11.54-8.13-3.26-9.1-11.02-8.73-18.83.11-12.73.07-25.48-.06-38.17Z" style="fill:#583520;stroke-width:0"/><path d="M96.93 29.5c.62 25.38.04 50.47.24 75.83 1.11 14.45-17.6 13.26-27.56 14.93-10.96-.74-36.7 1.86-38.71-12.56.49-26.05-.84-52.27.55-78.21 21.8 7.77 43.34 8.23 65.48.02Z" style="fill:#a5b95f;stroke-width:0"/><path d="M71.34 8.09c-1.12 2.24-4.62 3.2-6.17 5.27-8.56 10.27 16.49 15.67 1.54 16.15-9.44-1.19-19.22-1.42-28.34-4.2-19.75-8 1.68-16.32 11.99-17.77 2.89-.4 21.15-3.34 20.98.55m17.87 19.86c-5.41-1.6.76-7.79-.48-11.54-.48-2.35-2.62-4.44-2.79-6.83.26-5.59 12.7 4.6 12.47 7.45 1.04 4.9-4.93 10.13-9.2 10.92" style="fill:#d6d6d5;stroke-width:0"/><path d="M83.39 19.12c-2.26 3.7-16.21 3.79-13.38-2.46 2.24-2.82 14.79-3.48 13.38 2.46" style="fill:#d6d6d5;stroke-width:0"/><path d="M50.21 43.48c.11-.33.37-1.13.63-1.93 1.11-3.44 5.39-4.43 8.59-1.76.93-.16 2.04-.33 3.13-.53 3.75-.7 5.94 1.67 6.49 6.37.42 3.55.87 7.06 3.65 10 2.37 2.5 2.67 6.18 3.18 9.59.64 4.25 1.45 8.47 2.15 12.71.64 3.85 1.25 7.71 1.87 11.57.73 4.58 1.31 9.18 2.18 13.74.74 3.88 2.1 7.28 1.65 10.99-3.1 3.4-5.37 2.84-7.25-.98-2.05-4.19-4.49-8.2-6.81-12.25-2.89-5.02-6.12-9.86-8.69-15.04-3.33-6.7-10.6-20.58-10.58-20.85.49-4.87-2.26-7.95-4.29-11.59-1.74-3.12-2.12-5.95-.2-7.52 1.11-.91 2.49-1.48 4.29-2.51Z" style="fill:#4a3726;stroke-width:0"/><path d="m73.72 70.07 6.35 40.77-.3.36c-.62-.58-1.41-1.06-1.82-1.76-3.86-6.6-7.66-13.24-11.47-19.87-.13-.22-.14-.51-.3-1.1.65-.42 1.32-.93 2.06-1.29.6-.3 1.29-.38 1.92-.63 1.11-.44 2.26-1.02 1.77-2.49-.5-1.51-1.87-1.61-3.03-1.04-5.27 2.57-5.28 1.04-7.67-3.13s-4.74-8.37-6.85-12.68c-1.93-3.94-.24-9 3.52-11.5 4.83-3.21 10.73-1.56 13.21 3.75.68 1.46 1.24 3 1.59 4.57.29 1.32-.39 2.38-1.72 2.87-1.95.73-3.91 1.43-5.86 2.18-1.2.46-2.73.91-2.14 2.61s1.99 1.16 3.23.66c1.44-.58 2.86-1.2 4.33-1.68.9-.29 1.87-.36 3.16-.59Z" style="fill:#beb696;stroke-width:0"/><path d="M59.61 51.18c-.93.3-1.77.57-3 .98-1.04-3.05-2.08-5.81-2.84-8.64-.15-.54.69-1.6 1.34-2.02.37-.24 1.66.15 1.85.58 1.26 2.77 3.15 5.38 2.65 9.1M53.82 54c-.53.61-1.01 1.64-1.6 1.7-.72.08-1.8-.45-2.22-1.07-.82-1.21-1.36-2.63-1.9-4.02-.52-1.34-.35-2.6 1.13-3.23 1.53-.65 2.2.32 2.66 1.61.58 1.58 1.2 3.14 1.92 5.01Zm11.67-3.9c-1.8-.92-3.14-4.31-2.57-7.24.7.29 1.5.38 1.91.84 1.03 1.13 1.36 5.3.67 6.41Z" style="fill:#96a775;stroke-width:0"/></svg>