<svg xmlns="http://www.w3.org/2000/svg" data-name="fill_floortiles" viewBox="0 0 128 128"><path d="M36.74 91.1c-6.31 0-12.29.02-18.27 0-2.35-.01-4.87.03-6.41-2.09-.82-1.13-1.39-2.72-1.4-4.1-.08-22.78-.07-45.56-.05-68.34 0-3.59 2.36-5.9 5.99-5.91 6.21-.02 12.43 0 18.64 0 16.01 0 32.02.17 48.03-.09 5.71-.09 7.97 2.87 7.99 8 .02 5.93 0 11.85 0 18.23 1.08 0 2.07-.02 3.05 0 6.01.12 12.03.08 18.02.46 3.31.21 5.06 2.59 5.06 5.91q.015 34.17 0 68.34c0 3.61-2.35 5.98-5.97 5.92-5.23-.09-10.46-.49-15.69-.46-10.23.05-20.45.35-30.68.47-7.25.08-14.5.02-21.75.01-3.68 0-5.68-1.76-6.15-5.46-.22-1.76-.38-3.55-.4-5.32-.05-4.98-.02-9.96-.02-15.55Z" style="fill:#4a3726;stroke-width:0"/><path d="M29.51 66.64c-2.39.47-3.23 1.85-3.19 4.07.07 4.5.02 9.01.02 13.73h-9.3V17.02h18.93c.05.94.13 1.93.13 2.91 0 10.73 0 21.47.02 32.2 0 1.02-.15 2.26.35 3.01.64.98 1.91 2.23 2.83 2.18 1.1-.07 2.36-1.22 3.09-2.24.51-.72.33-1.99.33-3.01.02-11.58.01-23.15.01-34.97H84.4v67.39H65.48c-.04-.96-.13-1.95-.13-2.94 0-13.18 0-26.36-.01-39.54 0-.84.23-1.92-.2-2.48-.79-1.03-1.95-2.4-3.01-2.44-1.01-.04-2.31 1.26-3.03 2.29-.51.73-.37 1.99-.37 3.01-.02 12.9-.01 25.8-.01 38.7v3.33h-26.1c0-4.39-.05-8.87.02-13.35.03-2.25-.65-3.86-3.15-4.42Z" style="fill:#a5805b;stroke-width:0"/><path d="M95.67 74c-2.63.53-3.18 2.31-3.16 4.63.05 9.69.02 19.39.02 29.08v3.28H43.64V90.85h26.31c0 1.93.02 3.67 0 5.4-.04 2.28.82 4.06 3.23 4.12 2.61.07 3.11-1.91 3.05-4.12-.05-1.65 0-3.31 0-5.35 2.88 0 5.3.02 7.71 0 4.76-.04 6.92-2.14 6.93-6.86.02-12.42 0-24.84 0-37.27v-3.19h20.12v67.39H98.93c-.05-.9-.14-1.89-.14-2.88-.01-9.98-.05-19.95.02-29.92.02-2.22-.73-3.61-3.14-4.16Z" style="fill:#7b5b3b;stroke-width:0"/></svg>