<svg xmlns="http://www.w3.org/2000/svg" data-name="fill_cartonroll" viewBox="0 0 128 128"><defs><linearGradient id="a" x1="-1079.36" x2="-1079.75" y1="-677.72" y2="-533.72" gradientTransform="matrix(.5 0 0 .5 592 370)" gradientUnits="userSpaceOnUse"><stop offset="0" stop-color="#d3a978"/><stop offset=".28" stop-color="#d3a977"/><stop offset=".8" stop-color="#a97635"/><stop offset="1" stop-color="#a77533"/></linearGradient><linearGradient id="b" x1="-1044.23" x2="-971.56" y1="-696.74" y2="-588.95" gradientTransform="matrix(.5 0 0 .5 592 370)" gradientUnits="userSpaceOnUse"><stop offset="0" stop-color="#b58346"/><stop offset="1" stop-color="#6e512d"/></linearGradient></defs><path d="M81.39 18.15c35.73-2.16 51.89 44.42 20.87 65.87-8.5 5.88-20.36 13.05-29.43 18.07-50.39 27.9-87.07-48.99-35.68-71.69 13.75-2.65 30.56-11.43 44.24-12.25" style="fill:#0c0d0c"/><path d="M46.89 30.64c42.07-4.79 58.76 50.07 23.62 69.62-29.3 16.3-63.19-11.03-54.15-43.15 3.74-13.29 16.66-24.89 30.53-26.47" style="fill:url(#a)"/><path d="M85 91c1.98-3.49 4.09-7.05 5.36-10.89C98.34 55.98 81.44 29.78 56 28l8-2.75c20.09-9.18 45.51-2.86 51.17 20.33 5.67 23.24-10.34 35.27-28.52 44.81-.56.29-.87.79-1.65.6Z" style="fill:url(#b)"/><path d="M85 91c.24.24-.46.8-.5.25-.01-.17.39-.36.5-.25" style="fill:#76572f"/><path d="M49.39 48.64c16.84-1.91 28.27 18.1 17.6 31.6-10.35 13.1-30.27 8.61-34.63-7.35-3.09-11.31 5.49-22.94 17.03-24.25" style="fill:#0c0d0c"/><path d="M34.36 36.09c1.45-.39 2.79.48 1.9 1.92-.3.48-3.83 2.43-4.77 3.23-1.6 1.35-3.84 3.66-5.25 5.25-1 1.13-2.29 4.44-3.99 4.01-2.36-.61 2.04-5.9 2.76-6.74 1.41-1.64 7.56-7.19 9.35-7.67M46 32.5l-.02 2.48c-1.59-.45-7.42 2.79-7.98.76-.67-2.45 6.42-3.41 8-3.25Z" style="fill:#f2d7ac"/><path d="M47.87 51.62c13.67-2.18 24.39 10.29 19.15 23.15-6.62 16.24-31.29 12.31-32.51-5.52-.53-7.72 5.56-16.38 13.36-17.63" style="fill:#76572f"/></svg>