<svg xmlns="http://www.w3.org/2000/svg" data-name="fill_cattree" viewBox="0 0 128 128"><defs><linearGradient id="a" x1="867.94" x2="869.24" y1="-1147.35" y2="-1076.36" gradientTransform="matrix(.5 0 0 .5 -370 592)" gradientUnits="userSpaceOnUse"><stop offset="0" stop-color="#a77533"/><stop offset=".28" stop-color="#a87534"/><stop offset=".8" stop-color="#d0a572"/><stop offset="1" stop-color="#d3a978"/></linearGradient><linearGradient id="b" x1="887.99" x2="888.01" y1="-1065.03" y2="-965.03" gradientTransform="matrix(.5 0 0 .5 -370 592)" gradientUnits="userSpaceOnUse"><stop offset="0" stop-color="#af7e3f"/><stop offset=".68" stop-color="#d2a876"/><stop offset="1" stop-color="#d3a977"/></linearGradient><linearGradient id="c" x1="869.02" x2="869" y1="-1173.89" y2="-1157.89" gradientTransform="matrix(.5 0 0 .5 -370 592)" gradientUnits="userSpaceOnUse"><stop offset="0" stop-color="#d1a774"/><stop offset="1" stop-color="#b07f40"/></linearGradient><linearGradient id="d" x1="868.93" x2="868.93" y1="-969.95" y2="-953.95" gradientTransform="matrix(.5 0 0 .5 -370 592)" gradientUnits="userSpaceOnUse"><stop offset="0" stop-color="#a97736"/><stop offset="1" stop-color="#cca06c"/></linearGradient></defs><path d="M70.5 58.5v12h16.75c.2 0 1.76.77 1.99 1.01 1.34 1.37 1.57 11.99-1.49 11.99H70.5v20h13.75c.47 0 1.22 1.55 1.41 2.09.98 2.71 2.51 9.82 2.78 12.72.11 1.16.45 7.69-.69 7.69h-47c-.35 0-.68-.83-.75-1.25-.74-4.07 1.65-15.25 3.13-19.37.17-.47.72-1.88 1.12-1.88H58v-45H44c-.23-.92-.45-1.75-.53-2.73-.77-9.87-.91-28.78.03-38.52.46-4.76 3.01-10.26 3.61-15.13.78-.55 1.7-.57 2.61-.64 9.96-.72 20.87.5 30.93.12.69.21.95.67 1.22 1.28 1.48 3.29 1.31 8.48 3.12 11.88v43c0 .05-.7.75-.75.75H70.49Z" style="fill:#0d0e0d"/><path d="M82 18c.57 5.34.01 36.51 0 37.5-1 0-2-.01-3 0H46.5V18z" style="fill:url(#a)"/><path d="M67.5 110c-1.58 2.04-6.5 1.18-6.5-.25V58.5h7v15h19v7H68c.09 9.84-.07 19.68-.5 29.5" style="fill:url(#b)"/><path d="M52 4.5c8.84-.26 17.67-.26 26.5 0 .31.02.64-.12.94.05L82 15H47l2-10.5c1-.02 2 0 3 0" style="fill:url(#c)"/><path d="m45.52 106.53 12.98-.03c-.92 5.1 1.53 7.99 6.75 7.51 4.47-.41 5.7-3.32 5.25-7.51l12.2-.03L85.5 117h-42c-.55-1.8 2.1-9.53 2.02-10.47" style="fill:url(#d)"/><path d="M43 120h43v3.5H43z" style="fill:#c3955e"/><path d="M46.19 109.77c.53-1.15 1.5-2.61 2.69-2.15 1.41.65.45 8.22-1.15 8.45-.76 0-1.18-.65-1.55-1.38-.6-1.45-.7-3.17-.07-4.73l.08-.2Z" style="fill:#fad6a7"/><path d="M79 55.5H46.5c10.82-.08 21.68.11 32.5 0m-.5-51c-8.51-.43-17.92-.09-26.5 0z" style="fill:#c3955e"/><path d="M52.85 21.6c4.14-1.25 4.82 4.78 6.89 6.91 1.25 1.28 3.13-.01 4.51-.01 1.89 0 3.27 1.57 4.98-.51.98-1.19 2.81-5.66 3.77-6.23 2.38-1.44 4.25.7 4.51 2.99.41 3.6.49 15.03-.04 18.49-.15.99-1.02 2.55-1.56 3.44-5.85 9.63-23.4 7.21-24.87-4.45-.55-4.36.13-9.63.46-13.96.14-1.84-.78-6.01 1.35-6.65Z" style="fill:#0d0e0d"/><path d="M50 46v6c1.19.15 5.13-.54 5.5.75.8 2.8-5.77 1.53-7.43 1.68-.64-.44-1.9-10.21 1.93-8.44Z" style="fill:#fad6a7"/><path d="M69.91 31.91c.87-.52 2.97-6.23 4.58-6.91.37 5.1 1.1 11.71.52 16.76-1.08 9.41-16.42 11.2-20.38 2.85-2.75-5.78.27-13.81-.63-20.12 1.64.86 4.08 7.66 5.3 7.94.42.1 2.4-.83 3.44-.95 1.61-.18 6.69.69 7.17.41Z" style="fill:#6a4c25"/></svg>