<svg xmlns="http://www.w3.org/2000/svg" data-name="fill_grass_windrow" viewBox="0 0 128 128"><defs><linearGradient id="a" x1="-3720.08" x2="-3720.05" y1="932.98" y2="1085.98" gradientTransform="matrix(.5 0 0 .5 1924 -444)" gradientUnits="userSpaceOnUse"><stop offset="0" stop-color="#4e985d"/><stop offset="1" stop-color="#33633d"/></linearGradient><linearGradient id="b" x1="-3718.89" x2="-3719.12" y1="986.27" y2="1096.27" gradientTransform="matrix(.5 0 0 .5 1924 -444)" gradientUnits="userSpaceOnUse"><stop offset="0" stop-color="#a6d1a2"/><stop offset="1" stop-color="#5bb46f"/></linearGradient></defs><path d="M92.17 37.83c.85.92 2.49 1.57 3.55 2.7 2.31 2.47 2.31 4.98 3.78 7.22 1.02 1.55 3.35 2.61 4.71 4.29 1.82 2.24 2.12 4.98 3.57 6.93 1.28 1.73 3.78 2.72 5.14 4.86 1.13 1.77 1.27 4 2.35 5.65s3.34 2.62 4.72 4.28c1.75 2.12 1.84 4.4 3 6s3.55 1.63 3.54 4.47c0 2.64 0 1.73.46 4.03.27 1.36-1.86 8.43-2.71 9.26-.64.63-1.8.81-2.54 1.46s-1.31 2.35-2.24 2.76c-1.15.51-2.44.1-3.64.36s-1.95 1.23-3.59 1.41c-2.89.31-5.63-.85-8.49-1.03-4.36-.28-8.03.67-12.27 1.02-.45.4 1.49 4.81-2.77 5.48l-48.48.04c-5.26-.54-1.83-6.12-2.24-6.51-4.89-.4-9.32 1.42-14.24.99-1.81-.16-3.61-.92-5.48-1.01-2.2-.12-4.81.82-6.5.52-1.25-.22-1.76-1.57-2.9-2.11-1.03-.49-2.45-.38-3.35-1.15-.98-.84-.91-2.48-1.56-3.44-.79-1.16-2.15-.99-2.43-3.09-.15-1.18.32-2.15.26-2.98-.09-1.31-1.17-2.25-.77-4.47.24-1.33 1.4-1.51 1.74-2.26.5-1.1.08-2.32.82-3.68.96-1.8 3.4-2.88 4.66-4.34 1.61-1.86 1.81-4.67 3.57-6.93 1.38-1.78 4.02-3.04 4.92-4.58.99-1.7 1.22-4.03 2.57-5.93s3.5-2.79 4.73-4.27c1.57-1.88 1.93-4.94 3.79-7.21 1.36-1.67 3.7-2.73 4.71-4.29 1.57-2.39 1.45-4.91 4.04-7.46 3.19-3.13 2.74-2.19 5.23-6.27s4.09-3.08 7.57-4.93c2.19-1.16 2.92-3.21 6.12-3.88 2.38-.5 3.45.4 5.22.27 1.46-.11 3.45-1.32 5.12-1.46 3.23-.26 5.3 2.01 8.15 2.75 7.65 1.99 4.68 1.27 10.02 5.98 1.61 1.41 3.62 2.15 5 4 1.52 2.02 1.67 4.96 3.17 6.58Z" style="fill:#0a0f0e"/><path d="M97.67 50.33c.79.84 2.42 1.49 3.33 2.42 2.37 2.42 2.83 5.67 4.79 8.21 1.34 1.73 3.32 2.58 4.43 4.07s1.23 3.45 2.06 4.94c1.39 2.48 4.67 4.08 6.22 6.28 1.22 1.73 1.25 3.73 2.57 5.43.78 1 2.42 1.76 2.71 2.33.33.64-.42 2.09-.28 3.21.13 1.02 1.21 1.93.94 2.94-.18.68-1.41 1.33-1.72 2.32s-.02 2.3-.46 3.04c-.34.58-2.03.89-2.78 1.72-.58.64-.88 2.07-1.05 2.2-.47.34-2.69-.08-3.66.09-1.14.2-1.81 1.4-3.04 1.47-2.73.16-6.81-1.52-9.98-1.52-3.55 0-7.2 1.34-10.75 1.53-.46-7.48 3.28-14.29 8-19.75 1.02-1.18 2.57-1.09 2.48-3.46-.15-4.39-6.5-1.13-8.59-.14-1.51.71-3.29 2.62-4.89 2.11 2.52-6.32 5.91-12.15 9.79-17.72 1.8-2.58 5.64-5.56-.31-6.84L88 60.51c-.55-4.13 6.95-8.21 5.24-11.99-1.28-2.84-4.5-.47-6.39.59-4.73 2.65-8.8 6.35-12.84 9.9l2.01-14.73c-3.07-6.05-7.32 1.42-9.1 4.39-.58.98-2.2 5.15-2.42 5.33-.95.79-1.53-2.19-1.9-2.84-1.16-2.02-5.78-8.87-7.87-9.18-1.41-.21-2.99.83-3.23 2.29-.37 2.22 2.46 7.92 2 10.73-3.26-1.78-4.89-8.03-9.38-6.16-2.85 1.19 1.25 5.94-.92 6.63-1.74.55-2.55-1.32-3.74-2.17-2.89-2.06-8.04-6.13-8.88-.16 3.18 5.82 7.22 12.17 8.91 18.63.09.34.11.85-.24.74-2.36-.75-7.46-5.99-9.79-2.78-.38.52-.5.88-.5 1.53 0 1.65 3.99 7 4.98 9.07 2.76 5.75 4.53 12.81 4.56 19.19-3.84-.47-8.06 1.48-11.75 1.54-3.16.05-7.11-1.61-10-1.59-1.65.01-3.25 1.39-4.42 1-.72-.24-.93-1.62-1.94-2.09-.92-.43-2.32-.19-2.91-.59s-.49-2.13-1.02-2.98-2.15-1.19-2.39-2.14c-.19-.76.53-1.92.49-2.92-.05-1.21-1.17-1.89-1.08-2.97.1-1.19 1.44-1.54 1.78-2.28.4-.87.14-1.8.37-2.63.59-2.17 4.22-3.76 5.61-5.89 1-1.52 1.05-3.43 2.04-4.96 1.16-1.77 3.4-2.8 4.73-4.27 1.89-2.09 2.04-4.68 3.58-6.92 1.46-2.12 3.8-3 5.13-4.87s1.46-4.14 2.87-6.13 3.77-2.9 5.13-4.87c1.26-1.82 1.42-3.96 2.66-5.84 1.34-2.03 3.68-2.96 5.12-4.88 1.03-1.38 1.45-3.29 2.49-4.51 1.43-1.68 4.63-1.96 6.68-3.32 1.13-.75 2.07-2.31 3.3-2.7 2.1-.66 4.98.04 7.24-.26 1.57-.21 2.62-1.13 4.53-.99 2.03.14 3.55 1.83 5.24 2.3 1.93.53 4.33.18 6.21 1.29 1.05.62 3.39 3.97 4.79 5.21 1.05.93 2.35 1.14 3.25 2.25 1.19 1.48 1.86 4.27 3.05 5.95 1.67 2.35 4.12 3.11 5.62 5.88 1.06 1.96 1.29 4.42 2.77 5.98Z" style="fill:url(#a)"/><path d="m96.5 59-5.4 8.35c-1.44 2.78-2.81 5.3-3.99 8-1.85 4.23-3.51 9.32-4.07 13.95-.11.91.49 1.07.96.71.15-.12 1.4-2.54 2.02-3.23 2.95-3.34 6.67-6.42 10.98-7.76l-5.69 8.55c-3 5.97-3.35 11.91-2.8 18.45h-48.5c3.33-11.89-1.27-24.24-8-34 1.43-1.2 10.71 6.61 11.75 8.49.22-4.7-2.04-9.61-3.38-14.12l-6.37-13.37c8.4 4.37 13.89 13.5 17.5 22 .85.13.55-1.21.49-1.74-.71-6.91-3.63-14.73-6-21.25.56-.54 3.27 2.46 3.76 2.99 2.31 2.47 3.78 5.15 5.63 7.86.3.44-.09.93 1.11.65.46-6.28-.93-12.37-1.99-18.5 5.03 4.57 8.45 11.73 9 18.5.68.15.54-.52.74-1 2.25-5.51 2.88-9.76 6.56-14.95.54-.76 1.12-2.28 2.19-2.05l-3 22.5c.93.22.97-.31 1.42-.83 1.14-1.33 2.1-3.26 3.32-4.68 4.2-4.84 9.55-9.04 15.25-11.99l-6.58 11.16L78 75.53c1.06.25 1.12-.58 1.6-1.14 3.02-3.52 5.24-6.95 8.89-10.11.91-.79 7.36-5.85 8.01-5.24Z" style="fill:url(#b)"/></svg>