<svg xmlns="http://www.w3.org/2000/svg" viewBox="0 0 128 128"><path d="M15.38 37.71c-1.46-10.7-6.31-31.6 9.5-32.68 25.39-.13 50.78-.23 76.17-.37 6.7-.11 11.65 5.76 11.16 12.28.95 26.3 1.89 52.59 2.86 78.89.07 9.54 4.33 24.7-9.12 26.48-111.91-4.32-94.56 27.45-89.94-84.71-.21.04-.42.07-.63.11" style="fill:#4a3726;stroke-width:0"/><path d="M21.93 31.22c.48-5.72-.94-11.68.98-17.7 25.49-.39 50.88-.05 76.36-.74 4.13-.05 4.52.44 4.59 4.52.26 30.79 1.67 61.56 3.71 92.28.18 3.79-.8 4.72-4.55 4.72-26.13 0-52.25.01-78.38 0-8.01 1.82-2.37-16-3.39-21.08 1.03-17.66 1.04-35.2 2.93-52.83 23.72-1.8 47.53.98 71.17-2.34.51-2.85.96-5.38 1.55-8.7-1.26-1.09-2.8-2.42-4.76-4.13-1.76 2.12-3.05 3.68-4.98 6z" style="fill:#876f47;stroke-width:0"/><path d="M97.26 53.75c.12-2.38-1.22-4.62-3.68-6.13-.08-.04-.15-.09-.23-.13-2.73-1.44-5.54-2.23-8.24-3-.93-.26-1.81-.51-2.68-.79-1.99-.68-3.87-1.03-5.74-1.04h-.86c-.93 0-1.86 0-2.8-.02-.96-.01-1.93-.02-2.89-.02-4.14 0-8.59.15-13.01 1.26-.02 0-.04.02-.07.02-.94.25-1.97.37-3.26.37-1.13 0-2.3-.09-3.55-.18-1.34-.1-2.72-.2-4.16-.2h-.25c-.23 0-.48-.01-.73-.02-.35-.01-.71-.02-1.07-.02-4.91 0-6.6 2.71-7.18 4.53a55.6 55.6 0 0 0-3.97 16.01c-.13.63-.36 1.34-.6 2.08-.24.73-.49 1.48-.69 2.3-.83 3.12-1.08 6.6-.73 10.36.32 5.07 2.67 9.36 4.71 12.56 1.94 3.4 4.71 7.63 9.11 10.46 1.4.98 3.01 1.5 4.67 1.5 1.14 0 2.27-.24 3.36-.71 1.46-.58 3.14-1.29 4.73-2.37.43-.27.8-.56 1.14-.81.12-.09.26-.2.4-.3.08.09.16.2.21.31.04.1.09.2.15.29 2.18 3.93 5.38 6.78 7.93 8.82.08.07.16.13.25.18.15.11.4.29.66.49 1.68 1.26 3.98 2.97 6.55 2.97s4.78-1.84 5.37-4.69l.06-.3c.31-2.38 0-4.65-.27-6.66-.13-.94-.25-1.82-.3-2.66 0-.09-.02-.18-.03-.27-.55-4.1.39-7.97 2.62-10.9q.165-.21.3-.45c.06-.11.18-.29.3-.47.44-.69 1.03-1.62 1.41-2.69 1.07-3.07-.41-5.03-1.09-5.74-.1-.1-.21-.2-.32-.29-1.04-.86-2.39-1.29-3.99-1.29-.45 0-.85.03-1.19.07-.09 0-.18.02-.28.02.2-.85.18-1.77-.06-2.7-.07-.32-.17-.62-.27-.92.22-.05.44-.11.65-.18.92-.28 1.69-.7 2.32-1.03.12-.06.23-.12.35-.18l.06-.03c1.9-1.02 4.18-1.55 6.6-2.1.61-.15 1.21-.28 1.81-.43.06-.02.12-.03.17-.05l.09-.03c1.96-.57 7.18-2.11 7.03-6.84-.01-.34-.07-.68-.16-1-.28-.93-.76-1.63-1.35-2.18 1.64-1.26 2.6-2.94 2.7-4.78ZM64.03 82.6c-.17.11-.41.17-.72.17-.08 0-.17 0-.26-.01h-.06l-.37-.04c-1.56-.14-3.04-.28-4-.82-.07-.04-.13-.07-.2-.11a.68.68 0 0 1-.38-.49.92.92 0 0 1 .18-.77c1.03-1.32 2.41-2.39 4.14-3.2.12.13.25.26.38.39.04.03.08.07.12.09 1.52 1.29 3.3 1.9 4.93 2.2-.81.53-1.59 1.08-2.34 1.6-.47.33-.94.66-1.41.98Z" style="fill:#4a3726;stroke-width:0"/><path d="m86.61 59.57.02.05c.11.39 1 .56 1.89.73 1.12.27 3.33.4 3.65 1.48.06 1.75-2.93 2.59-4.32 3-3.14.77-6.43 1.33-9.32 2.89-.68.35-1.38.76-2.1.98-1.5.55-4.22-.27-5.06 1.38-.11.48.41 1.13.89 1.82.52.77 1.01 1.64 1.22 2.54.4 1.5-.81 2.01-2 2.01-.1 0-.2 0-.3-.01-1.98-.09-4.21-.27-5.8-1.6-.56-.52-.6-1.28-.94-1.85-.15-.22-.37-.29-.61-.29-.36 0-.76.16-1.08.27-2.97 1.01-5.66 2.66-7.6 5.14-1.85 2.35-1.16 5.84 1.55 7.17 1.8 1.02 3.88 1.16 5.94 1.35.22.02.45.03.68.03 1.03 0 2.04-.26 2.91-.85 3.63-2.46 7.18-5.37 11.72-5.75.26-.02.56-.05.85-.05.56 0 1.12.08 1.51.41 1.08 1.11-.58 3.14-1.21 4.25-3 3.93-4.04 8.92-3.39 13.79.18 2.85.97 5.72.6 8.57-.25 1.17-.82 1.59-1.55 1.59-1.59 0-3.91-2.03-5.02-2.78-2.7-2.17-5.27-4.62-6.96-7.67-.66-1.46-2.17-2.77-3.78-2.77-.31 0-.63.05-.94.16-1.02.36-1.81 1.18-2.72 1.75-1.25.85-2.64 1.45-4.1 2.03-.6.27-1.23.41-1.85.41-.86 0-1.71-.27-2.48-.83-3.52-2.24-5.93-5.67-7.95-9.25-2.11-3.3-3.93-6.86-4.16-10.84-.28-3-.17-6.14.62-9.08.4-1.61 1.08-3.17 1.38-4.8.47-5.25 1.76-10.4 3.78-15.25.46-1.7 1.95-1.94 3.49-1.94.61 0 1.23.04 1.8.04h.25c2.57 0 5.15.39 7.71.39 1.44 0 2.87-.12 4.29-.51 3.93-.99 7.99-1.14 12.05-1.14 1.9 0 3.8.03 5.69.03h.82c1.56.02 3.09.34 4.55.85 3.48 1.09 7.07 1.82 10.33 3.53 2.57 1.58 2.42 3.77-.38 5.12-1.41.88-2.87 1.65-4.08 2.7-.22.2-.52.54-.46.81Z" style="fill:#d2938b;stroke-width:0"/><circle cx="76.68" cy="49.58" r="1.21" style="fill:#4a3726;stroke-width:0"/></svg>