<svg xmlns="http://www.w3.org/2000/svg" xmlns:xlink="http://www.w3.org/1999/xlink" data-name="fill_barleycut" viewBox="0 0 128 128"><defs><linearGradient id="c" x1="-764.39" x2="-764.53" y1="-400.88" y2="-247.88" gradientTransform="matrix(.5 0 0 .5 444 222)" gradientUnits="userSpaceOnUse"><stop offset="0" stop-color="#fdf1a0"/><stop offset="1" stop-color="#c4a12e"/></linearGradient><linearGradient id="d" x1="-697.72" x2="-697.44" y1="-304.84" y2="-241.84" gradientTransform="matrix(.5 0 0 .5 444 222)" gradientUnits="userSpaceOnUse"><stop offset="0" stop-color="#fef3a2"/><stop offset="1" stop-color="#c7a434"/></linearGradient><linearGradient id="e" x1="-669.81" x2="-670.14" y1="-253.52" y2="-204.52" gradientTransform="matrix(.5 0 0 .5 444 222)" gradientUnits="userSpaceOnUse"><stop offset="0" stop-color="#fef3a2"/><stop offset=".24" stop-color="#fcf19f"/><stop offset="1" stop-color="#c4a12e"/></linearGradient><linearGradient id="f" x1="-725.64" x2="-725.57" y1="-252.25" y2="-204.25" gradientTransform="matrix(.5 0 0 .5 444 222)" gradientUnits="userSpaceOnUse"><stop offset="0" stop-color="#fef2a2"/><stop offset=".23" stop-color="#fcf19f"/><stop offset="1" stop-color="#c4a12e"/></linearGradient><linearGradient id="a" x1="-422.11" x2="-441.08" y1="-345.35" y2="-292.82" gradientTransform="matrix(.5 0 0 .5 296 222)" gradientUnits="userSpaceOnUse"><stop offset="0" stop-color="#c1aa79"/><stop offset="1" stop-color="#a38752"/></linearGradient><linearGradient xlink:href="#a" id="g" x1="-466.48" x2="-459.32" y1="-355.88" y2="-308.81"/><linearGradient id="b" x1="26.4" x2="37.28" y1="69.85" y2="90.32" gradientUnits="userSpaceOnUse"><stop offset="0" stop-color="#b9a172"/><stop offset="1" stop-color="#a68c59"/></linearGradient><linearGradient xlink:href="#b" id="h" x1="51.31" x2="51.31" y1="59.25" y2="88.25"/><linearGradient xlink:href="#b" id="i" x1="39.54" x2="44.84" y1="54.88" y2="84.92"/></defs><path d="M.27 85.19c.33-.7 1.04-1.41 1.46-2.21.61-1.12.61-2.46 1.23-3.57.85-1.74 3.58-3.11 5.01-4.82 1.23-1.38 1.68-3.25 2.34-4.93.91-2.89 4.01-3.84 5.87-5.96 1.57-1.85 1.71-4.86 3.37-6.76 1.31-1.61 3.43-2.57 4.64-4.2 1.46-1.85 1.75-4.97 3.35-6.77 1.03-1.25 2.52-2.05 3.7-3.16 2.52-2.1 2.42-5.98 4.63-8.15 1.38-1.36 3.18-2.33 4.35-3.91 1.51-1.85 1.96-4.39 3.47-5.63 1.7-1.28 5.47-1.59 7.38-3.47 3.94-4.2 5.62-2.27 10.45-2.71 4.95-1.24 5.54-2.4 10.02.65 2.28 1.51 5.11.79 7.54 1.76 1.87.74 2.9 3.09 4.34 4.58.91.96 2.1 1.62 3.27 2.26 3.77 1.43 3.54 5.31 5.72 8.29 1.28 1.7 3.4 2.65 4.59 4.12 1.52 1.81 1.75 4.36 3.03 6.3 1.29 2.13 4.14 3.21 5.48 5.38 1.13 1.68 1.37 3.84 2.47 5.52 1.25 2.02 4.22 3.23 5.55 5.49 1.17 1.79 1.37 4.12 2.68 5.81 1.14 1.55 3.58 2.52 4.8 4.21.7.88 1.07 2.15 2.12 2.65.54.28 1.18.34 1.74.6 1.38.52 2.17 3.08 2.46 4.85.25 1.45-.29 2.88-.14 4.31.2 1.52.9 3.12.18 4.65-.36 1.08-.44 1.7-.71 2.78-.3.9-.17 1.88-.4 2.78-.35 1.4-1.89 1.5-2.31 3.22-.14.51-.19 1.14-.24 1.81-.29 7.92-3.34 15.55-10.22 19.95-4.31 2.78-10.82 5.63-15.33 1.88-1.64-1.35-2.25-4.16-3.78-2.03-3.27 5.77-10.25 4.13-15.94.77-5.95-3.44-9.57-8.9-10.64-15.48-.31-3.63-4.4-3.68-7.21-4.24-4.1-.71-8.52 1.46-12.54 1.51-3.2.03-6.36-1.23-9.51-1.56-4.32-.57-8.44 1.71-12.74 1.54-2.77-.08-5.88-1.37-8.56-1.42-2.19-.26-4.41 2.2-6.39.72-.7-.56-1.3-1.32-2.11-1.77-2.95-1.41-3.96.02-4.82-3.69-.37-1.83-2.94-2.86-3.36-4.03-.35-.89.51-2.17.39-3.6-.02-1.42-1.24-2.78-.74-4.2l.06-.13Z" style="fill:#060603"/><path d="M79.18 25.82c1.13 1.11 1.86 2.43 2.7 3.19.95.86 4.89 2.42 5.16 2.82.93 1.34.89 4.17 2.24 6.14 1.46 2.12 4.12 2.99 5.15 4.35 1.52 1.99 1.94 5.91 2.69 7.06.62.95 4.65 2.99 5.6 4.15 1.22 1.51 1.56 5.06 2.55 6.45.75 1.04 4.2 2.93 5.23 4.25 1.15 1.47 1.55 4.53 2.47 6.05 1.07 1.76 4.69 3.31 5.74 4.76.31.42 1.24 3.21 1.16 3.64-.15.82-1.98 2.78-2.27 4.19-.66 3.13.33 5.98 1.89 8.64-1.96.32-3.98.78-5.88 1.37-2.8.88-5.4 2.07-8.11 3.13 3.83-9.14 1.35-18.16-4.51-25.74-2.62-3.39-5.33-6.83-9.25-2.77s-8.07 11.49-8.68 17.32c-.17 1.67.48 8.36.23 8.72-.98 1.42-3.14-.19-4.16-.4-2.61-.54-8.62-2.08-10.61-.36-1.52 1.31-.95 5.23-1.52 7.24-.24.34-6.97-1.4-8.25-1.4-3.26 0-7.69 1.99-10.98 1.92-2.9-.06-7.21-1.9-10.07-1.97-3.19-.08-7.71 1.91-10.97 1.97-3 .06-7.71-2.02-10.5-1.96-1.19.03-2.68 1.58-3.43 1.4-.69-.16-1.01-1.82-1.79-2.22-1-.51-3.33-.06-3.49-.26-.21-.26-.2-3.3-.62-3.88-.32-.44-2.01-.36-2.35-1.44-.31-.98.61-2.22.46-3.38-.12-.97-1.44-2-1.4-2.54.04-.59 2.02-1.63 2.3-2.59.33-1.15-.24-2.69.34-3.66.55-.9 4.01-2.61 4.98-4.02 1.22-1.76 1.48-5.16 2.75-6.75 1.13-1.41 4-2.37 5.24-4.26 1.17-1.76 1.43-4.92 2.56-6.44.94-1.28 4.32-2.66 5.23-3.9 1.19-1.62 1.36-4.64 2.77-6.6s4.12-2.86 5.24-4.26 1.27-4.61 2.26-6.24c1.11-1.82 4.59-3.02 5.95-5.05.78-1.17 1.61-4.75 2.27-5.23.84-.6 4.15-.91 5.68-1.82 1.4-.83 3.1-3.46 4.7-3.84 1.16-.28 4.24.65 6.33.37 1.5-.2 3.32-1.41 4.59-1.46 1.72-.06 3.65 2.31 5.07 2.87 1.78.7 4.27.27 5.79.71.9.26.99 1.22 1.52 1.74Z" style="fill:url(#c)"/><path d="M99.18 72.83c6.32 8.58 7.78 19.24.55 28.15-2.16 2.67-6.35 2.67-8.74.27-4.14-4.17-5.69-12.84-4.96-18.46.42-3.22 5.63-12.58 8.47-14.06 2.03-1.05 3.74 2.82 4.68 4.09Z" style="fill:url(#d)"/><path d="M105.05 99.59c1.47-1.24 5.73-3.06 6.82-3.48 1.15-.45 8.64-2.7 8.64-.86v8c0 3.22-3.4 10.4-5.73 12.77-3.83 3.9-15.78 10.23-17.16 1.1-.81-5.36 3.22-13.97 7.44-17.53Z" style="fill:url(#e)"/><path d="M71 106c-1.02-3.2-1.45-6.29-1.02-9.77.38-3.05 3.68-1.45 5.91-.86 5.28 1.4 11.21 4.69 13.89 9.62 4.18 7.72 5.14 21.13-7.45 15.44-2.36-1.07-6.38-4.16-8.05-6.22-1.16-1.25-3.27-8.2-3.27-8.2Z" style="fill:url(#f)"/><path d="M75.87 114.35c-3.25-2.68-3.97-7.32-4.26-11.69-.08-1.45-.32-3.23.16-4.56.72-1.4 1.62.02 2 1.23.61 2.02.84 4.47 1.49 6.54.58 2.88 2.94 5.2 3.46 7.92.01 1.65-1.82 1.31-2.72.66l-.15-.1Z" style="fill:#fcfaf0"/><path d="M120.51 87.5c-1.64-1.68.88-8.39 2.74-8s.46 8.74-2.74 8m-11.01 10c.6 1.49-2.91 3.76-4 2.5 1-1.14 2.41-2.29 4-2.5" style="fill:#f3e38d"/><path d="M45.5 61c.86-.23.45-1.84.87-2.87.95-2.28 5.15-1.86 7.34-1.59 3.3.41 2.39 5.91 2.3 8.73-.13 3.96-.78 7.83-.54 12 .17 3.02 1.77 9.33.94 11.9-.49 1.54-7.73 2.33-8.81 1.22-.69-.71-.35-3.12-1.4-3.34l-5.21.45c.53 1.1.98 2.79 0 3.75-1.23 1.22-6.11 3.17-7.89 2.41-1.37-.59-4.76-9.39-5.68-11.34-1.4-2.96-4.3-7.49-5.2-10.3-.23-.73-.42-2-.25-2.7.09-.35 5.86-3.14 6.4-3.25.88-.17 1.17-.1 1.91.39 3.03 2.02 5.79 14.15 9.21 17.03l-4.9-29.16c.54-1.75 6.92-2.86 8.41-2.1 1.63.83 1.95 6.91 2.5 8.75Z" style="fill:#060603"/><path d="M88.51 56.27c-2.36 5.55-8.35 19.87-9.38 22.3-.16.35-.34.49-.78.67-1.39.63-4.96-.37-6.78-1.24-1.85-.57-1.94-2.84-1.35-4.2 1.01-2.36 9.9-23.69 11.05-26.29 1.48-1.68 5.39-.12 7.31.91 1.16.63 1.88 2.01 1.63 3.33-.42 1.59-1.15 2.93-1.65 4.43l-.04.09ZM91 54.46c1.34-6.95 5.78-8.16 8.14-.34.92 3.55.16 8.33-3.36 10.02-3.29.48-4.72-3.68-5.13-6.33-.13-.83.2-2.52.36-3.34ZM70.89 69.89c-1.16 1.12-8.32 1.9-9.05 0-.93-2.4-.98-6.53-1.39-9.08-.56-3.45-3.14-16.04-2.36-18.48.49-1.52 9.37-3.27 9.7.14l3.74 24.8c.03.71-.14 2.14-.63 2.62Zm.5 21c-1.39 1.51-5-1.92-5.88-3.14-2.28-3.13-2.28-6.36-.89-9.89.68-1.72.88-2.24 2.75-1.47 3.34 1.38 5.94 5.72 5.66 9.36-.06.84-1.2 4.67-1.63 5.14Z" style="fill:#0b0a06"/><path d="M87.71 85.77c-1.58-3.18 1.8-9.17 3.96-12.15.68-1.2 4.14-4 3.44-.82-1.15 2.97-3.9 5.49-4.62 8.52-.46 1.12-1.16 4.96-2.71 4.5l-.07-.06Zm22.92 12.35c.79-.09 2.04.15 1.63 1.14-.34.95-2.21 2-3.78 3.13-2.23 1.52-3.98 4.43-5.71 6.02-.5.41-1.32 1.07-1.89.53-1.4-2.56 6.84-11.02 9.56-10.81l.18-.02Z" style="fill:#fcfaf0"/><path d="M38 88.5c.22.21 1.43-.51 1 1.5l-.95-.44c-.14.64.2 1.09-.55.93 0-.33-.04-.67 0-1 .04-.39.22-.73.5-1ZM36.5 90l.49.76c-1.57-.27-.63 1.71-2.49-.26l.35-.41c.52-.24 1.21 0 1.65-.09m3.5-6c.34.17-.29.85-1 .49-.34-.17.29-.85 1-.49m.75 2c.32.17.32.33 0 .5z" style="fill:#0b0a06"/><path d="M95.49 52c1.72 3.08 2.26 6.13-.24 8.99-2.37-2.47-2.57-6.78.24-8.99M70 87.5c-3.51.95-4.45-8.05-2.75-7.99 2.72 2.07 3.49 4.72 2.75 7.99" style="fill:#f3e38d"/><path d="M88.01 49.59c.13.09.15.16.11.29-.23.6-1.09 2.69-2.21 5.46-2.12 5.07-7.42 18.55-8.75 21.4-1.25.95-3.61-.39-4.88-.79-.42-.2-.09-.5.16-1.18 2.23-5.21 10.13-23.63 11.24-26.22.13-.28.23-.28.62-.2.78.23 2.91.88 3.64 1.21l.07.04Z" style="fill:url(#a)"/><path d="M65.4 43.27c.17.03.24.11.28.26.11.6.31 2.44.63 4.88.52 4.95 2.43 17.63 2.43 20.12-.77.43-2.16.36-3.41.31-1.49-.18-1.57-1.75-1.73-3.01-1.01-8.73-2.74-11.3-3.39-20.19-.05-1.42.71-1.91 2.14-2.07 1.14-.12 2.02-.31 2.98-.3h.08Z" style="fill:url(#g)"/><path d="M38.83 89.48c-1.43.65-2.82 1.84-4.47 1.74-.43-.3-2.52-6.4-3.04-7.47-2.02-4.13-4.59-8.1-6.44-12.34-.09-.9 2.92-2.36 3.77-2.59.98-.27.53.12.78.57 2.19 3.89 3.95 8.76 5.89 12.86 1.09 2.3 2.74 4.68 3.51 7.23" style="fill:url(#b)"/><path d="m54.32 87.75-5 .5c-.4-5.03-.94-9.95-1-15-.05-4.71.37-9.32.5-14h4.5c.41 4.86-.42 9.7-.5 14.5-.08 4.67.96 9.37 1.5 14" style="fill:url(#h)"/><path d="M46.37 83c.21 1.71-1.58 1.93-2.9 2.16-1.02.18-.47.04-.66-.63-1.44-5.26-1.95-10.93-2.99-16.28-.33-1.71-3.27-12.37-2.48-12.98l4.47-.51c.66 4.15 1.28 8.35 2.01 12.49.28 1.61 1.23 3.72 1.47 5.28.49 3.33.22 7.12 1.08 10.47" style="fill:url(#i)"/></svg>