<svg xmlns="http://www.w3.org/2000/svg" data-name="fill_silage" viewBox="0 0 128 128"><path d="M36.43 100.3c-.69.93-1.06 1.36-1.35 1.84-1.42 2.43-3.57 3.6-6.34 3.61-6.62.02-13.25.06-19.87-.01-4.65-.05-7.63-3.36-7.23-7.87C3.31 79.07 5 60.28 6.67 41.49c.41-4.62 2.94-6.94 7.6-6.95 3.18 0 6.36-.04 9.54.01 3.85.07 6.27 2.14 6.93 5.92.22 1.3.27 2.63.41 3.94.12 1.22.26 2.44.45 4.31 1.82-2.38 3.3-4.28 4.74-6.21 2.58-3.47 5.09-6.99 7.7-10.42 10.06-13.21 29.94-13.17 39.97.09 3.3 4.36 6.51 8.79 9.77 13.18.72.97 1.46 1.91 2.64 3.44.23-2.67.39-4.65.57-6.62.5-5.5 2.83-7.63 8.38-7.64 3 0 6.01-.04 9.01 0 3.82.06 6.53 2.52 6.87 6.28 1.72 19.06 3.43 38.11 5.12 57.17.38 4.24-2.53 7.65-6.85 7.74-6.89.13-13.78.06-20.66 0-2.81-.02-4.79-1.54-6.21-3.99-1.27-.22-2.56-.44-4.13-.7-1.76 4.24-5.35 4.82-9.52 4.76-10.42-.15-20.84-.1-31.26-.02-4.58.03-9.18.38-11.31-5.48" style="fill:#4a3726;stroke-width:0"/><path d="M35.34 93.68c-1.02-11.67-2-22.93-3-34.38 3.82-5.2 7.71-10.51 11.61-15.81 1.51-2.05 3.13-4.03 4.55-6.14 7.43-11.11 23.41-10.95 30.86-.21 5.05 7.29 10.54 14.28 15.83 21.4.15.21.23.48.42.89-1.02 11.52-2.06 23.2-3.12 35.17-3.6-.21-6.92-.95-9.78-2.84-2.4-1.58-4.47-3.66-6.73-5.46-2.98-2.38-5.51-5.39-9.63-6.13-3.39-.61-6.55-.26-9.34 1.62-3.12 2.11-5.86 4.81-9.03 6.81-3.02 1.91-6.37 3.3-9.63 4.8-.73.34-1.69.17-3.01.27Z" style="fill:#484847;stroke-width:0"/><path d="M13.45 41.43h10.59c1.69 19.14 3.37 38.15 5.07 57.35H8.41c1.68-19.1 3.34-38.05 5.04-57.35m90.46-.03h10.57c1.69 19.09 3.37 38.1 5.07 57.34H98.87c1.67-19.04 3.34-38.03 5.04-57.34" style="fill:#aeaeae;stroke-width:0"/><path d="M44.85 98.81c4.27-3.15 9.06-6.63 13.79-10.18 3.5-2.62 6.98-2.59 10.32.27 3.91 3.35 7.8 6.71 11.51 9.91z" style="fill:#876f47;stroke-width:0"/><path d="M49 80.7c-2.99-2.52-3.22-4.41-.9-6.33 9.33-7.72 21.66-7.82 31.29.63 1.62 1.42 1.41 3.37.03 5-1.34 1.58-2.94 1.08-4.24.05-2.65-2.1-5.42-3.75-8.82-4.48-5.07-1.08-9.27.64-13.36 3.33-1.3.85-2.86 1.3-4 1.8" style="fill:#483421;stroke-width:0"/></svg>