<svg xmlns="http://www.w3.org/2000/svg" viewBox="0 0 128 128"><path d="M94.91 55.14v49.2h.19c0 4.65.35 9.33-.1 13.94-.42 4.31-4.71 7.68-9.1 7.7-14.56.06-29.13.07-43.69 0-5.09-.02-9.25-4.14-9.34-9.39-.07-3.88-.02-16.15-.04-18.39-.07-12.46-.03-24.91-.03-37.37 0-6.53-.13-13.06.05-19.58.05-1.92.49-4.14 1.54-5.68 3.73-5.43 7.8-10.62 11.29-15.28 0-3.47-.3-6.51.07-9.47.62-5.07 5.01-8.74 10.13-8.81 4.89-.07 9.77-.02 14.66-.01 10.06-.18 14.94 8.48 11.27 17.5 3.88 5.17 7.7 10.19 11.42 15.27.78 1.06 1.68 2.35 1.72 3.57.18 5.51.08 11.03.08 16.55-.04.09-.08.18-.12.28Z" style="fill:#4a3726;stroke-width:0"/><path d="M87.56 51.11v57.6s.08.09.12.13l-.06 8.05c-1.24.95-2.69.87-4.13.87q-18.255-.015-36.51 0c-1.22.01-6.87-.16-6.86-2.4.01-2.27 0-4.54 0-6.66.06-.04.12-.08.17-.11V51.11h-.12c0-3.52-.03-7.04.03-10.55.01-.53.29-1.13.62-1.57 3.07-4.14 6.12-8.3 9.32-12.35.55-.7 1.76-1.23 2.67-1.24 7.94-.1 15.89-.06 24.22-.06 3.48 4.68 7.04 9.18 10.21 13.93.83 1.25.5 3.32.57 5.01.08 2.2.02 4.4.02 6.83z" style="fill:#d6d6d5;stroke-width:0"/><path d="M75.08 10.19c.38 3.41 1.26 7.98-3.43 7.87-5.06-.1-10.12 0-15.17-.05-2.53-.03-3.78-1.53-3.79-4.32 0-2.77 1.25-4.29 3.78-4.31 4.96-.05 9.93-.06 14.89.02 1.08.02 2.16.45 3.73.79Z" style="fill:#7f827e;stroke-width:0"/></svg>