<svg xmlns="http://www.w3.org/2000/svg" data-name="fill_raisins" viewBox="0 0 128 128"><defs><linearGradient id="a" x1="-280.17" x2="-257.87" y1="-952.19" y2="-808.91" gradientTransform="matrix(.5 0 0 .5 222 518)" gradientUnits="userSpaceOnUse"><stop offset="0" stop-color="#844840"/><stop offset="1" stop-color="#6b2921"/></linearGradient></defs><path d="M90.83 41.17c1.9 1.79 3.08 5.34 4.91 7.34 2.46 2.71 6.17 4.65 8.77 7.73 4.96 5.85 5.29 10.79 7.23 17.77.91 3.28 2.45 4.94 2.25 8.74-.31 6.06-8.65 24.31-12.1 29.91-1.91 3.09-5.44 6.14-9.41 5.65-2.59-.32-14.63-6.52-17.34-8.2-5.39-3.35-5.11-6.26-7.89-11.11-.9-1.56-1.65-3.92-3.25-2.24-1.91 2.01-3.79 5.52-5.75 7.75-10.74 12.26-14.73 7.63-27.87 11.63-7.32 2.23-13.38 8.57-20.15-.13-6.62-8.5-.28-17.5 1.62-25.91 1.08-4.79.66-10.01 1.88-14.62 1.6-6.02 6.69-10.52 11.3-14.32-2.85-8.8-2.84-17.21-.79-26.17 1.93-8.47 7.24-26.3 16.36-29.14 4.83-1.51 14.26-1.04 18.57 1.73 5.53 3.56 5.62 9.56 9.34 14.16 2.9 3.58 7.24 6.72 10.24 10.26 1.32 1.55 3.07 5.11 3.98 6.02.63.63 5.78.97 8.09 3.16Z" style="fill:#0a0b0b"/><path d="M61.69 54.82c1.89 3.17 4.57 6.15 5.83 9.91 4.64 13.87-5.26 34.57-16.28 43.26-5.92 4.67-13.36 3.48-20.25 5.25-5.91 1.52-13.42 8.43-18.71 1.23-5.52-7.5.23-15.91 2.07-23.36 1.22-4.95.71-9.95 1.88-14.62 2.23-8.92 11.47-12.95 17.03-19.47 2.26-2.65 3.91-6.01 6.48-8.52s6.13-4.72 8.74-7.26c6.13-1.97 10.77 9.47 13.22 13.59Z" style="fill:#75372f"/><path d="M95.16 51.83c1.89 1.76 4.65 2.97 6.59 5.16 4.89 5.51 7.1 14.83 9.1 21.9 1.62 5.72-.74 8.25-2.6 13.11-2.41 6.3-5.08 14.1-8.84 19.66-1.54 2.29-3.74 4.07-6.66 3.86-1.7-.12-12.14-5.53-14.26-6.77-6.74-3.92-5.25-4.96-8.58-10.92-.72-1.29-3.09-3.72-3.33-4.71-.11-.47 2.76-7.41 3.17-9.12 1.4-5.83 2.16-13.73.5-19.51-.52-1.8-3.33-6.32-3.26-7.21.09-1.21 3.09-7.31 3.91-8.64 3.09-5.01 7.08-8.29 13.3-7.6s6.98 7.08 10.96 10.78Z" style="fill:url(#a)"/><path d="M71.17 28.83c.87.9 2.6 1.75 3.53 2.72.61.64 5.72 6.59 5.3 6.95-3.88.43-7.93 3.99-10.26 6.99-1.12 1.45-4.03 8.4-4.49 8.51-.69.17-.86-.41-1.17-.82-4.24-5.73-9.24-20.05-19.03-12.88-2.47 1.81-7.53 6.61-9.53 8.97s-3.72 5.68-5.99 8.01c-.76.78-1.26 1.46-2.51 1.24-3.67-12.48.06-26.99 5.07-38.68 1.87-4.36 5.37-10.56 10.3-11.7 6.89-1.59 16.03-.03 19.57 6.69 3.28 6.22 4.09 8.69 9.23 14.02Z" style="fill:#603540"/><path d="M50.81 86.53c2.54-.56 2.44 6.49-1.46 8.57-1.44.77-3.97.94-5.12 1.88-1.29 1.04-1.51 3.69-3.47 5.03-2.17 1.48-6.47.96-9.28 1.72-1.59.43-6.89 4.15-7.47 2.02-.44-1.62 3.78-3.51 5-3.99 3.22-1.26 5.13-.84 8.13-1.37 3.49-.62 2.74-3.03 4.61-4.89 2.22-2.2 7.6-1.94 8.18-5.36.18-1.06-1.01-3.18.88-3.6ZM23.5 89H21c-.21-3.97-.11-7.18 2.28-10.47.78-1.07 3.41-3.02 3.65-3.89.39-1.4-.95-2.54.2-5.26 1.29-3.06 3.92-3.15 6.33-4.66 1.4-.88 4.83-4.98 5.48-1.9.5 2.37-6.04 4.88-7.53 5.86-3.27 2.15-1.18 4.45-2.2 7.3-.53 1.5-2.09 2-2.95 3.05-2.36 2.88-3.15 6.29-2.77 9.98Z" style="fill:#0a0b0b"/><path d="M57.31 53.03c1.37-.3 5.48 6.89 6.12 8.29 2.47 5.43 3.4 11.4 2.44 17.3-.12.75-.4 2.61-1.16 2.84-3.5 1.07-1.33-3.53-1.21-5.22.43-5.92-.66-10.79-3.59-15.9-.88-1.54-5.78-6.61-2.59-7.32Zm-10.9-4.11c-.16.23-3.3 2.01-4.4 3.34-.91 1.09-2.35 4.53-2.57 4.68-.43.3-1.86.11-2.23-.42-1.64-2.35 5.86-10 8.04-10.04 1.19-.02 1.66 1.69 1.15 2.44Z" style="fill:#b77870"/><path d="M87.99 52.5c.12.08.43 1.93 1 2.76 2.13 3.1 6 2.98 7.76 8.24 1.29 3.86-.21 5.55.25 8.23.19 1.12 1.44 2.1 1.76 3.26.52 1.88-.03 8.36-2.06 8.98-3.45 1.04-.11-5.18-.17-6.7-.08-1.97-2.09-3.36-2.31-5.74-.29-3.13 1.39-5.84-.95-9.04-1.71-2.33-8.35-5.08-7.67-8.66.15-.82 1.79-1.74 2.4-1.32Zm-6.35 45.86c.39.47 2.11.82 1.86 1.88-.09.38-1.35 1.07-1.83 1.14-2.35.31-2.92-4.02-3.92-5.37-1.28-1.73-3.79-1.5-4.86-4.64-.59-1.75-.7-8.41 1.42-8.84 2.67-.55.73 4.34.68 5.25-.25 4.5 2.8 4.05 4.73 6.26 1.06 1.22 1.15 3.4 1.92 4.33Z" style="fill:#0a0b0b"/><path d="M77.34 44.08c1.43-.43 2.73.43 1.92 1.94-.23.42-2.9 2.29-3.75 3.25-.7.78-1.81 2.29-2.29 3.21-.76 1.46-1.42 6.09-3.47 5.52-1.78-.49.42-5.43.97-6.52.75-1.47 5.32-7.01 6.61-7.4Z" style="fill:#b77870"/><path d="M43.5 18c.65 2.72-1.51 2.25-2.37 3.12-1.49 1.49.34 4.39.4 6.15.14 4.12-4.29 4.01-4.81 7.2-.32 1.98 1.49 4.85 1.27 5.73-.2.79-1.96 1.09-2.44.75-.68-.48-1.69-5.97-1.52-7.17.52-3.51 4.58-4.6 4.87-6.09.14-.71-.82-2.78-.9-3.95-.25-3.65 1.75-6.04 5.5-5.74" style="fill:#0a0b0b"/><path d="M53.32 11.54c3.74-1.13 8.65 7.14 9.09 10.33.29 2.16-1.23 3.02-2.36 1.33-.89-1.34-1.25-4.15-2.54-5.96-.52-.72-1.8-1.86-2.53-2.47-.49-.41-4.68-2.32-1.66-3.23m20.26 25.87c-.27-.18-2.31-3.77-3.83-4.91s-4.05-1.85-5.26-3.24c-.53-.6-.83-1.03 0-1.53 2.77-1.68 11.49 5.92 11.53 8.52.02 1.19-1.69 1.66-2.44 1.15Z" style="fill:#966671"/></svg>