<svg xmlns="http://www.w3.org/2000/svg" xmlns:xlink="http://www.w3.org/1999/xlink" data-name="fill_easel" viewBox="0 0 128 128"><defs><linearGradient id="a" x1="45.05" x2="92.12" y1="-1147.8" y2="-958.57" gradientTransform="matrix(.5 0 0 .5 0 592)" gradientUnits="userSpaceOnUse"><stop offset="0" stop-color="#d3a977"/><stop offset=".72" stop-color="#a87534"/><stop offset="1" stop-color="#a77533"/></linearGradient><linearGradient id="b" x1="160.19" x2="210.19" y1="-1159.07" y2="-946.88" gradientTransform="matrix(.5 0 0 .5 0 592)" gradientUnits="userSpaceOnUse"><stop offset="0" stop-color="#d3a977"/><stop offset=".72" stop-color="#a87534"/><stop offset="1" stop-color="#a77533"/></linearGradient><linearGradient id="c" x1="127.95" x2="128.05" y1="-1165.11" y2="-1059.11" gradientTransform="matrix(.5 0 0 .5 0 592)" gradientUnits="userSpaceOnUse"><stop offset="0" stop-color="#d3a978"/><stop offset="1" stop-color="#b9894d"/></linearGradient><linearGradient xlink:href="#a" id="d" x1="63.77" x2="63.77" y1="66.97" y2="73.5"/><linearGradient xlink:href="#a" id="e" x1="105.25" x2="105.25" y1="67" y2="73.57"/><linearGradient xlink:href="#a" id="f" x1="22.47" x2="22.47" y1="66.99" y2="73.57"/></defs><path d="M69.5 97c-1.06 1.41-7.39 1.24-9.28 1.03-.67-.08-2.22-.66-2.22-1.28V76H38.75c-.45 0-.88 1.52-1.01 1.99-4.01 13.75-5.63 29.28-9.25 43.25-.03.5-.94 1.76-1.24 1.76h-10c-.67 0-.99-2-.7-2.68L26.5 76H14.75c-.05 0-.75-.7-.75-.75V64.5c.5.17 1.09-.5 1.25-.5H29l11.89-53.86c.15-.31.67-1.14.86-1.14h10c2.19 0-1.15 8.6-.75 10h7V6.75c0-.16.67-.75.5-1.25h10.75c1.36 0 .25 3.37.23 4.23-.09 3.08.12 6.19.02 9.27h7c-.13-2.2-2.03-6.36-1.97-8.28.02-.57.94-1.72 1.22-1.72h10l12.7 55.21c.63.93 4.15-.19 5.28-.23 3.32-.13 7.07-.19 10.27.52v10.75c0 .05-.7.75-.75.75H101l9.87 43.88c.36 1.13.4 3.12-1.12 3.12h-10L89.27 76.48c-.33-.52-.96-.46-1.5-.5-5.69-.46-12.01.39-17.77.02-.18 6.95-.34 13.95-.5 21M67 8h-6v56.5h6zm-17.5 4H43L19.5 120.5c2.03-.38 5.72 1.06 6.54-1.2zM108 120.5 84.03 12.22 78 12l23.55 108.45 6.45.04ZM58 22h-8l-1 6h9zm20.5 6c-.55-1.25-.59-4.66-1.24-5.51-.81-1.07-5.74-.22-7.27-.49v6h8.5ZM58 31H48l-7 33.5h17zm12 3v30.5l16.51-.26-7.57-33.18L70 31c0 1 .01 2 0 3M16.5 71c.01.83-.01 1.67 0 2.5 1.81-.31 10.05.61 10.78-.48.42-.62.11-1.43.22-2.02.24-1.37.36-2.73 1-4H16.78c-.51.06-.29 3.24-.28 4m23 .5c-.06.32-1.04 1.9-.25 2h49.24c.35-.82-.44-1.26-.5-1.5-.37-1.54-.43-3.19-.95-4.71l-.78-.32-45.8.25c-.75.53-.79 3.29-.97 4.28ZM100 71c.13.55-.2 1.39.22 2.02.74 1.1 9.43.17 11.28.48.01-.83-.01-1.67 0-2.5.02-1.33-.01-2.67 0-4H99c.15 1.36.69 2.68 1 4m-33 5h-6v19h6z" style="fill:#0d0e0d"/><path d="M69.5 97c.59-6.36-.79-14.09-.01-20.27.05-.4.02-.75.51-.73-.54 6.28.71 13.67.03 19.8-.09.78-.15.7-.53 1.2" style="fill:#7a7a7b"/><path d="M49.5 12 26.04 119.29c-.82 2.27-4.51.83-6.54 1.2L43 12z" style="fill:url(#a)"/><path d="m108 120.5-6.45-.05L78 12l6.03.22z" style="fill:url(#b)"/><path d="M61 8h6v56.5h-6z" style="fill:url(#c)"/><path d="M61 76h6v19h-6z" style="fill:#a37232"/><path d="M88.5 73.5H39.25c-.79-.1.19-1.68.25-2 .18-.99.22-3.75.97-4.28l45.8-.25.78.32c.52 1.52.58 3.17.95 4.71.06.24.85.68.5 1.5" style="fill:url(#d)"/><path d="M58 22v6h-9l1-6z" style="fill:#725530"/><path d="M111.5 71c-.01.83.01 1.67 0 2.5-1.85-.31-10.55.62-11.28-.48-.42-.63-.09-1.47-.22-2.02-.31-1.32-.85-2.64-1-4h12.5c-.01 1.33.02 2.67 0 4" style="fill:url(#e)"/><path d="M78.5 28H70v-6c1.52.27 6.46-.58 7.26.49.64.86.69 4.26 1.24 5.51" style="fill:#725530"/><path d="M27.28 73.02c-.73 1.09-8.98.18-10.78.48-.01-.83.01-1.67 0-2.5-.01-.76-.23-3.93.28-4.01H28.5c-.64 1.28-.76 2.64-1 4.01-.1.59.2 1.41-.22 2.02" style="fill:url(#f)"/><path d="M70 64.5V34c-.1 10.16.08 20.34 0 30.5" style="fill:#7a7a7b"/></svg>