<svg xmlns="http://www.w3.org/2000/svg" data-name="fill_roofplate" viewBox="0 0 128 128"><defs><linearGradient id="a" x1="-6289.91" x2="-6350.91" y1="-1026.95" y2="-1026.92" gradientTransform="matrix(.5 0 0 .5 3182 592)" gradientUnits="userSpaceOnUse"><stop offset="0" stop-color="#272827"/><stop offset=".49" stop-color="#525251"/><stop offset="1" stop-color="#272827"/></linearGradient><linearGradient id="b" x1="-6206.76" x2="-6267.76" y1="-1027.06" y2="-1026.97" gradientTransform="matrix(.5 0 0 .5 3182 592)" gradientUnits="userSpaceOnUse"><stop offset="0" stop-color="#272827"/><stop offset=".48" stop-color="#515150"/><stop offset="1" stop-color="#272827"/></linearGradient><linearGradient id="c" x1="-6123.97" x2="-6184.97" y1="-1027" y2="-1026.99" gradientTransform="matrix(.5 0 0 .5 3182 592)" gradientUnits="userSpaceOnUse"><stop offset="0" stop-color="#272827"/><stop offset=".49" stop-color="#525251"/><stop offset="1" stop-color="#272827"/></linearGradient><linearGradient id="d" x1="-6226.05" x2="-6165.05" y1="-1117.42" y2="-1117.38" gradientTransform="matrix(.5 0 0 .5 3182 592)" gradientUnits="userSpaceOnUse"><stop offset="0" stop-color="#272827"/><stop offset=".49" stop-color="#525251"/><stop offset="1" stop-color="#272827"/></linearGradient><linearGradient id="e" x1="-6308.06" x2="-6247.06" y1="-1117.47" y2="-1117.41" gradientTransform="matrix(.5 0 0 .5 3182 592)" gradientUnits="userSpaceOnUse"><stop offset="0" stop-color="#272827"/><stop offset=".49" stop-color="#525251"/><stop offset="1" stop-color="#272827"/></linearGradient><linearGradient id="f" x1="-6155.46" x2="-6153.44" y1="-993.57" y2="-954.62" gradientTransform="matrix(.5 0 0 .5 3182 592)" gradientUnits="userSpaceOnUse"><stop offset="0" stop-color="#4d4d4d"/><stop offset=".26" stop-color="#2a2a2a"/><stop offset="1" stop-color="#272827"/></linearGradient><linearGradient id="g" x1="-6318.78" x2="-6318.56" y1="-993.26" y2="-956.26" gradientTransform="matrix(.5 0 0 .5 3182 592)" gradientUnits="userSpaceOnUse"><stop offset="0" stop-color="#4d4d4d"/><stop offset=".32" stop-color="#282828"/><stop offset="1" stop-color="#272827"/></linearGradient><linearGradient id="h" x1="-6237.21" x2="-6236.32" y1="-993.92" y2="-955.93" gradientTransform="matrix(.5 0 0 .5 3182 592)" gradientUnits="userSpaceOnUse"><stop offset="0" stop-color="#4d4d4d"/><stop offset=".32" stop-color="#292929"/><stop offset="1" stop-color="#272827"/></linearGradient></defs><path d="M125.38 117.89c-.4.4-2.96 1.11-3.65 1.14-5.69.22-3.7-4.79-4.98-8.53-2.86-8.32-14.19-10.47-20.25-4.25-1.85 1.9-2.79 4.56-3.39 7.11-.43 1.85.52 4.58-2.37 5.13-1.12.21-4.53.14-5.42-.47-.37-.26-.3-1.72-1.32-1.01-.11.07.36 1.16-1.79 1.45-7.22.96-5.42-1.63-6.44-6.49-.51-2.45-2.38-5.14-4.32-6.68-7.92-6.26-17.89-1.18-19.85 8.07-.65 3.06 1.11 5.02-3.51 5.53-2.62.29-3.54-1.19-4.94-1.3-.43-.03-3.05 1.35-4.47 1.37-4.96.07-3.41-4.72-4.66-8.24-3.98-11.23-20.9-10.3-23.31 1.25-.72 3.44.73 7.23-4.96 7.05-6.34-.2-4.01-8.69-3.27-12.78 1.73-12.22.8-26.85 3.23-38.77C7.36 59.36 15.73 53.11 23.99 54c-.37-2.67.3-5.23.5-7.75.62-7.77.3-21.67 3.91-28.09C35.94 4.78 55 7.38 59.79 21.53c1.88-.41 6.83.57 8.21-.27.41-.25 3.06-5.81 4.98-7.52 10.33-9.17 25.87-3.48 28.66 9.85 1.17 5.61.87 14.12 1.39 20.07.28 3.26.81 6.6 1.17 9.87.55.88 2.98.31 4.04.46 4.18.59 9.6 4.14 11.67 7.83 3.91 6.98 3.35 21.52 4.07 29.93.64 7.45 2.82 17.29 1.96 24.47-.06.49-.24 1.33-.57 1.66Z" style="fill:#080a0b"/><path d="M31.15 59.84c.54.42 1.33.46 1.82.93 1.57 1.51 3.4 4.97 3.91 7.1 2.01 8.45.75 19.65 2.62 28.38V100c-3.85-3.61-7.75-7.31-13.3-7.95-8.82-1.01-15.01 1.99-20.69 8.45l2.55-30.7c1.38-9.68 10.71-15.81 20.06-12.16 2.15.84 1.84 1.26 3.04 2.2Z" style="fill:url(#a)"/><path d="M73.67 60.83c2.95 2.86 4.08 4.66 4.79 8.96l2.54 30.7c-7.28-9.5-20.7-11.68-30.24-3.99L47 100.49l2.54-31.7c1.76-10.26 14.4-16.17 22.95-9.53.63.49.75 1.16 1.17 1.57Z" style="fill:url(#b)"/><path d="M115.2 60.8c1.2 1.15 2.3 2.14 3.08 3.67 2.58 5.07 2.22 16.24 2.72 22.28.38 4.57 1.03 9.19 1.5 13.75-9.06-11.32-24.55-11.47-33.99-.5-.25-4.1.66-8.18 1-12.25.62-7.53-.08-20.42 4.79-26.21 5.57-6.62 14.86-6.55 20.91-.74Z" style="fill:url(#c)"/><path d="M101.5 54.5c-1.83.29-2.52-1.55-3.76-2.49-7.19-5.44-15.79-6.29-23.7-1.72L68 54.5c-.39-2.66.32-5.25.5-7.75.51-7.05.67-14.96 1.63-21.87 1.95-14.13 20.75-17.63 27.28-5.03 1.6 3.09 1.52 5.58 2.1 8.9l2 25.75Z" style="fill:url(#d)"/><path d="M54.2 17.3c4.96 5.63 3.64 11.44 4.3 18.45.58 6.23 1.58 12.48 1.5 18.75l-6.04-4.21c-7.87-4.65-16.55-3.69-23.7 1.72-1.23.93-1.93 2.78-3.76 2.49l2.62-31.13C32.45 11.84 45.85 7.82 54.2 17.3" style="fill:url(#e)"/><path d="M85 108c-.92-.19-.93-.98-1.02-1.73-1.43-12.11-1.09-25.62-3.03-37.47-.54-3.31-1.91-5.67-3.46-8.53 3.77-2.42 8.83-3.19 12.87-.87 2.36 1.35.04 2.92-.74 4.98-2.09 5.55-1.59 10.67-2.12 16.38-.85 9.08-1.79 18.16-2.5 27.25ZM50.5 60.01c-1.24 2.76-2.71 4.82-3.37 7.88-1.65 7.7-1.93 19.62-2.63 27.87-.28 3.27-.22 6.73-.49 10.01-.05.58-.16 2.24-1 2.24-1.03-11.07-1.87-22.18-3-33.25-.4-3.89 0-6.03-1.49-10.01-.95-2.54-3.4-4.02-.51-5.49 4.39-2.24 8.3-1.16 12.5.76Z" style="fill:#424342"/><path d="M123.5 116H120c.42-21.27-29.73-21.23-29.5 0H87c-1.75-28.5 38.41-28.5 36.5 0" style="fill:url(#f)"/><path d="M41 116h-3.5c.85-12.66-13.86-21.11-24.01-12.76-2.66 2.18-4.65 5.24-5.38 8.62-.63 2.93 1.1 4.65-3.62 4.14-1.74-14.09 11.32-25.57 24.99-20.24 7.99 3.11 12.32 11.93 11.51 20.24Z" style="fill:url(#g)"/><path d="M82 116h-3c-.5-21.26-29.94-21.26-30 0-3.39.52-3.69-.52-3.51-3.74.41-7.31 5.65-14.62 12.62-16.9C71.45 90.98 83.9 102.39 82 116" style="fill:url(#h)"/><path d="m67.5 24-2.35 29.39c-.09.93-1.79.87-2.19.31l-2.45-29.71h7Z" style="fill:#424342"/><path d="M97.5 55.99c-1.71-.26-2.51 2.23-3.84 2.43-.38.05-3.43-1.93-4.55-2.28-3.28-1.02-7.56-.91-10.73.49-.93.41-2.06 2-3.06 1.8-.21-.04-3.27-2.48-3.32-2.69-.3-1.25 1.73-1.52 2-1.74 6.66-5.42 13.99-5.51 21-.5.91.65 2.67.94 2.5 2.49M56 55.74c-.06.22-3.52 2.63-3.75 2.63-.22-.01-2.75-1.64-3.86-2.01-3.34-1.1-6.51-1.27-9.88-.1-1 .35-3.76 2.23-4.17 2.17-.98-.15-2.5-2.42-3.84-2.44-.35-1.58 1.58-1.65 2-1.99 6.92-5.66 14.63-5.52 21.5 0 .28.22 2.3.48 2 1.74" style="fill:#343535"/><path d="M10 90v-9.25l.98-4.52h1.53c1.48 1.03-.55 10.75-.09 12.95-.34 1.05-1.5.84-2.43.82Zm3.5-23c-.25 1.77.75 5.86-.99 6.77-3.24 1.69-1.13-5.03-1.52-6.77h2.5Zm41 0c-.18 1.65.27 3.66-.02 5.23-.2 1.07-1.3 1.79-1.39 2.6-.07.62.8 1.79.93 2.91.43 3.68-.66 7.35-.51 11.02-.12 1.42-1.31 1.33-2.5 1.25l.51-12.73c1.58-1.91.51-2.8.48-4.52-.04-1.92.03-3.84 0-5.75h2.5Zm39.75 9c3.08-.91 1.36 6.3 1.25 7.75-.1 1.31.65 7.21-1.69 6.72-2.1-.44-.84-3.12-.81-4.22.06-1.65-.31-9.79 1.25-10.24Zm-.24-2c-1.07-.72.01-5.65 0-7 4.38-1.35 2.69 8.8 0 7M74.5 44.5c-.09.1-1.63.05-2.03-.22-1.16-.79.27-11.8.54-13.78 3.61.11 2.06 2.24 1.99 4.25-.04 1.26-.18 9.38-.5 9.75m.93-16.58c-.08.11-1.42.59-1.64.55-1.05-.2-1.05-5.68-.82-6.65.15-.61 2.19-1.49 2.52.42.12.69.1 5.45-.07 5.68ZM31.75 30.5c3.02-.87 1.3 4.93 1.25 6.25-.08 2.07 1.02 8.06-1.75 7.78-2.21-.22-.79-2.58-.75-3.78.05-1.65-.3-9.8 1.25-10.24Zm2.25-9c.34 1.44.2 8.81-2.5 7-.72-.48-.46-6.39.02-6.98.15-.19 1.92.06 2.48-.03Z" style="fill:#767575"/></svg>