<svg xmlns="http://www.w3.org/2000/svg" data-name="fill_fermentednapacabbage" viewBox="0 0 128 128"><defs><linearGradient id="a" x1="-4843.96" x2="-4965.96" y1="-446.18" y2="-446.14" gradientTransform="matrix(.5 0 0 .5 2516 296)" gradientUnits="userSpaceOnUse"><stop offset="0" stop-color="#95991e"/><stop offset=".48" stop-color="#adaf60"/><stop offset="1" stop-color="#94981d"/></linearGradient><linearGradient id="b" x1="-4960.16" x2="-4874.13" y1="-481.19" y2="-396.1" gradientTransform="matrix(.5 0 0 .5 2516 296)" gradientUnits="userSpaceOnUse"><stop offset="0" stop-color="#c4dd7c"/><stop offset=".44" stop-color="#c4dd7d"/><stop offset="1" stop-color="#dfe5cc"/></linearGradient><linearGradient id="c" x1="-4930.77" x2="-4857" y1="-483.9" y2="-410.59" gradientTransform="matrix(.5 0 0 .5 2516 296)" gradientUnits="userSpaceOnUse"><stop offset="0" stop-color="#97b24b"/><stop offset=".42" stop-color="#98b34b"/><stop offset=".88" stop-color="#d1e496"/><stop offset="1" stop-color="#d3e597"/></linearGradient></defs><path d="M57.39 4.64c8.62-.63 18.16-.09 26.49 2.22 5.21 1.45 14.26 4.77 15.08 10.92l-.08 92.34c-.55 3.25-3.69 5.6-6.37 7.13-13.37 7.61-39.9 7.44-53.85 1.33-3.73-1.63-8.54-4.48-9.12-8.88l.18-92.74C31 10.94 41.68 7.46 46.99 6.23c3.25-.75 7.08-1.36 10.4-1.6Z" style="fill:#020202"/><path d="M95.5 25.5c.59-.35.85.06.78 1.24L96 110c-.4 2.83-6.33 5.91-8.87 6.88-13.09 5-36.66 5.05-49.14-1.62-1.99-1.07-5.14-2.89-5.49-5.26l-.28-83.27q-.12-1.755.78-1.23c14.29 10.34 48.17 10.35 62.5 0" style="fill:url(#a)"/><path d="M59.39 7.14c9.35-.6 24.4.72 32.45 5.76 10.54 6.59.59 12.55-6.84 14.85C71.69 31.88 48.42 32 36.34 24.4c-10.35-6.51.27-12.32 7.27-14.53 4.78-1.51 10.76-2.4 15.78-2.72Z" style="fill:#aaabab"/><path d="M33 25.5c-.83.51-.5 1.9-.51 2.74-.27 27.24.22 54.51 0 81.76l-.5-85.25c.32-.74.85.64 1 .75ZM96 110c-.25-27.24.33-54.51 0-81.76 0-.84.33-2.24-.51-2.74.15-.11.69-1.49 1-.75l-.5 85.25Z" style="fill:#9b9f33"/><path d="M85.85 106.85c-.35.39-1.77 1.13-2.35 1.4-2.52 1.2-9.21 3.7-11.74 3.24-1.93-.35-2.63-3.1-3.59-3.41-.81-.26-1.9.04-2.81-.19-2.67-.69-8.95-2.82-10.6-4.9-1.26-1.6-1.51-4.42-2.54-5.96-.78-1.16-3.26-2.1-3.95-3.55-.66-1.36-.38-3.72-1.03-4.97-1-1.91-5.06-2-5.7-6.8-.51-3.84.58-3.03-1.53-6.57-2.09-3.51.04-5.19-.59-7.28-.26-.87-1.62-1.51-2.13-2.4-1.82-3.1.09-12.68.45-16.47 1.87-2.95 4.89-5.85 8.56-5.95.88-.02 1.65.45 2.48.49 3.79.17 4.56-4.06 7.38-5.63s6.69-1.98 9.33-.13c1.29.91 1.75 2.77 3.14 3.36 1.44.61 2.84.03 4.15.85 2.32 1.44 2.32 4.91 3.71 6.79.83 1.13 2.63 1.68 3.52 2.98 1.6 2.34.62 5.58 1.6 7.9.49 1.17 2.45 1.14 3.34 2.66 1.34 2.28 1.04 5.73 1.8 8.2.51 1.65 2.16 2.75 2.54 3.96.93 2.92-.69 5.85-.19 8.17.26 1.18 1.43 1.97 2.01 3.01 2.04 3.67.57 8.72-1.68 12.02-.65.96-2.68 2.5-2.85 3.18-.34 1.4 1.41 3.64-.72 6Zm-5.49-93.24c4-.83 14.49-.03 11.76 6.26-1.96 4.51-17.71 4.63-16.02-3.01.34-1.53 2.83-2.95 4.26-3.25" style="fill:#080905"/><path d="M50.88 9.63c1.1-.15 3.22-.42 4.14.11.72.42.71 1.63 0 2.03-.77.43-5.06.62-6.53.97-2.34.55-6.82 3.14-8.27 3.27-.84.07-1.22-.09-1.71-.76-.26-1.21 3.69-2.93 4.66-3.33 2.06-.87 5.54-1.99 7.72-2.28Z" style="fill:#d6e1b4"/><path d="M53.5 73c.62-2.39-2-3.57-2.4-5.35s.08-3.67-.1-5.4c-.16-1.45-1.02-4.58-2.74-4.27-2.57.47-.5 2.15-.28 3.29.45 2.37-.36 4.63.65 7.35.49 1.33 1.69 2.14 1.86 3.14.29 1.66-.33 3.52.23 5.27.41 1.27 2.41 2.7 3.15 4.35.81 1.82.9 4.39 1.91 6.09.72 1.2 2.53 2.05 2.99 3.51.62 1.98-.35 4.53.77 6.23.71 1.08 2.35 1.16 2.99 2.01.68.91.23 2.17.92 3.08s3.33 1.48 4.04 2.96c-.31.64-1.38.03-1.89-.11-2.09-.61-6.31-1.83-7.87-3.13-2.22-1.86-1.89-5.09-3.74-7.13-.99-1.1-2.63-1.12-3.22-2.9-.65-1.96-.21-3.41-1.66-5.36-2.07-2.79-4.47-1.64-5.08-6.42-.18-1.44.15-2.96-.16-4.34s-1.88-2.21-2.19-3.33c-.34-1.24.8-3.03.57-4.55-.33-2.22-1.91-2.83-2.67-4.34-.82-1.63-.11-10.69.52-12.75 1.8-5.84 8.78-6.34 13.1-2.88 1.36 1.09 2 2.61 3 3.5 1.07.96 2.46 1.01 3.49 2.51 1.41 2.04 1.06 4.7 2.17 6.83.84 1.61 2.8 2.53 3.47 4.03 1.66 3.71-.64 8.91 2.86 12.64.74.79 1.92 1.12 2.5 2 1.52 2.31.07 6.27 1.79 9.08.38.62 1.38.94 2.01 1.62 2.41 2.64.72 3.15.48 6.03-.22 2.71.44 4.7 2.49 6.5-1.52 1.34-5.17 2.96-7 2.01-.71-.37-1.05-1.66-1.74-2.26-.78-.67-2.57-1.38-2.98-2.02-.52-.82-.25-2.07-.91-2.85-.56-.66-2.6-1.13-3.12-2.13-.7-1.35.09-3.77-.47-5.53-.48-1.52-2.47-2.42-3.17-3.83-1.03-2.08-1.96-5.55-3.11-8.14.05-.71.53-1.08 1.45-1.11-1.36-1.73-.98-3.4-.48-5.39-.05-3.29-5.48-7.37-1.08-1.54.95 1.37.52 4.01-1.39 3.04Z" style="fill:url(#b)"/><path d="M78.69 73.82c.17.32.95.25 1.2 1.52.38 2.02-.2 4 .45 6.08.44 1.41 1.77 2.14 2.07 3.43.4 1.77-.06 3.95.15 5.85.18 1.56 1.42 3.93 1.41 5.06 0 .57-2.77 5.01-3.02 5.17-.84.56-2.53-.98-2.96-1.66-1.8-2.83 2.36-6.1-.75-10.25-1.08-1.43-2.47-1.4-2.98-3.51-.46-1.88-.03-3.48-.27-5.24-.46-3.33-3.97-3.75-4.75-6.25-1.15-3.67.13-8.77-2.49-12.01-.71-.88-1.79-1.06-2.36-2.14-.9-1.74-.86-4.4-1.97-6.53-1.5-2.87-4.13-3.06-5.71-5.8-.34-.59-1.08-.67-.2-1.29 1.82-1.28 4.25-.84 5.43 1.06.63 1.01.67 2.34 1.18 3.32 1.65 3.18 5.12 2.27 6.63 4.37.91 1.26 1.01 3.51 1.85 5.15 1.19 2.34 3.06 2.81 4.18 4.82 1.48 2.65 1.27 5.73 2.92 8.84Z" style="fill:url(#c)"/><path d="M73 48.5c1.16 2.59 4.56 3.68 5.17 5.58.35 1.07 1.1 7.89.32 8.42-1.3.32-4.18-2.51-4.71-3.53-1.42-2.71-.07-4.51-3.61-6.89-3.14-2.11-5.05-.93-5.67-6.08 2.54-1.02 5.91.19 7.29 2.23z" style="fill:#c2da7b"/><path d="M65.5 42c2.48 2.83 4.37 1.27 6.01 2.24 1.1.64 1.09 3.39 1.49 4.26-2.48 2.42-2.41-.61-3.49-1.25s-3.02.03-5.01-1.25c-.61-.39-.8-.86-1-1-2.57-2.46-.66-5.32 2-3m-12 31c.09-.25 1.02-.6.9-1.67-.15-1.31-3.93-4.73-1.64-5.33 1.56-.42 3.87 3.04 4.14 4.37.37 1.81-.59 3.02-.41 4.35.14.98 1.48 1.92 1.01 3.28-.74-.11-1.87.18-2.5 0q-2.01-2.145-1.5-4.5c.05-.14-.05-.35 0-.5" style="fill:#d6e1b4"/><path d="M63.5 45c-.25-.18-.43-.71-.87-1-2.98-1.96-5.06-.55-8.13 0 1.51-3.66 5.52-5.77 9.38-4.16.83.35 1.05 1.52 1.62 2.17-2.61-.28-2.88.82-2 3Z" style="fill:#c2da7b"/><path d="M86.75 96.5c-.18-2.33-1.43-4.52-1.7-6.8-.2-1.76.19-3.64-.16-5.34-.33-1.61-2.1-3.38-2.36-5.14-.24-1.57.22-3.3-.13-4.87-.3-1.31-1.83-2.64-2.4-4.35-.41-1.23-1.92-6.77-1-7.5 4.95 1.24 3.89 1.95 4.5 6 .57 3.78 3.12 5.89 3.39 7.34.48 2.62-1.07 5.65-.29 8.31.36 1.22 2.59 2.63 2.88 4.63.34 2.28-.99 6.12-2.73 7.72" style="fill:#d6e1b4"/><path d="M84.5 103c.29.29-.45 1.63-.77 1.97-.61.65-8.43 3.73-9.6 3.92-1.03.17-1.9.31-2.62-.65l13-5.25Z" style="fill:#8d685d"/><path d="M55 78c-.23-.06-1.81-2.02-1.92-2.36-.4-1.27.14-1.4.42-2.14.03 1.62.86 3.06 1.5 4.5" style="fill:#c2da7b"/><path d="M81.36 16.11c1.5-.31 9.16-.28 8.63 2.13-1.15 2.88-12.15 2.3-11.49-.48.71-.67 1.93-1.45 2.86-1.65" style="fill:#696969"/><path d="M44.5 72.5c2.69-.49 3.49 2.01 3.54 4.25.02.85-.49 1.76-.41 2.44s2.8 3.72.61 4.3c-3.71.99-3.29-9.04-3.74-10.99M41.75 53c3.28-.94 1.08 6.8 1.2 8.25.09 1.12.78 1.48.95 2.1.67 2.42-2.89 1.96-3.39-.62.07-2.57.18-5.48.46-8.02.07-.58.13-1.53.78-1.72Z" style="fill:#d6e1b4"/></svg>