<svg xmlns="http://www.w3.org/2000/svg" data-name="fill_balewrap" viewBox="0 0 128 128"><defs><linearGradient id="a" x1="-5574.54" x2="-5454.54" y1="-582.3" y2="-581.89" gradientTransform="matrix(.5 0 0 .5 2812 370)" gradientUnits="userSpaceOnUse"><stop offset="0" stop-color="#46b591"/><stop offset=".5" stop-color="#dfefe8"/><stop offset="1" stop-color="#c7e4d7"/></linearGradient><linearGradient id="b" x1="-5452.07" x2="-5401.07" y1="-635.9" y2="-635.38" gradientTransform="matrix(.5 0 0 .5 2812 370)" gradientUnits="userSpaceOnUse"><stop offset="0" stop-color="#5cbb9a"/><stop offset=".63" stop-color="#c4e2d6"/><stop offset="1" stop-color="#c7e4d7"/></linearGradient><linearGradient id="c" x1="-5574.32" x2="-5455.33" y1="-683.51" y2="-682.83" gradientTransform="matrix(.5 0 0 .5 2812 370)" gradientUnits="userSpaceOnUse"><stop offset="0" stop-color="#44b591"/><stop offset=".53" stop-color="#c6e3d7"/><stop offset="1" stop-color="#c7e4d7"/></linearGradient><linearGradient id="d" x1="-5513.83" x2="-5513.79" y1="-695.25" y2="-678.25" gradientTransform="matrix(.5 0 0 .5 2812 370)" gradientUnits="userSpaceOnUse"><stop offset="0" stop-color="#3fb490"/><stop offset="1" stop-color="#235f4d"/></linearGradient></defs><path d="M116 1v82.75c0 .3-.97 2.76-1.22 3.28-3.74 7.7-18.03 10.41-25.73 11.52-.64 6.76 1.97 13.01-3.53 18.22C73.75 127.94 33.1 128.4 23 114.75c-1.01-1.37-1.83-3.29-2-5l-.02-81.52c.95-11.47 20.65-15.19 29.75-15.75 12.45-.76 24.5 3.42 37.02 2.52 7.37-.53 22.04-3.75 25.28-11.22.82-1.9-.08-4.06 2.98-2.77Z" style="fill:#090c0d"/><path d="M85.5 36q.885-.525.78 1.23L86.5 97c.07 4 .74 12.88-1.27 15.98-6.53 10.02-32.89 10.51-43.36 8.4-5.1-1.03-17.22-4.9-17.87-10.88l-.28-73.76c-.07-1.11.18-1.53.78-1.24 1.34.92 2.37 2.02 3.85 2.9 13.8 8.28 44.4 7.96 57.15-2.4" style="fill:url(#a)"/><path d="M113 84c-.39 3.58-5.21 6.61-8.32 7.93-4.73 2.01-10.12 2.91-15.18 3.57.07-23.05-.1-46.05-.5-69-.68-2.47-4.39-5.93-3.73-7.52.77-1.87 6.13-1.71 8.33-2.13 8.43-1.61 11.96-3.1 18.9-7.85q.885-.435.78 1.23z" style="fill:url(#b)"/><path d="M46.39 15.64c10.78-1.04 25.37-.37 34.76 5.45 10.17 6.31 4.24 13.1-4.16 16.65-11.81 4.98-29.71 5.02-41.75.77-7.84-2.77-17.07-8.88-7.48-16.5 4.12-3.27 13.4-5.86 18.63-6.37" style="fill:url(#c)"/><path d="M112.5 9c.17-.11.37-1.2 1-.25L113 84c-.19-24.07.25-48.18 0-72.26 0-.84.33-2.24-.51-2.74Z" style="fill:#c7e4d7"/><path d="M24.5 35.5c-.83.51-.5 1.9-.51 2.74-.24 24.08.19 48.18 0 72.26l-.5-75.25c.63-.95.83.13 1 .25Z" style="fill:#3cae8b"/><path d="m89.5 95.5-.5-69c.09.33.83.95.53 1.69z" style="fill:#73c1a7"/><path d="M86.5 97c-.36-19.28-.26-38.84-.49-58.26 0-.84.33-2.24-.51-2.74.15-.12.69-1.49 1-.75zm-59-52c.64-1.53 2.3-1.33 2.5.25-.5 8.81.66 18.3.02 27.02-.16 2.17-.69 4.18-2.53 1.73V45Zm0 33.75c.1-.51 1.51-2.34 2-1.75.5 1.82 1.03 11.6.03 12.28-.58.39-1.39.18-2.03.22.44-3.14-.6-7.83 0-10.75" style="fill:#c7e4d7"/><path d="M49.88 19.13c5.51-.7 15.65-.37 19.38 4.36 2.13 2.69 1.79 5.98-.75 8.27-5.66 5.09-23.99 5.42-28.11-1.41-3.85-6.36 4.14-10.54 9.48-11.23Z" style="fill:#090c0d"/><path d="M51.39 21.64c2.01-.24 4.87-.33 6.86-.14 4.04.39 13.74 3.56 7.99 8.48-3.73 3.19-11.8 3.39-16.43 2.46-11.84-2.39-8.78-9.57 1.58-10.81Z" style="fill:url(#d)"/></svg>