<svg xmlns="http://www.w3.org/2000/svg" data-name="fill_sunflower" viewBox="0 0 128 128"><path d="M98.37 99.28c1.75 22.31-3.71 25.35-22.2 13.34-9.69 19.58-16.19 19.5-25.89-.08-18.18 12.38-23.97 8.72-22.24-13.18-22.05 1.75-25.28-3.88-13.15-22.22-19.71-9.64-19.51-16.36.19-25.97C2.24 33.15 6.42 27.21 28.1 29.18 26.04 7.94 32.48 2.71 50.11 16.16c9.81-19.71 16.23-20.21 26.11-.28 18.15-12.37 23.99-8.7 22.25 13.19 22.1-1.73 25.18 3.87 13.17 22.19 19.59 9.79 19.55 16.16-.08 25.95 12.18 18.27 8.94 23.89-13.2 22.08Z" style="fill:#4a3726;stroke-width:0"/><path d="M40.04 63.69c.71-30.07 47-29.5 46.21.58.55 30.71-46.45 30.21-46.21-.58" style="fill:#7b5b3b;stroke-width:0"/><path d="M90.97 15.6c2.67 6.91-.27 17.93-5.73 22.12-4.26 3.49-12.05-1.46-9.78-7.05 2.2-7.65 8.25-12.42 15.51-15.06ZM14.64 92.21c2.14-8.35 14.85-22.23 22.22-12.98 4.78 11.28-13.79 15.36-22.22 12.98m20.78-76.55c7.8 2.05 22.16 14.66 12.79 22.1-11 5.31-15.85-14.39-12.79-22.1M14.6 36.14c8.06-2.2 27.08 1.55 22.32 12.87-7.41 9.74-20.16-4.78-22.32-12.87m97.15.33c-2.87 7.73-7.45 13.66-15.92 15.66-5.24 1.4-9.43-5.76-6.15-9.88 4.16-5.52 15.42-8.52 22.07-5.78m.32 55.32c-7.2 2.73-17.55.08-22.15-5.37-3.86-4.04 1.11-12.37 6.79-10.03 7.87 1.88 11.9 8.64 15.36 15.39Zm-76.59 21.1c-2.48-7.41.08-17.23 5.45-21.92 15.38-6.54 12.99 15.99-5.45 21.92m55.75-.13c-8.11-2.05-22.61-15-12.79-22.28 11.19-4.68 15.15 14.24 12.79 22.28M63.22 8.1c6.21 5.96 12.1 24.49-.27 25.73-11.6-1.95-5.81-19.82.27-25.73M7.13 64.2c5.89-6.19 24.3-11.96 25.74.01-1.72 11.94-19.66 6.09-25.74-.01m112.17-.03c-5.17 6.07-24.84 11.67-25.75.07 1.36-12.04 19.88-6.1 25.75-.07m-56.07 56.09c-6.11-6.03-11.82-23.56-.39-25.72 12.42.68 6.57 19.88.39 25.72" style="fill:#e5dd75;stroke-width:0"/></svg>