<svg xmlns="http://www.w3.org/2000/svg" data-name="fill_woodchips" viewBox="0 0 128 128"><defs><linearGradient id="a" x1="374.91" x2="393.62" y1="-451.61" y2="-388.32" gradientTransform="matrix(.5 0 0 .5 -148 296)" gradientUnits="userSpaceOnUse"><stop offset="0" stop-color="#bc7360"/><stop offset="1" stop-color="#9b5848"/></linearGradient><linearGradient id="b" x1="458.11" x2="457.51" y1="-439.12" y2="-387.12" gradientTransform="matrix(.5 0 0 .5 -148 296)" gradientUnits="userSpaceOnUse"><stop offset="0" stop-color="#bc7360"/><stop offset="1" stop-color="#9b5849"/></linearGradient><linearGradient id="c" x1="433.55" x2="433.43" y1="-478.65" y2="-431.65" gradientTransform="matrix(.5 0 0 .5 -148 296)" gradientUnits="userSpaceOnUse"><stop offset="0" stop-color="#bc7360"/><stop offset="1" stop-color="#9c5949"/></linearGradient></defs><path d="M88.34 30.66c1.62 1.6 1.99 5.04 3.43 6.82 1.19 1.48 3.62 2.66 4.95 4.55 1.22 1.72 1.84 4.22 3.06 5.94s3.67 3.27 4.94 5.06 1.84 4.22 3.06 5.94 3.67 3.27 4.94 5.06 1.84 4.22 3.06 5.94 3.67 3.27 4.94 5.06c2.01 2.83 1.8 4.03 4.55 6.93 1.85 1.95.59 2.36.74 4.23.12 1.49 1.29 2.63.99 4.52-.2 1.26-1.61 2.11-1.88 3.15-.24.92.04 1.94-.21 2.79-.36 1.25-2.26 1.52-3.17 2.33-1.65 1.48-1.05 2.64-4.11 3.39-2.88.71-5.85 1.27-8.88 1.12-2.24-.12-5.34-1.04-7.5-1.04-3.09 0-7.33 1.44-10.55 1.5-1.86.03-4.04-1.28-5.98 0-1.8 1.19-.69 2.77-4.44 3.06-3.16.25-13.2.47-15.91-.13-2.02-.45-2.38-2.16-1.86-3.89-2.86-.05-6.23-.63-9.03.22-2.08.63-6.89 5.47-8.7 5.3-2.02-.18-4.29-5.21-5.15-5.52-2.91-1.04-6.46.32-9.37.49-5.1.29-10.06-1.1-14.45-.96-1.14.04-2.56.97-3.58.93-1.21-.04-1.75-1.67-2.75-2.19-1.22-.64-2.87-.35-3.99-1.51-.95-.98-.87-2.54-1.45-3.43s-2.22-.86-2.52-2.61c-.23-1.33.34-2.52.27-3.51-.05-.62-.66-1.25-.75-2.01-.42-3.27 1.18-2.87 1.76-4.69.31-.98.05-2.07.48-3.02.5-1.12 3.93-3.59 4.96-5.04 1.22-1.72 1.84-4.22 3.06-5.94s3.67-3.27 4.94-5.06 1.84-4.22 3.06-5.94 3.67-3.27 4.94-5.06 1.84-4.22 3.06-5.94 3.67-3.27 4.94-5.06 1.84-4.22 3.06-5.94c1.31-1.85 3.46-2.78 4.73-4.27 1.36-1.59 2.04-4.34 3.73-5.77 1.55-1.3 4.02-1.82 5.71-2.79 1.51-.86 3.78-3.23 5.4-3.6 1.92-.43 4.37.09 6.4-.1s3.77-1.22 6-1.02c1.74.15 4.27 1.79 6.14 2.38s4.62.63 6.08 1.42c.94.51 2.79 3.36 4.02 4.48 1.35 1.23 3.77 2.34 4.84 3.41Z" style="fill:#0b0b0c"/><path d="M61 84.5a94 94 0 0 1-7.35-10.19c.72-6.29 1.66-12.53 2.81-18.72.4-1.07 1.03-2.14 2.08-2.69.73-.39 15.47-1.25 16.47-.93 2.84.9 3.42 1.92 2.8 4.92 9.1 0 5.95 6.32 2.86 11.99-2.48 3.94-4.67 8.03-6.59 12.26-1.3 2.17-10.81 7.68-12.58 3.85l-.5-.5Z" style="fill:#0b0b0c"/><path d="M61 84.5c-4.56-3.6-8.34-11.18-12.51-15.74-2.63-2.87-2.23-1.79-5.24-1.76-1.93.01-5.1-.32-6.78.22-2.5.82-2.78 6.43-3.52 8.73-2.7.81-10.44-.67-10.43 3.3 0 .88 3.01 5.11 3.76 6.21 3.44 5.02 7.83 9.45 11.21 14.54-3.37-.25-6.94.9-10.23 1.03s-6.78-.93-10.01-1.06c-1.61-.06-3.33.7-4.49.55s-1.62-1.39-2.63-1.91c-.77-.39-2.05-.39-2.64-.86s-.7-1.89-1.27-2.73c-.5-.73-2.01-1.67-2.13-2.32s.54-1.77.4-2.9c-.12-.93-1.02-1.78-1-2.55.02-.95 1.44-1.65 1.78-2.71.31-.98.05-2.07.48-3.02.5-1.12 3.93-3.59 4.96-5.04 1.29-1.81 1.89-4.47 3.28-6.22 1.27-1.61 3.58-2.5 4.73-4.27 1.03-1.57 1.36-3.77 2.55-5.45 1.26-1.79 3.67-3.27 4.94-5.06s1.84-4.22 3.06-5.94c1.39-1.95 4.05-3.61 5.44-5.56 1.22-1.72 1.84-4.22 3.06-5.94s3.4-3.12 4.71-4.79c.86-1.1 2.37-4.41 2.86-4.77 1.09-.8 3.93-1.51 5.5-2.37 1.39-.77 2.98-2.65 4.51-2.99 1.06-.24 10.32-1.2 11.39-1.12.58.04 10.7 3.03 11.22 3.3 1.27.66 2.34 2.86 3.52 3.98s4.04 2.48 4.87 3.38c1.12 1.23 2.19 5.09 3.43 6.83 1.15 1.62 3.25 2.93 4.44 4.56 2.33 3.18 3.61 5.98 6.45 9.3 2.47 2.9 2.7 4.45 4.61 7.14 1.27 1.79 3.67 3.27 4.94 5.06s1.83 4.24 3.06 5.94 3.03 2.28 4.22 3.78c1.5 1.9 2.21 5.21 3.48 6.89.53.7 1.87.97 2.27 1.87.13.29 1.19 5.86 1.14 6.17-.14.78-1.53 1.77-1.77 2.69s.1 2.64-.19 3.06c-.19.27-2.15.65-2.78 1.22-.54.49-.96 2.09-1.24 2.25-.65.38-2.42-.1-3.54.21-.83.23-1.37 1.19-2.64 1.37-2.19.32-6.1-.87-8.47-.99-5.34-.26-10.43 1.24-15.75 1-.18-.81.13-1.15.49-1.76 2.23-3.83 6.83-7.78 9.43-11.57 2.02-2.96 1.94-3.56-.3-6.53-1.86-2.47-2.69-2.9-5.61-1.14 0-1.36.31-2.5-.73-3.53-.59-.58-8.78-4.39-9.57-4.48-3.26-.36-4.8 5.49-6.11 7.84-3.81 6.83-7.57 13.71-11.59 20.42-.35.18-6.26-.05-6.51-.26-.08-.07.05-1.1 0-1.5 1.72.37 2.5 1.04 4.04-.22.65-.53 3.17-4.8 3.35-5.65.59-2.76-1.34-3.94-2.83-5.97-.42-.57-.35-1.28-.56-1.66 2.98 1.93 9.46-2.38 12.01-4.24 2.26-6.17 7.49-13.16 9.29-19.26 1.06-3.59-3.8-3.99-6.29-3-.37-.38 1.52-3.67-.21-5.04-2.11-1.68-13.28.72-16.53.06-1.59.27-2.31 1.97-2.64 3.36-1.28 5.39-1.19 11.86-2.63 17.35l6.51 10.28Z" style="fill:#6c412f"/><path d="M61.5 85c-.15-.1-.39-.35-.5-.5.15.12.42.36.5.5" style="fill:#6c412f"/><path d="M45.9 69.6c2.44 3.6 5.16 7 7.82 10.44.73.95 1.48 1.85 2.19 2.78.87 1.15 6.56 8.29 6.51 8.84-.05.59-2.22 4.16-2.74 4.32-1.32.4-3.42-2.52-4.18-1.97-.79 1.39-.12 3.94-.75 5-.29.49-8.94 6.42-9.51 6.38L25.49 79.26l9.44-.82c.84-1.53 1.51-8.41 2.88-8.87.64-.21 7.72-.18 8.09.04Z" style="fill:url(#a)"/><path d="M74.56 86.81c1.96-3.98 4.56-7.9 6.77-11.77l8.18 2.97-2 6.49c.97.99 9.48-6.24 8.76.98L81.01 104c-5.18.57-10.6.35-15.61.09l.11-.59c1.56-3.13 3.89-8.16 5.85-10.85.52-.72 2.9-5.21 3.2-5.84" style="fill:url(#b)"/><path d="M74.76 88.69c1.46-2.24 4.72-3.16 3.45 1.19-.92 2.71-3.01 5.91-4.45 8.69-1.32 2.47-3.2 4.43-3.63 2.8-.17-1.47.52-2.83 1.05-4.25 1.14-2.79 1.87-5.87 3.47-8.26l.11-.16ZM33.26 84c.68-.15 1.79 1.25 2.23 1.76 1.06 1.2 6.34 8.2 6.75 9.25.83 2.11-.94 2.61-2.51 1-.96-.99-7.15-9.56-7.24-10.29-.1-.85.1-1.22.76-1.72Z" style="fill:#d6a294"/><path d="m74.5 55.5-2 5.99c2.44-.43 5.02-.88 7.49-.25l-8.62 18.13-7.56 3.56-6.32-9.22 2.52-17.69 14.48-.52Z" style="fill:url(#c)"/><path d="M62.26 59c.97-.21 1.26.97 1.29 1.74.05 1.39-1.55 10.22-2.14 11.41-.83 1.69-2.32.96-2.45-.9-.08-1.1 1.59-9.24 2.05-10.5.2-.54.72-1.65 1.24-1.76Z" style="fill:#d6a294"/></svg>