<svg xmlns="http://www.w3.org/2000/svg" data-name="fill_oyster" viewBox="0 0 128 128"><defs><linearGradient id="a" x1="420.55" x2="420.53" y1="-428.96" y2="-356.96" gradientTransform="matrix(.5 0 0 .5 -148 222)" gradientUnits="userSpaceOnUse"><stop offset="0" stop-color="#c78c22"/><stop offset="1" stop-color="#f2d7a7"/></linearGradient><linearGradient id="b" x1="386.31" x2="401.88" y1="-356.8" y2="-207.73" gradientTransform="matrix(.5 0 0 .5 -148 222)" gradientUnits="userSpaceOnUse"><stop offset="0" stop-color="#cfb88d"/><stop offset=".35" stop-color="#fceaca"/><stop offset="1" stop-color="#fdebcb"/></linearGradient><linearGradient id="c" x1="480.83" x2="475.73" y1="-323.58" y2="-264.81" gradientTransform="matrix(.5 0 0 .5 -148 222)" gradientUnits="userSpaceOnUse"><stop offset="0" stop-color="#c88d23"/><stop offset="1" stop-color="#f2d6a5"/></linearGradient><linearGradient id="d" x1="484.18" x2="470.3" y1="-268.41" y2="-203.9" gradientTransform="matrix(.5 0 0 .5 -148 222)" gradientUnits="userSpaceOnUse"><stop offset="0" stop-color="#d5bd94"/><stop offset=".35" stop-color="#fceac9"/><stop offset="1" stop-color="#fdebcb"/></linearGradient><linearGradient id="e" x1="443.94" x2="444.12" y1="-358.7" y2="-321.69" gradientTransform="matrix(.5 0 0 .5 -148 222)" gradientUnits="userSpaceOnUse"><stop offset="0" stop-color="#cdb58a"/><stop offset="1" stop-color="#f0dcb8"/></linearGradient><linearGradient id="f" x1="471.73" x2="471.54" y1="-365.39" y2="-332.41" gradientTransform="matrix(.5 0 0 .5 -148 222)" gradientUnits="userSpaceOnUse"><stop offset="0" stop-color="#c8b084"/><stop offset="1" stop-color="#e6d0aa"/></linearGradient></defs><path d="M95 39c1.42 5.99.75 11.94.5 18 4.92-.2 9.99.45 14.64 2.11 20.4 7.29 17.44 29.97-4.56 28.97-2.7 5.77-3.48 12.33-3.1 18.7.23 3.73 2.23 10.29 2.01 13.42-.33 4.57-4.8 7.2-9.13 6.2-1.91-.44-6.89-5.05-8.34-6.66-3.97-4.37-7.8-10.41-9.01-16.24-.75-.19-.82.17-1.25.49-1.43 1.07-3.14 3.75-4.74 5.26-9.07 8.62-26.92 18.4-39.5 13.49-8.17-3.19-9.68-10.25-7.76-18.25 4.47-18.65 27.59-30.04 14.84-52.83-.62-1.1-4.7-6.88-5.42-7.11-1.25-.41-8.81 3.45-11.55 3.82C10.8 49.98-1.33 44.63 5.24 30.98 19.46 1.4 78.74-1.61 104.68 10.57c8.52 4 20.05 14.29 15.41 24.77-4.33 9.79-17.2 3.61-25.09 3.66" style="fill:#0e0f0e"/><path d="M111.7 18.8c3.72 3.47 7.59 8.3 6.68 13.83-1.45 8.76-13.34 4.4-19.13 3.87-5.02-.46-11.76-.45-16.64.86-4.54 1.21-8.67 4.15-13.13 5.37-11.28 3.1-20.7-3.29-31.73-2.23-7.59.73-12.16 6.28-20.95 5.44-20.96-2.02-6.53-20.38 2.73-27.15 19.94-14.56 67.09-16.64 87.93-3.5 1.97 1.24 2.68 2.05 4.24 3.51" style="fill:url(#a)"/><path d="M54.65 54.55c1.33-.95-.74-6.1-1.3-8.22-.08-.38-.17-.78.15-.99.5-.21 1.27-.02 1.84.07 2.92.63 5.99.76 8.89 1.17 1.56.47 1.43 2.24 1.7 3.79.11.8.17 1.55.18 2.34-.05 4.6-.05 10.98-2.08 15.01-1.49 2.55-3.92 4.51-5.08 7.37-1.08 2.38-.87 4.96-.85 7.47.2 4.23-3.22 7.34-5.53 10.8-.38.56-.76 1.14-.96 1.76-.43 1.27.43 2.47 1.61 1.69 2.14-1.78 4.05-5.8 5.66-7.94.36-.42.97-.27 1.29-.05.4.23.75.55 1.13.87 3.13 2.9 7.61 3.08 11.88 2.63 2.45-.4 2.4 1.3 2.82 3.64.23 1.27.6 2.61.37 3.89-6.11 12.25-33.84 28.6-46.42 18.36-3.86-3.29-3.88-9.08-2.54-13.64 5.04-17.23 25-28.24 16.73-49.67-1.36-3.83-3.51-5.95-5.64-9.29-.36-.63-.8-1.37-.77-2.06.24-1.33 3.88-.39 5.25-.42 2.35.41 5.12.22 6.94 1.72 1.36 1.4 1.73 5.93 2.4 8.3.24.97 1.25 1.99 2.22 1.48l.1-.07Z" style="fill:url(#b)"/><path d="M66.22 69.32c1.36-1.55 4.84-3.56 6.45-4.41 11.99-6.31 29.97-7.96 41.79-.62 7.61 4.72 9.72 15.34.73 19.65-8.26 3.95-18.32-.77-27.2 1.3-7.03 1.65-25.44 10.64-27.4-2.13-.58-3.78 2.73-10.49 5.63-13.79" style="fill:url(#c)"/><path d="M94.02 100.64c.82 2.15 1.94 1.68 2.22-.02.34-1.64.07-3.45.11-5.15.08-2.73-.24-7.15 3.2-7.38 2.43.06 2.7 2.65 1.8 4.44-1.79 3.88-.69 8.27-.86 12.41-.14 4.47 1.01 8.8 1.41 13.25-.15 9.14-7.55 6.04-11.8 1.4-4.78-4.73-8.51-11.02-10.54-17.11-.67-2.32-2.98-8.75-.31-10.07 1.87-.12 2.48 4.28 2.97 6.06 1.41 4.12 4.76 13.02 9.18 14.36 1.93-.19-1.22-4.16-1.73-5.04-3.21-4.65-4.94-10.43-5.21-16.09-.23-3.5 5.58-5.13 8.02-3.43 2.09 2.34.12 8.81 1.47 12.21l.06.16Z" style="fill:url(#d)"/><path d="M79.72 41.68c.34.32.34.99.35 1.5-.12 5.1.28 10.41-.79 15.38-1.13 1.76-3.69 2.01-5.37 3.04-1.43.62-3.19 1.97-4.78 2.78-1.4.69-1.21-1.02-1.09-1.92.91-4.96.28-10.09.19-15.07.02-.8.29-1.45 1.01-1.84 3.1-1.12 6.1-2.7 9.11-3.87.4-.14.95-.28 1.27-.07l.09.07Z" style="fill:url(#e)"/><path d="M92.02 39.11c.49.36.64 1 .74 1.6.66 4.96 1.2 9.83.15 14.7-.65 2.14-3.08 1.68-5.19 2.15-1.44.02-4.44 1.2-5.39.53-.22-.23-.28-.67-.25-1.33.15-2 .41-4.34.59-6.39.3-2.54.18-3.98.01-6.45-.15-1.86-.45-4.28 1.96-4.54 2.3-.36 5.04-1.06 7.28-.34z" style="fill:url(#f)"/><path d="M68.09 70.27c.99-.79 10.9-6.7 9.45-2.61-.41.74-1.3 1.46-2.05 1.96-3.06 1.92-6.27 3.42-8.07 6.84-1.1 1.92-1.33 4.44-1.85 6.56-.25.93-.55 1.55-.98 1.73-1.09.34-1.85-1.18-2.13-2.21-1.02-4.48 2.15-9.77 5.48-12.16l.16-.11ZM25.14 18.63c.57 1.11-.96 2.62-1.94 3.26-4.31 2.97-9.54 7.41-11.15 12.16-.62 1.63-.5 3.57-1.09 5.19-.63 1.69-2.18 1.5-2.5-.18-.36-2.51.87-5.25 1.91-7.54 1.8-4.15 5.43-7.38 9.13-10.39 1.32-.89 4.28-3.69 5.6-2.57l.05.08Zm39.55 20.76c.69 2.01-2.44 2.26-3.83 2.05-3.25-.31-9.95-1.34-12.95-2.31-.75-.23-1.84-.81-1.88-1.57.92-2.9 9.86 1.03 12.2.83 1.96.31 4.86-.44 6.39.88l.07.11ZM28.66 16.71c.48-.92 1.66-1.63 2.63-2.12 2.61-1.26 5.2-2.93 7.99-3.24 3.35-.22 2.33 1.84.08 2.94-1.42.79-3.03 1.45-4.54 2.1-2.33.95-4.35 2.18-5.62 1.79-.65-.14-.9-.74-.6-1.34l.06-.12Z" style="fill:#fbe9ca"/><path d="M37.83 90.9c.79-.11 1.71.51 1.56 1.37-.56 1.8-2.59 3-3.5 4.65-2.91 4.29-4.74 9.02-4.85 14.23-.02.88-.62 2.15-1.59 1.71-2.17-1.39-.5-7.86.49-10.5 1.27-2.96 4.92-9.57 6.99-11.11.23-.16.49-.27.76-.33z" style="fill:#fefdfb"/><path d="M50.44 81.44c-.4.28-1.47.09-1.97-.16-1.31-.83 1.45-5.75 1.88-7.17.7-2.25 1.21-6.19 2.02-7.98s2.65-1.47 2.64.6c0 1.7-3.7 14.1-4.58 14.71Z" style="fill:#131413"/></svg>