<svg xmlns="http://www.w3.org/2000/svg" data-name="fill_oilsoy" viewBox="0 0 128 128"><defs><linearGradient id="a" x1="56.41" x2="56.41" y1="3.94" y2="124.19" gradientUnits="userSpaceOnUse"><stop offset="0" stop-color="#eaf6fb"/><stop offset="1" stop-color="#d5edf5"/></linearGradient><linearGradient id="b" x1="1010.22" x2="1010.29" y1="-870.01" y2="-803.01" gradientTransform="matrix(.5 0 0 .5 -444 518)" gradientUnits="userSpaceOnUse"><stop offset="0" stop-color="#faf294"/><stop offset="1" stop-color="#eecd25"/></linearGradient><linearGradient id="c" x1="1008.12" x2="1008.13" y1="-895.92" y2="-875.92" gradientTransform="matrix(.5 0 0 .5 -444 518)" gradientUnits="userSpaceOnUse"><stop offset="0" stop-color="#faf294"/><stop offset="1" stop-color="#f1d742"/></linearGradient><linearGradient id="d" x1="-1848.14" x2="-1916.32" y1="991.13" y2="1115.53" gradientTransform="matrix(.5 0 0 .5 1036 -444)" gradientUnits="userSpaceOnUse"><stop offset="0" stop-color="#ecdc66"/><stop offset="1" stop-color="#ddbb42"/></linearGradient><linearGradient id="e" x1="-1870.6" x2="-1966.78" y1="1015.08" y2="1079.31" gradientTransform="matrix(.5 0 0 .5 1036 -444)" gradientUnits="userSpaceOnUse"><stop offset="0" stop-color="#ddbb41"/><stop offset=".38" stop-color="#ddbb42"/><stop offset="1" stop-color="#ecdc66"/></linearGradient><linearGradient id="f" x1="-1918.25" x2="-1897.61" y1="1048.38" y2="1049.06" gradientTransform="matrix(.5 0 0 .5 1036 -444)" gradientUnits="userSpaceOnUse"><stop offset="0" stop-color="#fef3b9"/><stop offset="1" stop-color="#fedf6e"/></linearGradient><linearGradient id="g" x1="-1928.82" x2="-1954.22" y1="1069.33" y2="1069.47" gradientTransform="matrix(.5 0 0 .5 1036 -444)" gradientUnits="userSpaceOnUse"><stop offset="0" stop-color="#fedd69"/><stop offset="1" stop-color="#fef5bd"/></linearGradient></defs><path d="M97.66 70.55c2.68-13.26 1.29-26.18-9.26-35.49-4.19-3.7-9.77-6.78-15.19-8.05.17-1.38-.45-7.23.02-7.89.23-.31 3.3-1.43 4.37-3.38.99-1.82.9-7.38-.21-9.17-4.3-6.86-21.99-6.78-27.7-1.74-3.09 2.72-3.08 10.63.21 13.22.64.51 2.19.94 2.28 1.33.15.61.18 7.33-.07 7.62-.15.17-3.99 1.41-4.21 1.39-.93-.11-2.25-2.58-2.91-3.17C27.08 9.04 4 32.95 18.17 49.79c2.51 2.99 5.35 3.93 8.41 6.09-.29 7.36 1.1 14.57 2.82 21.68 3.38 13.94 9.41 29.54 16.5 42 1.06 1.87 2.02 4.08 3.99 5.01 5.95 2.82 20.16 3.13 25.89-.15 3.3-1.88 4.75-7.95 7.13-10.86 5.81-8.69 19.51-43.9 14.75-43.01M34.17 38.31c-1.08 1.29-4.16 6.78-4.5 7.03-.65.47-2.85-.95-3.35-1.45-6.2-6.24.39-17.24 9.53-12.78 5.42 2.66.86 4.16-1.68 7.2" style="fill:#0d0f0f"/><path d="M96.16 56.05c-.73-7.37-4.61-14.74-10.26-19.49-4.26-3.58-9.74-6.35-15.19-7.55l-.07-11.13c5.7-1.49 7.42-9.23 1.97-12.03-4.85-2.49-15.5-2.69-20.12.28-3.34 2.14-3.47 7.88-.3 10.14.62.43 2.9 1.23 2.99 1.61l-.07 11.13-8.94 3.04c-7.34-17-32.37-9.3-29.39 9.13.77 4.82 3.52 7.56 7.38 9.87 1.05.26 1.81.65 2.5 1.5.14.06.35-.05.5 0 2.85.98 2.68 1.16 2.5 4.25-1 16.75 8.81 43.25 16.74 58.26.55 1.04 3.47 6.49 3.88 6.87.59.56 6.93 2.01 8.13 2.12 4.03.35 13.47.17 16.74-2.26 1.09-.81 6.11-10.2 5.93-11.37-.11-.73-.98-1.5-.93-2.37-2.53 2.21-4.37 9.59-7.2 11.04-4.08 2.08-11.39 2.15-15.82 1.24-3.88-.81-5.01-1.08-7.06-4.44-5.29-8.69-13.54-29.72-14.38-39.65-.54-6.43 9.95-8.46 14.78-9.13 10.32-1.42 21.77-.84 31.91 1.47.52-4.74 5.36-4.01 8.04-1.54 1.78 1.64.57 3.01.94 3.52 1.19 1.64 2.99.59 3.56-1 1.27-3.53 1.61-9.78 1.24-13.51M35.67 40.81c-1.08 1.34-4.13 7.27-4.5 7.5-1.61 1-6.2-1.76-7.35-2.92-.66-.67-1.61-2.89-1.9-3.85-4.16-13.66 15.3-20.06 20.2-6.79-2.14 1.85-4.67 3.86-6.45 6.06m18.72-28.74c-1.18-.89-.55-2.15.62-2.44.89-.23 3.11.81 4.4.92 1.62.13 3.9.13 5.52.02 1.41-.09 5.32-1.13 5.92-.98 1.07.27 1.3 2.29-.04 2.86-3.1 1.31-13.75 1.66-16.42-.38" style="fill:url(#a)"/><path d="M73.56 114.2c-1.8 2.87-2.41 3.07-5.78 3.72-4.76.93-10.02.37-14.5-1.5-5.91-11.21-11.49-23.29-13.62-35.88 2.9 1.46 6.18 2.34 9.39 2.86 10.81 1.76 21.39 1.23 32.09-.84-.27 1.46 1.5 5.36 1.42 6.15-.04.39-2.67 3.21-3.2 7.75-1 8.54-5.17 16.72-5.8 17.73Z" style="fill:url(#b)"/><path d="M81.66 71.05c-.43 2.99-1.25 5.92-1.02 8.98-1.81.05-3.52.69-5.29.96-9.16 1.41-25.47 1.5-33.88-2.5-2.04-.97-3.87-1.83-2.56-4.45 1.1-2.21 10.51-4.09 13.06-4.43 9.87-1.33 19.98-.52 29.69 1.44" style="fill:url(#c)"/><path d="M79.57 91.53c-.54 3.51-2.24 7.16-2.78 10.54-.69 3.02-2.36 5.17-4.19 7.27-.85.97-2.23 4.18-3.62 2.81-.35-.61-.06-1.65.25-2.35.73-1.56 1.61-3.04 2.34-4.61 2.36-4.6 3.49-9.55 5.3-14.37 1.02-3.28 2.78-1.84 2.7.52v.18Z" style="fill:#faf5c1"/><path d="M24.16 51.05h2.5v1.5c-1.56-.64-1.54-.93-2.5-1.5" style="fill:#d8ecf3"/><path d="M23.82 45.39c-.66-.67-1.61-2.89-1.9-3.85-4.16-13.66 15.3-20.06 20.2-6.79-2.15 1.85-4.68 3.86-6.45 6.06-1.08 1.34-4.13 7.27-4.5 7.5-1.61 1-6.2-1.76-7.35-2.93Zm2.5-1.5c.5.5 2.7 1.92 3.35 1.45.34-.25 3.42-5.73 4.5-7.02 2.54-3.04 7.1-4.55 1.67-7.2-9.14-4.47-15.73 6.53-9.52 12.77" style="fill:#0d0f0f"/><path d="M55 9.63c.89-.22 3.11.82 4.4.92 1.61.13 3.9.13 5.52.02 1.4-.09 5.32-1.13 5.92-.98 1.08.27 1.3 2.29-.04 2.86-3.1 1.32-13.75 1.66-16.42-.37-1.18-.9-.55-2.15.62-2.45" style="fill:#171b1c"/><path d="M71.03 100.6c-4.61 1.4-9.35 2-13.96.23-4.96-1.9-13.61-9.01-8.5-15.16 1.54-1.85 6.86-2.78 9.32-3.71 13.54-5.07 25.68-15.98 34.39-27.97 3.13-4.31 6.68-13.17 13.11-8.94 4.21 2.77 8.4 10.32 8.77 15.57.42 5.93-1.31 8.27-3.32 13.22-2.8 6.92-.49 13.05-4.84 19.78-2.1 3.25-5.43 5.03-7.81 7.76-1.32 1.51-2.46 4.89-3.71 6.77-5.06 7.61-13.44 8.2-21.33 5.79-3.2-.98-6.56-2.9-6.21-7.1.27-3.21 2.24-4.19 4.08-6.25Z" style="fill:#070603"/><path d="M96.6 100.78c-2.07 2.67-2.83 6.3-5.62 8.98-4.92 4.74-13.9 4.61-19.65 1.73-2.49-1.25-3.67-4.26-1.93-6.8 1.2-1.76 4.92-4.39 6.63-6.18 9.61-10.03 16.18-23.54 19.73-37.33.97-3.75 1.5-9.32 2.68-12.61s4.44-3.53 6.86-1.52c5.66 4.69 8.54 12.88 6.58 20.32-.91 3.45-3.62 7.12-4.16 10.71-.58 3.81.09 6.88-1.34 10.89-2.2 6.2-6.35 7.36-9.79 11.8Z" style="fill:url(#d)"/><path d="M95.18 56.31c-.18.2-.65.23-.91.43-3.09 2.45-5.46 6.16-4.9 10.51.17 1.38 1.4 2.9 1.45 3.84.05.91-.88 1.99-.89 2.98L86.11 72c-10.92-2.48-18.49 16.54-4.45 17.07-.94.79-1.51 2.38-2.35 3.18-.77.73-1.6.72-2.37 1.26-2.19 1.54-2.84 3.58-5.72 4.94-7.26 3.42-17.69 1.69-21.89-6.08-1.53-2.82-.45-5.53 2.33-6.62 2.86-1.12 6.09-1.76 9.02-2.99 14.29-6.04 26.56-18.13 35.3-31.42.26.84-.38 4.5-.81 4.98Z" style="fill:url(#e)"/><path d="M86.57 80.9c-.28.54-.66 1.32-1.01 1.92-.58 1.02-2.06 3.69-2.94 4.12-2 .97-5.18.14-6.33-1.91C72.9 79.05 81.5 71.19 86.9 74c.41.21 1.72 1.48 1.82 1.87.15.6-1.72 4.19-2.15 5.03" style="fill:url(#f)"/><path d="M93.74 60.53c.73.55 0 2.84-.26 3.75-.15.5-1.32 4.75-1.91 4.42-1.07-.6-.69-4.03-.37-5.12.26-.89 1.44-3.88 2.54-3.05m4.64-4.44c.57-.2 1.28.01 1.29.74.01.94-.95 4.79-1.25 5.94-.39 1.46-2.06 6.8-2.86 7.68-.73.81-1.64.52-1.44-.57.95-2.39 2-4.75 2.69-7.25.53-1.92.7-3.84 1.12-5.76.08-.35.08-.64.46-.78ZM80.09 96.54c.68-.2 1.13.31.94 1.01-.04.15-1.59 2.08-1.87 2.42-.99 1.2-5.24 5.6-6.36 6.15-1.04.51-1.96-.2-1.19-1.28.34-.48 1.81-1.31 2.39-1.87.97-.93 5.55-6.27 6.1-6.43Z" style="fill:#fdf7d0"/><path d="M59.9 84.9c3.64-3.38 13.03-3.04 14.25 3.05 1.73 8.57-10.35 14.18-15.83 8.39-1.95-2.06-2.36-5.22-1.12-7.85.32-.67 2.18-3.12 2.69-3.59Z" style="fill:#0c0b06"/><path d="M51.62 89c-.59.74-.08 2.21-1.85 1.81-.58-2.78 2.78-5.47 5.02-3.95.37 1.4-2.4 1.17-3.17 2.13Z" style="fill:#fdf7d0"/><path d="M78.62 77.28c.71-.23 1.47.1 1.23 1.01-.15.57-1.35 1.29-1.61 2.73-.18.95.72 3.16-1.12 2.51-1.33-.47-.06-5.75 1.51-6.24Z" style="fill:#fefdf7"/><path d="M59.32 95.13c-2.27-2.43-1.17-6.95 1.4-8.57.56-.35 1.09-.18 1.45-.38 1.4-.78 1.55-1.54 3.4-1.68 3.85-.3 8.21 1.72 7.03 6.57-1.28 5.26-9.74 7.86-13.28 4.06" style="fill:url(#g)"/><path d="M65.42 86.07c.32 1.87-1.11 1.54-2.27 2.15-1.17.62-1.76 1.3-2.38 2.51-.17.33-.32 1.26-.39 1.31-.68.51-1.54-.09-1.33-1.25.18-.99 2.18-3.65 2.91-4.01.67-.33 1.34.43 1.11-1.03l2.36.32Z" style="fill:#fefdf7"/></svg>