<svg xmlns="http://www.w3.org/2000/svg" data-name="fill_bowl" viewBox="0 0 128 128"><path d="M30.23 107.4c-4.86-4.26-9.73-8.01-13.99-12.37-9.08-9.3-13.72-20.5-12.65-33.67.39-4.8 3.71-7.88 7.38-10.45 6.39-4.45 13.77-6.38 21.23-8.08 14.21-3.24 28.67-3.44 43.06-2.69 13.4.7 26.77 2.59 38.92 9.03 4.81 2.55 9.33 5.94 10.07 11.72.8 6.26-.03 12.51-2.42 18.51-4.47 11.21-12.5 19.29-22.18 26-.68.47-1.39.9-2.01 1.3 1.49 7.66.14 11.05-6.81 14.07-10.99 4.78-22.44 6.08-34.15 5.18-7.05-.54-13.86-2.64-20.36-5.6-6.05-2.76-7.95-6.8-6.1-12.95Z" style="fill:#4a3726;stroke-width:0"/><path d="M65.12 80.03c-14.98-.47-28.66-1.27-41.73-6-3.34-1.21-6.51-3.04-9.5-5-3.84-2.52-4.1-7.27-.7-10.43 4.67-4.33 10.59-6.18 16.59-7.66 9.38-2.31 18.92-3.4 28.6-3.61 14.03-.29 27.92.39 41.53 4.08 5.42 1.47 10.73 3.3 14.92 7.26 3.54 3.35 3.18 7.44-.67 10.38-5.97 4.56-13 6.56-20.18 7.87-6.29 1.14-12.7 1.7-19.07 2.39-3.66.4-7.35.54-9.8.71Z" style="fill:#7b5b3b;stroke-width:0"/><path d="M13.44 77.59c24.18 12.32 76.67 12.4 100.73.18-3.02 11.45-20.36 27.1-41.56 30.07-29.7 4.17-53.34-14.22-59.17-30.25" style="fill:#a5805b;stroke-width:0"/><path d="M90.6 110.07v2.67c-17.78 8.29-35.42 8.3-53.2.03v-2.66c17.76 7.24 35.32 7.29 53.2-.04" style="fill:#7b5b3b;stroke-width:0"/></svg>