<svg xmlns="http://www.w3.org/2000/svg" data-name="fill_oilradish" viewBox="0 0 128 128"><defs><linearGradient id="a" x1="-1737.63" x2="-1559.44" y1="83.93" y2="238.66" gradientTransform="translate(888)scale(.5)" gradientUnits="userSpaceOnUse"><stop offset="0" stop-color="#56b37f"/><stop offset="1" stop-color="#225b39"/></linearGradient><linearGradient id="b" x1="80.61" x2="105.57" y1="6.37" y2="107.25" gradientUnits="userSpaceOnUse"><stop offset="0" stop-color="#479067"/><stop offset="1" stop-color="#316947"/></linearGradient></defs><path d="M67.72 51.79c.2.26.75.41.79.93.75.85.39-.38.27-.74-.96-2.83-2.96-5.17-4.22-7.78C56.8 28.17 57.64 11.71 76.24 5c18.36-6.62 34.17 1.89 35.7 21.82.33 4.29-.64 10.48.16 14.33s5.47 9.76 6.58 14.82c1.6 7.29-.58 10.38-2.35 16.63-2.03 7.21.69 7.83 2.12 13.72 2.31 9.55-9.66 18.18-7.35 29.32.43 2.06 5.54 7.24 2.4 9.12-1.87 1.12-9-2.37-11.5-3.02-6.53-1.67-9.79-.23-15.78-.72-10.37-.85-11.28-10.03-19.6-11.9-6.95-1.56-11.61-.69-17.87-5.63-5.13-4.05-7.48-10.44-11.5-14-1.57-1.39-5.53-2.71-7.6-3.9C17.62 78.65 5.86 69.76 9.22 53.98c3.51-16.51 22.37-30.74 39.11-22.57 9.69 4.73 13.26 12.5 19.38 20.38Z" style="fill:#080c0c"/><path d="M111.5 122c-4.6-1.03-9.06-3.45-13.81-3.94-5.16-.53-9.19 1.37-14.59-.41-4.76-1.56-5.73-5.11-9.09-7.91-5.95-4.95-13.92-2.96-20.52-6.48s-8.05-8.36-12.5-13.5c-4.44-5.12-13.13-7.59-18.95-12.05-13.11-10.05-14.12-23.77-3.3-36.22 13.66-15.72 29.24-11.5 40.98 3.54 2.3 2.95 4.52 7.9 7.26 10.24 4.35 3.71 10.97 4.99 15.53 9.47 6.93 6.81 4.88 16.12 11.75 22.25 3.05 2.72 6.97 3.74 8.83 7.67 2.22 4.69 1.43 10.26 2.78 15.22 1.18 4.34 3.49 8.23 5.63 12.12" style="fill:url(#a)"/><path d="M115.88 86.87c1.14 6.48-2.06 9.09-4.65 14.11-.57 1.09-1.67 4.85-2.22 5.28-2.02 1.58-1.43-4.3-1.51-5.01-.59-5.27-1.89-9-5.99-12.51-4.17-3.56-6.9-3.25-9.25-9.25-3.6-9.17-3.54-15.14-13.26-20.99-.95-.57-6.65-2.67-6.92-3.08-.14-.2-.42-3.69-.84-4.91-1.07-3.11-3.91-6.85-5.33-10.17-6.09-14.23-4.19-28.03 11.98-33.2 17.02-5.44 29 1.84 31.11 19.36.58 4.78-.05 9.9.63 14.62.8 5.59 6.3 11.07 6.89 17.61.78 8.59-5.01 14.04-2.99 21.99.51 2.01 2.02 4.21 2.35 6.15" style="fill:url(#b)"/><path d="M50 66.5c-.04-1.08.09-2.17 0-3.25-.29-3.57-1.51-8.09-1.54-11.5-.02-1.88.99-3.4 2.44-1.4 1.15 6.48 1.25 13.27 2.89 19.61l14.47 13.03c1.15.26.82-1.07.76-1.76-.37-5.07-1.86-10.11-1.52-15.23.57.09 1.52-.19 1.93.07.84.55 2.12 17.54 2.81 19.94 7.88 7.23 17.11 13.87 24.77 21.23.97.93 3.82 3.2 2.38 4.65-.63.63-1.37.42-2.05.06-2.73-1.47-7.23-7.17-9.71-7.83-3.05-.81-11.8 2.05-13.16 1.16-.85-.97-.76-2.01.36-2.69 2.05-1.24 7.29-.47 9.66-1.84-11.1-9.2-21.31-19.39-32.51-28.49-.53-.34-1.11-.31-1.71-.29-4.27.14-9.66 1.5-14.09 1.96-1.8.19-4.79 1.18-5.16-1.13l1.32-1.21c5.36-.67 11.02-.81 16.15-2.35-5.8-5.55-12.35-10.35-17.92-16.08l.68-1.67 18.74 15q.19.15 0 0Z" style="fill:#326948"/><path d="M42.98 86.51c-1.47-1.6-3.24-3.26-5.49-4.28-.73-.36-1.57-.65-2.16-1.19-.9-.78-.47-1.91.83-2.01 2.81.14 5.3 2.11 7.28 3.95 4.73 4.58 7.8 11.46 13.18 14.95 1.05.77 4.93 2.02 3.31 3.64-6.96 1.39-12.77-10.71-16.82-14.91l-.13-.14Zm-21.96-16.9c1.08 1.01 3.13 2.77 2.84 4.03-.17.69-.88.81-1.7.51-2.65-1.23-4.51-4.15-6.03-6.62-2.43-3.87-2.83-8.21-2.04-12.71.39-2.02.83-4.7 2.79-5.68.71-.33 1.38-.25 1.6.26.45.93-.78 3.07-1.34 5.03-1.67 5.05.16 11.34 3.74 15.04zm45.25-36.08c-.48-.22-.86-1.08-.99-1.74-1.46-6.24.06-13.27 5.09-17.74 1.43-1.18 3.99-3.16 5.8-2.08.62.82-1.05 2.21-1.85 2.79-3.91 2.44-6.49 6.86-6.74 11.47-.33 1.77 1.86 7.67-1.21 7.35z" style="fill:#a7d3b8"/><path d="M50 66.5c.24-.24.8.46.25.5-.17.01-.36-.39-.25-.5" style="fill:#449467"/><path d="M91.63 36.75c.57-.91 1.3-1.74 1.83-2.68 1.77-3.11 3.32-7.53 5.22-10.36 1.05-1.56 2.74-2.25 2.8.23-2.71 6-6.46 11.66-8.68 17.82l4.58 18.93c.8.87 1.28-.42 1.63-1.02 2.56-4.4 4.17-9.4 7.35-13.43.42.39 1.37.7 1.55 1.15.38.93-8.16 15.68-8.94 18.04 2.42 10.41 4.53 19.51 1.79 19.09-3.96-13.86-6.64-28.04-10.75-41.87-.24-.58-.74-.88-1.24-1.21-3.61-2.29-8.82-4.21-12.74-6.33-1.59-.86-4.62-1.73-3.62-3.85l1.77-.25c4.8 2.47 9.55 5.55 14.65 7.18-1.66-7.85-4.35-15.51-5.71-23.39l1.51-.99 7 22.96q.07.23 0 0Z" style="fill:#326948"/></svg>