<svg xmlns="http://www.w3.org/2000/svg" data-name="fill_carp" viewBox="0 0 128 128"><path d="m121.67 76.35-.32.35c-.08.08-.15.16-.23.23-1.81 1.83-2 2.58-2 2.59-.07.37.24 1.8.46 2.85.39 1.79.87 4.01 1.06 6.79.04.55.02 1.11-.06 1.66-.77 5.56-4.92 9.29-10.32 9.29s-10.82-3.74-17.8-9.02c-1.1-.83-2.58-1.95-3.15-2.31-.08-.04-.15-.07-.23-.11-.39.6-.86 1.19-1.42 1.76-.13.13-.27.25-.41.38-2.05 1.79-4.53 2.73-7.16 2.73-5.54 0-9.28-4.02-12.02-6.96-.48-.53-1.2-1.3-1.55-1.6-.07-.03-.18-.07-.3-.1-1.55 2.5-4.32 5.55-9.44 5.55-1.16 0-2.38-.17-3.7-.52-.21-.04-.76-.08-1.13-.11-2.08-.18-5.22-.44-8.01-2.72-1.93-1.57-2.95-3.55-3.62-4.87-.03-.07-.08-.16-.12-.25-.83-.19-1.74-.35-2.69-.51-2.58-.46-5.5-.97-8.56-2.32-2.52-.98-5.18-1.8-7.98-2.68-2.24-.69-4.54-1.41-6.88-2.24-7.16-2.58-11.23-6.53-12.1-11.75-.84-5.06 1.53-9.89 7.04-14.35 2.01-1.74 4.08-3.09 5.91-4.28 1.27-.83 2.47-1.61 3.46-2.4.02-.01.03-.03.05-.04 2.79-2.19 5.51-3.73 8.31-4.69 4.1-1.42 8.39-2.15 12.76-2.15 1.27 0 2.55.07 3.81.19.55.05 1.1.11 1.66.17.92.1 1.79.19 2.46.19.41 0 .57-.04.57-.04.03 0 .05-.01.07-.01.5-.21 1.69-1.18 2.48-1.83 1.29-1.05 2.74-2.24 4.51-3.27 2.22-1.35 4.61-2.06 6.92-2.06 3.24 0 6.16 1.34 8.27 3.79.84.94 1.47 1.89 2.03 2.73.29.43.72 1.07.92 1.29 1.45 1.35 3.14 2.63 4.92 3.98 3 2.29 6.11 4.65 8.89 7.85.49.56 1.05 1.16 1.63 1.78 1.63 1.75 3.47 3.73 4.97 6.14.09.14.17.28.25.43.71 1.3 1.1 2.54 1.34 3.55.16.01.35.02.56.02 1.88 0 4.4-.5 6.83-.99 2.91-.58 5.91-1.18 8.85-1.18h.6c.24 0 .5-.01.77-.01.46-.02.94-.03 1.42-.03 4.51 0 7.93 1.49 10.17 4.43.43.57.79 1.2 1.05 1.87 2.47 6.16-2.08 10.99-3.8 12.81" style="fill:#4a3726;stroke-width:0"/><path d="M115.45 71.29c-7.24 7.27-3.36 10.23-2.79 18.42-.24 1.72-1.12 2.4-2.4 2.4-4.74 0-14.88-9.41-17.48-10.54-1.4-.73-6.08-3.83-8.29-3.83-.37 0-.67.09-.88.29l-.05.06c-.8 1.79.08 5.03-1.57 6.69-.61.53-1.25.76-1.9.76-3.21 0-6.67-5.66-9.16-7.25-1.37-.92-3.61-1.56-5.71-1.56s-4.04.62-4.9 2.2c-1.05 2.15-1.63 3.5-3.54 3.5-.48 0-1.04-.09-1.72-.27-2.06-.53-4.69-.14-6.06-1.28-1.25-1-1.8-3.51-3.2-4.84-.67-.68-1.49-1.17-2.39-1.51-3.77-1.09-7.7-1.12-11.38-2.78-4.97-1.95-10.2-3.28-15.23-5.07-7.75-2.79-9.61-6.85-2.63-12.43 2.92-2.58 6.33-4.25 9.23-6.57 1.81-1.43 3.78-2.66 5.98-3.42a31 31 0 0 1 10.14-1.71c1.03 0 2.05.06 3.07.16 1.58.13 3.24.39 4.86.39.84 0 1.67-.07 2.47-.26 3.44-.78 6.02-4.17 9.25-6.01.86-.54 1.87-.94 2.83-.94.83 0 1.62.3 2.25 1.06 1.1 1.2 2.01 3.15 3.43 4.53 4.29 3.99 9.5 6.91 13.32 11.3 1.94 2.24 4.28 4.4 5.84 6.9.91 1.67.69 3.25 1.32 4.61 1.87 2.4 4.58 3.16 7.62 3.16 5.15 0 11.23-2.17 15.68-2.17h.6c.67 0 1.43-.04 2.19-.04 1.48 0 2.97.18 3.8 1.27.63 1.59-1.44 3.52-2.6 4.78" style="fill:#cbb256;stroke-width:0"/><circle cx="31.03" cy="50.14" r="2.51" style="fill:#4a3726;stroke-width:0"/></svg>