<svg xmlns="http://www.w3.org/2000/svg" data-name="fill_pasta" viewBox="0 0 128 128"><path d="M23.54 97.69c-4.25-3.73-8.52-7.01-12.25-10.83C3.35 78.72-.71 68.91.23 57.38c.34-4.21 3.25-6.9 6.47-9.15 5.59-3.9 12.06-5.59 18.59-7.07 12.44-2.83 25.1-3.02 37.7-2.36 11.73.61 23.44 2.27 34.07 7.9 4.21 2.23 8.17 5.2 8.82 10.26.7 5.48-.02 10.95-2.12 16.21-3.91 9.81-10.95 16.89-19.42 22.76-.59.41-1.21.79-1.76 1.14 1.31 6.7.12 9.67-5.97 12.32-9.62 4.19-19.65 5.33-29.9 4.54-6.17-.48-12.14-2.31-17.82-4.91-5.29-2.42-6.96-5.95-5.34-11.34Z" style="fill:#4a3726;stroke-width:0"/><path d="M54.09 73.73c-13.11-.41-25.1-1.12-36.53-5.26-2.92-1.06-5.7-2.66-8.31-4.38-3.36-2.21-3.59-6.37-.61-9.13 4.09-3.79 9.27-5.41 14.52-6.71 8.21-2.02 16.56-2.98 25.04-3.16 12.28-.26 24.44.34 36.36 3.57 4.75 1.29 9.4 2.89 13.06 6.36 3.1 2.94 2.78 6.51-.59 9.09C91.8 68.1 85.65 69.86 79.36 71c-5.51 1-11.12 1.49-16.7 2.1-3.21.35-6.44.47-8.58.62Z" style="fill:#7b5b3b;stroke-width:0"/><path d="M8.85 71.59c21.17 10.79 67.12 10.86 88.19.15-2.65 10.02-17.82 23.73-36.39 26.33-26 3.65-46.7-12.45-51.8-26.48" style="fill:#a5805b;stroke-width:0"/><path d="M76.41 100.03v2.33c-15.57 7.26-31.01 7.26-46.58.03v-2.33c15.55 6.34 30.92 6.38 46.58-.03" style="fill:#7b5b3b;stroke-width:0"/><path d="M22.02 56.98c-1.18 0-2.34-.32-3.35-.93a6.52 6.52 0 0 1-2.23-8.94c4.22-7.02 10.52-15.65 16.59-16.89l.1-.02q.945-.18 1.89-.18c4.37 0 8.2 2.73 11.9 5.37.8.57 2.18 1.56 3.3 2.25.61-.96 1.29-2.19 1.69-2.91 2.27-4.07 4.83-8.68 9.62-9.95.76-.2 1.53-.3 2.3-.3 4.54 0 8.19 3.46 11.12 6.24.27.26.59.56.92.87.16-.36.32-.71.45-1.01 1.86-4.24 3.98-9.04 8.96-10.35.73-.19 1.47-.29 2.21-.29 4.56 0 7.72 3.59 10.26 6.62v-.02c1.58-3.77 3.36-8.01 7.27-9.88 1.15-.55 2.43-.83 3.79-.83 1.92 0 3.97.55 6.11 1.63 1.65.84 7.13 3.96 8.1 9.08.33 1.71-.03 3.45-1.01 4.89a6.46 6.46 0 0 1-4.17 2.74q-.615.12-1.23.12c-2.69 0-5.12-1.7-6.08-4.18-.03-.03-.06-.05-.1-.08-.25.56-.47 1.11-.65 1.53-1.69 4.03-4.01 9.56-9.36 10.58q-.645.12-1.32.15h-.38c-4.64 0-7.83-3.6-10.4-6.65-.02.06-.05.11-.07.16-1.97 4.49-4.41 10.04-10.37 10.57-.27.02-.54.04-.81.04-4.54 0-8.03-3.31-11.11-6.23-.39-.37-.89-.85-1.41-1.32-.46.77-.92 1.59-1.26 2.2-2.5 4.48-5.33 9.56-10.91 10.21-.39.05-.79.07-1.2.07-4.35 0-8.16-2.71-11.84-5.34-.75-.54-2.7-1.92-3.9-2.61-1.67 1.55-5 5.68-7.85 10.42A6.56 6.56 0 0 1 22 56.97Z" style="fill:#d3cb8c;stroke-width:0"/><path d="M108.81 17.83c1.59 0 3.35.47 5.21 1.42 1.03.52 6.22 3.34 7.04 7.67a4.523 4.523 0 0 1-4.44 5.37c-1.98 0-3.75-1.3-4.33-3.23-.46-.61-1.71-1.47-2.69-1.92-.55.98-1.22 2.57-1.67 3.64-1.61 3.85-3.59 8.56-7.89 9.39-.33.06-.67.1-1.03.12h-.29c-3.89 0-6.69-3.34-9.16-6.29-.48-.57-1.14-1.36-1.74-2.01-.5.95-1.03 2.16-1.41 3.03-1.84 4.2-3.93 8.94-8.71 9.37q-.315.03-.63.03c-3.74 0-6.79-2.89-9.74-5.69-.9-.86-2.27-2.15-3.22-2.84-.8 1.01-1.87 2.94-2.58 4.2-2.37 4.25-4.83 8.66-9.39 9.2-.32.04-.65.06-.97.06-3.71 0-7.25-2.52-10.68-4.97-1.58-1.13-4.17-2.97-5.34-3.28-1.82 1.04-6.12 6.43-9.28 11.69a4.53 4.53 0 0 1-3.88 2.19c-.79 0-1.59-.21-2.32-.65a4.524 4.524 0 0 1-1.55-6.2c3.28-5.47 9.63-14.81 15.28-15.96.03 0 .06-.01.09-.02.5-.1 1-.14 1.5-.14 3.73 0 7.29 2.54 10.74 5 1.47 1.05 3.83 2.73 5.06 3.18.82-.89 2.06-3.11 2.84-4.51 2.17-3.9 4.42-7.93 8.38-8.98.61-.16 1.2-.23 1.79-.23 3.71 0 6.9 2.99 9.74 5.69.82.78 2.03 1.93 2.96 2.64.55-.98 1.19-2.43 1.62-3.42 1.76-4.01 3.59-8.16 7.63-9.21.59-.15 1.15-.23 1.7-.23 3.8 0 6.66 3.43 9.02 6.25.49.59 1.17 1.4 1.79 2.06.47-.94.96-2.13 1.32-2.97 1.5-3.58 3.05-7.28 6.28-8.82.89-.42 1.87-.63 2.93-.63m.02-4c-1.66 0-3.23.34-4.65 1.02-3.54 1.69-5.51 4.82-7 8.02-2.42-2.55-5.52-4.94-9.68-4.94-.9 0-1.82.12-2.72.36-5.23 1.37-7.73 5.83-9.58 9.9-2.89-2.68-6.66-5.72-11.36-5.72-.94 0-1.89.12-2.81.37-5.61 1.48-8.52 6.7-10.85 10.9-.13.24-.35.62-.6 1.06-.61-.42-1.17-.82-1.48-1.04-3.78-2.69-8.06-5.74-13.07-5.74-.76 0-1.52.07-2.25.21l-.09.02h-.03l-.03.01c-5.45 1.11-11.47 7.11-17.91 17.82-2.42 4.03-1.11 9.27 2.92 11.69 1.32.8 2.84 1.22 4.38 1.22a8.56 8.56 0 0 0 7.31-4.13c2.32-3.86 4.84-7.11 6.44-8.9.94.62 1.95 1.35 2.43 1.68 3.76 2.68 8.01 5.71 13 5.71.48 0 .97-.03 1.45-.09 6.57-.77 9.8-6.55 12.39-11.21 3.12 2.94 6.96 6.36 12.04 6.36.32 0 .65-.01.98-.04 5.86-.52 8.81-4.93 10.82-9.09 2.46 2.58 5.6 5.01 9.85 5.01h.46c.55-.02 1.09-.09 1.61-.18 5.57-1.07 8.31-6.01 10.09-10.04a8.53 8.53 0 0 0 7.34 2.08c2.24-.43 4.17-1.7 5.45-3.58a8.45 8.45 0 0 0 1.32-6.39c-1.15-6.01-7.31-9.54-9.16-10.49-2.42-1.23-4.78-1.85-7.01-1.85Z" style="fill:#4a3726;stroke-width:0"/><path d="M24.78 71.41c-1.18 0-2.34-.32-3.35-.93-3.08-1.85-4.08-5.87-2.23-8.95 4.22-7.02 10.52-15.65 16.59-16.89l.11-.02c.62-.12 1.25-.18 1.88-.18 4.37 0 8.2 2.73 11.9 5.37.8.57 2.18 1.56 3.29 2.24.61-.97 1.29-2.19 1.7-2.91 2.27-4.06 4.83-8.67 9.62-9.94.76-.2 1.53-.3 2.3-.3 4.54 0 8.19 3.46 11.12 6.24.27.26.59.56.92.87.17-.37.32-.72.44-1.01 1.87-4.24 3.98-9.04 8.96-10.35.73-.19 1.48-.29 2.21-.29 4.56 0 7.72 3.59 10.26 6.62 0-.02.01-.03.02-.05 1.57-3.74 3.35-7.99 7.26-9.85 1.15-.55 2.43-.83 3.79-.83 1.92 0 3.97.55 6.11 1.63 1.65.84 7.13 3.96 8.1 9.08a6.537 6.537 0 0 1-6.41 7.75c-2.69 0-5.13-1.7-6.08-4.18-.03-.03-.06-.05-.1-.08-.24.54-.47 1.09-.65 1.53-1.69 4.03-4.01 9.55-9.36 10.58-.42.08-.86.13-1.31.15h-.38c-4.65 0-7.83-3.6-10.4-6.65-.02.06-.05.11-.07.17-1.97 4.49-4.41 10.04-10.37 10.57-.27.02-.54.04-.81.04-4.54 0-8.03-3.31-11.11-6.24-.39-.37-.9-.85-1.41-1.32-.46.77-.92 1.59-1.26 2.2-2.5 4.49-5.33 9.56-10.91 10.21-.39.05-.79.07-1.2.07-4.35 0-8.16-2.71-11.84-5.34-.75-.54-2.7-1.92-3.9-2.61-1.66 1.55-4.99 5.68-7.85 10.42a6.56 6.56 0 0 1-5.59 3.16Z" style="fill:#d3cb8c;stroke-width:0"/><path d="M111.57 32.26c1.59 0 3.35.47 5.21 1.42 1.03.52 6.22 3.34 7.04 7.67a4.523 4.523 0 0 1-4.44 5.37c-1.98 0-3.75-1.3-4.33-3.23-.46-.61-1.71-1.47-2.69-1.92-.55.98-1.22 2.57-1.67 3.64-1.61 3.85-3.59 8.56-7.89 9.39-.33.06-.67.1-1.03.12h-.29c-3.89 0-6.69-3.34-9.16-6.29-.48-.57-1.14-1.36-1.74-2.01-.5.95-1.03 2.16-1.41 3.03-1.84 4.2-3.93 8.94-8.71 9.37q-.315.03-.63.03c-3.74 0-6.79-2.89-9.74-5.69-.9-.86-2.27-2.15-3.22-2.84-.8 1.01-1.87 2.94-2.58 4.2-2.37 4.25-4.83 8.66-9.39 9.2-.32.04-.65.06-.97.06-3.71 0-7.25-2.52-10.68-4.97-1.58-1.13-4.17-2.97-5.34-3.28-1.82 1.04-6.12 6.43-9.28 11.69a4.53 4.53 0 0 1-3.88 2.19c-.79 0-1.59-.21-2.32-.65a4.524 4.524 0 0 1-1.55-6.2c3.28-5.47 9.63-14.81 15.28-15.96.03 0 .06-.01.09-.02.5-.1 1-.14 1.5-.14 3.73 0 7.29 2.54 10.74 5 1.47 1.05 3.83 2.73 5.06 3.18.82-.89 2.06-3.11 2.84-4.51 2.17-3.9 4.42-7.93 8.38-8.98.61-.16 1.2-.23 1.79-.23 3.71 0 6.9 2.99 9.74 5.69.82.78 2.03 1.93 2.96 2.64.55-.98 1.19-2.43 1.62-3.42 1.76-4.01 3.59-8.16 7.63-9.21.59-.15 1.15-.23 1.7-.23 3.8 0 6.66 3.43 9.02 6.25.49.59 1.17 1.4 1.79 2.06.47-.94.96-2.13 1.32-2.97 1.5-3.58 3.05-7.28 6.28-8.82.89-.42 1.87-.63 2.93-.63m.02-4c-1.66 0-3.23.34-4.65 1.02-3.54 1.69-5.5 4.82-7 8.02-2.42-2.55-5.52-4.94-9.68-4.94-.9 0-1.82.12-2.72.36-5.23 1.37-7.73 5.83-9.58 9.9-2.89-2.68-6.66-5.72-11.36-5.72-.94 0-1.89.12-2.81.37-5.61 1.48-8.52 6.7-10.85 10.9-.13.24-.35.62-.6 1.06-.61-.42-1.17-.82-1.48-1.04-3.78-2.69-8.06-5.74-13.07-5.74-.76 0-1.52.07-2.25.21l-.09.02h-.03l-.03.01C29.92 43.8 23.9 49.8 17.46 60.51c-2.42 4.03-1.11 9.27 2.92 11.69 1.32.8 2.84 1.22 4.38 1.22a8.56 8.56 0 0 0 7.31-4.13c2.32-3.86 4.84-7.11 6.44-8.9.94.62 1.95 1.35 2.43 1.68 3.76 2.68 8.01 5.71 13 5.71.48 0 .97-.03 1.45-.09 6.57-.77 9.8-6.55 12.39-11.21 3.12 2.94 6.96 6.36 12.04 6.36.32 0 .65-.01.98-.04 5.86-.52 8.81-4.93 10.82-9.09 2.46 2.58 5.6 5.01 9.85 5.01h.46c.55-.02 1.09-.09 1.61-.18 5.57-1.07 8.31-6.01 10.09-10.04a8.53 8.53 0 0 0 7.34 2.08c2.23-.43 4.17-1.7 5.45-3.58a8.45 8.45 0 0 0 1.32-6.39c-1.15-6.01-7.31-9.54-9.16-10.49-2.42-1.23-4.78-1.85-7.01-1.85Z" style="fill:#4a3726;stroke-width:0"/><path d="M101.12 45.71c-.33.06-.67.1-1.03.12-4.05.17-6.92-3.26-9.46-6.28-.48-.57-1.14-1.36-1.74-2.01-.5.95-1.03 2.16-1.41 3.03-1.84 4.2-3.93 8.94-8.71 9.37-4.03.35-7.25-2.71-10.37-5.66-.9-.86-2.27-2.15-3.22-2.84-.8 1.01-1.87 2.94-2.58 4.2-2.37 4.25-4.83 8.66-9.39 9.2-4.07.49-7.92-2.25-11.65-4.91-1.58-1.13-4.17-2.97-5.34-3.28-1.82 1.04-6.12 6.43-9.28 11.69a4.526 4.526 0 0 1-6.2 1.55 4.524 4.524 0 0 1-1.55-6.2c3.28-5.47 9.63-14.81 15.28-15.96l.09-.02c4.28-.82 8.33 2.07 12.25 4.86 1.47 1.05 3.83 2.73 5.06 3.18.82-.89 2.06-3.11 2.84-4.51 2.17-3.9 4.42-7.93 8.38-8.98 4.48-1.18 8.24 2.34 11.53 5.46.82.78 2.03 1.93 2.96 2.64.55-.98 1.19-2.43 1.62-3.42 1.76-4.01 3.59-8.16 7.63-9.21 4.67-1.23 8.01 2.8 10.72 6.03.49.59 1.17 1.4 1.79 2.06.47-.94.96-2.13 1.32-2.97 1.5-3.58 3.05-7.28 6.28-8.82 2.22-1.06 5.03-.79 8.14.78 1.03.52 6.22 3.34 7.04 7.67a4.522 4.522 0 0 1-8.77 2.15c-.46-.61-1.71-1.47-2.69-1.92-.55.98-1.22 2.57-1.67 3.64-1.61 3.85-3.59 8.56-7.89 9.39Zm-65.09.89" style="fill:#f3f34e;stroke-width:0"/></svg>