<svg xmlns="http://www.w3.org/2000/svg" xmlns:xlink="http://www.w3.org/1999/xlink" data-name="fill_parsnip" viewBox="0 0 128 128"><defs><linearGradient id="b" x1="-323.25" x2="-268.64" y1="-85.63" y2="79.58" gradientTransform="matrix(.5 0 0 .5 222 74)" gradientUnits="userSpaceOnUse"><stop offset="0" stop-color="#d3bda1"/><stop offset="1" stop-color="#e7e2da"/></linearGradient><linearGradient id="a" x1="56.52" x2="50.52" y1="29.75" y2="12.32" gradientUnits="userSpaceOnUse"><stop offset="0" stop-color="#45662a"/><stop offset=".36" stop-color="#4a6b2e"/><stop offset="1" stop-color="#4f7032"/></linearGradient><linearGradient xlink:href="#a" id="c" x1="63.02" x2="57.04" y1="27.58" y2="10.2"/><linearGradient xlink:href="#a" id="d" x1="50.57" x2="43.6" y1="31.5" y2="20.35"/><linearGradient xlink:href="#a" id="e" x1="68.37" x2="67.39" y1="25.13" y2="11.18"/></defs><path d="m63 13.5.96-4.28c1.33 0 6.88-1.04 7.46-.15l1.16 19.09c.34 1.18 2.22 1.56 3.16 2.34 3 2.48 5.19 5.53 6.24 9.31l8.51 74.94c.05 2.14.6 5.76-2.26 6.25-3.02.52-3.53-.56-4.81-2.67C70.7 97.5 60.95 73.36 48.57 52.17c-1.36-2.94-1.87-6.22-1.59-9.45.22-2.55 1.5-4.34 1.82-6.74l-9.74-15.35c-.32-1.71 5.52-5.81 6.96-3.91L48 19.99c.14-2.23-2.9-6.66-1.76-8.51.45-.73 12.83-4.66 14.01-4.52 1.64.2 2.37 4.94 2.76 6.53Z" style="fill:#0b0d0d"/><path d="M75.83 34.17c4.11 4.32 3.5 8.4 4.17 13.58 2.83 21.78 6.4 45.2 8 67 .12 1.64.42 5.5-1.74 3.24-.54-.57-2.86-5.26-3.52-6.48-9.12-16.85-18.39-34.4-27-51.5-3.77-7.49-8.95-14.28-4.15-22.68 4.81-8.42 17.5-10.24 24.24-3.16" style="fill:url(#b)"/><path d="M54.5 29.98c-1.06-.7-1.07-2.47-1.44-3.64-.88-4.26-2.56-7.12-3.8-11.05-.82-1.87.86-3.36 2.75-3.16 1.51.19 1.57 2.06 1.98 3.22.76 2.58 1.48 5.07 2.45 7.71.74 2.15 2.41 4.89.85 6.1-.7.58-1.76 1.14-2.66.87l-.12-.05Z" style="fill:url(#a)"/><path d="M64.22 27.14c-.69.4-2.63.63-3.47-.09-.63-.52-.8-1.46-1.03-2.23-.83-3.02-1.56-5.91-2.92-8.93-.49-1.18-1.1-2.48-1.14-3.73-.14-1.65 1.98-2.64 3.31-1.83 1.25.9 1.26 2.78 1.75 4.15.87 3.47 2.68 7.61 3.71 11.34.16.61.18 1-.12 1.25l-.09.06Z" style="fill:url(#c)"/><path d="M51 33.78c-.48-.05-.89-.59-1.17-1.02-1.24-1.94-2.35-3.61-3.64-5.55-1.17-2.01-3.38-4.4-3.62-6.65 0-.53.27-1.03.73-1.23 2.27-.69 3.69 4.38 4.93 5.86.77 1.99 5.86 7.09 2.9 8.59h-.12Z" style="fill:url(#d)"/><path d="M68.28 25.13c-2.28.41-2.6-13.51-.48-13.98.23-.04.46.15.66.52.6 1.17.7 2.78.79 4.13.15 2.58.53 4.8.19 7.09-.13.78-.41 1.84-1.07 2.21l-.08.03Z" style="fill:url(#e)"/><path d="M54.75 52.5c-.96-.29-1.21-2.52.07-2.93 1.37-.44 4.22.08 5.92-.08 1.93-.17 4.99-.94 6.75-1.75 1.29-.59 5.63-4.5 6.46-1.94.62 1.92-2.02 3.21-3.47 3.94-1.02.52-7.01 2.76-7.74 2.76-1.77 0-6.79.36-8 0Zm26.16 24.92c-.09.13-2.24 1.54-2.55 1.69-3 1.48-6.07 1.55-9.36 1.39l.3-2.05c1.71-.69 3.46-.3 5.24-.67 1.95-.41 4.28-2.57 5.29-2.72 1.12-.17 1.57 1.65 1.09 2.36Zm-17.29-41.3c.65-.6 2.65-.66 3.65-1.1 1.56-.67 3.48-2.94 4.69-1.2 1.96 2.82-6.17 5.85-8.48 4.45-.75-.46-.32-1.72.14-2.15m15.71 29.45c.87-.24 1.71.19 1.69 1.18-.06 2.5-8.41 5.32-9.02 2.49-.31-1.46 4.16-1.56 5.36-2.13.77-.37 1.41-1.38 1.97-1.54" style="fill:#d5c2aa"/></svg>