<svg xmlns="http://www.w3.org/2000/svg" viewBox="0 0 128 128"><path d="M115.6 79.87c3.09 4.51 2.45 8.87-.59 13.16-1.47 2.07-2.72 4.29-4.09 6.43-3.07 4.76-10.03 7.59-15.46 6.26-.91-.22-2.03-.45-2.59-1.08-2.14-2.42-4.95-2.29-7.78-2.64-3.97-.5-7.96-1.15-11.82-2.21-4.64-1.27-9.14-1.5-13.73 0-9.87 3.24-19.75 3.22-29.68.16-2.2-.68-4.54-1.09-6.84-1.2-5.82-.27-10.5-3.52-12.03-8.66-1.63-5.45.16-10.47 4.96-13.94.42-.3.85-.59 1.97-1.37-2.17-.16-3.64-.29-5.11-.37C5.42 74 .34 68.78.52 61.76c.18-6.89 5.39-11.85 12.62-12.01.92-.02 1.84 0 3.36 0-.8-.86-1.16-1.31-1.58-1.69-4.28-3.81-5.63-9.04-3.61-14.08 1.96-4.91 6.78-8.21 12.35-7.71 4.72.42 9.44 1.28 14.03 2.47 4.67 1.21 9.17 1.44 13.75-.08 10-3.31 20-3.24 29.97.07 2.48.82 4.19 1.17 5.98-1.73 2.6-4.21 12.18-5.69 16.58-3.01 3.52 2.15 6.96 4.46 10.29 6.89 3.9 2.84 4.87 7.95 2.47 12.19-.83 1.47-1.83 2.84-2.92 4.52 2.83 1.72 5.61 3.4 8.38 5.11 5.43 3.35 6.89 8.38 3.5 13.83-2.91 4.69-4.69 10.31-10.08 13.35Z" style="fill:#4a3726;stroke-width:0"/><path d="M106.3 59.78c-.29-.38-.4-.55-.54-.71-1-1.06-2.01-2.11-3.01-3.16 2.07-.54 4.49-2.02 6.14-1.41 3.41 1.26 6.46 3.57 9.53 5.63.41.28.46 1.76.12 2.38-1.58 2.88-3.01 5.96-5.19 8.33-1.28 1.4-3.86 1.62-5.85 2.37-.25-.69-.8-1.43-.69-2.05.16-.87.82-1.66 1.39-2.73-3.64.61-7 1.23-10.37 1.72-6.63.98-13.11.16-19.42-1.92-8.47-2.79-16.84-2.53-25.28.18-9.35 3-18.7 2.75-28.11-.13-3.8-1.16-7.86-1.53-11.84-2.03-2.91-.37-4.63-1.75-4.58-4.21.05-2.33 1.99-4.31 4.71-4.05 4.4.41 8.93.74 13.11 2.04 8.83 2.76 17.39 2.74 26.19-.09 9.33-3 18.78-2.82 28.12.28 8.55 2.84 17.02 2.68 25.58-.45ZM95.92 49.56c.97-1.78 1.56-2.85 2.3-4.2-.75 0-1.31-.1-1.83.01-7 1.53-13.91 1.08-20.69-1.12-6.26-2.02-12.5-2.13-18.74-.06-8.33 2.77-16.59 2.71-24.96.04-2.78-.89-5.79-1.13-8.72-1.45-3.03-.33-4.91-1.89-4.66-4.44.27-2.82 2.03-4.14 4.8-3.88 3.04.29 6.2.35 9.07 1.26 7.84 2.49 15.48 2.65 23.38.12 7.34-2.35 14.85-2.06 22.2.4 6.21 2.08 12.4 1.86 19.25.33-1.71-1.51-2.97-2.61-4.8-4.23 3.62-1.09 6.28-2.58 9.19-.18 1.22 1 2.65 1.73 3.95 2.64 5.25 3.68 5 2.38 1.6 7.76-.85 1.34-1.81 2.61-2.63 3.97-1.9 3.15-4.82 3.21-8.71 3Zm.45 35.07c-.24-.69-.26-.8-.31-.88-.92-1.21-1.84-2.41-2.77-3.61 2.21-.32 4.7-1.45 6.56-.79 3.01 1.07 5.68 3.22 8.32 5.16.58.43.88 2.13.51 2.82-1.54 2.89-3.05 5.92-5.23 8.28-1.23 1.34-3.74 1.52-5.72 2.08-.11.03-.93-1.38-.84-2.03.13-.84.85-1.59.98-1.82-3.98 0-8.11.38-12.14-.09-5.22-.61-10.33-2.31-15.56-2.78-4.02-.36-8.35-.26-12.19.87-9.05 2.67-17.85 2.89-26.83-.04-2.57-.84-5.39-.98-8.11-1.26-2.75-.29-4.62-1.93-4.4-4.36.23-2.62 1.82-4.16 4.45-3.91 3.56.34 7.19.68 10.61 1.65 7.14 2.02 14.15 2.28 21.25 0 7.93-2.54 15.86-2.32 23.75.27 5.8 1.91 11.61 1.62 17.68.44Z" style="fill:#7ecde7;stroke-width:0"/></svg>