<svg xmlns="http://www.w3.org/2000/svg" data-name="fill_table" viewBox="0 0 128 128"><defs><linearGradient id="a" x1="1016.01" x2="1016" y1="-1289.98" y2="-1238.98" gradientTransform="matrix(.5 0 0 .5 -444 666)" gradientUnits="userSpaceOnUse"><stop offset="0" stop-color="#a77533"/><stop offset="1" stop-color="#d2a875"/></linearGradient><linearGradient id="b" x1="1016" x2="1016" y1="-1227" y2="-1221" gradientTransform="matrix(.5 0 0 .5 -444 666)" gradientUnits="userSpaceOnUse"><stop offset="0" stop-color="#d3a977"/><stop offset="1" stop-color="#c09258"/></linearGradient><linearGradient id="c" x1="1110.42" x2="1110.41" y1="-1207.99" y2="-1105.99" gradientTransform="matrix(.5 0 0 .5 -444 666)" gradientUnits="userSpaceOnUse"><stop offset="0" stop-color="#a77533"/><stop offset=".76" stop-color="#d2a775"/><stop offset="1" stop-color="#d3a977"/></linearGradient><linearGradient id="d" x1="921.32" x2="921.36" y1="-1207.01" y2="-1105.01" gradientTransform="matrix(.5 0 0 .5 -444 666)" gradientUnits="userSpaceOnUse"><stop offset="0" stop-color="#a77533"/><stop offset=".76" stop-color="#d2a775"/><stop offset="1" stop-color="#d3a977"/></linearGradient></defs><path d="M117.5 61.5V86c-.03 9.23.04 18.49-.02 27.73-.62 1.77-1.24 3.48-3.25 3.73-4.35.55-8.83.6-9.25-4.68-.5-6.35.42-13.36.03-19.78-2.15-.05-4.39.51-6.01-1.24-.25-.27-1.49-2.37-1.49-2.51V61.5H30.5v27.75c0 .13-1.06 1.96-1.28 2.22-1.67 1.92-3.91 1.59-6.22 1.53-.5 6.47.68 13.92.01 20.26-.19 1.78-1.54 3.74-3.36 4.14-3.06.66-8.5.81-9.12-3.18-1.41-9 1.39-20.73-.55-29.95L10 50.75l7.59-32.41.72-.78h91.37l.72.78c1.61 7.09 3.13 14.18 4.73 21.27.66 2.92 2.41 7.05 2.65 9.86.28 3.28-.31 8.38-.28 12.02Z" style="fill:#0c0d0d"/><path d="M117.5 86c.03-8.16.06-16.34 0-24.5z" style="fill:#7c7c7c"/><path d="m108 20.5 6.5 28h-101l6.5-28z" style="fill:url(#a)"/><path d="M13 51.5h102v7H13z" style="fill:url(#b)"/><path d="M108.5 61.5c2.15-.1 4.35.07 6.5 0v52.25c0 1.48-5.75 1.77-6.76.76-1.23-1.23-.71-7.89-.74-10.01.28-6.96.44-14.13.5-21.5-.43-7.05-.48-14.4-.1-21.32z" style="fill:url(#c)"/><path d="m19.5 61.5.64.37c.26 6.41.33 13.14-.14 19.63.41 6.15.43 12.34 0 18.5-.01 2.14.32 13.73-.22 14.53-.64.96-6.78.73-6.78-.78V61.5c2.15.07 4.35-.1 6.5 0" style="fill:url(#d)"/><path d="M27.5 88.75c-.34 1.92-2.97 1.83-4.5 1.75.02-5.82-.02-11.67 0-17.5.02-3.83-.01-7.68 0-11.5h4.22L27.5 73c-.59 4.69.8 11.32 0 15.75M105 71v19.5c-1.53.08-4.16.17-4.5-1.75.02-5.91-.03-11.84 0-17.75.02-3.16-.01-6.34 0-9.5h4.22z" style="fill:#7a5e3a"/><path d="M19.01 40c-.79-1.27.27-2.85.44-3.79.38-2.07 1.84-10.79 2.6-11.92 1.2-1.78 2.58-.73 2.43 1.39-.17 2.27-2.05 10.44-2.81 12.72-.43 1.3-2.13 2.43-2.65 1.59Z" style="fill:#f8d3a3"/></svg>