<svg xmlns="http://www.w3.org/2000/svg" viewBox="0 0 128 128"><path d="M51.08 93.96c-2.33-3.19-4.66-6.38-7.08-9.7-7.03 1.81-10.41.23-13.89-6.76-7.36-14.8-4.97-32.42 5.94-44.87 10.92-10.71 28.98 4.25 35.73 14.08.52-.04 1.13-.09 1.81-.15-13-10.99-5.48-47.36 12.25-33.73 7.03 7.46 14.01 14.98 20.83 22.63C117.02 50.4 95.3 53.88 84.58 51.83c9.85 16.52 9.83 32.9-.24 49.16-7.97 12.05-26.13-.42-33.25-7.02Z" style="fill:#4a3726;stroke-width:0"/><path d="M52.62 96.31c3.78 4.74 2.77 11.1-2.38 14.24-3.59 2.19-7.25 4.26-10.93 6.3-3.11 1.73-6.35 1.82-9.42 0-13.4-7.96-21.46-19.9-25.36-34.76-1.05-3.99 1.32-8.2 5.01-10.07 3.92-1.99 8.27-1.16 11.49 2.27C29.1 82.9 38.53 89.52 49.5 93.9c.46.18 2.69 1.88 3.12 2.42Zm47.6 7.55c-7.49.05-12.03-5.68-10.27-11.88 1.59-5.62 3.39-11.19 5.21-16.74 1.18-3.6 3.75-5.87 7.5-6.45 3.84-.59 7.03.76 9.33 3.96 3.26 4.53 6.54 9.04 9.71 13.63 4.53 6.55 1.07 14.28-6.78 15.35-5.25.71-10.49 1.53-14.71 2.15Z" style="fill:#4a3726;stroke-width:0"/><path d="M66.13 62.72c3.16-3.26 5.24-7.33 9.96-10.01 1.87 2.8 3.99 5.21 5.26 8.02 5.64 12.49 4.21 24.56-2.73 36.17-1.04 1.73-2.31 2.19-4.37 1.66-8.74-2.23-15.89-6.82-21.52-13.85-1.46-1.82-1.37-3.29.13-5.08 2.74-3.26 5.27-6.7 8.31-10.61 1.36 3.31 2.48 6.04 3.6 8.77.56 1.35 1.05 2.73 1.68 4.05 1 2.1 2.87 2.33 4.65 1.47 1.73-.84 2.31-2.51 1.53-4.43-2.11-5.25-4.23-10.5-6.5-16.14Zm-16.39 5.45c-2.75 3.05-5.32 6.12-8.15 8.94-1.8 1.79-3.3.72-4.35-1.18-3.49-6.34-5.08-13.14-4.18-20.32.82-6.56 3.43-12.45 7.61-17.64 1.59-1.97 3.21-2.45 5.71-1.66 7.1 2.22 13.06 6.01 17.79 11.77 1.56 1.9 1.61 3.49-.28 5.21-2.96 2.71-5.81 5.54-8.77 8.38-2.38-3.17-.96-8.64-5.66-10.54-3.7 1.08-4.44 2.47-3.33 5.89 1.15 3.56 2.3 7.12 3.6 11.16Z" style="fill:#a5b95f;stroke-width:0"/><path d="M77.77 16.49c1.38.74 2.81 1.11 3.66 2.02 6.58 6.99 13.05 14.07 19.53 21.16.54.59.85 1.37 1.24 2.02-.78 3.6-3.86 3.04-6 3.21-8.17.65-16.51.43-20.77-8.12-3.29-6.61-1.36-13.33 2.33-20.28ZM13.7 77.79c.9.56 1.99.95 2.67 1.71 8.15 9.04 18.02 15.61 29.14 20.38 1.9.82 2.57 1.85 1.91 4.12-3.66 2.1-7.48 4.43-11.45 6.45-.9.46-2.59.25-3.51-.32-10.75-6.7-17.38-16.48-20.75-28.55-.3-1.07.48-2.44.75-3.68l1.24-.12Zm89.7-2.4c1.11.68 2.55 1.1 3.28 2.07 3.18 4.21 6.18 8.57 9.21 12.91 1.31 1.87.7 3.74-1.51 4.14-4.83.86-9.68 1.6-14.55 2.19-2.31.28-3.64-1.04-3.04-2.99 1.75-5.74 3.73-11.41 5.63-17.11.05-.16.24-.27.37-.4l.62-.8Z" style="fill:#50984f;stroke-width:0"/></svg>