<svg xmlns="http://www.w3.org/2000/svg" data-name="fill_oatmeal" viewBox="0 0 128 128"><path d="M30.23 107.62c-4.86-4.26-9.73-8.01-13.99-12.37-9.08-9.3-13.72-20.5-12.65-33.67.39-4.8 3.71-7.88 7.38-10.45 6.39-4.45 13.77-6.38 21.23-8.08 14.21-3.24 28.67-3.44 43.06-2.69 13.4.7 26.77 2.59 38.92 9.03 4.81 2.55 9.33 5.94 10.07 11.72.8 6.26-.03 12.51-2.42 18.51-4.47 11.21-12.5 19.29-22.18 26-.68.47-1.39.9-2.01 1.3 1.49 7.66.14 11.05-6.81 14.07-10.99 4.78-22.44 6.08-34.15 5.18-7.05-.54-13.86-2.64-20.36-5.6-6.05-2.76-7.95-6.8-6.1-12.95Z" style="fill:#4a3726;stroke-width:0"/><path d="M65.12 80.25c-14.98-.47-28.66-1.27-41.73-6-3.34-1.21-6.51-3.04-9.5-5-3.84-2.52-4.1-7.27-.7-10.43 4.67-4.33 10.59-6.18 16.59-7.66 9.38-2.31 18.92-3.4 28.6-3.61 14.03-.29 27.92.39 41.53 4.08 5.42 1.47 10.73 3.3 14.92 7.26 3.54 3.35 3.18 7.44-.67 10.38-5.97 4.56-13 6.56-20.18 7.87-6.29 1.14-12.7 1.7-19.07 2.39-3.66.4-7.35.54-9.8.71Z" style="fill:#7b5b3b;stroke-width:0"/><path d="M13.44 77.81c24.18 12.32 76.67 12.4 100.73.18-3.02 11.45-20.36 27.1-41.56 30.07-29.7 4.17-53.34-14.22-59.17-30.25" style="fill:#a5805b;stroke-width:0"/><path d="M90.6 110.3v2.67c-17.78 8.29-35.42 8.3-53.2.03v-2.66c17.76 7.24 35.32 7.29 53.2-.04" style="fill:#7b5b3b;stroke-width:0"/><path d="M80.03 33.8c4.03-.38 6.18.97 7.95 5.08 7.4-2.36 24.57 4.07 12.31 11.49 2.46 5.58-2.53 10.51-7.92 7.3-.02.13-.39 0-.2.28 2.04 4 1.17 6.48-3.11 8.57 3.26 7.98-4.57 10.22-10.4 5.87 5.97 9.64-5.96 18.51-11.25 7.86-1.97-5.22-3.7-10.33-5.71-15.55-1.4 6.89-9.36 9.74-11.65 1.77-3.94 1.93-8.09-.89-7.79-5.54-1.55 6.19-9.26 7.51-10.97.44-4.77 2.22-9.92-2.82-7.03-7.37 2.23-3.76 4.83-7.18 8.81-9.22-4.26-14.5 11.22-9.28 18.94-6.63-1.49-4.91-4.75-9.51-.99-14.16 4.23-6.07 8.31-12.24 12.32-18.45C66.3-.51 75.4.52 76.29 7.43c5.27-.96 15.66-.34 16.29 6.13.05 2.47-1.2 4.13-4.13 5.34 2.93 5.11-2.73 10.66-7.71 7.32-.08.11-.38.06-.24.33 1.49 2.45 1.26 4.68-.43 6.97l-.12-.02c.01.07.08.16.14.2l-.05.11ZM49.24 51.14c-1.6-.47-3.37-.98-4.88-1.41l-1.09 8.59c2.24-1.68 3.91-4.95 5.97-7.18M77.4 24.38c-2.54-1.67-4.77-3.64-6.3-6.55-1.15 1.73-2.23 3.36-3.16 4.76l9.29 2.09c.01-.13.07-.23.17-.3m11.64 31.47c-2.08-1.86-4.16-3.72-6.3-5.64-.82 1.23-1.78 2.67-2.61 3.92 2.95.68 5.84 1.34 8.74 2a.43.43 0 0 1 .18-.29Z" style="fill:#4a3726;stroke-width:0"/><path d="M58.25 29.23c3.25 8.93 6.46 17.74 9.77 26.83 3-2.71 11.16-20.45 14.54-17.65 1.16.72 1.34 2.05.32 3.59-4.29 6.5-8.62 12.91-12.91 19.41.46 3.43 8.6 17.95 4.59 18.98-4.2 1.31-5.21-9.72-7.04-12.54-2.15-5.92-4.3-11.84-6.48-17.82-7.45-2.2-14.83-4.34-22.27-6.52-1.74-.51-2.55-1.6-2.21-2.86.35-4.61 18.58 3.9 22.46 4.05-1.12-5.46-6.24-12.39-4.75-17.55C57.03 24.26 67.74 3.03 70.81 6.2c4.28 1.56-11.11 19.34-12.57 23.04Z" style="fill:#ad996e;stroke-width:0"/><path d="M86.13 44.77c2.58-2.98 10.45-2.02 13.92.37-1.67 1.79-4.15 1.65-6.14 2.82.92 1.9 1.85 3.81 2.77 5.71-3.09 1.57-10.36-4.72-10.55-8.9m-28.89 8.49c2.36 3.53.89 12.65-2.41 13.6-.5-2.01-1.01-4.02-1.56-6.2-2.15.73-4.21 1.42-6.41 2.17.11-3.31 6.09-10.42 10.37-9.56Zm6.04-23.86c2.27-2.89 9.5-2.33 14.12.27-1.88 1.67-4.29 1.78-6.34 2.87.91 1.86 1.83 3.72 3 6.11-5.7-.17-10.71-5.68-10.78-9.26ZM38.37 48.08c3.04 3.13.42 11.66-2.21 13.99-.61-2.28-1.16-4.33-1.77-6.63-2.06.73-4.08 1.45-6.11 2.18-.92-3.47 5.97-9.74 10.1-9.54ZM88.2 13.32c-.62 2.09-4.21 2.06-6.03 3.06.97 2.07 1.87 4.01 2.86 6.14-4.06-.06-11.17-5.27-10.57-9.21 2.14-2.71 8.59-2.4 13.74.01m1.07 48.16c-2.32.91-4.31 1.69-6.44 2.53.94 2.02 1.85 3.97 2.82 6.05-3.79.16-11.37-5.38-10.57-9.24 2.54-3.15 11.06-1.78 14.19.66" style="fill:#beb696;stroke-width:0"/></svg>