<svg xmlns="http://www.w3.org/2000/svg" data-name="fill_spinach" viewBox="0 0 128 128"><defs><linearGradient id="a" x1="-5540.41" x2="-5677.79" y1="207.36" y2="347.15" gradientTransform="matrix(.5 0 0 .5 2886 -74)" gradientUnits="userSpaceOnUse"><stop offset="0" stop-color="#378431"/><stop offset="1" stop-color="#58b14f"/></linearGradient></defs><path d="M48.57 103.07c-.51.75.22 12.82-.05 15.2-.51 4.53-5 6.01-8.89 4.36-4.55-1.94-1.88-15.32-2.69-19.56-13.36-1.71-22.43-8.12-25.79-21.46-5.15-20.47.43-56.89 19.2-69.51 14.81-9.96 28.42-.02 36.41 12.9 9.53-10.81 26.71-20.81 39.99-9.98 18.41 15.01 12.09 59.19.47 76.95-6.09 9.3-13.6 13.43-24.96 12.54-1.69-.13-6.11-1.58-7.28-.77-.82.57-4.04 12.53-5.09 14.41-2.27 4.79-9.97 3-10.41-1.88-.31-3.5 5.54-15.59 4.78-16.76-.5-.77-1.08-.49-1.78-.27-1.67.52-3.38 1.59-5.37 2.14-2.82.78-5.73.97-8.54 1.71Z" style="fill:#090d0c"/><path d="M90.89 13.14C110.65 10.8 116.7 34.99 116 50.25c-.81 17.64-7.89 52.81-31.24 51.75-3.76-.17-7.65-1.61-11.28-1.79l-5.87 16.65c-1.29 2.66-5.9 1.35-5.6-1.56.46-4.36 4.31-10.82 5.27-15.28.12-.57.36-1.08.17-1.69-.22-.7-6.3-3.54-7.61-4.42-14.31-9.66-11.43-25.95-6.35-40.17 5.4-15.13 19.86-38.52 37.4-40.6" style="fill:url(#a)"/><path d="M60.5 97.01c0 .68-1.44 1.01-2.01 1.23-3.87 1.47-8.37 1.97-12.49 2.26-.38 2.88.84 18.43-.81 19.55-1.85 1.25-4.93.75-5.21-1.77-.6-5.52.49-12.13.03-17.78-10.9-.33-20.44-4.52-24.75-15.01-7.82-19.04-1.54-61.1 17.91-72.08 10.04-5.67 19.73-1.51 26.59 6.58.96 1.14 4.65 6.17 4.76 7.29.13 1.22-2.91 4.46-3.73 5.76C49.56 50.78 35.88 84.23 60.5 97Z" style="fill:#469d40"/><path d="M90.5 46c7.35-.66 12.73-6.74 14.77-13.48.23-.75.07-2.08.3-2.43.22-.33 1.9-.76 2.44-.37 1.75 1.25-1.47 8.49-2.43 10.13-3.76 6.45-10.02 8.42-16.85 10.15l-5.24 15.26c6.89 1.3 13.52-2.56 18.01-7.49 1.84-2.03 2.77-5.45 5.99-4.76 1.37 1.38-3.59 7.42-4.73 8.52-5 4.85-12.52 7.5-19.45 7.12-.38.05-.59.32-.84.58-.59.62-4.27 11.02-4.4 12.16-.27 2.27 2.93 1.77 4.62 1.57 3.24-.37 6.72-2.25 9.26-4.24 1.15-.9 4.4-5.35 5.82-3.24 1.12 1.66-2.74 4.97-4.04 6.02-4.72 3.81-10.75 5.18-16.75 4.22C75.49 87.28 74 96 72.67 96.44c-.65.21-1.49.03-2.18.07-.31-4.12 2.51-7.75 2.95-11.67-6.5-3.78-10.82-10.55-11.4-18.15-.17-2.21 1.16-4.03 2.71-2.19.72.86 1.15 6.61 2.15 8.84s5.15 7.27 7.39 8.11c.87.33.61-.19.81-.59 1.89-3.83 2.5-9.12 4.42-13.08-9.37-5.81-12.84-16.68-11.53-27.29 4.59-1.02 2.74 4.95 3.06 8.2.66 6.68 4.3 11.54 9.19 15.8 1.1 0 4.35-13.56 5.67-15.33.05-.54-3.37-4.19-4.02-5.31-2.61-4.49-3.44-9.38-2.85-14.55.13-1.15 2.23-7.7 2.76-7.83.93-.22 2.69-.04 2.69 1.26 0 1.09-2.2 5.41-2.46 7.57-.62 5.34.97 11.45 5.44 14.7l7.98-23.77c1.19-1.39 2.63-.79 2.56 1.01L90.48 46Z" style="fill:#469d40"/><path d="M63.78 90.89c.89 1.69-1.34 1.94-2.45 1.25-6.31-3.09-11.24-11.28-9.68-18.18 1.19-2.73 2.36.68 2.31 2.11.29 4.76 2.51 9.05 6.06 11.96 1.12 1 2.79 1.55 3.67 2.74l.08.12Zm-29.75 6.03c-1.5 1.04-3.97-.32-5.64-.86-3.02-1.28-5.74-2.56-7.71-5.13-1.46-1.88-5.79-7.23-3.66-9.34 2.08-.43 3.13 4.27 4.2 5.62 1.46 2.35 4.2 4.69 6.92 5.84 1.65 1.01 7.17.89 5.98 3.78l-.07.09Z" style="fill:#9aca88"/><path d="M44.7 45.63c6.74-3 9.87-10.49 9.62-17.53-.03-.79-.6-2-.5-2.4.1-.38 1.56-1.33 2.19-1.14 2.06.62 1.35 8.51.98 10.37-1.47 7.32-6.75 11.21-12.66 15.05l-.02 16.13c4.53-.37 2.21 2.98.92 3.26-.35.17-.46.49-.61.82-.36.78-.47 11.81-.23 12.93.48 2.23.09.79.27 4.5-.91 1.96.61 10.65-.51 11.49-.54.41-1.4.51-2.04.77-1.62-3.8-.13-8.14-.98-12-7.37-1.48-13.65-6.49-16.66-13.48-.88-2.03-.21-4.19 1.85-2.94.96.58 3.23 5.88 4.9 7.67 1.65 1.78 7.23 5.21 9.62 5.29.93.03.52-.38.57-.82.55-4.23-.58-9.44-.05-13.81-10.75-2.47-17.54-11.63-19.74-22.1 4.02-2.45 4.19 3.8 5.54 6.77 2.78 6.11 7.8 9.53 13.81 11.98 1.04-.36-.27-14.24.41-16.35-.13-.52-4.55-2.88-5.52-3.72-3.92-3.4-6.29-7.76-7.4-12.84-.25-1.13-.38-8.01.08-8.3.81-.51 2.53-.91 2.96.32.35 1.03-.34 5.83.13 7.96 1.14 5.25 4.63 10.52 9.91 12.15l-.14-25.08c.68-1.7 2.24-1.6 2.74.13z" style="fill:#3d8937"/></svg>