<svg xmlns="http://www.w3.org/2000/svg" data-name="fill_potatosalad" viewBox="0 0 128 128"><path d="M29.88 88.4c-4.86-4.26-9.73-8.01-13.99-12.37-9.08-9.3-13.71-20.5-12.64-33.67.39-4.8 3.71-7.88 7.38-10.45 6.39-4.45 13.77-6.38 21.23-8.08 14.21-3.24 28.67-3.44 43.06-2.69 13.4.7 26.77 2.59 38.92 9.03 4.81 2.55 9.33 5.94 10.07 11.72.8 6.26-.03 12.51-2.42 18.51-4.47 11.21-12.5 19.29-22.18 26-.68.47-1.39.9-2.01 1.3 1.49 7.66.14 11.05-6.81 14.07-10.99 4.78-22.44 6.08-34.15 5.18-7.05-.54-13.86-2.64-20.36-5.6-6.05-2.76-7.95-6.8-6.1-12.95" style="fill:#4a3726;stroke-width:0"/><path d="M64.77 61.03c-14.98-.47-28.66-1.27-41.73-6-3.34-1.21-6.51-3.04-9.5-5-3.84-2.52-4.1-7.27-.7-10.43 4.67-4.33 10.59-6.18 16.59-7.66 9.38-2.31 18.92-3.4 28.6-3.61 14.03-.29 27.92.39 41.53 4.08 5.42 1.47 10.73 3.3 14.92 7.26 3.54 3.35 3.18 7.44-.67 10.38-5.97 4.56-13 6.56-20.18 7.87-6.29 1.14-12.7 1.7-19.07 2.39-3.66.4-7.35.54-9.8.71Z" style="fill:#7b5b3b;stroke-width:0"/><path d="M13.1 58.59c24.18 12.32 76.67 12.4 100.73.18-3.02 11.45-20.36 27.1-41.56 30.07-29.7 4.17-53.34-14.22-59.17-30.25" style="fill:#a5805b;stroke-width:0"/><path d="M90.26 91.07v2.67c-17.78 8.29-35.42 8.3-53.2.03v-2.66c17.76 7.24 35.32 7.29 53.2-.04" style="fill:#7b5b3b;stroke-width:0"/><ellipse cx="29.61" cy="50.68" rx="14.35" ry="7.51" style="fill:#dccb94;stroke-width:0"/><path d="M29.61 60.19c-9.17 0-16.35-4.18-16.35-9.51s7.18-9.51 16.35-9.51 16.35 4.18 16.35 9.51-7.18 9.51-16.35 9.51m0-15.03c-7.07 0-12.35 2.91-12.35 5.51s5.28 5.51 12.35 5.51 12.35-2.91 12.35-5.51-5.28-5.51-12.35-5.51" style="fill:#4a3726;stroke-width:0"/><ellipse cx="39.12" cy="37.84" rx="18.28" ry="9.57" style="fill:#dccb94;stroke-width:0"/><path d="M39.12 49.96c-11.68 0-20.83-5.32-20.83-12.12s9.15-12.12 20.83-12.12 20.83 5.32 20.83 12.12-9.15 12.12-20.83 12.12m0-19.14c-9.01 0-15.74 3.71-15.74 7.02s6.73 7.02 15.74 7.02 15.74-3.71 15.74-7.02-6.73-7.02-15.74-7.02" style="fill:#4a3726;stroke-width:0"/><ellipse cx="49.65" cy="47.33" rx="14.35" ry="7.51" style="fill:#dccb94;stroke-width:0"/><path d="M49.65 56.84c-9.17 0-16.35-4.18-16.35-9.51s7.18-9.51 16.35-9.51S66 42 66 47.33s-7.18 9.51-16.35 9.51m0-15.03c-7.07 0-12.35 2.91-12.35 5.51s5.28 5.51 12.35 5.51S62 49.92 62 47.32s-5.28-5.51-12.35-5.51" style="fill:#4a3726;stroke-width:0"/><ellipse cx="60.61" cy="32.54" rx="14.35" ry="7.51" style="fill:#dccb94;stroke-width:0"/><path d="M60.61 42.05c-9.17 0-16.35-4.18-16.35-9.51s7.18-9.51 16.35-9.51 16.35 4.18 16.35 9.51-7.18 9.51-16.35 9.51m0-15.03c-7.07 0-12.35 2.91-12.35 5.51s5.28 5.51 12.35 5.51 12.35-2.91 12.35-5.51-5.28-5.51-12.35-5.51" style="fill:#4a3726;stroke-width:0"/><ellipse cx="61.45" cy="55.27" rx="11.48" ry="6.01" style="fill:#dccb94;stroke-width:0"/><path d="M61.45 62.88c-7.33 0-13.08-3.34-13.08-7.61s5.75-7.61 13.08-7.61S74.53 51 74.53 55.27s-5.74 7.61-13.08 7.61m0-12.02c-5.65 0-9.88 2.33-9.88 4.41s4.22 4.41 9.88 4.41 9.88-2.33 9.88-4.41-4.22-4.41-9.88-4.41" style="fill:#4a3726;stroke-width:0"/><ellipse cx="95.4" cy="46.37" rx="16.35" ry="8.56" style="fill:#dccb94;stroke-width:0"/><path d="M95.4 57.2c-10.44 0-18.62-4.76-18.62-10.83s8.18-10.83 18.62-10.83 18.63 4.76 18.63 10.83S105.85 57.2 95.4 57.2m0-17.11c-8.05 0-14.07 3.32-14.07 6.28s6.02 6.28 14.07 6.28 14.07-3.32 14.07-6.28-6.02-6.28-14.07-6.28" style="fill:#4a3726;stroke-width:0"/><ellipse cx="77.82" cy="50.68" rx="14.35" ry="7.51" style="fill:#dccb94;stroke-width:0"/><path d="M77.82 60.19c-9.17 0-16.35-4.18-16.35-9.51s7.18-9.51 16.35-9.51 16.35 4.18 16.35 9.51-7.18 9.51-16.35 9.51m0-15.03c-7.07 0-12.35 2.91-12.35 5.51s5.28 5.51 12.35 5.51 12.35-2.91 12.35-5.51-5.28-5.51-12.35-5.51" style="fill:#4a3726;stroke-width:0"/><ellipse cx="83.49" cy="36.99" rx="14.35" ry="7.51" style="fill:#dccb94;stroke-width:0"/><path d="M83.49 46.5c-9.17 0-16.35-4.18-16.35-9.51s7.18-9.51 16.35-9.51 16.35 4.18 16.35 9.51-7.18 9.51-16.35 9.51m0-15.02c-7.07 0-12.35 2.91-12.35 5.51s5.28 5.51 12.35 5.51 12.35-2.91 12.35-5.51-5.28-5.51-12.35-5.51" style="fill:#4a3726;stroke-width:0"/><path d="M95.96 105.45c-7.11-.12-12.4-3.66-17.45-8.04-7.97-6.9-11.93-16.02-14.94-25.76-1.69-5.49-2.95-11.02-1.45-16.72 2.05-7.76 6.72-13.7 13.5-17.85 4.76-2.91 9.95-2.02 15.07-.86 9.03 2.05 15.38 7.33 19.87 15.42 2.48 4.48 6.04 8.36 8.92 12.63 4.66 6.9 6.81 14.47 4.49 22.69-2.54 8.97-9.31 13.74-17.75 16.38-3.31 1.04-6.83 1.43-10.25 2.11Z" style="fill:#4a3726;stroke-width:0"/><path d="M95.8 100.09c-5.28.33-9.17-2.42-13.02-5.52-7.95-6.39-11.72-15.2-14.53-24.58-.67-2.24-1.18-4.55-1.58-6.86-1.18-6.89 1.65-12.4 6.1-17.34 2.8-3.11 5.96-6.03 10.33-5.72 3.81.27 7.64 1.34 11.27 2.6 5.44 1.9 8.78 6.22 11.68 11.04 2.15 3.58 4.63 7 7.22 10.28 3.44 4.36 5.92 9.13 6.55 14.63.72 6.34-1.55 11.68-6.57 15.66-5.08 4.03-11.09 5.51-17.44 5.81Z" style="fill:#a5805b;stroke-width:0"/><path d="M106.96 86.76c.01 2.39-1.52 4.04-3.79 4.08-2.31.04-4.16-1.85-4.18-4.26-.01-1.87 2.03-3.78 4.06-3.8 2.25-.02 3.9 1.65 3.91 3.98M74.94 66.69c-1.84 0-3.65-1.85-3.62-3.71a3.63 3.63 0 0 1 3.68-3.6c2.02.03 3.62 1.64 3.62 3.65 0 1.93-1.73 3.66-3.67 3.66Zm35.87 8.21c-.06 1.79-1.58 3.27-3.35 3.23-1.68-.04-3.31-1.77-3.21-3.43.11-1.93 1.69-3.43 3.51-3.34 1.65.09 3.11 1.78 3.05 3.54m-17.78 6.79c-1.71-.04-2.72-1.1-2.64-2.8.08-1.64 1.26-2.73 2.88-2.65 1.51.07 2.83 1.46 2.76 2.89-.08 1.5-1.36 2.6-2.99 2.57ZM78.19 55.22c-1.5 0-2.64-1.11-2.67-2.62a2.663 2.663 0 0 1 2.56-2.74c1.52-.05 2.79 1.21 2.77 2.74-.03 1.55-1.1 2.62-2.65 2.63Z" style="fill:#4a3726;stroke-width:0"/></svg>