<svg xmlns="http://www.w3.org/2000/svg" data-name="fill_cow" viewBox="0 0 128 128"><defs><linearGradient id="a" x1="-2092.07" x2="-2091.83" y1="1199.46" y2="1256.46" gradientTransform="matrix(.5 0 0 .5 1110 -518)" gradientUnits="userSpaceOnUse"><stop offset="0" stop-color="#dfbab7"/><stop offset="1" stop-color="#d99895"/></linearGradient><linearGradient id="b" x1="42.41" x2="36.73" y1="31.15" y2="11.33" gradientUnits="userSpaceOnUse"><stop offset="0" stop-color="#8a7352"/><stop offset=".66" stop-color="#a48c66"/><stop offset="1" stop-color="#b49b73"/></linearGradient><linearGradient id="c" x1="86.76" x2="89.94" y1="30.29" y2="10.21" gradientUnits="userSpaceOnUse"><stop offset="0" stop-color="#8a7352"/><stop offset=".66" stop-color="#a48c66"/><stop offset="1" stop-color="#b49b73"/></linearGradient></defs><path d="M95.5 28c.23.21 4.35-2.24 5.16-2.59 6.92-2.94 13.74-3.5 20.84-.65 4.91 1.97 4.9 3.33 4.53 8.51-.96 13.23-12.23 23.44-25.52 22.73.76 8.16-1.25 15.44-4.41 22.84-.69 1.61-4.11 7.41-4.08 8.43 0 .31 2.42 3.84 2.88 5.1 2.67 7.28.85 19.09-7.4 21.88-2.51.85-4.83.32-6.64.86-.52.15-2.43 2.03-3.39 2.61-7.34 4.49-20.36 4.39-27.63-.29-.94-.6-1.89-2.09-2.68-2.32-1.22-.35-3.1-.05-4.68-.32-10.26-1.77-12.56-14.86-9.06-23.11.46-1.09 2.58-4.02 2.59-4.4.03-1.08-3.85-7.66-4.59-9.42-2.87-6.8-4.81-14.48-3.91-21.84-12.93.87-24.37-9.41-25.5-22.25-.51-5.82-.45-7.05 4.87-9.12s10.79-2.25 16.13-.88c3.19.81 5.95 2.63 8.99 3.75-1.2-5.45-.61-11.76 3.01-16.24 1.93-2.38 5.91-5.33 8.95-3.47 3.81 2.33.41 6.15 1.14 9.36.3 1.31 2.45 3.95 3.77 4.26.57.13 6.23-1.35 7.86-1.43 2.63-.13 4.75.52 7.02.56 2.51.05 5.07-.73 8-.54 1.52.1 6.79 1.55 7.38 1.41 1.51-.36 3.34-2.89 3.67-4.39.66-2.94-2.72-6.38.93-9.03 3.07-2.23 7.26.77 9.25 3.27 3.43 4.3 4.43 11.58 2.51 16.74Z" style="fill:#0d0f0f"/><path d="M17.69 25.56c4.64.7 9.91 2.57 13.77 5.23 1.29.89 5.68 5.23 6.29 5.23 1.65 0 6.27-7.96 8-9.52 5.12-4.6 12.32-3.2 18.41-3.18 5.63.01 9.36-1.13 14.97 1.29 4.93 2.13 6.17 6.84 9.59 10.4 2.3 2.39 3.61-.96 5.53-2.5 8.59-6.89 19.09-9.32 29.16-3.94.93 11.26-5.62 21.62-16.82 24.28-4.21 1-6.07.19-10.1-.85 3.11 8.37.56 17.55-2.76 25.49-.65 1.56-2.42 5.5-3.31 6.69-.35.46-.47.86-1.18.85-.31 0-4.27-2.62-5.41-3.12-11.99-5.21-31.55-4.74-43.01 1.67-.93.52-1.55 2.03-2.85 1.2-.38-.25-3.3-6.28-3.72-7.28-3.42-8-6.01-17.01-2.76-25.49-5.28 1.78-8.68 1.79-13.84-.41C8.53 47.72 3.79 38.31 4.57 28.58c1.53-1.96 9.4-3.57 13.12-3.01Z" style="fill:#e5e5e5"/><path d="M36 105.5c-2.85-9.04.58-15.18 4.76-18.49 10.87-8.59 40.97-8.51 49.74 3.24 4.2 5.62 3.64 18.61-3.64 21.36-7.88 2.98-14.51-1.85-22.09-2.13-8.31-.31-14.95 5.09-23.55 2.05-3.46-1.22-4.68-4.32-5.22-6.03" style="fill:url(#a)"/><path d="M76.5 114.5c.21 1.15-.09.8-.64 1.12-5.27 3.06-15.28 3.04-20.97 1.24-.49-.15-3.27-1.23-3.38-1.37-.76-.9.18-.83.73-1 4.19-1.26 9.55-2.84 13.88-2.36 3.52.39 6.85 2.04 10.39 2.36Z" style="fill:#daa9a6"/><path d="M45.27 23.49c.07 1.4-6.08 7.73-7.52 9-2.65-2.06-3.56-5.3-3.71-8.28-.29-5.95 2.3-15.44 9.01-13.91 1.3 1.26-.53 4.41-.08 7.56.37 2.6 2.24 4.61 2.3 5.63" style="fill:url(#b)"/><path d="M94.02 23.23c0 1.75-1.65 7.6-3.77 7.59-2.28 0-5.41-4.97-7.92-6.7-.61-.42-.78-1.24-.4-1.87 1.1-1.8 3.32-5.02 3.02-7.33-.24-1.89-.7-3.27-.34-4.3.25-.71.99-1.07 1.74-.98 4.3.5 7.63 8.11 7.66 13.59Z" style="fill:url(#c)"/><path d="M97.5 40c1.52-.4 6.36 1.79 4.01 3.27-.63.4-7.23-1.01-7.48-1.3-1.85-2.18 4.34-6.75 6-7.68 2.44-1.36 8.04-3.3 10.76-3.27 1.44.02 1.65 2.2.72 2.75-.55.33-4.86.83-6.24 1.26-2.82.87-6.03 2.56-7.78 4.97Zm-63.54 1.97c-.25.29-6.85 1.7-7.48 1.3-2.55-1.61 2.95-3.51 4.01-3.52-1.99-2.3-4.88-3.83-7.78-4.72-1.38-.42-5.69-.93-6.24-1.26-.93-.56-.72-2.73.72-2.75 2.34-.03 7.94 1.76 10.14 2.89 1.76.9 8.56 5.77 6.62 8.06Z" style="fill:#111314"/><path d="M42.86 54.1c5.85-1.29 7.12 6.74 2.28 7.8-5.8 1.28-6.53-6.87-2.28-7.8m40 0c6.9-1.52 6.46 9.87-.39 7.68-3.65-1.17-3.39-6.85.39-7.68M46 91c4.07-.82 8.04 1.98 8.04 6.25 0 2.09-1.04 3.25-2.26 1.22-.72-1.2-.7-3.26-1.79-4.21-1.61-1.4-4.65.24-3.99-3.26m36 0c.64 3.49-2.35 1.86-3.99 3.26-1.83 1.56-.83 5.58-4.01 5.23-.7-5.11 2.57-9.47 8-8.5Z" style="fill:#0d0f0f"/><path d="M7.55 30.56c-.36 0-.71-.2-.89-.54-.25-.49-.06-1.09.43-1.35a18.8 18.8 0 0 1 8.34-2.09c2.94-.03 5.88.63 8.51 1.93.5.24.7.84.45 1.34-.24.5-.84.7-1.34.45-1.64-.81-4.26-1.77-7.6-1.72-3.26.04-5.85 1.04-7.45 1.86-.15.08-.3.11-.46.11Zm29.24 41.51c-.29 0-.58-.13-.78-.37-1.81-2.25-3.1-4.94-3.71-7.76-.79-3.62-.33-6.74.19-8.72.14-.53.69-.85 1.22-.71s.85.69.71 1.22c-.46 1.77-.87 4.55-.17 7.79.55 2.52 1.69 4.92 3.31 6.93a1.002 1.002 0 0 1-.78 1.63Z" style="fill:#fff"/><path d="M40.39 109.24c-.33 0-.66-.17-.85-.47a18.8 18.8 0 0 1-2.73-8.16c-.26-2.92.17-5.9 1.26-8.63.21-.51.79-.76 1.3-.56.51.21.76.79.56 1.3-.68 1.7-1.42 4.41-1.13 7.71a16.8 16.8 0 0 0 2.44 7.29c.29.47.15 1.09-.32 1.38-.16.1-.35.15-.53.15Z" style="fill:#fccaca"/><path d="M37.94 30.6c-.14 0-.28-.04-.41-.12-.27-.18-2.62-1.96-2.35-9.12.16-4.02 1.72-7.3 1.78-7.44.18-.37.63-.53 1-.35s.53.63.35 1c-.01.03-1.49 3.15-1.64 6.84-.24 6.3 1.68 7.81 1.7 7.83.32.24.41.71.17 1.04a.75.75 0 0 1-.61.32Zm45.69-6.91c-.16 0-.33-.05-.46-.16a.74.74 0 0 1-.12-1.05c.01-.02 1.35-1.72 2.54-4.02 1.57-3.03-.16-6.25-.18-6.28-.2-.36-.07-.82.29-1.02s.82-.07 1.02.29c.09.16 2.14 3.96.2 7.7-1.26 2.43-2.64 4.18-2.7 4.26-.15.19-.37.29-.59.29Z" style="fill:#bca786"/></svg>