<svg xmlns="http://www.w3.org/2000/svg" data-name="fill_woodbeam" viewBox="0 0 128 128"><defs><linearGradient id="a" x1="963.92" x2="846.92" y1="-1200.86" y2="-1200.04" gradientTransform="matrix(.5 0 0 .5 -370 666)" gradientUnits="userSpaceOnUse"><stop offset="0" stop-color="#d0a674"/><stop offset="1" stop-color="#7d551f"/></linearGradient><linearGradient id="b" x1="955" x2="784.01" y1="-1237.73" y2="-1235.94" gradientTransform="matrix(.5 0 0 .5 -370 666)" gradientUnits="userSpaceOnUse"><stop offset="0" stop-color="#d0a673"/><stop offset="1" stop-color="#ab7837"/></linearGradient><linearGradient id="c" x1="835.82" x2="777.69" y1="-1172.27" y2="-1110.26" gradientTransform="matrix(.5 0 0 .5 -370 666)" gradientUnits="userSpaceOnUse"><stop offset="0" stop-color="#a87533"/><stop offset="1" stop-color="#d3a978"/></linearGradient></defs><path d="m15.5 115-1.24-1V76.49c21.67-19.8 42.57-40.47 64.49-59.99h37c.05 0 .75.7.75.75v36.5c-20.84 20.47-42.65 40.03-63.75 60.27-.34.38-.86.33-1.25.48-11.96.4-23.96.57-36 .5" style="fill:#0c0d0c"/><path d="M51.5 114.5c-.42.16-.91.8-1.7.53L15.5 115z" style="fill:#878888"/><path d="M113.5 45c-.67 1.82-2.17 1.99-3.45 3.3-2.17 2.22-4.92 4.75-6.88 6.87-1.6 1.73-1.41 4.22.83 3.08 1.63-.83 5.55-5.93 7.49-7.51 2.23-1.82 3.1-1.86 2.5 1.5-.31 1.74-3.06 3.06-4.26 4.24-16.05 15.67-32.92 30.79-49.24 46.26-2.15 2.04-4.27 4.66-6.49 6.51-.5.42-.65.95-1.5.75v-7.75c3.97-3.87 8.2-7.47 12.26-11.24 2-1.85 5.23-5.44.24-4.26L52.74 98.49c-.42-1.37-.55-3.56.22-4.78 4.92-5.07 10.48-9.59 15.54-14.46 1.19-1.15 8.82-8.45 8.96-9.07.14-.66-1.19-2.08-1.96-1.46l-22 20.78c-.29.11-.54.18-.59.11-.35-.46-.23-7.75-.21-8.69s.1-1.95.3-2.91c16.71-16.21 34.07-31.82 51.01-47.74 1.5-1.41 8.2-8.81 9.49-8.76.59 7.68.65 15.76 0 23.5Z" style="fill:url(#a)"/><path d="M110.5 20c-.83.94-1.56 1.89-2.49 2.76C88.94 40.59 69.58 57.99 50.75 76H30.5l21.53-19.72c.81-1.58 1.06-2.45-.79-2.3s-4.19 3.4-5.72 4.78C39.08 64.53 32.53 70.03 26.26 76h-7.25l60.51-56.74h5.49c-3.44 3.39-6.81 6.86-10.24 10.27-.53.53-1.48.86-1.78 1.32-.61.94-.77 2.71.78 2.67 1.4-.03 12.55-12.62 14.75-14.26l5.49-.25c-.69 1.66-7.51 6.53-6.5 7.99.61 0 1.19.49 1.76.48 1.44-.02 6.61-6.85 8.73-7.98 4.18-.53 8.55-.39 12.6-.08z" style="fill:url(#b)"/><path d="M49.5 79c.14 6.5.31 12.84.5 19-.06 4.7.07 9.34-.5 14H17V79z" style="fill:url(#c)"/><path d="M113.5 45V21.5c.82.09.47 1.13.5 1.75.34 5.78.45 14.34.03 20.06-.08 1.02-.3 1.07-.53 1.69" style="fill:#bf9058"/><path d="M50 98c-.83-.51-.5-1.9-.51-2.74-.05-5.42.05-10.84 0-16.26.68.05.49.72.52 1.23.36 5.57.05 12.11-.02 17.77Z" style="fill:#a37a46"/><path d="M98 19.5c.42-.22.39-.44 1.2-.53 3.81-.43 8.4.37 12.3.03.04.6-.76.72-1 1-.51-.83-1.9-.5-2.74-.51-3.25-.03-6.51.04-9.76 0Z" style="fill:#bf9058"/><path d="M27 82c.59 3.68-2.97 2.28-5.5 2.5v13.75c0 .99-3 .99-3 0v-15c0-.16.67-.75.5-1.25z" style="fill:#f6d1a2"/></svg>