<svg xmlns="http://www.w3.org/2000/svg" viewBox="0 0 128 128"><path d="M3.23 72.02c-.79-4.02-1.64-6.87-1.84-9.77-.28-3.98-.06-7.99-.07-11.98-.02-4.44 1.99-7.64 5.92-9.61 17.22-8.62 34.45-17.19 51.66-25.82 3.49-1.75 6.87-1.7 10.34.05 16.77 8.42 33.56 16.8 50.35 25.18 7.54 3.76 9.17 9.62 4.47 16.98 2.71 2.84 2.75 6.51 2.67 10.25-.08 3.6.02 7.21-.03 10.82-.06 4.19-2.07 7.27-5.77 9.12-17.38 8.72-34.79 17.38-52.2 26.06-3.29 1.64-6.53 1.48-9.8-.16-17.21-8.62-34.45-17.2-51.66-25.82-6.38-3.2-7.59-9.02-4.04-15.3" style="fill:#4a3726;stroke-width:0"/><path d="M9.03 79.63c.08-1.23.15-2.34.28-4.25 2.01.5 3.73.62 5.15 1.32 15.64 7.74 31.23 15.57 46.84 23.37.87.43 1.75.84 2.77 1.33l50-25v-7.99c-1.28.55-2.24.91-3.14 1.36-14.39 7.18-28.8 14.32-43.13 21.63-2.73 1.39-4.96 1.31-7.66-.06-16.07-8.17-32.22-16.17-48.35-24.24-.86-.43-1.69-.92-2.63-1.43V48.12C27.34 39.03 45.53 29.92 64 20.69c18.18 9.09 36.46 18.23 54.53 27.26 1.19 2.71-.18 4.02-2.04 4.97-7.74 3.92-15.5 7.78-23.5 11.78-9.42-4.7-18.9-9.43-28.93-14.44-9.32 4.64-18.89 9.41-28.89 14.39-6.72-3.31-13.68-6.73-21.08-10.37v8.14c16.42 8.22 33.06 16.54 49.88 24.95.88-.42 1.84-.87 2.79-1.34 15.61-7.8 31.2-15.63 46.84-23.37 1.42-.7 3.14-.82 5.17-1.32v18.42c-.94.51-1.93 1.1-2.96 1.62-16.04 8.03-32.1 16-48.1 24.11-2.62 1.33-4.77 1.33-7.41 0-16.07-8.16-32.22-16.17-48.34-24.24-.94-.47-1.85-1.02-2.92-1.61Z" style="fill:#6b6864;stroke-width:0"/><path d="M64.02 58.43c6.42 3.21 12.7 6.35 18.99 9.49-.07.19-.13.38-.2.57h-37.5c-.1-.18-.21-.36-.31-.54 6.3-3.15 12.6-6.31 19.02-9.52" style="fill:#484847;stroke-width:0"/></svg>