<svg xmlns="http://www.w3.org/2000/svg" data-name="fill_noodlesoup" viewBox="0 0 128 128"><defs><linearGradient id="a" x1="-5113.55" x2="-4991.55" y1="-446.46" y2="-446" gradientTransform="matrix(.5 0 0 .5 2590 296)" gradientUnits="userSpaceOnUse"><stop offset="0" stop-color="#991f0f"/><stop offset=".52" stop-color="#de010c"/><stop offset="1" stop-color="#a90009"/></linearGradient></defs><path d="M57.4 4.65c8.59-.64 18.19-.08 26.49 2.22 5.15 1.43 14.24 4.78 15.08 10.92l-.07 92.34c-1.27 4.57-5.68 7.07-9.75 8.75-12.26 5.05-30.98 5.33-43.74 1.98-5.3-1.39-14.99-4.82-15.85-11.15l.17-92.74c2-8.44 20.43-11.78 27.68-12.32Z" style="fill:#030101"/><path d="M95.5 25.5c.59-.35.85.06.78 1.24L96 110c-.7 5.04-14.04 8.59-18.39 9.36-10.91 1.92-24.17 1.57-34.71-2-3.92-1.33-8.73-3.41-10.39-7.36l-.28-83.27q-.12-1.755.78-1.23c14.01 10.14 48.51 10.11 62.5 0Z" style="fill:url(#a)"/><path d="M59.39 7.14c9.41-.61 24.34.69 32.45 5.76 10.56 6.6.62 12.54-6.84 14.85-12.65 3.92-30.83 3.89-43.27-.75-7.63-2.84-14.86-8.16-4.76-14.28 6.07-3.68 15.37-5.13 22.41-5.59Z" style="fill:#aaabab"/><path d="M33 25.5c-.83.51-.5 1.9-.51 2.74-.27 27.24.22 54.51 0 81.76l-.5-85.25c.32-.74.85.64 1 .75Z" style="fill:#bb0e0d"/><path d="M58.5 48.5c.22.23 3.64-1.41 3.99-1.76 1.58-1.58.3-4.15 4.29-4.71 4.93-.7 6.71 1.81 6.72 6.47.27.3 3.77-1.59 4.15-1.97.97-.94.72-3.49 3.32-4.31 6.19-1.95 8.83 3.68 6.31 8.81-1.72 3.5-4.78 4.06-7.47 5.94-.45.31-.5.76-.31 1.02.15.2 3.36 1.45 4.46 2.3 5.32 4.11 5.93 10.14.8 14.72-1.59 1.42-2.96 1.85-4.62 2.87-.35.22-.89-.11-.65.86.06.25 3.84 2.06 4.47 2.54 4.63 3.52 5.96 10.24 1.55 14.49-1.94 1.87-5.54 2.84-7.19 4.19-.52.43-.59 2-1.56 3.06-3.99 4.37-10.09.37-9.28-5.02-.81.71-3.94 1.58-4.37 2.12-.3.38-.36 1.54-.89 2.36-1.16 1.78-4.24 3.12-6.21 2.26-2.65-1.16-2.97-3.15-3.53-5.49-.14-.59.38-.9-.74-.75-4.63.63-5.36 9.53-11.51 5.51-4.33-2.83-2.84-7.61.23-10.77 1.72-1.77 4.23-2.33 5.5-3.5.45-.41.67-.51.52-1.23-8.55-2.91-12.82-11.42-4.47-17.73 1.15-.87 3.1-1.51 4.16-2.25 1.33-.93-.52-1.09-1.02-1.42-4.98-3.23-10.81-7.8-6.17-14.36 2.71-3.84 7.05-4.38 8.86-6.39.89-1 1.19-3.73 3-4.25 4.71-1.38 8.2 1.63 7.65 6.4Zm21.86-34.89c4-.83 14.49-.03 11.76 6.26-1.96 4.51-17.71 4.63-16.02-3.01.34-1.53 2.83-2.95 4.26-3.25" style="fill:#0a0604"/><path d="M50.88 9.63c1.1-.15 3.22-.42 4.14.11.72.42.71 1.63 0 2.03-.77.43-5.06.62-6.53.97-2.34.55-6.82 3.14-8.27 3.27-.84.07-1.22-.09-1.71-.76-.26-1.21 3.69-2.93 4.66-3.33 2.06-.87 5.54-1.99 7.72-2.28Z" style="fill:#cfcfcf"/><path d="M53.83 93.83c-1.87 2-5.88 2.85-7.6 4.65-1.04 1.09-.51 2.95-2.07 3.43-3.27 1.01-4.33-1.64-3.43-4.44.32-1 2.4-3.01 3.31-3.69 1.66-1.26 6.72-2.83 6.51-5.02-.23-2.33-8.88-3.66-9.92-8.62-1.48-7.04 5.5-7.63 9.07-10.7 3.16-2.72-3.12-4.42-4.85-5.53-4.13-2.65-6.4-7.16-2.36-11.18 1.91-1.9 6.07-2.9 7.5-4.5 1.09-1.23 1.55-5.63 4.81-3.26 2.79 2.02-.23 6.26-2.32 7.75-1.18.84-7.29 3.3-6.93 4.96 3.77 3.6 13.67 6.33 9.39 13.5-1.57 2.64-9.72 6-9.39 7.51.34 1.61 5.55 3.61 6.93 4.6 3.77 2.7 4.65 7.04 1.36 10.55Zm27.28-48.72c1.5-1.58 4.44-.73 4.44 2.13 0 6-6.74 6.15-9.54 9.01-2.45 2.5 4.49 4.64 6.16 5.83 3.8 2.69 4.88 7.18 1.35 10.69-1.9 1.89-5.91 2.93-7.52 4.47-2.5 2.38 3.68 4.41 5.16 5.35 3.19 2.04 4.99 3.99 4.32 8.13-.72 4.44-7.2 5.34-9.25 7.74-1.47 1.71-.54 4.1-3.95 3.53-2.03-.34-2.01-2.45-1.66-4.14 1.05-5.04 9.92-6.27 9.91-8.61-.01-2.53-9.24-4.4-9.99-9.03-.52-3.23.06-4.95 2.51-6.93 1.85-1.5 5.59-2.72 6.96-4.04 2.5-2.38-3.68-4.41-5.16-5.35-3.32-2.12-5.02-3.85-4.32-8.13.71-4.36 7.15-5.28 9.25-7.74.83-.98.85-2.42 1.33-2.92Z" style="fill:#f8e5ae"/><path d="M67.35 44.58c3.34-1.01 3.81 2.86 2.77 5.29-1.36 3.19-9.68 5.57-9.65 7.37.04 2.54 9.25 4.4 10 9.03.52 3.2-.19 5.28-2.72 7.22-1.7 1.3-9.38 3.96-6.43 6.43 4.09 3.44 10.4 3.11 9.15 10.79-.72 4.44-7.2 5.34-9.25 7.74-1.46 1.71-.54 4.11-3.95 3.53-3.49-.59-1.42-5.64.56-7.42 1.78-1.61 10.32-4.37 6.86-7.01-3.91-2.99-10.54-3.7-9.07-10.7 1-4.75 6.89-5.07 9.38-7.61s-3.58-4.35-5.14-5.34c-4.02-2.56-6.44-6.79-2.62-10.93 1.9-2.05 6.33-3.29 7.77-4.73.89-.89.75-3.18 2.35-3.66Z" style="fill:#f9e6af"/><path d="M81.36 16.11c1.5-.31 9.16-.28 8.63 2.13-1.15 2.88-12.15 2.3-11.49-.48.71-.67 1.93-1.45 2.86-1.65" style="fill:#696969"/></svg>