<svg xmlns="http://www.w3.org/2000/svg" data-name="fill_soydrink" viewBox="0 0 128 128"><path d="M41.71 124.74c-.4-.09-.8-.18-1.2-.28-4.15-1.05-7.09-4.73-7.35-9.01-.29-4.79-.67-9.58-1.02-14.37l-.87-12.3-.9-12.6-.87-12.24c-.34-4.79-.69-9.58-1.03-14.37-.22-3.1-.45-6.19-.64-9.29-.04-.67-.19-1.08-.9-1.41-3.5-1.62-5.32-4.42-5.42-8.27-.06-2.21-.05-4.43.03-6.64.14-3.62 2.61-6.86 6.05-8.02.43-.15.63-.36.73-.8.28-1.23.59-2.46.92-3.68C30.5 6.7 34.98 3.25 39.9 3.25h48.16c5.11 0 9.59 3.51 10.83 8.47.3 1.19.57 2.38.9 3.56.06.23.31.5.53.58 3.74 1.34 6.12 4.58 6.19 8.55.04 2.13.08 4.27-.01 6.4-.16 3.91-2.14 6.64-5.7 8.21-.42.18-.55.4-.58.82-.56 8.02-1.12 16.05-1.69 24.07-.57 8-1.16 16.01-1.73 24.01-.46 6.37-.9 12.74-1.35 19.1-.22 3.04-.41 6.07-.68 9.1-.38 4.2-3.81 7.81-7.99 8.48-.15.02-.3.08-.44.12H41.73Zm-3.5-24.34h51.62c1.15-16.17 2.31-32.31 3.46-48.48H34.75c1.16 16.18 2.31 32.31 3.46 48.48m25.81-66.77h33.21c1.93 0 3.21-1.25 3.22-3.17.02-2 .02-3.99 0-5.99-.01-1.39-.9-2.52-2.23-2.86-.39-.1-.82-.11-1.23-.11h-66.3c-1.87.04-3.1 1.29-3.1 3.16v5.81c0 .27.01.56.08.82.36 1.48 1.55 2.34 3.21 2.34h33.15Zm25.36 72.91h-50.7c0 .2-.01.38 0 .55.18 2.58.39 5.16.55 7.75.15 2.47 1.56 3.84 4.03 3.84h41.46c2.56 0 3.95-1.33 4.1-3.89.09-1.52.22-3.04.32-4.55.09-1.22.16-2.43.25-3.69Zm4.78-66.8H33.88c.12 1.76.25 3.47.36 5.18.06.85.04.85.91.85h57.34q1.24 0 1.33-1.21c.01-.16.03-.31.04-.47.1-1.44.2-2.87.3-4.35m-.64-24.36c-.19-.74-.35-1.41-.52-2.08-.61-2.42-2.6-3.97-5.09-3.97h-47.8c-.3 0-.6 0-.89.05-2.69.43-4.67 3.01-4.62 6h58.91Z" style="fill:#4a3726;stroke-width:0"/><path d="M93.29 51.92c-1.16 16.16-2.31 32.3-3.46 48.47H38.2c-1.15-16.17-2.3-32.29-3.46-48.47z" style="fill:#aecace;stroke-width:0"/><path d="M64.02 33.63H30.87c-1.66 0-2.85-.86-3.21-2.34a3.8 3.8 0 0 1-.08-.82c0-1.94-.01-3.87 0-5.81 0-1.87 1.24-3.12 3.1-3.16h66.3c.41 0 .84 0 1.23.11 1.33.34 2.22 1.47 2.23 2.86.02 2 .02 3.99 0 5.99-.02 1.93-1.29 3.17-3.22 3.17H64.01Zm25.36 72.91c-.08 1.25-.16 2.47-.25 3.69-.11 1.52-.23 3.03-.32 4.55-.15 2.56-1.54 3.89-4.1 3.89H43.25c-2.47 0-3.88-1.36-4.03-3.84-.16-2.58-.36-5.17-.55-7.75-.01-.17 0-.35 0-.55h50.7Zm4.78-66.8c-.1 1.48-.2 2.92-.3 4.35-.01.16-.03.31-.04.47q-.08 1.21-1.33 1.21H35.15c-.86 0-.85 0-.91-.85-.11-1.71-.24-3.43-.36-5.18zm-.64-24.36H34.61c-.06-2.99 1.93-5.57 4.62-6 .29-.05.59-.05.89-.05h47.8c2.49 0 4.47 1.55 5.09 3.97.17.67.33 1.34.52 2.08Z" style="fill:#d6d6d5;stroke-width:0"/><path d="M47.77 84.95c-2.63-2.62-3.97-5.72-3.44-9.5-5.09-4.57-3.81-12.21-1.96-18.04.78-2.26 3.12-3.14 6.03-2.49.77-1.41 2.15-1.57 3.63-1.57 6.95-1.03 15.38 1.23 17.05 8.76 2.05 4.12 7.61 3.79 8.02 10.86 5.49 1.82 7.56 7.44 9.88 12.21 2.42 6.09-11.16 8.7-15.41 9.2-.78 3.04-3.34 3.79-6.27 3.96-8.48 1.42-18.6-2.87-17.52-13.4Z" style="fill:#4a3726;stroke-width:0"/><path d="M62.18 95.78c-5.91.47-12.64-3.74-11.6-10.37.16-1.04-.04-1.84-.89-2.6-4.35-3.85-1.48-6.25-3.07-9.07-4.61-3.71-2.82-9.54-1.94-14.46.15-.87.58-1.64 1.42-1.73 2.04.2 3.92 1.76 5.91 2.27 5.12.98 10.23 5.1 9.15 10.86-.1.55.23 1.38.64 1.79 4.85 4.46 1.51 6.87 3.51 9.65 3.06 2.61 2.85 6.62 3.39 10.26.9 3.84-4.15 2.95-6.52 3.41Z" style="fill:#7fa95f;stroke-width:0"/><path d="M84.63 87.1c-4.14 2.45-8.37 4.33-13.36 4.24-.24-5.89-1.07-6.89-3.8-11.6.3-3.56-.97-6.48-3.51-8.92 1.23-7.91-6.1-13.08-13.08-14.12 0-.11 0-.21-.01-.32 5.06-1.04 10.93-.94 14.22 3.67 1.57 2.01.89 5.33 3.72 6.37 3.04 1.24 5.14 3.32 5.48 6.83.14 2.22 2.91 2.47 4.24 3.71 2.9 2.85 4.71 6.31 6.1 10.12Z" style="fill:#589058;stroke-width:0"/><path d="M52.64 70.76c-3.16.18-6.44-4.24-3.68-6.69 4.55-3.79 10.73 6.29 3.68 6.69m2.48 3.23c3.91-.17 6.95 6.24 2.07 7.4-4.65.99-8.2-7.24-2.07-7.4m5.34 18.44c-5.42.04-6.59-8.74-.24-7.25 3.68.77 5.41 7.19.24 7.25" style="fill:#4a3726;stroke-width:0"/></svg>