<svg xmlns="http://www.w3.org/2000/svg" data-name="fill_fabric" viewBox="0 0 128 128"><defs><linearGradient id="a" x1="-87.96" x2="-2.57" y1="-1112.73" y2="-970.38" gradientTransform="matrix(.5 0 0 .5 74 592)" gradientUnits="userSpaceOnUse"><stop offset="0" stop-color="#e16e6e"/><stop offset="1" stop-color="#b73a3a"/></linearGradient><linearGradient id="b" x1="52.23" x2="-8.16" y1="-1139.91" y2="-1031.61" gradientTransform="matrix(.5 0 0 .5 74 592)" gradientUnits="userSpaceOnUse"><stop offset="0" stop-color="#e26e6e"/><stop offset=".25" stop-color="#e16d6d"/><stop offset="1" stop-color="#b83b3a"/></linearGradient></defs><path d="M92.5 93.01c1.58 3.22 2.34 6.39-1.5 8.24.68 1.32 3.82 5.23 3.46 6.43-.55 1.82-29.19 16.51-32.81 19.25-1.59.25-3.14-5.06-4.14-5.71-.89-.57-3.1.89-5 .02-.94-.43-2.29-2.64-2.91-3.59C35.35 95.9 23.99 70.85 9.92 48.84c-2.23-5.03 1.65-5.57 1.51-7-.16-1.75-3.59-4.66-2.7-6.34l32.14-18.93c2.49-.63 3.67 5.16 4.69 5.9.54.39 2.89-2.01 5.62.11.79.61 1.29 1.96 1.8 2.21.81.41 5.78-3.52 6.75-4.29 5.23-4.17 9.87-9.28 12.5-15.5.74-1.76.18-4.73 2.93-3.45l46.7 59.29c-2.82 15-16.24 26-29.37 32.18Z" style="fill:#0c0c0c"/><path d="M47.87 24.59c.44-.11.86-.2 1.31-.04l41.84 72.24-.24 1.21-36.54 21-42.25-72.29c-.1-.87.31-1.51 1.03-1.94z" style="fill:url(#a)"/><path d="M106.81 45.68c2.31 2.96 4.42 6.13 6.68 9.07 1.17 1.52 5.34 5.36 5.5 7.02s-2.2 6.3-3.1 7.88c-1.67 2.92-4.09 5.74-6.38 8.11-5.24 5.41-11.58 9.68-18.28 13.12L54.56 27.82l12.21-9.79c.83-1.64 2.41-2.68 3.44-4.06 1.82-2.44 2.72-4.84 4.18-7.32.24-.41-.15-.84.85-.63C85.69 18.65 95.49 31.8 105.59 44.7c.38.48.98.69 1.22 1Z" style="fill:url(#b)"/><path d="M61.52 123.48 59.5 119c9.88-4.7 18.98-11.14 28.77-16.01.91.02 3.44 3.44 2.22 4.24l-28.98 16.25ZM13.5 36l.96.62c-1.08 2.33 10.68-3.8 8.1-5.06L23 30.5c.13-.08.35-.65.81-.92 5.48-3.22 11.14-6.15 16.53-9.52 1.01-.23 2.85 3.4 2.64 4.13-.45 1.55-24.85 13.8-27.84 16.25-1.52.54-3.49-3.22-2.92-3.97.34-.45 1.1-.33 1.28-.47" style="fill:#905f43"/><path d="M23 30.5c.8.97 1.61 2.21.5 3.26-.4.38-7.89 4.57-8.37 4.67-1.65.34-1.77-1.04-1.64-2.42 3.06-2.26 6.3-3.61 9.5-5.5Z" style="fill:#cb906f"/><path d="M17.76 49c.72-.2 1.36.13 1.68.81l13.58 23.45c-2.32 3.86-3.81-1.73-4.92-3.61-3.73-6.29-7.58-12.55-11.1-18.94-.17-.59.25-1.58.77-1.72ZM35.9 78.1c.52.29 5.66 9.64 5.88 10.39.6 2.04-.95 2.71-2.3 1.28-.52-.55-5.48-8.96-5.76-9.74-.24-.67-.28-1.32-.23-2.02.72.08 1.81-.24 2.4.1ZM75 14c.09.72 0 1.3-.27 1.98-1.28 3.19-11.26 12.59-14.53 13.97-.91.38-1.65.72-2.69.55-.02-.69-.13-1.36.25-2 .22-.37 5.86-3.99 7.01-4.99 1.47-1.27 3.45-3.3 4.72-4.78.72-.84 2.87-4.5 3.11-4.64.59-.33 1.69-.01 2.4-.1Z" style="fill:#f3a2a1"/></svg>