<svg xmlns="http://www.w3.org/2000/svg" data-name="fill_diesel" viewBox="0 0 128 128"><path d="M89.61 54.94c-5.69-9.96-3.36-14.92-2.75-25.01-1.68-4.28-3.25-8.97-1.85-13.5 2.98-8.61 20.3-11.79 23.22.02 3.25 9.21 6.41 18.46 9.74 27.64 2.9 5.99-1.47 10.17-3.26 15.54.77 11.93 3.51 23.69 1.58 35.77-2.71 16.45-21.33 22.81-33.68 14.08-.42 8.15-5.71 15.76-14.35 15.66-15.09.13-30.19.23-45.28-.02-12.7-.18-18.23-15.67-10.11-25.15 0-18.1-.01-36.49.02-54.88-.83-10.62 6.82-20.83 17.91-20.78 22.9.43 51.45-6.6 47.48 27.1 3.74 1.37 7.36 2.69 10.99 4.02 0-.24.7.02.34-.48Z" style="fill:#4a3726;stroke-width:0"/><path d="M70.47 103.27c6.69 5.57 4.7 13.4-2.53 14.08h-44.7c-7.43-.21-8.55-10.38-2.69-13.82V44c0-8.2 4.63-12.26 12.82-11.99 11.58 2.44 36.7-7.07 37.08 10.98.02 20.09 0 40.18 0 60.27ZM99.88 64.8c2.55-.21 4.8-.39 7.33-.59 1.82 10.51 3.29 22.04.66 32.55-8.59 18.75-32.37 6.22-25.81-14.21.04-5.23 4-13.54-3.63-14.58-.57-.17-1.11-.44-1.86-.74v-7.6c18.9.68 13.83 18.96 12.48 31.31-.21 3.77 2.45 6.59 5.75 6.66 12.88-1.94 3.84-24.02 5.09-32.8Z" style="fill:#7f827e;stroke-width:0"/><path d="M91.72 18.54c2.71-.89 5.06-1.66 8.15-2.67 4.05 11.57 7.9 22.55 11.71 33.42l-3.79 4.07c-.13.81-.28 1.77-.48 3.1h-6.76c-4.29-5.61-9.92-12.93-5.9-21.85.62-1.23.61-3.02.29-4.42-1.02-4.24-2.66-7.01-3.21-11.64Z" style="fill:#40436e;stroke-width:0"/><path d="M89.61 54.94c.15.17.29.34.71.83-.62-.21-.84-.28-1.06-.35.09-.18.21-.34.34-.48Z" style="fill:#fefefe;stroke-width:0"/><path d="M46.07 40.69c24.13-2.14 16.55 5.67 17.59 24.19.11 9.22-23.99 3.66-30.74 5-9.36-.41-3.74-16.86-5.17-23.23-.29-9.5 12.33-4.98 18.32-5.96" style="fill:#4a3726;stroke-width:0"/></svg>