<svg xmlns="http://www.w3.org/2000/svg" data-name="fill_propane" viewBox="0 0 128 128"><defs><linearGradient id="a" x1="-1647.94" x2="-1648.02" y1="161.97" y2="386.3" gradientTransform="matrix(.5 0 0 .5 888 -74)" gradientUnits="userSpaceOnUse"><stop offset="0" stop-color="#ae6956"/><stop offset="1" stop-color="#9c3432"/></linearGradient><linearGradient id="b" x1="-1646.79" x2="-1646.85" y1="291.43" y2="337.43" gradientTransform="matrix(.5 0 0 .5 888 -74)" gradientUnits="userSpaceOnUse"><stop offset="0" stop-color="#f29012"/><stop offset="1" stop-color="#e95813"/></linearGradient></defs><path d="M105.92 44.87c-.25-8.12-1.67-15.06-9.76-18.74-1.42-.64-5.66-1.99-7.01-1.99H81.4c-.22-7.35 1.96-19.13-8.22-20.03-4.56-.4-14.04-.45-18.54.02-10.42 1.1-8.04 12.54-8.24 20.01h-8.25c-1.09 0-5.64 1.55-6.86 2.14-5.94 2.85-9.3 8.65-9.41 15.09-.32 17.95.08 36 0 54.04.66 8.62 6.29 14.62 14.45 16.8.04 5.03-.86 10.23 5.07 11.93 15.2.17 30.37 0 45.5-.5 5.95-1.79 3.48-6.58 4.07-11.43 9.5-2.37 14.67-8.58 14.95-18.3.42-14.69.46-34.4 0-49.04M67.9 24.14h-8v-7.5h8z" style="fill:#090b0e"/><path d="M78.4 27.14h11.75c.89 0 5.46 1.94 6.42 2.58 4.32 2.89 5.62 6.58 6.33 11.42.76 18.17.06 36.22 0 54.5.05 7.85-6.78 13.83-14.48 14.02-.26 2.97.3 6.28-.07 9.2-.26 2.13-1.23 2.16-3.18 2.3-11.88.83-30.66.83-42.54 0-.76-.05-1.76-.08-2.4-.48-1.62-1.02-.47-8.91-.85-11.02-7.69-.19-14.53-6.17-14.48-14.02-.17-18.17-.17-36.34 0-54.5.3-5.33 2.04-9.21 6.85-11.9.71-.4 4.49-2.1 4.9-2.1H49.4V12.47c0-1.81.82-3.55 2.28-4.62 3.53-2.58 9.09-1.7 13.48-1.86 5.24.04 10.45-.54 12.77 4.24.32.66.47 1.4.47 2.14zM57.22 14.29s.09 12.25.07 12.29h13.14c-.02-4.15.06-9.85-.13-12.25-1.03-.04-13.09-.04-13.09-.04Zm2.08-1.15" style="fill:url(#a)"/><path d="M62.51 34.26c2.11-2.11 7.29 1.9 9.24 3.27 7.7 5.4 14.68 13.28 17.66 22.34 8.06 24.54-11.1 46.21-36.52 38.02-18.15-5.85-16.68-25.04-12.13-40.14.53-1.75 3.36-9.94 4.34-10.65 4.05-2.93 5.16 4.06 6.53 6.55 1.1 1.98 4.71 7.33 7.27 5.75.54-.33 1.87-3.53 2.13-4.37 1.43-4.61 1.5-9.86 1.38-14.66-.04-1.66-1.29-4.72.1-6.11" style="fill:#090b0e"/><path d="M26.9 38.39c1.12-6.64 8.76-9.37 14.77-8.77 2.38.24 2.29 2.5.48 2.52-3.74.05-6.83.04-9.76 2.24-4.18 3.13-3.16 7.81-3.07 11.93.04 1.72-2.54 2.19-2.58-.28-.04-2.16-.16-5.71.17-7.64Z" style="fill:#ce8484"/><path d="M65.65 107.64h20c.99 0 .99 3 0 3h-20c-.84 0-1.18-2.56 0-3" style="fill:#090b0e"/><path d="M26.9 52.14c0-1.8 2.5-1.57 2.51-.21l-.04 13.21c.03 1.57-2.4 1.67-2.47 0 .04-4.44.05-8.74 0-13" style="fill:#ce8484"/><path d="M50.74 110.61c-1.89-.01-1.87-2.95-.09-2.97h8.5c1.36 0 1.36 3 0 3-2.32 0-6.28-.01-8.41-.03" style="fill:#090b0e"/><path d="M50.6 17.75c.05-.88 2.63-1.06 2.64.06.01 2.79-.01 3.48-.11 6.51-.03 1.03-2.61 1.24-2.59-.02.03-3.37.04-3.82.06-6.55" style="fill:#ce8484"/><path d="M64.9 36.64c.25-.28 3.23 1.64 3.76 1.99 13.9 8.99 24.6 26.21 17.98 43.01-1.82 4.63-6.18 10.97-11.24 12 4.19-6 2.88-14.18-1.51-19.74-1.68-2.12-9.03-9.38-11.45-5.97-1.27 1.79-.06 3.47-.13 4.96-.07 1.61-.62 3.63-.91 5.25-2.41-.99-1.68-5.46-4.74-5.46-2.27 0-3.35 3.67-3.98 5.48-1.57 4.51-2.24 8.28-1.05 13.01.35 1.39 1.31 2.59 1.54 3.96-15.62-5.01-13.78-22.83-10.11-35.6.35-1.21 2.98-9.08 3.37-9.39.77-.61.86.13 1.11.64 1.31 2.67 1.9 5.14 3.9 7.6 1.07 1.32 4.08 4.29 5.73 4.27 3.69-.05 5.26-3.17 6.27-6.24.38-1.15 1.48-5.1 1.48-6.02V36.64Z" style="fill:#f8c640"/><path d="m56.4 75.64 2.97 4.77c5.24 4.69 5.4-6.57 5.52-9.53.02-.57-.07-1.06.74-.74.49.19 3.97 2.93 4.53 3.47 4.89 4.79 7.21 13.04 2.95 18.99-2.73 3.82-7.03 4.52-11.47 4.03-10.72-1.18-8.24-13.96-5.24-21Z" style="fill:url(#b)"/></svg>