<svg xmlns="http://www.w3.org/2000/svg" data-name="fill_cotton" viewBox="0 0 128 128"><path d="M97.97 35.55c39.72 5.32 37.78 67.54-3.64 65.94-3.52 3.9-9.59 7.3-15.28 9.19.28 5.9-1.26 14.08-8.84 14.07-11.72.94-23.26.82-20.97-14.58-6.42-1.49-11.65-4.68-15.64-10.11-32.37 9.45-50.92-55.03-3.42-64.59 4.28-43.44 63.58-43.35 67.79.08" style="fill:#4a3726;stroke-width:0"/><path d="M80.36 73.8c-13.97-19.5-18.25-19.01-32.15.19-11.43 2.21-24.75 3.16-18.85 18.9-31.97-5.32-22.44-53.91 10.28-48.93-8.93-42.07 56.93-44.06 48.81.08 33.46-5.25 41.56 44.01 10.62 48.45 7.44-14.55-8.44-16.53-18.72-18.69Z" style="fill:#aeaeae;stroke-width:0"/><path d="M69.95 101.54v14.12H58.07v-14.35c-12.34 1.89-18.5-4.59-21.84-15.39 6.11-3.91 12.35-3.57 18.94-1.46 1.13-6.87 3.58-12.65 9.23-17 5.06 4.67 8.48 9.89 9.03 16.91 6.69-2.55 12.76-1.45 19.02 1.01-1.99 11.23-11.37 17.65-22.5 16.17Z" style="fill:#674f47;stroke-width:0"/></svg>