<svg xmlns="http://www.w3.org/2000/svg" data-name="fill_enoki" viewBox="0 0 128 128"><defs><linearGradient id="a" x1="-5238.4" x2="-5216" y1="-42.45" y2="79.51" gradientTransform="matrix(.5 0 0 .5 2664 74)" gradientUnits="userSpaceOnUse"><stop offset="0" stop-color="#bfa878"/><stop offset="1" stop-color="#dfcea5"/></linearGradient><linearGradient id="b" x1="-5192.83" x2="-5199.29" y1="4.66" y2="95.97" gradientTransform="matrix(.5 0 0 .5 2664 74)" gradientUnits="userSpaceOnUse"><stop offset="0" stop-color="#c0aa79"/><stop offset=".66" stop-color="#decda3"/><stop offset="1" stop-color="#dfcea4"/></linearGradient><linearGradient id="c" x1="-5139.33" x2="-5145.52" y1="8.67" y2="90.44" gradientTransform="matrix(.5 0 0 .5 2664 74)" gradientUnits="userSpaceOnUse"><stop offset="0" stop-color="#c0aa7a"/><stop offset="1" stop-color="#dfcea4"/></linearGradient><linearGradient id="d" x1="-5251.36" x2="-5231.66" y1="17.19" y2="98.03" gradientTransform="matrix(.5 0 0 .5 2664 74)" gradientUnits="userSpaceOnUse"><stop offset="0" stop-color="#c0a979"/><stop offset=".64" stop-color="#dccba0"/><stop offset="1" stop-color="#dfcea5"/></linearGradient><linearGradient id="e" x1="-5157.53" x2="-5187.38" y1="10.26" y2="82.32" gradientTransform="matrix(.5 0 0 .5 2664 74)" gradientUnits="userSpaceOnUse"><stop offset="0" stop-color="#bfa979"/><stop offset=".62" stop-color="#decda3"/><stop offset="1" stop-color="#dfcea4"/></linearGradient></defs><path d="M74.04 14.46c5.98-.18 11.59 2.36 14.87 7.39 4.05 6.21 4.21 12.83-3.42 15.9-3.09 1.24-4.01-.47-3.49 4.26.31.35 3.49-2.21 4.16-2.58 11.05-6.15 23.74 2.18 22.28 14.78-.31 2.66-1.45 5.83-3.95 7.05 4.89 5.3 4.96 14.05-3.46 15.29 1.22 13.93 1.06 27.85-5.95 40.3-2.03 3.6-4.47 8.14-9.37 6.19-1.64-.65-3.22-3.03-3.24-4.77-.02-2.08 4.19-8.09 5.26-10.77 3.93-9.77 3.2-17.59 2.76-27.75-.04-.97.04-.78-1-.74L76.5 117.78c-.21 2.93-4.25 3.68-4.91 4.34-.25.25-.28 1.43-.67 2.07-2.07 3.4-7.5 3.53-9.38 0-.85-1.59-.97-7.63-1.81-7.68-.46.82-3.62 1.85-3.75 2.01-.21.27 1.56 3.75-.79 6.44-6.36 7.27-15.19-8.89-17.3-13.62-3.92-8.78-5.62-18.35-6.93-27.81-8.47.3-10.94-5.56-9.25-13.05 1.81-8.03 9.97-12.02 17.77-10.98l-1.52-4.97c-5.75 1.5-11.65 1.76-13.84-4.91-4.49-13.7 9.08-26.34 22.36-20.36 1.04.47 1.83 1.3 2.74 1.77.38.2.56.88 1.02 0 .25-.48.81-4.17.53-4.54-7.28-1.24-10.37-5.16-8.56-12.49 4.14-16.81 28.24-16.2 31.81.48ZM60.99 38c-.13-.09-.95-.18-.99.25-.67 6.73-1.28 13.48-1.5 20.25.3.34 3.85-2.24 4.65-2.59 2.91-1.27 5.75-1.79 8.84-.91l-.5-13.5c-3.27-.15-6.94.8-9.54-1.72-.68-.66-.89-1.71-.98-1.77ZM50 111c-.26-9.64-1.63-19.22-3.6-28.64-.71-1.73-2.83.02-4.39-.35.44 8.72 2.56 17.31 5.91 25.33l2.09 3.66Z" style="fill:#0c0e0d"/><path d="M51.83 46.33c-1.69 1.7-9.16 3.7-11.83 4.42-6.05 1.64-12.79 4.42-13.96-4.54C24.45 34.04 38.5 25.72 48.25 33.5c3.03 2.41 6.89 9.5 3.58 12.83M63 35.5c-.42-1.3-.82-2.67-1-5-1.23-13.07 19.1-18.56 25.27-6.02 1.58 3.22 2.84 7.02-.52 9.52-1.96 1.46-16.9 5.15-19.48 5.02-2.86-.15-3.61-1.16-4.27-3.52" style="fill:#926607"/><path d="M49.04 7.72c3.51-3.79 10.24-4.51 14.78-2.42 3.15 1.74 6.69 5.18 7.27 8.78.09 1.48-1.64 1.74-2.71 2.26-3.17 1.48-5.47 3.89-7.26 6.73-.64 1.04-1.67 1.52-2.87 1.32-4.17-.52-10.62-.23-12.86-3.42-2.35-3.67 1.18-10.25 3.55-13.16l.1-.1ZM25.31 68.45c4.76-8.5 16.66-8.33 21.55.17 2.39 4.34 1.76 9.67-3.79 10.71-2.38.63-4.92.9-7.39 1.13-10.35 1.46-13.89-2.25-10.45-11.84zM84.5 43.71c8.06-8.52 22.93-1.72 21.49 9.8-.33 3.03-2.46 6-5.83 5.02-3.77-1.18-7.6-.98-11.44-1.42-8.31-1.24-8.36-7.61-4.33-13.27l.12-.13Z" style="fill:#926607"/><path d="M40.5 53c1.61.44 4.21-1.82 5.25-.5 1.02 3.05 2.37 6.07 3.4 9.11 4.47 13.31 7.16 27.17 8.36 41.14.29 3.39.9 7.06.52 10.52-.21 1.94-1.32 2.54-3.25 2.23-3.28-.53-2.05-8.71-2.25-11.27-.43-5.41-1.26-11.47-2.15-16.85-.34-2.05-1.7-5.46-1.77-7.24-.03-.87 1.12-1.43 1.51-2.28 2.02-4.39-.03-10.21-3.12-13.6-1.21-1.33-3.09-2.21-3.92-3.58-.44-.73-2.91-7.44-2.57-7.68Z" style="fill:url(#a)"/><path d="M62.16 91.02c.25-4.1.33-8.33 1.2-12.37 1.07-3.99 5.25-4.92 5.8-.7-.69 10.24-2.25 20.62-1.28 30.92-.14 3.28 3.54 15.05-1.8 14.83-6.42-2.31-3.85-26.2-3.93-32.47v-.2Z" style="fill:url(#b)"/><path d="M102.79 63.68c2.2 2.26 3.41 6.85.65 8.97-1.71 1.29-3.87 1.61-5.93 2.23-4.68 1.07-12.11 3.99-13.42-2.51-1.94-11.26 11.58-17.32 18.57-8.84z" style="fill:#926607"/><path d="M98.5 77.5c.36 5.69.88 11.53.5 17.25-.43 6.43-4.21 20.61-8.98 25.02-2.55 2.36-5.05.91-4.52-2.49.18-1.17 2.52-3.87 3.26-5.27 4.83-9.23 5.08-18.55 4.76-28.78-.15-4.95-2.03-5.54 4.98-5.73" style="fill:url(#c)"/><path d="M62.37 59.49c5.26-4 13.17-2.08 15.99 3.89 1.74 3.67 2 9.57-3.1 10.13-1.94.21-6.9-.26-9.01-.51-6.37-.76-10.34-1.79-7.28-9.3.35-.85 2.45-3.49 3.4-4.21" style="fill:#926607"/><path d="M38.08 82.75c1.92 1.86 1.07 5.3 1.75 7.78 1.34 7.13 4.14 15.83 7.94 21.99 1.37 2.18 3.27 4.29 4.87 6.34 1.22 1.43 2.03 3.67.09 4.66-3.28 1.43-6.04-2.86-7.82-5.08-6.32-8.81-9.6-20.42-10.92-31.34-.14-1.14-.25-2.5.32-3.45.7-1.25 2.48-1.79 3.65-1l.12.08Z" style="fill:url(#d)"/><path d="M82.99 76c.07.05.15.97.72 1.51 1.09 1.03 3.41.85 2.7 3.11-1.97 6.19-4.57 12.23-6.67 18.37-1.91 5.6-3.5 13.32-5.99 18.51-.27.56-1.41 2.59-2.25 1.99-.57-.41-1.1-8.34-.89-9.63.29-1.76 3.13-9.93 3.99-11.51.81-1.5 2.2-1.41 3.14-3.86 2.09-5.48 2.12-12.55 4.26-18.18-.12-.51.89-.38.99-.31" style="fill:url(#e)"/><path d="M78.5 75.5c.31.31-.49 5.65-.64 6.61-.44 2.77-1.47 9.21-2.49 11.51-.96 2.18-4.12 2.76-4.77.53-1.2-4.07 2.78-12.69 2.48-17.32.42-1.27 4.05-.8 5.42-1.33" style="fill:#dacaa1"/><path d="M79.24 39.56c.55 1.46.47 3.45.74 5.05.19 2.04-.88 4-.84 6.13-.02 2.83 1.2 5.72 1.06 8.53-.1 1.38-.91 1-1.75.32-1.39-1.28-3.48-2.41-4.03-4.31-.61-2.95.31-8.07-.26-11.54-.2-1.48-.56-3.51 1.21-4.04 1.31-.38 3.02-.94 3.79-.23l.08.1Z" style="fill:#c6b285"/><path d="M56.5 48c-.55 7.96-1.44 17.03.01 24.74L56 76.5l-5.5-19.24c-.14-1.4.18-6.13.75-7.26.39-.8 2.71-1.73 3.25-2.5 1.64-2.34 1.19-7.27.09-9.84-.53-1.25-2.01-2.76-2.08-3.93-.05-.78 1.13-6.78 1.45-7.01 1.17-.83 3.62.42 5.03.29-.12 1.86-.32 3.78-.61 5.62C57.6 37.68 56.86 42.8 56.5 48" style="fill:#dacaa1"/><path d="M62.8 31.05c.78-3.14 1.56-6.74 3.83-9.04.74-.66 1.89-1.48 2.7-.75.39.48.18 1.19-.06 1.73-.93 1.8-2.78 3.89-2.92 6.41-.24 1.74.25 3.49.13 5.2-.13 1.61-1.72 1.82-2.61.82-1.06-1.03-1.32-2.78-1.09-4.22l.02-.16Zm22.66 13.31c2.06-1.35 4.83-3.46 7.39-3.15.75.13 1.1.9.58 1.53-1.54 1.75-5.03 2.46-6.27 4.94-1.15 1.57-1.18 4.14-2.85 4.64-.78 0-1.19-.93-1.35-1.7-.39-2.28.7-4.81 2.36-6.14zM26.15 69.71c1.42-2.14 3.6-5.09 6.14-5.57.77-.1 1.12.64.82 1.35-.58 1.61-3 3.61-3.69 5.73-.85 2-.73 4.3-1.82 5.62-.43.43-.94.5-1.45 0-1.59-1.78-1.23-4.97-.1-6.95l.1-.17ZM50.12 8.05c.96-.91 5.7-2.77 5.4-.25-1.02 1.94-3.69 2.75-4.82 4.82-1.21 1.7-1.51 3.87-2.34 5.76-.3.58-.75 1.38-1.45 1.27-2.7-1.76.89-10.11 3.06-11.47l.15-.12Z" style="fill:#c9a559"/><path d="M62 107.5c-.21-4.27-.05-8.94 0-13.26 0-.84-.33-2.24.51-2.74-.13 4.4.06 8.84 0 13.26 0 .84.33 2.24-.51 2.74" style="fill:#dacaa1"/><path d="M32.62 34.99c1.16-.1 1.66 1.25 1.04 2.12-.86 1.24-3.05 3.48-3.39 5.63-.36 1.45-.12 3.06-.44 4.5-.24 1.19-1.14 1.74-1.85.69-.64-1.08-.64-2.57-.62-3.82.04-2.6.74-4.47 2.16-6.59.73-1.03 1.69-2.28 2.94-2.51l.15-.02Zm52.43 36.5c-1.51-2.16 1.73-8.75 4.53-9.05 2.41-.05.94 2.45-.02 3.44-.46.57-.88 1.16-1.18 1.83-.79 1.78-.79 5.18-3.23 3.88l-.1-.09ZM60.7 63.07c1.41-1.95 3.94-4.19 6.45-3.73 1.03.29 1.06 1.21.08 2.13-1.09 1.06-2.52 1.92-3.41 3.21-1.22 1.64-1.45 3.85-2.66 4.93-.43.39-1.01.34-1.34-.15-1.11-1.86-.29-4.5.78-6.22l.11-.17Z" style="fill:#c9a559"/></svg>