<svg xmlns="http://www.w3.org/2000/svg" data-name="fill_product" viewBox="0 0 128 128"><path d="M63.93 122.92c-3.36 1.69-6.33.98-9.29-.75-13.99-8.16-27.98-16.33-42.05-24.34-3.85-2.19-5.63-5.04-5.57-9.55.17-13.53.1-27.06.03-40.6-.02-2.97.55-5.56 2.92-7.54.38-.32.9-.77.91-1.17.15-4.47 3.43-6.3 6.69-8.27C31 22.59 44.45 14.51 57.75 6.19c4.34-2.71 8.11-2.87 12.38.05 4.54 3.1 9.43 5.68 14.08 8.62 1.54.97 2.82 2.34 3.93 3.29 2.57 1.21 4.98 2.14 7.18 3.43 5.38 3.15 10.6 6.57 16.01 9.67 3.29 1.89 5.59 4.28 5.85 8.26 3.08 2.13 3.82 5.2 3.81 8.73-.07 13.22-.1 26.44.02 39.66.04 4.51-1.56 7.58-5.61 9.87-14.19 8.02-28.26 16.26-42.34 24.49-2.91 1.7-5.79 2.21-9.1.65Z" style="fill:#4a3726;stroke-width:0"/><path d="M14.89 89.83V46.31c15.56 8.76 30.39 17.45 45.21 26.12v43.53c-15.49-8.95-30.37-17.55-45.21-26.13m52.98-15.91c.56-.88.9-2.13 1.7-2.6 13.88-8.11 27.81-16.12 41.73-24.14.35-.2.77-.28 1.44-.53v2.26c-.69.91-.55 1.98-.55 3q-.015 16.995 0 33.99c0 1.03-.14 2.1.56 3-1.02.93-1.9 2.09-3.07 2.77a6160 6160 0 0 1-37.7 21.93c-.87.51-1.93.7-2.89 1.05-.99-1.04-.63-2.35-.64-3.56-.03-11.09 0-22.18-.03-33.26 0-1.32.3-2.71-.55-3.92Z" style="fill:#7b5b3b;stroke-width:0"/><path d="M63.95 65.48c-6.39-3.68-12.76-7.34-19.9-11.45l44.56-27.15c6.85 4.18 13.48 8.23 20.46 12.49C94 48.09 79.2 56.66 63.94 65.49ZM36.29 49.57c-5.74-3.36-11.26-6.59-17.51-10.25C34.18 29.95 49 20.94 63.94 11.86c5.63 3.44 11.08 6.79 17.13 10.49z" style="fill:#a5805b;stroke-width:0"/><path d="M75.54 89.58c4.06-2.28 8.17-4.59 12.7-7.12v13.18c-3.93 2.28-8.1 4.69-12.7 7.35z" style="fill:#4a3726;stroke-width:0"/></svg>