<svg xmlns="http://www.w3.org/2000/svg" data-name="fill_drygrass_windrow" viewBox="0 0 128 128"><defs><linearGradient id="a" x1="-2979.36" x2="-2980.15" y1="933.66" y2="1086.66" gradientTransform="matrix(.5 0 0 .5 1554 -444)" gradientUnits="userSpaceOnUse"><stop offset="0" stop-color="#909d70"/><stop offset="1" stop-color="#63733e"/></linearGradient></defs><path d="M119.33 73.17c2.16 2.25 2.38 5.04 3.73 7.02.84 1.23 2.95 1.61 3.36 3.67.27 1.32-.41 2.05-.38 2.91.03 1.05 1.43 1.96.95 4.47-.21 1.08-1.15 1.34-1.39 2.11-.46 1.46.19 2.25-1.1 3.9-.96 1.24-2.13 1.22-2.86 1.89-.6.55-.72 1.77-1.51 2.37-.34.26-6.85 2.14-7.56 2.22-3.14.38-7.11-1.14-10.3-1.26-3.64-.13-6.82 1.26-10.45 1.09-1.71.53.33 2.88-.79 4.6-.87 1.33-6.96.8-8.78.83-4.77.08-9.72-.03-14.48-.02-9.5 0-19.01.05-28.51.01-3.46-.58-.75-6.02-1.26-6.49-5.1.15-9.51 1.38-14.77 1.02-2.14-.15-4.65-1.11-6.47-1.05s-2.95 1.35-4.9.94c-1.45-.31-1.93-1.63-2.89-2.14-1.16-.61-2.27-.3-3.5-1.5-.26-.26-3.9-5.68-3.97-6.04-.23-1.32.34-2.51.27-3.51-.16-2.24-1.96-2.05-.2-5.41 1.08-2.07.87-1.71 1.55-3.94.82-2.65 4.21-3.76 5.6-5.9 1.58-2.42 1.83-5.34 4.32-7.68.85-.81 1.96-1.07 2.88-2.12 1.57-1.8 1.95-4.65 3.36-6.64 1.31-1.85 3.5-2.79 4.73-4.27 1.57-1.88 1.93-4.94 3.79-7.21 1.36-1.67 3.27-2.45 4.42-4.08 1.46-2.05 1.74-4.77 3.57-6.93 1.33-1.57 3.57-2.61 4.72-4.28.98-1.43 1.27-3.33 2.72-4.78 1.79-1.77 4.01-1.94 5.94-3.06s3.67-3.53 6.1-3.9c1.73-.26 3.71.16 5.47-.03 2.51-.27 4.13-1.32 6.96-.96 2.11.27 3.55 1.69 5.28 2.22 1.55.48 3.29.38 5 1 3.13 1.14 3.67 3.53 6 5.5 2.47 2.09 4.13 2.2 5.88 5.62 2.69 5.26 2.24 3.71 5.9 7.6 2.17 2.3 2.07 4.84 3.5 7 1.09 1.65 3.5 2.71 4.93 4.57 1.8 2.32 2.02 5.3 3.79 7.21 1.31 1.41 3.47 2.45 4.72 4.28s1.61 4.55 2.85 6.15c.88 1.14 2.81 2 3.76 2.99Z" style="fill:#0c0e0d"/><path d="M107.17 62.83c.75.75 2.11 1.21 2.84 2.05 1.52 1.76 1.55 4.24 2.76 6.1 1.28 1.96 3.87 3.05 5.23 4.77 1.54 1.96 1.6 4.74 3.07 6.43.77.88 2.37 1.29 2.46 1.65.25 1.05-.24 2.67 0 3.91.17.89 1.1 1.37.93 2.4-.19 1.17-1.61 1.88-1.84 2.71-.27.94.13 2.68-.16 3.1-.17.25-1.81.36-2.42.83-.85.64-.83 2.34-1.84 2.66s-2.21-.11-3.32.18c-.65.17-1.17.95-1.83 1.17-2.73.89-6.34-.61-9.26-.8-4.63-.3-8.31.91-12.77 1.02-.33-6.48 2.56-12.78 6.51-17.74 1.43-1.8 5.83-4.23 3.26-6.78-3.01-3-8.16 2.64-10.54 2.41-.56-.06-1.11-1.31-1-1.92.29-1.54 3.99-7.69 5.06-9.42 1.75-2.82 3.7-5.61 5.96-8.05 1.27-10.68-13.12 3.71-13.75 3.01.37-1.81 1.63-3.59 2.6-5.15 1.09-1.76 8.04-9.86 2.16-9.89-2.45-.01-10.33 5.75-12.5 7.55-.87.72-4.28 4.94-5.26 3.99L76 44.8c-1.7-4.98-5.18-1.4-7.19 1.27-1.79 2.38-3.6 5.56-4.3 8.46-1.86-2.03-2.86-4.82-4.58-7.17-1.45-1.97-4.59-6.28-7.43-4.59-2.48 1.48 1.67 10.08 1 12.76-2.19-1.65-5.74-7.96-8.84-6.64-4.03 1.72 1.23 7.42.84 10.63l-4.49-4.76c-2.17-1.41-4.99-4.42-7.76-4.29-5.61.27 1.48 9.95 2.61 12.44 1.49 3.26 2.71 6.65 3.64 10.11-2.11-2-11.6-7.12-10.49-.78.28 1.63 4.27 7.15 5.26 9.25 2.66 5.63 4.23 12.28 4.23 18.52-5.12-.29-9.53 1.44-14.75.99-1.81-.16-3.62-.92-5.48-1.01s-4.25.69-5.5.54c-1.18-.15-1.47-1.29-2.3-1.74s-3.19-.62-3.39-.86c-.18-.22-.13-1.74-.63-2.62-.59-1.05-2.16-1.39-2.4-2.13-.3-.95.58-2.21.46-3.38-.1-.93-1.02-1.76-1.01-2.55.02-.95 1.44-1.65 1.78-2.71.31-.98.05-2.07.48-3.02.62-1.4 3.82-2.93 4.96-4.54 1.32-1.87 1.67-4.52 3.06-6.44s3.79-2.75 5.14-4.86c1.16-1.82 1.53-4.38 2.86-6.14 1.24-1.64 3.63-2.64 4.94-4.56 1.39-2.02 1.68-4.7 3.36-6.64 1.09-1.26 2.71-1.91 3.84-3.16 1.93-2.13 1.87-4.46 3.36-6.64 1.26-1.83 3.39-2.78 4.72-4.28 1.42-1.61 1.84-4.28 3.17-5.58s4-1.58 5.69-2.56 2.92-2.91 5.12-3.4c1.93-.43 2.99.41 4.76.32s4.05-1.6 5.9-1.42c1.58.15 3.37 1.63 4.88 2.14 2.08.69 5.18.59 6.75 1.75 1.22.89 2 3.09 3.02 3.98 1.19 1.04 3.76 1.7 4.94 3.06s1.62 4.24 2.59 5.91c1.61 2.79 4.26 3.16 5.91 5.59 1.19 1.75.99 3.1 1.75 4.75 1.12 2.45 3.95 3.19 5.46 5.04 2.09 2.54 2.49 6.23 5.24 9.01Z" style="fill:url(#a)"/><path d="M60 106.5c.16-4.4-.21-8.87-.02-13.27.54-12.86 2.96-34.79 10.72-45.28.42-.57.65-1.53 1.55-1.45.94-.02-1.14 11.69-1.25 12.75-1.51 15.76-1.41 31.68 1.5 47.25z" style="fill:#9daf6f"/><path d="M81.5 106.5h-6.49c-.39-5.26-1.59-10.5-2-15.75-.26-3.33.48-6.75-.5-10 .59-4.49-.16-10.73.52-14.97.73-4.58 12.41-12.84 16.73-14.76l-6.35 10.65c-5.4 11.37-9.13 24.47-5.25 36.94.36 1.17 3.74 7.5 3.34 7.9Zm-41.5 0c2.37-8.57.63-17.37-2.91-25.34l-4.84-9.15c.98.61 2.08.84 3.1 1.4 5.55 3.02 11.39 10.79 13.3 16.7 1.66 5.14 2.38 11.01 2.36 16.39h-11Zm7.49-54c.05.04.12.84.49 1.24 4.64 4.89 9 10.19 11.49 16.54-.74 12.03-3.14 24.18-1.97 36.23H54c.47-6.76.65-13.46 0-20.25-1.07-11.24-3.89-22.37-7.49-33.02-.34-.84.66-.99.98-.72Z" style="fill:#9daf6f"/><path d="m51 88-4.48-7.76c-4.38-4.12-4.39-9.95-6.77-15.23l-5.5-11.5c4.47 2.06 8.15 6.05 10.96 10.03 3.7 5.24 5.01 12.83 5.74 19.26.19 1.72-.02 3.48.05 5.2m38 18.5c-.99-.2-3.84.34-4.42-.07-.35-.25-3.31-7.03-3.46-7.79-.62-3.04 1.09-6.07 2.68-8.6 3.16-5.04 7.89-8.91 13.46-11.03l-5.67 8.33c-3.17 6-3.9 12.52-2.59 19.16m-9.5-24.75c.68-6.26 2.94-11.72 7.49-16.01 1.16-1.09 8.44-7.13 9.51-6.24-5.83 7.93-10.44 16.34-12.75 26L79.5 92c.26-3.28-.35-7.03 0-10.25M61 65.5c-.91.2-.98-.27-1.41-.83-2.61-3.36-2.51-4.51-3.14-8.36-.59-3.62-1.27-7.21-1.94-10.81.91.53 1.82 1.46 2.49 2.26 1.77 2.12 5.75 9.36 5.49 11.94-.17 1.74-1.57 3.87-1.48 5.8Z" style="fill:#9daf6f"/></svg>