<svg xmlns="http://www.w3.org/2000/svg" data-name="fill_metal" viewBox="0 0 128 128"><defs><linearGradient id="a" x1="-1376.6" x2="-1376.68" y1="-672.94" y2="-528.94" gradientTransform="matrix(.5 0 0 .5 740 370)" gradientUnits="userSpaceOnUse"><stop offset="0" stop-color="#a0a0a8"/><stop offset=".28" stop-color="#9f9fa8"/><stop offset="1" stop-color="#7d7c81"/></linearGradient><linearGradient id="b" x1="-1337.31" x2="-1270.14" y1="-692.96" y2="-581.66" gradientTransform="matrix(.5 0 0 .5 740 370)" gradientUnits="userSpaceOnUse"><stop offset="0" stop-color="#83828a"/><stop offset=".26" stop-color="#838289"/><stop offset="1" stop-color="#545458"/></linearGradient><linearGradient id="c" x1="-1378" x2="-1378.31" y1="-627.44" y2="-570.44" gradientTransform="matrix(.5 0 0 .5 740 370)" gradientUnits="userSpaceOnUse"><stop offset="0" stop-color="#545458"/><stop offset=".28" stop-color="#555559"/><stop offset="1" stop-color="#828086"/></linearGradient></defs><path d="M77.89 21.14c36.73-4.17 54.76 40.82 26.57 63.57-23.04 12.86-44.76 36.34-72.8 20.38C7.82 91.52 4.81 57.72 25.49 39.75c12.48-10.85 36.9-12.88 52.39-18.61Z" style="fill:#0a0d0e"/><path d="M47.39 33.14c30.52-3.14 51.67 28.8 36.7 55.7-14.05 25.25-51.34 24.73-65.18-.5-12.66-23.08 2.31-52.5 28.48-55.19Z" style="fill:url(#a)"/><path d="M84 94c18.22-24.96 2.19-60.75-28.5-63.5l18.49-5.75c36.58-8.53 56.97 36.73 27.67 58.67L84 94.01Z" style="fill:url(#b)"/><path d="M48.39 52.64c17.01-2.01 27.44 17.74 16.1 30.6-8.99 10.19-26.02 6.94-30.84-5.63-4.18-10.9 3.07-23.59 14.74-24.97" style="fill:#0a0d0e"/><path d="M34.86 38.59c.98-.2 2.62 0 1.9 1.42-.49.95-5.82 3.97-7.27 5.23-2.38 2.09-3.55 4.41-5.49 6.51-1.22 1.32-2.52.17-2.43-.91.22-2.49 10.58-11.69 13.29-12.24Zm8.52-3.47c1.23-.15 3.15-.23 2.6 1.62-.19.64-7.49 3.24-7.98 1.51-.51-1.79 4.12-2.98 5.38-3.13" style="fill:#c7c7c8"/><path d="M47.37 55.62C70.15 51.76 72.9 84.3 52.7 86.45s-23.04-27.83-5.33-30.83" style="fill:url(#c)"/></svg>