<svg xmlns="http://www.w3.org/2000/svg" data-name="fill_horse" viewBox="0 0 128 128"><defs><linearGradient id="a" x1="463.19" x2="462.88" y1="13.31" y2="183.31" gradientTransform="translate(-148)scale(.5)" gradientUnits="userSpaceOnUse"><stop offset="0" stop-color="#a57e63"/><stop offset="1" stop-color="#865d3f"/></linearGradient><linearGradient id="b" x1="384.82" x2="384.91" y1="13.95" y2="183.95" gradientTransform="translate(-148)scale(.5)" gradientUnits="userSpaceOnUse"><stop offset="0" stop-color="#a57e63"/><stop offset="1" stop-color="#865d3f"/></linearGradient><linearGradient id="c" x1="424.1" x2="424.12" y1="95.98" y2="228.96" gradientTransform="translate(-148)scale(.5)" gradientUnits="userSpaceOnUse"><stop offset="0" stop-color="#dfbaa2"/><stop offset=".45" stop-color="#dfbaa1"/><stop offset="1" stop-color="#d1a17f"/></linearGradient></defs><path d="M50.49 20c2.34-5.65 8.5-7.08 14.01-5.25 1.33.44 2.92 1.89 3.87 2.13 3.16.83 4.96-.22 8.12 2.41.28.24.83 2.13 1.52 1.21.16-.22 1.03-4.06 1.57-5.19 1.86-3.9 9.5-12.07 13.8-12.73 3.43-.53 4.73 6.52 5.27 9.02 1.98 9.08.77 18.2-5.11 25.61.77 3.02 2.17 6.09 2.96 9.09 2.48 9.4 2.9 20.76-1.91 29.53-1.37 2.5-3.61 4.68-4.86 7.14-2.95 5.83-4.53 15.38-4.7 21.75-.13 4.64-.75 7.19-4.02 10.52-1.89 1.92-4.04 4.72-5.77 6.23-5.9 5.16-16.6 5.27-22.5.02-1.67-1.49-2.27-3.1-3.53-4.47s-3.56-2.54-4.63-4.37c-2.18-3.71-1.24-7.93-1.63-11.87-.91-9.21-3.75-15.1-8.35-22.65-8.03-13.18-5.32-26.75-.21-40.5-.78-2.27-2.57-3.81-3.62-6.17-3.19-7.19-2.85-16.08-.51-23.5.63-2.01 1.68-5.83 4.39-5.41 4.17.64 12.09 8.87 13.81 12.72.71 1.59.57 3.83 2.05 4.69Z" style="fill:#0b0c0d"/><path d="m83.5 95.5-2.55-3.2c-3.12-2.68-6.85-4.22-10.92-4.83-.17-2.82 1.27-5.39 1.49-8.2.34-4.43-1.45-8.22-.97-12.47s3.54-8.61 3.89-13.11c.1-1.28-.63-4.54-.45-4.69s1.77-.02 2.39-.62c1.63-1.57-.6-6.13-.84-8.19-.57-5.01.58-9.96 2.96-14.34 1.64-3.02 1.39-3.95 2.47-7.13 1.92-5.66 7.22-11.03 12.74-13.22 3.73 7.42 4.62 17.69.88 25.33-.81 1.65-4.2 5.2-4.11 6.36 4.66 12.09 8.14 26.34 1.22 38.25-1.19 2.04-3.04 3.89-4.12 5.88-2.16 3.98-3.23 9.7-4.09 14.16Z" style="fill:url(#a)"/><path d="M34.28 5.51c4.74 1.89 9.8 6.42 11.82 11.13 3.66 8.53.59 15.76 4.15 24.85.74 1.9 3.34 5.34 3.65 6.36.44 1.45-.58 4.19-.36 6.35.49 4.63 3.59 9.38 3.89 14.11.23 3.66-1.27 6.94-.96 10.96.21 2.71 1.51 5.19 1.55 7.94-3.95 1.14-7.88 2.24-10.98 5.09l-2.55 3.2c-.81-4.26-1.82-9.61-3.76-13.49-1.21-2.42-3.28-4.47-4.65-6.85-4.9-8.54-4.29-18.06-2.06-27.37.55-2.31 3.48-9.69 3.44-11.06-.02-.61-2.9-3.65-3.57-4.88-1.66-3.02-2.4-7.17-2.93-10.57-.86-5.61 2.39-15.55 3.3-15.76Z" style="fill:url(#b)"/><path d="M46.35 109.21c-1.42-3-.3-11.05 1.42-13.69 2.56-3.89 8.8-5.59 13.23-5.52.18-5.01-2.55-9.06-1.95-14.2 1.27-10.96.6-9.14-2.2-18.9-.83-2.9-.84-4.94-.34-7.9l4.24 6.51c1.77 1.3 3.63 4.85 5.98 4.51.92-.13 2.2-1.32 2.28-2.27.14-1.64-1.34-6.27-1.5-8.49-.13-1.74.08-3.51 0-5.25 4.16 3.72 5.18 7.54 3.65 12.9-2.8 9.76-3.47 7.93-2.2 18.9.58 5.02-1.86 9.34-2.45 14.2 4.56-.17 11.1 1.51 13.73 5.52 1.98 3.02 2.83 10.69 1.64 14.1-1.35 3.85-5.32 5.89-9.17 6.33-4.94.56-19.97.82-23.67-2.22-2.16-2.11-2.68-4.52-2.68-4.52Z" style="fill:url(#c)"/><path d="M52.84 20.99c1.28-3.85 5.78-4.42 9.43-4 3.2.37 3.59 2.61 4.56 2.94 2.3.79 5.94-1.16 7.91 1.59 2.21 3.08-.58 6.94-1.38 10.1-1.38 5.43-.72 9.08.64 14.39-3.93-1.89-6.21-6.27-6.5-10.5-1.22-1.42-2.44 4.64-2.5 5.25-.52 5.41.33 10.91.99 16.25-3.7-2.7-7.92-9.4-8-14 .03-.03.28-11.03 0-12-.43.18-1.01.34-1.39.98-.56.93-1.61 3.86-1.61 4.77v7.25c-2.99-3.38-4.5-9.81-4.51-14.26 0-.96 1.47-6.99 2.35-8.76Z" style="fill:#4e3525"/><path d="M74 118.5c1.42 1.26-6.2 3.93-7.23 4.02-4.62.41-10.38.03-13.27-4.02z" style="fill:#d6ac8f"/><path d="M50.19 112.99c-3.83-.45-3.77-16.71-.22-12.01.93 1.23-.27 5.02.09 6.63s5.82 5.94.13 5.39Z" style="fill:#ffe1cc"/><path d="M58.52 40.29c-.1-12.8 3.93.93 3.9 6.13 0 1.16-1.51 1.7-2.21.77-1.09-1.44-1.37-4.45-1.63-6.03-.05-.29-.07-.58-.07-.87Z" style="fill:#956d50"/><path d="M32.48 11.65c.57-1.78 2.45-.7 2.17 2.13-.12 1.21.37 8.36-.9 8.72-2.56.72-1.59-3.82-1.72-5.29-.06-.67.15-4.21.46-5.56ZM49.5 113.5c-.72-.07-.66-.3-1-.5.54-.07.69.19 1 .5" style="fill:#d6ac8f"/><path d="M90 15.5c.68.68-3.97 9.48-3.5 11.49 2.58-.38 2.23-3.93 5.5-3 0 .54.09 1.12-.09 1.65-.12.35-4.44 5.14-4.94 5.56-3.43 2.93-3.17-3.75-2.92-5.92.33-2.9 2.21-10.27 5.95-9.8Zm-8.35 44.65c3.65-3.33 9.4 1.9 5.37 5.62-4.46 4.12-8.76-2.52-5.37-5.62m-40.5-28.81c-1.25-2.79-5.44-4.11-5.14-7.34 3.26-.93 2.92 2.61 5.5 3 .26-.27-.85-3.95-1.11-4.64-.44-1.17-3.84-6.29-1.63-6.86 1.42-.2 1.95.94 2.51 1.97 1.66 3.03 3.79 10.23 2.35 13.4-.62 1.37-1.34 1.31-2.48.47" style="fill:#0b0c0d"/><path d="M37.8 41.52c.66-.13 1.68.95 1.62 1.64-.05.55-.93 1.9-1.18 2.84-.59 2.33-1.27 5.04-1.61 7.39-.25 1.73.26 4.78-.6 5.9-1.15 1.5-2.34.81-2.56-1.01-.33-2.71 1.8-13.5 3.31-15.74.23-.34.64-.94 1.01-1.02Z" style="fill:#d6ac8f"/><path d="M41.14 66.36c-4.24-3.74 1.46-9.99 5.35-6.09 3.54 3.54-2.12 8.95-5.35 6.09m17.2 41.29c.85.99.91 2.25-.59 2.38-3.29.29-7.96-6.64-4.48-9.02 1.58-.34 1.63 3.28 2.21 4.27s2.3 1.71 2.87 2.37ZM73 101.5c6.83-.91.47 9.55-3.18 8.46-3.02-.9 2.46-3.93 2.93-4.96.5-1.12.2-2.34.26-3.5Z" style="fill:#0b0c0d"/><path d="M52.9 23.63c4.94-11.81 3.25 2.4 1.18 7.17-.46 1.07-2.05.97-2.33-.16-.43-1.76.49-4.63.88-6.18.07-.28.16-.56.28-.83Z" style="fill:#956d50"/></svg>