<svg xmlns="http://www.w3.org/2000/svg" data-name="fill_squarebalegrass" viewBox="0 0 128 128"><defs><linearGradient id="a" x1="-57.84" x2="-267.84" y1="-612.17" y2="-611.9" gradientTransform="matrix(.5 0 0 .5 148 370)" gradientUnits="userSpaceOnUse"><stop offset="0" stop-color="#4e995e"/><stop offset="1" stop-color="#33633d"/></linearGradient></defs><path d="M4.82 27.57c4.66.18 9.27.55 13.95.45 17.63-.37 35.35-.43 52.98-.02 10.69.25 20.16-2.17 30.44 2.56 3 1.38 4.67 4.12 7.47 5.53 2.46 1.24 4.92 1.49 7.49 3.01 1.05.62 5.17 3.45 5.85 4.15 1.44 1.49-.06 5.15-.02 6.97s.96 4 .9 6-.94 4.64-.91 6.5c.03 1.67.94 4.29.93 6.02s-.98 4.22-.93 5.98c.15 5.9.91 11.99.84 17.94-.01 1.14-.28 6.26-.57 6.84-.99 2.02-5.54.53-7.48.47-6.24-.19-12.28.67-18.52.52-18.26-.43-36.7-.43-55 0-7.3.17-14.01.19-20.4-3.6-2.42-1.43-3.65-3.47-5.68-4.82-1.59-1.06-3.57-1.44-5.19-2.31-2.58-1.39-4.72-3.65-6.89-5.61-.22-2.96-.03-5.94-.09-8.91-.14-6.66-.23-13.3.02-19.98.26-6.82-.8-14.76-.54-21.55.03-.91.41-4.84.59-5.41.12-.39.34-.65.75-.75Z" style="fill:#080c0c"/><path d="M30.5 91.5c2.19-5.64.96-5.34.96-10.75 0-9.22.65-18.27.05-27.5-.24-3.64.89-6.73-2.74-9.26-1.02-.71-2.52-.84-3.39-1.48-.78-.57-1.15-2.02-2.4-2.73-2.79-1.61-5.22-3.2-7.95-5.05-1.03-.7-1.8-2.07-2.75-2.76-.7-.51-1.83-.14-1.77-.97 5.83.76 11.49-1.43 17.24-1 2.11.16 4.25.94 6.48 1.02 4.57.17 8.78-1.32 13.52-1.02 2.03.13 4.42.92 6.48 1.02 4.79.22 9.06-1.4 14.02-1.02 6.72.51 8.29.51 15.01 0 9.5-.73 15.66 1.82 23.01 6.99 3.57 2.51 6.54 2.61 9.9 4.6.57.34 4.44 3.17 4.59 3.41.81 1.32-.26 3.25-.29 4.75-.3 12.92.36 27.03.54 40 .04 2.58-.03 5.17 0 7.75-3.83.26-7.43-.77-11.27-.52-7.12.46-9.26.58-16.48.02-5.09-.39-9.53 1.28-14.52 1.02-3.58-.19-6.64-1.24-10.5-1.04-2.07.11-4.44.89-6.48 1.02-5.19.33-9.82-1.41-15.02-1.02-6.77.51-8.97 1.44-16.23.02-1.43-.49-1.79-5.45 0-5.5Z" style="fill:url(#a)"/><path d="M30.5 97c-7.31-1.43-6.56-2.5-11.84-6.41-2.65-1.96-5.65-2.62-8.4-4.6-.43-.31-3.17-2.53-3.29-2.7-1.25-1.71.08-3.74.08-5.54 0-13.21 0-26.84-.57-39.98-.08-1.87-.11-3.94.27-5.77.94 1.65 3.16 1.58 4.39 2.48.78.57 1.15 2.02 2.4 2.73 2.99 1.73 3.03 2.28 5.21 3.79 1.02.71 2.52.84 3.39 1.48.63.46 1 1.64 1.84 2.3.99.78 2.06.85 3.01 1.49 2.88 1.93 1.92 5.47 2.02 8.48.33 9.85.77 21.14.52 30.98-.04 1.63-1.93 5.36.98 5.77-.39 1.01.28 4.14 0 5.5Z" style="fill:#1e4f28"/><path d="M113.45 47.96c-.97 1.46-7.72-.56-9.71-.49-3.06.1-6.3 1.25-9.51 1.05-2.26-.14-4.05-1.1-6.49-1.05-2.58.05-5.45 1.08-7.99 1.08s-5.46-1.09-8-1.09c-2.71 0-5.7 1.12-8.51 1.08-2.48-.03-5.06-1.09-7.49-1.08-2.83 0-6.14 1.16-9.01 1.08-1.49-.04-6.59-.71-7.9-1.13-1.57-.49-1.16-2.19.88-2.43 2.77-.33 7.18.62 10.52.52 18.62-.57 37.36.14 56.02-.52 1.63.63 9.3-.2 7.18 2.98Z" style="fill:#080c0c"/></svg>