<svg xmlns="http://www.w3.org/2000/svg" data-name="fill_cotton" viewBox="0 0 128 128"><defs><linearGradient id="a" x1="-510.23" x2="-441.67" y1="1076.76" y2="1196.53" gradientTransform="matrix(.5 0 0 .5 296 -518)" gradientUnits="userSpaceOnUse"><stop offset="0" stop-color="#fefefe"/><stop offset=".13" stop-color="#fdfdfd"/><stop offset="1" stop-color="#9a9a9a"/></linearGradient><linearGradient id="b" x1="-447.21" x2="-404.79" y1="1185.72" y2="1259.38" gradientTransform="matrix(.5 0 0 .5 296 -518)" gradientUnits="userSpaceOnUse"><stop offset="0" stop-color="#aa8471"/><stop offset="1" stop-color="#4f3d35"/></linearGradient></defs><path d="M86.07 22.92c17.07-.38 29.65 14.6 25.08 31.48-.37 1.36-1.57 2.99-1.58 4.34-.02 2.36 1.74 6.98 1.95 9.99.54 7.76-1.32 16.01-6.76 21.78-2.39 2.53-5.65 4.01-8.23 6.3-.12.64 5.86 9.63 6.57 11.32.97 2.31.29 2.96-1.45 4.27s-10.82 6.66-12.69 7.32c-1.22.43-2.54.43-3.5-.6l-7.22-12.09c-12.11 7.56-23.99 4.36-34.5-4.06-1.31-1.05-2.74-3.21-4.12-3.88-1.98-.95-5.38-.99-7.98-2.02-14.43-5.72-19.67-23.4-11.3-36.35C6.72 43.89 20.26 19.67 41.4 20.9c9.07-19 36.95-17.37 44.65 2Z" style="fill:#050404"/><path d="M84.02 25.99c5.57-1.28 12.51.79 16.97 4.28 6.62 5.18 8.85 13.24 8.01 21.48-.43 4.17-1.31 2.78-4.2 3.3-11.29 2.01-23.73 9.01-26.65 20.85-.57 2.33-.68 4.76-1.15 7.1-6.14-2.66-11.38-4.27-18.11-2.87-9.01 1.87-15.65 8.52-22.27 14.33-4.07 1.96-10.67-3.64-13.11-6.73-6.32-7.99-5.68-18.87 0-27-3.87-4.7-6.59-10.74-6.01-16.99 1.17-12.68 12.95-21.44 25.42-19.83 7.51-19.3 35.62-17.96 41.09 2.06Z" style="fill:url(#a)"/><path d="M80 78.75c.57-4.42 3.95-9.79 7.24-12.76 4.14-3.74 13.01-7.88 18.55-8.46 1.15-.12.52.13.71.72 4.84 14.72 2.27 31.39-13.99 36.76l7.96 14.7-11.96 7.1c-.92.44-1.21-.24-1.72-.84-1.61-1.88-6.24-12.07-7.63-12.42-1.46-.06-2.5 1.39-3.82 2.05-10.66 5.3-19.69 3.06-28.8-3.88-.81-.61-5.24-4.43-5.57-4.93-1.36-2.09 1.01-3.61 2.52-5.04 7.12-6.75 17.19-11.58 27.03-8.51L80 88.01c.27-2.92-.37-6.41 0-9.25Z" style="fill:url(#b)"/><path d="M27.97 64.03c1.38.96-1.7 6.66-1.94 8.24-.67 4.37 1.06 9.24 3.99 12.46 1.01 1.11 4.19 3.04 4.39 3.34.4.59.05 2.22-.68 2.41-1.48.39-5.52-3.87-6.44-5.04-4.43-5.62-5.41-12.34-2.53-18.95.71-1.64 1.03-2.95 3.21-2.48Zm3.86-33.52c.85 1.45-4.31 5.36-5.19 6.69-2.43 3.7-2.88 8.84-1.56 12.99.46 1.43 2.54 4.51 2.61 4.87.12.7-.88 2.04-1.62 1.91-1.51-.26-3.41-5.81-3.76-7.26-1.7-6.95.21-13.47 5.58-18.29 1.33-1.19 2.17-2.26 3.94-.92Z" style="fill:#fcfcfc"/><path d="M64.07 39.56c.14-.22 3.69-2.62 4.28-2.96 6.9-4.05 14.12-3.54 20.41 1.39 2.09 1.64 2.64 5.35-.41 4.43-.89-.27-3.64-3.68-5.38-4.64-3.2-1.78-6.56-1.67-9.96-.52-2.14.72-6.06 4.11-7.29 4.25-1.08.12-2.37-.83-1.66-1.95Z" style="fill:#b8b8b8"/><path d="M59.88 84.13c3.89-.53 9.02-.58 12.12 2.13-.74 3.01-3.83.48-6.25.24-5-.5-9.1.66-13.4 3.09-1.51.85-6.68 5.3-7.11 5.4-1.24.28-1.63-1.63-.77-2.78.58-.78 4.96-3.76 6.07-4.42 2.53-1.51 6.43-3.26 9.34-3.66m30.46-15.28c-.32.37-1.03.51-1.56 1.17-2.66 3.29-4.14 6.01-4.73 10.29-.16 1.15.54 6.12-1.3 5.69-2.83-.66-.47-10.38.49-12.5.66-1.45 5.71-9.27 7.52-6.51.4.62 0 1.39-.42 1.86" style="fill:#bfa48d"/></svg>