<svg xmlns="http://www.w3.org/2000/svg" viewBox="0 0 128 128"><path d="M43.47 115.94c-.09.3-.16.4-.15.5.62 9.36-2.14 10.55-11.11 10.66-9.3.11-11.11-2.53-10.74-10.84.19-4.28 0-8.57.06-12.86.02-1.39.29-2.78.26-4.15V21.49c-3.99-2.63-7.68-11.28-6.85-15.61.49-2.53 3.58-5 6.74-4.97C43 1.09 64.32 1 85.64 1h20.44c4.98 0 7.83 2.62 6.94 7.48-.86 4.71-1.36 9.98-6.74 12.95v77.48c.09 0 .17-.01.26-.02 0 7.55.18 15.1-.08 22.64-.12 3.29-2.97 5.37-6.31 5.41-2.86.04-5.71.02-8.57 0-4.4-.02-6.75-2.41-6.78-6.88v-4.13H43.46Z" style="fill:#4a3726;stroke-width:0"/><path d="M99.12 95.7H67.29V21.63h31.83v74.06Zm-38.83-74v73.95H28.9V21.7z" style="fill:#a5805b;stroke-width:0"/><path d="M36.58 110.83v9.22h-7.54v-17.3h70.03v17.31H91.4c0-1.76.01-3.57 0-5.38-.04-4.12-1.6-6.11-5.6-6.14-14.49-.12-28.99-.13-43.48.06-1.93.03-3.84 1.45-5.75 2.22ZM106.26 7.88c-.79 2.47-1.44 4.5-2.14 6.7H23.95c-.65-2.04-1.33-4.15-2.14-6.7h84.46Z" style="fill:#7b5b3b;stroke-width:0"/><path d="M51.45 45.21c5.52 0 5.52 16.55 0 16.55s-5.52-16.55 0-16.55m25.38 0c5.52 0 5.52 16.55 0 16.55s-5.52-16.55 0-16.55" style="fill:#4a3726;stroke-width:0"/></svg>