<svg xmlns="http://www.w3.org/2000/svg" viewBox="0 0 128 128"><path d="M54.95 5.19c10.31 0 20.62.15 30.93-.05 5.66-.11 8.11 3.53 8.5 8.27.37 4.48.34 8.92-2.67 12.88-.8 1.05-.71 3.35-.17 4.74 3.02 7.84 4.48 15.87 4.4 24.3-.16 17.6 0 35.2-.09 52.8-.01 2.43-.4 4.98-1.25 7.25-1.51 4.06-5.32 5.09-9.06 5.12-20.39.14-40.78.09-61.17.05-5.75-.01-10.76-4.45-10.55-11.38.54-17.7.32-35.43.14-53.14-.09-8.66 1.34-16.9 4.35-25.01.63-1.7.24-4.34-.71-5.95-3.29-5.59-3.13-11.23-.3-16.6.89-1.69 3.93-3.09 6.03-3.15C33.86 5 44.4 5.18 54.94 5.18Z" style="fill:#4a3726;stroke-width:0"/><path d="M54.71 115.43H25.14c-4.83 0-6.89-1.97-6.89-6.76-.02-18.74-.36-37.48.18-56.2.18-6.32 2.49-12.61 4.07-18.86.69-2.74 3.19-2.81 5.56-2.8 16.08.12 32.16.24 48.23.32 2.14.01 4.28-.24 6.43-.32 2.57-.09 4.47.96 5.07 3.57 1.66 7.26 4.14 14.3 4 21.99-.31 17.25-.09 34.52-.1 51.78 0 5.47-1.93 7.3-7.4 7.28-9.86-.03-19.71 0-29.57 0Z" style="fill:#f4f8f4;stroke-width:0"/><path d="M88.91 11.46v10.08c-1.34.27-2.69.79-4.05.79-19.91.05-39.83.05-59.74 0-1.28 0-2.57-.4-4.05-.65V11.65c1.44-.32 2.89-.9 4.34-.91 19.69-.06 39.37-.05 59.06-.01 1.38 0 2.75.43 4.44.72Z" style="fill:#b31659;stroke-width:0"/><path d="M84.45 107.17c-1.42.38-2.73 1.02-4.04 1.02q-25.47.105-50.94 0c-1.3 0-2.6-.67-4.23-1.12 1.83-22.8-1.99-45.28 2.28-67.9 1.8-.35 3.18-.84 4.55-.84q22.92-.075 45.84 0c1.29 0 2.58.44 4.44.78.71 5.61 1.92 11.04 2 16.49.26 16.9.1 33.8.1 51.57" style="fill:#4a3726;stroke-width:0"/><path d="M77.9 74.28v27.55H32.03V74.28z" style="fill:#b31659;stroke-width:0"/><path d="M89.67 49.94c1.69.79 3.48 1.43 5.05 2.41 3.99 2.49 5.6 6.63 4.75 11.16-.62 3.31-2.07 6-4.68 8.2-1.25 1.05-1.7 2.7-1.06 4.03 2.36.15 4.39.22 6.41.41 3.61.33 6.3 2.49 8.53 5.01 2.72 3.1 4.33 6.82 5.23 10.95.63 2.9.14 5.53-1.07 7.9-1.67 3.28-3.79 6.35-5.93 9.35-1.78 2.5-2.47 5.18-2.59 8.2-.05 1.36-.63 2.88-1.44 3.98-1.3 1.77-3.05 1.71-4.66.18-.91-.86-1.88-1.69-2.6-2.69-1.67-2.36-4.26-2.53-6.72-3.24-4.39-1.27-9.21-1.86-12.53-5.39-2.67-2.84-4.95-6.08-5.08-10.25-.08-2.59-.39-5.25.09-7.75.42-2.17 1.79-4.16 2.75-6.22.34-.74.72-1.46 1.43-2.91-1.96 0-3.29-.07-4.62.01-2.72.17-5.44.81-8.08-.54-3.25-1.67-5.12-4.34-5.92-7.84-.03-.15-.25-.26-.38-.39v-3.27c.2-4.24 2.23-7.6 5.09-10.55C64.24 58 67.42 57 71.1 57.5c1.23.17 2.55.32 3.29-.98 2.11-3.77 5.36-5.84 9.54-6.57h5.72Z" style="fill:#4a3726;stroke-width:0"/><path d="M100.51 118.74c-1.02-.82-1.68-1.18-2.12-1.73-1.99-2.47-4.73-3.61-7.65-4.39-2.03-.55-4.08-1.06-6.16-1.39-6.58-1.05-9.81-7.77-10.45-12.81-1.22-9.67 5.83-15.09 12.67-17.68 4.18-1.58 8.53-2.46 12.97-1.29 3.6.95 6.51 2.92 8.41 6.29 4.35 7.71 2.71 14.45-3.1 20.61-2.69 2.85-3.79 6.37-4 10.22-.03.55-.28 1.09-.57 2.16Z" style="fill:#b31659;stroke-width:0"/><path d="M74.61 80.48c-2.23.17-4.46.33-6.68.52-1.94.16-3.43-.55-4.97-1.79-2.61-2.1-4.23-4.56-3.48-7.88.44-1.97 1.37-3.99 2.59-5.58 1.57-2.04 3.13-4.28 6.02-4.89 4.03-.86 7.99 1.14 9.24 5.08 1.25 3.95 2.34 7.93 4.69 11.44.87 1.29-.59 3.13-2.51 3.24-1.63.1-3.26.02-4.89.02 0-.05 0-.1-.01-.15Zm11.14-3.68c-2.51-3.04-3.98-6.4-5.07-10.03-.59-1.95-1.7-3.82-2.91-5.49-.94-1.29-.95-2.31-.16-3.51 3.29-4.99 10-6.67 15.22-3.4 3.19 2 4.86 7.19 3.07 10.45-1.9 3.45-3.98 6.8-6.11 10.1-.86 1.33-2.12 2.34-4.03 1.88Z" style="fill:#50984f;stroke-width:0"/><path d="M98.9 97.57c.61 1.82-.15 2.87-1.88 3.61-3.74 1.6-7.41 3.36-11.14 4.99-1.27.55-2.65.62-3.38-.82-.7-1.38-.12-2.55 1.29-3.16 2.74-1.19 5.51-2.31 8.25-3.49.99-.43 1.95-.94 2.92-1.42 1.35-.66 2.68-1.07 3.93.29Zm-11.25-5.9c-.76-1.97-.55-3.05 1.23-3.77 3.01-1.22 5.95-2.63 8.91-3.96 1.21-.54 2.43-.85 3.17.6.66 1.3-.08 2.34-1.2 2.85-3.33 1.5-6.71 2.9-10.1 4.25-.57.23-1.3.03-2 .03Z" style="fill:#4a3726;stroke-width:0"/></svg>