<svg xmlns="http://www.w3.org/2000/svg" xmlns:xlink="http://www.w3.org/1999/xlink" data-name="fill_riceflour" viewBox="0 0 128 128"><defs><linearGradient id="b" x1="-168.43" x2="-168.59" y1="-1301.89" y2="-1108.89" gradientTransform="matrix(.5 0 0 .5 148 666)" gradientUnits="userSpaceOnUse"><stop offset="0" stop-color="#e7c393"/><stop offset="1" stop-color="#a77b51"/></linearGradient><linearGradient id="c" x1="-3071.22" x2="-3083.28" y1="1270.49" y2="1368.65" gradientTransform="matrix(.5 0 0 .5 1628 -592)" gradientUnits="userSpaceOnUse"><stop offset="0" stop-color="#68a866"/><stop offset="1" stop-color="#296d27"/></linearGradient><linearGradient id="d" x1="-3120.27" x2="-3095.85" y1="1268.08" y2="1322.72" gradientTransform="matrix(.5 0 0 .5 1628 -592)" gradientUnits="userSpaceOnUse"><stop offset="0" stop-color="#6baa69"/><stop offset=".44" stop-color="#6aa968"/><stop offset=".85" stop-color="#296d27"/><stop offset="1" stop-color="#266b24"/></linearGradient><linearGradient id="e" x1="-3103.73" x2="-3092.37" y1="1282.79" y2="1335.48" gradientTransform="matrix(.5 0 0 .5 1628 -592)" gradientUnits="userSpaceOnUse"><stop offset="0" stop-color="#64a462"/><stop offset=".8" stop-color="#286d26"/><stop offset="1" stop-color="#266b24"/></linearGradient><linearGradient id="a" x1="-3160.19" x2="-3172.23" y1="1330.54" y2="1347.64" gradientTransform="matrix(.5 0 0 .5 1628 -592)" gradientUnits="userSpaceOnUse"><stop offset="0" stop-color="#ebe878"/><stop offset="1" stop-color="#f4f3c1"/></linearGradient><linearGradient id="f" x1="-3120.99" x2="-3133.99" y1="1281.78" y2="1300.2" gradientTransform="matrix(.5 0 0 .5 1628 -592)" gradientUnits="userSpaceOnUse"><stop offset="0" stop-color="#ebe878"/><stop offset="1" stop-color="#f3f2bc"/></linearGradient><linearGradient id="g" x1="-3143.82" x2="-3155" y1="1265.95" y2="1281.44" gradientTransform="matrix(.5 0 0 .5 1628 -592)" gradientUnits="userSpaceOnUse"><stop offset="0" stop-color="#edea7f"/><stop offset="1" stop-color="#f2f1b5"/></linearGradient><linearGradient id="h" x1="-3157.39" x2="-3170.07" y1="1303.49" y2="1321.18" gradientTransform="matrix(.5 0 0 .5 1628 -592)" gradientUnits="userSpaceOnUse"><stop offset="0" stop-color="#ebe878"/><stop offset="1" stop-color="#f3f2bb"/></linearGradient><linearGradient id="i" x1="-3135.85" x2="-3150.06" y1="1285.91" y2="1306.2" gradientTransform="matrix(.5 0 0 .5 1628 -592)" gradientUnits="userSpaceOnUse"><stop offset="0" stop-color="#ebe877"/><stop offset="1" stop-color="#f3f2b9"/></linearGradient><linearGradient id="j" x1="-3145.26" x2="-3158.56" y1="1314.43" y2="1333.36" gradientTransform="matrix(.5 0 0 .5 1628 -592)" gradientUnits="userSpaceOnUse"><stop offset="0" stop-color="#ebe877"/><stop offset="1" stop-color="#f3f2bb"/></linearGradient><linearGradient xlink:href="#a" id="k" x1="-3174.97" x2="-3185.65" y1="1322.07" y2="1337.36"/><linearGradient id="l" x1="-3153.14" x2="-3163.39" y1="1282.51" y2="1297.08" gradientTransform="matrix(.5 0 0 .5 1628 -592)" gradientUnits="userSpaceOnUse"><stop offset="0" stop-color="#ece87a"/><stop offset="1" stop-color="#f3f2bc"/></linearGradient></defs><path d="M21.12 115.88c-.31-.31-.58-1.23-.6-1.68-.18-3.29 5.11-9.9 5.27-12.94.11-2.05-2.59-10.63-3.13-13.66-2.87-16.07-2.87-31.13 0-47.19.6-3.37 3.16-11.1 3.11-13.66-.06-3.01-5.43-9.72-5.25-12.95.02-.45.29-1.37.6-1.68l84.89.12c.48.4.51.94.54 1.51.13 3.07-4.54 9.65-5.35 13 6.26 19.94 7.32 40.29 3.66 60.86-.59 3.34-3.18 11.08-3.13 13.65.06 3.14 6.16 11.51 4.53 14.25-.45.76-2.12 1.03-2.98 1.01-25.98-1.41-53.79 1.79-79.54 0-.77-.05-2.07-.1-2.61-.64Z" style="fill:#020201"/><path d="M103.5 14.5c-.38 3.52-5.19 9.61-5.04 12.74.07 1.44 1.5 4.4 1.9 6.15 4.6 19.91 5.33 35.46 1.5 55.72-.88 4.66-3.71 11.05-2.1 15.39 1.04 2.81 3.37 5.9 3.75 9H23.5l5-11.79c-6.91-24.8-7.31-50.19.02-74.97L23.5 14.5z" style="fill:url(#b)"/><path d="M70.5 102.5c-4.76.59-9.73.51-14.5 0-1.36-1.34-.38-2.34 1.23-2.52s11.85-.25 12.95.1 1.16 1.61.32 2.43Z" style="fill:#080805"/><path d="M57 26c4.04-.62 8.45-.6 12.5 0 1.95.28 2.08 1.51.5 2.5-4.27.58-8.71.49-13 0-2.12-.84-2.25-2.17 0-2.5" style="fill:#020201"/><path d="M90.75 100c.68.21 1.06 1.93.71 2.46-.53.8-9.38.79-9.91 0-.37-.55.13-2.46.71-2.46 1.83 0 7.28-.38 8.5 0Zm-46 0c.82.25.83 1.73.75 2.5-1.75-.48-9.3 1.72-9.96-.29-.23-.69.11-2.2.71-2.2 1.83 0 7.27-.38 8.5 0Z" style="fill:#080805"/><path d="M36.25 28.5c-2-.31-1.48-2.5 0-2.5h8.5c.94 0 .94 2.5 0 2.5-2.47 0-6.25.35-8.5 0m46 0c-2-.31-1.48-2.5 0-2.5h8.5c.94 0 .94 2.5 0 2.5-2.47 0-6.25.35-8.5 0" style="fill:#020201"/><path d="M70 28.5c-.46.29-.42.45-1.2.53-2.48.27-7.57.21-10.11 0-1.03-.08-1.03-.27-1.69-.53zm-.5-2.5c-2.26-.33-10.23-.33-12.5 0 .51-.83 1.9-.5 2.74-.51 2.33-.02 4.68-.03 7.01 0 .84 0 2.24-.33 2.74.51Z" style="fill:#e5c192"/><path d="M68.53 47.41c1.51 2.97.59 8.26-.84 11.19-.36.74-1.28 1.7-1.47 2.32-1.09 3.5-.52 6.99-3.91 9.89-1.92 1.65-3.24 1.43-5.41.4-.82 3.38-3.44 8.33-7.57 7.03-.37 3.33-3.74 10.64-8 8.68-2.26-1.04-2.45-4.65-2.28-6.78-1.74 1.07-3.18 1.61-4.87.14-3.07-2.67-.97-10.4 1.34-13.26-4.96-3.45.6-10.06 4.1-12.42 2.12-1.43 2.73-.97 4.45-3.12.72-.89 1.46-1.79 2.28-2.58-1.36-.89-2.42-2.15-1.98-3.87 1.35-5.23 12.24-6.33 16.14-3.8.52.34 1.14 1.3 1.66 1.31.36 0 1.92-.78 2.57-.95 2.45-.62 4.78-.8 7.31-.67l-.47-8.76c1.08-2.2 2.17-1.49 3.22.19 2.5 3.97 3.46 8.63 5.58 12.27.55.95 1.54 1.91 2.17 2.97 1.83 3.07 2.9 6.93 3.84 10.36l2.84-10.28c.72-1.49 1.91-7.63 3-8.35s1.9-.15 2.26.94c.51 1.55.74 6.76.82 8.63.23 5.64-.36 12.21-1.12 17.82-1.39 10.28-4.09 20.7-7.8 30.33-1.29.43-1.99.08-2.32-1.2-.93-3.61-.27-8-.99-11.45-.35-1.68-2.37-5.22-3.12-7.16-3.66-9.49-5.91-19.71-7.1-29.82z" style="fill:#0a0d0d"/><path d="M93.71 48.01c.73 15.77-2.89 31.41-7.49 46.37-.14.37-.22.81-.57 1.01-.32.01-.32-.43-.38-.82-.11-1.74-.19-3.48-.29-5.23-.85-16.35 2.73-32.64 7.61-48.1.37-1.33.67.51.78.93.35 1.87.25 3.91.34 5.74z" style="fill:url(#c)"/><path d="M69.57 42.05c2.74.22 3.82.44 5.44.89 6.38 1.68 8.67 10.18 10.43 16.35 1.08 3.72-.59 8.65-1.13 12.99-.02.45-.35 2.08-.55 1.33-.62-7.18-2.2-22.06-7.97-26.57-1.97-1.17-4.61-1.46-6.83-1.35-.74.06-1.94-.27-2.84-.49-2.16-.44-4.06 1.1-5.05 2.92-.15.27-.3.43-.57.38-.32-.07-1.07-.35-.68-.74.46-.39 1.06-.78 1.44-1.28.6-.69.67-1.78 1.06-2.28 1.36-1.19 3.02-1.68 4.73-1.94l2.53-.22Z" style="fill:url(#d)"/><path d="M82.73 79.81c-.26.03-.66-.96-.81-1.34-3.59-9.17-6.03-19.11-7.34-28.96-.07-.49-.18-1.46.23-1.6 2.4.44 4.35 7.43 5.02 9.68 1.83 6.7 2.51 13.78 3.03 20.72.03.41.08 1.35-.11 1.48h-.02Z" style="fill:url(#e)"/><path d="M40.5 79.33c.31-2.46 1.11-5.03 2.8-6.92 2.58-2.88 4.71-.79 4.81 2.41.1 2.67-.72 6.24-2.08 8.58-.82 1.58-3.04 3.27-4.62 1.73-1.32-1.43-1.07-3.84-.91-5.68v-.11Z" style="fill:url(#a)"/><path d="M63.14 61.3c-3.26.6-2.83-4.37-2.71-6.84.27-2.57 1.77-6.81 4.18-7.76 6.01-.89 2.33 13.61-1.39 14.57l-.08.02Z" style="fill:url(#f)"/><path d="M59.34 42.27c3.42 2.11.33 4.57-2.41 5.47-2.75.82-11.19 1.93-11.17-2.09.01-4.52 10.73-5.13 13.58-3.38" style="fill:url(#g)"/><path d="M43.45 61.8c.67-1.04 1.37-1.95 2.34-2.55 1.37-.85 3.89-1.65 4.53.36.89 2.89-1.4 5.61-2.49 8.24-.97 1.84-3.03 2.86-4.97 3.43-1.52.25-1.98-1.31-2.02-2.79-.06-2.49 1.25-4.48 2.56-6.61l.06-.1Z" style="fill:url(#h)"/><path d="M52.38 56.23c.89-2.73 4.24-7.31 7.41-6.51.26.07.35.26.3.52-.41 1.7-1.1 3.45-1.24 5.21-.11.89.12 1.78.12 2.64 0 .58-.37 1.36-.7 1.88-1.78 2.97-6.3 5.47-6.79.96-.15-1.13.36-3.09.87-4.63l.03-.08Z" style="fill:url(#i)"/><path d="M49.62 66.74c2.17-5.27 1.02-1.19 5.43-2.24.61-.06 1.08-.27 1.05.26-.02 1.46.04 3.12-.02 4.55-.2 1.02-1.25 3.86-2.05 5.22-.79 1.4-2.57 3.22-4.22 2.11-.42-.47-.15-1.41-.26-2.23a9 9 0 0 0-.26-1.39c-.96-2.09-.87-4.51.29-6.22l.03-.07Z" style="fill:url(#j)"/><path d="M34.73 71.65c.38-1.07 1.11-3.12 2.02-4.25.49-.48 1.46-.6 2.15-.73.24-.03.44-.02.55.08.15.14.15.41.13.62-.11 1.14-.41 2.24.05 3.34.54 1.34 2.36 1.69 1.1 3.32-1.13 1.86-.82 3.84-2.64 5.1-1.34 1.05-3.04.73-3.66-.93-.91-1.89-.19-4.92.28-6.5l.02-.07Z" style="fill:url(#k)"/><path d="M47.87 49.75c.46-.22.86-.05 1.38-.03.4.02.99 0 1.7 0 1.5.05 3.07-.12 3.9.09.11.07.1.19 0 .36-.27.42-.72.89-1.05 1.31-1.62 1.8-2.04 4.42-4.31 5.52-2.32 1.27-5.84 1.67-5.62-1.29 0-.73.82-4.44 4-5.97Z" style="fill:url(#l)"/><path d="M39.66 56.47c.5-.35 2.96-2.82 2.88-.99-.06 1.04.42 1.93 1 2.82.13.2.26.45.27.67 0 .28-.21.5-.41.7-1.23 1.18-2.15 3.93-2.93 4.88-.96 1.02-3.33 1.51-4.52 1.03-.52-.26-.87-.73-1.09-1.29-.61-1.86.73-4.6 2.05-5.81.84-.87 1.72-1.27 2.69-1.96l.07-.06Z" style="fill:#e5e287"/><path d="M57.45 64.18c.18-1.36.91-2.09 1.68-3.12.11-.15.23-.33.41-.33.49.19 1.33 1.24 1.78 1.56.37.29.92.44 1.39.43.49.06 1.73-.59 1.77.23-.19 2.47-2.21 7.32-4.71 7.78-1.04.12-2.11-1.14-2.29-2.15-.18-1.26-.17-3.13-.05-4.31l.02-.1Z" style="fill:#efeda0"/><path d="M77.55 42.59c-.42.01-1.33-.38-1.87-.51-.61-.19-1.26-.33-1.73-.78-.75-.73-.56-2.41-.64-3.7-.06-1.46-.33-3.07-.28-4.5 0-1.68 1.3 1.53 1.57 1.85.99 1.71 1.6 3.36 2.39 5.22.24.59.54 1.33.68 1.88.08.31.06.49-.09.53h-.04Z" style="fill:#67a566"/><path d="M68.5 42.81c2.12-.09 4.33-.11 6.17.66 1 .59 2.53 1.24 3.15 2.18.44 1.65-2.39-.24-3.01-.43-2.47-1.06-5.01-.75-7.6-.73-1.01-.06-.91-.83-.03-1.29.38-.19.79-.3 1.22-.37h.1Z" style="fill:#82bf78"/><path d="M52.88 41.71c.99.07 2.63 1.36.96 1.84-1.11.32-2.43.38-3.54.85-1 .37-1.78 1.1-2.65 1.64-.41.24-1 .38-1.27-.07-.63-2.6 4.31-4.48 6.38-4.27l.11.02ZM35.51 64.8c-.52-.44-.31-1.38-.22-2 .45-2.45 1.2-3.6 3-5.18.59-.6 2.29-1.03 1.72.37-.61 1.09-1.79 1.9-2.39 3.03-.22.37-.41.76-.53 1.17-.34 1.04-.12 2.97-1.52 2.66l-.06-.04Zm17.19-8.49c.31-.54 1.98-2.56 2.22-1.08-.16 1.33-1.1 2.41-1.34 3.75-.33 1.02.2 2.09.11 3.11-.13.63-.95.73-1.3.1-.67-1.78-.63-4.15.27-5.79l.05-.08Zm10.78 3.72c-.18.76-1.2.57-1.66.12-1.13-.95-1.23-2.5-1.18-3.87.03-1.19.05-2.46.93-3.17.73-.53 1.18.11 1.07.94-.11 1.14-.49 2.57-.02 3.67.28.79.95 1.46.87 2.22v.08ZM40.9 79.15c.13-.32.26-.64.45-.88.56-.67 1.31-.25 1.19.55-.26 1.89-.59 3.94.96 5.3.24.3.16.75-.14.86-.72.28-1.46-.33-1.82-.91-.97-1.36-1.26-3.27-.68-4.82zm-5.35-6.89c.44-.37 1.36-.31 1.22.41-.16 1.12-.81 2.21-.62 3.3.1.73.52 1.42.69 2.12.07.31.02.56-.23.73-1.53.34-2.15-2.22-2.16-3.47-.15-1.17.3-2.21 1.03-3.02l.08-.06Zm13.95-.01c-1.19-1.56-.27-4.6.93-5.98 1.78-1.88 1.75.07 1.07 1.49-.64 1.05-.33 5.02-1.94 4.53l-.05-.04Zm-2.8-21.03c.43 0 1 .27 1.16.67.1.3-.06.63-.32 1.01-.47.65-1.2 1.46-1.35 2.31-.12.52-.09 1.06-.12 1.58-.03.23-.15.4-.35.44-.87.09-1.05-1.02-1.07-1.69-.15-1.8.72-3.2 1.98-4.29l.07-.02Zm11.06 16.43c-.14-.94-.41-3.78 1.05-3.76.83.45.2 2.15.41 3.1.09.88 1.1 2.23.65 2.74-1.11.72-1.85-1.16-2.08-1.98l-.02-.1Z" style="fill:#fdfdf8"/><path d="M40.95 79.32c-.07.19 0 .43-.27.54 0-.06-.02-.23 0-.54z" style="fill:#77645d"/><path d="M88.48 64.82a1 1 0 0 1-.95-.46c-.18-.38.02-.78.17-1.55l.83-3.68c.46-2.03.91-4.03 1.36-6.03.28-.99.27-2.35 1.25-1.78.85 1.1-.01 2.73-.28 3.94-.45 1.47-.62 2.32-.91 4.07-.26 1.48-.55 3.2-.89 4.62-.11.46-.23.77-.52.86h-.06Z" style="fill:#82bf78"/><path d="M41.69 69.76c-.18-.18-.23-.51-.24-.79-.03-1.74.22-3.61 1.47-4.97.43-.58 1.46-1.09 1.39.07-.11.96-.72 1.97-1.06 2.88-.48.93-.1 2.47-1.11 2.93-.18.03-.2.05-.41-.08l-.05-.04Z" style="fill:#fdfdf8"/></svg>