<svg xmlns="http://www.w3.org/2000/svg" viewBox="0 0 128 128"><path d="M109 117.67c-3.41 4.97-7.2 5.18-15.51 2.7-5.45 3.36-12.39 2.29-16.71-2.58-2.35-.22-4.7-.44-7.01-.65-2.72 4.89-10.05 5.65-15.55 3.81-4.75 1.45-9.32 3.41-14.08.48-8.33 3.29-12.15 4.28-16.33-3.75-7.33.21-15.97.68-19.57-7.04-2.56-4.84-2.28-9.73 1.02-14.2 10.83-14.69 21.72-29.33 32.58-43.99 9.1-17.77 32.43-26.23 46.1-8.38 13 17.02 25.46 34.45 38.31 51.59 8.37 9.8-.92 24.23-13.26 22.02Z" style="fill:#4a3726;stroke-width:0"/><path d="M18.98 89.56C29.04 75.64 39.15 61.75 49.56 48.1c7.51-9.76 21.77-9.6 29.13.26 12.81 17.16 25.54 34.38 38.28 51.59 4.17 4.93-.24 12.12-6.4 10.69 1.65-9.47-.19-14.2-10.59-15.08 3.16-9.49-5.08-13.75-13.53-13.25.68-9.97-16.09-13.88-19.96-4.19-5.4-2.63-10.42-2.41-15.35.41-3.94-6.01-7.3-6.09-14.52-3.88-5.79 1.77-6.18 6.82-4.64 12.4-4.82-.75-8.71.99-12.52 3.03-.42.07-.68-.01-.48-.51Z" style="fill:#d5bd77;stroke-width:0"/><path d="M50.82 115.01c-2.3.45-4.29.84-6.82 1.34-2.15-11.88-4.23-23.4-6.39-35.29l6.78-1.26c2.13 11.68 4.22 23.12 6.42 35.22Zm12.87-.41c-2.33.17-4.34.31-6.87.49-.5-10.71-.97-21.07-1.47-31.71h6.85c.48 10.08.97 20.27 1.5 31.22Zm12.43-3.76c-2.38-.24-4.33-.45-6.87-.71 1.24-10.39 2.44-20.48 3.67-30.88 2.44.32 4.31.57 6.79.9-1.2 10.22-2.37 20.26-3.59 30.7Zm12.85 4.91c-2.41-.49-4.33-.88-6.76-1.38 1.74-8.61 3.42-16.88 5.16-25.5l6.78 1.23c-1.73 8.58-3.41 16.86-5.19 25.65ZM23.49 95.21c2.1-.69 3.9-1.28 6.12-2.02 2.71 7.36 5.3 14.38 7.96 21.59-2.12.91-3.72 1.58-5.59 2.38-.55-.59-1.35-1.1-1.62-1.81-2.21-6.76-5.59-13.16-6.87-20.15Z" style="fill:#dccb94;stroke-width:0"/><path d="m18.98 89.56.48.51c-5.99 6.36.44 13.61 2.09 20.68-6.4 1.14-15.04-1.66-11.37-9.34 2.64-4.13 5.84-7.91 8.8-11.85" style="fill:#d5bd77;stroke-width:0"/><path d="M102.76 115.35c-2.52-.48-4.45-.84-6.74-1.28.67-4.08 1.28-7.83 1.96-12.01 2.34.39 4.34.72 6.74 1.11-.67 4.16-1.27 7.9-1.96 12.17Z" style="fill:#dccb94;stroke-width:0"/><path d="M79.91 55.28c2.57 3.68 3.35 9.07-1.84 11.1-6.31 2.99-15.6 5.59-15.53-4.62-14.42-3.73-14.28-19.92-17.84-31.63-.74-2.04-2.76-3.33-4.16-4.92-3.5-3.08-1-8.45 3.82-7.84-.84-15.7 17.21-17.48 22.31-4.99 3.03-2.52 7.65-.19 7.28 3.78-.54 4.42.79 8.3 2.91 12.15 4.91 7.94 8.75 18.42 3.06 26.98Z" style="fill:#4a3726;stroke-width:0"/><path d="M42.86 20.98c4.29 1 10.73-1.18 13.48 2.97C61.5 34.52 67.19 44.9 72.09 55.57c-10.73 8.19-19.67-3.94-20.98-14.24-1.72-5.18-1.49-11.45-5.14-15.71-1.14-1.46-2.95-2.41-3.52-4.26zm32.71 32.67C71.06 44.93 67 36.5 62.55 27.83c-2.85-5.46 4.29-8.75 6.89-13.22 2.46 3.53-.94 7.26 3.39 13.6 3.82 7.11 10.91 19.05 2.74 25.44" style="fill:#589058;stroke-width:0"/><path d="M63.84 15.34c-1.5 2-2.96 3.95-4.56 6.08-.49-.13-1.18-.11-1.45-.43-1.82-2.24-4.45-2.1-6.99-2.36-2.49 0-2.86 0-3-3.47 1.02-10.55 13.45-9.83 16 .18" style="fill:#e5dd75;stroke-width:0"/><path d="M68.89 65.69c-1.74.02-3.31-2.08-2.66-3.67 2.41-2.05 6.16-2.48 9.06-3.83 2.26-1.53 3.92 2.45 2.77 3.82-2.6 1.86-6.11 2.59-9.03 4.02-.04-.11-.09-.22-.13-.33Z" style="fill:#589058;stroke-width:0"/></svg>