<svg xmlns="http://www.w3.org/2000/svg" xmlns:xlink="http://www.w3.org/1999/xlink" data-name="fill_compost" viewBox="0 0 128 128"><defs><linearGradient id="b" x1="275.76" x2="275.49" y1="-435.92" y2="-369.92" gradientTransform="matrix(.5 0 0 .5 -74 296)" gradientUnits="userSpaceOnUse"><stop offset="0" stop-color="#7f6246"/><stop offset="1" stop-color="#442f1d"/></linearGradient><linearGradient id="a" x1="282.4" x2="280.73" y1="-559.86" y2="-416.87" gradientTransform="matrix(.5 0 0 .5 -74 296)" gradientUnits="userSpaceOnUse"><stop offset="0" stop-color="#9d9a5e"/><stop offset="1" stop-color="#626534"/></linearGradient><linearGradient id="c" x1="216.38" x2="216.58" y1="-486.63" y2="-416.63" gradientTransform="matrix(.5 0 0 .5 -74 296)" gradientUnits="userSpaceOnUse"><stop offset="0" stop-color="#9c9a5e"/><stop offset="1" stop-color="#626534"/></linearGradient><linearGradient xlink:href="#a" id="d" x1="336.22" x2="335.5" y1="-525.55" y2="-453.55"/></defs><path d="M67.42 74.78c1.29.08 2.44-.45 3.73-.52 6.24-.34 23.37-.63 28.24 2.81 1.12.79 1.94 2.57 2.65 2.88 5.48 2.39 9.6 1.45 15.12 6.35 8.72 7.74-.39 12.9-8.47 13.51-10.41.78-21.31-1.04-31.77-.52-.05.72 1.82.9 2.3.94 3.91.35 7.26.23 11.2 1.3 12.49 3.38 8.62 9.09-1.82 11.19-11.51 2.31-38.32 4.3-49.38 2.01-9.28-1.92-6.64-8.8 1.2-9.45-.83-1.57-4.05-1.85-5.75-1.99-6.68-.54-20.67 1.17-25.87-3.5-.45-.4-1.12-1.33-1.25-1.88-2.5-10.36 14.29-16.58 21.78-19.23 1.99-7.42 1.19-13.44-2.49-20.06-1.51-2.72-4.4-4.29-1.85-8.03 3.45-5.06 11.29 1.25 13.95 4.43 5.11 6.11 6.07 13.64 4.49 21.26l10.5-.5c-1.85-8.42.77-16.54 4.91-23.83 4.05-7.13 8.67-9.57 6.06-18.88-1.61-5.75-5.2-9.31-7.89-14.1-2.76-4.92 1.4-8.27 6.44-5.95 11.4 5.25 18.56 18.88 16.25 31.3-1.97 10.61-14.37 18.39-12.27 30.48Z" style="fill:#0b0d0c"/><path d="M98.26 28.94c1.65-.04 4.13 1.45 4.78 2.97 1.32 3.08-1.37 6.17-2.36 8.88-2.44 6.65-3.16 11.31-1.4 18.39 1.02 4.11 5.56 10.39 1.4 13.61-6.1 4.73-12.91-7.14-14.64-11.87-2.95-8.02-2.1-18.68 3.18-25.6 1.74-2.28 6.12-6.31 9.05-6.39Z" style="fill:#0b0d0c"/><path d="M71.92 77.28c4.78-.45 9.73-.5 14.5 0 3.44.11 7.05-.04 10.27 1.48s1.87 3.63 2.23 4.02c.22.24 5.35.46 6.53.72 7.22 1.61 20.46 10.21 6.11 13.16-6.2 1.28-11.87.17-17.86.09-4.7-.06-14.17-.68-18.29.27-2.25.51-3.32 3.22-1.87 4.65 1.29 1.27 6.77.91 8.58 1.17 2.9.42 10.93 1.79 13 3.4 1.5 1.17-1.29 2.34-2.3 2.69-7.53 2.6-18.64 2.91-26.65 3.35-6.79.37-23.22 1.71-29.04-.96-4.07-1.87 3.21-3.25 4.3-3.78 2.77-1.34 2.42-3.98-.16-5.36-2.47-1.32-9.09-1.76-12.08-1.92-5.86-.32-27.73 1.5-16.22-10.18 1.64-1.67 13.12-8.51 14.45-7.3-.65 2.41-3.05 3.56-2.18 6.4 2.11 6.92 10.68.93 13.44-2.39 1.85-2.23 2.76-4.84 4.23-7.27l12.01-1.24c-.12 2.63 2.04 6.02 3.59 8.16 2.29 3.18 6.29 7.69 10.61 5.28 4.74-2.66-1.5-10.56-1.19-14.44 1.33-.01 2.67 0 4 0Z" style="fill:url(#b)"/><path d="M59.74 14.82c1.72-.55 5.81 2.54 7.19 3.7 10.31 8.66 13.73 20.8 6.9 32.91-6.88 12.19-12.08 14.76-7.65 30.35.48 1.69 2.84 6.02 1.8 7.28-2.42 2.93-7.53-4.51-8.63-6.45-5.32-9.33-3.48-19.63 1.5-28.67 2.53-4.59 7.09-9.01 7.58-14.41.48-5.2-1.66-9.97-4.09-14.4-1.03-1.88-5.54-7.75-5.43-9.09.05-.57.28-1.03.84-1.21Z" style="fill:url(#a)"/><path d="M28.75 51.39c.63-.06 3.95 1.68 4.64 2.17 9.01 6.43 10.52 20.97 4.45 29.89-1.13 1.66-8.02 8.4-9.7 5.86-1.19-1.8 1.76-4.83 2.53-6.53 2.9-6.4 3.27-15.9.34-22.35-.92-2.02-7.05-8.57-2.26-9.05Z" style="fill:url(#c)"/><path d="M97.29 31.9c1.79-.5 3.61.06 3.6 2.14 0 1.45-3.54 7.56-4.21 9.76-2.08 6.81-1.22 13.34 1 19.98.66 1.97 2.86 4.08 1.69 6.17-2.12 3.78-7.29-3.23-8.53-5.33-4.89-8.29-5.28-20.5 1.07-28.1.94-1.12 4.13-4.27 5.38-4.62" style="fill:url(#d)"/></svg>