<svg xmlns="http://www.w3.org/2000/svg" data-name="fill_piano" viewBox="0 0 128 128"><defs><linearGradient id="a" x1="-4405.5" x2="-4405.51" y1="-748.95" y2="-703.73" gradientTransform="matrix(.5 0 0 .5 2294 444)" gradientUnits="userSpaceOnUse"><stop offset="0" stop-color="#d9d9d9"/><stop offset=".57" stop-color="#fbfbfb"/><stop offset="1" stop-color="#fefefe"/></linearGradient><linearGradient id="b" x1="-4384.13" x2="-4383.66" y1="-749.12" y2="-703.36" gradientTransform="matrix(.5 0 0 .5 2294 444)" gradientUnits="userSpaceOnUse"><stop offset="0" stop-color="#d9d9d9"/><stop offset=".62" stop-color="#fbfbfb"/><stop offset="1" stop-color="#fefefe"/></linearGradient><linearGradient id="c" x1="-4426.67" x2="-4427.09" y1="-749.57" y2="-703.71" gradientTransform="matrix(.5 0 0 .5 2294 444)" gradientUnits="userSpaceOnUse"><stop offset="0" stop-color="#d9d9d9"/><stop offset=".62" stop-color="#fbfbfb"/><stop offset="1" stop-color="#fefefe"/></linearGradient><linearGradient id="d" x1="-4491.61" x2="-4492.27" y1="-749.34" y2="-702.6" gradientTransform="matrix(.5 0 0 .5 2294 444)" gradientUnits="userSpaceOnUse"><stop offset="0" stop-color="#d9d9d9"/><stop offset=".62" stop-color="#fbfbfb"/><stop offset="1" stop-color="#fefefe"/></linearGradient><linearGradient id="e" x1="-4514.91" x2="-4513.37" y1="-749.36" y2="-702.76" gradientTransform="matrix(.5 0 0 .5 2294 444)" gradientUnits="userSpaceOnUse"><stop offset="0" stop-color="#d9d9d9"/><stop offset=".57" stop-color="#fbfbfb"/><stop offset="1" stop-color="#fefefe"/></linearGradient><linearGradient id="f" x1="-4534.93" x2="-4535.05" y1="-749.87" y2="-703.22" gradientTransform="matrix(.5 0 0 .5 2294 444)" gradientUnits="userSpaceOnUse"><stop offset="0" stop-color="#d9d9d9"/><stop offset=".62" stop-color="#fbfbfb"/><stop offset="1" stop-color="#fefefe"/></linearGradient><linearGradient id="g" x1="-4470.38" x2="-4471.09" y1="-749.21" y2="-702.61" gradientTransform="matrix(.5 0 0 .5 2294 444)" gradientUnits="userSpaceOnUse"><stop offset="0" stop-color="#d9d9d9"/><stop offset=".62" stop-color="#fbfbfb"/><stop offset="1" stop-color="#fefefe"/></linearGradient><linearGradient id="h" x1="-4556.29" x2="-4555.61" y1="-749.46" y2="-702.88" gradientTransform="matrix(.5 0 0 .5 2294 444)" gradientUnits="userSpaceOnUse"><stop offset="0" stop-color="#d9d9d9"/><stop offset=".62" stop-color="#fbfbfb"/><stop offset="1" stop-color="#fefefe"/></linearGradient><linearGradient id="i" x1="-4363.52" x2="-4363.03" y1="-749.46" y2="-702.83" gradientTransform="matrix(.5 0 0 .5 2294 444)" gradientUnits="userSpaceOnUse"><stop offset="0" stop-color="#d9d9d9"/><stop offset=".57" stop-color="#fbfbfb"/><stop offset="1" stop-color="#fefefe"/></linearGradient><linearGradient id="j" x1="-4449.24" x2="-4448.21" y1="-749.83" y2="-702.44" gradientTransform="matrix(.5 0 0 .5 2294 444)" gradientUnits="userSpaceOnUse"><stop offset="0" stop-color="#d9d9d9"/><stop offset=".65" stop-color="#fdfdfd"/><stop offset="1" stop-color="#fefefe"/></linearGradient></defs><path d="M113 104H16.25c-.05 0-.75.7-.75.75v19c0 .05-.7.75-.75.75h-10c-.41 0-.89-1.21-.78-1.72l.08-77.97C6.72 19.51 22.12 2.22 48.77 3.98c15.13 1 27.02 9.84 32.82 23.68 2.66 6.35 2.61 15.19 9.78 18.22.54.23 3.56 1.12 3.88 1.12h28.5c.05 0 .75.7.75.75v76c0 .05-.7.75-.75.75h-10c-.05 0-.75-.7-.75-.75z"/><path d="M93.25 49.5c-.78 0-4.4-1.7-5.22-2.28-6.38-4.49-6.17-11.94-8.94-18.56C75.13 19.19 67.94 11.58 58 8.5 29.5-.34 7.6 18.88 6.5 47.25v54.25c14.32.01 28.67-.01 43 0 24.16.02 48.34-.01 72.5 0v-52zM11 96.15V66.71l106.5.14v29.44z" style="fill:#313131"/><path d="M8.22 122.02c-2.67-.33-1.67-3.12-1.72-5.52-.09-4.16.07-8.34 0-12.5h6.22l.28 12.5c-.1 4.6 1.12 6.26-4.78 5.52m113.86.06-6.3-.07c-.51-.08-.25-14.19-.28-18.01h6.5s.16 15.93.08 18.08" style="fill:#292929"/><path d="M27 14c.03.69.08 1.36-.25 2-.25.48-5.41 4.65-6.51 5.99-3.24 3.92-5.92 9.97-7.1 14.9-.56 2.36-.6 5.74-1.24 7.76-.5 1.57-2.19 1.16-2.43-.88-.49-4.13 2.35-12.96 4.25-16.8 1.34-2.7 8.42-12.49 11.03-12.97.72-.13 1.51.02 2.24 0ZM9.5 49.5c.93-.02 2.09-.23 2.43.82.25.78.22 7.49-.03 8.33-.48 1.59-2.4 1.53-2.4.6z" style="fill:#cbcbcb"/><path d="m87 68.5 8.47.01.02 25.69-8.39.14z" style="fill:url(#a)"/><path d="m104 68.5.02 15.85s2.13-.04 2.13.08l-.06 9.87-7.96.06L98 68.51h6Z" style="fill:url(#b)"/><path d="M84.5 68.5v25.82l-8.01.03-.02-10.44 2.03-.06V68.5z" style="fill:url(#c)"/><path d="M51.84 68.47S51.69 86.41 52 95h-8l-.19-10.37 2.18-.08-.04-16.25z" style="fill:url(#d)"/><path d="M33 68.5h6l.18 15.81 1.75.09.08 10.09h-7.5s-.48-20.84-.5-26Z" style="fill:url(#e)"/><path d="m22.5 94.5.03-9.54h1.97V68.5h6l-.25 26.14z" style="fill:url(#f)"/><path d="M54.5 68.5h6l.06 15.3 2.12.07.07 10.82h-7.99z" style="fill:url(#g)"/><path d="M12.5 68.5h5V85h2.06l-.06 9.5-6.75.15s-.26-23.49-.25-26.15" style="fill:url(#h)"/><path d="m111.1 68.17 4.63.08.08 26.28-6.81-.03-.08-10.15 2.16-.04z" style="fill:url(#i)"/><path d="m71.59 68.25.13 15.72 1.92.04-.14 10.49H66l-.07-10.46 1.94.04-.11-15.83z" style="fill:url(#j)"/><path d="M20.25 81.05c-1.95.81-2.55-7.19-.65-8.51 1.97-.43 1.96 7.41.74 8.43zm43.45-.68c-.46.66-.99.03-1.22-.6-.72-1.68-.45-5.41.29-6.03.45-.38.78.25.98.77.58 1.58.81 4.34.01 5.75l-.07.1Z" style="fill:#313131"/></svg>