<svg xmlns="http://www.w3.org/2000/svg" data-name="fill_sugarbeet" viewBox="0 0 128 128"><path d="M48.76 65.76c-1.97-2.47-3.73-4.69-5.5-6.92-.22-.28-.35-.68-.63-.86-4.11-2.56-6.69-6.19-7.98-10.85-.19-.67-1.03-1.19-1.61-1.73-5.83-5.41-7.69-12-5.86-19.69.23-.96.57-1.93.6-2.9.27-9.72 10.63-16.58 20-13.83.33.1.7.09 1.01.13C54.94-.32 67.58.05 73.8 6.95c3.46 3.84 7.02 7.33 7.64 12.63.36 3.08.07 6.23.07 10.86.94 2.45.96 6.42-.47 10.41-.18.49-.36 1.06-.28 1.56.59 4.06-.45 7.68-3.2 11.17 1.79.32 3.27.5 4.71.85 10.39 2.54 17.06 10.35 18.51 21.47 1.83 13.95.04 27.57-3.88 40.95-2.18 7.43-12.05 11.64-18.82 7.84-13.85-7.77-24.91-18.44-32.16-32.72-3.44-6.77-4.81-16.51 2.85-26.21Z" style="fill:#4a3726;stroke-width:0"/><path d="M94.67 87.27c-.11 9.23-1.83 18.16-4.29 26.98-1.09 3.9-6.15 6.07-9.7 3.99-12.27-7.16-22.17-16.77-28.69-29.48-4.56-8.91-.77-18.87 8.99-23.86 6.42-3.28 13.22-5.5 20.6-3.43 7.05 1.98 10.78 7.03 12.01 13.94.69 3.89.73 7.9 1.06 11.86Z" style="fill:#beb696;stroke-width:0"/><path d="M62.19 46.84c2.2 3.1 3.17 6.37.62 9.69-1.92 2.51-4.5 4.03-7.76 3.37-3.52-.71-5.81-2.8-6.04-6.74-5.08-1.76-7.87-5.27-7.92-10.82-3.8-1.96-6.69-4.66-7.41-9.07-.09-.53-.24-1.09-.17-1.6.56-3.67.97-7.39 1.83-10.99 1.09-4.56 8.92-7.59 13.13-3.47.73.72 1.8 1.14 2.77 1.55 5.73 2.44 7.81 5.6 7.79 11.9v3.72c4.01 3.27 4.56 7.61 3.14 12.46Zm3.32-14.4c.62-8.74-3.2-14.85-10.77-18.64 1.73-4.59 6.74-6.73 10.89-4.23 2.7 1.62 5.18 3.98 7.06 6.52 3 4.05 2.66 8.63.45 13.19 2.39 3.73 2.81 7.55.07 11.37.85 3.54 1.03 6.94-2.86 10.12-.41-2.84-.89-5.11-1.02-7.4-.23-3.96-.94-7.69-3.81-10.93Z" style="fill:#589058;stroke-width:0"/><path d="M74.6 84.62c-1.04-1.03-2.6-1.87-2.86-3.02-.24-1.05.6-3.1 1.52-3.53 3.32-1.57 6.81-2.87 10.37-3.77 1.03-.26 3.01.85 3.59 1.87.48.85-.08 3.28-.84 3.66-3.61 1.78-7.44 3.09-11.77 4.79Zm-8.09 14.85c-.91-.94-2.42-1.81-2.71-2.99-.26-1.05.51-3.09 1.4-3.53 2.96-1.46 6.11-2.64 9.32-3.38 1.02-.24 3.09.96 3.5 1.97.4 1.01-.29 3.36-1.18 3.82-3.08 1.6-6.45 2.63-10.33 4.11m13.96 9c-2.9.18-4.3-.95-4.4-2.81-.17-3.15 2.49-3.68 4.81-4.49 2-.7 3.52-.39 4.57 1.51.94 1.71.51 3.29-1.04 4.22-1.41.86-3.11 1.26-3.94 1.57M58.45 81.85c-1.97-.03-3.4-1.53-3.33-3.49.09-2.23 3.23-4.31 6.4-4.24 2.02.04 3.47 1.52 3.37 3.43-.11 2.09-3.49 4.35-6.45 4.3Zm-5.82-32.44c-.86-.98-2.04-1.89-2.62-3.08-2.74-5.59-5.35-11.24-7.92-16.91-1.23-2.71-.42-4.17 3.31-5.73.88.92 2.22 1.81 2.85 3.07 2.84 5.73 5.53 11.54 8.18 17.37 1.13 2.48.22 3.84-3.79 5.28Z" style="fill:#4a3726;stroke-width:0"/></svg>