<svg xmlns="http://www.w3.org/2000/svg" data-name="fill_plankslong" viewBox="0 0 128 128"><defs><linearGradient id="a" x1="-1103.66" x2="-958.68" y1="-1065.13" y2="-1063.09" gradientTransform="matrix(.5 0 0 .5 592 592)" gradientUnits="userSpaceOnUse"><stop offset="0" stop-color="#aa7636"/><stop offset="1" stop-color="#d1a774"/></linearGradient></defs><path d="M88.46 114.53c-.95-.22-1.69.33-2.48.7-5.31 2.5-10.76 6.64-15.94 9.55l-1.77-.8-57.03-98.97c-2.13-2.77-.67-6.53.78-9.24l21.35-12.2c.26-.08.52-.08.79-.01 1.42.36 4.59 7.37 5.59 8.94L57.49 2.2c.81-.39 1.52-.19 2.03.54l58.4 101.14c.21.83-1.3 6.25-1.92 6.87l-21.83 12.7c-.64.15-1.06-.54-1.39-.97-1.52-1.99-3.06-5.64-4.31-7.94Z" style="fill:#0d0e0d"/><path d="M88.18 58.33c7.11 12.33 14.73 24.8 21.81 37.03.93 1.61 4.34 7.08 4.52 8.41.15 1.14-2.65 1.37-3.26 2.18L91.89 72.86c-.53-5.07-.62-7.91-4.63-11.37-.83-.72-1.9-.9-2.76-1.74-2.94-2.9-5.52-10.82-8.27-14.23-.51-.63-1.05-1.27-1.97-1.02-1.74.47.22 3.5.66 4.34 1.62 3.15 5.49 10.49 7.58 12.92 1.26 1.46 3.75 1.73 4.74 3.26 1.86 2.88.56 6.57 2.13 9.35 3.55 6.28 7.53 12.9 11.24 19.28 2.66 4.58 5.71 9.02 8.4 13.6l-4.98 2.75-18.59-32.67c-1.01-2.06-3.43-2.64-2.83.31.42 2.08 2.8 4.9 3.83 6.69 2.96 5.19 6.04 10.36 9 15.5 2.19 3.8 4.23 7.69 6.53 11.42-1.31.7-5.04 3.81-6.22 2.79L39.59 15.58l8.43-4.36c1.06 1.47 1.96 3.83 3.15 5.12 1.07 1.15 3.08 1.84 4.09 2.66 3.45 2.78 5.75 6.96 5.25 11.51-4.61.87-4.5-4.51-6.05-6.7-1.08-1.52-2.5-.92-2.43.88.15 3.81 4.62 10.25 8.85 8.43 5.21-2.23.65-11.91-2.35-14.89-2.59-2.58-7.42-3.89-8.03-8.51-.12-.95.19-.59.64-.85 1.12-.64 6.19-3.66 6.87-3.16 9.7 16.93 19.67 33.71 29.42 50.62.37.63.4 1.38.76 2Z" style="fill:url(#a)"/><path d="M37.5 13.99c-.17.12-.86.08-1.27.47-.85.8-2.25 6.55-1.34 7.91C51.54 50.82 67.7 79.5 84.42 107.86c.06.34.23.86.05 1.11-.15.21-4.02 2.03-4.65 2L60.43 77.83c-.93-1.59-2.62-.83-2.44.89 6.08 11.55 13.21 22.58 19.5 34.04l-5.32 3.2-57.11-97.82c-.46-1.56 2.96-3.03 3.94-2.42L31.74 37.5c.87.96 2.75.67 2.76-.73L20.99 13.5l12.49-7.01c.03.97 4.36 7.25 4.01 7.49Zm9.69 65.84c4.81 8.33 9.79 17.06 14.73 25.51 1.01 1.72 8.45 12.71 7.59 13.66l-1.41-.83-55.35-95.71.26-1.96 16.41 27.84C35.26 58.9 41.17 69.4 47.19 79.83" style="fill:#9f7444"/><path d="M93.92 118.13c-.57.27-1.78-1.63-2.2-2.37-6.26-10.08-13.5-22.39-18.89-33.25-11.66-18.7-21.99-38.99-33.57-58.1-.54-.92-1.92-3.17-1.6-3.77.18-.11.72.38 1.35 1.22 2.59 3.4 4.41 7.59 6.46 11.29C53.8 47.69 64.1 63.06 71.79 78.11c3.62 6.57 7 13.32 11.04 19.62 2.13 3.79 12.27 17.61 11.13 20.37l-.05.03Z" style="fill:#bb8c53"/><path d="M66.93 28.07c.65.44.69 4.21.54 5.15-.21 1.35-1.88 3.22-1.75 3.8.75 3.31 7 10.07 7.29 13.27.22 2.5-1.94 1.92-2.98.33-.92-1.4-1.54-3.44-2.43-4.96-.9-1.53-5.36-8.15-5.52-9.02-.33-1.71 1.42-1.76 2.16-2.66 1.3-1.58.63-4.06.78-5.98.57.09 1.53-.19 1.93.07Z" style="fill:#0d0e0d"/></svg>