<svg xmlns="http://www.w3.org/2000/svg" data-name="fill_clothes" viewBox="0 0 128 128"><defs><linearGradient id="a" x1="443.18" x2="500.51" y1="-1132.37" y2="-967.02" gradientTransform="matrix(.5 0 0 .5 -148 592)" gradientUnits="userSpaceOnUse"><stop offset="0" stop-color="#45668e"/><stop offset="1" stop-color="#617fa5"/></linearGradient></defs><path d="M88.49 87c-.89-.13-.49 1.13-.38 1.63 1.61 7.35 5.99 17.29 6.78 24.26.34 2.96-.44 3.02-2.77 3.99-3.95 1.65-13.16 5.09-17.1 5.9-1.7.35-2.46.52-3.45-1.1-1.02-1.66-3.14-10.31-3.58-10.68-.68-.58-.95-.04-.99.75-.16 3.96-.53 4.98-4.78 4.77l-46.37-6.63c-1.17-.54-1.42-1.95-1.38-3.12l5.02-34.76c-.93-.06-1.55-.42-2.22-1.05-2.48-2.34-10.45-12.45-12.49-15.51-2.06-3.08-1.53-3.35 1.24-5.66 2.85-2.37 15.32-11.89 18-13 1.91-.79 7.85-1.22 10.19-1.31 2.74-.11 5.1.42 7.77.52-.2-2.86-4.68-9.69-1.97-11.72L87 8.21l1.5 1.03c11.97 31.39 22.86 63.3 34.02 95.03.02 1.47-1.06 2.19-2.26 2.76-5.36 2.52-12.73 3.73-18.27 6.27-1.65.51-2.9-.62-3.44-2.11L88.48 87Z" style="fill:#0c0e10"/><path d="M87.7 65.7c-3.59 3.79-10.09 6.57-14.19 10.1-2.36 1.17-2.63-3.63-3.95-1.49l-5.62 39.63-46.39-6.49-.05-3.2 5.49-37.75c-1.22.07-3.21 3.01-3.99 2.5L6.49 52.51c6.02-3.3 11.35-8.45 17.14-12.12 3.98-2.52 9.06-1.3 13.55-2.36.81.22 1.29 2.96 2.08 3.95 4.15 5.24 17.32 6.84 22.41 2.44.9-.78 1.43-2.41 2.56-2.42 3.7 1.68 7.9 2.43 11.29 4.72l13.46 17.55c.18.83-.84.96-1.28 1.42Z" style="fill:#f7f7f7"/><path d="M77 24c.46 5.47 5.78 9.92 11.25 10.04 2.19.05 4.04-1.11 6.21-1l25 71.42-18.45 6.04-16.02-38.77c.03-1.92 8.97-4.57 7.15-8.08L76.77 43.98c-3.73-1.22-8.16-3.73-11.86-4.64-1.53-.37-4.97-.13-5.67-1.33-.52-.9-.65-6.42-1.22-7.99z" style="fill:url(#a)"/><path d="m81.5 74 10.54 39.68-18.26 6.35c-1.26-5.75-5.57-12.44-5.28-18.28s2.05-13.49 2.94-19.56c.12-.8.06-1.59.02-2.39.06-.38 1.56-.52 2.2-.88.9-.5 7.44-5.36 7.83-4.92Z" style="fill:#56769c"/><path d="M88.5 17 45.13 31.89l-1.61.09-1.32-5.5 43.65-15.41.67.13z" style="fill:#785f4d"/><path d="M89.46 19.53c.39 1.55 4.11 10.25 3.52 10.95-6.46 2.1-12.96-.88-13.46-7.96l9.95-2.99Z" style="fill:#56769c"/><path d="M41 38.5h9.75c1.05 0 6.87 1.81 8.15 2.35.58.25 1.2.25 1.59.9-4.04 3.76-11.18 3.12-15.83.84-1.47-.72-3.93-2.24-3.66-4.09" style="fill:#b9b9b9"/><path d="M56.5 37c-1.97.04-3.82-.81-5.75-.99-1.03-.1-5.53.18-5.75 0-.08-.07.05-1.09 0-1.49 2.14.27 8.25-3.36 9.67-2.96 1.33.37 1.6 4.18 1.83 5.45Z" style="fill:#56769c"/></svg>