<svg xmlns="http://www.w3.org/2000/svg" data-name="fill_easel" viewBox="0 0 128 128"><path d="M92.58 87.98H73.22v7.91c0 2.58-.16 5.17.03 7.73.6 8.03-2.92 10.84-10.55 10.33-4.48-.3-7.27-2.99-7.3-7.6-.04-6.04 0-12.07 0-18.3H35.97c-2.44 10.26-4.85 20.51-7.32 30.73-1.03 4.28-3.16 5.86-7.6 5.87-1.09 0-2.18.02-3.27 0-4.75-.09-7.79-3.98-6.71-8.66 1.97-8.54 3.99-17.07 5.97-25.61.17-.74.21-1.5.32-2.26-8.28-.82-8.7-4.28-8.39-11.18.15-3.3 1.49-5.7 4.59-6.45 2.63-.64 5.44-.57 8.28-.83 3.64-15.48 7.33-30.99 10.9-46.52 1.25-5.43 5.67-6.84 12.41-5.72 4.54.75 6.31 4.49 5.09 9.57-.23.94-.35 1.91-.54 2.96h5.71v-18.1c0-6.33 2.25-8.73 8.52-8.51 2.35.08 5.05.47 6.88 1.73 1.39.96 2.24 3.51 2.32 5.4.28 6.41.11 12.85.11 19.42h5.69c-.22-1.09-.7-2.2-.62-3.28.15-2.18 0-4.71 1.04-6.45 2.3-3.84 6.45-3.29 10.19-2.93 3.43.34 5.49 2.51 6.26 5.83 2.6 11.13 5.17 22.26 7.76 33.39 1.02 4.41 2.06 8.82 3.11 13.35 3.7.51 7.85-.9 10.86 2.55 2.24 2.57 1.5 5.62 1.53 8.53.05 4.38-2.37 6.54-8.1 7.14 1.22 5.35 2.44 10.65 3.65 15.95.94 4.13 1.97 8.24 2.79 12.39.92 4.6-2.1 8.21-6.77 8.29-.89.01-1.78 0-2.68 0-5.17 0-7.28-1.7-8.45-6.77-2.27-9.88-4.55-19.76-6.89-29.91ZM40.25 69.75h14.96V47.98h-9.87c-1.69 7.22-3.38 14.45-5.09 21.77m33.14.07h14.93c-1.73-7.4-3.42-14.62-5.11-21.84h-9.83v21.84Z" style="fill:#4a3726;stroke-width:0"/><path d="M111.81 77.28v3.44H16.22c-.07-1.3-.12-2.24-.18-3.44h95.76Zm-49.08-66.8h3.16v59.3c-1 .06-1.94.12-3.16.19zm-23.1 13.8h4.06c-3.58 15.24-7.09 30.23-10.66 45.43h-3.98c3.53-15.16 7.02-30.16 10.58-45.43m45.29-.03h3.87c3.53 15.14 7.05 30.23 10.62 45.55h-3.9c-3.52-15.15-7.02-30.17-10.6-45.55ZM24.79 87.96h3.94c-2.32 9.89-4.57 19.53-6.88 29.37h-3.9zm85.7 29.49h-3.84c-2.26-9.66-4.53-19.37-6.88-29.41h3.9c2.23 9.6 4.47 19.3 6.82 29.41m-44.57-10.81h-3.23v-18.6h3.23zM47.85 37.27h7.3v3.3h-8.14c.31-1.2.54-2.13.84-3.3m25.5 3.32v-3.23h7.35c.29.97.58 1.96.96 3.23z" style="fill:#a5805b;stroke-width:0"/></svg>