<svg xmlns="http://www.w3.org/2000/svg" data-name="fill_def" viewBox="0 0 128 128"><defs><linearGradient id="a" x1="-783.49" x2="-783.27" y1="931.48" y2="1092.31" gradientTransform="matrix(.5 0 0 .5 444 -444)" gradientUnits="userSpaceOnUse"><stop offset="0" stop-color="#858484"/><stop offset="1" stop-color="#656464"/></linearGradient><linearGradient id="b" x1="-680.29" x2="-686.43" y1="976.99" y2="1088.82" gradientTransform="matrix(.5 0 0 .5 444 -444)" gradientUnits="userSpaceOnUse"><stop offset="0" stop-color="#535351"/><stop offset="1" stop-color="#383939"/></linearGradient><linearGradient id="c" x1="-782.68" x2="-782.87" y1="941.83" y2="997.83" gradientTransform="matrix(.5 0 0 .5 444 -444)" gradientUnits="userSpaceOnUse"><stop offset="0" stop-color="#07090a"/><stop offset=".05" stop-color="#07090a"/><stop offset=".09" stop-color="#242524"/><stop offset="1" stop-color="#07090a"/></linearGradient><linearGradient id="d" x1="-782.65" x2="-782.61" y1="1024.5" y2="1065.37" gradientTransform="matrix(.5 0 0 .5 444 -444)" gradientUnits="userSpaceOnUse"><stop offset="0" stop-color="#f9e091"/><stop offset="1" stop-color="#fcc416"/></linearGradient></defs><path d="M85.36 103.73c2.58.37 4.19-.52 4.89 2.86.53 2.57 1.15 5.84 1.56 8.45.21 1.35.94 5.8.62 6.79-.22.68-.69.99-1.51 1.3l-75.83.13c-1.47-.03-2.76-1.31-2.75-2.75l2.79-15.26c1.14-1.56 2.95-1.64 4.74-1.51l.22-84.03c.48-1.5 2-2.05 3.51-1.99 19.05.19 39.38.05 58.05 0 2.01 0 3.36.47 3.48 2.76l-.25 19.26c3.95-.39 8.04 1.24 11.17 3.58 10.35 7.74 4.95 23.43 4.34 34.16-.22 3.75-.83 14.17 2.72 16.27 7.06 4.17 9.44-5.72 9.8-10.75.42-6.02.11-13.96-.58-19.97-.18-1.54-1.1-8.47-1.94-9.06-.54-.38-1.64-.29-2.36-.64-8.11-4.01-9.78-16.51-1.69-21.16l-2.93-15.65c.16-1.98 1.29-2.09 2.97-2.55 2.47-.68 9.06-2.68 9.87.62 1.97 7.97 3.46 17.12 4.76 25.27.36 2.26 1.23 3.23.84 6.08-1.09 8.06 1.02 13.96 1.56 22.01.9 13.35.81 38.64-18.77 37.27-21.55-1.5-13.23-31.58-12.76-44.75.18-4.94-.67-9.84-6.5-10.25v53.5Z" style="fill:#0c0e0f"/><path d="m22.14 21.03 60.22-.3v83h-60z" style="fill:url(#a)"/><path d="m15.17 120.7 2.2-13.97 69.69-.03 2.8 14.03z" style="fill:#5b5b5a"/><path d="M100.51 95.58c.46.42 2.95 1.51 3.63 1.62 6.37 1.01 9.13-2.79 10.58-8.37 2.68-10.27.48-21.71-.36-32.11l5-.5c1.19 11.45 3.48 26.03-.75 37-2.93 7.6-10.27 11.25-18.1 8.11-12.75-5.12-6.76-27.56-6.15-37.85.5-8.36.36-14.93-9.44-16.31l-.06-4.94c5.05.06 10.52 2.79 12.91 7.34 4.9 9.3-1.26 26.27-.43 36.93.17 2.25 1.53 7.61 3.16 9.08Z" style="fill:url(#b)"/><path d="M113.86 15.23c.19 1.77.27 3.92.62 5.63 1.27 6.26 4.93 17.81 4.92 23.62 0 1.71-.98 2.97-1.07 4.51-.06 1.12.81 3.75.49 4.19-.29.4-4.88 1.46-5.42.99-.22-.19-.37-2.72-.59-2.91s-2.47.04-3.48-.27c-3.16-.97-5.51-5.86-5.51-9.03 0-4.29 1.82-6.66 5.48-8.53l-3.45-16.71 8-1.51Z" style="fill:#383b8f"/><path d="M29.86 25.73h45.5c1.14.38 1.54.93 1.5 2-.05 12.67-.02 13.81 0 27-.02 1.06-.35 1.6-1.5 2 0 0-35.53-.05-46 0-.94 0-.99-.25-1-1-.06-7.39 0-29 0-29 .25-.81.75-.9 1.5-1" style="fill:url(#c)"/><path d="M51.72 62.87c2.7-.77 4.54 3.55 5.73 5.52 1.87 3.09 5.02 8.89 5.69 12.31 1.98 10.15-10.41 17.22-18.24 10.25-5.11-4.55-3.08-11.24-.62-16.56.93-2 5.83-11.06 7.45-11.52Z" style="fill:#0c0e0f"/><path d="M24.87 87.02c-.05-6.36-.01-9.04 0-16.63.03-2.26 2.53-1.9 2.52.06-.01 7.45-.04 10.99-.02 16.53-.06 1.35-2.47 1.22-2.5.04m-.01 11.45v-6.06c.03-1.5 2.44-1.36 2.45.05.02 2.31-.06 3.18-.09 6.05-.01 1.77-2.31 1.75-2.37-.05Zm-5.56 10.35c.2-1.12 2.63-.9 2.38.5-.72 3.94-1.07 7.22-1.32 8.3-.43 1.84-2.89 1.25-2.46-.58.29-1.23 1.25-7.29 1.41-8.22Z" style="fill:#9e9e9e"/><path d="M109.12 20.23c1.14-.34 1.43.32 1.74 1.25.48 1.45 1.47 6.07 1.52 7.52.08 2.32-1.68 3.21-2.41 1.37-.65-1.64-1.71-6.72-1.65-8.39.02-.6.19-1.56.8-1.74Z" style="fill:#6f72b4"/><path d="M39.58 29.75c.82-.01 1 2.33-.12 2.31-1.04-.02-3.84-.04-4.1.17-.26.26-.1 2.66-.12 6.17 0 .89-2.43 1.03-2.39.06v-8.72l6.71.02Z" style="fill:#5b5b5a"/><path d="M44.86 85.23c-1.56-5.47 4.59-16.11 7.77-19.42 2.5 3.54 8.47 12.67 8.11 17.55-.66 9.04-14.05 10.56-15.88 1.88Z" style="fill:url(#d)"/><path d="M16.75 36c-.61 0-1.75-1.15-1.75-1.75V26H6.5c-.55 0-1-.45-1-1v-8.5c0-.55.45-1 1-1H15V7c0-.55.45-1 1-1h8.5c.55 0 1 .45 1 1v8.5h9c.55 0 1 .45 1 1V25c0 .55-.45 1-1 1h-9v9c0 .55-.45 1-1 1z" style="fill:#5b6db0"/><path d="M24.5 7v9.5h10V25h-10v10h-7.75c-.05 0-.75-.7-.75-.75V25H6.5v-8.5H16V7zm0-2H16c-1.1 0-2 .9-2 2v7.5H6.5c-1.1 0-2 .9-2 2V25c0 1.1.9 2 2 2H14v7.25c0 1.16 1.59 2.75 2.75 2.75h7.75c1.1 0 2-.9 2-2v-8h8c1.1 0 2-.9 2-2v-8.5c0-1.1-.9-2-2-2h-8V7c0-1.1-.9-2-2-2" style="fill:#101314"/></svg>