<svg xmlns="http://www.w3.org/2000/svg" data-name="fill_digestate" viewBox="0 0 128 128"><path d="M3.58 59.57C-3.66 40.2 16.79 20.64 34.13 15.29c33.88-14.18 98.07-.91 90.63 45.78 2.49 14.63.81 30.54 1.24 45.46-.01 7.32-4.32 11.57-11.66 11.57H14.67c-8.64 0-12.65-3.97-12.65-12.53.5-15.59-1.46-30.49 1.57-46Z" style="fill:#4a3726;stroke-width:0"/><path d="M117.25 64.8c1.93 13.49.3 27.38.79 41.03 0 3.6-.75 4.33-4.45 4.33q-49.5.03-99 0c-3.84 0-4.57-.75-4.57-4.56.41-13.6-.92-27.31.64-40.81h106.59Z" style="fill:#aeaeae;stroke-width:0"/><path d="M63.81 56.52c-16.24 0-32.47-.12-48.71.06-5.79.07-5.4-2.43-4.82-6.14 1.59-10.11 7.79-17.02 16-22.31 23.78-14.79 56.7-14.12 79.29 2.73 5.61 3.18 20.54 25.35 7.56 25.65H63.8Z" style="fill:#3f7b57;stroke-width:0"/><path d="M34.8 89.86c7.14-8.08 14.73-17.59 23.94-5.89 10.03 18.22 11.14-25.25 33.4 6 15.17-21.01 24.13-6.76 14.5-3.33-13.67 12.73-15.56 14.83-28.93-1.06-22.59 31.3-23.09-13.48-33.96 6.67-13.12 12.85-16.25-3.46-24.52-6.34-1.03-.24-2.22-2.79-2.11-4.2 4.55-9.25 14.08 3.33 17.68 8.15" style="fill:#4a3726;stroke-width:0"/></svg>