<svg xmlns="http://www.w3.org/2000/svg" viewBox="0 0 128 128"><path d="M26.48 63.08C29.44 24.76 12.06 4.57 62.53 2.37c9.78-.33 31.85 2.15 37.43 10.82 3.97 7.31 1.16 16.43 1.64 24.37-.3 23.64.32 47.33-.07 70.97-5.14 21.99-50.18 19.15-66.27 11.54-8.13-3.26-9.1-11.02-8.73-18.83.11-12.73.07-25.48-.06-38.17Z" style="fill:#583520;stroke-width:0"/><path d="M96.93 29.5c.62 25.38.04 50.47.24 75.83 1.11 14.45-17.6 13.26-27.56 14.93-10.96-.74-36.7 1.86-38.71-12.56.49-26.05-.84-52.27.55-78.21 21.8 7.77 43.34 8.23 65.48.02Z" style="fill:#e27149;stroke-width:0"/><path d="M71.34 8.09c-1.12 2.24-4.62 3.2-6.17 5.27-8.56 10.27 16.49 15.67 1.54 16.15-9.44-1.19-19.22-1.42-28.34-4.2-19.75-8 1.68-16.32 11.99-17.77 2.89-.4 21.15-3.34 20.98.55m17.87 19.86c-5.41-1.6.76-7.79-.48-11.54-.48-2.35-2.62-4.44-2.79-6.83.26-5.59 12.7 4.6 12.47 7.45 1.04 4.9-4.93 10.13-9.2 10.92" style="fill:#d6d6d5;stroke-width:0"/><path d="M83.39 19.12c-2.26 3.7-16.21 3.79-13.38-2.46 2.24-2.82 14.79-3.48 13.38 2.46" style="fill:#d6d6d5;stroke-width:0"/><path d="M52.93 61.98c-1.98-.98-3.63-1.69-5.18-2.59-3.88-2.26-5.64-7.01-1.76-10.76 1.4-1.36 2.28-2.78 2.39-4.93.24-4.46 5.71-8.18 10.07-5.92 1.89.98 3.58 2.33 5.68 3.72 1.89-.41 3.79.68 5.49 2.04 1.94 1.56 2.43 3.84 1.85 6.11-.52 2.03-1.54 3.92-2.73 6.84.5.29 1.34.85 2.23 1.29 4.44 2.2 7.49 5.71 9.03 10.32.91 2.71 1.47 5.66 1.53 8.51.07 3.83.43 7.51 1.53 11.2.69 2.31.73 4.81 1.06 7.23.47 3.49.81 7 1.43 10.47.98 5.51-1.29 9.61-7.05 9.98-2.92.19-5.25-1.92-6.83-4.38-2.18-3.39-4.13-6.93-6.28-10.34-4.09-6.49-8.31-12.89-12.32-19.41-.88-1.43-1.52-3.23-1.6-4.9-.18-3.4 0-6.84.23-10.24.09-1.28.72-2.52 1.24-4.22Z" style="fill:#4a3726;stroke-width:0"/><path d="M55.7 64.2c1.36.18 2.52.14 3.53.51 2.94 1.08 4.65.6 6.38-2.01.52-.79 1.07-1.56 1.65-2.4 2.87.4 5.02 1.86 6.6 3.85 2.78 3.48 4.02 7.59 4.49 12.06.61 5.83 1.65 11.62 2.49 17.42.66 4.57 1.38 9.14 1.86 13.74.2 1.96-.84 3.66-2.61 4.62-1.77.95-3.3.11-4.41-1.25-1.17-1.44-2.14-3.04-3.14-4.61-5.01-7.88-9.94-15.81-15.03-23.63-3.66-5.63-3.71-11.5-1.81-18.28Z" style="fill:#dd6534;stroke-width:0"/><path d="M46.94 53.59c.54-2.94 1.66-3.47 6.07-4.21-.37-.77-.66-1.49-1.05-2.15-.96-1.61-.86-3.19.2-4.66 1.11-1.55 2.71-2.18 4.57-1.71 1.8.45 3.09 1.51 3.33 3.52.09.73.27 1.45.46 2.41.63-.37 1.11-.52 1.4-.84 1.25-1.39 2.6-2.05 4.37-.91 1.84 1.19 2.52 2.86 1.73 5.02-.68 1.88-1.55 3.7-2.43 5.5-.75 1.55-1.63 3.04-2.46 4.55-.88 1.59-2.27 1.75-3.75 1.07-3.39-1.56-6.8-3.1-10.07-4.88-1.02-.56-2.5-1.48-2.35-2.7Z" style="fill:#7fa95f;stroke-width:0"/></svg>