<svg xmlns="http://www.w3.org/2000/svg" xmlns:xlink="http://www.w3.org/1999/xlink" data-name="fill_seeds" viewBox="0 0 128 128"><defs><linearGradient id="b" x1="-317.67" x2="-317.58" y1="-545.07" y2="-385.07" gradientTransform="matrix(.5 0 0 .5 222 296)" gradientUnits="userSpaceOnUse"><stop offset="0" stop-color="#7ba258"/><stop offset="1" stop-color="#386c2b"/></linearGradient><linearGradient id="a" x1="63.13" x2="63.13" y1="10.21" y2="20.19" gradientUnits="userSpaceOnUse"><stop offset="0" stop-color="#c6bb9f"/><stop offset="1" stop-color="#ada07c"/></linearGradient><linearGradient xlink:href="#a" id="c" x1="63.23" x2="63.23" y1="117.73" y2="107.8"/><linearGradient id="d" x1="-365.92" x2="-333.33" y1="-504.19" y2="-459.89" gradientTransform="matrix(.5 0 0 .5 222 296)" gradientUnits="userSpaceOnUse"><stop offset="0" stop-color="#b4c838"/><stop offset="1" stop-color="#8bae43"/></linearGradient><linearGradient id="e" x1="-289.85" x2="-274.75" y1="-472.95" y2="-453.04" gradientTransform="matrix(.5 0 0 .5 222 296)" gradientUnits="userSpaceOnUse"><stop offset="0" stop-color="#b3c739"/><stop offset="1" stop-color="#8eb042"/></linearGradient></defs><path d="M62.86 7.06c2.33-.42 5.9 5.46 7.39 5.46 2.97-1.37 5.14-6.06 8.9-4.92 1.43.43 4.14 4.69 6.1 5.32 2.35-1.81 5.82-7.02 9.03-4.94 1.01.66 6.73 5.67 7.45 6.55.32.4.57.82.67 1.33l.1 95.89c-.18 1.01-3.71 4.36-4.73 5.27-.58.52-3.83 3.31-4.11 3.39-3.93 1.19-6.64-4.93-8.4-4.93-2.36.85-5.53 5.66-7.93 5.4-1.65-.18-5.07-4.82-7.07-5.4-1.46 0-4.86 5.68-7.42 5.42-1.72-.18-5.97-5.42-7.08-5.42-1.98.71-5.34 5.17-7.11 5.44-2.57.4-5.36-5.03-7.48-5.35-1.8-.27-4.82 5.54-8.39 4.93-.54-.09-4.78-3.76-5.53-4.49-1.09-1.06-3.32-2.98-3.63-4.37l.12-95.67c.36-1.14 2.79-3.28 3.77-4.23.73-.7 4.76-4.16 5.28-4.25 3.86-.66 6.16 5.26 8.46 5.04 1.98-.19 4.25-5.68 8-5.04 1.74.3 4.66 4.33 6.52 5.03 1.21 0 4.72-5.03 7.11-5.46Z" style="fill:#0a0c0c"/><path d="m99 22.5.59.39c.45 10.98.35 22.47-.09 33.61.28 16.21.36 32.42.25 48.63L26.5 105V22.5z" style="fill:url(#b)"/><path d="M99.59 19.92c-.14.22-.25.26-.44.27H85.38c-13.58 0-55.21.01-58.78-.01-.34-.13-.28-.78-.33-1.11-.08-1.45.35-3.03 1.47-3.9 1.21-.99 2.64-2.42 3.75-3.71.87-1.06 2.22-1.65 3.33-.62 1.87 1.21 4.3 5.66 6.74 4.94 2.01-1.15 3.36-3.17 5.12-4.7.54-.47 1.22-.92 1.96-.76 1.33.33 2.37 2.1 3.38 3.01 1 .9 2.1 2.03 3.47 2.28 2.23-.15 4.62-3.16 6.24-4.71 1.77-1.76 3.25.87 4.46 1.92 3.42 3.12 5.03 4.24 8.2.09.87-1.01 2.12-2.64 3.47-2.65 3.29.56 5.45 7.94 9.34 4.44.93-.62 2.39-1.77 3.49-3.04.63-.61 1.36-1.64 2.28-1.4 1.42.68 2.38 2.35 3.68 3.26 2.04 1.42 4.24 3.74 2.97 6.34l-.04.07Z" style="fill:url(#a)"/><path d="M99.76 110.86c-1.01 2.18-3.25 4.07-5.48 4.97-2.73 1.04-4.85-.26-7.09-2.39-.6-.55-1.34-1.33-2.12-1.25-.47.04-.98.39-1.61.94-1.44 1.25-3.03 2.67-4.48 3.93-1.13 1-1.47.87-2.77-.28-1.79-1.31-3.81-3.86-5.79-4.54-.86-.04-1.52.8-2.19 1.32-2.18 1.91-4.99 3.42-7.53 2.18-1.74-.73-2.88-2.98-4.82-3.16-4.1.69-6.51 6.54-10.75 2.77-6.13-6.47-6.13 1.06-12.02 1-1.24-.09-2.34-.81-3.23-1.64-2.11-1.69-4.06-3.86-3.3-6.64 2.71-.55 22.88-.02 41.76-.2h31.34c.2.02.25.12.31.37.09.47.18 1.44-.17 2.47l-.06.16Z" style="fill:url(#c)"/><path d="M59 88.5c.77-.77-1.2-13.84-2.47-15.28-1.39-1.58-4.44-.35-6.19-.4-5.74-.16-10.89-4.77-13.08-9.83-3.37-7.79-2.53-16.11.31-23.93 8.84-.7 19 4.6 23.19 12.43 2.59 4.84 2.78 8.77.98 14-.65 1.87-2.76 4.07-2.76 5.75 0 1.53 1.41 4.41 1.79 6.24.52 2.48.59 5.06 1.24 7.52l3.81-6.93c.54-.87 3.03-3.54 3.1-3.88.12-.58-1.12-3.42-1.28-4.56-1.58-11.47 12.12-17.01 21.64-16.15 4.24.38 3.52 2.97 3.22 6.77-.73 9.49-6.17 18.28-16.75 17.25-1.68-.16-3.83-1.39-5.24-.76-1.97.89-6.08 9.33-6.51 11.76h12.75c.55 0 .95 1.58.78 2.19-.06.27-1.2.81-1.28.81h-28.5c-.99 0-.99-3 0-3z" style="fill:#0a0c0c"/><path d="M29 100c-.54-5.27-.62-10.73 0-16 1.17-1.87 3-.37 3 .25v16c0 .13-1.18 1.37-1.69 1.22-.61-.34-.99-.88-1.31-1.47m1.31-27.47c2.28-.48 2.46 7.51.39 7.94-2.28.48-2.46-7.51-.39-7.94" style="fill:#7aa257"/><path d="M29 100c-.41-.77-.45-.69-.53-1.7-.27-3.26-.34-9.92 0-13.1.08-.77.24-.73.53-1.2z" style="fill:#4b7b37"/><path d="M57.99 67.5c-.81.65-.86-.21-1.11-.64-2.05-3.54-5.78-11.19-8.85-13.64-2.06-1.64-3.28-.89-2.16 1.66.65 1.49 4.08 5.19 5.33 7.17.66 1.04 3.92 6.52 3.79 7.2-.29 1.5-5.92.59-7.22.23-10.63-2.93-11.4-19.3-8.24-27.94 10.46.98 22.28 8.71 20.34 20.6-.1.61-1.67 5.19-1.89 5.37Z" style="fill:url(#d)"/><path d="M84.89 56.14c1.55-.18 4.87-.83 5.13 1.12.18 1.33-.83 6.72-1.26 8.25-.9 3.23-3.48 7.06-6.62 8.38-2.24.95-6.5 1.68-8.65.36-.94-.57-.07-.79.27-1.25.52-.72 1.41-1.94 1.98-2.52 1.11-1.14 7.43-5.77 7.23-6.67-.15-.67-1.14-1.43-1.94-1.08-3.14 1.36-7.05 6.5-9.77 8.76-4.49-9.01 6.06-14.46 13.64-15.35Z" style="fill:url(#e)"/></svg>