<svg xmlns="http://www.w3.org/2000/svg" data-name="fill_boards" viewBox="0 0 128 128"><path d="m27.62 23.62 36.4-20.86c.76-.43 1.65-.48 2.23.23l45.62 78.83c-.55 1.99-.8 5.07-2.16 6.64-1.42 1.63-8.92 4.54-9.18 5.85-.12.63 1 1.43 1.24 2.16.76 2.28-.46 5.53-1.5 7.56l-37.15 21.4-1.14-.15-45.25-78.25c-.55-1.72.28-5.82 1.25-7.3 1.14-1.75 9.19-4.75 9.49-6.03.16-.69-1.47-2.44-1.48-3.94 0-.74 1.27-5.75 1.64-6.15Z" style="fill:#0c0d0d"/><path d="m92.48 91.48-9.69 4.99-6.54-10.97-2.25-.49c-1.63 1.67 6.04 10.66 6 12.77-.02 1.08-5.05 3.75-5.93 3.14L30.5 25.01c1.86-.09 7.69-5.13 9-4.29.68.43 1.98 3.49 2.97 4.56 2.85 3.05 5.95 3.05 8.22 7.78 5.05 10.51-4.26 7.46-4.72-.53-4.11-.54-2.12 3.42-.88 5.64 1.24 2.21 2.91 4.39 5.65 4.39 6.83 0 3.16-10.17.51-13.56-2.92-3.74-8.47-4.8-9.22-10.16L63.86 6.09l1.14.15 43.44 75.1-.77 1.11-12.69 6.85c-.51-.24-5.5-8.81-5.75-9.77-.65-2.49.23-4.62-1.31-7.19-1.46-2.45-4.03-3.28-5.64-4.86-2.49-2.43-5.54-10.33-7.86-13.64-1.68-2.4-3.56-2.43-2.69.69.38 1.37 7.27 13.36 8.34 14.66 1.46 1.78 4.05 1.65 5.53 4.47 1.31 2.5.51 4.5 1.13 6.87.51 1.95 6.4 10.03 5.75 10.96Z" style="fill:#cca377"/><path d="m29.43 36.56 42.06 73.21 1.99-.04 24.28-14.22 1.02 2-32.3 18.72-1.99.04-43.45-75.06c-.26-.99.22-.57.61-.81 1.18-.71 7.03-4.36 7.79-3.84Z" style="fill:#a27f5a"/><path d="M72.5 105c-.81.95-1.07-.75-1.23-1-.46-.7-.93-1.44-1.36-2.16-14-23.61-27.03-47.81-41.15-71.36l.49-1.98 42.52 73.48c.43.57 1.07 2.62.73 3.02" style="fill:#a27f5a"/><path d="M62.01 120.5 19 44.5c1.06-.23 1.14.54 1.59 1.16 1.02 1.41 2.06 3.44 3 5 13.55 22.61 26.03 45.92 39.43 68.6l-1.01 1.23Z" style="fill:#7f5d3a"/><path d="m108 85.5-.64 1.62L75 105.5l.64-1.62z" style="fill:#a27f5a"/><path d="M98.44 102.44 65.5 121l1.33-1.91c10.6-5.94 20.98-12.31 31.66-18.09l-.06 1.44Z" style="fill:#7f5d3a"/><path d="m58.5 18 2.25.49c4.72 9.09 10.56 17.62 15.33 26.67.57 1.08 1.52 2.88-.39 3.31-.91.21-2.16-2.14-2.6-2.82-4.25-6.64-9.63-15.82-13.18-22.82-.81-1.59-1.73-2.93-1.41-4.83m6 43-2.24-.5-8.17-14.36c-.43-2.15.84-1.69 1.64-2.66 1.77-2.12-.44-5.5 1.06-5.95 2.89-.86 2.54 3.71 2.11 5.62-.29 1.29-1.91 2.2-1.83 3.02l7.05 11.97.39 2.86Z" style="fill:#0c0d0d"/></svg>