<svg xmlns="http://www.w3.org/2000/svg" viewBox="0 0 128 128"><path d="M7.87 69.05C3 62.84-.56 55.21 6.29 49.04c6.82-8.53 3.27-20.95 17.67-23.13-.21-13.38 10.19-10.29 19.66-8.89 3.69-6.45 11.11-11.86 18.49-6.88 9.96 9.96 25.91 5.04 35.99 14.89 13.83 7.29 16.68 15.24 14.23 30.3-.37 6.98 3.87 12.98 1.78 20.11 22.38-.61 7.71 28.42-8.87 20.97-1.96 7.47-7.31 12.35-12.92 16.87-4.51 3.92-10.45 2.1-15.65 1.93-14.29 11.23-27.51-1.24-42.25-4.2-15.22 3.98-22.5-1.66-19.53-17.85C2.32 88.95-.63 79.66 7.86 69.05Z" style="fill:#4a3726;stroke-width:0"/><path d="M49.31 21.28c3.4-7.38 7.67-7.89 13.23-2.22 3.5 4.02 8.62 3.18 13.03 4.46 10.18 2.06 19.5 5.93 27.19 13.04 6.73 6.71 1.65 17.58 3.05 26.06.95 4.83 4.53 10.39-1.28 13.62-17.13 8.51.75 16.52-11.29 26.9-7.36 10.22-12.63 2.21-20.49 6.38-14.74 11.04-29.16-9.67-44.66-4.51-14.57 2.37.83-15.98-12.15-19.07-2.13-.95-4.11-2.22-6.79-3.7 3.01-9.17 9.35-12.45 1.64-21.12-2.08-3.27-2.09-5.19.76-7.78 2.94-2.68 4.52-5.85 4.98-9.71.93-7.8 5.55-11.57 13.73-11.79 6.15 3.09 10.12 8.7 12.82 15.41 9.25 24.06 29.21-4.7 6.21-25.96Z" style="fill:#876f47;stroke-width:0"/><path d="M30.92 23.43c11.85-6.07 19.63 24.74 19.43 24.09-3.01-10.97-10.86-17.63-19.43-24.09" style="fill:#589058;stroke-width:0"/><path d="M106.26 87.94c2.19-3.67 8.15-6.26 11.81-5.14 1.89 6.05-8.75 10.98-11.81 5.14" style="fill:#6f814f;stroke-width:0"/><path d="M47.7 93.54c-19.32 3.03-9.94-6.76-19.93-12-8.33-2.89-6.71-9.28-4.97-15.63-.14-3.83 6.23-4.63 6.38-.76.08 2.73-.49 5.47-.88 9.06 5.29 2.03 10.86 5.16 10.96 12.94 19.14-2.81 13.57 10.17 22.04 4.92 3.47-1.91-6.39 11.22-13.59 1.46Zm41.66-43.75c-5.96-.29-13.3 1.88-15.38-5.14-.77-4.09-5.7-9.82.47-11.99.73.24 1.56.52 2.81.93 1.03 2.98 2.13 6.14 3.36 9.69 8.11-1.28 17.27.03 15.68 10.57-.23 8.5.92 13.75-9.51 15 2.13 4.15 3.51 8.37-2.39 9.04-5.6-7.53-7.88-14.12 4.96-16.74z" style="fill:#4a3726;stroke-width:0"/></svg>