<svg xmlns="http://www.w3.org/2000/svg" xmlns:xlink="http://www.w3.org/1999/xlink" data-name="fill_garlic" viewBox="0 0 128 128"><defs><linearGradient id="b" x1="769.94" x2="693.47" y1="-369.74" y2="-199.09" gradientTransform="matrix(.5 0 0 .5 -296 222)" gradientUnits="userSpaceOnUse"><stop offset="0" stop-color="#d4d4d4"/><stop offset="1" stop-color="#c6bbd3"/></linearGradient><linearGradient id="a" x1="62.27" x2="51.89" y1="27.06" y2="10.45" gradientUnits="userSpaceOnUse"><stop offset="0" stop-color="#59a53e"/><stop offset="1" stop-color="#81b76f"/></linearGradient><linearGradient xlink:href="#a" id="c" x1="-235.4" x2="-245.78" y1="26.17" y2="9.56" gradientTransform="matrix(-1 0 0 1 -168.99 0)"/></defs><path d="M64.01 21c2.01-2.22 3.02-5.29 5-7.74 1.38-1.71 9.53-9.63 11.48-8.25.03.53.37.98.26 1.53-.26 1.29-3.5 6.15-4.34 8.12-1.2 2.82-1.89 5.43-2.65 8.35-.14.54-1.66 2.23-.1 1.91 9.74-1.99 4.28 2.37 2.46 7.45-7.61 21.33 17.79 27.55 28.58 41.17 9.49 11.98 8.44 34.36-4.74 43.18-8.3 5.55-14.7 4.72-23.7 6.3-2.13.37-5.12 2.4-7.64 2.86-3.66.67-8.04.32-11.63-.64-1.75-.47-4.23-2.05-5.27-2.23-6.98-1.22-11.85-.46-18.91-3.59C15.28 111.66 12 87.47 23.5 73.25 34.28 59.92 59.76 53.37 51.74 32c-1.69-4.5-7.53-9.13 2.6-7.09.74.15.78.18.65-.65-.37-2.54-3.2-9.03-4.41-11.6-1.09-2.32-3.73-5.75-4.37-7.63-1.29-3.76 1.82-2.1 3.54-1.04C55.86 7.76 60.88 14.65 63.99 21Z" style="fill:#0c0f0f"/><path d="M75 27.5c-1.75 4.72-3.43 9.01-2.94 14.19 1.32 13.86 13.28 18.15 22.68 25.82 10.21 8.32 15.83 17.85 13.04 31.51-2.97 14.52-13.61 20.43-27.78 20.97 10.68-12.97 7.79-31.45 1.59-45.83-2.05-4.75-6.23-13.24-9.17-17.33-1.46-2.03-3.41-1.69-2.7.68 8.96 15.5 17.89 31.96 13.56 50.51-4.86 20.82-33.47 21.01-38.53-.02-3.75-15.55 1.95-29.03 9-42.52.88-1.68 5.09-7.9 4.74-9.19-.45-1.7-2.14-.54-2.9.53-4.05 5.68-9.73 17.5-11.84 24.16-4 12.64-4.85 28.39 4.26 39-12.65-.42-24.12-5.8-27.35-18.89-3.02-12.25.02-22.07 9.09-30.62 10.46-9.86 26.89-14.41 26.28-31.76-.14-3.99-1.69-7.57-3.02-11.23 2.63.17 5.98 2.08 7.77 3.98 1.32 1.4 2.39 5.39 4.67 2.71.73-.85 1.11-2.02 2.04-2.96s6.61-4.61 7.52-3.73Z" style="fill:url(#b)"/><path d="M63.19 25.81c-.28 1.54-2.24 1.88-3.46 1.28-1.83-.77-2.82-4.04-3.68-6.36-1.08-3.31-2.32-6.4-3.66-9.65-.28-.86-.17-1.29.75-.58 2.46 2.08 4.63 5.35 6.68 7.95 1.8 2.42 3.47 4.26 3.4 7.2l-.03.17Z" style="fill:url(#a)"/><path d="M48.84 87.18c1.26 2.78-.62 7.15-.56 10.25-.42 4.15 1.03 7.97 1.75 12.02.34 1.64 0 4.42-1.73 1.97-1.16-1.75-1.81-4.17-2.31-6.26-.82-3.59-.93-5.89-.6-9.49.2-1.76.81-9.63 3.39-8.57l.06.06ZM35.81 69.77c.66 1.19-1.44 2.76-2.29 3.62-3.01 2.55-5.86 5.71-7.45 9.3-1 2.14-1.44 4.85-2.59 6.87-.88 1.51-1.77 1.25-1.85-.39-.09-2.03.72-4.37 1.44-6.31 1.82-4.69 4.1-7.92 7.71-11.07 1.3-1.02 3.38-2.74 4.97-2.07zM23.6 94.11c.78.51.83 1.89.9 2.82.09 1.97.12 3.78.97 5.56.7 1.61 1.68 3.82 1.33 4.84-2.14 4.54-8.91-15.11-3.31-13.29z" style="fill:#fbfbfc"/><path d="M65.5 24.92c.28 1.54 2.24 1.88 3.46 1.28 1.83-.77 2.82-4.04 3.68-6.36 1.08-3.31 2.32-6.4 3.66-9.65.28-.86.17-1.29-.75-.58-2.46 2.08-4.63 5.35-6.68 7.95-1.8 2.42-3.47 4.26-3.4 7.2l.03.17Z" style="fill:url(#c)"/></svg>