<svg xmlns="http://www.w3.org/2000/svg" viewBox="0 0 128 128"><path d="M2.81 92.91c0-6.57.14-13.15-.06-19.71-.1-3.43 1.18-5.84 3.72-8 17.31-14.69 34.56-29.44 51.84-44.17 4.78-4.07 9.6-8.1 14.32-12.24 1.84-1.61 3.78-2.39 6.28-2.37 12.85.09 25.7.04 38.56.05 5.16 0 7.73 2.62 7.73 7.87 0 13.43-.08 26.86.06 40.29.04 3.43-1.19 5.83-3.73 7.99-20.32 17.26-40.76 34.38-60.76 52-5.69 5.02-11.32 7.34-18.92 6.89-10.4-.62-20.86-.15-31.3-.16-5.18 0-7.72-2.61-7.73-7.87V92.9Z" style="fill:#4a3726;stroke-width:0"/><path d="M117.93 56.06c-20.88 17.82-41.83 35.7-63.19 53.92v-6.51c4.15-3.59 8.43-7.19 12.58-10.93 3.43-3.1 2.85-5.5-2.14-7.25-3.15 2.54-6.57 5.29-10.36 8.34V72.28c20.54-17.56 41.6-35.56 63.13-53.96v23.4c-7.9 6.72-15.96 13.61-24.06 20.44-2.35 1.99-3.03 4.19-1.61 5.93 1.62 1.99 3.69 1.8 6.29-.4 5.95-5.07 11.94-10.08 17.91-15.11.34-.29.75-.49 1.45-.94v4.43Z" style="fill:#7b5b3b;stroke-width:0"/><path d="M47.19 114.21H10.08V74.56h37.11zM112.28 13.6C90.95 31.85 70.26 49.54 49.57 67.24l-4.13-.55c2.53-2.21 4.71-4.12 6.91-6.01 2.25-1.93 2.74-3.94 1.35-5.71-1.52-1.94-3.49-1.86-6.02.26-4.59 3.85-9.17 7.7-13.77 11.55H15.93C37.08 48.73 57.75 31.1 78.25 13.6h34.04Z" style="fill:#a5805b;stroke-width:0"/><path d="M99.11 45.73c-.79 1.22-1.22 2.35-2.02 3.04-6.22 5.34-12.49 10.62-18.78 15.88-1.64 1.37-3.48 1.37-4.91-.25-1.49-1.69-1.44-3.55.36-5.1 6.21-5.35 12.37-10.77 18.73-15.94.97-.79 2.95-.83 4.28-.49.89.23 1.46 1.73 2.34 2.87Zm-33.98-7.61c-.89-.84-2.4-1.61-2.72-2.73s.14-3.01.97-3.81c3.26-3.12 6.8-5.95 10.25-8.88 1.62-1.37 3.18-2.81 4.91-4.02 1.62-1.14 3.35-.93 4.66.6 1.3 1.52 1.4 3.36-.1 4.67-5.13 4.51-10.39 8.88-15.63 13.25-.48.4-1.22.48-2.35.91Z" style="fill:#4a3726;stroke-width:0"/></svg>