<svg xmlns="http://www.w3.org/2000/svg" data-name="fill_preservedfoodcarrot" viewBox="0 0 128 128"><defs><linearGradient id="a" x1="64.12" x2="64.12" y1="29" y2="119.55" gradientUnits="userSpaceOnUse"><stop offset="0" stop-color="#eeeff4"/><stop offset="1" stop-color="#c0c1d2"/></linearGradient><linearGradient id="b" x1="413.57" x2="435.26" y1="-1311" y2="-1264.84" gradientTransform="matrix(.5 0 0 .5 -148 666)" gradientUnits="userSpaceOnUse"><stop offset="0" stop-color="#df8341"/><stop offset="1" stop-color="#c05c21"/></linearGradient><linearGradient id="c" x1="399.66" x2="449.21" y1="-1221.19" y2="-1107.52" gradientTransform="matrix(.5 0 0 .5 -148 666)" gradientUnits="userSpaceOnUse"><stop offset="0" stop-color="#e38846"/><stop offset="1" stop-color="#be5a20"/></linearGradient></defs><path d="M54.39 5.14c9.16-.67 32.67-.51 39.78 5.43 3.03 2.54 2.79 8.85 2.29 12.63-.34 2.54-2.02 2.99-2.36 4.14-2.43 8.09 9.56 13.94 9.91 21.9v60.02c-.47 4.2-5.64 7.3-9.16 8.83-15.62 6.77-45.97 6.84-61.52-.16-3.58-1.61-7.31-3.95-8.71-7.79l-.12-60.89c.2-7.65 12.55-14.24 9.93-21.92-.31-.92-2.06-.86-2.39-3.1-.23-1.59-.3-10.12.07-11.37 1.48-4.98 17.72-7.37 22.3-7.7Z" style="fill:#030302"/><path d="M101 51.25C100.11 41.92 89.67 38.7 91 29c-17.03 4.87-36.47 5.02-53.5 0 1.39 9.01-8.73 12.89-9.87 21.38-1.17 8.67-.16 21.94-.13 31.12.03 8.9-.04 17.82.03 26.72.61 3.88 8.27 6.87 11.59 7.91 14.55 4.56 35.71 4.56 50.26 0 4.44-1.39 8.71-3.16 11.4-7.08.29-14.84.37-29.72.22-44.55-.04-4.2.39-9.18 0-13.25m-4.95 20.91-.11 34.33c-7.66 6.45-21.38 7.45-31.33 7.47-5.45.02-28.77-1.68-31.44-6.78-1.2-7.95-1.43-16.17-.68-24.65L31.5 81c.53-1.14.87-2.33.99-3.58-.11-7.09 0-14.17.2-21.25.06-2.48 10.26-4.63 12.28-4.94 13.11-2.06 28.62-2.04 41.63.58 8.56 1.72 10.56 3.54 9.4 12.06l1 .63c-.52 2.53-.84 5.08-.95 7.66" style="fill:url(#a)"/><path d="M58.89 8.64c7.43-.4 15.93.03 23.23 1.48 5.98 1.19 17.42 4.56 5.48 8.73-11.62 4.06-36.8 4.07-48.24-.48-1.83-.73-5.88-2.18-3.63-4.39 3.75-3.67 17.83-5.06 23.15-5.35Z" style="fill:#81361c"/><path d="M93 19.5c1 6.13-1.93 6.91-6.99 8.26-11.78 3.12-36.08 3.52-47.35-1.17-4.15-1.73-3.89-2.6-3.66-7.09.22-.23 4.66 1.97 5.5 2.24 10.88 3.59 31.33 3.41 42.62 1.13 3.39-.68 6.64-2.22 9.87-3.38Z" style="fill:url(#b)"/><path d="M97 64.5c.15 14.04-.03 28.11-.1 42.15-.99 3.35-11.19 5.98-14.38 6.62-13 2.59-30.24 2.34-42.91-1.63-3.61-1.13-7.67-2.14-8.11-6.39-.74-7.13 0-16.82 0-24.25 0-8.33-.19-16.7.22-25.03.55-1.31 1.54-2.09 2.75-2.75 10.79-5.85 48.75-5.84 59.55 0 4.43 2.4 2.92 6.76 2.97 11.28Z" style="fill:#030302"/><path d="m93.5 61.5.5.08V106c-1.13 1.92-7.65 3.71-9.99 4.26-12.1 2.82-27.31 2.72-39.42-.1-3.49-.81-6.96-1.86-9.99-3.77-.23-.27-.07-.59-.1-.89V61c1.13.4 2.24 1.01 3.39 1.36 14.69 4.48 41.12 4.43 55.61-.86" style="fill:url(#c)"/><path d="M34.56 57.94c-1.39-2.1 5.09-3.84 6.43-4.2 11.97-3.17 37.65-3.44 49.28.74 5.72 2.06 5.3 3.44-.27 5.27-12.08 3.98-38.55 3.91-50.72.22-.74-.22-4.52-1.72-4.72-2.03" style="fill:#81361c"/><path d="M93.5 61.5c.06-.02.42-1.18 1-.25L94 106z" style="fill:#cb6b2e"/><path d="M37 90c-.69-6.91-.58-14.08 0-21 .22-.54-.53-1.33 1.25-1.01.83.15 1.19.37 1.25 1.26-.54 6.18.72 13.51.02 19.53-.19 1.61-1.18 2.59-2.52 1.23Zm0 5c.66-.16 2.5.09 2.5.75v8c0 .94-2.5.94-2.5 0z" style="fill:#fdcfae"/><path d="M37 90c-.49-.5-.45-.48-.53-1.2-.47-4.57-.34-13.42 0-18.11.07-1 .26-1.03.53-1.69z" style="fill:#cb6b2e"/></svg>