<svg xmlns="http://www.w3.org/2000/svg" data-name="fill_flour" viewBox="0 0 128 128"><defs><linearGradient id="a" x1="-316.08" x2="-316.29" y1="-1153.86" y2="-960.86" gradientTransform="matrix(.5 0 0 .5 222 592)" gradientUnits="userSpaceOnUse"><stop offset="0" stop-color="#e7c394"/><stop offset="1" stop-color="#a77c52"/></linearGradient><linearGradient id="b" x1="-341.71" x2="-342.7" y1="-1059.96" y2="-1025.97" gradientTransform="matrix(.5 0 0 .5 222 592)" gradientUnits="userSpaceOnUse"><stop offset="0" stop-color="#fad96d"/><stop offset="1" stop-color="#fdca23"/></linearGradient><linearGradient id="c" x1="-296.41" x2="-295.34" y1="-1060.48" y2="-1025.49" gradientTransform="matrix(.5 0 0 .5 222 592)" gradientUnits="userSpaceOnUse"><stop offset="0" stop-color="#fad96d"/><stop offset="1" stop-color="#fdca23"/></linearGradient><linearGradient id="d" x1="-329.16" x2="-310.47" y1="-1084.92" y2="-1065.44" gradientTransform="matrix(.5 0 0 .5 222 592)" gradientUnits="userSpaceOnUse"><stop offset="0" stop-color="#fad86c"/><stop offset="1" stop-color="#fdca26"/></linearGradient></defs><path d="m22.34 11.59 83.15.17c.95.71 1.83 1.56 1.43 2.87-.79 2.9-5.3 9.56-5.37 12.1-.04 1.56 1.76 6.2 2.2 8.26 4.91 22.72 4.58 43.77-1.7 66.28.55 2.87 5.44 10.92 4.74 13.24-.16.54-.65 1.09-1.01 1.53l-84.31-.26c-.25-.39-.66-.82-.77-1.26-.56-2.17 4.81-10.42 5.24-13.25-7.06-24.16-7.13-49.93.05-74.07-.39-3.98-5.17-9.41-5.37-13.04-.05-.89.87-2.31 1.72-2.57" style="fill:#0a0c0c"/><path d="M103.5 15c-1.16 4.03-3.37 7.71-4.88 11.66 6.59 21.02 7.37 41.82 3.24 63.44-.5 2.64-2.83 9.56-2.71 11.57.15 2.56 5.06 10 4.85 11.82H24.35l-.35-.5c.8-2.01 4.76-10.26 4.87-11.32.19-1.81-3.19-13.37-3.72-16.57-2.31-13.91-2.3-28.29.01-42.2.53-3.16 3.9-14.86 3.71-16.59-.14-1.31-4-9.14-4.87-11.32.03-.28.06-.5.09-.5 26.09-.17 52.96-.16 79.06 0 .12 0 .23.22.35.5Z" style="fill:url(#a)"/><path d="M24 15c-.03-.07-1.19-.41-.25-1h80c.86.47-.23.95-.25 1z" style="fill:#e4c193"/><path d="m104 113.5-80.25.5c-.94-.6.22-.93.25-1z" style="fill:#b78d61"/><path d="M71.5 59.5q-.15.19 0 0c3.32-.5 12.85-3.63 14.37.38 1.89 5 .16 14.25-3.38 18.36-3.85 4.48-11.54 6.3-17.27 5.79-3.26-.29-1.34-.75-4.98-.05-4.77.92-12.8-1.27-16.47-4.5-4.72-4.14-6.34-13.22-4.64-19.12 1.37-4.75 10.82-1.37 14.38-.87q.19.15 0 0c-1.18-5.32-.38-9.52 3.01-13.74 4.68-5.83 6.92-6.32 11.75-.27 3.38 4.23 4.53 8.65 3.24 14.01ZM57.25 103c-.19-.03-1.22-.55-1.28-.81-.17-.61.23-2.19.78-2.19h13.5c1.36 0 1.36 3 0 3-3.67 0-9.69.53-13 0" style="fill:#11120e"/><path d="M57.5 26c4.05-.61 8.45-.61 12.5 0 2.25.33 2.12 1.66 0 2.5-4.31.41-8.7.56-13 0-.72-.24-1.6.29-.94-1.69.26-.78.77-.71 1.44-.81" style="fill:#0a0c0c"/><path d="M82.25 100h8.5c.14 0 1.37 1.2 1.25 1.74-.37 1.6-7.76 1.57-9.15 1.16-1.31-.38-1.94-2.08-.6-2.9m-37.5 0c.78.22 1.96 1.97.43 2.43-2.81-.07-5.62.95-8.45.61-1.61-.19-1.35-3.03-.48-3.03 1.94 0 7.11-.39 8.5 0Z" style="fill:#11120e"/><path d="M82.25 26h9c.94 0 .94 2.5 0 2.5h-9c-.76 0-1.16-2.05 0-2.5M45.5 26c.25.17.72 2.5-.25 2.5h-9c-.94 0-.94-2.5 0-2.5 1.38 0 8.87-.26 9.25 0" style="fill:#0a0c0c"/><path d="M70 28.5c-2.1.83-8.71.72-11.31.53-1.02-.07-1.11-.34-1.69-.53zm0-2.5c-2.22-.32-10.3-.33-12.5 0 .51-.83 1.9-.5 2.74-.51 2.33-.02 4.68-.03 7.01 0 .84 0 2.24-.33 2.74.51Z" style="fill:#e4c193"/><path d="M41.5 61.25c.39-1.26 5.79-.38 7.12-.12C59 63.14 62.24 71.92 59.69 81.53c-6.61-.03-13.97-1.39-16.95-8.03-.21-.47-1.25-3.55-1.25-3.75 0-1.81-.37-7.3 0-8.5Z" style="fill:url(#b)"/><path d="M83.5 70.25c-.16 1.01-1.8 4.6-2.5 5.5-1.06 1.36-3.79 3.52-5.37 4.14-3.16 1.23-7.25 1.68-10.61 1.59-1.7-9.79.68-18.28 11.35-20.35 1.13-.22 7.12-1.13 7.12.12 0 2.59.38 6.67 0 9Z" style="fill:url(#c)"/><path d="M62.33 44.1c1.66-.18 4.64 4.04 5.39 5.43 3.72 6.87.3 11.95-5.03 16.43-4.68-3.01-8.49-8.8-6.42-14.46.63-1.73 4.27-7.21 6.07-7.41Z" style="fill:url(#d)"/></svg>