<svg xmlns="http://www.w3.org/2000/svg" data-name="fill_honey" viewBox="0 0 128 128"><defs><linearGradient id="a" x1="-464.19" x2="-463.98" y1="-936.19" y2="-795.19" gradientTransform="matrix(.5 0 0 .5 296 518)" gradientUnits="userSpaceOnUse"><stop offset="0" stop-color="#fcd077"/><stop offset="1" stop-color="#f1a935"/></linearGradient><linearGradient id="b" x1="-399.88" x2="-529.88" y1="-995.95" y2="-995.55" gradientTransform="matrix(.5 0 0 .5 296 518)" gradientUnits="userSpaceOnUse"><stop offset="0" stop-color="#e5d2b6"/><stop offset="1" stop-color="#d7b88a"/></linearGradient><linearGradient id="c" x1="-464.47" x2="-464.55" y1="-961.69" y2="-930.69" gradientTransform="matrix(.5 0 0 .5 296 518)" gradientUnits="userSpaceOnUse"><stop offset="0" stop-color="#d7b889"/><stop offset="1" stop-color="#e4d2b6"/></linearGradient><linearGradient id="d" x1="-399.51" x2="-530.51" y1="-972.39" y2="-971.4" gradientTransform="matrix(.5 0 0 .5 296 518)" gradientUnits="userSpaceOnUse"><stop offset="0" stop-color="#e4d2b6"/><stop offset="1" stop-color="#d6b889"/></linearGradient></defs><path d="M104 59.5c.46 18.33.46 36.66 0 55-.88 3.39-2.52 4.21-5.66 5.59-15.18 6.7-52.62 6.59-67.97.29-4.01-1.64-6.5-2.94-6.89-7.61-1.4-16.98 1.11-35.86 0-53.04l1.44-10.43c-.2-.99-6.28-2.59-6.35-7.03-.07-4.62 5.65-5.98 8.35-8.59.77-4.21-.81-10.93.2-14.8.6-2.29 3.86-3.76 5.89-4.61 13.62-5.69 47.6-5.69 61.34-.36 2.58 1 6.29 2.76 6.68 5.82.54 4.28-.51 9.55.05 13.95 2.69 2.68 8.32 3.78 8.14 8.39-.21 5.18-5.84 5.85-6.13 7.23 1.01 3.44.84 6.71.92 10.21Z" style="fill:#10110f"/><path d="M48.3 51.2c6.85 5 8.99 7.09 18.47 6.32 7.68-.63 9.36-4.81 14.89-7.61 6.23-3.16 12.08 1.23 18.79.14.31 2.01.93 4.16 1.07 6.18 1.25 18.51-1 38.39 0 57.05.24 2.53-2.55 3.61-4.54 4.46-14.59 6.27-51.39 6.26-65.98 0-1.86-.8-4.28-1.7-4.53-3.97-.26-2.32-.98-44.46 0-58.05.14-1.93.78-3.79 1.06-5.68 2.04-.23 4.16.15 6.2-.05 6.36-.61 8.33-3.34 14.56 1.21Z" style="fill:url(#a)"/><path d="M31.13 18.12c1.49-1.56 10.75-3.56 13.26-3.98 13.4-2.26 31.85-2.23 45.02 1.2 1.97.51 9.1 2.62 9.11 4.91-.35 1.34-2.3 2.43-3.52 3-12.39 5.78-49.72 5.98-62 0-1.79-.87-3.61-3.31-1.87-5.13" style="fill:url(#b)"/><path d="M105.8 43.83c-.44.74-3.17 2.39-4.02 2.7-6.61 2.38-10.81-1.09-17.03-.52-6.85.63-9.95 8.11-18.56 8.94-9.43.91-10.87-2.83-17.53-6.85-7.86-4.75-11.64.13-18.86-.64-2.76-.3-11.27-3.59-7.79-7.19.43-.45 6.35-4.25 6.75-4.25 1.86 1.05 3.74 2.03 5.77 2.74 12.91 4.48 33.16 4.62 46.67 2.7 6.24-.89 12.6-2.25 18.06-5.44 2.63 1.93 8.91 3.89 6.55 7.83Z" style="fill:url(#c)"/><path d="M98.5 24.5v8.25c0 1.15-5.53 3.38-6.73 3.77-13.8 4.43-46.46 4.97-59.46-1.58-.61-.31-2.81-1.73-2.81-2.19V24.5c2.14.77 4.24 2.16 6.4 2.85 10.66 3.36 29.18 3.67 40.35 2.65 7.58-.69 15.39-2.16 22.25-5.5" style="fill:url(#d)"/><path d="M62.04 73.46c.15.13 3.76.13 3.91 0 .39-.34 1.86-8.69 2.27-9.98 1.42-1.07 2.72-.7 2.61 1.18-.09 1.68-2.8 8.4-2.13 9.35.35.49 3.09 1.7 4.03 2.51 1.07.92 1.65 2.22 2.58 2.92 4.67 3.56 9.38 3.57 13.1 9.9 4.73 8.06 4.07 22.1-8.18 20.68-1.81-.21-5.31-2.53-5.9-2.42-.55.1-2.4 1.73-3.32 2.18-3.99 1.97-10.17 2.18-14.21.17-1.15-.57-2.68-2.25-3.16-2.38-1.02-.27-3.7 1.77-5.15 2.19-13.83 3.97-14.11-15.67-6.53-23.52 3.36-3.48 7.51-4.36 10.7-6.8.93-.71 1.51-2 2.58-2.92 1.21-1.04 2.72-1.63 4.03-2.51.67-.94-3.21-9.96-1.75-10.97.38-.27 1.91-.09 2.24.45.42 1.28 1.89 9.64 2.27 9.98Z" style="fill:#0f100e"/><path d="M29 94.5V61c.04-1.01.29-6.02.57-6.42.14-.2 1.49-.69 1.94-.35 1.32.96.01 5.48-.04 7.01-.34 10.65.3 21.37.02 32.02-.1 1.39-1.33 1.33-2.5 1.25Zm0 14.5V98.75c0-.93 1.92-.99 2.4.6.25.85.29 8.05.03 8.83-.34 1.05-1.5.84-2.43.82" style="fill:#fefcf9"/><path d="M29 94.5V61c-.46 11.12.34 22.37 0 33.5M75.5 87c.62 3.3.54 6.64.5 10H52c-.04-3.36-.12-6.7.5-10z" style="fill:#f8c15f"/><path d="M76.59 105.42c-.47-.67 1.75-5.97 1.91-7.67.33-3.42.19-8.98-.74-12.26-.11-.41-1.64-2.49-.02-1.98 1.89.58 7.01 5.08 8.18 6.83 3.72 5.57 4.49 18.67-5.05 17.05-.73-.12-4-1.56-4.28-1.97m-25.18 0c-.28.4-3.55 1.84-4.28 1.97-4.22.72-7.21-2.01-7.63-6.13-.85-8.21 3.98-14.02 10.76-17.75.53 1.83-.6 3.87-.75 5.75-.18 2.36-.23 6.17 0 8.49.16 1.7 2.38 6.99 1.91 7.67Z" style="fill:#d3dfe4"/><path d="M75.5 99.5c-2.58 12.22-20.41 12.24-23 0zm-1-15h-21c3.22-11.31 17.78-11.31 21 0" style="fill:#f8c15f"/></svg>