<svg xmlns="http://www.w3.org/2000/svg" data-name="fill_salt" viewBox="0 0 128 128"><path d="M39.25 26.05c-4.59-.43-5.02-.99-4.35-5.42 1.37-9.12 8.96-16.46 18.2-16.93 7.16-.37 14.38-.38 21.54.02 9.19.51 16.59 7.67 18.05 16.75.72 4.52.37 5.03-3.97 5.66-.53 2.46-.15 4.16 2.16 6.06 1.78 1.47 2.76 4.62 3.02 7.14 2.07 19.84 3.87 39.7 5.77 59.55.43 4.46.92 8.91 1.34 13.36.66 6.9-4.02 12.26-10.99 12.29-17.44.08-34.89.07-52.33 0-7.61-.03-11.91-6.17-10.46-13.67 1.15-5.93 1.4-12.03 1.99-18.06 1.84-18.84 3.61-37.69 5.56-56.52.16-1.5 1.1-3.51 2.3-4.2 2.61-1.49 2.59-3.49 2.18-6.03Zm4.58 94.52c.68-12.51 1.33-24.43 1.98-36.35.75-13.88 1.51-27.76 2.26-41.64.09-1.58.28-3.16 2.33-3.13 2.21.03 2.4 1.65 2.26 3.38-.06.74-.08 1.49-.12 2.24-1.29 23.66-2.59 47.33-3.88 70.99-.07 1.29-.12 2.58-.16 3.32 4.53 0 8.85-.02 13.3-.03-.02-8.49-.07-17.35-.02-26.21.01-1.78-.86-4.5 2.17-4.52 3.04-.02 2.19 2.7 2.2 4.49.06 8.94.02 17.87.02 26.79 4.49-.05 8.76-.09 13.25-.14-.03-.81-.04-1.81-.1-2.82-1.32-24.32-2.65-48.63-3.97-72.95-.05-.93-.27-1.95.04-2.76.28-.72 1.2-1.71 1.79-1.68.82.04 1.81.78 2.31 1.5.41.6.23 1.62.28 2.46l2.91 51.7c.47 8.28.93 16.57 1.45 25.75 1.21-.24 2.31-.63 3.41-.64 7.5-.06 9.71-2.48 8.95-9.89-2.15-20.79-4.31-41.57-6.42-62.36-.33-3.24-.38-6.5-.69-9.74-.23-2.5-1.51-3.67-4.26-3.62-8.58.15-17.17.06-25.75.05-.93 0-1.98.18-2.75-.19-.69-.32-1.49-1.28-1.5-1.97-.01-.71.73-1.72 1.41-2.06.76-.38 1.82-.2 2.75-.2H84.1c.01-1.55.02-2.91.02-3.65-13.66 0-27.04 0-40.48-.01-.04.89-.09 2.16-.18 4.26 1.5-.23 2.69-.5 3.9-.58 1.66-.11 3.4 0 3.37 2.27-.03 2.09-1.68 2.14-3.24 2.14-1.59 0-3.18.1-4.76-.03-2.86-.23-3.9 1.05-4.16 3.86-1.55 16.81-3.22 33.62-4.91 50.42-.78 7.78-1.69 15.55-2.56 23.32-.51 4.55 2.31 7.81 6.85 7.96 1.86.06 3.72.18 5.88.29Zm44.56-99.65c-.78-6.86-6.84-12.57-14.24-12.85-6.71-.25-13.44-.26-20.15.01-7.42.3-13.52 6.12-14.15 12.84z" style="fill:#4a3726;stroke-width:0"/><path d="M43.83 120.57c-2.17-.11-4.02-.23-5.88-.29-4.54-.15-7.36-3.41-6.85-7.96.86-7.77 1.77-15.54 2.56-23.32 1.69-16.8 3.36-33.6 4.91-50.42.26-2.81 1.3-4.09 4.16-3.86 1.58.13 3.17.02 4.76.03 1.56 0 3.21-.04 3.24-2.14.03-2.27-1.71-2.38-3.37-2.27-1.2.08-2.4.35-3.9.58.09-2.1.14-3.37.18-4.26 13.44 0 26.82 0 40.48.01 0 .74-.01 2.1-.02 3.65H59.28c-.93 0-1.99-.18-2.75.2-.68.34-1.42 1.36-1.41 2.06 0 .69.81 1.64 1.5 1.97.78.36 1.82.19 2.75.19 8.58 0 17.17.1 25.75-.05 2.75-.05 4.02 1.12 4.26 3.62.3 3.24.36 6.5.69 9.74 2.12 20.79 4.28 41.57 6.42 62.36.77 7.41-1.45 9.83-8.95 9.89-1.1 0-2.21.4-3.41.64-.52-9.18-.99-17.47-1.45-25.75l-2.91-51.7c-.05-.84.13-1.86-.28-2.46-.5-.73-1.49-1.46-2.31-1.5-.59-.03-1.52.96-1.79 1.68-.31.81-.09 1.84-.04 2.76 1.32 24.32 2.65 48.63 3.97 72.95.05 1 .07 2.01.1 2.82-4.49.05-8.76.09-13.25.14 0-8.91.05-17.85-.02-26.79-.01-1.78.84-4.51-2.2-4.49-3.03.02-2.16 2.74-2.17 4.52-.05 8.86 0 17.72.02 26.21-4.45 0-8.77.02-13.3.03.04-.74.09-2.03.16-3.32 1.29-23.66 2.58-47.33 3.88-70.99.04-.75.06-1.49.12-2.24.13-1.73-.05-3.35-2.26-3.38-2.05-.03-2.25 1.55-2.33 3.13-.75 13.88-1.5 27.76-2.26 41.64-.65 11.92-1.3 23.84-1.98 36.35Zm22.07-37.3c.07-.62.27-1.61.27-2.6.02-12.59.02-25.18.01-37.77 0-.65.17-1.47-.15-1.91-.49-.67-1.34-1.46-2.04-1.47-.7 0-1.52.8-2.07 1.43-.29.34-.16 1.07-.16 1.63v38.61c0 .55 0 1.15.18 1.66.53 1.52 2.56 1.92 3.96.42" style="fill:#d6d6d5;stroke-width:0"/><path d="M88.39 20.92H39.85C40.48 14.21 46.58 8.39 54 8.08c6.71-.27 13.44-.26 20.15-.01 7.4.27 13.47 5.98 14.24 12.85M53.1 17.03c1.69-.29 3.15-.13 3.53-.7.5-.75.14-2.06.15-3.13-1.07.05-2.4-.25-3.13.28-.55.39-.33 1.85-.55 3.55m9.05-.34c1.8-.45 3.18-.41 3.75-1.06.47-.54-.04-1.92-.11-2.93-1.07.08-2.39-.19-3.11.35-.54.41-.31 1.84-.53 3.64m8.48.29c1.86-.45 3.22-.39 3.79-1.04.46-.52.32-2.27-.21-2.78-.54-.5-2.3-.53-2.79-.04-.61.61-.47 1.97-.79 3.86" style="fill:#aeaeae;stroke-width:0"/><path d="M65.9 83.27c-1.4 1.5-3.43 1.1-3.96-.42-.18-.51-.18-1.1-.18-1.66V42.58c0-.56-.13-1.29.16-1.63.55-.64 1.37-1.44 2.07-1.43.7 0 1.55.8 2.04 1.47.32.44.15 1.26.15 1.91 0 12.59.01 25.18-.01 37.77 0 .99-.2 1.98-.27 2.6M53.1 17.03c.22-1.7 0-3.16.55-3.55.73-.53 2.06-.22 3.13-.28-.01 1.07.34 2.39-.15 3.13-.38.57-1.84.41-3.53.7m9.05-.34c.21-1.79-.02-3.23.53-3.64.72-.54 2.05-.27 3.11-.35.07 1.01.58 2.38.11 2.93-.56.66-1.95.61-3.75 1.06m8.48.29c.33-1.88.19-3.24.79-3.86.49-.49 2.25-.46 2.79.04.53.5.67 2.25.21 2.78-.57.65-1.94.59-3.79 1.04" style="fill:#4a3726;stroke-width:0"/></svg>