<svg xmlns="http://www.w3.org/2000/svg" data-name="fill_strawpellets" viewBox="0 0 128 128"><defs><linearGradient id="a" x1="-611.81" x2="-612.11" y1="-393.72" y2="-240.7" gradientTransform="matrix(.5 0 0 .5 370 222)" gradientUnits="userSpaceOnUse"><stop offset="0" stop-color="#f7ed9d"/><stop offset="1" stop-color="#bfa84e"/></linearGradient></defs><path d="M.41 88.59c.21-.46.19-.46.39-.8 1.62-2.07 1.07-5.07 3.43-6.71 1.21-1.04 2.61-2.02 3.6-3.29 1.63-1.95 1.87-4.9 3.28-6.57 1.42-1.74 3.81-2.62 5.08-4.49 1.21-1.7 1.53-4.36 2.92-6.1 1.31-1.77 3.48-2.69 4.8-4.45 1.48-1.89 1.82-4.98 3.37-6.73 1.06-1.29 2.6-2.12 3.79-3.29 2.05-1.84 2.29-4.79 3.72-7.02 1.07-1.74 3.31-2.77 4.86-4.46 1.67-1.65 2.01-4.28 3.64-5.92 1.32-1.26 4.19-1.48 6.18-2.72 1.8-1 3.06-2.95 5.08-3.52 2.18-.57 4.5.33 6.71-.12 2.2-.32 4.37-1.64 6.22-1.21 1.77.34 3.55 2.01 5.41 2.57 2.74.81 6.14.1 7.97 2.7 1.3 1.66 2.44 3.46 4.35 4.49 1.42.88 3.1 1.52 4.05 2.95 1 1.52 1.43 4.22 2.89 5.93 1.34 1.75 3.47 2.82 4.62 4.26 1.48 1.79 1.74 4.28 3 6.2 1.34 2.24 4.21 3.3 5.46 5.42 1.09 1.71 1.42 3.85 2.55 5.54 1.22 1.9 3.41 2.91 4.8 4.67 2.04 2.5 2 5.93 4.62 7.83 1.25 1.03 2.79 1.87 3.81 3.16 1.62 1.95 1.61 5.03 3.82 6.72.84.72 1.82 1.48 2.14 2.55.38 1.4-.32 3.01.31 4.45.25.8.57 1.64.47 2.5-.09.8-.5 1.54-.86 2.25-.65 1.08-.72 2.39-.84 3.54-.2 1.47-1.47 2.57-1.96 4.28-.46 1.99-8.78 1.35-12.73 2.56-6.12 1.88-17.54-.53-32.81.23-3.8.19-14.48-.04-17.66-.54-3.97-.85-8 .96-11.97 1.37-3.6.37-7.16-1.18-10.69-1.55-3.91-.47-7.68 1.4-11.55 1.58-3.1.19-6.5-1.26-9.45-1.47-2.08-.3-4.01 1.54-6.02 1.03-.91-.32-1.61-1.33-2.65-1.97-1.1-.74-2.56-.74-3.61-1.55-1.14-.85-1.19-2.75-2.27-3.87-.69-.76-1.58-1.46-1.86-2.48-.39-1.79.68-3.67-.2-5.43-.32-.89-.5-1.68-.26-2.4l.04-.13Z" style="fill:#060603"/><path d="M89.74 42.19c1.06 1.25 3.23 2.18 4.32 3.33 1.68 1.8 1.89 4.65 3.23 6.69 1.1 1.74 3.56 2.85 4.91 4.3 1.35 1.46 1.7 3.55 2.46 5.33.97 3.13 4.68 3.81 6.41 6.27.86 1.46 1.25 4.26 2.56 5.95 2.02 2.66 5.61 3.54 6.19 6.98.31.97.55 2.04 1.06 2.9.56 1.05 1.66 1.59 2.46 2.41.99 1.06.29 2.72.7 4.07.19.96.85 1.9.42 2.86-.34.71-1.28 2.01-1.95 2.39-.56.23-.71 4.28-1.21 4.62-3.8 2.66-10.22 2.9-14.01 3.34-1.71.25-12.7-1.32-26.73-.61-4.48.23-14.2-.25-15.04.24-1.91.31-4.41-.86-6.41-.94-3.27-.33-7.27 1.49-10.74 1.69-2.07.14-4.09-.38-6.12-.86-1.92-.45-3.95-.98-5.86-.89-3.3.15-6.63 1.71-9.96 1.77-3.24.11-6.95-1.59-10.26-1.66-1.35-.07-2.66.94-3.98.67-.62-.2-1.11-.73-1.67-1.09-.97-.85-2.77-.65-3.63-1.39-.57-.61-.39-2.25-1.33-3.27-.51-.59-1.2-1-1.63-1.64-.49-.95.28-2.4-.09-3.5-.15-.77-.59-1.55-.51-2.33.14-.85.87-1.48 1.24-2.26.79-1.28.27-3.04.98-3.96 1.09-1.43 4.08-2.74 5.15-4.69 1.12-1.88 1.46-4.73 2.8-6.22 1.38-1.6 3.58-2.41 4.82-4.16 1.85-2.58 1.57-6.22 4.46-7.81 1.23-.9 2.82-1.72 3.73-2.93 1.16-1.62 1.32-3.83 2.36-5.55 1.2-2.26 3.95-3.29 5.33-5.11 1.41-1.8 1.62-4.31 2.9-6.2 1.44-2.28 4.38-3.1 5.62-5.37 1.16-1.75 1.27-4.53 3.52-5.26 1.56-.57 3.37-.88 4.78-1.85 2.67-2.04 3.82-4.12 7.43-3.33.98.1 1.98.18 2.95.07 2.17-.18 4.36-1.55 6.09-1 1.66.5 2.97 1.95 4.67 2.37 1.93.55 4.6.11 6.13 1.33 1.51 1.17 2.11 3.24 3.54 4.48 1.43 1.32 3.63 1.8 4.85 3.37 1.26 1.71 1.51 4.63 2.93 6.32l.12.14Z" style="fill:url(#a)"/><path d="M62.52 100.54c-.88 1.31-1.64 2.45-2.71 4.03 1.52-.58 2.55-.97 3.88-1.48.98 2.05 1.96 4.09 2.94 6.13-2.81 5.02-7.36 5.72-12.5 5.66-3.25-6.84-6.48-13.64-9.76-20.56 1.84-.99 3.45-1.86 5.59-3.01h-6.97c-1.59-3.31-3.11-6.46-4.65-9.66 2.59-4.69 6.53-6.73 12.02-6.49 4.02 8.39 8.04 16.79 12.15 25.38Z" style="fill:#d5bd77"/><path d="M54.68 116.39h-1.5L42.4 93.68l1.6-.86h-1.96l-5.4-11.21.38-.68c2.85-5.16 7.25-7.54 13.4-7.26l.9.04 12.91 26.96-.55.81.75-.29 3.88 8.08-.38.68c-3.11 5.55-8.18 6.43-13.27 6.43Zm-8.34-21.42 8.75 18.42c4.41-.05 7.66-.89 9.85-4.24l-1.99-4.16-7.01 2.68 4.87-7.24-5.04-10.52-9.42 5.07Zm-2.4-5.16h11.78l-6.31-13.17c-4.24.02-7.25 1.65-9.37 5.08z" style="fill:#101314"/><path d="M84.78 95.14c.42 1.14.83 2.27 1.33 3.63-7.1 4.96-14.17 9.89-21.42 14.96-.9-.42-1.82-.86-3.31-1.56 4.76-4.26 4.82-8.9.96-13.8.29-.13.59-.25.88-.38 1.12.7 2.23 1.4 3.79 2.37l-1.29-4.01c7.2-5.06 14.39-10.12 21.61-15.18 5.35 1.99 6.83 6.34 7.63 11.36-2.03 1.44-4.03 2.86-6.15 4.35-1.26-.72-2.47-1.41-3.67-2.1q-.39-.03-.36.36" style="fill:#d5bd77"/><path d="m64.84 115.45-6.14-2.9 1.69-1.51c4.02-3.59 4.27-7.33.78-11.76l-1.2-1.53 3.38-1.47.98.61-.37-1.15 23.15-16.27.74.28c6.16 2.29 7.77 7.37 8.59 12.52l.15.92-7.69 5.44-1.57-.89.58 1.58-23.08 16.12Zm-.91-3.74.61.29L84.3 98.2l-1-2.74v-.21c-.05-.56.13-1.08.49-1.45s.89-.55 1.45-.52l.34.02 3.14 1.79 4.59-3.25c-.78-4.29-2.15-7.33-5.8-8.98L67.48 96.94l2.21 6.87-3.82-2.39c1.43 3.64.78 7.12-1.94 10.29" style="fill:#101314"/><path d="M62.29 96.12c-6.99-9.08-4.26-19.58-5.88-29.78 3.25-.19 5.57 1.4 7.11 3.45 1.54 2.06 2.23 4.75 3.29 7.14.1-.73.24-1.66.37-2.6.2-.11.4-.23.6-.34.77 1.34 2.05 2.61 2.2 4.02.51 4.53.6 9.11.86 13.83-3.03 1.41-4.85 5.06-8.56 4.28Z" style="fill:#d5bd77"/><path d="M63.28 97.73c-.41 0-.85-.04-1.3-.14l-.54-.11-.34-.44c-5.13-6.67-5.33-14.05-5.52-21.18-.08-3.06-.17-6.23-.65-9.28l-.26-1.64 1.66-.09c3.35-.19 6.26 1.21 8.39 4.05.91 1.21 1.53 2.56 2.08 3.93l1.54-.88.74 1.3c.21.36.47.73.75 1.13.7 1 1.5 2.12 1.65 3.47.37 3.32.53 6.72.68 10 .06 1.29.12 2.59.19 3.91l.06 1.01-.92.43c-.88.41-1.69 1.09-2.55 1.81-1.46 1.23-3.22 2.71-5.64 2.71Zm-.17-3.01c1.33.07 2.34-.71 3.88-2 .72-.61 1.46-1.23 2.3-1.75-.05-1-.1-2-.14-2.99-.16-3.39-.3-6.59-.66-9.81-.02-.22-.12-.46-.25-.72l-.69 4.9-2.12-4.82c-.33-.75-.63-1.53-.92-2.31-.64-1.68-1.24-3.27-2.19-4.54-1.15-1.53-2.55-2.46-4.18-2.76.3 2.64.37 5.27.44 7.84.18 6.77.35 13.18 4.54 18.95Z" style="fill:#101314"/></svg>