<svg xmlns="http://www.w3.org/2000/svg" data-name="fill_buffalo" viewBox="0 0 128 128"><defs><linearGradient id="a" x1="-168.09" x2="-168.18" y1="10.11" y2="109.11" gradientTransform="translate(148)scale(.5)" gradientUnits="userSpaceOnUse"><stop offset="0" stop-color="#9e825c"/><stop offset="1" stop-color="#b9a17f"/></linearGradient><linearGradient id="b" x1="-168.03" x2="-167.99" y1="59.96" y2="179.96" gradientTransform="translate(148)scale(.5)" gradientUnits="userSpaceOnUse"><stop offset="0" stop-color="#b08347"/><stop offset="1" stop-color="#c29a67"/></linearGradient><linearGradient id="c" x1="-53.53" x2="-99.3" y1="30.62" y2="62.83" gradientTransform="translate(148)scale(.5)" gradientUnits="userSpaceOnUse"><stop offset="0" stop-color="#bebfaf"/><stop offset=".21" stop-color="#bdbeae"/><stop offset="1" stop-color="#85857a"/></linearGradient><linearGradient id="d" x1="-283.27" x2="-239.94" y1="25.51" y2="64.01" gradientTransform="translate(148)scale(.5)" gradientUnits="userSpaceOnUse"><stop offset="0" stop-color="#bebfaf"/><stop offset=".28" stop-color="#bcbdad"/><stop offset="1" stop-color="#88887d"/></linearGradient></defs><path d="M85.5 11c2.28-.06 4.53.47 6.71 1.04 1.9.5 5.25 2.23 6.65 2.36 1.82.17 8.24-1.01 9.97-1.81 3.11-1.44 8.74-9.04 10.82-8.96 1.65.06 2.51 1.02 2.59 2.61.25 4.89.25 16.9-1.84 20.92-.85 1.63-2.4 3.57-3.91 4.59 5.85 7.41 8.16 15.55 7.5 24.99-.11 1.55-.53 5.59-1.47 6.53-1.53 1.52-8.82.98-11.15.6-.89-.15-5.63-1.68-5.87-1.38-2.15 11.75-8.93 21.75-13.92 32.38.07 2.35 1.58 4.45 1.87 6.93.86 7.43-1.08 16-9.04 18.36-2.05.61-4.81.42-6.56.94-.64.19-2.08 1.82-3.09 2.41-6.29 3.69-14.89 3.64-21.29.26-1.32-.69-2.57-2.24-3.86-2.64-1.59-.5-3.93-.4-5.64-.86-10.77-2.88-11.07-16.26-7.56-24.9-4.67-10.94-11.96-20.91-13.91-32.88-.23-.29-5.34 1.31-6.3 1.45-1.33.2-4.67.55-5.95.55-.6 0-3.8-.54-4.25-.75-2.36-1.12-2.2-11.47-2-14 .54-6.78 3.52-12.64 7.5-18-2.64-1.91-4.9-5.31-5.37-8.64-.76-5.27.42-11.33-.52-16.74 2.25-7.05 8.03 2.08 10.88 4.38 3.09 2.49 8.32 3.7 12.27 3.67 1.36-.01 5.48-1.99 7.42-2.49 2.05-.52 4.17-1.01 6.31-.94-1.78-5.56-3.7-9.98 4.25-9.49 6.1.37 11.81 2.96 17.46 5C69.68 4.23 77.75.85 83.75 1.48c6.68.7 1.08 8.92 1.74 9.51Z" style="fill:#0d0e0e"/><path d="M34.75 26c-2.01-.24-8.15-2.61-9.28-4.23-.37-.53-.61-.55-.25-1.27.34-.68 3.75-2.96 4.62-3.42 5.2-2.73 11.89-3.49 17.66-4.09-2.07-2.43-3.69-5.23-4-8.49 7.28-.65 14.04 2.09 20.33 5.39C70.34 6.86 77.08 3.74 84.5 4.5c-.31 3.26-1.93 6.07-4 8.49 6.55.59 13.47 1.62 19.15 5.1 2.89 1.77 4.86 2.7 1.19 5-1.33.84-6.73 2.9-8.1 2.9h-8.25c-.28 1.6 1.31 1.96 1.92 2.81 3.56 4.95 7.32 12.26 7.59 18.46.05 1.1-.42 6.08-1.24 6.16-1.79.17-9.05-3.41-10.72-4.72-1.3-1.02-1.6-1.81-2.5-2.89-.39-.47-.38-.42-1.04-.32.02 4.64-3.16 8.46-5.76 12.01-.76 0-4.54-3.91-5.24-4.77-.79-.97-2.96-5.17-3.26-5.24-1-.25-.65.33-.86.65-2.11 3.2-3.96 6.46-7.13 8.86-.43.33-.53.67-1.25.49-2.46-3.77-5.13-7.45-6.01-11.99l-4.15 4.1c-1.22.79-9.06 4.32-9.87 3.68-2.35-6.14 0-12.8 2.6-18.45L43.49 26c-2.79-.23-6.02.32-8.75 0Z" style="fill:url(#a)"/><path d="M38 28.5c-1.01 2.86-2.94 5.35-4.09 8.16-1.69 4.13-2.72 8.61-2.43 13.11.11 1.64.61 5.6 2.36 6.14 3.41 1.03 10.75-3.26 13.88-4.9.6.13 4.42 9.06 7.61 9.4 2.79.3 7.48-7.15 8.49-7.37 1.1-.24 6.21 8.09 9.2 7.27s6.62-9.16 7.26-9.3c2.89 1.59 11.65 6.57 14.51 4.53 1.05-.74 1.59-3.96 1.71-5.29.4-4.63-.67-9.33-2.4-13.59-.59-1.44-4.1-6.99-4.08-7.41.04-.77 2.86-1.06 3.42-.67.19.13 1.68 3.35 2.17 4.08 1.39 2.09 3.06 4.05 4.18 6.32 9.78 19.69-1.41 36.88-10.52 54.01-13.15-11.9-36.53-11.79-50-.49-.57.48-.39.72-.99-.01-7.55-14.91-17.45-29.41-12.51-46.99 1.85-6.57 5.6-11.09 8.84-16.9l3.4-.1Z" style="fill:url(#b)"/><path d="M63.41 86.61c7.54-.12 19.88 2.81 24.59 9.14 4.23 5.68 4.2 18.3-3.15 21.35-8.24 3.41-15.04-2.29-22.6-1.6-3.1.29-6.45 2.1-9.55 2.45-6.87.78-12.8-.25-14.85-7.55-4.65-16.56 11.87-23.57 25.56-23.79" style="fill:#d4b8b8"/><path d="M112.75 61.5c-1.01-.12-6.51-1.55-6.71-2.31-.1-.35.55-4.11.48-5.46-.26-5.5-2.17-10.63-4.02-15.72l11.7-4.44c6.57 7.44 8.21 17.45 6.73 27.12-.08.27-.51.82-.68.82-2.33 0-5.28.25-7.5 0Zm-105 0c-.75-.2-1.2-4.22-1.27-5.23-.54-8.05 1.85-16.72 7.32-22.74L25.5 38c-1.88 5.17-3.81 10.13-4.02 15.72-.05 1.3.57 5.14.48 5.46-.12.45-.46.53-.8.73s-5.61 1.59-5.91 1.59c-1.81 0-6.14.36-7.5 0" style="fill:#6e4b2a"/><path d="M116.05 28.98c-2.01 2.38-5.57 3.84-8.65 5.21-2.52.92-5.61 3.08-7.85.77-1.55-1.79-4.01-5.05-1.89-6.92 2.91-2.05 8.81-4.03 7.16-8.61-.69-1.86-1.13-2.65.81-3.35 3.04-.84 5.75-1.85 8.06-4.07 3.07-2.72 6.16-7.14 6.22-1.54.1 3.62-.28 7.53-.66 11.08-.22 2.82-1.23 5.23-3.06 7.31l-.12.14Z" style="fill:url(#c)"/><path d="M8.29 20.11V8.55c0-.44.03-.95.23-1.24.65-.54 1.72.8 2.33 1.21 3.46 3 6.38 6.42 10.89 7.39 4.33.86 2.12 1.1.84 4.19-.74 3.53 3.62 5.82 6.43 6.95 3.55 1.11 2.36 3.05.46 6.08-.81 1.16-1.72 2.76-3.32 2.54-2.68-.51-6.87-2.49-9.82-3.71-2.81-.98-5.53-2.68-6.59-5.35 0 0-1.68-4.02-1.43-6.5Z" style="fill:url(#d)"/><path d="M62.38 118.13c1.23-.16 2.02-.16 3.25 0 .98.13 8.37 2.09 8.37 2.62-5.66 3.95-14.32 3.95-19.98 0 0-.54 7.38-2.49 8.37-2.62Z" style="fill:#d4b8b8"/><path d="M12.04 27.2c-1.19-.61-3.83-11.25-.74-9.31 1.02.81 2.46 4.3 3.88 6.24 1.56 2.21 3.69 3.98 3.8 4.93.05.84-1.04.69-1.67.65-1.79-.2-3.97-1.08-5.15-2.38l-.11-.13Z" style="fill:#ebe2e2"/><path d="M46.1 15.43c.94 1.86-3.99 2.32-5.5 2.55-2.1.31-3.82.82-5.88 1.37-3.82 1.21-6.12-.36-1.63-2.62 2.53-1.15 5.06-1.52 8.14-1.89 1.51-.08 3.68-.61 4.8.5l.06.08ZM36 49.5c-.96-2.19 1.26-14.14 4.24-13.5 2.05.44-1.38 6.21-1.61 7.88-.37 2.6 1.01 6.22-2.63 5.62" style="fill:#ccb493"/><path d="M34.35 60.1c5.08-1.51 7.76 4.45 3.63 7.13-5.63 3.64-8.16-5.78-3.63-7.13m60.5 6.75c-4.16 3.8-9.29-2.74-5.84-6.09s9.9 2.38 5.84 6.09" style="fill:#0d0e0e"/><path d="M39.9 104c.59 0 1.06.48 1.06 1.07 0 2.97.8 6.84 3.36 8.36.99.59 3.54.97 3.96 1.54 1.24 1.68-.86 2.15-2.31 1.82-5.67-1.3-7.7-6.46-7.54-11.73.02-.58.49-1.05 1.07-1.05h.39Z" style="fill:#ebe2e2"/><path d="M52.94 102.56c1.72 2.64-3.66 3.28-6.07.96-.92-.88-2.89-5.42-2.14-6.55.42-.63 1.75-.68 2.32-.26.62.45.41 2 .69 2.81 1.14 3.24 4.78 2.38 5.21 3.04Zm22.1-.02c.42-.62 3.61.19 4.85-2.4.63-1.31.26-3.5 1.86-3.67 2.84-.29 1.45 3.64.64 5.17-1.04 1.95-4.37 4.03-6.57 3.3-.89-.3-1.12-1.9-.78-2.4" style="fill:#181718"/><path d="M9.76 45c2.66-.6.81 4.96.72 6.23-.16 2.25-.04 4.75.41 6.96-1.22 2.29-2.53 1.15-2.86-.97-.28-1.83-.17-11.79 1.73-12.22" style="fill:#aa906c"/></svg>