<svg xmlns="http://www.w3.org/2000/svg" xmlns:xlink="http://www.w3.org/1999/xlink" data-name="fill_ricebags" viewBox="0 0 128 128"><defs><linearGradient id="b" x1="-5643.22" x2="-5644.02" y1="-1163.52" y2="-949.52" gradientTransform="matrix(.5 0 0 .5 2886 592)" gradientUnits="userSpaceOnUse"><stop offset="0" stop-color="#c7e5e3"/><stop offset=".43" stop-color="#c7e5e3"/><stop offset="1" stop-color="#9abcba"/></linearGradient><linearGradient id="a" x1="-5624.24" x2="-5629.26" y1="-1069.3" y2="-1047.9" gradientTransform="matrix(.5 0 0 .5 2886 592)" gradientUnits="userSpaceOnUse"><stop offset="0" stop-color="#af978f"/><stop offset="1" stop-color="#5e4d47"/></linearGradient><linearGradient id="c" x1="-5614.3" x2="-5619.25" y1="-1015.53" y2="-993.97" gradientTransform="matrix(.5 0 0 .5 2886 592)" gradientUnits="userSpaceOnUse"><stop offset="0" stop-color="#af978f"/><stop offset="1" stop-color="#5e4c47"/></linearGradient><linearGradient xlink:href="#a" id="d" x1="-5625.17" x2="-5624.72" y1="-1091.49" y2="-1078.6"/><linearGradient xlink:href="#a" id="e" x1="94.93" x2="95.24" y1="72.81" y2="81.61"/><linearGradient xlink:href="#a" id="f" x1="72.72" x2="72.88" y1="37.29" y2="41.88"/><linearGradient xlink:href="#a" id="g" x1="61.61" x2="61.85" y1="86.18" y2="92.96"/><linearGradient xlink:href="#a" id="h" x1="78.79" x2="79" y1="98.43" y2="104.57"/><linearGradient xlink:href="#a" id="i" x1="90.06" x2="90.27" y1="91.69" y2="97.87"/><linearGradient xlink:href="#a" id="j" x1="87.46" x2="87.66" y1="53.2" y2="58.87"/><linearGradient xlink:href="#a" id="k" x1="58.08" x2="58.5" y1="63.77" y2="75.8"/><linearGradient xlink:href="#a" id="l" x1="62.21" x2="62.5" y1="77.3" y2="85.48"/><linearGradient xlink:href="#a" id="m" x1="59.6" x2="59.76" y1="49.56" y2="54.06"/><linearGradient xlink:href="#a" id="n" x1="66.15" x2="66.3" y1="70.55" y2="74.97"/><linearGradient xlink:href="#a" id="o" x1="65.18" x2="65.35" y1="96.41" y2="101.27"/><linearGradient xlink:href="#a" id="p" x1="92.44" x2="92.69" y1="59.51" y2="66.54"/><linearGradient xlink:href="#a" id="q" x1="95.74" x2="95.84" y1="54.03" y2="57.05"/><linearGradient xlink:href="#a" id="r" x1="87.67" x2="87.95" y1="42.9" y2="51.03"/><linearGradient xlink:href="#a" id="s" x1="92.36" x2="92.63" y1="82.42" y2="90.17"/><linearGradient xlink:href="#a" id="t" x1="63.12" x2="63.22" y1="44.06" y2="46.86"/><linearGradient xlink:href="#a" id="u" x1="93.22" x2="93.58" y1="68.58" y2="78.83"/><linearGradient xlink:href="#a" id="v" x1="56.6" x2="56.65" y1="57.88" y2="59.54"/></defs><path d="M80.89 6.64c7.62-1.24 14.79 2.06 21.45 5.27 5.91 2.84 10.57 4.92 11.18 12.32l-.24 83.8c-1.36 5.07-5.93 8.72-11.08 9.42-17.43 2.39-35.91 2.17-53.43 4.57-7.48.27-11.8-.68-18.61-3.43-5.7-2.3-13.19-5.13-14.82-11.68-.57-28.68-.57-57.63 0-86.31 2.21-6.57 6.44-8.66 12.96-9.54 17.15-2.29 35.35-2.09 52.59-4.41Z" style="fill:#020303"/><path d="M110.5 24c.89 18.66.56 37.33 0 56 .56 8.5.6 17.76 0 26.5-1.15 5.49-4.33 7.73-9.81 8.44-18.58 2.4-38.26 2.45-56.96 4.58-5.23-.29-17.02-4.63-21.4-7.6-2.92-1.98-3.71-3.65-4.33-6.92-.64-9.9-.56-20.21 0-30-.5-16.97-1.04-35.24 0-52.5.95-4.95 2.96-6.94 7.86-8.39l59.38-5.16c4.18-.01 17.81 5.66 21.42 8.13 2.82 1.92 3.28 3.81 3.83 6.92Z" style="fill:url(#b)"/><path d="M60.83 99.17c-12.28-14.03-13-38.89-2.04-54.12 7.69-10.69 20.65-14.36 31.45-5.53 15 12.27 16.22 38.82 6.85 54.82-8.45 14.43-24.68 18.06-36.25 4.83Z" style="fill:#0a0b0b"/><path d="M41 51.5c.83 9.2.47 18.89 0 28 .45 7.68.66 16.12 0 24-.3.74.43 1.37-1.76 1.03-1.28-.2-.52-.5-.74-1.03-.72-9.37-.48-19.22 0-28.5-.45-7.51-.75-15.8 0-23.5.88-2.23 1.62-2.23 2.5 0" style="fill:#020303"/><path d="M26.54 22.54c.63-.46 9.1 3.28 10.95 3.72 7.68 1.81 15.47.85 23.26.24 2.06-.16 8.34-1.41 9.74-.75 1.69.8.86 2.47-.75 2.74-4.44.74-10.37.73-14.99 1.01-10.07.6-17.79 1.07-27.1-3.9-1.17-.62-2.33-2.16-1.11-3.06" style="fill:#0a0b0b"/><path d="M23 31q.69 11.235 0 22.5c-1.2 1.92-1.83 1.19-2.5-.5-.6-6.92-.7-14.08 0-21 .58-1.1 1.32-1.96 2.5-1" style="fill:#e7fefc"/><path d="M95.91 23.11c2.35-.21 3.65 1.55 1.24 2.79-3.73.15-7.69.93-11.38 1.12-4.56.24-5.32-2.24-1.4-2.9 3.3-.55 8.02-.7 11.54-1.01" style="fill:#0a0b0b"/><path d="M23 58c.53 4.05.48 8.39 0 12.5-.23.7.27 1.63-1.69.94-.85-.3-.75-.97-.83-1.67-.16-1.42-.22-10.04.09-10.96s1.61-.98 2.43-.82Z" style="fill:#e6fdfb"/><path d="M38.5 103.5c-.27-.67-.46-.69-.53-1.69-.61-8.32 0-18.3.03-26.81.14-.44.31-.43.5 0z" style="fill:#acccca"/><path d="M41.5 79.5c-.14.44-.31.43-.5 0v-28c.13.33.45.44.53 1.2.82 7.76 0 18.67-.03 26.8" style="fill:#c6e4e2"/><path d="M41 103.5v-24h.5c-.02 7.13.54 15.33.03 22.31-.07 1-.26 1.03-.53 1.69" style="fill:#acccca"/><path d="M38.5 75H38c.03-6.84-.72-15.76-.03-22.3.08-.76.39-.87.53-1.2zM23 53.5V31c.47.38.59.55.53 1.2-.45 6.37.5 13.3 0 19.6-.08.96-.04.92-.53 1.7m-2.5-.5c-.26-.66-.45-.67-.53-1.69-.36-4.43-.48-13.8 0-18.11.09-.81.31-.78.53-1.2zM23 70.5V58c.7.14.49.71.52 1.23.17 2.75.21 6.85.01 9.58-.07 1.02-.34 1.11-.53 1.69" style="fill:#c6e4e2"/><path d="M81.74 63.56c.78 1.07 1.84 1.62 2.75 2.65 1.63 1.34 2.64 2.39.51 3.32-2.27.86-5.63.77-8.32.94-2.08.15-3.76-.29-6.17-1.04-2.03-.67-4.24-1.08-6.05-2.16-1.27-.83-3.49-2.76-5.41-3.98-2.38-1.52-.7-2.73 1.93-3.01 5.09-.15 1.35-4.45 9.12-4.35 3.71.06 9.47 1.41 11.66 4.08.85 1.09-.29 2.36-.05 3.45l.04.09Z" style="fill:url(#a)"/><path d="M69.18 92.78c.43-.92 1.34-1.57 1.27-2.43-.07-.4-.23-.78-.49-1.1-2.14-2.15-.48-3.53 1.7-4.43 3.59-1.59 16.62-2.47 15.19 4.09-.2 1.88-.5 3.67-2.42 4.72-2.64 1.93-15.71 4.54-15.3-.71l.06-.14Z" style="fill:url(#c)"/><path d="M66.62 53.13c-.77-.54-1.27-1.43-1.63-2.25-.36-.87-.77-1.75-.26-2.56 3.22-3.79 12.37-3.93 16.35-1.42 2.45 1.49 1.83 7.84-1.28 8.16-2.56.21-5.24-1.12-7.91-1.23-2.13-.25-3.77.16-5.16-.65l-.1-.06Z" style="fill:url(#d)"/><path d="M83.85 76.86c-1.58 1.78-8.73 3.61-11.13 3.66-1.43.03-5.51-.57-5.75-2.28-.52-3.71 7.98-5.6 10.78-5.74 2.5-.13 9.29.76 6.1 4.36" style="fill:#7e6a64"/><path d="M97.09 81.46c-1.55-.52-4-1.27-5.53-2.28-3.82-2.5-.53-6.11 5.05-6.42 3.5-.19 4.1 1.85 3.19 5.1-.37 1.46-.73 4-2.56 3.64l-.14-.03Z" style="fill:url(#e)"/><path d="M80.04 37.79c.08.43-.51.93-.9 1.23-3.25 2.5-8.09 3.06-12.35 3.03-.42-.02-1.05-.03-1.23-.35-.09-.35.4-.7.71-.94 3.33-2.37 8.02-3.89 12.24-3.59.51.04 1.3.13 1.49.52l.03.09Z" style="fill:url(#f)"/><path d="M61.93 92.75c-2.33.86-3.2-.69-4.11-2.56-.43-.9-1.75-3.09-1.14-3.69.17-.15.49-.19.92-.16 2.03.17 4.66.71 6.56 1.18 1.57.25 3.47 1.35 2.32 2.84-1.04 1.21-2.98 1.79-4.38 2.33l-.18.06Z" style="fill:url(#g)"/><path d="M82.86 103.58c-3.34 1.25-8.49 1.71-11.52-.42-1.77-2.53 2.89-4.17 4.92-4.5 3.77-.94 17.02 1.47 6.8 4.85z" style="fill:url(#h)"/><path d="M95.5 91.5c-.78 3.27-2.59 2.82-4.68 4.07-1.18.7-2 2.64-3.45 2.36-.19-.04-2.29-.84-2.37-.94-.68-.85.37-.9.63-1.13.73-.62 1.72-1.02 2.38-1.74.44-.47.84-1.88 1.08-2.03.66-.39 5.09-.05 6.4-.59Z" style="fill:url(#i)"/><path d="M92.57 53.1c.25.59-.9 1.41-1.31 1.94-1.36 1.5-2.72 1.12-4.44 2.23-.98.54-1.72 1.78-2.47 1.7-.75-.14-1.37-.81-1.75-1.43-.47-.81.24-1.36.75-2.02.7-.75 1.22-1.61 2.07-2.05 1.12-.34 5.13-.39 7.07-.43l.08.05Z" style="fill:url(#j)"/><path d="M62.54 71.4c-.66 1.1-2.51 1.28-3.23 1.89-.51.43-.6 1.01-1.08 1.51-.36.41-1.09.82-1.96.98-3.2.82-2.3-2.56-2.43-4.52.18-1.92-.52-6.65.65-7.36 2.72-.31 9.92 4.14 8.14 7.37l-.09.14Z" style="fill:url(#k)"/><path d="M69.36 82.75c-.08.42-.66.82-1.03 1.19-.69.6-1.31 1.3-2.23 1.4-2.17.34-13.75-3.86-10.03-7.14 1.67-1.15 4.15-.7 6.27-.73.41 0 .86.02 1.21.21.85.5.79 1.75 1.33 2.5.78 1.2 2.6 1.97 3.98 2.27.25.07.42.13.48.24l.02.07Z" style="fill:url(#l)"/><path d="M57.46 52.95c.48-1.56 1.02-4.16 3.31-3.19 1.03.41 1.46 1.21 1.19 2.14-.3 1.02-1.31 1.84-2.36 1.99-.83.09-2.58.72-2.19-.78l.05-.17Z" style="fill:url(#m)"/><path d="M63 75c.29-.91 1.41-.99 1.95-1.8 1.44-2.15.34-3.95 4.54-1.45-2.3 1.11-3.79 3.76-6.49 3.25" style="fill:url(#n)"/><path d="M67 101c-1.75-.76-3.95-2.56-4.5-4.5 2.28-.09 5.22 1.59 5.5 4-.1.62-.46.91-1 .5" style="fill:url(#o)"/><path d="M99.96 65.46c-2.08.52-4.3 1.04-6.46 1.04s-6.79-.62-8-2.5c-1.36-2.11 1.07-3.42 3-4 1.65-.5 10.23-1 10.93.07.25.95-.04 1.97.07 2.93.07.6.88 1.56.46 2.46" style="fill:url(#p)"/><path d="M97.54 54.06c.29.41.38 1.3.49 1.87.03.42.17.77-.1 1.01-.27.15-1.27-.07-2.36-.16-1.07-.14-2.02-.13-2.03-.41.14-.6.93-1.04 1.46-1.42.65-.38 1.89-1.13 2.46-.95l.07.06Z" style="fill:url(#q)"/><path d="M94.96 49.32c-1.3.61-3.12.56-4.49 1.04-1.28.39-2.7.79-4.16.68-.66-.03-1.64.05-1.66-.82.1-1.07.32-2.59-.42-3.41-.38-.47-1.03-.92-1.84-1.54-.53-.49-1.71-1.05-1.85-1.67.04-.14.26-.22.6-.28 3.22-.5 6.62-.46 9.65.76 1.84.73 2.94 2.66 3.96 4.28.23.38.35.69.25.89l-.05.08Z" style="fill:url(#r)"/><path d="M98.96 83.16c.38.52.19 1.46 0 2.15-.33 1.37-.87 2.64-1.82 3.36-.99.83-2.35 1.2-3.62 1.4-1.23.08-2.88.37-3.94-.31-.72-.5-.31-2.01-.91-3.23-.5-1.25-1.85-1.94-2.78-2.77-.97-1 .86-1.09 1.53-1.14 2.85-.28 5.53.28 8.27.6 1.3.04 2.71-.63 3.18-.14l.07.08Z" style="fill:url(#s)"/><path d="M61.43 46.53c.18-.98 1.14-2.71 2.48-2.47 1.03.2 1.49.76.27 1.26-.61.13-2.42 2.31-2.76 1.34v-.13Z" style="fill:url(#t)"/><path d="M100.61 68.83c1.01 1.2-.76 2.23-1.93 2.12-5.77.25-10.41 1.34-11.56 7.21-.39.79-.95 1.24-1.18.66-.12-.74.21-1.34.34-2.18.38-1.46-.43-2.97-.14-4.4.46-1.23 2.48-2.77 4.02-3.24 1.64-.45 4.07-.16 5.99-.29 1.41.06 3.11-.78 4.35.03l.1.09Z" style="fill:url(#u)"/><path d="M58 58c.37.3-2.1 1.92-2.5 1.49-1.13-1.2 1.17-1.97 2.5-1.49" style="fill:url(#v)"/></svg>