<svg xmlns="http://www.w3.org/2000/svg" data-name="fill_pizza" viewBox="0 0 128 128"><path d="M64.53 2.46c2.83.15 6.15.22 9.45.51 12 1.03 23.58 3.81 34.69 8.46 2.87 1.2 5.75 2.44 8.45 3.96 4.44 2.48 7.4 6.23 8.34 11.31.95 5.15-.86 9.32-5.02 12.46-2.3 1.74-4.94 2.63-7.8 2.85-.44.03-.65.24-.84.6-3.83 7.2-7.67 14.4-11.51 21.6-4.24 7.95-8.49 15.9-12.72 23.85-.61 1.14-1.15 2.32-1.76 3.46-1.31 2.44-2.66 4.87-3.98 7.31-1.54 2.85-3.05 5.71-4.58 8.56-2.66 4.99-5.31 9.98-7.99 14.96-1.12 2.09-2.91 3.21-5.27 3.2-2.36 0-4.14-1.13-5.26-3.21-2.35-4.37-4.67-8.74-7.01-13.12-6.34-11.87-12.67-23.75-19-35.62-5.5-10.31-11.01-20.62-16.49-30.93-.25-.48-.55-.62-1.07-.66-5.91-.51-10.96-4.35-12.4-9.52-1.07-3.82-.31-7.39 1.63-10.76 1.79-3.11 4.39-5.37 7.58-6.96 7.16-3.57 14.62-6.36 22.35-8.39 4.05-1.06 8.14-1.9 12.28-2.51 3.68-.54 7.37-.95 11.09-1.12 2.12-.09 4.23-.17 6.83-.27Zm-18.5 87.69c.07.14.14.29.22.43 5.23 9.8 10.45 19.59 15.68 29.39.07.14.16.26.22.4.36.79.98 1.23 1.84 1.24.88 0 1.47-.47 1.89-1.26 1.56-2.97 3.15-5.92 4.73-8.88.57-1.06 1.13-2.12 1.7-3.19-6.25-3.3-7.8-10.65-5.06-15.82 1.36-2.57 3.38-4.45 6.09-5.51 3.41-1.33 6.76-1.06 10.02.64 8.16-15.29 16.3-30.54 24.45-45.83-1.92-.37-3.64-1.05-5.3-1.89-.67-.34-1.35-.64-2.03-.95-5.76-2.62-11.74-4.56-17.92-5.9-.66-.14-1.32-.26-1.97-.38-1.17 6.17-6.31 9.78-11.41 9.8-2.69 0-5.12-.76-7.24-2.39-2.84-2.19-4.34-5.13-4.62-8.81-2.95.37-5.85.73-8.8 1.1.16 2.29-.47 4.24-1.98 5.86-1.52 1.64-3.46 2.35-5.53 2.39-.09.98-.09 1.93-.29 2.83-.83 3.81-4.71 6.33-8.51 5.59-2.52-.49-4.33-1.9-5.46-4.19-.73-1.48-1.44-2.96-2.13-4.4-1.47.49-2.89.96-4.36 1.45 5.27 9.87 10.55 19.77 15.85 29.7 3.55-4.72 9.17-5.87 13.72-4.14 4.26 1.62 7.99 5.95 7.47 11.64-.61 6.7-4.71 10.18-11.26 11.09Zm-2.77-60.64c.13-.05.19-.09.26-.1 2.76-.49 5.51-1.09 8.29-1.44 3.19-.4 6.41-.69 9.63-.8 5.91-.21 11.8.21 17.64 1.19 3.86.65 7.67 1.52 11.42 2.64 5.1 1.52 9.99 3.55 14.79 5.83 3.82 1.81 7.74 1.93 11.57-.04 4.18-2.16 5.88-6.34 4.42-10.74-1.03-3.11-3.01-5.54-5.86-7.09-2.67-1.45-5.45-2.72-8.26-3.89-9.4-3.93-19.17-6.49-29.29-7.72-3.59-.44-7.2-.71-10.81-.81-6.33-.19-12.63.14-18.88 1.08-3.69.56-7.37 1.28-11.01 2.13-8.27 1.95-16.2 4.89-23.78 8.74-2.41 1.22-4.33 3.03-5.66 5.4-1.25 2.22-1.84 4.59-1.24 7.13.69 2.95 2.63 4.89 5.31 6.09 3.75 1.67 7.49 1.38 11.16-.33 1.15-.54 2.3-1.09 3.46-1.65.35.71.67 1.37.99 2.03.97 2.01 1.93 4.02 2.91 6.02.99 2.03 3.42 2.67 5.24 1.4 1.39-.98 1.86-2.86 1.08-4.48-1.21-2.52-2.43-5.02-3.67-7.58 1.14-.38 2.26-.76 3.4-1.14.53 1.08 1.02 2.13 1.53 3.16.93 1.89 2.96 2.64 4.77 1.76 1.78-.87 2.45-2.97 1.55-4.84-.3-.63-.61-1.25-.93-1.92Zm2.44 56.57c.32 0 .65.03.97 0 4.31-.52 7.4-4.72 6.66-9.02-.58-3.41-3.42-6.05-6.89-6.43-3.32-.36-6.61 1.58-7.92 4.71-.09.22-.08.58.03.79 1.47 2.8 2.96 5.59 4.45 8.39.85 1.6.86 1.61 2.7 1.57Zm35.8 4.99c-2.66-1.35-5.28-1.44-7.79.09-2.88 1.75-4.17 4.4-3.74 7.75.34 2.66 1.82 4.59 4.21 5.89 2.45-4.58 4.86-9.11 7.33-13.73Zm-4.81-59.15c-2.03-.2-3.97-.47-5.93-.58-2.84-.16-5.69-.23-8.54-.27-1.27-.02-1.03-.08-.84 1.03 1 5.74 7.75 8.35 12.37 4.79 1.6-1.23 2.58-2.87 2.93-4.98Z" style="fill:#4a3726;stroke-width:0"/><path d="M46.03 90.15c6.55-.91 10.65-4.39 11.26-11.09.52-5.69-3.21-10.02-7.47-11.64-4.56-1.73-10.17-.58-13.72 4.14-5.3-9.93-10.58-19.84-15.85-29.7 1.46-.49 2.89-.96 4.36-1.45.69 1.43 1.4 2.92 2.13 4.4 1.13 2.29 2.95 3.7 5.46 4.19 3.8.74 7.69-1.78 8.51-5.59.2-.9.19-1.85.29-2.83 2.07-.03 4.01-.75 5.53-2.39 1.51-1.62 2.13-3.57 1.98-5.86 2.95-.37 5.85-.73 8.8-1.1.28 3.68 1.78 6.62 4.62 8.81 2.12 1.63 4.55 2.4 7.24 2.39 5.1-.01 10.24-3.63 11.41-9.8.66.13 1.32.24 1.97.38 6.18 1.34 12.16 3.28 17.92 5.9.68.31 1.37.61 2.03.95 1.66.85 3.37 1.53 5.3 1.89-8.16 15.29-16.3 30.55-24.45 45.83-3.26-1.7-6.61-1.97-10.02-.64-2.71 1.06-4.72 2.93-6.09 5.51-2.74 5.17-1.18 12.52 5.06 15.82-.57 1.06-1.13 2.12-1.7 3.19-1.58 2.96-3.17 5.92-4.73 8.88-.41.78-1 1.26-1.89 1.26-.86 0-1.48-.45-1.84-1.24-.06-.14-.15-.27-.22-.4-5.23-9.8-10.45-19.59-15.68-29.39-.08-.15-.15-.3-.22-.43Zm47.56-29.47c-.02-6.45-5.29-11.7-11.74-11.7-6.43 0-11.67 5.3-11.65 11.78.01 6.42 5.28 11.63 11.74 11.62 6.44-.02 11.68-5.27 11.66-11.7ZM68.96 80.8c1.67.05 3.07-1.3 3.1-2.99.03-1.64-1.31-3.05-2.96-3.1-1.66-.05-3.07 1.29-3.14 2.98-.06 1.64 1.3 3.06 2.99 3.11ZM54.62 96.49c-.06 1.62 1.28 3.02 2.96 3.1 1.61.08 3.06-1.28 3.13-2.93.08-1.67-1.3-3.13-2.99-3.18-1.65-.05-3.04 1.3-3.1 3.01m43.83-51.24c.01-1.73-1.29-3.07-2.99-3.1-1.67-.02-3.06 1.32-3.07 2.97 0 1.74 1.32 3.12 3.02 3.13 1.65.02 3.03-1.35 3.04-3m-46.54 8.78a3.07 3.07 0 0 0-3.03-3.08c-1.66-.03-3.04 1.35-3.04 3.06 0 1.66 1.33 3.03 2.99 3.06s3.07-1.36 3.08-3.03Zm-18.75-1.09c-1.72.02-3.03 1.35-3.01 3.07a3.02 3.02 0 0 0 3.07 3.01c1.67-.02 3.02-1.42 3-3.1-.02-1.65-1.4-2.99-3.07-2.97Z" style="fill:#e5dd75;stroke-width:0"/><path d="M43.26 29.51c.33.67.63 1.3.93 1.92.91 1.87.23 3.97-1.55 4.84-1.8.88-3.84.13-4.77-1.76-.51-1.04-1.01-2.08-1.53-3.16-1.14.38-2.26.76-3.4 1.14 1.24 2.56 2.46 5.07 3.67 7.58.78 1.61.31 3.5-1.08 4.48-1.81 1.28-4.25.63-5.24-1.4-.98-2.01-1.94-4.02-2.91-6.02-.32-.66-.64-1.31-.99-2.03-1.17.56-2.31 1.11-3.46 1.65-3.67 1.71-7.41 2-11.16.33-2.68-1.19-4.62-3.14-5.31-6.09-.59-2.53-.01-4.9 1.24-7.13 1.34-2.37 3.25-4.17 5.66-5.4 7.58-3.85 15.51-6.79 23.78-8.74 3.64-.86 7.32-1.57 11.01-2.13 6.25-.94 12.56-1.27 18.88-1.08 3.62.11 7.22.38 10.81.81 10.12 1.23 19.89 3.79 29.29 7.72 2.81 1.17 5.59 2.44 8.26 3.89 2.85 1.55 4.83 3.98 5.86 7.09 1.46 4.41-.24 8.58-4.42 10.74-3.82 1.97-7.75 1.85-11.57.04-4.8-2.28-9.69-4.31-14.79-5.83a95 95 0 0 0-11.42-2.64c-5.84-.98-11.72-1.4-17.64-1.19-3.22.11-6.43.41-9.63.8-2.78.34-5.53.95-8.29 1.44-.06.01-.12.05-.26.1Zm35.81-19.18c-1.17.1-2.01.34-2.79.95-.67.52-1.16 1.17-1.2 2.05-.07 1.52 1.17 2.72 2.79 2.86 2.24.19 4.48.39 6.71.71 4.31.63 8.46 1.87 12.45 3.61 1.5.65 2.94 1.42 4.41 2.15 1.55.77 3.38.26 4.17-1.18.76-1.39.21-3-1.4-3.85-1.66-.87-3.33-1.71-5.04-2.47a54.4 54.4 0 0 0-12.91-3.87c-2.38-.41-4.79-.64-7.19-.96m34.75 13.71c0-1.68-1.35-3.04-3.01-3.02a3.01 3.01 0 0 0-2.98 3c0 1.68 1.33 3.02 3.01 3.02 1.65 0 2.98-1.34 2.98-3" style="fill:#a5805b;stroke-width:0"/><path d="M45.7 86.08c-1.83.04-1.85.03-2.7-1.57-1.49-2.79-2.98-5.58-4.45-8.39-.11-.22-.13-.57-.03-.79 1.31-3.13 4.6-5.07 7.92-4.71 3.47.38 6.31 3.02 6.89 6.43.74 4.31-2.35 8.5-6.66 9.02-.32.04-.65 0-.97 0Zm35.8 4.99-7.33 13.73c-2.38-1.3-3.87-3.23-4.21-5.89-.42-3.35.86-6 3.74-7.75 2.51-1.52 5.13-1.44 7.79-.09Zm-4.81-59.15c-.36 2.11-1.33 3.75-2.93 4.98-4.62 3.56-11.37.95-12.37-4.79-.19-1.11-.44-1.05.84-1.03 2.85.04 5.7.11 8.54.27 1.95.11 3.9.37 5.93.58Z" style="fill:#ab5555;stroke-width:0"/><path d="M93.59 60.68c.02 6.43-5.22 11.68-11.66 11.7-6.46.02-11.73-5.2-11.74-11.62-.01-6.48 5.23-11.77 11.65-11.78 6.45 0 11.73 5.24 11.74 11.7Zm-3.95.03c0-4.32-3.46-7.8-7.74-7.79-4.31 0-7.75 3.46-7.76 7.78 0 4.32 3.46 7.76 7.82 7.76 4.22 0 7.68-3.5 7.68-7.74ZM68.96 80.8c-1.69-.05-3.06-1.46-2.99-3.11.06-1.69 1.48-3.03 3.14-2.98 1.65.05 2.99 1.45 2.96 3.1-.03 1.69-1.43 3.04-3.1 2.99ZM54.62 96.49c.06-1.72 1.45-3.06 3.1-3.01 1.69.05 3.07 1.51 2.99 3.18-.08 1.65-1.53 3.01-3.13 2.93-1.68-.08-3.02-1.48-2.96-3.1m43.83-51.24c-.01 1.65-1.39 3.02-3.04 3-1.7-.02-3.03-1.39-3.02-3.13 0-1.64 1.4-2.99 3.07-2.97 1.7.02 3 1.37 2.99 3.1m-46.54 8.78c-.01 1.67-1.42 3.06-3.08 3.03s-3-1.39-2.99-3.06c0-1.7 1.38-3.08 3.04-3.06a3.07 3.07 0 0 1 3.03 3.08Zm-18.75-1.09c1.67-.01 3.04 1.32 3.07 2.97.02 1.68-1.33 3.09-3 3.1-1.7.02-3.06-1.31-3.07-3.01-.02-1.72 1.29-3.05 3.01-3.07Zm45.91-42.61c2.4.31 4.81.55 7.19.96 4.45.77 8.77 2.04 12.91 3.87 1.71.76 3.39 1.6 5.04 2.47 1.62.85 2.16 2.46 1.4 3.85-.79 1.44-2.63 1.95-4.17 1.18-1.46-.73-2.91-1.49-4.41-2.15-3.99-1.74-8.14-2.98-12.45-3.61-2.22-.32-4.47-.52-6.71-.71-1.62-.14-2.87-1.34-2.79-2.86.04-.88.53-1.53 1.2-2.05.78-.6 1.62-.85 2.79-.95m34.75 13.71c0 1.65-1.33 2.99-2.98 3a2.99 2.99 0 0 1-3.01-3.02c0-1.66 1.33-2.99 2.98-3 1.66-.02 3.01 1.34 3.01 3.02" style="fill:#4a3726;stroke-width:0"/><path d="M89.64 60.71c0 4.25-3.46 7.74-7.68 7.74-4.36 0-7.82-3.44-7.82-7.76s3.45-7.77 7.76-7.78c4.28 0 7.73 3.47 7.74 7.79Z" style="fill:#ab5555;stroke-width:0"/></svg>