<svg xmlns="http://www.w3.org/2000/svg" viewBox="0 0 128 128"><path d="M13.55 93.96c-5.33-.62-7.39-2.44-7.93-7.78-.35-3.5-1.85-6.48-3.34-9.48-1.6-3.23-1.71-6.23.02-9.39.86-1.56 1.49-3.24 2.42-5.3-4.55-6.19-4.56-12.77.37-19.06-1.51-4.83-1.13-8.86 3.69-11.23 2.23-5.43 4.88-7.1 10.52-5.58 4.76 1.29 9.07.82 13.69-.63 10.56-3.31 6.7-3.29 17.99-.32 4.32 1.14 8.4 1.58 12.56-.31 6.4-2.91 12.86-2.88 19.36-.36 3.19 1.24 6.21 1.31 9.45-.22 3.16-1.49 6.05-.37 8.34 2.22.55.62 1.12 1.23 1.62 1.78 8.68-1.79 12.59.94 13.37 9.32 2.73 1.13 6.11 1.12 7.99 4.06 1.9 2.97 1.4 5.91-.11 9.03.83 2.28 1.6 4.69 2.58 7.01 1.19 2.8 1.04 5.46-.26 8.16-1.01 2.11-1.89 4.28-2.81 6.39.89 2.4 1.67 4.72 2.61 6.97 1 2.41.97 4.72-.06 7.1-1.08 2.5-2.14 5.01-3.11 7.55-.95 2.48-2.75 4-5.21 4.75-5.03 1.53-10.05 3.12-15.14 4.42-1.76.45-3.75.35-5.57.08-3.71-.57-7.41-1.31-11.06-2.2-2.2-.54-4.21-.44-6.34.25-3.84 1.24-7.71 2.43-11.62 3.42-1.59.4-3.36.51-4.97.27-3.71-.55-7.41-1.26-11.04-2.19-2.66-.68-5.15-.62-7.7.31-1.67.61-3.45.92-5.12 1.54-3.73 1.38-7.02.9-9.1-1.43-2.78-1.04-4.75-1.78-6.71-2.51l.27-.6c-4.77.54-8.23-1-9.65-6.04" style="fill:#4a3726;stroke-width:0"/><path d="M17.09 33.33c3.04.5 6.09.99 9.69 1.58 3.67-1.12 7.9-2.34 12.08-3.72 1.94-.64 3.74-.8 5.75-.22 4.23 1.21 8.53 2.19 12.95 3.3 3.43-1.03 7.1-1.88 10.57-3.25 3.35-1.33 6.56-1.23 9.89-.28 2.16.62 4.36 1.11 6.5 1.81 2.61.86 5.1 1.03 7.58-.4.8-.46 1.72-.7 2.78-1.11 1.67 1.9 3.33 3.79 4.87 5.55 2.9.56 5.28-3 8.25-.21-1.36.46-2.72.93-4.09 1.37-2.23.71-4.49 1.33-6.69 2.12-2.79 1-5.46 1.4-8.44.4-4.08-1.37-8.31-2.28-12.75-3.46-4.85 1.48-9.94 3.1-15.08 4.55-1.09.31-2.41.23-3.53-.04-4.18-1.03-8.32-2.27-12.5-3.32-3.76-.95-5.46.6-5.08 5.13.91.44 2.04 1.21 3.3 1.58 4.85 1.45 9.72 2.84 14.62 4.09 1.19.3 2.62.19 3.81-.15 4.86-1.41 9.68-2.98 14.52-4.49 4.87 1.32 9.74 2.71 14.65 3.92 1.2.3 2.61.28 3.79-.06 4.77-1.38 9.49-2.95 14.45-4.52 2.68.72 5.55 1.49 8.63 2.32-.64 1.82-1.19 3.38-1.81 5.12 1.31 3.49 2.66 7.07 4.01 10.67-1.22 2.69-2.34 5.37-3.64 7.97-.77 1.54-.99 2.96-.25 4.57.66 1.45 1.11 2.99 1.76 4.45 1.12 2.51 1.51 4.95.17 7.55-.86 1.66-1.46 3.45-2.29 5.45-5.09 1.47-10.23 3.33-15.54 4.31-2.61.49-5.53-.63-8.3-1.05-.92-.14-1.88-.24-2.74-.58-4.95-1.98-9.7-.91-14.46.76-2.56.9-5.15 1.76-7.79 2.4-1.32.32-2.81.34-4.16.1-4.06-.72-8.1-1.52-12.1-2.51-2.8-.69-5.34.02-7.94.79-2.31.69-4.62 1.35-7.35 2.15.23-.94.23-1.51.49-1.92 1.82-2.86.83-5.51-.39-8.25-1.14-2.56-2.05-5.22-3-7.66 1.38-3.47 2.59-6.73 3.98-9.9.66-1.52.59-2.83-.03-4.32-1.37-3.28-2.61-6.62-3.83-9.77 1.13-4.73 4.05-8.66 4.47-13.06-1.79-3.51-4.96-2.93-7.62-3.45-2.11-.41-4.29-.41-6.42-.73-.78-.12-1.72-.43-2.21-.99-1.29-1.43-2.37-3.05-3.53-4.59l-.02.02Z" style="fill:#a5805b;stroke-width:0"/><path d="M28.29 94.15c-.43-.46-.87-.92-1.49-1.58h-6c-.44-1.95-.84-3.74-1.32-5.91-2.04-.13-4.21-.28-6.19-.41-.28-.39-.5-.54-.49-.68.32-4.07-1.67-7.38-3.49-10.75-1.01-1.89-.97-3.75.01-5.64 1.12-2.17 2.17-4.36 3.28-6.59-1.13-2.69-2.36-5.32-3.33-8.03-.37-1.03-.43-2.33-.16-3.39.38-1.52 1.11-2.98 1.84-4.39 1.14-2.18 2.35-4.29.95-6.91.22-.11.45-.23.67-.34 1.81 2.24 3.63 4.48 4.81 5.95l10.51 1.1c-.3 1.27-.3 2.56-.88 3.48-2.56 4.03-2.26 7.87.06 11.89 1.06 1.84 1.59 3.98 2.42 6.13-1.18 3.01-2.22 6.23-3.68 9.24-1.13 2.31-.79 4.31.13 6.46 1.04 2.41 2.1 4.8 2.99 7.27.33.91.17 1.99.24 2.99-.29.05-.59.09-.88.14Z" style="fill:#7b5b3b;stroke-width:0"/></svg>