<svg xmlns="http://www.w3.org/2000/svg" data-name="fill_cattree" viewBox="0 0 128 128"><path d="M53.74 105.51V66.57c-3.61 0-7.16.02-10.71 0-5.15-.04-8.02-2.93-8.02-8.11q-.015-24.06 0-48.12c0-5.32 2.88-8.14 8.27-8.15 13.82-.01 27.63-.01 41.45 0 5.39 0 8.27 2.83 8.28 8.14q.015 24.06 0 48.12c0 5.19-2.87 8.08-8.02 8.12-3.47.03-6.93 0-10.59 0v38.94c3.28 0 6.62-.02 9.97 0 5.87.04 8.39 2.86 8.7 8.73.49 9.15-2.59 11.81-11.38 11.57-12.75-.34-25.51-.08-38.26-.09-5.6 0-8.16-2.79-8.48-8.29-.65-11.1 3.96-12.4 11.88-11.95 2.2.13 4.41.02 6.91.02Z" style="fill:#4a3726;stroke-width:0"/><path d="M85.28 58.92h-42.6V9.93h42.6z" style="fill:#a5805b;stroke-width:0"/><path d="M61.37 66.71h5.31v38.44h-5.31zm23.93 46.53v4.79H42.7c-.07-1.53-.13-3.01-.21-4.79z" style="fill:#7b5b3b;stroke-width:0"/><path d="M50.05 13.5c2.38 2.56 4.24 4.56 6.16 6.62 4.91-2.23 9.8-2.24 15.32-.24 1.56-1.95 3.23-4.05 4.9-6.14.24.16.48.31.72.47v9.69c5.3 6.96 6.46 14.07 2.04 21.52-4.06 6.84-10.41 9.15-18.03 8.35-6.69-.7-12.65-6.34-14.5-13.26-1.13-4.23-.8-8.38 1.39-12.03 1.75-2.93 2.19-5.85 2.02-9.07-.09-1.7-.02-3.4-.02-5.89Z" style="fill:#4a3726;stroke-width:0"/></svg>