<svg xmlns="http://www.w3.org/2000/svg" data-name="fill_poplar" viewBox="0 0 128 128"><path d="M49.88 97.93c-7.63-5.64-10.94-13.92-11.59-23.14-1.27-18.03.39-35.77 7.43-52.65 2.93-7.02 6.99-13.37 12.89-18.35 3.85-3.25 7.01-3.26 10.82.08 7.96 6.98 12.61 16.02 15.61 25.97 4.65 15.42 6.12 31.2 4.28 47.19-1.09 9.5-5.17 17.5-13.99 22.65 2.48 2.58 2.95 5.58 2.81 8.82-.13 3.05.04 6.12-.04 9.18-.13 5-3.99 8.82-8.99 8.91-3.51.06-7.02.09-10.53 0-4.47-.12-8.51-3.69-8.65-8.07-.22-6.72-.06-13.46-.06-20.57Z" style="fill:#4a3726;stroke-width:0"/><path d="M63.91 8.33C81.65 23.26 83.99 53.09 82.7 74.62c-.36 6.18-2.28 12.21-7.36 16.56-7.81 6.68-24.19 5.51-28.14-8.37-5.58-21.76-1.51-59.24 16.71-74.47Z" style="fill:#589058;stroke-width:0"/><path d="M71.09 104.76c0 4.48.02 8.34 0 12.19-.01 1.71-.85 2.7-2.63 2.71h-8.89c-2.07 0-2.96-1.34-3-3.1-.11-4.76-.09-9.52 0-14.28.01-.82.57-1.63.97-2.7 5.22.28 8.9 3.72 13.57 5.18Z" style="fill:#7b5b3b;stroke-width:0"/></svg>