<svg xmlns="http://www.w3.org/2000/svg" data-name="fill_foragemix" viewBox="0 0 128 128"><defs><linearGradient id="a" x1="2112.02" x2="2082.47" y1="-100.17" y2="-40.04" gradientTransform="matrix(.5 0 0 .5 -962 74)" gradientUnits="userSpaceOnUse"><stop offset="0" stop-color="#698d5b"/><stop offset="1" stop-color="#487b37"/></linearGradient><linearGradient id="b" x1="2077.33" x2="2121.55" y1="-3.23" y2="64.63" gradientTransform="matrix(.5 0 0 .5 -962 74)" gradientUnits="userSpaceOnUse"><stop offset="0" stop-color="#dec47c"/><stop offset="1" stop-color="#faeab9"/></linearGradient><linearGradient id="c" x1="1979.72" x2="1999.41" y1="-82.43" y2="-35.39" gradientTransform="matrix(.5 0 0 .5 -962 74)" gradientUnits="userSpaceOnUse"><stop offset="0" stop-color="#faeab9"/><stop offset="1" stop-color="#dfc680"/></linearGradient></defs><path d="M101.1 35.4c.1.17 1.01.43 1.41.82 3.5 3.43 6.83 6.37 8.25 11.28 2.87 9.87-3.27 16.16-5.13 24.88-1.14 5.33-.83 11.11-2.65 16.33l9.92 10.14c1.44 2.67-4.19 7.7-6.15 7.7-1.82 0-4.49-2.99-5.77-4.29-.95-.97-1.13-2.47-2.73-2.27-.23.03-1.59 3.13-2.5 4.01-1.11 1.06-2.98 1.56-4.01 2.49-1.21 1.09-2.1 3.16-3.76 4.24-4.2 2.73-11.29.38-16.25.75-2.68.2-5.22 1.41-7.95.99-3.03-.47-6.05-3.76-8.66-4.84-7.59-3.17-17.8 8.05-24.62-.88-2.09-2.73-1.74-5.54-3.07-7.93-.83-1.51-2.45-2-3.43-3.07-.67-.72-1.46-2.69-2-3-1.39-.81-5.64.22-6.74-2.25-2.21-4.93 5.56-6.66 5.77-8.75.17-1.71-3.31-6.21-3.8-8.72-1.58-8.1 4.2-8.63 6.52-14.53 1.5-3.82 1.23-8.4 2.73-12.3.09-2.81-6.6-8.21-6.23-11.26.26-2.12 4.99-5.64 6.96-5.44 3.21.33 5.66 7.73 7.32 7.31 3.29-.83 4.13-7.61 6.21-10.31 8.11-10.51 20.72-12.05 33.01-10.98 5.13.45 8.28 3.33 12.08 6.42 2.14-.59 8.91-3.79 10.69-2.69.76.47 3.42 8.37 3.74 9.76s.68 6.13.85 6.41Z" style="fill:#0b0d0c"/><path d="M82.45 23.95c-.11.18-2.91 1.6-3.61 2.14-7.71 5.89-10.68 12.86-9.85 22.69.13 1.56 1.31 7.85 2.83 8.14 1.33.25 5.89-3.04 7.61-1.83 1.12.79 1.41 6.79 3.33 6.95 1.08.09 5.04-2.11 6.21-2.82 7.35-4.44 12.24-10.8 12.54-19.71.73-.75 4.21 3.76 4.71 4.54 6.87 10.89-.89 17.01-2.98 26.94-.89 4.24-.55 10.48-1.83 14.17-.13.39-.34.6-.65.84-4.01-3.1-8.27-10.47-13.5-10.99-4.36-.44-10.11-.87-14.48-1.02-1.78-.06-4.7-.21-6.32.24-2.42.68-2.87 8.37-.72 9.8 2.38 1.58 12.5 1.16 16.01 1.49 4.92.45 3.78 1.4 6.5 4 1.34 1.28 8.23 6.8 8.16 8.15s-2.07 4-3.16 4.85c-1.15.9-2.82 1.22-3.77 2.23-2.01 2.17-1.48 4.18-5.77 4.72-3.57.45-8.81-.82-12.98-.48-2.04.17-3.96 1.18-5.92 1-4.22-.39-7.65-5.88-12.58-6-6.07-.15-15.96 8.3-20.33-.13-1.05-2.02-.79-4.52-1.97-6.53S26 94.64 25.5 92.51c7.49.49 13.62-5.22 14.77-12.48.82-5.18.45-12.51-6.41-8.01-.34.22-.42.74-.75.97-3.21 2.23-6.16 4.79-9.37 7.01-.66-.05-4.05-7.59-4.13-8.86-.27-4.18 5.74-8.34 7.13-12.62.99-3.03.85-6.86 1.76-10l8.52 11.72c3 2.46 9.94-2.21 8.88-5.87l-9.87-15.06c4.49-2.21 4.21-6.96 6.55-10.47 2.14-3.2 10.67-9.1 14.39-10.11 4.75-1.29 16.82-1.34 21.18.86 1.07.54 5.08 3.12 4.29 4.36Z" style="fill:#886943"/><path d="M93.68 51.68c-2.76 3.12-5.88 6.08-10.17 6.81-.43-1.44-2.08-6.61-3.36-6.92-1.16-.29-7.24 2.47-7.65 1.94-.74-5.64-1.59-10.31.4-15.85 2.32-6.45 8.86-10.97 14.92-13.58 1.66-.72 6.47-3.03 7.59-1.22 1.82 2.94 3.76 12.92 3.61 16.43-.23 5.54-1.87 8.49-5.34 12.41Z" style="fill:url(#a)"/><path d="M102.67 92.33c2.55 2.51 5.42 4.77 7.8 7.48.13.6-3.05 4.05-4.12 3.63L86.47 83.78c-6.2-1.64-13.08-.83-19.46-1.79-.89-7.78 1.96-5.28 7.25-5 2.84.15 12.53.02 14.4 1.1.92.53 4.07 3.88 5.1 4.9 3.04 3.01 5.87 6.35 8.91 9.34" style="fill:url(#b)"/><path d="M30.18 36.82c2.17 2.97 4.71 6.07 6.8 9.06.92 1.32 7 9.33 6.49 10.07-1.45.2-3.23 2.94-4.46 2.33l-15.8-22.27c-1.22-1.31 3.37-4.13 3.99-3.98 1.45 1.31 1.86 3.26 2.98 4.79" style="fill:url(#c)"/><path d="M38 73.5c.5 5.9-1.84 13.74-8 15.75-3 .98-14.04 2.39-9.76-3.27l15.58-11.92 2.18-.57Z" style="fill:#538144"/><path d="M63.5 29.49c-.33.5-4.57.44-5.86.9-3.03 1.07-4.26 5.83-6.89 7.61-1.32.89-3.33 1.09-4.52 1.98-1.37 1.02-1.29 3.12-3.73 2.51-.84-5.17 4.38-4.83 6.99-6.76 1.35-.99 2.46-3.85 3.75-5.25 1.8-1.95 5.86-3.83 8.49-3.5 1.1.14 2.33 1.68 1.77 2.51m34.3 28.05c1.2-.38 1.85.59 1.72 1.69-.16 1.39-3.21 3.68-3.45 4.61s.85 3.11.94 4.42c.11 1.62-.95 7.37-3.25 6.73-1.7-.47.77-4.61.71-6.2-.07-1.8-1.35-3.24-.87-5.44.14-.65 3.84-5.7 4.21-5.81Z" style="fill:#4b371f"/><path d="M94.26 29.5c.99-.28 1.47.34 1.86 1.14 1.75 3.64 1.56 12.25-.5 15.72-.49.82-.69 1.29-1.86 1.17-2.43-.24-.36-2.35-.01-3.54.81-2.76 1.04-5.86.76-8.74-.13-1.29-1.86-5.29-.24-5.75Z" style="fill:#84b475"/><path d="M85.12 36.63c1.24-1.54 2.76-.27 2.28 2.01-.58 2.77-3.82 6.98-4.45 10.06-1.01 1.53-2.52.92-2.44-.89.06-1.4 2.96-6.61 3.74-8.3.38-.81.54-2.48.87-2.88" style="fill:#395b2e"/></svg>