<svg xmlns="http://www.w3.org/2000/svg" xmlns:xlink="http://www.w3.org/1999/xlink" data-name="fill_riceboxes" viewBox="0 0 128 128"><defs><linearGradient id="b" x1="-5768.78" x2="-5768.3" y1="-1149.35" y2="-944.35" gradientTransform="matrix(.5 0 0 .5 2960 592)" gradientUnits="userSpaceOnUse"><stop offset="0" stop-color="#c7e5e3"/><stop offset=".43" stop-color="#c7e5e3"/><stop offset="1" stop-color="#9abcba"/></linearGradient><linearGradient id="c" x1="-5881.25" x2="-5845.25" y1="-1049.68" y2="-1049.34" gradientTransform="matrix(.5 0 0 .5 2960 592)" gradientUnits="userSpaceOnUse"><stop offset="0" stop-color="#c1dfdd"/><stop offset="1" stop-color="#9fc1bf"/></linearGradient><linearGradient id="d" x1="-5792.14" x2="-5790.99" y1="-1166.4" y2="-1152.45" gradientTransform="matrix(.5 0 0 .5 2960 592)" gradientUnits="userSpaceOnUse"><stop offset="0" stop-color="#80b6b3"/><stop offset="1" stop-color="#5c8d8a"/></linearGradient><linearGradient id="a" x1="67.03" x2="67.03" y1="74.01" y2="89.6" gradientUnits="userSpaceOnUse"><stop offset="0" stop-color="#f1f0de"/><stop offset="1" stop-color="#e2e2c5"/></linearGradient><linearGradient xlink:href="#a" id="e" x1="71.51" x2="71.51" y1="48.44" y2="70.45"/><linearGradient xlink:href="#a" id="f" x1="88.96" x2="88.96" y1="56.86" y2="78.04"/></defs><path d="M83.89 3.64c2.02-.1 4.12-.45 6.12.09 7.26 3.89 15.53 6.21 22.41 10.59l-.14 103.71c-.78 1.1-11.42 1.27-13.53 1.47-19.65 1.78-39.33 3.81-59.01 5.01l-22.71-9.79-.79-.71-.03-104.04c.78-1.1 11.42-1.27 13.53-1.47 17.79-1.61 36.35-3.99 54.14-4.86Z" style="fill:#050606"/><path d="M109.5 16.5c.86 20.66.53 41.33 0 62 .43 12.37.53 25.18.1 37.32l-.6.18c-10.16.44-21.06 1.62-31.25 2.5-12.06 1.05-24.12 2.56-36.25 3V22z" style="fill:url(#b)"/><path d="M19.5 13.5c6.4 2.56 12.59 5.59 19 8V121c-6.19-2.94-13.1-5.09-19-8.5-.26-.03-.47-.06-.47-.09-.17-32.51-.19-66.04-.04-98.56 0-.12.22-.23.5-.35Z" style="fill:url(#c)"/><path d="m105.5 13.51-4.25 1c-19.86 1.39-39.68 3.18-59.5 5.04-6.46-1.69-12.61-5.15-18.76-7.79l64.73-5.74 17.77 7.49Z" style="fill:url(#d)"/><path d="M110 78.5c-.14.44-.31.43-.5 0v-62c.68.05.49.72.52 1.22 1.24 19.21 0 41.25-.02 60.78" style="fill:#c7e4e2"/><path d="M110 78.5c-.02 12.39 0 24.81 0 37.21v.3c-.34.02-.68-.02-1.01 0 .58-.83.49-1.78.52-2.73.34-11.48-.02-23.26-.02-34.77h.5Z" style="fill:#afcfcd"/><path d="M74.33 77.67c2.95 2.88 6.73 8.68 3.68 12.59-4.59 5.88-15.55-1.06-19.27-5.25-2.63-2.96-5.99-8.43-2.45-11.97 4.49-4.48 14.35 1.02 18.04 4.63m-3.95-32.08c6.02-.77 8.77 8.55 9.11 13.16.42 5.71-1.5 16.56-9.65 14.15-2.67-.79-5.33-7.61-5.81-10.19-.93-5.01-.22-16.28 6.34-17.12Zm19.99 8.51c2.08-.43 4.38.51 5.56 2.22 4.48 6.46-.95 22.81-8.9 24.46-7.16 1.49-7.04-8.16-6.4-12.91.6-4.4 5.05-12.79 9.74-13.77" style="fill:#0b0c0b"/><path d="M44 47c.53-.83.6-1 1.75-1.03 1.23-.03.56.47.75 1.03.68 9.9.81 20.1 0 30-.88 2.23-1.62 2.23-2.5 0q-.72-15 0-30m2.5-19.5v11.25c0 .94-2.5.94-2.5 0v-10.5c0-.66 1.84-.91 2.5-.75" style="fill:#f1f0de"/><path d="M44 77c-.26-.66-.45-.67-.53-1.69-.71-8.68.62-18.32 0-27.11-.14-.62.31-.86.53-1.2zm2.5 0V47c.19.58.46.67.53 1.69.5 6.88.7 20.41 0 27.11-.08.76-.39.87-.53 1.2" style="fill:#c7e4e2"/><path d="M36 111.5c-.58 0-1.08.4-1.66.36-1.15-.08-10.58-4.39-12.19-5.26-.4-.21-1.65-1.09-1.65-1.35v-82.5c0-.78 2.33-1.02 3.02-.52L36 28.25z" style="fill:#0b0c0b"/><path d="M76.53 86.65c-.14 2.37-2.72 3.14-4.8 2.9-4.26-.4-7.44-3.14-10.43-6.04-1.42-1.4-2.96-3.01-3.54-4.93-1.4-4.59 3.67-5.36 6.91-3.92 4.85 1.94 11.4 6.24 11.87 11.82v.16Z" style="fill:url(#a)"/><path d="M76.5 63c-.98 11.88-8.56 8.15-9.87-1.38-.38-2.73-.06-4.56.37-7.12.42-2.49.82-6.24 4.25-6.05 4.95.28 5.54 10.98 5.25 14.55" style="fill:url(#e)"/><path d="M94.76 64.88c-1.22 3.91-1.92 7.82-4.77 10.95-1.19 1.2-2.69 2.42-4.31 2.18-3.74-1.29-3.08-8.59-1.61-12.17 1.07-2.63 2.42-5.24 4.45-7.29 4.85-4.68 7.25 1.34 6.28 6.1l-.04.22Z" style="fill:url(#f)"/></svg>