<svg xmlns="http://www.w3.org/2000/svg" viewBox="0 0 128 128"><path d="M27.11 87.68c-1.69-.74-3.62-1.05-4.68-2.18-1.33-1.43-2.42-3.44-2.77-5.35-.46-2.52.09-5.22-.16-7.8-.55-5.79 2.99-8.29 7.63-9.13v-52.1c0-3.39.58-6.76 4.04-8.25 3.59-1.56 7.66-1.98 10.91.44 1.94 1.44 2.87 4.23 4.53 6.86H82.5c.28-1.05.54-2.13.86-3.19.89-3.02 3.46-4.95 6.61-5 9.24-.15 11.34 1.91 11.34 11.18v50c.97.29 1.96.52 2.9.89 3.11 1.23 4.64 3.51 4.66 6.87.01 2.51-.17 5.04.04 7.53.38 4.35-1.53 7.34-6.2 8.66l-1.43.39c0 10.02.04 19.96-.02 29.91-.02 3.65-1.09 6.76-4.92 8.3-7.22 2.91-13.47-1.11-13.48-8.8-.02-9.75 0-19.51 0-29.46H45.61c0 9.99.15 19.93-.11 29.85-.06 2.31-.91 5.09-2.4 6.76-2.99 3.35-7.27 2.5-11.03 1.52-3.79-.99-4.92-4.3-4.94-7.88-.06-10.04-.02-20.08-.02-30Zm18.68-34.5v10.1h36.93v-10.1z" style="fill:#4a3726;stroke-width:0"/><path d="M83.09 45.36H45.37V18.37h37.72zM27.12 79.44v-8.19h74.12v8.19z" style="fill:#a5805b;stroke-width:0"/><path d="M37.76 63.66h-2.84V9.42c.81-.09 1.68-.19 2.84-.31zm55.69-.01h-2.86V9.41c.83-.08 1.7-.17 2.86-.29zm.07 55.25c-1.16-.06-1.96-.11-2.94-.16V86.96h2.94zm-56.11-.45h-2.09V87.37c.65-.04 1.27-.07 2.09-.12z" style="fill:#7b5b3b;stroke-width:0"/><path d="M64.45 25.66c3.56.07 6.2 2.78 6.13 6.29-.07 3.36-2.95 6.03-6.47 6-3.49-.03-6.31-2.82-6.28-6.2.03-3.62 2.8-6.17 6.62-6.09" style="fill:#4a3726;stroke-width:0"/></svg>