<svg xmlns="http://www.w3.org/2000/svg" viewBox="0 0 128 128"><path d="M14.69 100.84c-3.11-24.67-3.14-48.85.03-73.73-.49-.35-1.3-.92-2.1-1.49-4.71-3.38-6.14-7.99-5.63-13.64.42-4.62 3.21-7.8 7.86-7.8 32.83-.02 65.67-.02 98.5.02 4.55 0 7.5 3.1 7.58 7.62.02 1.28-.09 2.56.02 3.83.28 3.07-.69 5.57-3.08 7.55-1.58 1.32-3.06 2.75-4.44 4 3.01 24.68 3.02 48.88-.04 74.03.46.3 1.38.87 2.29 1.48 5.36 3.57 5.8 8.91 5.24 14.61-.35 3.62-3.35 6.42-7.18 6.47-5.6.08-11.21.02-16.81.02h-81.1c-6.05 0-8.49-2.76-8.86-8.81-.3-4.94 1-8.86 4.96-11.86 1.01-.77 1.96-1.63 2.76-2.3" style="fill:#4a3726;stroke-width:0"/><path d="M111.98 11.58c2.74 1.25.71 3.59 1.55 5.79-1.35 1.18-2.74 2.41-4.16 3.63-1.42 1.21-2.86 2.4-4.05 3.41 3.83 26.68 3.73 52.69.08 78.74 2.72 2.55 5.36 5.04 7.81 7.34v5.58H14.83v-5.74c2.33-2.09 5.17-4.63 7.11-6.37-.71-14.13-1.88-27.14-1.88-40.16 0-12.92 1.17-25.83 1.88-39.65l-7.55-7.02c.3-1.99.56-3.77.83-5.54 1.04-.97 2.35-.86 3.62-.86h89.52c1.27 0 2.58-.11 3.62.86Z" style="fill:#d6d6d5;stroke-width:0"/><path d="M93.08 63.44c-.05 16.02-13.27 28.95-29.52 28.87-15.64-.07-28.47-13.33-28.41-29.33.06-14.58 11.63-29.34 30.2-28.65 16.08.6 27.65 13.48 27.73 29.1Zm-2.19-35.45c-1.57 0-3.18.2-4.71-.05-2.05-.34-3.8-1.35-3.68-3.83.12-2.34 1.55-3.56 3.83-3.62 3.14-.08 6.29-.07 9.43 0 2.31.05 3.74 1.39 3.85 3.65.12 2.4-1.64 3.49-3.72 3.8-1.63.24-3.33.05-5 .05m-26.97-7.56c1.57 0 3.16-.12 4.72.03 2.11.2 3.8 1.01 3.93 3.53.13 2.49-1.36 3.75-3.49 3.9-3.32.23-6.68.19-10.01-.02-2.19-.14-3.73-1.55-3.55-3.89.18-2.24 1.67-3.47 3.98-3.52 1.47-.03 2.95 0 4.42 0v-.02Zm-26.8.05c1.67 0 3.34-.07 5.01.02 2.21.13 3.45 1.59 3.58 3.6.13 1.97-1.07 3.49-3.12 3.6-3.61.19-7.24.27-10.84.07-2.13-.12-3.2-1.67-3.08-3.9.12-2.2 1.58-3.11 3.45-3.35 1.64-.21 3.33-.04 5-.04M64.13 98.8c1.57 0 3.13-.02 4.7 0 2.36.03 3.69 1.25 3.71 3.59.02 2.19-1.23 3.55-3.4 3.64-3.32.14-6.66.16-9.98.01-2.25-.1-3.74-1.52-3.66-3.79.09-2.26 1.6-3.46 3.93-3.46h4.7Zm-26.83.01c1.56 0 3.13-.03 4.69 0 2.19.05 3.59 1.25 3.73 3.36.13 2.11-1.17 3.69-3.28 3.81-3.6.21-7.24.2-10.84-.04-2.02-.13-3.01-1.72-2.91-3.74.1-2.05 1.28-3.25 3.33-3.37 1.75-.11 3.52-.02 5.28-.02m48.72 7.14c-2.5-.25-3.75-1.74-3.42-4.13.31-2.31 2-3.1 4.26-3.04 2.83.08 5.67.05 8.5 0 2.39-.03 4.18.87 4.19 3.41 0 2.45-1.36 4-4.08 3.79-1.82-.07-5.5.49-9.44-.04Z" style="fill:#4a3726;stroke-width:0"/><path d="M80.91 59.2c3.19 4.28 3.13 9.42.21 13.92-2.77 4.27-8.87 7.03-13.9 5.96-.74-4.16-.57-8.39 1.82-12.14 2.74-4.3 6.85-6.77 11.87-7.74m-33.58.26c8.95.36 16.18 10.83 13.44 19.47-4.19 1.55-11.03-1.47-14.01-6.19-2.81-4.45-2.57-10.08.57-13.28m16.99 5.68c-6.28-2.35-8.78-7.73-6.24-13.7 1.29-3.03 3.04-5.85 4.81-9.22 4.9 2.51 6.08 6.96 7.51 10.98 1.62 4.51-.53 8.3-6.09 11.94Z" style="fill:#d3cb8c;stroke-width:0"/></svg>