<svg xmlns="http://www.w3.org/2000/svg" data-name="fill_redbeet" viewBox="0 0 128 128"><path d="M71.09 3.93c2.79 1.3 5.74 2.35 8.33 3.97 6.57 4.1 9.23 10.92 7.83 18.38-1.03 5.45-3.42 9.88-7.71 13.51-2.05 1.74-2.8 4.45-1.75 6.64 3.88.24 7.23.36 10.56.67 5.94.55 10.38 4.09 14.05 8.26 4.49 5.11 7.14 11.24 8.61 18.04 1.03 4.78.24 9.11-1.76 13.02-2.75 5.4-6.24 10.45-9.76 15.41-2.93 4.12-4.07 8.53-4.27 13.5-.09 2.24-1.04 4.74-2.37 6.55-2.14 2.91-5.02 2.82-7.68.3-1.49-1.41-3.1-2.78-4.28-4.44-2.75-3.89-7.02-4.17-11.06-5.34-7.24-2.09-15.17-3.07-20.64-8.89-4.39-4.67-8.16-10.02-8.36-16.89-.13-4.26-.64-8.65.15-12.77.69-3.58 2.95-6.85 4.53-10.25.57-1.22 1.19-2.41 2.36-4.79-3.23 0-5.42-.12-7.6.02-4.48.29-8.97 1.33-13.31-.9-5.36-2.75-8.43-7.14-9.75-12.91-.06-.25-.41-.43-.62-.65v-5.39c.34-6.98 3.68-12.51 8.39-17.37 4.29-4.42 9.52-6.07 15.59-5.25 2.03.28 4.21.53 5.41-1.62 3.48-6.22 8.83-9.62 15.72-10.82h9.43Z" style="fill:#4a3726;stroke-width:0"/><path d="M88.94 117.27c-1.68-1.34-2.77-1.94-3.49-2.84-3.27-4.07-7.79-5.94-12.6-7.23-3.35-.9-6.73-1.75-10.14-2.3-10.83-1.73-16.17-12.8-17.22-21.11-2.01-15.92 9.6-24.86 20.87-29.12 6.88-2.6 14.04-4.05 21.36-2.13 5.93 1.56 10.72 4.82 13.85 10.36 7.16 12.7 4.46 23.8-5.1 33.96-4.43 4.7-6.25 10.49-6.59 16.84-.05.9-.46 1.79-.94 3.56Z" style="fill:#b31659;stroke-width:0"/><path d="M46.28 54.25c-3.67.28-7.34.54-11.01.85-3.2.27-5.64-.9-8.19-2.95-4.29-3.46-6.96-7.51-5.73-12.98.73-3.24 2.25-6.57 4.27-9.2 2.59-3.37 5.16-7.05 9.92-8.06 6.64-1.41 13.17 1.88 15.22 8.37 2.05 6.51 3.85 13.06 7.73 18.84 1.43 2.12-.96 5.15-4.14 5.34-2.68.16-5.37.03-8.06.03 0-.08-.01-.17-.02-.25Zm18.36-6.06c-4.14-5-6.55-10.55-8.35-16.53-.97-3.22-2.81-6.3-4.8-9.04-1.55-2.13-1.57-3.8-.26-5.78 5.43-8.22 16.48-10.99 25.07-5.6 5.25 3.3 8.01 11.84 5.05 17.21-3.13 5.68-6.55 11.2-10.07 16.64-1.41 2.18-3.48 3.86-6.64 3.09Z" style="fill:#50984f;stroke-width:0"/><path d="M86.3 82.41c1.01 3-.25 4.72-3.09 5.94-6.16 2.64-12.2 5.54-18.34 8.23-2.09.91-4.37 1.02-5.57-1.35-1.15-2.28-.2-4.19 2.12-5.2 4.51-1.96 9.07-3.81 13.59-5.76 1.63-.7 3.21-1.55 4.81-2.34 2.22-1.1 4.41-1.76 6.48.48m-18.54-9.73c-1.25-3.24-.9-5.03 2.02-6.21 4.96-2 9.79-4.33 14.68-6.53 1.99-.9 4.01-1.39 5.22.99 1.09 2.15-.14 3.86-1.98 4.69-5.48 2.48-11.05 4.77-16.64 7-.93.37-2.14.05-3.29.05Z" style="fill:#4a3726;stroke-width:0"/></svg>