<svg xmlns="http://www.w3.org/2000/svg" data-name="fill_balenet" viewBox="0 0 128 128"><path d="M83.26 109.7q3 8.18-4.78 11.36c-3.84 1.57-7.64 3.21-11.52 4.67-1.57.59-3.29.75-5.34 1.19-1.27-2.43-2.39-4.6-3.6-6.92-2.12.85-4.26 1.71-6.4 2.55-3.61 1.41-5.06.82-6.53-2.76-11.55-28.07-23.1-56.15-34.64-84.22-.92-2.23-1.81-4.46-2.72-6.69-1.67-4.09-1.15-5.33 3.02-7.07 1.59-.66 3.18-1.31 5.01-2.07-.82-2.02-1.62-3.85-2.32-5.71-1.04-2.77-.37-4.46 2.34-5.6 5.51-2.31 11.03-4.57 16.59-6.75 3.23-1.27 4.86-.5 6.19 2.64.71 1.68 1.39 3.37 2.17 5.23 2.79-1.12 5.4-2.37 8.15-3.18 1.33-.39 2.91 0 4.36.13.92.08 1.89.6 2.72.42 4.49-.99 8.98-2.02 13.4-3.28 2.67-.76 4.14.26 5.48 2.4 9.17 14.75 18.4 29.46 27.61 44.18 5.52 8.83 11.04 17.67 16.57 26.51 2.96 4.73 2.98 5.01-.92 9.17-6.89 7.34-14.59 13.5-24.71 16.29 0 2.59-1.37 4.13-3.87 4.93-2.08.67-4.06 1.67-6.27 2.59Z" style="fill:#4a3726;stroke-width:0"/><path d="M48.68 109.13C38.37 83.99 28.06 58.86 17.75 33.72c.07-1.4 1.28-1.56 2.2-1.95 9.42-3.94 18.92-7.7 28.32-11.69.97-.41 1.96-.85 3.06-.44 6.34 15.49 12.68 30.98 19.03 46.46 3.98 9.71 7.96 19.41 11.94 29.11-.48 1.18-1.53 1.69-2.6 2.14-9.32 3.9-18.63 7.84-28.05 11.48-.93.36-1.9 1.11-2.97.29Zm64.13-28.42c-6.42 6.82-13.13 12.31-22.34 14.59-11.13-26.97-22.25-53.92-33.4-80.92 4.37-.85 8.42-1.63 12.74-2.47 14.25 22.79 28.58 45.72 43 68.8" style="fill:#d6d6d5;stroke-width:0"/><path d="M51.33 19.64c-10.36 4.26-20.72 8.52-31.07 12.8-.87.36-1.68.85-2.52 1.28-.83-1.8-1.65-3.61-2.68-5.84 11.44-4.68 22.58-9.24 34.06-13.93.77 1.98 1.49 3.84 2.21 5.69m-2.65 89.49c11.21-4.64 22.42-9.27 33.63-13.91.85 1.89 1.69 3.78 2.62 5.86-11.46 4.68-22.57 9.21-34.04 13.9-.75-1.98-1.48-3.91-2.21-5.85" style="fill:#37a29d;stroke-width:0"/><path d="M32.54 9.55c.29.53.59 1.08 1.09 1.98-3.84 1.55-7.48 3.01-11.27 4.54q-.24-2.75 10.19-6.52Zm32.6 106.54c3.58-1.4 7.16-2.8 10.93-4.28-.1 2.53-1.44 3.47-7.59 5.44-1.05.34-2.31.05-3.47.05.04-.4.09-.81.13-1.21" style="fill:#484847;stroke-width:0"/></svg>