<svg xmlns="http://www.w3.org/2000/svg" data-name="fill_carrot" viewBox="0 0 128 128"><defs><linearGradient id="a" x1="-163.4" x2="-119.72" y1="-42.91" y2="91.16" gradientTransform="matrix(.5 0 0 .5 148 74)" gradientUnits="userSpaceOnUse"><stop offset="0" stop-color="#e35c15"/><stop offset="1" stop-color="#ea893e"/></linearGradient></defs><path d="M71.65 38.65c-.2.18-2.91 4.31-2.95 4.58-.17 1.31.96 3.74.82 5.25 7.86-.72 14.99 4.9 16.75 12.5l8.25 56.29c.16 5.88-7.15 9.12-11.49 5.45-9.89-16.63-18.47-34.19-27.77-51.23-1.97-4.6-1.81-10.04.47-14.51.57-1.12 3.14-4.04 3.2-4.3.5-2.59-3.16-2-4.46-2.4-1.16-.36-1.92-1.86-3.32-2.18-1.77-.4-4.08.34-5.64-.36s-2.23-3.55-3.52-4.48c-1.45-1.06-3.6-.69-5.03-1.97-1.58-1.42-1.1-3.73-2.22-5.28-1.04-1.43-3.48-1.55-4.36-3.64s.06-4.22-.48-6.02c-.19-.64-1.11-1.25-1.5-2-2.94-5.61 1.78-11.42 7.88-11.29 2 .04 3.5 2.52 5.09 2.86 1.41.3 2.26-.43 3.4-.44 4-.02 4.38 6.35 7.39 5.46s1.88-5.83 2.6-7.43c.58-1.29 2.66-1.63 3.48-2.52.69-.76.88-2.29 1.98-3.01 1.86-1.21 3.26.14 5.03.07s2.04-1.36 4.15-.72c2.39.73 2.52 2.61 3.89 4.13.94 1.04 2.67 1.63 3.33 3.17 1 2.35-.09 4.14.03 6.05.08 1.28 1.23 2.52 1.37 4.06.3 3.23-1.46 3.9-1.91 6.12-.59 2.86 1.06 4.56-1.94 6.56-.77.51-1.95.72-2.52 1.23" style="fill:#0b0c0c"/><path d="M68.38 51.13c5.06-.72 10.85 1.85 13.45 6.29 3.1 5.28 3.24 16.44 4.22 22.78 1.9 12.31 4.13 24.72 5.78 37.15-.46 4.64-5.85 5.92-8.25 1.82-7.08-14.64-15.64-28.59-22.84-43.16-2.61-5.28-5.48-9.35-3.49-15.51 1.56-4.82 6.08-8.65 11.13-9.37" style="fill:url(#a)"/><path d="M45.93 18.58c.29.21 1.47 3.56 2.8 4.45s3.96.61 4.82 1.68c.81 1.01.91 4.36 1.58 5.17.36.44 4.13 1.95 4.3 2.19.66.92-.48 3.47-.33 4.57.23 1.58 2.93 4.11 2.91 5.11-.01.67-.77 1.12-.91 1.63-.69 2.5 3.14 4.11 2.9 6.61-3.67 1.94-3.44-1.74-5.51-2.76-1.04-.52-1.98.48-3.11.19-1.06-.27-2.35-2.01-3.73-2.32-1.72-.39-3.69.63-4.63.17-1.44-.71-1.9-3.42-3.54-4.5-1.38-.91-3.59-.81-4.48-1.52s-.88-3.38-1.77-4.73C36.22 33 33.28 32.05 32.72 31c-.43-.81.43-2.6.18-4.12-.35-2.04-2.24-3.25-2.43-5.11-.32-3.16.7-5.14 3.91-5.65 3.8-.6 3.7 1.78 5.98 2.29 1.34.3 5.05-.2 5.57.18Z" style="fill:#4a6a2e"/><path d="M65.49 42.5c-1.22-.34-.88-1.93-1.38-2.86-.55-1.02-1.83-1.85-2.04-3-.3-1.64 1.01-2.77.05-5.01s-3.76-2.67-4.65-3.85c-.59-.78-.8-2.67-1.21-3.79-.27-.74-1.29-1.52-1.19-2.16s1.57-1.78 1.81-2.7c.32-1.23-.17-4.06.19-4.56.08-.11 1.56-.57 2.18-1.07.9-.72 2.01-2.76 2.58-2.95 1.19-.4 2.33.5 3.39.44 1.01-.06 1.82-1.12 3-1.01 1.33.12 4.76 5.28 6.2 6.38-.06 1.86-.7 3.41-.4 5.37.2 1.32 1.45 2.76 1.42 4.04s-1.58 2.8-1.84 4.1c-.3 1.47.24 3.47-.35 4.65-.41.81-2.75 1.64-3.77 2.73-.96 1.02-1.2 2.1-1.96 3.03-.58.72-2.1.9-2.02 2.24Z" style="fill:#183d1e"/><path d="M78.83 59.8c1.86 2.64-8.23 6.69-10.45 7.16-2.52.55-7.58 1.42-7.89-.35-.18-1 1.33-1.51 2.27-1.54 4.24-.11 8.39-1.64 11.91-3.92 1.14-.66 2.77-2.07 4.07-1.42l.09.08Zm7.21 32.93c.65 3.22-6.55 4.84-8.42 4.89-1.18-.09-.94-2.45.14-2.63 1.89-.45 3.51-1.15 5.42-1.91 1.23-.36 2.08-.95 2.79-.44l.06.08ZM75.26 78.07c1.82.11 1.53 2.01.13 2.68-2.22 1.31-7.12 2.63-8.23 1.29-.47-.55-.11-1.18.47-1.55 1.22-.76 3.05-.89 4.41-1.48 1.09-.4 2.15-.92 3.05-.94h.16Z" style="fill:#a83d12"/><path d="M55.4 41.45c-.92.34-2.3-.62-2.86-1.49-3.3-4.27-6.96-8.31-10.88-11.99-1.02-.95-2.31-1.53-3-2.74-1.1-2.01 1.22-2.11 2.41-1.19 2.35 1.9 16.24 14.58 14.43 17.36z" style="fill:#71994f"/></svg>