<svg xmlns="http://www.w3.org/2000/svg" data-name="fill_chilli" viewBox="0 0 128 128"><defs><linearGradient id="a" x1="628.69" x2="558.21" y1="-371.36" y2="-192.76" gradientTransform="matrix(.5 0 0 .5 -222 222)" gradientUnits="userSpaceOnUse"><stop offset="0" stop-color="#cb2b2c"/><stop offset="1" stop-color="#a4110c"/></linearGradient><linearGradient id="b" x1="597.42" x2="483.41" y1="-371.85" y2="-271.32" gradientTransform="matrix(.5 0 0 .5 -222 222)" gradientUnits="userSpaceOnUse"><stop offset="0" stop-color="#992121"/><stop offset="1" stop-color="#88110c"/></linearGradient><linearGradient id="c" x1="649.83" x2="650.19" y1="-425.16" y2="-359.17" gradientTransform="matrix(.5 0 0 .5 -222 222)" gradientUnits="userSpaceOnUse"><stop offset="0" stop-color="#72b962"/><stop offset="1" stop-color="#36a835"/></linearGradient></defs><path d="M125.57 45c-1.46 2.61-3.35 2.03-6 2-.21 4.76-1.71 9.59-3.14 14.11-10.39 32.87-37.54 66-75.55 61.33-2.45-.3-10.78-1.81-12.5-3-1.57-1.09-1.66-3.68-.97-5.33 1.08-2.59 9.3-1.43 11.91-1.62 12.57-.91 25.3-7.7 32.66-17.84 7.1-9.77 11.87-23.2 13.09-35.16-.83-.19-1.01.26-1.49.76C64.47 79.96 38.15 95.9 10.74 80.58 7.55 78.8-1.66 73.84 3.03 69.7c2.44-2.15 6.89 1.06 9.65 1.93 23.23 7.36 41.53-8.79 51.65-28.13.71-1.36 2.96-5.71 3.17-6.88.3-1.6-2.16-1.7-1.21-4.66 1.11-3.49 8.01-8.74 11.64-9.36 1.71-.29 7.35.4 7.66.17 1.86-1.35-1.74-5.94 1.49-8.52 6.39-5.09 8.55 2.95 7.98 8.23l4.5-1c.66-4.44-4.3-7.1-4.03-10.75.19-2.55 3.19-6.24 6.03-5.54 4.92 1.2 8.94 12 8.05 16.75 9.23 1.74 15.23 10.05 15.49 19.25l.46.79v3Z" style="fill:#0b0b0b"/><path d="M41.32 115c4.84-.43 12.19-2.77 16.59-4.91C80.75 98.97 88.72 68.98 89.3 45.48c5.21-1.63 10.19-2.99 14.52-6.5 2.5 1.64 4.34 4.03 7.09 5.44 5.24 2.7 7.14.2 5.52 7.69C113.8 64.3 106 80.78 98.7 90.88 84.97 109.87 67.18 121.77 42.83 120c-2.24-.16-10.73-1.62-12.41-2.59-1.46-.85-.69-2.41-.09-2.41 3.49 0 7.61.3 11 0Z" style="fill:url(#a)"/><path d="M81.57 38c-1.16 4.96-1.96 9.63 5 7.5.47 5.29-.2 7.84-3.51 11.76-15.53 18.45-42.9 33.54-66.98 22.97-1.6-.7-11.27-6.15-11.52-7.07-.2-.74-.32-1.82.76-1.67 1.25.18 3.74 1.73 5.27 2.24 25.3 8.36 43.93-6.79 55.57-27.9.81-1.46 3.48-7.91 4.12-8.37 1.96-1.42 8.55 1.41 11.29.54" style="fill:url(#b)"/><path d="M107.13 23.94c10.22 1.38 16.16 10.66 15.44 20.56-7.55.15-14.36-3.64-18.25-9.99-5.15 6.32-13.13 7.68-20.75 8.99.13-10.24 7.89-19.53 18.5-19.5.14-2.67-.03-5.25-.98-7.78-1.07-2.85-5.05-5.23-1.3-7.76 1.69-1.14 3.18.94 4.2 2.36 2.85 3.96 3.34 8.33 3.14 13.11Z" style="fill:url(#c)"/><path d="M91.53 15.54c.87 2.35 1.63 4.83.67 7.33-3.6 4.03-7.68 6.54-9.61 11.88-4.54 1.2-9.09-.16-13.51-1.26.69-3.78 5.95-7.61 9.75-8 1.57-.16 7.91.51 8.26.29.6-.38 1.35-2.78 1.45-3.57.46-3.44-2.06-7.02 3-6.67Z" style="fill:#287b2a"/><path d="M91.57 48.44c3.81-.28-.04 18.03-.67 20.32-.37 1.62-2.05 2.79-2.71.59-.47-2.2.42-4.62.85-6.83.91-3.5 1.19-6.46 1.31-9.89.12-1.3 0-3.39 1.13-4.15l.1-.04Zm-4.98 26.49c1.71-.44 2.36 1.58 1.83 2.96-.66 2.58-2.25 7.14-3.67 8.63-1.05 1.09-2.19.12-1.82-1.71.13-.71.42-1.43.69-2.1.76-1.67 1.28-3.46 1.77-5.45.22-.77.41-1.84 1.08-2.26l.12-.06Z" style="fill:#eb6c6a"/><path d="M69.05 45.99c3.08 2.27-5.89 12.65-8.18 14.54-1 .7-2.23.69-2.14-.64.17-1.33 1.4-2.58 2.27-3.61 2.07-2.29 3.89-5.41 5.74-8.18.58-.81 1.37-2.09 2.22-2.12h.08ZM49.04 69.83c-.44-2.42 2.82-3.32 4.16-4.76 1.16-1.1 2.91-3.61 4.62-2.19 1.65 1.99-7.93 8.7-8.73 7.07l-.05-.11Z" style="fill:#c95050"/><path d="M98.49 28.46c-.51.72-1.74.95-2.58 1.31-3.22 1.03-4.97 4.07-6.97 6.62-.59.6-1.57.91-2.03.1-.52-1.09.28-2.46.84-3.44 2.01-3.16 5.5-6.13 9.33-6.64.99.03 1.95 1.01 1.49 1.93l-.07.12Z" style="fill:#a3cf93"/><path d="M82.01 27c1.02 1.24-1.72 1.7-2.88 1.97-1.44.31-2.9 1.02-4.23 1.54-2.05.85-3.77.14-1.96-1.48 1.84-1.51 6.36-3.18 8.97-2.11l.09.07Z" style="fill:#43ac3e"/></svg>