<svg xmlns="http://www.w3.org/2000/svg" data-name="fill_soybean" viewBox="0 0 128 128"><defs><linearGradient id="a" x1="-1247.94" x2="-1357.52" y1="39.37" y2="239.31" gradientTransform="translate(740)scale(.5)" gradientUnits="userSpaceOnUse"><stop offset="0" stop-color="#ecdc66"/><stop offset="1" stop-color="#ddbb42"/></linearGradient><linearGradient id="b" x1="-1285.71" x2="-1444.55" y1="76.68" y2="182.75" gradientTransform="translate(740)scale(.5)" gradientUnits="userSpaceOnUse"><stop offset="0" stop-color="#ddbb41"/><stop offset=".38" stop-color="#ddbb42"/><stop offset="1" stop-color="#ecdc66"/></linearGradient><linearGradient id="c" x1="-1364.24" x2="-1329.26" y1="130.33" y2="131.49" gradientTransform="translate(740)scale(.5)" gradientUnits="userSpaceOnUse"><stop offset="0" stop-color="#fef3b9"/><stop offset="1" stop-color="#fedf6e"/></linearGradient><linearGradient id="d" x1="-1382.12" x2="-1425.11" y1="163.53" y2="163.76" gradientTransform="translate(740)scale(.5)" gradientUnits="userSpaceOnUse"><stop offset="0" stop-color="#fedd69"/><stop offset="1" stop-color="#fef5bd"/></linearGradient></defs><path d="M48 97.5c-7.8 2.22-15.83 3.16-23.62.37-8.39-3-23.04-14.27-14.39-24C12.6 70.93 21.6 69.46 25.76 68c22.92-8.03 43.47-25.3 58.22-44.28 5.3-6.82 11.31-20.85 22.19-14.15 7.13 4.39 14.22 16.33 14.85 24.65.71 9.39-2.22 13.09-5.61 20.93-4.74 10.96-.83 20.66-8.19 31.31-3.55 5.15-9.2 7.97-13.22 12.28-2.23 2.39-4.16 7.74-6.28 10.72-8.57 12.05-22.75 12.98-36.1 9.16-5.41-1.55-11.11-4.59-10.52-11.24.45-5.08 3.79-6.63 6.9-9.89Z" style="fill:#070603"/><path d="M91.28 97.79c-3.51 4.23-4.79 9.97-9.52 14.22-8.34 7.5-23.53 7.3-33.26 2.74-4.21-1.97-6.22-6.74-3.27-10.77 2.03-2.78 8.33-6.95 11.22-9.78 16.26-15.88 27.4-37.27 33.41-59.09 1.64-5.94 2.54-14.76 4.53-19.97 2-5.22 7.51-5.58 11.62-2.4 9.58 7.42 14.46 20.4 11.15 32.17-1.54 5.47-6.12 11.28-7.04 16.96-.98 6.03.14 10.9-2.26 17.24-3.72 9.82-10.75 11.65-16.58 18.68" style="fill:url(#a)"/><path d="M88.88 27.39c-.3.31-1.11.36-1.54.69-5.23 3.88-9.24 9.76-8.3 16.64.3 2.18 2.36 4.59 2.46 6.08.09 1.45-1.49 3.15-1.51 4.71l-6.47-3.28c-18.48-3.93-31.29 26.19-7.53 27.03-1.6 1.25-2.55 3.77-3.97 5.03-1.3 1.15-2.7 1.14-4 2-3.7 2.43-4.81 5.67-9.68 7.82-12.28 5.42-29.94 2.68-37.06-9.62-2.58-4.47-.76-8.76 3.95-10.49s10.31-2.78 15.26-4.74c24.2-9.56 44.96-28.71 59.76-49.74.44 1.33-.64 7.12-1.37 7.88Z" style="fill:url(#b)"/><path d="M74.3 66.31c-.47.85-1.12 2.09-1.7 3.03-.99 1.61-3.48 5.85-4.97 6.52-3.39 1.54-8.76.22-10.72-3.02-5.73-9.47 8.83-21.91 17.96-17.46.69.34 2.92 2.34 3.08 2.96.25.96-2.92 6.64-3.64 7.96Z" style="fill:url(#c)"/><path d="M86.44 34.06c1.24.87.01 4.49-.45 5.93-.25.79-2.24 7.52-3.24 7-1.81-.95-1.16-6.39-.62-8.11.45-1.41 2.44-6.14 4.3-4.83Zm7.85-7.02c.97-.32 2.17.02 2.18 1.16.02 1.48-1.61 7.59-2.12 9.4-.66 2.32-3.49 10.76-4.84 12.16-1.24 1.28-2.77.82-2.44-.9 1.61-3.78 3.39-7.52 4.55-11.48.89-3.03 1.18-6.08 1.89-9.11.13-.55.13-1.02.77-1.23ZM63.33 91.07c1.15-.32 1.91.49 1.6 1.6-.07.24-2.69 3.29-3.17 3.84-1.68 1.9-8.86 8.87-10.77 9.73-1.77.8-3.32-.31-2.02-2.02.58-.77 3.06-2.08 4.04-2.96 1.64-1.48 9.39-9.93 10.32-10.18Z" style="fill:#fdf7d0"/><path d="M29.15 72.65c6.16-5.35 22.05-4.81 24.13 4.82 2.92 13.56-17.52 22.44-26.79 13.29-3.3-3.26-4-8.27-1.9-12.42.54-1.06 3.69-4.93 4.56-5.69" style="fill:#0c0b06"/><path d="M15.14 79.13c-1 1.18-.14 3.5-3.14 2.87-.98-4.41 4.71-8.66 8.49-6.25.62 2.22-4.07 1.86-5.36 3.38Z" style="fill:#fdf7d0"/><path d="M60.85 60.58c1.21-.36 2.48.15 2.08 1.59-.25.89-2.28 2.04-2.73 4.32-.3 1.51 1.23 5-1.9 3.97-2.25-.74-.1-9.1 2.55-9.88" style="fill:#fefdf7"/><path d="M28.16 88.84c-3.84-3.85-1.98-11 2.38-13.56.94-.55 1.85-.29 2.45-.6 2.37-1.23 2.63-2.44 5.76-2.67 6.52-.48 13.89 2.73 11.9 10.4-2.16 8.32-16.49 12.44-22.49 6.43" style="fill:url(#d)"/><path d="M38.5 74.5c.54 2.97-1.88 2.44-3.85 3.41s-2.99 2.06-4.03 3.98c-.28.52-.55 1.99-.67 2.07-1.16.81-2.6-.15-2.25-1.98.3-1.57 3.68-5.78 4.92-6.35 1.13-.52 2.27.69 1.88-1.63z" style="fill:#fefdf7"/></svg>