<svg xmlns="http://www.w3.org/2000/svg" viewBox="0 0 128 128"><path d="M41.81 117.86c-3.86-.17-6.05-2.04-7.31-5.51-9.16-25.32-18.4-50.61-27.65-75.89C5.59 33 6.42 30.14 9 27.68c-.48-1.37-.97-2.63-1.37-3.91-1.13-3.66.41-7.27 4.01-8.62 9.75-3.67 19.52-7.25 29.35-10.69 3.9-1.36 7.35.54 8.86 4.43.42 1.09.81 2.19 1.04 2.8 2.53 1.22 4.73 2.28 7.73 3.72 3.28-3.15 7.26-6.62 10.82-10.47 4.05-4.39 9.02-4.32 12.3.71 12.85 19.71 25.64 39.45 38.44 59.2 2.22 3.42 2.06 6.21-.53 9.39-8.2 10.07-18.73 16.89-30.58 21.88-.66.28-1.32.55-2.05.85-.32 1.01-.51 2.08-.99 3.02s-1.25 1.73-1.99 2.71c.4 1.13.9 2.38 1.29 3.66 1.17 3.85-.32 7.41-4.08 8.83-9.66 3.65-19.36 7.2-29.1 10.61-3.95 1.38-7.32-.41-8.92-4.27-.48-1.16-.91-2.34-1.42-3.65Z" style="fill:#4a3726;stroke-width:0"/><path d="M79.84 96.89c-13.01 4.73-25.58 9.31-38.51 14.01-9.4-25.83-18.74-51.52-28.2-77.51 13.02-4.75 25.62-9.36 38.49-14.06 9.42 25.89 18.76 51.57 28.21 77.56Zm4.89-6.47c-8.27-22.71-16.47-45.19-24.6-67.51 5.25-4.59 10.35-9.04 15.69-13.7C88.6 28.9 101.6 48.93 114.74 69.19c-7.78 10.14-18.35 16.25-30.02 21.23Z" style="fill:#ab5555;stroke-width:0"/><path d="M44.55 14.72c-9.87 3.59-19.18 6.97-28.79 10.46-.59-1.28-1.08-2.36-1.68-3.67 9.81-3.55 19.34-7 29.12-10.55.53 1.48.9 2.5 1.34 3.76Zm5.25 104.54c-.49-1.43-.85-2.46-1.28-3.73 9.66-3.53 19.03-6.95 28.71-10.49.56 1.29 1.02 2.36 1.61 3.72-9.74 3.52-19.13 6.92-29.03 10.5Z" style="fill:#7b5b3b;stroke-width:0"/></svg>