<svg xmlns="http://www.w3.org/2000/svg" viewBox="0 0 128 128"><path d="M82.8 106.97c-8.83 13.3-27.42 14.51-37.41.48-2.39 2.19-4.54 4.78-7.23 6.51-7.27 4.68-15.05 4.81-22.54.7-7.22-3.97-10.98-10.35-10.98-18.73-.01-13.87-.06-27.74.05-41.61.02-2.23.78-4.46 1.18-6.57-.41-4.32-1.03-8.66-1.18-13.02-.21-6.03-.07-12.08-.04-18.12.02-3.77 2.41-6.19 6.15-6.2 8.44-.03 16.87 0 25.31 0h80.73c4.2 0 6.54 2.3 6.54 6.44.02 7.6.16 15.21-.08 22.81-.08 2.7-1.09 5.36-1.44 6.94.63 3.13 1.42 5.34 1.46 7.57.15 8.64.06 17.29.06 25.93 0 5.43-.08 10.86.02 16.29.19 11.13-10.09 20.96-20.82 21.01-8.55.04-14.83-3.41-19.77-10.42Z" style="fill:#4a3726;stroke-width:0"/><path d="M11.48 17.34h29.66c.11.75.31 1.44.3 2.13-.14 6.96.14 13.97-.61 20.87-.84 7.76-8 12.61-16.35 11.95-6.95-.55-12.88-6.89-12.98-14.08-.09-6.85-.02-13.71-.02-20.88Zm37.63.08H79c0 2.64.05 5.29 0 7.95-.1 4.97.31 10.04-.54 14.89-1.41 8.1-7.39 12.36-15.59 12.07a14.206 14.206 0 0 1-13.62-13.02c-.64-7.19-.14-14.48-.14-21.89m37.94-.01h29.4c0 7.63.45 15.13-.13 22.55-.56 7.18-7.21 12.36-14.55 12.38-7.53.03-13.94-4.81-14.58-12.19-.65-7.41-.14-14.92-.14-22.74m-38.04 70.7c6.42-1.34 11.19-4.94 14.99-10.4 3.82 5.41 8.52 9.11 15.28 10.43-.31 3.92-.13 7.83-1 11.49-1.76 7.38-9.11 11.84-16.75 10.73-6.83-.99-12.4-7.49-12.51-14.65-.04-2.49 0-4.97 0-7.61Zm-7.36.01c-.23 3.53-.19 6.77-.7 9.91-1.31 8.03-8.07 13.02-16.38 12.36-7.28-.57-13.02-7.11-13.1-14.92-.02-2.38 0-4.76 0-7.31 6.14-1.59 11.11-4.74 14.78-10.45 3.78 5.39 8.6 9.05 15.41 10.41Zm44.94-.01c6.58-1.46 11.45-4.94 15.03-10.28 5.22 6.43 6.75 7.5 14.62 10.31 0 3.62.6 7.36-.12 10.81-1.59 7.65-8.33 12.11-16.21 11.44-7-.59-12.69-6.77-13.28-14.6-.19-2.47-.03-4.97-.03-7.68ZM30.24 59.09c6.39-1.52 11.24-4.84 14.93-10.44 3.75 5.62 8.65 9.06 14.96 10.48.21 5.68.66 11.17-2.8 16.04-3.71 5.22-10.28 7.51-16.53 5.7-5.96-1.73-10.45-7.65-10.55-13.98-.04-2.49 0-4.98 0-7.8Zm37.53.04c6.4-1.48 11.28-4.79 15.01-10.46 3.75 5.49 8.56 9.03 14.87 10.33.18 5.93.95 11.68-2.98 16.64-4.01 5.05-10.35 7.02-16.44 5.06s-10.11-7.31-10.44-14.07c-.12-2.38-.02-4.77-.02-7.5m37.87.43c3.58-1.76 7.07-3.49 10.66-5.26v26.23c-7.9-1.41-12.26-10.03-10.66-20.97M11.72 54.3c3.53 1.75 7.02 3.47 10.61 5.25 1.75 10.49-2.66 19.51-10.61 20.87z" style="fill:#a5805b;stroke-width:0"/></svg>