<svg xmlns="http://www.w3.org/2000/svg" viewBox="0 0 128 128"><path d="M51.62 22.41c4.82-1.42 8.41.18 11.8 3.06 7.35 6.24 14.85 12.31 22.26 18.47 6.76 5.61 5.73 12.85-2.29 16.41-.63.28-1.18.74-1.7 1.07-.67 2.44.54 3.67 2.53 4.15 2 .48 3.09-.46 3.73-2.52 2.28-7.32 9.43-9.4 15.36-4.57 4.17 3.4 8.31 6.84 12.43 10.29 5.65 4.73 6.22 11.28 1.26 16.81-16.89 18.77-37.71 30.82-62.4 36.12-12.01 2.58-24.14 3.03-36.35 1.75-7.13-.75-11.21-5.48-10.59-12.59.27-3.13.68-6.28 1.4-9.33 1.17-4.96 4.78-7.28 9.64-7.86-.08-.38-.06-.69-.17-.75-5.67-3.13-7.13-7.76-6.11-14.09C15.96 57 19.07 35.09 22.46 13.24c1.33-8.59 10.9-12.22 17.74-6.85 2 1.57 3.85 3.32 5.9 4.81 3.7 2.69 5.86 6.1 5.51 11.21Z" style="fill:#4a3726;stroke-width:0"/><path d="M15.2 113.26c.56-3.66 1.14-7.42 1.74-11.32 4.92-.3 8.59-2.12 9.63-6.85 1.2-5.43-2.23-8.47-6.89-10.9.45-3.22.87-6.41 1.36-9.58 3.02-19.76 6.05-39.51 9.11-59.26.6-3.85 2.83-4.69 5.87-2.26 2.6 2.08 5.14 4.24 7.5 6.2.85 10.66 3.25 12.69 12.41 10.21 8.66 7.15 17.59 14.52 27.1 22.37-6.6 2.48-10.58 6.24-9.19 13.01.93 4.56 4.18 7.58 8.72 8.37 7.48 1.3 11.87-2.57 13.77-10.54 5.88 5.45 12.15 9.08 16.88 15.27-16.56 19.29-36.82 31.34-61.22 36.21-16.24 3.24-33.01 2.74-36.76-.93Z" style="fill:#e5dd75;stroke-width:0"/><path d="M54.81 68.13c0 6.7-5.28 12.06-11.9 12.08-6.28.02-11.84-5.52-11.92-11.87-.09-6.58 5.34-12.02 12-12.02 6.46 0 11.81 5.34 11.82 11.8Zm.38 17.14c-.03-2.98 2.34-5.45 5.3-5.5 3.28-.06 6.51 3.08 6.51 6.34 0 2.9-2.53 5.49-5.38 5.51-3.5.03-6.4-2.83-6.43-6.35" style="fill:#4a3726;stroke-width:0"/></svg>