<svg xmlns="http://www.w3.org/2000/svg" data-name="fill_drymaize2" viewBox="0 0 128 128"><defs><linearGradient id="a" x1="-881.69" x2="-844.28" y1="54.86" y2="202.18" gradientTransform="translate(518)scale(.5)" gradientUnits="userSpaceOnUse"><stop offset="0" stop-color="#80bb64"/><stop offset=".23" stop-color="#6a9c53"/><stop offset="1" stop-color="#417a24"/></linearGradient><linearGradient id="b" x1="-988.74" x2="-869.39" y1="118.26" y2="212.38" gradientTransform="translate(518)scale(.5)" gradientUnits="userSpaceOnUse"><stop offset="0" stop-color="#80ba64"/><stop offset="1" stop-color="#2d571a"/></linearGradient><linearGradient id="c" x1="-981.38" x2="-891.28" y1="42.73" y2="115.78" gradientTransform="translate(518)scale(.5)" gradientUnits="userSpaceOnUse"><stop offset="0" stop-color="#d1ba67"/><stop offset="1" stop-color="#b38e0a"/></linearGradient></defs><path d="M76.68 30.03c.91-2.06 4.63-7.54 6.53-8.22 3.39-1.21 6.77.17 7.85 3.61 1.18 3.74 1.68 8.68 2.77 12.73 2.11 7.87 4.94 15.8 8.27 23.23 4.65 10.37 11.71 18.49 6.34 30.66-.88 2-5.59 7.34-5.68 7.82-.11.55 1.82 3.74 1.94 5.44.17 2.28-.61 4.64-2.27 6.24-1.18 1.14-13.34 8.18-15.13 8.87-5.25 2.02-9.61-.73-11.15-5.86-10.04 2.89-18.75-1.5-24.68-9.55-9.91-13.45-15.66-22.49-28.03-34.47-2.02-1.95-5.49-3.6-5.78-6.73-.67-7.18 8.02-6.88 13.02-7.26-1.35-4.84-3.3-9.46-4.34-14.4-2.32-11.02-3.49-29.87 9.86-34.33 12.62-4.22 27.29 8.1 35.25 16.73 1.22 1.32 2.76 3.95 3.98 5.02.43.38.56.64 1.26.48Z" style="fill:#040502"/><path d="M85.06 24.11c1.31-.26 2.68.34 3.26 1.55 2.32 12.26 5.69 24.33 10.78 35.72 4.05 9.06 10.99 17.26 7.48 27.8-2.63 7.87-10.7 13.03-18.15 15.7-.94-.1-6.11-8-6.95-9.38-11.51-18.83-16.05-41.37-4.5-61.42 1.21-2.1 5.98-9.55 8.08-9.96Z" style="fill:url(#a)"/><path d="M69.05 73.17a92.45 92.45 0 0 0 17.13 33.62c-9.98 7.15-22.07 8.78-30.74-1.25-3.14-3.63-5.24-8.1-8.03-11.97-5.89-8.18-12.91-16.35-20.2-23.3-2.64-2.51-10.54-6.76-5.03-10.02 17.06-3.79 33.96 1.65 46.88 12.91Z" style="fill:url(#b)"/><path d="M72.38 30.35c.63.76 2.17 1.44 2.24 2.84-3.84 6.62-6.5 14.89-6.95 22.57-.26 4.46.53 8.84.52 13.27-9.78-7.72-21.79-12.76-34.43-12.56-4.41-10.85-10.16-31.5-2.56-41.69 11.56-15.5 33.4 6.1 41.19 15.57Z" style="fill:url(#c)"/><path d="M78.69 113.54c4.32-.6 7.41-3.98 10.84-5.92 2.26-1.28 4.71-2.26 7-3.5 1.89-1.02 3.32-3.38 4.77-.94 1.3 2.18 1.07 4.26-.58 6.13-1.12 1.27-12.37 7.75-14.41 8.59-3.91 1.62-6.6-.62-7.62-4.36" style="fill:#6eac50"/><path d="M77.77 41.69c.87 1.7-.66 3.98-1.02 5.74-1.19 4.18-1.69 9.18-1.29 13.58.19 1.99-1.33 3.87-2.43 1.43-1.24-3.27-.18-21.64 4.67-20.82zM45.71 84.97c-1.65 1.02-4.41-2.71-5.55-3.85-2.72-3.34-6.87-5.69-9.13-9.39-.59-1.33.16-1.92 1.54-1.41 2.13.84 3.95 2.87 5.65 4.45 2.29 2.55 8.19 7.11 7.54 10.14l-.05.07Z" style="fill:#b8d8a9"/><path d="M67.12 41.1c.99.68 1.07 4.53.72 5.84-.92 3.5-3.26 2.99-3.91 4.08-.39.65-.33 2.6-.71 3.79-1.02 3.2-3.56 4.41-6.79 4.26-2.69-.13-5.65-2.06-4.74-5.04 2.62-.61 2.94 2.42 5.25 2.55s4.5-2.44 3.69-4.74c-.42-1.18-5.86-1.87-4.44-5.31 2.25.57 2.33-.73 4-1.5l-.5 3.5c5.82.73 6.16-2.82 5.5-7.5.56.09 1.54-.2 1.93.07m-22.93-.57c-.5 5.45-6.76 8.02-10.77 4.01-.72-.72-1.12-1.51-.49-2.52.98-1.58 1.77.82 2.28 1.23 2.41 1.92 6.45.68 6.89-2.61.2-1.53-1.46-3.24-.41-3.87 1.72-1.03 2.56 1.76 3.85 2.15 2.05.62 3.82-.17 4.86-1.94 1.69-2.87-.38-3.72-.21-4.7.11-.62 1.34-1.05 2.03-.54 1.17.86 1.06 4.36.63 5.7-1.01 3.22-5.9 5.2-8.66 3.08Z" style="fill:#d3a40f"/><path d="M29 23.23c.63-2.37 1.61-5.55 3.4-7.38.84-.86 1.94-.7 1.97.56.18 1.32-1.02 3.49-1.59 5.33-1.16 3.24-.54 6.83-1.46 10.2-1.3 3.36-2.64-.07-2.62-1.97-.09-2.16-.15-4.49.26-6.54z" style="fill:#feefba"/><path d="M50.94 18.03c1.81-.51 2.31 2.48 2.27 3.73-.16 5.31-7.53 7.99-11.03 4.02-.55-.62-1.64-2.37-.24-2.75 1.5-.41 1.65 1.35 2.54 1.94 2 1.33 5.76.21 6.19-2.21.23-1.3-.92-4.4.26-4.73Z" style="fill:#d3a40f"/></svg>