<svg xmlns="http://www.w3.org/2000/svg" data-name="fill_soupcan" viewBox="0 0 128 128"><defs><linearGradient id="a" x1="-2035.8" x2="-2135.8" y1="-592.29" y2="-592.15" gradientTransform="matrix(.5 0 0 .5 1110 370)" gradientUnits="userSpaceOnUse"><stop offset="0" stop-color="#f7b132"/><stop offset=".23" stop-color="#f6ae30"/><stop offset="1" stop-color="#ce6006"/></linearGradient><linearGradient id="b" x1="-2135.01" x2="-2035.01" y1="-547.46" y2="-547.45" gradientTransform="matrix(.5 0 0 .5 1110 370)" gradientUnits="userSpaceOnUse"><stop offset="0" stop-color="#9b2112"/><stop offset=".53" stop-color="#df0813"/><stop offset="1" stop-color="#aa1110"/></linearGradient><linearGradient id="c" x1="-2035.79" x2="-2135.79" y1="-640.16" y2="-639.95" gradientTransform="matrix(.5 0 0 .5 1110 370)" gradientUnits="userSpaceOnUse"><stop offset="0" stop-color="#aa1110"/><stop offset=".47" stop-color="#df0813"/><stop offset="1" stop-color="#9b2112"/></linearGradient></defs><path d="M40.67 107.83c-1.23-1.37-2.12-3.7-2.19-5.56V28.73c.22-4.79 4.39-7.47 8.39-9.11 11.29-4.64 29.37-4.86 40.76-.5 3.69 1.41 8.89 4.25 9.38 8.62v75.03c-.71 8.31-13.98 11.31-20.82 12.17-9.19 1.16-28.95.23-35.52-7.11" style="fill:#0d0c0c"/><path d="M41.5 66.5c4.04 1 7.85 2.43 12 3 .41-5.64 4.5-14.15 10.14-16.11 2.29-.8 2.76.05 4.62.12.86.03 1.53-.46 2.76-.31 5.47.67 11.5 10.93 11 16.3l12.5-3v10.25c-3.66 2.11-8.21 2.55-12.21 3.79-2.02 3.72-3.39 8.46-6.77 11.23-9.79 8.02-19.28-1.69-21.84-11.31-4.07-1.07-8.55-1.57-12.18-3.71V66.5Z" style="fill:url(#a)"/><path d="M94 104c-1.64 4.43-8.71 6.33-12.99 7.26-9.85 2.12-26.84 2.01-35.66-3.36-.87-.53-3.85-2.82-3.85-3.65V80c2.25 1.19 8.26 1.64 9.99 2.76.96.62 1.79 4.64 2.51 5.89.46.79 3.2 3.87 3.99 4.61 10.65 9.86 22.75.91 26.08-10.68 3.04-.37 5.97-1.33 8.92-2.07l1.07-.25c.43 7.85.41 15.77-.07 23.75Z" style="fill:url(#b)"/><path d="M93.5 34.5c.28.05.5.1.5.15.15 9.43.13 19.07-.03 28.51 0 .12-.21.23-.47.34-1.44.72-7.88 3.11-9.02 2.29-.41-.3-1.77-4.92-2.38-6.13-8.57-16.72-27.71-9.92-30.6 6.34-3.5.09-6.66-1.72-9.99-2.49v-29.5c1.42.16 2.39 1.47 3.66 2.09 12.35 6.06 36.59 5.87 48.34-1.59Z" style="fill:url(#c)"/><path d="M59 19.5c9.64-1.31 21.32-1.43 29.86 3.49 3.3 1.9 8.17 3.79 4.14 8.27-5.63 6.26-24.88 7.05-32.7 6.18-4.41-.49-18.84-3.44-18.84-9.19 0-5.69 12.25-8.11 16.53-8.75 1.04.89 1.38.89 1 0Z" style="fill:#a9aaa9"/><path d="m59 19.5 2 1.76c.38 1.69-5.83 2.17-7.38 2.61-1.29.36-6.02 2.7-6.36 2.63-.68-.13-1.07-1.91-.7-2.45.15-.22 4.33-2.08 4.95-2.3 1.47-.52 3.28-.85 4.82-1.2.91-.21 1.96.5 1.67-1.06.32-.05.68.04 1 0Z" style="fill:#cfd0d0"/><path d="M93.5 34.5c.25-.16.4-1.07 1-1l-.06 29.95c-.29.2-.77-.03-.94.05zm-.5 46c.25-.06.68-.84 1.5-.5-.6 7.24.8 15.71.03 22.8-.08.76-.41.89-.53 1.2-.21-7.23.29-14.54 0-21.77-.04-.97.52-2.01-1-1.73" style="fill:#b61412"/><path d="M55.5 75v-7.25c0-1.12 2.61-7.52 3.49-8.51.92-1.04 3.93-3.41 4.48-.93.16.7-2.3 2.64-2.89 3.52-1.33 1.97-2.24 5.12-2.52 7.48-.31 2.58 1.15 6.29-2.56 5.69" style="fill:#efa32a"/><path d="M78.13 30.37c-.86-.85-1.42-3.19-.88-4.36 1.83-3.96 14.05-4.25 14.66 1.37.57 5.24-10.89 5.84-13.77 2.99Z" style="fill:#0d0c0c"/><path d="M89 28.49c-.08.12-2.48.83-2.86.89-1.92.31-3.37.14-5.13-.66-.64-.29-1.18.08-1.01-.98.49-3.13 10.88-2 9.01.75Z" style="fill:#6d6d6c"/></svg>