<svg xmlns="http://www.w3.org/2000/svg" data-name="fill_clover" viewBox="0 0 128 128"><defs><linearGradient id="a" x1="48.97" x2="80.89" y1="118.08" y2="13.68" gradientUnits="userSpaceOnUse"><stop offset="0" stop-color="#7b5b3b"/><stop offset=".3" stop-color="#50984f"/><stop offset=".96" stop-color="#29a45f"/><stop offset="1" stop-color="#2ba45e"/></linearGradient></defs><path d="M117.63 88.36c-1.15 3.46-3.39 6.02-6.48 7.4-2.5 1.03-4.99.7-7.19.41-.64-.09-1.26-.17-1.88-.22-2.08-.1-2.63.38-2.72.47-.59.66-.18 3.25.1 4.96.19 1.2.39 2.45.45 3.68.05 4.82-2.58 8.53-7.21 10.25-5.98 2.22-15.4.68-20.8-5.72-3.79-4.55-5.85-9.7-6.88-17.24-.09-.55-.2-1.28-.32-2.09-.25-1.71-.66-4.52-1.22-6.9-.21.83-.37 1.48-.56 1.97-1.55 5.54-2.11 10.2-1.71 14.26v.28c-.03.99.15 2.75.34 4.61.74 7.32 1.76 17.29-4.96 18.17-.2.02-.31.02-.43.02-2.46 0-4.32-1.89-4.74-4.82-.55-3.44-1.12-11.72-1.1-18.52 0-4.98.35-9.02 2.1-13.77.58-1.68 1.31-3.49 2-5.24.52-1.28 1.05-2.61 1.51-3.86-1.98.94-4.88 3.34-6.33 4.54-1.43 1.19-2.79 2.31-3.96 3.04-8 6.08-19.17 7.56-27.19 3.61-4.41-2.26-7.83-6.8-8.73-11.6-.65-3.52.15-6.77 2.27-9.14 1.02-1.16 2.46-2.11 3.84-3.02 1.44-.96 3.42-2.26 3.59-3.18.06-.32-.14-.82-.57-1.4-.48-.63-1.31-1.28-2.2-1.97-1.47-1.14-3.14-2.44-4.15-4.47-1.74-3.78-1.42-7.92.88-11.7 2.93-4.82 8.75-8.36 14.15-8.62 11.01-.86 18.21 8.28 23.98 15.63 1.19 1.5 2.3 2.92 3.42 4.24.23.27.45.54.68.83 2.87 3.52 4.29 4.52 5.5 3.85 1.04-1.1.37-3.09-1.29-6.54q-.33-.66-.6-1.26l-.06-.13c-.71-1.64-1.52-3.25-2.38-4.95-2.22-4.41-4.5-8.95-5.16-13.75-1.48-9.75 5.1-19.22 12.17-21.92 5.67-2.17 11.26-.1 14.96 5.54.82 1.35 1.33 2.73 1.77 3.94.36.96.69 1.87 1.1 2.63.24.42.78 1.42 2.64.43.74-.37 1.48-.88 2.26-1.42 1.94-1.34 4.37-3.01 7.33-2.95h.1c5.56.48 10.17 4.43 12.33 10.57 2.06 5.86 1.77 14.04-3.54 19.11-4.58 4.32-10.58 6.8-16.38 9.21-3.44 1.43-6.68 2.77-9.49 4.41-2.56 1.33-4.3 3.32-4.58 4.17.18.11.56.26 1.17.39l2.75.26c3.34.15 7.08-.13 10.71-.4 11.04-.82 23.54-1.76 29.25 9.32 2.39 4.3 2.97 10.05 1.46 14.6"/><path d="M61.49 48.25c1.46 3.21 4.38 7.95 1.16 10.84-3.91 2.64-7.34-2.3-9.63-5.04-6.83-8.04-13.63-19.92-25.38-18.99-7.75.36-16.57 8.75-12.91 16.7 1.32 2.65 4.48 3.89 6.14 6.09 3.94 5.42-4.2 7.54-7.02 10.73-4.31 4.82-.56 13.63 5.7 16.83 7.86 3.87 17.94 1.73 24.67-3.42 3.69-2.25 10.64-10.04 14.48-8.09.36.41.32 1.23-.07 2.44-1.12 3.22-2.73 6.8-3.87 10.09-1.63 4.41-1.95 8.14-1.95 12.9-.02 6.7.54 14.77 1.08 18.16.18 1.29.87 2.78 2.37 2.67 5.73-.75 2.27-15.85 2.45-20.34-.48-4.95.43-10.29 1.85-15.34.57-1.46 1.48-7.3 2.93-7.13 2.49 2 3.36 10.75 4.01 14.65.83 6.1 2.42 11.29 6.31 15.96 7.21 8.54 23.7 7.73 23.61-2.79-.27-5.25-3.58-12.18 4.85-11.73 2.63.2 5.44 1.01 7.86.02 6.78-3.04 7.07-12.74 3.82-18.58-7.17-13.92-27.12-5.94-40.79-7.84-7-1.33-1.73-7.05 2.45-9.2 7.82-4.58 18.59-6.85 25.41-13.27 7.65-7.31 3.64-24.44-7.21-25.37-3.19-.06-5.69 2.71-8.37 4.08-2.4 1.27-4.75.84-6-1.44-1.09-1.99-1.57-4.42-2.77-6.39-8.74-13.32-24.6 1.26-22.57 14.66.86 6.2 4.92 12.43 7.32 17.95l.08.17Zm8.57 12.65s-.01.02-.02.02c0 0 .01-.02.02-.02" style="fill:url(#a)"/><path d="M91.77 91.66c-1.93 1.47-6.25-5.25-7.96-6.49-6.43-6.43-15.87-10.59-23.42-15.55-4.08-1.92-8.76-3.08-14.16-4.68-2.69-.74-5.28-1.2-8.05-1.28-3.45-.16-7.31.14-10.21.09-2.87-.1-3.12-2.21-.76-2.83 6.97-.74 13.91-.79 20.82 1.29 2.86.8 5.95 1.77 8.72 2.67 1.85.47 3.59 1.66 5.06.67 2.99-3.54 5.42-9.17 8.01-13.35 2.65-4.91 5.33-8.84 6.6-14.38.41-1.61.79-3.3 1.15-4.94.42-1.82.7-4.03 1.53-5.51.79-1.41 1.86-1.53 2.26-.32.39 1.08-.02 2.91-.45 4.99-.83 3.85-1.71 8.11-3.13 11.66-3.01 6.7-9 16.4-12.1 22.11-1.12 1.84-.44 3.18 1.49 4.25 1.61.99 3.6 2.12 5.34 3.17 5.55 3.32 10.82 6.51 15.1 11.4 1.3 1.71 5.49 4.89 4.21 6.96l-.05.05Z" style="fill:#4c8e25"/></svg>