<svg xmlns="http://www.w3.org/2000/svg" data-name="fill_soybeanflour" viewBox="0 0 128 128"><defs><linearGradient id="a" x1="-315.88" x2="-316.04" y1="-1303.09" y2="-1110.1" gradientTransform="matrix(.5 0 0 .5 222 666)" gradientUnits="userSpaceOnUse"><stop offset="0" stop-color="#e7c393"/><stop offset="1" stop-color="#a77b51"/></linearGradient><linearGradient id="b" x1="-1442.81" x2="-1503.31" y1="1262.82" y2="1373.21" gradientTransform="matrix(.5 0 0 .5 814 -592)" gradientUnits="userSpaceOnUse"><stop offset="0" stop-color="#ecdc66"/><stop offset="1" stop-color="#ddbb42"/></linearGradient><linearGradient id="c" x1="-1463.66" x2="-1551.36" y1="1283.42" y2="1341.98" gradientTransform="matrix(.5 0 0 .5 814 -592)" gradientUnits="userSpaceOnUse"><stop offset="0" stop-color="#ddbb41"/><stop offset=".38" stop-color="#ddbb42"/><stop offset="1" stop-color="#ecdc66"/></linearGradient><linearGradient id="d" x1="-1507.02" x2="-1487.7" y1="1313.04" y2="1313.68" gradientTransform="matrix(.5 0 0 .5 814 -592)" gradientUnits="userSpaceOnUse"><stop offset="0" stop-color="#fef3b9"/><stop offset="1" stop-color="#fedf6e"/></linearGradient><linearGradient id="e" x1="-1516.89" x2="-1540.63" y1="1331.37" y2="1331.5" gradientTransform="matrix(.5 0 0 .5 814 -592)" gradientUnits="userSpaceOnUse"><stop offset="0" stop-color="#fedd69"/><stop offset="1" stop-color="#fef5bd"/></linearGradient></defs><path d="M21.39 115.28c-.31-.31-.58-1.23-.6-1.68-.18-3.29 5.11-9.9 5.27-12.94.11-2.05-2.59-10.63-3.13-13.66-2.87-16.07-2.87-31.13 0-47.19.6-3.37 3.16-11.1 3.11-13.66-.06-3.01-5.43-9.72-5.25-12.95.02-.45.29-1.37.6-1.68l84.89.12c.48.4.51.94.54 1.51.13 3.07-4.54 9.65-5.35 13 6.26 19.94 7.32 40.29 3.66 60.86-.59 3.34-3.18 11.08-3.13 13.65.06 3.14 6.16 11.51 4.53 14.25-.45.76-2.12 1.03-2.98 1.01-25.98-1.41-53.79 1.79-79.54 0-.77-.05-2.07-.1-2.61-.64Z" style="fill:#020201"/><path d="M103.77 13.9c-.38 3.52-5.19 9.61-5.04 12.74.07 1.44 1.5 4.4 1.9 6.15 4.6 19.91 5.33 35.46 1.5 55.72-.88 4.66-3.71 11.05-2.1 15.39 1.04 2.81 3.37 5.9 3.75 9H23.77l5-11.79c-6.91-24.8-7.31-50.19.02-74.97L23.77 13.9z" style="fill:url(#a)"/><path d="M70.77 101.9c-4.76.59-9.73.51-14.5 0-1.36-1.34-.38-2.34 1.23-2.52s11.85-.25 12.95.1 1.16 1.61.32 2.43Z" style="fill:#080805"/><path d="M57.27 25.4c4.04-.62 8.45-.6 12.5 0 1.95.28 2.08 1.51.5 2.5-4.27.58-8.71.49-13 0-2.12-.84-2.25-2.17 0-2.5" style="fill:#020201"/><path d="M91.02 99.4c.68.21 1.06 1.93.71 2.46-.53.8-9.38.79-9.91 0-.37-.55.13-2.46.71-2.46 1.83 0 7.28-.38 8.5 0Zm-46 0c.82.25.83 1.73.75 2.5-1.75-.48-9.3 1.72-9.96-.29-.23-.69.11-2.2.71-2.2 1.83 0 7.27-.38 8.5 0Z" style="fill:#080805"/><path d="M36.52 27.9c-2-.31-1.48-2.5 0-2.5h8.5c.94 0 .94 2.5 0 2.5-2.47 0-6.25.35-8.5 0m46 0c-2-.31-1.48-2.5 0-2.5h8.5c.94 0 .94 2.5 0 2.5-2.47 0-6.25.35-8.5 0" style="fill:#020201"/><path d="M70.27 27.9c-.46.29-.42.45-1.2.53-2.48.27-7.57.21-10.11 0-1.03-.08-1.03-.27-1.69-.53zm-.5-2.5c-2.26-.33-10.23-.33-12.5 0 .51-.83 1.9-.5 2.74-.51 2.33-.02 4.68-.03 7.01 0 .84 0 2.24-.33 2.74.51Z" style="fill:#e5c192"/><path d="M55.04 82.38c-4.31 1.22-8.74 1.74-13.04.2-4.63-1.66-12.72-7.88-7.94-13.25 1.44-1.62 6.41-2.43 8.71-3.24 12.66-4.43 24-13.97 32.15-24.45 2.93-3.76 6.24-11.51 12.25-7.81 3.93 2.42 7.85 9.02 8.2 13.61.39 5.19-1.23 7.22-3.1 11.55-2.62 6.05-.46 11.41-4.52 17.29-1.96 2.84-5.08 4.4-7.3 6.78-1.23 1.32-2.3 4.28-3.47 5.92-4.73 6.65-12.56 7.17-19.93 5.06-2.99-.85-6.13-2.54-5.81-6.21.25-2.8 2.09-3.66 3.81-5.46Z" style="fill:#070603"/><path d="M78.93 82.53c-1.94 2.34-2.65 5.5-5.25 7.85-4.6 4.14-12.99 4.03-18.36 1.51-2.33-1.09-3.43-3.72-1.81-5.95 1.12-1.54 4.6-3.84 6.2-5.4 8.98-8.77 15.13-20.58 18.44-32.63.9-3.28 1.4-8.15 2.5-11.02s4.15-3.08 6.42-1.33c5.29 4.1 7.98 11.26 6.15 17.76-.85 3.02-3.38 6.23-3.89 9.36-.54 3.33.08 6.02-1.25 9.52-2.06 5.42-5.93 6.43-9.15 10.31Z" style="fill:url(#b)"/><path d="M77.61 43.66c-.17.17-.61.2-.85.38-2.89 2.14-5.1 5.39-4.58 9.19.16 1.2 1.31 2.53 1.36 3.36s-.82 1.74-.83 2.6l-3.57-1.81c-10.2-2.17-17.28 14.46-4.16 14.92-.88.69-1.41 2.08-2.19 2.78-.72.64-1.49.63-2.21 1.1-2.04 1.34-2.65 3.13-5.34 4.32-6.78 2.99-16.53 1.48-20.46-5.31-1.43-2.47-.42-4.83 2.18-5.79s5.69-1.54 8.43-2.62c13.36-5.28 24.82-15.85 32.99-27.46.24.73-.35 3.93-.76 4.35Z" style="fill:url(#c)"/><path d="M69.56 65.15c-.26.47-.62 1.15-.94 1.67-.55.89-1.92 3.23-2.75 3.6-1.87.85-4.84.12-5.92-1.67-3.17-5.23 4.87-12.1 9.92-9.64.38.19 1.61 1.29 1.7 1.63.14.53-1.61 3.67-2.01 4.4Z" style="fill:url(#d)"/><path d="M76.26 47.35c.69.48 0 2.48-.25 3.28-.14.44-1.24 4.15-1.79 3.87-1-.52-.64-3.53-.34-4.48.25-.78 1.34-3.39 2.37-2.67Zm4.34-3.88c.54-.18 1.2.01 1.21.64.01.82-.89 4.19-1.17 5.19-.36 1.28-1.93 5.94-2.67 6.71-.68.71-1.53.45-1.34-.5.89-2.09 1.87-4.15 2.51-6.34.49-1.68.65-3.36 1.04-5.03.07-.3.07-.56.43-.68ZM63.5 78.82c.64-.17 1.05.27.88.88-.04.13-1.48 1.82-1.75 2.12-.93 1.05-4.89 4.9-5.95 5.37-.97.44-1.83-.17-1.12-1.12.32-.42 1.69-1.15 2.23-1.63.9-.81 5.19-5.48 5.7-5.62Z" style="fill:#fdf7d0"/><path d="M44.63 68.65c3.4-2.95 12.18-2.66 13.32 2.66 1.61 7.49-9.67 12.39-14.79 7.34-1.82-1.8-2.21-4.56-1.05-6.86.3-.58 2.04-2.72 2.52-3.14" style="fill:#0c0b06"/><path d="M36.89 72.23c-.55.65-.08 1.93-1.73 1.58-.54-2.43 2.6-4.78 4.69-3.45.34 1.22-2.25 1.03-2.96 1.87" style="fill:#fdf7d0"/><path d="M62.13 61.99c.67-.2 1.37.08 1.15.88-.14.49-1.26 1.13-1.51 2.38-.17.83.68 2.76-1.05 2.19-1.24-.41-.05-5.02 1.41-5.45" style="fill:#fefdf7"/><path d="M44.08 77.59c-2.12-2.12-1.1-6.07 1.31-7.49.52-.31 1.02-.16 1.35-.33 1.31-.68 1.45-1.34 3.18-1.47 3.6-.27 7.67 1.51 6.57 5.74-1.19 4.6-9.1 6.87-12.42 3.55Z" style="fill:url(#e)"/><path d="M49.79 69.67c.3 1.64-1.04 1.35-2.12 1.88s-1.65 1.14-2.22 2.2c-.16.29-.3 1.1-.37 1.15-.64.45-1.44-.08-1.24-1.09.16-.87 2.03-3.19 2.72-3.51.62-.29 1.25.38 1.04-.9l2.21.28Z" style="fill:#fefdf7"/></svg>