<svg xmlns="http://www.w3.org/2000/svg" data-name="fill_compost" viewBox="0 0 128 128"><path d="M48.47 56.27c-2.1 1.06-4.12 2.41-6.33 3.12-3.62 1.17-6.88.1-9.4-2.73-2.64-2.95-3.27-6.56-1.5-9.95 2.77-5.32 2.97-10.19-.26-15.4-2.17-3.51-1.44-7.88 1.24-10.76 2.84-3.06 6.36-3.86 10.28-2.55 1.76.59 3.43 1.47 5.14 2.21.28-8.52 6.83-12.06 13.59-9.46 3.53 1.36 7.09 3.24 9.89 5.73 7.54 6.71 10.07 15.59 9.56 25.47-.06 1.15-.19 2.29-.28 3.3 3.4-1.19 6.55-2.61 9.86-3.38 4.29-1 8.08.91 10.09 4.49 1.97 3.52 1.29 8.05-1.59 11.28-1.64 1.84-3.35 3.67-4.63 5.75-.86 1.4-1 3.24-1.44 4.8 8.7.51 16.89 1.08 24.34 4.92 1.89.98 3.22 3.07 4.76 4.69.67.7 1.12 1.61 1.81 2.28 5.08 4.95 4.12 12.24-2.39 15.13-3.55 1.58-7.55 2.18-11.35 3.16-.83.21-1.72.19-2.55.27-.03.34-.14.58-.06.7 4.78 7.83.14 15.63-8.88 17.44-4.7.95-9.65.9-14.48.97-14.46.19-28.93.31-43.39.27-6.57-.02-13.05-.88-18.94-4.18-6.96-3.91-9.15-9.54-6.68-15.61-3.59-2.22-7.44-3.93-10.43-6.6C-.63 87.08.39 79.35 6.16 75.59c5.54-3.6 11.91-4.76 18.26-5.67 6.07-.87 12.2-1.31 18.3-1.96.97-.1 1.92-.28 2.39-.34 1.32-3.93 2.51-7.46 3.69-10.99a.48.48 0 0 1-.32-.39Z" style="fill:#4a3726;stroke-width:0"/><path d="M56.63 110.3c-7.71-.17-15.44-.09-23.13-.62-2.95-.2-5.95-1.49-8.63-2.87-1.61-.83-2.63-2.78-3.93-4.25 3.08-3.69 8.2-3.87 9.61-9.1-1.76-.69-3.47-1.58-5.28-2.02-3.07-.76-6.21-1.23-9.31-1.83-.39-.07-.79-.11-1.16-.25-2.51-.92-5.54-1.67-5.71-4.82-.17-3.12 2.89-3.91 5.19-4.37 7.83-1.59 15.71-2.93 23.6-4.2 2.51-.4 5.11-.3 7.81-.44.6 2 1.13 3.99 1.81 5.93 1.85 5.3 5.12 9.58 9.7 12.79 3.4 2.38 7.32 2.27 10.52-.1 3.27-2.43 4.59-6.37 3.37-10.3-.9-2.88-1.88-5.72-2.94-8.92h3.35c2.06 5.14 5.3 9.41 10.02 12.46 3.55 2.3 7.19 2.72 10.81.22 3.69-2.55 4.27-6.19 3.37-10.28-.08-.35-.11-.72-.31-2.06 6.27 1.51 12.1 2.77 17.83 4.4.99.28 6.49 5.11 6.49 7.23-3.62 3.12-7.51 3.64-11.4 3.88-5.33.33-10.68.28-16.01.63-2.54.17-5.09.73-7.55 1.4-1.22.33-2.26 1.29-3.39 1.97.03.34.06.68.1 1.02 1.62.47 3.26.91 4.87 1.4 3.49 1.05 7.02 2 10.44 3.27 1.32.49 2.46 1.64 3.52 2.66 1.73 1.67 1.52 3.55-.41 4.74-1.54.95-3.43 1.72-5.21 1.81-7.11.36-37.45 0-38.02.62Z" style="fill:#674f47;stroke-width:0"/><path d="M55.51 18.06c1.01-.06 2.07-.36 3.01-.13 7.37 1.84 13.32 9.53 14.28 17.23 1.11 8.9-1.42 16.54-6.56 23.59-3.45 4.74-6.01 9.9-5.32 15.93.38 3.3 1.63 6.49 2.38 9.75.27 1.19.21 2.45.32 3.91-3.57-.21-5.05-2.3-6.41-4.28-5.21-7.62-5.5-15.73-1.59-23.91 1.91-3.99 4.38-7.72 6.67-11.53 5.28-8.81 2.96-21.35-5.19-27.55-.7-.53-1.59-.81-2.39-1.21.27-.6.53-1.2.8-1.8m37.4 31.2c1.43 2.37.06 3.59-1.22 4.86-4 3.95-7.06 8.44-6.4 14.34.36 3.18 1.54 6.28 2.42 9.39.26.92.76 1.77 1.58 3.6-1.72-.17-2.94.04-3.75-.43-5.79-3.38-8.02-8.86-7.99-15.2.04-8.17 5.94-14.96 13.87-16.55.46-.09.95-.01 1.5-.01Zm-54.59 2.72c1.01-4.75 2.72-9.08 2.6-13.36s-2.06-8.51-3.25-12.95c3.61-1.09 5.84.77 7.62 2.99 4.06 5.06 4.75 10.81 2.07 16.65-1.59 3.47-3.81 6.72-9.04 6.66Z" style="fill:#6f814f;stroke-width:0"/></svg>