<svg xmlns="http://www.w3.org/2000/svg" data-name="fill_methane" viewBox="0 0 128 128"><path d="M40.72 28.39c0-5.55-.02-11.15 0-16.74.02-6.34 2.69-9.03 8.94-9.04h28.7c6.26 0 8.93 2.7 8.96 9.02.02 5.6 0 11.19 0 16.81 8.51 2.2 14.39 7.15 16.9 15.57.65 2.18.93 4.55.94 6.83.09 11.98-.15 23.97.11 35.94.2 8.94-2.53 16.27-10.07 21.62 2.18 3.28 2.56 6.84 1.99 10.56-.57 3.71-3.3 6.36-7.07 6.38q-26.085.105-52.17 0c-3.87-.01-6.91-2.73-7.03-6.64-.1-3.44.6-6.9 1-10.96-6.73-4.73-9.37-12.2-9.15-21.24.28-11.01.42-22.04-.03-33.04-.49-12.01 5.58-21.85 17.98-25.09Z" style="fill:#4a3726;stroke-width:0"/><path d="M97.67 70.33c0 6.77.1 13.53-.03 20.3-.14 7.43-6.25 13.76-13.66 13.85-13.34.17-26.68.18-40.01 0-7.26-.1-13.46-6.37-13.54-13.66-.16-13.92-.16-27.84 0-41.75.08-6.99 6.51-13.36 13.5-13.43 13.34-.14 26.68-.13 40.02 0 7.17.07 13.53 6.39 13.7 13.54.17 7.05.04 14.11.03 21.17ZM48.42 28.29V10.28h31.11v18.01zm40.98 83.97c.27 1.99.49 3.62.75 5.49H38.03c.16-1.74.32-3.43.51-5.39 1.93-.28 3.42-.68 4.91-.69 13.72-.05 27.44-.04 41.16 0 1.41 0 2.83.34 4.8.59Z" style="fill:#4883af;stroke-width:0"/><path d="M52.84 55.24c1.83 3.7 3.36 6.78 5.27 10.64 3.99-7.6 3.55-15.09 3.6-22.52 14.35 4.86 24.49 19.19 23.77 33.35-.56 11.03-10.53 21.08-21.01 20.81-9.21-.23-16.08-4.74-19.96-13.02-3.87-8.24-2.54-16.19 3.01-23.36 1.51-1.96 3.31-3.7 5.31-5.9Zm21.52-36.21c-.52 2.58-2 3.89-4.82 3.81-3.76-.11-7.52 0-11.29-.04-2.54-.02-4.45-1.57-4.48-3.53-.03-2.21 1.5-3.5 4.31-3.53 3.96-.04 7.91.05 11.87-.03 2.37-.05 3.89.83 4.41 3.31Z" style="fill:#4a3726;stroke-width:0"/><path d="M68.63 55.97c8.32 5.88 11.9 17.59 8.07 25.78-3.53 7.55-11.34 10.51-18.59 7.05-7.32-3.49-10.44-12.37-7.01-19.31 2.36 2.41 4.8 4.9 7.38 7.54 6.42-6.19 9.16-13.16 10.14-21.06Z" style="fill:#cbb256;stroke-width:0"/></svg>