<svg xmlns="http://www.w3.org/2000/svg" data-name="fill_popcorn" viewBox="0 0 128 128"><path d="M104.31 20.43q.06-.555.06-1.14c0-5.53-4.51-10.04-10.05-10.04-1.63 0-3.2.38-4.61 1.11-2.27-3.51-6.2-5.73-10.52-5.73-2.72 0-5.3.86-7.43 2.43C69.9 4.57 66.92 3 63.7 3s-5.98 1.45-7.86 3.79c-2.05-1.39-4.5-2.16-7.03-2.16-4.32 0-8.25 2.22-10.52 5.73a10 10 0 0 0-4.62-1.11c-5.54 0-10.04 4.51-10.04 10.04q0 .585.06 1.14c-5.16 1.58-8.79 6.34-8.79 11.97 0 2.81.94 5.52 2.66 7.72l10.25 82.84a2.313 2.313 0 0 0 2.3 2.04h67.78c1.17 0 2.16-.87 2.3-2.04l10.25-82.84a12.5 12.5 0 0 0 2.66-7.72c0-5.63-3.63-10.39-8.79-11.97m-72.16 99.93-9.74-78.75h10.67l6.34 78.75zm11.92 0-6.34-78.75h13.21l.76 24.92C47.61 70.02 45 75.2 45 80.99c0 6.19 2.99 11.71 7.59 15.17l.73 24.2zm25.97 0H57.96l-.65-21.6c2.08.79 4.33 1.22 6.69 1.22s4.61-.43 6.69-1.22zM64 95.35c-7.92 0-14.36-6.44-14.36-14.36S56.08 66.62 64 66.62s14.36 6.45 14.36 14.37S71.92 95.35 64 95.35m-8.42-53.74h16.84l-.66 22.04a18.98 18.98 0 0 0-15.52 0zm19.09 78.75.74-24.2c4.6-3.47 7.58-8.98 7.58-15.17 0-5.79-2.6-10.97-6.69-14.46l.76-24.92h13.21l-6.34 78.75zm21.17 0h-7.26l6.34-78.75h10.66zM107 36.98H21a7.9 7.9 0 0 1-1.47-4.58c0-3.63 2.39-6.68 5.76-7.61 1.23 1.75 3.42 3.6 6.64 3.6.34 0 .68-.02 1.04-.06 1.21-.15 2.19-1.16 2.15-2.38a2.313 2.313 0 0 0-2.62-2.23c-2.6.34-3.64-1.87-3.82-2.33 0 0-.01-.01-.01-.02s0-.01-.01-.02c-.18-.45-.31-.92-.36-1.41-.36-3.04 1.94-5.84 4.99-6.05 1.58-.1 3.08.46 4.2 1.56.43.43 1.01.7 1.62.71 1.03.01 1.91-.63 2.23-1.57 1.1-3.18 4.1-5.33 7.47-5.33 2.25 0 4.39.96 5.89 2.64.41.46.99.76 1.61.79 1.04.06 1.96-.57 2.31-1.51.78-2.12 2.82-3.54 5.08-3.54s4.49 1.57 5.18 3.84c.2.66.64 1.23 1.27 1.52 1.01.46 2.15.15 2.8-.68a7.87 7.87 0 0 1 6.24-3.06c2.98 0 5.67 1.68 7.01 4.27-.43.68-.9 1.6-1.2 2.69-.87 3.17.08 6.35 2.69 8.96.45.45 1.04.68 1.64.68s1.16-.22 1.61-.66c.93-.9.85-2.45-.05-3.38-1.34-1.37-1.82-2.76-1.46-4.24.04-.16.09-.31.14-.46a4.8 4.8 0 0 1 2.61-2.8c.84-.36 1.77-.51 2.73-.41 2.72.28 4.83 2.65 4.83 5.39 0 .7-.14 1.39-.4 2.04-.21.51-.24 1.09-.06 1.61.29.9 1.09 1.51 2 1.59 4.03.35 7.19 3.8 7.19 7.86 0 1.65-.52 3.25-1.47 4.58" style="fill:#4a3726;stroke-width:0"/><path d="M78.36 80.99c0 7.92-6.44 14.36-14.36 14.36s-14.36-6.44-14.36-14.36S56.08 66.62 64 66.62s14.36 6.45 14.36 14.37" style="fill:#d6d6d5;stroke-width:0"/><path d="m105.58 41.61-9.74 78.75h-7.26l6.34-78.75zm-15.31 0-6.34 78.75h-9.26l.74-24.2c4.6-3.47 7.58-8.98 7.58-15.17 0-5.79-2.6-10.97-6.69-14.46l.76-24.92zM70.69 98.76l-.65 21.6H57.96l-.65-21.6c2.08.79 4.33 1.22 6.69 1.22s4.61-.43 6.69-1.22m1.73-57.15-.66 22.04a18.98 18.98 0 0 0-15.52 0l-.66-22.04zm-19.1 78.75h-9.25l-6.34-78.75h13.21l.76 24.92C47.61 70.02 45 75.2 45 80.99c0 6.19 2.99 11.71 7.59 15.17zm-13.9 0h-7.27l-9.74-78.75h10.67z" style="fill:#ce4430;stroke-width:0"/><path d="M101.28 24.54a2.31 2.31 0 0 1-2-1.59c-.18-.52-.15-1.1.06-1.61.26-.65.4-1.34.4-2.04 0-2.74-2.11-5.11-4.83-5.39-.96-.1-1.89.05-2.73.41a4.8 4.8 0 0 0-2.61 2.8c-.05.15-.1.3-.14.46-.36 1.48.12 2.87 1.46 4.24.9.93.98 2.48.05 3.38-.45.44-1.03.66-1.61.66s-1.19-.23-1.64-.68c-2.61-2.61-3.56-5.79-2.69-8.96.3-1.09.77-2.01 1.2-2.69a7.9 7.9 0 0 0-7.01-4.27c-2.45 0-4.73 1.12-6.24 3.06-.65.83-1.79 1.14-2.8.68-.63-.29-1.07-.86-1.27-1.52-.69-2.27-2.81-3.84-5.18-3.84s-4.3 1.42-5.08 3.54c-.35.94-1.27 1.57-2.31 1.51a2.33 2.33 0 0 1-1.61-.79 7.9 7.9 0 0 0-5.89-2.64c-3.37 0-6.37 2.15-7.47 5.33-.32.94-1.2 1.58-2.23 1.57-.61-.01-1.19-.28-1.62-.71a5.45 5.45 0 0 0-4.2-1.56c-3.05.21-5.35 3.01-4.99 6.05.05.49.18.96.36 1.41l.01.02.01.02c.18.46 1.22 2.67 3.82 2.33 1.35-.18 2.58.84 2.62 2.23.04 1.22-.94 2.23-2.15 2.38-.36.04-.7.06-1.04.06-3.22 0-5.41-1.85-6.64-3.6-3.37.93-5.76 3.98-5.76 7.61 0 1.65.52 3.24 1.47 4.58h86a7.9 7.9 0 0 0 1.47-4.58c0-4.06-3.16-7.51-7.19-7.86m-28.64 5.33c-1.28 0-2.32-1.03-2.32-2.31 0-2.8-2.27-5.07-5.07-5.07-1.38 0-2.67.55-3.64 1.55-.5.51-1.22.77-1.93.68a2.32 2.32 0 0 1-1.73-1.12c-.7-1.19-1.94-1.9-3.32-1.9-2.13 0-3.86 1.73-3.86 3.86s1.73 3.86 3.86 3.86c1.28 0 2.32 1.03 2.32 2.31s-1.04 2.32-2.32 2.32c-4.68 0-8.49-3.81-8.49-8.49s3.81-8.5 8.49-8.5c2.1 0 4.11.8 5.65 2.17 1.48-.9 3.19-1.37 4.97-1.37 5.35 0 9.7 4.35 9.7 9.7 0 1.28-1.04 2.31-2.31 2.31" style="fill:#f3f34e;stroke-width:0"/><path d="M74.95 27.56c0 1.28-1.04 2.31-2.31 2.31s-2.32-1.03-2.32-2.31c0-2.8-2.27-5.07-5.07-5.07-1.38 0-2.67.55-3.64 1.55-.5.51-1.22.77-1.93.68a2.32 2.32 0 0 1-1.73-1.12c-.7-1.19-1.94-1.9-3.32-1.9-2.13 0-3.86 1.73-3.86 3.86s1.73 3.86 3.86 3.86c1.28 0 2.32 1.03 2.32 2.31s-1.04 2.32-2.32 2.32c-4.68 0-8.49-3.81-8.49-8.49s3.81-8.5 8.49-8.5c2.1 0 4.11.8 5.65 2.17 1.48-.9 3.19-1.37 4.97-1.37 5.35 0 9.7 4.35 9.7 9.7" style="fill:#4a3726;stroke-width:0"/></svg>