<svg xmlns="http://www.w3.org/2000/svg" data-name="look_timer" viewBox="0 0 128 128"><path d="M63.2 78.08c-.51.34-1.09.51-1.67.51-.81 0-1.62-.32-2.24-.95a.3.3 0 0 1-.05-.06c.66.54 1.49.84 2.39.84.55 0 1.09-.12 1.56-.34Z" style="fill:#2ac1ec"/><path d="M88.13 54.51 64.98 76.48l-1.35 1.27c-.14.12-.28.25-.43.34-.47.21-1.01.34-1.56.34a3.84 3.84 0 0 1-3.83-3.83V28.96c0-2.11 1.72-3.83 3.83-3.83s3.83 1.72 3.83 3.83v38.6l18.44-17.49a3.076 3.076 0 0 1 4.34.11 3.085 3.085 0 0 1-.12 4.34Z" style="fill:#2ac1ec"/><path d="M125.24 64c0 7.93-1.55 15.61-4.62 22.84-2.95 6.98-7.18 13.25-12.57 18.65a58.8 58.8 0 0 1-18.65 12.57c-7.24 3.06-14.92 4.62-22.84 4.62s-15.61-1.55-22.84-4.62c-6.98-2.95-13.25-7.18-18.65-12.57A58.8 58.8 0 0 1 12.5 86.84 58.3 58.3 0 0 1 7.88 64c0-7.3 1.32-14.41 3.93-21.13l-9.06-3.83 17.94-7.27 7.27 17.93-9-3.81c-2.2 5.77-3.31 11.87-3.31 18.12 0 6.87 1.34 13.54 4 19.81 2.56 6.06 6.24 11.5 10.91 16.18 4.68 4.67 10.12 8.35 16.18 10.91 6.27 2.65 12.94 4 19.81 4s13.54-1.34 19.81-4c6.06-2.56 11.5-6.24 16.18-10.91 4.67-4.68 8.35-10.12 10.91-16.18 2.65-6.27 4-12.94 4-19.81s-1.34-13.54-4-19.81c-2.56-6.06-6.24-11.5-10.91-16.18-4.68-4.67-10.12-8.35-16.18-10.91a50.6 50.6 0 0 0-19.81-4c-2.14 0-3.89-1.74-3.89-3.89s1.74-3.88 3.89-3.88c7.93 0 15.61 1.55 22.84 4.62 6.98 2.95 13.25 7.18 18.65 12.57a58.8 58.8 0 0 1 12.57 18.65 58.3 58.3 0 0 1 4.62 22.84Z" style="fill:#2ac1ec"/></svg>