<svg xmlns="http://www.w3.org/2000/svg" data-name="look_year" viewBox="0 0 128 128"><path d="M31.47 6.16c2 0 3.61 1.62 3.61 3.62v3.62h57.84V9.78c0-2 1.62-3.62 3.61-3.62s3.61 1.62 3.61 3.62v3.62h7.23c7.99 0 14.46 6.47 14.46 14.46v79.53c0 7.99-6.47 14.46-14.46 14.46H20.62c-7.99 0-14.46-6.47-14.46-14.46V27.85c0-7.99 6.47-14.46 14.46-14.46h7.23V9.77c0-2 1.62-3.62 3.61-3.62M13.39 35.08v72.3c0 3.99 3.24 7.23 7.23 7.23h86.76c3.99 0 7.23-3.24 7.23-7.23v-72.3z" style="fill:#2ac1ec;stroke-width:0"/></svg>