<svg xmlns="http://www.w3.org/2000/svg" data-name="look_transmission" viewBox="0 0 128 128"><path d="M64 126.22C29.69 126.22 1.78 98.31 1.78 64S29.69 1.78 64 1.78 126.22 29.69 126.22 64 98.31 126.22 64 126.22M64 9.23C33.8 9.23 9.23 33.8 9.23 64S33.8 118.77 64 118.77 118.77 94.2 118.77 64 94.2 9.23 64 9.23" style="fill:#2ac1ec"/><path d="M95.26 33.2c0 1.65-.72 3.14-1.88 4.17v30.35H67.72v23.8a5.5 5.5 0 0 1 1.88 4.17c0 3.1-2.5 5.6-5.6 5.6s-5.6-2.5-5.6-5.6c0-1.67.72-3.16 1.88-4.17v-23.8H42.07v23.8a5.5 5.5 0 0 1 1.88 4.17c0 3.1-2.5 5.6-5.6 5.6s-5.6-2.5-5.6-5.6c0-1.67.72-3.16 1.88-4.17V37.78a5.5 5.5 0 0 1-1.88-4.17c0-3.08 2.5-5.6 5.6-5.6s5.6 2.52 5.6 5.6c0 1.67-.72 3.16-1.88 4.17v22.5h18.21v-22.5a5.5 5.5 0 0 1-1.88-4.17c0-3.08 2.5-5.6 5.6-5.6s5.6 2.52 5.6 5.6c0 1.67-.72 3.16-1.88 4.17v22.5h18.21v-22.9a5.59 5.59 0 0 1 3.72-9.77c3.1 0 5.6 2.5 5.6 5.6Z" style="fill:#2ac1ec"/></svg>