<svg xmlns="http://www.w3.org/2000/svg" viewBox="0 0 128 128"><path d="m125.06 82.39-6.75-1.22V62.2l6.72-1.02c1.53-.24 2.58-1.67 2.34-3.19-.22-1.53-1.67-2.58-3.18-2.35l-5.88.9V38.1c0-3.58-2.91-6.51-6.51-6.51h-4.38l3.08-5.14c.8-1.33.36-3.05-.97-3.84-1.33-.8-3.04-.38-3.84.95l-4.82 8.02H31.28l-5.4-7.84c-.88-1.27-2.63-1.58-3.91-.71a2.835 2.835 0 0 0-.71 3.91l3.21 4.65H13.66c-3.58 0-6.51 2.93-6.51 6.51v13.43l-2.6-1.18c-1.4-.63-3.07 0-3.7 1.41-.63 1.4-.01 3.07 1.4 3.7l4.9 2.21v3.93l-2.6-1.18c-1.4-.63-3.07 0-3.7 1.41-.63 1.4-.01 3.07 1.4 3.7l4.9 2.21v31.53c0 3.58 2.93 6.51 6.51 6.51h98.14c3.6 0 6.51-2.93 6.51-6.51V86.85l5.75 1.04c.17.03.34.04.5.04 1.33 0 2.51-.94 2.74-2.3.28-1.53-.73-2.98-2.25-3.25Zm-86.13 16.4H14.15V70.9l5.96 2.69c.38.15.77.24 1.15.24 1.08 0 2.09-.62 2.56-1.65.63-1.41 0-3.07-1.41-3.7l-8.26-3.72v-3.93l5.96 2.69c.38.15.77.24 1.15.24 1.08 0 2.09-.62 2.56-1.65.63-1.41 0-3.07-1.41-3.7l-8.26-3.72V38.6h15.16l3.08 4.47c.55.8 1.41 1.22 2.31 1.22.55 0 1.11-.17 1.58-.49 1.27-.88 1.6-2.63.71-3.91l-.88-1.29h2.81v60.2Zm43.57 0H45.93v-60.2H82.5zm28.81-41.19-6.5.98a2.813 2.813 0 0 0-2.35 3.19 2.803 2.803 0 0 0 3.19 2.35l5.66-.85V79.9l-5.53-.99a2.79 2.79 0 0 0-3.25 2.25c-.28 1.53.73 2.98 2.25 3.26l6.52 1.18v13.19H89.49v-60.2h7.18l-1.06 1.78c-.8 1.33-.36 3.05.95 3.85a2.83 2.83 0 0 0 3.85-.97l2.8-4.66h8.09V57.6Z" style="fill:#2ac1ec;stroke-width:0"/></svg>