<svg xmlns="http://www.w3.org/2000/svg" viewBox="0 0 128 128"><path d="M63.9 82.6c-25.5.31-23.62-40.11 1.75-37.42 23.13 1.71 21.41 37.88-1.75 37.42m-.06-32.23c-16.63-.33-17.87 25.65-1.25 26.88 18.22 1.94 19.57-27.1 1.25-26.88" style="fill:#2ac1ec;stroke-width:0"/><path d="M63.93 95.97c-43.69.53-40.46-68.71 3-64.1 39.63 2.94 36.68 64.89-3 64.1M63.82 37c-33.15-.65-35.62 51.12-2.5 53.56 36.31 3.85 39-54 2.5-53.56" style="fill:#2ac1ec;stroke-width:0"/><path d="M63.33 122.72c-12.57.54-20.07-4.58-25.58-10.48-7.65-2.72-11.15-.87-19.28-10.91-8.32-9.89-5.84-12.97-7.07-20.99C7.59 72.96 3.85 72 5.26 58.25c1.22-13.77 5.08-14 10.21-20.53 2.72-7.65.87-11.15 10.91-19.28 9.88-8.31 12.97-5.84 20.99-7.07 7.38-3.81 8.35-7.55 22.09-6.14 13.77 1.22 14 5.08 20.53 10.21 7.65 2.72 11.15.87 19.28 10.91 8.32 9.89 5.84 12.97 7.07 20.99 3.81 7.38 7.55 8.34 6.14 22.09-1.22 13.77-5.08 14-10.21 20.53-2.72 7.65-.87 11.15-10.91 19.28-9.88 8.32-12.97 5.84-20.99 7.07-6.02 2.87-7.53 6.61-17.04 6.41M41.66 18.36c-9.96-.48-19.63 14.28-20.38 22.5-4.77 7.78-8.18 4.51-9.45 18.02-2.23 15.16 7.64 13.86 6.58 26.02.91 19.49 19.06 16.96 27.45 25.72.99 5.21 24.9 7.54 26.86 2.56 2.46-2.52 8.77-4.44 12.21-3.87 9.95 1.63 20.99-13.98 21.54-22.48 4.77-7.78 8.18-4.51 9.45-18.02 2.23-15.14-7.82-14.17-6.58-26.22 1.38-10.38-14.23-20.58-22.85-21.55-7.39-4.79-4.33-8.07-18.19-9.29-14.72-1.97-14.11 8.3-26.64 6.61" style="fill:#2ac1ec;stroke-width:0"/></svg>