<svg xmlns="http://www.w3.org/2000/svg" data-name="look_weight" viewBox="0 0 128 128"><path d="m63.68 60-8.09 24.49 8.86 29.75H49.88l-5.71-23.25v23.25h-14.1V60.01h14.1v21.07l6.28-21.07h13.23Zm35.56 19.97h-14.1v-4.92c0-3.1-.13-5.05-.4-5.83s-.9-1.17-1.91-1.17c-.87 0-1.46.33-1.78 1s-.47 2.39-.47 5.16v26.03c0 2.43.16 4.04.47 4.81s.94 1.16 1.88 1.16c1.03 0 1.73-.44 2.09-1.31s.55-2.57.55-5.09v-6.43h-2.85v-8.24h16.51v29.11h-8.86l-1.3-3.89c-.96 1.67-2.17 2.93-3.64 3.77s-3.19 1.26-5.18 1.26c-2.37 0-4.59-.58-6.65-1.73-2.07-1.15-3.64-2.57-4.71-4.27s-1.74-3.48-2.01-5.34-.4-4.66-.4-8.39V79.55c0-5.18.28-8.94.84-11.29s2.16-4.49 4.81-6.45c2.65-1.95 6.07-2.93 10.27-2.93s7.56.85 10.28 2.55 4.5 3.71 5.33 6.05 1.24 5.72 1.24 10.17v2.34Z" style="fill:#2ac1ec;stroke-width:0"/><path d="M114.64 90.98c-.06-.45-6.87-45.99-15.34-51.57-2.81-1.85-8.99-2.14-22.73-2.1 4.74-3.73 7.8-9.53 7.8-16.02C84.37 10.06 75.24.93 64.01.93s-20.36 9.13-20.36 20.36c0 6.49 3.05 12.28 7.8 16-13.75-.03-19.92.26-22.73 2.12-8.46 5.58-15.28 51.12-15.34 51.57-3.95 26.7-.88 30.39.27 31.77 3.65 4.39 15.02 4.47 38.35 4.26 7.85-.07 16.17-.07 24.03 0 3.9.04 7.47.07 10.74.07 16.17 0 24.58-.68 27.62-4.33 1.15-1.38 4.22-5.07.27-31.77ZM64 12.28a9 9 0 1 1-.001 18.001A9 9 0 0 1 64 12.28m44.9 105.89c-3.07 2.02-20.24 1.85-32.83 1.73-3.95-.03-8.01-.07-12.07-.07s-8.12.04-12.07.07c-12.6.13-29.76.28-32.83-1.73-1.14-2.54-.92-15.44 3.1-37.02 4.02-21.48 8.55-33.97 10.42-35.81 2.41-1.05 14.4-.98 23.19-.92 5.37.04 11.02.04 16.39 0 8.78-.06 20.77-.14 23.19.92 1.87 1.85 6.4 14.33 10.42 35.81 4.02 21.58 4.23 34.48 3.1 37.02Z" style="fill:#2ac1ec;stroke-width:0"/></svg>