<svg xmlns="http://www.w3.org/2000/svg" data-name="look_income" viewBox="0 0 128 128"><g data-name="money"><path d="M44.36 91.06h-6.32v-1.05c0-1.12-.07-1.85-.22-2.19s-.46-.52-.94-.52c-.39 0-.67.15-.87.45s-.29.74-.29 1.34c0 .99.2 1.68.59 2.08s1.52 1.17 3.41 2.31c1.61.97 2.7 1.71 3.28 2.23s1.08 1.25 1.48 2.19.6 2.12.6 3.53c0 2.25-.54 4.02-1.63 5.3-1.08 1.28-2.71 2.07-4.88 2.38v2.38h-2.91v-2.46c-1.69-.17-3.16-.82-4.43-1.95s-1.89-3.1-1.89-5.92v-1.23h6.32v1.55c0 1.7.07 2.75.2 3.17.13.41.45.62.95.62.43 0 .75-.14.95-.43.21-.29.31-.71.31-1.27 0-1.42-.1-2.43-.3-3.04s-.88-1.28-2.03-2q-2.895-1.815-3.93-2.67t-1.8-2.4c-.51-1.03-.76-2.2-.76-3.5 0-1.89.53-3.37 1.6-4.44s2.67-1.74 4.81-1.99v-2.02h2.91v2.02c1.95.25 3.41.9 4.38 1.96s1.45 2.52 1.45 4.39c0 .26-.02.66-.06 1.19Z" style="fill:#2ac1ec"/><path d="M37.34 126.5c-2.53 0-5.06-.11-6.16-.34-2.83-.58-3.34-3.68-3.74-6.48-2.26 1.67-4.81 3.48-7.19 1.88-1.75-1.18-7.07-6.5-8.25-8.25-1.61-2.38.21-4.93 1.88-7.19-2.8-.41-5.9-.92-6.48-3.75-.45-2.19-.45-10.13 0-12.31.58-2.83 3.68-3.34 6.48-3.74-1.67-2.26-3.48-4.82-1.88-7.19 1.18-1.75 6.51-7.08 8.25-8.25 2.37-1.6 4.92.21 7.19 1.88.41-2.8.91-5.9 3.74-6.48 2.19-.45 10.13-.45 12.32 0 2.83.58 3.34 3.68 3.74 6.48 2.26-1.67 4.82-3.48 7.19-1.88 1.75 1.18 7.07 6.5 8.25 8.25 1.61 2.37-.21 4.92-1.88 7.19 2.8.41 5.9.91 6.48 3.75.45 2.18.45 10.12 0 12.31-.58 2.83-3.68 3.34-6.48 3.75 1.67 2.26 3.48 4.82 1.88 7.19-1.18 1.75-6.51 7.07-8.25 8.25-2.38 1.6-4.93-.21-7.19-1.88-.41 2.8-.91 5.9-3.74 6.48-1.09.22-3.63.34-6.16.34Zm-4.1-5.63c2.05.15 6.15.15 8.2 0 .15-.63.28-1.54.37-2.16.37-2.53.68-4.71 2.68-5.56 2.03-.85 3.82.47 5.9 2 .48.36 1.19.88 1.73 1.22 1.46-1.28 4.08-3.9 5.36-5.36-.34-.54-.86-1.25-1.21-1.73-1.53-2.08-2.85-3.88-2-5.9.85-2 3.03-2.32 5.56-2.68.62-.09 1.52-.22 2.16-.37.15-2.04.15-6.15 0-8.2-.63-.15-1.54-.28-2.16-.37-2.53-.37-4.71-.68-5.56-2.69-.85-2.02.47-3.82 2-5.9.36-.48.87-1.19 1.21-1.73-1.28-1.46-3.91-4.09-5.36-5.36-.54.34-1.25.86-1.73 1.21-2.08 1.53-3.87 2.86-5.9 2-2-.85-2.32-3.03-2.68-5.56-.09-.62-.22-1.52-.37-2.16-2.04-.15-6.15-.15-8.2 0-.15.63-.28 1.54-.37 2.16-.37 2.53-.68 4.71-2.68 5.56-2.02.86-3.82-.46-5.9-2-.48-.36-1.19-.88-1.73-1.21-1.46 1.28-4.08 3.9-5.36 5.36.34.54.86 1.25 1.21 1.73 1.53 2.08 2.85 3.88 2 5.9-.85 2-3.03 2.32-5.56 2.68-.62.09-1.52.22-2.16.37-.15 2.04-.15 6.15 0 8.2.63.15 1.54.28 2.16.37 2.53.37 4.71.68 5.56 2.69.85 2.02-.47 3.82-2 5.9-.36.48-.87 1.19-1.21 1.73 1.28 1.46 3.9 4.08 5.36 5.36.54-.34 1.25-.86 1.73-1.22 2.08-1.53 3.87-2.86 5.9-2 2.01.85 2.32 3.03 2.69 5.56.09.62.22 1.52.37 2.16Z" style="fill:#2ac1ec"/></g><path d="M54.27 43.8 37.34 62 20.41 43.8l3.03-2.83 11.14 11.99V1.5h5.52v51.46l11.14-11.99z" style="fill:#2ac1ec"/><path d="M68.31 117.89c-1.91 0-3.45-1.54-3.45-3.45s1.54-3.45 3.45-3.45c6.17 0 12.16-1.21 17.8-3.59a45.5 45.5 0 0 0 14.54-9.8c4.2-4.2 7.5-9.09 9.8-14.54 2.38-5.64 3.59-11.62 3.59-17.8s-1.21-12.17-3.59-17.8c-2.3-5.44-5.6-10.33-9.8-14.54-4.2-4.2-9.09-7.5-14.54-9.8-5.64-2.38-11.63-3.59-17.8-3.59s-12.16 1.21-17.8 3.59c-1.75.74-3.78-.08-4.52-1.83s.08-3.78 1.83-4.52c6.49-2.75 13.38-4.14 20.49-4.14s14 1.39 20.49 4.14c6.27 2.65 11.9 6.45 16.73 11.28a52.4 52.4 0 0 1 11.28 16.73c2.75 6.49 4.14 13.38 4.14 20.49s-1.39 14-4.14 20.49a52.3 52.3 0 0 1-11.28 16.73 52.4 52.4 0 0 1-16.73 11.28c-6.49 2.75-13.38 4.14-20.49 4.14Z" style="fill:#2ac1ec"/><path d="M73.14 70.4c-.37.63-.92 1.15-1.6 1.45.14-.08.26-.19.39-.3z" style="fill:#2ac1ec"/><path d="M71.54 71.85c-.46.3-.98.46-1.5.46-.73 0-1.46-.29-2.01-.86-.01-.01-.03-.03-.04-.06.59.48 1.34.76 2.15.76.5 0 .98-.11 1.41-.3Z" style="fill:#2ac1ec"/><path d="M93.99 50.61 73.14 70.4l-1.21 1.15c-.12.11-.25.22-.39.3-.43.19-.91.3-1.41.3-.81 0-1.56-.28-2.15-.76-.79-.63-1.3-1.6-1.3-2.69V27.59c0-1.9 1.55-3.45 3.45-3.45s3.45 1.55 3.45 3.45v34.78L90.2 46.61a2.765 2.765 0 0 1 3.91.1c1.05 1.12.99 2.86-.11 3.91Z" style="fill:#2ac1ec"/></svg>