<svg xmlns="http://www.w3.org/2000/svg" data-name="look_speedlimit" viewBox="0 0 128 128"><path d="M5.94 51.61c-.33 2.52-.5 5.07-.5 7.64-.21 20.8 11.79 40.93 30.07 50.76l-1 2.39 10.74 4.54 4.54-10.74-10.74-4.54-.76 1.8c-17.92-9.72-27.82-30.73-25.44-50.57 0 0 .41-3.58-2.67-4.23s-4.23 2.95-4.23 2.95Zm15.49-19.46a3.54 3.54 0 0 0 4.99-.34c4.45-5.13 9.85-9.25 16.01-12.26s12.74-4.72 19.52-5.07c6.56-.35 13.04.56 19.28 2.71a50.5 50.5 0 0 1 16.86 9.74c5.13 4.45 9.24 9.85 12.25 16.01s4.73 12.73 5.08 19.51c.16 3.07.54 6.22-.33 9.13-1.17 3.89 6.41 5.27 6.92 1.6s.67-7.38.47-11.12c-.42-7.74-2.37-15.22-5.79-22.23s-8.11-13.15-13.95-18.25a57.7 57.7 0 0 0-19.2-11.09 57.6 57.6 0 0 0-21.96-3.08c-7.74.42-15.22 2.36-22.23 5.78a57.7 57.7 0 0 0-18.24 13.96 3.54 3.54 0 0 0 .34 4.99Zm35.32 42.09c-5.35-3.15-39.49-36.29-39.49-36.29s45.55 13.77 50.9 16.92 7.13 10.04 3.98 15.39-10.04 7.13-15.39 3.98m39.65 46.43c-2.12 0-4.24-.09-5.13-.27-1.84-.38-2.17-2.7-2.5-4.95-.06-.42-.14-.96-.22-1.4-.38.25-.83.58-1.18.84-1.81 1.33-3.68 2.71-5.21 1.68-1.42-.96-5.92-5.46-6.87-6.87-1.03-1.52.35-3.4 1.68-5.21.26-.35.59-.8.84-1.18-.44-.08-.98-.16-1.4-.22-2.25-.33-4.58-.66-4.95-2.5-.36-1.77-.36-8.48 0-10.26.38-1.84 2.7-2.17 4.95-2.5.42-.06.96-.14 1.4-.22-.25-.38-.58-.83-.84-1.18-1.33-1.81-2.71-3.68-1.68-5.21.96-1.42 5.46-5.92 6.87-6.87 1.52-1.03 3.4.35 5.21 1.68.35.26.8.59 1.18.84.08-.44.16-.98.22-1.4.33-2.25.66-4.58 2.5-4.95 1.77-.36 8.48-.36 10.26 0 1.84.38 2.17 2.7 2.5 4.95.06.42.14.96.22 1.4.38-.25.83-.58 1.18-.84 1.81-1.33 3.68-2.71 5.21-1.68 1.42.96 5.92 5.46 6.87 6.87 1.03 1.52-.35 3.4-1.68 5.21-.26.35-.59.8-.84 1.18.44.08.98.16 1.4.22 2.25.33 4.58.66 4.95 2.5.36 1.77.36 8.48 0 10.26-.38 1.84-2.7 2.17-4.95 2.5-.42.06-.96.14-1.4.22.25.38.58.83.84 1.18 1.33 1.81 2.71 3.68 1.68 5.21-.96 1.42-5.46 5.92-6.87 6.87-1.52 1.03-3.4-.35-5.21-1.68-.35-.26-.8-.59-1.18-.84-.08.44-.16.98-.22 1.4-.33 2.25-.66 4.58-2.5 4.95-.89.18-3.01.27-5.13.27m10.21-20.87c2.06-4.87-1-12.51-5.92-14.58-4.87-2.06-12.5 1.01-14.58 5.92-2.06 4.87.8 13.06 5.92 14.58 6.11 1.8 12.5-1.01 14.58-5.92" style="fill:#2ac1ec"/></svg>