<svg xmlns="http://www.w3.org/2000/svg" data-name="look_speed" viewBox="0 0 128 128"><path d="M126.2 64.09c0 8.39-1.64 16.54-4.88 24.21a62.2 62.2 0 0 1-13.33 19.78 61.7 61.7 0 0 1-14.12 10.59l1.08 2.57-11.55 4.88-4.88-11.55 11.55-4.88.82 1.93c4.29-2.42 8.21-5.41 11.72-8.92a54.3 54.3 0 0 0 11.7-17.36c2.86-6.72 4.29-13.88 4.29-21.25s-1.43-14.53-4.29-21.25c-2.75-6.51-6.69-12.34-11.7-17.36a3.833 3.833 0 0 1 0-5.38 3.796 3.796 0 0 1 5.38 0 61.9 61.9 0 0 1 13.33 19.78c3.24 7.68 4.88 15.82 4.88 24.21M90.24 11.76a3.813 3.813 0 0 1-4.99 2.02c-6.72-2.86-13.88-4.3-21.25-4.3s-14.53 1.44-21.25 4.3c-6.51 2.75-12.34 6.69-17.36 11.7a54.3 54.3 0 0 0-11.7 17.36C10.83 49.56 9.4 56.72 9.4 64.09s1.43 14.53 4.29 21.25c2.75 6.51 6.69 12.34 11.7 17.36 3.51 3.51 7.43 6.51 11.72 8.92l.82-1.93 11.55 4.88-4.88 11.55-11.55-4.88 1.08-2.57c-5.17-2.83-9.9-6.37-14.12-10.59A61.9 61.9 0 0 1 6.68 88.3C3.44 80.62 1.8 72.48 1.8 64.09s1.64-16.54 4.88-24.21c3.13-7.4 7.62-14.06 13.33-19.78A61.9 61.9 0 0 1 39.79 6.77C47.47 3.53 55.61 1.88 64 1.88s16.54 1.66 24.21 4.89c1.93.82 2.84 3.06 2.02 4.99Z" style="fill:#2ac1ec;stroke-width:0"/><path d="M75.94 69.09C79.62 63.53 97 15.4 97 15.4S59.47 50.18 55.79 55.74s-2.16 13.06 3.4 16.75c5.56 3.68 13.06 2.16 16.75-3.4" style="fill:#2ac1ec;stroke-width:0"/></svg>