<svg xmlns="http://www.w3.org/2000/svg" data-name="look_paintable" viewBox="0 0 128 128"><path d="M55.53 8.18 39.54 24.17 23.78 8.41a3.69 3.69 0 0 0-5.2 0 3.69 3.69 0 0 0 0 5.2l15.76 15.76L5.7 58c-5 5-5 13.14 0 18.14l40.76 40.76c2.5 2.5 5.79 3.75 9.07 3.75s6.57-1.25 9.07-3.75l49.82-49.83zM59.4 111.7a5.474 5.474 0 0 1-7.73 0L10.9 70.94a5.474 5.474 0 0 1 0-7.73l28.64-28.62 22.43 22.43c.72.72 1.66 1.07 2.6 1.07s1.88-.35 2.6-1.07a3.69 3.69 0 0 0 0-5.2L44.74 29.39l10.79-10.8 48.5 48.5-44.63 44.63Zm55.8-31.97s-10.56 18.43-10.85 25.31c-.12 2.86 1.74 8.69 3.62 10.85 1.32 1.53 5.21 3.62 7.23 3.62s5.91-2.09 7.23-3.62c1.87-2.16 3.74-7.99 3.62-10.85-.29-6.88-10.85-25.31-10.85-25.31" style="fill:#2ac1ec"/></svg>