<svg xmlns="http://www.w3.org/2000/svg" viewBox="0 0 128 128"><path d="M79.1 52.9H65.51v-2.25c0-2.4-.16-3.97-.47-4.71-.32-.74-.99-1.11-2.02-1.11-.83 0-1.45.32-1.87.96s-.62 1.6-.62 2.88c0 2.13.43 3.62 1.28 4.47.83.85 3.27 2.51 7.33 4.98 3.45 2.09 5.81 3.68 7.06 4.79 1.26 1.11 2.31 2.68 3.18 4.71.86 2.03 1.29 4.55 1.29 7.58 0 4.84-1.16 8.64-3.5 11.4-2.33 2.76-5.83 4.46-10.49 5.11v5.11h-6.26v-5.28c-3.63-.36-6.8-1.75-9.52-4.19-2.71-2.43-4.07-6.68-4.07-12.73v-2.65h13.59v3.33q0 5.475.42 6.81c.28.88.96 1.33 2.03 1.33.92 0 1.6-.31 2.05-.93s.67-1.53.67-2.74c0-3.05-.21-5.23-.64-6.54s-1.88-2.74-4.37-4.29q-6.225-3.9-8.46-5.73t-3.87-5.16c-1.09-2.22-1.63-4.73-1.63-7.53 0-4.06 1.15-7.24 3.45-9.55s5.74-3.73 10.34-4.27v-4.34h6.26v4.34c4.19.54 7.33 1.95 9.42 4.22 2.08 2.28 3.13 5.42 3.13 9.43 0 .56-.05 1.41-.13 2.56Z" style="fill:#2ac1ec;stroke-width:0"/><path d="M64 126.7c-5.28 0-10.55-.22-12.75-.68-4.56-.93-5.4-6.72-6.21-12.32-.15-1.04-.34-2.38-.55-3.48-.95.63-2.07 1.45-2.93 2.09-4.5 3.32-9.16 6.75-12.95 4.18-3.53-2.38-14.71-13.57-17.1-17.1-2.56-3.79.87-8.45 4.18-12.95.64-.86 1.46-1.98 2.09-2.93-1.1-.21-2.44-.4-3.48-.55-5.6-.81-11.39-1.64-12.32-6.21-.9-4.41-.9-21.1 0-25.51.93-4.56 6.72-5.4 12.32-6.21 1.04-.15 2.38-.34 3.48-.55-.63-.95-1.45-2.07-2.09-2.93-3.32-4.5-6.74-9.16-4.18-12.95 2.38-3.53 13.57-14.71 17.1-17.1 3.79-2.56 8.45.87 12.95 4.18.86.64 1.98 1.46 2.93 2.09.21-1.1.4-2.44.55-3.48.81-5.6 1.64-11.39 6.21-12.32 4.41-.9 21.1-.9 25.51 0 4.56.93 5.4 6.72 6.21 12.32.15 1.04.34 2.38.55 3.48.95-.63 2.07-1.45 2.93-2.09 4.5-3.32 9.16-6.75 12.95-4.18 3.53 2.38 14.71 13.57 17.1 17.1 2.56 3.79-.87 8.45-4.18 12.95-.64.86-1.46 1.98-2.09 2.93 1.1.21 2.44.4 3.48.55 5.6.81 11.39 1.64 12.32 6.21.9 4.41.9 21.1 0 25.51-.93 4.56-6.72 5.4-12.32 6.21-1.04.15-2.38.34-3.48.55.63.95 1.45 2.07 2.09 2.93 3.32 4.5 6.74 9.16 4.18 12.95-2.38 3.53-13.57 14.71-17.1 17.1-3.79 2.56-8.45-.87-12.95-4.18-.86-.64-1.98-1.46-2.93-2.09-.21 1.1-.4 2.44-.55 3.48-.81 5.6-1.64 11.39-6.21 12.32-2.21.45-7.48.68-12.76.68m-10.65-7.47c4.19.55 17.11.55 21.3 0 .58-1.31 1.06-4.65 1.33-6.53.71-4.91 1.27-8.78 4.33-10.08 3.09-1.3 6.28 1.04 10.32 4.02 1.49 1.1 4.11 3.03 5.44 3.56 3.24-2.54 11.59-10.9 14.13-14.13-.54-1.33-2.47-3.95-3.56-5.44-2.97-4.04-5.32-7.23-4.02-10.31 1.29-3.06 5.17-3.62 10.08-4.33 1.88-.27 5.22-.75 6.53-1.33.55-4.19.55-17.11 0-21.3-1.31-.58-4.65-1.06-6.53-1.33-4.91-.71-8.78-1.27-10.08-4.33-1.31-3.09 1.04-6.28 4.02-10.31 1.1-1.49 3.03-4.11 3.56-5.44-2.54-3.24-10.89-11.59-14.13-14.13-1.33.54-3.95 2.47-5.44 3.56-4.04 2.97-7.23 5.32-10.32 4.02-3.06-1.29-3.62-5.17-4.33-10.08-.27-1.88-.75-5.22-1.33-6.53-4.19-.55-17.11-.55-21.3 0-.58 1.31-1.06 4.65-1.33 6.53-.71 4.91-1.27 8.78-4.33 10.08-3.09 1.3-6.28-1.04-10.32-4.02-1.49-1.1-4.11-3.03-5.44-3.56-3.24 2.54-11.59 10.9-14.13 14.13.54 1.33 2.47 3.95 3.56 5.44 2.97 4.04 5.32 7.23 4.02 10.31-1.29 3.06-5.17 3.62-10.08 4.33-1.88.27-5.22.75-6.53 1.33-.55 4.19-.55 17.11 0 21.3 1.31.58 4.65 1.06 6.53 1.33 4.91.71 8.78 1.27 10.08 4.33 1.31 3.09-1.04 6.28-4.02 10.31-1.1 1.49-3.03 4.11-3.56 5.44 2.54 3.24 10.89 11.59 14.13 14.13 1.33-.54 3.95-2.47 5.44-3.56 4.04-2.97 7.23-5.32 10.32-4.02 3.06 1.29 3.62 5.17 4.33 10.08.27 1.88.75 5.22 1.33 6.53" style="fill:#2ac1ec;stroke-width:0"/></svg>