<svg xmlns="http://www.w3.org/2000/svg" data-name="look_fillunit" viewBox="0 0 128 128"><path d="M104.29 126.61H23.71c-9.67 0-13.11-2.33-13.11-15.41V5.29c0-2.15 1.75-3.9 3.9-3.9s3.9 1.75 3.9 3.9v105.9c0 6.06.73 7.16.87 7.32.47.3 2.76.3 4.43.3h80.58c1.58 0 3.75 0 4.18-.31.19-.16 1.12-1.41 1.12-9.61V5.29c0-2.15 1.75-3.9 3.9-3.9s3.9 1.75 3.9 3.9v103.6c0 15.15-3.27 17.71-13.11 17.71Z" style="fill:#2ac1ec;stroke-width:0"/><path d="M100.84 107.74H27.16V52.49s12.89-4.6 36.84-4.6 36.84 4.6 36.84 4.6z" style="fill:#2ac1ec;stroke-width:0"/></svg>