<svg xmlns="http://www.w3.org/2000/svg" viewBox="0 0 128 128"><path d="M64 125.45C30.11 125.45 2.55 97.88 2.55 64S30.11 2.55 64 2.55 125.45 30.12 125.45 64 97.88 125.45 64 125.45m0-112.73c-28.28 0-51.28 23.01-51.28 51.28S35.73 115.28 64 115.28 115.28 92.27 115.28 64 92.28 12.72 64 12.72" style="fill:#2ac1ec;stroke-width:0"/><path d="M64 102.55a7.34 7.34 0 0 1-7.34-7.35V57.98c0-4.06 3.29-7.35 7.34-7.35s7.34 3.29 7.34 7.35V95.2c0 4.06-3.29 7.35-7.34 7.35m0-58c-4.06 0-7.34-2.76-7.34-6.17v-3.13c0-3.41 3.29-6.17 7.34-6.17s7.34 2.76 7.34 6.17v3.13c0 3.41-3.29 6.17-7.34 6.17" style="fill:#2ac1ec;stroke-width:0"/></svg>