<svg xmlns="http://www.w3.org/2000/svg" data-name="look_width" viewBox="0 0 128 128"><path d="M5.69 105.84c-2.02 0-3.65-1.63-3.65-3.65V25.35c0-2.02 1.63-3.65 3.65-3.65s3.65 1.63 3.65 3.65v76.84c0 2.02-1.63 3.65-3.65 3.65m117.28 0c-2.02 0-3.65-1.63-3.65-3.65V25.35c0-2.02 1.63-3.65 3.65-3.65s3.65 1.63 3.65 3.65v76.84c0 2.02-1.63 3.65-3.65 3.65m-10.24-42.07L88.65 86.15l-3.73-4 15.85-14.73H27.89l15.86 14.73-3.74 4-24.08-22.38 24.08-22.4 3.74 4.02-15.86 14.73h72.88L84.92 45.39l3.73-4.02z" style="fill:#2ac1ec"/></svg>