<svg xmlns="http://www.w3.org/2000/svg" data-name="look_beacons" viewBox="0 0 128 128"><path d="M46.52 44.87c10.58-.42 22.13.06 33.44.14 1.82.01 3.4 1.22 3.84 2.99 4.04 16.13 8.3 33.9 12.21 51.02.57 2.5-1.33 4.87-3.9 4.87H35.85c-2.46 0-4.37-2.21-3.96-4.63 2.95-17.38 7.61-35.02 10.92-51.2.37-1.79 1.87-3.11 3.7-3.18Zm-2.34 50.48h2.44c1.62 0 3.02-1.12 3.39-2.69l7.97-34.54c.5-2.18-1.15-4.26-3.39-4.26h-2.44c-1.62 0-3.02 1.12-3.39 2.69l-7.97 34.54a3.478 3.478 0 0 0 3.39 4.26" style="fill:#2ac1ec;stroke-width:0"/><path d="M65.34 36.13V9.47m59.97 64.39h-15.85m-91.42 0H2.69m27.4-32.06-16-16m99.32 0-16 16" style="fill:#2ac1ec;stroke:#2ac1ec;stroke-linecap:round;stroke-miterlimit:10;stroke-width:4px"/><path d="M22.19 118.53h83.74" style="fill:#2ac1ec;stroke:#2ac1ec;stroke-miterlimit:10;stroke-width:9px"/></svg>