<svg xmlns="http://www.w3.org/2000/svg" viewBox="0 0 128 128"><path d="m125.31 108.4-1.7.62c-.77.28-1.62-.12-1.9-.88l-6.2-17.05c-2.72 5.26-6.24 10.05-10.48 14.29-5.35 5.35-11.56 9.54-18.49 12.47-7.18 3.04-14.8 4.58-22.65 4.58s-15.48-1.54-22.65-4.58a57.8 57.8 0 0 1-18.49-12.47 58 58 0 0 1-12.42-18.37c-.59-1.39-.05-3.08 1.31-3.74a2.8 2.8 0 0 1 3.8 1.43 52.2 52.2 0 0 0 11.27 16.71 52.3 52.3 0 0 0 16.71 11.27c6.48 2.75 13.36 4.13 20.47 4.13s13.99-1.38 20.47-4.13a52.3 52.3 0 0 0 16.71-11.27c3.62-3.61 6.66-7.66 9.07-12.11l-15.98 7.16c-.75.33-1.62 0-1.96-.75l-.74-1.64c-.33-.75 0-1.62.75-1.96l24.72-11.08 9.27 25.46c.28.77-.12 1.62-.88 1.9Zm-7.91-64.37c-.54.96-1.55 1.44-2.48 1.44-1.09 0-2.12-.63-2.58-1.71a52.2 52.2 0 0 0-11.27-16.71 52.3 52.3 0 0 0-16.71-11.27c-6.48-2.75-13.36-4.13-20.47-4.13s-13.99 1.38-20.47 4.13a52.3 52.3 0 0 0-16.71 11.27 52.1 52.1 0 0 0-9.07 12.11l16.03-7.18c.72-.32 1.57 0 1.9.72l.77 1.73c.32.72 0 1.57-.72 1.89l-24.77 11.1-9.29-25.5c-.27-.74.11-1.57.86-1.84l1.79-.65c.74-.27 1.57.11 1.84.86l6.22 17.09c2.72-5.26 6.24-10.05 10.48-14.29 5.35-5.35 11.56-9.54 18.49-12.47 7.18-3.04 14.8-4.58 22.65-4.58s15.48 1.54 22.65 4.58a57.8 57.8 0 0 1 18.49 12.47 58 58 0 0 1 12.44 18.43c.34.81.36 1.75-.07 2.51" style="fill:#2ac1ec;stroke-width:0"/></svg>