<svg xmlns="http://www.w3.org/2000/svg" viewBox="0 0 128 128"><path d="M91.81 33.69c-3.24-10.02 3.46-22.84 6.75-32.08C85.61 5.4 57.92 6.48 49.42 18.77c-17.39 16.57-20.1 40.54-2.56 58.14-.18 8.72 1.66 17.59 4.36 25.96-15.99 3.01-16.49 8.86-21.76 22.41h51.1c-7.61-14.04-6.42-20.31-24.5-22.3-2.63-8.27-4.76-17.16-4.59-25.78 8.29-.36 17.54-.9 24.16-6.64 10.4-8.65 20.46-22.77 16.19-36.87Zm-38.63 73.67c13.07 2.06 14.27.76 19.84 13.29H36.29c1.47-3.29 2.71-9.13 6.73-10.27 2.72-.93 7.25-3.16 10.16-3.02M88.55 15.1c-5.63 10.72 2.35 22.14-1.71 32.76-5.45 14.77-18.89 26.09-35.21 24.69.34-9.08 4.07-19.47 6.98-28.1.98-2.82-3.5-4.31-4.39-1.45-2.75 8.28-6.41 18.34-7.01 27-13.42-14.39-7.7-36.03 5.73-48.23C59.9 11.75 80.65 10.81 91.25 7.91l-2.71 7.21Z" style="fill:#2ac1ec;stroke-width:0"/></svg>