<svg xmlns="http://www.w3.org/2000/svg" data-name="ver_13" viewBox="0 0 128 128"><defs><linearGradient id="a" x1="27.47" x2="105.83" y1="95.21" y2="29.44" gradientUnits="userSpaceOnUse"><stop offset=".01" stop-color="#b5230e"/><stop offset="1" stop-color="#de5b47"/></linearGradient></defs><path d="M.13 117.81c1.15-6.02 2.37-12.03 3.43-18.06 4.1-23.24 8.09-46.5 12.24-69.73C18.6 14.38 30.24 4.45 46.95 4.23c25.44-.33 50.89-.12 76.33-.09 3.38 0 5.03 2.17 4.47 5.68-2.01 12.39-4.05 24.77-6.08 37.15-2.6 15.91-5.27 31.81-7.76 47.74-2.84 18.17-15.58 29.23-33.98 29.23-24.7 0-49.39-.03-74.09.05-2.47 0-4.36-.6-5.71-2.67v-3.49Z" style="fill:#231f20;stroke-width:0"/><path d="M5.24 113.5c1.06-5.54 2.18-11.07 3.16-16.62 3.77-21.38 7.44-42.78 11.26-64.16C22.23 18.33 32.94 9.19 48.32 8.99c23.41-.31 46.82-.11 70.23-.09 3.11 0 4.63 2 4.11 5.22-1.84 11.4-3.73 22.79-5.59 34.18-2.39 14.64-4.85 29.27-7.14 43.92-2.61 16.72-14.34 26.89-31.26 26.89-22.72 0-45.44-.03-68.16.04-2.27 0-4.01-.55-5.26-2.46v-3.21Z" style="fill:#ce4430;stroke-width:0"/><path d="M10.83 109.24c.95-4.98 1.96-9.96 2.84-14.96 3.39-19.24 6.7-38.5 10.14-57.74 2.31-12.95 11.95-21.18 25.79-21.36 21.06-.28 42.14-.1 63.2-.08 2.8 0 4.17 1.8 3.7 4.7-1.66 10.26-3.36 20.51-5.03 30.76-2.15 13.17-4.36 26.34-6.42 39.53-2.35 15.04-12.9 24.2-28.14 24.2-20.45 0-40.9-.02-61.35.04-2.04 0-3.61-.49-4.73-2.21v-2.89Z" style="fill:url(#a);stroke-width:0"/><path d="M37.15 35.23q1.815 0 3.72-.42c1.27-.28 2.5-.73 3.71-1.36 1.2-.62 2.29-1.49 3.28-2.61.98-1.11 1.72-2.43 2.23-3.96h11.08l-14.43 74.21H33.61l10.7-55.03h-9.26l2.11-10.84Zm32.99 37.32-2.43 12.51c-.34 1.74-.37 3.11-.09 4.12s1.05 1.51 2.32 1.51 2.25-.52 2.95-1.56 1.22-2.4 1.54-4.06l1.82-9.38c.55-2.85.41-4.67-.44-5.47s-2.35-1.2-4.51-1.2h-4.43l2.31-11.88h5.06c1.63 0 3.08-.5 4.33-1.51s2.11-2.69 2.57-5.06l1.68-8.65c.26-1.32.16-2.41-.27-3.28-.44-.87-1.18-1.3-2.24-1.3-1.42 0-2.47.7-3.13 2.09-.67 1.39-1.25 3.37-1.75 5.94l-1.6 8.23H60.7l2.07-10.63c.65-3.34 1.73-6.17 3.23-8.49 1.51-2.33 3.21-4.15 5.1-5.47s3.82-2.24 5.8-2.76c1.97-.52 3.83-.78 5.57-.78 2.16 0 4.16.3 6 .89s3.43 1.55 4.78 2.87q2.025 1.98 2.79 5.16c.51 2.12.48 4.67-.1 7.66l-.91 4.69c-.96 4.94-2.3 8.51-4.03 10.74-1.73 2.22-4.17 4-7.32 5.31 2.66.7 4.47 2.02 5.44 3.96.97 1.95 1.01 5.18.13 9.69l-1.6 8.24q-.915 4.695-2.85 8.13c-1.29 2.29-2.87 4.17-4.73 5.63q-5.235 4.17-12.6 4.17c-5.33 0-9.1-1.41-11.32-4.22s-2.76-7.17-1.61-13.08l2.47-12.72h13.13Z" style="fill:#f1f2f2;stroke-width:0"/></svg>