<svg xmlns="http://www.w3.org/2000/svg" data-name="ver_25" viewBox="0 0 128 128"><defs><linearGradient id="a" x1="27.47" x2="105.83" y1="95.21" y2="29.44" gradientUnits="userSpaceOnUse"><stop offset="0" stop-color="#a0c213"/><stop offset=".38" stop-color="#a7c239"/><stop offset="1" stop-color="#b3c274"/></linearGradient></defs><path d="M.13 117.81c1.15-6.02 2.37-12.03 3.43-18.06 4.1-23.24 8.09-46.5 12.24-69.73C18.6 14.38 30.24 4.45 46.95 4.23c25.44-.33 50.89-.12 76.33-.09 3.38 0 5.03 2.17 4.47 5.68-2.01 12.39-4.05 24.77-6.08 37.15-2.6 15.91-5.27 31.81-7.76 47.74-2.84 18.17-15.58 29.23-33.98 29.23-24.7 0-49.39-.03-74.09.05-2.47 0-4.36-.6-5.71-2.67v-3.49Z" style="fill:#231f20"/><path d="M5.24 113.5c1.06-5.54 2.18-11.07 3.16-16.62 3.77-21.38 7.44-42.78 11.26-64.16C22.23 18.33 32.94 9.19 48.32 8.99c23.41-.31 46.82-.11 70.23-.09 3.11 0 4.63 2 4.11 5.22-1.84 11.4-3.73 22.79-5.59 34.18-2.39 14.64-4.85 29.27-7.14 43.92-2.61 16.72-14.34 26.89-31.26 26.89-22.72 0-45.44-.03-68.16.04-2.27 0-4.01-.55-5.26-2.46v-3.21Z" style="fill:#a8cc14"/><path d="M10.83 109.24c.95-4.98 1.96-9.96 2.84-14.96 3.39-19.24 6.7-38.5 10.14-57.74 2.31-12.95 11.95-21.18 25.79-21.36 21.06-.28 42.14-.1 63.2-.08 2.8 0 4.17 1.8 3.7 4.7-1.66 10.26-3.36 20.51-5.03 30.76-2.15 13.17-4.36 26.34-6.42 39.53-2.35 15.04-12.9 24.2-28.14 24.2-20.45 0-40.9-.02-61.35.04-2.04 0-3.61-.49-4.73-2.21v-2.89Z" style="fill:url(#a)"/><path d="m57.76 91.4-2.14 11H21.73l1.81-9.31q.945-4.86 2.82-9.15c1.25-2.85 2.69-5.54 4.33-8.04s3.27-4.76 4.89-6.77 3.66-4.39 6.13-7.14c3.71-4.23 6.52-7.71 8.41-10.42 1.89-2.72 3.13-5.55 3.7-8.52.7-3.6-.16-5.4-2.56-5.4s-3.96 1.8-4.66 5.4l-2.12 10.9H31.15l1.6-8.25c.84-4.3 2.04-7.83 3.62-10.58s3.33-4.81 5.26-6.19 3.89-2.28 5.9-2.7 4.16-.63 6.47-.63c2.09 0 4.03.32 5.84.95 1.8.63 3.35 1.69 4.64 3.17s2.17 3.53 2.62 6.14.31 5.82-.43 9.63q-.78 4.02-2.31 7.56a39.7 39.7 0 0 1-3.55 6.51 68 68 0 0 1-4.21 5.55c-1.46 1.73-3.27 3.76-5.44 6.08-2.45 2.68-4.46 4.97-6.03 6.88a64 64 0 0 0-4.42 6.03c-.16.28-.39.64-.69 1.06-.78 1.27-1.39 2.33-1.82 3.17-.43.85-.76 1.87-1 3.07zm20.58-18.18-2.59 13.34c-.34 1.74-.29 3.13.14 4.17q.645 1.56 2.31 1.56c1.665 0 2.09-.52 2.95-1.56q1.29-1.56 1.8-4.17l3.59-18.45c.34-1.74.29-3.13-.14-4.17q-.645-1.56-2.31-1.56c-.84 0-1.77.57-2.79 1.72s-1.64 2.31-1.87 3.49H66.3l7.6-39.09h33.07l-2.11 10.84H84.29c-.15.76-.68 3.09-1.59 6.98-.93 3.96-1.49 6.32-1.69 7.09h.16c3.67-3.4 7.27-5.11 10.8-5.11s6.06 1.46 7.58 4.38 1.71 7.3.57 13.13l-3.36 17.3c-.74 3.82-1.83 7.11-3.26 9.85-1.43 2.75-3.09 4.94-5 6.57q-2.85 2.445-6.03 3.54c-2.12.73-4.31 1.09-6.58 1.09-4.7 0-8.36-1.51-10.99-4.53s-3.45-7.1-2.45-12.25l2.76-14.17h13.13Z" style="fill:#f1f2f2"/></svg>