<svg xmlns="http://www.w3.org/2000/svg" viewBox="0 0 128 128"><defs><linearGradient id="a" x1="28.01" x2="105.22" y1="94.75" y2="29.95" gradientUnits="userSpaceOnUse"><stop offset="0" stop-color="#ff7800"/><stop offset="1" stop-color="#f90"/></linearGradient></defs><path d="M1.08 117.01c1.13-5.93 2.33-11.85 3.38-17.8 4.04-22.9 7.97-45.82 12.06-68.7C19.27 15.1 30.74 5.31 47.21 5.1c25.06-.33 50.14-.12 75.2-.09 3.33 0 4.96 2.14 4.4 5.59-1.98 12.2-4 24.4-5.99 36.6-2.56 15.68-5.19 31.34-7.64 47.04-2.8 17.9-15.35 28.79-33.48 28.8-24.33 0-48.66-.03-72.99.05-2.43 0-4.3-.59-5.63-2.63v-3.44Z" style="fill:#231f20;stroke-width:0"/><path d="M6.11 112.77c1.04-5.46 2.15-10.9 3.11-16.37 3.72-21.07 7.33-42.15 11.1-63.21C22.85 19.01 33.4 10.01 48.55 9.81c23.06-.3 46.13-.11 69.19-.09 3.06 0 4.56 1.97 4.05 5.15-1.82 11.23-3.68 22.45-5.51 33.67-2.36 14.42-4.78 28.83-7.03 43.27-2.57 16.47-14.12 26.49-30.8 26.5-22.38 0-44.77-.02-67.15.04-2.24 0-3.95-.54-5.18-2.42v-3.17Z" style="fill:#ffb300;stroke-width:0"/><path d="M11.62 108.58c.94-4.91 1.93-9.81 2.8-14.74 3.34-18.96 6.6-37.94 9.99-56.89 2.28-12.76 11.78-20.86 25.41-21.04 20.75-.27 41.51-.1 62.27-.08 2.75 0 4.11 1.77 3.64 4.63-1.64 10.11-3.31 20.2-4.96 30.31-2.12 12.98-4.3 25.95-6.33 38.95-2.31 14.82-12.71 23.84-27.72 23.85-20.15 0-40.29-.02-60.44.04-2.01 0-3.56-.49-4.66-2.18z" style="fill:url(#a);stroke-width:0"/><path d="M37.37 35.23q1.815 0 3.72-.42c1.27-.28 2.5-.73 3.71-1.36 1.2-.62 2.29-1.49 3.28-2.61.98-1.11 1.72-2.43 2.23-3.96h11.08l-14.43 74.21H33.83l10.7-55.03h-9.26l2.11-10.84Zm32.47 39.61-1.8 9.28c-.4 2.08-.48 3.7-.23 4.85s1.06 1.72 2.43 1.72 2.33-.57 3.02-1.72c.7-1.15 1.25-2.76 1.65-4.85l3.42-17.62c-1.86 1.67-3.56 2.9-5.11 3.7s-3.23 1.2-5.02 1.2q-4.665 0-7.02-3.75c-1.57-2.5-1.91-6.05-1.02-10.63l2.41-12.4c.66-3.4 1.69-6.34 3.1-8.81 1.4-2.47 3.02-4.46 4.84-5.99 1.83-1.53 3.73-2.64 5.71-3.34 1.98-.69 3.92-1.04 5.82-1.04 5.64 0 9.62 1.7 11.94 5.11s2.78 8.69 1.39 15.84l-7.44 38.25c-.58 2.99-1.57 5.63-2.96 7.92-1.4 2.29-3.04 4.17-4.93 5.63a20.76 20.76 0 0 1-12.68 4.37c-5.27 0-8.98-1.51-11.1-4.53-2.13-3.02-2.59-7.66-1.37-13.91l1.8-9.28h13.13Zm9.42-18.14c.81-.76 1.33-1.77 1.58-3.02l2.55-13.13q.285-1.455-.45-2.34c-.49-.59-1.32-.89-2.48-.89-2.22 0-3.55 1.15-3.99 3.44L73.88 54.1c-.23 1.18-.16 2.1.22 2.76.37.66 1.08.99 2.14.99 1.21 0 2.22-.38 3.03-1.15Z" style="fill:#f1f2f2;stroke-width:0"/></svg>