<svg xmlns="http://www.w3.org/2000/svg" data-name="ver_19" viewBox="0 0 128 128"><defs><linearGradient id="a" x1="27.47" x2="105.83" y1="95.21" y2="29.44" gradientUnits="userSpaceOnUse"><stop offset="0" stop-color="#ff7800"/><stop offset="1" stop-color="#f90"/></linearGradient></defs><path d="M.13 117.81c1.15-6.02 2.37-12.03 3.43-18.06 4.1-23.24 8.09-46.5 12.24-69.73C18.6 14.38 30.24 4.45 46.95 4.23c25.44-.33 50.89-.12 76.33-.09 3.38 0 5.03 2.17 4.47 5.68-2.01 12.39-4.05 24.77-6.08 37.15-2.6 15.91-5.27 31.81-7.76 47.74-2.84 18.17-15.58 29.23-33.98 29.23-24.7 0-49.39-.03-74.09.05-2.47 0-4.36-.6-5.71-2.67v-3.49Z" style="fill:#231f20;stroke-width:0"/><path d="M5.24 113.5c1.06-5.54 2.18-11.07 3.16-16.62 3.77-21.38 7.44-42.78 11.26-64.16C22.23 18.33 32.94 9.19 48.32 8.99c23.41-.31 46.82-.11 70.23-.09 3.11 0 4.63 2 4.11 5.22-1.84 11.4-3.73 22.79-5.59 34.18-2.39 14.64-4.85 29.27-7.14 43.92-2.61 16.72-14.34 26.89-31.26 26.89-22.72 0-45.44-.03-68.16.04-2.27 0-4.01-.55-5.26-2.46v-3.21Z" style="fill:#ffb300;stroke-width:0"/><path d="M10.83 109.24c.95-4.98 1.96-9.96 2.84-14.96 3.39-19.24 6.7-38.5 10.14-57.74 2.31-12.95 11.95-21.18 25.79-21.36 21.06-.28 42.14-.1 63.2-.08 2.8 0 4.17 1.8 3.7 4.7-1.66 10.26-3.36 20.51-5.03 30.76-2.15 13.17-4.36 26.34-6.42 39.53-2.35 15.04-12.9 24.2-28.14 24.2-20.45 0-40.9-.02-61.35.04-2.04 0-3.61-.49-4.73-2.21v-2.89Z" style="fill:url(#a);stroke-width:0"/><path d="M36.97 34.8q1.845 0 3.78-.42c1.29-.28 2.54-.74 3.76-1.38 1.22-.63 2.33-1.52 3.32-2.65s1.75-2.47 2.27-4.02h11.24L46.7 101.66H33.37L44.23 45.8h-9.4zM69.93 75l-1.83 9.42c-.41 2.11-.49 3.76-.23 4.92.25 1.17 1.08 1.75 2.47 1.75s2.36-.58 3.07-1.75q1.065-1.74 1.68-4.92l3.48-17.88c-1.88 1.69-3.61 2.95-5.19 3.76s-3.28 1.22-5.09 1.22c-3.16 0-5.53-1.27-7.13-3.81-1.59-2.54-1.94-6.14-1.03-10.79l2.45-12.59c.67-3.46 1.72-6.44 3.14-8.94s3.06-4.53 4.92-6.08c1.85-1.55 3.79-2.68 5.8-3.39 2.01-.7 3.98-1.06 5.91-1.06 5.73 0 9.77 1.73 12.12 5.18q3.525 5.19 1.41 16.08l-7.55 38.83c-.59 3.03-1.59 5.71-3.01 8.04s-3.09 4.23-5.01 5.71-3.98 2.59-6.19 3.33-4.43 1.11-6.68 1.11c-5.35 0-9.11-1.53-11.27-4.6s-2.63-7.78-1.39-14.12L56.61 75h13.33Zm9.56-18.41c.82-.77 1.35-1.8 1.6-3.07l2.59-13.33c.19-.99.04-1.78-.46-2.38q-.75-.9-2.52-.9c-2.25 0-3.6 1.17-4.05 3.49l-2.63 13.54c-.23 1.2-.16 2.13.22 2.8s1.1 1.01 2.17 1.01c1.23 0 2.26-.39 3.08-1.17Z" style="fill:#f1f2f2;stroke-width:0"/></svg>