<svg xmlns="http://www.w3.org/2000/svg" data-name="ver_17" viewBox="0 0 128 128"><defs><linearGradient id="a" x1="27.47" x2="105.83" y1="95.21" y2="29.44" gradientUnits="userSpaceOnUse"><stop offset="0" stop-color="#5c921a"/><stop offset="1" stop-color="#83c333"/></linearGradient></defs><path d="M.13 117.81c1.15-6.02 2.37-12.03 3.43-18.06 4.1-23.24 8.09-46.5 12.24-69.73C18.6 14.38 30.24 4.45 46.95 4.23c25.44-.33 50.89-.12 76.33-.09 3.38 0 5.03 2.17 4.47 5.68-2.01 12.39-4.05 24.77-6.08 37.15-2.6 15.91-5.27 31.81-7.76 47.74-2.84 18.17-15.58 29.23-33.98 29.23-24.7 0-49.39-.03-74.09.05-2.47 0-4.36-.6-5.71-2.67v-3.49Z" style="fill:#231f20"/><path d="M5.24 113.5c1.06-5.54 2.18-11.07 3.16-16.62 3.77-21.38 7.44-42.78 11.26-64.16C22.23 18.33 32.94 9.19 48.32 8.99c23.41-.31 46.82-.11 70.23-.09 3.11 0 4.63 2 4.11 5.22-1.84 11.4-3.73 22.79-5.59 34.18-2.39 14.64-4.85 29.27-7.14 43.92-2.61 16.72-14.34 26.89-31.26 26.89-22.72 0-45.44-.03-68.16.04-2.27 0-4.01-.55-5.26-2.46v-3.21Z" style="fill:#8de01b"/><path d="M10.83 109.24c.95-4.98 1.96-9.96 2.84-14.96 3.39-19.24 6.7-38.5 10.14-57.74 2.31-12.95 11.95-21.18 25.79-21.36 21.06-.28 42.14-.1 63.2-.08 2.8 0 4.17 1.8 3.7 4.7-1.66 10.26-3.36 20.51-5.03 30.76-2.15 13.17-4.36 26.34-6.42 39.53-2.35 15.04-12.9 24.2-28.14 24.2-20.45 0-40.9-.02-61.35.04-2.04 0-3.61-.49-4.73-2.21v-2.89Z" style="fill:url(#a)"/><path d="M38.63 35.23q1.815 0 3.72-.42c1.27-.28 2.5-.73 3.71-1.36 1.2-.62 2.29-1.49 3.28-2.61.98-1.11 1.72-2.43 2.23-3.96h11.08l-14.43 74.21H35.09l10.7-55.03h-9.26l2.11-10.84Zm25.52 2.51 2.11-10.84h34.65l-2.05 10.53-30.89 63.69h-14L84.8 37.75H64.15Z" style="fill:#f1f2f2"/></svg>