<svg xmlns="http://www.w3.org/2000/svg" viewBox="0 0 128 128"><defs><linearGradient id="a" x1="28.01" x2="105.22" y1="94.75" y2="29.95" gradientUnits="userSpaceOnUse"><stop offset=".01" stop-color="#b5230e"/><stop offset="1" stop-color="#de5b47"/></linearGradient></defs><path d="M1.08 117.01c1.13-5.93 2.33-11.85 3.38-17.8 4.04-22.9 7.97-45.82 12.06-68.7C19.27 15.1 30.74 5.31 47.21 5.1c25.06-.33 50.14-.12 75.2-.09 3.33 0 4.96 2.14 4.4 5.59-1.98 12.2-4 24.4-5.99 36.6-2.56 15.68-5.19 31.34-7.64 47.04-2.8 17.9-15.35 28.79-33.48 28.8-24.33 0-48.66-.03-72.99.05-2.43 0-4.3-.59-5.63-2.63v-3.44Z" style="fill:#231f20;stroke-width:0"/><path d="M6.11 112.77c1.04-5.46 2.15-10.9 3.11-16.37 3.72-21.07 7.33-42.15 11.1-63.21C22.85 19.01 33.4 10.01 48.55 9.81c23.06-.3 46.13-.11 69.19-.09 3.06 0 4.56 1.97 4.05 5.15-1.82 11.23-3.68 22.45-5.51 33.67-2.36 14.42-4.78 28.83-7.03 43.27-2.57 16.47-14.12 26.49-30.8 26.5-22.38 0-44.77-.02-67.15.04-2.24 0-3.95-.54-5.18-2.42v-3.17Z" style="fill:#ce4430;stroke-width:0"/><path d="M11.62 108.58c.94-4.91 1.93-9.81 2.8-14.74 3.34-18.96 6.6-37.94 9.99-56.89 2.28-12.76 11.78-20.86 25.41-21.04 20.75-.27 41.51-.1 62.27-.08 2.75 0 4.11 1.77 3.64 4.63-1.64 10.11-3.31 20.2-4.96 30.31-2.12 12.98-4.3 25.95-6.33 38.95-2.31 14.82-12.71 23.84-27.72 23.85-20.15 0-40.29-.02-60.44.04-2.01 0-3.56-.49-4.66-2.18z" style="fill:url(#a);stroke-width:0"/><path d="M37.15 35.23q1.815 0 3.72-.42c1.27-.28 2.5-.73 3.71-1.36 1.2-.62 2.29-1.49 3.28-2.61.98-1.11 1.72-2.43 2.23-3.96h11.08l-14.43 74.21H33.61l10.7-55.03h-9.26l2.11-10.84Zm32.99 37.32-2.43 12.51c-.34 1.74-.37 3.11-.09 4.12s1.05 1.51 2.32 1.51 2.25-.52 2.95-1.56 1.22-2.4 1.54-4.06l1.82-9.38c.55-2.85.41-4.67-.44-5.47s-2.35-1.2-4.51-1.2h-4.43l2.31-11.88h5.06c1.63 0 3.08-.5 4.33-1.51s2.11-2.69 2.57-5.06l1.68-8.65c.26-1.32.16-2.41-.27-3.28-.44-.87-1.18-1.3-2.24-1.3-1.42 0-2.47.7-3.13 2.09-.67 1.39-1.25 3.37-1.75 5.94l-1.6 8.23H60.7l2.07-10.63c.65-3.34 1.73-6.17 3.23-8.49 1.51-2.33 3.21-4.15 5.1-5.47s3.82-2.24 5.8-2.76 3.83-.78 5.57-.78c2.16 0 4.16.3 6 .89s3.43 1.55 4.78 2.87q2.025 1.98 2.79 5.16c.51 2.12.48 4.67-.1 7.66l-.91 4.69c-.96 4.94-2.3 8.51-4.03 10.74-1.73 2.22-4.17 4-7.32 5.31 2.66.7 4.47 2.02 5.44 3.96.97 1.95 1.01 5.18.13 9.69l-1.6 8.24q-.915 4.695-2.85 8.13c-1.29 2.29-2.87 4.17-4.73 5.63q-5.235 4.17-12.6 4.17c-5.33 0-9.1-1.41-11.32-4.22s-2.76-7.17-1.61-13.08l2.47-12.72h13.13Z" style="fill:#f1f2f2;stroke-width:0"/></svg>