<svg xmlns="http://www.w3.org/2000/svg" viewBox="0 0 128 128"><path d="M63.34 28.99c6.94 0 14.42 1.63 20.44 6.13 5.38 4.02 10.05 9.86 12.48 16.14 5.25 13.58 1.48 28.99-9.08 38.79-10.46 9.7-27.1 12.13-39.89 5.55-13.42-6.9-20.16-20.97-19.1-35.73.61-8.42 5.22-16.05 11.27-21.75 3.21-3.02 6.78-5.51 10.98-6.92 4.07-1.36 8.87-2.21 12.91-2.21ZM37.23 63.84C38.52 80.11 47.3 89.79 63.21 89.8c16.33 0 25.71-9.74 25.87-25.41.17-16.5-9.82-26.03-25.49-26.13-16.4-.11-24.89 9.83-26.35 25.59ZM66.82 13.8c0 3.77 1.39 10.19-4.16 10.07s-4.24-6.73-4.23-10.65c0-3.43-.86-10.33 4.4-10.41 5.36-.08 3.99 7.72 3.99 10.99M18.33 24.14c0-2.17 2.1-4.01 4.48-3.98 2.11.02 3.69 1.86 5.09 3.18 2.67 2.5 8.34 6.45 7.94 10.52-.16 1.68-1.3 3.53-3.07 3.9-1.98.41-3.57-1.23-4.88-2.45-3.69-3.44-8.27-7.01-9.57-11.17Zm95.28 43.39c-3.78 0-10.19 1.42-10.14-4.08.05-5.56 6.7-4.29 10.59-4.29 3.41 0 11.11-.78 10.45 4.93-.54 4.73-7.74 3.46-10.91 3.46v-.02ZM12.98 68.95c-3.35 0-11.97.68-10.85-5.23.9-4.73 9.16-3.27 12.46-3.25 3.85.02 9.09-.71 8.5 4.7-.54 4.97-6.51 3.78-10.11 3.78m95.16 35c.61 1.8-1.6 4.34-4.32 4.34-2.09 0-4.02-2.53-5.35-3.82-2.67-2.59-8.45-6.39-7.65-10.68.3-1.6 1.53-3.27 3.23-3.53 2.18-.32 3.91 1.78 5.3 3.12 3.44 3.31 6.69 6.29 8.79 10.57m-48.33 10.36c0-3.78-1.42-10.19 4.1-10.12 5.55.07 4.28 6.72 4.28 10.61 0 3.39.77 11.14-4.95 10.43-4.71-.58-3.44-7.75-3.44-10.92h.02Zm33.87-77.32c-1.61 0-3.02-1.51-3.61-2.72-.51-1.04-.12-3.15.68-4.07 2.91-3.34 6.08-6.48 9.32-9.51 1.75-1.64 4.8-1.29 6.37.39 1.79 1.9 1.05 3.72-.41 5.28-2.86 3.08-5.8 6.1-8.84 9-.77.74-2.15 1.63-3.51 1.63m-70.13 71.87c-1.83 0-4.41-2.01-4.49-4.21-.07-2.03 2.43-3.88 3.67-5.19 2.55-2.69 6.61-8.8 10.89-7.9 5.35 1.13 3.12 5.62.61 8.24-3.34 3.49-7.24 8.49-10.68 9.06" style="fill:#f4f8f4;stroke-width:0"/></svg>