<svg xmlns="http://www.w3.org/2000/svg" viewBox="0 0 128 128"><path d="M48.85 114.42c-9.12 0-18.24.22-27.35-.07-8.08-.26-14.33-4.31-17.69-11.58S1.74 88.42 7.31 82.5c1.95-2.07 2.85-3.92 1.53-6.69-.55-1.15-.47-2.66-.46-4.01.09-12.36 5.52-21.68 16.82-26.69 8.75-3.88 17.7-3.84 25.67 2.58 2.42 1.95 4.59 4.2 6.98 6.18.6.5 1.67.84 2.41.69 5.33-1.06 10.76-1.39 15.66.99 2.98 1.44 5.51 4.09 7.81 6.59 3.15 3.43 4.61 7.61 3.94 12.41-.41 2.87.45 5.04 2.98 7.02 4.19 3.27 6.69 12.59 5.11 18.06-2.69 9.33-11.88 15.17-21.12 14.85-8.58-.3-17.19-.06-25.78-.07Zm.4-7.57c8.59 0 17.19.22 25.77-.12 3-.12 6.2-1.16 8.87-2.58 4.65-2.49 6.17-8.65 3.99-13.44-1.13-2.48-2.73-4.31-5.23-5.59-1.7-.87-4.21-1.79-3.04-4.59 1.2-2.87 1.47-5.48.67-8.68-1.02-4.07-3.24-6.73-6.6-8.64-4.56-2.6-9.2-2.13-13.82.08-2.87 1.37-4.72 1-5.95-1.3-3.14-5.86-7.57-9.6-14.36-10.97-5.84-1.18-15.04 1.32-18.61 6.14-4.79 6.47-6.45 13.42-3.43 21.2 1.48 3.8.95 5.06-2.52 7.24-3.93 2.47-5.83 6.08-5.27 10.59.56 4.57 3 8.06 7.7 9.3 2.59.68 5.28 1.24 7.94 1.3 7.96.17 15.93.06 23.89.06" style="fill:#f4f8f4;stroke-width:0"/><path d="M93.68 76.92c-.87-.99-.76-2.49.23-3.35 3.77-3.26 5.82-8.24 5.88-14.49.12-12.21-7.26-19.26-18.87-19.34-8.17-.05-13.69 3.26-16.75 9-.57 1.07-1.86 1.52-2.94.96l-2.16-1.12c-1.11-.58-1.53-1.98-.86-3.05 1.35-2.17 3.02-4.15 4.86-5.89 2.38-2.24 5.01-4.08 8.13-5.12 3.01-1.01 6.56-1.64 9.55-1.64 5.13 0 10.67 1.21 15.12 4.54 3.98 2.98 7.44 7.3 9.23 11.94 3.89 10.05 1.1 21.45-6.72 28.7-.09.09-.19.18-.29.26-.98.88-2.5.78-3.37-.21zM83.32 21.64c0 2.79 1.03 7.54-3.08 7.45s-3.14-4.98-3.13-7.88c0-2.54-.64-7.65 3.26-7.7 3.96-.06 2.96 5.71 2.96 8.14Zm-35.88 7.65c0-1.61 1.56-2.97 3.32-2.95 1.56.02 2.73 1.38 3.77 2.35 1.98 1.85 6.17 4.77 5.88 7.78-.12 1.24-.96 2.62-2.27 2.89-1.46.31-2.64-.91-3.61-1.81-2.73-2.54-6.12-5.19-7.08-8.27Zm70.5 32.11c-2.8 0-7.54 1.05-7.5-3.02.04-4.12 4.96-3.18 7.84-3.18 2.52 0 8.22-.58 7.74 3.65-.4 3.5-5.72 2.56-8.07 2.56v-.01Zm-4.05 26.95c.45 1.33-1.18 3.21-3.2 3.21-1.54 0-2.98-1.88-3.96-2.83-1.97-1.92-6.25-4.73-5.66-7.91.22-1.18 1.13-2.42 2.39-2.61 1.61-.24 2.9 1.32 3.92 2.31 2.55 2.45 4.95 4.66 6.5 7.82ZM103.2 38.8c-1.19 0-2.24-1.12-2.67-2.02-.37-.77-.09-2.33.51-3.01 2.15-2.47 4.5-4.79 6.9-7.04 1.29-1.21 3.55-.95 4.71.29 1.32 1.41.77 2.75-.3 3.91a158 158 0 0 1-6.54 6.66c-.57.55-1.59 1.21-2.6 1.21Z" style="fill:#f4f8f4;stroke-width:0"/></svg>