<svg xmlns="http://www.w3.org/2000/svg" data-name="weather_4" viewBox="0 0 128 128"><path d="M112.57 50.16c-.93 4.4.78 7.3 3.91 10.53 13.37 13.79 5.48 33.73-9.9 38.75-2.41.79-4.98 1.29-7.5 1.46-2.55.17-4.11-1.35-4.25-4-.14-2.71 1.22-3.89 3.91-4.22 8.2-.99 13.78-5.88 15.93-13.73 1.02-3.7-2.07-10.99-5.8-13.61-1.06-.74-2.21-1.34-3.27-2.08-2.33-1.62-3.28-3.43-2.33-6.57 3.3-10.94-2.63-21.35-15.29-23.65-3.34-.61-7.44 1.53-10.86 3.1-3.95 1.82-5.32 1.76-7.25-2.27-4.25-8.85-11.97-12.91-20.95-15.03-5.78-1.36-20.36 5.5-23.28 12.27-1.48 3.44-3.28 6.77-4.42 10.32-1.56 4.86.46 9.44 2.18 13.84 2.25 5.74 2.45 5.69-2.92 9.14-4.7 3.02-7.62 7.49-7.26 12.85.37 5.48 2.76 10.54 8.61 12.77 2.5.95 4.99 2.08 7.58 2.62 2.45.5 3.75 1.55 3.69 4.07-.06 2.42-1.34 4.37-3.69 4.09-4.02-.48-8.52-.75-11.82-2.75C9.33 93.04 4.04 85.73 4.76 75.37c.41-5.89 2.61-11.12 6.96-15.09 2.56-2.33 2.79-4.91 1.95-7.7-2.79-9.24-.24-17.6 4.26-25.49 3.66-6.43 9.08-11.21 15.99-14.09 11.5-4.81 25.97-3.08 34.94 5.99 4.22 4.27 7.62 7.47 14.96 5.85 13.32-2.93 24.91 7.63 28.39 19.24.57 1.91.26 4.09.36 6.08" style="fill:#f4f8f4;stroke-width:0"/><path d="M61.44 102.8c-2.75 2.8-5.64 5.75-8.54 8.71-2.68-2.02-6.47-3.89-8.2-6.86-1.92-3.3 1.02-5.46 3.22-7.8 2.53-2.71 3.92-5.1 7.15-2.08 2.69 2.52 4.92 4.67 6.38 8.03Zm17.25-19.61c-.63 2.67-6.63 9.38-8.82 9.71-1.63.25-9.38-7.56-8.86-9.06.32-.93 1.03-1.77 1.69-2.54 1-1.18 2.2-2.18 3.15-3.4 3.62-4.61 3.63-4.67 7.9-.31 1.74 1.77 3.29 3.73 4.93 5.61Zm7.21 25.53c-.03 2.8-3.8 7-6.06 8.34-2.44 1.45-3.63-.2-5.52-1.88-1.61-1.43-5.45-3.84-5.43-6.07.01-2.2 3.21-4.66 4.61-6.02 1.57-1.52 3.33-3.14 5.68-2.46 2.72.78 6.74 5.14 6.71 8.09Z" style="fill:#f4f8f4;stroke-width:0"/></svg>