<?xml version="1.0" encoding="UTF-8"?>
<svg id="uuid-aa8ec824-8f77-4a5e-b317-a09cd25cacf7" data-name="cat_placeable" xmlns="http://www.w3.org/2000/svg" viewBox="0 0 128 128">
  <path d="M123.86,118.95h-9.54v-49.03l5.29,11.4c.51,1.09,1.59,1.74,2.73,1.74.42,0,.85-.09,1.26-.28,1.5-.7,2.15-2.49,1.45-3.99l-17.58-37.88c-.22-.46-.55-.86-.96-1.16l-40.58-29.4c-1.04-.75-2.44-.76-3.49-.03l-39.84,27.98c-.45.31-.8.74-1.02,1.23l-7.53,16.82-.07.15-9.52,21.26c-.68,1.52,0,3.29,1.51,3.97,1.51.67,3.29,0,3.96-1.51l4.05-9.04v47.77H3.53c-1.66,0-3,1.34-3,3s1.34,3,3,3h120.33c1.66,0,3-1.34,3-3s-1.34-3-3-3ZM75.45,118.95h-22.44v-29.47h22.44v29.47ZM108.32,118.95h-26.87v-35.47h-34.44v35.47h-27.03v-61.16l6.74-15.05,37.42-26.28,38.22,27.69,5.96,12.84v61.96Z" style="fill: #2ac1ec; stroke-width: 0px;"/>
  <path d="M77.17,70.98h-26.47v-31.19h26.47v31.19ZM56.7,64.98h14.47v-19.19h-14.47v19.19Z" style="fill: #2ac1ec; stroke-width: 0px;"/>
</svg>