<?xml version="1.0" encoding="UTF-8"?>
<svg id="uuid-495a07a3-29ae-4385-9aa0-b5f355e2da05" data-name="cat_attach_need" xmlns="http://www.w3.org/2000/svg" viewBox="0 0 128 128">
  <path d="M44.42,116.03h-3.47c-1.24,0-2.25-1.01-2.25-2.25s1.01-2.25,2.25-2.25h3.47c1.24,0,2.25,1.01,2.25,2.25s-1.01,2.25-2.25,2.25Z" style="fill: #2ac1ec; stroke-width: 0px;"/>
  <path d="M111.48,111.54h-21.75v-37.53c0-1.25-1-2.25-2.25-2.25H3.23c-1.24,0-2.25,1-2.25,2.25v39.78c0,1.23,1.01,2.25,2.25,2.25h7.94c1.23,0,2.25-1.02,2.25-2.25s-1.02-2.25-2.25-2.25h-5.69v-12.09h79.74v12.09h-10.23c-1.25,0-2.25,1-2.25,2.25s1,2.25,2.25,2.25h36.48c1.25,0,2.25-1.02,2.25-2.25s-1-2.25-2.25-2.25ZM85.23,94.95H5.48v-18.69h79.74v18.69Z" style="fill: #2ac1ec; stroke-width: 0px;"/>
  <polygon points="127.02 85.27 113.21 100.11 99.41 85.27 101.89 82.96 110.96 92.73 110.96 46.53 115.46 46.53 115.46 92.73 124.54 82.96 127.02 85.27" style="fill: #2ac1ec; stroke-width: 0px;"/>
  <path d="M22.5,126.73c-2.4-.64-3.76-2.16-4.35-3.55-1.26-.87-2.09-.9-3.05-3.3-.99-2.39-.42-2.99-.13-4.5-.33-1.51-.9-2.12.18-4.65,1.06-2.54,1.89-2.56,3.2-3.39.87-1.27.9-2.09,3.3-3.06,2.4-1,2.99-.43,4.5-.13,1.51-.33,2.12-.89,4.65.18,2.54,1.06,2.56,1.89,3.39,3.2,1.27.87,2.09.9,3.06,3.31.99,2.39.42,2.99.13,4.5.33,1.51.9,2.12-.18,4.66-1.06,2.54-1.89,2.56-3.2,3.39-.87,1.26-.9,2.09-3.3,3.05-2.39.99-2.99.43-4.5.13-1.23.24-1.87.78-3.7.18Z" style="fill: #2ac1ec; stroke-width: 0px;"/>
  <path d="M55.81,126.73c-2.4-.64-3.76-2.16-4.35-3.55-1.26-.87-2.09-.9-3.05-3.3-.99-2.39-.42-2.99-.13-4.5-.33-1.51-.9-2.12.18-4.65,1.06-2.54,1.89-2.56,3.2-3.39.87-1.27.9-2.09,3.3-3.06,2.4-1,2.99-.43,4.5-.13,1.51-.33,2.12-.89,4.65.18,2.54,1.06,2.56,1.89,3.39,3.2,1.27.87,2.09.9,3.06,3.31.99,2.39.42,2.99.13,4.5.33,1.51.9,2.12-.18,4.66-1.06,2.54-1.89,2.56-3.2,3.39-.87,1.26-.9,2.09-3.3,3.05-2.39.99-2.99.43-4.5.13-1.23.24-1.87.78-3.7.18Z" style="fill: #2ac1ec; stroke-width: 0px;"/>
</svg>