<?xml version="1.0" encoding="UTF-8"?>
<svg id="fill_oat" xmlns="http://www.w3.org/2000/svg" viewBox="0 0 128 128">
  <path d="M88.15,49.66c6.06-.57,9.3,1.46,11.97,7.66,11.14-3.56,37,6.12,18.54,17.3,3.71,8.4-3.81,15.82-11.93,10.99-.03.19-.59,0-.3.43,3.08,6.02,1.77,9.76-4.69,12.91,4.91,12.01-6.88,15.39-15.66,8.83,8.98,14.51-8.98,27.87-16.95,11.84-2.96-7.86-5.57-15.55-8.6-23.42-2.11,10.38-14.09,14.67-17.54,2.66-5.94,2.91-12.18-1.33-11.73-8.35-2.33,9.32-13.94,11.3-16.52.66-7.18,3.35-14.94-4.24-10.58-11.1,3.36-5.65,7.27-10.81,13.27-13.89-6.42-21.83,16.89-13.97,28.52-9.99-2.25-7.39-7.15-14.32-1.49-21.32,6.37-9.14,12.52-18.43,18.56-27.79,4.46-9.11,18.16-7.56,19.5,2.85,7.93-1.44,23.59-.51,24.53,9.23.08,3.72-1.81,6.22-6.22,8.04,4.41,7.69-4.11,16.06-11.62,11.02-.12.17-.57.09-.37.5,2.24,3.69,1.9,7.04-.64,10.5,0,0-.18-.03-.18-.03.02.1.12.24.21.3l-.08.17ZM41.78,75.77c-2.42-.7-5.08-1.47-7.34-2.13-.56,4.39-1.1,8.67-1.64,12.94,3.37-2.53,5.89-7.45,8.99-10.81ZM84.18,35.47c-3.83-2.51-7.19-5.48-9.48-9.86-1.73,2.61-3.36,5.06-4.76,7.17,4.76,1.07,9.37,2.11,13.99,3.15.02-.19.1-.34.25-.46ZM101.7,82.85c-3.13-2.8-6.26-5.61-9.49-8.5-1.23,1.85-2.67,4.02-3.93,5.91,4.44,1.02,8.8,2.02,13.16,3.02.03-.18.12-.33.27-.43Z" style="fill: #4a3726; stroke-width: 0px;"/>
  <path d="M55.34,42.77c4.9,13.45,9.72,26.71,14.71,40.41,4.52-4.08,16.81-30.8,21.9-26.58,1.75,1.09,2.01,3.09.49,5.4-6.46,9.79-12.97,19.43-19.45,29.23.7,5.16,12.95,27.03,6.92,28.57-6.32,1.98-7.85-14.63-10.59-18.89-3.24-8.91-6.48-17.83-9.75-26.83-11.23-3.32-22.33-6.54-33.53-9.82-2.62-.77-3.84-2.4-3.32-4.31.53-6.95,27.98,5.88,33.82,6.1-1.68-8.22-9.4-18.65-7.16-26.43,4.16-4.35,20.29-36.33,24.9-31.54,6.45,2.36-16.74,29.12-18.93,34.69Z" style="fill: #ad996e; stroke-width: 0px;"/>
  <path d="M97.33,66.17c3.88-4.49,15.74-3.04,20.96.56-2.51,2.7-6.24,2.49-9.25,4.24,1.39,2.86,2.79,5.74,4.17,8.6-4.65,2.36-15.6-7.1-15.89-13.4Z" style="fill: #beb696; stroke-width: 0px;"/>
  <path d="M53.81,78.95c3.55,5.31,1.34,19.05-3.62,20.47-.76-3.03-1.52-6.05-2.34-9.34-3.23,1.09-6.34,2.15-9.65,3.26.17-4.98,9.18-15.7,15.62-14.4Z" style="fill: #beb696; stroke-width: 0px;"/>
  <path d="M62.92,43.03c3.42-4.34,14.3-3.5,21.26.41-2.83,2.51-6.46,2.68-9.55,4.33,1.37,2.8,2.75,5.61,4.52,9.2-8.58-.26-16.12-8.56-16.23-13.94Z" style="fill: #beb696; stroke-width: 0px;"/>
  <path d="M25.4,71.16c4.57,4.71.63,17.56-3.33,21.07-.92-3.43-1.75-6.52-2.67-9.98-3.1,1.1-6.14,2.19-9.21,3.28-1.39-5.23,8.99-14.66,15.2-14.36Z" style="fill: #beb696; stroke-width: 0px;"/>
  <path d="M100.44,18.81c-.94,3.14-6.34,3.1-9.08,4.61,1.46,3.12,2.82,6.04,4.31,9.24-6.11-.09-16.81-7.93-15.92-13.87,3.22-4.09,12.94-3.62,20.69.02Z" style="fill: #beb696; stroke-width: 0px;"/>
  <path d="M102.05,91.34c-3.49,1.37-6.49,2.55-9.69,3.81,1.42,3.05,2.78,5.97,4.24,9.1-5.71.25-17.13-8.11-15.91-13.91,3.83-4.74,16.66-2.69,21.37,1Z" style="fill: #beb696; stroke-width: 0px;"/>
</svg>