<?xml version="1.0" encoding="UTF-8"?>
<svg id="uuid-b5d393ff-d4f2-45e3-893b-b166ec7bc959" data-name="fill_canola" xmlns="http://www.w3.org/2000/svg" xmlns:xlink="http://www.w3.org/1999/xlink" viewBox="0 0 128 128">
  <defs>
    <radialGradient id="uuid-4107d983-1532-4544-88b8-385f48e6ca2d" cx="37.32" cy="31.03" fx="37.32" fy="31.03" r="21.42" gradientUnits="userSpaceOnUse">
      <stop offset="0" stop-color="#bc9042"/>
      <stop offset=".75" stop-color="#ede074"/>
    </radialGradient>
    <linearGradient id="uuid-936fabbf-0e67-45b1-bed1-664c67a544ad" x1="261.87" y1="1129.26" x2="339.66" y2="1267.9" gradientTransform="translate(-74 -518) scale(.5)" gradientUnits="userSpaceOnUse">
      <stop offset="0" stop-color="#93d597"/>
      <stop offset="1" stop-color="#62c367"/>
    </linearGradient>
    <radialGradient id="uuid-6735c201-3f8d-4be9-8401-5493a63e1fb2" cx="77.94" cy="36.91" fx="77.94" fy="36.91" r="19.37" gradientUnits="userSpaceOnUse">
      <stop offset="0" stop-color="#bc9042"/>
      <stop offset=".65" stop-color="#ede074"/>
    </radialGradient>
    <radialGradient id="uuid-93584c84-9f74-47dc-8b13-962f9a3ae1ce" cx="42.71" cy="71.31" fx="42.71" fy="71.31" r="16.48" gradientUnits="userSpaceOnUse">
      <stop offset="0" stop-color="#bc9042"/>
      <stop offset=".61" stop-color="#ede074"/>
    </radialGradient>
  </defs>
  <path d="M43.51,15.5c4.4-1.23,7.41-2.11,11.76-.01,4.75,2.29,6.43,7,6.49,12.02l5.23-1.02c.06-15.41,21.66-15.14,21.01.01,15.28-1.01,15.56,20.82.51,21,.17,3.21-1.1,6.58-3.49,8.76-.93.85-3.85,2.1-3.93,2.31-.81,2.15.12,14.58.41,19.19.05,1.57,1.47,5.44,2.02,2.69.36-3.27,7.27-11.98,10.24-12,1.77-.01,2.82,2.06,3.65,3.4,6.14,9.94,4.46,19.94-3.83,27.9l8.93,15.55c.73,2.39-5.56,5.8-7.22,5.7-2.97-.17-3.29-6.39-5.67-7.84-5.18,1.86-10.85,2.6-15.96.44-2.86-1.21-10.62-6.7-10.7-9.82-.06-2.2,2.43-3.38,4.2-4.35,3.93-2.15,8.53-2.53,13-2.84-1.62-2.62-5.6-10.73-7.47-12.02-.91-.63-13.04-4.48-13.74-4.32-.99.23-2.35,1.85-3.81,2.15-1.68.35-3.44-.03-5.12.13-1.98,12.72-20.82,8.97-18.01-3.51-12.92-2.67-9.34-20.88,3.49-18.5.21-2.16,1.44-4.31,2.99-5.75-3.01-1.94-6.63-4.34-7-8.25-9.41,4.5-19.84-2.41-17.77-13.02.74-3.79,4.34-7.94,8.27-8.48-1.54-4.51-2.14-8.84.78-12.97,5.76-8.13,18.47-6.2,20.73,3.47ZM56,36.5c-3.75.28-3.32,1.74-1.5,4.25l3.5,3.25c-.31-1.48-1.43-2.36-1.78-3.97-.26-1.18-.29-2.33-.22-3.53ZM67.5,47.5c-3.24.85-4.98-1.02-7.35-1.9-.7-.26-1.36-.35-1.15.64l11.65,14.46c1.01-3.69-2.05-6.25-2.81-9.3-.34-1.35-.46-2.52-.34-3.91ZM65.7,71.45c.45-.44-3.71-5.53-4.21-6.19-3.11-4.13-6.97-7.79-9.96-12.04-.73-1.23-3.18-.69-2.04.54,1.52,1.64,2.92,1.86,3.9,4.6.59,1.62.51,5.35.67,5.58.11.15,2.39.98,3.21,1.51,2.56,1.68,4.8,6.48,8.43,6Z" style="fill: #050503;"/>
  <path d="M24,16c3.96-10.94,18.03-7.07,18,4,18.44-8.99,22.83,15.2,6.5,15.5.57,1.71,1.92,2.86,2.59,4.65.91,2.4,1.07,3.5.26,5.96-2.11,6.43-10.12,8.67-15.13,3.91-2.27-2.16-2.6-5.14-3.24-8.02-.31-.24-2.53,1.79-3.14,2.1-7.79,3.87-16.11-3-13.24-11.26.19-.54,1.49-5.86,9.04-6.64-1.66-3.04-2.53-8.16-1.66-10.2Z" style="fill: url(#uuid-4107d983-1532-4544-88b8-385f48e6ca2d);"/>
  <path d="M67.6,106.18c-3.53-2.91-1.48-3.57,2.56-5.27,3.43-1.44,6.79-2.25,10.54-1.86.8.08,4.26,1.7,3.79.21l-10.02-16.98-13.45-4.31.99-4.97c2.69.53,8.92,3.06,8.46,2.1s-4.73-8.6-5.75-10.06c-3.38-4.84-8.33-9.34-11.85-14.17-1.07-2.07.89-6.93,2.54-5.02,5.64,6.53,15.48,18.64,17.34,22.65.72-4.41-.28-9.17.25-10.49l5.48,1.02c.25,4.71-.26,9.55,0,14.25.09,1.62.34,4.92.63,6.37.58,2.87,3.7,5.95,5.43,9.03.25-3.36.45-4.71.63-6.19,1.59-6,6.78-11.05,8.85-10.76.68.09,2.14,3.21,2.5,4.03,2.68,6.09,2.81,11.49-.8,17.22-1.5,2.38-3.87,3.96-5.2,6.28l8.74,15.29c1.37,1.73-3.49,3.97-4.22,3.44l-4.07-7.94c-2.78.56-4.86,2.26-7.85,2.33-8.9.21-14.33-5.22-15.51-6.18Z" style="fill: url(#uuid-936fabbf-0e67-45b1-bed1-664c67a544ad);"/>
  <path d="M71.76,19.63c2.53-2.54,4.1-2.53,7.37-2.02,2.55.4,5.61,3.38,6.14,5.86.49,2.3-.06,3.8-.27,6.03,16.14-4,16.15,18.85,0,14.51,2.11,5.49-.41,12.11-6.82,12.47-4.2.23-8.12-3.55-8.22-7.72-.04-1.66.62-3.14.8-4.74-11.62,2.13-13.05-7-11.45-10.46,2.09-4.52,6.31-5.49,10.6-4.35-1.87-5.81.99-8.47,1.86-9.57Z" style="fill: url(#uuid-6735c201-3f8d-4be9-8401-5493a63e1fb2);"/>
  <path d="M27.39,73.65c-3.39-5,.5-12.09,6.69-11.08,1.15.19,2.31.83,3.92,1.43-1.6-7.25,7.36-12.66,11.92-6.17,2.45,3.5,1.53,5.54.09,9.17,3.32-1.13,6.56-.15,8.27,2.98,3.95,7.21-4.58,12.78-10.77,8.52.07,3.97-1.01,10.42-8,9-5.5-.68-6.6-6.77-4-11-1.94.27-5.89.42-8.11-2.85Z" style="fill: url(#uuid-93584c84-9f74-47dc-8b13-962f9a3ae1ce);"/>
  <path d="M32.21,73.77c-.24-.13-.47-.26-.69-.41-.07-.05-.13-.09-.2-.14-.15-.11.07.06-.02-.01-.1-.09-.21-.17-.31-.26-.2-.18-.39-.37-.57-.56-.1-.11-.19-.22-.29-.34-.07-.08-.04-.06,0,.01-.05-.07-.1-.13-.14-.19-.15-.22-.3-.45-.42-.68-.06-.12-.13-.24-.18-.36-.03-.06-.06-.12-.08-.18-.04-.1-.06-.15,0-.02-.2-.53-.36-1.06-.44-1.62-.08-.52-.76-.85-1.23-.7-.56.18-.78.67-.7,1.23.38,2.5,2.04,4.77,4.26,5.96.46.25,1.11.13,1.37-.36.24-.46.13-1.11-.36-1.37h0Z" style="fill: #fdfcf4;"/>
  <path d="M41.79,87.18c2.07-.54,3.76-2.21,4.36-4.26.15-.5-.18-1.11-.7-1.23s-1.07.16-1.23.7c-.03.1-.06.2-.1.3-.02.05-.04.1-.06.15-.07.18.09-.21.02-.04-.09.19-.19.38-.3.57-.06.09-.11.18-.18.27-.03.04-.06.09-.09.13-.12.16.15-.19.03-.03-.14.16-.28.32-.43.47-.08.07-.16.15-.24.22-.04.03-.08.07-.12.1-.14.12.19-.14.03-.03-.17.12-.35.24-.54.35-.09.05-.19.1-.28.15-.04.02-.08.04-.12.06-.2.09.14-.05.04-.02-.21.08-.42.15-.63.21-.51.13-.86.72-.7,1.23s.69.84,1.23.7h0Z" style="fill: #fdfcf4;"/>
  <path d="M69.7,106.14c1.77,1.46,3.73,2.51,5.84,3.42,2.25.97,4.46,1.67,6.93,1.68,1.29,0,1.29-2,0-2-2.18,0-4.14-.63-6.12-1.49-1.86-.81-3.66-1.73-5.24-3.02-.42-.34-1.01-.41-1.41,0-.35.35-.42,1.07,0,1.41h0Z" style="fill: #fdfcf4;"/>
  <path d="M92.04,74.18c-3.66,2.83-5.87,7.34-5.97,11.95-.03,1.29,1.97,1.29,2,0,.09-4.13,2.13-8.02,5.39-10.54.43-.33.35-1.07,0-1.41-.42-.42-.99-.33-1.41,0h0Z" style="fill: #fdfcf4;"/>
  <path d="M59.85,37.36c.2,1.55.83,2.96,1.87,4.13.97,1.1,2.3,1.91,3.72,2.26.51.12,1.11-.16,1.23-.7s-.15-1.1-.7-1.23c-.3-.07-.59-.17-.88-.28.23.09,0,0-.04-.02-.07-.03-.14-.07-.21-.1-.14-.07-.27-.15-.4-.23s-.26-.17-.39-.26c-.04-.03-.23-.18-.04-.03-.05-.04-.1-.08-.15-.12-.24-.2-.46-.41-.67-.64-.1-.11-.19-.21-.28-.32.15.18,0,0-.03-.04-.05-.06-.09-.13-.13-.19-.17-.26-.33-.53-.46-.8-.03-.07-.06-.14-.1-.21.07.15.02.05-.02-.05-.06-.14-.1-.29-.15-.44-.04-.14-.08-.27-.11-.41-.02-.08-.03-.15-.05-.23-.01-.06-.05-.35-.02-.08-.07-.52-.41-1.03-1-1-.49.02-1.07.44-1,1h0Z" style="fill: #fdfcf4;"/>
  <path d="M72.71,25.3c.08-.53.23-1.04.43-1.55.04-.11-.07.15,0-.02.03-.06.06-.12.08-.18.06-.12.12-.24.18-.35.13-.24.28-.48.44-.7.04-.05.08-.11.12-.16.09-.12-.15.18.02-.02.08-.1.17-.2.26-.3.18-.2.37-.39.56-.56.1-.09.2-.17.3-.26.21-.17-.16.11.05-.04.05-.04.11-.08.16-.12.23-.16.47-.3.72-.44.45-.24.63-.91.35-1.35-.3-.46-.86-.61-1.35-.35-2.19,1.18-3.85,3.41-4.24,5.88-.08.51.13,1.08.69,1.21.47.11,1.13-.14,1.21-.69h0Z" style="fill: #fdfcf4;"/>
  <path d="M27.6,20.86c-.69-1.93-.44-3.97.68-5.7.29-.45.09-1.09-.35-1.35-.48-.28-1.06-.1-1.35.35-1.35,2.1-1.72,4.85-.88,7.22.18.5.67.84,1.21.69.48-.13.87-.71.69-1.21h0Z" style="fill: #fdfcf4;"/>
  <path d="M19.39,36.67c.04.28,0-.15,0-.22,0-.15,0-.29,0-.44,0-.16.02-.31.04-.46.01-.12-.03.15,0-.04.02-.09.03-.18.05-.27.06-.34.15-.68.25-1.01.05-.17.11-.34.17-.51.03-.08.06-.15.09-.23.12-.3-.08.16.06-.13.16-.33.32-.66.51-.98.09-.14.17-.29.27-.42.06-.08.11-.16.17-.25.11-.16-.05.05.09-.12.22-.26.45-.52.7-.75.06-.05.12-.1.18-.16.16-.15-.06.04.1-.08.15-.11.31-.21.47-.31,1.09-.64.1-2.34-.99-1.7-1.47.86-2.56,2.31-3.23,3.85s-1.04,3.11-.81,4.74c.07.53.75.82,1.21.69.57-.16.76-.68.69-1.21h0Z" style="fill: #fdfcf4;"/>
  <path d="M87.98,37.27c-.01.49-.38.88-.84.95-.06,0-.12.02-.18.02l-4.41-.12c-.39,1.74-1.73,3.24-4.18,3.43l-.15,5.54c-.01.49-.37.89-.84.96-.06,0-.13.01-.19.01-.55-.01-.99-.47-.97-1.03l.15-5.61c-1.75-.39-3-1.89-3.37-3.55l-4.83-.13c-.55-.01-.99-.47-.97-1.03.01-.55.47-.99,1.03-.97l4.76.12c.27-1.16,1.02-2.23,2.4-2.88.42-.2.83-.37,1.23-.47l.14-4.98c.01-.56.48-.99,1.03-.97.55.01.99.47.97,1.02l-.12,4.7c2.25.17,3.65,1.92,3.98,3.85l4.41.12c.56.01.99.47.97,1.03Z" style="fill: #efe15f;"/>
  <path d="M49,26.45c.21.55,0,1.15-.49,1.45-.06.04-.12.08-.19.1l-4.92,1.92c.38,2.11-.41,4.4-3.03,5.75l2.4,6.21c.21.55,0,1.16-.48,1.46-.06.04-.14.07-.21.1-.61.24-1.31-.06-1.55-.69l-2.43-6.29c-2.11.38-4.18-.71-5.36-2.37l-5.39,2.1c-.61.24-1.31-.06-1.55-.69-.24-.62.06-1.31.69-1.56l5.31-2.08c-.24-1.41.1-2.95,1.31-4.31.38-.42.75-.79,1.14-1.09l-2.15-5.59c-.24-.63.07-1.32.69-1.56.61-.24,1.31.06,1.54.68l2.04,5.27c2.56-.86,4.91.43,6.17,2.42l4.92-1.92c.62-.25,1.31.06,1.55.69Z" style="fill: #efe15f;"/>
  <path d="M52.86,73.27c-.09.48-.51.81-.98.81-.06,0-.12,0-.18-.01l-4.34-.81c-.66,1.66-2.22,2.93-4.67,2.73l-1.02,5.45c-.09.48-.51.82-.98.82-.06,0-.13-.01-.19-.02-.54-.1-.9-.62-.8-1.17l1.03-5.52c-1.67-.66-2.66-2.34-2.77-4.04l-4.75-.89c-.54-.1-.9-.62-.8-1.17.1-.54.62-.9,1.17-.8l4.68.87c.45-1.1,1.36-2.04,2.82-2.47.45-.13.88-.23,1.29-.27l.92-4.9c.1-.55.63-.9,1.17-.8.54.1.9.62.8,1.16l-.86,4.62c2.2.52,3.3,2.47,3.32,4.43l4.34.81c.55.1.9.62.8,1.17Z" style="fill: #efe15f;"/>
  <path d="M36.36,27.6c6.59-1.45,6.05,8.81-.39,6.68-2.82-.93-2.71-6,.39-6.68Z" style="fill: #eab821;"/>
  <path d="M76.34,34.1c5.59-1.71,6.27,6.45.95,5.9-3.49-.36-3.45-5.14-.95-5.9Z" style="fill: #eab821;"/>
  <path d="M41.85,69.1c4.89-1.47,4.83,6.29,0,4.81-2.08-.64-2.47-4.07,0-4.81Z" style="fill: #eab821;"/>
</svg>