<?xml version="1.0" encoding="UTF-8"?>
<svg id="uuid-ed3c6171-4259-42f5-827a-7cfd01a96cfa" data-name="fill_goatcheese" xmlns="http://www.w3.org/2000/svg" xmlns:xlink="http://www.w3.org/1999/xlink" viewBox="0 0 128 128">
  <defs>
    <linearGradient id="uuid-fefa3568-6266-4fac-94fd-7bcf1ccca5ac" x1="-1745.96" y1="-571.91" x2="-1845.47" y2="-446.62" gradientTransform="translate(962 296) scale(.5)" gradientUnits="userSpaceOnUse">
      <stop offset="0" stop-color="#b4b4b4"/>
      <stop offset="1" stop-color="#e7e7e7"/>
    </linearGradient>
  </defs>
  <path d="M108.5,75c2.03.02,11.42-1.82,12.28-.53,1.46,2.19-1.8,7-3.52,8.55-1.07.97-3.81,2.16-4.06,2.47-.23.28.35,2.76.31,3.75-.4,8.57-4.76,11.79-8.1,18.42-.87,1.73-1.07,3.44-2.2,5.3-2.63,4.33-6.22,5.52-11.24,4.33-4.3-1.02-6.09-7.77-7.88-11.12-1.27-2.38-3.33-4.54-4.52-6.98-1.33-2.72-1.61-5.58-2.81-8.18-10.08,7.7-17.81,13.93-30.59,7.08-10.74-5.76-21.25-13.52-31.9-19.6-6.56-5.62-4.82-15.86-6.38-23.62-.43-2.14-1.5-2.28-2.31-3.69-2.16-3.74-1.11-8.55,2.26-11.1,15-7.54,29.65-15.82,44.66-23.34,5.86-2.94,11.67-7.08,18.54-5.52l48.11,17.39c4.14,2.66,5.94,7.49,3.09,11.87-.87,1.33-3.18,2.45-3.62,3.38-.96,2.03-3.05,14.48-3.52,17.53-.14.93.39,1.74.3,2.3-.12.72-3.84,3.19-4.81,4.64-1.23,1.85-2.03,4.43-2.08,6.67Z" style="fill: #040504;"/>
  <path d="M82,75c-.5.47-10.44-1.82-12.03-.78-2.18,1.43,2.06,7.98,3.78,9.28,1.94,1.46,4.82,1.24,3.09,4.35-9.27,5.86-16.21,14.14-28.01,8.56-9.79-6.67-21.11-12.01-30.8-18.7-8.15-5.64-5.49-13.59-7.54-22.21,3.43,1.31,6.75,3.06,10.01,4.74,7.86,4.05,15.55,8.63,23.48,12.52,5.79,2.84,8.92,4.41,15.76,3.74,6.37-.63,13.11-6.89,18.94-9.46,2.4,1.93,2.8,5.11,3.31,7.96Z" style="fill: #005f35;"/>
  <path d="M75.5,62c-.35.98.7,2.82.28,3.5-.73,1.18-6.02,3.28-7.46,4.08-1.23.68-2.33,2-3.8,2.7-8.62,4.09-13.98.73-21.53-3.01-9.9-4.9-22.93-11.16-32.14-16.86-6.36-3.94-4.44-8.36,1.14-11.66,16.04-9.5,34.66-16.63,50.82-26.18,1.98-.81,4.16-1.39,6.31-.93,15.19,6.31,33.07,10.34,47.87,17.13,4.36,2,5.46,5.87,1.99,9.48-10.64,5.49-20.68,12.69-31.14,18.36-1.05.57-5.6,3.13-6.21,3.29-1.81.47-4.23-.09-6.13.12Z" style="fill: url(#uuid-fefa3568-6266-4fac-94fd-7bcf1ccca5ac);"/>
  <path d="M117.5,77c.73,4.06-6.31,5.61-7.29,6.99-.19.28.42,5.36.29,6.75-.64,6.64-4.06,9.11-6.88,14.12-1.65,2.95-1.2,3.89-3.64,6.99-.36.46-.4,1.34-.96,1.91-1.61,1.67-5.9,1.49-7.69.26-.56-.39-.65-1.38-1.1-2.01-1.77-2.5-1.75-3.51-3.05-5.96-2.61-4.93-6.61-8.86-7.19-14.81-.14-1.44.3-7.14-.08-7.67-.44-.63-7.94-3.14-7.42-6.57,3.47-.54,7.36,1.08,10.73.48,1.37-.25,3.4-2.31,5.01-2.99,5.37-2.28,10.95-1.82,15.93,1.09.94.55,1.4,1.7,2.59,1.91,3.43.6,7.25-.93,10.74-.49Z" style="fill: #d4c7b4;"/>
  <path d="M115.5,45.5c-1.41,5.42-1.69,11.14-3.58,16.42-3.55.16-7.83,1.86-10.13,4.62-.7.83-1.84,3.45-2.28,3.72-.61.38-7.37.43-8.18.16-1.54-2.25-3.04-4.11-5.09-5.94-.52-.47-2.13-.54-.92-1.52l30.18-17.46Z" style="fill: #005f35;"/>
  <path d="M105.98,71.99c-.93.29-3.56-.94-3.29-2.01.5-1.98,4.54-4.66,6.56-4.97l-2.96,5.56-.31,1.42Z" style="fill: #d4c7b4;"/>
  <path d="M86.94,70.95c-.07.11-2.24.99-2.45.84l-3.49-6.78c1.98-.17,7.24,4.1,5.94,5.94Z" style="fill: #d4c7b4;"/>
  <path d="M56,95.5v-16.5c1.84-.11,2.3-.12,2.52,1.73.2,1.68.26,12.88-.09,13.96s-1.5.84-2.43.82Z" style="fill: #040504;"/>
  <path d="M14.25,59.5c.78-.22,1.36.05,1.64.85.48,1.38,1.3,8.46,1.13,9.92-.21,1.8-1.29,2.6-2.44.89-.13-2.84-1.04-6.13-1.12-8.9-.02-.75-.1-2.5.79-2.76Z" style="fill: #16774d;"/>
  <path d="M67.41,18.12c2.4-.13,4.57.65,6.85,1.37,12.06,3.8,24.03,9.47,36.1,13.4,2.79,1.67,1.93,5.15-.69,6.53-15.98,7.87-31.42,19.51-47.33,27.17-3.5,1.69-5.64,2.03-9.47.8-11.02-6.87-26.72-11.21-37.21-18.29-3.46-2.33-2.29-5,.9-6.8,15.03-8.45,31.89-15.11,47.08-23.42,1.12-.25,2.69-.7,3.77-.77Z" style="fill: #0b0b0b;"/>
  <path d="M91.8,105.52c1-.27,1.95.92,2.94.94,1.17.02,2.6-1.33,3.94-.92,2.42.75-1.3,5.62-3.89,5.45s-5.19-4.88-2.99-5.48Z" style="fill: #0b0b0b;"/>
  <path d="M106.38,92.38c-.83.8-4.41,1.1-4.84-.18-.7-4.52,7.79-2.67,4.84.18Z" style="fill: #0b0b0b;"/>
  <path d="M88.38,90.12c2.5,2.4-3.26,4.32-4.84,1.57-.38-2.48,3.57-2.79,4.84-1.57Z" style="fill: #0b0b0b;"/>
  <path d="M109.5,36.49l-48.15,27.6c-1.83.97-3.87,1.79-5.97,1.29-13.03-6.16-26.11-12.39-38.87-19.14l1.15-1.35c15.24-6.36,30.49-16.84,45.67-22.83,4.16-1.64,5.79-1.34,9.94-.08,11.77,3.57,23.54,9.5,35.39,13.11l.85,1.39Z" style="fill: #fcfcfc;"/>
  <path d="M71.31,26.02c2.21-.63,9.19,4.87,10.68,6.74.97,1.22,4.78,7.55,2.25,8.24-2.02.55-2.38-3.17-3.04-4.45-.92-1.77-6.54-7.45-8.4-7.01-.57.13-.97,1.47-1.54,1.98-2.77,2.5-8.75,1.21-12.45,1.55-5.18.47-11.16,2.37-13.83,7.17-.92,1.67-1.48,6-2.47,6.53-1.95,1.03-1.6-2.99-1.47-3.97.93-6.9,9.01-11.4,15.35-12.15,3.38-.4,8.86.51,11.64-.36,2.45-.76,2.28-3.97,3.28-4.25Z" style="fill: #0b0b0b;"/>
</svg>