<?xml version="1.0" encoding="UTF-8"?>
<svg id="uuid-f064835c-c5ad-4209-84ad-97e15ac70851" data-name="fill_wheatcut" xmlns="http://www.w3.org/2000/svg" xmlns:xlink="http://www.w3.org/1999/xlink" viewBox="0 0 128 128">
  <defs>
    <linearGradient id="uuid-6887944b-0b73-4ea9-8af1-e11b21852b4e" x1="-1351.24" y1="-398.75" x2="-1351.54" y2="-245.75" gradientTransform="translate(740 222) scale(.5)" gradientUnits="userSpaceOnUse">
      <stop offset="0" stop-color="#f7ed9d"/>
      <stop offset="1" stop-color="#bfa84e"/>
    </linearGradient>
    <linearGradient id="uuid-a6241466-b058-412a-ad49-57effd3cda40" x1="-1316.9" y1="-254.36" x2="-1317.08" y2="-206.23" gradientTransform="translate(740 222) scale(.5)" gradientUnits="userSpaceOnUse">
      <stop offset="0" stop-color="#f8ea73"/>
      <stop offset=".23" stop-color="#f8e871"/>
      <stop offset="1" stop-color="#df8701"/>
    </linearGradient>
    <linearGradient id="uuid-3a68c248-017c-4f51-a0d4-2276af204035" x1="-1290.34" y1="-306.15" x2="-1290.58" y2="-252.15" gradientTransform="translate(740 222) scale(.5)" gradientUnits="userSpaceOnUse">
      <stop offset="0" stop-color="#f8e973"/>
      <stop offset="1" stop-color="#e18e08"/>
    </linearGradient>
    <linearGradient id="uuid-09c19ed2-ac03-4c2b-954f-293c7b55536e" x1="-1262.02" y1="-255.04" x2="-1262.46" y2="-206.04" gradientTransform="translate(740 222) scale(.5)" gradientUnits="userSpaceOnUse">
      <stop offset="0" stop-color="#f8ea73"/>
      <stop offset=".22" stop-color="#f8e871"/>
      <stop offset="1" stop-color="#df8701"/>
    </linearGradient>
    <linearGradient id="uuid-ccae52a1-efd1-4fa5-b815-451cdd880fd2" x1="39.41" y1="55.96" x2="44.54" y2="85.06" gradientUnits="userSpaceOnUse">
      <stop offset="0" stop-color="#ded07c"/>
      <stop offset="1" stop-color="#bfa950"/>
    </linearGradient>
    <linearGradient id="uuid-c1175c85-d081-4403-8e4e-0f4613734f81" x1="49.77" y1="60.46" x2="51.79" y2="89.39" xlink:href="#uuid-ccae52a1-efd1-4fa5-b815-451cdd880fd2"/>
    <linearGradient id="uuid-3ea5e9dd-1d3c-492c-b827-e5fc971d45c3" x1="26.69" y1="70.13" x2="37.03" y2="92.31" xlink:href="#uuid-ccae52a1-efd1-4fa5-b815-451cdd880fd2"/>
    <linearGradient id="uuid-dcf33689-21a8-4d8e-8fe0-12293832f1ef" x1="85.37" y1="50.56" x2="75.23" y2="76.97" xlink:href="#uuid-ccae52a1-efd1-4fa5-b815-451cdd880fd2"/>
    <linearGradient id="uuid-b83e96bd-fffe-41fc-a94e-f2d812fab975" x1="61.8" y1="44.35" x2="67.1" y2="69.26" xlink:href="#uuid-ccae52a1-efd1-4fa5-b815-451cdd880fd2"/>
  </defs>
  <path d="M0,86c3.39-.88,2.62-2.87,3.01-5.24.27-1.64,4.91-3.72,6.2-5.8,1.02-1.62,1.5-5.18,2.44-6.32.86-1.05,4.62-2.83,5.38-3.99,1-1.52,1.35-4.76,2.47-6.41s4.15-2.76,5.25-4.25c1.25-1.69,1.57-5.14,2.74-6.76,1.1-1.52,4.08-2.56,5.25-4.25,1.22-1.76,1.48-5.16,2.75-6.75,1.16-1.45,4.21-2.55,5.52-4.48.82-1.19,1.79-4.93,2.5-5.5,1.04-.85,5.02-1.35,6.67-2.33,1.34-.79,3.06-3.5,4.17-3.83,2.27-.68,4.59.63,6.85.37,1.79-.2,4.57-1.95,6.06-1.93s4.18,2.75,5.71,3.23c2.06.65,4.72-.3,6.68.82,1.47.84,2.62,4.01,3.88,5.12,1.2,1.06,5,2.37,5.7,3.3.89,1.2,1.19,4.36,2.35,6.15,1.41,2.18,4.65,3.3,5.65,4.85,1.08,1.67,1.31,4.93,2.76,6.74,1.17,1.48,4,2.54,5.03,3.97,1.11,1.53,1.46,4.76,2.55,6.45s3.87,2.61,5.16,4.34c1.39,1.87,1.69,5.01,2.75,6.62.78,1.19,4.85,3.14,5.55,4.2,1.97,3.01.82,7.48,6.44,8.19-.19,3.3-2.85,4.34.53,6.96v2c-3.94,1.92-1.68,3.92-1.96,6.19-.09.68-1.71.29-2.04,1.18-.73,1.98-.32,4.65-.64,6.74-.87,5.76-3.88,12.35-8.7,15.8-6.78,4.86-16.04,1.18-19.41-5.91-11.05,17.09-27.27,4.57-28.54-11.56-.33-.23-7.15-1.48-7.94-1.46-3.1.06-7.54,1.9-10.52,1.92-3.22.02-7.83-1.98-10.98-1.92-3.16.06-7.39,1.92-10.52,1.92-2.89,0-7.42-1.9-10.02-1.84-1.49.04-3.45,2.15-4.91,1.98-.39-.05-1.71-3.15-2.64-3.46-.98-.33-3.88.17-4.15-.1-.03-4.26-1.02-4.86-4.48-6.72,1.81-2.44,2.17-4.82-.54-6.76v-1.5Z" style="fill: #060603;"/>
  <path d="M89.65,39.85c.94,1.11,3.89,2.41,4.7,3.29,1.17,1.28,1.96,5.36,2.91,6.84,1.12,1.73,4.51,3.06,5.47,4.53,1.06,1.64,1.52,4.87,2.56,6.46,1.11,1.69,4.77,3.08,5.56,4.17s1.29,4.65,2.42,6.34c1.19,1.79,4.71,3.54,5.46,4.54.85,1.12,1.29,4.62,2.03,5.97.65,1.18,2.56,1.3,3.01,2.01.52.81-.49,2.43-.29,3.72.15.98,1.43,2.03,1.4,2.54-.04.67-2.96,2.15-2.4,3.74-.77-.17-.74-1.01-1.6-1.64-4.21-3.06-8.77.5-13.39.14,1.44-7.69-.38-14.71-4.59-21.16-6.11-9.36-10.93-8.04-16.62.7-4.46,6.86-6.02,14.06-3.3,21.96-8.07-4.37-17.07-4.59-16.5,7-.28.28-6.44-1.41-7.75-1.4-2.97.02-7.43,1.87-10.52,1.92-3.3.06-7.75-1.95-10.98-1.92-2.87.02-7.09,1.81-10.02,1.92-3.45.13-7.85-1.9-11.08-1.87-1.25.01-2.61,1.49-3.34,1.32-.69-.16-1.01-1.82-1.79-2.22-1-.51-3.33-.06-3.49-.26-.77-.94.68-5.06-3.52-4.99.04-1.21,1.06-1.97,1.04-3.25-.02-1.39-1.47-2.44-1.44-3s2.03-1.64,2.31-2.59c.35-1.22-.38-2.61-.15-3.17.46-1.12,4.41-2.97,5.47-4.49,1.22-1.76,1.48-5.16,2.75-6.75,1.13-1.41,4-2.37,5.24-4.26,1.11-1.68,1.48-5.07,2.42-6.33s4.68-2.95,5.57-4.18c1.04-1.43,1.14-4.54,2.56-6.44,1.19-1.6,3.75-2.67,4.94-4.06,1.4-1.64,1.58-4.71,2.86-6.64,1.39-2.1,4.11-2.68,5.43-4.57.7-1.01,1.91-5.02,2.31-5.3,1.21-.82,4.26-1.08,5.86-2.03,1.4-.83,3.1-3.46,4.7-3.84,1.08-.26,3.99.61,5.88.42s4.36-1.79,5.87-1.42c1.13.28,3.15,2.32,4.35,2.69,1.83.57,4.83-.1,6.5,1,1.17.77,2.2,3.75,3.26,4.74,1.13,1.06,4.07,1.93,5,3,1.15,1.31,1.51,5.17,2.91,6.84Z" style="fill: url(#uuid-6887944b-0b73-4ea9-8af1-e11b21852b4e);"/>
  <path d="M72.06,112.34c-2.21-3.73-2.95-14.34-2.46-15.99,1.28-4.32,8.43-1.64,11.24-.44,7.47,3.19,16.42,11.08,11.15,19.83-5.18,8.6-16.89,6.05-19.93-3.4Z" style="fill: url(#uuid-a6241466-b058-412a-ad49-57effd3cda40);"/>
  <path d="M84.99,81.49c.74-2.09,3.61-8.15,3.61-8.15,3.33-5.34,6.23-8.69,11.02-2.21,3.69,4.99,7.05,13.76,5.15,19.88-2.85,9.18-18.07,8.68-20.04-.48-.76-3.53-.73-5.84.27-9.03Z" style="fill: url(#uuid-3a68c248-017c-4f51-a0d4-2276af204035);"/>
  <path d="M107,97.5c11.27-5.98,16.22-5.28,13.27,9.02-1.28,6.21-5.97,15.11-13.46,14.44-5.26-.47-10.07-5.3-10.13-10.62-.02-1.98,3.45-8.45,10.32-12.84Z" style="fill: url(#uuid-09c19ed2-ac03-4c2b-954f-293c7b55536e);"/>
  <path d="M71.13,105.42c-.02-2.49-1.29-6.13.49-8.27.55-.5,1.25-.12,1.52.49.83,2.39.51,6.01,1.78,8.69.72,2.18,2.9,5.42,2.3,6.64-.52.92-1.78.57-2.57.11-2.47-1.53-3.28-4.8-3.49-7.46l-.02-.2Z" style="fill: #fdfbf3;"/>
  <path d="M87.3,77.91c1.06-1.97,2.54-4.13,4.15-5.7,5.21-4.74,1.95,2.65.25,5.81-1.27,2.46-2.29,7.61-3.77,8.56-.67.44-1.28.16-1.72-.79-1.05-2.47-.21-5.32.98-7.68l.11-.2Z" style="fill: #fdfbf3;"/>
  <path d="M108.89,97.39c.97-.28,2.57-.22,2.41,1.08-.14,1.16-2.02,2.65-3.54,3.85-1.65,1.29-3.1,2.81-4.38,4.48-1.41,1.77-3.89,5.28-4.97,2.58-.57-4.89,6.31-10.42,10.32-11.95l.18-.05Z" style="fill: #fdfbf3;"/>
  <path d="M45.5,62c.97-.25.28-1.91.75-2.99.92-2.06,7.42-1.98,8.91-1.05,1.24.78.91,7.53.85,9.31-.11,3.61-.78,7.15-.54,11,.19,3.12,1.83,9.14.94,11.9-.41,1.29-5.36,1.94-6.66,1.86-3.6-.21-2.8-3.07-3.3-3.49-.6-.52-4.33.91-5.46.47,2.68,3.63-5.25,6.73-7.68,5.92-.53-.18-2.21-3.16-2.6-3.9-2.49-4.73-5.44-11-7.58-15.92-.61-1.4-1.54-3.22-1.16-4.76.09-.35,5.73-3.14,6.39-3.27.88-.17,1.17-.1,1.91.39,3.03,2.02,5.79,14.15,9.21,17.03l-4.93-29.69c.38-1.1,7.16-2.23,8.45-1.57,1.63.83,1.95,6.91,2.5,8.75Z" style="fill: #0b0905;"/>
  <path d="M82.86,47.59c1.55-.23,8.34,2.37,7.56,5.04-3.2,7.63-6.44,15.25-9.67,22.86-.6,1.41-.42,3.67-2.26,4.74-2.48,1.42-8.83-1.37-8.48-4.44l10.89-26.66c.32-.76,1.15-1.43,1.97-1.55Z" style="fill: #0b0905;"/>
  <path d="M70.87,70.88c-1.22,1.29-8.65,2.21-9.14-.36l-3.73-23.77c.11-1.04-.24-2.47-.01-3.4.32-1.33,9.37-3.24,9.79.12l3.74,24.8c.03.77-.12,2.04-.65,2.6Z" style="fill: #0b0905;"/>
  <path d="M45.58,84.63c-1.66,1.29-3.5-.56-3.58-2.41-1.07-5.68-2.17-11.41-3.35-17.06-.44-2.08-1-4.19-1.41-6.28-.23-1.13-.01-2.21,1.17-2.67,1.09-.4,2.34-.43,2.96.24.3.33.48.84.65,1.48.74,3.09,1.36,6.57,2.04,9.69,1.02,4.84,1.89,9.77,2.1,14.74.04.74.03,1.68-.47,2.16l-.1.1Z" style="fill: url(#uuid-ccae52a1-efd1-4fa5-b815-451cdd880fd2);"/>
  <path d="M53.55,88.94c-.88.55-3.07.72-3.75-.11-.4-.46-.47-1.16-.56-1.79-.44-4.13-1.69-9.14-1.51-13.1.11-1.47,1.07-2.51.95-3.99-.35-2.26-.32-4.83-.24-7.22-.03-1.25.59-2.23,2.04-2.31,1.01-.08,2.01.3,2.32,1.05.49,2.55.48,5.73-.06,8.17-.18.66-.39,1.33-.4,1.99-.07,1.1.71,2.39.76,4.24.03,2.78-.08,4.89.49,7.86.06,1.45,1.02,4.06.07,5.14l-.1.07Z" style="fill: url(#uuid-c1175c85-d081-4403-8e4e-0f4613734f81);"/>
  <path d="M38.22,91.29c-.59,1.09-2,1.43-3.08.89-1.26-.59-1.8-2.15-2.24-3.41-.91-2.84-2.82-4.73-3.94-7.57-.79-2.01-1.72-3.96-2.71-5.75-.76-1.39-1.81-3.51-.46-4.79,1.34-1.21,3.13-.31,4.02,1.02,2.4,3.89,4.16,8.58,6.04,12.57.94,2.09,3.42,4.46,2.44,6.9l-.07.13Z" style="fill: url(#uuid-3ea5e9dd-1d3c-492c-b827-e5fc971d45c3);"/>
  <path d="M87.3,51.9c.21.42.18.92,0,1.51-.56,1.54-1.56,3.42-2.22,5.03-1.93,4.65-3.9,10.87-6.27,15.41-.54.98-1.14,2.11-2.08,2.69-2.68,1.49-3.88-1.62-2.87-3.81,1.92-5.14,4.72-10.03,6.57-15.27.95-2.15,1.35-5.08,3.14-6.65,1.07-.64,3.03-.06,3.66.97l.07.12Z" style="fill: url(#uuid-dcf33689-21a8-4d8e-8fe0-12293832f1ef);"/>
  <path d="M68.74,68.48c-.8.9-3.09,1.1-4.13.68-.51-.25-.74-.7-.88-1.32-.76-5.14-1.31-10.41-2.13-15.55-.24-2.14-1.02-4.23-1.25-6.36-.13-1.9,2.55-1.79,3.85-1.4.49.2.76.57.92,1.11.32,1.36.37,3.21.83,4.65,1.55,5.22,1.73,10.78,2.85,16.08.12.67.32,1.46,0,2.01l-.07.11Z" style="fill: url(#uuid-b83e96bd-fffe-41fc-a94e-f2d812fab975);"/>
</svg>