<?xml version="1.0" encoding="UTF-8"?>
<svg id="fill_chickenfeed" xmlns="http://www.w3.org/2000/svg" viewBox="0 0 128 128">
  <path d="M15.38,37.71c-1.46-10.7-6.31-31.6,9.5-32.68,25.39-.13,50.78-.23,76.17-.37,6.7-.11,11.65,5.76,11.16,12.28.95,26.3,1.89,52.59,2.86,78.89.07,9.54,4.33,24.7-9.12,26.48C-5.96,117.99,11.39,149.76,16.01,37.6c-.21.04-.42.07-.63.11Z" style="fill: #4a3726; stroke-width: 0px;"/>
  <path d="M21.93,31.22c.48-5.72-.94-11.68.98-17.7,25.49-.39,50.88-.05,76.36-.74,4.13-.05,4.52.44,4.59,4.52.26,30.79,1.67,61.56,3.71,92.28.18,3.79-.8,4.72-4.55,4.72-26.13,0-52.25.01-78.38,0-8.01,1.82-2.37-16-3.39-21.08,1.03-17.66,1.04-35.2,2.93-52.83,23.72-1.8,47.53.98,71.17-2.34.51-2.85.96-5.38,1.55-8.7-1.26-1.09-2.8-2.42-4.76-4.13-1.76,2.12-3.05,3.68-4.98,6H21.93Z" style="fill: #876f47; stroke-width: 0px;"/>
  <g>
    <path d="M81.69,107.55c-3.29,4.05-6.89,4.84-11.22,2.53-5.16,2.95-8.52,2.95-12.79.02-5.19,2.16-8.11,1.52-11.29-2.44-17,2.21-7.25-17.24-5.61-26.27.42-12.31-1.12-23.75,11.82-30.34,1.69-.53,3.56-.43,5.09-2.1,1.17-9.63,14.44-8.13,15.38.93,12.73,4.94,14.72,16.55,13.85,28.75-.05,9.17,13.17,31.33-5.23,28.92Z" style="fill: #4a3726; stroke-width: 0px;"/>
    <path d="M70.12,103.17c-1.64,6.63-10.71,6.7-12.26-.07-2.43,6.71-9.36,4.92-9.18-1.91-2.74,2.51-5.36,3.96-8.58,1.05.98-7.59,3.54-14.54,5.09-21.97-.24-10.55-1.56-19.33,8.82-25.71.63,1.58,1.16,2.9,1.72,4.3-2.05,4.03-1.27,5.72,4.43,9.14-.48,1.82-.82,3.53-3.16,4.22-3.35,1.06-3.07,5.85-.13,7.38-2.03,4.18-2.35,10.29,2.73,11.64,2.54-.05,4.9.18,7.32,1.03,7.69.84,6.03-7.77,4.88-12.55,4.95-9.03-3.62-5.28-3.75-11.59,4-3.29,2.33-7.29,1.13-11.09,1.01-1.13,1.89-2.12,2.78-3.11,11.88,4.85,11.25,14.72,10.75,25.93.25,6.1,12.28,32.49-3.4,21.36-.02,6.66-6.72,8.63-9.21,1.97Z" style="fill: #8e5b36; stroke-width: 0px;"/>
    <path d="M58.58,62.17c2.15-3.15.64-5.65-.58-8.83,1.52-.53,2.63-.92,3.82-1.34-2.16-9.43,11.43-5.58,5.75,1.15-3.1,2.11-2,5.87-.9,8.82.94,5.21-6.3,2.63-8.08.2Z" style="fill: #ab5555; stroke-width: 0px;"/>
    <path d="M69.67,75.82c-2.13,1.32-3.86,2.39-5.66,3.5-1.84-1.11-3.62-2.19-5.66-3.43,3.38-.88,4.6-3.4,5.61-6.56,1.11,2.97,2.08,5.62,5.72,6.49Z" style="fill: #cbb256; stroke-width: 0px;"/>
    <path d="M68.53,88.15c-3.5,1.06-2.8-2.75-3.26-5.07.76-.47,1.56-.96,2.35-1.44,1.84,2.65,2.12,4.83.91,6.51Z" style="fill: #ab5555; stroke-width: 0px;"/>
    <path d="M63.03,83.2c.05,3.72-.38,4.33-2.82,4.1-1.26-1.38-1.18-3.27.26-5.51.84.46,1.68.93,2.56,1.41Z" style="fill: #ab5555; stroke-width: 0px;"/>
    <path d="M54.32,69.28c-1.19,3.87-5.34,2.97-5.51-.29.41-3.11,5.02-3.58,5.51.29Z" style="fill: #4a3726; stroke-width: 0px;"/>
    <path d="M73.66,69.17c.35-3.2,4.88-3.88,5.52.03-.3,3.41-5.22,3.43-5.52-.03Z" style="fill: #4a3726; stroke-width: 0px;"/>
  </g>
</svg>