<?xml version="1.0" encoding="UTF-8"?>
<svg id="fill_woodchips" xmlns="http://www.w3.org/2000/svg" viewBox="0 0 128 128">
  <path d="M92.54,100.14c-4.39,1.43-8.81,3.2-13.4,4.28-4.26,1-7.43-1.29-9.3-4.27-3.81,2.1-7.43,4.13-11.08,6.08-2.01,1.07-4.11,1.95-6.14,2.98-4.74,2.41-9.18.81-11.24-4.11-.57-1.37-1.12-2.75-1.61-3.94-8.49,0-16.77.22-25.04-.08-5.04-.18-8.79-3.02-10.9-7.65-2.2-4.84-1.57-9.49,1.56-13.72,11.21-15.17,22.47-30.31,33.71-45.47,1.84-2.48,3.6-5.02,5.55-7.41,10.09-12.31,29.34-12.26,38.92.39,13.26,17.49,26.25,35.19,39.26,52.87,3.2,4.35,3.44,9.22.96,14-2.44,4.7-6.48,7.06-11.82,7.08-4.33.02-8.65.12-12.97-.04-2.21-.08-4.4-.66-6.47-.99Z" style="fill: #4a3726; stroke-width: 0px;"/>
  <path d="M37.08,94.3c-2.47,0-4.63,0-6.8,0-4.77,0-9.54,0-14.31,0-2.6,0-4.66-.96-5.77-3.41-1.13-2.49-1.14-4.86.6-7.2,12.99-17.42,25.92-34.87,38.9-52.29,3.13-4.2,7.42-6.09,12.64-6.63,9.46-.98,14.7,4.69,19.61,11.42,11.66,15.99,23.37,31.95,35.28,47.75,2.86,3.8.34,9.86-3.72,10.14-5.05.35-10.14.08-15.58.08,1.1-1.7,2.1-2.99,2.85-4.43,1.97-3.8.92-8.24-2.36-10.9-1.84-1.5-3.73-2.98-5.36-4.69-2.75-2.9-5.78-4.92-10.41-4.11-1.35-2.74-2.68-5.47-4.03-8.19-.78-1.57-1.49-3.19-2.38-4.7-2.04-3.43-6.57-4.83-10.17-3.04-1.81.9-3.24,1.02-5.17.09-2.32-1.11-5.07-2.3-7.48-2.04-5.73.63-8.15,6.45-5.29,11.57.5.89.88,1.83,1.39,2.9-4.62,2.2-8.99,4.23-13.31,6.35-4.21,2.07-5.39,5.28-3.68,9.62,1.48,3.74,2.92,7.5,4.55,11.69Z" style="fill: #7b5b3b; stroke-width: 0px;"/>
  <path d="M51.35,96.96c.12,1.48.25,2.95.41,4.87-.98.52-2.14,1.13-3.59,1.9-3.39-8.35-6.6-16.29-9.85-24.31,3.47-1.76,6.49-4.79,9.98-.34-.19-1.26-.39-2.52-.64-4.16,1.65-.73,3.35-1.48,5.43-2.39,3.51,8.06,6.85,15.74,10.32,23.71-3,1.49-5.7,2.84-8.34,4.15-1.4-1.32-2.53-2.39-3.67-3.46l-.04.04Z" style="fill: #a5805b; stroke-width: 0px;"/>
  <path d="M86.87,84.2c1.69-.7,3.38-1.4,5.36-2.22,1.03,1.12,2.13,2.31,3.24,3.53-4.16,7.19-10.1,11.17-18.53,12.3-1.98-2.49-4.61-4.99-5.1-9.37,4.26-3.94,8.58-7.93,13.14-12.15,1.24.9,2.62,1.9,3.99,2.9-.76,1.83-1.43,3.43-2.09,5.04l-.02-.02Z" style="fill: #a5805b; stroke-width: 0px;"/>
  <path d="M74.53,76.15c-1.73-.66-2.7-1.02-3.94-1.49-.07,1.48-.13,2.75-.22,4.44-1.05.65-2.29,1.43-3.75,2.34-4.63-7.64-8.97-14.81-13.75-22.69,4.77.56,7.95,3.05,11.62,4.27,1.54-1.07,3.04-2.12,4.45-3.1.45.11.86.09.93.24,2.14,4.12,4.39,8.19,6.24,12.43.34.77-.99,2.26-1.61,3.56Z" style="fill: #a5805b; stroke-width: 0px;"/>
</svg>