<?xml version="1.0" encoding="UTF-8"?>
<svg id="uuid-5fffab26-0d63-4335-b06c-7cbe4595140e" data-name="fill_roundbalehay" xmlns="http://www.w3.org/2000/svg" xmlns:xlink="http://www.w3.org/1999/xlink" viewBox="0 0 128 128">
  <defs>
    <linearGradient id="uuid-4b4cfabe-b84c-4a6e-a452-6ffc721ef1a6" x1="679.01" y1="-612.08" x2="540.01" y2="-612.07" gradientTransform="translate(-222 370) scale(.5)" gradientUnits="userSpaceOnUse">
      <stop offset="0" stop-color="#8f9c6f"/>
      <stop offset="1" stop-color="#6b7a47"/>
    </linearGradient>
  </defs>
  <path d="M19.17,100.33c-.45-.5-6.26-10.86-6.56-11.69-.82-2.22-.67-4.6-1.23-6.77-.53-2.03-1.99-4.05-2.25-6.27-.22-1.93.45-3.11.42-4.86-.05-3.02-1.42-5.18-.99-8.95.39-3.44.34-8.75,1.09-11.41.91-3.24,1.66-6.24,2.49-9.51.27-1.07,6.13-12.15,6.85-13.01.85-1.01,8.42-7.17,9.51-7.63,1.76-.74,3.61-.43,5.14-.86.68-.19,1.18-.94,1.84-1.16,2.78-.92,4.52,1.27,7.28,1.32,1.42.03,2.62-.53,3.98-.56,11.82-.33,23.74.55,35.52.55,2.81,0,5.47-.67,8.52-.55,4.8.19,11.93,1.45,16.08,3.92,1.58.94,8.57,9.77,9.42,11.58,1.86,3.99,3.61,10,4.27,14.19.44,2.8,1.74,6.21,1.96,8.58.24,2.52-.61,4.89-.53,7.53.18,5.42-.23,12.56-1.59,17.86-.43,1.67-1.97,3.63-2.63,5.37s-.72,3.8-1.5,5.5c-.5,1.09-7.68,10.37-8.51,10.99-1.31.98-9.38,4.33-10.98,4.52-3.04.36-6.29-.66-9.54-.53-13.31.52-26.89-.5-40,0-2.62.1-8.08,1.71-9.94,1.52-1.24-.13-1.8-1.15-2.65-1.39-2.12-.58-3.9.27-6.49-1.01-1.13-.56-8.06-6.25-8.98-7.27Z" style="fill: #0a0d0c;"/>
  <path d="M109.19,30.32c1.03,1.49,3.65,3.19,4.42,4.82.85,1.78.91,4.43,1.65,6.35,1.75,4.57,1.84,3.96,2.8,9.2.42,2.31,1.87,5.69,1.97,7.57.11,2.12-.62,4.92-.55,7.51.22,8.21-1.35,13.22-4.22,20.74-.76,1.99-.87,4.74-1.87,6.63-.75,1.42-2.56,2.56-3.59,3.91s-1.82,3.67-2.78,4.72c-.85.93-9.83,4.65-11.27,4.75-2.48.18-4.73-1.05-6.99-1.05-1.95,0-3.81,1.04-5.99,1.07-2.54.04-5.2-.99-7.53-1.05-1.89-.05-3.81,1.02-5.97,1.05-2.44.04-4.91-1.04-7.01-1.04-1.74,0-4.08.95-5.98,1.03-3.77.14-6.94-1.75-10.77-.53,1.46-2.71,4.83-3.88,6.72-6.02.43-.49,5.58-9.91,6.03-10.97.55-1.3,3.53-11.92,3.71-13.29.27-2.15-.53-3.68-.44-5.39s1.26-4.1,1.29-6.15c.03-2.23-1.19-4.6-1.29-6.48-.1-1.71.71-3.25.44-5.39s-1.74-4.25-2.24-6.26-.31-4.29-1.11-6.39c-.85-2.24-3.53-6.37-4.86-9.14-1.95-4.04-5.83-4.91-8.25-8.49,3.48-1.63,7.03.53,10.25.53,2.29,0,4.26-1.19,7.02-1.06,2.16.1,4.31,1.11,6.48,1.06s4.03-1.11,6.51-1.07c2.25.04,4.44,1.07,6.49,1.07,1.77,0,3.72-.91,5.5-1.03,4-.28,13.76,1.7,17.43,3.56,2.97,1.5,2.43,3,4,5.26Z" style="fill: url(#uuid-4b4cfabe-b84c-4a6e-a452-6ffc721ef1a6);"/>
  <path d="M29.87,22.62c1.41-.37,10.3-.33,11.66.1,2.28,2.44,6.41,4.73,8.49,7.01.4.44,5.26,9.21,5.73,10.27,1,2.22.71,4.8,1.38,7.12,3.95,13.71,2.8,26.09-.98,39.8-.63,2.29-2.28,3.41-3.26,5.24-.92,1.71-1.18,3.97-2.39,5.61-.32.43-7.45,6.61-8.03,6.97-.61.38-1,.63-1.75.75-1.65.26-9.4.29-10.86-.09-2.26-.59-5.94-5.85-8.64-6.86-1.13-3.51-5.21-8.27-6.25-11.25-.66-1.89-.48-3.92-1.01-5.99-.42-1.65-1.71-3.54-1.94-5.06-.28-1.84-1.11-10.79-1.04-12.45.11-2.78.64-9.36,1.04-12,.23-1.52,1.52-3.41,1.94-5.06.5-1.96.35-3.87.87-5.63.87-2.93,5.25-7.79,6.16-11.34,2.59-1.1,6.7-6.55,8.88-7.12Z" style="fill: #415220;"/>
  <path d="M33,64.5c.69-3.97-.87-6.43-2.05-9.95-1.29-.08-3.54-.3-4.62.4-.27.18-2.75,5.49-2.81,5.81-.91,5.25-.45,16.43,2.78,20.69.73.96,3.9,4.26,4.83,4.66,3.29,1.41,8.69-1.49,10.26-4.48,2.81-5.36,3.01-11.05,3.11-16.89.11-5.82.08-8.26-1.65-13.85-2.06-6.63-3.33-8.79-9.09-12.91-1.32-.95-2.73-.41-2.26-2.99,2.7-.68,2.99.75,4.53,1.72,1.82,1.16,3.58,1.72,4.89,3.61,7.94,11.37,8.7,28.88,3.17,41.51-1.91,4.35-8.04,8.75-12.87,7.19-3.99-1.29-8.66-7.4-9.6-11.4-1.73-7.39-2.04-16.23,1.78-22.98,1.31-2.32,4.69-3.61,7.24-3.06,3.47.75,5.77,9.06,4.79,12.09-.34,1.04-1.5.84-2.43.82Z" style="fill: #0a0d0c;"/>
</svg>