<?xml version="1.0" encoding="UTF-8"?>
<svg id="uuid-ca2d6a7f-ca8e-4daa-8cd8-820d02fcd663" data-name="fill_vinegar" xmlns="http://www.w3.org/2000/svg" viewBox="0 0 128 128">
  <path d="M63.9,2.47c10.52,0,21.04.13,31.56-.07,3.59-.07,6.13,1.37,7.65,4.23,7.2,15.38,15.54,31.13,14.5,48.66-.25,3.87.74,7.82.61,11.71.13,19.78-5.82,38.58-16.24,55.31-1.27,2.36-3.49,3.31-6.2,3.3-21.25-.03-42.49-.03-63.74,0-2.7,0-4.79-.99-6.23-3.28-8.39-15.21-16.16-31.87-15.43-49.6-1.33-16.03-.76-32.6,5.45-47.76,2.55-6.18,5.67-12.13,8.73-18.09,1.63-3.18,4.31-4.57,8.11-4.49,10.41.21,20.83.07,31.24.07Z" style="fill: #4a3726; stroke-width: 0px;"/>
  <path d="M90.01,52.22h-22.33c0-5.06,0-10.02,0-14.97.06-2.94.45-7.31-3.61-7.28-2.52-.08-3.88,1.35-3.9,3.84-.15,6.16.22,12.17-.17,18.35h-22.52c.99-5.15,1.95-10.1,2.91-15.04.84-2.8,1.68-6.12-1.91-6.99-2.4-.75-4.17.42-4.75,2.78-1.5,6.46-2.92,12.71-3.83,19.33h-12.18c.84-9.04,2.72-17.64,5.95-25.99h81.06c1.95,8.37,3.95,16.96,6.04,25.96h-12.48c-.99-6.14-2.02-12.54-3.69-18.61-.62-2.56-2-4.17-4.87-3.55-6.49,1.29,1.71,16.88.29,22.18Z" style="fill: #a5805b; stroke-width: 0px;"/>
  <path d="M60.21,75.85c0,5.54-.03,10.83.02,16.12-.46,2.76,1.34,5.69,4,5.97,3.23-.45,4.19-3.63,3.74-6.65.03-5.05.01-10.11.01-15.4h22.47c-.85,4.58-1.63,8.93-2.46,13.26-.65,3.08-2.75,8.11,1.9,8.93,2.36.42,3.93-.78,4.41-2.96,1.34-6.43,2.66-12.65,3.71-19.16h12.56c-2.08,8.9-4.12,17.59-6.1,26.07H24.04c-3.46-8.03-5.16-16.81-6.29-26.07h11.99c1.17,5.7,2.32,11.37,3.5,17.03.42,2.91,2.26,6.28,5.6,4.96,2.12-.74,2.82-2.53,2.3-4.81-1.27-5.64-2.45-11.3-3.74-17.26h22.8Z" style="fill: #a5805b; stroke-width: 0px;"/>
  <path d="M17.19,67.91v-7.71h93.28v7.71H17.19Z" style="fill: #7f827e; stroke-width: 0px;"/>
  <path d="M96.24,10.13c1.55,2.71,3.07,5.38,4.8,8.42H26.79c1.69-3,3.22-5.71,4.75-8.42h64.69Z" style="fill: #7f827e; stroke-width: 0px;"/>
  <path d="M32.08,117.96c-1.52-2.57-3.07-5.21-4.91-8.33h73.44c-1.76,2.99-3.34,5.69-4.89,8.33h-63.64Z" style="fill: #7f827e; stroke-width: 0px;"/>
  <g>
    <path d="M55.77,64.95c-1.06-1.34-2.02-2.53-2.97-3.74-.12-.15-.19-.37-.34-.46-2.22-1.38-3.61-3.34-4.31-5.86-.1-.36-.55-.64-.87-.93-3.15-2.92-4.15-6.48-3.16-10.63.12-.52.31-1.04.32-1.56.15-5.25,5.74-8.95,10.8-7.47.18.05.38.05.54.07,3.32-5.09,10.14-4.9,13.5-1.17,1.87,2.08,3.79,3.96,4.13,6.82.19,1.66.04,3.36.04,5.86.51,1.33.52,3.47-.25,5.62-.1.27-.19.57-.15.84.32,2.19-.24,4.15-1.73,6.03.97.17,1.77.27,2.54.46,5.61,1.37,9.21,5.59,10,11.59.99,7.53.02,14.89-2.09,22.11-1.18,4.01-6.51,6.29-10.16,4.23-7.48-4.19-13.45-9.96-17.37-17.67-1.86-3.65-2.6-8.92,1.54-14.16Z" style="fill: #4a3726; stroke-width: 0px;"/>
    <path d="M80.56,76.56c-.06,4.98-.99,9.81-2.31,14.57-.59,2.11-3.32,3.28-5.24,2.16-6.63-3.87-11.97-9.05-15.49-15.92-2.46-4.81-.42-10.19,4.86-12.88,3.47-1.77,7.14-2.97,11.12-1.85,3.81,1.07,5.82,3.8,6.49,7.53.37,2.1.39,4.27.57,6.4Z" style="fill: #beb696; stroke-width: 0px;"/>
    <path d="M63.02,54.73c1.19,1.68,1.71,3.44.34,5.24-1.04,1.36-2.43,2.18-4.19,1.82-1.9-.39-3.14-1.51-3.26-3.64-2.74-.95-4.25-2.85-4.28-5.84-2.05-1.06-3.61-2.52-4-4.9-.05-.29-.13-.59-.09-.87.3-1.98.52-3.99.99-5.93.59-2.46,4.82-4.1,7.09-1.87.39.39.97.62,1.5.84,3.09,1.32,4.22,3.02,4.21,6.43,0,.63,0,1.26,0,2.01,2.16,1.77,2.46,4.11,1.7,6.73Z" style="fill: #589058; stroke-width: 0px;"/>
    <path d="M64.82,46.96c.33-4.72-1.73-8.02-5.82-10.07.93-2.48,3.64-3.63,5.88-2.29,1.46.88,2.79,2.15,3.81,3.52,1.62,2.19,1.43,4.66.24,7.12,1.29,2.02,1.52,4.08.04,6.14.46,1.91.56,3.75-1.55,5.47-.22-1.53-.48-2.76-.55-3.99-.12-2.14-.51-4.15-2.06-5.9Z" style="fill: #589058; stroke-width: 0px;"/>
    <path d="M69.72,75.13c-.56-.55-1.4-1.01-1.55-1.63-.13-.57.32-1.67.82-1.91,1.79-.85,3.68-1.55,5.6-2.03.56-.14,1.63.46,1.94,1.01.26.46-.04,1.77-.45,1.98-1.95.96-4.02,1.67-6.36,2.59Z" style="fill: #4a3726; stroke-width: 0px;"/>
    <path d="M65.36,83.16c-.49-.51-1.31-.98-1.46-1.61-.14-.57.27-1.67.76-1.91,1.6-.79,3.3-1.43,5.03-1.83.55-.13,1.67.52,1.89,1.07.22.55-.16,1.82-.64,2.07-1.66.86-3.48,1.42-5.58,2.22Z" style="fill: #4a3726; stroke-width: 0px;"/>
    <path d="M72.9,88.01c-1.56.1-2.32-.51-2.38-1.52-.09-1.7,1.35-1.99,2.6-2.43,1.08-.38,1.9-.21,2.47.82.51.92.27,1.77-.56,2.28-.76.46-1.68.68-2.13.85Z" style="fill: #4a3726; stroke-width: 0px;"/>
    <path d="M61,73.64c-1.06-.02-1.84-.83-1.8-1.88.05-1.2,1.74-2.33,3.46-2.29,1.09.02,1.88.82,1.82,1.85-.06,1.13-1.89,2.35-3.48,2.32Z" style="fill: #4a3726; stroke-width: 0px;"/>
    <path d="M57.86,56.12c-.46-.53-1.1-1.02-1.41-1.66-1.48-3.02-2.89-6.07-4.28-9.13-.67-1.46-.23-2.25,1.79-3.09.47.5,1.2.98,1.54,1.66,1.54,3.09,2.99,6.23,4.42,9.38.61,1.34.12,2.07-2.05,2.85Z" style="fill: #4a3726; stroke-width: 0px;"/>
  </g>
</svg>