<?xml version="1.0" encoding="UTF-8"?>
<svg id="uuid-8ed56f4d-1f21-4d4d-a339-a4246f83bbe3" data-name="fill_squarebalecotton" xmlns="http://www.w3.org/2000/svg" viewBox="0 0 128 128">
  <path d="M29.37,102.76c-5.76,1.09-10.39-2.12-13.92-7.39-5.77-2.14-9.59-5.87-11.39-11.84-1.87-6.16-3.48-12.37-1.92-18.72,1.16-4.69,1.83-9.04.16-13.79-1.05-2.96-.94-6.34-1.29-9.53-.11-1.03-.1-2.09-.03-3.12.32-4.72,2.39-7.23,7-8.55,2.55-4.91,7.32-6.35,12.17-6.35,7.56,0,15.14.62,22.66,1.46,5.15.58,10.16.84,15.22-.43,8.71-2.18,17.48-1.8,26.27-.44,2.23.35,4.55.51,6.79.31,5.52-.51,10.04.89,13.38,3.57,4.07.72,7.45,1.13,10.73,1.94,4.84,1.2,6.53,3.47,6.8,8.64,4.05,2.01,4.98,5.72,4.96,9.93-.02,5.42-.2,10.78-2.15,15.98-.55,1.48-.21,3.36-.02,5.03.34,3,.88,5.97,1.32,8.96.2,1.31.3,2.63.56,3.93,1.25,6.27-.39,11.46-5.74,15.22-5.15,3.62-10.66,6.05-17.18,5.69-6.34-.35-12.75.01-19.02-.79-8.24-1.05-16.16-.41-24.23,1.43-7.25,1.66-14.7,1.36-22.08.15-2.68-.44-5.38-.77-9.07-1.28Z" style="fill: #4a3726; stroke-width: 0px;"/>
  <path d="M111.44,37.46c-3.76.37-7.56.54-11.28,1.15-4.82.78-9.59,1.12-14.41.24-6.23-1.13-12.44-1.05-18.64.32-4.85,1.07-9.73,1.19-14.67.33-2.88-.5-5.83-.69-8.75-.79-2.58-.09-4.2,1.43-4.23,3.56-.03,2.17,1.42,3.29,4.19,3.45,2.26.13,4.56.24,6.77.69,6.25,1.3,12.45,1.04,18.62-.33,5.08-1.13,10.16-1.12,15.25-.24,5.47.95,10.92,1.01,16.36-.16,5.14-1.1,10.3-1.65,15.53-.74,1.02.18,2.04.4,3.25.64.25,5.08.63,10.12-1.14,14.93-1.4,3.81-1.25,7.51-.49,11.43.92,4.72,1.38,9.53,1.91,14.31.29,2.6-1.43,4.28-3.34,5.57-4.33,2.92-8.92,4.64-14.4,4.06-5.82-.62-11.77-.15-17.58-.83-8.12-.96-16.01-.59-23.96,1.37-7.28,1.8-14.69,1.28-22.06.24-1.11-.16-2.22-.31-3.03-.42-.58-4.82-1.32-9.47-1.65-14.15-.18-2.52.11-5.12.58-7.62.84-4.45.89-8.86-.04-13.27-.82-3.87-.78-7.7.06-11.55.24-1.11.48-2.23.55-3.36.23-3.94.11-5.28-4.13-6.83-5.18-1.89-10.07-4.58-15.43-7.09,2.4-1.59,4.78-1.92,7.2-1.74,8.12.61,16.22,1.44,24.34,1.94,3.37.21,6.94.39,10.14-.45,9.21-2.43,18.36-2.15,27.63-.71,2.41.37,4.92.38,7.36.22,3.51-.22,6.6.43,9.05,3.13,1.18,1.31,2.63,1.52,4.38,1.38,2.03-.17,4.1.18,6.16.31.36.37.38.71-.09,1.01Z" style="fill: #f4f8f4; stroke-width: 0px;"/>
  <path d="M27.4,45.74c-.3,3.92-.66,7.3-.77,10.68-.06,1.87.15,3.79.55,5.62.9,4.16.37,8.25-.03,12.41-.38,3.91-.17,7.9-.02,11.84.11,2.89.55,5.77.84,8.66-3.08.26-4.98-.79-6.05-3.62-.77-2.04-1.83-2.9-4.06-3.16-2.74-.32-4.96-2.07-5.96-4.72-1.71-4.51-3.4-9.1-2.92-14.05.23-2.42.61-4.89,1.38-7.18,1.02-3.03.85-5.89.1-8.91-.65-2.64-1.02-5.35-1.41-8.04-.36-2.48-.6-4.99-.97-8.21,7.01,3.15,13.3,5.98,19.32,8.68Z" style="fill: #aeaeae; stroke-width: 0px;"/>
</svg>