<?xml version="1.0" encoding="UTF-8"?>
<svg id="uuid-186eeb7c-bc11-44c0-abe9-27013dbe6f28" data-name="fill_beetroot" xmlns="http://www.w3.org/2000/svg" xmlns:xlink="http://www.w3.org/1999/xlink" viewBox="0 0 128 128">
  <defs>
    <linearGradient id="uuid-eb8cb261-3f83-49ab-bc66-e32618a08825" x1="-4.3" y1="-23.63" x2="33.77" y2="92.28" gradientTransform="translate(74 74) scale(.5)" gradientUnits="userSpaceOnUse">
      <stop offset="0" stop-color="#ac1033"/>
      <stop offset="1" stop-color="#df3b53"/>
    </linearGradient>
    <linearGradient id="uuid-5463a584-3e58-414f-8800-504451d515df" x1="78.02" y1="14.84" x2="72.64" y2="50.99" gradientUnits="userSpaceOnUse">
      <stop offset="0" stop-color="#3e6b1e"/>
      <stop offset=".66" stop-color="#508825"/>
      <stop offset="1" stop-color="#976129"/>
    </linearGradient>
    <linearGradient id="uuid-487507d9-3672-41bb-9c20-eada123ed41d" x1="23.87" y1="17.41" x2="64.39" y2="60.49" gradientUnits="userSpaceOnUse">
      <stop offset="0" stop-color="#6aaa35"/>
      <stop offset=".74" stop-color="#96c01d"/>
      <stop offset="1" stop-color="#976129"/>
    </linearGradient>
  </defs>
  <path d="M86.12,15.88c.88.84,4.66,1.17,5.75,2.25,1.87,1.87,0,4.21.88,5.88.62,1.18,3.32,1.65,3.93,4.09.48,1.93-1.5,3.56-1.5,4.65,0,1.65,3.79,2.79,1.76,6.44-.54.97-2.12,1.81-2.36,2.67-.61,2.11,2.51,4.08-.3,7.66-2.57,3.28-4.87.54-7.64-.4-3.42-1.17-6.43-2.02-10.13-1.62l-.5,9.5c13.72-2.37,30.95,2.27,36.38,16.37,7.31,18.97-10.6,28.62-16.4,44.86-.95,2.66-.77,7.87-4.24,7.79-1.91-.04-6.08-4.13-8.09-5.43-7.56-4.89-14.14-5.95-22.27-8.73-19.76-6.75-20.48-29.92-6.84-43.56.68-.68,4.84-3.78,4.92-4.1.38-1.56-7.95-8.52-9.22-10.19-1.12,1.2-2.44,2.24-3.46,3.53-1.55,1.95-4.27,8.19-5.51,8.99-1.98,1.28-5.67.34-7.29-1.28-1.01-1.02-2.06-4.05-2.99-4.51-1.53-.75-3.57.23-5.54-1.46s-1.25-4.28-2.48-5.52c-1.74-1.75-5.8-.84-6.02-5.02-.07-1.2.64-2.65.46-3.39-.38-1.58-4.71-2.66-4.71-5.6,0-1.65,1.89-3.36,1.78-4.96-.13-1.99-2.91-3.06-1.9-6.43.48-1.6,3.5-2.35,4.35-3.65,1.43-2.2-.77-5.35,3.05-6.95,1.93-.8,4.2-.43,5.87-1.13,3.23-1.34,1.91-5.13,8.26-4,1.41.25,2.76,1.41,4.12,1.41,3.34,0,4.9-3.79,9.22-.75,2.62,1.84,2.3,3.55,6.79,2.72,1.68-.31,1.41-2.28,2.46-3.53,2.1-2.5,5.36-1.01,8.01-1.49,2.08-.37,2.75-2.75,6.02-2.51,2.26.17,3.9,2.22,5.52,2.51,2.55.46,6.39-1.03,8.16,1.34.65.86,1.15,3.04,1.69,3.56ZM67,57l-.71-8.53c-.78-1.17-4.5-.11-5.78.03l2.01,3.24,4.49,5.26Z" style="fill: #0b0c0c;"/>
  <path d="M92,123.5c-4.67-3.74-9.31-7-14.82-9.43-12.45-5.49-27.66-5.1-29.18-22.82-2.78-32.66,55.27-44.78,62.77-14.26,3.52,14.33-7.85,21.55-13.86,32.68-2.34,4.33-4.2,8.94-4.92,13.84Z" style="fill: url(#uuid-eb8cb261-3f83-49ab-bc66-e32618a08825);"/>
  <path d="M91.83,41.39c-.33,1.79,1.61,5.44.2,6.3-.74.37-1.76.03-2.54-.21-4.35-1.47-7.88-3.58-12.88-2.82-2.7.68-3.2,5.19-3.17,7.54,0,.96.04,2.13.01,3.05-.03.76-.36.81-1.06.7-.84-.19-1.94-.25-2.61-.84-.93-.97-.59-4.04-.92-5.71-.66-5.6-2.46-4.34-6.9-3.93-.87-.01-.56-.51,0-.83,3.11-2.09,7.53-2.52,10.93-3.35,1.23-.35,2.63-.97,3.16-2.21.89-2.17-1.29-5.45-3.45-6.85-3.27-1.56-3.65-2.18-3.78-5.77-.32-3.5-4.82-3.18-7.06-4.55-1.35-.86-1.55-2.63-2.43-3.85-.58-.75-1.37-1.39-1.31-2.22.46-3.01,4.8-1.59,7.28-2.14,1.67-.35,2.85-1.94,4.44-2.48,2.37-.67,4.11,2.18,6.68,2.42,1.26.21,2.54-.2,3.79-.27,2.67-.34,2.8,2.74,4.57,4.27.82.74,1.91,1.11,2.94,1.48.83.35,1.88.41,2.34,1.13.45.8-.22,3.52.45,4.91.52,1.08,1.77,1.68,2.7,2.35.79.54,1.07,1.04.65,1.92-.58,1.14-1.22,2.5-.97,3.85.27,2.14,2.03,3.07,1.6,4.34-.5,1.37-2.24,2.19-2.62,3.62l-.04.16Z" style="fill: url(#uuid-5463a584-3e58-414f-8800-504451d515df);"/>
  <path d="M55.93,46.88c-.23.78.22,1.56.71,2.15.79.82,1.45,1.63,2.24,2.41,2.02,1.28,3.34,3.69,4.79,5.83.62.95,1.1,2.14.58,3.15-1.04,1.77-3.18,2.19-4.11.47-.85-1.44-2.26-2.9-3.33-3.93-1.71-1.83-4.4-6.26-7.41-5.51-3.19,1.3-7.15,7.7-8.88,11.31-2.18,3.51-4.74.69-6.05-1.9-.61-.97-1.26-1.96-2.33-2.42-1.51-.71-4.11-.43-5.01-1.64-.72-.94-.69-2.22-1.2-3.28-.72-2.17-4.15-3.3-5.42-3.76-1.12-.57-.64-2.09-.72-3.16.45-3.98-2.04-4.13-4.05-6.57-.75-1.38,1.34-3.08,1.32-5.07.14-1.78-1.8-3.81-1.97-4.91-.08-.56.32-1.01.74-1.38,1.23-1.02,2.96-1.76,3.52-3.34.74-1.8.13-3.95,1.24-4.81,1.12-.97,4.18-.74,6.05-1.53,1.79-.65,2.71-2.52,4.21-3.55,2.25-1.51,5.49,1.46,8.47.72,1.81-.19,3.61-1.43,5.4-1.22,1.31.29,2.25,1.59,3.33,2.39,2.05,2.05,6.07,1.2,8.28,1.53,1.33.33,1.56,2.08,2.24,3.14.39.71.9,1.32,1.55,1.81,2.18,1.72,4.94,1.37,6.21,2.61.86.94-.02,3.14,1.15,5.11.33.61.84,1.12,1.37,1.57,1.61,1.27,3.94,1.61,4.61,3.46.43,1.06-.31,1.98-1.4,2.07-6.01.8-12.71,2.99-16.06,8.08l-.05.15Z" style="fill: url(#uuid-487507d9-3672-41bb-9c20-eada123ed41d);"/>
  <path d="M52.5,95.49c-.07-.98-.18-1.46.86-1.88,2.21-.91,6.63-.74,9.32-1.18,5.82-.95,12-2.53,17.58-4.42,3.47-1.18,9.09-4.3,12.11-4.92.98-.2,1.51-.21,2.13.66.26,1.25-3.68,2.88-4.66,3.33-8.13,3.77-20.25,7.24-29.15,8.35-1.35.17-7.6.93-8.19.05Z" style="fill: #b71739;"/>
  <path d="M101.46,68.54c.11.08.38,1.19.3,1.51-.46,1.93-6.8,5.25-8.76,6.21-3.46,1.71-10.39,4.73-14.01,5.52-2.09.46-2.34-.96-1.94-2.73,5.81-1.75,11.43-4.13,16.78-6.97,1.54-.82,6.21-4.56,7.62-3.55Z" style="fill: #b71739;"/>
  <path d="M73,108.5l.29-2.55c5.52-.84,10.92-2.16,16.05-4.35.96-.41,4.09-2.92,4.65-.84.46,1.68-4.5,3.57-5.86,4.13-4.76,1.93-10.04,3.02-15.13,3.62Z" style="fill: #b71739;"/>
  <path d="M97.06,80.55c.15-.22,4.54-2.39,4.8-2.46,1.94-.51,3.03,1.03,1.32,2.34-.62.47-3.93,2.37-4.54,2.49-1.57.3-2.16-1.52-1.58-2.37Z" style="fill: #b71739;"/>
  <path d="M49.2,41.3c1.19,1.38,3.21,2.56,2.79,4.7-.87.88-4.06-1.96-4.83-2.67-4.68-4.34-7.26-7.56-12.91-11.34-1.64-1.1-4.8-2.38-6.02-3.48-1.32-1.19-.16-2.53.92-2.43.85.08,5.03,2.73,6.1,3.41,4.94,3.13,10.12,7.41,13.94,11.81Z" style="fill: #508825;"/>
</svg>