<?xml version="1.0" encoding="UTF-8"?>
<svg id="uuid-4ab6ddc3-2f38-40a7-9d4c-64aca9a12c19" data-name="fill_chaff" xmlns="http://www.w3.org/2000/svg" xmlns:xlink="http://www.w3.org/1999/xlink" viewBox="0 0 128 128">
  <defs>
    <linearGradient id="uuid-ca90969a-b31b-4a0c-baeb-58bc6e8c19ef" x1="-387.61" y1="933.07" x2="-310.74" y2="1068.81" gradientTransform="translate(222 -444) scale(.5)" gradientUnits="userSpaceOnUse">
      <stop offset="0" stop-color="#a9bf67"/>
      <stop offset="1" stop-color="#8dab2c"/>
    </linearGradient>
    <linearGradient id="uuid-e8a39fa0-fdd1-416b-b440-5f802255a176" x1="-309.59" y1="1014.55" x2="-258.76" y2="1101.83" gradientTransform="translate(222 -444) scale(.5)" gradientUnits="userSpaceOnUse">
      <stop offset="0" stop-color="#8dab2c"/>
      <stop offset=".28" stop-color="#8dab2c"/>
      <stop offset="1" stop-color="#aabf67"/>
    </linearGradient>
    <linearGradient id="uuid-e9da74a8-c1e2-4426-b65e-2ebe82a8f217" x1="-422.8" y1="1083.47" x2="-372.33" y2="1121.19" gradientTransform="translate(222 -444) scale(.5)" gradientUnits="userSpaceOnUse">
      <stop offset="0" stop-color="#549b52"/>
      <stop offset="1" stop-color="#2f812b"/>
    </linearGradient>
    <linearGradient id="uuid-f632d863-1086-48c2-a4f2-5bfaee436af9" x1="-310.94" y1="898.26" x2="-278.67" y2="955.83" gradientTransform="translate(222 -444) scale(.5)" gradientUnits="userSpaceOnUse">
      <stop offset="0" stop-color="#549b52"/>
      <stop offset="1" stop-color="#2f822b"/>
    </linearGradient>
    <linearGradient id="uuid-f5839dc7-63b0-44c1-83bc-007f4fec95e0" x1="-241.53" y1="945.73" x2="-222.81" y2="978.8" gradientTransform="translate(222 -444) scale(.5)" gradientUnits="userSpaceOnUse">
      <stop offset="0" stop-color="#539b51"/>
      <stop offset="1" stop-color="#2f822b"/>
    </linearGradient>
  </defs>
  <path d="M29.83,18.18c2.13-.04,6.45,1.39,8.67,2.07,13.9,4.28,30.18,13.19,38.99,25.01.93,1.25,2.26,2.74,1.92,4.36l-25.31,53.74c-1.35,2.19-2.36,2.46-4.62,1.41-9.46-4.38-20.54-15.49-25.25-24.74-7.06-13.85-7.02-33.15-4.08-48.13,1.13-5.79,2.25-13.58,9.69-13.71Z" style="fill: #0c0f0d;"/>
  <path d="M86.35,46.59c.61-.18,1.18-.18,1.79,0,2.76.81,7.41,13.31,8.21,16.31,3.34,12.51,2.61,32.73-1.72,45-3.29,9.33-10.6,6.61-18.03,4.25-2.98-.95-16.15-6.03-17.25-8.28-.67-1.37.04-2.41.55-3.71,6.91-17.42,17.69-34.66,24.87-52.13.4-.52.93-1.26,1.57-1.45Z" style="fill: #0c0f0d;"/>
  <path d="M14.26,85c1.28-.3,3.97,5.87,4.84,7.16,3.86,5.73,11.01,11.14,17.07,14.43,1.91,1.04,10.4,4.27,10.79,5.74.35,1.34-2.35,2.72-3.5,3.37-21.86,12.34-41.51-3.5-31.19-27.19.3-.69,1.5-3.39,2-3.51Z" style="fill: #0c0f0d;"/>
  <path d="M80.25,36c-12.16-1.44-20.28-12.26-21.61-23.89-.16-1.43-.7-7.11.68-7.54.67-.21,3.96-.54,4.91-.59,14.4-.75,23.53,7.96,26.54,21.5.4,1.78,1.57,8.28.98,9.52-.11.23-.92,1-1,1-3.22,0-7.45.36-10.5,0Z" style="fill: #0c0f0d;"/>
  <path d="M98.67,53.83c-1.16-1.16-1.39-3.5-1.61-5.14-.67-4.95-1.52-13.09-1.48-17.95.03-3.89,3.45-5.47,6.94-4.5s12.14,5.02,15.66,6.84c4.35,2.24,6,4.48,2.57,8.93l-16.27,12.73c-1.9.59-4.36.56-5.81-.9Z" style="fill: #0c0f0d;"/>
  <path d="M62.49,79.5l-3.08-4.66-14.18-24.81c-1.25-1.85-3.68-.66-2.45,1.45l17.72,30.82-.23,1.72-8.78,18.49c-14.99-7.71-25.95-20.1-29.35-36.89-2.19-10.79-1.34-30.23,2.62-40.6,2.51-6.58,8.83-3.48,13.85-1.87,12.43,3.98,26.03,11.44,34.65,21.35.98,1.13,3.37,3.77,3.16,5.14l-13.92,29.87Z" style="fill: url(#uuid-ca90969a-b31b-4a0c-baeb-58bc6e8c19ef);"/>
  <path d="M62,102.99l25.25-53.49c1.53,1.9,2.69,4.11,3.68,6.32,6.13,13.61,5.77,30.3,2.84,44.7-.78,3.83-1.64,10.55-6.14,11.39-2.33.43-10.58-2.55-13.25-3.53-4.24-1.57-8.21-3.67-12.37-5.38Z" style="fill: url(#uuid-e8a39fa0-fdd1-416b-b440-5f802255a176);"/>
  <path d="M12.06,99.31c.11-1.19,1.79-9.32,2.69-9.3,6.17,10.78,16.69,18.3,28.25,22.5-4.2,3.3-11.29,5.56-16.7,4.94-1.97-.23-5.82-2.08-7.58-2.94-4.71-2.32-7.02-11.51-6.67-15.2Z" style="fill: url(#uuid-e9da74a8-c1e2-4426-b65e-2ebe82a8f217);"/>
  <path d="M89,33.5h-7.25c-.6,0-3.98-.88-4.86-1.14-10.92-3.25-16.11-14.59-15.89-25.35,17.24-3.54,28.12,10.47,28,26.5Z" style="fill: url(#uuid-f632d863-1086-48c2-a4f2-5bfaee436af9);"/>
  <path d="M100.62,51.88c-.35-.35-.51-1.15-.58-1.66-.64-4.92-1.28-11.05-1.54-15.97-.14-2.67-.69-6.48,3-5.52,3.15.82,12.6,5.16,15.69,6.83,3.51,1.89,3.57,2.57.82,5.2-4.29,4.09-10.21,7.31-14.52,11.5-.74.45-2.3.19-2.87-.38Z" style="fill: url(#uuid-f5839dc7-63b0-44c1-83bc-007f4fec95e0);"/>
  <path d="M102.09,49.19c-.52,0-.96-.4-1-.93l-1.06-14.43c-.04-.55.37-1.03.92-1.07.55-.05,1.03.37,1.07.92l1.06,14.43c.04.55-.37,1.03-.92,1.07-.02,0-.05,0-.07,0Z" style="fill: #89c280;"/>
  <path d="M71.96,26.09c-.35.1-.74,0-1.01-.27l-.12-.13c-4.97-4.06-6.71-8.44-7.8-13.78-.11-.54.24-1.08.78-1.18.54-.11,1.07.24,1.18.78,1.04,5.07,2.6,8.96,7.16,12.67l.26.27c.38.4.36,1.04-.04,1.41-.12.11-.26.19-.4.23Z" style="fill: #89c280;"/>
  <path d="M18.66,112.93c-.37,0-.72-.2-.89-.55l-.08-.16c-3.63-5.29-4.07-9.99-3.61-15.42.05-.55.53-.96,1.08-.91.55.05.96.53.91,1.08-.43,5.16-.03,9.33,3.31,14.17l.18.33c.25.49.05,1.09-.44,1.34-.15.07-.3.11-.45.11Z" style="fill: #89c280;"/>
  <path d="M34.34,84.93c-.38,0-.76-.14-1.05-.43-.22-.21-5.35-5.39-8.83-19.23-2.38-9.49-1.9-13.65-1.47-17.33.15-1.24.28-2.41.28-3.7,0-.83.67-1.5,1.5-1.5s1.5.67,1.5,1.5c0,1.46-.15,2.72-.3,4.04-.4,3.42-.85,7.3,1.4,16.25,3.25,12.92,7.99,17.79,8.03,17.83.58.58.59,1.53,0,2.12-.29.3-.68.44-1.06.44Z" style="fill: #d3df90;"/>
  <path d="M86.44,110.45c-.17,0-.34-.03-.51-.09l-20.05-7.29c-.78-.28-1.18-1.14-.9-1.92.28-.78,1.14-1.18,1.92-.9l20.05,7.29c.78.28,1.18,1.14.9,1.92-.22.61-.8.99-1.41.99Z" style="fill: #d3df90;"/>
</svg>