<?xml version="1.0" encoding="UTF-8"?>
<svg id="uuid-5bf201bc-f8cf-41e9-8c42-8d91ae9c1d86" data-name="fill_bathtub" xmlns="http://www.w3.org/2000/svg" viewBox="0 0 128 128">
  <path d="M2.63,73.24c0-3.57,0-7.14,0-10.71,0-1.28-.04-2.56-.04-3.84,0-8.77-.15-17.55.05-26.32.16-6.97,3.15-11.29,8.72-12.32,3.29-.61,6.81-.42,10.18-.09,7.56.75,15.06,2.02,22.62,2.7,7.24.65,14.55,1.4,21.79,1.09,10.8-.45,21.55-1.81,32.33-2.75,5.1-.44,10.2-1.01,15.3-1.16,6.54-.2,10.82,3.2,11.15,9.82.5,10.34.17,20.72.25,31.09.02,2.29.41,4.58.42,6.87.05,8.2.02,16.4.02,24.61,0,4.14-1.36,6.42-5.37,7.45-8.6,2.21-17.25,4.22-25.93,6.1-13.77,2.99-27.79,2.84-41.72,2.23-15.47-.68-30.64-3.66-45.36-8.65-2.97-1.01-4.46-3.24-4.47-6.35-.02-5.46-.03-10.92.02-16.38,0-1.13.27-2.26.42-3.38-.13,0-.27,0-.4.01Z" style="fill: #4a3726; stroke-width: 0px;"/>
  <path d="M63.78,45.92c-12.75-.4-25.46-.97-37.85-4.03-4.46-1.1-8.74-3.17-12.84-5.31-1.56-.82-2.92-2.95-3.35-4.74-.76-3.14,1.07-5.21,4.33-4.99,6.85.47,13.68,1.25,20.52,1.95,4.52.46,9.03,1.18,13.56,1.45,6.2.37,12.46.92,18.63.52,11.97-.77,23.9-2.17,35.85-3.26,3.67-.33,7.36-.72,11.02-.62,1.48.04,3.83,1.06,4.17,2.15.53,1.66.34,4.4-.74,5.54-2,2.11-4.7,3.84-7.42,4.92-7.43,2.95-15.24,4.38-23.23,4.88-7.55.47-15.09,1.02-22.64,1.53Z" style="fill: #7b5b3b; stroke-width: 0px;"/>
  <path d="M9.71,69.8v-5.11c36.26,11.19,72.33,11.21,108.47.04.15.73.31,1.18.33,1.64.04,1.05.01,2.11.01,3.36-36.41,11.3-72.56,11.29-108.81.07Z" style="fill: #7f827e; stroke-width: 0px;"/>
  <path d="M47.44,100.79c-6.25-.91-12.17-1.78-18.31-2.68v-16.34c6.1.84,12.09,1.66,18.31,2.52v16.5Z" style="fill: #a5805b; stroke-width: 0px;"/>
  <path d="M98.97,81.75v16.33c-6.06.88-12.11,1.76-18.42,2.67v-16.43c6.07-.85,12.13-1.69,18.42-2.57Z" style="fill: #a5805b; stroke-width: 0px;"/>
  <path d="M73.23,100.99h-18.42v-16.05h18.42v16.05Z" style="fill: #a5805b; stroke-width: 0px;"/>
  <path d="M73.3,52.19v13.85h-18.43v-13.85h18.43Z" style="fill: #a5805b; stroke-width: 0px;"/>
  <path d="M29.06,49.76c6.37.76,12.38,1.47,18.48,2.19v13.78c-6.27-.93-12.31-1.82-18.48-2.74v-13.24Z" style="fill: #a5805b; stroke-width: 0px;"/>
  <path d="M99.02,49.76v13.19c-6.04.92-12.1,1.85-18.44,2.82v-13.83c6.07-.72,12.09-1.43,18.44-2.18Z" style="fill: #a5805b; stroke-width: 0px;"/>
  <path d="M21.8,80.08v16.35c-4.19-1.2-8.14-2.34-12.06-3.46v-16.12c4.2,1.13,8.09,2.17,12.06,3.23Z" style="fill: #a5805b; stroke-width: 0px;"/>
  <path d="M118.31,92.96c-3.9,1.12-7.8,2.23-11.98,3.43v-16.3c3.78-1.02,7.72-2.1,11.98-3.25v16.12Z" style="fill: #a5805b; stroke-width: 0px;"/>
  <path d="M21.76,61.17c-4.33-1.25-8.2-2.37-12.1-3.5v-14.49c4.11,1.68,8.02,3.28,12.1,4.95v13.04Z" style="fill: #a5805b; stroke-width: 0px;"/>
  <path d="M106.38,48.09c3.9-1.6,7.73-3.18,11.86-4.88v14.49c-3.74,1.09-7.61,2.21-11.86,3.44v-13.05Z" style="fill: #a5805b; stroke-width: 0px;"/>
</svg>