<?xml version="1.0" encoding="UTF-8"?>
<svg id="uuid-48cec9cf-57aa-46d2-bb31-14d487dd4fa3" data-name="fill_silage" xmlns="http://www.w3.org/2000/svg" xmlns:xlink="http://www.w3.org/1999/xlink" viewBox="0 0 128 128">
  <defs>
    <linearGradient id="uuid-844efb72-f8ff-430b-9523-e816b4da7c71" x1="-975.07" y1="255.52" x2="-842.07" y2="255.6" gradientTransform="translate(518 -74) scale(.5)" gradientUnits="userSpaceOnUse">
      <stop offset="0" stop-color="#474747"/>
      <stop offset=".5" stop-color="#6e6d6d"/>
      <stop offset="1" stop-color="#474847"/>
    </linearGradient>
    <linearGradient id="uuid-bd829fdb-f1fe-400e-9c0b-faa08d72aa52" x1="-1004.87" y1="217.03" x2="-1005" y2="348.03" gradientTransform="translate(518 -74) scale(.5)" gradientUnits="userSpaceOnUse">
      <stop offset="0" stop-color="#c9c9ca"/>
      <stop offset="1" stop-color="#848383"/>
    </linearGradient>
    <linearGradient id="uuid-75e5a976-eb80-4aff-9295-12f0a8a90b38" x1="-811.26" y1="217.57" x2="-811.01" y2="348.57" gradientTransform="translate(518 -74) scale(.5)" gradientUnits="userSpaceOnUse">
      <stop offset="0" stop-color="#cbcccc"/>
      <stop offset="1" stop-color="#818080"/>
    </linearGradient>
  </defs>
  <path d="M29,45.5c1.4.24.84-.29,1.12-1.1,2.96-8.28,3.78-6.16,9.62-10.91,2.49-2.03,3.56-4.88,6.6-6.4,3.2-1.6,6.16-.98,9.3-1.7,3.77-.87,4.73-2.78,9.63-2.41,2.91.22,4.67,1.85,7.09,2.41,2.09.48,4.98.27,7.17.83,4.63,1.19,5.57,4.69,8.73,7.27,3.1,2.53,6.36,3,8.34,7.16l1.9,5.35v-12.75c0-.61,1.9-1.68,2.72-1.78,5.42-.62,11.98.51,17.53.02,2.35.44,1.58,5.05,1.74,6.76,1.95,19.94,4.65,41.63,5.5,61.5.14,3.4.49,5.01-3.23,5.27-7.12.5-14.82-.4-22.01-.03-3.74-1.11-.44-5.86-5.02-6.03-2.04-.08-3.68,1.58-5.99,1.58s-3.98-1.67-5.99-1.58c-1.76.08-3.29,1.58-5.51,1.58s-4.07-1.71-6-1.59c-1.54.1-3.2,1.59-5.5,1.59s-4.07-1.71-6-1.59c-1.54.1-3.2,1.59-5.5,1.59s-4.07-1.71-6-1.59c-1.54.1-3.2,1.59-5.5,1.59s-3.98-1.67-5.99-1.58c-1.53.07-2.95,1.33-4.56,1.51s-2.7-.33-4.2-.47c.17,1.07.11,5-1.25,5H3.25c-.36,0-1.14-1.21-1.24-1.76-.62-3.57.7-9.23.99-12.99,1.45-19.07,2.87-38.21,4.72-57.28.18-.41.38-1.01.77-1.23.79-.47,16.31-.49,18.29-.27.97.11,2.08.64,2.5,1.55.35.75-.28,1.05-.28,1.22v11.25Z" style="fill: #0c0e0e;"/>
  <path d="M98.5,82c-.54.55-9.74-4.39-11.24-5.01-19.93-8.25-32.96-6.5-52.1,2.42-1.77.83-3.5,2.69-5.66,2.59v-31.25c0-.18,1.76-1.93,2.2-2.8,1.21-2.35,1.61-5.53,3.3-7.7,1.59-2.04,4.3-2.73,6.25-4.25,3.11-2.43,3.76-5.79,8.03-6.97,2.25-.62,4.08-.37,6.24-.76,2.69-.48,5.53-2.64,8.27-2.74s6.16,2.36,9.08,2.83c2.02.33,3.66.06,5.84.66,4.04,1.12,4.97,4.56,8.03,6.97,1.87,1.47,4.69,2.35,6.26,4.24s2.08,5.39,3.3,7.7c.46.87,2.19,2.63,2.19,2.81v31.25Z" style="fill: url(#uuid-844efb72-f8ff-430b-9523-e816b4da7c71);"/>
  <path d="M4.5,102l5.5-68h16.5v68c-7.16.61-14.83.61-22,0Z" style="fill: url(#uuid-bd829fdb-f1fe-400e-9c0b-faa08d72aa52);"/>
  <path d="M99,85.5v11.5c-1.26-.02-1.85-1.02-3.24-1.02-2.32,0-3.77,1.87-7.02,1.54-1.78-.18-2.89-1.52-4.48-1.54-2.28-.02-3.77,1.87-7.02,1.54-1.78-.18-2.89-1.52-4.48-1.54-2.12-.02-3.66,1.75-6.53,1.56-2-.13-3.12-1.56-4.98-1.55-2.04,0-3.53,1.63-6.01,1.56-2.1-.06-3.62-1.56-5.49-1.56-2.04,0-3.53,1.63-6.01,1.56-2.1-.06-3.62-1.56-5.49-1.56-1.65,0-2.81,1.14-4.11,1.4-1.15.23-5.14.34-5.14-1.14v-10c4.96-3.36,11.05-6.24,16.74-8.26,12.58-4.47,20.29-5.08,33.14-1.12,7.08,2.18,13.35,5.79,20.12,8.63Z" style="fill: #917854;"/>
  <path d="M101.5,102V34h16.5l5.5,68c-7.16.61-14.83.61-22,0Z" style="fill: url(#uuid-75e5a976-eb80-4aff-9295-12f0a8a90b38);"/>
  <path d="M58.39,63.14c5.45-.58,15.1-.16,20.12,2.11,2.21,1,1.98,2.86-.2,2.75-1.68-.09-5.37-1.57-7.62-1.92-2.95-.45-5.95-.76-8.95-.6-4.59.26-8.96,1.9-13.47,2.54l-1.26-.77.5-1.49c3.49-.85,7.32-2.24,10.88-2.62Z" style="fill: #0c0e0e;"/>
  <path d="M35.56,51.44c-.82-1.13,1.74-6.31,2.74-7.39,2.17-2.36,6.31-3.48,8.44-6.07.82-1.11,2.61.4,2.04,1.52-1.31,2.59-6.62,4.32-8.55,6.48-1.39,1.55-1.73,5.14-2.72,5.81-.42.29-1.8-.16-1.94-.35Z" style="fill: #0c0e0e;"/>
  <path d="M39.88,87.38c-2.18,2.16-5.41-1.08-3.25-3.25,1.91-1.93,5.19,1.34,3.25,3.25Z" style="fill: #5f5037;"/>
  <path d="M89.93,87.93c-.46.31-2.82.18-3.21-.39-.54-1.15-.08-2.39.35-3.47,2.72-1.3,4.58,2.7,2.87,3.87Z" style="fill: #5f5037;"/>
  <path d="M68.82,86.57c4.59-1.53,3.89,4.81.53,3.86-1.54-.44-2.01-3.37-.53-3.86Z" style="fill: #5f5037;"/>
  <path d="M7.91,99.25s-.05,0-.07,0c-.55-.04-.97-.52-.93-1.07l1.07-15.07c.04-.55.53-.96,1.07-.93.55.04.97.52.93,1.07l-1.07,15.07c-.04.53-.48.93-1,.93Z" style="fill: #fff;"/>
  <path d="M104.25,100.1h-.01c-.55,0-1-.46-.99-1.01l.18-15.1c0-.55.41-.99,1.01-.99.55,0,1,.46.99,1.01l-.18,15.1c0,.55-.45.99-1,.99Z" style="fill: #fff;"/>
</svg>