<?xml version="1.0" encoding="UTF-8"?>
<svg id="uuid-221554b8-d87c-4d1c-8d1c-01ff9bd18020" data-name="fill_soybeancut" xmlns="http://www.w3.org/2000/svg" xmlns:xlink="http://www.w3.org/1999/xlink" viewBox="0 0 128 128">
  <defs>
    <linearGradient id="uuid-79750f8c-6f07-4a28-b6c7-26dfc1bd3ec8" x1="-611.72" y1="-402.79" x2="-611.98" y2="-248.79" gradientTransform="translate(370 222) scale(.5)" gradientUnits="userSpaceOnUse">
      <stop offset="0" stop-color="#faee98"/>
      <stop offset="1" stop-color="#cfb557"/>
    </linearGradient>
    <linearGradient id="uuid-c1a54b4c-f953-4630-b9a8-bc7a630843dd" x1="-502.6" y1="-268.3" x2="-604.84" y2="-209.4" gradientTransform="translate(370 222) scale(.5)" gradientUnits="userSpaceOnUse">
      <stop offset="0" stop-color="#ddbb42"/>
      <stop offset="1" stop-color="#ecdc66"/>
    </linearGradient>
    <linearGradient id="uuid-4d7c4546-293f-4d12-9e80-368d0717e055" x1="-554.38" y1="-373.53" x2="-587.31" y2="-333.29" gradientTransform="translate(370 222) scale(.5)" gradientUnits="userSpaceOnUse">
      <stop offset="0" stop-color="#85ad61"/>
      <stop offset="1" stop-color="#5b8730"/>
    </linearGradient>
    <linearGradient id="uuid-a76b1333-9cfc-4261-aa52-4a98823a2ef6" x1="-707.24" y1="-355.39" x2="-672.36" y2="-328.56" gradientTransform="translate(370 222) scale(.5)" gradientUnits="userSpaceOnUse">
      <stop offset="0" stop-color="#85ad60"/>
      <stop offset="1" stop-color="#638e39"/>
    </linearGradient>
    <linearGradient id="uuid-ff6d9545-13e3-4896-a7ae-f863be547791" x1="-567.83" y1="-336.1" x2="-592.63" y2="-267.44" gradientTransform="translate(370 222) scale(.5)" gradientUnits="userSpaceOnUse">
      <stop offset="0" stop-color="#c1aa79"/>
      <stop offset="1" stop-color="#a38752"/>
    </linearGradient>
    <linearGradient id="uuid-21bb6f7d-d6c6-4af4-ba47-c83dc5a38d12" x1="-614.95" y1="-356.81" x2="-604.28" y2="-286.62" gradientTransform="translate(370 222) scale(.5)" gradientUnits="userSpaceOnUse">
      <stop offset="0" stop-color="#c1aa79"/>
      <stop offset="1" stop-color="#a38752"/>
    </linearGradient>
    <linearGradient id="uuid-9d1e15e5-2c9c-4d67-bbfd-12989a9322ea" x1="26.09" y1="69.1" x2="36.97" y2="89.56" gradientUnits="userSpaceOnUse">
      <stop offset="0" stop-color="#b9a172"/>
      <stop offset="1" stop-color="#a68c59"/>
    </linearGradient>
    <linearGradient id="uuid-179c11f2-0b02-42f2-85da-bc5632b3f4cd" x1="51" y1="58.5" x2="51" y2="87.5" xlink:href="#uuid-9d1e15e5-2c9c-4d67-bbfd-12989a9322ea"/>
    <linearGradient id="uuid-a57b8c82-90d0-458a-aea2-f4a1da3170e2" x1="39.23" y1="54.13" x2="44.52" y2="84.17" xlink:href="#uuid-9d1e15e5-2c9c-4d67-bbfd-12989a9322ea"/>
    <linearGradient id="uuid-25563114-0bbd-4d45-94dd-4071cf1c8a7d" x1="-555.45" y1="-225.17" x2="-586.26" y2="-221.72" gradientTransform="translate(370 222) scale(.5)" gradientUnits="userSpaceOnUse">
      <stop offset="0" stop-color="#fedd6c"/>
      <stop offset="1" stop-color="#fdf4b9"/>
    </linearGradient>
    <linearGradient id="uuid-7bd644a1-17f0-45a4-9b31-452d5edeb9f1" x1="-513.3" y1="-256.71" x2="-540.14" y2="-253.78" gradientTransform="translate(370 222) scale(.5)" gradientUnits="userSpaceOnUse">
      <stop offset="0" stop-color="#fede6c"/>
      <stop offset="1" stop-color="#fef1b1"/>
    </linearGradient>
  </defs>
  <path d="M89.57,30.93c1.28.92,4.95-1.99,7.17,1.08,1.97,2.73-.58,10.11,2.83,14.67,1.21,1.62,4.21,2.69,5.44,4.56,1.09,1.67,1.31,4.29,2.49,6.01,1.31,1.91,4.49,3.19,5.72,5.28.91,1.55,1.15,4.22,2.27,5.73s4.19,2.82,5.26,4.24,1.53,5.31,2.38,6.37c.51.63,2.89.75,3.3,1.95.54,1.61-.58,3.28-.33,4.31.26,1.1,1.63,1.47,1.41,3.56s-1.9,2.17-2.01,2.64c-.28,1.2.34,2.53-.36,4.03-.9,1.94-2.74,1.18-3.52,1.72-.44.3-3.77,7.25-5.65,9.1-4.21,4.16-9.35,4.67-13.42,7.58-2.14,1.53-3.56,4.43-5.79,6.21-5.01,3.99-12.69,5.62-18.99,5.01-7.92-.77-23-9.65-15.97-18.97,1.71-2.27,4.34-2.16,6.22-4.02-2.9.27-6.58-1.51-9.25-1.51-3.24,0-7.76,2-11,2-2.95,0-7.56-2-10.5-2-3.24,0-7.76,2-11,2-2.69,0-7.61-2.08-10.03-1.95-1.05.06-2.12,1.47-3.95,1.42-2.17-.06-2.02-2.17-3.28-2.72s-3.14.22-4.05-.95c-.76-.98-.2-2.3-.69-3.31-.45-.91-2.77-1.47-3.17-2.85-.54-1.85.98-2.96.83-3.81-.1-.56-1.11-1.27-1.32-2.19-.68-2.92,2.03-3.1,2.34-4.49.15-.67-.37-1.33-.37-1.93,0-2.63,4.57-4.22,5.96-5.96,1.13-1.42,1.5-5.1,2.74-6.76,1.04-1.4,3.82-2.46,5.02-3.98.48-.62,1.73-3.16,1.72-3.79,0-.31-2.61-4.23-3.09-5.39-1.07-2.58-3.26-11.25-1.29-13.22.45-.45,4.27-.99,5.19-1.06,4.41-.3,8.86.68,12.89,2.41,1.14-.25,2.34-5.72,3.08-6.93,1.02-1.68,4.58-3.19,5.73-4.77.97-1.33,1.65-4.66,2.74-5.76,1.01-1.01,4.66-1.42,6.21-2.29,1.68-.95,3.89-4.03,5.83-4.22,1.62-.15,3.78.77,5.97.51s3.59-1.77,5.99-1.55c1.87.17,4.06,2.52,5.61,2.93,1.71.45,4.45.15,6.27.73,1.46.46,2.99,4.06,4.61,5.39,1.24,1.01,4.14,2.03,4.99,3.01.48.55.62,1.77.83,1.91Z" style="fill: #070604;"/>
  <path d="M72,73.5c-.96-10.68-3.4-21.72-4.87-32.38-.61-2.14-8.02-.96-9.01-.01-.54.52-.62,1.81-.58,2.56.35,7.5,2.76,17.86,3.91,25.63.53,3.59.63,8.78,1.79,12.21.95,2.81,3.51,2.08,5.77,1.48.58.57-3.08,4.44-1.75,7.01.31.59,5.78,2.95,6.55,3,1.52.09,2.34-1.35,2.98-2.48,6.27-11.14,10.76-26.22,16-38l2.13-2.87,1.59-3.15c.44,3.11,4.66,4.08,6.21,6.54,1.06,1.67,1.22,4.75,2.07,5.93,1.07,1.47,4.45,2.9,5.73,4.77s1.55,5.14,2.75,6.75c1.09,1.46,4.43,2.75,5.26,3.87,1.2,1.62,1.51,5.7,2.09,6.53.31.44,2.57.84,2.82,1.18.6.84-.43,2.78-.29,3.61.13.73,1.39,1.48,1.37,2.58s-1.61,1.6-1.9,2.58c-.55,1.88.99,4.24-1.6,3.65.81-2.45.31-5.11-.13-7.62-1.32-7.44-4.63-15.65-13.82-12.08-5.74,5.11-11.66,10.07-17.89,14.6-4.84,3.52-12.53,9.66-18.41,10.08-3.89.28-6.93-1.15-10.56-1.43-4.66-.36-8.87,1.7-13.46,1.46-3.23-.17-6.62-1.6-9.99-1.55-3.77.05-7.49,1.76-11.51,1.55-2.7-.14-5.91-1.47-8.5-1.54-1.68-.04-3.34,1.18-4.41,1.06-.38-.04-.85-1.85-1.82-2.29-1.05-.47-3.37-.12-3.5-.25-.24-.24.33-2.67-.1-3.41-.14-.24-1.89-.85-2.4-1.36-1.33-1.32.52-2.26.4-3.41-.09-.91-1.5-2.15-1.33-3.01.14-.72,1.58-1.27,1.83-2.16.3-1.05-.11-2.28.18-3.32s4.19-3.16,5.15-4.35c1.48-1.85,1.56-5.11,3.03-6.97,1.8-2.26,5.99-3.16,6.24-7.02,2.22.98,4.06,2.14,6.49,2.76,3.47.88,6.54.43,9.78,1.22l3.22,18.02-9.21-17.54c-.99-1.81-8.2,1.92-8.31,2.36-.44,1.77,1.06,5.34,1.82,7.12,1.27,3,3.35,6.28,4.79,9.21,1.29,2.62,2.71,9.5,6.54,8.76.41-.08,5.14-2.42,5.38-2.66,1.02-1.01.24-3.52.49-3.76.2-.19,4.66-.1,5.5-.5-.38,4.81,3.05,4.04,6.53,3.28,2.4-.52,3.63-.62,3.5-3.51-.17-3.7-1.57-8.4-1.57-12.02,0-4.04.48-8.71.52-13.02.01-1.54,1.22-4.37-1.32-5.14-1.29-.39-6.82-.36-7.69.63-.71.81-.45,2.51-1.46,2.78-.7-3.9-.36-9.98-6-8-.3-3.23-2.84-5.56-4.93-7.75,1.94-1.78,1.75-5.34,3.18-7.25,1.06-1.42,4.01-2.76,5.25-4.25s1.81-4.9,2.61-5.64,4.4-1.04,5.85-1.91c1.35-.8,2.68-3.13,4.4-3.6,2.12-.57,3.58.46,5.37.41,2.14-.06,4.09-1.83,6.48-1.52,1.42.18,2.99,1.81,4.68,2.35,2.13.68,4.21.27,5.77.73.93.27,3.06,4.24,4.59,5.41,1.69,1.29,4.72,1.44,4.25,3.49-10.31,1.76-15.18,10.78-14.52,20.78.06.98.44,4.04.77,4.73,1.34,2.81,6.69.44,6.76,1.25-.77,3.75-3.07,6.98-4.61,10.39-.71,1.56-.97,3.12-1.89,4.86-.56,1.09-.73.47-1-.5Z" style="fill: url(#uuid-79750f8c-6f07-4a28-b6c7-26dfc1bd3ec8);"/>
  <path d="M109.87,76.6c4.69-.97,6.54,3.5,7.6,7.17,3.04,10.49.91,19.55-9.27,24.67-1.83.92-4.64,1.55-6.45,2.55-3.12,1.73-4.13,5.5-7.48,7.52-8.39,5.05-17.7,5.42-25.92-.11-4.25-2.86-8.27-6.7-3.6-11.41,14.53-6.39,27.22-16.12,39.49-26.01,1.77-1.42,3.21-3.88,5.63-4.38Z" style="fill: url(#uuid-c1a54b4c-f953-4630-b9a8-bc7a630843dd);"/>
  <path d="M83.12,35.9c3.1-1.8,7.79-2.46,11.33-2.34,1.79,3.48-.68,16.04-3.95,17.73-1.2.62-3.78-1.92-6.15-1.19-1.85.57-2.49,4.99-3.16,5.46-1.31.9-4.55.28-6.18.45-.91-4.2-.17-12.26,2.56-15.7.67-.85,4.89-4.01,5.56-4.4Z" style="fill: url(#uuid-4d7c4546-293f-4d12-9e80-368d0717e055);"/>
  <path d="M17.58,53.19c-.59-1.35-1.06-2.72-1.36-4.17-.22-1.06-1.28-6.53.03-6.53h8.5c3.27,0,8.97,3.98,10.66,6.84,2.41,4.07-.73,2.45-1.34,4.51-.35,1.19.42,2.61.47,3.9.24,6.6-6.89,4.8-10.72,2.69-3.13-1.73-5.9-6.49-6.23-7.24Z" style="fill: url(#uuid-a76b1333-9cfc-4261-aa52-4a98823a2ef6);"/>
  <path d="M89.47,54.04l-15.03,35.15c-1.1,1.87-2.77-.32-4.42-.21l14.98-36.48,4.46,1.54Z" style="fill: url(#uuid-ff6d9545-13e3-4896-a7ae-f863be547791);"/>
  <path d="M65,42.5l5,38h-4.5c-1.11-12.55-4-24.92-4.95-37.45l4.45-.55Z" style="fill: url(#uuid-21bb6f7d-d6c6-4af4-ba47-c83dc5a38d12);"/>
  <path d="M38.51,88.73c-1.43.65-2.82,1.84-4.47,1.74-.43-.3-2.52-6.4-3.04-7.47-2.02-4.13-4.59-8.1-6.44-12.34-.09-.9,2.92-2.36,3.77-2.59.98-.27.53.12.78.57,2.19,3.89,3.95,8.76,5.89,12.86,1.09,2.3,2.74,4.68,3.51,7.23Z" style="fill: url(#uuid-9d1e15e5-2c9c-4d67-bbfd-12989a9322ea);"/>
  <path d="M54,87l-5,.5c-.4-5.03-.94-9.95-1-15-.05-4.71.37-9.32.5-14h4.5c.41,4.86-.42,9.7-.5,14.5-.08,4.67.96,9.37,1.5,14Z" style="fill: url(#uuid-179c11f2-0b02-42f2-85da-bc5632b3f4cd);"/>
  <path d="M46.05,82.25c.21,1.71-1.58,1.93-2.9,2.16-1.02.18-.47.04-.66-.63-1.44-5.26-1.95-10.93-2.99-16.28-.33-1.71-3.27-12.37-2.48-12.98l4.47-.51c.66,4.15,1.28,8.35,2.01,12.49.28,1.61,1.23,3.72,1.47,5.28.49,3.33.22,7.12,1.08,10.47Z" style="fill: url(#uuid-a57b8c82-90d0-458a-aea2-f4a1da3170e2);"/>
  <path d="M82.08,37.9c2.02-.85,4.74-2.03,7-1.46.68.25.55.88.1,1.28-.88.89-3.13,1.63-4.7,2.82-1.55.98-3.94,4.2-5.2,3.7-.68-.31-.81-1.03-.82-1.66.06-1.87,1.31-3.68,3.44-4.58l.19-.09Z" style="fill: #b2d68f;"/>
  <path d="M18.93,54.5c-.39-1.04-.68-2.53-.9-3.75-.22-1.3-.38-2.4.22-2.72.8-.39,1.55.18,1.88.9.76,2.24,1.57,4.76,3.64,6.2.93.74,2.28,1.18,3,2.1,1.07,2.16-2.67,1.72-3.83,1.2-1.75-.52-3.34-2.22-3.94-3.77l-.06-.16Z" style="fill: #b2d68f;"/>
  <path d="M73,74c-.24.46-.07,1.43-1,1.5-.05-.66.05-1.34,0-2l1,.5Z" style="fill: #ceb559;"/>
  <path d="M83.38,100.13c4.63-.67,10.3-.09,12.72,4.52,5.38,10.23-12.26,21.87-20.87,13.37-6.57-6.48.49-16.79,8.15-17.89Z" style="fill: #0d0c07;"/>
  <path d="M105.87,83.62c3.74-.63,8.15.09,10.24,3.53,6.96,11.48-12.23,26.28-19.82,15.32-1.56-2.25-1.56-5-1.23-7.66.57-4.61,6.21-10.41,10.81-11.19Z" style="fill: #070604;"/>
  <path d="M64.01,112.9c-.24-1.34-.08-3.09.78-4.2.5-.92,5.29-4.01,5.72-1.74.08.35.05,1.27-.39,1.6-.93.81-2.83.72-3.34,2-.42.77-.22,1.91-1.08,2.38-.4.19-1.13.22-1.62.06l-.07-.1Z" style="fill: #fefdfa;"/>
  <path d="M92.28,113.8c-4.85,6.26-18.81,6.33-16.67-3.94.67-3.21,5.65-6.7,8.75-7.24,7.79-1.35,13.23,4.33,7.92,11.18Z" style="fill: url(#uuid-25563114-0bbd-4d45-94dd-4071cf1c8a7d);"/>
  <path d="M100.47,89.3c3-4.37,9.64-5.48,13.3-.82s-1.2,11.79-5.66,13.89c-7.37,3.48-12.66-1.32-9.99-9.01.28-.81,1.46-3.29,2.34-4.06Z" style="fill: url(#uuid-7bd644a1-17f0-45a4-9b31-452d5edeb9f1);"/>
  <path d="M100.14,91.11c.69-.28,2.19-.06,2.34.71.24,1.66-1.57,2.87-1.37,4.63.11,1.45.65,3.38-1.5,3.05-2.51-.52-.74-7.14.4-8.32l.13-.07Z" style="fill: #fefdfa;"/>
  <path d="M84.44,104.77c.65,2.78-3.77,2.71-4.79,5.28-.68.9-.62,2.57-1.72,2.99-.64.14-1.62-.23-1.86-.81-.75-1.92,2.58-5.88,5.55-7.35,1.07-.51,2.29-.84,2.75-.22l.07.11Z" style="fill: #fefdfa;"/>
</svg>