<?xml version="1.0" encoding="UTF-8"?>
<svg id="uuid-0053b794-7a8a-4568-95a3-5137829b89e5" data-name="fill_butter" xmlns="http://www.w3.org/2000/svg" xmlns:xlink="http://www.w3.org/1999/xlink" viewBox="0 0 128 128">
  <defs>
    <linearGradient id="uuid-23b25171-1d9c-4fa9-8ede-6140a281f47d" x1="-1990.88" y1="-546.08" x2="-1947.4" y2="-469.57" gradientTransform="translate(1036 296) scale(.5)" gradientUnits="userSpaceOnUse">
      <stop offset="0" stop-color="#fbf6bb"/>
      <stop offset="1" stop-color="#faec5d"/>
    </linearGradient>
  </defs>
  <path d="M89.33,32.17c5.05,6.21,9.87,12.62,14.9,18.85.56,1.13.43,2.19-.48,3.02-.52.48-1.59.23-1.21,1.14l16.21,27.82c3.17,5.35.15,7.74-4.11,10.41-16.69,10.49-34.64,19.14-51.31,29.69-3.88,1.98-7.01,2.46-9.76-1.42-5.59-7.88-9.92-18.31-15.2-26.55-6.08-1.36-5.51-10.04-7.43-14.82L9.72,43.53c-1.94-6.5,3.59-8.64,8.12-11.43,15.24-9.4,31.4-17.42,46.63-26.87,2.96-1.49,6.52-1.3,8.75,1.3,4.73,7.07,8.19,15.05,12.88,22.12,1.21,1.82,2.3,2.36,3.24,3.51Z" style="fill: #0c0e0f;"/>
  <path d="M13.03,38.29L66.85,7.1c2.35-.55,3.53.07,4.87,1.93,3.8,5.28,8.56,14.64,11.87,20.63.39.71,1.38,2.32,1.31,3l-12.05,20.18-38.68,26.6-1.1-.77-15.68-27.33c-2.3-3.57-6.9-10.73-4.35-13.07Z" style="fill: url(#uuid-23b25171-1d9c-4fa9-8ede-6140a281f47d);"/>
  <path d="M99.93,55.58l17.2,30.08c.64,1.11.12,2.29-.4,3.33l-54.89,31.61c-1.71.85-3.15,2.12-5.04.86l-14.29-24.7c1.88.12,4.7,2.22,6.37.63,1.19-1.14,2.6-8.39,3.19-8.81,2.19-.26,10.8.12,12.23-1.02,1.13-.9.75-5.66.71-7.29-.03-.98-.61-1.89-.5-2.96.06-.61,1.92-4.7,2.28-4.78,4.41,1.45,10.39,3.02,15.03,3.43,6.85.6,2.92-4.31,4.82-8.56.8-1.78,4-3.35,4.28-5.23.14-.91-.97-5.14-.42-5.65l9.43-.92Z" style="fill: #4e5ba5;"/>
  <path d="M101.5,52.5c.39-.35-.98-2.01-1.3-2.45-1.52-2.16-3.58-4.01-5.2-6.05-2.25-2.83-4.23-5.9-6.59-8.66-.33-.4-.43-1.02-1.16-.84-1.16.29-10.57,18.23-12.73,20.27l-39.28,27.21c-1.21.87-.6,1.81-.4,2.94.16.91,1.52,6.27,2.96,7.12.51.3,8.44,3.05,8.89,2.93.92-.26,2.81-7.52,3.36-8.92,4.13-.6,8.27-.64,12.45-.55.51-.5-.93-7.79-.76-9.26.11-.96,5.27-8.01,5.26-7.74,1.11,3.75,13.12,3.77,16.5,5v-7.25c0-.66,3.97-2.67,4.4-4.1.69-2.32-.96-5.16-.35-7.6l13.95-2.05Z" style="fill: #d6ddec;"/>
</svg>