<?xml version="1.0" encoding="UTF-8"?>
<svg id="fill_weed" xmlns="http://www.w3.org/2000/svg" viewBox="0 0 128 128">
  <path d="M52.64,80.37c-1.51-6.54-2.42-11.81-9.39-13.21-8.03,1.11-11.07-.3-14.72-7.06-7.21-2.38-9.83-6.14-9.34-13.37-5.09-5.71-5.44-9.57-1.48-16.56-1.59-7.27.38-11.4,7-14.73,2-6.96,5.82-9.67,13.3-9.44,6-5.03,10.17-5.41,16.29-1.48,7.9-1.29,11.85.55,14.81,6.87,7.65,2.82,9.53,5.47,9.6,13.56,5.03,5.72,5.4,9.82,1.5,16.28,3.24,17.37-17.95,12.78-5.02,33.17.05-3.81,1.58-6.84,4.91-9.01.29-5.63,3.15-9.18,7.68-10.05,17.53-20.62,28.31-17.76,31.27,9.43,3.31,3.86,3.77,7.37,1,12.71,2.3,6.23-.12,10.82-5.52,14.08-.69,6.48-1.95,8.21-6.75,10.39-6.25,7.05-10.52,14.75-20.56,15.53-4.69,6.4-8.49,7.73-15.43,5.26-8.16,6.04-16.4,2.43-26.01.98-3.63,1.3-8.02.54-11.59-3.94-6.12.6-11.11-1.09-13.19-7.55-5.53-2.48-7.37-5.48-7.19-10.77-5.5-9.23-15.04-26.73,2.1-28.1,5.04.17,10.06.87,16.28,1.44,7.7-3.61,13.19,3.35,20.5,5.48l-.03.08Z" style="fill: #4a3726; stroke-width: 0px;"/>
  <path d="M52.43,16.07c6.13-7.76,11.22-5.58,9.41,4.49,8.8-4.31,11.79,1.6,5.8,8.33,2.79,1.56,7.23.02,7.62,4.58.38,4.48-4.21,3.85-6.51,5.79,1.35,2.67,6.25,3.73,4.07,7.88-1.95,3.71-5.48,1.21-8.7,1.52,4.4,10.37-2.44,12.42-8.73,4.14-.82,8.22-3.95,15.47-10.72,2.16-3.57,8.52-11.34,4.43-8.45-3.91-8.55,3.78-13.36-2.02-5.79-8.5-8.97-.64-10.94-7.95-1.37-10.09-7.8-6.98-5.37-11.22,4.72-9.54-4.47-7.83,2.08-12.51,8.11-5.93,1.68-2.74.21-7.25,4.69-7.62,4.45-.37,3.9,4.2,5.85,6.7Z" style="fill: #e5dd75; stroke-width: 0px;"/>
  <path d="M109.75,67.04c4.98,3.33,6.18,5.1.93,9.65,1.09,1.79,2.06,3.4,3.4,5.6-3.97,3.76-9.41,5.41-7.11,11.77-3.79,2.02-8.71,1.64-7.76,7.34-3.04,2.75-6.4,5.79-10.1,9.14-3.97-4.74-6.24-13.01-2.84-16.93-7.77-7.79,1.01-9.36-3.02-17.23-2.16-4.38,1.8-4.73,4.85-6.5-.94-5.56-.92-8.65,6.42-6.91.79-5.77,5.28-8.82,8.92-12.49,7.41-5.65,7.84,12.16,6.31,16.56Z" style="fill: #3f7b57; stroke-width: 0px;"/>
  <path d="M22.94,97.23c-4.39-.84-13.56-15.98-7.66-16.42,5.43.66,11.47-1.02,16.08,4.05,7.93-9.08,5.65,4.5,16.19.22,2.15,5.35,2.68,10.3,9.22,10.35v7.86c7.44,2.06,7,8.89,9.92,14.38-11.09,4.45-15.11-5.53-24.57-.55-2.64-5.64-6.94-5-13.18-4.79.32-12.28-11.68-2.58-6.01-15.11Z" style="fill: #3f7b57; stroke-width: 0px;"/>
  <path d="M56.63,68.02c10.45-13.72,17.82,34.14,23,41.17,1.36,4.8-.19,7.78-5.5,6.96-6.02-16.55-11.75-32.3-17.51-48.13Z" style="fill: #3f7b57; stroke-width: 0px;"/>
  <path d="M99.74,65.71c10.25,2.9-1.46,18.15-1.93,25.3-1.64,5.16-8.29,3.67-6.9-1.78,2.98-7.68,3.21-17.35,8.83-23.52Z" style="fill: #4a3726; stroke-width: 0px;"/>
  <path d="M52.67,104.38c.92,4.21-2.52,7.29-6.18,4.35-4.54-5.34-20.21-9.14-18.29-16.76,5.88-5.48,18.06,9.92,24.48,12.4Z" style="fill: #4a3726; stroke-width: 0px;"/>
</svg>