<?xml version="1.0" encoding="UTF-8"?>
<svg id="uuid-23dc3e50-e885-4d79-b5e5-ebbd5d81252c" data-name="fill_squarebalecotton" xmlns="http://www.w3.org/2000/svg" xmlns:xlink="http://www.w3.org/1999/xlink" viewBox="0 0 128 128">
  <defs>
    <linearGradient id="uuid-984b0d61-27fc-4ff8-8c8b-63fdb18329a1" x1="-859.24" y1="-612.21" x2="-649.24" y2="-611.81" gradientTransform="translate(444 370) scale(.5)" gradientUnits="userSpaceOnUse">
      <stop offset="0" stop-color="#cfd0d0"/>
      <stop offset="1" stop-color="#e8e8e9"/>
    </linearGradient>
  </defs>
  <path d="M84.91,27.13c5.66-.22,14.75,1.63,19.55,4.66,1.87,1.18,3.41,3.2,5.27,4.23,2.17,1.2,4.75,1.57,7.1,2.9.8.45,6.21,4.25,6.42,4.58.97,1.62-.33,4.86-.29,6.75.04,2.03.93,4.09.84,6.4-.07,1.91-.85,4.35-.82,6.08s.94,4.29.93,6.02c-.01,1.64-.87,3.92-.93,5.52-.09,2.61.58,5.98.54,9-.04,3.67.31,6.11.38,9.48.04,1.66-.82,4.07-.42,5.99-.06.51-.28.98-.69,1.31-1.62,1.28-8.97-.66-11.56-.58-4.36.13-8.24,1.33-13.01,1.06-2.48-.14-5.58-1.11-7.98-1.07-4.3.08-8.25,1.37-13.02,1.07-2.37-.15-5.18-1.11-7.48-1.07-3.17.06-7.35,1.49-10.55,1.5-1.88,0-4.53-.86-6.45-.96-10.87-.58-20.37,2.96-30.72-2.78-2.13-1.18-3.27-3.05-5.07-4.43-2.23-1.7-4.4-2.08-6.62-3.38-.71-.41-5.91-4.56-6.09-4.91-.63-1.22-.2-7.32-.24-9.26-.23-10.48-.25-21.05,0-31.5.13-5.39-1.18-10.72.47-16.03,1.44-.94,8.54.76,10.73.74,4.24-.04,8.34-1.22,13.07-.98,2.25.12,5.26,1,7.43.98,4.23-.03,8.34-1.26,13.07-.98,12.02.69,24.04.14,36.13-.34Z" style="fill: #0c0f10;"/>
  <path d="M30.5,91.5c2.2-5.64.95-5.34.96-10.75,0-9.22.65-18.26.05-27.5-.24-3.64.89-6.73-2.74-9.26-1.02-.71-2.52-.84-3.39-1.48-.7-.51-1.09-1.82-2.11-2.53s-2.52-.84-3.39-1.47c-.7-.51-1.09-1.83-2.11-2.53-2.12-1.45-3.54-2.61-5.48-4.02-.7-.51-1.83-.14-1.77-.97,5.81.7,11.47-1.43,17.24-1,1.92.14,4.01.9,5.98,1.02,4.84.28,9.13-1.38,14.02-1.02,2.11.16,4.25.93,6.48,1.02,3.49.14,6.69-.9,10-1.04,4.8-.2,9.07,1.4,14.02,1.02,6.63-.51,10.4-1.46,17.39.12,6.04,1.37,6.82,3.14,10.99,6.51,2.68,2.17,6.18,2.05,9.22,3.78.61.35,4.89,3.42,5.05,3.69.6,1.01-.41,3.34-.44,4.65-.28,12.98.36,27,.54,40,.04,2.58-.03,5.17,0,7.75-3.82.16-7.41-.78-11.27-.52-6.97.46-8.91.58-15.98.02-5.29-.42-9.9,1.29-15.02,1.02-3.76-.2-6.93-1.27-11-1.04-6.85.37-8.96.58-15.98.03-7.76-.61-12.51,1.75-21.25,0-1.42-.51-1.8-5.44,0-5.5Z" style="fill: url(#uuid-984b0d61-27fc-4ff8-8c8b-63fdb18329a1);"/>
  <path d="M30.5,97c-8.86-1.77-8.33-4.93-14.88-8.37-.89-.47-2.03-.55-2.96-1.04-.88-.46-5.25-3.7-5.69-4.3-1.16-1.57.04-3.34.08-5.04.3-12.76,0-27.75-.57-40.48-.08-1.87-.11-3.94.27-5.77.94,1.65,3.16,1.58,4.39,2.48.78.56,1.14,1.94,2.4,2.73,4.09,2.56,6.71,4.64,10.43,7.57.99.78,2.06.85,3.01,1.49,2.88,1.93,1.92,5.47,2.02,8.48.33,9.82.77,21.2.52,30.98-.04,1.63-1.93,5.36.98,5.77-.39,1.01.28,4.14,0,5.5Z" style="fill: #aeadad;"/>
  <path d="M113.45,47.95c-.83,1.24-7.79-.55-9.71-.49-2.54.07-5.34,1.11-8,1.07s-5.51-1.13-7.99-1.08c-2.7.05-5.58,1.14-8.52,1.07-2.41-.06-5.24-1.07-7.48-1.07-2.63,0-5.59,1.14-8.52,1.07-2.58-.06-5.51-1.12-7.98-1.07-2.9.05-5.83,1.22-9.02,1.06-1.48-.07-6.09-.7-7.39-1.11-1.58-.5-1.16-2.19.88-2.43,2.69-.32,6.79.62,10.02.52,18.86-.59,37.66.13,56.52-.52,1.62.63,9.31-.19,7.18,2.98Z" style="fill: #121415;"/>
</svg>