<?xml version="1.0" encoding="UTF-8"?>
<svg id="uuid-79e554af-90a2-44a8-8197-f5fc928808da" data-name="fill_bun" xmlns="http://www.w3.org/2000/svg" viewBox="0 0 128 128">
  <path d="M70.66,53.02c.1,8.16-2.26,15.36-9.07,20.29-7.82,5.67-16.51,8.27-26.12,5.2-6.26-2-10.65-6.49-14.05-11.87-6.5-10.28-10.71-21.45-11.81-33.61-1.49-16.4,7.65-25.78,22.21-28.93,11.31-2.44,19.76,2.27,26.16,11.31,5.31,7.49,8.61,15.93,10.84,24.76,1.06,4.18,1.97,12.82,1.83,12.85Z" style="fill: #4a3726; stroke-width: 0px;"/>
  <path d="M65.97,52.29c-.21,10.74-4.61,17.06-14.19,20.67-4.2,1.58-8.5,2.42-12.95,1.35-5.05-1.22-8.88-4.26-11.95-8.35-5.22-6.95-8.4-14.87-10.56-23.18-1.06-4.07-1.84-8.31-1.97-12.5-.29-9.52,4.35-16.12,13.21-19.67,4.42-1.77,8.97-2.77,13.72-1.68,5.13,1.18,9.06,4.21,12.08,8.43,6.34,8.85,10.03,18.8,11.97,29.45.37,2.05.49,4.15.65,5.49Z" style="fill: #a5805b; stroke-width: 0px;"/>
  <path d="M32.18,21.72c3.89.87,5.33,3.9,7.14,6.41,6.89,9.55,11.54,19.85,13.54,30.95.4,2.19-.65,3.38-3.75,4.27-3.97-.69-5.32-3.72-7.08-6.14-6.51-8.9-11.04-18.49-13.33-28.81-.93-4.2-.36-5.44,3.49-6.68Z" style="fill: #876f47; stroke-width: 0px;"/>
  <path d="M88.21,71.15c-7.11,4-14.56,5.37-22.15,1.76-8.72-4.15-15.17-10.52-17.08-20.43-1.24-6.45.59-12.46,3.68-18.02,5.91-10.63,13.7-19.68,23.84-26.47,13.68-9.17,26.29-5.64,36.03,5.63,7.56,8.75,7.47,18.43,2.61,28.38-4.03,8.25-9.86,15.19-16.54,21.38-3.16,2.93-10.31,7.88-10.4,7.77Z" style="fill: #4a3726; stroke-width: 0px;"/>
  <path d="M86.6,66.68c-9.53,4.97-17.19,4.13-24.94-2.55-3.4-2.93-6.2-6.3-7.39-10.72-1.34-5.01-.52-9.83,1.6-14.49,3.6-7.91,9.03-14.49,15.28-20.38,3.06-2.88,6.42-5.6,10.03-7.72,8.22-4.82,16.23-3.91,23.59,2.17,3.67,3.03,6.73,6.55,8.04,11.24,1.42,5.07.64,9.97-1.61,14.64-4.73,9.81-11.7,17.82-20.11,24.62-1.62,1.31-3.4,2.42-4.51,3.2Z" style="fill: #a5805b; stroke-width: 0px;"/>
  <path d="M97.24,22.38c1.1,3.83-.87,6.55-2.2,9.33-5.08,10.62-11.89,19.64-20.68,26.72-1.73,1.4-3.28,1.05-5.55-1.25-1.3-3.82.72-6.45,1.99-9.16,4.69-9.97,10.94-18.55,18.9-25.51,3.24-2.83,4.61-2.92,7.53-.14Z" style="fill: #876f47; stroke-width: 0px;"/>
  <path d="M103.49,95.71c.93,8.11-.7,15.51-6.97,21.1-7.21,6.43-15.58,9.9-25.45,7.82-6.43-1.36-11.25-5.37-15.18-10.38-7.5-9.57-12.82-20.26-15.16-32.24-3.14-16.16,5-26.42,19.17-31.03,11-3.58,19.89.26,27.17,8.6,6.04,6.92,10.17,14.98,13.29,23.54,1.48,4.05,3.26,12.56,3.12,12.6Z" style="fill: #4a3726; stroke-width: 0px;"/>
  <path d="M98.75,95.46c.88,10.71-2.86,17.44-12.02,22-4.01,2-8.21,3.27-12.74,2.65-5.14-.71-9.27-3.34-12.74-7.1-5.9-6.39-9.86-13.94-12.85-21.99-1.47-3.94-2.67-8.09-3.22-12.24-1.25-9.44,2.7-16.48,11.15-20.9,4.22-2.21,8.65-3.66,13.48-3.06,5.22.65,9.44,3.27,12.87,7.16,7.2,8.16,11.88,17.69,14.89,28.08.58,2,.91,4.07,1.2,5.4Z" style="fill: #a5805b; stroke-width: 0px;"/>
  <path d="M62.04,68.47c3.96.47,5.7,3.34,7.75,5.65,7.82,8.8,13.49,18.58,16.61,29.42.62,2.14-.3,3.43-3.3,4.63-4.02-.28-5.67-3.16-7.67-5.39-7.37-8.19-12.85-17.28-16.18-27.32-1.35-4.08-.91-5.38,2.79-7Z" style="fill: #876f47; stroke-width: 0px;"/>
</svg>