<?xml version="1.0" encoding="UTF-8"?>
<svg id="uuid-91f1119b-55b3-402d-a9ce-048ce550e750" data-name="fill_pomace" xmlns="http://www.w3.org/2000/svg" viewBox="0 0 128 128">
  <path d="M3.31,55.1c2.17-5.87,6.44-7.83,12.57-7.75,17.32.24,34.65.05,51.97.09,1.35,0,2.13-.41,2.88-1.51,6.43-9.39,12.94-18.74,19.36-28.14.43-.63.72-1.81.42-2.41-2.61-5.23-1.35-9.06,3.96-11.62.19-.09.34-.29.5-.44,1.27,0,2.53,0,3.8,0,6.28,3.65,12.59,7.25,18.83,10.96,3.06,1.82,4.33,5.37,3.42,8.87-.76,2.92-3.74,5.23-7.05,5.45-.77.05-1.54,0-2.33,0-2.98,6.28-5.91,12.47-9,18.99,4.36,0,8.31-.05,12.25.01,4.33.07,7.73,2.34,9.14,5.98,1.48,3.81.33,8.01-2.8,11.05-.75.73-1.39,1.92-1.47,2.94-.89,12.76-5.42,24.01-14.01,33.48-3.16,3.48-6.86,6.46-10.28,9.64.43,1.17,1.13,2.46,1.36,3.83.98,5.71-2.9,10.08-9.01,10.1-15.91.05-31.81.02-47.72.01-.55,0-1.11-.04-1.66-.1-3.47-.39-6.14-2.71-7.18-6.03-.92-2.96.04-5.55,1.47-8.06-15.21-10.77-23.4-25.33-24.65-43.79-.03-.49-.34-1-.63-1.42-1.36-1.97-2.77-3.92-4.16-5.87,0-1.42,0-2.85,0-4.27ZM13.67,67.3c-.05.46-.13.77-.1,1.06,1.59,16.37,9.26,29.14,22.87,38.33.72.49,1.76.69,2.65.69,16.69.04,33.39.04,50.08-.01,1.03,0,2.19-.37,3.05-.94,9.21-6.04,15.82-14.23,19.71-24.54,1.76-4.65,2.86-9.47,3-14.59H13.67ZM64.21,52.47c-9.89,0-19.78,0-29.68,0-7.12,0-14.25-.03-21.37.09-2.98.05-4.65,1.84-4.72,4.55-.07,2.77,1.7,4.7,4.64,4.96,1.1.1,2.21.07,3.32.07,22,0,44,0,66.01,0,10.53,0,21.05,0,31.58,0,2.15,0,4.38-.28,5.28-2.4.58-1.36.64-3.28.16-4.67-.77-2.21-2.95-2.61-5.13-2.61-16.7,0-33.4,0-50.09,0ZM95.55,19.3c-6.35,9.35-12.66,18.63-19,27.96.41.2.54.33.68.33,4.42.02,8.89-.35,13.25.14,5.12.58,7.98-1.01,9.75-6.04,1.86-5.31,4.7-10.27,7.18-15.52-4-2.32-7.82-4.52-11.86-6.86ZM63.88,119.81h0c8,.01,15.99,0,23.99.02,2.13,0,3.78-.69,4.26-2.93.52-2.42-1.23-4.13-4.17-4.14-6.73-.02-13.45-.01-20.18-.02-9.02,0-18.05-.08-27.07.09-1.36.02-3.2.84-3.94,1.9-1.6,2.3.31,5.05,3.36,5.06,7.92.05,15.83.02,23.75.02ZM113.91,23.7c.75-.7,1.86-1.3,2.26-2.21.68-1.53-.24-2.71-1.62-3.48-5.37-2.99-10.75-5.95-16.12-8.95-1.53-.86-2.99-.88-3.87.74-.91,1.66-.22,2.99,1.41,3.92,5.2,2.97,10.37,5.99,15.56,8.97.6.34,1.28.56,2.37,1.02Z" style="fill: #4a3726; stroke-width: 0px;"/>
  <path d="M13.67,67.3h101.26c-.14,5.12-1.24,9.94-3,14.59-3.89,10.31-10.5,18.5-19.71,24.54-.86.56-2.03.93-3.05.94-16.69.06-33.39.05-50.08.01-.89,0-1.93-.21-2.65-.69-13.61-9.19-21.28-21.95-22.87-38.33-.03-.3.05-.6.1-1.06Z" style="fill: #aeaeae; stroke-width: 0px;"/>
  <path d="M64.21,52.47c16.7,0,33.4,0,50.09,0,2.18,0,4.36.4,5.13,2.61.49,1.4.42,3.31-.16,4.67-.9,2.12-3.14,2.4-5.28,2.4-10.53,0-21.05,0-31.58,0-22,0-44,0-66.01,0-1.11,0-2.22.03-3.32-.07-2.94-.26-4.71-2.19-4.64-4.96.07-2.71,1.74-4.5,4.72-4.55,7.12-.12,14.24-.08,21.37-.09,9.89-.01,19.78,0,29.68,0Z" style="fill: #aeaeae; stroke-width: 0px;"/>
  <path d="M95.55,19.3c4.05,2.34,7.86,4.54,11.86,6.86-2.48,5.26-5.32,10.22-7.18,15.52-1.76,5.03-4.63,6.62-9.75,6.04-4.37-.49-8.83-.12-13.25-.14-.13,0-.27-.12-.68-.33,6.34-9.32,12.65-18.61,19-27.96Z" style="fill: #7f827e; stroke-width: 0px;"/>
  <path d="M63.88,119.81c-7.92,0-15.83.03-23.75-.02-3.06-.02-4.97-2.76-3.36-5.06.74-1.06,2.58-1.87,3.94-1.9,9.02-.17,18.04-.09,27.07-.09,6.73,0,13.45,0,20.18.02,2.94,0,4.69,1.72,4.17,4.14-.48,2.24-2.14,2.93-4.26,2.93-8-.02-15.99,0-23.99,0h0Z" style="fill: #aeaeae; stroke-width: 0px;"/>
  <path d="M113.91,23.7c-1.1-.47-1.77-.68-2.37-1.02-5.19-2.98-10.37-6-15.56-8.97-1.63-.93-2.32-2.26-1.41-3.92.89-1.62,2.34-1.59,3.87-.74,5.36,3,10.75,5.97,16.12,8.95,1.38.77,2.3,1.95,1.62,3.48-.41.91-1.52,1.51-2.26,2.21Z" style="fill: #7f827e; stroke-width: 0px;"/>
  <g>
    <path d="M66.53,106.56c-5.74.33-9.13-3.48-9.54-8.04-8.59,1.04-13.19-10.13-5.71-15.43-3.15-6.56-1.36-11.31,5.15-13.5-.31-.78-.63-1.55-.96-2.37-4.11.47-8.56,3.07-12.52.95-4.37-2.65-2.86-9.63,2.22-10.22,7.7-1.07,14.78-3.75,21.3-7.98,2.24-1.46,4.88-1.29,6.81.32,5.86,5.64-2.52,10.65-7.37,12.84.28.84.56,1.68.84,2.5,6.78-.93,10.3,1.4,11.45,7.59,8.69-1.04,13.09,10.82,5.62,15.56,2.83,4.73,2.24,8.19-2.11,12.35,7.81,12.37-13.31,19.98-15.17,5.42Z" style="fill: #4a3726; stroke-width: 0px;"/>
    <path d="M57.73,62.67c-4.36.76-9.18,3.43-13.43,2.11-.4-2.37.07-3.05,2.24-3.35,7.62-.87,14.53-4.16,21.1-7.92,1.85-1.02,2.56-1.05,3.7.31.79,3.53-7.53,5.33-9.9,7.36-.05,2.5,2.84,4.6.91,7.19-3.73.99-3.24-3.3-4.63-5.7Z" style="fill: #6f5b47; stroke-width: 0px;"/>
    <path d="M58.02,82.62c-6.09-.01-6.1-9.5.02-9.42,6.2.12,6.08,9.3-.02,9.42Z" style="fill: #5f679e; stroke-width: 0px;"/>
    <path d="M60.52,90.23c-.12,6.33-9.36,6.01-9.41-.15.08-5.95,9.61-5.96,9.41.15Z" style="fill: #5f679e; stroke-width: 0px;"/>
    <path d="M79.36,86.37c-6.2.1-6.17-9.56,0-9.44,6.07.22,6.05,9.25,0,9.44Z" style="fill: #5f679e; stroke-width: 0px;"/>
    <path d="M72.28,85.89c-.13,6.23-9.25,6.14-9.44.04,0-6.08,9.51-6.12,9.44-.04Z" style="fill: #5f679e; stroke-width: 0px;"/>
    <path d="M75.11,101.6c6.07.03,5.96,9.46-.27,9.25-6.07,0-5.92-9.56.27-9.25Z" style="fill: #5f679e; stroke-width: 0px;"/>
    <path d="M70.03,98.35c.13,6.07-9.64,5.97-9.27-.27-.07-5.97,9.68-5.98,9.27.27Z" style="fill: #5f679e; stroke-width: 0px;"/>
    <path d="M77.09,98.5c-6.12.31-5.84-9.42-.04-9.24,6.13-.26,6.26,9.71.04,9.24Z" style="fill: #5f679e; stroke-width: 0px;"/>
    <path d="M74.35,73.6c.19,6.14-9.32,6.17-9.28.07-.16-6.37,9.68-5.95,9.28-.07Z" style="fill: #5f679e; stroke-width: 0px;"/>
  </g>
</svg>