<?xml version="1.0" encoding="UTF-8"?>
<svg id="uuid-5992d97f-4225-40f6-9aaa-303372e66f4d" data-name="fill_bucket" xmlns="http://www.w3.org/2000/svg" viewBox="0 0 128 128">
  <path d="M24.46,97.72c-12.92-3.58-20.34-14.43-20.65-27.35-.25-10.42,2.2-20.17,6.23-29.55,1.5-3.49,4.36-6.38,7.19-10.38,0-1.6-.45-4.64.1-7.49,1.01-5.34,4.84-8.77,9.34-11.36,7.21-4.16,15.12-6.47,23.33-7.13,10.19-.83,20.46-1.59,30.65-1.23,11.74.42,23.46,2.27,33.82,8.4,7.56,4.48,11.14,9.64,9.21,19.9-1.29,6.83-1.38,13.87-2.16,20.8-.65,5.77-1.54,11.52-2.66,19.81.7,3.25.18,8.97-2.37,14.77,1.19,16.8.2,27.83-20.22,34.37-12.15,3.89-24.72,4.31-37.3,2.66-5.35-.7-10.82-1.56-15.86-3.4-10.6-3.87-17.72-8.1-18.65-22.83Z" style="fill: #4a3726; stroke-width: 0px;"/>
  <path d="M68.96,40.84c-12.01-.72-23.93-1.48-35.16-6.26-4.63-1.97-7.16-4.51-8.4-8.49,1.2-5.27,5.59-7.35,10.01-9.09,7.47-2.93,15.28-4.51,23.31-4.83,6.14-.25,12.32-.9,18.43-.52,10.97.67,21.95,1.83,31.96,7.01,3.11,1.61,6.41,3.63,6.43,7.47.02,3.86-3.18,6.19-6.41,7.43-6.38,2.44-12.97,4.36-18.95,6.32-9.15-7.67-14.19-7.33-21.23.97Z" style="fill: #7b5b3b; stroke-width: 0px;"/>
  <path d="M17.51,45.53c1.56,7.86,1.44,14.6.55,21.5-1.45,11.14,6.43,20.2,18.89,15.66,8.98-3.27,15.87-9.66,22.11-16.57,6.29-6.97,12.05-14.42,18.01-21.69,1.25-1.52,2.84-2.6,4.31-1,.77.83.95,3.22.31,4.18-8.98,13.34-19.15,25.66-32.42,35.01-5.22,3.68-10.78,6.86-17.5,6.95-10.58.14-18.41-6.8-19.33-17.38-.78-9.03,1.51-17.52,5.08-26.66Z" style="fill: #7f827e; stroke-width: 0px;"/>
  <path d="M56.89,87.53c3.3-2.76,5.86-4.9,8.51-7.11,15.14.22,30.14-.94,45.01-6.43-.18,1.4-.35,2.49-.47,3.59-.11,1.07-.17,2.14-.29,3.7-16.68,6.92-34.12,7.74-52.76,6.25Z" style="fill: #7f827e; stroke-width: 0px;"/>
  <path d="M27.16,41.13c5.19,1.82,9.96,3.5,15.11,5.31.41,7.19.82,14.57,1.3,23.04-4.97-1.79-9.24-3.33-13.78-4.97-.9-7.96-1.76-15.59-2.63-23.38Z" style="fill: #a5805b; stroke-width: 0px;"/>
  <path d="M113.98,41.1c-.81,7.56-1.6,14.91-2.48,23.14-4.19,1.61-8.67,3.32-13.73,5.27.41-8.37.76-15.67,1.11-23.01,4.94-1.76,9.78-3.49,15.1-5.39Z" style="fill: #a5805b; stroke-width: 0px;"/>
  <path d="M74.38,96.65c4.86-.41,9.53-.8,14.58-1.22-.29,6.45-.57,12.62-.86,19.2-4.63.58-9.04,1.13-13.72,1.71v-19.69Z" style="fill: #a5805b; stroke-width: 0px;"/>
  <path d="M66.76,96.64v19.66c-4.49-.54-8.79-1.06-13.51-1.63-.32-6.41-.62-12.61-.95-19.2,4.76.39,9.42.76,14.46,1.17Z" style="fill: #a5805b; stroke-width: 0px;"/>
  <path d="M95.59,111.94c.28-5.84.56-11.6.85-17.61,3.91-1.11,7.8-2.21,11.72-3.32,1.41,11.29-3.03,18.76-12.57,20.93Z" style="fill: #a5805b; stroke-width: 0px;"/>
  <path d="M90.92,49.51c0,3.3.11,6.86-.03,10.41-.13,3.42-.52,6.84-.84,10.79-5.24.49-10.53.98-16.31,1.52,6.01-7.94,11.67-15.43,17.18-22.72Z" style="fill: #a5805b; stroke-width: 0px;"/>
  <path d="M44.71,95.16c.33,5.78.64,11.12.95,16.5-7.18-.69-12.22-6.48-11.71-13.5,3.34-.93,6.79-1.89,10.76-3Z" style="fill: #a5805b; stroke-width: 0px;"/>
  <path d="M50.56,61.71c-.21-4.47-.43-8.95-.66-13.9,4.41.37,8.31.69,13.47,1.12-4.36,4.84-8.13,9.02-11.89,13.2l-.92-.42Z" style="fill: #a5805b; stroke-width: 0px;"/>
  <path d="M31.08,74.14c.55.18,1.09.36,1.64.54-.03.2-.06.4-.09.6-.61-.05-1.21-.1-1.82-.16.09-.33.18-.66.27-.99Z" style="fill: #7f827e; stroke-width: 0px;"/>
</svg>