<?xml version="1.0" encoding="UTF-8"?>
<svg id="uuid-e8d1c02f-6637-41b3-8fce-ffd44671bbfa" data-name="fill_pictureframe" xmlns="http://www.w3.org/2000/svg" xmlns:xlink="http://www.w3.org/1999/xlink" viewBox="0 0 128 128">
  <defs>
    <linearGradient id="uuid-86596552-b4da-4966-b4a6-a3486d84ccc8" x1="-909.16" y1="-1089.91" x2="-909.25" y2="-967.91" gradientTransform="translate(518 592) scale(.5)" gradientUnits="userSpaceOnUse">
      <stop offset="0" stop-color="#d2a775"/>
      <stop offset="1" stop-color="#a97636"/>
    </linearGradient>
    <linearGradient id="uuid-4ddb7a07-98d6-42fd-99f1-a90408984ec6" x1="-909.03" y1="-1048.07" x2="-908.99" y2="-987.07" gradientTransform="translate(518 592) scale(.5)" gradientUnits="userSpaceOnUse">
      <stop offset="0" stop-color="#84c494"/>
      <stop offset="1" stop-color="#219e38"/>
    </linearGradient>
    <linearGradient id="uuid-73a72dfc-7f4e-4b14-9c83-7f905c96c1f6" x1="-909.53" y1="-1069.26" x2="-909.44" y2="-1026.26" gradientTransform="translate(518 592) scale(.5)" gradientUnits="userSpaceOnUse">
      <stop offset="0" stop-color="#28ace3"/>
      <stop offset="1" stop-color="#74ccf3"/>
    </linearGradient>
  </defs>
  <path d="M116.5,46v64c-.3,2.03-1.62,3.16-3.73,3.02H13.73c-1.19-.08-2.71-.07-3.01-1.48l.03-67.05c1.11-2.26,9.73-.03,12.04-1.46L63.77,8.47l1.5.5,38.54,33.96c3.45,1.89,11.83-1.66,12.69,3.06ZM99.5,43.5L63.77,11.97l-36.77,31.53h72.5Z" style="fill: #090b0b;"/>
  <polygon points="113.5 46.5 113.5 110 13.25 110.13 13.46 46.25 113.5 46.5" style="fill: url(#uuid-86596552-b4da-4966-b4a6-a3486d84ccc8);"/>
  <path d="M106,56c.06,8.68.06,37.32,0,45-.78,1.46-2.09,2.08-3.73,2.02H24.23c-2.16.1-3.68-1.06-3.74-3.26.06-14.27.13-28.77-.01-42.53-.03-2.56.96-3.74,3.75-3.75h79.05c1.73.05,2.2,1.11,2.72,2.52Z" style="fill: #101614;"/>
  <path d="M17,50.5v24.5c-1.12.74-2.29.79-2.5-.75.62-7.12-.83-15.58-.02-22.52.2-1.69,1.08-2.49,2.52-1.23Z" style="fill: #fbd7a8;"/>
  <path d="M103.5,84v16H23.5v-23.25c4.63-2.55,9.72-7.47,14.33-9.67.62-.29,1.14-.72,1.89-.59l25.15,17.43c7.13-2.53,13.7-6.96,20.8-9.81l17.83,9.89Z" style="fill: url(#uuid-4ddb7a07-98d6-42fd-99f1-a90408984ec6);"/>
  <path d="M103,56.5v24c-5.99-2.38-11.06-7.01-17.26-9.03-7.15,1.87-13.42,6.85-20.41,9.44l-25.11-17.41-2.59.4c-4.1,2.52-8.27,6.31-12.49,8.5-.56.29-.88.78-1.65.6v-16.5h79.5Z" style="fill: url(#uuid-73a72dfc-7f4e-4b14-9c83-7f905c96c1f6);"/>
  <path d="M84.5,77l-.08,2.43c-3.87,1.04-7.79,4.77-11.41,5.85-2.03.61-2.71-.93-1.28-2.3.71-.68,9.14-5.13,10.41-5.59.8-.29,1.48-.53,2.36-.39Z" style="fill: #bfdfc4;"/>
  <path d="M36.85,70.57c2.17-.43,1.98,1.59.4,2.93-.85.72-8.41,5.51-9.23,5.78-1.97.65-2.73-.88-1.28-2.3.66-.65,9.53-6.3,10.11-6.42Z" style="fill: #bfdfc4;"/>
</svg>