<?xml version="1.0" encoding="UTF-8"?>
<svg id="fill_baletwine" xmlns="http://www.w3.org/2000/svg" viewBox="0 0 128 128">
  <path d="M116.05,62.9c0,12.5-.12,24.99.05,37.49.12,8.69-3.73,14.75-11.28,18.71-6.98,3.66-14.58,5.13-22.29,5.85-15.78,1.48-31.6,1.75-47.15-1.74-5.23-1.17-10.4-3.36-15.08-6-5.77-3.26-8.39-8.83-8.37-15.57.05-24.17.2-48.33,0-72.5-.06-7.2,2.89-12.5,8.18-16.82,6.52-5.31,14.27-7.98,22.41-8.94,18.88-2.23,37.75-2.12,56.11,3.53,4.69,1.44,9.07,4.3,13.16,7.13,3.16,2.18,4.33,5.83,4.3,9.82-.08,13.01-.03,26.02-.03,39.04Z" style="fill: #4a3726; stroke-width: 0px;"/>
  <path d="M20.08,94.81c0-19.83,0-39.66,0-59.49,1.06-1.4,2.43-1.34,3.89-.83,13.49,4.72,27.43,6.55,41.65,6.07,12.58-.43,25.03-1.95,37.1-5.84,1.68-.54,3.4-1.67,5.32-.65.13,8.33.33,16.65.37,24.98.04,10.91-.05,21.82-.1,32.73,0,1.02-.2,2.03-.3,3.05-2.4,2.33-5.59,3.09-8.58,4.04-12.44,3.97-25.15,6.53-38.29,6.13-13.21-.41-25.91-3.44-38.33-7.8-1.25-.44-2.1-1.25-2.72-2.37Z" style="fill: #f4f8f4; stroke-width: 0px;"/>
  <path d="M108.04,34.06c-10.02,3.52-20.37,5.84-30.9,6.65-8.68.67-17.45.3-26.18.14-8.91-.16-17.46-2.42-25.94-4.95-1.56-.47-3.29-.4-4.93-.58-.03-2.89-.34-5.8-.03-8.65.57-5.4,4.53-8.31,8.83-10.71,7.19-3.99,15.11-5.29,23.17-5.73,15.41-.85,30.68-.13,45.54,4.57,1.27.4,2.54.86,3.74,1.44,4.46,2.16,7.73,5.01,6.8,10.72-.38,2.31-.08,4.73-.09,7.1Z" style="fill: #d6d6d5; stroke-width: 0px;"/>
  <path d="M20.08,94.81c6.9,2.22,13.68,5.05,20.74,6.48,7.89,1.6,16.04,2.59,24.09,2.69,13.57.16,26.66-2.98,39.31-7.86,1.24-.48,2.52-.87,3.78-1.3.02,1.75-.07,3.52.09,5.25.57,6.12-2.32,10.35-7.76,12.31-5.47,1.97-11.2,3.67-16.95,4.36-16.03,1.93-32.11,2.01-47.96-1.61-3.64-.83-7.16-2.54-10.49-4.3-3.54-1.87-5.21-5.14-5.06-9.23.08-2.27.14-4.53.21-6.8Z" style="fill: #d6d6d5; stroke-width: 0px;"/>
  <path d="M52.53,97.86c-5.19,1.93-10.8-.06-14.42-5.63-4.74-7.28-5.26-15.48-4.78-23.82.31-5.4,1.51-10.61,4.41-15.27,4.13-6.62,10.38-8.84,16.78-6.34,1.63-.32,2.9-.8,4.17-.79,7.2.03,14.4.07,21.6.3,4.65.15,8.27,2.23,10.47,6.51,6.18,12.01,6.11,24.38,1.83,36.84-2.12,6.16-6.65,9.41-13.4,9.34-7.32-.08-14.65.05-21.97-.03-1.35-.02-2.69-.62-4.68-1.11Z" style="fill: #4a3726; stroke-width: 0px;"/>
  <path d="M90.36,18.1c-1.33.78-2.59,2-4.02,2.27-4.24.81-8.54,1.74-12.82,1.72-9.78-.06-19.56-.56-29.32-1.12-2.45-.14-5.16-.63-6.35-3.45.92-3.13,3.53-3.54,5.91-3.84,5-.64,10.06-1.46,15.07-1.33,9.04.24,18.08,1.02,27.1,1.83,1.56.14,3.01,1.54,4.5,2.35-.03.52-.05,1.05-.08,1.57Z" style="fill: #4a3726; stroke-width: 0px;"/>
  <path d="M49.69,93.67c-6.87-1.4-8.95-6.21-10.1-11.31-1.72-7.64-1.9-15.39,1-22.85.87-2.24,2.26-4.47,3.95-6.16,3.61-3.6,8.82-3.19,11.29,1.28,2.08,3.78,3.42,8.15,4.25,12.42,1.56,8.04.07,15.63-5.34,22.05-1.49,1.77-3.44,3.14-5.05,4.57Z" style="fill: #96a775; stroke-width: 0px;"/>
  <path d="M77.21,53.72c3.41,3.69,5.28,8.16,5.81,13.03.78,7.12.36,14.24-2.36,20.98-.88,2.17-2.49,4.05-4.3,5.84,5.33-13.24,6.15-26.35.56-39.56.1-.09.19-.19.29-.28Z" style="fill: #96a775; stroke-width: 0px;"/>
  <path d="M67.71,52.07c1.12.94,2.6,1.66,3.3,2.84,4.93,8.35,5.38,17.35,3.27,26.57-.68,2.98-1.83,5.89-3.04,8.71-.56,1.31-1.77,2.33-3.06,3.32,7.43-14.01,6.08-27.77-.44-41.48l-.03.03Z" style="fill: #96a775; stroke-width: 0px;"/>
  <path d="M62.77,55.14c.42.41,1.02.75,1.22,1.25,4.37,10.68,5.81,21.42.31,32.17-1.14,2.23-2.48,4.5-5.65,5.05,1.75-3.24,3.61-6.12,4.94-9.23,3.59-8.39,2.5-16.91.18-25.39-.35-1.28-.67-2.57-1.01-3.85h0Z" style="fill: #96a775; stroke-width: 0px;"/>
  <path d="M85.67,90.45c1.01-5.85,2.43-11.66,2.91-17.55.53-6.43-.87-12.69-4.26-18.35-.18-.3-.2-.69.13-1.29.42.47.96.89,1.25,1.43,5.85,10.73,5.65,21.84,1.93,33.12-.33,1-1.26,1.8-1.91,2.69l-.06-.05Z" style="fill: #96a775; stroke-width: 0px;"/>
  <path d="M47.4,70.46c-3.42,5.23-2.18,11.18,2.48,12.65,3.22-3.86,3.49-8.58,3.53-13.44.05-5.77-3.27-8.78-8.15-10.22-.65-3.62.61-4.91,3.67-4.06,5.64,1.56,8.6,5.63,9.33,11.14.68,5.12.41,10.28-1.53,15.22-1.67,4.25-4,6.28-7.49,6.33-3.83.06-6.8-1.93-8.13-6.3-1.44-4.72-1.39-9.56.84-14.16,1.29-2.66,3.49-3.83,6.34-3.22,2.67.57,3.91,2.61,3.96,5.21.04,2.04.1,4.21-.56,6.07-.36,1.02-2.2,1.51-3.37,2.24-.53-1.21-1.34-2.37-1.5-3.63-.16-1.24.35-2.56.56-3.85Z" style="fill: #4a3726; stroke-width: 0px;"/>
</svg>