<?xml version="1.0" encoding="UTF-8"?>
<svg id="uuid-45d83ec3-4b99-46f7-93cf-c66f0a38b4a4" data-name="fill_wool" xmlns="http://www.w3.org/2000/svg" viewBox="0 0 128 128">
  <path d="M123.35,64.04c-1.29,77.81-117.01,77.74-118.7.38.05-78.25,118.39-78.5,118.7-.38Z" style="fill: #4a3726; stroke-width: 0px;"/>
  <path d="M64.3,13.1c66.35,1.72,66.35,100.21-.46,101.54C-2.61,113.3-2.78,14.05,64.3,13.1Z" style="fill: #beb696; stroke-width: 0px;"/>
  <path d="M29.7,91c12.29-27.36,32.55-46.33,60.92-56.59,6.47-3.88,12.78,4.52,4.67,7.44-25.09,7.75-46.1,26.6-56.89,50.49-1.58,5.16-8.88,4.31-8.7-1.34Z" style="fill: #4a3726; stroke-width: 0px;"/>
  <path d="M28.24,81.45c-4.74-.89-7.15-3.33-4.95-7.84,11.44-21.53,28.29-37.42,50.47-47.62,5.92-4.42,12.35,3.31,5.26,6.9-22.35,10.11-39.76,26.52-50.78,48.56Z" style="fill: #4a3726; stroke-width: 0px;"/>
  <path d="M17.84,55.83c8.9-15.83,22.63-27.37,37.9-36.74,5.46-3.69,10.36,3.94,4.47,7.15-13.6,7.88-24.78,18.35-33.97,31.08-2.79,3.1-6.22,2.17-8.4-1.5Z" style="fill: #4a3726; stroke-width: 0px;"/>
  <path d="M38.82,100.75c1.76-1.92,3.03-3.32,4.2-4.59,12.53,4.07,24.96,5.42,37.53,1.23,6.8-2.9,10.03,6,2.9,7.97-14.43,3.84-32.85,6.36-44.62-4.61Z" style="fill: #4a3726; stroke-width: 0px;"/>
  <path d="M90.86,96.6c-4.57-11.91-11.12-19.8-18.72-29.34-2.2-2.76-2.64-4.79-.61-6.73,8.7-5.82,22.95,23.02,25.5,29.99,1.27,4.36-2.31,6-6.16,6.08Z" style="fill: #4a3726; stroke-width: 0px;"/>
  <path d="M64.05,94.81c-5.45-2.15-17.25.11-16.63-7.84.72-3.07,3.24-3.53,5.88-2.78,7.08,2.02,14.1,2.08,21.18-.02,2.41-.71,4.54.1,5.38,2.7,1.38,7.78-11.11,5.85-15.81,7.93Z" style="fill: #4a3726; stroke-width: 0px;"/>
  <path d="M106.49,77.54c-1.67,3.1-5.87,3.87-7.98,1-3.45-7.28-7.91-13.78-13.37-19.67-1.5-1.62-1.57-3.68.22-5.44,6.78-6.76,20.04,18.4,21.14,24.11Z" style="fill: #4a3726; stroke-width: 0px;"/>
  <path d="M96.35,49.34c2.08-4.75,5.36-5.56,8.19-1.87,1.98,4.07,10.81,12.51,4.38,15.71-7.4,1.17-8.66-9.33-12.57-13.85Z" style="fill: #4a3726; stroke-width: 0px;"/>
  <path d="M72.6,76.77c-3.94,4.17-18.31,5.79-17.66-2.35,2.37-5.18,9.49-2.95,14.05-3.16,3.13.23,3.92,2.54,3.61,5.51Z" style="fill: #4a3726; stroke-width: 0px;"/>
</svg>