<?xml version="1.0" encoding="UTF-8"?>
<svg id="uuid-3469a2db-a3c1-4a35-b572-27e67754a8e2" data-name="fill_floortiles" xmlns="http://www.w3.org/2000/svg" xmlns:xlink="http://www.w3.org/1999/xlink" viewBox="0 0 128 128">
  <defs>
    <linearGradient id="uuid-9d9d9a21-c0fd-4e70-9e78-e6627ef849db" x1="-132.66" y1="-1092.59" x2="-131.33" y2="-956.6" gradientTransform="translate(148 592) scale(.5)" gradientUnits="userSpaceOnUse">
      <stop offset="0" stop-color="#d4a978"/>
      <stop offset="1" stop-color="#a77533"/>
    </linearGradient>
  </defs>
  <path d="M97.43,41.57c8.44,17.59,17.21,35.01,25.63,52.62.73,1.52,3.58,5.45,3.23,6.81-.13.52-3.07,6.85-3.35,7.19-.24.29-.41.59-.8.7l-57.8,17.54-19.89-42.38c-1.45-1.24-11.29,4-13.89,2.88-3.65-8.24-7.21-16.58-10.97-24.78C14.24,50.5,7.58,38.13,2.91,26.34c-.38-.97-.92-1.87-.81-2.97.12-1.29,3.03-7.8,4.27-8.25L63.77,2.19l21.21,41.61,12.45-2.23Z" style="fill: #0d0d0d;"/>
  <path d="M95.94,44.55l26.54,55.43-42.17,12.56-10.87-23.97c-1.03-.28-2.41-.14-2.44,1.15.63,3.14,10.76,22.25,10.48,23.5-.15.68-8.81,3.28-9.45,2.74l-26.54-59.45,29.43-5.93,14.62,32.37,2.45.05c.07-.87.01-1.67-.24-2.52-2.2-7.44-8.92-18.56-12.36-26.14-.29-.64-2.06-4.62-1.91-4.83l22.44-4.95Z" style="fill: url(#uuid-9d9d9a21-c0fd-4e70-9e78-e6627ef849db);"/>
  <path d="M62.97,5.01c5.66,12.79,12.49,25.06,18.64,37.63l.39,2.36-26.44,5.43-11.12-24.87-1.97.16-.39,1.4,10.92,24.37c-2.46.71-13.48,2.24-14.75,3.5-.74.74-3.33,7.16-3.29,8.24.08,1.91,6.07,12.06,5.04,12.76l-4.49,1L8.5,17.51l10.5-2.29c1.7,2.06,8.17,19.15,9.24,19.19.68.02,2.14-1.13,1.68-2.03-1.94-5.63-5.82-11.29-7.71-16.85-.22-.64-.38-.83.28-1.28L62.97,5.01Z" style="fill: #9f7544;"/>
  <path d="M31.99,82.5c-.67.15-.54-.5-.76-.97C22.21,62.88,14.41,43.59,5.23,25.01c-.87-1.85.77-3.2.78-5.01.74.05.76.78,1,1.24,9.4,18.09,16.39,37.62,25.74,55.78,1.26,2.01-.3,3.52-.75,5.48Z" style="fill: #9f7544;"/>
  <path d="M64.98,121.6c-.48.14-1.05-.82-1.51-1.68-6.51-13.18-11.49-27.41-18.4-40.39-2.31-5.11-4.57-10.27-6.94-15.34-.55-1.15-.58-2.35.01-3.53.52-1.15,1.11-1.51,1.72-.19,8.49,18.61,17,37.2,25.53,55.8.81,1.56,1.04,4.08-.32,5.3l-.09.03Z" style="fill: #9f7544;"/>
  <path d="M122.42,103.15c.12,1.61-1.3,3.5-2.96,3.89-4.8,1.38-9.5,3.04-14.27,4.52-12.21,3.53-24.48,7.48-36.66,11.21-1.86.68-.79-.98-.45-2.29.09-.24.2-.52.33-.75.33-.59.83-.81,1.5-1,8.36-2.36,16.64-5.11,24.95-7.67,8.76-1.7,17.19-6.11,25.91-7.99.7-.15,1.39-.27,1.6.01l.05.08Z" style="fill: #9f7544;"/>
  <path d="M41.93,78.57c.3.2.77,2.67.55,2.92l-7.99,2.01c-.18-.17,1.15-3.46,1.5-3.74.72-.59,5.19-1.69,5.93-1.19Z" style="fill: #9f7544;"/>
  <path d="M98.76,70c.72-.19,1.38.11,1.68.81l10.1,20.43c-2.53,4.02-3.64-1.86-4.61-3.92-2.03-4.34-6.47-11.19-7.71-15.31-.22-.75-.34-1.78.53-2.01Z" style="fill: #0d0d0d;"/>
  <path d="M57,79c-.68-.08-1.55.16-2.17.02-.95-.22-6.17-15.83-7.74-17.89-.44-2.17,1.27-3.13,2.52-.99,1.93,3.31,5.53,11.97,6.78,15.72.35,1.04.76,2,.61,3.13Z" style="fill: #fad5a6;"/>
  <path d="M15.95,22.06l10.34,21.92c.63,1.76-1.95,2.16-2.73.71l-9.84-20.68c-.75-1.75.7-2.33,2.23-1.95Z" style="fill: #c0925a;"/>
  <path d="M64.38,33.88c-.24.25-1.03.58-1.4.4-.5-.38-.76-.92-1.08-1.43-1.4-2.19-7.53-15.04-8.17-17.33-.29-1.02-.3-1.98-.23-3.02.68,0,1.38-.13,2.01.24,1.72,1.03,7.18,16.66,9.28,19.25.2.6.02,1.44-.4,1.88Z" style="fill: #0d0d0d;"/>
</svg>