<?xml version="1.0" encoding="UTF-8"?>
<svg id="uuid-b7058186-7a56-43c8-8945-803edb5b42c6" data-name="fill_sugarbeetcut" xmlns="http://www.w3.org/2000/svg" viewBox="0 0 128 128">
  <path d="M69.37,99.51c-1.22-3.36-.82-6.57.55-9.86,3.6-8.7,7.02-17.47,10.5-26.21.33-.83.57-1.69.78-2.33-3.18-.44-6.22-.86-9.63-1.33-.09,4.69-.87,9.51-6.16,11.9-5.12,2.32-9.38-.39-14.09-2.63.49,5.79.63,11.34,1.47,16.79,2.01,12.97-3.68,17.01-15.7,17.72-12.51.74-21.6-5.14-26.76-16.35-5.18-11.24-6.92-23.06-1.78-34.83,4.19-9.59,12.06-14.67,22.41-15.82,2.17-.24,4.39-.12,6.58-.04,7.2.27,10,2.39,12.34,9.4,3.26-5.03,7.7-6.72,13.28-4.94v-11.94c-.1-.18-.08-.34.05-.49,0,0-.05-.24-.05-.24,0,0-.1.23-.1.23,0,0-.25.07-.25.07l-.18-.18c-7.38,3.74-14.02.74-16.17-7.45-1.66-6.31-.1-11.87,4.94-16.05,4.65-3.86,10.03-4.27,15.44-1.72,7.64,3.6,9.27,10.7,4.31,17.91l.02.06c5.38.03,10.8-.36,16.13.19,9.68.98,14.65,11.24,9.89,19.79-1.81,3.26-3.68,6.48-5.52,9.72,9.43,1.25,13.98,8.27,20.23,15.9,7.31,4.8,13.88,14.14,8.92,24.05-1.62,3.24-3.85,5.94-7.3,7.08-6.84,2.26-13.76,4.31-20.7,6.27-1.69.48-3.56.28-6.12.44-4.31,1.85-9.28,2.21-13.73-.62-.2,3.85-.3,7.94-.69,12-.14,1.5-.82,3-1.48,4.4-2.91,6.22-10.4,7.88-15.68,3.51-1.34-1.11-2.68-2.23-3.96-3.39-4.31-3.91-4.53-10.24-.5-14.45,1.33-1.39,2.76-2.68,4.14-4.02,4.7-4.54,8.18-5.09,14.1-2.2.45.28.27-.28.46-.35Z" style="fill: #4a3726; stroke-width: 0px;"/>
  <path d="M35.25,43.49c6.81.13,6.93.12,7.5,6.65.96,10.93,1.75,21.87,2.61,32.8.2,2.55.34,5.11.64,7.65.31,2.62-.76,4.06-3.27,4.88-9.95,3.28-19.82-.16-25.04-9.35-4.78-8.41-6.16-17.61-4.09-27.06,2.18-9.98,10.56-15.78,21.66-15.57Z" style="fill: #ad996e; stroke-width: 0px;"/>
  <path d="M103.36,66.7c-1.2,3.89-2.27,7.29-3.28,10.7-.81,2.73-.1,4.62,1.9,5.26,2.07.66,3.7-.42,4.61-3.11.72-2.12,1.38-4.27,2.21-6.82,2.1,2.62,4.11,4.77,5.69,7.19,2.24,3.43.61,9.68-3.27,11.19-6.67,2.6-13.56,4.61-20.36,6.87-.2-.27-.4-.54-.61-.81.44-2.11.82-4.23,1.32-6.32.56-2.35-.22-4.01-2.52-4.72-1.89-.58-3.58.78-4.2,3.28-.74,3-1.39,6.03-2.11,9.18-1.24.08-2.32.25-3.4.22-2.76-.1-4.46-2.34-3.45-4.93,4.36-11.16,8.82-22.28,13.34-33.38.94-2.32,3.79-3,5.75-1.38,2.88,2.38,5.55,5,8.38,7.58Z" style="fill: #ad996e; stroke-width: 0px;"/>
  <path d="M77.07,27.81c3.01.16,6.02.26,9.02.49,4.65.36,7.29,4.8,5.12,8.94-2.41,4.61-5.08,9.09-7.73,13.57-1.48,2.5-3.87,3.29-6.63,2.74-2.59-.51-4.11-2.23-4.63-4.81-.83-4.12-1.63-8.24-2.45-12.35-1.14-5.7,1.5-8.81,7.3-8.57Z" style="fill: #beb696; stroke-width: 0px;"/>
  <path d="M64.59,59.51c-.17,1.26.02,2.76-.62,3.71-.68,1.03-2.34,2.36-3.22,2.14-6.08-1.52-10.75-5.24-6.55-12.39.65-1.1,1.06-2.39,1.89-3.31.83-.92,2.11-2.15,3.07-2.06,1.14.12,2.71,1.29,3.12,2.38,1.16,3.02,2.42,9.47,2.3,9.52Z" style="fill: #beb696; stroke-width: 0px;"/>
  <path d="M52.88,17.05c.2-3.65,1.44-6.25,4.54-7.66,2.75-1.25,6.08-.64,8.14,1.41,1.92,1.91,1.9,3.82-.1,5.64-1.83,1.66-3.65,3.32-5.52,4.94-3.07,2.65-5.16,2.09-6.49-1.78-.32-.93-.43-1.94-.56-2.55Z" style="fill: #beb696; stroke-width: 0px;"/>
  <path d="M54.83,114.1c-.62-.55-.64-1.52-.04-2.1,2.56-2.48,4.67-4.69,7.06-6.54,1.43-1.11,3.9.2,3.83,2.07-.13,3.38-.68,6.79-1.52,10.06-.19.73-2.8,1.71-3.5,1.28-1.97-1.21-3.66-2.86-5.82-4.77Z" style="fill: #beb696; stroke-width: 0px;"/>
  <path d="M36.08,75.53c-1.1.99-2.05,2.39-3.34,2.87-1.81.68-3.38-.58-3.75-2.29-1.37-6.43-2.6-12.9-3.68-19.39-.32-1.94.9-3.4,2.92-3.64,2.15-.26,3.48.93,3.89,3.02.95,4.84,1.85,9.69,2.77,14.54.27,1.43.52,2.87.78,4.31.14.19.28.39.42.58Z" style="fill: #4a3726; stroke-width: 0px;"/>
</svg>