<?xml version="1.0" encoding="UTF-8"?>
<svg id="uuid-3df4ee46-5235-4ca6-839a-06618f075fe4" data-name="fill_wheat" xmlns="http://www.w3.org/2000/svg" viewBox="0 0 128 128">
  <path d="M38.27,87.16c-3.83-4.64-7.84-9.17-11.45-14-3.45-4.63-3.14-7.82.51-12.29-4.55-5.09-7.12-11.27-9.22-17.66-2.33-7.1,2.14-12.51,9.46-11.46,3.21.46,6.38,1.14,9.83,1.77-4.86-8.62-2.9-17.37-1.06-26.02,1.15-5.41,7.52-7.92,12.11-4.83,5.43,3.67,10.36,8.02,13.75,13.74,1.31,2.2,1.91,4.81,2.84,7.25,1.82-2.26,3.77-4.82,5.87-7.26,5.5-6.39,12.53-5.15,15.5,2.75,1.11,2.96,2.15,5.98,2.86,9.06.71,3.06.98,6.22,1.48,9.64.19.06.77.26,1.37.41,4.14,1.02,6.44,3.66,6.62,8.47.22,6.1.05,12.21.05,18.35.85-.13,2.07-.45,3.29-.49,5.2-.17,9.23,4.27,8.27,9.38-.92,4.88-1.81,9.84-3.45,14.5-2.72,7.75-8.42,12.01-16.79,12.37-.27.01-.53.06-.8.11-.08.02-.14.11-.45.35,1.35,3.8,2.86,7.65,4.09,11.6,1.33,4.28.34,8.13-3.07,11.1-3.5,3.04-7.51,3.43-11.67,1.51-2.88-1.33-4.51-3.81-5.55-6.74-1.2-3.4-2.45-6.78-3.78-10.45-5.06,4.11-10.68,5.9-16.63,3.93-3.95-1.31-7.54-3.82-11.15-6.03-1.99-1.22-3.73-2.88-5.48-4.46-5.08-4.57-4.15-11.23,1.95-14.23.47-.23.91-.5.68-.37Z" style="fill: #4a3726; stroke-width: 0px;"/>
  <path d="M55.91,39.45c2.53-.06,3.49,1.42,4.15,3.22,2.82,7.74,5.61,15.48,8.42,23.22,5.67,15.56,11.35,31.11,17.01,46.67,1.49,4.1,1.02,6.05-1.59,6.87-2.28.72-3.78-.56-5.15-4.32-8.31-22.9-16.64-45.79-24.93-68.7-.43-1.18-.8-2.44-.84-3.67-.07-2.08,1.3-3.03,2.93-3.29Z" style="fill: #a5805b; stroke-width: 0px;"/>
  <path d="M91.53,45.21c.5,6.81,2.3,13.67-1.4,20.1-2.63,4.57-8.08,5.98-11.63,3.44-3.16-2.26-4.16-7.98-1.65-12.18,3.11-5.2,8.23-8.29,13.21-11.45.24-.15.68.03,1.46.09Z" style="fill: #d3cb8c; stroke-width: 0px;"/>
  <path d="M78.68,19.01c.7,1.68,1.46,3.1,1.88,4.6,1.02,3.65,2.08,7.31,2.77,11.03.64,3.45-.82,6.49-3.21,8.87-3.93,3.93-9.72,2.82-11.66-2.4-.83-2.23-.91-4.98-.55-7.37.57-3.83,6.79-12.07,10.78-14.73Z" style="fill: #d3cb8c; stroke-width: 0px;"/>
  <path d="M25.14,38.32c6.39,1.4,13.29,1.41,18.46,6.35,1.35,1.29,2.33,3.28,2.79,5.13.88,3.51-.39,6.3-2.95,7.77-3.05,1.75-7.63,1.16-10.65-1.46-4.08-3.54-5.53-8.58-7.44-13.33-.48-1.19-.67-2.5-1-3.75.26-.24.52-.47.79-.71Z" style="fill: #d3cb8c; stroke-width: 0px;"/>
  <path d="M44.4,8.14c5.1,4.9,12.21,8.19,13.15,16.47.54,4.84-1.65,8.27-5.33,9.22-3.47.89-7.92-1.43-9.48-5.57-.92-2.44-1.23-5.28-1.12-7.91.15-3.97.9-7.92,1.4-11.88.46-.11.93-.22,1.39-.33Z" style="fill: #d3cb8c; stroke-width: 0px;"/>
  <path d="M103.36,71.66c-.06,5.44-1.48,10.41-3.34,15.31-1.18,3.1-3.49,5.05-6.4,6.26-2.87,1.18-5.74.94-8.08-1.3-2.46-2.35-2.67-5.45-1.51-8.31.88-2.16,2.32-4.6,4.22-5.73,4.15-2.47,8.75-4.21,13.19-6.2.44-.2,1.04-.03,1.93-.03Z" style="fill: #d3cb8c; stroke-width: 0px;"/>
  <path d="M38.61,94.75c6.09-2.61,11.31-4.61,17-4.76,4.81-.12,9.44,3.23,10.07,7.08.91,5.62-4.63,10.05-11.01,8.64-4.94-1.09-8.64-4.4-12.4-7.5-1.11-.92-2.11-1.98-3.66-3.46Z" style="fill: #d3cb8c; stroke-width: 0px;"/>
  <path d="M31.23,65.93c6.09,0,11.51-.46,16.78.2,2.44.31,4.97,2.46,6.8,4.4,2.23,2.36,2.13,6.04.57,8.34-1.74,2.59-5.59,4.02-9.24,3-1.94-.54-4.08-1.41-5.42-2.81-3.04-3.18-5.66-6.76-8.39-10.23-.45-.57-.55-1.41-1.11-2.9Z" style="fill: #d3cb8c; stroke-width: 0px;"/>
</svg>