<?xml version="1.0" encoding="UTF-8"?>
<svg id="uuid-3f2de677-039d-4e80-b46d-fdff75705680" data-name="fill_sugarbeet" xmlns="http://www.w3.org/2000/svg" xmlns:xlink="http://www.w3.org/1999/xlink" viewBox="0 0 128 128">
  <defs>
    <linearGradient id="uuid-c17932c0-03e8-449a-b784-2ac0079be449" x1="-594.94" y1="-153.15" x2="-539.87" y2="-56.77" gradientTransform="translate(370 148) scale(.5)" gradientUnits="userSpaceOnUse">
      <stop offset="0" stop-color="#c3a784"/>
      <stop offset=".67" stop-color="#e5cead"/>
      <stop offset="1" stop-color="#e6cfae"/>
    </linearGradient>
    <linearGradient id="uuid-efc40f2c-574a-4aae-82a7-281f11aa81d2" x1="-693.78" y1="-240.46" x2="-612.31" y2="-157.89" gradientTransform="translate(370 148) scale(.5)" gradientUnits="userSpaceOnUse">
      <stop offset="0" stop-color="#537c59"/>
      <stop offset="1" stop-color="#26532e"/>
    </linearGradient>
    <linearGradient id="uuid-4fc05421-3280-4ba3-bb9d-6958aa8de9b3" x1="-615.13" y1="-284.14" x2="-588.7" y2="-171.19" gradientTransform="translate(370 148) scale(.5)" gradientUnits="userSpaceOnUse">
      <stop offset="0" stop-color="#537d59"/>
      <stop offset="1" stop-color="#26522e"/>
    </linearGradient>
  </defs>
  <path d="M81.5,62.5c4.86-.56,8.59-1.65,13.51-.26,17.97,5.07,20.22,30.6,16.76,45.78-3.64,15.95-11.64,20.32-27.27,15.73-21.49-6.31-45.05-29.39-23-49.75-6.12.57-13.64,1.49-18.97-2.28-1.39-.98-2.79-3.45-3.55-3.95-1-.65-5-1.31-6.82-2.18-2.28-1.09-4.71-2.8-5.93-5.07-.96-1.78-.85-3.66-1.49-5.01-.58-1.21-4.24-4.04-5.44-5.56-7.45-9.43-5.8-19.64,3.47-26.95,7.88-6.22,15.05-4.66,22.85.52.61.4.13,1.12.88.96-2.55-11.25,4.15-20.14,15.3-21.95,11.34-1.83,17.95,3.93,20.95,14.45.51,1.79.45,3.78.85,5.15.3,1.02,2.59,2.45,3.33,3.67,1.5,2.46,1.85,5.54,1.52,8.38-.23,1.98-1.92,5.16-1.9,6.56.01,1.09,1.27,2.34,1.47,3.98.8,6.73-2.53,12.68-6.51,17.76Z" style="fill: #0a0c0d;"/>
  <path d="M64.17,109.33c-10.59-10.92-12.82-24.66.67-34.24,14.23-10.11,31.66-18.73,41.94,1.38,5.48,10.73,5,27.75.11,38.67-7.24,16.16-34.14,3.04-42.72-5.81Z" style="fill: url(#uuid-c17932c0-03e8-449a-b784-2ac0079be449);"/>
  <path d="M49.1,32.4c.47.26,2.26.15,3.31.45,3.12.89,5.23,3.17,6.33,6.17.61,1.64.94,6.16,1.37,6.88.12.21,2.97,1.78,3.9,2.85,3.95,4.5,3.79,14.36,2.36,19.89-.1.38-.19.76-.41,1.09-.71,1.07-8.04,2.18-9.72,2.28-5.24.31-11.03-.81-14.48-5.02-.44-.54-.59-1.67-.87-1.87-.45-.33-3.4-.54-4.4-.85-3.98-1.22-7.33-2.51-8.65-6.85-.35-1.14-.17-2.46-.6-3.4-.39-.87-2.42-1.84-3.27-2.73-7.06-7.45-9.77-16.15-1.73-24.27s17.08-6.03,24.26,1.74c.65.71,2.39,3.55,2.59,3.66Z" style="fill: url(#uuid-efc40f2c-574a-4aae-82a7-281f11aa81d2);"/>
  <path d="M81.11,24.39c.11.18,2.05,1.06,2.81,1.94,2.59,2.96,2.36,6.61,1.34,10.18-.36,1.25-1.73,3.41-1.73,4.24,0,1.76,2.28,4.13,1.92,7.95s-5.61,13.35-8.68,15.33c-2.03,1.31-4.62-.64-6.71-1.09.09-5.53-.28-11.8-4.08-16.17-.85-.98-2.92-2.16-3.23-2.77-1.76-3.38-.74-7.01-4.56-10.94-2.6-2.68-3.98-2.13-6.85-3.15-2.52-.9-2.58-10.69-2.3-13.1,1.12-9.67,14.08-13.98,22.29-10.9,4.73,1.78,7.73,7.47,8.83,12.17.33,1.41.48,5.55.93,6.32Z" style="fill: url(#uuid-4fc05421-3280-4ba3-bb9d-6958aa8de9b3);"/>
  <path d="M63.51,79.74c.28.34.22,1.02-.11,1.76-.82,1.73-2.11,3.3-2.66,5.17-1.85,5.57-.05,11.42,3.43,16.02,1.69,2.41,4.6,4.2,6.33,6.51,1.22,1.65.52,2.58-1.19,1.69-7.79-4.76-13.89-14.49-11.4-23.77.48-2.07,2.8-8.33,5.54-7.46l.07.07Z" style="fill: #fcecd6;"/>
  <path d="M103.14,73.68c1.19,1.75-1.45,3.53-2.88,4.37-3.7,2.07-7.65,5.08-11.27,7.01-4.1,2.52-8.19.49-3.32-3.36,3.83-2.75,8.25-4.75,12.4-7.18,1.39-.75,3.63-2,4.98-.92l.08.09Z" style="fill: #8d7a5f;"/>
  <path d="M100.98,93.73c1.33,2.26-1.16,3.64-3.16,4.81-2.72,1.4-5.18,3.36-7.87,3.84-1.54.13-2.5-1.56-1.7-2.89.41-.77,1.2-1.31,1.97-1.76,2.8-1.19,8.07-6.42,10.66-4.11l.1.11Z" style="fill: #8d7a5f;"/>
  <path d="M80.1,93.06c1.53-.3,2.32,1.96,1.87,2.96-1.16,1.87-7.06,4.2-9.57,5.94-2.69,1.88-4.83-.82-2.53-3.11,2.79-2.37,7.01-3.9,10.07-5.76l.16-.03Z" style="fill: #8d7a5f;"/>
  <path d="M73.5,112c.77-.77,6.44,2.51,7.66,3.09,1.04.5,2.42.63,3.31,1.19,1.57.97,1.42,2.86-.6,2.64-1.26-.14-9.62-4.06-10.13-4.91-.38-.63-.24-1.33-.24-2.01Z" style="fill: #fcecd6;"/>
  <path d="M49.58,56.83c-4.62-4.5-7.47-9.26-12.64-13.49-1.61-1.39-3.3-2.85-4.48-4.06-.98-1.07-1.65-1.7-1.51-2.72.16-1.38,1.85-1.01,2.61-.41,1.75,1.72,22.43,22.12,24.41,24.07.28.28.48.8.53,1.24.31,1.46-1.52,2.14-2.5,1.31-1.46-1.17-4.59-4.19-6.3-5.85l-.11-.11Z" style="fill: #39633f;"/>
  <path d="M30.79,60.45c-1.49-1.49-1.32-5.63-1.92-7.03-.91-1.63-2.82-2.62-4.14-3.97-2-1.82-3.83-3.94-4.37-6.67-.06-1.83,1.95-1.52,2.55-.2,1.58,2.89,3.22,5.23,6.14,7.09,1.07.84,2.63,1.54,2.84,2.98.09,1.17-.22,2.43.17,3.59.45,1.72,1.89,3.52,1.25,4.33-.41.56-1.72.55-2.39,0l-.13-.11Z" style="fill: #90bb97;"/>
  <path d="M65.05,18.53c.23-.02.35,0,.44.16.22.69.83,3.1,1.69,6.3,1.95,7.32,4.82,18.11,6.67,25.07.23,1.11.54,3.7-1.39,3.41-.43-.07-.99-.11-1.09-.59-.87-3.48-7.53-30.17-8.31-33.35-.07-.66,1.19-.79,1.89-1h.1Z" style="fill: #39633f;"/>
  <path d="M53.04,24.4c-3.3,1.11-2.35-6.7-1.41-8.72.85-2.03,6.33-10.08,8.87-7.65,1.61,1.66-2.24,3.03-3.2,4.09-3.27,2.57-3.97,6.8-3.89,10.73,0,.48-.01,1.11-.28,1.45l-.08.09Z" style="fill: #90bb97;"/>
</svg>