<?xml version="1.0" encoding="UTF-8"?>
<svg id="uuid-5babf049-6ee8-4087-8a57-4e23624de3cb" data-name="fill_poplar" xmlns="http://www.w3.org/2000/svg" xmlns:xlink="http://www.w3.org/1999/xlink" viewBox="0 0 128 128">
  <defs>
    <linearGradient id="uuid-6e4145b5-b385-477e-9a31-3f5523c7aeda" x1="-1944.15" y1="11.92" x2="-1944.03" y2="201.92" gradientTransform="translate(1036) scale(.5)" gradientUnits="userSpaceOnUse">
      <stop offset="0" stop-color="#7ba258"/>
      <stop offset="1" stop-color="#386c2b"/>
    </linearGradient>
    <linearGradient id="uuid-fb6bc5da-142f-436f-87cc-f83a869ea900" x1="-1944" y1="211.7" x2="-1944.17" y2="241.7" gradientTransform="translate(1036) scale(.5)" gradientUnits="userSpaceOnUse">
      <stop offset="0" stop-color="#553315"/>
      <stop offset="1" stop-color="#6f422c"/>
    </linearGradient>
  </defs>
  <path d="M77.62,14.38c.99,1.03,3.2.97,4.8,3.45,1.95,3.01,1.36,6.77,2.32,8.68.31.62,2.43,1.69,3.26,2.74,3.07,3.92,1.14,6.5,1.99,9.9.1.41,1.02.61,1.43,1.16,1.22,1.62,2.19,4.05,2.45,6.07.27,2.12-.62,5.18-.29,6.26.23.74,1.76,2.07,2.29,3.24,1.71,3.79,1.51,10.9.02,14.77-.77,1.99-2.42,3.05-3.11,4.39-1.14,2.21-.83,4.6-2.78,7.22-.93,1.25-3.88,3.16-4.24,3.76-.45.74-.51,2.93-.9,4.1-.65,1.99-2.67,4.43-4.39,5.61-1.21.83-3.83,1.31-4.23,1.77-.73.86-1.12,4.29-3.14,5.36l-.36,21.14c-.52.69-1.08,1.34-2,1.5-1.92.33-11.56.33-13.48,0-1.03-.18-2.07-1.21-2.25-2.25l-.11-20.39c-1.78-1-2.72-4.6-3.62-5.38-1.22-1.05-4.06-1.43-5.78-3.22-2.78-2.89-2.07-6.29-3.26-8.24-1.29-2.11-4.3-2.68-5.98-7.02-1.34-3.46-.96-2.93-2.98-6.02-2.79-4.25-3.22-12.51-1.15-17.09.53-1.17,2.06-2.5,2.29-3.24.33-1.09-.56-4.14-.29-6.26.47-3.59,3.58-6.69,3.76-7.69.23-1.34-.25-3.57.34-5.71,1.23-4.51,4.2-4.8,5.03-6.47s.29-5.6,1.81-8.19c1.41-2.4,4.99-3.46,5.32-3.93.23-.33.82-3.41,1.51-4.74,4.92-9.4,16.57-10.39,22.81-1.63,1.06,1.49,2.3,5.73,2.9,6.35Z" style="fill: #0a0d0c;"/>
  <path d="M36.9,53.03c-1.75-3.43-.25-7.43,1.68-10.7.48-.81,1.6-1.42,1.83-2.17.77-2.56-.68-5.22,1.17-8.33,1.33-2.24,4.58-3.02,4.85-3.4.99-1.41-1.62-7.57,3.1-10.66.91-.6,2.44-.76,3.02-1.48.5-.62,1.32-4.04,2.03-5.47,3.42-6.8,11.8-8.52,16.92-2.56,2.42,2.82,2.57,6.36,3.97,8.42.29.43,2.59.85,3.52,1.59,1.44,1.14,2.43,4.2,2.53,5.99.07,1.13-.54,3.21-.29,3.73.53,1.07,2.56,1.33,3.53,2,3.61,2.48,2.07,7.31,2.76,10.65.06.31,2.86,2.23,3.37,5.22.43,2.51-.74,7.08-.32,8.3.2.58,1.43,1.04,2.05,1.96,2.6,3.87,2.42,12.07-.61,15.63-.67.79-2.21,1.4-2.43,2.07-.54,1.67.01,3.79-1.14,5.86-1.19,2.12-5.05,3.99-5.47,4.64-1.15,1.78.28,5.18-2.46,7.92-1.78,1.79-5.71,2.18-6.4,2.85-.51.51-.62,2.56-1.17,3.58-3.06,5.57-14.82,5.56-17.87,0-.56-1.02-.66-3.06-1.17-3.58-1-1-4.57-.52-6.82-3.43-2.17-2.8-.98-5.71-2.03-7.35-.33-.51-4.07-2.52-5.27-4.35-1.64-2.51-.73-4.22-1.35-6.15-.21-.66-2.22-1.57-2.93-2.57-1.45-2.04-2.09-6.51-2-9.03.06-1.59,1.73-7.12,3.4-9.2Z" style="fill: url(#uuid-6e4145b5-b385-477e-9a31-3f5523c7aeda);"/>
  <path d="M70,104.5c.46,5.9.39,12.17,0,18-3.78.41-8.17.4-12,0-.67-5.92-.4-12.08,0-18,4.04,1.37,7.95,1.37,12,0Z" style="fill: url(#uuid-fb6bc5da-142f-436f-87cc-f83a869ea900);"/>
  <path d="M35.27,64.39c-.26-1.96.23-4.06,1.33-5.69,1.76-2.39,3.44-2.45,2.85-5.77-.14-1.19-.15-4.29,1.52-3.7.84.49,1.03,2.88,1.35,4.85.25,1.44.21,2.95-.76,4.1-.6.78-1.31,1.57-1.76,2.49-.83,1.46-.77,3.46-1.7,4.83-.99,1.39-2.63.72-2.8-.93l-.03-.18Z" style="fill: #a6cb82;"/>
  <path d="M58,104.5v18h12v-18c.83.51.5,1.9.51,2.74.05,5.25-.05,10.51,0,15.76h-12.25c-.55,0-.72-1.22-.78-1.72-.46-3.91-.03-9.88.02-14.03,0-.84-.33-2.24.51-2.74Z" style="fill: #5e391d;"/>
  <path d="M56.8,19.91c-.49.41-2.14.5-3.36,1.18-2.29.92-1.14,4.97-3.68,4.82-2.07-.31-.29-4.64,1.39-6.37,1-1.2,3.04-1.22,3.84-2.54.98-1.84,1.98-6.91,5.14-6.61,2.95.41-.26,2.92-1.12,3.97-1.13,1.19-1.33,4.46-2.13,5.47l-.08.07Z" style="fill: #a6cb82;"/>
</svg>