<?xml version="1.0" encoding="UTF-8"?>
<svg id="uuid-5717a4ef-ad53-4289-81bc-cfc37f606ab9" data-name="fill_fertilizer" xmlns="http://www.w3.org/2000/svg" viewBox="0 0 128 128">
  <path d="M8.65,46.26C-22.7,4.04,77.12,1.09,99.69,10.58c14.65,2.85,32.74,16.78,21.59,32.63-.82,1.22-1.5,3.15-1.16,4.47,3.09,11.76,3.28,23.69,2.26,35.68-1.14,7.86,5.19,14.71,2.17,22.53-1.95,6.54-5.8,11.37-12.96,12.23-31.41,3.75-63.84,6.45-94.96-.7-7.29-2.01-11.8-8.33-9.81-15.57,3.24-18.72.01-36.28,1.8-55.59Z" style="fill: #4a3726; stroke-width: 0px;"/>
  <path d="M17.42,43.83C-27.15,5.58,146.39,2.48,112.09,41.94c.43,3.23.67,7.16,1.52,10.96,3.84,13.49-13.67,58.53-26.82,60.44-22.35,1.34-44.75,1.05-66.85-2.8-5.41-.8-7.02-4.12-5.32-9.45,3.89-18.86-2.06-38.09,2.8-57.27Z" style="fill: #beb696; stroke-width: 0px;"/>
  <path d="M102,29.54c-4.97,13.62-68.99,12.27-77.32.9,7.1-13.4,68.69-11.97,77.32-.9Z" style="fill: #4a3726; stroke-width: 0px;"/>
  <path d="M47.47,96.66c-1.05,1.24-2.81,3.32-5.07,5.97-9.25-3.05-3.46-7.5,1.19-11.43-3.99-23.55,16.53-46.42,40.54-40.54,2.95.68,4.27,2.23,4.86,4.97,5.4,25.45-17.24,42.95-41.52,41.03Z" style="fill: #4a3726; stroke-width: 0px;"/>
  <path d="M81.72,57.89c3.33,15.46-10.58,32.38-25.55,30.64,2.29-2.96,7.75-5.7,4.72-9.71-3.05-3.57-6.69,2.02-9.33,3.58-2.46-13.47,15.64-29.08,30.15-24.5Z" style="fill: #589058; stroke-width: 0px;"/>
</svg>