<?xml version="1.0" encoding="UTF-8"?>
<svg id="uuid-4851d97a-f8de-4a76-ad63-ca1a018db124" data-name="fill_bread" xmlns="http://www.w3.org/2000/svg" viewBox="0 0 128 128">
  <path d="M114.17,82.67c.17,13.38-3.71,25.18-14.87,33.26-12.83,9.3-27.06,13.56-42.82,8.53-10.26-3.28-17.46-10.63-23.04-19.46-10.65-16.85-17.56-35.17-19.37-55.11C11.63,23,26.61,7.62,50.49,2.45c18.54-4.01,32.39,3.72,42.9,18.54,8.71,12.29,14.11,26.12,17.78,40.6,1.73,6.85,3.24,21.02,3,21.07Z" style="fill: #4a3726; stroke-width: 0px;"/>
  <path d="M107.34,81.83c-.34,17.97-7.71,28.55-23.74,34.58-7.02,2.64-14.22,4.06-21.66,2.25-8.44-2.05-14.86-7.12-20-13.97-8.73-11.63-14.05-24.88-17.67-38.78-1.78-6.81-3.08-13.91-3.29-20.92-.49-15.93,7.28-26.97,22.1-32.91,7.39-2.96,15.01-4.63,22.95-2.8,8.58,1.97,15.16,7.05,20.2,14.1,10.61,14.81,16.79,31.46,20.03,49.27.62,3.43.83,6.94,1.08,9.18Z" style="fill: #a5805b; stroke-width: 0px;"/>
  <path d="M39.14,71.33c1.2-3.78,4.84-5.07,7.87-6.75,11.55-6.39,23.89-10.55,37.04-12.09,2.6-.3,3.95.76,4.86,3.84-.99,3.86-4.62,5.07-7.55,6.71-10.77,6.03-22.27,10.11-34.52,11.96-4.99.75-6.42.15-7.7-3.67Z" style="fill: #4a3726; stroke-width: 0px;"/>
  <path d="M93.57,82.86c-1,1.14-2.01,2.8-3.47,3.86-9.23,6.71-19.7,10.26-30.96,11.57-1.66.19-3.4-.3-4.78-.44-2.12-3.43-1.94-4.91.81-7,9.17-6.98,19.57-10.76,31.01-11.95,3.05-.32,5.75-.47,7.39,3.96Z" style="fill: #4a3726; stroke-width: 0px;"/>
  <path d="M40.88,49.03c-2.22-.22-4.34-.2-5.15-2.68-.83-2.54.68-3.9,2.48-5.24,9.04-6.78,19.38-10.04,30.43-11.43.82-.1,1.84-.29,2.46.08,1.27.76,2.98,1.68,3.31,2.87.33,1.16-.42,3.26-1.41,4.04-8.35,6.62-17.88,10.53-28.47,11.84-1.28.16-2.55.36-3.64.52Z" style="fill: #4a3726; stroke-width: 0px;"/>
</svg>