<?xml version="1.0" encoding="UTF-8"?>
<svg id="uuid-e9a317f6-cd19-4ecc-b729-03f042d75abc" data-name="fill_emptypallet" xmlns="http://www.w3.org/2000/svg" xmlns:xlink="http://www.w3.org/1999/xlink" viewBox="0 0 128 128">
  <defs>
    <linearGradient id="uuid-7355658a-9cb0-486c-a17c-2af9f51283a7" x1="70.62" y1="-60.25" x2="70.62" y2="37.21" gradientTransform="translate(19.82 66.58) rotate(9.95)" gradientUnits="userSpaceOnUse">
      <stop offset="0" stop-color="#d0a674"/>
      <stop offset="1" stop-color="#7d551f"/>
    </linearGradient>
    <linearGradient id="uuid-f5464a55-cacb-442d-9dfd-c4a836b7728e" x1="13.43" y1="-60.23" x2="13.43" y2="37.23" xlink:href="#uuid-7355658a-9cb0-486c-a17c-2af9f51283a7"/>
    <linearGradient id="uuid-a066f588-e344-4a6b-ab06-468c4ef64223" x1="41.41" y1="-60.25" x2="41.41" y2="37.22" xlink:href="#uuid-7355658a-9cb0-486c-a17c-2af9f51283a7"/>
  </defs>
  <path d="M54.26,16.1l7.24,1.27c.25-1.4.46-2.8.74-4.18.2-.98.61-1.89,1.65-2.21.54-.16,1.17-.22,1.72-.13,3.89.65,7.78,1.34,11.66,2.03,1.85.33,2.72,1.59,2.39,3.46-.23,1.35-.47,2.7-.71,4.08l8.49,1.49c.24-1.4.46-2.77.73-4.13.19-.98.58-1.9,1.63-2.23.54-.17,1.17-.24,1.72-.15,5.8.99,11.6,2.01,17.4,3.04,1.75.31,2.63,1.58,2.34,3.34-.18,1.12-.39,2.23-.59,3.35-5.37,30.6-10.73,61.21-16.11,91.81-.18,1.05-.54,2.04-1.66,2.41-.53.18-1.16.25-1.72.15-5.8-.99-11.6-2.01-17.4-3.04-1.76-.31-2.63-1.57-2.34-3.33.16-.95.33-1.9.5-2.88l-8.49-1.49c-.16.91-.27,1.85-.5,2.76-.14.57-.37,1.16-.72,1.64-.63.87-1.62.97-2.58.81-3.95-.66-7.9-1.36-11.84-2.07-1.75-.31-2.61-1.59-2.32-3.35.15-.94.33-1.87.5-2.84l-7.3-1.28c-.17.94-.31,1.9-.5,2.84-.21.98-.6,1.89-1.65,2.21-.52.16-1.13.23-1.66.14-5.82-.99-11.64-2.02-17.46-3.05-1.72-.31-2.58-1.57-2.31-3.3.01-.08.03-.16.04-.24,5.55-31.66,11.1-63.32,16.66-94.98.18-1.05.56-2.03,1.68-2.39.53-.17,1.17-.23,1.72-.14,5.78.98,11.56,2,17.34,3.03,1.79.32,2.67,1.58,2.37,3.37-.23,1.36-.47,2.71-.7,4.07,0,.02,0,.04.03.11ZM75,92.72c3.12-17.79,6.23-35.54,9.34-53.28l-8.44-1.48c-3.12,17.77-6.23,35.51-9.34,53.28l8.44,1.48ZM58.4,34.88l-7.23-1.27c-3.12,17.78-6.23,35.53-9.35,53.3l7.23,1.27,9.35-53.3Z" style="fill: #101314;"/>
  <path d="M90.81,17.87l12.99,2.28c-.04.25-.08.48-.13.71-2.04,11.6-4.08,23.2-6.11,34.81-.06.36-.06.78.05,1.12.18.52.67.69,1.18.67.58-.03.93-.39,1.07-.92.12-.47.17-.95.26-1.43,1.98-11.26,3.95-22.53,5.93-33.79.04-.23.08-.47.13-.73l2.59.45c-5.61,31.99-11.22,63.96-16.83,95.97-4.06-.71-8.13-1.43-12.28-2.15.05-.27.09-.52.14-.78,2.53-14.45,5.07-28.91,7.6-43.36.04-.22.08-.44.11-.66.1-.78-.26-1.3-.96-1.43-.73-.14-1.26.24-1.43,1.04-.05.22-.08.44-.12.66-2.53,14.43-5.06,28.87-7.59,43.3l-.14.81-3.3-.58c5.61-31.97,11.22-63.95,16.83-95.99Z" style="fill: url(#uuid-7355658a-9cb0-486c-a17c-2af9f51283a7);"/>
  <path d="M29.07,106c-3.88-.68-7.64-1.34-11.44-2.01,5.61-32,11.22-63.97,16.83-95.98l3.19.56c-.05.26-.09.53-.14.79-2.06,11.72-4.11,23.45-6.17,35.17-.05.26-.1.52-.09.78.02.62.39,1.01.99,1.12.61.11,1.09-.14,1.31-.72.09-.24.13-.51.18-.77,2.05-11.7,4.11-23.41,6.16-35.11.05-.27.1-.55.15-.86,4.17.73,8.26,1.45,12.4,2.17-5.61,31.99-11.22,63.95-16.83,95.97l-4.15-.73c.07-.41.15-.84.22-1.27,1.55-8.83,3.1-17.66,4.65-26.5,1.5-8.57,3.01-17.15,4.51-25.72.17-.99-.11-1.55-.87-1.71-.68-.14-1.21.16-1.42.82-.07.23-.1.47-.14.71-3.03,17.26-6.06,34.53-9.08,51.79-.08.47-.17.95-.26,1.47Z" style="fill: url(#uuid-f5464a55-cacb-442d-9dfd-c4a836b7728e);"/>
  <path d="M70.9,14.38l6.29,1.1c-5.61,32.01-11.22,63.99-16.84,96l-1.89-.33c.14-.49.3-.94.38-1.41.69-4.09,1.36-8.18,2.03-12.27.13-.79-.27-1.35-1-1.46-.69-.11-1.24.28-1.38,1.04-.6,3.35-1.18,6.7-1.76,10.05-.21,1.19-.42,2.37-.63,3.61l-8.1-1.42c5.61-31.98,11.21-63.95,16.83-95.96l3.67.64-.14.79c-3.26,18.6-6.52,37.2-9.78,55.8-.05.28-.11.56-.11.84.01.62.38,1.01.99,1.12.61.11,1.09-.14,1.31-.71.1-.26.14-.55.19-.83,3.26-18.6,6.53-37.2,9.79-55.8.04-.25.09-.51.14-.82Z" style="fill: url(#uuid-a066f588-e344-4a6b-ab06-468c4ef64223);"/>
  <path d="M76.38,35.36l2.17-12.36c2.81.49,5.59.98,8.41,1.47l-2.17,12.36c-2.79-.49-5.57-.98-8.41-1.47Z" style="fill: #7d5d3d;"/>
  <path d="M63.96,106.17l2.16-12.34c2.81.49,5.58.98,8.41,1.47-.72,4.1-1.44,8.19-2.16,12.34-2.78-.49-5.57-.98-8.41-1.47Z" style="fill: #7d5d3d;"/>
  <path d="M51.63,31.01l2.16-12.34,7.21,1.26-2.16,12.34-7.21-1.26Z" style="fill: #7d5d3d;"/>
  <path d="M39.2,101.83l2.16-12.34,7.21,1.27-2.16,12.34c-2.38-.42-4.77-.84-7.21-1.27Z" style="fill: #7d5d3d;"/>
</svg>