<?xml version="1.0" encoding="UTF-8"?>
<svg id="uuid-91834eec-7af4-4eda-9697-c44658f7264f" data-name="fill_milkoat" xmlns="http://www.w3.org/2000/svg" xmlns:xlink="http://www.w3.org/1999/xlink" viewBox="0 0 128 128">
  <defs>
    <linearGradient id="uuid-dd6da4e5-15f7-423e-bb58-8b4380f1404b" x1="1312.03" y1="-536.41" x2="1311.52" y2="-352.41" gradientTransform="translate(-592 296) scale(.5)" gradientUnits="userSpaceOnUse">
      <stop offset="0" stop-color="#e6e5e5"/>
      <stop offset="1" stop-color="#b9b9b9"/>
    </linearGradient>
    <linearGradient id="uuid-f61e8a12-f09b-46f2-9b21-89c15a9e849f" x1="-3163.24" y1="693.26" x2="-3098.69" y2="800.61" gradientTransform="translate(1628 -296) scale(.5)" gradientUnits="userSpaceOnUse">
      <stop offset="0" stop-color="#d1b58a"/>
      <stop offset="1" stop-color="#99825e"/>
    </linearGradient>
    <linearGradient id="uuid-97e756f6-1775-48a1-885c-9abdc609371d" x1="-3165.03" y1="749.46" x2="-3170.15" y2="768.99" gradientTransform="translate(1628 -296) scale(.5)" gradientUnits="userSpaceOnUse">
      <stop offset="0" stop-color="#dcc88e"/>
      <stop offset="1" stop-color="#f6eac2"/>
    </linearGradient>
  </defs>
  <g>
    <path d="M82.04,16.57c4.23-.51,10.28.57,9.25,6.06-.49,2.65-3.21,3.95-3.23,4.22-.01.17,1.28,2.95,1.41,3.06,1.17.92,8.85-4.61,13.21-2.23,1.54.84,3.07,2.95,3.28,4.74.82,7.09-7.58,7.82-12.47,9.7l2.03,6.72c-1.13,20.59,1.41,42.63,0,63.05-.43,6.26-3.14,11.67-9.82,12.68-14.06-.79-29.58,1.23-43.47.07-6.87-.57-9.73-6.59-10.23-12.77-1.58-19.94,1.19-41.86-.02-62.02-.44-1.9,2.35-6.12,1.99-7.42-.5-1.79-11.21-1.73-11.93-8.11-.29-2.61.77-5.04,2.99-6.43,4.13-2.58,9.31,1.46,13.47,2.23-.32-.84,1.1-3.32.99-3.47-.45-.59-2-.41-2.87-2.93-2.25-6.48,4.98-7.83,9.83-7.15,3.24-18.19,32.33-18,35.59,0ZM88.5,21.12c-1.33-3.45-5.89-1.53-9-2-.46-17.71-30.42-18.23-30.5,0-2.79.42-9.66-1.5-10,2.5-.19,2.15.78,2.82,2.74,3,13.84,1.26,29.49-.97,43.53.02,2.41-.05,4.15-1.12,3.23-3.52ZM85.45,27.17l-42.2-.06c-2.19.2-2.19,6.17-3.54,6.46-3.18-.41-12.58-6.16-14.45-1.95-2.7,6.08,8.92,6.61,12.27,8.77l-2.54,8.96c1.27,20.42-1.67,42.84-.01,63.02.37,4.45,2.37,8.82,7.24,9.26,13.85,1.23,29.49-.98,43.54-.01,4.12-.63,6.43-4.3,6.76-8.24,1.72-20.48-1.34-43.31,0-64.04l-2.49-8.44c2.98-2.89,15.53-2.9,12.7-9.28-1.96-4.42-11.84,2.1-15.21,1.97l-2.08-6.43Z" style="fill: #0a0c0d;"/>
    <path d="M85.45,27.17l2.08,6.43c3.37.12,13.25-6.39,15.21-1.97,2.83,6.39-9.73,6.39-12.7,9.28l2.49,8.44c-1.34,20.73,1.72,43.56,0,64.04-.33,3.94-2.64,7.62-6.76,8.24-14.05-.97-29.69,1.24-43.54.01-4.88-.43-6.88-4.8-7.24-9.26-1.66-20.18,1.28-42.6.01-63.02l2.54-8.96c-3.35-2.16-14.97-2.7-12.27-8.77,1.87-4.2,11.26,1.55,14.45,1.95,1.35-.29,1.35-6.26,3.54-6.46l42.2.06Z" style="fill: url(#uuid-dd6da4e5-15f7-423e-bb58-8b4380f1404b);"/>
    <path d="M88.5,21.12c-1.33-3.45-5.89-1.53-9-2-.46-17.71-30.43-18.23-30.5,0-2.79.42-9.65-1.5-10,2.5-.19,2.15.78,2.82,2.74,3,13.85,1.26,29.49-.96,43.53.02,2.41-.05,4.15-1.12,3.23-3.52ZM54.61,14.47c1.03-2.07,3.57-4.2,5.87-4.63,7.77-1.47,13.4,1.06,14.52,9.27h-21.5c.21-1.39.5-3.41,1.11-4.64Z" style="fill: #b9b9ba;"/>
    <path d="M84.73,58.32c-12.25-23.8-37.54-17.12-44.36,6.54-5.36,16.75,0,40.99,19.04,45.69,8.21,1.85,16.72-1.64,21.9-8.28,3.65-4.54,6.07-10.49,7.29-16.16,1.95-8.95.59-19.11-3.78-27.6l-.1-.19Z" style="fill: #826e4e;"/>
    <path d="M38.5,48.62c-1.13-1.22,4.83-14.11,5-16.63.96-1.1,2.82-1.34,3.03.39.35,2.95-4.71,11.81-5.11,15.41-.48,1.18-1.83.82-2.92.83Z" style="fill: #e5e4e4;"/>
    <path d="M39.43,109.19c.37.51-.35,3.72,1.06,5.69,1.91,2.68,4.5,1.09,6.03,1.97.71.41.72,1.61,0,2.03-.82.47-3.63.34-4.65.13-3.94-.82-5.52-5.56-4.86-9.14.28-1.54,1.92-1.38,2.43-.68Z" style="fill: #e5e4e4;"/>
    <path d="M75,19.12h-21.5c.21-1.39.5-3.41,1.11-4.64,1.03-2.07,3.57-4.2,5.87-4.63,7.78-1.46,13.41,1.06,14.52,9.27ZM71.5,16.62c-1.64-6.45-12.85-6.05-15,0h15Z" style="fill: #0a0c0d;"/>
  </g>
  <g>
    <path d="M49.49,86.06c-2.03,1.47-6.25,6.06-8.73,5.93-1.25-.07-1.38-.97-1.36-2.07-4.37.92-2.23-3.95-1.33-6.22.93-2.35,2.09-4.97,4.3-6.39-5.07-.92-4.94-6.89.15-7.52l12.02,2.92c-1.46-3.11-4.03-6.22-5.4-9.29-.72-1.62-.61-2.34,0-3.97,2.18-5.85,5.59-11.73,8.01-17.52,2.24-3.02,6.87-1.31,6.62,2.44-.06.82-.57,1.19-.61,1.93,2.7-2.62,12.14,1.26,13.72,3.65.79,1.19.23,2.6-1.25,2.59v.29c1.35.13,1.26,1.99.38,2.69-1.45,1.16-9.6.84-9.59,1.32,1,1.55,2.28,2.91,3.21,4.51.37.64,1.66,3.69,1.82,3.82.4.32,1.07-.36,1.66-.45,3.98-.64,5.22,3.44,3.7,6.52.64.06.9-.53,1.48-.74,1.67-.59,2.83-.5,4.52-.06,1.8.47,7.31,2.75,8.26,4.21,1.1,1.68-.96,1.9-1.2,2.25-.42.6.43.55.6.78.4.56.39,1.75-.22,2.2-1.67,1.23-5.74,1.25-7.81,1.47,1.51,1.49,6.26,5.33,5.95,7.55-.19,1.34-1.68,1.07-2.09,1.35-.11.08.99,1.89-.29,2.52-1.79.88-9.19-1.59-10.84-2.82-.88-.66-1.4-1.68-2.22-2.37l-.24,2.15,7.89,13.8c.62,3.93-3.97,6.34-6.6,3.03l-12.93-22.84c-.49-.08-.28.4-.29.74-.19,3.35-1.33,5.65-3.14,8.44-1.24,1.91-3.42,5.1-4.58,1.21-1.06,1.03-2.23,1.48-3.03-.09-.09-.18-.53-1.47-.53-1.55v-6.38ZM69.08,67.06c.48,4.57-5.08,1.3-7.13.16-.48-.27-3.04-2.14-3.26-1.93l8.31,14.84,3.24-12.34.02-.71h-1.18Z" style="fill: #0c0e0e;"/>
    <path d="M78.5,105.87c-.97.97-2.64.58-3.32-.53-4.87-8.3-9.4-16.82-14.55-24.93l-19.03-5.01c-2.34-1.02-1.41-4.33,1.2-3.89l15,3.87-7.19-12.55-.24-1.85c2.64-6.22,5.35-12.55,8.46-18.56,1.45-1.2,3.66-.01,3.37,1.86-2.08,5.14-4.65,10.08-6.83,15.16-1.26,2.95-.79,1.97.6,4.26,4.04,6.68,7.5,13.73,11.78,20.28.41-.29.48-.74.6-1.18,1.43-5.04,2.19-10.31,3.64-15.36,1.17-2.39,4.49-.99,3.85,1.47l-4.94,20.57c1.5,2.73,2.93,5.54,4.47,8.25.75,1.32,3.93,5.61,3.76,6.81-.03.21-.48,1.18-.62,1.33Z" style="fill: url(#uuid-f61e8a12-f09b-46f2-9b21-89c15a9e849f);"/>
    <path d="M52.46,82.07c.93-.87,2.4-1.21,3.64-.99,1.39.25,2.91,1.77,3.11,3.12.09.6.13,1.08.06,1.69-.13,1.06-2.67,6.01-3.41,6.98-.31.41-.72.98-1.32.91v-5.94c-1.18,2.31-2.18,4.43-3.26,5.34-.49-1.53-.39-2.88-.32-4.29.09-1.8-.1-3.27.51-5.17.21-.64.7-1.38,1-1.66Z" style="fill: #e0d09d;"/>
    <path d="M83.35,72.24c1.46.46,2.92,1.15,4.34,1.87,2.31,1.02,2.88,1.41.14,1.65-1.22.11-3.32,0-4.34.26-.09.07.08.22.41.42.7.41,1.48.83,2.27,1.05.64.19,5.4,1.12,1.95,1.61-3.02.43-6.32,1.41-9.31.37-4.25-1.61-2.91-7.87,1.8-8.02" style="fill: #e0d09d;"/>
    <path d="M58.46,62.4c-2.15-3.6,2.46-7.53,6.06-5.02,1.08.75,4.43,5.51,4.92,6.8.14.37.31.68.23,1.1l-5.04-2.37c-.37.38,2.03,3.41,2.38,4,.16.27.6.75.45,1.04-2.71-.94-7.43-2.93-8.99-5.55Z" style="fill: #e0d09d;"/>
    <path d="M42.96,78.94c3.6-2.38,8.01,1.75,5.48,5.63-.72,1.11-4.62,4.42-5.87,5.11-.26.14-1.2.72-1.39.54l2.08-5.34-4.75,3.26c-.03-2.49,2.51-8.59,4.45-9.2Z" style="fill: url(#uuid-97e756f6-1775-48a1-885c-9abdc609371d);"/>
    <path d="M86.59,88.44l-4.89-1.5c-.3-.09-.54.24-.36.5l3.77,3.82c-.1.3-.73.15-1.01.12-1.91-.27-6.88-1.79-8.34-2.94-3.42-2.68-.84-8.07,3.73-7,1.63.38,5.62,4.39,6.63,5.83.25.35.54.69.47,1.16Z" style="fill: #e0d09d;"/>
    <path d="M64.66,54.43c-3.86-1.97-2.51-7.6,2.2-7.57,1.69,0,7.72,3.29,8.75,4.03l-6.23.45s3.34,1.72,4.06,2.02c.43.18,1.42.51,1.58.94-2.75.5-5.99.9-8.78.61-.43-.04-1.25-.31-1.58-.48Z" style="fill: #e0d09d;"/>
    <path d="M59.33,63.2c-.62-.97-1.34-5.07.72-4.62.03.02.08.07.11.1.45.69-.01,1.65.33,2.4.24.72.87,1.3,1.11,1.94.63,1.62-1.57,1.25-2.22.28l-.06-.09Z" style="fill: #fcfbf7;"/>
    <path d="M43.49,79.52c.41-.12.8.11.88.53.19,1.06-.82,2.1-1.51,3.34-.36.55-.77,1.35-1.42,1.52-1.88-.57.65-4.96,1.96-5.36l.09-.03Z" style="fill: #fcfbf7;"/>
    <path d="M52.24,82.78c.62-.64,2.21-1.97,2.89-.76.25.91-.81,1.26-1.26,1.92-.42.52-.72,1.46-1.2,1.7-1.15.39-.96-2.3-.49-2.77l.06-.08Z" style="fill: #fcfbf7;"/>
    <path d="M79.56,79.05c-1.68-.45-2.96-2.65-2.38-4.35.08-.18.18-.32.36-.37.57-.19,1.18,1.03,1.92,1.98.72.9,1.75,1.67,1.57,2.28-.17.55-.86.59-1.36.49l-.11-.03Z" style="fill: #fcfbf7;"/>
    <path d="M75.06,83.77c.76-.44,1.17.74,1.64,1.75.45,1.18,1.8,1.74,2.46,2.73.62,1.45-1.77.73-2.33.24-1.5-1-3.15-3.15-1.83-4.68l.06-.04Z" style="fill: #fcfbf7;"/>
    <path d="M65.62,54.65c-1.35-.41-2.54-1.63-2.75-3.09-.13-.58-.17-1.42.28-1.82.63-.56,1.15.28,1.3.85.18.63.41,1.27.93,1.69.64.58,1.79.83,2.1,1.37.41.92-1.09,1.24-1.74,1.02l-.11-.03Z" style="fill: #fcfbf7;"/>
  </g>
</svg>