<?xml version="1.0" encoding="UTF-8"?>
<svg id="fill_cereals" xmlns="http://www.w3.org/2000/svg" viewBox="0 0 128 128">
  <g>
    <path d="M40.69,18.72c1.49-3.5,2.72-6.42,3.98-9.33,1.38-3.19,3.86-4.7,7.29-4.7,19.81,0,39.61-.03,59.42.02,5.57.01,9.16,5,7.21,10.19-1.75,4.68-3.9,9.22-6.09,14.32v22.42c-.06-.01-.12-.03-.17-.04.22,1.8.61,3.6.62,5.4.06,11.01.39,22.04-.09,33.04-.36,8.14.51,16.22.17,24.34-.27,6.22-2.88,8.96-9.07,8.95-19.23-.02-38.45,0-57.68-.03-1.71,0-3.42-.31-5.09-.2-6.33,0-12.66.24-18.97-.11-2.91-.16-5.13-2.56-5.27-5.41-.33-6.64-.11-13.32-.06-19.98,0-.64.38-1.29.19-1.93v-44.11s.08.01.11.02c-.17-1.8-.47-3.6-.48-5.41-.03-5.41.08-10.82.05-16.22,0-.8-.28-1.67-.66-2.39-1.98-3.75-4.06-7.44-6.05-11.18-3.12-5.86.26-11.62,6.85-11.68,3.77-.03,7.54.02,11.3-.01,3.34-.03,5.68,1.48,7.23,4.39,1.62,3.04,3.3,6.05,5.26,9.64Z" style="fill: #4a3726; stroke-width: 0px;"/>
    <path d="M105.32,55.33v36.47c-7.68,0-54.06.12-60.37.12v-36.55c3.11,0,50.29-.05,60.37-.05Z" style="fill: #d3cb8c; stroke-width: 0px;"/>
    <path d="M105.29,115.82h-60.32v-16.38h60.32v16.38Z" style="fill: #7fa95f; stroke-width: 0px;"/>
    <path d="M105.36,31.51v16.02h-60.45v-16.02h60.45Z" style="fill: #7fa95f; stroke-width: 0px;"/>
    <path d="M46.69,23.74c1.74-4.13,3.29-7.82,4.8-11.42h60.06c-1.67,3.99-3.22,7.67-4.79,11.42h-60.07Z" style="fill: #7fa95f; stroke-width: 0px;"/>
    <path d="M37.42,55.32v36.48h-13.22v-36.48h13.22Z" style="fill: #d3cb8c; stroke-width: 0px;"/>
    <path d="M24.18,31.48h13.24v16.28h-13.24v-16.28Z" style="fill: #7fa95f; stroke-width: 0px;"/>
    <path d="M37.37,99.42v16.33h-13.25v-16.33h13.25Z" style="fill: #7fa95f; stroke-width: 0px;"/>
    <path d="M22.4,23.61c-1.87-3.52-3.83-7.19-5.99-11.25h12.27c1.94,3.53,3.95,7.21,6.17,11.25h-12.45Z" style="fill: #7fa95f; stroke-width: 0px;"/>
  </g>
  <g>
    <path d="M86.44,64.6c1.04,3.48,2.76,6.84,1.57,10.6-.84,2.68-3.51,4.03-5.65,3.12-1.9-.81-3.08-3.67-2.25-6.14,1.02-3.06,3.33-5.25,5.56-7.46.11-.1.36-.06.77-.12Z" style="fill: #4a3726; stroke-width: 0px;"/>
    <path d="M77.92,53.62c.56.79,1.11,1.44,1.5,2.18.95,1.78,1.92,3.56,2.7,5.41.73,1.72.32,3.47-.65,4.98-1.59,2.49-4.73,2.58-6.33.09-.69-1.07-1.04-2.48-1.13-3.77-.14-2.06,2.15-7.05,3.91-8.89Z" style="fill: #4a3726; stroke-width: 0px;"/>
    <path d="M56.95,66.31c3.48,0,7.07-.79,10.32,1.19.85.52,1.59,1.44,2.04,2.34.86,1.72.52,3.32-.64,4.37-1.38,1.26-3.83,1.48-5.7.46-2.53-1.37-3.86-3.82-5.4-6.08-.39-.56-.64-1.22-.95-1.83.11-.15.22-.3.33-.46Z" style="fill: #4a3726; stroke-width: 0px;"/>
    <path d="M62.34,50.74c3.21,1.96,7.28,2.85,8.72,7.05.84,2.45.09,4.49-1.71,5.4-1.7.86-4.28.17-5.56-1.81-.76-1.16-1.24-2.6-1.49-3.98-.38-2.08-.44-4.22-.63-6.33.23-.11.46-.22.69-.33Z" style="fill: #4a3726; stroke-width: 0px;"/>
    <path d="M94.46,75.83c.59,2.84.42,5.58.02,8.34-.26,1.75-1.23,3.03-2.61,3.98-1.36.94-2.87,1.14-4.35.25-1.55-.94-2.01-2.53-1.74-4.14.21-1.22.68-2.66,1.54-3.46,1.87-1.76,4.06-3.19,6.14-4.73.21-.15.54-.13,1-.23Z" style="fill: #4a3726; stroke-width: 0px;"/>
    <path d="M68.1,91.77c2.87-2.05,5.35-3.69,8.29-4.42,2.49-.62,5.28.6,6.04,2.52,1.12,2.82-1.25,5.75-4.73,5.75-2.69,0-4.99-1.3-7.3-2.48-.68-.35-1.32-.79-2.3-1.38Z" style="fill: #4a3726; stroke-width: 0px;"/>
    <path d="M62.12,78.8c3.17-.7,5.93-1.56,8.74-1.82,1.3-.12,2.86.71,4.04,1.51,1.43.97,1.8,2.89,1.25,4.27-.61,1.54-2.44,2.73-4.46,2.62-1.07-.06-2.28-.26-3.14-.84-1.94-1.3-3.72-2.86-5.53-4.36-.3-.24-.45-.67-.91-1.38Z" style="fill: #4a3726; stroke-width: 0px;"/>
  </g>
</svg>