<?xml version="1.0" encoding="UTF-8"?>
<svg id="uuid-3c451aa1-0341-4912-bfa4-fb41a5b481ef" data-name="fill_roundbalestraw" xmlns="http://www.w3.org/2000/svg" viewBox="0 0 128 128">
  <path d="M44.58,19.12c2.43-4.41,6.16-5.3,10.48-5.27,12.35.08,24.7.22,37.04-.04,10.65-.22,18.17,4.62,23.45,13.42,5.24,8.73,7.34,18.45,8.1,28.44,1.15,14.97-.08,29.65-7,43.32-3.9,7.7-9.66,13.35-18.52,15.02-1.43.27-2.93.29-4.39.29-13.82.02-27.64-.05-41.46.05-3.71.03-6.95-.68-9.52-3.72-4.03,4.79-9.07,4.21-14.11,2.66-8.21-2.53-13.86-8.3-17.19-15.86C1.11,73.94,1.27,50.47,13.31,27.56c3.48-6.62,9.2-11.17,16.6-13.1,5.65-1.48,11.1-1.7,14.67,4.66Z" style="fill: #4a3726; stroke-width: 0px;"/>
  <path d="M52.9,22.53h7.76c10.3,0,20.61.28,30.9-.09,8.38-.3,13.62,3.7,17.33,10.64,3.97,7.43,5.57,15.54,6.12,23.75.75,11.19.29,22.42-3.93,33.04-1.48,3.73-3.28,7.62-5.94,10.52-2.18,2.39-5.79,4.75-8.85,4.85-15.02.49-30.06.22-45.36.22,2.65-3.35,5.49-6.26,7.54-9.65,6.72-11.13,8.43-23.34,7.37-36.17-.87-10.51-3.54-20.43-8.51-29.71-1.22-2.27-2.64-4.43-4.43-7.4Z" style="fill: #d5bd77; stroke-width: 0px;"/>
  <path d="M13.17,64.27c-.37-9.49,1-18.7,4.85-27.39,2.6-5.86,6.03-11.09,12.47-13.56,5.44-2.09,11.23-.61,14.87,3.95,6.9,8.63,10.27,18.5,11.42,29.47,1.1,10.48-.35,20.39-4.21,30.06-2.67,6.68-7.1,12.06-12.68,16.45-4.32,3.39-8.84,3.03-13.61-.63-5.64-4.33-8.7-10.41-10.32-17.02-1.71-6.94-3.1-21.28-2.81-21.33Z" style="fill: #a89058; stroke-width: 0px;"/>
  <path d="M30.91,57.96c-7.26,4.06-5.48,22.85,1.12,26.94,3.02.71,5.43-.5,6.83-3.09,5.97-11.06,6.99-22.46,1.84-34.16-1.82-4.14-4.94-6.62-9.39-7.49-.87-.17-1.68-.61-2.37-.86-2.43-5.01-.77-7.7,4.52-7.21,5.95.54,10.64,3.7,13.24,8.91,7.63,15.26,7.67,30.64-.71,45.69-5.65,10.14-20.71,8.1-24.72-1.52-4.33-10.36-5.17-20.54.69-30.5,2.82-4.79,7.15-6.27,11.78-4.8,3.93,1.25,6.72,5.39,6.55,10.41-.12,3.35-.59,6.72-1.32,9.99-.56,2.49-2.4,3.89-5.11,3-2.58-.85-3.45-2.88-2.82-5.4.81-3.26,2.11-6.46-.13-9.89Z" style="fill: #4a3726; stroke-width: 0px;"/>
</svg>