<?xml version="1.0" encoding="UTF-8"?>
<svg id="uuid-9f3d9e8a-a863-4cb7-9750-4edf571991d4" data-name="fill_seedtreatingliquid" xmlns="http://www.w3.org/2000/svg" viewBox="0 0 128 128">
  <path d="M44.96,26.32c0-3.96-.04-7.84,0-11.71.07-5.97,3.45-9.28,9.39-9.29,6.49,0,12.97-.01,19.46,0,5.61.01,9.05,3.36,9.17,8.99.08,3.96.02,7.93.02,12.12,5.1,1.72,9.58,4.77,12.77,9.56,2.35,3.52,3.52,7.4,4.07,11.6,2.03,15.56.68,31.17.93,46.76.1,6.05-.5,12.13-1.04,18.17-.49,5.49-5.5,10.09-11.09,10.12-16.43.09-32.87.09-49.3,0-5.69-.03-10.78-4.76-11.15-10.34-.5-7.6-.93-15.22-1.05-22.84-.17-11.33-.25-22.66.05-33.99.12-4.57.93-9.23,2.16-13.64,2.03-7.25,6.78-11.59,15.58-15.5Z" style="fill: #4a3726; stroke-width: 0px;"/>
  <path d="M93.94,95.58h-59.86v-39.8h59.86v39.8Z" style="fill: #96a775; stroke-width: 0px;"/>
  <path d="M92.64,46.4h-57.45c.19-.97.24-1.81.52-2.56,2.53-6.74,7.31-11.15,14.53-11.52,9.22-.46,18.5-.39,27.72,0,7.47.32,14.01,6.9,14.67,14.08Z" style="fill: #d6d6d5; stroke-width: 0px;"/>
  <path d="M93.14,104.69c0,2.05.04,3.95,0,5.84-.09,3.56-1.94,5.4-5.52,5.41-10.82.03-21.63.01-32.45.01-4.93,0-9.86.02-14.8,0-3.59-.02-5.44-1.85-5.52-5.41-.05-1.89,0-3.78,0-5.84h58.31Z" style="fill: #d6d6d5; stroke-width: 0px;"/>
  <path d="M52.62,12.06c7.26,0,14.34,0,21.41,0,1.61,0,2.36.88,2.37,2.43.01,2.76.03,5.53,0,8.29-.02,1.77-.98,2.73-2.75,2.73-6.48.02-12.96.1-19.43-.1-.89-.03-2.4-1.39-2.49-2.25-.31-2.99-.18-6.03-.08-9.05.02-.67.62-1.32.98-2.05Z" style="fill: #589058; stroke-width: 0px;"/>
  <path d="M67.17,74.15v8.09c1.95.54,3.86.83,5.54,1.6,1.35.62,2.67,1.65,3.56,2.83,1.33,1.75.75,3.57-1.28,4.44-1.49.63-3.14,1.24-4.72,1.25-4.99.02-10-.09-14.97-.47-1.8-.14-4.01-.76-4.18-3.16-.16-2.26,1.42-3.71,3.31-4.52,1.95-.85,4.06-1.32,6.33-2.03v-7.93c-9.48-2.37-13.69-8.04-11.22-15.03,5.41-2.44,10.9.1,14.09,6.29,2.04-1.96,3.91-4.34,6.3-5.92,2.49-1.64,5.51-1.86,8.36-.56,2.84,6.93-1.89,13.39-11.13,15.13Z" style="fill: #4a3726; stroke-width: 0px;"/>
</svg>