<?xml version="1.0" encoding="UTF-8"?>
<svg id="fill_spelt" xmlns="http://www.w3.org/2000/svg" viewBox="0 0 128 128">
  <path d="M31.52,74.89c-1.53-2.89-3.06-5.5-4.32-8.24-2.61-5.7-1.9-7.07,4.23-8.67-1.55-3.07-3.22-6.08-4.6-9.21-2.07-4.7-1.06-6.45,4.02-7.42.41-.08.82-.18,1.12-.24-1.57-4.43-3.29-8.72-4.61-13.14-1.38-4.63.14-6.51,5.05-6.53,6.51-.03,12.63,1.61,18.17,4.79,1.2-4.14,1.99-8.3,3.63-12.1,1.44-3.32,3.62-6.39,5.87-9.27,2.26-2.9,4.7-2.7,6.98.23,4.79,6.17,8.09,13.02,9.01,20.37,5.4-1.32,10.66-2.65,15.94-3.86,1.14-.26,2.38-.2,3.56-.13,4.06.27,5.5,2.07,4.35,5.98-1.33,4.53-3.02,8.95-4.58,13.51-.02-.01.13.2.3.22,7.14.97,8.03,2.53,4.97,9.1-1.18,2.54-2.6,4.96-4.05,7.71.72.17,1.39.31,2.05.5,3.4.98,4.48,2.85,3.1,6.07-1.48,3.46-3.27,6.78-5.02,10.34.73.19,1.52.37,2.3.62,3.01.96,3.93,2.75,2.81,5.72-4.58,12.22-14.33,24.41-32.89,23.24-.32-.02-.64.08-1.42.18,0,4.36,0,8.76,0,13.17,0,1.19.03,2.39-.03,3.57-.12,2.26-1.27,3.74-3.58,3.81-2.48.08-3.84-1.39-3.9-3.81-.09-4.33-.04-8.66-.05-13,0-1.17,0-2.34,0-3.54-3.58-.37-6.95-.39-10.16-1.1-12.78-2.84-19.6-11.94-23.81-23.49-.98-2.68.74-4.2,5.55-5.39ZM92.18,29.54c-11.18.4-21,8.85-23.3,19.55,1.54-.59,2.81-.96,3.98-1.54,3.27-1.64,6.5-3.34,9.72-5.07,1.02-.55,2.27-1.05,2.86-1.95,2.24-3.38,4.25-6.9,6.73-11ZM63.42,13.45c-6.27,8.11-6.02,20.04.39,26.63,2.57-4.05,5.78-7.79,4.77-13.23-.89-4.8-2.2-9.34-5.16-13.41ZM58.32,49.28c-2.3-10.94-13.34-20.27-22.48-19.44.62,1.55,1.12,3.07,1.8,4.5,2,4.16,4.39,7.69,9.48,8.85,2.72.62,5.12,2.66,7.66,4.07.98.54,1.95,1.11,3.53,2.02ZM57.58,96.72c-3.61-8.9-13.72-15.26-21.93-14,3.28,8.79,12.84,14.98,21.93,14ZM92.52,82.55c-9.71-.21-19.18,5.98-21.82,14.06,8.13,1.55,18.33-4.95,21.82-14.06ZM70.68,62.79c6.11.73,21.21-6.25,21.56-14.03-9.62-.13-18.92,5.92-21.56,14.03ZM92.95,65.72c-10.03-.44-20.63,6.51-22.22,14.4,1.34-.09,2.72.1,3.87-.33,2.31-.86,4.4-2.51,6.76-3.03,6.04-1.34,8.54-6.02,11.59-11.03ZM57.41,62.79c-2.75-8.3-13.29-14.99-21.75-13.82,2.89,7.93,14.47,15.29,21.75,13.82ZM35.54,65.69c3.19,8.15,15.02,15.57,21.89,13.93-3.1-8.36-12.28-14.26-21.89-13.93Z" style="fill: #4a3726; stroke-width: 0px;"/>
  <path d="M92.18,29.54c-2.48,4.09-4.49,7.62-6.73,11-.59.89-1.84,1.4-2.86,1.95-3.22,1.73-6.46,3.43-9.72,5.07-1.17.59-2.44.96-3.98,1.54,2.3-10.7,12.12-19.15,23.3-19.55Z" style="fill: #ad996e; stroke-width: 0px;"/>
  <path d="M63.42,13.45c2.96,4.06,4.27,8.61,5.16,13.41,1.01,5.44-2.2,9.18-4.77,13.23-6.41-6.6-6.66-18.53-.39-26.63Z" style="fill: #ad996e; stroke-width: 0px;"/>
  <path d="M58.32,49.28c-1.58-.9-2.54-1.47-3.53-2.02-2.54-1.41-4.94-3.45-7.66-4.07-5.1-1.16-7.48-4.7-9.48-8.85-.69-1.43-1.19-2.95-1.8-4.5,9.13-.84,20.18,8.5,22.48,19.44Z" style="fill: #ad996e; stroke-width: 0px;"/>
  <path d="M57.58,96.72c-9.09.98-18.65-5.2-21.93-14,8.21-1.27,18.32,5.09,21.93,14Z" style="fill: #ad996e; stroke-width: 0px;"/>
  <path d="M92.52,82.55c-3.49,9.11-13.69,15.61-21.82,14.06,2.64-8.09,12.11-14.27,21.82-14.06Z" style="fill: #ad996e; stroke-width: 0px;"/>
  <path d="M70.68,62.79c2.65-8.12,11.94-14.16,21.56-14.03-.36,7.78-15.45,14.76-21.56,14.03Z" style="fill: #ad996e; stroke-width: 0px;"/>
  <path d="M92.95,65.72c-3.05,5.01-5.55,9.69-11.59,11.03-2.36.52-4.45,2.17-6.76,3.03-1.15.43-2.53.24-3.87.33,1.59-7.88,12.19-14.84,22.22-14.4Z" style="fill: #ad996e; stroke-width: 0px;"/>
  <path d="M57.41,62.79c-7.28,1.47-18.86-5.89-21.75-13.82,8.46-1.18,19,5.52,21.75,13.82Z" style="fill: #ad996e; stroke-width: 0px;"/>
  <path d="M35.54,65.69c9.62-.34,18.79,5.57,21.89,13.93-6.88,1.64-18.71-5.78-21.89-13.93Z" style="fill: #ad996e; stroke-width: 0px;"/>
</svg>