<?xml version="1.0" encoding="UTF-8"?>
<svg id="uuid-271a55a4-8a5e-4ebe-90b5-1c85642ebe77" data-name="fill_pike" xmlns="http://www.w3.org/2000/svg" viewBox="0 0 128 128">
  <path d="M126.66,79.68c.15,5.46-3.4,10.04-8.29,10.69-.47.07-.96.1-1.45.1-1.28,0-2.42-.22-3.37-.48-.08.14-.16.27-.22.38-.4.69-.86,1.47-1.38,2.23-5.27,8.21-13.11,13.17-18.87,15.92.57,1.3,1.04,2.84,1.14,4.58.16,3.41-1,6.6-3.27,8.99-2.6,2.73-6.57,4.29-10.9,4.29-2.15,0-4.29-.39-6.22-1.13-3.7-1.19-6.55-3.32-9.07-5.2-2.22-1.65-4.13-3.07-5.91-3.33-.06-.01-.12-.02-.18-.03-.29-.05-.64-.07-1.03-.07-1.23,0-2.76.24-4.37.5-1.24.2-2.53.41-3.88.54-1.86.23-3.79.34-5.91.34-2.49,0-4.86-.15-6.85-.3-.17-.01-.34-.03-.51-.05-1.06-.16-3.47-.22-5.8-.27-10.88-.24-25.78-.57-27.58-11.35-.06-.33-.09-.65-.1-.98-.04-2.28.72-4.09,1.61-5.47-.34-.47-.68-.99-.97-1.57-1.37-2.73-1.32-5.78.15-8.39,1.93-3.48,5.52-5.03,8.05-5.9.05-.01.1-.03.15-.04,2.08-.66,4.31-1.21,6.46-1.75,5.05-1.25,10.27-2.54,13.01-5.01.22-.35.54-1.09.76-1.61.46-1.05,1.03-2.35,1.87-3.64,2.25-3.59,6.18-5.64,10.8-5.64,1.68,0,3.41.29,5.01.83,1.55.51,2.93,1.14,4.15,1.7,1.21.56,2.36,1.08,3.35,1.32.61.16,1.36.24,2.23.24,2.16,0,4.67-.48,7.34-.97.93-.18,1.85-.35,2.75-.5l.59-.13c5.01-1.08,5.12-1.15,6.28-3.6.13-.27.27-.53.43-.78.96-1.49,2.03-2.7,3.28-3.69,2.11-1.66,4.42-2.46,6.28-3.1.04-.02.08-.03.12-.05-1.11-.4-2.3-.98-3.47-1.85-2.68-1.95-4.56-4.82-5.18-7.89-.15-.66-.22-1.31-.24-1.94-2.77,1.2-5.9,2.49-9.49,2.49-3,0-5.76-.91-8.2-2.72-.38-.28-.72-.59-1.03-.94-5.37-6.03-3.05-13.34-1.52-18.18.53-1.66,1.12-3.54,1.14-4.53,0-.28.02-.55.06-.82.12-.86.17-1.9.22-3,.13-2.58.28-5.49,1.33-8.25,1.59-4.55,5.48-7.36,10.19-7.36,2.92,0,5.83,1.1,8.22,3.11,3.06,2.4,5.22,5.41,7.12,8.07.6.83,1.18,1.64,1.77,2.4,1.19-1.16,2.79-2.19,4.94-2.65,1.01-.26,2.08-.39,3.19-.39,3.02,0,6.23.98,8.8,2.67,4.78,3.09,6.43,7.91,7.64,11.44.38,1.1.74,2.13,1.12,2.94.03.06.06.13.09.19.52,1.2,1.32,2.52,2.17,3.91,1.21,1.99,2.58,4.24,3.57,6.85,2.12,5.41,2.96,11.84,2.56,19.63-.07,1.54-.11,3.14.1,4.3.02.13.04.25.05.38.13,1.05.93,2.53,1.78,4.09,1.48,2.73,3.32,6.13,3.39,10.43Z" style="fill: #4a3726; stroke-width: 0px;"/>
  <path d="M119.88,79.83c.05,1.64-.81,3.61-2.43,3.81-.17.03-.35.04-.53.04-1.68,0-3.44-1.02-5-1.02-.63,0-1.23.16-1.78.63-1.6,1.35-2.61,3.77-3.85,5.56-3.84,6.02-9.88,10.6-16.38,13.66-2.14,1.15-6.4,2.39-4.86,5.27.63,1.44,2.27,3.51,2.39,5.65.2,4.2-3.57,6.16-7.39,6.16-1.37,0-2.74-.25-3.94-.74-5.99-1.84-9.92-7.93-16.29-8.85-.71-.12-1.44-.17-2.18-.17-2.93,0-6.01.8-9,1.09-1.72.21-3.44.29-5.16.29-2.12,0-4.23-.12-6.34-.28-5.97-.9-26.54.96-27.71-6.02-.04-2.11,2.78-3.53,3.09-5.26v-.08c-.22-2.3-4.57-4.19-3.17-6.63.77-1.41,2.76-2.25,4.33-2.79,7.2-2.28,17.08-3.32,22.47-8.65,1.53-1.78,2.03-4.25,3.3-6.17,1.08-1.76,3.05-2.51,5.08-2.51.97,0,1.96.17,2.87.48,2.72.89,5.19,2.48,7.98,3.17,1.24.31,2.55.44,3.89.44,3.71,0,7.69-.98,11.38-1.59,5.87-1.28,9-1.73,11.72-7.51.48-.74,1.03-1.43,1.78-2.02,2.26-1.79,5.72-2.12,8.06-3.69,2.66-1.69,4.46-5.75,2.86-8.63-1.9-2.39-5.35-1.39-8.19-3.5-1.26-.91-2.26-2.28-2.54-3.81-.84-3.52,3.91-7.9-.63-8.89-.45-.09-.91-.13-1.37-.13-4.78,0-9.71,4.18-14.38,4.18-1.41,0-2.8-.38-4.16-1.39-4.32-4.84,1.26-12.42,1.34-18.1.44-3.24.12-7.09,1.2-9.84.68-2.02,2.17-2.89,3.81-2.89,1.33,0,2.76.57,3.93,1.58,4.93,3.82,7.32,10.52,12.54,14.09.59.36,1.08.51,1.49.51,2.31,0,2.34-4.83,5.64-5.43.5-.14,1.06-.21,1.64-.21,1.69,0,3.6.58,5.08,1.57,3.99,2.55,4.46,7.63,6.35,11.6,1.55,3.56,4.21,6.74,5.62,10.48,2.08,5.27,2.41,11.2,2.12,16.86-.09,1.94-.14,3.98.19,5.83.61,4.96,5.06,8.84,5.13,13.85Z" style="fill: #beb696; stroke-width: 0px;"/>
  <ellipse cx="27.71" cy="90.64" rx="2.58" ry="1.47" style="fill: #4a3726; stroke-width: 0px;"/>
</svg>