<?xml version="1.0" encoding="UTF-8"?>
<svg id="uuid-8d4e1000-4722-4d3c-bb68-6ed2cefcccdd" data-name="fill_stone" xmlns="http://www.w3.org/2000/svg" xmlns:xlink="http://www.w3.org/1999/xlink" viewBox="0 0 128 128">
  <defs>
    <linearGradient id="uuid-fbccac99-0ea3-4c56-8930-48d1b49d6510" x1="-167.87" y1="-546.87" x2="-168.02" y2="-394.87" gradientTransform="translate(148 296) scale(.5)" gradientUnits="userSpaceOnUse">
      <stop offset="0" stop-color="#9b9689"/>
      <stop offset="1" stop-color="#5e584d"/>
    </linearGradient>
  </defs>
  <path d="M88.34,30.66c1.37,1.39,1.97,4.8,3.46,6.79s3.67,2.8,4.93,4.57,1.68,4.75,3.05,6.45c1.2,1.48,3.62,2.66,4.95,4.55,1.19,1.68,1.53,3.88,2.55,5.45,1.22,1.87,4.08,3.63,5.45,5.55,1.21,1.69,1.71,4.16,2.77,5.73s3.73,3.02,4.74,4.26c1.13,1.39,2.13,5.12,3.25,6.62.61.82,2.6,1.46,2.95,2.72.3,1.08-.6,2.19-.44,3.36s1.23,1.53,1.05,3.54c-.15,1.77-1.61,2.41-1.93,3.61-.24.92.04,1.94-.21,2.79-.36,1.25-2.26,1.52-3.17,2.33-.75.67-1.07,1.8-1.98,2.52-1.82,1.44-2.71.66-4.48,1.02-1.07.21-1.91,1.24-3.09,1.32-2.1.15-5.37-1.19-7.41-.84-.94.16-1.63,1.05-2.65,1.37-3.19.98-7.37,2.17-10.6,2.89-1.81.41-4.07,1.09-5.25-.79-.54-.85-.6-2.81-1.25-3.25-.22-.15-4.76-.74-5.25-.71-3,.16-3.62,5.2-6.57,5.48-1.52.14-7.25-1.71-9.21-2.24s-9.7-3.38-10.9-2.66c-.23.14-.36,1.09-.79,1.44-1.84,1.5-17.65,2.33-21.05,3.5-2.55.33-4.48-3.98-6.1-4.44-1.2-.34-7.56-1.02-8.91-1.01s-3.07,1.21-4.39.84c-.89-.25-1.51-1.69-2.39-2.15-1.39-.73-3.42-.37-4.49-2.01-.63-.96-.48-2.14-.94-2.94-.39-.67-2.05-.9-2.43-2.19-.45-1.51.25-2.75.17-3.92-.14-2.07-2.05-2.11-.37-5.08,1.41-2.49,1.1-2.88,1.98-5.02.74-1.79,3.6-2.94,4.84-4.66,1.34-1.84,2.07-4.97,3.35-6.65,1.05-1.39,3.42-2.6,4.65-4.35s1.84-4.22,3.06-5.94c1.31-1.84,4.04-3.53,5.23-5.27,1.06-1.57,1.57-4.03,2.77-5.73,1.34-1.88,3.79-3.08,4.95-4.55,1.29-1.62,1.67-4.56,3.05-6.45,1.23-1.68,3.29-2.59,4.71-4.29s2.16-4.4,3.75-5.75,3.79-1.63,5.42-2.58,4.11-3.45,5.69-3.81c1.92-.43,4.37.09,6.4-.1s3.77-1.22,6-1.02c1.99.17,3.49,1.7,5.25,2.27,2,.66,5.25.61,6.97,1.53.99.53,3.14,3.79,4.52,4.98,1.24,1.06,3.42,1.97,4.34,2.91Z" style="fill: #0b0d0d;"/>
  <path d="M86.35,32.64c1.2,1.31,2.12,5.23,3.41,6.84s3.83,3.36,5.15,5.35c.99,1.48,1.33,3.68,2.06,4.82,1.03,1.58,4.19,3.53,5.25,4.87,1.26,1.58,1.58,4.54,2.84,6.16,1.19,1.54,3.81,2.95,5.15,4.85,1.22,1.72,1.84,4.22,3.06,5.94,1.31,1.84,4.07,3.26,5.14,4.84,1.18,1.74,1.54,4.29,2.65,5.87.69.98,2.14,1.5,2.35,2.15.32.97-.07,2.32.09,3.4.14.89,1,1.79.89,2.43-.12.73-1.55,1.77-1.79,2.7s.1,2.64-.19,3.06c-.19.27-2.15.65-2.78,1.22-.54.49-.96,2.09-1.24,2.25-.63.37-2.2-.05-3.14.11-1.21.21-1.79,1.41-3.52,1.52-1.94.12-4.14-.98-6.24-.54.95-3.12,3.71-6.44,1.94-9.68-.87-1.6-12.03-9.32-13.66-9.34-1.5-.02-12.09,3.46-12.3,4.37.38,5.06,2.61,9.7,3.52,14.65l-4.5-.5c-.7-.62,3.39-2.97,1.53-5.78l-14.4-9.6c-2.39.12-10.73-.86-12.15.62-1.2,1.25-1,8.17-2.39,10.13-.12,1.18,1.04,2.26-.35,3.12-1.98-.83-1.96-3.45-3.16-5.33-1.33-2.09-12.54-8.92-15.44-10.56-.68-.39-2.39-1.42-2.98-1.49-1.17-.13-9.74,6.09-10.08,7.25l1.41,12.14c-1.81.2-3.43-.48-5.23-.52-1.42-.03-4.17.67-4.91.46s-1.19-1.25-1.89-1.65c-.94-.55-2.63-.55-3.21-1.29-.4-.52-.39-1.54-.82-2.18-.55-.8-2.22-2.05-2.33-2.62s.45-1.56.42-2.43c-.03-1.19-1.08-2.75-.94-3.45.12-.6,1.37-1.31,1.69-2.29s.05-2.07.48-3.02c.5-1.12,3.93-3.59,4.96-5.04,1.22-1.71,1.83-4.31,3.06-5.94,1.14-1.51,3.12-2.31,4.43-4.07,1.4-1.88,1.8-4.12,3.07-5.93,1.38-1.95,4.06-3.61,5.44-5.56,1.19-1.68,1.52-3.88,2.55-5.45,1.23-1.88,4.13-3.63,5.45-5.55,1.19-1.73,1.73-4.13,3.06-5.94,1.25-1.71,3.3-2.76,4.44-4.06,1.25-1.44,1.89-4.19,3.52-5.48.43-.34,9.08-5.26,9.61-5.39,1.06-.24,10.32-1.2,11.39-1.12.58.04,10.71,3.02,11.23,3.3.97.52,2.38,2.91,3.52,3.98,1.24,1.15,4.05,2.5,4.86,3.39Z" style="fill: url(#uuid-fbccac99-0ea3-4c56-8930-48d1b49d6510);"/>
  <path d="M50.5,102.5l-18.79,2.97c-.77-.02-6.14-5.36-6.58-6.34-.66-1.47-1.49-8.75-.87-10.12.23-.51,5.62-4.54,6.27-4.77.53-.19.83-.2,1.31.13l14.94,9.6,3.72,8.53Z" style="fill: #a69f8d;"/>
  <path d="M57.08,89.7c.05-.75.45-2.37,1.23-2.64s7.37-.2,8.32.05c1.92.51,8.9,5.85,11.21,7.31,1.03.65,1.98.18,1.66,1.8-.28,1.41-1.7,2.1-2.32,2.96-.31.44-.34,1.08-.67,1.56-1.06,1.51-2.57,2.77-3.31,4.77l-15.38-4.48c-.71-.45-2.29-6.04-1.83-6.54.1-.11,1.06-4.39,1.08-4.79Z" style="fill: #a69f8d;"/>
  <path d="M100.16,88.83c1.44,1.07,4.96,2.05,5.22,4.48.05.46-3.11,8.31-3.49,8.58l-13.35,3.07c-.64-1.97-.7-4.06-1.19-6.07s-3.45-10.76-2.63-11.92c.27-.38,8.48-2.94,8.95-2.86.62.11,4.62,2.85,5.52,3.46.51.35.68,1.04.97,1.25Z" style="fill: #a69f8d;"/>
  <path d="M57.85,89.85c.44-.58,2.48-2,2.66-.96.18,1.96.05,4.22-.48,6.09-.09.23-.2.55-.39.69-.51.45-1.98-.4-2.27-1.09-.18-.46-.01-1.25.06-2.25.08-.78.09-1.89.34-2.35l.08-.14Z" style="fill: #dedacc;"/>
  <path d="M48.36,58.65l9.14,16.14c-1.08,4.3-2.9,8.67-4.71,12.75-.3.28-.67.4-1.07.46-2.71.43-12.67-4.25-15.76-5.34-1.52-3.62,1.46-6.6,2.31-10.14.67-2.78.92-8.78,1.99-11.01.68-1.42,6.53-4.66,8.09-2.87Z" style="fill: #0b0d0d;"/>
  <path d="M63.09,79.41l1.66-11.4c.73-1.66,6.09-3.45,7.98-4.02,1.29-.39,2.99-1.08,4.27-.77s7.41,3.36,8.84,4.21c3,1.77,4.22,2.29,3.44,6.11-.25,1.24-1.79,5.62-2.55,6.45-.42.46-4.5,2.69-5.38,3.12-.81.39-3.61,1.71-4.21,1.83-1.14.22-3.61-.92-4.89-1.41s-8.87-3.63-9.14-4.1Z" style="fill: #0b0d0d;"/>
  <path d="M51.65,60.35c-.27-.35-.59-1.6-.52-2.03.15-.88,5.64-6.75,6.59-7.35,1.09-.7,9.03-.77,10.27-.21,1.07.48,5.5,7.25,5.54,8.5.05,1.39-.16,2-1.4,2.63-.94.48-12.96,3.63-13.9,3.63-2.58-.02-3.6-2.42-4.97-4.05-.47-.55-1.34-.74-1.62-1.11Z" style="fill: #0b0d0d;"/>
  <path d="M25.5,89.5c3.22-.89,3.7,8.69,2.24,9-2.28.48-2.26-7.45-2.24-9Z" style="fill: #dedacc;"/>
  <path d="M90.46,97.45c-1.53.65-2.11.79-2.72-.94-.37-1.04-1.73-5.9-1.76-6.77-.04-.92-.07-1.65.78-2.23.74-.15,1.35.79,1.61,1.38.43.96,2.37,8.2,2.09,8.57Z" style="fill: #dedacc;"/>
  <path d="M41.5,71c.59-4.17-.11-9.84,5.46-9.97.27.19,2.37,5.12,2.83,5.92,1.28,2.21,4.94,6.72,4.61,9.16-.09.72-2.61,7.59-2.96,8.08s-.52.77-1.21.83c-1.99.17-9.14-3.75-11.7-4.07-.26-.36,1.59-7.07,2.96-9.96Z" style="fill: #a69f8d;"/>
  <path d="M41.85,71.21c.76-1.36,1.11-3.18,2.26-4.25,1.61-.32,1.42,3.46,1.26,5.52-.17,2.46-1.4,7.15-3.87,7.63-2.2-.55-.52-7.36.28-8.75l.07-.16Z" style="fill: #dedacc;"/>
  <path d="M87,71c.31.2-1.83,6.49-2.27,6.98-.39.45-6.43,3.79-7.11,3.92-2.79.54-7.8-3.04-10.79-3.49l-.8-.74,1.79-9.2c2.39-.06,6.27-2.61,8.39-2.47,2.86.19,7.6,4.88,10.78,5Z" style="fill: #a69f8d;"/>
  <path d="M57,61.5c-1.11-.82-2.07-1.73-2.99-2.75,1.91-1.43,4.43-5.52,6.72-5.78.86-.1,5.8-.1,6.18.13.48.28,3.15,5.57,4.09,6.4-.47.4-10.94,3-12,3.01.21-2.36-2.7-6.54-1.2-1.91l-.8.91Z" style="fill: #a69f8d;"/>
  <path d="M59,62.5c-1.74,0-1.28-.46-2-1-.18-1.25-2.17-4.68.67-3.93,1.92.51,2.72,3.4,1.33,4.93Z" style="fill: #dedacc;"/>
  <path d="M69.77,70.02c2.82-.84,1.17,4.77.62,6.13-.64,1.58-2.45,1.08-2.37-.82.04-.91.96-5.07,1.75-5.3Z" style="fill: #dedacc;"/>
</svg>