<?xml version="1.0" encoding="UTF-8"?>
<svg id="uuid-35dbab36-fc7b-495e-89d8-702af19f8663" data-name="fill_armoire" xmlns="http://www.w3.org/2000/svg" viewBox="0 0 128 128">
  <path d="M43.47,115.94c-.09.3-.16.4-.15.5.62,9.36-2.14,10.55-11.11,10.66-9.3.11-11.11-2.53-10.74-10.84.19-4.28,0-8.57.06-12.86.02-1.39.29-2.78.26-4.15V21.49c-3.99-2.63-7.68-11.28-6.85-15.61.49-2.53,3.58-5,6.74-4.97,21.32.18,42.64.09,63.96.09,6.81,0,13.63,0,20.44,0,4.98,0,7.83,2.62,6.94,7.48-.86,4.71-1.36,9.98-6.74,12.95v77.48c.09,0,.17-.01.26-.02,0,7.55.18,15.1-.08,22.64-.12,3.29-2.97,5.37-6.31,5.41-2.86.04-5.71.02-8.57,0-4.4-.02-6.75-2.41-6.78-6.88,0-1.31,0-2.62,0-4.13h-41.34Z" style="fill: #4a3726; stroke-width: 0px;"/>
  <path d="M99.12,95.7h-31.83V21.63h31.83v74.06Z" style="fill: #a5805b; stroke-width: 0px;"/>
  <path d="M60.29,21.7v73.95h-31.39V21.7h31.39Z" style="fill: #a5805b; stroke-width: 0px;"/>
  <path d="M36.58,110.83v9.22h-7.54v-17.3h70.03v17.31h-7.67c0-1.76.01-3.57,0-5.38-.04-4.12-1.6-6.11-5.6-6.14-14.49-.12-28.99-.13-43.48.06-1.93.03-3.84,1.45-5.75,2.22Z" style="fill: #7b5b3b; stroke-width: 0px;"/>
  <path d="M106.26,7.88c-.79,2.47-1.44,4.5-2.14,6.7H23.95c-.65-2.04-1.33-4.15-2.14-6.7h84.46Z" style="fill: #7b5b3b; stroke-width: 0px;"/>
  <path d="M51.45,45.21c5.52,0,5.52,16.55,0,16.55s-5.52-16.55,0-16.55Z" style="fill: #4a3726; stroke-width: 0px;"/>
  <path d="M76.83,45.21c5.52,0,5.52,16.55,0,16.55s-5.52-16.55,0-16.55Z" style="fill: #4a3726; stroke-width: 0px;"/>
</svg>