<?xml version="1.0" encoding="UTF-8"?>
<svg id="uuid-f5ce575c-46a9-4e90-9b5e-7a1b48936c8d" data-name="fill_beer" xmlns="http://www.w3.org/2000/svg" viewBox="0 0 128 128">
  <path d="M63.9,2.47c10.52,0,21.04.13,31.56-.07,3.59-.07,6.13,1.37,7.65,4.23,7.2,15.38,15.54,31.13,14.5,48.66-.25,3.87.74,7.82.61,11.71.13,19.78-5.82,38.58-16.24,55.31-1.27,2.36-3.49,3.31-6.2,3.3-21.25-.03-42.49-.03-63.74,0-2.7,0-4.79-.99-6.23-3.28-8.39-15.21-16.16-31.87-15.43-49.6-1.33-16.03-.76-32.6,5.45-47.76,2.55-6.18,5.67-12.13,8.73-18.09,1.63-3.18,4.31-4.57,8.11-4.49,10.41.21,20.83.07,31.24.07Z" style="fill: #4a3726; stroke-width: 0px;"/>
  <path d="M90.01,52.22h-22.33c0-5.06,0-10.02,0-14.97.06-2.94.45-7.31-3.61-7.28-2.52-.08-3.88,1.35-3.9,3.84-.15,6.16.22,12.17-.17,18.35h-22.52c.99-5.15,1.95-10.1,2.91-15.04.84-2.8,1.68-6.12-1.91-6.99-2.4-.75-4.17.42-4.75,2.78-1.5,6.46-2.92,12.71-3.83,19.33h-12.18c.84-9.04,2.72-17.64,5.95-25.99h81.06c1.95,8.37,3.95,16.96,6.04,25.96h-12.48c-.99-6.14-2.02-12.54-3.69-18.61-.62-2.56-2-4.17-4.87-3.55-6.49,1.29,1.71,16.88.29,22.18Z" style="fill: #a5805b; stroke-width: 0px;"/>
  <path d="M60.21,75.85c0,5.54-.03,10.83.02,16.12-.46,2.76,1.34,5.69,4,5.97,3.23-.45,4.19-3.63,3.74-6.65.03-5.05.01-10.11.01-15.4h22.47c-.85,4.58-1.63,8.93-2.46,13.26-.65,3.08-2.75,8.11,1.9,8.93,2.36.42,3.93-.78,4.41-2.96,1.34-6.43,2.66-12.65,3.71-19.16h12.56c-2.08,8.9-4.12,17.59-6.1,26.07H24.04c-3.46-8.03-5.16-16.81-6.29-26.07h11.99c1.17,5.7,2.32,11.37,3.5,17.03.42,2.91,2.26,6.28,5.6,4.96,2.12-.74,2.82-2.53,2.3-4.81-1.27-5.64-2.45-11.3-3.74-17.26h22.8Z" style="fill: #a5805b; stroke-width: 0px;"/>
  <path d="M17.19,67.91v-7.71h93.28v7.71H17.19Z" style="fill: #7f827e; stroke-width: 0px;"/>
  <path d="M96.24,10.13c1.55,2.71,3.07,5.38,4.8,8.42H26.79c1.69-3,3.22-5.71,4.75-8.42h64.69Z" style="fill: #7f827e; stroke-width: 0px;"/>
  <path d="M32.08,117.96c-1.52-2.57-3.07-5.21-4.91-8.33h73.44c-1.76,2.99-3.34,5.69-4.89,8.33h-63.64Z" style="fill: #7f827e; stroke-width: 0px;"/>
  <g>
    <path d="M50.94,79.03c-4.51-3.18-6.83-7.39-6.32-13.04-2.48-.95-3.64-2.93-4.46-5.32-1.44-4.22-3.06-8.37-4.56-12.56-1.77-4.93-.11-8.18,4.91-9.69-.04-5.33,1.18-7.12,5.75-8.43-.11-3.87,1.22-6.31,4.06-7.41,2.96-1.15,5.57-.22,8.25,2.94,4.5-1.85,7.19-1.08,9.58,2.69,1.38-.28,2.74-.81,4.07-.77,2.77.08,4.8,1.5,5.79,4.13,1.81,4.83,3.68,9.64,5.27,14.55.56,1.74.37,3.72.59,6.43,3.67,4.98,4.35,7.64,3.01,13.36,5.13,3.17,6.95,7.94,5.95,13.68-.98,5.64-4.76,9.23-9.87,11.74.62,1.73,1.26,3.48,1.87,5.24,1.3,3.74-.36,7.48-3.9,8.83-3.64,1.39-7.45-.33-8.92-4.05-.69-1.74-1.3-3.51-1.96-5.31-5.42,1.12-10.53.81-14.94-2.79-4.38-3.58-6-9.08-4.16-14.22Z" style="fill: #4a3726; stroke-width: 0px;"/>
    <path d="M80.96,99.38c-.56.55-1.14,1.54-1.98,1.84-1.24.46-2.26-.24-2.74-1.54-1.47-4.01-2.94-8.03-4.41-12.04-1.89-5.17-3.78-10.33-5.65-15.51-.62-1.71-.2-2.8,1.18-3.36,1.29-.52,2.5.07,3.12,1.75,3.4,9.24,6.75,18.5,10.12,27.75.08.22.14.44.35,1.11Z" style="fill: #d3cb8c; stroke-width: 0px;"/>
    <path d="M49.39,66.26c7.83-.66,12.14,2.76,13.73,9.69-2.68,1.54-7.75.85-10.59-1.37-2.66-2.08-4.22-6.09-3.14-8.31Z" style="fill: #d3cb8c; stroke-width: 0px;"/>
    <path d="M81.27,87.06c-3.56-6.16-1.52-13.81,4.31-16.6,2.48,2.26,3.33,5.08,2.73,8.35-.74,4.04-3.44,6.45-7.05,8.26Z" style="fill: #d3cb8c; stroke-width: 0px;"/>
    <path d="M79.75,55.13c2.74,1.99,3.81,5.62,2.8,9.21-.93,3.31-4.41,6.77-7.11,7.07-2.97-6.31-2.28-11.25,4.3-16.28Z" style="fill: #d3cb8c; stroke-width: 0px;"/>
    <path d="M68.84,91.45c-3.74,1.22-7.19.89-10.3-1.31-2.89-2.04-4.28-4.87-3.73-8.45,5.87-1.79,12.16,2.52,14.03,9.76Z" style="fill: #d3cb8c; stroke-width: 0px;"/>
    <path d="M65.87,64.06c-4.43-.35-7-3.06-6.85-7.38.08-2.41.57-4.81,1.15-7.27,3.25,2.08,6.41,4.11,7.68,7.75.88,2.54-.5,4.77-1.98,6.9Z" style="fill: #d3cb8c; stroke-width: 0px;"/>
    <path d="M69.72,33.42c.71-.51,1.42-1.42,2.09-1.39.71.03,1.74.81,2.01,1.5,1.97,5.01,3.78,10.07,5.62,15.05-.29,1.22-.82,2.3-2.09,1.98-.77-.19-1.65-1.06-1.95-1.83-1.91-4.91-3.67-9.87-5.67-15.32Z" style="fill: #96a775; stroke-width: 0px;"/>
    <path d="M57.45,45.35c-.4-.58-1.21-1.39-1.59-2.37-1.3-3.33-2.44-6.72-3.65-10.09-.42-1.16-.85-2.31-1.27-3.47-.43-1.19-.07-2.14,1.06-2.63,1.21-.52,2.15.13,2.55,1.22,1.83,4.89,3.62,9.79,5.32,14.73.55,1.61-.31,2.7-2.43,2.61Z" style="fill: #96a775; stroke-width: 0px;"/>
    <path d="M48.26,34.89c.61,1.59,1.32,3.36,1.98,5.15,1.28,3.46,2.52,6.93,3.82,10.38.46,1.24.29,2.29-.94,2.81-1.29.54-2.17-.22-2.61-1.39-1.8-4.83-3.62-9.65-5.31-14.52-.66-1.9.39-2.78,3.06-2.43Z" style="fill: #96a775; stroke-width: 0px;"/>
    <path d="M41.82,43.12c.3.3,1.15.76,1.42,1.44,1.83,4.76,3.55,9.56,5.28,14.36.44,1.21.14,2.31-1.11,2.78-1.29.48-2.13-.28-2.57-1.47-1.74-4.73-3.48-9.46-5.18-14.2-.62-1.72.07-2.89,2.16-2.9Z" style="fill: #96a775; stroke-width: 0px;"/>
    <path d="M69.69,46.29c-.45.41-1,1.33-1.65,1.4-.66.07-1.76-.51-2.05-1.1-.9-1.83-1.51-3.8-2.22-5.73-1.11-3.02-2.24-6.04-3.3-9.08-.4-1.14-.1-2.14,1.13-2.57,1.23-.44,2.12.17,2.53,1.28,1.79,4.83,3.52,9.69,5.26,14.54.1.27.13.57.29,1.27Z" style="fill: #96a775; stroke-width: 0px;"/>
  </g>
</svg>