<?xml version="1.0" encoding="UTF-8"?>
<svg id="uuid-810f1c60-f7e1-43e4-b58d-5d89384b0c37" data-name="fill_sodiumchlorid" xmlns="http://www.w3.org/2000/svg" viewBox="0 0 128 128">
  <path d="M83.43,103.06c-6.24,4.95-14.65,5.17-17.5.05-1.3-.07-2.6-.14-4.12-.22-2.38,3.26-4.92,6.84-10.09,5.97-4.44-.74-8.08-2.73-10.34-6.92-4.49,1.95-9.09.88-13.59,1.06-4.14.16-8.3-.01-12.45.05-5.42.08-9.31-2.6-11.67-7.14-2.42-4.65-2.26-9.59.92-13.92,11.64-15.84,23.33-31.65,35.17-47.33,2.99-3.96,6.13-8.12,10.06-11,10.86-7.97,26.34-5.4,34.41,5.38,13.04,17.41,25.88,34.97,38.86,52.43,3.32,4.46,3.77,9.3,1.49,14.1-2.19,4.62-6.01,7.49-11.44,7.5-9.78.02-19.56,0-29.71,0Z" style="fill: #4a3726; stroke-width: 0px;"/>
  <path d="M73.61,51.43c-3.45-3.19-6.62-5.88-9.49-8.86-1.98-2.06-4.28-2.35-6.78-2.02-2.43.32-4.8,1.02-7.23,1.4-2.63.41-4.32,1.93-5.33,4.24-1.59,3.61-3.06,7.28-4.6,10.96-1.46.27-3.1.31-4.51.89-6.14,2.56-8.06,12.38-3.34,17,1.19,1.16,2.64,2.05,3.62,2.8-3.05,8.82-5.68,10.75.03,18.16-.8.06-1.45.14-2.09.14-5.74.01-11.48-.04-17.22.02-3.01.03-5.27-1.05-6.75-3.74-1.52-2.77-.49-5.13,1.15-7.34,7.29-9.82,14.61-19.62,21.93-29.43,5.42-7.26,10.89-14.5,16.27-21.79,7.51-10.17,22.11-10.23,29.64-.08,12.64,17.03,25.29,34.05,37.92,51.09,1.69,2.28,2.89,4.66,1.31,7.55-1.53,2.81-3.92,3.78-7.01,3.74-7.06-.08-14.13-.03-21.19-.03-.85,0-1.7,0-3.01,0,3.15-6.2,5.14-12.13,1.31-18.65,1.68-3.21,3.42-6.66,5.28-10.04,1.29-2.34,1.26-4.67.47-7.13-1.52-4.71-3.88-8.18-8.94-10.23-4.7-1.91-8.17-.26-11.43,1.34Z" style="fill: #d6d6d5; stroke-width: 0px;"/>
  <path d="M47.76,57.12c1.15-2.69,2.28-5.36,3.49-8.19,2.48-.52,4.95-1.04,7.44-1.56,2.34,2.55,4.64,5.08,7.51,8.21,1.24,12.6,1.73,26.27-2.36,39.99-.59-.85-1.19-1.56-1.64-2.36-2.41-4.37-5.01-8.66-7.1-13.18-1.47-3.17-2.26-6.66-3.32-10.01-1.33-4.19-2.62-8.4-4.02-12.9Z" style="fill: #d6d6d5; stroke-width: 0px;"/>
  <path d="M39.7,89.11c.39-1.59.79-3.27,1.22-5.03,1.96-.65,3.78-1.25,5.44-1.79,5.83,2.95,6.69,8.96,9.4,13.65-.22,1.35-.41,2.56-.61,3.79-.58.66-1.15,1.32-1.71,1.95-3.19.17-4.88-1.87-6.6-4.07-2.22-2.84-4.63-5.52-7.15-8.5Z" style="fill: #f4f8f4; stroke-width: 0px;"/>
  <path d="M82.16,73.87h-7.67c-1.08-5.23.83-10.42,1.41-15.54,4.1-2.62,4.91-2.6,9.77.13.63,1.58,1.31,3.29,2.01,5.04-1.91,3.6-3.81,7.16-5.52,10.38Z" style="fill: #f4f8f4; stroke-width: 0px;"/>
  <path d="M82.68,82.43c1.21,5.98-1.78,10.48-4.21,14.94-.82,1.5-3.66,1.88-5.87,2.92-2.49-5.79.59-10.84.12-16.16,1.67-1.16,3.31-2.29,5.14-3.55,1.61.62,3.23,1.24,4.83,1.86Z" style="fill: #f4f8f4; stroke-width: 0px;"/>
  <path d="M45.98,75.09c-1.24.35-2.07.58-2.87.8-2.24-2.27-4.45-4.5-6.82-6.91.55-1.32,1.18-2.84,1.86-4.47h4.51c1.06,3.37,2.14,6.83,3.32,10.58Z" style="fill: #f4f8f4; stroke-width: 0px;"/>
</svg>