<?xml version="1.0" encoding="UTF-8"?>
<svg id="fill_goatmilk" xmlns="http://www.w3.org/2000/svg" viewBox="0 0 128 128">
  <path d="M31.81,106.01v-44.52s.06,0,.08,0v-8.13c-7.36-6.77-4.51-17.58,5.36-20-1.5-5.39.32-9.61,4.84-12.59,3.08-12.09,11.21-18.97,22.19-18.86,8.8.09,19.13,5.73,21.63,18.82,4.38,2.93,6.45,6.94,4.84,12.59,4.53,1.14,7.94,3.64,9.11,8.29,1.17,4.67-.32,8.59-3.68,11.49v8.29s.04,0,.06,0v45.97c2.18,8.48-5.44,18.43-16.04,18.62-10.73.19-21.47.14-32.21.01-8.09-.09-14.98-6.12-16.26-14.1-.29-1.82-.04-3.73-.04-5.59.05-.1.09-.19.14-.29Z" style="fill: #4a3726; stroke-width: 0px;"/>
  <path d="M38.99,102.02v-36.75h50.06v36.75h-50.06Z" style="fill: #4883af; stroke-width: 0px;"/>
  <path d="M47.78,39.49h32.59c.83,1.36,1.7,2.78,2.67,4.37,1.43-.9,2.72-1.84,4.12-2.57,1.89-.99,3.71-.89,5.03,1,1.29,1.85.81,3.94-1.23,5.41-1.45,1.05-2.99,1.97-4.7,3.09.96,2.18,1.9,4.3,2.96,6.73h-50.48c1-2.17,1.92-4.19,3.04-6.61-1.47-.99-3.01-2.01-4.52-3.07-2.26-1.58-2.76-3.62-1.41-5.57,1.23-1.79,3.31-2.07,5.55-.71,1.13.69,2.21,1.45,3.47,2.28,1.07-1.58,2.07-3.08,2.93-4.35Z" style="fill: #aeaeae; stroke-width: 0px;"/>
  <path d="M78.89,24.67c1.33.99,2.69,1.75,3.7,2.83.69.73,1.46,2.18,1.16,2.84-.39.87-1.74,1.62-2.79,1.8-1.66.3-3.4.09-5.11.09-9.21,0-18.42,0-27.63,0-1.6,0-3.74.27-3.88-1.81-.08-1.23,1.25-2.67,2.18-3.82.62-.77,1.66-1.21,2.51-1.8.77-11.31,8.52-15.82,15.68-15.57,7.89.28,13.29,6.11,14.18,15.44Z" style="fill: #aeaeae; stroke-width: 0px;"/>
  <path d="M48.67,118.51c-5.32.14-9.21-3.29-9.68-8.74h49.85c.4,4.8-3.93,8.83-9.43,8.75-1.67.16-29.03.16-30.74,0Z" style="fill: #aeaeae; stroke-width: 0px;"/>
  <path d="M70.81,22.3h-13.44c.55-3.26,3.1-5.5,6.36-5.67,3.26-.17,5.91,1.84,7.09,5.67Z" style="fill: #4a3726; stroke-width: 0px;"/>
  <g>
    <path d="M69.06,67.55s0,0,0,0c0,0,0,0,0,0,0,0,0,0,0,0Z" style="fill: #4a3726; stroke-width: 0px;"/>
    <g>
      <path d="M87.75,54.62c-.12-.05-3.06-1.06-6.92-.12-3.35.82-8.04,3.32-11.79,10.51-.73-.27-1.46-.38-2.14-.41l.68-.68c.42-.42.5-1.1.13-1.56-.43-.53-1.22-.56-1.69-.09l-.87.88v-1.27c0-.59-.43-1.14-1.02-1.19-.68-.07-1.25.46-1.25,1.13v1.34l-.83-.83c-.42-.42-1.1-.5-1.56-.13-.53.43-.56,1.21-.09,1.69l.73.73c-.68.03-1.41.14-2.14.41-3.75-7.19-8.44-9.69-11.79-10.51-3.86-.95-6.8.07-6.92.12-.5.18-.81.68-.75,1.21.06.53.48.94,1,.99.02,0,1.83.23,4.26,1.78,2.17,1.37,5.28,4.1,7.98,9.32-.97-.67-2.1-1.17-3.32-1.44-1.75-.39-3.53-.27-5.01.34-1.55.64-2.68,1.78-3.18,3.2,0,0,0,0,0,0s0,0,0,.01c-.1.29-.17.59-.22.91-.24,1.65.33,3.37,1.61,4.83,1.22,1.38,2.94,2.38,4.86,2.82.68.15,1.36.23,2.02.23.99,0,1.94-.17,2.8-.49.01.14.03.28.04.42h0s0,0,0,.01c.24,2.12.8,4.28,1.57,6.1.33.79.66,1.51.95,2.15,1.12,2.45,1.64,3.68,1.22,4.87-1.03,2.9.32,4.82,1.63,6.07.09,1.68.77,6.87,5.52,10.89.21.18.47.27.73.27s.52-.09.73-.27c4.75-4.02,5.43-9.21,5.52-10.89,1.31-1.25,2.66-3.17,1.63-6.07-.42-1.18.1-2.41,1.22-4.87.29-.64.62-1.36.96-2.15.77-1.82,1.33-3.98,1.57-6.1h0c.02-.15.03-.3.05-.44.86.32,1.81.49,2.8.49.66,0,1.34-.07,2.02-.23.59-.13,1.16-.32,1.71-.55,1.57-.78,2.99-2.03,3.53-2.81.53-.54,1.06-1.93,1.15-2.33.15-.66.18-1.31.09-1.96-.05-.31-.12-.61-.22-.91,0,0,0,0,0-.01h0c-.5-1.43-1.63-2.57-3.18-3.21-1.48-.61-3.25-.73-5.01-.34-1.22.27-2.35.77-3.32,1.44,2.7-5.22,5.81-7.95,7.98-9.33,2.43-1.54,4.24-1.77,4.25-1.77.53-.06.95-.47,1.01-1,.06-.53-.25-1.03-.75-1.21ZM48.01,76.37c-2.87-.65-5.03-2.98-4.73-5.1,0-.06.02-.12.03-.18.57-.35,1.16-.45,1.82-.32,2.28.47,4.74,3.55,6.05,5.54-.95.28-2.05.31-3.18.06ZM52.38,74.05c-.28-.39-.6-.81-.95-1.23-1.84-2.25-3.64-3.64-5.37-4.14.87-.21,1.86-.21,2.88.02,1.73.39,3.24,1.39,4.09,2.66-.3.83-.52,1.73-.65,2.69ZM45.78,56.53c.28.05.57.11.86.18,4.04.99,7.56,4.15,10.22,9.17l-2.19.78c-2.87-5.48-6.2-8.49-8.89-10.14ZM64,106.43c-2.25-2.19-3.24-4.65-3.67-6.44.52.39,1.01.77,1.4,1.16.22.21.5.32.8.32h2.93c.3,0,.59-.12.8-.32.39-.39.88-.77,1.41-1.16-.43,1.79-1.41,4.24-3.67,6.44ZM66.89,81.02c.17.09.36.14.54.14.41,0,.8-.22,1-.6.8-1.5,1.96-2.42,3.1-2.47.68-.03,1.3.27,1.79.86-.24,1.77-.72,3.54-1.36,5.04-.32.76-.63,1.43-.92,2.09-1.18,2.59-2.04,4.46-1.29,6.56.54,1.51.15,2.61-1.36,3.94-.49.43-1.06.85-1.61,1.26-.6.44-1.21.89-1.75,1.37h-2.04c-.54-.49-1.16-.94-1.75-1.37-.55-.41-1.12-.82-1.61-1.26-1.52-1.33-1.9-2.43-1.36-3.94.74-2.1-.11-3.97-1.29-6.56-.3-.66-.61-1.33-.93-2.09-.64-1.5-1.11-3.28-1.35-5.04.5-.59,1.11-.89,1.79-.86,1.14.05,2.3.98,3.1,2.47.21.38.6.6,1,.6.18,0,.36-.05.53-.14.55-.3.77-.98.47-1.54-1.18-2.21-3.05-3.59-5-3.68-.73-.03-1.44.12-2.08.44,0-1.74.29-3.27.83-4.55,0,0,0-.02,0-.03.05-.1.09-.19.12-.27,0,0,0-.02.01-.03,0-.02.02-.04.03-.06,0-.01,0-.03.01-.04,0-.02.01-.04.02-.06,0-.02,0-.04.01-.05,0-.02,0-.04,0-.05,0-.02,0-.04,0-.06,0-.02,0-.03,0-.05,0-.02,0-.05,0-.07v-.05s0-.05,0-.07c0,0,0-.02,0-.03l-.23-1.94,3.49-1.25s.04-.01.05-.02c.01,0,.02,0,.04-.01,0,0,.01,0,.02,0h0s.07-.04.1-.05t0,0s0,0,0,0c1.24-.78,2.6-.65,3.81-.54v1.38c0,.63.51,1.14,1.14,1.14s1.14-.51,1.14-1.14v-1.38c1.21-.12,2.57-.24,3.81.54,0,0,0,0,0,0,0,0,0,0,0,0,.03.02.06.04.1.05,0,0,.01,0,.02,0,.01,0,.03,0,.04.01h0s.03.02.05.02l3.42,1.22-.31,1.53c-.06.27,0,.55.12.77.09.18.18.38.27.57,0,0,0,.01,0,.02.54,1.27.82,2.79.82,4.54-.64-.32-1.35-.47-2.08-.44-1.95.09-3.82,1.46-5,3.68-.3.55-.09,1.24.46,1.54ZM84.69,71.09s0,0,0,0c.08.39.08.8,0,1.21-.09.42-.36,1.33-.76,1.81-.51.5-2.13,1.62-2.63,1.83-.42.18-.86.32-1.3.42-1.13.25-2.23.23-3.18-.06,1.3-1.98,3.76-5.07,6.05-5.53.67-.14,1.25-.04,1.82.31ZM79.07,68.69c1.02-.23,2.02-.22,2.88-.02-1.73.51-3.54,1.9-5.37,4.14-.35.42-.66.84-.94,1.23-.13-.96-.35-1.87-.65-2.69.84-1.28,2.36-2.28,4.09-2.66ZM73.34,66.67l-2.19-.78c2.66-5.04,6.05-8.11,10.1-9.15.34-.09.66-.15.98-.2-2.68,1.64-6.01,4.66-8.88,10.13Z" style="fill: #4a3726; stroke-width: 0px;"/>
      <path d="M67.67,99.99c-.43,1.79-1.41,4.24-3.67,6.44-2.25-2.19-3.24-4.65-3.67-6.44.52.39,1.01.77,1.4,1.16.22.21.5.32.8.32h2.93c.3,0,.59-.12.8-.32.39-.39.88-.77,1.41-1.16Z" style="fill: #f4f8f4; stroke-width: 0px;"/>
    </g>
    <path d="M73.32,78.94c-.24,1.77-.72,3.54-1.36,5.04-.32.76-.63,1.43-.92,2.09-1.18,2.59-2.04,4.46-1.29,6.56.54,1.51.15,2.61-1.36,3.94-.49.43-1.06.85-1.61,1.26-.6.44-1.21.89-1.75,1.37h-2.04c-.54-.49-1.16-.94-1.75-1.37-.55-.41-1.12-.82-1.61-1.26-1.52-1.33-1.9-2.43-1.36-3.94.74-2.1-.11-3.97-1.29-6.56-.3-.66-.61-1.33-.93-2.09-.64-1.5-1.11-3.28-1.35-5.04.5-.59,1.11-.89,1.79-.86,1.14.05,2.3.98,3.1,2.47.21.38.6.6,1,.6.18,0,.36-.05.53-.14.55-.3.77-.98.47-1.54-1.18-2.21-3.05-3.59-5-3.68-.73-.03-1.44.12-2.08.44,0-1.74.29-3.27.83-4.55,0,0,0-.02,0-.03.05-.1.09-.19.12-.27,0,0,0-.02.01-.03,0-.02.02-.04.03-.06,0-.01,0-.03.01-.04,0-.02.01-.04.02-.06,0-.02,0-.04.01-.05,0-.02,0-.04,0-.05,0-.02,0-.04,0-.06,0-.02,0-.03,0-.05,0-.02,0-.05,0-.07v-.05s0-.05,0-.07c0,0,0-.02,0-.03l-.23-1.94,3.49-1.25s.04-.01.05-.02c.01,0,.02,0,.04-.01,0,0,.01,0,.02,0h0s.07-.04.1-.05t0,0s0,0,0,0c1.24-.78,2.6-.65,3.81-.54v1.38c0,.63.51,1.14,1.14,1.14s1.14-.51,1.14-1.14v-1.38c1.21-.12,2.57-.24,3.81.54,0,0,0,0,0,0,0,0,0,0,0,0,.03.02.06.04.1.05,0,0,.01,0,.02,0,.01,0,.03,0,.04.01h0s.03.02.05.02l3.42,1.22-.31,1.53c-.06.27,0,.55.12.77.09.18.18.38.27.57,0,0,0,.01,0,.02.54,1.27.82,2.79.82,4.54-.64-.32-1.35-.47-2.08-.44-1.95.09-3.82,1.46-5,3.68-.3.55-.09,1.24.46,1.54.17.09.36.14.54.14.41,0,.8-.22,1-.6.8-1.5,1.96-2.42,3.1-2.47.68-.03,1.3.27,1.79.86Z" style="fill: #d6d6d5; stroke-width: 0px;"/>
    <path d="M56.86,65.88l-2.19.78c-2.87-5.48-6.2-8.49-8.89-10.14.28.05.57.11.86.18,4.04.99,7.56,4.15,10.22,9.17Z" style="fill: #d6d6d5; stroke-width: 0px;"/>
    <path d="M82.22,56.53c-2.68,1.64-6.01,4.66-8.88,10.13l-2.19-.78c2.66-5.04,6.05-8.11,10.1-9.15.34-.09.66-.15.98-.2Z" style="fill: #d6d6d5; stroke-width: 0px;"/>
    <path d="M81.95,68.67c-1.73.51-3.54,1.9-5.37,4.14-.35.42-.66.84-.94,1.23-.13-.96-.35-1.87-.65-2.69.84-1.28,2.36-2.28,4.09-2.66,1.02-.23,2.02-.22,2.88-.02Z" style="fill: #6b6864; stroke-width: 0px;"/>
    <path d="M53.02,71.35c-.3.83-.52,1.73-.65,2.69-.28-.39-.6-.81-.95-1.23-1.84-2.25-3.64-3.64-5.37-4.14.87-.21,1.86-.21,2.88.02,1.73.39,3.24,1.39,4.09,2.66Z" style="fill: #6b6864; stroke-width: 0px;"/>
    <path d="M85.17,71.97c-.52,2.94-4.57,4.92-7.43,4.75-.43-.03-.99-.17-1.05-.61-.04-.56.47-1.14.82-1.59,1.36-1.62,3.04-3.29,4.8-3.95,1.12-.5,3.02-.34,2.87,1.31v.08Z" style="fill: #d5b5ad; stroke-width: 0px;"/>
    <path d="M42.7,71.97c.52,2.94,4.57,4.92,7.43,4.75.43-.03.99-.17,1.05-.61.04-.56-.47-1.14-.82-1.59-1.36-1.62-3.04-3.29-4.8-3.95-1.12-.5-3.02-.34-2.87,1.31v.08Z" style="fill: #d5b5ad; stroke-width: 0px;"/>
    <path d="M57.66,79.55c-.63,0-1.14.51-1.14,1.14v.55c0,.63.51,1.14,1.14,1.14s1.14-.51,1.14-1.14v-.55c0-.63-.51-1.14-1.14-1.14Z" style="fill: #4a3726; stroke-width: 0px;"/>
    <path d="M62.39,93.61l-.37-.58c-.34-.53-1.04-.68-1.57-.34-.53.34-.68,1.04-.34,1.57l.37.58c.22.34.58.52.96.52.21,0,.42-.06.61-.18.53-.34.68-1.04.34-1.57Z" style="fill: #4a3726; stroke-width: 0px;"/>
    <path d="M70.34,79.55c-.63,0-1.14.51-1.14,1.14v.55c0,.63.51,1.14,1.14,1.14s1.14-.51,1.14-1.14v-.55c0-.63-.51-1.14-1.14-1.14Z" style="fill: #4a3726; stroke-width: 0px;"/>
    <path d="M67.55,92.7c-.53-.34-1.23-.19-1.57.34l-.37.58c-.34.53-.19,1.23.34,1.57.19.12.4.18.61.18.37,0,.74-.18.96-.52l.37-.58c.34-.53.19-1.23-.34-1.57Z" style="fill: #4a3726; stroke-width: 0px;"/>
  </g>
</svg>