<?xml version="1.0" encoding="UTF-8"?>
<svg id="fill_duck" xmlns="http://www.w3.org/2000/svg" viewBox="0 0 128 128">
  <path d="M122,42.28c-5.15,6.3-12.47,9.95-20.75,10.01-1.31.07-2.87,0-4.03.5-4.92,3.26,3.86,10.25,6.03,13.2,10.47,12.42,10.51,27.06.8,38.3-11.38,12.26-26.37,15.89-44.09,16.78-24.67,1.82-51.52-16.59-55.43-43.47-.88-9.08-3.06-30.64,11.96-26.31,6.65,1.87,11.72,6.33,17.82,9.27,5.95,2.5,13.06,3.7,19.54,1.43,3.75-1.63.14-6.17-1.45-8.82-10.39-14.76-4.52-35.7,11.02-44.18,13.86-6.05,31.61.99,38.54,14.02,1.21,2.18,2.67,4.36,4.99,5.35,6.32,2.73,22.69,2.57,15.26,13.62l-.22.29Z" style="fill: #4a3726; stroke-width: 0px;"/>
  <path d="M98.9,27.23c-9.15,5.65-11.05,10.97-8.02,21.42.18.63.15,1.49-.14,2.06-2.33,4.57-.26,8.13,2.56,11.5,2.8,3.35,5.94,6.44,8.42,10,7.04,10.06,5.85,21.73-2.79,30.4-22.08,22.12-66.53,17.44-83.26-8.75-6.69-10.47-7.57-22.04-6.3-33.93.48-4.45,2.77-5.75,7-4.03,3.73,1.52,7.39,3.47,10.64,5.84,7.54,5.51,15.94,6.9,24.86,5.82,9.45-1.14,11.74-6.73,6.12-14.33-8.01-10.83-8.38-20.96-1.15-31.96,5.54-8.44,13.18-11.51,23.47-8.98,8.3,2.04,14.54,6.92,18.57,14.94ZM35.25,82.1c6.37-2.52,12.76-2.74,19.39-1.22,1.37.31,3.04-.69,4.57-1.09-1.12-1.11-2.06-2.86-3.38-3.22-7.78-2.14-15.46-1.04-23.09,1.23-3.55,1.06-4.01,2.7-2.39,5.95,7.24,14.49,24,22.22,39.51,18.03,9.17-2.48,15.11-9.63,14.96-18.49-.03-1.62-1.4-3.22-2.14-4.82-.77,1.51-2.09,2.98-2.2,4.53-.44,5.91-2.89,10.34-8.27,13-12.6,6.22-31.13-.62-36.95-13.88ZM88.94,26.51c-2.57-1.64-4.04-3.31-5.21-3.12-1.26.2-2.24,2.15-3.34,3.33,1.17,1.09,2.27,2.91,3.54,3.06,1.17.13,2.54-1.56,5.01-3.26Z" style="fill: #8e5b36; stroke-width: 0px;"/>
  <path d="M93.38,43.45c6.65-1.07,13.62-1.03,21.08-1.73.39,0,1.51-.07,1.4.39-5.03,5.2-17.33,8.68-22.68,2.54-.31-.46-.33-.84.01-1.09l.19-.12Z" style="fill: #cbb256; stroke-width: 0px;"/>
  <path d="M94.48,38.01c-.11-1.37,1.4-2.99,2.23-3.89,2.18-2.14,4.84-2.07,7.91-1.17,3.59,1.2,7.81,1.76,11.05,3.72.11.18-.09.31-.53.39-3.12.34-6.53.49-9.72.76-3.18.21-6.55.55-9.91.7-.45-.02-.77-.12-.94-.33l-.09-.18Z" style="fill: #cbb256; stroke-width: 0px;"/>
  <path d="M36.62,82.9c-.52,1.58.65,3.26,1.66,4.51,7.93,9.55,23.55,14.05,34.7,8.14,3.97-2.03,6.56-5.81,7.76-10.03.61-1.53,1.17-4.24,2.65-4.59,1.05-.18,1.92,1.9,1.81,4.46-.08,2.85-1.19,5.66-2.79,8.03-12.59,16.32-39.91,9.92-50.21-5.71-5.59-7.76-.49-10.69,7.81-11.79,4.28-.62,15.39-1.53,16.88,2.96-.66,1.8-3.67,1.31-5.31,1.35-4.03-.27-8.26-.5-12.18.59-1.09.32-2.26.91-2.71,1.88l-.08.2Z" style="fill: #4a3726; stroke-width: 0px;"/>
  <path d="M88.84,26.67c-.52,1.44-3.1,2.78-4.49,3.09-1.38.18-3.86-1.38-4.06-3.06.11-1.66,2.2-3.32,3.78-3.33,1.05.1,4.2,1.51,4.77,3.04v.27Z" style="fill: #4a3726; stroke-width: 0px;"/>
</svg>