<?xml version="1.0" encoding="UTF-8"?>
<svg id="fill_prefabwall" xmlns="http://www.w3.org/2000/svg" viewBox="0 0 128 128">
  <path d="M46.87,107.24c0,2.53.06,4.88-.01,7.22-.14,4.19-3.13,7.27-7.3,7.32-7.47.09-14.94.08-22.41,0-4.55-.05-7.41-3.23-7.42-8.08-.01-20.45,0-40.9,0-61.34,0-7.77-.02-15.53,0-23.3.01-5.1,2.93-8.07,7.98-8.15,1.86-.03,3.73,0,6,0,0-2.46-.05-4.78.01-7.1.13-4.76,3.05-7.63,7.85-7.64,26.25-.02,52.5-.02,78.74,0,4.94,0,7.96,2.96,7.96,7.84.02,28.41.02,56.82,0,85.23,0,4.71-3.01,7.7-7.72,7.81-1.96.05-3.91,0-6.26,0,0,2.39.04,4.62,0,6.85-.1,5-2.96,7.87-7.89,7.89-6.98.03-13.96.04-20.94,0-4.88-.03-7.84-3.02-7.91-7.92-.03-2.15,0-4.3,0-6.64h-20.67Z" style="fill: #4a3726; stroke-width: 0px;"/>
  <path d="M17.44,28.54h79.32v85.7h-21.66v-54.23h-35.72v54.23h-21.94V28.54Z" style="fill: #beb696; stroke-width: 0px;"/>
  <path d="M110.37,99.27h-6.23v-3.57c0-22.12,0-44.24,0-66.36,0-5.76-2.69-8.43-8.5-8.43-20.25,0-40.5,0-60.75,0-1.16,0-2.32,0-3.69,0v-6.87h79.17v85.23Z" style="fill: #7b5b3b; stroke-width: 0px;"/>
  <path d="M67.28,99.31h-20.14v-31.6h20.14v31.6Z" style="fill: #7b5b3b; stroke-width: 0px;"/>
</svg>