<?xml version="1.0" encoding="UTF-8"?>
<svg id="uuid-5dc3c665-220b-4332-a0e9-c1724f2aa0be" data-name="fill_digestate" xmlns="http://www.w3.org/2000/svg" xmlns:xlink="http://www.w3.org/1999/xlink" viewBox="0 0 128 128">
  <defs>
    <linearGradient id="uuid-b07cc89b-dea1-4dd4-8023-c9c7b77b5fd1" x1="-2239.85" y1="1013.17" x2="-2239.98" y2="1114.17" gradientTransform="translate(1184 -444) scale(.5)" gradientUnits="userSpaceOnUse">
      <stop offset="0" stop-color="#b0b0af"/>
      <stop offset="1" stop-color="#919090"/>
    </linearGradient>
  </defs>
  <path d="M35.5,117.5c-8.23-.03-16.48.05-24.72-.03-1.89-.3-3.62-2.36-4.55-3.95l-.24-48.79c.21-1.87,1.5-4.39,3.51-4.74-4.97-4.14-3.51-9.75-2.06-15.31,5.39-20.75,26.28-30.6,46.29-31.71,24.71-1.37,55.84,1.48,65.78,28.26.88,2.37,2.73,10.16,2.51,12.49s-2.07,4.49-3.52,6.26c2.01.35,3.3,2.87,3.51,4.74l-.25,48.28c-.76,2.14-2.71,4.42-5.04,4.46-6.62.1-81.22.03-81.22.03Z" style="fill: #0a0c0d;"/>
  <path d="M92.5,117.5h-57c18.99.07,38.01.08,57,0Z" style="fill: #5d5e5e;"/>
  <path d="M110.83,31.67c2.41,2.66,5.43,8.74,6.55,12.2.67,2.06,2.35,8.92,1.91,10.63-.58,2.22-2.49,3.45-4.65,3.88l-100.39.12c-5.96-.89-5.96-4.11-5.1-9.11C13.25,25.35,35.19,16.58,57.23,15.48c18.53-.93,40.56,1.82,53.6,16.19Z" style="fill: #307852;"/>
  <path d="M11.5,62h105c2.17.14,3.01,1.75,3.03,3.72.14,14.9.14,30.2-.02,45.54-.1,2.31-1.95,3.88-4.24,3.76l-104.3-.25c-1.47-.59-2.44-1.91-2.49-3.51v-46.03c.32-1.89,1.07-3.02,3.01-3.23Z" style="fill: url(#uuid-b07cc89b-dea1-4dd4-8023-c9c7b77b5fd1);"/>
  <path d="M26.84,28.08c1.42-.43,2.69.38,1.91,1.93-.37.73-4.48,3.28-7.78,8.25s-3.77,9.26-4.57,10.91-2.38.96-2.45-.9c-.18-4.69,5.94-13.98,9.27-17.28.4-.39,3.39-2.83,3.61-2.9Z" style="fill: #f3f7f5;"/>
  <path d="M33.32,26.95c-1.23.43-2.25-1.61-1.34-2.12.35-.2,6.52-3.08,7.38-3.25,1.77-.35,2.24,1.77,1.14,2.68-1.7.69-4.8,1.86-7.18,2.7Z" style="fill: #f4f7f6;"/>
  <path d="M66.5,111c-1.77-.49-2.88-.86-3.85-2.51-9.04-.55-18.99.77-27.92.03-1.78-.15-3.74-.61-5-2-.97-1.06-1.07-2.65-1.34-2.91-.58-.59-3.28-.69-4.89-2.85-5.44-7.28,4.64-15.99,12-15.26.34-9.25,6.91-12.85,15.26-13.99,1.39-.19,3.09.29,4.4-.1.93-.28,2.35-2.39,3.38-3.12,6.47-4.61,17.31-3.92,22.18,2.76.73,1.01,1.86,3.95,2.29,4.21.9.55,5.01,1,6.77,1.73,3.14,1.31,5.97,3.95,7.5,7,.78,1.54,1.49,5.34,1.98,6.02.88,1.21,3.78.86,4.91,4.59,2.37,7.83-5.54,9.97-11.66,8.91.44,4.07-1.25,6.35-5,7.5-6.92.69-14.04.45-21,0Z" style="fill: #0a0c0d;"/>
  <path d="M19.37,105.12c8.3-1.39,10.87,8.7.35,7.91-6.57-.5-6.33-6.91-.35-7.91Z" style="fill: #0a0c0d;"/>
  <path d="M101.87,104.12c7.85-1.42,8.86,7.6,2.33,8.35s-8.23-7.28-2.33-8.35Z" style="fill: #0a0c0d;"/>
  <path d="M87.5,111c-.55.17-.66.44-1.69.53-4.05.36-15.84.42-19.31-.53h21Z" style="fill: #9f9f9f;"/>
  <path d="M89.75,101c-1.86.57.27,3.31.05,4.51s-1.07,2.39-2.28,2.76c-6.24-.07-13.67.87-19.79.24-3.11-.32-2.66-2.68-4.5-3l-30.39-.11c-2.13-.62-1.96-4.03-2.42-4.33-.33-.22-1.83-.04-2.8-.44-4.64-1.94-2.6-7.65.63-10.12,2.97-2.28,6.09-2.1,9.53-2.97.08-7.08,4.02-11.93,11.09-12.91,1.52-.21,7.78-.19,8.55-.7.73-.49.81-2.89,4.39-4.36,5.98-2.45,12.95-2.16,16.9,3.46.71,1.01,1.89,4.48,2.27,4.73.75.51,5.03.81,6.65,1.35,3.71,1.24,6.58,4.4,7.96,8.04.54,1.42.87,4.85,1.35,5.55.28.41,1.86.4,2.74.86,1.91,1,2.42,3.52,1.56,5.43-.2.45-2.18,2-2.49,2-1.92,0-7.71-.39-9,0Z" style="fill: #866640;"/>
  <path d="M17.5,108.5c1.15-.52,6.92-1.25,6.5.74-.39,1.85-6.55,1.94-6.5-.74Z" style="fill: #866640;"/>
  <path d="M102.36,106.58c3.51-1.04,5.29,3.17,1.36,3.41-2.73.17-3.75-2.7-1.36-3.41Z" style="fill: #866640;"/>
  <path d="M75.88,80.88c-2.13,2.15-5.24-1.22-3.31-3.81,2.67-1.08,5.39,1.71,3.31,3.81Z" style="fill: #4c3820;"/>
  <path d="M45.38,95.12c1.57,1.52-.96,5.22-3.17,3.42-2.38-1.93.81-5.71,3.17-3.42Z" style="fill: #4c3820;"/>
  <path d="M83.75,84.76c-1.47,1.42-3.62-.81-2.28-2.52,1.84-.71,3.72,1.13,2.28,2.52Z" style="fill: #4c3820;"/>
  <path d="M92.17,97.77c-.83.81-2.05-.46-1.29-1.42,1.04-.4,2.1.64,1.29,1.42Z" style="fill: #4c3820;"/>
  <path d="M96.61,95.41c-.83.81-2.05-.46-1.29-1.42,1.04-.4,2.1.64,1.29,1.42Z" style="fill: #4c3820;"/>
  <path d="M50.47,91.88c-.83.81-2.05-.46-1.29-1.42,1.04-.4,2.1.64,1.29,1.42Z" style="fill: #4c3820;"/>
</svg>