<?xml version="1.0" encoding="UTF-8"?>
<svg id="fill_anhydrous" xmlns="http://www.w3.org/2000/svg" viewBox="0 0 128 128">
  <path d="M40.72,28.39c0-5.55-.02-11.15,0-16.74.02-6.34,2.69-9.03,8.94-9.04,9.57,0,19.13,0,28.7,0,6.26,0,8.93,2.7,8.96,9.02.02,5.6,0,11.19,0,16.81,8.51,2.2,14.39,7.15,16.9,15.57.65,2.18.93,4.55.94,6.83.09,11.98-.15,23.97.11,35.94.2,8.94-2.53,16.27-10.07,21.62,2.18,3.28,2.56,6.84,1.99,10.56-.57,3.71-3.3,6.36-7.07,6.38-17.39.07-34.78.07-52.17,0-3.87-.01-6.91-2.73-7.03-6.64-.1-3.44.6-6.9,1-10.96-6.73-4.73-9.37-12.2-9.15-21.24.28-11.01.42-22.04-.03-33.04-.49-12.01,5.58-21.85,17.98-25.09Z" style="fill: #4a3726; stroke-width: 0px;"/>
  <path d="M97.67,70.33c0,6.77.1,13.53-.03,20.3-.14,7.43-6.25,13.76-13.66,13.85-13.34.17-26.68.18-40.01,0-7.26-.1-13.46-6.37-13.54-13.66-.16-13.92-.16-27.84,0-41.75.08-6.99,6.51-13.36,13.5-13.43,13.34-.14,26.68-.13,40.02,0,7.17.07,13.53,6.39,13.7,13.54.17,7.05.04,14.11.03,21.17Z" style="fill: #50984f; stroke-width: 0px;"/>
  <path d="M48.42,28.29V10.28h31.11v18.01h-31.11Z" style="fill: #50984f; stroke-width: 0px;"/>
  <path d="M89.4,112.26c.27,1.99.49,3.62.75,5.49h-52.12c.16-1.74.32-3.43.51-5.39,1.93-.28,3.42-.68,4.91-.69,13.72-.05,27.44-.04,41.16,0,1.41,0,2.83.34,4.8.59Z" style="fill: #50984f; stroke-width: 0px;"/>
  <path d="M74.36,19.03c-.52,2.58-2,3.89-4.82,3.81-3.76-.11-7.52,0-11.29-.04-2.54-.02-4.45-1.57-4.48-3.53-.03-2.21,1.5-3.5,4.31-3.53,3.96-.04,7.91.05,11.87-.03,2.37-.05,3.89.83,4.41,3.31Z" style="fill: #4a3726; stroke-width: 0px;"/>
  <g>
    <path d="M48.03,60.9v19.26h-4.81v-10.32c0-1.49-.04-2.39-.11-2.69-.07-.3-.27-.53-.59-.68-.32-.15-1.04-.23-2.15-.23h-.48v-2.25c2.32-.5,4.09-1.53,5.29-3.08h2.83Z" style="fill: #4a3726; stroke-width: 0px;"/>
    <path d="M61.23,67.42v6.42c0,1.46-.08,2.52-.24,3.19s-.49,1.29-.99,1.87c-.5.58-1.1,1-1.81,1.25-.71.25-1.5.38-2.37.38-1.15,0-2.1-.13-2.87-.4-.76-.27-1.37-.68-1.82-1.24-.45-.56-.77-1.16-.96-1.78s-.29-1.61-.29-2.97v-6.72c0-1.77.15-3.09.46-3.97.31-.88.91-1.59,1.82-2.12.91-.53,2.01-.8,3.3-.8,1.06,0,2,.18,2.83.55.83.37,1.45.82,1.87,1.35s.69,1.13.84,1.8c.15.67.22,1.73.22,3.19ZM56.43,65.8c0-1.02-.05-1.66-.15-1.92s-.33-.39-.7-.39-.59.14-.71.41c-.11.27-.17.91-.17,1.9v9.4c0,1.12.05,1.79.16,2.02s.34.34.7.34.59-.13.7-.4.17-.88.17-1.82v-9.54Z" style="fill: #4a3726; stroke-width: 0px;"/>
    <path d="M74.29,67.42v6.42c0,1.46-.08,2.52-.24,3.19s-.49,1.29-.99,1.87c-.5.58-1.1,1-1.81,1.25-.7.25-1.5.38-2.37.38-1.15,0-2.11-.13-2.87-.4-.76-.27-1.37-.68-1.82-1.24-.45-.56-.77-1.16-.96-1.78s-.29-1.61-.29-2.97v-6.72c0-1.77.15-3.09.46-3.97s.91-1.59,1.82-2.12,2.01-.8,3.3-.8c1.05,0,2,.18,2.83.55.83.37,1.45.82,1.87,1.35s.69,1.13.84,1.8c.15.67.22,1.73.22,3.19ZM69.49,65.8c0-1.02-.05-1.66-.15-1.92-.1-.26-.33-.39-.7-.39s-.59.14-.71.41c-.12.27-.17.91-.17,1.9v9.4c0,1.12.05,1.79.16,2.02.11.23.34.34.7.34s.59-.13.7-.4c.11-.27.17-.88.17-1.82v-9.54Z" style="fill: #4a3726; stroke-width: 0px;"/>
    <path d="M86.51,60.9v3.08h-5.96v3.27c.75-.88,1.71-1.32,2.88-1.32,1.32,0,2.32.37,3,1.11.68.74,1.01,2.17,1.01,4.28v2.75c0,1.36-.06,2.37-.19,3-.13.64-.41,1.23-.84,1.77s-1.03.96-1.79,1.25c-.77.29-1.7.43-2.8.43-1.24,0-2.33-.22-3.27-.65-.94-.43-1.61-1.08-2.01-1.93-.4-.86-.59-2.18-.59-3.97v-1.05h4.81v1.2c0,1.24.04,2.13.13,2.65.09.52.39.79.9.79.24,0,.43-.08.58-.23s.23-.31.24-.49.02-.93.04-2.27v-3.82c0-.72-.07-1.21-.22-1.47-.15-.26-.4-.39-.75-.39-.22,0-.41.07-.56.2-.15.13-.25.28-.29.43-.05.16-.07.51-.07,1.08h-4.76l.2-9.71h10.31Z" style="fill: #4a3726; stroke-width: 0px;"/>
  </g>
</svg>