<?xml version="1.0" encoding="UTF-8"?>
<svg id="uuid-0fa57dbe-f969-49f3-af35-b76f6350a3f4" data-name="fill_rope" xmlns="http://www.w3.org/2000/svg" viewBox="0 0 128 128">
  <path d="M55.08,12.92c.39.26,1.64.01,2.43.31,2.95,1.12,6.73,4.44,7.38,7.63.24,1.19-.16,3.42.21,4.05.08.14,1.83.92,2.36,1.39,2.85,2.5,4.56,5.2,4.04,9.21,1.48.07,2.72-.6,4.23-.52,4.57.23,8.89,6.15,6.77,10.52,3.7-1.82,9.52,1.54,10.4,5.36.33,1.42-.3,4.96-.16,5.17.24.36,2.74,2.13,3.54,2.97.43.45.68,1.39.79,1.47.17.12,2.8-.58,4.14-.42,2.22.27,5.34,2.04,6.78,3.72.93,1.08,1.75,3.32,2.52,3.98.82.7,3.23,1.06,4.65,1.85,2.33,1.28,4.79,4.64,5.22,7.28.23,1.43-.14,3.08.21,4.29.24.82,2.56,2.63,3.28,4.22,1.32,2.95,1.41,5.57.37,8.61-.37,1.06-1.98,3.27-2.03,3.75-.09.77.72,2.4.8,3.52.19,2.86-1.45,7-3.51,8.99-1.14,1.11-3.98,1.87-4.38,2.37-.46.57-.9,3.41-1.9,4.85-2.21,3.19-5.84,4.46-9.56,4.85-4.66.49-2.7.85-6.15,2.44-3.27,1.51-7.15,1.55-10.36-.16-.96-.51-1.86-1.88-2.49-2.03-.75-.19-4.02.64-5.86.39-3.26-.44-5.78-2.87-7.51-5.49-.57-.86-.71-2.12-1.25-2.75-.67-.78-2.85-1.21-4-2-2.64-1.8-4.27-4.49-4.9-7.6-.22-1.09.08-2.41-.2-3.3-.15-.46-2.25-1.82-2.94-2.56-1.82-1.97-2.9-4.57-2.99-7.26-.81.09-.68,1.13-1.5,1.75-4.62,3.48-11.49-4.35-10-9.25-5.48,1.01-10.68-3.7-9.96-9.2.25-1.89,2.65-3.85.21-4.29-4.17-.75-6.7.98-10.52-2.98-.84-.87-2.15-3.78-2.34-3.91-.46-.33-4.1-.76-5.4-1.34-2.33-1.04-4.56-3.71-5.37-6.13-.49-1.43-.49-4.13-.72-4.54-.1-.18-2.42-1.71-3.16-2.59-2.65-3.18-3.24-6.66-2.11-10.62.27-.94,1.17-2,1.24-2.71.11-1.11-1.28-3.34-1.4-4.93-.22-2.87,1.25-6.71,3.25-8.76.83-.86,2.8-1.67,3.13-2.12,1.87-2.53.24-5.58,5.17-9.08,3.44-2.45,4.69-1.08,7.63-1.77.23-.05,2.03-2.67,3.18-3.43,3.59-2.4,6.89-2.33,10.82-.98.93.32,1.82,1.35,2.59,1.37.83.03,1.77-.74,2.63-.86,4.04-.56,8.27.64,10.9,3.88.73.9,1.66,3.32,1.82,3.43ZM37,8.01c-8.63-3.6-13.65,3.49-13.5,11.5,5.95.88,7.19-3.64,10.01-7.24.59-.76,4.03-3.52,3.49-4.26ZM52,12.99c-1.51-4.05-7.52-5.75-11.18-3.93-1.14.57-6.28,5.11-6.22,6.19,5.21,5.13,11.57-1.85,17.4-2.26ZM17,14c-2.18,1.7-3.52,3.28-3.54,6.26,0,1.05.43,1.56.54,2.24.38,2.26.76,4.59,2.25,6.49,6.77-3.37,3.74-11.11,5.75-16.99-2.33-.22-3.42.76-5,2ZM62.5,24c-.62-8.92-9.87-10.37-16.5-6.24,2.73,6.9,10.7,4.56,16.5,6.24ZM43.92,19.08c-.76-.53-3.9,1.06-5.61.9s-3.75-1.36-5.06-2.4c-2.97,3.33-5.49,5.17-10.25,4.42.61,4.43-2.12,7.06-5.46,9.3,1.45,2.89,1.82,5.09.73,8.21-.26.75-1.39,1.64-1.26,2.21.06.26,3.18,2.35,3.92,3.6,1.26,2.11.62,3.72,1.14,5.36.4,1.27,2.39.66,3.57.93,3.7.86,5.91,6.08,6.69,6.34,1.08.35,2.02-.38,2.92-.35,3.11.09,7.05,2.14,8.51,4.92,1.53-.72,2.67-2,4.22-2.78.98-.49,3.63-1.11,3.91-1.34.31-.26,1.35-4.73,2.91-6.35,2.04-2.13,5.57-2.32,6.59-3.15,1.36-1.1-1.37-3.05-2.09-4.44s-1.38-3.58-1.34-5.2c.02-.95.85-3.2.49-3.69-.08-.11-1.38-.41-1.93-.82-3.04-2.29-4.57-5.94-4.02-9.73-3.33.23-5.16-1.2-7.21-3.54-.5-.57-1.22-2.27-1.38-2.38ZM9,35.5c.14.19.35.32.5.5.8.94,1.52,1.96,2.49,2.76,1.85,1.52,3.43,2.93,3.98-.54.99-6.23-3.93-8.87-4.47-14.72-3.66.66-5.05,5.93-4.38,9.14.32,1.51,1.18,1.95,1.89,2.86ZM69,37c1.18-8.62-7.06-11.02-14-11.5-.43,3.6,1.91,6.72,4.99,8.26l9.01,3.24ZM68,40.49c-.48-1.09-6.54-3.96-7-3.49.02,2.63-.5,5.65,1.75,7.49,1.67-1.41,2.89-3.7,5.25-4ZM79.84,40.65c-.24-.31-2.38-2.37-2.69-2.54-2.77-1.52-3.44.06-3.67,2.62-.26,2.87.63,5.46.52,8.27,3.51-.06,8.48-4.93,5.84-8.35ZM7,44.5c.55,2.09,1.58,4.06,3.65,5.12.7.36,1.39.21,1.85.38,2.24.83,4.46,1.78,7,1.5,1.04-7.74-7.8-8.32-11.75-12.99-1.92,1.81-1.31,3.88-.75,5.99ZM70.98,42.52c-8.21.56-7.33,9.89-6.48,15.98,7.93-1.05,7.74-9.81,6.48-15.98ZM84,59c5.49-.56,8.92-5.7,4.27-10.02-6.51-6.06-4.44,6.83-4.27,10.02ZM57,54c-2.52,2.6-2.61,5.03-2.5,8.5.05,1.66.4,3.1.52,4.75.05.75-.28.86.72.74,7.12-.82,6.94-11.3,5.76-16.49-1.77.32-3.31,1.27-4.5,2.5ZM80.96,52.54c-8.29.76-7.2,9.76-6.45,15.96,7.83-.98,7.85-9.9,6.45-15.96ZM14.5,58c.35.35.35.62,1,1,2.69,3.08,6.95,2.05,10.41,1.16,3.22-.82,5.12-1.07,1.86-4.18s-5.8-1.81-9.54-1.95c-1.85-.07-3.75-.91-5.73-.53-.19,2.01.68,3.18,2,4.5ZM94.5,61.49c.56-.77-2.24-3.25-3.63-2.91-.8.19-2.24,1.69-3.37,2.17-.96.41-3.11.64-3.41.84-.52.36-.84,4.05-1.59,4.91,4.55-.2,7.73-3.88,12-5ZM32.87,60.62l-9.36,3.13c4.52,7.66,12.4,4.42,17.98,0-2.35-2.91-4.9-3.75-8.63-3.13ZM46.5,65c-2.56,4.32-1.28,7.74-1,12.5,7.84-.88,7.77-9.87,6.48-15.98-2.93-.13-4.13,1.2-5.48,3.48ZM71.5,62c-8.33.85-7.25,9.73-6.5,16,8.12-1.17,7.52-9.67,6.5-16ZM107.5,68.5c-3.32-8.85-11.72-5.13-18-1.99,3.88,7.47,11.84,2.23,18,1.99ZM87.44,68.04c-.32-.23-2.41.81-3.22.92-3.97.57-3.61.53-7.2,1.81-.77.27-2.24.11-2.46.29-.16.13-.78,3.19-1.19,4.06-1.47,3.14-3.66,3.89-6.36,5.66,1.88,2.69,2.09,4.23,2,7.47-.03.93-.69,2.11-.54,2.92.09.45,4.94,2.95,5.5,7.12.13.94-.14,3.9.09,4.17.1.12,2.23.45,2.96.79,2.56,1.18,4.28,4.11,5.02,6.75,3.86-1.11,7.63-.82,10.23,2.49,3.03-3.44,6.31-3.86,10.73-3.5-.02-3.75,2.82-7.04,6.5-7.5-.35-3.04-1.12-5.95.42-8.83.56-1.05,1.7-1.53,1.6-2.64-2.31-.56-3.74-3.56-4-5.75-.11-.93.25-3.26-.06-3.69-.16-.23-3.8-1.03-5.19-2.06-1.65-1.24-3.5-5.25-4.08-5.44-1.06-.34-2.17.39-3.29.33-2.71-.14-4.9-2.04-6.66-3.87-.43-.45-.69-1.4-.78-1.47ZM38,73c-2.34,2.44-2.69,3.82-.5,6.5.7.85.72,1.58,2.21,1.51.97-.05,2.79-1.41,2.79-2.26v-7.75c-1.98-.18-3.2.65-4.5,2ZM113.33,71.68c-2.29-1.32-8.54-.5-11.1.31-.58.18-.87-.37-.74.75.19,1.6,2.55,3.85,4,4.51,3.25,1.47,8.88,1.37,12.5,2.24-.43-1.75-.75-3.9-1.83-5.37-.15-.2-2.68-2.36-2.84-2.45ZM62,71.5c-4.1-.05-6.77,3.89-7.02,7.73-.18,2.8.85,5.46.52,8.27,8.03-1.09,7.51-9.73,6.5-16ZM52.5,81c-2.81-.42-6.94,3.4-6.42,6.13.41,2.17,3.59,5.54,5.93,4.14,1.98-1.19.58-8.1.49-10.27ZM120.99,95c3.91-8.56-2.96-13.88-11-14-.15,1.9.22,3.87,1.27,5.48.81,1.25,6.72,6.52,8.22,7.77.5.42.65.95,1.5.75ZM66,90c.66-2.45.7-5.86-1.49-7.5-.52,1.96-1.48,3.9-3,5.25l4.49,2.25ZM58.5,94.5c.83,2.74,1.72,3.21,4,4.5,2.73,1.54,5.82,2.39,9,2.5.13-2.14-.77-4.93-2.23-6.52-.89-.97-9.27-5.3-10.52-5.48-.94-.14-.71.03-.75.74-.09,1.91,0,2.58.5,4.26ZM118.18,97.33c-3.7-5.59-6.34-7.56-6.57,1.3,1.03,1.35,3.08,10.76,3.64,10.87.72.14,2.25-1.15,2.75-1.74,2.25-2.71,2.8-6.84.98-9.89-.19-.31-.7-.37-.81-.54ZM66,103.5c-.13-.02-2.53-1.21-2.51-.24.38,1.26.61,2.59,1.23,3.77,3.17,6.12,8.93,5.02,14.78,3.97-.86-6.47-7.87-6.62-13-7.5-.16-.03-.34.03-.5,0ZM111,103.5c-3.26.57-4.94,2.96-5.77,5.98-.89,3.24-1.06,6.81-2.22,10.02,9.74-.25,10.17-8.32,7.99-16ZM102,111.5c-2.68-.29-5.06.45-7.18,2.08-.56,1.47-7.44,7.15-7.32,7.67.28,1.21,4.59,1.85,5.76,1.79,5.47-.27,8.46-6.72,8.74-11.54ZM73,114.5c.5,3.09,4.79,5.91,7.75,5.91,2.58,0,6.66-2.63,8.51-4.4,1.58-1.51,1.69-1.99-.41-3.11-5.12-2.73-10.47,2.13-15.85,1.6Z" style="fill: #10100f;"/>
  <path d="M37,8.01c.55.73-2.89,3.5-3.49,4.26-2.82,3.6-4.07,8.12-10.01,7.24-.15-8.01,4.87-15.1,13.5-11.5Z" style="fill: #d8b486;"/>
  <path d="M32.87,60.62c3.73-.61,6.28.22,8.63,3.13-5.58,4.42-13.46,7.66-17.98,0l9.36-3.13Z" style="fill: #d8b486;"/>
  <path d="M62.5,24c-5.8-1.68-13.77.66-16.5-6.24,6.63-4.13,15.88-2.68,16.5,6.24Z" style="fill: #d8b486;"/>
  <path d="M52,12.99c-5.83.42-12.19,7.39-17.4,2.26-.06-1.08,5.08-5.62,6.22-6.19,3.66-1.82,9.67-.12,11.18,3.93Z" style="fill: #d8b486;"/>
  <path d="M113.33,71.68c.16.09,2.69,2.25,2.84,2.45,1.08,1.47,1.4,3.62,1.83,5.37-3.62-.87-9.25-.78-12.5-2.24-1.45-.65-3.81-2.9-4-4.51-.13-1.12.16-.57.74-.75,2.56-.81,8.81-1.63,11.1-.31Z" style="fill: #ac8359;"/>
  <path d="M73,114.5c5.38.53,10.72-4.33,15.85-1.6,2.11,1.12,2,1.6.41,3.11-1.86,1.77-5.93,4.4-8.51,4.4-2.96,0-7.25-2.82-7.75-5.91Z" style="fill: #ac8359;"/>
  <path d="M70.98,42.52c1.26,6.17,1.45,14.93-6.48,15.98-.85-6.09-1.73-15.42,6.48-15.98Z" style="fill: #d8b486;"/>
  <path d="M118.18,97.33c.11.16.62.22.81.54,1.82,3.06,1.27,7.19-.98,9.89-.49.59-2.03,1.88-2.75,1.74-.56-.11-2.61-9.52-3.64-10.87.23-8.86,2.86-6.89,6.57-1.3Z" style="fill: #ac8359;"/>
  <path d="M120.99,95c-.85.21-1-.33-1.5-.75-1.5-1.25-7.41-6.53-8.22-7.77-1.05-1.61-1.42-3.58-1.27-5.48,8.04.12,14.9,5.44,11,14Z" style="fill: #ac8359;"/>
  <path d="M80.96,52.54c1.39,6.06,1.38,14.98-6.45,15.96-.74-6.2-1.84-15.19,6.45-15.96Z" style="fill: #ac8359;"/>
  <path d="M102,111.5c-.28,4.82-3.27,11.27-8.74,11.54-1.17.06-5.48-.58-5.76-1.79-.12-.52,6.76-6.2,7.32-7.67,2.12-1.63,4.49-2.36,7.18-2.08Z" style="fill: #ac8359;"/>
  <path d="M107.5,68.5c-6.15.24-14.12,5.48-18-1.99,6.28-3.14,14.68-6.86,18,1.99Z" style="fill: #ac8359;"/>
  <path d="M69,37l-9.01-3.24c-3.08-1.53-5.42-4.66-4.99-8.26,6.94.48,15.18,2.88,14,11.5Z" style="fill: #d8b486;"/>
  <path d="M71.5,62c1.02,6.33,1.62,14.84-6.5,16-.75-6.27-1.84-15.15,6.5-16Z" style="fill: #ac8359;"/>
  <path d="M111,103.5c2.18,7.68,1.75,15.75-7.99,16,1.16-3.21,1.34-6.78,2.22-10.02.83-3.02,2.51-5.4,5.77-5.98Z" style="fill: #ac8359;"/>
  <path d="M62,71.5c1.01,6.27,1.53,14.91-6.5,16,.33-2.81-.71-5.47-.52-8.27.25-3.85,2.91-7.78,7.02-7.73Z" style="fill: #ac8359;"/>
  <path d="M46.5,65c1.35-2.28,2.55-3.61,5.48-3.48,1.3,6.11,1.36,15.1-6.48,15.98-.28-4.76-1.56-8.18,1-12.5q.81.47,0,0Z" style="fill: #d8b486;"/>
  <path d="M15.5,59l.95-.62c2.17,1.38,6.65,1.42,1.78-.06l-2.99-2.87c.07,1.14-.18,1.99-.75,2.54-1.32-1.32-2.19-2.49-2-4.5,1.98-.38,3.88.46,5.73.53,3.74.14,6.25-1.18,9.54,1.95s1.35,3.36-1.86,4.18c-3.47.89-7.72,1.92-10.41-1.16Z" style="fill: #d8b486;"/>
  <path d="M57,54c1.19-1.23,2.73-2.18,4.5-2.5,1.18,5.2,1.35,15.67-5.76,16.49-1,.12-.67,0-.72-.74-.11-1.65-.46-3.09-.52-4.75.09-.86.76-1.14,1.99-.82-.18-2.54.22-4.42,1.6-6.55l-1.09-1.14Z" style="fill: #d8b486;"/>
  <path d="M9,35.5c-.71-.91-1.57-1.35-1.89-2.86-.67-3.21.72-8.48,4.38-9.14.54,5.86,5.46,8.49,4.47,14.72-.55,3.46-2.12,2.05-3.98.54-.97-.8-1.69-1.81-2.49-2.76,2.12-.32,2.17-1.52.14-3.61.64-10.14-1.73-2.19.12,2.24l-.76.86Z" style="fill: #d8b486;"/>
  <path d="M58.5,94.5c-.51-1.68-.59-2.36-.5-4.26.03-.72-.19-.88.75-.74,1.26.18,9.63,4.51,10.52,5.48,1.46,1.59,2.36,4.38,2.23,6.52-3.17-.11-6.27-.96-9-2.5.03-.74.46-1.17,1.31-1.29-1.99-1.35-3.33-3.1-4-5.25-.33.8-.77,1.48-1.31,2.04Z" style="fill: #ac8359;"/>
  <path d="M17,14c1.58-1.23,2.67-2.21,5-2-2.01,5.88,1.02,13.62-5.75,16.99-1.48-1.9-1.86-4.23-2.25-6.49,2.01.66,2.74-.69,2.18-4.05,1.81-2.01,2.08-3.5.82-4.45Z" style="fill: #d8b486;"/>
  <path d="M7,44.5c-.56-2.12-1.17-4.18.75-5.99,3.95,4.67,12.79,5.25,11.75,12.99-2.55.28-4.76-.67-7-1.5l.48-1.6c-3.34-1.71-3.88-3.42-4.52-6.64-.26,1.33-.74,2.25-1.46,2.74Z" style="fill: #d8b486;"/>
  <path d="M84,59c-.17-3.2-2.24-16.08,4.27-10.02,4.65,4.32,1.22,9.47-4.27,10.02Z" style="fill: #ac8359;"/>
  <path d="M79.84,40.65c2.65,3.42-2.33,8.29-5.84,8.35.11-2.82-.78-5.41-.52-8.27.23-2.56.9-4.14,3.67-2.62.32.17,2.45,2.23,2.69,2.54Z" style="fill: #d8b486;"/>
  <path d="M66,103.5c-.24,1.49-.07,1.49.5,0,5.14.88,12.14,1.03,13,7.5-5.86,1.06-11.61,2.15-14.78-3.97-.61-1.18-.85-2.51-1.23-3.77-.03-.97,2.38.22,2.51.24Z" style="fill: #ac8359;"/>
  <path d="M52.5,81c.09,2.16,1.49,9.08-.49,10.27-2.34,1.41-5.51-1.96-5.93-4.14-.52-2.73,3.6-6.55,6.42-6.13Z" style="fill: #ac8359;"/>
  <path d="M94.5,61.49c-4.27,1.12-7.45,4.8-12,5,.76-.86,1.07-4.54,1.59-4.91.29-.2,2.45-.43,3.41-.84,1.12-.48,2.57-1.97,3.37-2.17,1.39-.34,4.19,2.14,3.63,2.91Z" style="fill: #ac8359;"/>
  <path d="M7,44.5c-.31-1.54.39-4.76,2.44-3.43.53.34.43,3.04.82,3.92.75,1.68,6.75,3.1,2.24,5.01-.46-.17-1.15-.02-1.85-.38-2.07-1.06-3.1-3.03-3.65-5.12Z" style="fill: #f5e2c8;"/>
  <path d="M17,14c4.5.4.44,3.29.1,4.85-.27,1.25.16,2.8-.17,3.83-.42,1.3-2.54,1.16-2.93-.18-.11-.67-.55-1.19-.54-2.24.03-2.98,1.37-4.56,3.54-6.26Z" style="fill: #f5e2c8;"/>
  <path d="M68,40.49c-2.36.3-3.58,2.59-5.25,4-2.25-1.84-1.73-4.86-1.75-7.49.45-.46,6.52,2.4,7,3.49Z" style="fill: #d8b486;"/>
  <path d="M38,73c1.3-1.35,2.52-2.18,4.5-2v7.75c0,.85-1.83,2.21-2.79,2.26-1.48.07-1.51-.66-2.21-1.51,1.27-.64,1.61-1.75,1.01-3.34.88-1.28.71-2.34-.51-3.16Z" style="fill: #d8b486;"/>
  <path d="M58.5,94.5c-.22-2.2.03-3.35,2.5-3-.08.99.09,1.81.57,2.69.91,1.69,6.78,4.36.94,4.81-2.28-1.29-3.17-1.76-4-4.5Z" style="fill: #f5e2c8;"/>
  <path d="M57,54c4.32-.51.92,2.94.6,4.35-.28,1.25.3,3.82-.57,4.44l-2.52-.29c-.11-3.47-.02-5.9,2.5-8.5Z" style="fill: #f5e2c8;"/>
  <path d="M9.5,36c-.15-.18-.36-.31-.5-.5-.69-1.82-2.08-8.24.3-8.96,2.67-.8.9,3.84,1.31,5.6.29,1.26,1.99,2.34,1.87,3.04-.17.99-2.03,1.77-2.98.81Z" style="fill: #fdedd6;"/>
  <path d="M66.5,103.5c.64,1.41,1.27,2.76,2.48,3.77.93.77,5.33,2.09,3.03,3.5-2.84,1.74-10.29-5.01-6.02-7.27.16.03.34-.03.5,0Z" style="fill: #f5e2c8;"/>
  <path d="M14.5,58c-.91-2.04-.2-5.09,2.01-2.75,1.52,1.61,2.22,3.01,5,2.76.71,4.09-4.17,2.07-6,1-.65-.38-.65-.65-1-1Z" style="fill: #fdedd6;"/>
  <path d="M37.5,79.5c-2.19-2.68-1.84-4.06.5-6.5,4.48-.02,1.61,1.88,1.49,3.26-.14,1.65,1.91,3.46-1.99,3.24Z" style="fill: #f5e2c8;"/>
  <path d="M66,90l-4.49-2.25c1.52-1.35,2.48-3.29,3-5.25,2.19,1.64,2.15,5.05,1.49,7.5Z" style="fill: #ac8359;"/>
  <path d="M46.5,65c.31-.61,2.67-.85,2.98.3.18.66-1.92,5.51-.98,7.21-3.09.5-2.64-1.87-2.49-4.25.03-.44.42-3.1.5-3.25Z" style="fill: #fdedd6;"/>
</svg>