<?xml version="1.0" encoding="UTF-8"?>
<svg id="uuid-0eec1b7a-df4d-4798-b36b-71122a89b655" data-name="fill_oat" xmlns="http://www.w3.org/2000/svg" xmlns:xlink="http://www.w3.org/1999/xlink" viewBox="0 0 128 128">
  <defs>
    <linearGradient id="uuid-65bb9e93-8a4d-4934-a716-04a9865653ac" x1="-1559.47" y1="48.64" x2="-1450.73" y2="229.46" gradientTransform="translate(814) scale(.5)" gradientUnits="userSpaceOnUse">
      <stop offset="0" stop-color="#d1b58a"/>
      <stop offset="1" stop-color="#99825e"/>
    </linearGradient>
    <linearGradient id="uuid-b56b0fa0-8ef2-44e1-bcbc-0aa5878e819c" x1="-1562.48" y1="143.3" x2="-1571.1" y2="176.19" gradientTransform="translate(814) scale(.5)" gradientUnits="userSpaceOnUse">
      <stop offset="0" stop-color="#dcc88e"/>
      <stop offset="1" stop-color="#f6eac2"/>
    </linearGradient>
  </defs>
  <path d="M39.5,84c-3.41,2.47-10.53,10.21-14.7,9.98-2.11-.12-2.32-1.63-2.3-3.49-7.37,1.55-3.75-6.66-2.23-10.48,1.57-3.97,3.53-8.38,7.23-10.77-8.54-1.55-8.33-11.61.25-12.66l20.25,4.91c-2.45-5.23-6.78-10.47-9.09-15.65-1.22-2.73-1.03-3.94,0-6.69,3.66-9.85,9.41-19.76,13.49-29.51,3.78-5.08,11.57-2.21,11.14,4.11-.09,1.38-.96,2-1.03,3.25,4.54-4.41,20.44,2.12,23.11,6.15,1.33,2,.4,4.38-2.11,4.36v.49c2.27.21,2.12,3.36.64,4.53-2.44,1.95-16.17,1.41-16.15,2.23,1.68,2.61,3.84,4.89,5.41,7.59.63,1.08,2.79,6.22,3.07,6.44.68.54,1.8-.6,2.8-.76,6.7-1.08,8.79,5.79,6.23,10.97,1.07.1,1.52-.9,2.5-1.25,2.81-.99,4.77-.85,7.61-.11,3.03.79,12.31,4.63,13.92,7.08,1.85,2.83-1.62,3.21-2.02,3.79-.71,1.02.73.92,1.01,1.32.67.94.67,2.95-.36,3.7-2.81,2.06-9.68,2.1-13.15,2.48,2.55,2.51,10.54,8.98,10.02,12.72-.31,2.26-2.82,1.8-3.52,2.28-.19.13,1.67,3.18-.49,4.25-3.02,1.48-15.48-2.67-18.25-4.75-1.47-1.11-2.36-2.84-3.74-4l-.41,3.62,13.3,23.24c1.05,6.63-6.69,10.68-11.11,5.11l-21.78-38.47c-.82-.13-.46.67-.5,1.24-.32,5.63-2.24,9.52-5.29,14.22-2.09,3.22-5.75,8.58-7.71,2.04-1.78,1.73-3.76,2.5-5.1-.14-.15-.3-.89-2.47-.89-2.61v-10.75ZM72.5,52c.8,7.7-8.55,2.2-12.01.26-.81-.45-5.12-3.6-5.49-3.26l14.01,24.99,5.46-20.79.04-1.2h-2Z" style="fill: #0c0e0e;"/>
  <path d="M88.37,117.37c-1.64,1.64-4.45.98-5.59-.89-8.2-13.97-15.83-28.32-24.51-41.99l-32.06-8.44c-3.95-1.72-2.37-7.29,2.01-6.55l25.27,6.51-12.11-21.14-.41-3.12c4.44-10.47,9.02-21.14,14.25-31.26,2.45-2.02,6.17-.02,5.68,3.14-3.5,8.66-7.83,16.97-11.5,25.54-2.13,4.97-1.33,3.31,1,7.17,6.81,11.25,12.63,23.13,19.83,34.16.69-.48.8-1.24,1.01-1.98,2.41-8.49,3.69-17.37,6.13-25.87,1.97-4.02,7.56-1.67,6.49,2.48l-8.32,34.65c2.53,4.61,4.94,9.33,7.53,13.89,1.26,2.22,6.62,9.45,6.33,11.47-.05.35-.8,1.99-1.05,2.24Z" style="fill: url(#uuid-65bb9e93-8a4d-4934-a716-04a9865653ac);"/>
  <path d="M44.51,77.28c1.57-1.47,4.04-2.04,6.12-1.67,2.35.42,4.9,2.99,5.23,5.25.15,1.01.22,1.81.1,2.84-.21,1.79-4.5,10.13-5.74,11.76-.53.7-1.21,1.66-2.22,1.53v-10c-1.99,3.89-3.68,7.46-5.5,9-.82-2.58-.66-4.85-.54-7.22.16-3.02-.16-5.52.86-8.71.35-1.08,1.18-2.33,1.68-2.79Z" style="fill: #e0d09d;"/>
  <path d="M96.53,60.72c2.45.78,4.91,1.94,7.31,3.15,3.89,1.72,4.86,2.38.24,2.78-2.05.18-5.6.02-7.31.44-.15.13.14.37.69.71,1.18.69,2.49,1.4,3.82,1.78,1.09.31,9.1,1.88,3.29,2.71-5.09.72-10.65,2.37-15.68.62-7.16-2.71-4.9-13.25,3.04-13.5" style="fill: #e0d09d;"/>
  <path d="M54.61,44.15c-3.63-6.06,4.15-12.68,10.21-8.46,1.82,1.27,7.46,9.29,8.29,11.45.24.63.52,1.14.39,1.86l-8.5-4c-.62.64,3.42,5.75,4,6.74.27.46,1.01,1.26.75,1.75-4.56-1.58-12.51-4.93-15.14-9.34Z" style="fill: #e0d09d;"/>
  <path d="M28.5,72c6.06-4.01,13.49,2.95,9.23,9.48-1.22,1.87-7.78,7.45-9.89,8.61-.44.24-2.03,1.22-2.34.91l3.5-9-8,5.5c-.05-4.19,4.23-14.47,7.5-15.5Z" style="fill: url(#uuid-b56b0fa0-8ef2-44e1-bcbc-0aa5878e819c);"/>
  <path d="M102,88l-8.23-2.52c-.5-.15-.91.41-.61.84l6.34,6.44c-.16.51-1.24.26-1.69.2-3.22-.45-11.59-3.01-14.05-4.95-5.76-4.52-1.41-13.59,6.28-11.78,2.75.65,9.47,7.39,11.18,9.82.42.59.91,1.16.79,1.96Z" style="fill: #e0d09d;"/>
  <path d="M65.05,30.72c-6.5-3.31-4.23-12.79,3.71-12.75,2.84.02,13,5.55,14.74,6.78l-10.5.75s5.63,2.89,6.84,3.41c.72.3,2.4.86,2.66,1.59-4.62.85-10.09,1.52-14.79,1.03-.72-.08-2.1-.52-2.65-.8Z" style="fill: #e0d09d;"/>
  <path d="M56.08,45.49c-1.05-1.64-2.26-8.55,1.21-7.78.05.04.14.12.19.16.76,1.16-.02,2.77.56,4.03.41,1.21,1.47,2.19,1.88,3.26,1.06,2.74-2.65,2.11-3.73.47l-.1-.15Z" style="fill: #fcfbf7;"/>
  <path d="M29.41,72.98c.69-.2,1.34.19,1.48.89.32,1.78-1.38,3.53-2.54,5.63-.6.92-1.3,2.28-2.39,2.55-3.16-.95,1.1-8.36,3.29-9.02l.14-.04Z" style="fill: #fcfbf7;"/>
  <path d="M44.14,78.47c1.05-1.09,3.71-3.32,4.87-1.29.43,1.54-1.36,2.12-2.13,3.23-.7.88-1.21,2.45-2.03,2.86-1.94.66-1.62-3.87-.82-4.67l.1-.13Z" style="fill: #fcfbf7;"/>
  <path d="M90.16,72.19c-2.83-.76-4.98-4.47-4.01-7.32.14-.3.31-.53.6-.63.96-.31,1.98,1.74,3.24,3.34,1.22,1.51,2.96,2.81,2.64,3.84-.29.93-1.44,1-2.29.82l-.18-.04Z" style="fill: #fcfbf7;"/>
  <path d="M82.58,80.13c1.28-.74,1.97,1.24,2.77,2.95.75,1.98,3.03,2.93,4.14,4.6,1.04,2.44-2.98,1.23-3.93.41-2.52-1.68-5.31-5.31-3.08-7.88l.11-.07Z" style="fill: #fcfbf7;"/>
  <path d="M66.68,31.09c-2.27-.69-4.28-2.75-4.64-5.2-.21-.98-.28-2.4.47-3.07,1.07-.94,1.94.47,2.18,1.44.3,1.05.69,2.14,1.56,2.85,1.07.97,3.01,1.4,3.54,2.31.69,1.55-1.83,2.08-2.93,1.73l-.18-.05Z" style="fill: #fcfbf7;"/>
</svg>