<?xml version="1.0" encoding="UTF-8"?>
<svg id="uuid-e95ca68f-5985-4017-aa41-c0f42de2483c" data-name="fill_herbicide" xmlns="http://www.w3.org/2000/svg" xmlns:xlink="http://www.w3.org/1999/xlink" viewBox="0 0 128 128">
  <defs>
    <linearGradient id="uuid-11e689d4-ca3d-4ce6-aa09-650d6a443551" x1="-168.13" y1="-492.31" x2="-167.88" y2="-389.31" gradientTransform="translate(148 296) scale(.5)" gradientUnits="userSpaceOnUse">
      <stop offset="0" stop-color="#a02928"/>
      <stop offset="1" stop-color="#7b221a"/>
    </linearGradient>
    <linearGradient id="uuid-ebc19dc1-f2c0-491b-a836-ad1dfd8046f6" x1="-168" y1="-470" x2="-168" y2="-412" gradientTransform="translate(148 296) scale(.5)" gradientUnits="userSpaceOnUse">
      <stop offset="0" stop-color="#e5dfcb"/>
      <stop offset="1" stop-color="#d0c5ad"/>
    </linearGradient>
  </defs>
  <path d="M42.5,123.5c-1.74-.46-4.04-.38-4.02-2.73V37.73c.48-3.86,10.56-12.81,11.8-16.7,1.12-3.52-.43-10.34.23-14.27.22-1.32.99-1.65,2.21-1.79,5.02-.54,17.52-.54,22.55,0,1.58.17,2.08.64,2.25,2.25.43,3.98.02,9.53-.53,13.49,4.53,4.86,8.38,10.73,12.39,16.16l.12,83.39c-.26,2.97-1.47,2.61-4,2.74-14.49.27-28.83.44-43,.5Z" style="fill: #0b0c0c;"/>
  <path d="M85.5,123c-.77.76-1.78.49-2.73.51-13.41.3-26.86-.25-40.27-.01.51-.83,1.9-.5,2.74-.51,13.23-.13,27.15.66,40.26,0Z" style="fill: #797979;"/>
  <path d="M41.5,103c-.22-18.06-.22-36.06,0-54,14.48-.43,30.34-.44,45,0,.22,17.84.22,35.84,0,54h-45Z" style="fill: url(#uuid-11e689d4-ca3d-4ce6-aa09-650d6a443551);"/>
  <path d="M87,46h-46v-7.75c0-1.03,10.27-12.98,11.26-15.24l1.46-.54,21.45.11c1.29,2.06,11.83,14.69,11.83,15.67v7.75Z" style="fill: #d7cfb9;"/>
  <rect x="41" y="106" width="46" height="14.5" style="fill: #d7cfb9;"/>
  <path d="M74.5,7.5c.72,3.79.48,7.65.5,11.5h-22V7.5h21.5Z" style="fill: #8e2621;"/>
  <polygon points="41.5 103 41 48.5 87 48.5 86.5 103 86.5 49 41.5 49 41.5 103" style="fill: #8e2621;"/>
  <path d="M48.17,80.67c1.38-1.45,4.06-2.78,4.8-4.85-.23-1.05-6.48-5.96-7.49-7.54-.76-1.19-.73-2.41,0-3.56.47-.73,7.82-7.97,8.38-8.14.77-.23,1.41-.17,2.14.17,1.74.81,6.71,7.77,8.25,7.77,2.57-.9,5.71-6.32,7.76-7.27,1.51-.7,2.54-.09,3.74.75.78.54,7,7.34,7.15,7.85,1.15,3.81-6.08,7.13-7.37,10.34.25,1.16,6.5,5.78,7.21,7.32.38.83.43,1.78.16,2.65-.22.73-8.04,8.38-8.89,8.65-.42.13-.7.19-1.15.12-2.04-.32-6.62-6.5-8.61-7.92-.66,0-7.07,8.09-9.11,8.42-.62.1-.96-.05-1.5-.29-.82-.38-8.36-7.88-8.55-8.48-.68-2.25,1.55-4.39,3.07-5.98Z" style="fill: #0b0c0c;"/>
  <path d="M55,25.5c.09.72,0,1.3-.27,1.98-.32.81-5.92,8.46-6.72,9.28-1.59,1.63-3.11.45-2.13-1.62,1.46-3.05,5.34-6.22,6.71-9.53l2.4-.1Z" style="fill: #fdfcfb;"/>
  <path d="M57,9.5v8c-1.84.11-2.3.12-2.52-1.73-.27-2.28-.74-7.23,2.52-6.27Z" style="fill: #fdfcfb;"/>
  <path d="M63.51,68.5c.47.09.64,0,1-.24,1.81-1.13,7.31-8.28,8.74-8.28,2.74,1.67,4.81,4.6,7.24,6.77,0,.6-8.11,7.34-8.44,8.6-.13.49-.04.73.18,1.15.12.24,3.06,3.54,3.52,4.01.91.93,4.27,2.84,4.27,4.25,0,.48-5.9,7.08-6.37,7.2-1.59.41-2.52-2.04-3.39-2.96-.79-.83-5.08-5.3-5.6-5.44-.71-.19-.92.08-1.43.42-1.42.96-7.88,8.52-8.48,8.52l-7.24-7.24c0-.66,8.57-7.75,9.01-9.5,0-.99-7-7.34-8.27-8.75-.26-.29-.98-.64-.51-1,2.38-2.06,4.34-4.94,7.02-6.52.84,0,8.27,7.41,8.76,9.02Z" style="fill: url(#uuid-ebc19dc1-f2c0-491b-a836-ad1dfd8046f6);"/>
</svg>