<?xml version="1.0" encoding="UTF-8"?>
<svg id="uuid-f1b21b00-0845-48fa-8713-6c99818d61c7" data-name="fill_oilcanola" xmlns="http://www.w3.org/2000/svg" xmlns:xlink="http://www.w3.org/1999/xlink" viewBox="0 0 128 128">
  <defs>
    <linearGradient id="uuid-27f4a8e9-1b86-4acc-a76a-44fd2ccd4597" x1="50.66" y1="4.14" x2="54.85" y2="124.27" gradientUnits="userSpaceOnUse">
      <stop offset="0" stop-color="#eaf6fb"/>
      <stop offset="1" stop-color="#d5edf5"/>
    </linearGradient>
    <linearGradient id="uuid-71b2ddfa-5304-43ec-afa0-c70cfca8c15c" x1="704.52" y1="-870.72" x2="704.35" y2="-803.72" gradientTransform="translate(-296 518) scale(.5)" gradientUnits="userSpaceOnUse">
      <stop offset="0" stop-color="#faf294"/>
      <stop offset="1" stop-color="#eecd25"/>
    </linearGradient>
    <radialGradient id="uuid-649995e7-ed57-4c88-8e1b-da881a888845" cx="90.52" cy="97.51" fx="90.52" fy="97.51" r="20.09" gradientUnits="userSpaceOnUse">
      <stop offset="0" stop-color="#d9ad38"/>
      <stop offset="1" stop-color="#eed769"/>
    </radialGradient>
    <linearGradient id="uuid-bef68816-cfd2-499d-aeee-e6f99e6c6335" x1="709.38" y1="-896.75" x2="709.34" y2="-876.75" gradientTransform="translate(-296 518) scale(.5)" gradientUnits="userSpaceOnUse">
      <stop offset="0" stop-color="#faf294"/>
      <stop offset="1" stop-color="#f1d742"/>
    </linearGradient>
  </defs>
  <path d="M119.28,65.48c-4.47-.5-9.18.95-13.28,2.52-1.15-4.58-5.31-15.97-10.99-9.5-.62-2.54-.57-5.01-1.16-7.6-2.67-11.92-13.44-20.77-24.8-23.94-.24-.27-.17-6.53.03-7.13.41-1.25,4.32-1.81,4.89-5.61.67-4.44.19-8.7-4.12-10.82C63.47.25,50.71-.02,45.25,5c-2.22,2.05-2.28,7.32-1.65,10.15.57,2.54,4.35,3.87,4.42,4.18.15.63.13,7.29-.09,7.6l-4.64,1.6c-6.2-10.63-21.76-11.55-29.5-1.99-6.47,7.99-5.08,20.05,3.24,26.18,1.16.85,5.14,2.31,5.39,3.11-.22,8.4,1.6,16.7,3.72,24.78,2.97,11.32,7.72,24.02,13.1,34.4.9,1.74,4.29,8.14,5.5,9,2.41,1.74,8.31,2.35,11.26,2.49,1.76.44,3.72.48,5.5,0,3.04-.14,9.12-.75,11.47-2.78,2.16-1.88,5.6-11.59,7.37-12.13,3.41-1.04,2.9,1.34,4.05,3.26,1.3,2.17,3.54,4.38,6.08,4.93,9.89,2.11,16.36-5.27,14.05-14.76,8.29-1.49,12.1-12.19,5.99-18.27,3.66-2.49,6.23-4.04,8.4-8.09,1.49-2.81,5.37-12.63.37-13.18ZM30.01,38.26c-1.76,2.12-2.66,4.45-4.07,6.43-1.42,1.98-4.49-1.65-5.22-3.16-2.2-4.59.48-10.55,5.65-11.41,2-.34,3.54.05,5.32.94,5.31,2.69.76,4.27-1.68,7.2Z" style="fill: #0e100f;"/>
  <path d="M91.5,55c-.12-1,.13-2.04-.12-3.13-2.64-11.7-13.48-20.3-24.83-22.91l-.07-11.13c5.71-1.49,7.42-9.23,1.97-12.03-4.86-2.5-15.5-2.68-20.12.28-3.34,2.14-3.47,7.88-.3,10.14.62.43,2.9,1.23,2.99,1.61l-.07,11.13-8.94,3.04c-7.26-16.8-31.9-9.54-29.47,8.71.85,6.39,5.72,10.41,11.46,12.29,3.06,1,.91,4.29.98,6.73.15,6.02,2.12,13.97,3.66,19.88,3.85,14.8,9.93,29.04,17.48,42.27,5.08,2.63,22.08,3.54,25.61-.9.68-.84,5.09-9.05,4.77-9.48-.87-.06-1.66-.81-2.51-.28-.78.49-2.98,6.12-4.26,7.26-1.7,1.51-9.58,2.63-11.97,2.52-2.01-.09-8.56-1.32-10.03-2.48-.91-.72-3.6-5.78-4.32-7.18-4.28-8.3-11.12-26.1-11.88-35.15-.53-6.3,9.53-8.32,14.36-9.05,9-1.37,33.39-1.98,39.34,5.88,1.32,1.74.16,2.46,3.77,1.98-.33-1.86-.27-4.27.12-6.13.5-2.47,2.56-5.22,2.85-7.15.37-2.45-.22-4.56-.47-6.72ZM50.23,12.02c-1.18-.89-.55-2.15.62-2.44.89-.23,3.11.81,4.4.92,1.62.13,3.9.13,5.52.02,1.41-.09,5.32-1.13,5.92-.98,1.07.27,1.3,2.29-.04,2.86-3.1,1.31-13.75,1.66-16.42-.38ZM25.37,27.62c5.75-.98,10.62,1.61,12.59,7.08-2.97,2.53-6.27,5.32-8.37,8.64-1.9,2.98-1.38,6.36-5.79,4.6-9.69-3.86-8.07-18.68,1.57-20.32Z" style="fill: url(#uuid-27f4a8e9-1b86-4acc-a76a-44fd2ccd4597);"/>
  <path d="M70.01,106.43c2.3,2.97.92,5.29-.61,7.72-1.81,2.87-2.4,3.07-5.78,3.72-4.76.93-10.02.37-14.5-1.5-5.94-11.2-11.48-23.28-13.62-35.88,2.9,1.46,6.18,2.34,9.39,2.86,10.43,1.7,21.31,1.43,31.6-.86.06,2.52-.29,5.06.5,7.5-.3.08-.81-.09-1,0-.96-.06-1.79.27-2.5,1-.31.59-2.74,2.23-3.5,3.25-2.69,3.62-1.86,9.76.01,12.18Z" style="fill: url(#uuid-71b2ddfa-5304-43ec-afa0-c70cfca8c15c);"/>
  <path d="M81.5,80c1.32-1.31,1.71-2.01,3.87-2.38,6.68-1.14,11.16,3.86,10.14,10.38,1.72-.27,3.1-1.57,4.86-1.88,14.07-2.43,13.45,18.56-.36,16.38.1,1.22,1.12,1.98,1.6,3.15,2.83,6.92-2.44,13.08-9.74,11.73-4.51-.83-6.98-6.15-6.37-10.38-1.13.04-1.74.97-2.85,1.39-2.71,1.03-4.72,1.49-7.42.13-4.44-2.24-6.33-7.86-3.49-12.27,1.75-2.72,2.72-2.93,3.32-3.13,2.35-.82,3.17-.92,6.44-.62-.92-.97-5.87-7.43,0-12.5Z" style="fill: url(#uuid-649995e7-ed57-4c88-8e1b-da881a888845);"/>
  <path d="M81.85,73.15c.29.25,1.2,1.75,1.14,2.06-1.68.81-3.54,3.37-4.97,4.05-7.5,3.57-28.51,2.82-36.62.59-13.01-3.58-5.52-8.14,3-9.71,7.65-1.41,31.6-2.14,37.46,3.01Z" style="fill: url(#uuid-bef68816-cfd2-499d-aeee-e6f99e6c6335);"/>
  <path d="M106.5,71.5c.4-.28.59-.84,1.46-1.27,3.39-1.7,7.28-2.13,11.04-2.23.05,6.4-3.95,14.55-10.62,16.18-2.17.53-5.69-2.25-8.38-.68-.05-3.57,2.17-8.58,4.73-11.03.77-.74,1.35-.67,1.77-.97q1.18.84,0,0Z" style="fill: #94c691;"/>
  <path d="M97.49,81l-3.49-3.76c-2.96-1.4-2.79-3.48-2.51-6.49.42-4.37,3.79-9.22,7.26-11.72,1.79,2.33,5.15,7.78,4.76,10.69-.09.7-3.02,3.86-3.77,5.26-1.02,1.9-1.73,3.92-2.25,6.01Z" style="fill: #94c591;"/>
  <path d="M82.37,80.18c.57-.13.72-.04,1.1.33.76.87-.17,2.64-.55,4.06-.57,1.66.43,3.42.21,5.06-.41,1.6-1.98,1.19-2.43-.25-1.18-2.82-.84-7.43,1.54-9.14l.14-.06Z" style="fill: #e7f2f8;"/>
  <path d="M75.38,94.8c.77-.15,1.65.36,1.52,1.22-.17,1.17-1.36,2.18-1.74,3.38-.41,1.28-1.12,4.24-2.89,2.51-1.14-2.12.58-6.69,2.96-7.09l.15-.03Z" style="fill: #e7f2f8;"/>
  <path d="M69.5,107c0,1.96-4.15,7.8-4.98,4.71-.37-1.36,3.21-4.92,3.48-7.71.73.63,1.5,2.08,1.5,3Z" style="fill: #e7f2f8;"/>
  <path d="M50.85,9.58c.89-.22,3.11.82,4.4.92,1.61.13,3.9.13,5.52.02,1.4-.09,5.32-1.13,5.92-.98,1.08.27,1.3,2.29-.04,2.86-3.1,1.32-13.75,1.66-16.42-.37-1.18-.9-.55-2.15.62-2.45Z" style="fill: #171b1c;"/>
  <path d="M90.05,91.45c.11.11,2.23.25,3.09.66,1.1.53,1.85,2.07,2.72,2.32,1.84.53,4.1-2.17,5.64-.17.69,2.53-4.42,2.25-4.92,2.82-.17.19-.27,2.19-.69,3.06-.52,1.08-2.11,1.9-2.32,2.71-.27,1.07,2.2,5.07.18,5.65-2.36.67-1.79-4.01-2.86-4.88-.4-.33-2.34-.53-3.24-1.01-1.07-.57-1.92-2.06-2.87-2.09-1.2-.04-3.17,1.54-4.77.98-.85-3.43,3.27-2.67,4.39-3.61.47-.39.6-2.41,1-3.25.49-1.02,1.82-1.74,2.04-2.49.46-1.6-1.45-3.61-.47-4.9,2.28-3,2.86,3.98,3.09,4.21Z" style="fill: #f1dd56;"/>
  <path d="M106.89,71.38c1.21-.89,2.9-1.52,4.43-1.25.62.09,1.26.45,1.07,1.13-.74,1.77-3.03,2.27-4.61,3.87-1.41.99-3.74,5.56-5.34,4.04-.76-2.2,2.76-6.3,4.3-7.67l.16-.12Z" style="fill: #e7f2f8;"/>
  <path d="M97.85,63.62c.26.32.06.96-.13,1.49-.69,1.67-2.1,3.03-2.44,4.86-.41,1.83.2,4.11-1.16,5.16-.77.63-1.7.25-1.87-.78-.56-2.64,1.62-12.38,5.5-10.83l.1.1Z" style="fill: #e7f2f8;"/>
  <path d="M88.13,95.12c2.85-2.99,8.34,1.54,4.64,4.89-3.71,3.35-6.95-2.45-4.64-4.89Z" style="fill: #eed43e;"/>
</svg>