<?xml version="1.0" encoding="UTF-8"?>
<svg id="fill_pancake" xmlns="http://www.w3.org/2000/svg" viewBox="0 0 128 128">
  <g>
    <ellipse cx="64" cy="83.42" rx="58.49" ry="9.65" style="fill: #dccb94; stroke-width: 0px;"/>
    <path d="M64,95.53c-15.75,0-30.59-1.02-41.76-2.86-17.01-2.81-19.19-6.42-19.19-9.26s2.18-6.45,19.19-9.26c11.18-1.84,26.01-2.86,41.76-2.86s30.59,1.02,41.76,2.86c17.01,2.81,19.19,6.42,19.19,9.26s-2.18,6.45-19.19,9.26c-11.18,1.84-26.01,2.86-41.76,2.86ZM8.16,83.42c2.7,2.6,21.16,7.19,55.84,7.19s53.14-4.59,55.84-7.19c-2.7-2.6-21.16-7.19-55.84-7.19s-53.14,4.59-55.84,7.19Z" style="fill: #4a3726; stroke-width: 0px;"/>
  </g>
  <g>
    <ellipse cx="64" cy="73.61" rx="58.49" ry="9.65" style="fill: #dccb94; stroke-width: 0px;"/>
    <path d="M64,85.72c-15.75,0-30.59-1.02-41.76-2.86-17.01-2.81-19.19-6.42-19.19-9.26s2.18-6.45,19.19-9.26c11.18-1.84,26.01-2.86,41.76-2.86s30.59,1.02,41.76,2.86c17.01,2.81,19.19,6.42,19.19,9.26s-2.18,6.45-19.19,9.26c-11.18,1.84-26.01,2.86-41.76,2.86ZM8.16,73.61c2.7,2.6,21.16,7.19,55.84,7.19s53.14-4.59,55.84-7.19c-2.7-2.6-21.16-7.19-55.84-7.19s-53.14,4.59-55.84,7.19Z" style="fill: #4a3726; stroke-width: 0px;"/>
  </g>
  <g>
    <ellipse cx="64" cy="63.95" rx="58.49" ry="9.65" style="fill: #dccb94; stroke-width: 0px;"/>
    <path d="M64,76.07c-15.75,0-30.59-1.02-41.76-2.86-17.01-2.81-19.19-6.42-19.19-9.26s2.18-6.45,19.19-9.26c11.18-1.84,26.01-2.86,41.76-2.86s30.58,1.02,41.76,2.86c17.01,2.81,19.19,6.42,19.19,9.26s-2.18,6.45-19.19,9.26c-11.18,1.84-26.01,2.86-41.76,2.86ZM8.16,63.95c2.7,2.6,21.16,7.19,55.84,7.19s53.14-4.59,55.84-7.19c-2.7-2.6-21.16-7.19-55.84-7.19s-53.14,4.59-55.84,7.19Z" style="fill: #4a3726; stroke-width: 0px;"/>
  </g>
  <g>
    <ellipse cx="64" cy="54.88" rx="58.49" ry="9.65" style="fill: #dccb94; stroke-width: 0px;"/>
    <path d="M64,67c-15.75,0-30.58-1.02-41.76-2.86-17.01-2.81-19.19-6.42-19.19-9.26s2.18-6.45,19.19-9.26c11.18-1.84,26.01-2.86,41.76-2.86s30.58,1.02,41.76,2.86c17.01,2.81,19.19,6.42,19.19,9.26s-2.18,6.45-19.19,9.26c-11.18,1.84-26.01,2.86-41.76,2.86ZM8.16,54.88c2.7,2.6,21.16,7.19,55.84,7.19s53.14-4.59,55.84-7.19c-2.7-2.6-21.16-7.19-55.84-7.19s-53.14,4.59-55.84,7.19Z" style="fill: #4a3726; stroke-width: 0px;"/>
  </g>
  <g>
    <path d="M113.38,52.46c-.6-11.94-121.22-11.15-97.78,3.27,2.58,1,6.15,17.49,10.75,18.25,12.23-4.12,8.76-21.17,36.14-13.12,6.53,3.43,12.44,25.49,18.53,25.06,6.09-.43,12.85-26.76,17.46-27.52,9.67,1.11,11.82,19.31,14.9-5.94Z" style="fill: #e5dd75; stroke-width: 0px;"/>
    <path d="M80.83,88.11c-4.51,0-7.75-6.28-11.49-13.52-2.49-4.82-5.3-10.27-7.69-11.7-16.54-4.81-20.36-.11-24.78,5.32-2.38,2.93-5.08,6.24-9.82,7.84-.34.11-.7.14-1.05.09-3.9-.64-6.23-6.43-8.69-12.55-.89-2.21-2.09-5.21-2.74-5.92-.04-.02-.08-.04-.11-.06-4.24-2.61-4.41-5.11-3.81-6.75.62-1.7,2.52-6.89,35.32-8.49,18.32-.9,38.86-.16,52.32,1.87,11.75,1.78,17.08,4.28,17.28,8.13,0,.13,0,.25-.01.37-1.32,10.84-2.44,14.22-4.99,15.07-2.25.76-3.95-1.01-5.74-2.88-1.61-1.68-3.59-3.74-6.04-4.26-1.42,1.2-4.01,6.99-5.75,10.89-4.52,10.1-7.57,16.25-11.85,16.55-.11,0-.23.01-.34.01ZM50.06,56.57c3.49,0,7.74.65,13.04,2.21.14.04.27.09.4.16,3.64,1.91,6.59,7.62,9.7,13.65,2.04,3.94,5.85,11.32,7.66,11.16,2-.16,6.17-9.5,8.18-13.98,3.81-8.53,5.95-13,9.07-13.52.2-.03.4-.04.6-.01,4.26.49,7.13,3.48,9.23,5.66.39.4.86.89,1.25,1.25.44-1.14,1.14-3.9,1.97-10.57-1.61-2.59-18.99-6.15-48.24-6.24-29.16-.07-46.49,3.33-48.14,5.91.12.2.53.74,1.83,1.56,1.72.84,2.78,3.31,4.72,8.15,1.06,2.64,3.44,8.56,5,9.7,3.12-1.28,5.07-3.67,7.13-6.2,3.45-4.24,7.24-8.89,16.58-8.89ZM14.81,57.76s0,0,0,0c0,0,0,0,0,0ZM111.22,52.68h.01-.01Z" style="fill: #4a3726; stroke-width: 0px;"/>
  </g>
  <g>
    <rect x="47.22" y="34.65" width="33.56" height="17.77" style="fill: #f3f34e; stroke-width: 0px;"/>
    <path d="M80.78,54.6h-33.56c-1.2,0-2.18-.98-2.18-2.18v-17.77c0-1.2.98-2.18,2.18-2.18h33.56c1.2,0,2.18.98,2.18,2.18v17.77c0,1.2-.98,2.18-2.18,2.18ZM49.4,50.24h29.2v-13.41h-29.2v13.41Z" style="fill: #4a3726; stroke-width: 0px;"/>
  </g>
</svg>