<?xml version="1.0" encoding="UTF-8"?>
<svg id="uuid-06bf5eb6-20cb-4bc1-94b3-5f31421cdc37" data-name="fill_paperroll" xmlns="http://www.w3.org/2000/svg" xmlns:xlink="http://www.w3.org/1999/xlink" viewBox="0 0 128 128">
  <defs>
    <linearGradient id="uuid-f2972344-b14b-4dfa-b017-0b43d037b00f" x1="-1229.98" y1="-672.18" x2="-1226.88" y2="-528.22" gradientTransform="translate(666 370) scale(.5)" gradientUnits="userSpaceOnUse">
      <stop offset="0" stop-color="#f5f5f5"/>
      <stop offset="1" stop-color="#d8d9d9"/>
    </linearGradient>
    <linearGradient id="uuid-4c3bedfa-8384-4e55-b445-4082ecc5d90f" x1="-1181.55" y1="-695.56" x2="-1121.98" y2="-578.89" gradientTransform="translate(666 370) scale(.5)" gradientUnits="userSpaceOnUse">
      <stop offset="0" stop-color="#d8d9d9"/>
      <stop offset="1" stop-color="#9c9c9c"/>
    </linearGradient>
    <linearGradient id="uuid-46c2d743-fd2e-4383-93f7-69090b367fc8" x1="-1230.05" y1="-627.99" x2="-1230.06" y2="-570.99" gradientTransform="translate(666 370) scale(.5)" gradientUnits="userSpaceOnUse">
      <stop offset="0" stop-color="#9c9c9c"/>
      <stop offset=".28" stop-color="#9d9e9e"/>
      <stop offset=".82" stop-color="#d7d7d7"/>
      <stop offset="1" stop-color="#d8d9d9"/>
    </linearGradient>
  </defs>
  <path d="M107.83,81.83c-2.19,2.18-5.27,4.17-7.87,5.88-8.85,5.83-29.89,19.76-39.35,21.65C14.95,118.44-6.69,58.57,31.16,35.91c8.28-4.96,31.3-11.14,41.42-13.58,37.17-8.93,61.11,33.75,35.24,59.49Z" style="fill: #0c0e0f;"/>
  <path d="M47.39,33.14c32.14-3.28,53.59,32.55,34.8,58.8-22.07,30.83-70.61,13.08-67.69-25.19,1.29-16.98,15.91-31.87,32.89-33.61Z" style="fill: url(#uuid-f2972344-b14b-4dfa-b017-0b43d037b00f);"/>
  <path d="M84.5,93.5c2.09-3.22,3.91-6.44,5.14-10.11,8.24-24.71-7.96-49.93-33.63-52.89l3-1.24c10.02-2.53,19.51-7.33,30.11-5.12,28.76,6.01,36.28,42.37,12.34,59.57-3.58,2.57-11.32,7.54-15.19,9.31-.6.27-1,.67-1.77.47Z" style="fill: url(#uuid-4c3bedfa-8384-4e55-b445-4082ecc5d90f);"/>
  <path d="M48.38,52.63c9.61-1.33,18.41,4.91,20.48,14.27,4.16,18.87-20.06,30.58-32.34,15.34-8.81-10.93-1.95-27.7,11.87-29.61Z" style="fill: #101313;"/>
  <path d="M39.67,81.83c-5.87-6.05-5.62-16.62.57-22.34,9.42-8.71,24.97-3.1,26.2,9.82,1.4,14.77-16.61,22.99-26.77,12.52Z" style="fill: url(#uuid-46c2d743-fd2e-4383-93f7-69090b367fc8);"/>
</svg>