<?xml version="1.0" encoding="UTF-8"?>
<svg id="uuid-1b2a3230-0119-46f4-bb4f-091b0bf34db9" data-name="fill_grapejuice" xmlns="http://www.w3.org/2000/svg" xmlns:xlink="http://www.w3.org/1999/xlink" viewBox="0 0 128 128">
  <defs>
    <linearGradient id="uuid-8b3f097b-c091-46e9-8c39-354506ddbe9e" x1="-612.45" y1="-1058.25" x2="-612.25" y2="-960.25" gradientTransform="translate(370 592) scale(.5)" gradientUnits="userSpaceOnUse">
      <stop offset="0" stop-color="#7e85cc"/>
      <stop offset="1" stop-color="#464c88"/>
    </linearGradient>
    <linearGradient id="uuid-366a40ee-81f2-41c0-9b92-ea89e1630374" x1="-612.28" y1="-1091.02" x2="-612.33" y2="-1059.7" gradientTransform="translate(370 592) scale(.5)" gradientUnits="userSpaceOnUse">
      <stop offset="0" stop-color="#8087ce"/>
      <stop offset="1" stop-color="#4d5391"/>
    </linearGradient>
    <linearGradient id="uuid-d562c990-e7f6-43ce-86ca-13dff60576db" x1="-531.33" y1="-1069.53" x2="-541.08" y2="-1025.38" gradientTransform="translate(370 592) scale(.5)" gradientUnits="userSpaceOnUse">
      <stop offset="0" stop-color="#6ebd3e"/>
      <stop offset="1" stop-color="#1d6422"/>
    </linearGradient>
  </defs>
  <path d="M103,53.5c3.53-.17,5.12,1.3,6.38,4.37,2.38,5.76,2.63,13.29-.88,18.63,4.18-1.16,12.55-3.68,13.48,2.79.95,6.62-6.02,5.38-10.12,6.83-1.79.63-3.63,1.68-4.86,3.14,6.03.45,11.5,5.97,11.99,12,.77,9.51-8.36,16.98-17.5,14-1.12-.37-3.9-2.32-4.68-2.18-1.44.26-1.24,2.68-1.71,3.79-2.74,6.46-8.97,10.05-16.02,8.3-2.58-.64-5.03-3.34-6.87-3.63-4.56-.72-11.07.28-15.97-.03-3.39-.21-7.41-1-10.76-1.74-6.25-1.39-16.24-4.53-17-12-1.29-12.73-1.55-25.78-2.5-38.5-1.07-14.32-2.92-29.21-3.5-43.5-.18-4.31-.18-6.37,3.26-9.24,13.07-10.89,57.56-9.86,72.43-2.45,2.99,1.49,6.88,4.16,7.28,7.74l-2.47,31.7Z" style="fill: #050606;"/>
  <path d="M94.5,61c.36.37-1.65,4.83-1.88,5.87-.71,3.22-.19,5.9-.13,9.13-16.53-8.54-28.7,13.38-13.5,23.49-6.61,1.27-9.93,7.68-10,14-8.82.11-18.49.09-26.68-3.57-2.68-1.2-5.81-2.95-6.29-6.21-.56-3.77-.23-8.62-.53-12.47-.4-5.16-1.12-10.37-1.5-15.5-.38-5.06-.38-10.19-1-15.25,15.53,8.65,35.41,7.51,52.39,4.14l9.11-3.64Z" style="fill: url(#uuid-8b3f097b-c091-46e9-8c39-354506ddbe9e);"/>
  <path d="M58.39,11.14c11.32-.55,24.68.48,35.37,4.35,12.3,4.45,11.33,10.47-.49,14.53-15.25,5.23-40.78,5.17-56.27.73-8.3-2.38-18.76-8.27-5.84-14.34,7.66-3.59,18.79-4.86,27.23-5.27Z" style="fill: #e8f7fb;"/>
  <path d="M102,28.5c.06,8.76-1.42,17.46-1.5,26.24-.23,1.29-1.66,2.5-2.99,2.26,1.4-3.61-1.56-6.58-4.49-8.26-12.4-7.12-44.91-7.08-57.54-.5-3.8,1.98-5.72,3.5-5.5,8.04.7,14.41,2.37,28.67,3.35,43.06.15,2.29-.14,2.95.45,5.67.12.53.5,1.55.71,1.86,2.6,3.89,5.67,5.38,10.12,6.78,8.1,2.55,16.63,2.53,25.07,2.34.61.58,1.63,2.96.09,3.02-9.89.44-27.4-.35-35.51-6.5-4.07-3.09-2.89-5.97-3.25-10.25-1.64-19.3-3.14-38.72-4.5-58-.37-5.23-.39-10.52-1-15.75.33-.36,3.58,2.09,4.31,2.44,15.53,7.47,50.68,7.3,66.53.65,1.96-.82,3.87-1.95,5.65-3.09Z" style="fill: #e8f7fb;"/>
  <path d="M90.67,49.74c7.11,3.55,4.84,8.97-1.75,11.26-14.02,4.54-33.18,4.38-47.56.76-16.47-5.33-6.53-12.36,4.82-14.32,13.58-2.34,31.39-3.09,44.33,2.22l.17.08Z" style="fill: url(#uuid-366a40ee-81f2-41c0-9b92-ea89e1630374);"/>
  <path d="M103.37,92.12c12.24-2.11,17.67,14.02,7.6,19.6-8.14,4.51-17.41-2.3-15.85-11.35.64-3.73,4.51-7.6,8.25-8.25Z" style="fill: #5f66a6;"/>
  <path d="M84.98,76.61c14.3-.29,14.6,21.97-.06,21.42-12.94-.47-13.29-20.77-.15-21.41h.21Z" style="fill: #5f66a6;"/>
  <path d="M71.88,110.14c1.16-6.61,8.94-10.6,14.95-7.58,6.62,2.88,8.18,12.39,2.92,17.3-7.3,7.21-19.86.6-17.91-9.53l.04-.19Z" style="fill: #5f66a6;"/>
  <path d="M95.71,65.78c.74-2.72,3.59-7.16,6.8-9.02,3.38-1.96,4.55,2.09,5.24,4.74,1.41,5.41,1.07,9.74-2.03,14.47-1.33,2.04-5.44,6.93-8.01,5.07-2.16-1.57-2.88-12.04-2-15.26Z" style="fill: url(#uuid-d562c990-e7f6-43ce-86ca-13dff60576db);"/>
  <path d="M89.42,50.72c1.42.02,2.9.98,3.25,2.29.17,1.19-.5,2.15-1.09,3.14-.45.73-.98,1.33-1.68,1.81-2.98,2.03-9.61,3.97-12.37,4.18-1.82.13-3.56.05-5.57.07-1.97.17-4.13-.61-1.92-2.24,1.76-.78,4.37-.17,6.35-.62,2.84-.62,11.69-1.89,12.62-4.89.05-.74-1.25-1.52-1.14-2.52.06-.71.67-1.14,1.39-1.22h.16Z" style="fill: #9da3e3;"/>
  <path d="M119.27,80.09c-.8,2.3-4.29,1.85-6.27,2.47-4.31,1.21-7.56,5.34-11.51,7.53-2.14,1.34-3.9.34-2.82-2.16,1.08-2.67,3.32-4.82,6.01-6.56,2.78-1.74,13.88-6.74,14.61-1.4l-.02.12Z" style="fill: #5a4632;"/>
  <path d="M38.22,86.33c-2.64-.87-1.85-9.95-2.44-12.81-.1-1.17-.17-2.37-.05-3.52.27-2.68,1.73-3.11,2.48-.87.7,2.28.56,4.72.69,7.41-.14,2.72.92,8.26-.61,9.76l-.06.02Z" style="fill: #9da3e3;"/>
  <path d="M39.32,98.55c-1.01.68-1.59-1.22-1.82-1.99-.51-1.91-.82-7.63,1.59-6.56,1.39,1.28,1.31,7.07.31,8.47l-.07.08Z" style="fill: #9da3e3;"/>
  <path d="M101.83,99.97c-3.05,2.33-5.57-2.67-2.24-4.12,2.3-.92,3.97,2.37,2.37,3.98l-.14.14Z" style="fill: #9da3e3;"/>
  <path d="M77.95,84.31c-1.72-2.32,1.84-4.93,3.75-3.1,2.16,2.22-1.61,5.53-3.63,3.25l-.12-.15Z" style="fill: #9da3e3;"/>
  <path d="M74.74,109.81c-1.63-2.35,2.34-5.66,4.36-3.65,1.58,1.91-2.05,6.2-4.26,3.79l-.1-.14Z" style="fill: #9da3e3;"/>
  <path d="M101.38,58.76c1.48-.87,2.65.08,1.84,1.58-.77,1.59-2.5,2.87-3.33,4.74-.49,1-.8,2.11-1.14,3.17-.39,1.12-.73,2.44-1.85,2.92-.76.18-1.07-.76-1.14-1.46-.27-3.5,2.58-8.93,5.46-10.86l.17-.09Z" style="fill: #8cc273;"/>
</svg>