<?xml version="1.0" encoding="UTF-8"?>
<svg id="uuid-23a1b350-7dca-4e4b-a902-df6368b46207" data-name="fill_emptypallet" xmlns="http://www.w3.org/2000/svg" viewBox="0 0 128 128">
  <path d="M43.65,10.58h8.89c0-1.72-.03-3.43.01-5.13.03-1.21.33-2.38,1.51-2.98.61-.31,1.34-.51,2.02-.51,4.77-.04,9.54-.03,14.32-.02,2.27,0,3.57,1.33,3.57,3.62,0,1.66,0,3.32,0,5.01h10.43c0-1.71-.03-3.4,0-5.08.03-1.21.29-2.38,1.47-3,.6-.31,1.34-.53,2.01-.54,7.12-.04,14.24-.03,21.37-.02,2.15,0,3.46,1.33,3.48,3.49.01,1.37,0,2.74,0,4.11,0,37.58,0,75.16,0,112.74,0,1.29-.22,2.54-1.47,3.22-.6.32-1.34.54-2.01.54-7.12.04-14.24.03-21.37.02-2.16,0-3.46-1.32-3.49-3.48-.01-1.17,0-2.34,0-3.54h-10.43c0,1.12.06,2.26-.02,3.4-.05.71-.2,1.46-.51,2.1-.57,1.17-1.72,1.5-2.9,1.51-4.85.04-9.69.03-14.54,0-2.15,0-3.44-1.35-3.46-3.51-.01-1.15,0-2.3,0-3.49h-8.96c0,1.16.03,2.32,0,3.49-.04,1.21-.33,2.37-1.5,2.98-.59.3-1.29.51-1.95.51-7.15.04-14.29.03-21.44.02-2.11,0-3.4-1.33-3.45-3.45,0-.1,0-.2,0-.29,0-38.88,0-77.76,0-116.63,0-1.29.25-2.54,1.5-3.2.6-.32,1.34-.52,2.02-.52,7.1-.04,14.19-.03,21.29-.02,2.19,0,3.51,1.33,3.53,3.52.01,1.66,0,3.33.01,4.99,0,.02.02.04.05.13ZM84.37,97.52V32.09h-10.37v65.42h10.37ZM52.51,32.09h-8.88v65.45h8.88V32.09Z" style="fill: #4c3928; stroke-width: 0px;"/>
  <path d="M87.56,5.05h15.95c0,.31,0,.59,0,.88,0,14.25-.01,28.49,0,42.74,0,.45.09.94.3,1.33.32.58.94.68,1.55.55.68-.15,1.03-.66,1.08-1.32.05-.58,0-1.17,0-1.76,0-13.83,0-27.66,0-41.49,0-.29,0-.57,0-.9h3.18v117.85h-15.08c0-.33,0-.64,0-.95,0-17.75,0-35.5,0-53.24,0-.27,0-.54,0-.81-.04-.95-.58-1.5-1.44-1.51-.9,0-1.45.55-1.48,1.54-.01.27,0,.54,0,.81,0,17.72,0,35.45,0,53.17v1h-4.05V5.05Z" style="fill: #a5805c; stroke-width: 0px;"/>
  <path d="M32.43,122.94h-14.05V5.08h3.92c0,.32,0,.65,0,.97,0,14.39,0,28.79,0,43.18,0,.32-.01.64.05.95.15.73.67,1.12,1.42,1.12.74,0,1.26-.4,1.41-1.13.06-.31.05-.63.05-.95,0-14.37,0-28.74,0-43.11,0-.34,0-.67,0-1.05h15.22v117.85h-5.09c0-.51,0-1.03,0-1.56,0-10.85,0-21.69,0-32.54,0-10.53,0-21.05,0-31.58,0-1.22-.46-1.82-1.4-1.85-.84-.03-1.41.44-1.52,1.27-.04.29-.02.59-.02.88,0,21.2,0,42.4,0,63.6,0,.58,0,1.16,0,1.8Z" style="fill: #a5805c; stroke-width: 0px;"/>
  <path d="M63.12,5.05h7.73v117.89h-2.32c.06-.62.16-1.18.16-1.75-.04-5.01-.08-10.03-.14-15.04-.01-.97-.6-1.55-1.49-1.53-.85.01-1.42.59-1.43,1.53-.01,4.11,0,8.23,0,12.34,0,1.46,0,2.91,0,4.44h-9.95V5.08h4.51v.97c0,22.84,0,45.68,0,68.52,0,.34-.02.69.05,1.02.15.73.67,1.13,1.41,1.13.75,0,1.27-.39,1.42-1.12.07-.33.05-.68.05-1.02,0-22.84,0-45.68,0-68.52,0-.31,0-.62,0-1.01Z" style="fill: #a5805c; stroke-width: 0px;"/>
  <path d="M74.03,28.9v-15.17h10.33v15.17h-10.33Z" style="fill: #7d5d3d; stroke-width: 0px;"/>
  <path d="M74.02,115.86v-15.15h10.33v15.15h-10.33Z" style="fill: #7d5d3d; stroke-width: 0px;"/>
  <path d="M43.63,28.9v-15.15h8.85v15.15h-8.85Z" style="fill: #7d5d3d; stroke-width: 0px;"/>
  <path d="M43.62,115.86v-15.15h8.86v15.15h-8.86Z" style="fill: #7d5d3d; stroke-width: 0px;"/>
</svg>