<?xml version="1.0" encoding="UTF-8"?>
<svg id="uuid-f11a1a3f-8bae-4bd4-8093-b3b0b076f8e4" data-name="fill_potatopancake" xmlns="http://www.w3.org/2000/svg" viewBox="0 0 128 128">
  <g>
    <ellipse cx="58.11" cy="73.24" rx="53.66" ry="8.86" style="fill: #dccb94; stroke-width: 0px;"/>
    <path d="M58.11,84.36c-14.45,0-28.06-.93-38.31-2.62-15.61-2.58-17.61-5.89-17.61-8.49s2-5.92,17.61-8.49c10.25-1.69,23.86-2.62,38.31-2.62s28.06.93,38.31,2.62c15.61,2.58,17.61,5.89,17.61,8.49s-2,5.92-17.61,8.49c-10.25,1.69-23.86,2.62-38.31,2.62ZM6.88,73.24c2.48,2.39,19.41,6.6,51.23,6.6s48.76-4.21,51.23-6.6c-2.48-2.39-19.41-6.6-51.23-6.6s-48.76,4.21-51.23,6.6Z" style="fill: #4a3726; stroke-width: 0px;"/>
  </g>
  <g>
    <ellipse cx="58.11" cy="64.38" rx="53.66" ry="8.86" style="fill: #dccb94; stroke-width: 0px;"/>
    <path d="M58.11,75.5c-14.45,0-28.06-.93-38.31-2.62-15.61-2.58-17.61-5.89-17.61-8.49s2-5.92,17.61-8.49c10.25-1.69,23.86-2.62,38.31-2.62s28.06.93,38.31,2.62c15.61,2.58,17.61,5.89,17.61,8.49s-2,5.92-17.61,8.49c-10.25,1.69-23.86,2.62-38.31,2.62ZM6.88,64.39c2.48,2.39,19.41,6.6,51.23,6.6s48.76-4.21,51.23-6.6c-2.48-2.39-19.41-6.6-51.23-6.6s-48.76,4.21-51.23,6.6Z" style="fill: #4a3726; stroke-width: 0px;"/>
  </g>
  <g>
    <ellipse cx="58.11" cy="56.06" rx="53.66" ry="8.86" style="fill: #dccb94; stroke-width: 0px;"/>
    <path d="M58.11,67.18c-14.45,0-28.06-.93-38.31-2.62-15.61-2.58-17.61-5.89-17.61-8.49s2-5.92,17.61-8.49c10.25-1.69,23.86-2.62,38.31-2.62s28.06.93,38.31,2.62c15.61,2.58,17.61,5.89,17.61,8.49s-2,5.92-17.61,8.49c-10.25,1.69-23.86,2.62-38.31,2.62ZM6.88,56.06c2.48,2.39,19.41,6.6,51.23,6.6s48.76-4.21,51.23-6.6c-2.48-2.39-19.41-6.6-51.23-6.6s-48.76,4.21-51.23,6.6Z" style="fill: #4a3726; stroke-width: 0px;"/>
  </g>
  <g>
    <path d="M99.36,96.13c-6.5-.11-11.33-3.35-15.94-7.34-7.28-6.31-10.9-14.64-13.65-23.54-1.55-5.01-2.7-10.07-1.33-15.28,1.87-7.09,6.14-12.52,12.33-16.31,4.35-2.66,9.09-1.85,13.77-.79,8.25,1.87,14.05,6.7,18.15,14.09,2.27,4.09,5.52,7.64,8.15,11.54,4.26,6.31,6.22,13.22,4.1,20.73-2.32,8.19-8.51,12.55-16.22,14.97-3.03.95-6.24,1.3-9.37,1.93Z" style="fill: #4a3726; stroke-width: 0px;"/>
    <path d="M99.22,91.23c-4.82.3-8.38-2.21-11.9-5.04-7.26-5.84-10.7-13.89-13.28-22.46-.62-2.05-1.08-4.16-1.44-6.27-1.08-6.29,1.51-11.33,5.57-15.84,2.56-2.85,5.44-5.51,9.44-5.23,3.48.24,6.98,1.22,10.3,2.37,4.97,1.73,8.02,5.69,10.67,10.09,1.97,3.27,4.23,6.4,6.6,9.4,3.14,3.98,5.41,8.34,5.98,13.37.66,5.79-1.42,10.67-6,14.31-4.65,3.68-10.13,5.04-15.94,5.31Z" style="fill: #a5805b; stroke-width: 0px;"/>
    <path d="M109.41,79.04c.01,2.19-1.39,3.69-3.47,3.73-2.11.04-3.8-1.69-3.82-3.9-.01-1.71,1.85-3.45,3.71-3.47,2.06-.02,3.56,1.51,3.57,3.64Z" style="fill: #4a3726; stroke-width: 0px;"/>
    <path d="M80.16,60.71c-1.68,0-3.34-1.69-3.31-3.39.03-1.85,1.52-3.32,3.36-3.29,1.85.03,3.3,1.5,3.31,3.34,0,1.77-1.58,3.34-3.35,3.35Z" style="fill: #4a3726; stroke-width: 0px;"/>
    <path d="M112.94,68.22c-.05,1.64-1.45,2.98-3.06,2.95-1.54-.03-3.02-1.62-2.93-3.13.11-1.76,1.55-3.13,3.2-3.05,1.5.08,2.84,1.62,2.79,3.23Z" style="fill: #4a3726; stroke-width: 0px;"/>
    <path d="M96.69,74.42c-1.57-.03-2.48-1.01-2.41-2.56.07-1.5,1.15-2.5,2.63-2.43,1.38.07,2.59,1.33,2.52,2.64-.07,1.37-1.24,2.38-2.73,2.35Z" style="fill: #4a3726; stroke-width: 0px;"/>
    <path d="M83.12,50.23c-1.37,0-2.41-1.01-2.44-2.4-.03-1.34,1.01-2.46,2.34-2.51,1.39-.05,2.55,1.1,2.53,2.5-.02,1.42-1.01,2.39-2.42,2.4Z" style="fill: #4a3726; stroke-width: 0px;"/>
  </g>
</svg>