<?xml version="1.0" encoding="UTF-8"?>
<svg id="uuid-0ea5b360-d1bb-4ac4-ad1e-cd47d9c706ce" data-name="fill_springonion" xmlns="http://www.w3.org/2000/svg" xmlns:xlink="http://www.w3.org/1999/xlink" viewBox="0 0 128 128">
  <defs>
    <linearGradient id="uuid-3f7a200e-f608-4ea8-aee4-5ecf935d9eef" x1="323.2" y1="-277.17" x2="360.44" y2="-219.08" gradientTransform="translate(-74 222) scale(.5)" gradientUnits="userSpaceOnUse">
      <stop offset="0" stop-color="#fdebcb"/>
      <stop offset=".48" stop-color="#fceaca"/>
      <stop offset="1" stop-color="#ceb68b"/>
    </linearGradient>
    <linearGradient id="uuid-31153a4a-2e59-462d-af61-92f52a1fa038" x1="36.55" y1="31.24" x2="69.03" y2="31.24" gradientUnits="userSpaceOnUse">
      <stop offset="0" stop-color="#58b14f"/>
      <stop offset=".53" stop-color="#57b14f"/>
      <stop offset="1" stop-color="#378531"/>
    </linearGradient>
    <linearGradient id="uuid-981c1e39-0868-4cf7-abcf-aac7a95f57c5" x1="276.8" y1="-433.36" x2="316.06" y2="-286.86" gradientTransform="translate(-74 222) scale(.5)" xlink:href="#uuid-31153a4a-2e59-462d-af61-92f52a1fa038"/>
    <linearGradient id="uuid-2cb2020c-d7cf-4769-8221-443da7c6a00b" x1="199.01" y1="-392.41" x2="292.7" y2="-321.81" gradientTransform="translate(-74 222) scale(.5)" xlink:href="#uuid-31153a4a-2e59-462d-af61-92f52a1fa038"/>
    <linearGradient id="uuid-4f312726-9bb4-4b04-9dbe-d6e260dc6edd" x1="35.65" y1="47.18" x2="70.13" y2="94.64" xlink:href="#uuid-31153a4a-2e59-462d-af61-92f52a1fa038"/>
    <linearGradient id="uuid-1d89c2ee-e6a6-4706-8241-56aa8e40f863" x1="73.94" y1="103.58" x2="94.81" y2="103.58" gradientTransform="matrix(1,0,0,1,0,0)" xlink:href="#uuid-3f7a200e-f608-4ea8-aee4-5ecf935d9eef"/>
    <linearGradient id="uuid-a53a6afb-a22b-4fa6-a527-77dd2c491779" x1="13.6" y1="78.98" x2="58.56" y2="78.98" xlink:href="#uuid-31153a4a-2e59-462d-af61-92f52a1fa038"/>
    <linearGradient id="uuid-cba57262-0748-4577-8526-aa9a665b5d0a" x1="18.9" y1="67.4" x2="48.45" y2="67.4" xlink:href="#uuid-31153a4a-2e59-462d-af61-92f52a1fa038"/>
    <linearGradient id="uuid-f0f23ee2-e61d-4634-9b36-abb0b9906ac8" x1="111.04" y1="122.66" x2="107.09" y2="117.01" gradientTransform="matrix(1,0,0,1,0,0)" xlink:href="#uuid-3f7a200e-f608-4ea8-aee4-5ecf935d9eef"/>
  </defs>
  <path d="M90.65,74.35c4.72,5.54,6.91,11.48,11.14,17.11,5.22,6.94,11.8,8.53,10.67,19.25-.09.86-.89,2.21-.86,2.56.07.79,4.54,1.79,5.19,4.21.79,2.96-1.44,4.08-2.99,5.57-.53.51-.85,1.57-1.51,1.99-.37.24-5.41,1.51-6.04,1.51-2.83.01-4.22-2.13-4.28-4.81-.02-.8,1.06-3.74-.22-3.72-.39,0-3.86,4.15-6.46,3.99-3.29-.2-3.14-4.36-3.88-4.9-.46-.34-3.72-.56-4.81-.94-4.17-1.44-5.69-5.61-8.34-8.66-11.67-13.5-34.88-25.47-52.16-29.34-3.08-.69-11.69-1.49-13.58-2.92-2.35-1.77-1.88-5.95.31-7.67,3.07-2.41,9,.74,12.68.43l-6.35-2.39c-5.3-2.73-3.47-10.31,3.88-8.88,5.17,1.01,11.75,4.36,16.47,6.77.62-.73-6.65-12.63-6.53-15.74.17-4.43,6.8-6.09,9.14-2.12,1.31,2.22,2.37,5.9,3.63,8.37,8.42,16.51,21.51,31.17,36.6,41.9.81.57,6.17,4.1,6.66,3.58-.05-2.52-2.13-4.47-3.1-6.65-3.17-7.09-5.42-11.55-9.99-18.01-13.33-18.85-31.6-34.82-52.17-45.33-2.65-2.4-1.21-8.18,2.23-9.29,3.84-1.23,7.38,2.49,10.68,3.87l13.35,8.4c.21-.94-.53-1.18-1-1.75-4.03-4.84-9.38-7.85-13.52-11.98-3.67-3.66-.35-9.97,4.73-9.25,2.32.33,9.22,6.35,11.29,8.22,4.13,3.73,7.67,8.21,11.99,11.76l-1.99-18.75c-.49-5.74.31-10.33,7.22-9.22,5.16.83,3.46,9.52,3.78,13.22,1.11,13.1,5.08,30.7,10.26,42.74,1.03,2.4,7,15.81,7.89,16.86Z" style="fill: #0a0d0c;"/>
  <path d="M93.98,106.18c-.49-1.53-.94-4.44-1.6-6.31-.79-2.23-4.22-7.92-4.38-9.16-.39-3.06,2.45-8.84,2.5-12.21,3.05,3.63,4.85,8.29,7.48,12.26.94,1.42,2.42,3.64,3.51,4.85,4.45,4.97,9.45,6.3,8.52,14.65-.55,4.92-6.98,7.3-10.69,4.26-.51-.42-4.64-6.15-5.34-8.34Z" style="fill: url(#uuid-3f7a200e-f608-4ea8-aee4-5ecf935d9eef);"/>
  <path d="M69,50.5l-10.01-13.24c-2.44-2.49-4.48-5.34-6.99-7.76-3.56-3.43-15.02-12.85-15.02-12.85-1.26-1.91.41-4.91,2.75-4.65,2.36.26,13.49,11.18,15.77,13.5,2.54,2.58,7.74,7.37,9.43,10.32,1.16,2.02,3.02,9.57,3.72,12.28.2.8.48,1.54.35,2.4Z" style="fill: url(#uuid-31153a4a-2e59-462d-af61-92f52a1fa038);"/>
  <path d="M64.01,11.26c-.39-2.4-1.2-6.9,2.28-7.23,5.32-.51,3.42,7.18,3.71,10.72,1.78,21.5,8.35,42.67,18.41,61.6l-1.42,4.9c-10.58-16.19-17.62-33.98-20.94-52.99-1.09-6.03-1.69-14.21-2.05-17Z" style="fill: url(#uuid-981c1e39-0868-4cf7-abcf-aac7a95f57c5);"/>
  <path d="M28.89,29.75c-1.23-.84-3.6-1.31-3.91-3.53-.21-1.53.78-3.41,2.38-3.65s9.22,4.56,11.1,5.71c15.91,9.8,32.48,24.37,39.15,42.35.19.51,1,2.35-.1,2.36-7.45-11.1-17.31-21.61-27.77-29.99-3.37-2.7-18.32-11.44-20.85-13.26Z" style="fill: url(#uuid-2cb2020c-d7cf-4769-8221-443da7c6a00b);"/>
  <path d="M71,94c-.5.61-9.71-7.96-10.52-8.75-.39-.39-11.93-13.24-17.48-22.75-1.78-2.84-6.76-12.58-6.92-13.33-.54-2.53,1.4-4.26,3.45-2.45,5.16,12.82,12.65,24.66,21.97,34.78,1.87,2.03,3.74,4.1,5.74,6.01,2.23,2.14,4.6,2.42,3.76,6.49Z" style="fill: url(#uuid-4f312726-9bb4-4b04-9dbe-d6e260dc6edd);"/>
  <path d="M94.54,112.64c-.38.91-1.8,1.23-2.37,1.37-2.69.7-6.1-.38-7.93-2.49-.84-.97-1.72-2.99-1.74-3.02-1.08-1.36-2.62-3.2-3.8-4.45-.88-.95-3.45-2.43-3.95-3.55-.33-.75-1.02-7.2-.75-7.5.9-.25,1,.41,1.49.76,2.61,1.84,4.77,4.17,7.55,5.95,1.3.83,6.85,3.42,7.35,3.91,3.61,3.56,5.07,6.83,4.15,9.02Z" style="fill: url(#uuid-1d89c2ee-e6a6-4706-8241-56aa8e40f863);"/>
  <path d="M58.5,88.5s-12.15-6.88-16.5-8.5c-4.72-1.76-19.66-4.8-24.69-5.9-1.88-.43-3.91-.25-3.7-2.77.17-2.03,2.05-1.92,3.63-1.83,7.49.43,18.89,3.9,25.76,7,5.04,2.28,10.49,6.4,14.68,10.07.74.66,1.01.78.82,1.93Z" style="fill: url(#uuid-a53a6afb-a22b-4fa6-a527-77dd2c491779);"/>
  <path d="M54.87,27.37c1.03,3.1-2.78,1.13-5.17-1.06-1.65-1.52-3.28-3.08-4.85-4.67-1.87-1.98-4-4.9-2-4.84,1.9.33,3.5,1.6,5.1,2.88,2.43,2.06,5.79,5,6.86,7.56l.05.13Z" style="fill: #b2d49d;"/>
  <path d="M95.71,105.72c-.1-1.43.83-3.08,2.06-1.45,1.23,1.62,2.04,4.52,4.06,5.72,1.46.99,3.06,2.09,2.37,2.78-.83.71-2.04.64-3.08.36-3.24-.7-5.21-4.09-5.4-7.23v-.18Z" style="fill: #fcfaf7;"/>
  <path d="M48.45,75.81l-2.19-.8c-3.7-2.17-7.39-4.67-11.26-6.51-3.74-1.4-15.41-5.45-15.77-5.97-.84-1.2-.01-3.41,1.53-3.54,1.03-.09,6.93,2.09,8.37,2.63,1.69.63,3.26,1.66,4.87,2.38,2.65,1.18,7.04,2.51,9.26,4.49,1.66,1.49,3.56,5.47,5.19,7.32Z" style="fill: url(#uuid-cba57262-0748-4577-8526-aa9a665b5d0a);"/>
  <path d="M43.79,62.41c-.5-.26-.92-.82-1.25-1.35-1.89-3.22-3.85-6.01-4.99-9.74-.3-1.14.63-2.81,1.66-1.97,1.76,1.94,3.88,7.5,5.55,10.29.29.53.62,1.15.62,1.72.04.77-.7,1.47-1.45,1.11l-.14-.07Z" style="fill: #b2d49d;"/>
  <path d="M33.77,64.86c1.63,1.15,1.59,2.46.03,2.39-1.56-.02-3.06-.86-4.52-1.4-1.56-.66-3.56-1.21-4.66-2.24-1.1-.9-1-2.3.65-2.33,2.85.09,6.12,1.99,8.38,3.49l.13.09Z" style="fill: #b2d49d;"/>
  <path d="M27.65,74.33c-.85.34-2.32.21-3.7.01-1.83-.26-3.87-.34-5.58-.83-1.53-.39-2.17-1.71-.18-2.16,1.55-.5,12.64.76,9.59,2.92l-.13.05Z" style="fill: #b2d49d;"/>
  <path d="M83.32,107.76c.37-1.44,2.44-.73,3.47-.11,1.43.84,3.01,1.18,4.55,1.91,2.04.96,2.49,3.25-.29,3.45-3.15.23-7.54-2.21-7.74-5.11l.02-.13Z" style="fill: #fcfaf7;"/>
  <path d="M97.72,116.01c.96.97.36,1.52-.28,2.24-.68.59-1.46,1.71-2.46,1.13-2.64-2.01-.72-6.47,2.59-3.51l.14.13Z" style="fill: #f8e7c7;"/>
  <path d="M114.29,119.19c-.25.75-1.1,1.08-1.86,1.03-.51-.02-.86-.07-.96.15-.17.57.07,1.29-.2,1.85-.31.84-1.35,1.09-2.03.52-.3-.18-.79-.8-1.06-.58-.37.32-.62,1.61-1.21,1.84-.48.27-1.1.14-1.48-.26-.82-.8-.61-2.51-.62-3.77.01-.52,0-1.13.31-1.54.46-.64,1.7-.71,2.6-1.35.8-.47,1.5-1.03,2.42-1.13.71-.06,1.34.27,1.88.69.79.56,2.59,1,2.27,2.37l-.05.17Z" style="fill: url(#uuid-f0f23ee2-e61d-4634-9b36-abb0b9906ac8);"/>
  <path d="M39.5,35c-2.05-.4-1.92-1.12-3.39-1.96s-3.29-1.63-4.87-2.52c-.57-.32-1.58-.87-1.73-1.51l1.06-.63c3.22,1.46,6.49,3.01,9.14,5.4l-.2,1.22Z" style="fill: #56ac4e;"/>
  <path d="M67.49,26.85c-.66-.36-1.02-1.29-1.17-2.09-.63-2.78-.71-5.92-.9-8.71-.09-1.8-.26-3.69,0-5.48.2-1.94,1.61-3.03,2.38-.55.38,1.29.34,2.79.37,4.15-.01,2.61.3,4.93.71,7.47.2,1.54.86,3.49-.07,4.84-.32.46-.76.62-1.2.43l-.11-.05Z" style="fill: #b2d49d;"/>
  <path d="M39.95,35.04c-2.2-1.26-4.86-3.39-7.4-4.5-1.26-.67-2.82-1.17-3.21-2.52.03-2.4,2.53-1.44,4.43-.29,2.15,1.41,8.58,4.27,8.61,6.71-.11.78-1.27,1.11-2.27.66l-.16-.07Z" style="fill: #b2d49d;"/>
</svg>