<?xml version="1.0" encoding="UTF-8"?>
<svg id="uuid-ab723457-539b-4947-8c40-a78cfa2d5642" data-name="fill_cake" xmlns="http://www.w3.org/2000/svg" xmlns:xlink="http://www.w3.org/1999/xlink" viewBox="0 0 128 128">
  <defs>
    <linearGradient id="uuid-5e82f057-36f6-490f-b017-654d5982b874" x1="1015.52" y1="-1119.36" x2="1015.33" y2="-1082.36" gradientTransform="translate(-444 592) scale(.5)" gradientUnits="userSpaceOnUse">
      <stop offset="0" stop-color="#e85e4e"/>
      <stop offset="1" stop-color="#ce3323"/>
    </linearGradient>
    <linearGradient id="uuid-866d7dde-b1e9-458b-92d4-d9c548f3ee5d" x1="953.32" y1="-1129.31" x2="953.49" y2="-1092.31" gradientTransform="translate(-444 592) scale(.5)" gradientUnits="userSpaceOnUse">
      <stop offset="0" stop-color="#e85e4e"/>
      <stop offset="1" stop-color="#ce3323"/>
    </linearGradient>
    <linearGradient id="uuid-b65eb937-b2ef-47bc-8e79-adee6495ba47" x1="1077.32" y1="-1129.68" x2="1077.45" y2="-1092.68" gradientTransform="translate(-444 592) scale(.5)" gradientUnits="userSpaceOnUse">
      <stop offset="0" stop-color="#e85e4e"/>
      <stop offset="1" stop-color="#ce3323"/>
    </linearGradient>
  </defs>
  <path d="M70.44,2.06c.4.29,1.47,5.28,1.55,6.19.42,4.77-.24,9.32-1.64,13.85l-4.36,6.89c2.19-.41,4.05,3.02,5.35,3.41,1.45.43,3.75-.04,5.4.1,2.34.2,4.9.6,7.23.99,4.43-12.1,14.9-14.13,20.96-1.68.73,1.51,1.81,6.06,2.32,6.68.36.44,4.04,1.81,5.08,2.42,3.66,2.13,6.79,4.24,7.18,8.82.99,11.49-.78,24.38-.02,36.02.07,2-1.71,3.79-1.98,5.52-1.65,10.68,4.06,15.7-8.42,22.08-20.48,10.47-67.47,10.38-88.45,1.23-3.16-1.38-8.26-4.01-9.86-7.14-2.1-4.11-.05-14.55-.83-19.67-.21-1.36-1.28-2.5-1.71-3.79-1.5-4.44-1.25-27.07-.78-32.76.39-4.76,2.44-7.19,6.37-9.63,1.09-.68,6-2.64,6.2-2.92.84-1.23,1.72-5.32,2.69-7.2,1.2-2.34,2.95-4.37,4.7-6.3-1.34-3.23-2.71-6.58-3.3-10.06-.3-1.74-1.29-6.04,1.09-6.09,4.86.61,9.19.79,13.78,2.72,5.73,2.41,6.35,4.09,9.87,8.61.32.41-.03.92,1.14.63.42-7.47,6.88-13.81,13.31-16.94,1.22-.6,6.17-2.69,7.13-2Z" style="fill: #0c0e0e;"/>
  <path d="M54.5,35c-4.28,8.92-8.03,17.33,4.88,19.87,4.57.9,10.46.24,14.47-2.28,6.66-4.18.93-12.13-.84-17.59,1.43.1,8.84.32,9.29.97.99,1.42-1.2,4.31-1.33,5.77-.66,7.23,9.86,9.22,15.29,8.75,4.6-.39,12.26-2.82,11.76-8.49,3.49,1.15,8.53,4.22,9.02,8.22,1.33,10.69-1.06,24.06,0,35.05-1.15,3.28-3.62,9.45-7.77,9.26-3.24-.15-4.95-3.99-9.9-2.93-4.9,1.05-7.28,6.77-12.63,6.91-5.25.13-12.38-4.28-17.2-5.3-7.16-1.51-6.4,2.78-9.81,6.24-2.86,2.9-4.94-1.47-6.97-2.96-3.7-2.72-4.95-.87-8.5-.96-4.75-.11-5.76-7.12-12.88-5.93-2.93.49-5.18,3.18-8.56,2.86s-11.73-6.43-12.12-10.31c.29-10.3-1.01-21.73-.21-31.94.32-4.14,5.39-7.06,9.02-8.22-.54,4.94,4.33,6.93,8.39,7.86,5.78,1.32,18.57.08,18.13-8.1-.09-1.68-1.04-3.28-1.31-4.75-.1-.54-.39-.87.28-1.28.98-.6,7.79-.41,9.52-.73Z" style="fill: #f7f5e6;"/>
  <path d="M115,95v9.25c0,1.71-4.71,5.39-6.23,6.27-18.59,10.68-72.82,10.77-91.11-.42-1.36-.83-5.15-3.79-5.15-5.35v-14.75c2.43.77,4.33,3.07,6.66,4.09,7.37,3.23,10.59-2.73,14.47-2.01,3.21.6,5.15,5.44,9.36,6.22,2.21.41,3.91-.85,5.79-.83,3.62.05,5.99,9.01,11.98,4.53,3.12-2.33,2.89-7.26,7.76-6.29,7.05,1.41,15.57,7.92,23.11,4.16,2.61-1.3,5.81-5.25,8.74-5.8,3.41-.64,5.5,4.06,11.16,2.7,1.6-.38,2.03-1.57,3.47-1.78Z" style="fill: #876546;"/>
  <path d="M55,41.5c.38-2.28.73-3.48,2.1-5.65,7.29-11.56,14.22-.45,16.53,7.77,1.3,4.61,1.23,6.39-3.74,8.02-4.42,1.45-10.27,1.36-14.42-.87-2.59-1.39-2.62-2.08-2.33-4.89.07-.72.06-2.8,1.36-2.39.84.41,1.24,1.44,1.19,3.09.81-1.48,1.43-3.14,1.87-4.98,3.7-6.12,4.38-7.86,2.04-5.21l-3.13,5.72c-.7.6-1.23.27-1.48-.62Z" style="fill: url(#uuid-5e82f057-36f6-490f-b017-654d5982b874);"/>
  <path d="M24,36c.14-.4.31-.39.5,0,.88.67,1.02,2.1.42,4.28,1.19-3.7,3.04-7.39,5.57-11.06-.88-.04-1.38-.44-1.49-1.21,2.98-3.83,7.13-1.42,9.5,1.75,1.51,2.02,5.03,10.14,5.02,12.51-.02,2.81-2.96,4.08-5.24,4.76-4.17,1.25-9.33,1.17-13.28-.77-5.19-2.55-2.52-6.3-.99-10.26Z" style="fill: url(#uuid-866d7dde-b1e9-458b-92d4-d9c548f3ee5d);"/>
  <path d="M85,39c.81-.15,1.58.3,2.29,1.34l1.77-5.24c2.83-3.15,3.64-5.52,2.44-7.11-.44-.14-.43-.31,0-.5,1.25-.83,1.62-1.7,3.71-1.5,4.66.45,9.61,11.28,10.2,15.37.27,1.92-.2,2.94-1.73,4.05-4.31,3.12-12.83,3.15-17.35.5-3.35-1.96-2.52-3.99-1.32-6.93Z" style="fill: url(#uuid-b65eb937-b2ef-47bc-8e79-adee6495ba47);"/>
  <path d="M68.49,5c1.42,5.32,1.54,12.19-1.08,17.16-.58,1.11-3.73,5.23-4.65,5.85-1.06.71-2.23.7-3.22,1.28-1.11.64-1.92,2.32-3.16,2.84-.7.3-2.9.7-3.33.33-.2-.17-.98-4.5-1.04-5.21-.92-11.3,6.38-18.79,16.49-22.25Z" style="fill: #86bf68;"/>
  <path d="M31,23.5c-.07,0-.47.8-.99.3-1.28-.93-4.19-11.19-3.51-11.8,12.73-.52,23.14,7.98,23.5,21h-7c-.97-3.89-4.86-8.9-9-9.5l-1.4-.66c-3.02-7.85-5.43-10.25-.82-.27l-.78.93Z" style="fill: #86bf68;"/>
  <path d="M85,39c.22-.55.79-2.34,1-2.5,1.23-3.61,3.06-6.45,5.5-8.5,4.58.08-.61,5.37-1.59,7.66-1.34,3.14-1.6,9.37-4.91,3.34Z" style="fill: #f5aea6;"/>
  <path d="M54.5,43.5c.03-.92.4-1.4.5-2,1.22.27,1.03-.62,1.41-1.32.76-1.42,2.95-6.55,4.81-6.17.63.13.86,1.07.79,1.72-.08.73-2.96,4.95-3.6,6.43-.51,1.18-1.15,4.66-1.89,5.11-2.37,1.46-2.06-2.44-2.02-3.77Z" style="fill: #f5aea6;"/>
  <path d="M34,23.5c-.78-.11-2.18-.07-3,0-.28-1.76-3.45-6.6-2.77-7.99.19-.4,1-1.12,1.51-1.01.62.14,3.62,7.77,4.26,9Z" style="fill: #cee2b5;"/>
  <path d="M91.5,27.5v.5c-2.44,2.32-3.33,6.81-5.5,8.5.04-2.37,2.39-6.64,3.99-8.28.63-.64,1.18-.51,1.51-.72Z" style="fill: #da4838;"/>
  <path d="M29,28c.18.16.34.34.43.54.18.43-3.69,7.54-4.93,7.46h-.5c.64-1.65.76-2.67,1.79-4.46.64-1.11,2.11-3.56,3.21-3.54Z" style="fill: #da4838;"/>
  <path d="M99.67,58.7c-16,6.49-55.12,5.3-72.28.16-1.62-.49-10.25-3.29-9.86-5.05.38-.52.87-1.3,1.63-1.23.79.07,6.12,2.65,7.84,3.17,20.03,6.13,51.39,6.21,71.5.5,1.67-.48,9.65-3.78,10.18-3.68.48.09.99.82,1.29,1.23.45,1.99-8.63,4.21-10.3,4.89Z" style="fill: #131516;"/>
  <path d="M29,28c.72.02,2.7.12,2.51,1.24-.22,1.28-2.84,4.21-3.6,5.91-.63,1.4-1.49,6.04-2.21,6.29-.5.17-1.15.01-1.69.06-.32-.36.22-4.64.5-5.5.63-1.97,3.28-6.44,4.5-8Z" style="fill: #f5aea6;"/>
  <path d="M54,21.5c-.51-4.43,5.16-11.29,9.01-12.73,1.56-.58,3.93-.15,2.5,1.5-1.34,1.54-4.26,2.28-6.22,4.78-1.02,1.3-2.98,6.02-3.27,6.23-.57.41-1.38.2-2.02.23Z" style="fill: #cee2b5;"/>
</svg>