<?xml version="1.0" encoding="UTF-8"?>
<svg id="uuid-7419b043-27d5-47cf-8eda-090c8221e266" data-name="fill_egg" xmlns="http://www.w3.org/2000/svg" xmlns:xlink="http://www.w3.org/1999/xlink" viewBox="0 0 128 128">
  <defs>
    <linearGradient id="uuid-16131f46-b22c-4d8f-89db-b01921143e1e" x1="-1410.83" y1="-542.83" x2="-1360.45" y2="-375.24" gradientTransform="translate(740 296) scale(.5)" gradientUnits="userSpaceOnUse">
      <stop offset="0" stop-color="#dacab3"/>
      <stop offset="1" stop-color="#b99b77"/>
    </linearGradient>
    <linearGradient id="uuid-86c3f8ee-5437-42f3-9cae-251c1a733618" x1="-1278.18" y1="-547.2" x2="-1337.85" y2="-385.88" gradientTransform="translate(740 296) scale(.5)" gradientUnits="userSpaceOnUse">
      <stop offset="0" stop-color="#ded5ca"/>
      <stop offset="1" stop-color="#b9b8b4"/>
    </linearGradient>
  </defs>
  <path d="M87.9,15.65c13.89-.95,23.42,10.22,27.25,22.46,8.2,26.27.4,74.13-35.39,72.39-2.48-.12-7.03-1.61-8.98-1.48-1.39.09-8,3.4-10.39,4.12-17.66,5.31-33.02-.15-41.97-16.3-9.31-16.78-11.47-51.03,1.1-66.58,11.66-14.41,28.77-10.43,41.74-.24.67,0,5.81-5.09,7.01-6.01,5.4-4.15,12.76-7.89,19.63-8.36Z" style="fill: #0d0f0f;"/>
  <path d="M35.89,23.65c23.07-2.14,48.12,32.34,49.6,53.11,1.2,16.73-9.05,28.16-24.23,33.27-36.79,12.38-49.72-24.72-47.77-54.27.85-12.85,7.51-30.72,22.39-32.1Z" style="fill: url(#uuid-16131f46-b22c-4d8f-89db-b01921143e1e);"/>
  <path d="M105.8,95.31c-3.16,4.39-7.58,8.07-12.67,10.08-6.25,2.46-12.53,2.57-19.13,1.61,3.77-3.54,7.47-6.6,10.09-11.16,10.71-18.63-1.15-42.27-13.83-56.85-1.07-1.24-6.28-5.72-6.28-6.74,0-1.45,7.41-7.05,8.96-8.06,16.07-10.6,31-6.5,38.31,11.32,6.74,16.44,5.11,45.13-5.44,59.8Z" style="fill: url(#uuid-86c3f8ee-5437-42f3-9cae-251c1a733618);"/>
  <path d="M18.5,62.5v-9.25c0-3.42,3.05-12.05,4.74-15.26.54-1.03,4.95-8.45,5.3-4.23.07.79-3.47,6.35-4.13,7.9-1.59,3.75-3.05,9.05-3.41,13.09-.25,2.8,1.42,8.52-2.5,7.75Z" style="fill: #fdfcfb;"/>
  <path d="M85.89,22.14c1.16-.14,5.53-.56,5.09,1.55-.42,1.98-5.34,1.14-7.1,1.42-1.09.17-2.99.96-4.05,1.45-1.38.64-3.82,2.69-4.68,2.85-1.73.33-2.19-1.18-.91-2.44,2.49-2.45,8.2-4.45,11.64-4.85Z" style="fill: #fdfcfb;"/>
</svg>