<?xml version="1.0" encoding="UTF-8"?>
<svg id="fill_beanstraw" xmlns="http://www.w3.org/2000/svg" viewBox="0 0 128 128">
  <g>
    <path d="M109,114.68c-3.41,4.97-7.2,5.18-15.51,2.7-5.45,3.36-12.39,2.29-16.71-2.58-2.35-.22-4.7-.44-7.01-.65-2.72,4.89-10.05,5.65-15.55,3.81-4.75,1.45-9.32,3.41-14.08.48-8.33,3.29-12.15,4.28-16.33-3.75-7.33.21-15.97.68-19.57-7.04-2.56-4.84-2.28-9.73,1.02-14.2,10.83-14.69,21.72-29.33,32.58-43.99,9.1-17.77,32.43-26.23,46.1-8.38,13,17.02,25.46,34.45,38.31,51.59,8.37,9.8-.92,24.23-13.26,22.02Z" style="fill: #4a3726; stroke-width: 0px;"/>
    <path d="M18.98,86.57c10.06-13.92,20.17-27.81,30.58-41.46,7.51-9.76,21.77-9.6,29.13.26,12.81,17.16,25.54,34.38,38.28,51.59,4.17,4.93-.24,12.12-6.4,10.69,1.65-9.47-.19-14.2-10.59-15.08,3.16-9.49-5.08-13.75-13.53-13.25.68-9.97-16.09-13.88-19.96-4.19-5.4-2.63-10.42-2.41-15.35.41-3.94-6.01-7.3-6.09-14.52-3.88-5.79,1.77-6.18,6.82-4.64,12.4-4.82-.75-8.71.99-12.52,3.03-.42.07-.68-.01-.48-.51Z" style="fill: #d5bd77; stroke-width: 0px;"/>
    <path d="M50.82,112.03c-2.3.45-4.29.84-6.82,1.34-2.15-11.88-4.23-23.4-6.39-35.29,2.37-.44,4.31-.8,6.78-1.26,2.13,11.68,4.22,23.12,6.42,35.22Z" style="fill: #dccb94; stroke-width: 0px;"/>
    <path d="M63.69,111.61c-2.33.17-4.34.31-6.87.49-.5-10.71-.97-21.07-1.47-31.71h6.85c.48,10.08.97,20.27,1.5,31.22Z" style="fill: #dccb94; stroke-width: 0px;"/>
    <path d="M76.12,107.86c-2.38-.24-4.33-.45-6.87-.71,1.24-10.39,2.44-20.48,3.67-30.88,2.44.32,4.31.57,6.79.9-1.2,10.22-2.37,20.26-3.59,30.7Z" style="fill: #dccb94; stroke-width: 0px;"/>
    <path d="M88.97,112.77c-2.41-.49-4.33-.88-6.76-1.38,1.74-8.61,3.42-16.88,5.16-25.5,2.32.42,4.24.77,6.78,1.23-1.73,8.58-3.41,16.86-5.19,25.65Z" style="fill: #dccb94; stroke-width: 0px;"/>
    <path d="M23.49,92.23c2.1-.69,3.9-1.28,6.12-2.02,2.71,7.36,5.3,14.38,7.96,21.59-2.12.91-3.72,1.58-5.59,2.38-.55-.59-1.35-1.1-1.62-1.81-2.21-6.76-5.59-13.16-6.87-20.15Z" style="fill: #dccb94; stroke-width: 0px;"/>
    <path d="M18.98,86.57c.16.17.32.34.48.51-5.99,6.36.44,13.61,2.09,20.68-6.4,1.14-15.04-1.66-11.37-9.34,2.64-4.13,5.84-7.91,8.8-11.85Z" style="fill: #d5bd77; stroke-width: 0px;"/>
    <path d="M102.76,112.37c-2.52-.48-4.45-.84-6.74-1.28.67-4.08,1.28-7.83,1.96-12.01,2.34.39,4.34.72,6.74,1.11-.67,4.16-1.27,7.9-1.96,12.17Z" style="fill: #dccb94; stroke-width: 0px;"/>
  </g>
  <g>
    <path d="M42.68,49.53c-3.5-3.49-5.29-7.61-4.58-12.65-6.78-6.09-5.07-16.26-2.61-24.02,1.04-3,4.15-4.18,8.02-3.32,1.03-1.88,2.86-2.09,4.83-2.09,9.25-1.37,20.48,1.64,22.7,11.66,2.73,5.48,10.14,5.05,10.68,14.46,7.31,2.42,10.07,9.91,13.16,16.26,3.23,8.11-14.86,11.58-20.51,12.25-1.04,4.05-4.44,5.04-8.35,5.28-11.29,1.89-24.76-3.82-23.33-17.84Z" style="fill: #4a3726; stroke-width: 0px;"/>
    <path d="M61.87,63.95c-7.87.63-16.83-4.98-15.44-13.81.21-1.38-.05-2.45-1.19-3.47-5.79-5.12-1.97-8.32-4.09-12.08-6.14-4.94-3.75-12.7-2.58-19.26.19-1.16.78-2.19,1.89-2.3,2.71.27,5.22,2.34,7.87,3.02,6.81,1.31,13.61,6.79,12.18,14.46-.13.73.3,1.84.86,2.39,6.45,5.93,2.01,9.14,4.67,12.84,4.07,3.47,3.8,8.81,4.52,13.65,1.19,5.11-5.53,3.93-8.68,4.54Z" style="fill: #7fa95f; stroke-width: 0px;"/>
    <path d="M91.75,52.39c-5.52,3.26-11.14,5.77-17.79,5.65-.32-7.84-1.42-9.17-5.05-15.44.39-4.73-1.29-8.63-4.68-11.88,1.64-10.53-8.11-17.42-17.42-18.8,0-.14,0-.28-.01-.42,6.73-1.39,14.55-1.25,18.94,4.89,2.09,2.67,1.18,7.1,4.95,8.48,4.05,1.66,6.84,4.42,7.3,9.1.18,2.95,3.88,3.29,5.65,4.94,3.86,3.8,6.28,8.4,8.12,13.48Z" style="fill: #589058; stroke-width: 0px;"/>
    <path d="M49.16,30.64c-4.21.24-8.58-5.65-4.91-8.9,6.05-5.05,14.29,8.38,4.91,8.9Z" style="fill: #4a3726; stroke-width: 0px;"/>
    <path d="M52.47,34.94c5.21-.23,9.26,8.31,2.75,9.85-6.19,1.32-10.92-9.64-2.75-9.85Z" style="fill: #4a3726; stroke-width: 0px;"/>
    <path d="M59.58,59.49c-7.21.06-8.77-11.64-.31-9.65,4.89,1.02,7.21,9.57.31,9.65Z" style="fill: #4a3726; stroke-width: 0px;"/>
  </g>
</svg>