<?xml version="1.0" encoding="UTF-8"?>
<svg id="uuid-18a29d81-0d15-4103-8408-04f83dec475c" data-name="fill_pressurewasheradditive" xmlns="http://www.w3.org/2000/svg" xmlns:xlink="http://www.w3.org/1999/xlink" viewBox="0 0 128 128">
  <defs>
    <linearGradient id="uuid-b2ed4dd8-be8c-44ff-b1f8-81921a73a74d" x1="2503.22" y1="-1008.92" x2="2503.21" y2="-956.92" gradientTransform="translate(-1184 518) scale(.5)" gradientUnits="userSpaceOnUse">
      <stop offset="0" stop-color="#90acc2"/>
      <stop offset="1" stop-color="#4883af"/>
    </linearGradient>
    <linearGradient id="uuid-f9690f75-8585-4a69-b435-d0fa0d8876eb" x1="2579.28" y1="-834.16" x2="2429.28" y2="-834.05" gradientTransform="translate(-1184 518) scale(.5)" gradientUnits="userSpaceOnUse">
      <stop offset="0" stop-color="#ab7a3c"/>
      <stop offset=".51" stop-color="#c29a6d"/>
      <stop offset="1" stop-color="#ac7c3f"/>
    </linearGradient>
    <linearGradient id="uuid-7f2b29e3-34a1-42ab-ac00-1aa4b6246b68" x1="2411.03" y1="-929.21" x2="2509.03" y2="-929.13" gradientTransform="translate(-1184 518) scale(.5)" gradientUnits="userSpaceOnUse">
      <stop offset="0" stop-color="#a77533"/>
      <stop offset="1" stop-color="#c0986a"/>
    </linearGradient>
    <linearGradient id="uuid-6cdb6408-bf26-4afb-9595-c7337fd49a03" x1="2507.95" y1="-927.51" x2="2593.95" y2="-927.38" gradientTransform="translate(-1184 518) scale(.5)" gradientUnits="userSpaceOnUse">
      <stop offset="0" stop-color="#c0986a"/>
      <stop offset="1" stop-color="#a77533"/>
    </linearGradient>
    <linearGradient id="uuid-883145c4-9471-40f7-aede-ad5402498723" x1="2587.47" y1="-877.43" x2="2463.47" y2="-877.17" gradientTransform="translate(-1184 518) scale(.5)" gradientUnits="userSpaceOnUse">
      <stop offset="0" stop-color="#6d6c6b"/>
      <stop offset=".68" stop-color="#a9a9a8"/>
      <stop offset="1" stop-color="#908f8e"/>
    </linearGradient>
    <linearGradient id="uuid-14fa20ce-5aa5-40c4-8d56-e117fa355871" x1="2530.59" y1="-918.03" x2="2393.64" y2="-914.27" gradientTransform="translate(-1184 518) scale(.5)" gradientUnits="userSpaceOnUse">
      <stop offset="0" stop-color="#717170"/>
      <stop offset=".5" stop-color="#a9a9a8"/>
      <stop offset="1" stop-color="#71716f"/>
    </linearGradient>
  </defs>
  <path d="M58.46,10.17c14.55-.86,44.68.61,56.35,9.87,2.91,2.31,4.64,4.78,4.21,8.69-1.18,10.89-4.31,22.1-4.95,33.05-.06.98-.09,2,.02,2.98.75,6.52-.38,14.56-2.9,20.65-1.86,4.51-1.22,13.46-2.87,18.63-.95,3-5.8,6.55-8.57,7.93-16.34,8.13-50.93,8.48-66.65-1.23-9.18-5.67-6.54-12.41-8.78-21.72-20.76-7.72-16.18-37.8-11.12-54.6,1.03-3.42,2.12-5.03,2.98-8.52,2.11-8.57,18.19-12.38,25.79-13.71,5.19-.91,11.24-1.7,16.49-2.01ZM66.97,12.64c-11.39.06-36.48,2.24-45.37,9.68-3.06,2.56-3.74,6.26-.79,9.21,6.42,6.39,27.02,9.52,36,10,2.73.15,17.77.35,19.03-.47,1.51-.98,1.72-2.54,4.47-2.54,2.32,0,2.93,1.56,4.1,1.91,3.69,1.12,18.59-2.97,22.64-4.66,10.3-4.29,13.5-10.71,1.69-16.17-11.45-5.29-29.22-7.02-41.77-6.96ZM17.06,33.53c-1.27-.17-.78.06-1.04.71-1.85,4.65-3.38,13.46-3.95,18.55-1.26,11.14-.84,27.07,10.81,32.69,20.32,9.79,42.95-16.17,53.41-30.97,1.06-1.5,6.06-8.65,6.26-9.74.14-.76.21-2.57-.45-3.01s-2.87-.39-3.54.02c-.4.25-4.23,6.73-5.08,7.92-8.36,11.76-30.5,39.54-47.25,31.93-7.92-3.6-9.99-13.25-9.68-21.36.19-4.86,2.07-11.11,2.06-15.48,0-3.42-1.64-7.69-1.55-11.25ZM73.56,44.53c-17.96-.27-37.77-.28-53.5-10l3.59,29.91c4.91,2.91,10.51,4.37,15.9,6.09l-.89-19.69c1.07-1.82,2.64-2,2.91.42.53,4.61.18,9.89.48,14.52.06,1,.61,5.23.99,5.51l6.48,1c2.24-1.97,5.25-4.17,7.31-6.24,3.4-3.42,7.76-8.89,10.71-12.79,2.13-2.82,4.07-5.79,6.02-8.73ZM95.07,70.02c.96.9,15.38-4.19,16.26-5.99,1.21-9.83,3.05-19.65,3.74-29.51-8.73,5.88-19.2,7.48-29.41,9.08-.76,3.23-3.09,6.49-4.97,9.28-3.44,5.11-7.52,9.84-11.35,14.65l-.27,6.49c7.75.05,15.46-1.13,23.01-2.74.47-1.59.86-4.22.99-6.01.33-4.91.22-10,.58-14.92,1.18-1.69,2.24-.91,2.45.9.37,3.22-.39,6.5-.52,9.53s.39,6.25-.5,9.25ZM20.06,67.52l1.05-3.74-1.54-8.75-.53,7.77,1.02,4.72ZM46.06,74.53c-3.87-.75-8.36-1.48-12.1-2.66-1.45-.46-10.49-4.76-10.9-4.35.48,2.3.34,8.57,1.73,10.02,1.26,1.31,4.71,2.33,6.52,2.48,4.65.38,11.49-2.26,14.75-5.49ZM73.56,76.53c-3.12.12-11.39-.62-13.5.5-1.97,1.05-5.17,4.35-7.34,5.91-1.47,1.06-6.41,3.09-6.07,4.77.17.84,1.38,1.55,2.19,1.79,2.6.77,9.08,1.37,11.97,1.53,13.41.76,29.15-1.33,41.86-5.64,1.3-.44,6.15-2.05,6.88-2.62,1.43-1.14,1.69-12.03,2.53-14.48.01-.76.09-.89-.77-.77-1.52.22-6.57,2.98-8.77,3.74-8.87,3.08-19.6,4.9-28.98,5.27ZM69.06,94.03v12.75c0,1.76-3,1.76-3,0v-13.25c-7.63.49-15.1-.82-22.5-2.5-.13,4.07.98,8.19.52,12.27-.23,2.03-1.08,2.12-2.55.9l-.54-13.6c-2.49-1.43-5.38-.06-7.68-.06-1.65,0-3.83-.99-5.75-.51.78,5.74-.26,12.74,4.49,16.76,13.51,11.44,56.1,11.16,70.17.66,2.99-2.23,3.5-3.75,4.19-7.31.85-4.39,1.16-9.15,1.64-13.6l-13.94,4.06c-.06,1.77-.45,14.04-1.07,14.43-.24.15-1.16.03-1.52-.22-1.49-1.03.31-11.53.02-13.77-7.36,1.73-14.94,2.53-22.5,3Z" style="fill: #0d0e0d;"/>
  <path d="M66.97,12.64c12.55-.07,30.32,1.67,41.77,6.96,11.82,5.46,8.62,11.88-1.69,16.17-4.06,1.69-18.95,5.77-22.64,4.66-1.17-.35-1.77-1.91-4.1-1.91-2.75,0-2.96,1.56-4.47,2.54-1.26.82-16.29.62-19.03.47-8.98-.48-29.58-3.61-36-10-2.96-2.95-2.27-6.65.79-9.21,8.89-7.43,33.98-9.62,45.37-9.68Z" style="fill: url(#uuid-b2ed4dd8-be8c-44ff-b1f8-81921a73a74d);"/>
  <path d="M69.06,94.03c7.55-.47,15.13-1.27,22.5-3,.29,2.24-1.51,12.74-.02,13.77.36.25,1.28.38,1.52.22.62-.4,1.01-12.66,1.07-14.43l13.94-4.06c-.48,4.45-.79,9.22-1.64,13.6-.69,3.56-1.2,5.07-4.19,7.31-14.07,10.5-56.66,10.78-70.17-.66-4.75-4.02-3.71-11.02-4.49-16.76,1.92-.48,4.1.51,5.75.51,2.3,0,5.19-1.37,7.68.06l.54,13.6c1.47,1.23,2.32,1.14,2.55-.9.46-4.08-.65-8.21-.52-12.27,7.4,1.68,14.87,2.99,22.5,2.5v13.25c0,1.76,3,1.76,3,0v-12.75Z" style="fill: url(#uuid-f9690f75-8585-4a69-b435-d0fa0d8876eb);"/>
  <path d="M73.56,44.53c-1.95,2.94-3.88,5.91-6.02,8.73-2.95,3.9-7.31,9.37-10.71,12.79-2.05,2.07-5.07,4.26-7.31,6.24l-6.48-1c-.38-.29-.92-4.51-.99-5.51-.29-4.63.05-9.91-.48-14.52-.28-2.42-1.84-2.23-2.91-.42l.89,19.69c-5.39-1.72-10.99-3.18-15.9-6.09l-3.59-29.91c15.73,9.72,35.54,9.74,53.5,10Z" style="fill: url(#uuid-7f2b29e3-34a1-42ab-ac00-1aa4b6246b68);"/>
  <path d="M95.07,70.02c.89-2.99.37-6.15.5-9.25s.89-6.31.52-9.53c-.21-1.81-1.27-2.58-2.45-.9-.36,4.92-.24,10.01-.58,14.92-.12,1.8-.52,4.43-.99,6.01-7.55,1.61-15.26,2.79-23.01,2.74l.27-6.49c3.83-4.82,7.91-9.54,11.35-14.65,1.88-2.79,4.21-6.05,4.97-9.28,10.21-1.61,20.68-3.2,29.41-9.08-.69,9.86-2.53,19.67-3.74,29.51-.88,1.8-15.29,6.89-16.26,5.99Z" style="fill: url(#uuid-6cdb6408-bf26-4afb-9595-c7337fd49a03);"/>
  <path d="M73.56,76.53c9.38-.37,20.12-2.19,28.98-5.27,2.19-.76,7.25-3.52,8.77-3.74.86-.12.78,0,.77.77-.85,2.45-1.1,13.34-2.53,14.48-.73.58-5.57,2.18-6.88,2.62-12.71,4.31-28.45,6.4-41.86,5.64-2.89-.16-9.36-.77-11.97-1.53-.81-.24-2.02-.95-2.19-1.79-.34-1.67,4.59-3.71,6.07-4.77,2.17-1.56,5.37-4.86,7.34-5.91,4.65-.05,9.15-.21,13.5-.5Z" style="fill: url(#uuid-883145c4-9471-40f7-aede-ad5402498723);"/>
  <path d="M17.06,33.53c-.09,3.56,1.54,7.83,1.55,11.25,0,4.37-1.88,10.61-2.06,15.48-.31,8.11,1.76,17.77,9.68,21.36,16.75,7.61,38.88-20.17,47.25-31.93.84-1.19,4.68-7.67,5.08-7.92.67-.41,2.91-.44,3.54-.02.66.44.59,2.25.45,3.01-.2,1.09-5.2,8.24-6.26,9.74-10.46,14.79-33.09,40.76-53.41,30.97-11.65-5.61-12.07-21.54-10.81-32.69.57-5.08,2.11-13.89,3.95-18.55.26-.65-.23-.88,1.04-.71Z" style="fill: url(#uuid-14fa20ce-5aa5-40c4-8d56-e117fa355871);"/>
  <path d="M46.06,74.53c-3.26,3.23-10.1,5.88-14.75,5.49-1.81-.15-5.26-1.17-6.52-2.48-1.39-1.45-1.25-7.72-1.73-10.02.41-.42,9.45,3.89,10.9,4.35,3.74,1.18,8.22,1.9,12.1,2.66Z" style="fill: #71706f;"/>
  <path d="M73.56,76.53c-.51.83-1.9.5-2.74.51-3.58.04-7.18-.04-10.76,0,2.11-1.12,10.38-.38,13.5-.5Z" style="fill: #959594;"/>
  <path d="M36.59,20.06c2.57-.93,5.27-1.76,7.96-2.3,5.65-1.13,14.63-1.91,20.29-1.26,2.34.27,2.37,2.18.48,2.52-2.83.51-7.38-.19-10.52-.02-5.59.3-11.13,1.55-16.49,3.06-1.43,0-1.97-.59-1.71-2Z" style="fill: #7aaace;"/>
  <path d="M30.57,102.03c.1-2.25-1.81-7.75-.77-9.51.31-.52.98-.64,1.51-.48.77.22,1.92,7.62,1.77,8.73-.2,1.46-1.26,1.34-2.52,1.26Z" style="fill: #f8d4a4;"/>
  <path d="M23.07,42.02c.93-.02,2.1-.22,2.43.82l2.55,19c.13,2.47-2.16,2.44-2.85-.69-.91-4.11-1.81-11.14-2.12-15.38-.09-1.24.04-2.51,0-3.75Z" style="fill: #f8d4a4;"/>
  <path d="M15.52,66.57c.7,4.5,1.22,7.61,3.83,11.41.46.67,3.85,3.4,1.45,4.04-2.72.72-6.31-7.46-6.89-9.6s-2.07-6.76,1.61-5.85Z" style="fill: #c3c3c3;"/>
  <path d="M26.32,70.03c.7-.2,1.45.07,1.67.82.08.29.63,5.12.6,5.41-.14,1.31-1.6,1.72-2.56,1.05-.75-.52-.86-6.95.29-7.28Z" style="fill: #c3c3c3;"/>
</svg>