<?xml version="1.0" encoding="UTF-8"?>
<svg id="uuid-656f0b1b-ea27-41fb-8b32-8917fbb7c1ac" data-name="fill_grass" xmlns="http://www.w3.org/2000/svg" xmlns:xlink="http://www.w3.org/1999/xlink" viewBox="0 0 128 128">
  <defs>
    <linearGradient id="uuid-b1bb77f6-d129-455b-8329-727ea9d06206" x1="1602.17" y1="-118.4" x2="1642.3" y2="73.37" gradientTransform="translate(-740 74) scale(.5)" gradientUnits="userSpaceOnUse">
      <stop offset="0" stop-color="#a6d1a2"/>
      <stop offset=".3" stop-color="#a6d1a2"/>
      <stop offset=".79" stop-color="#5bb46f"/>
      <stop offset="1" stop-color="#5bb36f"/>
    </linearGradient>
    <linearGradient id="uuid-72f0ea9d-b887-47c4-8bd7-dbe1d27466ed" x1="1663.08" y1="-31.15" x2="1667.37" y2="65.91" gradientTransform="translate(-740 74) scale(.5)" gradientUnits="userSpaceOnUse">
      <stop offset="0" stop-color="#a6d1a2"/>
      <stop offset=".35" stop-color="#a6d1a2"/>
      <stop offset="1" stop-color="#5bb36f"/>
    </linearGradient>
    <linearGradient id="uuid-16b726bd-5de0-4662-bb1e-47a212666323" x1="1534.39" y1="-27.47" x2="1550.21" y2="83.41" gradientTransform="translate(-740 74) scale(.5)" gradientUnits="userSpaceOnUse">
      <stop offset="0" stop-color="#a6d1a2"/>
      <stop offset=".29" stop-color="#a5d1a2"/>
      <stop offset=".79" stop-color="#5db470"/>
      <stop offset="1" stop-color="#5bb36e"/>
    </linearGradient>
    <linearGradient id="uuid-2e23a9a4-cff1-47df-96cb-a255890d8ac3" x1="1669.77" y1="-70.78" x2="1666.4" y2="-27.98" gradientTransform="translate(-740 74) scale(.5)" gradientUnits="userSpaceOnUse">
      <stop offset="0" stop-color="#a6d2a2"/>
      <stop offset=".35" stop-color="#a6d1a2"/>
      <stop offset="1" stop-color="#5db470"/>
    </linearGradient>
    <linearGradient id="uuid-9e57dd62-fd56-466e-90f9-fe050313410e" x1="112.02" y1="82.52" x2="83.09" y2="115.8" gradientTransform="matrix(1,0,0,1,0,0)" xlink:href="#uuid-72f0ea9d-b887-47c4-8bd7-dbe1d27466ed"/>
  </defs>
  <path d="M68,122c-.81-.27-1.03.45-1.25.5-1.14.26-1.75-.45-2.75-.5C35.2,82.62,36.6,26.16,85.75,4.5c1.74-.77,4.89-.92,3.25,2.25-17.97,34.6-20.73,76.14-21,115.25Z" style="fill: #0a0e0d;"/>
  <path d="M104.25,54c2.27-.06,15.77-1.66,10.5,4-20.41,14.42-31.29,43.09-41.5,64-6.7-24.34-1.26-67.1,31-68Z" style="fill: #0a0e0d;"/>
  <path d="M10.5,58c26.65,2.74,37.48,35.06,42.5,57.75.38,2.21-.15,4.5-2.75,3.75-25.9-7.65-41.11-35.46-39.75-61.5Z" style="fill: #0a0e0d;"/>
  <path d="M57,10c-9.16,17.72-19.39,39.08-15.5,59.75-2.32,9.43-12.33-15.35-13-19-6.96-19.74,9.51-38.83,28.5-40.75Z" style="fill: #0a0e0d;"/>
  <path d="M76.5,68.5c-6.31,2.82-.58-15.41,1-18.25,6.52-16.74,26.29-17.32,40-10,.48,1.12-1.05,1.89-1.75,2.25-15.31,1.92-30.27,13.43-39.25,26Z" style="fill: #0a0e0d;"/>
  <path d="M80,113.75c2.45-16.48,19.01-32.97,34.5-34,.89,7.74-3.21,17.58-7.8,23.65-5.84,7.72-16.27,13.6-24.95,18.6-3.4.01-1.37-6.11-1.75-8.25Z" style="fill: #090c0c;"/>
  <path d="M85.5,8c-16.82,35.3-19.71,73.87-20,111.5-24.38-34.35-26.98-84.99,14.25-108.5,1.14.04,5.14-3.62,5.75-3Z" style="fill: url(#uuid-b1bb77f6-d129-455b-8329-727ea9d06206);"/>
  <path d="M76.5,81.75c3.44-16.33,18.61-26.93,35-24.75-6.64,6.01-13.45,12.26-18.5,19.88-7.69,11.62-14.05,24.57-18.5,37.62-1.67-10.55-1.27-21.43,2-32.75Z" style="fill: url(#uuid-72f0ea9d-b887-47c4-8bd7-dbe1d27466ed);"/>
  <path d="M50,116.5c-23.58-6.88-36.5-32.39-37-55.5,23.02,5.75,33.8,34.57,37,55.5Z" style="fill: url(#uuid-16b726bd-5de0-4662-bb1e-47a212666323);"/>
  <path d="M51,16.25c-8.72,14.63-12.95,33.56-13,48.75-13.37-18.14-10.9-42.6,12.25-50.5,2.22-1.46,2.01.24.75,1.75Z" style="fill: #a5cfa1;"/>
  <path d="M110.85,40.34c-6.41,2.3-13.36,5.04-19.23,9.23-5.35,3.81-10.34,8.16-14.61,13.43-.43-17.76,17.65-29.36,33.85-22.66Z" style="fill: url(#uuid-2e23a9a4-cff1-47df-96cb-a255890d8ac3);"/>
  <path d="M112,85.75c-3.14,15.25-16.12,25.63-29.5,32.75-.54-16.88,14.47-31.13,29.5-36-.08,1.05,0,2.3,0,3.25Z" style="fill: url(#uuid-9e57dd62-fd56-466e-90f9-fe050313410e);"/>
  <path d="M90.27,101.27c-.22,0-.45-.07-.63-.22-.43-.35-.49-.98-.14-1.41.16-.2,3.99-4.88,8.16-8.16,6.02-4.73,7.72-5.32,8.01-5.4.53-.14,1.08.19,1.21.72.14.54-.19,1.08-.72,1.21-.02,0-1.58.56-7.26,5.03-3.99,3.14-7.81,7.8-7.85,7.85-.2.24-.49.37-.78.37Z" style="fill: #c3dfbe;"/>
  <path d="M77.23,90.7c-.05,0-.11,0-.16-.01-.54-.09-.92-.6-.83-1.15.04-.25,1.02-6.22,2.99-11.15,2.84-7.1,4.03-8.47,4.23-8.68.4-.38,1.03-.38,1.41.02.39.4.38,1.03-.02,1.41-.01.02-1.09,1.28-3.77,7.99-1.89,4.72-2.86,10.66-2.87,10.72-.08.49-.5.84-.99.84Z" style="fill: #c3dfbe;"/>
  <path d="M51.38,67.92c-.49,0-.92-.36-.99-.86-.06-.43-1.42-10.6,4.08-25.4,2.75-7.41,10.76-17.26,11.1-17.68.35-.43.98-.49,1.41-.14.43.35.49.98.14,1.41-.08.1-8.14,10.01-10.77,17.11-5.3,14.29-3.99,24.32-3.97,24.42.08.55-.3,1.05-.85,1.13-.05,0-.09,0-.14,0Z" style="fill: #c3dfbe;"/>
  <path d="M30.42,100.43c-.3,0-.6-.14-.8-.39-.27-.35-6.55-8.62-8.71-13.47-3.11-6.99-3.27-8.79-3.27-9.08,0-.55.45-1,1-1h0c.55,0,1,.45,1,1,0,.02.16,1.67,3.1,8.27,2.06,4.64,8.41,12.99,8.47,13.07.33.44.25,1.07-.19,1.4-.18.14-.39.2-.61.2Z" style="fill: #c3dfbe;"/>
  <path d="M34.33,55.13c-.38,0-.74-.21-.91-.58-.06-.14-1.56-3.45-1.45-8.87.15-7.65.78-9.35.9-9.61.23-.5.83-.72,1.33-.48.5.23.72.83.48,1.33,0,.02-.57,1.58-.71,8.8-.1,4.93,1.26,7.97,1.27,8,.23.5,0,1.1-.49,1.32-.14.06-.28.09-.42.09Z" style="fill: #c3dfbe;"/>
</svg>