<?xml version="1.0" encoding="UTF-8"?>
<svg id="fill_grapejuice" xmlns="http://www.w3.org/2000/svg" viewBox="0 0 128 128">
  <path d="M97.27,80.48c7.71-.22,12.11,2.95,13.06,9.26,1.08,8.26-7.4,11.98-12.34,17.46,5.57,13.05-11.46,25.78-22.49,16.04-6.15,4.53-12.27,4.5-18.45.14-13.06,3.05-33.61-2.34-34.13-18.39-1.8-25.6-2.85-51.27-5.26-76.81C15.23-5.73,65.3.1,86.25,5.34c8.95,2.08,15.7,10.21,14.46,19.86-1.04,18.44-2.52,36.83-3.44,55.28Z" style="fill: #4a3726; stroke-width: 0px;"/>
  <path d="M31.13,33.42c1.53,23.5,2.98,47,4.71,70.48.63,7.52,10.77,6.07,16.25,7.63.28,1.85.56,3.71.89,5.87-8.86-.74-22.59-1.35-23.08-13-1.82-26.02-3.31-52.06-5.24-78.07-2.71-23.08,43.62-18.87,57.7-15.12,6.29,1.86,12.39,6.08,11.48,13.54-1.54,20.7-2.63,41.22-4.12,61.97-.8.59-1.66,1.22-2.58,1.9-1.05-1.18-2-2.24-3.25-3.65,1.1-16.82,2.24-34.15,3.4-51.76-18.36,5.41-37.98,6.24-56.14.21Z" style="fill: #aecace; stroke-width: 0px;"/>
  <path d="M61.8,99.08c-2.17,1.4-4.14,2.67-6.81,4.39-3.38-.98-11.16.56-11.96-4.89-.86-16.07-2.01-32.21-2.78-48.27,13.14,1.95,24.81,1.96,38.02-.04-.62,10.54-1.25,21.27-1.88,31.92-10.75,1.14-15.58,8.13-14.6,16.89Z" style="fill: #5f679e; stroke-width: 0px;"/>
  <path d="M84.77,119.64c-9.04.11-9.02-14.41.18-14.14,9.02.15,9.17,14.27-.18,14.14Z" style="fill: #5f679e; stroke-width: 0px;"/>
  <path d="M75.4,103.34c-9.06.17-8.81-14.07.16-14.12,8.84.12,9.51,14.36-.16,14.12Z" style="fill: #5f679e; stroke-width: 0px;"/>
  <path d="M59.25,112.69c-.23-9.59,14.25-9.06,14.09.21-.44,8.53-14.25,8.92-14.09-.21Z" style="fill: #5f679e; stroke-width: 0px;"/>
  <path d="M88.29,96.66c4.43-2.59,8.68-11.81,14.09-8.17,4.18,5.28-6.46,9.84-9.66,12.88-2.63,1.67-4.73-.71-4.43-4.71Z" style="fill: #6f5b47; stroke-width: 0px;"/>
  <path d="M60.69,32.05c-9.26-1-19.74-.81-28-5.44-12.81-15.05,46.02-14.13,52.18-7.77,12.8,10.7-18.22,12.57-24.18,13.21Z" style="fill: #4a3726; stroke-width: 0px;"/>
</svg>