<?xml version="1.0" encoding="UTF-8"?>
<svg id="fill_stone" xmlns="http://www.w3.org/2000/svg" viewBox="0 0 128 128">
  <path d="M66.92,31.62c.07-.44.2-.74.13-.99-2.33-8.19,1.53-15.07,4.71-22.06,1.65-3.63,5.33-5.17,9.23-3.89,5.86,1.92,11.71,3.88,17.43,6.16,1.73.69,3.48,2.23,4.4,3.85,2.18,3.85,3.93,7.94,5.74,11.99,1.69,3.79,1.09,6.56-1.89,9.45-1.87,1.82-3.66,3.75-5.71,5.34-1.63,1.26-3.51,2.3-5.43,3.04-2.12.81-4.42,1.17-6.82,1.76,5.94,5.74,13.22,9.61,17.78,16.73,3.84,1.19,5.72,4.01,5.82,8.32.13,5.5.52,10.99.79,16.38,2.5,3.04,5.01,5.97,7.39,9,2.78,3.53,2.34,6.75.12,10.61-5.08,8.8-14.09,11.95-22.39,16.03-1.91.94-4.72.03-7.1.03-2.98.04-6.04.54-8.93.04-12.4-2.14-24.86-.8-37.29-1.17-2.11-.06-4.33-.76-6.25-1.69-3.29-1.59-6.29-3.77-9.56-5.4-5.85-2.91-10.38-7.18-14.2-12.4-2.39-3.27-5.38-6.13-7.56-9.52-1.19-1.85-2.11-4.6-1.67-6.63,1.22-5.6,3.42-10.98,4.84-16.54.99-3.87,1.6-7.89,1.95-11.88.62-7.2,4.09-12.27,10.12-16.16,4.36-2.81,8.08-6.6,12.37-9.54,1.83-1.26,4.39-2.08,6.6-2.04,8.38.15,16.76.74,25.36,1.18Z" style="fill: #4a3726; stroke-width: 0px;"/>
  <path d="M18.04,67.5c1.15-5.16,2.24-10.02,3.35-14.98,6.18-4.88,12.38-9.78,18.73-14.79,5.54.28,11.19.54,16.83.85,3.27.18,6.54.37,9.8.69.9.09,1.91.46,2.61,1.03,9.25,7.57,18.46,15.19,27.67,22.81.5.42.89.97,1.59,1.75-5.17,2.15-10.12,4.24-15.08,6.28-5.7,2.34-11.4,4.69-17.15,6.9-1.39.54-3,.89-4.47.79-7.88-.53-15.75-1.2-23.61-1.88-1.13-.1-2.33-.33-3.34-.83-5.52-2.74-10.99-5.58-16.9-8.61Z" style="fill: #7f827e; stroke-width: 0px;"/>
  <path d="M12.71,88.29c1.16-4.28,2.32-8.53,3.55-13.06.91.29,1.64.41,2.27.74,4.03,2.08,7.9,4.52,12.09,6.2,3.22,1.29,6.77,1.95,10.24,2.35,7.06.81,14.16,1.25,21.56,1.87,7.84,9.79,15.75,19.68,24.26,30.31-14.58-2.96-28.42-1.65-42.22-1.92-.64-.01-1.34-.23-1.89-.55-5.26-3.03-10.6-5.93-15.68-9.24-1.92-1.26-3.23-3.48-4.77-5.31-3.15-3.76-6.26-7.56-9.42-11.38Z" style="fill: #6b6864; stroke-width: 0px;"/>
  <path d="M115.08,101.57c-3.97,8.66-12.2,10.82-19.29,14.88-8.45-10.59-16.82-21.09-25.59-32.07,11.57-4.73,22.79-9.32,34.35-14.05.31,4.04.62,7.55.83,11.06.15,2.48-.07,5,.29,7.44.2,1.41,1,2.87,1.91,4.01,2.45,3.07,5.11,5.97,7.5,8.74Z" style="fill: #6b6864; stroke-width: 0px;"/>
  <path d="M101.94,30.09q-6.09,6.81-16.8,9.35c-1.56-1.25-3.36-2.67-5.15-4.1-1.73-1.38-3.46-2.76-4.88-3.89-2.94-7.38.48-13.25,3.43-19.65,3.6,1.19,7.06,2.68,10.68,3.45,5.72,1.23,8.89,4.76,10.6,10.08.52,1.62,1.38,3.14,2.11,4.75Z" style="fill: #7f827e; stroke-width: 0px;"/>
</svg>