<?xml version="1.0" encoding="UTF-8"?>
<svg id="fill_rye" xmlns="http://www.w3.org/2000/svg" viewBox="0 0 128 128">
  <path d="M80.03,121.21c-1.87-5.14-3.09-8.29-4.9-13.26-.16-.01-.25-.04-.35-.03-.35.03-.69.08-1.04.12-10.54,1.13-18.92-2.59-24.43-11.63-2.25-3.7-3.39-8.07-5.07-12.11-.95-2.28-1.43-4.49.35-6.34-1.42-1.87-3.03-3.42-3.93-5.31-1.9-4-3.41-8.18-5.13-12.26-.96-2.28-1.42-4.49.24-6.26-1.68-2.43-3.68-4.49-4.68-6.95-3.22-7.95-6.09-16.04-9.04-24.1-.56-1.54-.31-3.06.82-4.35,2.24-2.54,6.22-1.97,7.51,1.16,1.04,2.53,1.89,5.14,2.86,7.78,4.41-.84,8.64-.55,12.98.85-.15-.51-.21-.78-.31-1.05-1.6-4.41-3.24-8.81-4.8-13.23-.94-2.66.23-5.09,2.72-5.95,2.44-.84,4.74.31,5.73,2.9.78,2.05,1.51,4.12,2.26,6.19.95,2.61,1.9,5.21,2.96,8.13,2.48-4,5.6-6.92,9.42-9.12-.49-1.35-.94-2.57-1.38-3.78-.46-1.27-.96-2.52-1.37-3.8-.89-2.75.66-5.38,3.43-5.91,2.26-.43,4.24.75,5.12,3.15,2.64,7.17,5.25,14.34,7.85,21.52.29.79.57,1.62.66,2.45.31,2.7.52,5.42.74,7.82,1.15.95,2.74,1.63,3.21,2.77,1.78,4.33,3.43,8.74,4.68,13.25.73,2.63.6,5.49.87,8.36,2.02.35,3.21,1.76,3.9,3.84,1,3.03,2.25,5.98,3.23,9.02,3.06,9.48,1.11,17.93-5.67,25.2-1.64,1.76-3.73,3.11-5.67,4.7l4.7,12.92M63.25,75.15c-.68-1.87-1.29-3.66-1.98-5.41-2.32-5.89-8.51-9.89-14.83-9.61-.41.02-.82.13-1.24.2,2.88,10.46,10.13,16.45,18.05,14.83ZM80.56,96.05c3.12-2.07,5.06-4.8,6.21-8.14,1.82-5.29.08-10.07-2.04-14.94-3.03,1.95-4.95,4.64-6.12,7.91-1.9,5.31-.22,10.17,1.95,15.17ZM67.68,25.01c-6.36,3.97-10.14,12.27-4.53,23.04.14-.04.3-.05.42-.12.29-.19.58-.39.84-.62,4-3.44,6.14-7.8,5.59-13.04-.32-3.06-1.48-6.04-2.32-9.26ZM71.5,72.2c7.96-5.04,9.28-14.42,4.34-23.14-4.76,3.58-7.25,8.26-6.64,14.17.31,2.97,1.47,5.84,2.3,8.97ZM36.55,36.49c2.24,9.92,10.32,16.6,17.84,14.75-2.44-11.81-11.04-15.98-17.84-14.75ZM53.93,84.31c2.81,10.32,11.03,17.03,17.91,14.7-2.42-10.08-10.49-16.74-17.91-14.7Z" style="fill: #4a3726; stroke-width: 0px;"/>
  <path d="M63.25,75.15c-7.92,1.62-15.17-4.37-18.05-14.83.42-.07.83-.18,1.24-.2,6.32-.28,12.51,3.72,14.83,9.61.69,1.75,1.3,3.54,1.98,5.41Z" style="fill: #dccb94; stroke-width: 0px;"/>
  <path d="M80.56,96.05c-2.17-5-3.85-9.86-1.95-15.17,1.17-3.27,3.09-5.96,6.12-7.91,2.13,4.88,3.87,9.66,2.04,14.94-1.15,3.35-3.1,6.07-6.21,8.14Z" style="fill: #dccb94; stroke-width: 0px;"/>
  <path d="M67.68,25.01c.84,3.23,2,6.2,2.32,9.26.54,5.24-1.59,9.61-5.59,13.04-.26.23-.55.43-.84.62-.12.08-.28.08-.42.12-5.61-10.77-1.82-19.07,4.53-23.04Z" style="fill: #dccb94; stroke-width: 0px;"/>
  <path d="M71.5,72.2c-.83-3.12-1.99-6-2.3-8.97-.61-5.9,1.88-10.59,6.64-14.17,4.94,8.71,3.62,18.09-4.34,23.14Z" style="fill: #d5bd77; stroke-width: 0px;"/>
  <path d="M36.55,36.49c6.8-1.23,15.4,2.94,17.84,14.75-7.51,1.85-15.6-4.83-17.84-14.75Z" style="fill: #d5bd77; stroke-width: 0px;"/>
  <path d="M53.93,84.31c7.42-2.04,15.48,4.62,17.91,14.7-6.88,2.33-15.1-4.37-17.91-14.7Z" style="fill: #d5bd77; stroke-width: 0px;"/>
</svg>