<?xml version="1.0" encoding="UTF-8"?>
<svg id="uuid-e43d4dd2-a40d-4ce8-b3ed-7e95e018e86c" data-name="fill_squarebalestraw" xmlns="http://www.w3.org/2000/svg" xmlns:xlink="http://www.w3.org/1999/xlink" viewBox="0 0 128 128">
  <defs>
    <linearGradient id="uuid-5085f57a-a247-40da-8c85-8db96f272b18" x1="-501.78" y1="-612.23" x2="-711.78" y2="-611.87" gradientTransform="translate(370 370) scale(.5)" gradientUnits="userSpaceOnUse">
      <stop offset="0" stop-color="#dbc280"/>
      <stop offset="1" stop-color="#dcb655"/>
    </linearGradient>
  </defs>
  <path d="M123.44,99.93c-.99,1.45-9.67-.43-11.69-.48-2.19-.05-4.72.9-6.98,1.06-5.59.4-11.34-.69-17.04-.54-8.17.21-16.31.33-24.48.52-5.07.12-10.18-1.1-14.48-1.02-1.85.03-4.58.9-6.52,1.02-6.92.43-14.4-.04-20.4-3.6-2.42-1.43-3.65-3.47-5.68-4.82-1.84-1.22-4.17-1.68-6.13-2.87-.82-.5-5.8-4.55-5.95-5.05-.22-2.96-.03-5.94-.09-8.91-.29-13.22-.93-27.84-.52-41.02.03-.88.57-6,.74-6.26.81-1.22,5.49.01,7.01.06,6.07.17,11.95-.66,18.02-.52,14.15.32,28.39.19,42.5.5,10.84.24,20.06-2.21,30.44,2.56,3,1.38,4.67,4.12,7.47,5.53,2.46,1.24,4.92,1.49,7.49,3.01,1.05.61,5.17,3.45,5.85,4.15.96,1,.45,7.12.48,9.02.24,13.5.78,27.45.56,40.99-.04,2.17-.85,4.39-.6,6.67Z" style="fill: #0d0f0d;"/>
  <path d="M30.5,91.5c2.2-5.64.95-5.34.96-10.75,0-9.22.65-18.26.05-27.5-.24-3.64.89-6.73-2.74-9.26-1.02-.71-2.52-.84-3.39-1.48-.7-.51-1.09-1.82-2.11-2.53s-2.52-.84-3.39-1.47c-.7-.51-1.09-1.83-2.11-2.53-2.12-1.45-3.54-2.61-5.48-4.02-.7-.51-1.83-.14-1.77-.97,5.81.7,11.47-1.43,17.24-1,1.92.14,4.01.9,5.98,1.02,3.78.22,6.55-.84,10-1.04,4.96-.29,9.42,1.41,14.52,1.02,6.87-.52,8.72-.41,15.48.02,7.68.49,12.72-1.87,21.4.1,6.79,1.54,7.29,3.5,12.2,6.8,2.67,1.79,6,1.97,8.83,3.67.58.35,4.58,3.25,4.73,3.51.56.95-.44,3.72-.44,5.15,0,13.14.3,26.41.54,39.5.05,2.58-.03,5.17,0,7.75-3.83.14-7.41-.75-11.27-.52-6.88.4-8.96.58-15.98.03-5.26-.42-10.01,1.29-15.02,1.02-3.8-.21-6.81-1.28-11-1.04-6.87.39-8.96.58-15.98.03-7.76-.61-12.51,1.75-21.25,0-1.42-.51-1.8-5.44,0-5.5Z" style="fill: url(#uuid-5085f57a-a247-40da-8c85-8db96f272b18);"/>
  <path d="M30.5,97c-8.86-1.77-8.33-4.93-14.88-8.37-.89-.47-2.03-.55-2.96-1.04-.87-.46-5.26-3.71-5.69-4.3-1.25-1.71.08-3.74.08-5.54,0-13.21,0-26.83-.57-39.98-.08-1.87-.11-3.94.27-5.77.94,1.65,3.16,1.58,4.39,2.48.78.56,1.14,1.94,2.4,2.73,4.09,2.56,6.71,4.64,10.43,7.57.99.78,2.06.85,3.01,1.49,2.88,1.93,1.92,5.47,2.02,8.48.33,9.82.77,21.2.52,30.98-.04,1.63-1.93,5.36.98,5.77-.39,1.01.28,4.14,0,5.5Z" style="fill: #b18d2d;"/>
  <path d="M113.45,47.95c-.85,1.26-7.94-.53-9.7-.5-2.5.04-5.35,1.12-8.01,1.08s-5.51-1.13-7.99-1.08c-2.7.05-5.58,1.14-8.52,1.07-2.41-.06-5.24-1.07-7.48-1.07-2.63,0-5.59,1.14-8.52,1.07-2.58-.06-5.51-1.12-7.98-1.07-2.9.05-5.83,1.22-9.02,1.06-1.48-.07-6.09-.7-7.39-1.11-1.58-.5-1.16-2.19.88-2.43,2.69-.32,6.79.62,10.02.52,14.48-.45,29.07-.44,43.5,0,4.63.14,8.95-.74,13.52-.52.9.04,5.99.57,6.26.74.51.33.71,1.8.42,2.24Z" style="fill: #12120f;"/>
</svg>