<?xml version="1.0" encoding="UTF-8"?>
<svg id="uuid-1ff0fab2-7bd6-42f1-a855-b54546d72251" data-name="fill_wool" xmlns="http://www.w3.org/2000/svg" xmlns:xlink="http://www.w3.org/1999/xlink" viewBox="0 0 128 128">
  <defs>
    <linearGradient id="uuid-a8bfb8e3-b958-454f-8463-fe3d4ce9f7ee" x1="-706.32" y1="-992.96" x2="-831.96" y2="-855.82" gradientTransform="translate(444 518) scale(.5)" gradientUnits="userSpaceOnUse">
      <stop offset="0" stop-color="#e5ccb2"/>
      <stop offset="1" stop-color="#d0ac90"/>
    </linearGradient>
    <linearGradient id="uuid-391d5d2a-ee8f-4d1a-a881-0cd327320762" x1="-717.94" y1="-1007.83" x2="-842.44" y2="-886.27" gradientTransform="translate(444 518) scale(.5)" gradientUnits="userSpaceOnUse">
      <stop offset="0" stop-color="#e5ccb2"/>
      <stop offset="1" stop-color="#d0ac90"/>
    </linearGradient>
    <linearGradient id="uuid-2f504eb5-1840-4ffe-be13-679940aea93e" x1="-840.88" y1="-843.82" x2="-735.89" y2="-842.79" gradientTransform="translate(444 518) scale(.5)" gradientUnits="userSpaceOnUse">
      <stop offset="0" stop-color="#d2af92"/>
      <stop offset="1" stop-color="#e5cab1"/>
    </linearGradient>
    <linearGradient id="uuid-40925b72-3e66-4dcc-b1a8-9de7f27b683a" x1="-830.69" y1="-863.11" x2="-738.7" y2="-861.68" gradientTransform="translate(444 518) scale(.5)" gradientUnits="userSpaceOnUse">
      <stop offset="0" stop-color="#d2af92"/>
      <stop offset="1" stop-color="#e4cab0"/>
    </linearGradient>
    <linearGradient id="uuid-cbd47159-9843-414c-832c-22cae99a57aa" x1="-758.11" y1="-1007.53" x2="-836.09" y2="-929.95" gradientTransform="translate(444 518) scale(.5)" gradientUnits="userSpaceOnUse">
      <stop offset="0" stop-color="#e5ccb2"/>
      <stop offset="1" stop-color="#d3b093"/>
    </linearGradient>
  </defs>
  <path d="M100.58,26.42c.16.18,3.1.75,4.39,1.86,3.52,3.02,1.79,5.6,2.65,8.86.39,1.49,3.81,6.3,4.77,8.73,6.97,17.76,1.41,34.4-5.88,50.89-1.04,1.07-2.18,2.37-3.64,2.86-1.16.39-3.67.31-3.82.43-.18.16-.8,2.82-2.1,4.15-2.04,2.09-4.18,1.93-5.93,3.07-.86.56-1.2,1.76-2,2.5-2.67,2.49-5.78,2.82-9.27,3.14-23.87,2.13-44.64,1.21-57.94-21.46-.59-1-.8-2.58-1.58-3.42-.64-.69-1.71-.88-2.48-1.52-1.91-1.58-3.12-4.3-3.26-6.77-.26-4.69.38-3.01-1.23-7.75-2.13-6.26.05-8.89,1.12-14.35,1.4-7.12.95-10.34,4.9-17.1,15.51-26.5,47.09-31.7,74.7-22.28,3.23,1.1,5.06,3.1,6.27,6.24.23.59.11,1.68.32,1.91Z" style="fill: #0e100f;"/>
  <path d="M105,34.5c-20.34-1.08-38.86,5.26-54.95,17.3-8.77,6.57-17.77,15.4-24.27,24.23-1.03,1.4-4.38,7.68-5.26,8.24-1.6,1-2.78-1.67-2.99-3.05s-.2-4.47.2-5.75c.69-2.21,8.07-11.26,10.02-13.48,15.11-17.2,39.73-32,63.01-33.49,4.97-.32,14.03-.85,14.25,6Z" style="fill: url(#uuid-a8bfb8e3-b958-454f-8463-fe3d4ce9f7ee);"/>
  <path d="M97.5,26c-27.46-1.03-53.36,13.57-71.26,33.49-3.37,3.75-5.95,8.24-9.1,11.87-.23.26-.28,1.32-1.13.64-.31-.25-1.03-4.42-1.04-5.24-.19-10.81,17.02-25.5,25.47-31.07,11.71-7.72,28.75-14.24,42.82-15.18,5.13-.34,13.42-1.12,14.25,5.5Z" style="fill: url(#uuid-391d5d2a-ee8f-4d1a-a881-0cd327320762);"/>
  <path d="M80.5,110c-1.69-18.35-4.96-41.37-17.74-55.51-.85-.94-4.68-3.94-4.76-4.25-.28-1.12,4.82-3.94,5.87-4.15,1.81-.36,3.06.73,4.37,1.92,11.7,10.52,17.04,28.01,19.21,43.29.45,3.2,1.31,9.97,1.06,12.94-.33,4.04-4.32,5.75-8.01,5.75Z" style="fill: #dcbea3;"/>
  <path d="M82.17,45.33c7.98,8.78,12,20.71,13.76,32.49.84,5.65,1.87,15.41,1.05,20.9-.36,2.36-2.85,4.94-5.22,5.28-.94.14-.72-.02-.75-.74-.09-1.98.15-4.05,0-6.01-1.32-16.99-7.03-37.39-19.24-49.74-1.19-1.21-4.92-2.55-2.11-4.12.65-.37,7.13-2.83,7.53-2.79,1.66.17,3.9,3.53,5,4.73Z" style="fill: #dcbea3;"/>
  <path d="M77,101.5l.5,8.5c-18.68,2.93-39.32.75-50.9-15.84-.88-1.26-4.19-6.67-4-7.82.1-.56,2.69-4.17,3.4-4.84,9.83,18.29,31.53,23.9,51,20Z" style="fill: url(#uuid-2f504eb5-1840-4ffe-be13-679940aea93e);"/>
  <path d="M100,97.5c.2-20.72-3.68-42.96-19-57.99,3.15-.09,7.56-2.65,10.17-.43,10.46,8.89,14.18,26.86,14.85,40.15.27,5.46,1.53,17.94-6.02,18.27Z" style="fill: #dcbea3;"/>
  <path d="M74.93,90.56l1.57,7.93c-18.48,4.88-39.98-2.23-48.91-19.66,1.34-1.81,2.51-4.08,4.4-5.34,3.35,7,10.73,12.36,18.01,14.74,8.36,2.74,16.25,2.32,24.93,2.32Z" style="fill: url(#uuid-40925b72-3e66-4dcc-b1a8-9de7f27b683a);"/>
  <path d="M72,78c-.23,1.68,3.02,8.62,1.71,9.55-2.03,1.44-15.14-.12-18.23-.78-7.25-1.56-14.28-5.24-18.97-11.03-4.06-5.01-2.7-6.15,2.18-9.71,4.11,4.26,8.35,7.97,14.05,9.99,1.42.5,6.82,1.98,8.02,1.98h11.25Z" style="fill: #dcbea3;"/>
  <path d="M79,18l-8.91,1.84c-21.66,5.04-36.32,15.54-50.89,31.61-.5.56-.75,1.25-1.7,1.04,2.66-12.34,12.78-23.6,23.66-29.58,11.73-6.45,24.82-7.08,37.84-4.91Z" style="fill: url(#uuid-cbd47159-9843-414c-832c-22cae99a57aa);"/>
  <path d="M65.9,63.1l5.09,11.65c-6.67,1.46-14.57.22-20.68-2.82-2.03-1.01-9.31-6.01-9.32-8.2,0-1.26,5.48-5.31,6.76-6.26,1.74.93,2.8,2.42,4.6,3.42,4.5,2.51,8.58,2.09,13.56,2.2Z" style="fill: #dcbea3;"/>
  <path d="M104.4,37.1c7.16,10.19,9.82,21.15,8.03,33.57-.21,1.47-2.43,11.4-2.93,11.82-.67.57-.95.05-.99-.74-.24-4.8-.33-9.13-1.07-13.93-1.61-10.44-4.89-20.95-12.15-28.85-.46-.51-1.07-.93-1.78-.98l4.25-.99,6.65.1Z" style="fill: #dcbea3;"/>
  <path d="M63.5,60.5c-4.82.04-10.81-.77-13.47-5.26,1.13-.71,4.41-3.81,5.51-3.52,1.28.33,5.72,5.04,6.66,6.33.32.43,1.67,2.11,1.29,2.45Z" style="fill: #dcbea3;"/>
</svg>