<?xml version="1.0" encoding="UTF-8"?>
<svg id="uuid-b804c787-dad7-4461-950c-a0b4e5ff7e12" data-name="fill_milksoy" xmlns="http://www.w3.org/2000/svg" xmlns:xlink="http://www.w3.org/1999/xlink" viewBox="0 0 128 128">
  <defs>
    <linearGradient id="uuid-d9631e1e-ebca-4484-a1f5-03a623a85cde" x1="1164.03" y1="-536.41" x2="1163.52" y2="-352.41" gradientTransform="translate(-518 296) scale(.5)" gradientUnits="userSpaceOnUse">
      <stop offset="0" stop-color="#e6e5e5"/>
      <stop offset="1" stop-color="#b9b9b9"/>
    </linearGradient>
    <linearGradient id="uuid-1c72e650-4998-46f9-8b89-9866694d17a2" x1="-2931.95" y1="701.3" x2="-2987.76" y2="803.13" gradientTransform="translate(1554 -296) scale(.5)" gradientUnits="userSpaceOnUse">
      <stop offset="0" stop-color="#ecdc66"/>
      <stop offset="1" stop-color="#ddbb42"/>
    </linearGradient>
    <linearGradient id="uuid-2140ecec-6279-41c4-b6b7-238be73caadd" x1="-2950.34" y1="720.9" x2="-3029.07" y2="773.48" gradientTransform="translate(1554 -296) scale(.5)" gradientUnits="userSpaceOnUse">
      <stop offset="0" stop-color="#ddbb41"/>
      <stop offset=".38" stop-color="#ddbb42"/>
      <stop offset="1" stop-color="#ecdc66"/>
    </linearGradient>
    <linearGradient id="uuid-40569f8b-ca8e-41fa-99fd-4d94b748d8b2" x1="-2989.34" y1="748.16" x2="-2972.45" y2="748.72" gradientTransform="translate(1554 -296) scale(.5)" gradientUnits="userSpaceOnUse">
      <stop offset="0" stop-color="#fef3b9"/>
      <stop offset="1" stop-color="#fedf6e"/>
    </linearGradient>
    <linearGradient id="uuid-56a2f0da-f1f6-42bf-96b2-098638399120" x1="-2997.99" y1="765.31" x2="-3018.78" y2="765.42" gradientTransform="translate(1554 -296) scale(.5)" gradientUnits="userSpaceOnUse">
      <stop offset="0" stop-color="#fedd69"/>
      <stop offset="1" stop-color="#fef5bd"/>
    </linearGradient>
  </defs>
  <path d="M82.04,16.57c4.23-.51,10.28.57,9.25,6.06-.49,2.65-3.21,3.95-3.23,4.22-.01.17,1.28,2.95,1.41,3.06,1.17.92,8.85-4.61,13.21-2.23,1.54.84,3.07,2.95,3.28,4.74.82,7.09-7.58,7.82-12.47,9.7l2.03,6.72c-1.13,20.59,1.41,42.63,0,63.05-.43,6.26-3.14,11.67-9.82,12.68-14.06-.79-29.58,1.23-43.47.07-6.87-.57-9.73-6.59-10.23-12.77-1.58-19.94,1.19-41.86-.02-62.02-.44-1.9,2.35-6.12,1.99-7.42-.5-1.79-11.21-1.73-11.93-8.11-.29-2.61.77-5.04,2.99-6.43,4.13-2.58,9.31,1.46,13.47,2.23-.32-.84,1.1-3.32.99-3.47-.45-.59-2-.41-2.87-2.93-2.25-6.48,4.98-7.83,9.83-7.15,3.24-18.19,32.33-18,35.59,0ZM88.5,21.12c-1.33-3.45-5.89-1.53-9-2-.46-17.71-30.42-18.23-30.5,0-2.79.42-9.66-1.5-10,2.5-.19,2.15.78,2.82,2.74,3,13.84,1.26,29.49-.97,43.53.02,2.41-.05,4.15-1.12,3.23-3.52ZM85.45,27.17l-42.2-.06c-2.19.2-2.19,6.17-3.54,6.46-3.18-.41-12.58-6.16-14.45-1.95-2.7,6.08,8.92,6.61,12.27,8.77l-2.54,8.96c1.27,20.42-1.67,42.84-.01,63.02.37,4.45,2.37,8.82,7.24,9.26,13.85,1.23,29.49-.98,43.54-.01,4.12-.63,6.43-4.3,6.76-8.24,1.72-20.48-1.34-43.31,0-64.04l-2.49-8.44c2.98-2.89,15.53-2.9,12.7-9.28-1.96-4.42-11.84,2.1-15.21,1.97l-2.08-6.43Z" style="fill: #0a0c0d;"/>
  <path d="M85.45,27.17l2.08,6.43c3.37.12,13.25-6.39,15.21-1.97,2.83,6.39-9.73,6.39-12.7,9.28l2.49,8.44c-1.34,20.73,1.72,43.56,0,64.04-.33,3.94-2.64,7.62-6.76,8.24-14.05-.97-29.69,1.24-43.54.01-4.88-.43-6.88-4.8-7.24-9.26-1.66-20.18,1.28-42.6.01-63.02l2.54-8.96c-3.35-2.16-14.97-2.7-12.27-8.77,1.87-4.2,11.26,1.55,14.45,1.95,1.35-.29,1.35-6.26,3.54-6.46l42.2.06Z" style="fill: url(#uuid-d9631e1e-ebca-4484-a1f5-03a623a85cde);"/>
  <path d="M88.5,21.12c-1.33-3.45-5.89-1.53-9-2-.46-17.71-30.43-18.23-30.5,0-2.79.42-9.65-1.5-10,2.5-.19,2.15.78,2.82,2.74,3,13.85,1.26,29.49-.96,43.53.02,2.41-.05,4.15-1.12,3.23-3.52ZM54.61,14.47c1.03-2.07,3.57-4.2,5.87-4.63,7.77-1.47,13.4,1.06,14.52,9.27h-21.5c.21-1.39.5-3.41,1.11-4.64Z" style="fill: #b9b9ba;"/>
  <path d="M84.73,58.32c-12.25-23.8-37.54-17.12-44.36,6.54-5.36,16.75,0,40.99,19.04,45.69,8.21,1.85,16.72-1.64,21.9-8.28,3.65-4.54,6.07-10.49,7.29-16.16,1.95-8.95.59-19.11-3.78-27.6l-.1-.19Z" style="fill: #9c9e00;"/>
  <path d="M38.5,48.62c-1.13-1.22,4.83-14.11,5-16.63.96-1.1,2.82-1.34,3.03.39.35,2.95-4.71,11.81-5.11,15.41-.48,1.18-1.83.82-2.92.83Z" style="fill: #e5e4e4;"/>
  <path d="M39.43,109.19c.37.51-.35,3.72,1.06,5.69,1.91,2.68,4.5,1.09,6.03,1.97.71.41.72,1.61,0,2.03-.82.47-3.63.34-4.65.13-3.94-.82-5.52-5.56-4.86-9.14.28-1.54,1.92-1.38,2.43-.68Z" style="fill: #e5e4e4;"/>
  <path d="M75,19.12h-21.5c.21-1.39.5-3.41,1.11-4.64,1.03-2.07,3.57-4.2,5.87-4.63,7.78-1.46,13.41,1.06,14.52,9.27ZM71.5,16.62c-1.64-6.45-12.85-6.05-15,0h15Z" style="fill: #0a0c0d;"/>
  <g>
    <path d="M54.55,94.79c-3.77,1.15-7.65,1.63-11.42.19-4.06-1.55-11.14-7.38-6.96-12.41,1.26-1.52,5.61-2.28,7.63-3.03,11.08-4.15,21.02-13.08,28.15-22.89,2.56-3.53,5.47-10.78,10.73-7.32,3.45,2.27,6.88,8.44,7.18,12.74.34,4.86-1.07,6.77-2.71,10.82-2.29,5.67-.4,10.68-3.96,16.19-1.72,2.66-4.45,4.12-6.39,6.35-1.08,1.23-2.01,4-3.04,5.54-4.15,6.23-11,6.71-17.46,4.74-2.62-.8-5.37-2.38-5.09-5.81.22-2.62,1.83-3.43,3.34-5.11Z" style="fill: #070603;"/>
    <path d="M75.47,94.94c-1.7,2.19-2.32,5.15-4.6,7.35-4.03,3.88-11.38,3.77-16.08,1.42-2.04-1.02-3.01-3.48-1.58-5.57.98-1.44,4.03-3.59,5.43-5.05,7.86-8.21,13.25-19.27,16.15-30.55.79-3.07,1.23-7.63,2.19-10.32s3.63-2.89,5.62-1.24c4.63,3.84,6.99,10.55,5.39,16.63-.74,2.83-2.96,5.83-3.4,8.77-.47,3.12.07,5.63-1.09,8.91-1.8,5.08-5.2,6.02-8.02,9.66Z" style="fill: url(#uuid-1c72e650-4998-46f9-8b89-9866694d17a2);"/>
    <path d="M74.32,58.54c-.15.16-.54.19-.74.35-2.53,2.01-4.47,5.05-4.01,8.6.14,1.13,1.14,2.37,1.19,3.14s-.72,1.63-.73,2.44l-3.13-1.69c-8.94-2.03-15.13,13.54-3.64,13.97-.77.65-1.23,1.95-1.92,2.6-.63.59-1.31.59-1.94,1.03-1.79,1.26-2.32,2.93-4.68,4.04-5.94,2.8-14.48,1.39-17.92-4.98-1.25-2.31-.37-4.53,1.91-5.42s4.99-1.44,7.38-2.45c11.7-4.94,21.74-14.84,28.89-25.72.21.69-.31,3.68-.66,4.08Z" style="fill: url(#uuid-2140ecec-6279-41c4-b6b7-238be73caadd);"/>
    <path d="M67.26,78.66c-.23.44-.54,1.08-.82,1.57-.48.83-1.69,3.02-2.41,3.37-1.64.79-4.24.11-5.18-1.56-2.77-4.9,4.27-11.33,8.68-9.03.33.17,1.41,1.21,1.49,1.53.12.49-1.41,3.43-1.76,4.12Z" style="fill: url(#uuid-40569f8b-ca8e-41fa-99fd-4d94b748d8b2);"/>
    <path d="M73.13,61.99c.6.45,0,2.32-.22,3.07-.12.41-1.08,3.89-1.56,3.62-.88-.49-.56-3.3-.3-4.19.22-.73,1.18-3.17,2.08-2.5Z" style="fill: #fdf7d0;"/>
    <path d="M76.93,58.36c.47-.17,1.05.01,1.06.6.01.77-.78,3.92-1.03,4.86-.32,1.2-1.69,5.56-2.34,6.29-.6.66-1.34.42-1.18-.47.78-1.96,1.64-3.89,2.2-5.94.43-1.57.57-3.14.91-4.71.06-.28.06-.53.37-.64Z" style="fill: #fdf7d0;"/>
    <path d="M61.96,91.47c.56-.16.92.25.77.83-.03.12-1.3,1.7-1.53,1.98-.81.98-4.29,4.59-5.21,5.03-.85.41-1.6-.16-.98-1.05.28-.4,1.48-1.08,1.95-1.53.79-.76,4.54-5.13,4.99-5.27Z" style="fill: #fdf7d0;"/>
    <path d="M45.43,81.94c2.98-2.76,10.66-2.49,11.67,2.49,1.41,7.01-8.47,11.6-12.95,6.87-1.6-1.68-1.93-4.27-.92-6.42.26-.55,1.78-2.55,2.2-2.94Z" style="fill: #0c0b06;"/>
    <path d="M38.66,85.29c-.48.61-.07,1.81-1.52,1.48-.47-2.28,2.28-4.48,4.11-3.23.3,1.15-1.97.96-2.59,1.75Z" style="fill: #fdf7d0;"/>
    <path d="M60.76,75.7c.58-.18,1.2.08,1.01.82-.12.46-1.1,1.06-1.32,2.23-.15.78.59,2.59-.92,2.05-1.09-.38-.05-4.7,1.23-5.11Z" style="fill: #fefdf7;"/>
    <path d="M44.96,90.31c-1.86-1.99-.96-5.69,1.15-7.01.46-.29.9-.15,1.19-.31,1.15-.64,1.27-1.26,2.78-1.38,3.15-.25,6.72,1.41,5.75,5.38-1.05,4.3-7.97,6.43-10.87,3.32Z" style="fill: url(#uuid-56a2f0da-f1f6-42bf-96b2-098638399120);"/>
    <path d="M49.96,82.9c.26,1.53-.91,1.26-1.86,1.76s-1.44,1.07-1.95,2.06c-.14.27-.27,1.03-.32,1.07-.56.42-1.26-.08-1.09-1.02.14-.81,1.78-2.99,2.38-3.28.55-.27,1.1.36.91-.84l1.93.26Z" style="fill: #fefdf7;"/>
  </g>
</svg>