<?xml version="1.0" encoding="UTF-8"?>
<svg id="fill_oatdrink" xmlns="http://www.w3.org/2000/svg" viewBox="0 0 128 128">
  <path d="M41.71,124.74c-.4-.09-.8-.18-1.2-.28-4.15-1.05-7.09-4.73-7.35-9.01-.29-4.79-.67-9.58-1.02-14.37-.29-4.1-.58-8.2-.87-12.3-.3-4.2-.6-8.4-.9-12.6-.29-4.08-.58-8.16-.87-12.24-.34-4.79-.69-9.58-1.03-14.37-.22-3.1-.45-6.19-.64-9.29-.04-.67-.19-1.08-.9-1.41-3.5-1.62-5.32-4.42-5.42-8.27-.06-2.21-.05-4.43.03-6.64.14-3.62,2.61-6.86,6.05-8.02.43-.15.63-.36.73-.8.28-1.23.59-2.46.92-3.68,1.26-4.76,5.74-8.21,10.66-8.21,16.05,0,32.11,0,48.16,0,5.11,0,9.59,3.51,10.83,8.47.3,1.19.57,2.38.9,3.56.06.23.31.5.53.58,3.74,1.34,6.12,4.58,6.19,8.55.04,2.13.08,4.27-.01,6.4-.16,3.91-2.14,6.64-5.7,8.21-.42.18-.55.4-.58.82-.56,8.02-1.12,16.05-1.69,24.07-.57,8-1.16,16.01-1.73,24.01-.46,6.37-.9,12.74-1.35,19.1-.22,3.04-.41,6.07-.68,9.1-.38,4.2-3.81,7.81-7.99,8.48-.15.02-.3.08-.44.12h-44.61ZM38.21,100.4h51.62c1.15-16.17,2.31-32.31,3.46-48.48h-58.54c1.16,16.18,2.31,32.31,3.46,48.48ZM64.02,33.63c11.07,0,22.14,0,33.21,0,1.93,0,3.21-1.25,3.22-3.17.02-2,.02-3.99,0-5.99-.01-1.39-.9-2.52-2.23-2.86-.39-.1-.82-.11-1.23-.11-21.98,0-43.96,0-65.94,0-.12,0-.24,0-.36,0-1.87.04-3.1,1.29-3.1,3.16,0,1.94,0,3.87,0,5.81,0,.27.01.56.08.82.36,1.48,1.55,2.34,3.21,2.34,11.05,0,22.1,0,33.15,0ZM89.38,106.54h-50.7c0,.2-.01.38,0,.55.18,2.58.39,5.16.55,7.75.15,2.47,1.56,3.84,4.03,3.84,13.82,0,27.64,0,41.46,0,2.56,0,3.95-1.33,4.1-3.89.09-1.52.22-3.04.32-4.55.09-1.22.16-2.43.25-3.69ZM94.16,39.74h-60.28c.12,1.76.25,3.47.36,5.18.06.85.04.85.91.85,19.11,0,38.23,0,57.34,0q1.24,0,1.33-1.21c.01-.16.03-.31.04-.47.1-1.44.2-2.87.3-4.35ZM93.52,15.38c-.19-.74-.35-1.41-.52-2.08-.61-2.42-2.6-3.97-5.09-3.97-15.93,0-31.86,0-47.8,0-.3,0-.6,0-.89.05-2.69.43-4.67,3.01-4.62,6h58.91Z" style="fill: #4a3726; stroke-width: 0px;"/>
  <path d="M93.29,51.92c-1.16,16.16-2.31,32.3-3.46,48.47h-51.63c-1.15-16.17-2.3-32.29-3.46-48.47h58.55Z" style="fill: #aecace; stroke-width: 0px;"/>
  <path d="M64.02,33.63c-11.05,0-22.1,0-33.15,0-1.66,0-2.85-.86-3.21-2.34-.06-.27-.08-.55-.08-.82,0-1.94-.01-3.87,0-5.81,0-1.87,1.24-3.12,3.1-3.16.12,0,.24,0,.36,0,21.98,0,43.96,0,65.94,0,.41,0,.84,0,1.23.11,1.33.34,2.22,1.47,2.23,2.86.02,2,.02,3.99,0,5.99-.02,1.93-1.29,3.17-3.22,3.17-11.07,0-22.14,0-33.21,0Z" style="fill: #d6d6d5; stroke-width: 0px;"/>
  <path d="M89.38,106.54c-.08,1.25-.16,2.47-.25,3.69-.11,1.52-.23,3.03-.32,4.55-.15,2.56-1.54,3.89-4.1,3.89-13.82,0-27.64,0-41.46,0-2.47,0-3.88-1.36-4.03-3.84-.16-2.58-.36-5.17-.55-7.75-.01-.17,0-.35,0-.55h50.7Z" style="fill: #d6d6d5; stroke-width: 0px;"/>
  <path d="M94.16,39.74c-.1,1.48-.2,2.92-.3,4.35-.01.16-.03.31-.04.47q-.08,1.21-1.33,1.21c-19.11,0-38.23,0-57.34,0-.86,0-.85,0-.91-.85-.11-1.71-.24-3.43-.36-5.18h60.28Z" style="fill: #d6d6d5; stroke-width: 0px;"/>
  <path d="M93.52,15.38h-58.91c-.06-2.99,1.93-5.57,4.62-6,.29-.05.59-.05.89-.05,15.93,0,31.86,0,47.8,0,2.49,0,4.47,1.55,5.09,3.97.17.67.33,1.34.52,2.08Z" style="fill: #d6d6d5; stroke-width: 0px;"/>
  <g>
    <path d="M72.45,70.15c2.12-.2,3.26.51,4.19,2.68,3.9-1.25,12.95,2.14,6.49,6.05,1.3,2.94-1.33,5.54-4.17,3.85-.01.07-.21,0-.11.15,1.08,2.11.62,3.41-1.64,4.52,1.72,4.2-2.41,5.39-5.48,3.09,3.14,5.08-3.14,9.75-5.93,4.14-1.04-2.75-1.95-5.44-3.01-8.2-.74,3.63-4.93,5.14-6.14.93-2.08,1.02-4.26-.47-4.1-2.92-.82,3.26-4.88,3.96-5.78.23-2.51,1.17-5.23-1.48-3.7-3.89,1.18-1.98,2.54-3.78,4.64-4.86-2.25-7.64,5.91-4.89,9.98-3.5-.79-2.59-2.5-5.01-.52-7.46,2.23-3.2,4.38-6.45,6.49-9.73,1.56-3.19,6.36-2.65,6.82,1,2.78-.51,8.26-.18,8.59,3.23.03,1.3-.63,2.18-2.18,2.81,1.54,2.69-1.44,5.62-4.07,3.86-.04.06-.2.03-.13.18.78,1.29.67,2.46-.22,3.67,0,0-.06-.01-.06-.01,0,.04.04.09.07.1l-.03.06ZM56.22,79.29c-.85-.25-1.78-.52-2.57-.74-.2,1.54-.39,3.03-.57,4.53,1.18-.88,2.06-2.61,3.15-3.78ZM71.06,65.19c-1.34-.88-2.52-1.92-3.32-3.45-.61.91-1.18,1.77-1.67,2.51,1.66.37,3.28.74,4.89,1.1,0-.07.04-.12.09-.16ZM77.2,81.77c-1.1-.98-2.19-1.96-3.32-2.97-.43.65-.94,1.41-1.38,2.07,1.55.36,3.08.71,4.6,1.06,0-.06.04-.11.09-.15Z" style="fill: #4a3726; stroke-width: 0px;"/>
    <path d="M60.97,67.74c1.71,4.71,3.4,9.35,5.15,14.14,1.58-1.43,5.88-10.78,7.66-9.3.61.38.7,1.08.17,1.89-2.26,3.43-4.54,6.8-6.81,10.23.24,1.81,4.53,9.46,2.42,10-2.21.69-2.75-5.12-3.71-6.61-1.13-3.12-2.27-6.24-3.41-9.39-3.93-1.16-7.81-2.29-11.74-3.44-.92-.27-1.34-.84-1.16-1.51.18-2.43,9.79,2.06,11.84,2.13-.59-2.88-3.29-6.53-2.51-9.25,1.46-1.52,7.1-12.71,8.72-11.04,2.26.82-5.86,10.19-6.63,12.14Z" style="fill: #ad996e; stroke-width: 0px;"/>
    <path d="M75.67,75.93c1.36-1.57,5.51-1.07,7.34.2-.88.94-2.19.87-3.24,1.48.49,1,.97,2.01,1.46,3.01-1.63.83-5.46-2.49-5.56-4.69Z" style="fill: #beb696; stroke-width: 0px;"/>
    <path d="M60.43,80.41c1.24,1.86.47,6.67-1.27,7.17-.27-1.06-.53-2.12-.82-3.27-1.13.38-2.22.75-3.38,1.14.06-1.74,3.21-5.49,5.47-5.04Z" style="fill: #beb696; stroke-width: 0px;"/>
    <path d="M63.62,67.83c1.2-1.52,5.01-1.23,7.44.14-.99.88-2.26.94-3.34,1.51.48.98.96,1.96,1.58,3.22-3-.09-5.64-3-5.68-4.88Z" style="fill: #beb696; stroke-width: 0px;"/>
    <path d="M50.49,77.68c1.6,1.65.22,6.14-1.16,7.37-.32-1.2-.61-2.28-.94-3.49-1.08.39-2.15.77-3.22,1.15-.49-1.83,3.15-5.13,5.32-5.03Z" style="fill: #beb696; stroke-width: 0px;"/>
    <path d="M76.75,59.36c-.33,1.1-2.22,1.08-3.18,1.61.51,1.09.99,2.12,1.51,3.23-2.14-.03-5.89-2.78-5.57-4.86,1.13-1.43,4.53-1.27,7.24,0Z" style="fill: #beb696; stroke-width: 0px;"/>
    <path d="M77.32,84.74c-1.22.48-2.27.89-3.39,1.33.5,1.07.97,2.09,1.48,3.19-2,.09-6-2.84-5.57-4.87,1.34-1.66,5.83-.94,7.48.35Z" style="fill: #beb696; stroke-width: 0px;"/>
  </g>
</svg>