<?xml version="1.0" encoding="UTF-8"?>
<svg id="uuid-2e3cf7d2-8440-457b-9439-f1313ba4db19" data-name="fill_liquidfertilizer" xmlns="http://www.w3.org/2000/svg" xmlns:xlink="http://www.w3.org/1999/xlink" viewBox="0 0 128 128">
  <defs>
    <linearGradient id="uuid-c63d28bd-1c09-4527-be1a-b256eb7012b7" x1="-316.59" y1="-565.08" x2="-316.47" y2="-366.08" gradientTransform="translate(222 296) scale(.5)" gradientUnits="userSpaceOnUse">
      <stop offset="0" stop-color="#b3cddd"/>
      <stop offset="1" stop-color="#84a7ce"/>
    </linearGradient>
    <linearGradient id="uuid-fa46786d-9c29-46c9-a7e4-1d1756e04a90" x1="-319.91" y1="-477.49" x2="-289.99" y2="-437.43" gradientTransform="translate(222 296) scale(.5)" gradientUnits="userSpaceOnUse">
      <stop offset="0" stop-color="#b4c838"/>
      <stop offset="1" stop-color="#8aad43"/>
    </linearGradient>
  </defs>
  <path d="M81,20v-10.75c0-1.23,1.73-1.66,2.74-1.75,2.21-.21,15.51-.29,16.75.26,2.28,1.01,1.56,7.6,1.53,10.01-.01,1-.55,2-.43,2.87.3,2.15,4.42,6.33,4.42,9.1l-.26,86.77-1.23.77-80.3.25c-1.67,0-2.39-1.16-2.25-2.75V29.23s4.3-18.21,4.3-18.21l.72-.78,42.25-.23c2.92.52,3.83,8.76,5.23,9.77,1,.71,5.06-.05,6.52.23ZM99,10h-15.5v9.5h15.5v-9.5ZM24.5,114c.01.36-.22,1.07.3,1.01h78.71s.03-82.81.03-82.81c.3-.75-.44-1.36-.53-1.69-.36-1.28-2.94-7.13-3.83-7.42l-26.61-.14c-.71-1.56-3.41-10.04-4.38-10.37l-39.64-.02-4.06,18.19c.8,27.6-1,55.74.02,83.27Z" style="fill: #090b0c;"/>
  <path d="M24.5,114c-1.02-27.53.78-55.67-.02-83.27l4.06-18.19,39.64.02c.97.33,3.67,8.82,4.38,10.37l26.61.14c.89.29,3.47,6.14,3.83,7.42l.3,1.36-.04,82.8-78.41-.16-.34-.51ZM30,30h39.5c.15-.92-3.91-12.41-4.49-12.76l-31.2-.17c-.6.16-.67.66-.86,1.14-.45,1.1-3.06,11.19-2.96,11.79ZM27.5,38c-.26.66-.45.67-.53,1.69-.44,5.48-.56,16.74,0,22.1.08.76.39.87.53,1.2.38.96.15,1.76,1.75,1.5.91-.48.57-1.37.75-2,.15-.52.45-.69.54-1.69.45-5.38.56-16.84,0-22.11-.08-.77-.24-.74-.53-1.2-1.2-1.92-1.83-1.19-2.5.5ZM86.75,49.5c-2.1-.56-10.13,0-13,0-3.11,0-11.25,3.23-14.09,4.91-9.12,5.43-13.52,13.51-11.04,24.21.27,1.17,1.6,2.86,1.3,4.03-.19.73-3.99,5-4.84,6.19-1.39,1.95-5.13,6.82-5.11,8.9.01,1.58,1.94.66,2.55.04,1.54-2.17,7.32-12.13,9.33-12.71.97-.28,6.91,2.15,8.94,2.38,20.44,2.32,28.61-18,27.23-35.23-.07-.9-.25-2.45-1.28-2.72ZM27.5,69.5c-.27.67-.46.69-.53,1.69-.19,2.54-.28,8.74.53,10.81.52,1.31.85,2.3,2.5,1,.56-.44.46-.54.53-1.2.27-2.73.21-7.82,0-10.6-.07-1-.26-1.03-.53-1.69-.3-.75.43-1.37-1.76-1.03-1.28.2-.52.5-.74,1.03Z" style="fill: url(#uuid-c63d28bd-1c09-4527-be1a-b256eb7012b7);"/>
  <rect x="83.5" y="10" width="15.5" height="9.5" style="fill: #33589f;"/>
  <path d="M103,30.5c.09.33.83.95.53,1.69l-.03,82.81H24.8c-.52.06-.28-.64-.3-1l78.5.5V30.5Z" style="fill: #9dbbd6;"/>
  <path d="M86.75,49.5c1.03.28,1.21,1.82,1.28,2.72,1.38,17.23-6.79,37.55-27.23,35.23-2.04-.23-7.97-2.66-8.94-2.38-2.01.58-7.79,10.54-9.33,12.71-.6.63-2.53,1.54-2.55-.04-.02-2.08,3.72-6.95,5.11-8.9.85-1.19,4.65-5.46,4.84-6.19.3-1.16-1.03-2.86-1.3-4.03-2.48-10.7,1.91-18.77,11.04-24.21,2.84-1.69,10.98-4.91,14.09-4.91,2.87,0,10.9-.56,13,0Z" style="fill: #090b0c;"/>
  <path d="M69.5,30H30c-.1-.6,2.51-10.69,2.96-11.79.19-.48.26-.98.86-1.14l31.2.17c.58.35,4.64,11.84,4.49,12.76ZM36,20c-.31.02-.64-.12-.94.05l-1.56,7.45h32.5c-.83-1.22-1.94-7.22-3-7.5h-27Z" style="fill: #090b0c;"/>
  <path d="M30,37.5c.75,8.24.64,16.75,0,25-.18.63.16,1.52-.75,2-1.6.26-1.37-.54-1.75-1.5-.74-8.24-.64-16.75,0-25,.67-1.69,1.3-2.42,2.5-.5Z" style="fill: #e0f1fd;"/>
  <path d="M27.5,69.5c.22-.53-.54-.83.74-1.03,2.19-.34,1.46.28,1.76,1.03.5,4.44.58,9.08,0,13.5-1.65,1.3-1.98.31-2.5-1-.4-4.15-.56-8.37,0-12.5Z" style="fill: #e0f1fd;"/>
  <path d="M30,62.5v-25c.29.46.44.42.53,1.2.57,5.27.46,16.73,0,22.11-.08,1.01-.38,1.17-.54,1.69Z" style="fill: #9dbbd6;"/>
  <path d="M27.5,63c-.13-.33-.45-.44-.53-1.2-.57-5.36-.45-16.63,0-22.1.08-1.03.27-1.03.53-1.69v25Z" style="fill: #9dbbd6;"/>
  <path d="M30,83v-13.5c.27.67.46.69.53,1.69.2,2.79.27,7.88,0,10.6-.07.66.04.76-.53,1.2Z" style="fill: #9dbbd6;"/>
  <path d="M27.5,82c-.82-2.06-.72-8.27-.53-10.81.07-1,.26-1.03.53-1.69v12.5Z" style="fill: #9dbbd6;"/>
  <path d="M84.75,52c1.06.33.83,3.7.77,4.77-.29,5.62-2.04,13.75-4.93,18.56-5.93,9.84-16.52,11.51-26.58,6.92,2.59-2.38,4.87-5.17,7.49-7.51,1.65-1.48,9.79-7.3,10.26-8.24.86-1.7-.42-2.34-2.04-1.54-1.4.69-3.64,2.52-4.95,3.54-4.45,3.48-8.52,7.5-12.51,11.49-4.97-11.39,2.54-21.28,13.12-25.38,2.16-.84,8.3-2.62,10.38-2.62,1.91,0,7.72-.39,9,0Z" style="fill: url(#uuid-fa46786d-9c29-46c9-a7e4-1d1756e04a90);"/>
  <path d="M63,20c-8.91.33-18.13-.44-27,0h27Z" style="fill: #6a6b6b;"/>
</svg>