<?xml version="1.0" encoding="UTF-8"?>
<svg id="uuid-513545f4-227b-48ff-af3a-1401347bf1f9" data-name="fill_potato" xmlns="http://www.w3.org/2000/svg" xmlns:xlink="http://www.w3.org/1999/xlink" viewBox="0 0 128 128">
  <defs>
    <linearGradient id="uuid-e310c606-5f92-45d8-a3cb-57c719a9b735" x1="-2117.53" y1="22.8" x2="-2062.89" y2="241.06" gradientTransform="translate(1110) scale(.5)" gradientUnits="userSpaceOnUse">
      <stop offset="0" stop-color="#a2887b"/>
      <stop offset="1" stop-color="#82675a"/>
    </linearGradient>
  </defs>
  <path d="M50.25,8.77c26.27-.71,31.93,10.83,46.26,28.96,7.32,9.26,11.07,12.38,14.35,24.65,9.61,35.97-3.81,64.65-44.11,62.11-36.83-2.33-46.17-33.3-48.25-65.25-1.27-19.48,8.53-49.85,31.75-50.47Z" style="fill: #0a0c0c;"/>
  <path d="M95.16,40.84c4.14,5.13,6.92,6.45,9.93,13.32,9.86,22.54,9.65,60.35-20.07,66.61-18.83,3.97-42.13-.43-52.6-17.93-7.58-12.68-12.83-42.04-10.85-56.52,1.92-14.05,11.74-33.61,27.67-34.83,26.1-2,32.12,12.24,45.93,29.36Z" style="fill: url(#uuid-e310c606-5f92-45d8-a3cb-57c719a9b735);"/>
  <path d="M26.87,67.23c-.8-.67-1.35-2.53-1.58-3.78-.59-3.08-.91-6.24-.91-9.35.03-10.95,3.04-23.07,11.56-30.52,1.89-1.23,2.79-.48,1.63,1.52-8.82,10.48-12.34,24.75-9.22,38.07.26,1.35.27,4.95-1.41,4.11l-.08-.06Z" style="fill: #d2baab;"/>
  <path d="M95.87,65.11c5.82-1.2,8.57,6.68,3.59,9.6-6.69,3.93-10.94-8.09-3.59-9.6Z" style="fill: #604c43;"/>
  <path d="M44.71,109.58c-4.85,1.88-13.65-15.8-14.61-19.66-.65-1.33-1.79-7.89,1.17-4.93,1.64,2.12,2.23,5.23,3.3,7.71,1.77,4.4,4.31,8.66,7.5,12.22.95,1.2,3.12,3.18,2.68,4.6l-.04.06Z" style="fill: #d2baab;"/>
  <path d="M38.85,72.08c4.67-1.37,6.84,6.34,1.78,7.34-4.45.88-5.76-6.18-1.78-7.34Z" style="fill: #604c43;"/>
  <path d="M86.85,74.1c5.15-1.51,6.19,5.48,1.78,6.33-4.01.77-4.95-5.4-1.78-6.33Z" style="fill: #604c43;"/>
  <path d="M65.37,22.59c4.91-1.04,5.5,5.67,1.27,6.34-3.35.53-5.38-5.47-1.27-6.34Z" style="fill: #604c43;"/>
  <path d="M65.37,108.59c4.53-.96,5.13,4.95,2.29,5.82-4.96,1.52-6.24-4.98-2.29-5.82Z" style="fill: #604c43;"/>
  <path d="M71.85,29.08c3.69-1.09,4.44,4.38,1.28,4.83s-3.52-4.17-1.28-4.83Z" style="fill: #604c43;"/>
</svg>