<?xml version="1.0" encoding="UTF-8"?>
<svg id="uuid-57736532-44fa-4ad6-ad65-57ded62d0903" data-name="fill_oilcorn" xmlns="http://www.w3.org/2000/svg" xmlns:xlink="http://www.w3.org/1999/xlink" viewBox="0 0 128 128">
  <defs>
    <linearGradient id="uuid-648d47ba-e250-402a-9f7b-69e9e60d9c0b" x1="55.18" y1="3.94" x2="55.18" y2="124.19" gradientUnits="userSpaceOnUse">
      <stop offset="0" stop-color="#eaf6fb"/>
      <stop offset="1" stop-color="#d5edf5"/>
    </linearGradient>
    <linearGradient id="uuid-5ca5642b-5917-48ef-bdc3-f8860f8e8e8a" x1="1155.75" y1="-870.01" x2="1155.82" y2="-803.01" gradientTransform="translate(-518 518) scale(.5)" gradientUnits="userSpaceOnUse">
      <stop offset="0" stop-color="#faf294"/>
      <stop offset="1" stop-color="#eecd25"/>
    </linearGradient>
    <linearGradient id="uuid-d781d2c5-31ce-45f3-8b5f-d5c38ef65df9" x1="1153.65" y1="-895.92" x2="1153.66" y2="-875.92" gradientTransform="translate(-518 518) scale(.5)" gradientUnits="userSpaceOnUse">
      <stop offset="0" stop-color="#faf294"/>
      <stop offset="1" stop-color="#f1d742"/>
    </linearGradient>
    <linearGradient id="uuid-3eecb96b-67eb-4609-81ae-8431ba1eeb3b" x1="-1145.32" y1="1010.39" x2="-1120.4" y2="1108.53" gradientTransform="translate(666 -444) scale(.5)" gradientUnits="userSpaceOnUse">
      <stop offset="0" stop-color="#80bb64"/>
      <stop offset=".23" stop-color="#7fba63"/>
      <stop offset="1" stop-color="#4f952c"/>
    </linearGradient>
    <linearGradient id="uuid-14eb02ed-7b1f-41e9-88ec-b0f71f25e4eb" x1="-1216.63" y1="1052.62" x2="-1137.12" y2="1115.32" gradientTransform="translate(666 -444) scale(.5)" gradientUnits="userSpaceOnUse">
      <stop offset="0" stop-color="#80ba64"/>
      <stop offset="1" stop-color="#3b7222"/>
    </linearGradient>
    <linearGradient id="uuid-e8fc1198-4766-48eb-9cc3-8f75ab2cb99d" x1="-1211.73" y1="1002.31" x2="-1151.71" y2="1050.97" gradientTransform="translate(666 -444) scale(.5)" gradientUnits="userSpaceOnUse">
      <stop offset="0" stop-color="#fee27d"/>
      <stop offset="1" stop-color="#feca0e"/>
    </linearGradient>
  </defs>
  <path d="M96.42,70.55c2.68-13.26,1.29-26.18-9.26-35.49-4.19-3.7-9.77-6.78-15.19-8.05.17-1.38-.45-7.23.02-7.89.23-.31,3.3-1.43,4.37-3.38.99-1.82.9-7.38-.21-9.17C71.85-.29,54.16-.21,48.45,4.83c-3.09,2.72-3.08,10.63.21,13.22.64.51,2.19.94,2.28,1.33.15.61.18,7.33-.07,7.62-.15.17-3.99,1.41-4.21,1.39-.93-.11-2.25-2.58-2.91-3.17C25.84,9.04,2.76,32.95,16.93,49.79c2.51,2.99,5.35,3.93,8.41,6.09-.29,7.36,1.1,14.57,2.82,21.68,3.38,13.94,9.41,29.54,16.5,42,1.06,1.87,2.02,4.08,3.99,5.01,5.95,2.82,20.16,3.13,25.89-.15,3.3-1.88,4.75-7.95,7.13-10.86,5.81-8.69,19.51-43.9,14.75-43.01ZM32.93,38.31c-1.08,1.29-4.16,6.78-4.5,7.03-.65.47-2.85-.95-3.35-1.45-6.2-6.24.39-17.24,9.53-12.78,5.42,2.66.86,4.16-1.68,7.2Z" style="fill: #0d0f0f;"/>
  <path d="M94.92,56.05c-.73-7.37-4.61-14.74-10.26-19.49-4.26-3.58-9.74-6.35-15.19-7.55l-.07-11.13c5.7-1.49,7.42-9.23,1.97-12.03-4.85-2.49-15.5-2.69-20.12.28-3.34,2.14-3.47,7.88-.3,10.14.62.43,2.9,1.23,2.99,1.61l-.07,11.13-8.94,3.04c-7.34-17-32.37-9.3-29.39,9.13.77,4.82,3.52,7.56,7.38,9.87,1.05.26,1.81.65,2.5,1.5.14.06.35-.05.5,0,2.85.98,2.68,1.16,2.5,4.25-1,16.75,8.81,43.25,16.74,58.26.55,1.04,3.47,6.49,3.88,6.87.59.56,6.93,2.01,8.13,2.12,4.03.35,13.47.17,16.74-2.26,1.09-.81,6.11-10.2,5.93-11.37-.11-.73-.98-1.5-.93-2.37-2.53,2.21-4.37,9.59-7.2,11.04-4.08,2.08-11.39,2.15-15.82,1.24-3.88-.81-5.01-1.08-7.06-4.44-5.29-8.69-13.54-29.72-14.38-39.65-.54-6.43,9.95-8.46,14.78-9.13,10.32-1.42,21.77-.84,31.91,1.47.52-4.74,5.36-4.01,8.04-1.54,1.78,1.64.57,3.01.94,3.52,1.19,1.64,2.99.59,3.56-1,1.27-3.53,1.61-9.78,1.24-13.51ZM34.43,40.81c-1.08,1.34-4.13,7.27-4.5,7.5-1.61,1-6.2-1.76-7.35-2.92-.66-.67-1.61-2.89-1.9-3.85-4.16-13.66,15.3-20.06,20.2-6.79-2.14,1.85-4.67,3.86-6.45,6.06ZM53.15,12.07c-1.18-.89-.55-2.15.62-2.44.89-.23,3.11.81,4.4.92,1.62.13,3.9.13,5.52.02,1.41-.09,5.32-1.13,5.92-.98,1.07.27,1.3,2.29-.04,2.86-3.1,1.31-13.75,1.66-16.42-.38Z" style="fill: url(#uuid-648d47ba-e250-402a-9f7b-69e9e60d9c0b);"/>
  <path d="M72.32,114.2c-1.8,2.87-2.41,3.07-5.78,3.72-4.76.93-10.02.37-14.5-1.5-5.91-11.21-11.49-23.29-13.62-35.88,2.9,1.46,6.18,2.34,9.39,2.86,10.81,1.76,21.39,1.23,32.09-.84-.27,1.46,1.5,5.36,1.42,6.15-.04.39-2.67,3.21-3.2,7.75-1,8.54-5.17,16.72-5.8,17.73Z" style="fill: url(#uuid-5ca5642b-5917-48ef-bdc3-f8860f8e8e8a);"/>
  <path d="M80.42,71.05c-.43,2.99-1.25,5.92-1.02,8.98-1.81.05-3.52.69-5.29.96-9.16,1.41-25.47,1.5-33.88-2.5-2.04-.97-3.87-1.83-2.56-4.45,1.1-2.21,10.51-4.09,13.06-4.43,9.87-1.33,19.98-.52,29.69,1.44Z" style="fill: url(#uuid-d781d2c5-31ce-45f3-8b5f-d5c38ef65df9);"/>
  <path d="M78.34,91.53c-.54,3.51-2.24,7.16-2.78,10.54-.69,3.02-2.36,5.17-4.19,7.27-.85.97-2.23,4.18-3.62,2.81-.35-.61-.06-1.65.25-2.35.73-1.56,1.61-3.04,2.34-4.61,2.36-4.6,3.49-9.55,5.3-14.37,1.02-3.28,2.78-1.84,2.7.52v.18Z" style="fill: #faf5c1;"/>
  <path d="M22.92,51.05h2.5s0,1.5,0,1.5c-1.56-.64-1.54-.93-2.5-1.5Z" style="fill: #d8ecf3;"/>
  <path d="M22.58,45.39c-.66-.67-1.61-2.89-1.9-3.85-4.16-13.66,15.3-20.06,20.2-6.79-2.15,1.85-4.68,3.86-6.45,6.06-1.08,1.34-4.13,7.27-4.5,7.5-1.61,1-6.2-1.76-7.35-2.93ZM25.09,43.89c.5.5,2.7,1.92,3.35,1.45.34-.25,3.42-5.73,4.5-7.02,2.54-3.04,7.1-4.55,1.67-7.2-9.14-4.47-15.73,6.53-9.52,12.77Z" style="fill: #0d0f0f;"/>
  <path d="M53.77,9.63c.89-.22,3.11.82,4.4.92,1.61.13,3.9.13,5.52.02,1.4-.09,5.32-1.13,5.92-.98,1.08.27,1.3,2.29-.04,2.86-3.1,1.32-13.75,1.66-16.42-.37-1.18-.9-.55-2.15.62-2.45Z" style="fill: #171b1c;"/>
  <g>
    <path d="M93.03,62.93c.61-1.37,3.09-5.03,4.35-5.48,2.26-.81,4.51.12,5.23,2.4.78,2.49,1.12,5.78,1.84,8.48,1.4,5.25,3.29,10.53,5.51,15.47,3.1,6.91,7.8,12.32,4.22,20.42-.59,1.33-3.72,4.89-3.78,5.21-.07.37,1.21,2.49,1.29,3.62.11,1.52-.41,3.09-1.51,4.16-.79.76-8.89,5.45-10.08,5.91-3.5,1.34-6.4-.49-7.42-3.9-6.69,1.93-12.49-1-16.44-6.36-6.6-8.96-10.43-14.98-18.67-22.96-1.34-1.3-3.66-2.4-3.85-4.48-.45-4.78,5.34-4.58,8.67-4.83-.9-3.22-2.2-6.3-2.89-9.59-1.55-7.34-2.32-19.9,6.57-22.87,8.4-2.81,18.18,5.39,23.48,11.14.81.88,1.84,2.63,2.65,3.35.29.26.37.43.84.32Z" style="fill: #040502;"/>
    <path d="M98.6,58.98c.87-.17,1.79.23,2.17,1.03,1.55,8.17,3.79,16.2,7.18,23.79,2.7,6.04,7.32,11.5,4.98,18.52-1.75,5.25-7.13,8.68-12.09,10.46-.62-.07-4.07-5.33-4.63-6.24-7.67-12.55-10.69-27.56-3-40.91.81-1.4,3.98-6.36,5.38-6.64Z" style="fill: url(#uuid-3eecb96b-67eb-4609-81ae-8431ba1eeb3b);"/>
    <path d="M87.94,91.66c2.22,8.17,6.11,15.8,11.41,22.39-6.65,4.76-14.7,5.85-20.48-.83-2.09-2.41-3.49-5.39-5.35-7.97-3.93-5.45-8.6-10.89-13.46-15.52-1.76-1.67-7.02-4.5-3.35-6.67,11.36-2.53,22.62,1.1,31.23,8.6Z" style="fill: url(#uuid-14eb02ed-7b1f-41e9-88ec-b0f71f25e4eb);"/>
    <path d="M90.16,63.14c.42.51,1.45.96,1.49,1.89-2.56,4.41-4.33,9.92-4.63,15.03-.17,2.97.35,5.89.34,8.84-6.52-5.14-14.51-8.5-22.94-8.37-2.94-7.23-6.77-20.98-1.71-27.77,7.7-10.33,22.25,4.06,27.44,10.37Z" style="fill: url(#uuid-e8fc1198-4766-48eb-9cc3-8f75ab2cb99d);"/>
    <path d="M94.36,118.55c2.88-.4,4.94-2.65,7.22-3.94,1.51-.86,3.14-1.51,4.66-2.33,1.26-.68,2.21-2.25,3.18-.63.87,1.45.72,2.84-.39,4.08-.75.84-8.24,5.16-9.6,5.72-2.61,1.08-4.4-.41-5.08-2.91Z" style="fill: #6eac50;"/>
    <path d="M93.75,70.7c.58,1.13-.44,2.65-.68,3.82-.79,2.79-1.13,6.11-.86,9.05.13,1.33-.88,2.58-1.62.95-.83-2.18-.12-14.41,3.11-13.87l.05.05Z" style="fill: #b8d8a9;"/>
    <path d="M72.39,99.53c-1.1.68-2.94-1.81-3.7-2.57-1.81-2.23-4.57-3.79-6.08-6.26-.39-.89.11-1.28,1.03-.94,1.42.56,2.63,1.91,3.76,2.97,1.52,1.7,5.46,4.74,5.02,6.75l-.03.05Z" style="fill: #b8d8a9;"/>
    <path d="M86.66,70.3c.66.46.71,3.01.48,3.89-.61,2.33-2.17,1.99-2.61,2.72-.26.43-.22,1.73-.47,2.52-.68,2.13-2.37,2.94-4.52,2.83-1.79-.09-3.76-1.38-3.16-3.35,1.75-.4,1.96,1.61,3.49,1.7,1.56.09,3-1.62,2.46-3.16-.28-.78-3.9-1.24-2.96-3.54,1.5.38,1.55-.49,2.66-1l-.33,2.33c3.88.49,4.1-1.88,3.66-4.99.38.06,1.03-.13,1.29.05Z" style="fill: #fdd43b;"/>
    <path d="M71.39,69.92c-.33,3.63-4.5,5.34-7.17,2.67-.48-.48-.75-1-.33-1.68.65-1.05,1.18.55,1.52.82,1.61,1.28,4.3.45,4.59-1.74.13-1.02-.97-2.16-.28-2.58,1.15-.69,1.71,1.17,2.56,1.43,1.36.41,2.54-.11,3.24-1.29,1.12-1.91-.26-2.48-.14-3.13.07-.41.89-.7,1.35-.36.78.57.7,2.9.42,3.8-.68,2.15-3.93,3.47-5.77,2.05Z" style="fill: #fdd43b;"/>
    <path d="M61.26,58.4c.42-1.58,1.08-3.7,2.27-4.92.56-.57,1.29-.47,1.31.37.12.88-.68,2.33-1.06,3.55-.77,2.16-.36,4.55-.97,6.79-.86,2.24-1.76-.05-1.74-1.31-.06-1.44-.1-2.99.17-4.36l.03-.13Z" style="fill: #feefba;"/>
    <path d="M75.88,54.94c1.2-.34,1.54,1.65,1.51,2.48-.11,3.53-5.02,5.32-7.35,2.68-.36-.41-1.09-1.58-.16-1.83,1-.28,1.1.9,1.69,1.3,1.33.89,3.84.14,4.13-1.47.16-.87-.61-2.93.17-3.15Z" style="fill: #fdd43b;"/>
  </g>
</svg>