<?xml version="1.0" encoding="UTF-8"?>
<svg id="fill_staircaserailing" xmlns="http://www.w3.org/2000/svg" viewBox="0 0 128 128">
  <path d="M20.61,104c1.1-4.89-1.76-10.35,3.62-14.06v-51.88c-5.47-3.59-2.47-9.21-3.63-14.06-1.74,0-3.49.06-5.23-.01-3.78-.15-6.34-2.8-6.37-6.53-.02-2.5-.04-5,0-7.5.06-3.55,2.48-5.95,6.08-5.95,32.6-.02,65.2-.02,97.8,0,3.74,0,6.09,2.43,6.12,6.22.02,2.29.01,4.58,0,6.87-.02,4.29-2.58,6.84-6.96,6.9-1.54.02-3.08,0-4.62,0-1.23,4.82,1.84,10.45-3.65,14.04v51.9c5.33,3.71,2.56,9.15,3.61,14.06,1.64,0,3.37-.04,5.11,0,3.95.12,6.49,2.76,6.51,6.71.01,2.29.01,4.58,0,6.87-.02,4.02-2.31,6.4-6.25,6.41-32.49.01-64.99.01-97.48,0-3.93,0-6.24-2.4-6.26-6.4-.01-2.29-.01-4.58,0-6.87.02-3.95,2.55-6.58,6.5-6.71,1.66-.05,3.32,0,5.11,0ZM42.53,58.17h-.08v13.46s.02,0,.03-.01v18.6c5.23,3.58,2.69,8.99,3.6,13.64h5.86c.92-4.8-1.76-10.33,3.56-13.96v-51.87c-5.45-3.7-2.43-9.34-3.61-13.81h-5.84c-.82,4.6,1.53,9.72-3.52,13.51v20.45ZM85.53,90.23v-32.08s-.04.01-.06.02v-20.48c-5.12-3.79-2.57-9.12-3.55-13.49h-4.63c-.75,4.79,1.57,10.12-3.57,13.71v20.19s0-.02,0-.02v32.14c5.47,3.51,2.49,9.15,3.67,13.67h4.55c.84-4.67-1.57-10.06,3.58-13.66Z" style="fill: #4a3726; stroke-width: 0px;"/>
  <path d="M15.5,16.95v-6.29h96.89v6.29H15.5Z" style="fill: #7b5b3b; stroke-width: 0px;"/>
  <path d="M112.52,111.05v6.27H15.62v-6.27h96.89Z" style="fill: #7b5b3b; stroke-width: 0px;"/>
  <path d="M59,31.74v-7.91h11.07v7.91h-11.07Z" style="fill: #a5805b; stroke-width: 0px;"/>
  <path d="M38.85,24.22v7.56h-11.06v-7.56h11.06Z" style="fill: #a5805b; stroke-width: 0px;"/>
  <path d="M89.11,31.71v-7.52h11.02v7.52h-11.02Z" style="fill: #a5805b; stroke-width: 0px;"/>
  <path d="M92.27,38.51h5.04v15.96h-5.04v-15.96Z" style="fill: #a5805b; stroke-width: 0px;"/>
  <path d="M38.86,96.22v7.66h-11.05v-7.66h11.05Z" style="fill: #a5805b; stroke-width: 0px;"/>
  <path d="M70.1,103.9h-11.02v-7.67h11.02v7.67Z" style="fill: #a5805b; stroke-width: 0px;"/>
  <path d="M100.24,96.25v7.6h-11.06v-7.6h11.06Z" style="fill: #a5805b; stroke-width: 0px;"/>
  <path d="M97.36,89.48h-5.01v-14.58h5.01v14.58Z" style="fill: #a5805b; stroke-width: 0px;"/>
  <path d="M35.68,54.53h-4.69v-15.92h4.69v15.92Z" style="fill: #a5805b; stroke-width: 0px;"/>
  <path d="M66.91,54.51h-4.73v-15.95h4.73v15.95Z" style="fill: #a5805b; stroke-width: 0px;"/>
  <path d="M31,74.85h4.73v14.53h-4.73v-14.53Z" style="fill: #a5805b; stroke-width: 0px;"/>
  <path d="M66.91,89.49h-4.7v-14.62h4.7v14.62Z" style="fill: #a5805b; stroke-width: 0px;"/>
  <path d="M30.74,61.57h4.96v6.41h-4.96v-6.41Z" style="fill: #a5805b; stroke-width: 0px;"/>
  <path d="M66.98,68.08h-5.02v-6.42h5.02v6.42Z" style="fill: #a5805b; stroke-width: 0px;"/>
  <path d="M97.36,68.04h-5v-6.42h5v6.42Z" style="fill: #a5805b; stroke-width: 0px;"/>
</svg>