<?xml version="1.0" encoding="UTF-8"?>
<svg id="fill_furniture" xmlns="http://www.w3.org/2000/svg" viewBox="0 0 128 128">
  <path d="M68.74,70.03H31v3.1c0,8.7.01,17.4,0,26.09-.01,5.82-3.05,8.84-8.86,8.87-1.5,0-3,.02-4.5,0-5.33-.06-8.34-3.05-8.34-8.36-.01-17.8,0-35.59,0-53.39,0-1.09,0-2.19,0-3.38-4.84-1.53-6.41-5.09-6.21-9.77.1-2.29-.03-4.61.26-6.87.47-3.62,3.24-6.08,6.87-6.39.89-.08,1.8-.05,2.7-.05,34.09,0,68.19,0,102.28,0,6.99,0,9.63,2.59,9.72,9.52.01,1.1-.04,2.2.01,3.3.18,3.76-.49,7.17-3.91,9.32,0,19.09,0,37.98,0,56.87,0,6.33-2.82,9.19-9.05,9.2-11.3,0-22.6.01-33.89,0-6.07,0-8.96-2.93-8.98-9.02-.02-9.4-.02-18.8-.04-28.19,0-.19-.12-.38-.28-.86Z" style="fill: #4a3726; stroke-width: 0px;"/>
  <path d="M76.85,100.15v-57.15h36.26v57.15h-36.26Z" style="fill: #a5805b; stroke-width: 0px;"/>
  <path d="M10.96,35.12v-7.52h105.92v7.52H10.96Z" style="fill: #a5805b; stroke-width: 0px;"/>
  <path d="M69.05,61.92H31.17v-18.87h37.89v18.87Z" style="fill: #7b5b3b; stroke-width: 0px;"/>
  <path d="M16.87,100.16v-57.15h6.15v57.15h-6.15Z" style="fill: #a5805b; stroke-width: 0px;"/>
  <path d="M104.07,51.51v7.18h-18.04v-7.18h18.04Z" style="fill: #4a3726; stroke-width: 0px;"/>
  <path d="M104.09,84.39v7.31h-18.13v-7.31h18.13Z" style="fill: #4a3726; stroke-width: 0px;"/>
  <path d="M85.99,68.03h17.99v7.05h-17.99v-7.05Z" style="fill: #4a3726; stroke-width: 0px;"/>
</svg>