<?xml version="1.0" encoding="UTF-8"?>
<svg id="uuid-38cedb51-86b1-4432-b79f-77d8d40e7954" data-name="fill_preservedfoodbeetroot" xmlns="http://www.w3.org/2000/svg" xmlns:xlink="http://www.w3.org/1999/xlink" viewBox="0 0 128 128">
  <defs>
    <linearGradient id="uuid-38b2c106-c1df-4735-9de7-29dfeba7c9fb" x1="64.21" y1="28.5" x2="64.21" y2="120.53" gradientUnits="userSpaceOnUse">
      <stop offset="0" stop-color="#eeeff4"/>
      <stop offset="1" stop-color="#c0c1d2"/>
    </linearGradient>
    <linearGradient id="uuid-4669542c-fc99-4ec2-aed5-672f6db5d0a0" x1="561.91" y1="-1312.27" x2="583.6" y2="-1266.12" gradientTransform="translate(-222 666) scale(.5)" gradientUnits="userSpaceOnUse">
      <stop offset="0" stop-color="#bc375d"/>
      <stop offset="1" stop-color="#ac0332"/>
    </linearGradient>
    <linearGradient id="uuid-0126abc2-79a9-4aad-8747-fbe18314ce47" x1="36.49" y1="8.03" x2="92" y2="20.85" gradientUnits="userSpaceOnUse">
      <stop offset="0" stop-color="#771f37"/>
      <stop offset="1" stop-color="#841b34"/>
    </linearGradient>
    <linearGradient id="uuid-3a153d19-12da-4f90-9fb7-da57badb8f73" x1="547.64" y1="-1221.25" x2="598.13" y2="-1105.81" gradientTransform="translate(-222 666) scale(.5)" gradientUnits="userSpaceOnUse">
      <stop offset="0" stop-color="#bf3f64"/>
      <stop offset="1" stop-color="#aa0030"/>
    </linearGradient>
    <linearGradient id="uuid-35e1a362-6bca-4040-86de-bb8c288db3ac" x1="34.45" y1="53.39" x2="94.26" y2="60.74" xlink:href="#uuid-0126abc2-79a9-4aad-8747-fbe18314ce47"/>
  </defs>
  <path d="M54.39,5.14c9.16-.67,32.67-.51,39.78,5.43,3.03,2.54,2.79,8.85,2.29,12.63-.34,2.54-2.02,2.99-2.36,4.14-2.43,8.09,9.56,13.94,9.91,21.9v60.02c-.47,4.2-5.64,7.3-9.16,8.83-15.62,6.77-45.97,6.84-61.52-.16-3.58-1.61-7.31-3.95-8.71-7.79l-.12-60.89c.2-7.65,12.55-14.24,9.93-21.92-.31-.92-2.06-.86-2.39-3.1-.23-1.59-.3-10.12.07-11.37,1.48-4.98,17.72-7.37,22.3-7.7Z" style="fill: #040203;"/>
  <path d="M101.52,51.73c-.7-9.39-11.24-13.52-10.52-23.23-17.24,5.06-36.71,4.76-54,0,1.64,9.04-8.85,13.26-9.96,21.79,0,14.07-.12,28.15-.04,42.21.02,4.31-.72,12.97.1,16.65,1.13,5.04,12.38,8.19,16.8,9.2,13.91,3.14,31.43,2.98,45.1-1.1,4.6-1.37,10.37-3.46,12.4-8.1.13-12.71.17-25.44.1-38.15-.04-6.18.47-13.23.02-19.27ZM96.49,106.61c-.08,4.32-17.15,7.12-19.68,7.4-13.91,1.52-33.29,1.66-44.75-6.62-.38-4.69-.4-9.4-.06-14.15l-1-.74c1.01-11.96,1.37-23.97,1.08-36,.07-3.67,14.55-5.91,16.87-6.18,13.92-1.6,27.18-1.34,40.77,2.02,4.31,1.07,7.67,2.94,7.03,7.89l-.25,10.6,1,.67c-1.09,11.65-1.43,23.35-1.01,35.11Z" style="fill: url(#uuid-38b2c106-c1df-4735-9de7-29dfeba7c9fb);"/>
  <path d="M57,29c-5.35-.17-16.75-1.01-20.97-4.28-2.35-1.82-1.4-3.53-1.53-6.22,3.69,1.98,7.8,3.09,11.9,3.85,6.1,1.12,11.74,1.18,17.82,1.14,10.01-.07,20.18-.27,29.27-4.98-.1,3.77,1.1,5.25-2.65,7.09-5.17,2.54-13.63,3.23-19.34,3.41-4.76.51-9.74.51-14.5,0Z" style="fill: url(#uuid-4669542c-fc99-4ec2-aed5-672f6db5d0a0);"/>
  <path d="M91.35,16.6c-9.39,5.64-35.15,5.09-45.85,2.9-3.37-.69-15.18-3.5-8.35-7.6,5.84-3.51,22.86-4.61,29.85-4.4,5.78.18,21.09,1.75,25.48,5.27,2.01,1.62.64,2.78-1.13,3.83Z" style="fill: url(#uuid-0126abc2-79a9-4aad-8747-fbe18314ce47);"/>
  <path d="M97.5,71.5c.08,11.73-.04,23.49-.02,35.23-.57,3.42-7.61,5.62-10.58,6.42-13.66,3.66-35.69,3.67-49.02-1.27-1.74-.64-6.25-2.42-6.78-4.22-.74-2.51-.08-11.79-.1-15.15-.07-12.04-.03-24.1.1-36.15,1.14-3.13,4.63-4.11,7.51-4.99,12.94-3.95,40.44-4.19,53.14.62,2,.76,5.12,2.04,5.64,4.36.76,3.41.08,11.17.1,15.15Z" style="fill: #070405;"/>
  <path d="M34,61c1.83.53,3.54,1.34,5.39,1.86,11.78,3.29,29.69,3.41,41.79,1.58,4.57-.69,9.03-1.69,13.31-3.43.02,5.16-.02,10.34,0,15.5v30c-.83,1.56-3.11,2.39-4.74,3.01-12.55,4.78-41.83,5.2-53.71-1.32-3.56-1.95-2.73-4.39-2.56-8.19.41-12.87.58-25.87.5-39Z" style="fill: url(#uuid-3a153d19-12da-4f90-9fb7-da57badb8f73);"/>
  <path d="M94.42,57.93c-.22.32-5.07,2.09-5.91,2.33-9.37,2.58-22.27,2.65-32.01,2.24-4.93-.21-17.27-1.4-21.17-4.08-.5-.35-1.01-.66-1.31-1.22-.4-1.84,6.61-3.65,7.96-3.97,11.04-2.56,22.95-2.22,34.02-1.23,5.05.45,9.91.67,14.77,2.48,1.43.53,4.92,1.59,3.65,3.45Z" style="fill: url(#uuid-35e1a362-6bca-4040-86de-bb8c288db3ac);"/>
  <path d="M33.5,100l.5-39c-.3,12.41.39,24.9.04,37.31-.03.93-.53,1.6-.54,1.69Z" style="fill: #b6224c;"/>
  <path d="M94.5,106.5c-.03-9.99.04-20.01,0-30v30Z" style="fill: #b21743;"/>
  <path d="M39,89.75c-.03.19-.55,1.22-.81,1.28-.61.17-2.19-.23-2.19-.78v-21.5c0-.99,3-.99,3,0v21Z" style="fill: #f6759b;"/>
  <path d="M36,96.25c.49-1.78,3-.99,3,0v8c0,.99-3,.99-3,0,0-1.85-.37-6.66,0-8Z" style="fill: #f57499;"/>
</svg>