<?xml version="1.0" encoding="UTF-8"?>
<svg id="uuid-5019c675-5055-4340-97b9-5cee478777e3" data-name="fill_oatmilkbottled" xmlns="http://www.w3.org/2000/svg" xmlns:xlink="http://www.w3.org/1999/xlink" viewBox="0 0 128 128">
  <defs>
    <linearGradient id="uuid-eb836607-9293-4f4b-a25b-3be9a57e2b14" x1="-2419.21" y1="696.11" x2="-2354.66" y2="803.47" gradientTransform="translate(1258 -296) scale(.5)" gradientUnits="userSpaceOnUse">
      <stop offset="0" stop-color="#d1b58a"/>
      <stop offset="1" stop-color="#99825e"/>
    </linearGradient>
    <linearGradient id="uuid-3e3fc778-adfe-430b-9877-ab0495b73c51" x1="-2421" y1="752.31" x2="-2426.12" y2="771.84" gradientTransform="translate(1258 -296) scale(.5)" gradientUnits="userSpaceOnUse">
      <stop offset="0" stop-color="#dcc88e"/>
      <stop offset="1" stop-color="#f6eac2"/>
    </linearGradient>
  </defs>
  <g>
    <path d="M48.83,5.24c9.38.37,19.65-.83,28.92-.12,2.04.16,3.35.55,3.7,2.8.23,1.49.27,6.51.02,7.96-.4,2.35-4.27,1.8-2.89,6.41l16.66,16.83,1.5,2.5.24,74.77c-.38,3.59-3.24,5.97-6.73,6.27-16.94,1.44-35.88-1.13-53.03,0-2.8-.32-5.01-2.5-6-5l-.21-75.24,1.71-3.29,16.5-16.49c2.02-4.45-2.45-4.39-2.77-7.22-.29-2.65-.68-9.27,2.37-10.18Z" style="fill: #030304;"/>
    <path d="M75.48,18.64c.13,1.41-.34,3.18.26,4.49.15.32,4.04,4.52,4.73,5.27,3.64,3.95,9.84,8.71,12.78,12.72.68.92,1.03,1.67,1.19,2.81l.06,71.47c-.41,3.15-2.17,4.49-5.24,4.76-16.24,1.43-34.57-1.13-51.04-.01-2.21-.25-3.83-1.38-4.5-3.5l-.12-73.15c.18-.98.54-1.61,1.11-2.39,2.95-4,9.15-8.77,12.78-12.72.69-.75,4.58-4.95,4.73-5.27.6-1.32.13-3.08.26-4.49h23Z" style="fill: #e4f6fb;"/>
    <path d="M49.8,7.71h28.36c1.33.43,1.06,7.24.35,7.71l-28.71.15c-1.27-.42-1.28-7.45,0-7.86Z" style="fill: #334ab5;"/>
    <path d="M89.22,71.55c-1.75-10.64-7.32-23.23-18.29-27.1-14.08-4.97-25.78,5.49-29.98,18.65-2.39,6.94-3.56,14.48-2.02,21.72,2.96,17.48,18.8,32.56,35.93,22.74,11.31-7.08,16.49-22.93,14.39-35.82l-.03-.2Z" style="fill: #826e4e;"/>
    <path d="M50.49,8.64c3.51-1.55,2.93,6.16,1.74,6.5-2.74.78-1.51-5-1.74-6.5Z" style="fill: #859cfc;"/>
  </g>
  <g>
    <path d="M51.5,87.49c-2.03,1.47-6.25,6.06-8.73,5.93-1.25-.07-1.38-.97-1.36-2.07-4.37.92-2.23-3.95-1.33-6.22.93-2.35,2.09-4.97,4.3-6.39-5.07-.92-4.94-6.89.15-7.52l12.02,2.92c-1.46-3.11-4.03-6.22-5.4-9.29-.72-1.62-.61-2.34,0-3.97,2.18-5.85,5.59-11.73,8.01-17.52,2.24-3.02,6.87-1.31,6.62,2.44-.06.82-.57,1.19-.61,1.93,2.7-2.62,12.14,1.26,13.72,3.65.79,1.19.23,2.6-1.25,2.59v.29c1.35.13,1.26,1.99.38,2.69-1.45,1.16-9.6.84-9.59,1.32,1,1.55,2.28,2.91,3.21,4.51.37.64,1.66,3.69,1.82,3.82.4.32,1.07-.36,1.66-.45,3.98-.64,5.22,3.44,3.7,6.52.64.06.9-.53,1.48-.74,1.67-.59,2.83-.5,4.52-.06,1.8.47,7.31,2.75,8.26,4.21,1.1,1.68-.96,1.9-1.2,2.25-.42.6.43.55.6.78.4.56.39,1.75-.22,2.2-1.67,1.23-5.74,1.25-7.81,1.47,1.51,1.49,6.26,5.33,5.95,7.55-.19,1.34-1.68,1.07-2.09,1.35-.11.08.99,1.89-.29,2.52-1.79.88-9.19-1.59-10.84-2.82-.88-.66-1.4-1.68-2.22-2.37l-.24,2.15,7.89,13.8c.62,3.93-3.97,6.34-6.6,3.03l-12.93-22.84c-.49-.08-.28.4-.29.74-.19,3.35-1.33,5.65-3.14,8.44-1.24,1.91-3.42,5.1-4.58,1.21-1.06,1.03-2.23,1.48-3.03-.09-.09-.18-.53-1.47-.53-1.55v-6.38ZM71.09,68.49c.48,4.57-5.08,1.3-7.13.16-.48-.27-3.04-2.14-3.26-1.93l8.31,14.84,3.24-12.34.02-.71h-1.18Z" style="fill: #0c0e0e;"/>
    <path d="M80.51,107.3c-.97.97-2.64.58-3.32-.53-4.87-8.3-9.4-16.82-14.55-24.93l-19.03-5.01c-2.34-1.02-1.41-4.33,1.2-3.89l15,3.87-7.19-12.55-.24-1.85c2.64-6.22,5.35-12.55,8.46-18.56,1.45-1.2,3.66-.01,3.37,1.86-2.08,5.14-4.65,10.08-6.83,15.16-1.26,2.95-.79,1.97.6,4.26,4.04,6.68,7.5,13.73,11.78,20.28.41-.29.48-.74.6-1.18,1.43-5.04,2.19-10.31,3.64-15.36,1.17-2.39,4.49-.99,3.85,1.47l-4.94,20.57c1.5,2.73,2.93,5.54,4.47,8.25.75,1.32,3.93,5.61,3.76,6.81-.03.21-.48,1.18-.62,1.33Z" style="fill: url(#uuid-eb836607-9293-4f4b-a25b-3be9a57e2b14);"/>
    <path d="M54.47,83.5c.93-.87,2.4-1.21,3.64-.99,1.39.25,2.91,1.77,3.11,3.12.09.6.13,1.08.06,1.69-.13,1.06-2.67,6.01-3.41,6.98-.31.41-.72.98-1.32.91v-5.94c-1.18,2.31-2.18,4.43-3.26,5.34-.49-1.53-.39-2.88-.32-4.29.09-1.8-.1-3.27.51-5.17.21-.64.7-1.38,1-1.66Z" style="fill: #e0d09d;"/>
    <path d="M85.36,73.66c1.46.46,2.92,1.15,4.34,1.87,2.31,1.02,2.88,1.41.14,1.65-1.22.11-3.32,0-4.34.26-.09.07.08.22.41.42.7.41,1.48.83,2.27,1.05.64.19,5.4,1.12,1.95,1.61-3.02.43-6.32,1.41-9.31.37-4.25-1.61-2.91-7.87,1.8-8.02" style="fill: #e0d09d;"/>
    <path d="M60.47,63.83c-2.15-3.6,2.46-7.53,6.06-5.02,1.08.75,4.43,5.51,4.92,6.8.14.37.31.68.23,1.1l-5.04-2.37c-.37.38,2.03,3.41,2.38,4,.16.27.6.75.45,1.04-2.71-.94-7.43-2.93-8.99-5.55Z" style="fill: #e0d09d;"/>
    <path d="M44.97,80.36c3.6-2.38,8.01,1.75,5.48,5.63-.72,1.11-4.62,4.42-5.87,5.11-.26.14-1.2.72-1.39.54l2.08-5.34-4.75,3.26c-.03-2.49,2.51-8.59,4.45-9.2Z" style="fill: url(#uuid-3e3fc778-adfe-430b-9877-ab0495b73c51);"/>
    <path d="M88.6,89.86l-4.89-1.5c-.3-.09-.54.24-.36.5l3.77,3.82c-.1.3-.73.15-1.01.12-1.91-.27-6.88-1.79-8.34-2.94-3.42-2.68-.84-8.07,3.73-7,1.63.38,5.62,4.39,6.63,5.83.25.35.54.69.47,1.16Z" style="fill: #e0d09d;"/>
    <path d="M66.67,55.86c-3.86-1.97-2.51-7.6,2.2-7.57,1.69,0,7.72,3.29,8.75,4.03l-6.23.45s3.34,1.72,4.06,2.02c.43.18,1.42.51,1.58.94-2.75.5-5.99.9-8.78.61-.43-.04-1.25-.31-1.58-.48Z" style="fill: #e0d09d;"/>
    <path d="M61.34,64.62c-.62-.97-1.34-5.07.72-4.62.03.02.08.07.11.1.45.69-.01,1.65.33,2.4.24.72.87,1.3,1.11,1.94.63,1.62-1.57,1.25-2.22.28l-.06-.09Z" style="fill: #fcfbf7;"/>
    <path d="M45.51,80.94c.41-.12.8.11.88.53.19,1.06-.82,2.1-1.51,3.34-.36.55-.77,1.35-1.42,1.52-1.88-.57.65-4.96,1.96-5.36l.09-.03Z" style="fill: #fcfbf7;"/>
    <path d="M54.26,84.2c.62-.64,2.21-1.97,2.89-.76.25.91-.81,1.26-1.26,1.92-.42.52-.72,1.46-1.2,1.7-1.15.39-.96-2.3-.49-2.77l.06-.08Z" style="fill: #fcfbf7;"/>
    <path d="M81.58,80.47c-1.68-.45-2.96-2.65-2.38-4.35.08-.18.18-.32.36-.37.57-.19,1.18,1.03,1.92,1.98.72.9,1.75,1.67,1.57,2.28-.17.55-.86.59-1.36.49l-.11-.03Z" style="fill: #fcfbf7;"/>
    <path d="M77.08,85.19c.76-.44,1.17.74,1.64,1.75.45,1.18,1.8,1.74,2.46,2.73.62,1.45-1.77.73-2.33.24-1.5-1-3.15-3.15-1.83-4.68l.06-.04Z" style="fill: #fcfbf7;"/>
    <path d="M67.64,56.08c-1.35-.41-2.54-1.63-2.75-3.09-.13-.58-.17-1.42.28-1.82.63-.56,1.15.28,1.3.85.18.63.41,1.27.93,1.69.64.58,1.79.83,2.1,1.37.41.92-1.09,1.24-1.74,1.02l-.11-.03Z" style="fill: #fcfbf7;"/>
  </g>
</svg>