<?xml version="1.0" encoding="UTF-8"?>
<svg id="uuid-9999d955-880a-48fe-827d-f1fffa30abf0" data-name="fill_shingles" xmlns="http://www.w3.org/2000/svg" xmlns:xlink="http://www.w3.org/1999/xlink" viewBox="0 0 128 128">
  <defs>
    <linearGradient id="uuid-e54c00e0-b9d3-43c3-b38e-4ef6f8ddcbff" x1="-4532.44" y1="-988" x2="-4532.44" y2="-915" gradientTransform="translate(2294 518) scale(.5)" gradientUnits="userSpaceOnUse">
      <stop offset="0" stop-color="#aa7737"/>
      <stop offset="1" stop-color="#d1a673"/>
    </linearGradient>
    <linearGradient id="uuid-941c8388-8231-4b20-af48-265b624f81af" x1="-4458.57" y1="-987.98" x2="-4458.59" y2="-914.98" gradientTransform="translate(2294 518) scale(.5)" gradientUnits="userSpaceOnUse">
      <stop offset="0" stop-color="#aa7737"/>
      <stop offset="1" stop-color="#d1a673"/>
    </linearGradient>
    <linearGradient id="uuid-93e9342a-6f23-4ddc-b749-c37e4bf4db44" x1="-4385.05" y1="-987.98" x2="-4385.06" y2="-914.8" gradientTransform="translate(2294 518) scale(.5)" gradientUnits="userSpaceOnUse">
      <stop offset="0" stop-color="#aa7737"/>
      <stop offset="1" stop-color="#d1a673"/>
    </linearGradient>
    <linearGradient id="uuid-14705c31-f05c-4741-8b2c-a9ab49416460" x1="-4422.33" y1="-924.43" x2="-4422.16" y2="-856.43" gradientTransform="translate(2294 518) scale(.5)" gradientUnits="userSpaceOnUse">
      <stop offset="0" stop-color="#ac7a3b"/>
      <stop offset="1" stop-color="#d0a673"/>
    </linearGradient>
    <linearGradient id="uuid-0e6e144a-bacc-44c8-90c1-cf3d83f873cb" x1="-4496.18" y1="-921.3" x2="-4495.97" y2="-856.3" gradientTransform="translate(2294 518) scale(.5)" gradientUnits="userSpaceOnUse">
      <stop offset="0" stop-color="#ae7c3d"/>
      <stop offset="1" stop-color="#d0a673"/>
    </linearGradient>
    <linearGradient id="uuid-c5e7b2a0-d0f7-4805-a455-21aecb743ca7" x1="-4531.98" y1="-866.05" x2="-4531.93" y2="-804.05" gradientTransform="translate(2294 518) scale(.5)" gradientUnits="userSpaceOnUse">
      <stop offset="0" stop-color="#af7e3f"/>
      <stop offset="1" stop-color="#d0a673"/>
    </linearGradient>
    <linearGradient id="uuid-28ac5287-4e97-4480-84f9-8c362c21d397" x1="-4385.98" y1="-866.7" x2="-4386.08" y2="-804.7" gradientTransform="translate(2294 518) scale(.5)" gradientUnits="userSpaceOnUse">
      <stop offset="0" stop-color="#af7e40"/>
      <stop offset="1" stop-color="#d0a673"/>
    </linearGradient>
    <linearGradient id="uuid-9aa501ef-1d0e-483e-9694-de21d0ab828b" x1="-4459.12" y1="-866.44" x2="-4458.91" y2="-804.44" gradientTransform="translate(2294 518) scale(.5)" gradientUnits="userSpaceOnUse">
      <stop offset="0" stop-color="#b07e40"/>
      <stop offset="1" stop-color="#d0a673"/>
    </linearGradient>
    <linearGradient id="uuid-2efdd8aa-0f43-4ded-aaa0-6db54d9db6be" x1="-4550.47" y1="-916.05" x2="-4550.39" y2="-857.05" gradientTransform="translate(2294 518) scale(.5)" gradientUnits="userSpaceOnUse">
      <stop offset="0" stop-color="#b6864a"/>
      <stop offset="1" stop-color="#d1a674"/>
    </linearGradient>
    <linearGradient id="uuid-e07a997b-27aa-4652-a420-bd924bab1b54" x1="-4367.77" y1="-916.71" x2="-4367.58" y2="-857.71" gradientTransform="translate(2294 518) scale(.5)" gradientUnits="userSpaceOnUse">
      <stop offset="0" stop-color="#b7864a"/>
      <stop offset="1" stop-color="#d1a673"/>
    </linearGradient>
  </defs>
  <path d="M121,21v83.25c0,2.96-4.81,9.79-7.26,11.74-9.64,7.69-22.79,4.99-29.34-5.14-.53-.82-.95-3.42-1.93-2.04-1.2,1.71-2.08,4.06-3.7,5.71-9.77,9.95-27.49,6.76-32.28-6.52l-3.29,4.96c-11.33,13.61-32.17,7.38-35.17-9.75l-.07-79.99c-.14-1.58.58-2.74,2.25-2.75h108.05s2.73.52,2.73.52Z" style="fill: #0d0e0d;"/>
  <path d="M44.5,23.5c.75,8.03.43,16.39,0,24.5-3.54,20.52-32.54,18.99-33.5-2-.58-6.25-.47-12.74,0-19,0-1.16,0-2.34,0-3.5h33.5Z" style="fill: url(#uuid-e54c00e0-b9d3-43c3-b38e-4ef6f8ddcbff);"/>
  <path d="M48,23.5h33.5v25.25c0,2.65-4.79,9.15-6.87,10.76-9.38,7.26-25.69,1.19-26.63-11.01-.1-8.33-.1-16.66,0-25Z" style="fill: url(#uuid-941c8388-8231-4b20-af48-265b624f81af);"/>
  <path d="M118,23.5c.76,8.03.42,16.39,0,24.5-2.88,16.83-25.34,20.21-31.94,5.19-1.87-4.25-1.11-6.58-1.56-23.19.02-2.16-.02-4.34,0-6.5h33.5Z" style="fill: url(#uuid-93e9342a-6f23-4ddc-b749-c37e4bf4db44);"/>
  <path d="M83.49,53.5c.07.05.23,1.12.58,1.65,4.11,6.25,8.33,9.16,15.86,10.41-.05,5.03.71,10.66-1.19,15.44-4.93,12.42-21.76,14.47-29.66,3.66-3.36-4.59-3.79-12.4-3.11-17.94.31-2.5,1.58-1.43,3.55-1.95,4.63-1.22,8.38-4.02,11.19-7.81.64-.87,1.14-2.42,1.74-3.15.32-.39.72-.56,1.03-.32Z" style="fill: url(#uuid-14705c31-f05c-4741-8b2c-a9ab49416460);"/>
  <path d="M63,65c-.28,3.96.37,8.35,0,12.25-.63,6.53-7.6,13.71-14.23,14.27-16.23,1.37-21.59-11.94-19.55-26.05,4.2-.76,7.96-1.94,11.29-4.71,1.72-1.43,3.19-4.35,5.36-4.67s4.71,3.58,6.39,4.9c2.89,2.28,6.97,4.21,10.74,4.01Z" style="fill: url(#uuid-0e6e144a-bacc-44c8-90c1-cf3d83f873cb);"/>
  <path d="M32.17,88.83c3.02,3.13,8.55,5.11,12.76,5.74,1.52,13.12-5.39,24.34-19.68,22.93-6.83-.67-13.59-7.41-14.25-14.25-.28-2.84.13-5.84.06-8.68,7.25-1.11,14.12-5.39,16.44-12.56l4.67,6.83Z" style="fill: url(#uuid-c5e7b2a0-d0f7-4805-a455-21aecb743ca7);"/>
  <path d="M107.15,90.35c.82.7,4.69,2.48,5.87,2.88,1.61.54,3.26.55,4.76,1.24.37.53.35,8.06.22,9.29-.63,5.93-7.01,12.69-12.87,13.63-14.58,2.33-22.58-9.35-21.07-22.82,7.42-.84,14.52-5.34,16.94-12.56l3.29,4.96c1.08.71,2.11,2.75,2.86,3.39Z" style="fill: url(#uuid-28ac5287-4e97-4480-84f9-8c362c21d397);"/>
  <path d="M64.99,82.5c.07.05.23,1.12.58,1.65,3.94,6.01,8.52,9.52,15.88,10.39.28,5.75.23,11.97-3.46,16.69-7.12,9.11-21.97,8.41-27.89-1.59-2.88-4.87-2.78-9.32-2.63-14.85,5.45-1.26,10.72-3.26,14.24-7.84,1.04-1.36,1.52-3.09,2.26-4.15.31-.44.79-.49,1.02-.31Z" style="fill: url(#uuid-9aa501ef-1d0e-483e-9694-de21d0ab828b);"/>
  <path d="M11,56c3.67,5.14,8.87,8.54,15.21,9.45.48.32.4,9.81.24,11.25-.78,6.86-7.8,14.86-14.95,14.8l-.48-.15c-.03-11.78-.04-23.57-.02-35.35Z" style="fill: url(#uuid-2efdd8aa-0f43-4ded-aaa0-6db54d9db6be);"/>
  <path d="M118,91.5c-13.42-1.11-17.16-14.34-15.28-26.03.44-.65,2.38-.45,3.31-.69,5.17-1.36,8.12-3.82,11.47-7.78l.5.15v34.35Z" style="fill: url(#uuid-e07a997b-27aa-4652-a420-bd924bab1b54);"/>
  <path d="M11,56l.5,35.5c-.36,0-1.07.21-1.01-.3l.51-35.2Z" style="fill: #c09159;"/>
  <path d="M118,91.5l-.5-34.5c.15-.18.69-1.47,1-.75l-.5,35.25Z" style="fill: #c09159;"/>
  <path d="M48,48.5v-25c.46,8.14-.62,16.94,0,25Z" style="fill: #c09159;"/>
  <path d="M44.5,48v-24.5c.68.05.49.72.52,1.23.41,6.3.51,17.31-.52,23.27Z" style="fill: #c09159;"/>
  <path d="M118,48v-24.5c.68.05.49.72.52,1.23.41,6.32.5,17.28-.52,23.27Z" style="fill: #c09159;"/>
  <path d="M14.81,41.16c.51.49.64,1.39.71,2.14.4,3.92,1.76,8.34,4.38,11.14,1.08,1.2,2.74,2.01,3.66,3.31,1.05,1.58-.78,1.86-1.88,1.3-5.55-2.33-8.46-9.44-8.9-15.54-.26-1.19.52-3.43,1.93-2.45l.09.09Z" style="fill: #fad5a6;"/>
  <path d="M50.65,40.53c1.7.67,1.64,3.59,2.06,5.19.57,3,2.05,6.24,4.08,8.54,1.1,1.27,2.76,2.27,3.72,3.62.91,1.3.04,2.01-1.34,1.59-2.38-.79-4.21-3.09-5.75-5.02-2.22-2.8-3.15-5.82-3.69-9.51-.11-1.35-.59-3.86.83-4.42h.09Z" style="fill: #fad5a6;"/>
  <path d="M85.46,42.05c.31-.88,1.32-1.78,2.21-1.08,1.16.75,1.66,3.65,2.26,6.01.58,2.32,1.58,4.5,3.1,6.36,1.09,1.39,2.69,2.8,3.66,4.17.57.82.79,1.51.56,1.89-.46.65-1.67.26-2.41-.1-3.69-1.96-6.01-6.2-7.52-10.23-.74-2.48-2.52-4.45-1.9-6.89l.04-.12Z" style="fill: #fad5a6;"/>
  <path d="M68.26,69.73c2.39-.72,2.55,3.67,2.88,5.26.56,3.32,2.26,6.54,4.96,8.98,1.03.91,5.34,4.31,1.97,4.46-4.25-1.11-7.01-4.6-8.53-8.82-.72-2.45-3.12-7.77-1.37-9.82l.08-.06Z" style="fill: #fad5a6;"/>
  <path d="M33.31,69.9c.88,1.4.57,3.34.99,4.97.73,3.37,2.22,6.95,4.73,9.2.99.93,2.45,1.83,3.1,2.98.88,1.62-1.07,1.66-2.08,1.09-5.12-2.45-8.84-10.15-8.91-15.77-.07-1.14.75-3.57,2.09-2.57l.08.09Z" style="fill: #fad5a6;"/>
  <path d="M23.79,113.69c.53,1.81-2.04,1.28-2.96.59-4.29-3-7.28-8.61-8.05-13.94-.32-1.19.27-5.93,2.07-3.89.69,1.12.78,2.81,1.04,4.15.58,3.71,2.31,7.33,5.03,9.96.94.93,2.28,1.89,2.82,3.02l.05.12Z" style="fill: #fad5a6;"/>
  <path d="M87.25,95.95c2.28.46,1.91,4.83,2.55,6.65.59,2.35,1.9,5.07,3.59,6.9,1.13,1.26,2.86,2.11,3.95,3.38.61.78.59,1.55-.15,1.89-2.65.64-5.94-3.8-7.58-5.74-1.93-2.31-4.86-12.02-2.47-13.06l.1-.02Z" style="fill: #fad5a6;"/>
  <path d="M50.38,96.1c1.75-.93,2.06,3.34,2.26,4.46.6,4.55,3.23,8.25,6.53,11.26,1,.93,2.83,3.48.24,3-1.63-.36-3.14-1.55-4.32-2.71-3.36-3.39-5.25-8.54-5.48-13.37-.03-.88.13-2.03.69-2.57l.08-.07Z" style="fill: #fad5a6;"/>
</svg>