<?xml version="1.0" encoding="UTF-8"?>
<svg id="uuid-5981cd4c-c5a6-4cbd-954a-9040eb580b05" data-name="fill_spelt" xmlns="http://www.w3.org/2000/svg" xmlns:xlink="http://www.w3.org/1999/xlink" viewBox="0 0 128 128">
  <defs>
    <linearGradient id="uuid-1b7ff960-a565-4156-8955-72052e9c6fce" x1="-527.52" y1="-128.64" x2="-477.31" y2="-124.25" gradientTransform="translate(298.45 163.86) rotate(4.09) scale(.5 .49)" gradientUnits="userSpaceOnUse">
      <stop offset="0" stop-color="#b0a898"/>
      <stop offset="1" stop-color="#ad996e"/>
    </linearGradient>
    <linearGradient id="uuid-0a7c22bf-7755-484a-9846-c3192de2d161" x1="-465.65" y1="-265.96" x2="-483.84" y2="-221.52" xlink:href="#uuid-1b7ff960-a565-4156-8955-72052e9c6fce"/>
    <linearGradient id="uuid-e8962be4-72c6-45fa-af2a-13aff2300eaa" x1="-442.78" y1="-228.99" x2="-461.57" y2="-182.48" xlink:href="#uuid-1b7ff960-a565-4156-8955-72052e9c6fce"/>
    <linearGradient id="uuid-897a58a3-9e07-4fbc-ae53-e21f71adab3c" x1="-420.95" y1="-191.84" x2="-440.8" y2="-145.07" xlink:href="#uuid-1b7ff960-a565-4156-8955-72052e9c6fce"/>
    <linearGradient id="uuid-cdb99846-adde-486f-a51f-92c99ab90bf3" x1="-567.71" y1="-199.9" x2="-519.95" y2="-204.37" xlink:href="#uuid-1b7ff960-a565-4156-8955-72052e9c6fce"/>
    <linearGradient id="uuid-63d2bf32-5c40-4486-8384-7d2f598134e4" x1="-534.27" y1="-265.98" x2="-514.23" y2="-231.14" xlink:href="#uuid-1b7ff960-a565-4156-8955-72052e9c6fce"/>
    <linearGradient id="uuid-7847ac01-3db9-4816-8683-54682dd33613" x1="21.17" y1="64.5" x2="48.78" y2="67.4" gradientTransform="translate(11.69 -2.18) rotate(4.09) scale(1.01 .98)" xlink:href="#uuid-1b7ff960-a565-4156-8955-72052e9c6fce"/>
    <linearGradient id="uuid-e7a48a1f-dda9-4462-99e7-89351c5bba66" x1="-507.2" y1="-93.93" x2="-456.99" y2="-89.53" xlink:href="#uuid-1b7ff960-a565-4156-8955-72052e9c6fce"/>
    <linearGradient id="uuid-739eaf77-e233-437a-b887-727c2ce5717b" x1="-400.63" y1="-157.12" x2="-420.48" y2="-110.36" xlink:href="#uuid-1b7ff960-a565-4156-8955-72052e9c6fce"/>
  </defs>
  <path d="M107.49,71.02c-4.01-1.16-7.47,1.49-11.38,2.79,3.19-4.08,4.95-9.51,5.45-14.41.3-2.99-.04-5.49-3.38-6.45-4.41-1.27-8.16,2.06-12.55,3.14,2.34-2.48,3.71-5.52,4.46-8.4,1-3.87,1.93-14.02-3.64-14.62-4.05-.44-6,1.46-9.71,2.71,3.89-5.85,3.9-12.78,1.64-18.09-3.2-7.54-8.54-6.11-15.44-.03l-4.96,5.01c.08-6.62-18.39-18.76-23.84-8.2-3.21,6.21-2.89,14.41.42,19.46-11.71.47-22.46,3.28-15.34,13.97,3.12,4.67,8.94,8.96,16.31,8.23l-6.34,2.69c-4.44,2.7-5.14,5.8-2.73,8.91,3.73,4.8,10.94,8.49,18.52,8.28l-6.56,3.46c-8.5,5.62-3.34,9.93,2.38,12.75,3.35,1.66,7.74,2.77,12.06,2.63l-5.13,2.69c-8.49,5.63-3.33,9.93,2.38,12.75,7.21,3.57,19.21,4.66,25.1-4.1l1.93-3.16c1.38,2.56,4.25,11.64,7.48,12.18,3.23.54,7.31-.91,8.44-4.06,1.47-4.06-3.68-9.74-4.99-13.33,14.77,3.37,21.71-9.74,22.79-20.35.32-2.98-.03-5.5-3.38-6.45Z" style="fill: #0c0d0c;"/>
  <path d="M49.44,36.81c2.22-1.92,5.91-1.63,6.86.48l33.83,68.03c3.21,4.73-4.58,9.77-7.7,4.55L48.29,41.19c-.51-1.18-.11-3.31,1.15-4.38Z" style="fill: #8f6829;"/>
  <path d="M45.62,91.94c-5.17-1.83-13.78-5.61-5.61-10.81,6.56-4,15.67-6.86,22.1-4.12,7.66,3.48,3.11,14.4-6.5,15.8-3.54.67-6.83.22-9.81-.81l-.17-.06Z" style="fill: url(#uuid-1b7ff960-a565-4156-8955-72052e9c6fce);"/>
  <path d="M63.32,20.85c4.13-4.99,10.58-8.53,12.79-1.97,1.55,3.89,1.91,8.03.41,12.32-1.47,6.01-8.75,10.18-15.04,8.23-8.86-2.59-2.89-12.84,1.72-18.45l.12-.14Z" style="fill: url(#uuid-0a7c22bf-7755-484a-9846-c3192de2d161);"/>
  <path d="M72.48,42.49c4.86-4.72,14.87-11.28,15.91-2.62.66,5.55-.43,12.42-6.29,17.12-6.51,5.33-16.55,2.09-15.72-4.7.47-3.25,3.42-6.79,5.97-9.67l.13-.13Z" style="fill: url(#uuid-e8962be4-72c6-45fa-af2a-13aff2300eaa);"/>
  <path d="M78.82,65.09c7.89-8.03,24.31-16.81,19.77-.55-1.77,7.03-8.06,15.5-16.77,13.82-6.59-1.28-8.22-8.06-3.12-13.13l.13-.14Z" style="fill: url(#uuid-897a58a3-9e07-4fbc-ae53-e21f71adab3c);"/>
  <path d="M20.14,44.07c-2.52-4.99,4.96-6.83,9.65-7.3,8.04-1.08,19.16,1.29,16.46,9.7-1.63,5.13-8.13,8.98-13.91,7.55-5.33-1.22-9.85-6.02-12.15-9.85l-.05-.1Z" style="fill: url(#uuid-cdb99846-adde-486f-a51f-92c99ab90bf3);"/>
  <path d="M36.34,16.43c2.62-6.23,9.47-2.68,12.85-.57,6.95,4.25,10.42,13.12-.77,18.44-4.62,2-9.46.49-11.7-2.53-2.02-2.53-1.77-6.36-1.5-9.68.22-1.86.39-3.97,1.06-5.54l.06-.13Z" style="fill: url(#uuid-63d2bf32-5c40-4486-8384-7d2f598134e4);"/>
  <path d="M49.18,73.08c-3.71,1.42-8.44,1.06-11.56-.41-2.16-1.1-4.51-3.06-6.69-4.56-1.77-1.32-3.06-2.6-2.77-4.2,1.48-6.09,20.1-8.59,24.28-6,6.78,2.52,4.52,12.15-3.07,15.09l-.18.07Z" style="fill: url(#uuid-7847ac01-3db9-4816-8683-54682dd33613);"/>
  <path d="M36.39,22.1c.71-1.7,1.15-3.75,2.19-5.44.87-1.22,2.29-1.05,2.36-.02.1.8-.47,1.8-.78,2.65-1.26,3.14-.52,6.04-.32,8.97-.1,2.22-3.25,1.45-3.68-.17-.52-1.77-.49-3.89.19-5.83l.05-.16Z" style="fill: #dbc491;"/>
  <path d="M47.06,91.09c-2.01-.42-8.27-2.75-7.66-4.79.55-1.2,2.05-1.34,2.97-.64,1.99,1.35,4.15,2.56,6.93,2.88,1.18.2,2.17.45,2.28,1.19.16,2.03-2.95,1.62-4.34,1.39l-.18-.03Z" style="fill: #dbc491;"/>
  <path d="M35.32,66.28c1.38,1.17,3.46,2.11,5.11,3.04.76.48,1.24,1.07,1.19,1.53-.18.93-1.68.86-2.46.73-3.31-.73-6.51-2.46-8.22-4.89-.64-1.05-.02-2.5,1.72-1.97.9.24,1.75.87,2.53,1.46l.14.11Z" style="fill: #dbc491;"/>
  <path d="M64.05,21.01c.76-.44,1.82-.41,2.04.16.15,1.27-1.56,2.65-2.32,3.82-1.67,2.29-2.76,4.91-3.34,7.43-.13.66-.57,1.56-1.33,1.76-4.17.45,2.64-11.93,4.82-13.1l.13-.07Z" style="fill: #dbc491;"/>
  <path d="M67.53,49.99c.49-1.41,1.76-2.73,2.76-4,1.25-1.68,2.42-3.03,4.43-4.37.81-.57,1.77-1.34,2.73-1.47,1.26-.08,1.11,1.17.24,1.9-3.1,2.09-5.28,4.61-6.95,7.64-.68,1.15-1.46,2.08-2.34,2.12-.98.01-1.14-.9-.92-1.67l.04-.15Z" style="fill: #dbc491;"/>
  <path d="M86.4,59.55c1.25-.79,5.89-2.44,4.29,0-.94,1.08-2.51,1.68-3.8,2.41-1.98,1.07-3.69,2.53-5.2,4-.82.8-1.73,2.47-3.05,1.95-2.54-1.71,5.69-7.08,7.59-8.26l.17-.09Z" style="fill: #dbc491;"/>
  <path d="M21.4,44.91c-.82-1.1-.06-3.79,1.82-2.57.51.33.91.89,1.22,1.41,1.26,2.2,2.97,4,5.31,5.32.86.49,3.49,1.97,1.41,2.79-3.64.42-5.67-1.97-7.4-4.04-.82-.88-1.74-1.73-2.28-2.77l-.07-.14Z" style="fill: #dbc491;"/>
  <path d="M54.61,109.65c-5.17-1.83-13.78-5.61-5.61-10.81,6.56-4,15.67-6.86,22.1-4.12,7.66,3.48,3.11,14.4-6.5,15.8-3.54.67-6.83.22-9.81-.81l-.17-.06Z" style="fill: url(#uuid-e7a48a1f-dda9-4462-99e7-89351c5bba66);"/>
  <path d="M87.8,82.8c7.89-8.03,24.31-16.81,19.77-.55-1.77,7.03-8.06,15.5-16.77,13.82-6.59-1.28-8.22-8.06-3.12-13.13l.13-.14Z" style="fill: url(#uuid-739eaf77-e233-437a-b887-727c2ce5717b);"/>
  <path d="M56.05,108.8c-2.01-.42-8.27-2.75-7.66-4.79.55-1.2,2.05-1.34,2.97-.64,1.99,1.35,4.15,2.56,6.93,2.88,1.18.2,2.17.45,2.28,1.19.16,2.03-2.95,1.62-4.34,1.39l-.18-.03Z" style="fill: #dbc491;"/>
  <path d="M95.39,77.26c1.25-.79,5.89-2.44,4.29,0-.94,1.08-2.51,1.68-3.8,2.41-1.98,1.07-3.69,2.53-5.2,4-.82.8-1.73,2.47-3.05,1.95-2.54-1.71,5.69-7.08,7.59-8.26l.17-.09Z" style="fill: #dbc491;"/>
</svg>