<?xml version="1.0" encoding="UTF-8"?>
<svg id="fill_silageadditive" xmlns="http://www.w3.org/2000/svg" viewBox="0 0 128 128">
  <path d="M104.38,105.5c2.91,8.96-4.7,19.11-15.72,19.31-16.46.29-32.92.23-49.38,0-8.41-.11-14.49-5.64-16.01-13.7-.13-.7-.25-1.43-.23-2.14.27-9.64-.14-19.27-.04-28.91.1-9.62-.05-19.25.08-28.87.02-1.79.83-3.58,1.44-5.33.42-5.99,1.65-11.67,6.01-16.22-1.49-4.85-2.42-9.6,1.68-13.8,0-1.59-.01-3.21,0-4.83.05-5.31,2.79-8,8.3-8.01,14.84-.02,29.68-.02,44.53,0,1.79,0,3.62-.02,5.36.31,3.27.61,5.34,3.1,5.51,6.42.11,2.06.02,4.13.02,6.11,4.15,4.18,3.11,8.86,1.75,13.86,4.01,4.41,5.52,9.98,6.07,15.96.43,2.14,1.22,4.27,1.23,6.41.11,15.83.08,31.66.03,47.5,0,1.76-.35,3.53-.61,5.92Z" style="fill: #4a3726; stroke-width: 0px;"/>
  <path d="M30.15,50.67h67.67v50.46H30.15v-50.46Z" style="fill: #96a775; stroke-width: 0px;"/>
  <path d="M36.57,24.87v-2.71c.77-.22,1.52-.42,2.6-.72v-11.27h49.59v11.17c1.05.3,1.79.51,2.71.77v2.75h-54.9Z" style="fill: #589058; stroke-width: 0px;"/>
  <path d="M96.36,43.72H31.57c.6-2.17.94-4.23,1.74-6.08,1.51-3.52,4.29-5.53,8.18-5.54,15-.05,30.01-.06,45.01,0,4,.02,6.79,2.16,8.28,5.81.7,1.71.99,3.59,1.58,5.81Z" style="fill: #d6d6d5; stroke-width: 0px;"/>
  <path d="M30.16,108.33h67.62c.33,4.98-3.44,9.41-8.51,9.45-16.9.12-33.81.13-50.71-.01-4.94-.04-8.59-4.41-8.4-9.44Z" style="fill: #d6d6d5; stroke-width: 0px;"/>
  <path d="M86.11,54.92c3.89,8.59-10.4,34.78-21.75,40.18-5.62-7.6,9.23-35.2,21.75-40.18Z" style="fill: #4a3726; stroke-width: 0px;"/>
  <path d="M43.26,70.49c8.32,1.32,16.88,15.1,15.11,20.27-6.73.14-16.58-12.92-15.11-20.27Z" style="fill: #4a3726; stroke-width: 0px;"/>
</svg>