<?xml version="1.0" encoding="UTF-8"?>
<svg id="uuid-157a87c5-a821-4ff5-9503-57870b06a62b" data-name="fill_soup_redbeet" xmlns="http://www.w3.org/2000/svg" viewBox="0 0 128 128">
  <path d="M26.48,63.08C29.44,24.76,12.06,4.57,62.53,2.37c9.78-.33,31.85,2.15,37.43,10.82,3.97,7.31,1.16,16.43,1.64,24.37-.3,23.64.32,47.33-.07,70.97-5.14,21.99-50.18,19.15-66.27,11.54-8.13-3.26-9.1-11.02-8.73-18.83.11-12.73.07-25.48-.06-38.17Z" style="fill: #583520; stroke-width: 0px;"/>
  <path d="M96.93,29.5c.62,25.38.04,50.47.24,75.83,1.11,14.45-17.6,13.26-27.56,14.93-10.96-.74-36.7,1.86-38.71-12.56.49-26.05-.84-52.27.55-78.21,21.8,7.77,43.34,8.23,65.48.02Z" style="fill: #ab5555; stroke-width: 0px;"/>
  <path d="M71.34,8.09c-1.12,2.24-4.62,3.2-6.17,5.27-8.56,10.27,16.49,15.67,1.54,16.15-9.44-1.19-19.22-1.42-28.34-4.2-19.75-8,1.68-16.32,11.99-17.77,2.89-.4,21.15-3.34,20.98.55Z" style="fill: #d6d6d5; stroke-width: 0px;"/>
  <path d="M89.21,27.95c-5.41-1.6.76-7.79-.48-11.54-.48-2.35-2.62-4.44-2.79-6.83.26-5.59,12.7,4.6,12.47,7.45,1.04,4.9-4.93,10.13-9.2,10.92Z" style="fill: #d6d6d5; stroke-width: 0px;"/>
  <path d="M83.39,19.12c-2.26,3.7-16.21,3.79-13.38-2.46,2.24-2.82,14.79-3.48,13.38,2.46Z" style="fill: #d6d6d5; stroke-width: 0px;"/>
  <g>
    <path d="M67.73,40.6c1.74.81,3.57,1.46,5.19,2.47,4.09,2.56,5.75,6.81,4.88,11.45-.64,3.4-2.13,6.16-4.81,8.42-1.28,1.08-1.74,2.77-1.09,4.14,2.42.15,4.5.22,6.58.42,3.7.34,6.47,2.55,8.76,5.15,2.8,3.18,4.45,7.01,5.37,11.25.64,2.98.15,5.68-1.09,8.11-1.71,3.36-3.89,6.52-6.08,9.6-1.83,2.57-2.54,5.32-2.66,8.42-.05,1.39-.65,2.96-1.48,4.09-1.34,1.81-3.13,1.75-4.78.19-.93-.88-1.93-1.73-2.66-2.77-1.72-2.43-4.38-2.6-6.9-3.33-4.51-1.3-9.46-1.91-12.87-5.54-2.74-2.91-5.09-6.24-5.21-10.53-.08-2.66-.4-5.39.09-7.96.43-2.23,1.84-4.27,2.82-6.39.35-.76.74-1.5,1.47-2.98-2.01,0-3.38-.07-4.74.01-2.79.18-5.59.83-8.3-.56-3.34-1.71-5.25-4.45-6.08-8.05-.04-.16-.25-.27-.39-.4,0-1.12,0-2.24,0-3.36.21-4.35,2.29-7.8,5.23-10.83,2.67-2.76,5.93-3.78,9.71-3.27,1.27.17,2.62.33,3.37-1.01,2.17-3.88,5.5-6,9.8-6.74,1.96,0,3.92,0,5.87,0Z" style="fill: #4a3726; stroke-width: 0px;"/>
    <path d="M78.86,111.25c-1.05-.84-1.72-1.21-2.17-1.77-2.04-2.54-4.85-3.7-7.85-4.51-2.09-.56-4.19-1.09-6.32-1.43-6.75-1.08-10.08-7.98-10.73-13.16-1.25-9.92,5.98-15.5,13.01-18.15,4.29-1.62,8.75-2.52,13.31-1.33,3.69.97,6.68,3,8.63,6.46,4.46,7.92,2.78,14.83-3.18,21.17-2.76,2.93-3.9,6.54-4.11,10.5-.03.56-.29,1.11-.58,2.22Z" style="fill: #b31659; stroke-width: 0px;"/>
    <path d="M52.27,71.97c-2.29.18-4.58.34-6.86.53-1.99.17-3.52-.56-5.1-1.84-2.68-2.16-4.34-4.68-3.57-8.09.46-2.02,1.4-4.09,2.66-5.73,1.61-2.1,3.22-4.39,6.18-5.02,4.14-.88,8.21,1.17,9.48,5.22,1.28,4.06,2.4,8.14,4.82,11.74.89,1.32-.6,3.21-2.58,3.33-1.67.1-3.35.02-5.02.02,0-.05,0-.1-.01-.16Z" style="fill: #50984f; stroke-width: 0px;"/>
    <path d="M63.71,68.18c-2.58-3.12-4.08-6.57-5.2-10.3-.6-2.01-1.75-3.93-2.99-5.64-.96-1.33-.98-2.37-.16-3.6,3.38-5.12,10.27-6.85,15.63-3.49,3.27,2.06,4.99,7.38,3.15,10.73-1.95,3.54-4.08,6.98-6.28,10.37-.88,1.36-2.17,2.4-4.14,1.93Z" style="fill: #50984f; stroke-width: 0px;"/>
    <path d="M77.21,89.51c.63,1.87-.16,2.94-1.93,3.7-3.84,1.65-7.61,3.45-11.43,5.13-1.3.57-2.73.64-3.47-.84-.72-1.42-.12-2.61,1.32-3.24,2.81-1.22,5.65-2.37,8.47-3.59,1.02-.44,2-.97,3-1.46,1.39-.68,2.75-1.1,4.04.3Z" style="fill: #4a3726; stroke-width: 0px;"/>
    <path d="M65.66,83.45c-.78-2.02-.56-3.13,1.26-3.87,3.09-1.25,6.1-2.7,9.15-4.07,1.24-.56,2.5-.87,3.25.62.68,1.34-.09,2.41-1.23,2.92-3.42,1.54-6.89,2.97-10.37,4.36-.58.23-1.33.03-2.05.03Z" style="fill: #4a3726; stroke-width: 0px;"/>
  </g>
</svg>