<?xml version="1.0" encoding="UTF-8"?>
<svg id="uuid-e74df403-1111-488f-b26c-6c9a790dcb06" data-name="fill_product" xmlns="http://www.w3.org/2000/svg" xmlns:xlink="http://www.w3.org/1999/xlink" viewBox="0 0 128 128">
  <defs>
    <linearGradient id="uuid-99446dca-7a8a-4993-9ea8-47f37dd61357" x1="-4339.93" y1="-917.45" x2="-4384.77" y2="-841.73" gradientTransform="translate(2220 518) scale(.5)" gradientUnits="userSpaceOnUse">
      <stop offset="0" stop-color="#b2957c"/>
      <stop offset="1" stop-color="#745b47"/>
    </linearGradient>
  </defs>
  <path d="M116.5,36c-.24,13.06-.41,26.39-.5,40-.02,4.9.58,11.67.03,16.28-.07.55,0,1.1-.52,1.48l-51.67,29.67-51.87-30.15-.49-1.51c.28-13.01-.28-26.05,0-39.05.03-1.18.51-2.27.54-3.46.11-3.95-.68-10.56-.03-14.03.07-.4.13-.76.5-1C29.59,24.51,46.47,14.31,63.79,5c1.12-.07,2.54.89,3.55,1.41,16.13,8.3,31.14,18.93,47.33,27.17.86.6,1.81,1.25,1.83,2.42Z" style="fill: #0b0c0d;"/>
  <path d="M116,76c.05-12.41-.15-24.84,0-37.26,0-.84-.33-2.24.51-2.74-.1,12.41.13,24.84,0,37.26,0,.84.33,2.24-.51,2.74Z" style="fill: #8b8b8c;"/>
  <polygon points="62.5 119.5 14.46 91.27 14.5 38 62.5 65.75 62.5 119.5" style="fill: url(#uuid-99446dca-7a8a-4993-9ea8-47f37dd61357);"/>
  <polygon points="113.5 38 113.5 92 65.5 119 65.5 65.75 113.5 38" style="fill: #816954;"/>
  <path d="M112,35.01c-2.9,2.3-6.42,4.19-9.66,6.08-12.65,7.39-25.48,14.49-38.17,21.8l-22.17-12.65.82-1.17,46.04-26.5,1.83.48c7.04,4.08,13.97,8.43,21.31,11.95Z" style="fill: #816954;"/>
  <path d="M72.81,12.7c3.96,2.21,8.53,4.69,12.53,7.21.34.22,1.39.53.91,1.1-12.41,7.59-25.3,14.35-37.91,21.59-2.24,1.29-7.83,5.64-10.05,5.4l-22.29-12.75L62.99,8.22c1.95-.91,2.8.81,4.05,1.49,1.91,1.02,3.87,1.94,5.77,3Z" style="fill: #816954;"/>
  <path d="M19,45.5c.62,5.1.52,10.39,0,15.5-.56,1.5-1.44,2.2-2.5.5-.63-5.43-.54-11.06,0-16.5,1-1.62,1.69-1.03,2.5.5Z" style="fill: #d3b193;"/>
  <path d="M84.5,88v15.25c-4.1,2.99-8.82,5.35-13.27,7.76-.42.12-1.23-.56-1.23-.76v-15l11.64-6.86,2.86-.39Z" style="fill: #0b0c0d;"/>
  <path d="M40.44,26.45l-14.93,8.33c-1.85.68-2.87-.94-1.2-2.21,4.09-3.12,10.31-5.35,14.66-8.35,1.45-.62,1.79,1.09,1.46,2.23Z" style="fill: #d3b193;"/>
</svg>