<?xml version="1.0" encoding="UTF-8"?>
<svg id="uuid-7fc3aa59-0ec2-4f34-828e-69ef68f29b65" data-name="fill_water" xmlns="http://www.w3.org/2000/svg" xmlns:xlink="http://www.w3.org/1999/xlink" viewBox="0 0 128 128">
  <defs>
    <linearGradient id="uuid-e4813f53-5bfb-4420-bb3d-58eabcad9ef6" x1="-1772.55" y1="-359.85" x2="-1772.7" y2="-212.85" gradientTransform="translate(962 222) scale(.5)" gradientUnits="userSpaceOnUse">
      <stop offset="0" stop-color="#6f9dbc"/>
      <stop offset="1" stop-color="#3a74b2"/>
    </linearGradient>
    <linearGradient id="uuid-68ef0f48-69db-498e-81b3-07b2634bd1d4" x1="-1832.25" y1="-417.02" x2="-1834.29" y2="-322.04" gradientTransform="translate(962 222) scale(.5)" gradientUnits="userSpaceOnUse">
      <stop offset="0" stop-color="#5898c3"/>
      <stop offset=".32" stop-color="#5897c2"/>
      <stop offset="1" stop-color="#2c6396"/>
    </linearGradient>
  </defs>
  <path d="M75.35,36.58c1.86-.56,2.92.6,3.75,2.07,5.39,15.5,12.61,30.34,18.29,45.71,3.2,8.68,4.23,16.09-.79,24.48-14.56,24.35-54.8,8.1-43.33-22.83,5.23-14.12,12.65-31.22,19.15-44.85.56-1.18,1.8-4.23,2.94-4.58Z" style="fill: #0a0d0f;"/>
  <path d="M44.87,7.59c2.43-.52,2.81.73,3.73,2.56,4.18,8.42,9.37,22.06,12.42,31.08,2.21,6.54,2.31,12.15-2.25,17.77-12.46,15.33-36.75,2.5-29.5-18,3.77-10.66,10.09-21.36,13.85-32.15.31-.72,1.03-1.1,1.76-1.26Z" style="fill: #0a0d0f;"/>
  <path d="M76.01,39.5c.73.02.95,1.41,1.22,2.02,5.11,11.72,9.57,24.32,14.19,36.31,3.58,9.3,8.8,16.73,4.19,27.01-10.68,23.77-47.22,12.42-40.95-14.45l21.36-50.89Z" style="fill: url(#uuid-e4813f53-5bfb-4420-bb3d-58eabcad9ef6);"/>
  <path d="M46,10.5c3.1,10.42,8.56,20.47,12.01,30.74,1.71,5.09,2.73,8.18.36,13.38-5.39,11.83-22.99,10.68-27.11-1.63-1.74-5.21-.3-8.22,1.5-12.98,3.22-8.51,8.05-20.31,12.23-28.27.24-.46.26-1.19,1-1.24Z" style="fill: url(#uuid-68ef0f48-69db-498e-81b3-07b2634bd1d4);"/>
  <path d="M59.5,94.5c-.21,4.12,1.24,8.63,4.23,11.52.99.96,4.52,2.78,4.73,3.8.12.56-.81,1.52-1.28,1.61-2.22.44-7.85-6.54-8.77-8.58-1.17-2.59-3.89-9.57,1.1-8.35Z" style="fill: #f8f9fb;"/>
  <path d="M35.5,46c-.13,3.38.08,6.19,2.76,8.49.66.57,5.46,3.05,2.42,3.97-2.24.67-6.08-3.56-6.94-5.45-.99-2.2-1.97-7.89,1.75-7.01Z" style="fill: #f8f9fb;"/>
</svg>