<?xml version="1.0" encoding="UTF-8"?>
<svg id="uuid-11d7dbc9-ec9e-4ce2-954c-e8d0fcaddcd0" data-name="fill_milkbuffalo" xmlns="http://www.w3.org/2000/svg" xmlns:xlink="http://www.w3.org/1999/xlink" viewBox="0 0 128 128">
  <defs>
    <linearGradient id="uuid-d96d5d76-0635-4b58-a93b-bc970a8ff623" x1="424.06" y1="-537.65" x2="423.56" y2="-353.65" gradientTransform="translate(-148 296) scale(.5)" gradientUnits="userSpaceOnUse">
      <stop offset="0" stop-color="#e6e5e5"/>
      <stop offset="1" stop-color="#b9b9b9"/>
    </linearGradient>
    <linearGradient id="uuid-bfc47727-4996-4f94-93cb-b9c08cdddf9e" x1="423.43" y1="-483.64" x2="423.32" y2="-445.64" gradientTransform="translate(-148 296) scale(.5)" gradientUnits="userSpaceOnUse">
      <stop offset="0" stop-color="#9d825c"/>
      <stop offset="1" stop-color="#b9a180"/>
    </linearGradient>
  </defs>
  <path d="M82.06,15.94c4.81-.79,11.05,1.37,8.82,7.17-.68,1.77-2.35,2.52-2.41,2.73-.2.83.28,3,1.02,3.45,4.05-.34,7.43-3.47,11.73-2.76,2.12.35,4.41,2.63,4.75,4.75,1.16,7.3-7.41,8.47-12.48,10.23l2.02,6.72c-1.22,20.51,1.55,42.74,0,63.04-.47,6.14-3.19,11.74-9.81,12.69-13.92-.79-29.22,1.18-42.98.06-3.97-.32-6.68-1.9-8.63-5.37-2.77-4.92-1.42-10.43-1.57-15.93-.39-13.68-.35-27.3-.02-40.98.16-7.01-1.68-13.64,1.5-20.24-5.19-1.66-14.51-3.82-11.54-11.29,2.81-7.07,11.18-2.08,16.03-.71-.31-1.02,1.12-2.58.97-3.2s-2.41-1.15-2.86-3.15c-1.59-7.11,4.46-7.55,9.85-7.19,3.23-18.15,32.29-17.9,35.61-.02ZM88.5,21c-.1-.45.1-.95-.25-1.48-1.16-1.79-6.73-.75-8.75-1.02-.45-17.71-30.42-18.24-30.5,0-2.79.42-9.66-1.5-10,2.5-.19,2.15.78,2.82,2.74,3,13.84,1.26,29.49-.97,43.53.02,1.49.15,3.49-.78,3.62-2.37.04-.43-.38-.58-.4-.65ZM85.45,26.55l-42.2-.06c-2.19.2-2.19,6.17-3.54,6.46-3.57-.82-16.21-7.64-14.7.77.5,2.79,9.86,4.88,12.48,5.78.73.83-2.37,7.24-2.5,8.72,1.3,20.59-1.67,43.18,0,63.53.37,4.45,2.37,8.82,7.24,9.26,13.85,1.23,29.49-.98,43.54-.01,4.12-.63,6.43-4.3,6.76-8.24,1.72-20.48-1.34-43.31,0-64.04l-2.49-8.44c2.97-2.89,15.53-2.9,12.7-9.28-1.96-4.42-11.84,2.1-15.21,1.97l-2.08-6.43Z" style="fill: #0a0c0c;"/>
  <path d="M85.45,26.55l2.08,6.43c3.37.12,13.25-6.39,15.21-1.97,2.83,6.39-9.73,6.39-12.7,9.28l2.49,8.44c-1.35,20.73,1.72,43.56,0,64.04-.33,3.94-2.64,7.62-6.76,8.24-14.05-.97-29.69,1.24-43.54.01-4.88-.43-6.88-4.8-7.24-9.26-1.67-20.35,1.3-42.95,0-63.53.13-1.48,3.23-7.88,2.5-8.72-2.62-.9-11.98-2.99-12.48-5.78-1.51-8.41,11.14-1.59,14.7-.77,1.35-.29,1.35-6.26,3.54-6.46l42.2.06Z" style="fill: url(#uuid-d96d5d76-0635-4b58-a93b-bc970a8ff623);"/>
  <path d="M88.5,21c-.1-.45.1-.95-.25-1.48-1.16-1.79-6.73-.75-8.75-1.02-.46-17.7-30.42-18.23-30.5,0-2.79.42-9.65-1.5-10,2.5-.19,2.15.78,2.82,2.74,3,13.85,1.26,29.49-.96,43.53.02,1.49.15,3.49-.78,3.63-2.37.03-.42-.38-.58-.4-.65ZM54.61,13.86c.13-.26,2.81-3.53,3.02-3.72,1.54-1.31,7.99-1.39,10-1.02,4.23.76,7.01,5.38,7.37,9.38h-21.5c.21-1.4.5-3.4,1.11-4.64Z" style="fill: #b9b9b9;"/>
  <path d="M83,54c1.59-1.33,2.92-2.97,5.17-1.54,1.17.74,1,6.73.79,8.24s-1.54,3.22-1.46,4.5,1.71,3.53,1.95,5.59c.34,2.9-.32,5.13-.45,7.7-.15,1.48-1.16,2.14-3.03,1.97l-3.68-.05c-1.11,3.47-2.65,6.76-4.63,9.86,3.09,9.86-4.18,15.66-13.44,12.18-10.4,2.91-16.6-1.29-14.43-12.48-1.75-3.08-3.31-6.24-4.71-9.47h-3.6c-1.61-.1-2.58-.28-2.99-2.01-.24-2.72-.86-5.3-.46-8.21.28-2.08,2.46-4.24,2.49-5.52,0-.3-.85-.19-1.18-.88-.89-1.84-1.58-10.43-.02-11.42,2.04-1.3,4.1.27,5.67,1.54l.6-.37c3,2.55,7.05,2.14,6.98-2.67,3.1-2.04,6.83-1.85,11.18.57l1.2-.23c3.83-2.16,11.29-3.77,10.51,3.01.73.88,5.85,1.32,6.41-.6l1.12.27Z" style="fill: #0a0c0c;"/>
  <path d="M38.5,78.5c2.21,1.61,4.91.78,7.44,1.06.29,3.24,4.59,8.14,4.97,10.8.13.87-.43,1.87-.43,2.87,0,3.3-.1,6.05,3.04,8,4.18,2.6,6.84.15,10.73.23,1.89.04,3.64,1.08,5.5,1.08,4.57,0,7.6-3.35,7.7-7.84.03-1.45-1.08-3.49-.74-4.72.3-1.1,2.65-4.53,3.38-6.14.38-.84,1.29-4.13,1.46-4.28.56-.49,6.14.66,7.45-1.05-.09,1.88.3,3.61-.14,6.11-3.38,19.27-21.83,35.36-39.59,19.88-7.37-6.42-9.94-16.55-10.76-25.99Z" style="fill: #f6e926;"/>
  <path d="M83,54c-.75.63-.81,1.55-2.35,1.89-1.29.29-5.62.23-6.08-1.21-.49-1.52.82-3.18-1.54-3.96-3.96-1.3-6.51,1.8-9.27,1.81s-4.91-3.02-9.3-1.81c-2.78.77.6,4.59-4.25,5.23-3.96.52-3.09-.25-5.21-1.95,9.46-14.7,28.56-14.71,38,0Z" style="fill: #f6e926;"/>
  <path d="M38.54,47.45c-.22-.3-.04-1.15.06-1.58l5.35-14.58c.62-.87,3.08-.2,2.35,1.22-1.06,2.03-4.79,15.16-6.11,15.42-.23.05-1.6-.42-1.65-.49Z" style="fill: #fdfdfd;"/>
  <path d="M37.07,108.58c.2-.29,1.76-.84,2.2-.1.84,1.4-.53,4.11,1.7,6.3,2.34,2.3,6.58-.17,5.8,3.24-4.12,1.65-8.86-.29-9.65-4.89-.14-.81-.33-4.16-.05-4.56Z" style="fill: #fdfdfd;"/>
  <path d="M75,18.5h-21.5c.21-1.4.5-3.4,1.11-4.64.13-.26,2.81-3.53,3.02-3.72,1.53-1.31,7.98-1.39,10-1.03,4.22.76,7.01,5.39,7.37,9.38ZM71.5,16c-1.64-6.45-12.85-6.05-15,0h15Z" style="fill: #0a0c0c;"/>
  <path d="M72,53l-1,4.5c2.69-.27,7.63,1.16,8,4.26.13,1.09-.15.57-.7.78-2.21.84-4,.93-6.3.46,2.41,2.62,3.46,6.05,2.5,9.5-1.44.56-5.11-2.65-5.74-2.5-3.05,6.91-6.71,6.31-10.02,0-1.84,1.05-3.41,2.6-5.74,2.5-.56-3.5.59-5.88,1.5-9-1.58.11-3.12-.14-4.61-.67-1.76-.62-2.06-.48-.66-2.36,1.79-2.4,4.88-3.28,7.77-2.98-.29-1.59-1.41-2.71-.99-4.5.83-.89,6.94,2.84,7.83,2.91.61.05,6.31-3.61,8.16-2.91Z" style="fill: url(#uuid-bfc47727-4996-4f94-93cb-b9c08cdddf9e);"/>
  <path d="M51.11,74.89c1.73,1.72,5.49-1.1,7.07-.93.35.04,2.11,3.92,5.58,4.08s4.43-3.55,6.09-3.98c1.56-.4,4.51,2.9,6.67.21s.23-6.98.48-7.26c.81-.91,1.07.7,1.24.99,1.68,2.81,2.24,7.01,1.23,10.14-.14.42-.8.35-.93.75-1.01,3.11-1.49,6.5-3.78,9.11-5.37-4.28-13.99-4.69-19.93-1.41-.88.49-1.27,1.62-2.32,1.42-3.11-6.71-7.45-14.55-2.25-21.5.16,1.69-.33,7.21.86,8.39Z" style="fill: #aa906c;"/>
  <path d="M61.89,87.14c6-.67,15.53,2.38,12.23,10.23-1.83,4.37-7.46,1.06-10.32,1.17-3.16.12-9.3,3.31-10.58-2-1.46-6.09,3.36-8.8,8.67-9.39Z" style="fill: #b9b9b9;"/>
  <path d="M45.96,68.04c.37.51-.84,4.58-.87,5.71-.02.84.63,1.8.39,2.73l-4.44.47c-1.08-1.72-.07-10.02,2.1-9.88.2.01,2.73.85,2.81.97Z" style="fill: #714d2b;"/>
  <path d="M85.46,67.03c.99,2.4,2.28,6.65,1.47,9.15-.46,1.4-4.1.59-4.38.27s-.02-6.83-1.07-8.17l3.98-1.24Z" style="fill: #714d2b;"/>
  <path d="M86,55.5c-.13,3.52,1.23,9.12-4,8.5.32-2.15-.47-3.72-1.5-5.5,2.6.3,3.3-2.55,5.5-3Z" style="fill: #b9b9b9;"/>
  <path d="M47,58.51c-.75.65-2.33,4.78-2.55,4.93-.3.21-1.22.13-1.62-.01-2.12-.74-1.11-6.49-1.32-8.43,1.85,1.27,2.97,3.44,5.49,3.51Z" style="fill: #b9b9b9;"/>
  <path d="M73.77,78.13c1.28-.84,4.32.37,2.55,2.2-1.81,1.91-3.58-.29-2.65-2.09l.1-.1Z" style="fill: #0a0c0c;"/>
  <path d="M51.8,78.04c2.2-.7,2.94,1.93,1.73,2.73-2.26,1.5-3.6-2.14-1.73-2.73Z" style="fill: #0a0c0c;"/>
  <path d="M58.13,92.37c.66.62,2.47-.08,1.87,2.63-2.82,1.41-6.62-3.45-4.01-4.77,1.67-.84,1.73,1.76,2.13,2.14Z" style="fill: #0a0c0c;"/>
  <path d="M71.38,94.37c-.77.73-3.54,1.04-3.87-.13-.52-1.81,1.49-1.4,2.03-2.08.58-.71.84-3.59,2.49-1.44.73.95.1,2.93-.65,3.64Z" style="fill: #0a0c0c;"/>
</svg>