<?xml version="1.0" encoding="UTF-8"?>
<svg id="uuid-59e1c6af-412b-4e27-bd38-9fa95e92a8a4" data-name="fill_whiskey" xmlns="http://www.w3.org/2000/svg" xmlns:xlink="http://www.w3.org/1999/xlink" viewBox="0 0 128 128">
  <defs>
    <linearGradient id="uuid-38c5915b-a72f-4256-a735-e42de28aae71" x1="-232.63" y1="-417.6" x2="-401.67" y2="-417.43" gradientTransform="translate(222 296) scale(.5)" gradientUnits="userSpaceOnUse">
      <stop offset="0" stop-color="#a97737"/>
      <stop offset=".49" stop-color="#c19a6d"/>
      <stop offset="1" stop-color="#a97736"/>
    </linearGradient>
    <linearGradient id="uuid-46b59063-72ae-455c-986a-89a7917730ae" x1="-400.72" y1="-510.18" x2="-231.72" y2="-510.03" gradientTransform="translate(222 296) scale(.5)" gradientUnits="userSpaceOnUse">
      <stop offset="0" stop-color="#a97736"/>
      <stop offset=".5" stop-color="#c19a6d"/>
      <stop offset="1" stop-color="#a97737"/>
    </linearGradient>
    <linearGradient id="uuid-b320ba86-5e5f-4c32-8da6-f8fcae7aea28" x1="-226.77" y1="-463.69" x2="-397.79" y2="-463.65" gradientTransform="translate(222 296) scale(.5)" gradientUnits="userSpaceOnUse">
      <stop offset="0" stop-color="#71706f"/>
      <stop offset=".51" stop-color="#a9a9a8"/>
      <stop offset="1" stop-color="#777675"/>
    </linearGradient>
    <linearGradient id="uuid-03e85148-0d98-48c3-a52b-b9a9282256da" x1="27.08" y1="109.33" x2="100.64" y2="109.37" gradientUnits="userSpaceOnUse">
      <stop offset="0" stop-color="#7b7978"/>
      <stop offset=".47" stop-color="#aaaaa8"/>
      <stop offset="1" stop-color="#737271"/>
    </linearGradient>
    <linearGradient id="uuid-2ff06685-e1a9-4dfa-8c84-f9ae676474c8" x1="27.03" y1="19.2" x2="101.09" y2="19.22" gradientUnits="userSpaceOnUse">
      <stop offset="0" stop-color="#7a7978"/>
      <stop offset=".47" stop-color="#a9a9a8"/>
      <stop offset="1" stop-color="#737271"/>
    </linearGradient>
    <linearGradient id="uuid-7e53e39b-ae72-40fc-8c38-553bb66ef849" x1="-888.72" y1="666.42" x2="-861.32" y2="774.35" gradientTransform="translate(518 -296) scale(.5)" gradientUnits="userSpaceOnUse">
      <stop offset="0" stop-color="#80bb64"/>
      <stop offset=".23" stop-color="#7fba63"/>
      <stop offset="1" stop-color="#4f952c"/>
    </linearGradient>
    <linearGradient id="uuid-af83c002-b601-4ab3-9b25-2c897cf39626" x1="-967.15" y1="712.86" x2="-879.71" y2="781.82" gradientTransform="translate(518 -296) scale(.5)" gradientUnits="userSpaceOnUse">
      <stop offset="0" stop-color="#80ba64"/>
      <stop offset="1" stop-color="#3b7222"/>
    </linearGradient>
    <linearGradient id="uuid-3890daa8-5abd-4298-b972-5d398df9845e" x1="-961.76" y1="657.53" x2="-895.75" y2="711.05" gradientTransform="translate(518 -296) scale(.5)" gradientUnits="userSpaceOnUse">
      <stop offset="0" stop-color="#fee27d"/>
      <stop offset="1" stop-color="#feca0e"/>
    </linearGradient>
  </defs>
  <path d="M96.95,12.36l6.54,10.71c.52,2.27-.88,3.02-.82,3.81.05.7,2.59,5.57,3.07,6.94,1.58,4.52,2.95,9.49,3.88,14.17.23,1.18.5,5.83.72,6.21.44.77,1.63,1.08,2.27,1.76,1.31,1.38.38,2,.52,3.43.27,2.64.65,4.79.46,7.58-.08,1.22-.54,5.29-1.22,5.79-.54.39-1.48.25-1.79.81-1.12,7.25-2.53,14.5-4.97,21.42-.55,1.55-2.83,5.27-2.93,6.57-.06.78,1.25,1.32.82,3.29-.33,1.51-5.9,10.62-7.13,11.4-.48.31-.9.55-1.5.5l-63.28-.28-6.77-10.72c-.84-2.57.76-3.31.69-4.19-.04-.58-2.33-4.93-2.79-6.21-1.28-3.56-2.51-7.44-3.38-11.12-.59-2.49-1.03-8.47-1.85-10.15-.72-1.48-2.54-.99-2.9-4.1-.26-2.25-.32-10.39.12-12.41.44-2.01,2.21-2.03,2.79-3.21,1.04-2.13,1.9-10.73,2.86-14.14.65-2.31,1.55-4.85,2.37-7.13.46-1.27,2.75-5.64,2.79-6.21.05-.63-.78-1.19-.92-1.94-.35-1.88,1.59-4.67,2.6-6.38.62-1.06,3.46-5.68,4.04-6.2.55-.49,1.39-.58,2.1-.65,19.9,1.09,41.31-1.43,61.03-.02.86.06,1.92.06,2.59.66Z" style="fill: #0c0d0d;"/>
  <path d="M28.28,100.77c-4.17-7.6-6.82-16.55-7.62-25.2-.07-.64-.18-1.58.15-2.01.3-.4,1.12-.33,2.34-.34,1.93,0,4.66,0,6.37,0,1.23.03,1.98-.17,1.95,1.03.15,3.84,3.11,14.47,5.25,19.86.62,1.49.82,2.16,2.14,2.08,1.69-.05.89-1.71.56-2.92-1.96-5.85-4.32-11.61-4.8-17.77-.02-.71-.15-1.17.14-1.62,5.04-.41,13.92-.02,19.59-.15,2.83,0,5.27,0,6.7,0,1.58-.13,1.53.29,1.62,1.59.32,6.12-.8,12.68-.08,18.68.94,4.21,3.16,1.76,3.16-1.2.46-5.94-.77-12.67-.07-18.67.19-.58.72-.37,1.75-.41,1.59,0,2.89,0,4.82,0,6.02,0,15,0,20.51,0,.54-.02.78.06.82.61-.17,4.41-1.34,8.94-2.77,13.01-.53,2.21-4.09,7.47-1.61,9.06.25.09.51.03.73-.14,2.54-2.33,5.95-16.75,6.62-21.7.04-.84.3-1.37,1.21-1.32,1.75-.02,6.49-.01,8.55,0,1.49-.11,1.36,1.21,1.22,2.34-.89,8.7-3.41,18.19-7.99,25.61-5.06-.2-67.53.63-71.2-.33l-.05-.08Z" style="fill: url(#uuid-38c5915b-a72f-4256-a735-e42de28aae71);"/>
  <path d="M29.7,26.93c22.52-.65,45.27.06,67.82.26,1.68.04,2.67.45,3.39,1.99,3.4,7.28,6.05,15.6,6.74,23.68.03.91.17,1.67-.56,2.13-2.33.55-6.34.11-8.66.22-1.47.06-1.85-1.04-1.93-2.35-.76-6.37-1.63-12.55-4.01-18.43-.51-1.42-2.26-3.21-2.65-.78-.08.66.09,1.49.29,2.17,1.68,5.95,4.04,12.3,3.4,18.51-.27.82-.98.64-2.1.65-5.53-.05-12.15-.12-17.81-.18-2.8-.03-5.2-.05-6.57-.07-1.85.24-1.48-1.47-1.59-2.75-.51-3.32,1.98-19.28-1.45-19.61-1.34.34-1.49,2.44-1.61,3.65-.28,5.1.39,10.76.28,15.96-.11,1.38.28,3.01-1.72,2.75-6.82.06-16.65.16-23.74.22-1.62-.05-2.47.3-2.69-.64-.26-1.4-.01-3.11.12-4.58.64-4.98,2.14-9.87,3.56-14.69.59-2.32-.86-3.9-2.3-1.34-2.54,5.26-3.67,12.78-4.34,18.53-.1,1.07-.44,2.09-1.57,2.36-1.49.41-4.46.48-6.64.46-1.76-.09-2.92.13-2.86-1.6.87-6.48,3.43-22.87,9.02-26.48l.15-.05Z" style="fill: url(#uuid-46b59063-72ae-455c-986a-89a7917730ae);"/>
  <path d="M64.73,57.74c7.44.21,15.09.57,22.77.39,6.85-.27,13.69-.5,20.51-.03,3.04.22,3.06,3.29,3.05,6.02,0,2.88.12,6.38-3.78,6.31-6.48.36-13.2.17-19.6-.12-18.91.45-38.32-.16-57.32.22-3.23,0-6.5-.04-9.66-.18-3.04.02-3.82-1.92-3.7-4.71.1-2.12-.13-5.62,1.21-6.8.64-.57,1.63-.72,2.52-.77,6.83-.3,13.7-.16,20.53.06,7.74-.12,15.56-.57,23.28-.4h.18Z" style="fill: url(#uuid-b320ba86-5e5f-4c32-8da6-f8fcae7aea28);"/>
  <path d="M98.5,108.88c-.7,1.2-3.1,5.15-4.15,5.35-17.92-.21-61.06.68-61.78.03-1.94-1.77-3.66-7.57-5.48-9.79,1.17-.48,50.68-.11,73.5-.25.43.43-1.68,3.93-2.09,4.66Z" style="fill: url(#uuid-03e85148-0d98-48c3-a52b-b9a9282256da);"/>
  <path d="M32.06,104.61c1.52.94,2.93,3.63,4.01,5.19.74,1.23,1.37,3.64-.53,4.02-2.39-.12-6.59-6.54-5.43-8.51.3-.69,1.05-1.12,1.82-.76l.13.06Z" style="fill: #c2c2c1;"/>
  <path d="M101.09,24.22c-22.99-.14-73.09.42-74.06-.06,1.9-2.34,3.72-7.54,5.83-9.43.73-.66.94-.59,1.69-.68,1.69.12,41.88.37,59.8.16.43,0,.69.23.99.51,2.08,2.02,3.92,7.03,5.75,9.5Z" style="fill: url(#uuid-2ff06685-e1a9-4dfa-8c84-f9ae676474c8);"/>
  <path d="M39.44,113.71c-.92-.72-1.89-2.75-2.7-3.89-.56-1.03-1.21-1.94-.82-2.93.2-.38.64-.61,1.07-.63,1.6.04,2.1,1.91,3,3.13.79,1.28,1.62,2.43.71,3.72-.26.37-.72.82-1.15.65l-.1-.05Z" style="fill: #c2c2c1;"/>
  <path d="M40.59,14.36c1.66,1.43-1.82,8.69-4.13,7.13-.87-1.27.62-2.95,1.25-4.2.79-.95,1.58-3.42,2.78-2.99l.1.07Z" style="fill: #c2c2c1;"/>
  <path d="M35.87,14.79c1.49,2.39-1.72,5.2-2.94,7.5-.33.5-.71,1.04-1.19,1.37-.95.71-2.29.32-2.43-.65-.31-1.86,4.15-9.7,6.47-8.3l.09.08Z" style="fill: #c2c2c1;"/>
  <path d="M31.26,99.57c-.73.66-1.93.37-2.34-.49-1.16-2.17-3.68-8.83-4.31-11.36-.45-1.27.57-3.31,1.97-2.01,1.71,1.98,1.72,5.01,2.8,7.34.6,1.95,2.89,4.39,1.96,6.42l-.09.1Z" style="fill: #f7d2a2;"/>
  <path d="M31.33,28.56c.98,1.33-.08,3.36-.64,4.76-1.49,2.85-2.12,6.05-3.37,9-.71,1.66-2.39,2.04-2.68-.08-.14-1.19.14-2.37.52-3.51.93-2.68,2.4-5.34,3.25-8,.33-1.16,1.48-3.4,2.83-2.26l.08.09Z" style="fill: #f7d2a2;"/>
  <path d="M19.99,59.54c.65-.85,1.94-.8,2.33.12.52,1.56.18,3.34.27,4.99-.02,2.82.33,5.67-2.2,4.61-.89-.74-.83-1.94-.91-3.17.04-1.94-.43-4.84.41-6.43l.09-.13Z" style="fill: #c2c2c1;"/>
  <path d="M25.62,59.13c2.97-.39,2.62,7.01.54,7.92-1.31.43-1.07-1.14-1.1-3.53.12-1.26-.34-3.6.47-4.34l.09-.05Z" style="fill: #c2c2c1;"/>
  <g>
    <path d="M73.29,39.11c.67-1.51,3.39-5.53,4.78-6.02,2.48-.89,4.96.13,5.75,2.64.86,2.74,1.23,6.36,2.03,9.33,1.55,5.77,3.62,11.58,6.06,17.02,3.41,7.6,8.58,13.55,4.65,22.46-.65,1.46-4.09,5.38-4.16,5.73-.08.4,1.33,2.74,1.42,3.98.12,1.67-.45,3.4-1.66,4.57-.86.84-9.77,5.99-11.08,6.5-3.85,1.48-7.04-.54-8.17-4.29-7.35,2.12-13.73-1.1-18.08-7-7.26-9.86-11.47-16.47-20.53-25.25-1.48-1.43-4.02-2.63-4.24-4.93-.49-5.26,5.87-5.04,9.54-5.32-.99-3.55-2.42-6.93-3.18-10.55-1.7-8.07-2.55-21.88,7.22-25.15,9.24-3.09,19.99,5.93,25.82,12.26.89.97,2.02,2.89,2.91,3.68.32.28.41.47.92.35Z" style="fill: #040502;"/>
    <path d="M79.43,34.77c.96-.19,1.96.25,2.39,1.13,1.7,8.98,4.17,17.82,7.9,26.17,2.97,6.64,8.05,12.64,5.48,20.36-1.92,5.77-7.84,9.55-13.3,11.5-.69-.07-4.47-5.86-5.09-6.87-8.43-13.8-11.75-30.31-3.3-45,.89-1.54,4.38-7,5.92-7.3Z" style="fill: url(#uuid-7e53e39b-ae72-40fc-8c38-553bb66ef849);"/>
    <path d="M67.7,70.72c2.44,8.99,6.72,17.37,12.55,24.63-7.31,5.24-16.17,6.43-22.52-.91-2.3-2.66-3.84-5.93-5.88-8.77-4.32-5.99-9.46-11.98-14.8-17.07-1.93-1.84-7.72-4.95-3.69-7.34,12.5-2.78,24.88,1.21,34.35,9.46Z" style="fill: url(#uuid-af83c002-b601-4ab3-9b25-2c897cf39626);"/>
    <path d="M70.14,39.35c.46.56,1.59,1.06,1.64,2.08-2.81,4.85-4.76,10.91-5.09,16.53-.19,3.27.39,6.47.38,9.72-7.17-5.66-15.96-9.35-25.22-9.2-3.23-7.95-7.45-23.07-1.88-30.54,8.47-11.36,24.47,4.47,30.17,11.41Z" style="fill: url(#uuid-3890daa8-5abd-4298-b972-5d398df9845e);"/>
    <path d="M74.76,100.29c3.16-.44,5.43-2.91,7.94-4.34,1.66-.94,3.45-1.66,5.13-2.56,1.38-.75,2.43-2.48,3.49-.69.95,1.6.79,3.12-.42,4.49-.82.93-9.07,5.68-10.55,6.29-2.87,1.19-4.84-.45-5.58-3.2Z" style="fill: #6eac50;"/>
    <path d="M74.09,47.66c.64,1.25-.49,2.91-.75,4.2-.87,3.06-1.24,6.72-.95,9.95.14,1.46-.97,2.84-1.78,1.05-.91-2.4-.13-15.85,3.42-15.25l.05.05Z" style="fill: #b8d8a9;"/>
    <path d="M50.6,79.36c-1.21.75-3.23-1.99-4.07-2.82-1.99-2.45-5.03-4.17-6.69-6.88-.43-.97.12-1.41,1.13-1.03,1.56.62,2.89,2.1,4.14,3.26,1.68,1.87,6,5.21,5.52,7.42l-.03.05Z" style="fill: #b8d8a9;"/>
    <path d="M66.29,47.22c.73.5.78,3.32.53,4.28-.67,2.57-2.39,2.19-2.87,2.99-.28.48-.24,1.91-.52,2.78-.75,2.35-2.61,3.23-4.97,3.12-1.97-.09-4.14-1.51-3.47-3.69,1.92-.44,2.15,1.77,3.84,1.87s3.3-1.79,2.7-3.47c-.31-.86-4.29-1.37-3.25-3.89,1.65.42,1.7-.54,2.93-1.1l-.36,2.56c4.26.54,4.51-2.06,4.03-5.49.41.07,1.13-.14,1.41.05Z" style="fill: #fdd43b;"/>
    <path d="M49.49,46.81c-.36,3.99-4.95,5.87-7.89,2.94-.53-.53-.82-1.1-.36-1.85.72-1.16,1.29.6,1.67.9,1.77,1.41,4.73.5,5.04-1.91.15-1.12-1.07-2.38-.3-2.83,1.26-.76,1.88,1.29,2.82,1.58,1.5.45,2.8-.12,3.56-1.42,1.23-2.1-.28-2.72-.15-3.44.08-.45.98-.77,1.49-.4.86.63.77,3.19.46,4.18-.74,2.36-4.32,3.81-6.34,2.26Z" style="fill: #fdd43b;"/>
    <path d="M38.36,34.13c.46-1.73,1.18-4.07,2.49-5.41.62-.63,1.42-.51,1.44.41.13.97-.75,2.56-1.17,3.9-.85,2.37-.4,5.01-1.07,7.47-.95,2.46-1.93-.05-1.92-1.44-.06-1.58-.11-3.29.19-4.79l.03-.15Z" style="fill: #feefba;"/>
    <path d="M54.44,30.33c1.32-.37,1.69,1.82,1.66,2.73-.12,3.89-5.52,5.85-8.08,2.95-.4-.45-1.2-1.73-.18-2.02,1.1-.3,1.21.99,1.86,1.42,1.46.98,4.22.15,4.54-1.62.17-.96-.67-3.22.19-3.47Z" style="fill: #fdd43b;"/>
  </g>
</svg>