<?xml version="1.0" encoding="UTF-8"?>
<svg id="uuid-4af35fb0-985c-4dac-99bd-7fa54ae7b42e" data-name="fill_birdhouse" xmlns="http://www.w3.org/2000/svg" xmlns:xlink="http://www.w3.org/1999/xlink" viewBox="0 0 128 128">
  <defs>
    <linearGradient id="uuid-5128136f-b484-4239-80d0-dc429c3f0ba0" x1="-1056.19" y1="-983.15" x2="-1055.98" y2="-800.15" gradientTransform="translate(592 518) scale(.5)" gradientUnits="userSpaceOnUse">
      <stop offset="0" stop-color="#aa7837"/>
      <stop offset="1" stop-color="#d2a876"/>
    </linearGradient>
  </defs>
  <path d="M33,122.5c-1.34-.48-2.64-.71-2.88-2.37l-7.13-56.13c-4.08,4.43-11.99,5.1-14.7-1.05-3.22-7.33,4.26-12.46,8.94-16.96C31.91,31.85,47.25,18.34,61.49,3.74c.98-.96,2.19-1.58,3.53-1.03,12.23,11.19,23.98,23.06,35.97,34.55,5.05,4.84,14.19,11.65,18.01,16.99,6.38,8.9-6.98,18.63-14,9.76l-7.04,55.71c-.26,1.48-.79,2.47-2.46,2.29-20.82.38-41.66.54-62.5.5Z" style="fill: #0c0d0c;"/>
  <path d="M95.5,122c-20.64,1.16-41.71.17-62.5.5l62.5-.5Z" style="fill: #8c8d8c;"/>
  <path d="M32.5,119.5l-7.02-56.27.11-1.89c3.23-3.87,7.13-7.05,10.9-10.35l1.08,15.68c.5,1.54,3.33,1.04,2.95-.91-.47-4.97-1.23-10.05-1.53-15.03-.06-.92-.16-1.87.26-2.74l24.56-23.47c.73-.16,5.63,5.24,6.68,6.23,8.97,8.49,18.07,16.9,27.02,25.48,1.69,1.62,3.4,3.31,4.9,5.11-2.06,19.37-4.94,38.71-6.91,58.15h-8.5c.85-2.52.37-5.14.5-7.75.18-3.49.86-7.5,1.02-10.98.06-1.35.19-3.82-.02-5.02-.32-1.8-2.22-1.73-2.5,0l-1.5,23.75h-52Z" style="fill: url(#uuid-5128136f-b484-4239-80d0-dc429c3f0ba0);"/>
  <path d="M94.83,34.67c7.38,7.12,14.66,14.52,22.1,21.65,3.25,5.41-3.04,10.74-8.18,7.18-10.35-10.15-21.05-20-31.51-29.99-4.36-4.15-8.25-8.83-13.06-12.48-1.27-.29-11.64,10.78-13.42,12.48-10.55,10.07-21.32,20.02-31.79,30.21-5.92,3.07-11.51-2.61-7.24-8.24,3.12-4.11,8.54-8.12,12.27-11.73,13.23-12.79,26.4-25.62,39.81-38.23.74-.16,4.72,4.33,5.68,5.23,8.49,7.87,16.99,15.85,25.34,23.91Z" style="fill: #775121;"/>
  <path d="M65.5,92.5v15.75c0,.99-3,.99-3,0v-15.75c-16.77-1.07-23.12-22.46-9.74-32.99,7.45-5.87,19.11-4.37,25.23,2.75,9.86,11.46,2.42,29.45-12.49,30.24Z" style="fill: #0c0d0c;"/>
  <path d="M34.5,103c-2.35.77-2.73-1.84-2.95-3.8-.16-1.5.1-3.01-.05-4.45-.99-9.19-3.13-19.46-3.52-28.52-.15-3.6,2.33-2.93,2.97,1.07,1.48,9.33,2.96,21.56,3.55,30.95.1,1.58-.06,3.18,0,4.75Z" style="fill: #f9d5a5;"/>
  <path d="M43.43,95.57c.88.59.98,11.37,1.07,13.18.11,2.18,2.12,9.21-2.02,6.42l-1.48-19.67c.66.1,1.98-.23,2.43.07Z" style="fill: #0c0d0c;"/>
  <path d="M15,57c-.12-.92-.03-1.49.47-2.27.95-1.5,6.36-6.47,8.02-7.98.76-.69,4.66-4.32,5.01-4.49,1.76-.9,2.55.58,1.27,2.27-3.24,4.3-9.08,7.68-12.49,12l-2.27.47Z" style="fill: #bb8b51;"/>
  <path d="M62.39,58.64c20.62-2.12,23.59,29.65,2.86,31.36-20.1,1.65-23.38-29.25-2.86-31.36Z" style="fill: #342417;"/>
</svg>