<?xml version="1.0" encoding="UTF-8"?>
<svg id="uuid-a42a452f-9b3a-445a-844c-099294038b77" data-name="fill_haypellets" xmlns="http://www.w3.org/2000/svg" viewBox="0 0 128 128">
  <path d="M58.8,105.71c-2.92.36-5.7.83-8.49,1-3.23.19-6.33-.13-7.14-4.25-8.74,0-17.3.05-25.85-.04-1.82-.02-3.73-.23-5.45-.8-9.39-3.16-12.4-13.62-6.41-22.34,3.44-5.01,7.09-9.89,10.71-14.78,8.86-11.98,17.77-23.93,26.64-35.91,10.07-13.61,31.71-14.08,41.99-.59,12.93,16.97,25.5,34.22,38.26,51.33,3.64,4.89,2.98,9.96.61,14.98-2.42,5.12-6.61,8.04-12.33,8.12-9.53.13-19.07-.05-28.6.07-1.63.02-3.37.71-4.83,1.51-2.15,1.19-4.2,2.63-6.08,4.21-2.26,1.91-4.53,2.12-7.05.77-2.01-1.08-4-2.19-5.99-3.29Z" style="fill: #4a3726; stroke-width: 0px;"/>
  <path d="M89.3,96.08c4.21-2.98,7.7-5.78,11.52-8.04,3.08-1.82,3.88-4.14,3.5-7.47-.93-8.11-6-14.67-13.06-16.15-1.35-.28-3.13.13-4.33.85-3.16,1.9-6.1,4.15-9.47,6.5-.25-3.5-.39-6.7-.74-9.87-.15-1.36-.33-3-1.15-3.95-3.21-3.72-6.47-7.44-10.15-10.68-1.73-1.53-4.35-2.37-6.71-2.82-5-.96-8.5,2.29-8.34,7.36.04,1.31.24,2.62.37,3.97-5.4-3.47-10.6-1.74-15.61.64-1.85.88-3.5,2.4-4.93,3.92-4.07,4.33-4.22,6.14-1.66,11.47,3.47,7.23,6.89,14.48,10.32,21.73.32.68.53,1.42.87,2.35-.93.08-1.6.19-2.27.19-6.71.01-13.42.02-20.13.01-3.2,0-6.11-.93-7.58-3.9-1.56-3.15-.98-6.47,1.06-9.25,10.93-14.94,21.95-29.81,32.94-44.71,1.52-2.05,3.21-4,4.52-6.18,4.93-8.19,23.14-11.13,31.08-.61,12.91,17.09,25.66,34.3,38.39,51.52,3.62,4.9-.1,12.75-6.33,13.04-7.1.33-14.23.08-22.1.08Z" style="fill: #96a775; stroke-width: 0px;"/>
  <path d="M55.71,89.45c.92-.25,1.83-.49,3.02-.81.97,2,1.92,3.94,2.79,5.72-1.5,4.21-6.2,6.22-12.42,5.82-3.15-6.66-6.37-13.46-9.69-20.48,1.8-.95,3.42-1.79,5.63-2.95h-6.96c-1.62-3.32-3.15-6.46-4.65-9.54,2.44-4.78,6.26-6.88,12.02-6.47,3.97,8.29,8.02,16.75,12.03,25.14-.75,1.27-1.37,2.31-1.99,3.35-.1.25-.03.32.22.22Z" style="fill: #96a775; stroke-width: 0px;"/>
  <path d="M97.87,82.09c-2.06,1.46-4,2.82-6.12,4.32-1.42-.92-2.78-1.82-4.81-3.14.87,1.94,1.48,3.29,2.22,4.93-7.12,4.99-14.23,9.96-21.48,15.03-.88-.41-1.73-.8-3.11-1.44,4.36-4.37,4.63-9.01.85-13.9.27-.11.54-.21.81-.32,1.14.67,2.28,1.35,3.83,2.26-.5-1.45-.88-2.56-1.36-3.95,7.18-5.05,14.36-10.09,21.56-15.16,5.41,1.86,6.8,6.28,7.61,11.37Z" style="fill: #96a775; stroke-width: 0px;"/>
  <path d="M56.64,50.6c6.68,1.25,9.58,5.07,10.4,11.06.06-.41.13-.83.18-1.24.07-.52.13-1.04.28-2.22,1.13,1.29,1.94,2.22,2.73,3.11.28,5.03.56,9.94.84,15-2.93,1.49-4.77,4.86-8.47,4.36-7-9.03-4.28-19.62-5.96-30.08Z" style="fill: #96a775; stroke-width: 0px;"/>
</svg>