<?xml version="1.0" encoding="UTF-8"?>
<svg id="uuid-16dd641a-8a9e-4f23-8d74-27e6f87b62a8" data-name="fill_roundbalestraw" xmlns="http://www.w3.org/2000/svg" viewBox="0 0 128 128">
  <path d="M35.86,18.1c2.72-.58,3.82,1.32,6.38,1.44,2.37.11,4.52-1.04,6.51-1.04s4.32.97,6.48,1.03c2.66.07,4.89-1.03,7.02-1.03,1.94,0,4.12,1.03,6.5,1.03s4.91-1.03,7-1.03c2.32,0,4.6,1.17,7.52,1.02,1.97-.1,4.06-1.08,5.91-.99,2.42.12,8.41,1.11,10.84,1.7,2.29.56,7.73,2.61,9.2,4.3.93,1.07,1.65,3.22,2.56,4.44,1.33,1.77,3.37,2.93,4.42,5.08,1.36,2.78,1.7,5.63,3.41,9.1,1.86,3.78.5,4.11.93,7.57.26,2.07,1.75,4.53,1.98,6.52.27,2.37-.61,4.6-.54,7.04.05,1.9.67,3.5.55,5.5-.19,3.28-1.49,6.43-1.79,10.49-.13,1.76-3.59,11.1-4.48,13.25-.36.86-7.87,10.56-8.5,11-1.28.91-11.17,4.91-12.55,4.95-2.48.08-5.15-1.18-8.45-.95-4.35.3-4.58.48-9.06.05-3.56-.34-6.03.94-8.94.94-1.61,0-3.65-.91-5.48-1.02-3.16-.19-5.54,1.02-8.02,1.02s-4.87-1.19-8.02-1.02c-2.84.15-6.82,1.6-9.44,1.49-1.45-.06-2.42-1.26-3.56-1.45s-2.3.1-3.44-.06c-2.65-.37-12.18-8.2-13.38-10.62-.67-1.37-.91-2.93-1.64-4.36-.9-1.78-3.08-3.77-3.54-5.46-.5-1.86-.28-4.09-.87-6.13-.52-1.81-1.95-3.77-2.25-5.76-.34-2.23.53-3.76.4-5.87s-1.38-4.37-1.33-6.43c.04-1.92,1.21-4.18,1.33-6.09.13-2.11-.74-3.64-.4-5.87.3-1.99,1.74-3.95,2.25-5.76,1.76-6.26,1.05-5.43,4.24-11.26.85-1.54,1.07-3.21,1.81-4.69,1.18-2.39,10.39-9.88,12.96-10.54.88-.23,1.89,0,2.77-.23.98-.25,1.79-1.09,2.72-1.29Z" style="fill: #0d0e0c;"/>
  <path d="M45,106l7.22-6.02c1.25-3.69,4.66-7.72,6.03-10.97.55-1.29,3.6-12.51,3.71-13.81.15-1.78-.51-2.94-.48-4.42s.9-3.24,1.04-5c.28-3.55-.98-5.85-1.04-8.54-.03-1.48.63-2.64.48-4.42-.12-1.38-3-11.99-3.57-13.46-.38-.97-5.75-10.84-6.17-11.33-1.89-2.14-5.26-3.32-6.72-6.02,3.44-1.66,7.09.59,10.23.51,2.44-.06,4.58-1.21,7.54-1.04,2.08.12,3.88,1.1,5.98,1.06s4.03-1.11,6.51-1.07c2.25.04,4.44,1.07,6.49,1.07,1.66,0,3.42-.82,5.06-.98,3.72-.36,13.38,1.37,16.81,3.07s3.35,3.59,5.38,6.12c1.32,1.64,3.33,2.74,4.26,4.74.79,1.7.86,3.76,1.5,5.5,2,5.37,2.02,4.47,2.87,10.63.28,2.05,1.67,4.37,1.85,6.19.21,2.03-.55,5.85-.51,8.46.09,4.85-.72,10.41-1.59,15.36-.11.63-4.31,11.31-4.66,11.84-1.05,1.6-4.58,5.75-6.02,7.48-2.15,2.58-10.03,5.78-13.4,5.49-1.62-.14-3.4-.98-5.06-.98-2.07,0-4.27,1.08-6.5,1.08s-4.39-1.04-6.5-1.08c-2.24-.05-4.17,1.04-6.49,1.07-2.47.04-4.84-1-7.03-1.05-1.76-.05-3.55.92-5.46,1.04-2.87.17-5.2-.94-7.58-.97-1.31-.02-2.75.79-4.19.45Z" style="fill: #dbbe6d;"/>
  <path d="M29.87,22.62c1.41-.37,10.3-.33,11.66.1,2.27,2.44,6.43,4.73,8.49,7.01.41.45,5.58,9.82,5.87,10.63.8,2.2.6,4.54,1.24,6.76,3.48,12.09,3.15,21.75.11,33.88-1.58,6.31-1.43,5.7-4.35,11.15-3.3,6.17-1.34,4.64-7.14,9.36-2.58,2.1-3.05,4.2-7.09,4.31-1.78.05-4.56.05-6.33,0-4.66-.14-7.14-5.3-11.11-7.3-1.13-3.51-5.21-8.27-6.25-11.25-.66-1.89-.48-3.92-1.01-5.99-.42-1.65-1.71-3.54-1.94-5.06-.27-1.79-1.14-11.39-1.04-12.96.19-2.99.62-8.71,1.04-11.49.23-1.52,1.52-3.41,1.94-5.06.5-1.96.35-3.87.87-5.63.87-2.93,5.25-7.79,6.16-11.34,2.59-1.1,6.7-6.55,8.88-7.12Z" style="fill: #b18d2d;"/>
  <path d="M33,64.5c.33-2.69-.27-7.51-2.24-9.51-.84-.85-3.49-.65-4.43-.03-.27.18-2.62,5.42-2.72,5.9-.93,4.58-.44,14.97,1.69,19.1.63,1.22,4.35,5.34,5.52,5.98,3.95,2.17,9.38-1.73,10.93-5.44,4.3-10.28,4.64-31.36-3.97-39.51-.91-.86-2.87-2.16-4.02-2.98-1.32-.95-2.73-.41-2.26-2.99,2.7-.68,2.99.75,4.53,1.72,1.26.8,2.92,1.45,3.99,2.51,9.26,9.17,9.26,32.12,3.85,43.39-1.9,3.96-8.33,7.8-12.65,6.41-2.81-.91-7.08-5.48-8.44-8.05-.89-1.69-2.74-10.7-2.8-12.74-.04-1.67.89-3.07.98-4.53.05-.75-.4-1.47-.35-2.33.11-1.69,3.22-7.9,4.71-8.8,5.39-3.27,8.1.33,9.77,5.08.83,2.34,1.58,7.56-2.09,6.85Z" style="fill: #0f100c;"/>
</svg>