<?xml version="1.0" encoding="UTF-8"?>
<svg id="fill_table" xmlns="http://www.w3.org/2000/svg" viewBox="0 0 128 128">
  <path d="M90.95,44.93h-53.96v3.24c0,16.18,0,32.36,0,48.55,0,6.36-2.6,8.99-8.86,8.99-2.44,0-4.87.02-7.31,0-3.75-.04-6.55-2.5-6.59-6.27-.21-16.95-.3-33.91-.43-50.86,0-1.15,0-2.3,0-3.51-2.1-.28-4.02-.43-5.89-.81-3.37-.69-5.37-3.17-5.4-6.53-.03-3.02-.03-6.04,0-9.07.04-3.84,2.76-6.63,6.57-6.63,36.56-.02,73.11-.02,109.67,0,3.84,0,6.58,2.76,6.63,6.57.04,2.73-.26,5.49.07,8.18.49,3.94-2.47,7.62-7.64,8.01-1.14.08-2.29.01-3.71.01,0,1.1,0,1.95,0,2.8-.09,16.37-.17,32.74-.27,49.11-.02,2.52.1,5.04-1.98,7.04-3.09,2.99-16.23,3.03-18.75-.39-1.31-1.78-2.04-4.4-2.06-6.65-.16-17.15-.09-34.31-.09-51.79Z" style="fill: #4a3726; stroke-width: 0px;"/>
  <path d="M9.7,36.98v-7.7h108.39v7.7H9.7Z" style="fill: #a5805b; stroke-width: 0px;"/>
  <path d="M21.48,44.51h7.75v53.95h-7.75v-53.95Z" style="fill: #7b5b3b; stroke-width: 0px;"/>
  <path d="M98.71,44.48h7.74v53.98h-7.74v-53.98Z" style="fill: #7b5b3b; stroke-width: 0px;"/>
</svg>