<?xml version="1.0" encoding="UTF-8"?>
<svg id="fill_mineralfeed" xmlns="http://www.w3.org/2000/svg" viewBox="0 0 128 128">
  <path d="M47.42,4.98h10.67c4.65-3.07,17.18-3.08,22.12.35,26.42-4.59,48.46,20.62,40.08,43.83-.58,16.51,4.13,33.17-1.38,49.57-.3,1.05-.01,2.33.18,3.47,1.76,12.64-8.83,14.49-18.48,16.25-13.96,5.91-28.55,7.46-43.52,6.63-11.07-.62-21.74-2.87-31.85-7.56-9.55,0-18.35-5.09-16.26-15.87-2.2-14.39-3.91-28.62-1.34-43.19.48-4.09.39-7.99-.48-12.14C.22,22.83,23.38,2.31,47.42,4.98Z" style="fill: #4a3726; stroke-width: 0px;"/>
  <path d="M23.16,20.14c-.53,1.57-1.82,3.34-1.46,4.67,1.32,4.92.47,9.85.8,14.76,1.84,15.41,21.46,16.85,33.76,17.49,14.13.31,29.56,1.07,42.2-6.34,13.82-9.2,6.43-27.33-8.02-30.8-1.57-2.47-3.22-5.08-5.04-7.94,24.93,3.22,32.63,17.66,26.79,40.96,2.1,16.05,3.17,31.55-1.32,47.49,2.82,7.33-1.23,10.36-7.75,8.74-26.09,11.61-51.76,11.61-78.3.02-8.03.65-10.17-1.62-7.38-9.2-5.03-13.79-3.84-28.16-2.07-42.55,1.01-13.38-6.84-27.86,7.15-37.74.26.09.47.24.63.47Z" style="fill: #d6d6d5; stroke-width: 0px;"/>
  <path d="M52.54,39.43c1.04,1.88,1.9,3.44,3.05,5.51-4.47,2.23-8.6,4.29-13.11,6.54-1-1.87-1.84-3.45-2.95-5.54,4.36-2.18,8.49-4.25,13.02-6.51Z" style="fill: #876f47; stroke-width: 0px;"/>
  <path d="M62.67,30.23c-1.15,2.35-1.92,3.95-2.75,5.63-4.55-1.69-8.66-3.22-13.27-4.94.56-1.75,1.08-3.34,1.86-5.77,4.66,1.67,9.12,3.27,14.16,5.07Z" style="fill: #876f47; stroke-width: 0px;"/>
  <path d="M33.01,38.42c-1.51-5-2.82-9.32-4.22-13.93,2.09-.67,3.64-1.17,5.76-1.85,1.46,4.63,2.87,9.1,4.39,13.9-2.06.65-3.75,1.19-5.93,1.87Z" style="fill: #876f47; stroke-width: 0px;"/>
  <path d="M98.16,39.71c-1.54,1.37-2.79,2.48-3.5,3.11-3.63-3.5-6.86-6.62-10.53-10.16,1.28-1.1,2.58-2.2,3.2-2.74,3.56,3.22,6.98,6.3,10.83,9.78Z" style="fill: #876f47; stroke-width: 0px;"/>
  <path d="M69.06,46.71c.79-2.08,1.32-3.5,2.12-5.59,4.56,1.53,8.92,3,13.77,4.63-.71,1.98-1.31,3.64-2.12,5.9-4.73-1.7-9.12-3.27-13.76-4.94Z" style="fill: #876f47; stroke-width: 0px;"/>
  <path d="M71.32,30.48c-1.29-1.87-2.14-3.11-3.25-4.71,3.8-3.08,7.28-5.92,11.06-8.99,1.43,1.72,2.5,3,3.83,4.59-3.88,3.39-7.19,6.68-11.64,9.11Z" style="fill: #876f47; stroke-width: 0px;"/>
  <path d="M74.13,10.68c-3.18,2.55-5.32,6.46-9.95,6.85-.15-2.54-.27-4.73-.39-6.85h10.34Z" style="fill: #d6d6d5; stroke-width: 0px;"/>
  <path d="M28.66,15.77c4.73-1.43,9.46-2.87,14.78-4.49-.62,3.19-1.06,5.46-1.66,8.54-3.67-4.12-7.81-5.26-12.55-3.34-.54.05-.77-.16-.57-.71Z" style="fill: #d6d6d5; stroke-width: 0px;"/>
  <path d="M57.03,13.03c-.55,2.48-.96,4.33-1.44,6.48-2.09-.65-3.82-1.19-5.82-1.81.34-1.76.66-3.44,1.08-5.62,2.03.31,3.85.59,6.17.95Z" style="fill: #876f47; stroke-width: 0px;"/>
  <path d="M41.43,101.27v-25.54h8.8v-9.13h25.77v8.9h9.06v25.6h-8.98v9.08h-25.68v-8.91h-8.97Z" style="fill: #4a3726; stroke-width: 0px;"/>
  <path d="M57.58,102.79v-8.76h-8.78v-10.95h8.8v-9.17h10.93v8.97h8.91v11.04h-8.63v8.87h-11.23Z" style="fill: #a5b95f; stroke-width: 0px;"/>
</svg>