<?xml version="1.0" encoding="UTF-8"?>
<svg id="uuid-933b2ebc-da2c-437e-81fc-22b64945caf0" data-name="fill_straw" xmlns="http://www.w3.org/2000/svg" xmlns:xlink="http://www.w3.org/1999/xlink" viewBox="0 0 128 128">
  <defs>
    <linearGradient id="uuid-bdc40775-a01b-4ab5-b52e-c5cc497f5937" x1="-1796.67" y1="-399.65" x2="-1795.89" y2="-244.65" gradientTransform="translate(962 222) scale(.5)" gradientUnits="userSpaceOnUse">
      <stop offset="0" stop-color="#dbc27f"/>
      <stop offset="1" stop-color="#dcb655"/>
    </linearGradient>
    <linearGradient id="uuid-4b19b6d0-3e10-4bb7-b892-15279d0e5aad" x1="-1780.01" y1="-337.67" x2="-1780.91" y2="-240.67" gradientTransform="translate(962 222) scale(.5)" gradientUnits="userSpaceOnUse">
      <stop offset="0" stop-color="#fbebbb"/>
      <stop offset="1" stop-color="#dec47c"/>
    </linearGradient>
    <linearGradient id="uuid-8de95937-2bc4-460f-989a-3800b5aa221f" x1="-1798.34" y1="-338.58" x2="-1803.25" y2="-240.7" gradientTransform="translate(962 222) scale(.5)" gradientUnits="userSpaceOnUse">
      <stop offset="0" stop-color="#fbecbc"/>
      <stop offset="1" stop-color="#dfc57e"/>
    </linearGradient>
    <linearGradient id="uuid-67abd9f9-8984-49f6-b52f-4b662c0018ff" x1="-1813.48" y1="-327.43" x2="-1816.44" y2="-234.48" xlink:href="#uuid-4b19b6d0-3e10-4bb7-b892-15279d0e5aad"/>
    <linearGradient id="uuid-c1d566d7-7be9-444d-9fef-6b70c65b2151" x1="-1846.29" y1="-330.63" x2="-1826.17" y2="-243.93" xlink:href="#uuid-4b19b6d0-3e10-4bb7-b892-15279d0e5aad"/>
    <linearGradient id="uuid-493656ad-6023-40a3-98c0-1cb649d0fbf2" x1="-1744.56" y1="-311.08" x2="-1750.32" y2="-244.33" xlink:href="#uuid-4b19b6d0-3e10-4bb7-b892-15279d0e5aad"/>
    <linearGradient id="uuid-3a1d0ae0-3d27-4d5c-8e04-1a69c6a1beab" x1="-1871.72" y1="-300.16" x2="-1839.36" y2="-242.64" xlink:href="#uuid-4b19b6d0-3e10-4bb7-b892-15279d0e5aad"/>
  </defs>
  <path d="M83.16,27.34c1.31,1.32,4.55,1.99,5.55,3.2,1.36,1.65,1.66,5.2,3.05,6.95,1.17,1.47,4.22,2.83,5.25,4.25,1.15,1.58,1.11,4.58,2.55,6.45,1.25,1.62,4.33,2.92,5.44,4.56,1.12,1.66,1.46,4.86,2.47,6.41.73,1.13,4.38,2.74,5.54,4.58.97,1.54,1.12,4.14,2.48,6.02,1.3,1.78,3.82,2.76,5,4.5,1.07,1.57,1.76,5.1,2.75,6.25.71.82,2.47,1,2.99,2.01.85,1.65-.37,2.97-.27,4.25.09,1.13,1.57,1.4,1.56,3,0,2.14-2.56,3.35-2.59,3.58-.13,1.11,1.3,2.49.08,3.97-.84,1.02-2.86.84-3.55,1.44-.84.73-.07,2.49-2.12,3.38s-2.95-.31-4.02-.05c-.83.2-1.49,1.77-3.14,1.93-3.03.29-8.26-1.77-12.46-1.49-3.22.21-7.76,2.47-9.51,2.53-1.08.04-4.65-.44-5.89-.63-.61-.1-1.4-.87-1.61-.85-.73.06-.37,2.72-4.48,2.45-3.77-.25-3.82.25-6.98.52-1.39.12-5.6-.75-5.78-.53-.22.28.11,1.96-.87,2.51-2,1.11-9.18.34-11.89,1-1.95.07-1.65-4.31-2.57-4.53-1.22-.29-2.45.46-3.48.49-.97.03-1.75-.58-2.83-.39-1.14.2-2.79,1.78-4.13,1.73-2.29-.09-2.99-4.21-3.57-4.34-1.94-.44-7.88,1.61-10.4,1.55s-7.75-2.12-9.96-1.88c-1.23.13-2.2,1.64-4.04,1.38-1.59-.23-1.5-1.79-2.28-2.26-1.04-.63-3.51-.17-4.54-1.46-.79-.99-.16-2.37-.7-3.3-.63-1.09-3.19-.92-3.23-3.28-.02-1.29,1.01-2.6.87-3.39-.1-.56-.95-1.14-1.17-1.8-1.09-3.24,1.72-3.23,2.19-4.87.3-1.08-.14-2.36.17-3.33.26-.8,4.67-3.36,5.65-4.85,1.15-1.73,1.26-4.06,2.55-5.95,1.37-1.99,4.07-3.13,5.23-4.77,1.18-1.69,1.4-4.34,2.49-6.01,1.15-1.76,4.71-3.34,5.53-4.59.93-1.41,1.34-4.55,2.26-6.12,1.05-1.8,4.23-3.07,5.44-4.56,1.27-1.56,1.63-5.18,3.04-6.96,1.23-1.55,4.05-2.56,5.24-4.26.91-1.31,1.71-4.68,2.62-5.63.94-.97,4.25-1.3,5.72-2.03,1.81-.9,4.53-4.25,6.01-4.53,1.34-.25,4.28.65,6.39.43s4.09-1.65,6-1.55,3.67,2.34,5.22,2.82c1.9.6,5.11.25,6.91,1.09,1.48.69,2.69,3.88,3.78,4.97Z" style="fill: #0f100e;"/>
  <path d="M48,66.75c-.35,1.4-1.38.24-1.75-.75-1.01-2.69-1.56-10.98-3-12.5s-8.32.02-8.76.84c-.34.64-.44,1.98-.38,2.75.47,6.17,3.45,15.32,4.74,21.8.46,2.34,1.1,4.7,1.15,7.1l-9.71-18.54c-1.45-1.4-7.76,1.47-8.2,2.88-.3.98-.16,2.2.14,3.18,2.92,7.94,9.09,16.37,11.87,24.12.29.8.53,1.48.39,2.36-2.49-.08-5.49,1.25-7.83,1.32-3.12.09-7.42-1.87-10.44-1.84-1.35.01-2.32,1.16-3.48,1.05-1.35-.13-1.33-1.81-2.25-2.29-.99-.51-3.36-.08-3.51-.24-.12-.13.22-2.08-.24-3.01-.55-1.11-2.72-1.3-2.79-1.8-.22-1.42,1.04-2.51.95-3.36-.1-.9-1.41-1.7-1.42-2.58,0-1.11,1.64-1.62,1.92-2.59.3-1.05-.11-2.29.18-3.32s4.19-3.16,5.15-4.35c1.42-1.77,1.54-4.99,2.75-6.62,1.03-1.39,3.93-2.57,5.24-4.39s1.43-4.33,2.78-6.22c1.34-1.87,4.44-3.08,5.44-4.56.99-1.45,1.14-4.2,2.13-5.87,1.27-2.14,4.21-3.02,5.45-4.55,1.19-1.48,1.67-5.01,2.77-6.73s3.91-2.7,5.22-4.28c1.12-1.35,1.97-5.12,2.61-5.64s4.07-.84,5.56-1.69c1.19-.68,3.73-3.56,4.67-3.84,1.49-.45,3.91.59,5.9.42,2.1-.18,4.43-1.93,6.37-1.41,1.31.35,3.3,2.48,4.73,2.8,1.77.4,4.27-.37,5.8.57.99.61,2.46,4.03,3.59,5.04,1.19,1.06,4.07,1.76,4.98,3.02.92,1.27,1.48,4.96,2.56,6.44,1.16,1.57,4.36,2.75,5.65,4.85.92,1.51,1.51,5.07,2.22,6.04.85,1.17,4.65,2.93,5.57,4.18,1.08,1.47,1.35,4.71,2.34,6.16,1.06,1.55,4.6,3.19,5.65,4.85s1.37,4.74,2.26,6.11c.76,1.16,4.59,2.77,5.47,4.15.92,1.44,1.1,4.54,2.31,6.19.73.99,3.09,1.66,3.14,2.24.05.53-1.02,1.69-.82,2.92.16.96,1.43,1.75,1.43,2.61,0,1.11-1.63,1.61-1.92,2.59s.13,3.3-.14,3.61c-.19.22-2.26.21-2.83.67s-.8,2.74-1.45,2.9c-1.06.25-2.59-.3-3.83.07-.62.19-.92.94-1.36,1.14-2.4,1.12-8.28-1.22-11.24-1.28-2.42-.05-4.8,1.21-7.25,1.04-.12-.82.24-1.52.48-2.27,2.77-8.72,8.94-18.78,11.17-27.32.79-3.01.32-4.02-2.55-5.26-6.86-2.98-5.96.66-8.35,5.38-.37.73.03,1.22-1.25.97.55-1.69,1.84-7,.17-8.04-.72-.45-3.35-.64-3.61-1.02-.97-1.39,2.25-5.04-1.56-6.7-1.4-.61-6.2-1.61-7.39-.63-1.34,1.12-2.59,13.75-3.27,16.5-.22.89-.13,1.66-1.35,1.38.86-5.83,1.14-11.83,1.5-17.75.15-2.38,1.68-4.56-1.76-5.74-4.7.32-7.6-2.59-8.24,3.75-.43,4.21-.26,8.56-1.01,12.75-.87.12-.47-1.14-.5-1.74-.1-2.58-.09-5.44-.02-8.03.05-1.96,1.55-5.7-.97-6.98-.76-.38-6.84-.45-7.69-.18-1.49.49-.59,4.14-.82,5.43-1.99-.49-4.62-.85-6.64-.4-.69.15-2.85,1.75-2.85,2.15,0,2.39.46,8.15,0,10Z" style="fill: url(#uuid-bdc40775-a01b-4ab5-b52e-c5cc497f5937);"/>
  <path d="M76,52.5c-.71,17.18-2.68,34.38-4,51.51l-4.48-.53,3.97-50.98h4.5Z" style="fill: url(#uuid-4b19b6d0-3e10-4bb7-b892-15279d0e5aad);"/>
  <path d="M64.5,52c-.1,5.25.12,10.52.02,15.77-.22,11.03-.54,23.55-1.52,34.48-.11,1.24.07,2.51,0,3.75-2.4.36-2.03-.37-2.43-2.32-2.84-13.84-1.47-31.31-.57-45.43.13-2.07-.09-4.18,0-6.25h4.5Z" style="fill: url(#uuid-8de95937-2bc4-460f-989a-3800b5aa221f);"/>
  <path d="M55.5,57.5c.42,9.27-.58,19.04,0,28.25.17,2.78.71,6.58,1.06,9.44.46,3.78,1.72,7.47,1.45,11.31l-4.5.5c-.03-6.61-2.09-13.16-2.5-19.75-.61-9.7.45-19.99,0-29.75h4.5Z" style="fill: url(#uuid-67abd9f9-8984-49f6-b52f-4b662c0018ff);"/>
  <polygon points="41.5 55.5 50.47 101.3 50.5 102 46.55 102.45 37.06 58.19 37 56 41.5 55.5" style="fill: url(#uuid-c1d566d7-7be9-444d-9fef-6b70c65b2151);"/>
  <path d="M75.5,100.5c2.96-14.09,5.24-28.37,8.01-42.49l4.47.51c.27.21-.17,3.86-.6,4.36-.34.4-1.43.4-1.9.85-.88.85-.79,6.87-.99,8.52-1.17,9.88-2.78,19-4.5,28.75-.42,1.51-4.29,1.01-4.5-.5Z" style="fill: #e4cd8f;"/>
  <polygon points="88.5 102 84.48 101.22 87.5 65.5 92.03 66.29 89 101.5 88.5 102" style="fill: url(#uuid-493656ad-6023-40a3-98c0-1cb649d0fbf2);"/>
  <path d="M29,69.5c.88,3.94,3.36,7.5,5.12,11.15.87,1.81,1.6,4.02,2.53,5.96,1.69,3.53,6.07,10.37,6.76,13.76.15.74.29,1.45-.14,2.14-.36.58-3.38,2.23-3.7.68l-15.01-31.03c-.22-1.07,4.28-2.88,4.44-2.66Z" style="fill: url(#uuid-3a1d0ae0-3d27-4d5c-8e04-1a69c6a1beab);"/>
  <path d="M92.99,96.5c-.33.28-1.32.09-1-.75,1.07-4.47.57-9.35,1.74-13.76,1.21-4.57,4.17-9.36,5.52-13.99l.56-.47c1.07.05,4.25.85,4.13,2.13l-10.95,26.84Z" style="fill: #e4cd8f;"/>
  <path d="M80,101c-.11.6.2,1.36-.23,2.02-.62.95-3.67-.47-4.76-.53-.26-.77.38-1.43.49-1.99l4.5.5Z" style="fill: #d8ba68;"/>
  <path d="M88.5,102l.5-.5-.5.5Z" style="fill: #d8ba68;"/>
</svg>