<?xml version="1.0" encoding="UTF-8"?>
<svg id="uuid-9686f1cb-f516-4521-8df8-9a1289435d70" data-name="fill_tomatosalad" xmlns="http://www.w3.org/2000/svg" viewBox="0 0 128 128">
  <path d="M29.63,79.41c-4.86-4.26-9.73-8.01-13.99-12.37C6.56,57.74,1.92,46.54,3,33.38c.39-4.8,3.71-7.88,7.38-10.45,6.39-4.45,13.77-6.38,21.23-8.08,14.21-3.24,28.67-3.44,43.06-2.69,13.4.7,26.77,2.59,38.92,9.03,4.81,2.55,9.33,5.94,10.07,11.72.8,6.26-.03,12.51-2.42,18.51-4.47,11.21-12.5,19.29-22.18,26-.68.47-1.39.9-2.01,1.3,1.49,7.66.14,11.05-6.81,14.07-10.99,4.78-22.44,6.08-34.15,5.18-7.05-.54-13.86-2.64-20.36-5.6-6.05-2.76-7.95-6.8-6.1-12.95Z" style="fill: #4a3726; stroke-width: 0px;"/>
  <path d="M64.52,52.04c-14.98-.47-28.66-1.27-41.73-6-3.34-1.21-6.51-3.04-9.5-5-3.84-2.52-4.1-7.27-.7-10.43,4.67-4.33,10.59-6.18,16.59-7.66,9.38-2.31,18.92-3.4,28.6-3.61,14.03-.29,27.92.39,41.53,4.08,5.42,1.47,10.73,3.3,14.92,7.26,3.54,3.35,3.18,7.44-.67,10.38-5.97,4.56-13,6.56-20.18,7.87-6.29,1.14-12.7,1.7-19.07,2.39-3.66.4-7.35.54-9.8.71Z" style="fill: #7b5b3b; stroke-width: 0px;"/>
  <path d="M12.85,49.61c24.18,12.32,76.67,12.4,100.73.18-3.02,11.45-20.36,27.1-41.56,30.07-29.7,4.17-53.34-14.22-59.17-30.25Z" style="fill: #a5805b; stroke-width: 0px;"/>
  <path d="M90,82.09v2.67c-17.78,8.29-35.42,8.3-53.2.03v-2.66c17.76,7.24,35.32,7.29,53.2-.04Z" style="fill: #7b5b3b; stroke-width: 0px;"/>
  <g>
    <ellipse cx="29.35" cy="41.69" rx="14.35" ry="7.51" style="fill: #ce4430; stroke-width: 0px;"/>
    <path d="M29.35,51.21c-9.17,0-16.35-4.18-16.35-9.51s7.18-9.51,16.35-9.51,16.35,4.18,16.35,9.51-7.18,9.51-16.35,9.51ZM29.35,36.18c-7.07,0-12.35,2.91-12.35,5.51s5.28,5.51,12.35,5.51,12.35-2.91,12.35-5.51-5.28-5.51-12.35-5.51Z" style="fill: #4a3726; stroke-width: 0px;"/>
  </g>
  <g>
    <ellipse cx="38.87" cy="28.86" rx="18.28" ry="9.57" style="fill: #ce4430; stroke-width: 0px;"/>
    <path d="M38.87,40.98c-11.68,0-20.83-5.32-20.83-12.12s9.15-12.12,20.83-12.12,20.83,5.32,20.83,12.12-9.15,12.12-20.83,12.12ZM38.87,21.84c-9.01,0-15.74,3.71-15.74,7.02s6.73,7.02,15.74,7.02,15.74-3.71,15.74-7.02-6.73-7.02-15.74-7.02Z" style="fill: #4a3726; stroke-width: 0px;"/>
  </g>
  <g>
    <ellipse cx="49.39" cy="38.34" rx="14.35" ry="7.51" style="fill: #ce4430; stroke-width: 0px;"/>
    <path d="M49.39,47.85c-9.17,0-16.35-4.18-16.35-9.51s7.18-9.51,16.35-9.51,16.35,4.18,16.35,9.51-7.18,9.51-16.35,9.51ZM49.39,32.83c-7.07,0-12.35,2.91-12.35,5.51s5.28,5.51,12.35,5.51,12.35-2.91,12.35-5.51-5.28-5.51-12.35-5.51Z" style="fill: #4a3726; stroke-width: 0px;"/>
  </g>
  <g>
    <ellipse cx="60.36" cy="23.55" rx="14.35" ry="7.51" style="fill: #ce4430; stroke-width: 0px;"/>
    <path d="M60.36,33.07c-9.17,0-16.35-4.18-16.35-9.51s7.18-9.51,16.35-9.51,16.35,4.18,16.35,9.51-7.18,9.51-16.35,9.51ZM60.36,18.04c-7.07,0-12.35,2.91-12.35,5.51s5.28,5.51,12.35,5.51,12.35-2.91,12.35-5.51-5.28-5.51-12.35-5.51Z" style="fill: #4a3726; stroke-width: 0px;"/>
  </g>
  <g>
    <ellipse cx="61.19" cy="46.28" rx="11.48" ry="6.01" style="fill: #ce4430; stroke-width: 0px;"/>
    <path d="M61.19,53.89c-7.33,0-13.08-3.34-13.08-7.61s5.75-7.61,13.08-7.61,13.08,3.34,13.08,7.61-5.74,7.61-13.08,7.61ZM61.19,41.88c-5.65,0-9.88,2.33-9.88,4.41s4.22,4.41,9.88,4.41,9.88-2.33,9.88-4.41-4.22-4.41-9.88-4.41Z" style="fill: #4a3726; stroke-width: 0px;"/>
  </g>
  <g>
    <ellipse cx="95.15" cy="37.39" rx="16.35" ry="8.56" style="fill: #ce4430; stroke-width: 0px;"/>
    <path d="M95.15,48.22c-10.44,0-18.62-4.76-18.62-10.83s8.18-10.83,18.62-10.83,18.63,4.76,18.63,10.83-8.18,10.83-18.63,10.83ZM95.15,31.11c-8.05,0-14.07,3.32-14.07,6.28s6.02,6.28,14.07,6.28,14.07-3.32,14.07-6.28-6.02-6.28-14.07-6.28Z" style="fill: #4a3726; stroke-width: 0px;"/>
  </g>
  <g>
    <ellipse cx="77.56" cy="41.69" rx="14.35" ry="7.51" style="fill: #ce4430; stroke-width: 0px;"/>
    <path d="M77.56,51.21c-9.17,0-16.35-4.18-16.35-9.51s7.18-9.51,16.35-9.51,16.35,4.18,16.35,9.51-7.18,9.51-16.35,9.51ZM77.56,36.18c-7.07,0-12.35,2.91-12.35,5.51s5.28,5.51,12.35,5.51,12.35-2.91,12.35-5.51-5.28-5.51-12.35-5.51Z" style="fill: #4a3726; stroke-width: 0px;"/>
  </g>
  <g>
    <ellipse cx="83.24" cy="28.01" rx="14.35" ry="7.51" style="fill: #ce4430; stroke-width: 0px;"/>
    <path d="M83.24,37.52c-9.17,0-16.35-4.18-16.35-9.51s7.18-9.51,16.35-9.51,16.35,4.18,16.35,9.51-7.18,9.51-16.35,9.51ZM83.24,22.49c-7.07,0-12.35,2.91-12.35,5.51s5.28,5.51,12.35,5.51,12.35-2.91,12.35-5.51-5.28-5.51-12.35-5.51Z" style="fill: #4a3726; stroke-width: 0px;"/>
  </g>
  <g>
    <path d="M80.36,64.66c.66-4.48,3.09-5.91,7.14-4.36,3.84-4.67,9.62-4.5,11.5.03,1.95-.14,3.87-.67,5.58-.29,2.08.46,2.77,2.45,2.78,4.66,2.1-.94,3.81-.15,5.49.88,9.58,5.88,13.08,14.86,12.17,25.54-1.07,12.51-9.1,21.2-21.39,23.89-10.02,2.19-19.82,1.65-28.75-3.87-9-5.56-12.72-14.04-12.14-24.41.52-9.19,4.37-16.56,12.54-21.32,1.56-.91,3.14-1.58,5.08-.74Z" style="fill: #4a3726; stroke-width: 0px;"/>
    <path d="M109.67,68.95c4.01,1.73,6.92,4.71,8.66,8.61,3.72,8.3,3.74,16.52-1.57,24.24-3.85,5.58-9.6,8.29-16.05,9.39-6.17,1.05-12.37.9-18.35-1.24-7.75-2.77-13.1-7.89-14.81-16.14-1.85-8.89.83-19.02,8.98-24.1.56-.35,1.15-.64,1.79-1-.08,4.6,1.69,5.7,10.18,6.5,5.19,5.18,6.53,5.19,10.64.17,2.02-.3,4-.43,5.88-.92,3.43-.89,4.27-2,4.66-5.51h0Z" style="fill: #ce4430; stroke-width: 0px;"/>
    <path d="M90.72,70.69c-2.29.3-4.73.69-7.42-.58,1.77-.7,3.21-1.26,4.66-1.83-1.08-1.35-1.98-2.47-2.88-3.59.11-.08.22-.16.32-.24,2.23.62,4.47,1.23,7.05,1.94-.17-1.68-.3-2.98-.45-4.52.88-.16,1.66-.31,2.74-.51.18,1.71.34,3.18.52,4.94,2.5-.67,4.9-1.32,7.8-2.1-1.16,1.5-2.09,2.69-3.22,4.15,1.55.54,3.04,1.05,4.82,1.67-2.6,1.21-5.09,1.09-7.7.66-.87,1.32-1.75,2.66-2.9,4.39-1.21-1.6-2.24-2.94-3.34-4.4Z" style="fill: #306038; stroke-width: 0px;"/>
  </g>
</svg>