<?xml version="1.0" encoding="UTF-8"?>
<svg id="fill_strawberrycreamcake" xmlns="http://www.w3.org/2000/svg" viewBox="0 0 128 128">
  <path d="M16.36,32.3c2.86-3.38,5.46-6.83,8.45-9.87,2.7-2.75,6.21-2.53,9.15-.03,1.74,1.48,3.54,2.91,5.83,4.79,7.32-.72,15.75-2.21,24.43-.78,8.41-1.51,16.91.2,25.41.8,1.33-1.19,2.82-2.55,4.33-3.9,3.14-2.8,6.84-2.92,9.77.11,2.69,2.78,5.03,5.9,7.38,8.71,3.05,1.56,6.25,2.86,9.07,4.73,4.21,2.79,6.51,6.77,6.21,12.06-.16,2.88-.12,5.78,0,8.66.14,3.75-.92,6.86-3.91,8.75,1.1,7.54,1.02,14.9.24,22.19-.46,4.31-3.87,7.03-7.41,9.23-5.33,3.32-11.25,5.14-17.34,6.35-23.87,4.75-47.72,4.72-71.46-.87-6.04-1.42-11.87-3.51-16.72-7.66-3.3-2.82-4.99-6.32-4.86-10.72.1-3.23-.06-6.46.05-9.68.06-1.82.42-3.64.72-6.08C-.02,62.52,1.82,53.93,1.95,45.73c.07-3.97,2.85-6.88,6.07-8.96,2.74-1.77,5.75-3.1,8.34-4.47Z" style="fill: #4a3726; stroke-width: 0px;"/>
  <path d="M16.59,39.36c4.86,6.61,14.88,8.47,21.59,4.23,3.29-2.07,4.24-4.48,3.8-10.25,5.84-.41,11.68-.83,18.09-1.28-1.86,2.08-3.44,3.69-4.81,5.46-1.13,1.46-2.21,3.03-2.97,4.71-2.85,6.28-.02,12.03,6.8,13.19,3.27.56,6.84.67,10.05-.05,7.45-1.66,9.96-7.85,6.02-14.39-1.81-3.01-4.22-5.66-6.64-8.85,5.92.39,11.78.78,17.5,1.15.2.45.34.6.32.74-1.05,7.12,1.64,11.05,8.8,12.02,3.04.41,6.28.14,9.32-.42,3.31-.61,5.75-2.77,6.98-6,6.29,1.93,8.44,4.77,8.44,11.02,0,2.55.15,5.11-.08,7.64-.09.95-.93,2.43-1.68,2.6-2.75.62-4.38,2.39-5.88,4.51-.64.89-1.29,1.8-2.09,2.55-2.16,2.03-3.88,2.18-6.47.78-.86-.46-1.76-.83-2.96-1.39-.75,1.18-1.44,2.11-1.97,3.11-1.3,2.48-3.26,4.09-5.99,4.71-2.03.46-3.76.21-5.19-1.65-1.98-2.55-4.7-2.38-6.52.2-2.96,4.19-6.05,4.28-8.83.14-1.25-1.86-2.92-1.9-4.71-1.48-2.29.54-4.08,3.1-4,5.57.06,1.74.26,3.47.37,4.83-.46.54-.54.7-.68.79-1.81,1.2-3.99,1.55-5.4.04-.9-.96-.97-3.08-.77-4.6.46-3.51-.68-5.75-3.95-6.53-2.09-.5-4.1-.36-5.38,1.75-2.13,3.53-8.09,2.47-9.89-.28-.51-.78-1.05-1.56-1.69-2.22-1.7-1.77-3.81-2-5.73-.71-3.4,2.28-5.91,2.01-8.25-1.27-1.38-1.93-2.78-2.52-5.13-1.99-3.31.74-7.37-2.09-7.99-6.28-.74-4.99-1.08-10.2-.43-15.17.51-3.86,4.59-5.32,8-6.94Z" style="fill: #de5b47; stroke-width: 0px;"/>
  <path d="M11.4,73.75c3.36.71,6.27.45,8.85,2.84,3.43,3.18,7.78,2.83,12,1.22,5.21,4.83,10.89,7.02,17.63,3.31,1.06,6.48,3.93,9.43,9.99,9.71,4.44.2,8.91-1.26,10.87-8.32,2.52.17,5.06.76,7.44.4,2.32-.36,4.5-1.69,7.01-2.71,6.94,3.97,12.61.78,18.06-4.45,4.88.98,9.17-.62,13.11-4.78,0,5.81.34,10.97-.12,16.05-.29,3.21-3.5,4.63-6.11,5.99-6.24,3.25-13.06,4.61-19.91,5.85-10.99,1.98-22.09,2.46-33.19,1.94-12.78-.6-25.51-1.83-37.46-7.02-1.24-.54-2.48-1.14-3.63-1.86-2.81-1.75-4.74-3.99-4.57-7.63.16-3.38.03-6.76.03-10.53Z" style="fill: #d5b5ad; stroke-width: 0px;"/>
  <path d="M56.94,46.4c2.14-2.95,4.37-6.01,6.79-9.35,3.29,3.37,6.46,6.01,6.92,10.32-3.45,3.33-10.72,3.08-13.71-.98Z" style="fill: #ce4430; stroke-width: 0px;"/>
  <path d="M29.39,26.97c2.84,3.2,6.22,5.74,6.45,10.17-3.61,3.05-10.36,2.89-13.13-.26.63-4.2,3.61-6.91,6.68-9.91Z" style="fill: #ce4430; stroke-width: 0px;"/>
  <path d="M92.33,38.24c.11-4.77,3.5-7.39,6.83-10.76,2,2.77,3.98,5.26,5.66,7.93.99,1.58.61,3.21-1.37,3.86-3.74,1.24-7.42,1.27-11.13-1.03Z" style="fill: #ce4430; stroke-width: 0px;"/>
  <path d="M57.04,65.21c-7.17-1-16.81-2.34-26.44-3.7-.75-.11-1.49-.32-2.2-.59-1.76-.66-2.58-2.01-2.14-3.81.42-1.72,1.8-2.47,3.51-2.22,2.26.33,4.48.93,6.73,1.29,21.84,3.54,43.54,3.44,65.07-2.27,1.35-.36,3.33-.2,4.39.58,1.94,1.44.87,4.55-1.86,5.14-7.52,1.63-15.05,3.4-22.67,4.34-7.22.89-14.55.79-24.39,1.25Z" style="fill: #4a3726; stroke-width: 0px;"/>
</svg>