<?xml version="1.0" encoding="UTF-8"?>
<svg id="fill_doghouse" xmlns="http://www.w3.org/2000/svg" viewBox="0 0 128 128">
  <path d="M107.22,74.39c0,12.53,0,25.06,0,37.59,0,6.46-2.31,8.79-8.67,8.79-23.07,0-46.14,0-69.21,0-6.15,0-8.51-2.39-8.52-8.65,0-11.68,0-23.35,0-35.03v-2.77c-.19-.14-.38-.27-.56-.41-1.12,1.21-2.18,2.49-3.38,3.61-3.12,2.92-6.74,2.87-9.89-.03-.28-.26-.54-.54-.81-.8-5.87-5.82-5.89-8.35-.1-14.14C23.39,45.22,40.69,27.88,58.01,10.55c4.46-4.47,7.61-4.42,12.1.08,17.57,17.6,35.15,35.2,52.74,52.79,4.48,4.48,4.54,7.62.15,12.12-.79.82-1.59,1.64-2.46,2.37-2.85,2.38-6.27,2.38-9.04-.1-1.31-1.17-2.41-2.58-3.61-3.88-.22.15-.44.3-.66.45Z" style="fill: #4a3726; stroke-width: 0px;"/>
  <path d="M42.35,113.79h-14.6v-46.33c11.91-12.19,23.9-24.48,36.25-37.12,12.2,12.48,24.25,24.8,36.33,37.16v46.24h-16.2c-.05-1.09-.14-2.1-.14-3.11-.01-11.3.01-22.61-.02-33.91-.02-9.3-7.15-17.75-16.24-19.77-13.3-2.95-25.77,7.79-25.44,20.79.28,10.92.06,21.84.06,32.77,0,1.02,0,2.04,0,3.28Z" style="fill: #7b5b3b; stroke-width: 0px;"/>
  <path d="M76.91,113.78h-27.54c-.07-1.04-.17-1.95-.17-2.87-.01-11.29-.02-22.58,0-33.86.01-6.97,5.05-12.65,12.22-13.8,6.1-.98,13.17,3.41,15.16,9.48.29.88.53,1.84.53,2.76.04,12.14.03,24.28.02,36.43,0,.55-.12,1.09-.22,1.87Z" style="fill: #3c2313; stroke-width: 0px;"/>
  <path d="M64.27,14.91c17.96,17.95,36.27,36.27,54.85,54.84-.73.79-1.72,1.86-2.76,2.98-17.37-17.37-34.61-34.61-51.8-51.8-17.59,17.59-34.87,34.88-52.38,52.39-1.47-1.54-2.44-2.54-3.1-3.24,18.49-18.49,36.86-36.85,55.19-55.18Z" style="fill: #3c2313; stroke-width: 0px;"/>
</svg>