<?xml version="1.0" encoding="UTF-8"?>
<svg id="uuid-93042bff-e167-4adb-a29c-f66b65e6d4b9" data-name="fill_grass_windrow" xmlns="http://www.w3.org/2000/svg" viewBox="0 0 128 128">
  <path d="M26.67,53.35C40.14,31.94,59.08,1.7,84.42,28.95c6.3,7.58,10.91,16.55,17.5,23.68,7.51,13.17,38.98,38.43,13.93,48.95-10.27,1.1-20.61.12-31.16.44-.94,4.45-2.71,8.14-7.89,7.85-7.77,0-15.54,0-23.31,0-6.36.25-7.66-2.2-9.25-7.86-11.9-1.77-33.75,5.35-40.03-7.18-2.46-4.81-2.05-9.61,1.14-13.98,7.16-9.08,13.11-19.37,21.32-27.48Z" style="fill: #4a3726; stroke-width: 0px;"/>
  <path d="M70.81,72.25c3.56-7.66,8.99-13.52,17.15-17.87-3.54,7-5.94,13.58-6.64,21.21,6.08-2.07,11.86-2.75,18.39-.94-12.18,6.04-19.84,15.01-22.3,28.18h-25.81c-2.52-11.38-8.98-19.71-19.54-24.81,3.16-1.9,6.84-1.79,16.13.54-1.24-9.69-7.77-16.26-12.95-23.03,8.97,2.98,15.95,8.67,22.06,16.78.37-11.69,3.06-21.97,8.02-31.35,1.47,10.37,2.95,20.82,4.44,31.26.34.42.69.39,1.05.04Z" style="fill: #589058; stroke-width: 0px;"/>
  <path d="M89.59,47.72c-6.76-.04-10.61,5-15.83,8.39-2.29-7.31,2.64-19.32-5.54-22.99-10.52-2.36-11.97,16.63-16.46,23.36-4.28-2.31-9.1-4.91-14.23-7.68,19.55-29.83,32.19-32.97,52.06-1.09Z" style="fill: #306038; stroke-width: 0px;"/>
  <path d="M41.35,95.02c-47.13,2.24-33.68-4.98-12.56-34.47,2.94.75,7.53,5.7,8.59,9.26-7.08-.11-16.7,4.77-10.84,12.27,5.34,3.96,11.98,6.2,14.81,12.95Z" style="fill: #306038; stroke-width: 0px;"/>
  <path d="M89.96,66.34c1.39-3.97,3-7.31,5.24-11.16,4.16,6.87,27.06,30.88,22.8,36.46-2.19,6.37-24.1,2.47-30.88,3.27,3.2-7.16,9.01-11.02,15.63-14.25,5.72-2.75,4.78-10.83-1.04-12.28-3.74-.85-7.56-1.33-11.75-2.04Z" style="fill: #306038; stroke-width: 0px;"/>
</svg>