<?xml version="1.0" encoding="UTF-8"?>
<svg id="uuid-2f5c18d7-25f6-4176-92cc-a32e7052f7bc" data-name="fill_pig" xmlns="http://www.w3.org/2000/svg" xmlns:xlink="http://www.w3.org/1999/xlink" viewBox="0 0 128 128">
  <defs>
    <linearGradient id="uuid-64e0a439-c94a-4835-9d4f-ebfd9e20bc04" x1="272.09" y1="37.45" x2="271.43" y2="223.44" gradientTransform="translate(-74) scale(.5)" gradientUnits="userSpaceOnUse">
      <stop offset="0" stop-color="#f9ccbc"/>
      <stop offset="1" stop-color="#f2b29f"/>
    </linearGradient>
    <linearGradient id="uuid-1f7020bd-5e01-4834-adb7-7bf7ceac2356" x1="271.44" y1="160.23" x2="271.68" y2="198.23" gradientTransform="translate(-74) scale(.5)" gradientUnits="userSpaceOnUse">
      <stop offset="0" stop-color="#db9690"/>
      <stop offset="1" stop-color="#c97971"/>
    </linearGradient>
  </defs>
  <path d="M104.06,59.57c.66,4.21,2.05,8.41,2.44,12.68.97,10.59.26,25.16-7.66,33.08-14.73,14.72-59.2,14.85-73.85-.06-10.33-10.51-8.37-31.9-4.96-45.02-.09-1.02-4.13-3.09-5.29-4.23-7.67-7.53-8.28-22.66-7.17-32.71.21-1.93.96-7.87,1.72-9.28,1.19-2.17,2.22,0,3.69.74,9.2,4.66,20.18.06,29.27,7.23,2.04,1.61,3.54,4.12,5.52,5.51,1.21.21,2.36-.49,3.49-.52,7.36-.25,14.15-.25,21.5,0,1.35.05,2.93,1.07,4.25.25,2.48-3.56,5.75-6.55,9.87-8.13,7.51-2.9,16.58-.69,23.82-4.18,1.65-.8,2.85-3.06,4.03-.91.83,1.51,1.65,8.65,1.78,10.72.77,12.47.1,28.39-12.44,34.82Z" style="fill: #0d0e0f;"/>
  <path d="M113,17.5c1.37,11.26,3.15,29.87-7.04,37.71-1.78,1.37-3.67,1.86-5.42,3.1-.29,1.08,2.11,7.67,2.42,9.48,1.86,10.71,2.11,27.58-6.18,35.73-14.06,13.82-60.94,14.21-72.18-3.37-5.78-9.04-5.24-22.56-3.45-32.76.37-2.09,2.3-7.52,1.79-9.06-.24-.71-3.85-2.32-4.89-3.12-10.2-7.86-8.41-26.43-7.04-37.71,2.55.06,4.84,1.38,7.38,1.87,8.18,1.58,15.39-.47,22.36,5.14,1.54,1.24,4.86,5.86,6.04,6.01l9.48-1.02c6.86-.08,13.73-.05,20.52,1.03l1.51-.5c3.01-4.28,8.14-8.86,13.52-9.48,4.48-.52,9.27-.31,13.81-1.19,2.54-.49,4.83-1.81,7.38-1.87Z" style="fill: url(#uuid-64e0a439-c94a-4835-9d4f-ebfd9e20bc04);"/>
  <path d="M58.87,76.62c9.17-1.55,20.43,6.72,21.15,16.11s-4.2,12.02-12.76,11.27c-5.18-.46-5.33-.46-10.51,0-10.09.89-15.24-4.58-12.11-14.61,1.53-4.9,9.25-11.93,14.23-12.77Z" style="fill: #121111;"/>
  <path d="M91,36.5c1.77-.05,8.3-1.73,8.53.76.25,2.73-2.22,1.22-3.71,1.28-2.8.11-5.81,1.89-8.52,2.45-2.37-2.21,1.55-6.9,3.46-8.47,3.55-2.92,6.01-1.94,9.85-3.15,1.12-.35,4.88-3.02,5.39-1.1.29,1.08-1.01,2.18-1.82,2.67-4.11,2.47-10.41.62-13.18,5.57Z" style="fill: #121111;"/>
  <path d="M24.53,38.47c-.59-4.59,5.81-1.62,8.47-2.21-1.62-4.45-14.93-3.3-15.02-7.5-.06-2.78,4.26.25,5.41.61,2.8.88,5.33.47,8.08,1.92,2.05,1.08,4.89,4.18,5.64,6.35,1.99,5.7-3.24,2.16-6.01,1.51-2.48-.58-4.26-.33-6.57-.68Z" style="fill: #121111;"/>
  <path d="M13.96,37.04c1.56,14.28,9.27,12.66,11.04,18.45-5.94,2.5-18.51-18.39-11.04-18.45Z" style="fill: #fdf1ec;"/>
  <path d="M92.38,21.63c1.25-.17,4.79-.68,4.12,1.62-.25.87-4.66,1.23-5.9,1.6-2.14.65-5.31,2.53-6.87,4.13-1.03,1.05-3.53,6.5-5.01,3.51.82-5.21,8.54-10.05,13.65-10.86Z" style="fill: #fdf1ec;"/>
  <path d="M22.03,86.48c-2.09-3.32-.8-13.97.52-17.18,3.91-3.69,1.84,5.2,1.46,6.96-.5,2.31,1.58,11.33-1.97,10.22Z" style="fill: #fdf1ec;"/>
  <path d="M84.14,74.65c5.75-4.8,9.8,6.91,2.1,6.81-3.05-.04-4.39-4.89-2.1-6.81Z" style="fill: #0d0e0f;"/>
  <path d="M39.87,74.63c3.23,3.22-1.19,9.07-5.13,5.88s1.45-9.55,5.13-5.88Z" style="fill: #0d0e0f;"/>
  <path d="M62.95,31.42c.56,1.18-.52,2.28-1.83,2.09-4.26-.06-8.52.19-12.76.44-.55.02-1.3-.02-1.66-.33-1.47-3.6,10.12-2.71,12.24-2.66,1.42.08,2.67.05,3.41.08.23.03.41.11.54.29l.06.09Z" style="fill: #fdf1ec;"/>
  <path d="M48.19,87.96c2.86-4.31,10.05-9.61,15.34-8.74,4.35.72,10.6,5.54,12.48,9.52,3.12,6.59,1.97,12.53-6.26,12.66-2.3.04-6.08-1.32-7.92-1.24-2.19.09-5.36,1.29-7.94,1.21-4.97-.15-9.06-3.6-7.54-8.74.01-.04.74-3.02,1.84-4.67Z" style="fill: url(#uuid-1f7020bd-5e01-4834-adb7-7bf7ceac2356);"/>
  <path d="M48,89.73c.72-1.44,3.09-.87,3.43.55.17.79-.59,1.47-.98,2.24-1.42,2.16,1.35,4.9.07,6.5-.26.29-.64.46-1.03.29-2.83-2.08-3.35-6.58-1.58-9.43l.1-.16Z" style="fill: #f8c3b3;"/>
  <path d="M53.02,90.04c.81-1.29,2.92-1.52,4.01-.45,1.49,1.57.78,5.52-1,6.57-3.12,1.45-4.21-4.02-3.1-5.98l.09-.14Z" style="fill: #121111;"/>
  <path d="M67.21,89.14c.32-.25.71-.3,1.1-.17,1.8.53,3.47,4.58,2.06,6.68-3.07,3.72-5.34-4.69-3.26-6.43l.1-.09Z" style="fill: #0d0e0f;"/>
</svg>