<?xml version="1.0" encoding="UTF-8"?>
<svg id="uuid-10b72804-cf68-40ea-9b9c-5eb8b147fb0d" data-name="fill_carrot" xmlns="http://www.w3.org/2000/svg" viewBox="0 0 128 128">
  <path d="M44.81,40.87c-3.2-1.59-5.87-2.74-8.37-4.19-6.27-3.65-9.12-11.33-2.84-17.39,2.27-2.19,3.68-4.49,3.87-7.97.38-7.22,9.23-13.23,16.27-9.57,3.05,1.58,5.79,3.77,9.19,6.02,3.06-.66,6.13,1.09,8.88,3.3,3.14,2.52,3.93,6.2,2.99,9.88-.83,3.28-2.49,6.34-4.41,11.05.81.47,2.16,1.37,3.6,2.08,7.17,3.56,12.11,9.23,14.6,16.68,1.47,4.39,2.38,9.14,2.47,13.76.12,6.19.7,12.14,2.48,18.1,1.12,3.73,1.18,7.78,1.71,11.68.76,5.64,1.31,11.32,2.31,16.92,1.58,8.91-2.09,15.54-11.4,16.13-4.72.3-8.49-3.11-11.05-7.08-3.53-5.48-6.68-11.2-10.15-16.71-6.6-10.48-13.43-20.83-19.92-31.38-1.43-2.32-2.45-5.23-2.59-7.92-.29-5.5,0-11.05.37-16.56.14-2.06,1.16-4.07,2-6.82Z" style="fill: #4a3726; stroke-width: 0px;"/>
  <path d="M49.29,44.47c2.2.29,4.08.22,5.71.82,4.75,1.74,7.51.97,10.31-3.25.85-1.28,1.74-2.53,2.67-3.88,4.64.65,8.11,3,10.67,6.22,4.5,5.63,6.51,12.27,7.26,19.49.99,9.43,2.67,18.78,4.02,28.17,1.06,7.39,2.24,14.78,3,22.2.33,3.17-1.35,5.92-4.23,7.46-2.85,1.53-5.34.18-7.13-2.02-1.9-2.32-3.46-4.92-5.08-7.46-8.1-12.73-16.06-25.55-24.29-38.2-5.92-9.1-6-18.6-2.92-29.54Z" style="fill: #dd6534; stroke-width: 0px;"/>
  <path d="M35.12,27.31c.88-4.75,2.68-5.61,9.81-6.8-.6-1.24-1.06-2.41-1.7-3.48-1.55-2.61-1.39-5.16.32-7.54,1.8-2.51,4.38-3.52,7.38-2.76,2.91.74,4.99,2.45,5.38,5.69.14,1.18.44,2.35.74,3.9,1.03-.6,1.79-.85,2.26-1.36,2.02-2.25,4.2-3.31,7.06-1.47,2.98,1.92,4.07,4.63,2.8,8.11-1.1,3.04-2.51,5.98-3.92,8.89-1.22,2.5-2.63,4.91-3.98,7.35-1.43,2.58-3.67,2.83-6.06,1.74-5.48-2.52-10.99-5.01-16.28-7.89-1.65-.9-4.05-2.4-3.81-4.37Z" style="fill: #7fa95f; stroke-width: 0px;"/>
</svg>