<?xml version="1.0" encoding="UTF-8"?>
<svg id="uuid-31540c46-ad45-4b60-9029-8f0612f0490f" data-name="fill_rice" xmlns="http://www.w3.org/2000/svg" xmlns:xlink="http://www.w3.org/1999/xlink" viewBox="0 0 128 128">
  <defs>
    <linearGradient id="uuid-98e2ab16-0f34-4437-ba0a-d94e9b260f1b" x1="-5099.8" y1="199.61" x2="-5122.08" y2="381.08" gradientTransform="translate(2664 -74) scale(.5)" gradientUnits="userSpaceOnUse">
      <stop offset="0" stop-color="#68a866"/>
      <stop offset="1" stop-color="#296d27"/>
    </linearGradient>
    <linearGradient id="uuid-8ca416d6-f571-4024-9bb2-785ff9d8a7cc" x1="-5190.48" y1="195.15" x2="-5145.32" y2="296.16" gradientTransform="translate(2664 -74) scale(.5)" gradientUnits="userSpaceOnUse">
      <stop offset="0" stop-color="#6baa69"/>
      <stop offset=".44" stop-color="#6aa968"/>
      <stop offset=".85" stop-color="#296d27"/>
      <stop offset="1" stop-color="#266b24"/>
    </linearGradient>
    <linearGradient id="uuid-88afad41-9179-4b62-bc36-f1343d922e05" x1="-5159.89" y1="222.35" x2="-5138.9" y2="319.76" gradientTransform="translate(2664 -74) scale(.5)" gradientUnits="userSpaceOnUse">
      <stop offset="0" stop-color="#64a462"/>
      <stop offset=".8" stop-color="#286d26"/>
      <stop offset="1" stop-color="#266b24"/>
    </linearGradient>
    <linearGradient id="uuid-7a12ba1f-ddcf-4d57-af9d-4031634711da" x1="-5264.28" y1="310.63" x2="-5286.53" y2="342.24" gradientTransform="translate(2664 -74) scale(.5)" gradientUnits="userSpaceOnUse">
      <stop offset="0" stop-color="#a69088"/>
      <stop offset="1" stop-color="#6c5a54"/>
    </linearGradient>
    <linearGradient id="uuid-6fc42efc-cbb7-4cc5-a614-9ecb14b0d439" x1="-5191.8" y1="220.49" x2="-5215.84" y2="254.54" gradientTransform="translate(2664 -74) scale(.5)" gradientUnits="userSpaceOnUse">
      <stop offset="0" stop-color="#a89088"/>
      <stop offset="1" stop-color="#6b5953"/>
    </linearGradient>
    <linearGradient id="uuid-300c6b20-343e-44a4-a67f-2cd58c27f817" x1="-5234.01" y1="191.23" x2="-5254.68" y2="219.86" gradientTransform="translate(2664 -74) scale(.5)" gradientUnits="userSpaceOnUse">
      <stop offset="0" stop-color="#a58f87"/>
      <stop offset="1" stop-color="#63524c"/>
    </linearGradient>
    <linearGradient id="uuid-3607a09e-1eb9-4e76-903d-9fa876b7e1a1" x1="-5259.1" y1="260.62" x2="-5282.53" y2="293.31" gradientTransform="translate(2664 -74) scale(.5)" gradientUnits="userSpaceOnUse">
      <stop offset="0" stop-color="#a68f87"/>
      <stop offset="1" stop-color="#695852"/>
    </linearGradient>
    <linearGradient id="uuid-fc8c495c-cb80-4964-80f9-68c9fb33eae7" x1="-5219.27" y1="228.12" x2="-5245.54" y2="265.63" gradientTransform="translate(2664 -74) scale(.5)" gradientUnits="userSpaceOnUse">
      <stop offset="0" stop-color="#a79088"/>
      <stop offset="1" stop-color="#66534e"/>
    </linearGradient>
    <linearGradient id="uuid-8bbcb4de-7b31-40c0-af78-9e6f3f7f3bb6" x1="-5236.67" y1="280.84" x2="-5261.25" y2="315.85" gradientTransform="translate(2664 -74) scale(.5)" gradientUnits="userSpaceOnUse">
      <stop offset="0" stop-color="#a08a84"/>
      <stop offset="1" stop-color="#615049"/>
    </linearGradient>
    <linearGradient id="uuid-8546d89e-b7fb-494f-8ead-7703a04e2ea1" x1="-5291.6" y1="294.96" x2="-5311.33" y2="323.23" gradientTransform="translate(2664 -74) scale(.5)" gradientUnits="userSpaceOnUse">
      <stop offset="0" stop-color="#99837c"/>
      <stop offset="1" stop-color="#675550"/>
    </linearGradient>
    <linearGradient id="uuid-4b2971fb-2b2a-4777-9897-40d87979b3a3" x1="-5251.24" y1="221.83" x2="-5270.18" y2="248.78" gradientTransform="translate(2664 -74) scale(.5)" gradientUnits="userSpaceOnUse">
      <stop offset="0" stop-color="#947f77"/>
      <stop offset="1" stop-color="#62524b"/>
    </linearGradient>
    <linearGradient id="uuid-a1ae183d-7732-43c0-a860-0e3cdf0118ab" x1="-5286" y1="249.07" x2="-5305.83" y2="277.48" gradientTransform="translate(2664 -74) scale(.5)" gradientUnits="userSpaceOnUse">
      <stop offset="0" stop-color="#957f79"/>
      <stop offset="1" stop-color="#63524b"/>
    </linearGradient>
  </defs>
  <path d="M70,33.5c2.8,5.49,1.1,15.28-1.56,20.69-.67,1.37-2.36,3.14-2.71,4.29-2.01,6.47-.96,12.92-7.22,18.28-3.56,3.04-6,2.65-10,.74-1.52,6.24-6.36,15.4-14,13-.68,6.15-6.91,19.68-14.79,16.04-4.17-1.92-4.53-8.6-4.22-12.54-3.21,1.99-5.88,2.98-9.01.26-5.67-4.94-1.8-19.22,2.48-24.52-9.17-6.38,1.11-18.59,7.58-22.96,3.91-2.64,5.06-1.8,8.24-5.76,1.32-1.65,2.69-3.3,4.21-4.78-2.51-1.65-4.47-3.98-3.66-7.15,2.5-9.68,22.62-11.7,29.83-7.02.97.63,2.1,2.4,3.07,2.42.67.01,3.55-1.45,4.76-1.75,4.52-1.15,8.84-1.48,13.51-1.24l-.87-16.19c1.99-4.06,4-2.75,5.95.35,4.61,7.35,6.4,15.95,10.31,22.69,1.02,1.75,2.84,3.54,4.01,5.49,3.39,5.67,5.35,12.81,7.1,19.15l5.24-19c1.33-2.75,3.54-14.11,5.55-15.44s3.52-.27,4.18,1.74c.94,2.87,1.38,12.5,1.52,15.95.43,10.43-.66,22.56-2.06,32.93-2.57,19.01-7.55,38.27-14.42,56.07-2.38.8-3.68.16-4.3-2.23-1.72-6.68-.5-14.8-1.83-21.17-.65-3.11-4.39-9.66-5.77-13.23-6.77-17.54-10.93-36.45-13.12-55.13h-8Z" style="fill: #0a0d0d;"/>
  <path d="M116.55,34.61c1.34,29.16-5.33,58.06-13.85,85.73-.25.69-.41,1.5-1.06,1.87-.59.02-.6-.79-.7-1.52-.2-3.21-.36-6.44-.53-9.67-1.57-30.22,5.06-60.34,14.06-88.92.69-2.46,1.25.94,1.44,1.72.65,3.45.46,7.22.63,10.6v.19Z" style="fill: url(#uuid-98e2ab16-0f34-4437-ba0a-d94e9b260f1b);"/>
  <path d="M71.92,23.59c5.07.4,7.06.81,10.06,1.64,11.79,3.1,16.02,18.82,19.27,30.22,1.99,6.88-1.08,16-2.09,24.02-.04.83-.64,3.85-1.01,2.47-1.15-13.27-4.06-40.77-14.73-49.12-3.64-2.16-8.52-2.69-12.63-2.5-1.37.11-3.58-.5-5.25-.91-3.99-.82-7.5,2.04-9.33,5.4-.28.49-.55.79-1.06.7-.59-.14-1.98-.65-1.25-1.37.85-.73,1.95-1.44,2.66-2.36,1.11-1.28,1.23-3.29,1.95-4.22,2.52-2.21,5.59-3.11,8.75-3.58l4.67-.4Z" style="fill: url(#uuid-8ca416d6-f571-4024-9bb2-785ff9d8a7cc);"/>
  <path d="M96.25,93.39c-.47.06-1.21-1.77-1.51-2.47-6.64-16.94-11.15-35.32-13.57-53.53-.13-.9-.33-2.71.42-2.96,4.44.81,8.04,13.73,9.28,17.9,3.38,12.38,4.64,25.47,5.61,38.31.06.76.15,2.5-.2,2.74l-.04.02Z" style="fill: url(#uuid-88afad41-9179-4b62-bc36-f1343d922e05);"/>
  <path d="M18.17,92.51c.57-4.54,2.05-9.3,5.18-12.79,4.78-5.33,8.71-1.45,8.88,4.45.19,4.94-1.33,11.53-3.84,15.86-1.52,2.92-5.62,6.04-8.55,3.19-2.43-2.64-1.99-7.09-1.69-10.5l.02-.21Z" style="fill: url(#uuid-7a12ba1f-ddcf-4d57-af9d-4031634711da);"/>
  <path d="M60.02,59.18c-6.02,1.1-5.23-8.07-5.01-12.64.51-4.76,3.27-12.58,7.72-14.34,11.11-1.64,4.3,25.16-2.57,26.94l-.15.04Z" style="fill: url(#uuid-6fc42efc-cbb7-4cc5-a614-9ecb14b0d439);"/>
  <path d="M53.01,24c6.33,3.89.62,8.44-4.46,10.11-5.08,1.51-20.68,3.57-20.66-3.86.03-8.35,19.84-9.49,25.11-6.24Z" style="fill: url(#uuid-300c6b20-343e-44a4-a67f-2cd58c27f817);"/>
  <path d="M23.63,60.12c1.24-1.92,2.53-3.61,4.32-4.71,2.54-1.57,7.2-3.04,8.38.67,1.64,5.34-2.59,10.37-4.61,15.24-1.79,3.41-5.6,5.29-9.2,6.34-2.82.45-3.66-2.42-3.74-5.15-.11-4.6,2.3-8.29,4.73-12.21l.12-.18Z" style="fill: url(#uuid-3607a09e-1eb9-4e76-903d-9fa876b7e1a1);"/>
  <path d="M40.14,49.82c1.65-5.05,7.85-13.52,13.7-12.03.48.14.65.47.56.96-.75,3.13-2.03,6.38-2.29,9.64-.2,1.65.23,3.29.23,4.89-.01,1.07-.69,2.51-1.29,3.47-3.3,5.49-11.64,10.1-12.56,1.78-.28-2.09.67-5.71,1.6-8.57l.05-.14Z" style="fill: url(#uuid-fc8c495c-cb80-4964-80f9-68c9fb33eae7);"/>
  <path d="M35.04,69.24c4.02-9.75,1.88-2.2,10.04-4.13,1.12-.11,2-.5,1.94.48-.04,2.71.07,5.76-.04,8.42-.37,1.89-2.32,7.14-3.79,9.65-1.45,2.59-4.75,5.96-7.79,3.91-.77-.87-.27-2.61-.48-4.12-.09-.87-.25-1.73-.48-2.58-1.77-3.86-1.61-8.33.54-11.5l.06-.12Z" style="fill: url(#uuid-8bbcb4de-7b31-40c0-af78-9e6f3f7f3bb6);"/>
  <path d="M7.51,78.32c.71-1.97,2.06-5.76,3.73-7.85.91-.89,2.7-1.11,3.97-1.34.45-.06.81-.03,1.01.15.28.25.28.76.25,1.15-.19,2.11-.77,4.15.08,6.17,1,2.48,4.36,3.13,2.03,6.14-2.09,3.44-1.51,7.09-4.88,9.43-2.48,1.95-5.62,1.36-6.76-1.72-1.68-3.49-.36-9.1.53-12.02l.04-.13Z" style="fill: url(#uuid-8546d89e-b7fb-494f-8ead-7703a04e2ea1);"/>
  <path d="M31.81,37.83c.85-.41,1.58-.1,2.54-.06.74.03,1.84.01,3.14.02,2.78.1,5.67-.22,7.21.17.21.13.18.35-.01.66-.51.77-1.33,1.64-1.93,2.42-2.99,3.33-3.77,8.17-7.97,10.21-4.28,2.34-10.8,3.09-10.38-2.38,0-1.35,1.51-8.21,7.39-11.03Z" style="fill: url(#uuid-4b2971fb-2b2a-4777-9897-40d87979b3a3);"/>
  <path d="M16.63,50.25c.92-.64,5.47-5.22,5.32-1.83-.1,1.92.79,3.57,1.85,5.21.23.37.49.83.49,1.23.01.52-.39.92-.77,1.3-2.28,2.18-3.98,7.27-5.41,9.03-1.78,1.89-6.16,2.8-8.36,1.91-.96-.48-1.61-1.35-2.02-2.38-1.12-3.45,1.34-8.5,3.79-10.75,1.55-1.62,3.18-2.34,4.98-3.63l.14-.11Z" style="fill: url(#uuid-a1ae183d-7732-43c0-a860-0e3cdf0118ab);"/>
  <path d="M49.51,64.51c.33-2.51,1.68-3.86,3.11-5.76.21-.27.43-.62.76-.61.9.35,2.45,2.3,3.3,2.89.69.53,1.71.81,2.56.79.91.12,3.2-1.09,3.28.43-.35,4.56-4.08,13.54-8.7,14.39-1.92.23-3.9-2.11-4.24-3.97-.33-2.33-.31-5.79-.09-7.97l.03-.18Z" style="fill: #77645d;"/>
  <path d="M86.68,24.59c-.77.02-2.45-.7-3.46-.94-1.13-.35-2.34-.61-3.19-1.45-1.39-1.35-1.03-4.45-1.18-6.83-.11-2.7-.61-5.67-.52-8.33,0-3.11,2.4,2.82,2.9,3.42,1.83,3.16,2.96,6.22,4.42,9.65.45,1.1,1,2.46,1.25,3.47.14.58.11.91-.16.99l-.08.02Z" style="fill: #67a566;"/>
  <path d="M69.94,25.01c3.92-.17,8-.2,11.4,1.21,1.85,1.09,4.68,2.29,5.83,4.04.81,3.05-4.41-.44-5.57-.8-4.57-1.97-9.26-1.39-14.05-1.34-1.86-.12-1.69-1.54-.05-2.39.7-.35,1.47-.56,2.26-.69l.18-.03Z" style="fill: #82bf78;"/>
  <path d="M41.06,22.97c1.83.13,4.87,2.51,1.78,3.4-2.04.6-4.49.7-6.54,1.58-1.84.68-3.29,2.03-4.89,3.04-.75.45-1.84.71-2.34-.14-1.17-4.82,7.96-8.29,11.8-7.9l.19.03Z" style="fill: #c4afa7;"/>
  <path d="M8.95,65.65c-.95-.81-.57-2.54-.4-3.7.83-4.53,2.23-6.66,5.54-9.57,1.08-1.11,4.24-1.91,3.18.68-1.14,2.02-3.3,3.52-4.42,5.6-.41.68-.75,1.4-.98,2.16-.63,1.92-.22,5.5-2.81,4.91l-.11-.07Z" style="fill: #c4afa7;"/>
  <path d="M40.73,49.96c.57-1,3.67-4.73,4.1-2-.29,2.45-2.03,4.46-2.48,6.92-.6,1.89.38,3.87.2,5.75-.24,1.17-1.76,1.35-2.4.18-1.23-3.29-1.17-7.67.5-10.7l.1-.15Z" style="fill: #c4afa7;"/>
  <path d="M60.65,56.84c-.34,1.41-2.22,1.05-3.06.23-2.09-1.76-2.27-4.61-2.19-7.15.06-2.21.09-4.54,1.72-5.86,1.36-.98,2.18.2,1.97,1.75-.21,2.1-.9,4.75-.03,6.78.52,1.46,1.76,2.7,1.61,4.11l-.03.14Z" style="fill: #c4afa7;"/>
  <path d="M18.91,92.19c.24-.59.48-1.18.84-1.62,1.04-1.23,2.43-.47,2.2,1.02-.47,3.5-1.09,7.28,1.78,9.79.44.55.3,1.38-.25,1.59-1.32.52-2.69-.61-3.37-1.68-1.8-2.51-2.32-6.05-1.26-8.92l.07-.18Z" style="fill: #c4afa7;"/>
  <path d="M9.02,79.44c.81-.69,2.51-.58,2.26.76-.3,2.06-1.5,4.09-1.14,6.09.19,1.35.96,2.62,1.27,3.92.13.56.03,1.04-.43,1.34-2.82.64-3.97-4.1-4-6.42-.29-2.15.56-4.08,1.9-5.58l.14-.11Z" style="fill: #c4afa7;"/>
  <path d="M34.82,79.42c-2.2-2.89-.5-8.5,1.71-11.05,3.29-3.47,3.24.12,1.97,2.75-1.18,1.95-.62,9.28-3.58,8.37l-.1-.07Z" style="fill: #c4afa7;"/>
  <path d="M29.63,40.56c.79.02,1.85.51,2.14,1.24.19.55-.11,1.17-.59,1.86-.87,1.21-2.22,2.71-2.5,4.26-.23.96-.17,1.96-.22,2.92-.05.43-.28.75-.64.82-1.6.16-1.94-1.89-1.99-3.13-.27-3.32,1.33-5.92,3.66-7.93l.14-.04Z" style="fill: #c4afa7;"/>
  <path d="M50.07,70.93c-.25-1.75-.76-6.99,1.94-6.95,1.54.83.37,3.97.76,5.73.17,1.63,2.03,4.12,1.2,5.06-2.06,1.33-3.41-2.15-3.85-3.66l-.04-.18Z" style="fill: #c4afa7;"/>
  <path d="M19,92.5c-.12.35-.01.8-.5,1,0-.11-.04-.43,0-1h.5Z" style="fill: #77645d;"/>
  <path d="M106.87,65.7c-.66.09-1.42-.28-1.76-.85-.34-.69.04-1.44.32-2.86.39-1.72.94-4.18,1.54-6.8.85-3.74,1.68-7.45,2.51-11.14.51-1.83.5-4.34,2.31-3.28,1.58,2.04-.03,5.04-.52,7.29-.83,2.72-1.14,4.29-1.69,7.52-.49,2.73-1.02,5.92-1.64,8.53-.2.85-.43,1.43-.97,1.58l-.1.02Z" style="fill: #82bf78;"/>
  <path d="M20.37,74.82c-.33-.34-.43-.94-.44-1.45-.05-3.21.41-6.67,2.71-9.19.79-1.07,2.71-2.02,2.58.13-.21,1.77-1.33,3.63-1.96,5.32-.88,1.72-.18,4.57-2.05,5.42-.34.05-.38.09-.75-.14l-.09-.08Z" style="fill: #c4afa7;"/>
</svg>