<?xml version="1.0" encoding="UTF-8"?>
<svg id="uuid-f96eaf94-b0c8-4069-b8ba-237526012374" data-name="fill_oilsunflower" xmlns="http://www.w3.org/2000/svg" xmlns:xlink="http://www.w3.org/1999/xlink" viewBox="0 0 128 128">
  <defs>
    <linearGradient id="uuid-4e80db3d-4582-400f-bc32-06b157c241fc" x1="52.98" y1="3.81" x2="50.88" y2="124.02" gradientUnits="userSpaceOnUse">
      <stop offset="0" stop-color="#eaf6fb"/>
      <stop offset="1" stop-color="#d5edf5"/>
    </linearGradient>
    <linearGradient id="uuid-6d1a4845-abad-4764-8637-7ce69b50f4af" x1="403.46" y1="-870.15" x2="403.56" y2="-803.15" gradientTransform="translate(-148 518) scale(.5)" gradientUnits="userSpaceOnUse">
      <stop offset="0" stop-color="#faf294"/>
      <stop offset="1" stop-color="#eecd25"/>
    </linearGradient>
    <linearGradient id="uuid-5dd3c0d6-5876-40bb-aeef-42ecc3a8540e" x1="402.32" y1="-896.96" x2="402.29" y2="-877.03" gradientTransform="translate(-148 518) scale(.5)" gradientUnits="userSpaceOnUse">
      <stop offset="0" stop-color="#faf294"/>
      <stop offset="1" stop-color="#f1d742"/>
    </linearGradient>
    <linearGradient id="uuid-63c86a60-beca-40d4-84af-9546156be217" x1="-1327.01" y1="635.71" x2="-1352.05" y2="643.34" gradientTransform="translate(740 -222) scale(.5)" gradientUnits="userSpaceOnUse">
      <stop offset="0" stop-color="#eece25"/>
      <stop offset=".29" stop-color="#eece27"/>
      <stop offset="1" stop-color="#faf18f"/>
    </linearGradient>
    <linearGradient id="uuid-9f2861c0-bcf6-4256-9fa2-fdf7364cc2dc" x1="-1234.44" y1="611.42" x2="-1262.14" y2="611.77" gradientTransform="translate(740 -222) scale(.5)" gradientUnits="userSpaceOnUse">
      <stop offset="0" stop-color="#f9ee87"/>
      <stop offset="1" stop-color="#efd02b"/>
    </linearGradient>
    <linearGradient id="uuid-9f1641d1-003f-40c3-b938-ed3c01f90836" x1="-1272.35" y1="652.92" x2="-1256.84" y2="674.43" gradientTransform="translate(740 -222) scale(.5)" gradientUnits="userSpaceOnUse">
      <stop offset="0" stop-color="#eecd25"/>
      <stop offset=".32" stop-color="#efcf29"/>
      <stop offset="1" stop-color="#faf18e"/>
    </linearGradient>
    <linearGradient id="uuid-5918e0f6-2ac0-40b7-b5fc-c2b96c810fd1" x1="-1259.32" y1="635.05" x2="-1234.63" y2="644.73" gradientTransform="translate(740 -222) scale(.5)" gradientUnits="userSpaceOnUse">
      <stop offset="0" stop-color="#eece25"/>
      <stop offset=".34" stop-color="#efcf29"/>
      <stop offset="1" stop-color="#f9f08c"/>
    </linearGradient>
    <linearGradient id="uuid-dc3eb30a-3c61-45a3-ba49-4acaf4541afa" x1="-1313.58" y1="653.41" x2="-1329.91" y2="674.31" gradientTransform="translate(740 -222) scale(.5)" gradientUnits="userSpaceOnUse">
      <stop offset="0" stop-color="#eece25"/>
      <stop offset=".28" stop-color="#eece26"/>
      <stop offset="1" stop-color="#faf292"/>
    </linearGradient>
    <linearGradient id="uuid-14f43f77-88ac-4fb5-9a18-64c996ed93a6" x1="-1329.52" y1="573.27" x2="-1314.32" y2="595.05" gradientTransform="translate(740 -222) scale(.5)" gradientUnits="userSpaceOnUse">
      <stop offset="0" stop-color="#faf294"/>
      <stop offset=".72" stop-color="#efd02a"/>
      <stop offset="1" stop-color="#eecd25"/>
    </linearGradient>
    <linearGradient id="uuid-88f6f516-f0e9-437e-b889-8c7a2c2fe78a" x1="-1352.53" y1="605.15" x2="-1327.08" y2="613.46" gradientTransform="translate(740 -222) scale(.5)" gradientUnits="userSpaceOnUse">
      <stop offset="0" stop-color="#faf292"/>
      <stop offset=".7" stop-color="#efcf2a"/>
      <stop offset="1" stop-color="#eece25"/>
    </linearGradient>
    <linearGradient id="uuid-2d1b5b36-7f40-4302-805f-e0aaad01dc62" x1="-1256.16" y1="574.42" x2="-1271.82" y2="595.95" gradientTransform="translate(740 -222) scale(.5)" gradientUnits="userSpaceOnUse">
      <stop offset="0" stop-color="#faf294"/>
      <stop offset="1" stop-color="#f0d231"/>
    </linearGradient>
    <linearGradient id="uuid-35023699-3c89-4fc2-b44f-00b4412465fb" x1="-1292.97" y1="562.32" x2="-1292.77" y2="588.28" gradientTransform="translate(740 -222) scale(.5)" gradientUnits="userSpaceOnUse">
      <stop offset="0" stop-color="#f9ed84"/>
      <stop offset=".67" stop-color="#efcf29"/>
      <stop offset="1" stop-color="#eece25"/>
    </linearGradient>
    <linearGradient id="uuid-5ea428b1-13d2-4d7f-b34e-d5d8c52a2bec" x1="-1292.05" y1="659.98" x2="-1292.65" y2="685.66" gradientTransform="translate(740 -222) scale(.5)" gradientUnits="userSpaceOnUse">
      <stop offset="0" stop-color="#eece25"/>
      <stop offset=".27" stop-color="#eece26"/>
      <stop offset="1" stop-color="#faf294"/>
    </linearGradient>
  </defs>
  <path d="M122.39,87.66c2.27-2.87,4.95-6.58,3.87-8.66-.62-1.21-4.7-2.89-7.9-3.65.26-1.12.8-2.34,0-3.25-.49-.57-1.94-.75-3.03-.8.32-4.15.34-9.67-3.05-9.74-2.23-.04-5,.87-7.47,1.92-.46-.92-1.02-2.11-1.54-2.25-1.24-.34-2.07.41-3.03.86-.8-1.4-1.81-2.73-2.75-3.83-.72-.82-2.78-2.21-2.88-2.37-.32-.55-.3-3.1-.55-4.16-2.03-8.6-6.73-15.1-14.1-19.94-3.32-2.17-7.01-3.99-10.91-4.83l.03-7.13c.27-.8,2.51-1.77,3.25-2.5.46-.47,1.55-1.98,1.66-2.59.34-1.86.22-6.64-.76-8.22C68.92-.35,51.22-.24,45.53,4.78c-3.09,2.72-3.08,10.63.21,13.22.64.51,2.19.94,2.28,1.33l-.08,7.61-4.63,1.6c-4.85-7.78-14.06-10.69-22.65-7.13-12.62,5.24-14.56,22.71-3.9,31.08,1.86,1.46,3.81,2.03,5.68,3.32-.19,13.55,3.94,27.32,8.55,39.95,2.86,7.84,6.63,16.5,10.75,23.75,1.06,1.87,2.02,4.08,3.99,5.01,6.25,2.97,17.21,2.77,23.76.72,5.17-1.62,4.76-5.64,6.51-6.49.88-.44,2.28-.22,3.41-.59.88-.29,1.98-.71,2.95-1.13.46.92,1.03,2.19,1.58,2.34,1.13.31,1.92-.28,2.78-.74,1.73,2.83,4.79,6.2,6.05,6.39,2.08.29,5.25-3.36,6.45-5.05.34-.47.6-1,.84-1.55,1.02.53,2.46,1.53,3.54.82.25-.16.75-1.12,1.11-1.98,2.87,1.26,6.72,2.18,8.45,1.65,1.85-.57,2.51-5.84,2.16-9.59,3.17-.05,3.9-1.18,3.18-4.11,3.47-.94,7.61-2.62,7.91-4.57.23-1.5-1.88-5.36-3.98-7.82,2.08-2.34,2.47-2.45-.04-5.16ZM25.49,45.5c-13.13-5.86-.69-23.14,9-11.75-3.51,3.46-7.35,6.97-9,11.75Z" style="fill: #0f100e;"/>
  <path d="M66.58,17.57l-.03,11.38c13.08,2.91,24.33,13.47,25.49,27.21-2.92,1.99-5.43,5.44-6.54,8.84-3.63-1.36-7.67-3.75-11.75-3-2.26.42-1.77,4.89-2.55,5.03-8.12-.63-16.8-1.06-24.89.04-4.84.65-15.33,2.69-14.78,9.12.63,7.43,5.78,21.61,8.88,28.65,1.12,2.54,5.5,11.92,7.07,13.43,1.78,1.7,9.67,2.85,12.26,2.74,1.93-.09,7.84-1.18,9.41-2.1,1.32-.77,1.46-2.73,2.84-3.4.18,2.62,1.74,3.02-.27,5.48-2.66,3.27-13.47,3.36-17.48,3.01-1.34-.12-7.4-1.41-8.13-2.12-7.58-13.21-13.64-27.47-17.48-42.27-2.18-8.42-4.13-17.13-3.21-25.8-.31-.89-3.07-1.17-4.28-1.72-8.71-4.01-11.54-15.77-5.65-23.33,7.39-9.48,22-7.92,26.5,3.24l8.95-3.05.07-11.13c-4.56-2.02-5.63-3.47-5.05-8.61.39-3.46,6.32-4.96,9.28-5.22,3.94-.35,15.04-.1,16.14,4.85.97,4.36-.43,7.56-4.82,8.72ZM50.85,9.58c-1.17.29-1.8,1.55-.62,2.45,2.67,2.03,13.32,1.69,16.42.37,1.34-.57,1.12-2.59.04-2.86-.59-.15-4.51.89-5.92.98-1.62.11-3.91.11-5.52-.02-1.29-.11-3.52-1.14-4.4-.92ZM25.37,27.62c-9.25,1.57-11.4,15.89-2.21,19.97,5.2,2.31,4.19-.72,6.43-4.25,2.1-3.32,5.4-6.11,8.38-8.63-1.97-5.47-6.84-8.06-12.59-7.08Z" style="fill: url(#uuid-4e80db3d-4582-400f-bc32-06b157c241fc);"/>
  <path d="M70,105.5c.68.1,1.32.4,1.99.52-.02,2.74-2.2,9.23-4.51,10.71-3.87,2.47-14.18,1.69-18.36-.35-6.03-11.26-11.4-23.19-13.62-35.88,8.21,3.89,17.61,3.59,26.5,4.25l4.99,5.5c-2.59,2.59-7.06,6.98-6.38,10.9.41,2.38,5.22,2.99,6.89,4.35l.56.43c-3.5,7.09-2.73,7.83.93.11l1.01-.54Z" style="fill: url(#uuid-6d1a4845-abad-4764-8637-7ce69b50f4af);"/>
  <path d="M71.25,70.38c.73.91.84,2.52.71,3.68-.17,1.04-1.23.93-2.78,1.27-2.68.7-5.75,1.5-7.78,3.42-1,1.16-.52,3.13-1.69,3.32-7.02-.3-14.63-.62-21.33-3.08-2.2-.83-6.02-3.3-2.88-5.52,9.67-5.54,23.22-5.03,34.01-3.77.68.1,1.25.23,1.64.59l.1.1Z" style="fill: url(#uuid-5dd3c0d6-5876-40bb-aeef-42ecc3a8540e);"/>
  <path d="M70,105.5c.31,1.64-2.92,7-4.24,7.02-3.27.05,1.44-5.62,1.74-7.02.8.08,1.72-.11,2.5,0Z" style="fill: #e6f2f8;"/>
  <path d="M50.85,9.58c.89-.22,3.11.82,4.4.92,1.61.13,3.9.13,5.52.02,1.4-.09,5.32-1.13,5.92-.98,1.08.27,1.3,2.29-.04,2.86-3.1,1.32-13.75,1.66-16.42-.37-1.18-.9-.55-2.15.62-2.45Z" style="fill: #171b1c;"/>
  <g>
    <path d="M91.67,74.3c11.46-1.32,20.56,9.45,17.33,20.54-3.61,12.42-19.82,15.57-27.98,5.49-7.86-9.72-1.66-24.62,10.65-26.03Z" style="fill: #674930;"/>
    <path d="M65.56,95.46c.57-.6,1.19-1.38,1.79-2,1.51-1.53,4.35-2.82,6.43-3.11,2.91-.31,2.37.32,2.64,2.71.12.91.59,1.8-.09,2.1-.73.31-1.7.41-2.37.84-.52.3-.74.84-.22,1.09.79.38,2.53-.56,3.37-.55.56.17.56.75.88,1.33.22.62.6,1.07.52,1.64-.1.36-.69.58-1.17,1-1.03.85-1.78,2.05-3.03,2.45-3.57.84-7.15-.61-10.36-2.01-.3-.14-.66-.3-.83-.55-.35-.66.28-1.48.53-2.1.54-1.01,1.07-1.92,1.84-2.78l.06-.07Z" style="fill: url(#uuid-63c86a60-beca-40d4-84af-9546156be217);"/>
    <path d="M112.6,77.93c3.18-1.71,8.44.76,11.42,2.21.82.74-3.22,5.98-3.99,6.69-1.88,1.88-4.38,3.23-7.05,3.44-.65,0-1.78.22-1.96-.56-.08-.65.02-1.6-.18-2.41-.06-.53-.38-1.11-.25-1.63.08-.22.33-.34.56-.41,1.09-.3,3.16-.48,2.6-1.75-.53-.45-1.57.05-2.2.21-.7.18-1.46.6-1.79.1-.5-.98-1-2.19-1.45-3.17-.1-.28-.29-.48-.21-.74.23-.54,3.35-1.56,4.42-1.95l.06-.03Z" style="fill: url(#uuid-9f2861c0-bcf6-4256-9fa2-fdf7364cc2dc);"/>
    <path d="M100.98,111.28c-.76-1.06-1.77-2.61-1.69-3.97.14-.58.74-.87,1.23-1.13,1.03-.47,1.98-1.11,2.83-.77.63.28,1.03,1,1.55,1.43,1.14.96,1.37-.13.84-1.01-.37-.69-.86-1.28-.78-1.84.16-.88,1.15-1.84,1.99-2,.82-.08,1.81.73,2.64,1.07,2.71.96,3.21,3.5,3.36,6.36,0,1.74,1.11,6.68-1.29,7.02-2.53-.18-4.81-.85-6.95-2.36-1.23-.83-2.67-1.66-3.65-2.74l-.06-.07Z" style="fill: url(#uuid-9f1641d1-003f-40c3-b938-ed3c01f90836);"/>
    <path d="M113.49,103.17c-1.57-.18-5.45-1.67-5.44-2.81.06-.64.54-1.18.85-1.76.15-.26.31-.52.45-.78.38-.67.47-1.26.86-1.29.33-.02.61.1.94.2.68.2,2.85,1.07,2.65-.25-.26-.72-2.05-1.07-2.9-1.28-.28-.07-.43-.25-.39-.54.09-.63.25-2,.44-2.68.22-.49.81-.19,1.52-.3,1.05-.09,2.14-.45,3.16-.53,2.94-.13,7.14,5.49,8.3,8.15.27.52.39,1.1-.24,1.38-1.14.61-3.45,1.65-4.64,2.07-1.48.46-4.15.42-5.48.43h-.06Z" style="fill: url(#uuid-5918e0f6-2ac0-40b7-b5fc-c2b96c810fd1);"/>
    <path d="M75.39,104.86c.57-1.33,2.89-3.72,3.79-4.06.34-.1.55.11.81.36.55.58,1.24,1.34,1.81,1.96.62.67.87.97.55,1.46-.43.75-1.54,1.67-1.28,2.59.87,1.13,2.02-1.48,2.71-1.84.69-.3,1.39.27,2.06.5.44.21.73.33.9.67.17.41-.17,1.12-.27,1.85-.23,1.24-.32,2.62-1.05,3.64-2.2,2.66-6.22,3.83-9.63,4.31-.51.06-1.15.12-1.34-.41-.36-1.02-.55-4.02-.51-5.49.2-1.65,1-3.9,1.43-5.46l.03-.07Z" style="fill: url(#uuid-dc3eb30a-3c61-45a3-ba49-4acaf4541afa);"/>
    <path d="M73.99,69.44c-.05-1.05.08-2.92.33-4.2.08-.39.27-.76.66-.89,3.59-.4,10.07,2.77,11.75,5.8,1.97,3.64,1.67,3.45-1.93,5.03-1.47.8-1.98-1.57-3.06-1.97-.67-.26-.91.42-.58,1.09.35.81,1.16,1.43,1.27,2.06-.08.74-1.04,1.32-1.52,1.89-.61.61-.76.56-1.47.25-1.16-.51-2.48-1.04-3.42-1.88-.25-.23-.44-.49-.59-.79-.88-1.83-1.25-4.67-1.43-6.34v-.07Z" style="fill: url(#uuid-14f43f77-88ac-4fb5-9a18-64c996ed93a6);"/>
    <path d="M64.88,83.95c-.72-.92-1.88-2.53-1.88-3.38.03-.49.46-.7.9-.93,4.35-2.12,9.37-3.35,13.81-.75,1.78.89,1.63,1.43.53,3.27-.4.59-.63,1.47-1.35,1.71-.87.26-2.13-.94-2.98-.5-.59.31-.43.9.19,1.27.74.55,2,.4,2.5,1.09.25.74-.05,2-.31,2.75-.26.54-.95.38-1.86.49-1.02.1-2.12.45-3.12.46-.29,0-.55-.07-.81-.19-1.67-.78-4.32-3.37-5.54-5.22l-.06-.08Z" style="fill: url(#uuid-88f6f516-f0e9-437e-b889-8c7a2c2fe78a);"/>
    <path d="M104.49,66.41c1.41-.9,5.31-2.04,7.27-2.26.24-.02.49,0,.67.13,1.4,2.18.74,10.43-1.24,12.26-.57.42-1.64.79-2.39,1.25-.71.41-1.36.98-1.98.82-.78-.31-1.73-1.25-1.96-2.03-.08-.88,1.18-1.74,1.32-2.67.16-.67-.37-1.06-.97-.53-.81.61-1.38,2.19-2.58,1.97-.79-.22-1.82-.77-2.58-1.16-.31-.18-.6-.4-.71-.74-.24-1.5.84-2.51,1.81-3.57,1.11-1.17,2.32-2.61,3.28-3.42l.06-.04Z" style="fill: url(#uuid-2d1b5b36-7f40-4302-805f-e0aaad01dc62);"/>
    <path d="M94.76,58.98c2.29,2.36,4.42,5.2,4.87,8.54.25,1.21-.44,2.19-.95,3.31-.84,1.94-.4,2.69-2.81,2.37-.58-.09-.98-.05-1.28-.51-.3-.97.08-3.06-.93-3.56-.75-.03-.89,1.77-.91,2.49-.02.53,0,.95-.2,1.19-.41.46-1.49.41-2.3.46-1.1.04-1.01-.8-1.43-1.88-.49-1.38-1.56-2.69-1.3-4.17.54-2.16,2.53-5.92,4.37-7.65.83-.91,1.69-2.04,2.8-.66l.07.07Z" style="fill: url(#uuid-35023699-3c89-4fc2-b44f-00b4412465fb);"/>
    <path d="M90.68,107.61c.61.1,1.52-.2,1.97.33.18.42.02,1.38.13,1.95.19,2.14,1.37,2.42,1.64,0,.06-.52.06-1.19.04-1.67,0-.33.05-.52.4-.6.52-.08,1.76-.15,2.41-.2.17,0,.32,0,.45.09.25.16.25.97.48,1.44.44,1.13,1.4,2.27,1.53,3.44.15,3.11-3.5,8.19-6.08,10-.07.01-.15,0-.22-.03-1.04-.66-3.54-3.56-4.29-5.12-.26-.8-1.87-6.42-.63-9.23.37-.53,1.49-.4,2.07-.41h.1Z" style="fill: url(#uuid-5ea428b1-13d2-4d7f-b34e-d5d8c52a2bec);"/>
    <path d="M90.44,62.04c.61-.6,1.71-.6,1.6.33-.07.72-.35,1.2-.6,1.82-.46.99-.84,2.05-1.03,3.22-.19,1.18-.4,2.43-.68,2.73-.62.51-1.04-2.38-1.02-3.02-.09-1.85.59-4.06,1.66-5.02l.06-.06Z" style="fill: #fdfbf0;"/>
    <path d="M74.97,109.38c-.08-.69.21-1.77.53-2.64.35-.91,1.02-1.43,1.71-2.16.27-.27.64-.57,1.03-.55,1.26.22-.78,3.01-.91,3.73-.45,1.21-.62,2.63-.52,3.98.13.74-.24,2.45-.99,1.29-.42-1.06-.55-2.6-.83-3.57v-.08Z" style="fill: #fdfbf0;"/>
    <path d="M76.02,75.2c-1.34-1.43-1.83-6.64-.1-7.72,1.11.32.73,3.59,1.17,4.71.24,1.3,1.15,2.52,1.3,3.68,0,1.62-1.89,0-2.3-.6l-.06-.08Z" style="fill: #fdfbf0;"/>
    <path d="M89.86,108.5c.82,1.22.36,4.21.98,5.88.28,1.12.77,2.19.86,3.33.01.27,0,.51-.15.68-.61.48-1.6-.51-2.22-1.73-.44-.88-.68-1.9-.79-3.01-.19-1.08-.2-5.93,1.28-5.18l.04.04Z" style="fill: #fdfbf0;"/>
    <path d="M104.88,113.53c-1.47-.83-2.86-2.43-3.53-3.94-1.08-2.98,3.15,1.13,4.27,1.71,1.35.84,2.87,1.35,4.01,2.11.28.2.65.42.68.75-.04.22-.28.28-.52.35-1.59.37-3.42-.13-4.82-.93l-.09-.05Z" style="fill: #fdfbf0;"/>
    <path d="M104.49,67.79c1-.09,5.24-2.12,5.56-.79-.22.77-1.49,1.01-2.23,1.32-1.98.61-3.53,1.94-4.67,3.54-.89,1.11-1.88.65-1.94-.57.11-1.37,1.83-2.96,3.19-3.47l.09-.03Z" style="fill: #fdfbf0;"/>
    <path d="M113.05,78.57c1.65.22,3.79-.23,5.45.31.48.18,1.07.41,1.1.84-.31.88-3.36.23-4.46.39-.89.03-1.77.17-2.6.44-.92.29-1.89.82-2.65.73-.43-.03-.76-.32-.75-.66.14-1.11,2.57-2.09,3.82-2.06h.09Z" style="fill: #fdfbf0;"/>
    <path d="M69.6,87.12c-1.81-.55-3.66-3.13-3.46-5.48.19-.45.58-.14.89.18.69.8,1.38,1.94,2.14,2.56.43.38.9.69,1.32,1.08,1.17,1.05.17,1.89-.81,1.69l-.08-.02Z" style="fill: #fdfbf0;"/>
    <path d="M113.98,102.34c-.75-.13-2.5-.9-1.38-1.48.66-.33,2.04-.13,3.05-.2,1.55.04,3.42-.89,4.72-.98.44-.02.85.26.63.63-.38.62-1.42.85-2.12,1.18-1.44.71-3.11,1.34-4.8.88l-.1-.02Z" style="fill: #fdfbf0;"/>
    <path d="M65.42,97.65c.38-1.51,1.43-2.73,2.47-3.63,1.47-1.23,2.86-1.36,1.01,1.56-.85,1.21-2.29,4.15-3.03,4.34-.8.06-.61-1.48-.48-2.16l.03-.11Z" style="fill: #fdfbf0;"/>
    <path d="M116.9,76.11h-3.75l1.09-3.46c3.12,0,3.29.51,2.66,3.46Z" style="fill: #eacb26;"/>
    <path d="M116.9,104.49c.63,2.96.46,3.47-2.66,3.46l-1.09-3.46h3.75Z" style="fill: #eacb26;"/>
    <path d="M117.97,90.56c-.13-.18-.05-.38.17-.55.25-.21,2.24-1.59,2.39-1.6.83-.08,1.67,1.24,2.25,1.79.08.36-1.58,1.95-2,1.99-.7.07-1.1-.64-1.64-1.04-.33-.24-1.12-.53-1.16-.58Z" style="fill: #eacb26;"/>
    <path d="M104.05,115.21c.1.12-1.09,2.67-1.24,2.7-.52.08-2.65-.81-2.75-1.25.21-.54.77-2.96,1.18-3.05.99.42,1.68,1.48,2.81,1.61Z" style="fill: #eacb26;"/>
    <path d="M84.26,117.85c-.15-.11-.93-2.09-.81-2.47.13-.41,1.8-1.28,2.22-1.2.66.13,1.12,1.9,1.5,2.48-.44.48-2.42,1.54-2.91,1.19Z" style="fill: #eacb26;"/>
    <path d="M102.95,62.75c.19.14,1.04,2.22.72,2.66-.21.29-2.16.88-2.56.67-.43-.22-1.23-1.92-.96-2.29.25-.35,2.41-1.32,2.8-1.04Z" style="fill: #eacb26;"/>
  </g>
</svg>