<?xml version="1.0" encoding="UTF-8"?>
<svg id="uuid-83be197a-5568-4930-ab72-7f2bed205c7a" data-name="fill_pressurewasheradditive" xmlns="http://www.w3.org/2000/svg" viewBox="0 0 128 128">
  <path d="M25.9,96.51c-3.67-1.14-7.11-2.71-10.05-5.19-6.83-5.76-9.7-13.3-9.79-22.06-.1-9.85,2.21-19.19,6.3-28.08,1.03-2.23,2.72-4.16,4.15-6.21.77-1.11,1.63-2.15,2.5-3.29,0-2.3-.26-4.68.06-6.97.55-3.97,2.88-6.97,6.1-9.25,6.49-4.6,13.78-7.36,21.62-8.31,11.79-1.42,23.64-2.12,35.52-1.54,8.72.43,17.28,1.77,25.3,5.44,2.17.99,4.27,2.15,6.31,3.38,6.31,3.79,8.81,9.36,7.84,16.66-.82,6.18-1.38,12.4-2.12,18.6-.85,7.02-1.79,14.04-2.64,21.06-.11.91,0,1.85.06,2.78.19,3.65-.45,7.17-1.77,10.54-.64,1.61-.6,3.2-.62,4.87-.04,4.15.07,8.36-.55,12.44-1.15,7.5-6.07,12.2-12.69,15.29-7.01,3.27-14.44,4.98-22.11,5.61-11.19.91-22.24-.15-33.07-3.1-2.79-.76-5.48-1.94-8.13-3.13-7.5-3.38-11.23-9.41-11.99-17.45-.06-.67-.14-1.34-.21-2.07Z" style="fill: #4b3827; stroke-width: 0px;"/>
  <path d="M89.36,40.77c-1.78-1.19-3.46-2.41-5.22-3.48-4.6-2.79-8.59-2.29-12.4,1.46-.93.91-1.83,1.85-2.9,2.94-2.25-.11-4.63-.12-6.98-.36-4.17-.43-8.34-.85-12.47-1.53-6.31-1.05-12.52-2.51-18-6.06-1.88-1.22-3.26-2.89-4.08-4.99-.77-1.97.13-3.54,1.3-5,2.14-2.67,5.14-3.98,8.22-5.16,5.7-2.18,11.56-3.66,17.65-4.09,3.51-.25,7.03-.47,10.55-.62,3.63-.16,7.28-.45,10.9-.27,9.11.45,18.23,1.19,26.81,4.66,2.77,1.12,5.54,2.45,7.96,4.17,4.89,3.47,3.25,9.2-1.27,11.28-3.67,1.69-7.56,2.9-11.38,4.23-2.89,1.01-5.82,1.88-8.7,2.8Z" style="fill: #4883af; stroke-width: 0px;"/>
  <path d="M34.84,96.73c4.51-1.09,8.61-2.26,12.77-3.01,1.71-.31,3.59.31,5.39.49,3.15.3,6.3.76,9.45.84,5.29.14,10.59.17,15.87-.02,3.93-.14,7.87-.56,11.76-1.14,3.27-.49,6.48-1.34,9.7-2.1,2.11-.5,4.2-1.13,6.73-1.82.08,1.87.3,3.54.2,5.19-.47,7.16-3.72,12.31-10.8,14.63-2.99.98-5.92,2.19-8.96,3.01-1.88.51-3.9.48-5.86.69-3.45.36-6.91,1.06-10.35.98-4.55-.1-9.07-1.04-13.62-1.21-4.28-.16-8.07-1.81-11.96-3.17-4.09-1.43-7.86-3.5-9.34-8.02-.52-1.59-.63-3.32-.99-5.33Z" style="fill: #aecace; stroke-width: 0px;"/>
  <path d="M73.62,71.73c2.39-3.27,4.76-6.55,7.18-9.8,2.79-3.75,5.61-7.49,8.47-11.2.39-.5,1-.94,1.6-1.16,6.59-2.41,13.19-4.78,19.79-7.15.38-.14.78-.23,1.41-.42-.8,7.45-1.57,14.74-2.34,21.9-11.35,6.27-23.7,7.22-36.12,7.81h0Z" style="fill: #aecace; stroke-width: 0px;"/>
  <path d="M19.39,46.53c.82,5.26,1.31,10.16.94,15.17-.28,3.8-1.23,7.58-.26,11.45,1.97,7.81,8.46,11.57,16.22,9.29,5.81-1.71,10.77-4.89,15.27-8.84,7.51-6.59,13.55-14.5,19.85-22.17,1.78-2.17,3.55-4.35,5.36-6.5.92-1.1,1.99-1.96,3.49-1.08,1.21.71,1.63,2.94.72,4.39-1.3,2.07-2.63,4.14-4.17,6.03-4.53,5.56-8.89,11.29-13.83,16.47-5.9,6.18-12.48,11.66-20.24,15.46-5.77,2.83-11.74,3.47-17.79.91-6.02-2.55-9.43-7.26-10.37-13.62-1.36-9.19,1.02-17.84,4.29-26.3.05-.13.18-.24.51-.65Z" style="fill: #7e807c; stroke-width: 0px;"/>
  <path d="M44.16,69.26c-4.33-1.57-8.63-3.12-13.07-4.72-.85-7.46-1.69-14.9-2.55-22.48,5.85,1.95,11.35,4.3,17.09,5.55,5.69,1.24,11.61,1.36,17.45,1.98-1.92,3.29-16.15,18.13-18.92,19.68Z" style="fill: #aecace; stroke-width: 0px;"/>
  <path d="M57.09,86.63c2.88-2.42,5.42-4.55,8.08-6.79,14.63.1,29.22-1.01,43.41-6.3-.12,1.31-.22,2.42-.33,3.53-.11,1.13-.24,2.26-.38,3.6-16.15,6.72-33.1,7.37-50.78,5.96Z" style="fill: #40436e; stroke-width: 0px;"/>
  <path d="M33.8,74.7h-1.64c0-.15,0-.31,0-.46h1.64c0,.15,0,.31,0,.46Z" style="fill: #7e807c; stroke-width: 0px;"/>
  <path d="M73.62,71.72s-.03.05,0,0c0,0,0,0,0,0Z" style="fill: #a47f5a; stroke-width: 0px;"/>
</svg>