<?xml version="1.0" encoding="UTF-8"?>
<svg id="fill_electriccharge" xmlns="http://www.w3.org/2000/svg" viewBox="0 0 128 128">
  <path d="M42.84,15.53c.12-1.34.2-2.64.35-3.93.57-4.88,4.19-8.5,9.07-8.59,7.74-.15,15.48-.14,23.22,0,5.05.08,8.77,3.67,9.34,8.64.15,1.28.21,2.58.33,4.11,7.36-.75,12.53,3.76,12.18,11.27.02,28.82,0,57.64.03,86.47,0,3.51-.49,6.99-3.45,9-2.09,1.42-4.91,2.42-7.43,2.46-15.01.22-30.03.13-45.05.1-6.78-.01-10.73-3.94-10.78-10.78-.08-28.82,0-57.64-.02-86.47-.02-9.12,3.57-11.44,12.2-12.28Z" style="fill: #4a3726; stroke-width: 0px;"/>
  <path d="M38.7,23.18h50.76c.26,1.54.72,2.95.72,4.37.04,28.64.03,57.28.03,85.92,0,3.73-.61,4.31-4.45,4.31-14.55,0-29.11,0-43.66,0-3.67,0-4.31-.61-4.31-4.16,0-28.83-.02-57.66.03-86.48,0-1.35.59-2.7.88-3.95Z" style="fill: #9f73cf; stroke-width: 0px;"/>
  <path d="M77.31,15.66h-26.62c-.77-4.8-.2-5.48,4.35-5.48,5.97,0,11.93,0,17.9,0,4.56,0,5.12.68,4.36,5.48Z" style="fill: #aeaeae; stroke-width: 0px;"/>
  <path d="M50.24,82.31c-2.24-1.15-4.14-1.69-5.43-2.88-2.89-2.65-2.97-6.69-.25-9.8,8.01-9.18,16.1-18.29,24.2-27.38,5.06-5.72,14.35-.11,11.88,7.3-1,3.12-1.97,5.93-2.81,9.19.64.25,1.11.49,1.61.62,5.81,1.48,7.83,7.38,3.92,11.87-6.84,7.86-13.79,15.62-20.69,23.42-3.17,3.99-7.16,8.27-12.21,5.2-2.98-1.84-4.17-5.13-3.06-8.79.91-3,1.93-5.96,2.84-8.75Z" style="fill: #4a3726; stroke-width: 0px;"/>
  <path d="M59.94,74.52h-10.41c8.09-9.15,15.78-17.85,23.48-26.55.2.11.39.21.59.32-1.79,5.87-3.58,11.75-5.46,17.9h10.36c-8.34,9.44-16.21,18.35-24.07,27.25-.11-.06-.22-.12-.33-.18,1.9-6.08,3.8-12.16,5.85-18.73Z" style="fill: #f3f34e; stroke-width: 0px;"/>
</svg>