<?xml version="1.0" encoding="UTF-8"?>
<svg id="uuid-1d99fed1-3675-4320-b49d-897d10bf2479" data-name="fill_roundbalecotton" xmlns="http://www.w3.org/2000/svg" viewBox="0 0 128 128">
  <path d="M19.17,100.33c-.5-.55-6-10.33-6.42-11.33s-3.76-13.99-3.75-14.75c.03-3.87-.26-5.37-.51-8.98-.14-2.01.77-13.52,1.28-15.26.97-3.31,1.54-5.83,2.38-9.12.27-1.07,6.13-12.15,6.85-13.01s8.28-7.06,9.15-7.49c1.85-.91,3.84-.54,5.49-1.01.68-.19,1.18-.94,1.84-1.16,2.78-.92,4.52,1.27,7.28,1.32,1.42.03,2.62-.53,3.98-.56,11.82-.33,23.74.55,35.52.55,2.81,0,5.47-.67,8.52-.55,4.8.19,11.93,1.45,16.08,3.92,1.58.94,8.57,9.77,9.42,11.58,1.86,3.99,3.61,10,4.27,14.19.44,2.8,1.74,6.21,1.96,8.58.24,2.52-.61,4.89-.53,7.53.19,5.66-.44,12.26-1.59,17.87-.13.63-3.69,9.9-4.13,10.87-.5,1.09-7.68,10.37-8.51,10.99-1.31.98-9.38,4.33-10.98,4.52-3.04.36-6.29-.66-9.54-.53-13.31.52-26.89-.5-40,0-2.71.1-8.88,1.91-10.75,1.3-2.42-.8-2.54-.82-5.17-1.33-3.41-.66-9.76-5.49-12.13-8.12Z" style="fill: #0d0f10;"/>
  <path d="M45,106l7.22-6.02c1.25-3.69,4.66-7.72,6.03-10.97.51-1.2,3.57-12.08,3.71-13.29.23-2-.52-3.3-.49-4.94.03-1.5.9-3.24,1.04-5,.28-3.55-.98-5.85-1.04-8.54-.03-1.48.63-2.64.48-4.42-.12-1.38-3-11.99-3.57-13.46-.38-.97-5.75-10.84-6.17-11.33-1.89-2.14-5.26-3.32-6.72-6.02,3.44-1.66,7.09.59,10.23.51,2.44-.06,4.58-1.21,7.54-1.04,2.08.12,3.88,1.1,5.98,1.06,1.96-.04,4.07-1.08,6-1.08,2.22,0,4.49,1.11,7.01,1.07s4.45-1.15,7-1.07c3.95.13,11.68,1.58,15.24,3.28s3.73,3.88,5.79,6.71c1.07,1.46,2.65,2.27,3.46,4.04s.86,3.76,1.5,5.5c1.94,5.22,2.01,4.13,2.79,10.21.3,2.36,1.96,5.38,1.95,7.55,0,2.42-.54,5.21-.51,8,.04,3.81-.82,11.51-1.71,15.29-.15.62-4.05,10.63-4.36,11.14-.73,1.24-2.26,2.15-3.14,3.36-1.09,1.51-2.12,4.05-3.29,5.21-.89.89-9.94,4.7-11.27,4.77-2.16.11-4.37-1.02-6.49-1.06-2.33-.04-4.63,1.09-7,1.08-2.24,0-4.93-1.02-7.02-1.06s-4.26,1.07-6.48,1.06-4.53-1.01-6.52-1.06c-1.76-.05-3.55.92-5.46,1.04-2.87.17-5.2-.94-7.58-.97-1.31-.02-2.75.79-4.19.45Z" style="fill: #dcdddc;"/>
  <path d="M29.87,22.62c1.41-.37,10.3-.33,11.66.1,2.28,2.44,6.41,4.73,8.49,7.01.4.44,5.26,9.21,5.73,10.27,1,2.22.71,4.8,1.38,7.12,3.92,13.61,2.79,26.21-.98,39.8-.65,2.33-2.41,3.61-3.44,5.56-.89,1.71-1.04,3.7-2.22,5.28-.32.43-7.45,6.61-8.03,6.97-.61.38-1,.63-1.75.75-1.65.26-9.4.29-10.86-.09-2.26-.59-5.94-5.85-8.64-6.86-1.13-3.51-5.21-8.27-6.25-11.25-.66-1.89-.48-3.92-1.01-5.99-.42-1.65-1.71-3.54-1.94-5.06-.3-1.97-1.09-10.6-1.05-12.45.06-2.49.68-9.57,1.05-11.99.28-1.87,2.17-7.78,2.81-10.19.93-3.46,5-8.07,6.15-11.85,2.59-1.1,6.7-6.55,8.88-7.12Z" style="fill: #aeadad;"/>
  <path d="M33,64.5c.37-2.34-.58-7.84-2.25-9.51-.85-.85-3.48-.65-4.43-.04-.27.18-2.62,5.42-2.72,5.9-.98,4.81-.47,12.57,1.03,17.25.88,2.73,5.18,8.23,8.12,8.42,3.71.25,7.6-2.72,8.99-6.04,4.29-10.25,4.62-31.38-3.97-39.51-1.07-1.01-5.74-3.49-6.03-3.97-.38-.63-.24-1.33-.24-2.01,2.7-.71,3.02.8,4.53,1.72,1.84,1.12,3.29,1.4,4.69,3.31,8.15,11.07,9,29.78,3.3,42.23-2.15,4.7-8.92,8.66-13.85,6.32-2.58-1.22-7.1-6.3-8.03-8.97-.68-1.94-1.96-8.86-2.09-10.95-.09-1.47.42-5.52.59-7.3.18-1.9,3.03-7.79,4.7-8.81,5.5-3.35,8.35.62,9.91,5.44.74,2.3,1.25,7.27-2.24,6.49Z" style="fill: #0f1212;"/>
</svg>