<?xml version="1.0" encoding="UTF-8"?>
<svg id="fill_sun" xmlns="http://www.w3.org/2000/svg" viewBox="0 0 128 128">
  <g>
    <path d="M116.44,53.11c-3.4-2.07-9.09-5.53-9.77-7.14-.69-1.63.98-8.19,1.99-12.11,2.03-7.97,3.06-12.6.57-15.09-2.49-2.49-7.12-1.46-15.17.59-3.89,1-10.4,2.66-12.03,1.97-1.61-.68-5.07-6.37-7.14-9.77C70.42,4.2,67.7.03,64,.03s-6.42,4.17-10.89,11.53c-2.07,3.4-5.53,9.09-7.14,9.77-1.63.7-8.17-.98-12.11-1.99-7.97-2.03-12.6-3.06-15.09-.57-2.49,2.49-1.46,7.12.57,15.09,1.01,3.92,2.68,10.48,1.99,12.11-.68,1.61-6.37,5.07-9.77,7.14C4.2,57.58.03,60.3.03,64s4.17,6.42,11.53,10.89c3.4,2.07,9.09,5.53,9.77,7.14.69,1.63-.98,8.19-1.99,12.11-2.03,7.97-3.06,12.6-.57,15.09,2.49,2.49,7.12,1.46,15.16-.59,3.9-1,10.41-2.66,12.04-1.97,1.61.68,5.07,6.37,7.14,9.77,4.47,7.36,7.19,11.53,10.89,11.53s6.42-4.17,10.89-11.53c2.07-3.4,5.53-9.09,7.14-9.77,1.63-.69,8.16.98,12.11,1.99,7.97,2.03,12.6,3.07,15.09.57,2.49-2.49,1.46-7.12-.57-15.09-1.01-3.92-2.68-10.48-1.99-12.11.68-1.61,6.37-5.07,9.77-7.14,7.36-4.47,11.53-7.19,11.53-10.89s-4.17-6.42-11.53-10.89ZM113.24,69.62c-5.55,3.37-10.79,6.56-12.25,10-1.5,3.56.05,9.62,1.69,16.05.64,2.51,1.76,6.88,1.88,8.89-2-.12-6.35-1.23-8.89-1.88-6.42-1.64-12.49-3.19-16.05-1.69-3.44,1.46-6.63,6.7-10.01,12.26-1.31,2.15-4.18,6.88-5.61,8.27-1.43-1.39-4.3-6.12-5.62-8.28-3.37-5.55-6.56-10.79-10-12.25-.98-.41-2.16-.62-3.62-.62-3.41,0-7.79,1.12-12.5,2.33-2.48.63-6.82,1.74-8.82,1.86.12-2.01,1.24-6.38,1.88-8.9,1.64-6.42,3.19-12.48,1.69-16.04-1.46-3.44-6.7-6.63-12.26-10.01-2.15-1.31-6.88-4.18-8.27-5.61,1.39-1.43,6.12-4.3,8.28-5.62,5.55-3.37,10.79-6.56,12.25-10,1.5-3.56-.05-9.62-1.69-16.05-.64-2.51-1.76-6.88-1.88-8.89,2.01.12,6.35,1.23,8.89,1.88,6.42,1.64,12.49,3.2,16.05,1.69,3.44-1.46,6.63-6.7,10.01-12.26,1.31-2.15,4.18-6.88,5.61-8.27,1.43,1.39,4.3,6.12,5.62,8.28,3.37,5.55,6.56,10.79,10,12.25,3.56,1.5,9.63-.05,16.06-1.69,2.5-.64,6.87-1.76,8.88-1.88-.12,2.01-1.24,6.38-1.88,8.9-1.64,6.42-3.19,12.48-1.69,16.04,1.46,3.44,6.7,6.63,12.26,10.01,2.15,1.31,6.88,4.18,8.27,5.61-1.39,1.43-6.12,4.3-8.28,5.62Z" style="fill: #4a3726; stroke-width: 0px;"/>
    <path d="M100.99,79.62c-1.5,3.56.05,9.62,1.69,16.05.64,2.51,1.76,6.88,1.88,8.89-2-.12-6.35-1.23-8.89-1.88-6.42-1.64-12.49-3.19-16.05-1.69-3.44,1.46-6.63,6.7-10.01,12.26-1.31,2.15-4.18,6.88-5.61,8.27-1.43-1.39-4.3-6.12-5.62-8.28-3.37-5.55-6.56-10.79-10-12.25-.98-.41-2.16-.62-3.62-.62-3.41,0-7.79,1.12-12.5,2.33-2.48.63-6.82,1.74-8.82,1.86.12-2.01,1.24-6.38,1.88-8.9,1.64-6.42,3.19-12.48,1.69-16.04-1.46-3.44-6.7-6.63-12.26-10.01-2.15-1.31-6.88-4.18-8.27-5.61,1.39-1.43,6.12-4.3,8.28-5.62,5.55-3.37,10.79-6.56,12.25-10,1.5-3.56-.05-9.62-1.69-16.05-.64-2.51-1.76-6.88-1.88-8.89,2.01.12,6.35,1.23,8.89,1.88,6.42,1.64,12.49,3.2,16.05,1.69,3.44-1.46,6.63-6.7,10.01-12.26,1.31-2.15,4.18-6.88,5.61-8.27,1.43,1.39,4.3,6.12,5.62,8.28,3.37,5.55,6.56,10.79,10,12.25,3.56,1.5,9.63-.05,16.06-1.69,2.5-.64,6.87-1.76,8.88-1.88-.12,2.01-1.24,6.38-1.88,8.9-1.64,6.42-3.19,12.48-1.69,16.04,1.46,3.44,6.7,6.63,12.26,10.01,2.15,1.31,6.88,4.18,8.27,5.61-1.39,1.43-6.12,4.3-8.28,5.62-5.55,3.37-10.79,6.56-12.25,10Z" style="fill: #f3f34e; stroke-width: 0px;"/>
  </g>
  <g>
    <path d="M64,31.07c-18.16,0-32.93,14.77-32.93,32.93s14.77,32.93,32.93,32.93,32.93-14.77,32.93-32.93-14.77-32.93-32.93-32.93ZM64,89.76c-14.21,0-25.76-11.55-25.76-25.76s11.55-25.76,25.76-25.76,25.76,11.55,25.76,25.76-11.55,25.76-25.76,25.76Z" style="fill: #4a3726; stroke-width: 0px;"/>
    <path d="M89.76,64c0,14.21-11.55,25.76-25.76,25.76s-25.76-11.55-25.76-25.76,11.55-25.76,25.76-25.76,25.76,11.55,25.76,25.76Z" style="fill: #e5dd75; stroke-width: 0px;"/>
  </g>
</svg>