<?xml version="1.0" encoding="UTF-8"?>
<svg id="uuid-745324ea-3893-47c9-a98c-683c4e097b52" data-name="fill_oatcut" xmlns="http://www.w3.org/2000/svg" xmlns:xlink="http://www.w3.org/1999/xlink" viewBox="0 0 128 128">
  <defs>
    <linearGradient id="uuid-22d549ed-70f6-4c10-ae64-3256c57142e3" x1="-1068.25" y1="-402.75" x2="-1068.58" y2="-248.75" gradientTransform="translate(592 222) scale(.5)" gradientUnits="userSpaceOnUse">
      <stop offset="0" stop-color="#fdf1cd"/>
      <stop offset="1" stop-color="#d8c488"/>
    </linearGradient>
    <linearGradient id="uuid-e31a4bc9-c2af-4141-a8cf-e89f7c0ccaab" x1="-1026.46" y1="-295.19" x2="-971.77" y2="-209.04" gradientTransform="translate(592 222) scale(.5)" gradientUnits="userSpaceOnUse">
      <stop offset="0" stop-color="#d0b589"/>
      <stop offset=".31" stop-color="#d0b589"/>
      <stop offset="1" stop-color="#98815e"/>
    </linearGradient>
    <linearGradient id="uuid-e48633ae-abf8-4106-be6a-c9e1ffc6b202" x1="122.34" y1="81.01" x2="101.56" y2="73.85" gradientUnits="userSpaceOnUse">
      <stop offset="0" stop-color="#d0b589"/>
      <stop offset=".42" stop-color="#d0b589"/>
      <stop offset="1" stop-color="#98815e"/>
    </linearGradient>
    <linearGradient id="uuid-8d4e9740-7e8a-45b6-9908-7511b0c032a2" x1="112.74" y1="100.11" x2="94.6" y2="87.87" xlink:href="#uuid-e48633ae-abf8-4106-be6a-c9e1ffc6b202"/>
    <linearGradient id="uuid-a47784f0-1e08-45ff-8e0f-9fcf19078928" x1="-1012.29" y1="-336.13" x2="-1035.7" y2="-267.45" gradientTransform="translate(592 222) scale(.5)" gradientUnits="userSpaceOnUse">
      <stop offset="0" stop-color="#9d8561"/>
      <stop offset="1" stop-color="#ccb186"/>
    </linearGradient>
    <linearGradient id="uuid-19e54f47-0816-4077-8d8a-1130dbc85702" x1="-1057.32" y1="-357.23" x2="-1049.66" y2="-285.89" gradientTransform="translate(592 222) scale(.5)" gradientUnits="userSpaceOnUse">
      <stop offset="0" stop-color="#9d8560"/>
      <stop offset="1" stop-color="#ccb186"/>
    </linearGradient>
  </defs>
  <path d="M107.65,57.85c1.16,1.35,4.08,2.43,5.35,4.39s1.32,4.9,2.96,6.54c2.36,2.36,11.46,3.96,9.82,8.75-.29.85-.86,1.43-1.78,1.48v.49c1.12.11,2.51,1.46,2.79,2.49.34,1.25-.8,2.18-.68,3.2.13,1.08,1.54,1.64,1.44,3.57s-1.65,2.01-1.96,3.09c-.37,1.3.33,2.7-.56,3.94-.72,1-2.53.99-3.32,1.68-1.15,1.01-.84,3.51-3.46,3.58-1.66.05-2.26-1.1-3.94.51-1.2,1.15-1.14,3.38-2.66,3.84-3.83,1.16-13.12-4.37-13.66-3.9l8.98,15.76c.97,4.95-2.65,8.66-7.62,7.62-3.8-.8-5.15-6.36-7.37-9.12-5.77-1.83-12.3-2.61-17.99-4.51-4.52-1.51-6.27-3.86-4.99-8.75-3.24-.26-7.17-1.77-10.34-1.82-3.33-.05-7.57,1.85-10.91,1.85-3.1,0-7.53-1.92-10.55-1.99s-7.33,1.85-10.47,1.97-7.83-2-10.5-1.79c-.87.07-1.68.97-2.59,1.17-3.58.79-2.81-1.38-4.48-2.3-1.15-.64-3.01-.32-3.95-1.05-1.1-.85-.41-2.47-.95-3.55-.45-.9-2.8-1.5-3.19-2.85-.41-1.47,1-2.84.82-3.81-.1-.56-.95-1.14-1.17-1.8-1.1-3.27,1.88-3.39,2.21-4.87.15-.68-.37-1.33-.37-1.93,0-2.65,4.6-4.13,5.95-5.96,1.28-1.74,1.55-5.28,2.76-6.74,1.17-1.41,4.1-2.64,5.23-4.27,1.24-1.78,1.51-4.95,2.47-6.41.79-1.19,4.86-3.15,5.55-4.2.93-1.43,1.34-4.54,2.26-6.11,1.05-1.8,4.23-3.07,5.44-4.56s1.57-4.84,2.55-6.45,4.58-3.19,5.73-4.77c.97-1.32,1.65-4.66,2.74-5.76s4.4-1.22,5.93-2.07,4.01-4.01,5.68-4.36c1.58-.33,4.21.68,6.4.43s3.81-1.97,6.46-1.5c1.43.25,3.82,2.53,5.14,2.88,1.81.48,5.3.04,6.92,1.08,1.08.69,2.32,3.53,3.7,4.8,1.48,1.36,4.26,2.2,5.24,3.26,1.44,1.57,1.58,5.13,3.04,6.96,1.21,1.52,4,2.67,5.16,4.34,1.25,1.8,1.39,4.69,2.64,6.36,1.27,1.7,4.42,2.77,5.65,4.85.98,1.68,1.19,4.86,2.44,6.31Z" style="fill: #060604;"/>
  <path d="M89.67,38.33c1.29,1.41,3.77,2.23,5.06,4.19,1.1,1.68,1.44,4.51,2.53,5.98s4.37,3.11,5.26,4.23c1.24,1.56,1.5,4.92,2.54,6.46.98,1.44,4.24,2.74,5.29,3.96.43.51,1.89,4.13,1.65,4.35-3.42-.9-6.22-.58-9.5.5,1.46-4.2-1.26-8.15-5.75-8.04-1.05.03-3.53.59-4.25,1.29-.27.26-2.92,5.7-3.36,6.64-3.33,7.08-6.15,14.46-9.42,21.58-.3,1.45-.41,3.22-.11,4.67s1.73,2.41,1.89,3.86c-3.81-.39-8.18,1.71-11.83,1.82-3.4.1-7.85-1.92-11.42-1.86-3.04.05-7.07,1.77-10.08,1.86-3.4.1-7.85-1.92-11.42-1.86-3.13.05-7.32,1.87-10.42,1.86s-7.18-1.87-10.1-1.84c-1.35.01-2.32,1.16-3.48,1.05-1.35-.13-1.33-1.81-2.25-2.29-.99-.51-3.36-.08-3.51-.24-.12-.13.22-2.08-.24-3.01-.55-1.11-2.72-1.3-2.79-1.8-.22-1.42,1.04-2.51.95-3.36-.1-.9-1.41-1.7-1.42-2.58,0-1.11,1.64-1.62,1.92-2.59.33-1.16-.23-2.56.34-3.66.48-.93,3.89-2.56,4.98-4.02,1.45-1.95,1.58-5.26,2.76-6.74.99-1.25,4.81-2.96,5.54-4.08.97-1.47,1.23-4.59,2.47-6.4,1.25-1.83,4.23-2.93,5.22-4.28,1.12-1.53,1.39-4.68,2.56-6.44,1.28-1.93,4.28-2.95,5.47-4.53s1.28-4.43,2.33-6.17c1.14-1.9,4.05-2.89,5.44-4.56,1.12-1.35,1.98-5.13,2.61-5.64.77-.61,4.46-1.09,5.84-1.91s2.68-3.13,4.4-3.6c2.12-.57,3.58.46,5.37.41,1.6-.05,3.15-1.18,4.64-1.42,3.47-.55,4.55,2.04,7.6,2.67,1.57.32,2.94,0,4.27.23,1.52.25,3.23,4.14,5.01,5.49,1.17.89,3.86,1.68,4.48,2.52,1.09,1.47,1.08,5.28,2.94,7.31Z" style="fill: url(#uuid-22d549ed-70f6-4c10-ae64-3256c57142e3);"/>
  <path d="M95.57,103.1c3.12,4.15,5.3,9.07,7.98,13.53.64,1.13,1.2,2.46.64,3.72-.63,1.52-2.41,2.48-3.78,2.02-1.78-.57-2.85-2.43-4-4.38-1.18-1.75-1.63-3.93-3.56-4.53-3.2-.84-16.58-4.34-19.3-5.06-2.69-.7-2.86-5.05-.38-6.06,3.71-1.32,7.87,1.71,11.55,1.93,1.56.2,3.41.44,3.48-.1-.48-2.1-5.45-8.13-6.2-11.64-.29-1.42.02-1.4.48-2.59.53-1.2,1.05-2.37,1.61-3.62,3.1-6.99,8.55-19.28,9.55-21.51.29-.59.59-.96,1.23-1.47,2.74-2.35,6.35.69,5.44,3.69-1.37,3.15-8.37,19.02-10.69,24.35-.18.41.03.71.21,1.1,1.24,2.19,4.1,8.34,5.65,10.53l.08.1Z" style="fill: url(#uuid-e31a4bc9-c2af-4141-a8cf-e89f7c0ccaab);"/>
  <path d="M95,95v.5s-.04-.04-.07-.07c-.12-.14-.09-.28.07-.43Z" style="fill: #eddeb1;"/>
  <path d="M122.99,84.5c-.4,1.42,1.51,2.83,1.52,3.75,0,1.11-1.63,1.61-1.92,2.59s.13,3.3-.14,3.61c-.19.22-2.26.21-2.83.67-1.01.82-.37,3.87-3.05,2.8-1.82-4.54-5.15-8.28-8.57-11.67,5.03-.28,10.05-.64,14.99-1.75Z" style="fill: #ccb287;"/>
  <path d="M115.05,78.7c2.27.78,5.14,1.63,6.95,3.29-4.7.98-11.42,1.82-16,.51-1.7-.49-3-2-3-2-1.51-1.8-2.33-2.88-1.79-5.52.47-2.3,2.95-5.13,5.29-5.48,2.41-.36,5.73.83,8,1.75,2.69,1.08,6.76,2.99,8.5,5.25l-10.5.5,2.55,1.7Z" style="fill: url(#uuid-e48633ae-abf8-4106-be6a-c9e1ffc6b202);"/>
  <path d="M104.5,95l6,7.75c.07.39-.45.3-.75.25-3.03-.43-12.59-4.51-14.61-6.66-.24-.26-.84-1.22-1.03-1.68-2.16-5.4,1.66-10.4,7.39-9.66.96.13,2.2.7,2.97,1.28.7.52,2.27,2.21,3.02,2.99,2.57,2.64,4.67,5.78,6.5,8.98l-9.49-3.25Z" style="fill: url(#uuid-8d4e9740-7e8a-45b6-9908-7511b0c032a2);"/>
  <path d="M108.14,79.52c1.82,1.05,1.39,2.38-.57,2.38-.76.05-2.03-.12-2.77-.5-1.03-.42-1.68-1.36-1.98-2.43-.46-1.59-1.39-5.49.79-4.84,1.12.8,1.18,2.69,2.12,3.71.66.83,1.43,1.13,2.26,1.59l.15.09Z" style="fill: #fcfbf8;"/>
  <path d="M45,59.5c1.01-.27.75-1.97,1.46-2.78.88-1,6.35-1,7.68-.62,2.78.81,1.36,3.38,1.33,5.13-.12,6.85-.12,12.3.52,19.02.24,2.51.25,5.37.43,7.92-.23.68-2.1,1.58-2.78,1.72-1.01.2-4.33.49-5.34.45-1.89-.08-1.84-2.36-1.8-3.85l-5.5.5c-.25.25,1.19,2.49-.73,4.02-.3.24-4.74,2.3-5.13,2.38-2.91.59-3.91-2.49-5.06-4.73-2.15-4.19-4.5-9.26-6.43-13.57-.5-1.12-2.17-4.76-1.94-5.62.52-1.96,6.63-5.13,8.59-3.52l9.21,17.54c.04-.88.05-1.76-.11-2.63-1.19-6.41-3.15-12.8-4.24-19.26-.28-1.64-1.76-8.39-.3-9.12.62-.31,5.24-1.33,6.05-1.37,3.77-.22,3.56,5.71,4.11,8.39Z" style="fill: #0a0907;"/>
  <path d="M72,75c.8.91.85-.28,1.04-.71,1.82-4.2,3.4-8.57,5.26-12.74.73-1.64,4.69-10.57,5.41-11.09,1.86-1.35,9.12,1.11,8.7,4.16l-16.38,37.53c-.54.75-1.88.94-2.74.85-.29-.03-5.09-1.82-5.43-2-2.39-1.27,1.01-7.14.63-7.5-2.97-.17-4.54,1.09-5.45-2.3l-5.56-37.96c-.68-3.83,8.78-4.1,9.76-2.23l4.76,33.99Z" style="fill: #0a0907;"/>
  <path d="M94.93,94.93c-.93-1.81-.92-6.96,1.29-7.35,1.84-.13,1.07,2.18.93,3.28-.16,1.03.13,2.23.8,3.05,3.99,4.36-.81,4.92-2.93,1.16l-.08-.14Z" style="fill: #fcfbf8;"/>
  <path d="M41.02,54.52c1.15,1.24.82,3.39,1.27,4.98,1.31,6.88,3.25,14.31,3.69,21.33.05.86.1,1.81-.33,2.52-.81,1.28-2.64,1.72-3.04.55-.84-4.08-4.76-23.36-5.62-27.94-.37-1.62,2.6-2.42,3.91-1.52l.11.09Z" style="fill: #ccb287;"/>
  <path d="M52.76,58.94c.39.5.26,1.36.24,2.03-.44,7.91-.83,15.96.7,23.76.11.6.29,1.38-.02,1.85-.54.81-2.84.89-3.74.74-.54-.11-.83-.42-.97-.9-.36-3.1-.96-6.57-1.15-9.75-.24-5.3.34-10.61.51-15.88.03-.64.04-1.42.49-1.85.66-.7,3.16-.76,3.87-.1l.09.09Z" style="fill: #ccb287;"/>
  <path d="M28.55,67.96c.24.01.4.11.54.3.39.61,1.03,2.12,1.98,4.1.97,2.05,2.16,4.57,3.3,6.99,1.74,3.71,3.37,7.1,3.97,8.44.14.35.23.66.06.99-.53.79-1.46,1.09-2.35,1.45-1.52.54-2.12.32-2.61-.87-1.73-3.57-7.27-14.92-8.7-17.91-.79-1.51.9-2.25,2.19-2.99.62-.31,1.16-.5,1.51-.51h.09Z" style="fill: #ccb287;"/>
  <path d="M89.31,53.8c.17.08.22.14.18.29-.27.69-1.42,3.31-2.93,6.86-3.49,8.04-8.83,20.78-12.19,28.34-.9,1.12-3.07.34-4.11-.12.32-3.22,13.91-33.29,14.77-36.05.49-.39,1.2.04,2.24.18.85.19,1.64.35,1.96.47l.08.03Z" style="fill: url(#uuid-a47784f0-1e08-45ff-8e0f-9fcf19078928);"/>
  <path d="M64.36,43.1c.7.54.87,1.74.97,2.69.44,4,1.22,8.01,1.82,11.98.41,2.95.42,5.75,1.04,8.68.56,2.95,1.42,7.43,1.79,10.49.11,1.72.63,2.97-.84,3.74-1.19.45-3.33.97-3.55-.5-.65-4.34-3.61-24.63-4.74-32.38-.11-.72-.19-1.31-.29-1.99-.12-1.05-.41-1.94.74-2.65.85-.57,2.08-.82,2.94-.16l.11.09Z" style="fill: url(#uuid-19e54f47-0816-4077-8d8a-1130dbc85702);"/>
</svg>