<?xml version="1.0" encoding="UTF-8"?>
<svg id="uuid-4530dfba-253f-460b-a0cd-91097263641c" data-name="fill_toytractor" xmlns="http://www.w3.org/2000/svg" xmlns:xlink="http://www.w3.org/1999/xlink" viewBox="0 0 128 128">
  <defs>
    <linearGradient id="uuid-43f36d1d-8cdd-4fc6-8e23-d78e8ba2a264" x1="-6890.58" y1="-1060.4" x2="-6891.37" y2="-972.41" gradientTransform="translate(3478 592) scale(.5)" gradientUnits="userSpaceOnUse">
      <stop offset="0" stop-color="#feda00"/>
      <stop offset="1" stop-color="#e6b102"/>
    </linearGradient>
    <linearGradient id="uuid-23594774-a1c8-4aed-a65e-8e06770cfb8b" x1="-6793.66" y1="-1055.93" x2="-6711.66" y2="-1055.5" gradientTransform="translate(3478 592) scale(.5)" gradientUnits="userSpaceOnUse">
      <stop offset="0" stop-color="#367929"/>
      <stop offset="1" stop-color="#19640d"/>
    </linearGradient>
    <linearGradient id="uuid-bd8ae7e8-5ef5-4245-bfae-be11d64f9f29" x1="-6756.99" y1="-1020.72" x2="-6756.61" y2="-972.77" gradientTransform="translate(3478 592) scale(.5)" gradientUnits="userSpaceOnUse">
      <stop offset="0" stop-color="#fcd600"/>
      <stop offset="1" stop-color="#e5b102"/>
    </linearGradient>
    <linearGradient id="uuid-2c472de6-36f7-440f-a3ca-52b8c1dac707" x1="-6945.43" y1="-1043.56" x2="-6838.46" y2="-1040.95" gradientTransform="translate(3478 592) scale(.5)" gradientUnits="userSpaceOnUse">
      <stop offset="0" stop-color="#36792a"/>
      <stop offset="1" stop-color="#19640d"/>
    </linearGradient>
    <linearGradient id="uuid-4e03cc7a-7ba3-4f64-af80-9dee7a3ff220" x1="-6805.8" y1="-1123.91" x2="-6806.83" y2="-1085.92" gradientTransform="translate(3478 592) scale(.5)" gradientUnits="userSpaceOnUse">
      <stop offset="0" stop-color="#feda00"/>
      <stop offset="1" stop-color="#e8b502"/>
    </linearGradient>
    <linearGradient id="uuid-04faf2c1-4f25-4c27-b528-92182057e9ec" x1="-6777.06" y1="-1048.51" x2="-6741.06" y2="-1048.49" gradientTransform="translate(3478 592) scale(.5)" gradientUnits="userSpaceOnUse">
      <stop offset="0" stop-color="#373737"/>
      <stop offset="1" stop-color="#1e1e1e"/>
    </linearGradient>
  </defs>
  <path d="M38,18c-.17.5.5,1.09.5,1.25v27.75h19.75c.16,0,.75.67,1.25.5v10.25c0,.69-2.07.63-2,1,.78,1.52,6.5,5.62,6.5,7v8.75h13.5v-21c-3.16,2.2-7.66-.31-8.39-3.86-.57-2.76-.47-14.84-.07-17.85.61-4.56,5.9-6.92,9.58-3.81,3.21,2.71,1.23,7.93,2.09,11.54l9.28,2.97v-16.75c0-1.64,7.34-1.47,8.74-1.24.67.11,1.16.39,1.51.99,1.02,6.1-.51,13.31.22,19.28.07.55-.04,1.11.52,1.48l25.77,9.23.24,31.26c-.03.39-.13.82-.47,1.03-.14.09-3.11.72-3.28.72h-8.25c2.57,8.1-.74,17.12-8.66,20.59-13.5,5.92-27.22-6.76-22.34-20.59h-25c-3.41,17.55-21.78,27.18-38.18,19.43-6.82-3.22-11.44-9.03-13.98-16.02-.55-1.52.15-3.08-1.82-3.68-1.38-.42-3.36.31-3.53-1.47l.1-21.4c1.67-1.35,11.29-12.35,12.15-12.35h13.25V18.75c0-.05.7-.75.75-.75h10.25Z" style="fill: #040401;"/>
  <path d="M30.39,60.65c31.39-3.08,35.81,45.37,3.35,47.35-30.08,1.83-34.76-44.27-3.35-47.35Z" style="fill: url(#uuid-43f36d1d-8cdd-4fc6-8e23-d78e8ba2a264);"/>
  <path d="M124,57v28.17s-.5.33-.5.33c-2.12.08-8.59.39-10.16-.09-1.02-.31-1.32-1.72-2.09-2.41-6.7-5.96-16.54-6.43-23.27-.27-.83.75-1.33,2.38-2.32,2.68-1.43.44-3.61-.11-5.16.09v-43l43.5,14.5Z" style="fill: url(#uuid-23594774-a1c8-4aed-a65e-8e06770cfb8b);"/>
  <path d="M88.18,101.56c-5.87-9.46,1.12-21.67,12.4-20.67,7.9.55,13.96,8.78,12.32,16.49-2.15,11.59-18.44,14.51-24.61,4.35l-.11-.17Z" style="fill: url(#uuid-bd8ae7e8-5ef5-4245-bfae-be11d64f9f29);"/>
  <path d="M50,56c.51-.03.85.21,1.26.47.99.65,8.73,8.57,9.24,9.53.6,6.4.58,13.14,0,19.5-.46.08-1.01-.05-1.5,0,.87-10.4-5.68-20.89-15.16-25.09-18.23-8.07-38.39,4.87-37.83,24.79.06.51-.65.3-1.01.3-.29-.21-.53-.43-.55-.67-.58-5.14-.61-12.91-.17-18.08.02-.25.11-.5.22-.75l10.5-10h35Z" style="fill: url(#uuid-2c472de6-36f7-440f-a3ca-52b8c1dac707);"/>
  <path d="M35.5,20.5v27c-1.07-.1-6,.44-6-.75v-26.25h6Z" style="fill: #f3c901;"/>
  <path d="M76.88,30.12c.54.54.59,1.85.64,2.61.3,4.26.44,12.38-.07,16.49-.42,3.42-4.97,2.79-5.45.02-.86-4.99.61-12.22,0-17.48.33-2.12,3.45-3.07,4.87-1.64Z" style="fill: url(#uuid-4e03cc7a-7ba3-4f64-af80-9dee7a3ff220);"/>
  <rect x="63.5" y="77.5" width="14" height="8" style="fill: #266c1a;"/>
  <path d="M57,50v5.5c-1.01-.06-2.18.18-3.15-.1-.88-.26-2.29-2.4-2.6-2.4h-21.25v-3h27Z" style="fill: #f3c901;"/>
  <polygon points="97.5 27.5 97.5 45 93 44 93 27.5 97.5 27.5" style="fill: #2c2c2c;"/>
  <path d="M89.36,101.51c-1.71-1.79-2.49-4.55-1.83-6.95.26-.87.94-1.83,1.92-1.56,1.65.64,1.92,4.46,3.12,6.07.95,1.61,2.53,3.23,2.64,4.39-.13,2.76-4.88-.88-5.7-1.8l-.15-.15Z" style="fill: #fef2aa;"/>
  <path d="M32.33,74.68c12.65-.26,13.12,18.88.34,19.14s-12.94-18.88-.34-19.14Z" style="fill: #040401;"/>
  <path d="M19.34,66.58c1.43-.43,2.69.37,1.91,1.92-.47.92-2.04,1.46-2.75,2.25-1.15,1.28-2.63,3.52-3.44,5.06-.72,1.37-1.11,5.25-3.3,4.68s1.05-6.32,1.65-7.33c.81-1.37,4.65-6.2,5.93-6.59Z" style="fill: #fef2aa;"/>
  <path d="M11.3,86.54c2.64-.87,2.3,2.76,2.96,4.45.47,1.2,3.64,5.43,1.48,6.01-1.79.47-3.45-3.66-3.98-5-.47-1.17-2.17-4.89-.46-5.45Z" style="fill: #fef2aa;"/>
  <path d="M86,75c-.57-4.74-.56-9.76,0-14.5,1.84-1.42,21.32-.14,25-.25.59.35.87.84.99,1.51.24,1.41.17,11.91-.24,12.74-.28.56-.9.91-1.51.99-7.18-.39-14.92.55-22.02.03-.75-.05-1.6-.05-2.22-.52Z" style="fill: #040401;"/>
  <path d="M101.43,50.56c.56,2.05-.41,2.52-2.33,2.14-4.18-2.13-9.66-2.83-13.76-4.79-1.96-.94-.78-2.72,1.78-2.3,4.21.69,9.83,4.16,14.3,4.96Z" style="fill: #8abf80;"/>
  <path d="M95.65,98.85c-1.64-1.24-2.07-4.85-1.27-6.72,2.57-5.97,11.64-3.26,10.6,3.59-.61,3.99-6.36,5.38-9.33,3.13Z" style="fill: #040401;"/>
  <path d="M14.32,58.06c1.38-.46,2.72.41,1.94,1.95-.33.65-5.11,5.24-6.01,5.99-.72.59-2.6,2.24-3.48,2.01-.82-.62-1.01-1.03-.51-2,.77-1.51,5.06-4.7,6.51-5.99.61-.54.88-1.72,1.56-1.95Z" style="fill: #8abf80;"/>
  <path d="M33,31.25c-.36,1.27-2.49.82-2.9-.6-.28-.95-.28-7.35,0-8.3.52-1.76,2.9-1.53,2.9-.6,0,2.12.43,7.98,0,9.5Z" style="fill: #fef2aa;"/>
  <path d="M37.85,79.65c6.38,7.46-5.82,16.43-11.07,8.33-4.85-7.47,5.97-14.3,11.07-8.33Z" style="fill: #2c2c2c;"/>
  <rect x="88.5" y="63" width="20.5" height="9.5" style="fill: url(#uuid-04faf2c1-4f25-4c27-b528-92182057e9ec);"/>
  <path d="M98.35,91.58c4.14-1.24,5.65,4.65,1.67,5.71-3.72.99-4.65-4.82-1.67-5.71Z" style="fill: #2c2c2c;"/>
</svg>