<?xml version="1.0" encoding="UTF-8"?>
<svg id="fill_sugarcane" xmlns="http://www.w3.org/2000/svg" viewBox="0 0 128 128">
  <path d="M71.46,44.71c1.92-11.26,8.08-19.44,16.34-26.2,5.43-4.45,10.43-3.3,13.49,3.04,4.71,9.77,3.68,19.41-2.24,28.14-3.26,4.81-7.82,8.78-12.07,12.85-1.64,1.57-4.03,2.36-6.25,3.61.02,8.58,4.55,16.25,7.18,24.47.97,3.02,2.07,5.99,3.24,8.93.51,1.27,1.2,2.54,2.07,3.59,4.72,5.69,2.96,13.95-3.87,16.77-5.28,2.19-10.68,4.15-16.12,5.9-7.16,2.31-13.89-2.91-13.88-10.46,0-1.12-.16-2.29-.54-3.34-3.16-8.87-6.39-17.72-9.61-26.56-.24-.65-.51-1.33-.92-1.86-4.36-5.6-4.64-9.03-1.04-15.09-4.3-1.06-7.95-3.42-8.45-7.88-1.1-9.91-5.85-18.57-8.85-27.81-1.06-3.27-2.84-6.37-4.61-9.35-3.39-5.69-1.19-13.07,4.96-15.48,5.16-2.03,10.38-3.93,15.65-5.68,7.59-2.53,14.42,2.7,14.22,10.72-.02.68.04,1.41.27,2.05,3.44,9.53,6.91,19.04,10.37,28.56.09.23.26.43.67,1.1Z" style="fill: #4a3726; stroke-width: 0px;"/>
  <path d="M52.94,14.43c3.94,10.88,7.9,21.88,11.93,32.86.28.77.96,1.45,1.57,2.03,2.25,2.15,2.01,5.31-.84,6.46-5.22,2.11-10.51,4.06-15.88,5.76-3.12.99-4.98-1.74-4.17-5.97-3.96-10.82-7.97-21.81-12.04-32.77-.31-.83-1.06-1.53-1.72-2.18-2.01-1.97-1.6-5.36,1.02-6.37,5.17-1.99,10.39-3.87,15.66-5.58,3.38-1.09,5.47,1.63,4.46,5.75Z" style="fill: #7fa95f; stroke-width: 0px;"/>
  <path d="M86.81,106.02c.74,1.4,1.96,2.77,2.08,4.22.08,1.05-1.05,2.8-2.06,3.22-5.2,2.15-10.51,4.04-15.82,5.89-2.28.79-5.04-.94-4.66-3.19.59-3.44-1.05-6.14-2.09-9.04-3.14-8.78-6.37-17.52-9.63-26.26-.32-.85-.94-1.66-1.6-2.29-2.24-2.16-1.98-5.34.87-6.47,5.15-2.04,10.38-3.87,15.63-5.62,2.31-.77,4.8.65,4.62,2.85-.35,4.39,1.71,8.03,3.04,11.88,2.92,8.39,6.08,16.7,9.15,25.04.15-.08.31-.15.46-.23Z" style="fill: #7fa95f; stroke-width: 0px;"/>
  <path d="M79.93,58.82c-5.5-10.44,2.52-30.86,14.55-36.31.86,2.56,2.11,5,2.48,7.57,1.12,7.73-1.42,14.46-6.68,20.09-2.51,2.69-5.4,5.03-8.17,7.46-.61.53-1.44.8-2.18,1.19Z" style="fill: #589058; stroke-width: 0px;"/>
</svg>