<?xml version="1.0" encoding="UTF-8"?>
<svg id="uuid-d9d67fb7-288f-4c62-af6c-66921b60918c" data-name="fill_ricesaplings" xmlns="http://www.w3.org/2000/svg" xmlns:xlink="http://www.w3.org/1999/xlink" viewBox="0 0 128 128">
  <defs>
    <linearGradient id="uuid-16b740f7-3075-4138-b832-31dfda6c18b6" x1="-6165.09" y1="-1046.05" x2="-6012.09" y2="-1045.95" gradientTransform="translate(3108 592) scale(.5)" gradientUnits="userSpaceOnUse">
      <stop offset="0" stop-color="#715945"/>
      <stop offset="1" stop-color="#573b27"/>
    </linearGradient>
    <linearGradient id="uuid-2349162f-31aa-4561-b160-34fc90189de3" x1="-6078.52" y1="-1116.87" x2="-6087.54" y2="-1038.39" gradientTransform="translate(3108 592) scale(.5)" gradientUnits="userSpaceOnUse">
      <stop offset="0" stop-color="#6baa69"/>
      <stop offset=".42" stop-color="#6aaa68"/>
      <stop offset="1" stop-color="#266c24"/>
    </linearGradient>
    <linearGradient id="uuid-2efc2380-8c7c-46a4-a34d-7a4529893622" x1="-6144.64" y1="-1118.6" x2="-6120.5" y2="-1052.89" gradientTransform="translate(3108 592) scale(.5)" gradientUnits="userSpaceOnUse">
      <stop offset="0" stop-color="#6baa69"/>
      <stop offset=".31" stop-color="#6aaa68"/>
      <stop offset=".86" stop-color="#2a6e27"/>
      <stop offset="1" stop-color="#266c24"/>
    </linearGradient>
    <linearGradient id="uuid-a7989579-76f4-47f9-aa75-7dd0f60a76dc" x1="-6039.78" y1="-1150.54" x2="-6044.27" y2="-1074.67" gradientTransform="translate(3108 592) scale(.5)" gradientUnits="userSpaceOnUse">
      <stop offset="0" stop-color="#6baa69"/>
      <stop offset=".37" stop-color="#6baa68"/>
      <stop offset="1" stop-color="#266c24"/>
    </linearGradient>
    <linearGradient id="uuid-fa77b548-0785-49b8-bb93-27fe82f74f3f" x1="-6105.86" y1="-1154" x2="-6090.95" y2="-1115.81" gradientTransform="translate(3108 592) scale(.5)" gradientUnits="userSpaceOnUse">
      <stop offset="0" stop-color="#6aaa69"/>
      <stop offset=".59" stop-color="#69a967"/>
      <stop offset="1" stop-color="#4d8e4a"/>
    </linearGradient>
  </defs>
  <path d="M67.83,21.17l5.91,7.33c4.45-7.53,12.47-14.2,21.51-14.99,2.05-.18,7.73-.53,9.03.96,2.78,3.17-3.72,6-5.79,7.78-4.83,4.15-9.21,10.24-11.47,16.22l34.51,19.75c.43.43.43.96.49,1.51.6,5.43-.49,11.96-.03,17.52l-1.02,1.48-61.3,40.2-1.9.59L6.46,89.79c-.43-.43-.42-.96-.49-1.51-.6-5.44.5-11.96.02-17.53l.51-.99,30.49-20.03c-2.32-4.15-5.7-7.64-9.26-10.71-.92-.79-4.46-2.87-4.76-3.36-1.36-2.18-.11-4.26,2.3-4.63,8.57-1.32,19.39,3.1,24.52,10.01,1.43.15,7.48-4.84,9.2-5.79-3.13-5.03-6.53-9.57-10.98-13.51-1.53-1.35-5.97-3.49-5.88-5.4.1-2.26,1.66-2.72,3.6-2.86,8.48-.64,15.85,2.07,22.1,7.69Z" style="fill: #090c0c;"/>
  <path d="M105,59.51l-1.03,1.71-45.25,29.28-36.22-20.01,18.74-12.5c1.35.3,4.75,14.51,4.8,16.72-2.27.82-4.54,2.53-4.04,5.28,1.8.35,2.32-1.48,3.54-2.21,3.29-1.97,5.04,1.25,7.1.64,1.31-.39,2.71-2.8,5.15-2.9,3.26-.14,6.56,4.81,7.7,3.98.08-.06.5-1.53.28-1.98-.5-1.05-3.24-3.03-4.29-3.81.81-2.76,2.2-12.67,4.64-13.84s4.47,1.43,6.01,1.05c2.92-.7,4.15-5.08,9.03-1.84.66.44,4.85,5.6,4.35,1.18-.18-1.65-3.97-3.78-4.04-4.11-.22-.98,1.56-8.6,2.27-8.65l21.25,12Z" style="fill: url(#uuid-16b740f7-3075-4138-b832-31dfda6c18b6);"/>
  <path d="M119,62.5v14.5c-20.14,12.3-39.49,25.96-59.5,38.5v-14.25c17.29-11.54,34.53-23.25,52.04-34.46,2.34-1.5,4.92-3.33,7.46-4.29Z" style="fill: #535352;"/>
  <path d="M117.5,59.99l-59.33,38.41-48.17-27.66,28.99-18.75c.12,1.38,1.71,2.53.54,3.78l-20.53,13.48-.48,1.45,40.13,23.22,50.8-33.75-1.8-2.1-22.67-12.82c-1.35-1.28.33-2.84.51-4.26,10.66,5.25,20.72,11.85,31.16,17.58l.83,1.41Z" style="fill: #535352;"/>
  <path d="M8.5,73.5c.89-.08,1.58.53,2.33.92,9.55,5,18.88,11.26,28.03,16.57,5.96,3.47,12.45,6.26,18.14,10.26v14.25l-48.5-27.75v-14.25Z" style="fill: #535352;"/>
  <path d="M60.74,41.49c4.4-4.79,11.1-7.43,17.51-7.99.51-.04,3.82-.44,3.24.74-.41.83-3.53,2.62-4.5,3.5-9.85,8.87-15.6,21.26-17.72,34.28l-6.27,2.48c-.02-1,.02-2,0-3-.3-4.31-.3-8.64,0-13,1.12-11,7.18-16.39,7.74-17.01Z" style="fill: url(#uuid-2349162f-31aa-4561-b160-34fc90189de3);"/>
  <path d="M50.5,74.5h-1.99c-1.55-14.43-7.74-27.53-18.5-37.26-.5-.45-4.76-3.06-4.01-3.74,6.81-.21,13.43,1.67,18.74,6.01,2.14,1.75,7.47,8.02,7.25,10.69-.11,1.3-1.09,3.16-1.36,4.69-1.08,6.3-.82,13.29-.14,19.61Z" style="fill: url(#uuid-2efc2380-8c7c-46a4-a34d-7a4529893622);"/>
  <path d="M83.47,21.24c4.96-3.99,12.25-5.92,18.53-4.99-13.16,8.53-20.72,23.5-23.03,38.72-.83.07-1.68,0-2.5.25-.76.23-3.97,2.06-3.97.53v-9.5c0-.41,4.73-5.32,5.49-6.01,1.32-1.19,6.29-4.29,6.77-5.25,1.67-3.32-3.66-3.6-5.81-3.76-8.6,1.17,4.05-9.61,4.52-9.99Z" style="fill: url(#uuid-a7989579-76f4-47f9-aa75-7dd0f60a76dc);"/>
  <path d="M72,31.99c-3.62.57-6.61,3.25-9.96,3.98-3.25-7.95-8.85-13.67-15.59-18.68-.56-.42-1.25.01-.95-1.28,11.5-.88,21.88,5.54,26.5,15.99Z" style="fill: url(#uuid-fa77b548-0785-49b8-bb93-27fe82f74f3f);"/>
  <path d="M56.7,47.04c.99-2.42,3.06-3.99,5.11-5.53,1.04-.64,2.73-2.15,3.87-1.39.6,1.82-2.51,3.99-3.84,5.8-1.99,2.17-2.96,5.22-4.86,7.43-.47.46-1.2.93-1.73.4-1.02-1.99.69-4.58,1.35-6.51l.09-.19Z" style="fill: #90c689;"/>
  <path d="M82.77,22.55c1.19-.64,3.2-.41,2.9,1.31-.08.37-.31.66-.59.92-1.19,1.04-4.1,3.36-4.85,5.12-.46,1.16-1.76,1.36-2.87,1.16-2.97-.89,3.81-7.82,5.24-8.42l.18-.09Z" style="fill: #90c689;"/>
  <path d="M58.5,39.5l-4.75,6.99c-.7-.9-2.26-2.39-1.53-3.51.2-.3,6-3.75,6.28-3.48Z" style="fill: #535352;"/>
  <path d="M12.43,77.51c1,.94.73,3.68.78,5.3-.01,1.28.04,2.63-.31,3.8-.14.41-.33.8-.76.89-.72.16-1.89-1.15-2.32-2.65-.58-2.34.18-5.43,1.35-6.85.3-.4.7-.79,1.18-.55l.08.05Z" style="fill: #929191;"/>
</svg>