<?xml version="1.0" encoding="UTF-8"?>
<svg id="uuid-e2915d2e-9349-4ba6-b029-74124f3806b0" data-name="fill_egg" xmlns="http://www.w3.org/2000/svg" viewBox="0 0 128 128">
  <path d="M54.56,21.95c3.66-3.16,6.76-6.4,10.39-8.86,13.22-8.95,28.6-6.57,40.04,5.95,10.11,11.08,14.69,24.64,17.31,39.04,1.97,10.86,1.66,21.57-2.84,31.87-6.97,15.97-22.18,22.4-37.53,22.27-1.81-.02-3.6-1.17-5.7-1.9-8.07,5.74-17.43,9.43-27.76,9.9-15.87.72-27.55-6.42-35.34-20.07-6.2-10.86-8.2-22.81-8.53-35.11-.29-10.64.84-21.05,5.99-30.61,4.48-8.32,10.7-14.74,20.34-16.65,6.62-1.31,13.15-.39,19.4,2.22,1.52.63,3,1.37,4.24,1.94Z" style="fill: #4a3726; stroke-width: 0px;"/>
  <path d="M12.56,57.15c.79-4.14,1.18-8.41,2.43-12.4,6.03-19.15,20.54-25.22,37.72-14.45,14.78,9.26,24.42,23.11,29.15,39.8,5.28,18.59-3.27,33.24-22.24,39.78-8.32,2.87-16.72,3.73-25.05.03-10.36-4.61-15.85-13.33-18.73-23.69-1.78-6.41-2.32-13.16-3.41-19.76-1.25-3.12-1.4-6.22.12-9.3Z" style="fill: #a5805b; stroke-width: 0px;"/>
  <path d="M82.68,103.99c4.5-5.94,7.48-12.31,8.21-19.74.86-8.7-.94-16.84-4.4-24.65-5.5-12.43-13.39-23.14-23.84-31.9-.23-.19-.39-.47-.58-.7,4-8.98,18.1-13.8,27.44-9.52,6.34,2.91,11.15,7.55,14.58,13.41,8.39,14.32,12.86,29.71,10.72,46.44-2.29,17.89-16.37,27.23-32.13,26.67Z" style="fill: #d6d6d5; stroke-width: 0px;"/>
</svg>