<?xml version="1.0" encoding="UTF-8"?>
<svg id="uuid-a11f5667-2730-457f-9f0b-389815b103a3" data-name="fill_woodbeam" xmlns="http://www.w3.org/2000/svg" xmlns:xlink="http://www.w3.org/1999/xlink" viewBox="0 0 128 128">
  <defs>
    <linearGradient id="uuid-f862f0c2-13a6-4119-b8f7-26b5a87ea1b8" x1="963.92" y1="-1200.86" x2="846.92" y2="-1200.04" gradientTransform="translate(-370 666) scale(.5)" gradientUnits="userSpaceOnUse">
      <stop offset="0" stop-color="#d0a674"/>
      <stop offset="1" stop-color="#7d551f"/>
    </linearGradient>
    <linearGradient id="uuid-6abfae9c-6f8e-4780-a159-ac755e0064ff" x1="955" y1="-1237.73" x2="784.01" y2="-1235.94" gradientTransform="translate(-370 666) scale(.5)" gradientUnits="userSpaceOnUse">
      <stop offset="0" stop-color="#d0a673"/>
      <stop offset="1" stop-color="#ab7837"/>
    </linearGradient>
    <linearGradient id="uuid-40969050-0015-4e4a-8a92-a562ae8e2267" x1="835.82" y1="-1172.27" x2="777.69" y2="-1110.26" gradientTransform="translate(-370 666) scale(.5)" gradientUnits="userSpaceOnUse">
      <stop offset="0" stop-color="#a87533"/>
      <stop offset="1" stop-color="#d3a978"/>
    </linearGradient>
  </defs>
  <path d="M15.5,115l-1.24-1v-37.51c21.67-19.8,42.57-40.47,64.49-59.99h37c.05,0,.75.7.75.75v36.5c-20.84,20.47-42.65,40.03-63.75,60.27-.34.38-.86.33-1.25.48-11.96.4-23.96.57-36,.5Z" style="fill: #0c0d0c;"/>
  <path d="M51.5,114.5c-.42.16-.91.8-1.7.53l-34.3-.03,36-.5Z" style="fill: #878888;"/>
  <path d="M113.5,45c-.67,1.82-2.17,1.99-3.45,3.3-2.17,2.22-4.92,4.75-6.88,6.87-1.6,1.73-1.41,4.22.83,3.08,1.63-.83,5.55-5.93,7.49-7.51,2.23-1.82,3.1-1.86,2.5,1.5-.31,1.74-3.06,3.06-4.26,4.24-16.05,15.67-32.92,30.79-49.24,46.26-2.15,2.04-4.27,4.66-6.49,6.51-.5.42-.65.95-1.5.75v-7.75c3.97-3.87,8.2-7.47,12.26-11.24,2-1.85,5.23-5.44.24-4.26l-12.26,11.74c-.42-1.37-.55-3.56.22-4.78,4.92-5.07,10.48-9.59,15.54-14.46,1.19-1.15,8.82-8.45,8.96-9.07.14-.66-1.19-2.08-1.96-1.46l-22,20.78c-.29.11-.54.18-.59.11-.35-.46-.23-7.75-.21-8.69s.1-1.95.3-2.91c16.71-16.21,34.07-31.82,51.01-47.74,1.5-1.41,8.2-8.81,9.49-8.76.59,7.68.65,15.76,0,23.5Z" style="fill: url(#uuid-f862f0c2-13a6-4119-b8f7-26b5a87ea1b8);"/>
  <path d="M110.5,20c-.83.94-1.56,1.89-2.49,2.76-19.07,17.83-38.43,35.23-57.26,53.24h-20.25l21.53-19.72c.81-1.58,1.06-2.45-.79-2.3s-4.19,3.4-5.72,4.78c-6.44,5.77-12.99,11.27-19.26,17.24h-7.25l60.51-56.74h5.49c-3.44,3.39-6.81,6.86-10.24,10.27-.53.53-1.48.86-1.78,1.32-.61.94-.77,2.71.78,2.67,1.4-.03,12.55-12.62,14.75-14.26l5.49-.25c-.69,1.66-7.51,6.53-6.5,7.99.61,0,1.19.49,1.76.48,1.44-.02,6.61-6.85,8.73-7.98,4.18-.53,8.55-.39,12.6-.08l-.1.58Z" style="fill: url(#uuid-6abfae9c-6f8e-4780-a159-ac755e0064ff);"/>
  <path d="M49.5,79c.14,6.5.31,12.84.5,19-.06,4.7.07,9.34-.5,14H17v-33h32.5Z" style="fill: url(#uuid-40969050-0015-4e4a-8a92-a562ae8e2267);"/>
  <path d="M113.5,45v-23.5c.82.09.47,1.13.5,1.75.34,5.78.45,14.34.03,20.06-.08,1.02-.3,1.07-.53,1.69Z" style="fill: #bf9058;"/>
  <path d="M50,98c-.83-.51-.5-1.9-.51-2.74-.05-5.42.05-10.84,0-16.26.68.05.49.72.52,1.23.36,5.57.05,12.11-.02,17.77Z" style="fill: #a37a46;"/>
  <path d="M98,19.5c.42-.22.39-.44,1.2-.53,3.81-.43,8.4.37,12.3.03.04.6-.76.72-1,1-.51-.83-1.9-.5-2.74-.51-3.25-.03-6.51.04-9.76,0Z" style="fill: #bf9058;"/>
  <path d="M27,82c.59,3.68-2.97,2.28-5.5,2.5v13.75c0,.99-3,.99-3,0v-15c0-.16.67-.75.5-1.25h8Z" style="fill: #f6d1a2;"/>
</svg>