<?xml version="1.0" encoding="UTF-8"?>
<svg id="uuid-fb16989d-e3a5-440f-b096-6478fe04441c" data-name="fill_sorghum" xmlns="http://www.w3.org/2000/svg" xmlns:xlink="http://www.w3.org/1999/xlink" viewBox="0 0 128 128">
  <defs>
    <linearGradient id="uuid-8827c47b-2433-453b-965a-acc290a0d6f4" x1="-570.89" y1="-91.51" x2="-440.49" y2="-4.06" gradientTransform="translate(296 74) scale(.5)" gradientUnits="userSpaceOnUse">
      <stop offset="0" stop-color="#ae855a"/>
      <stop offset=".75" stop-color="#805224"/>
      <stop offset="1" stop-color="#7f5224"/>
    </linearGradient>
    <linearGradient id="uuid-d6e3b873-92cb-46a0-80a8-b05aa4d1892a" x1="-366.09" y1="3.62" x2="-425.96" y2="48.8" gradientTransform="translate(296 74) scale(.5)" gradientUnits="userSpaceOnUse">
      <stop offset="0" stop-color="#76b55c"/>
      <stop offset="1" stop-color="#559931"/>
    </linearGradient>
    <linearGradient id="uuid-c8018a3f-3971-481f-9dad-06bb75076ab1" x1="-454.14" y1="28.97" x2="-421.05" y2="82.58" gradientTransform="translate(296 74) scale(.5)" gradientUnits="userSpaceOnUse">
      <stop offset="0" stop-color="#72b054"/>
      <stop offset="1" stop-color="#54962c"/>
    </linearGradient>
  </defs>
  <path d="M48.65,19.35c1.21,1.04,3.58,1.58,5.06,3.2,2.17,2.37,1.92,4.91,3.06,6.94.4.71,2.33,1.75,3.22,2.78,1.21,1.4,1.86,3.7,2.78,4.72.77.86,2.42,1.2,3.48,2.02,1.84,1.42,3.28,4.05,4.77,5.23,3.13,2.5,5.65,2.32,8.4,6.6,3.79,5.91,2.34,8.35,1.64,14.46-.3,2.63.07,4.99-.78,7.72-1.09,3.47-6.23,7.68-6.24,10.23,0,2.16,8.07,13.31,9.22,16.25.32-2.73-.71-5.52-.78-8.23-.37-14.84,10.07-27.69,23.35-33.2,2-.83,3.42-1.79,5.19.17,2.92,3.23-2.67,7.09-4.72,9.8-8.88,11.76-12.22,25.06-11.81,39.73.06,2.06,1.09,3.35.14,5.6-1.06,2.49-3.08,1.12-4.14,1.86-.73.51-.85,3.05-3.2,4.3-2.48,1.32-5.51.32-5.74.5-.38.28.09,2.27-2.52,2.79-2.25.44-4.64-2.35-6.55-3.51-11.54-7.03-23.6-10.21-37.23-9.31-2.84.19-9.87,2.34-11.9,1.06-.97-.61-1.1-3.54-.58-4.54.29-.55,4.68-3.36,5.6-3.9,12.22-7.17,24.45-8.61,36.99-1.18l6.16,4.08-8.51-15.23c-5.53-1.85-8.89,1.37-14.75-.75-1.77-.64-2.59-1.68-3.77-2.23-4.73-2.21-7.17-1.69-10.95-6.55-4.06-5.22-2.2-7.54-3.04-12.96-.21-1.39-1.42-2.99-1.84-4.66-.52-2.06-.06-5.07-.34-6.14s-2.13-3.19-2.68-4.84c-.47-1.41-.43-3.14-.87-4.13-.29-.63-1.98-1.91-2.65-2.85-2.91-4.04-1.41-5.34-2.2-9.3-.61-3.02-1.97-6.69-2.91-9.59-1.33-4.08-.67-10.72.78-14.76,1.88-5.24,7.55-7.66,12.73-5.75,1.12.41,1.92,1.23,2.9,1.6,4.53,1.72,4.9.81,8.61,4.89,2.03,2.23,4.28,5.09,6.64,7.1Z" style="fill: #0a0c0c;"/>
  <path d="M31.31,9.21c1.69.97,2.06.66,3.97,1.27,4.46,1.41,3.89,3.7,5.99,6.01.86.95,2.85,1.4,3.93,2.57.78.84,1.27,2.75,1.39,2.86.3.26,3.13.62,4.65,2.1,2.52,2.46,1.87,5.78,3.21,7.67.14.19,2.47,1.33,3.53,2.59s2.37,4.87,2.64,5.11c.93.81,3.68,1.37,5.32,2.93,1.15,1.1,2.35,3.89,3.07,4.43s2.35.64,3.34,1.16c5,2.66,7.16,7.86,6.67,13.38-.27,3-.54,3.73-.51,6.98.05,5.57-3.36,6.62-5.44,10.07-2.27,3.76-1.61,5.78-6.73,7.77-3.92,1.52-4.45.3-7.55.44-1.03.05-2.21.83-3.53.98-5.81.64-6.18-1.36-10.28-3.23-.97-.44-2.18-.32-3.25-.75-4.39-1.74-8.2-5.31-8.73-10.27-.21-2.01.51-4.5.36-5.94-.12-1.2-1.94-3.39-2.24-5.18-.32-1.91.18-4-.22-5.78-.35-1.54-2.51-3.79-3.05-5.95-.33-1.3-.17-3.84-.44-4.31-.11-.19-2.68-1.82-3.4-2.84-2.15-3.02-1.07-4.9-1.52-7.98-.38-2.58-1.99-7.13-2.87-9.63-1.7-4.82-.45-4.72.38-8.92.56-2.86-.67-4.67,2.25-7.25,2.57-2.27,6.29-1.87,9.09-.27Z" style="fill: url(#uuid-8827c47b-2433-453b-965a-acc290a0d6f4);"/>
  <path d="M75.7,114.8c.98,1.27,2.42,2.56,3.07,4.17.26.65.72,1.72-.52,1.52-7.33-6.05-16.37-10.45-25.74-12.27-9.97-1.94-16.6-.6-26.32.72-.59.08-1.65.23-1.19-.7,1.04-2.13,11.04-6.61,13.62-7.39,15.41-4.63,27.81,1.93,37.08,13.93Z" style="fill: #62a241;"/>
  <path d="M92,72c2.36-2.87,5.07-5.49,8.04-7.71l8.96-4.54c.3,2.16-1.84,3.07-2.99,4.51-11.16,13.99-16.13,30.23-13.51,48.24-.86,1.01-2.55-3.11-2.73-3.51-3.43-7.47-5.15-18.94-2.76-26.99.94-3.16,3.5-7.86,5-10Z" style="fill: url(#uuid-d6e3b873-92cb-46a0-80a8-b05aa4d1892a);"/>
  <path d="M69.54,96.21c-1.54-2.28-2.89-4.53-3.54-7.2,1.66.23,5.55-3.63,6.48-2.99.1.07.57,1.71.93,2.33,4.7,8.12,9.39,16.25,14.21,24.3,1.66,3.98-3.58,7.33-6.55,3.54-2.09-2.67-8.31-14.3-11.52-19.98Z" style="fill: url(#uuid-c8018a3f-3971-481f-9dad-06bb75076ab1);"/>
  <path d="M93.58,71.88c2.72-.63.86,3.42.13,4.51-2.37,3.61-3.43,7.87-4.35,11.99-1.33,3.35-2.59.06-2.41-1.77.08-4.36,1.63-8.52,3.98-12.13.61-.99,1.52-2.09,2.52-2.56l.12-.05Z" style="fill: #afd0a0;"/>
  <path d="M31.24,47.5c1.67-.07,1.75,3.02,2.62,4.58.46.92,1.49,1.47,2.17,2.17.86,1.06.05,1.84-.14,3.53-.73,2.59-.14,4.9,1.14,7.13.94,1.79-.42,3.76-2.09,1.85-2.1-2.82-2.97-6.45-2.04-9.66.4-2.22-1.58-3.69-2.3-5.7-.66-1.31-1.15-3.42.5-3.87l.14-.02Z" style="fill: #c99565;"/>
  <path d="M70.15,72.53c-.51-1.09.61-2.39.78-3.51.49-1.7-.53-3.35-.39-5.06.1-1.62.89-3.3.7-4.99-.04-1.37-.86-2.8-.56-4.15.2-.77.95-.96,1.58-.58,1.39.76,1.96,3.39,2,5.38.09,1.64-.64,3.18-.7,4.79.01,1.73,1.01,3.81.15,5.68-.42,1.24-2.2,3.19-3.48,2.53l-.07-.07Z" style="fill: #5e3a1b;"/>
  <path d="M21.92,17.98c2.78-.38.27,4.87,1.52,6.23.48,1,1.48,1.76,1.84,2.79.32,1.13-.35,2.32-.19,3.48-.03,1.3,2.04,3.04,1.09,4.27-3.41,1.77-3.49-4.95-3.74-6.51-.14-1.02-.83-1.84-1.3-2.74-.92-1.64-1.3-6.42.65-7.48l.14-.04Z" style="fill: #c99565;"/>
  <path d="M53.48,85.47c-1.17.72-3.42-.09-4.9-.66-1.06-.48-1.9-1.32-3.01-1.71-2.32-.65-4.73-.83-6.32-2.98-.81-.75-1.3-2.89.41-2.55,1.16.34,2.06,1.46,3.18,1.92,1.12.52,2.64.23,3.72.65,1.17.46,1.97,1.58,3.15,2.06,1.35.68,3.14.53,3.87,1.37.44.52.41,1.38,0,1.81l-.1.09Z" style="fill: #c99565;"/>
  <path d="M54.1,48.15c-.9-3.07,5-3.27,7.09-2.16,1.84.86,3.01,2.6,3.08,4.44.07.96-.65,1.98-1.56,1.42-.91-.78-1.93-3.86-3.86-3.82-1.52-.29-3.28.84-4.66.21l-.09-.09Z" style="fill: #5e3a1b;"/>
  <path d="M38.41,105.32c-.59-.93,1.06-2.01,2.2-2,1.73-.47,18.07.19,14.85,3.56-1.12.51-2.67.09-3.86-.2-1.68-.46-2.91-.57-5.14-.55-1.56,0-3.24,0-4.8,0-1.11,0-2.61.01-3.2-.74l-.05-.08Z" style="fill: #afd0a0;"/>
  <path d="M70.12,95.43c-.76-1.72,1.05-2.96,2.22-1.42,1.57,2.16,4,6.83,5.23,9.23.19.4.36.83.41,1.25-.01,3.06-3.18.09-3.81-1.11-.55-.91-1.2-2.73-1.92-4.22-.68-1.55-1.61-2.52-2.05-3.56l-.06-.16Z" style="fill: #afd0a0;"/>
</svg>