<?xml version="1.0" encoding="UTF-8"?>
<svg id="uuid-0a3dea67-542b-430a-a922-0ece46e75f3f" data-name="fill_prefabwall" xmlns="http://www.w3.org/2000/svg" xmlns:xlink="http://www.w3.org/1999/xlink" viewBox="0 0 128 128">
  <defs>
    <linearGradient id="uuid-544c40c3-0a51-4898-b5f2-15906e043704" x1="-1214.02" y1="-1127.03" x2="-1213.98" y2="-972.03" gradientTransform="translate(666 592) scale(.5)" gradientUnits="userSpaceOnUse">
      <stop offset="0" stop-color="#bbae95"/>
      <stop offset="1" stop-color="#a18b74"/>
    </linearGradient>
  </defs>
  <path d="M108.5,21c.47,26.48.47,54,0,80.5-.22.73-.2,1.3-.77,1.97s-6.15,5.87-6.76,6.26c-.56.35-1.06.71-1.75.75-8.77-.63-18.88.93-27.48.04-1.14-.12-3.24-1.03-3.24-2.26v-43.25h-12.5v37.25c-.29.54-.63,1.01-1.04,1.46-.85.91-6.72,6.2-7.46,6.54-1.39.64-6.09.23-7.99.26-6.67-.58-14.35-.67-21,0-1.79-.56-2.62-1.84-2.52-3.73V27.22c-.1-.83.33-1.19.75-1.75.31-.43,6.3-5.89,6.8-6.2.82-.52,1.23-.68,2.21-.79,5.32-.56,12,.16,17.53.03,20.99-.48,42-.78,63-.05,2.24.24,1.79.96,2.23,2.52Z" style="fill: #0d0e0f;"/>
  <path d="M19,27.5h80v80h-27.5v-45h-25.5c0,.17,0,.5,0,.5v44.5h-27V27.5Z" style="fill: url(#uuid-544c40c3-0a51-4898-b5f2-15906e043704);"/>
  <path d="M104,21v.49c-1.2-.24-3.36,3.01-3.75,3.01H22v-.49c1.2.24,3.36-3.01,3.75-3.01h78.25Z" style="fill: #776d5e;"/>
  <path d="M106.03,100.28c-.19,1.67-3.01,4.05-4.55,4.79,0,0-.53-75.52.12-77.72.3-1.02,3.43-3.5,4.4-4.35.01,5.66-.01,11.34,0,17,.04,20.08-.05,40.18.03,60.28Z" style="fill: #51453b;"/>
  <polygon points="53.5 65 53.5 101.25 49 105 49 65 53.5 65" style="fill: #51453b;"/>
  <path d="M46,107.5c.04-10.32-.06-20.68,0-31v31Z" style="fill: #ae9e86;"/>
  <path d="M22.35,47.06c.51.57.94,2.07,1.01,3.73.04,3.03.37,6.55-.58,9.44-1.32,3.13-2.51-1.04-2.42-3.32.07-1.82-.46-11.27,1.91-9.93l.07.07Z" style="fill: #ddceba;"/>
  <path d="M30.04,31.38c-.8.38-5.52.04-6.69.16-.44.01-.39.37-.5.77-.1.64-.7,1.41-1.41,1.17-1.2-.47-1.14-2.3-.92-3.38.19-.76.48-1.1.78-1.13,1.16-.05,3.54,0,4.93-.02,1.15,0,2.39-.02,3.39.01.94,0,.74,1.91.47,2.34l-.06.09Z" style="fill: #ddceba;"/>
  <path d="M23,61v-14c.68.05.49.72.52,1.23.2,3.13.31,8.52,0,11.57-.07.66.04.76-.53,1.2Z" style="fill: #ae9e86;"/>
</svg>