<?xml version="1.0" encoding="UTF-8"?>
<svg id="fill_wheatsemolina" xmlns="http://www.w3.org/2000/svg" viewBox="0 0 128 128">
  <path d="M14.69,100.84c-3.11-24.67-3.14-48.85.03-73.73-.49-.35-1.3-.92-2.1-1.49-4.71-3.38-6.14-7.99-5.63-13.64.42-4.62,3.21-7.8,7.86-7.8,32.83-.02,65.67-.02,98.5.02,4.55,0,7.5,3.1,7.58,7.62.02,1.28-.09,2.56.02,3.83.28,3.07-.69,5.57-3.08,7.55-1.58,1.32-3.06,2.75-4.44,4,3.01,24.68,3.02,48.88-.04,74.03.46.3,1.38.87,2.29,1.48,5.36,3.57,5.8,8.91,5.24,14.61-.35,3.62-3.35,6.42-7.18,6.47-5.6.08-11.21.02-16.81.02-27.03,0-54.07,0-81.1,0-6.05,0-8.49-2.76-8.86-8.81-.3-4.94,1-8.86,4.96-11.86,1.01-.77,1.96-1.63,2.76-2.3Z" style="fill: #4a3726; stroke-width: 0px;"/>
  <path d="M111.98,11.58c2.74,1.25.71,3.59,1.55,5.79-1.35,1.18-2.74,2.41-4.16,3.63-1.42,1.21-2.86,2.4-4.05,3.41,3.83,26.68,3.73,52.69.08,78.74,2.72,2.55,5.36,5.04,7.81,7.34v5.58H14.83v-5.74c2.33-2.09,5.17-4.63,7.11-6.37-.71-14.13-1.88-27.14-1.88-40.16,0-12.92,1.17-25.83,1.88-39.65-1.99-1.85-4.71-4.38-7.55-7.02.3-1.99.56-3.77.83-5.54,1.04-.97,2.35-.86,3.62-.86,29.84,0,59.68,0,89.52,0,1.27,0,2.58-.11,3.62.86Z" style="fill: #d6d6d5; stroke-width: 0px;"/>
  <path d="M93.08,63.44c-.05,16.02-13.27,28.95-29.52,28.87-15.64-.07-28.47-13.33-28.41-29.33.06-14.58,11.63-29.34,30.2-28.65,16.08.6,27.65,13.48,27.73,29.1Z" style="fill: #4a3726; stroke-width: 0px;"/>
  <path d="M90.89,27.99c-1.57,0-3.18.2-4.71-.05-2.05-.34-3.8-1.35-3.68-3.83.12-2.34,1.55-3.56,3.83-3.62,3.14-.08,6.29-.07,9.43,0,2.31.05,3.74,1.39,3.85,3.65.12,2.4-1.64,3.49-3.72,3.8-1.63.24-3.33.05-5,.05Z" style="fill: #4a3726; stroke-width: 0px;"/>
  <path d="M63.92,20.43c1.57,0,3.16-.12,4.72.03,2.11.2,3.8,1.01,3.93,3.53.13,2.49-1.36,3.75-3.49,3.9-3.32.23-6.68.19-10.01-.02-2.19-.14-3.73-1.55-3.55-3.89.18-2.24,1.67-3.47,3.98-3.52,1.47-.03,2.95,0,4.42,0,0,0,0-.01,0-.02Z" style="fill: #4a3726; stroke-width: 0px;"/>
  <path d="M37.12,20.48c1.67,0,3.34-.07,5.01.02,2.21.13,3.45,1.59,3.58,3.6.13,1.97-1.07,3.49-3.12,3.6-3.61.19-7.24.27-10.84.07-2.13-.12-3.2-1.67-3.08-3.9.12-2.2,1.58-3.11,3.45-3.35,1.64-.21,3.33-.04,5-.04Z" style="fill: #4a3726; stroke-width: 0px;"/>
  <path d="M64.13,98.8c1.57,0,3.13-.02,4.7,0,2.36.03,3.69,1.25,3.71,3.59.02,2.19-1.23,3.55-3.4,3.64-3.32.14-6.66.16-9.98.01-2.25-.1-3.74-1.52-3.66-3.79.09-2.26,1.6-3.46,3.93-3.46,1.57,0,3.13,0,4.7,0Z" style="fill: #4a3726; stroke-width: 0px;"/>
  <path d="M37.3,98.81c1.56,0,3.13-.03,4.69,0,2.19.05,3.59,1.25,3.73,3.36.13,2.11-1.17,3.69-3.28,3.81-3.6.21-7.24.2-10.84-.04-2.02-.13-3.01-1.72-2.91-3.74.1-2.05,1.28-3.25,3.33-3.37,1.75-.11,3.52-.02,5.28-.02Z" style="fill: #4a3726; stroke-width: 0px;"/>
  <path d="M86.02,105.95c-2.5-.25-3.75-1.74-3.42-4.13.31-2.31,2-3.1,4.26-3.04,2.83.08,5.67.05,8.5,0,2.39-.03,4.18.87,4.19,3.41,0,2.45-1.36,4-4.08,3.79-1.82-.07-5.5.49-9.44-.04Z" style="fill: #4a3726; stroke-width: 0px;"/>
  <g>
    <path d="M53.71,73.26c-1.53-1.86-3.14-3.67-4.58-5.6-1.38-1.85-1.26-3.13.21-4.92-1.82-2.04-2.85-4.51-3.69-7.07-.93-2.84.85-5,3.79-4.58,1.28.18,2.55.46,3.93.71-1.94-3.45-1.16-6.95-.42-10.41.46-2.16,3.01-3.17,4.84-1.93,2.17,1.47,4.14,3.21,5.5,5.49.52.88.76,1.93,1.13,2.9.73-.9,1.51-1.93,2.35-2.9,2.2-2.55,5.01-2.06,6.2,1.1.45,1.18.86,2.39,1.15,3.62.28,1.22.39,2.49.59,3.86.08.02.31.1.55.16,1.66.41,2.58,1.46,2.65,3.39.09,2.44.02,4.88.02,7.34.34-.05.83-.18,1.32-.2,2.08-.07,3.69,1.71,3.31,3.75-.37,1.95-.73,3.93-1.38,5.8-1.09,3.1-3.37,4.8-6.71,4.95-.11,0-.21.02-.32.04-.03,0-.06.04-.18.14.54,1.52,1.15,3.06,1.64,4.64.53,1.71.14,3.25-1.23,4.44-1.4,1.22-3,1.37-4.67.6-1.15-.53-1.81-1.52-2.22-2.7-.48-1.36-.98-2.71-1.51-4.18-2.02,1.64-4.27,2.36-6.65,1.57-1.58-.52-3.02-1.53-4.46-2.41-.8-.49-1.49-1.15-2.19-1.78-2.03-1.83-1.66-4.49.78-5.69.19-.09.37-.2.27-.15Z" style="fill: #4a3726; stroke-width: 0px;"/>
    <path d="M60.76,54.18c1.01-.03,1.4.57,1.66,1.29,1.13,3.09,2.24,6.19,3.37,9.29,2.27,6.22,4.54,12.44,6.81,18.67.6,1.64.41,2.42-.64,2.75-.91.29-1.51-.22-2.06-1.73-3.32-9.16-6.65-18.32-9.97-27.48-.17-.47-.32-.98-.34-1.47-.03-.83.52-1.21,1.17-1.32Z" style="fill: #a5805b; stroke-width: 0px;"/>
    <path d="M75.01,56.48c.2,2.73.92,5.47-.56,8.04-1.05,1.83-3.23,2.39-4.65,1.37-1.26-.9-1.66-3.19-.66-4.87,1.24-2.08,3.29-3.32,5.29-4.58.09-.06.27.01.59.04Z" style="fill: #d3cb8c; stroke-width: 0px;"/>
    <path d="M69.87,46c.28.67.58,1.24.75,1.84.41,1.46.83,2.92,1.11,4.41.25,1.38-.33,2.6-1.28,3.55-1.57,1.57-3.89,1.13-4.67-.96-.33-.89-.36-1.99-.22-2.95.23-1.53,2.72-4.83,4.31-5.89Z" style="fill: #d3cb8c; stroke-width: 0px;"/>
    <path d="M48.45,53.73c2.56.56,5.32.56,7.38,2.54.54.52.93,1.31,1.12,2.05.35,1.4-.16,2.52-1.18,3.11-1.22.7-3.05.46-4.26-.58-1.63-1.41-2.21-3.43-2.98-5.33-.19-.48-.27-1-.4-1.5.1-.09.21-.19.31-.28Z" style="fill: #d3cb8c; stroke-width: 0px;"/>
    <path d="M56.16,41.66c2.04,1.96,4.89,3.27,5.26,6.59.22,1.94-.66,3.31-2.13,3.69-1.39.36-3.17-.57-3.79-2.23-.37-.98-.49-2.11-.45-3.16.06-1.59.36-3.17.56-4.75.19-.04.37-.09.56-.13Z" style="fill: #d3cb8c; stroke-width: 0px;"/>
    <path d="M79.75,67.06c-.03,2.18-.59,4.16-1.34,6.12-.47,1.24-1.39,2.02-2.56,2.5-1.15.47-2.3.38-3.23-.52-.98-.94-1.07-2.18-.6-3.32.35-.86.93-1.84,1.69-2.29,1.66-.99,3.5-1.68,5.27-2.48.18-.08.42-.01.77-.01Z" style="fill: #d3cb8c; stroke-width: 0px;"/>
    <path d="M53.85,76.3c2.44-1.04,4.52-1.84,6.8-1.9,1.92-.05,3.78,1.29,4.03,2.83.36,2.25-1.85,4.02-4.4,3.46-1.98-.44-3.46-1.76-4.96-3-.45-.37-.84-.79-1.46-1.38Z" style="fill: #d3cb8c; stroke-width: 0px;"/>
    <path d="M50.89,64.77c2.44,0,4.6-.18,6.71.08.98.12,1.99.98,2.72,1.76.89.95.85,2.42.23,3.34-.7,1.03-2.23,1.61-3.69,1.2-.78-.22-1.63-.56-2.17-1.12-1.22-1.27-2.26-2.7-3.36-4.09-.18-.23-.22-.56-.44-1.16Z" style="fill: #d3cb8c; stroke-width: 0px;"/>
  </g>
</svg>