<?xml version="1.0" encoding="UTF-8"?>
<svg id="uuid-23dd76df-56e4-4175-abed-2245a7e9783e" data-name="fill_bakedpoppy" xmlns="http://www.w3.org/2000/svg" viewBox="0 0 128 128">
  <path d="M61.46,104.47c-14.07.8-22.37-8.53-23.38-19.68-21.03,2.54-32.3-24.82-13.98-37.79-7.72-16.07-3.1-27.03,12.62-33.07-.98.38,22.5-9.48,25.26-9.69,16.71-1.25,25.23,3.42,28.04,18.6,21.3-2.56,32.06,26.49,13.76,38.1,6.94,11.57,5.48,20.06-5.17,30.25,19.12,30.31-32.61,48.94-37.16,13.28Z" style="fill: #4a3726; stroke-width: 0px;"/>
  <path d="M40.61,45.83c-14.91-.03-14.94-23.26.05-23.07,15.18.29,14.9,22.79-.05,23.07Z" style="fill: #484847; stroke-width: 0px;"/>
  <path d="M46.75,64.48c-.29,15.51-22.93,14.72-23.05-.38.2-14.58,23.54-14.61,23.05.38Z" style="fill: #484847; stroke-width: 0px;"/>
  <path d="M92.9,55.03c-15.2.25-15.12-23.4-.01-23.12,14.86.54,14.81,22.67.01,23.12Z" style="fill: #484847; stroke-width: 0px;"/>
  <path d="M75.55,53.86c-.33,15.27-22.65,15.05-23.11.1-.02-14.9,23.29-14.98,23.11-.1Z" style="fill: #484847; stroke-width: 0px;"/>
  <path d="M82.48,92.33c14.87.08,14.6,23.16-.66,22.66-14.86.02-14.49-23.4.66-22.66Z" style="fill: #484847; stroke-width: 0px;"/>
  <path d="M70.04,84.37c.31,14.87-23.6,14.63-22.7-.66-.16-14.61,23.72-14.64,22.7.66Z" style="fill: #484847; stroke-width: 0px;"/>
  <path d="M87.32,84.74c-14.99.76-14.3-23.08-.1-22.62,15.01-.65,15.34,23.77.1,22.62Z" style="fill: #484847; stroke-width: 0px;"/>
  <path d="M80.62,23.74c.46,15.03-22.82,15.1-22.74.17-.38-15.6,23.71-14.58,22.74-.17Z" style="fill: #484847; stroke-width: 0px;"/>
</svg>