<?xml version="1.0" encoding="UTF-8"?>
<svg id="fill_pickle_parsnip" xmlns="http://www.w3.org/2000/svg" viewBox="0 0 128 128">
  <path d="M59.14,6.33c10.31,0,20.62.15,30.93-.05,5.66-.11,8.11,3.53,8.5,8.27.37,4.48.34,8.92-2.67,12.88-.8,1.05-.71,3.35-.17,4.74,3.02,7.84,4.48,15.87,4.4,24.3-.16,17.6,0,35.2-.09,52.8-.01,2.43-.4,4.98-1.25,7.25-1.51,4.06-5.32,5.09-9.06,5.12-20.39.14-40.78.09-61.17.05-5.75-.01-10.76-4.45-10.55-11.38.54-17.7.32-35.43.14-53.14-.09-8.66,1.34-16.9,4.35-25.01.63-1.7.24-4.34-.71-5.95-3.29-5.59-3.13-11.23-.3-16.6.89-1.69,3.93-3.09,6.03-3.15,10.53-.32,21.07-.14,31.61-.14Z" style="fill: #4a3726; stroke-width: 0px;"/>
  <path d="M58.9,116.57c-9.86,0-19.71,0-29.57,0-4.83,0-6.89-1.97-6.89-6.76-.02-18.74-.36-37.48.18-56.2.18-6.32,2.49-12.61,4.07-18.86.69-2.74,3.19-2.81,5.56-2.8,16.08.12,32.16.24,48.23.32,2.14.01,4.28-.24,6.43-.32,2.57-.09,4.47.96,5.07,3.57,1.66,7.26,4.14,14.3,4,21.99-.31,17.25-.09,34.52-.1,51.78,0,5.47-1.93,7.3-7.4,7.28-9.86-.03-19.71,0-29.57,0Z" style="fill: #f4f8f4; stroke-width: 0px;"/>
  <path d="M93.1,12.59v10.08c-1.34.27-2.69.79-4.05.79-19.91.05-39.83.05-59.74,0-1.28,0-2.57-.4-4.05-.65v-10.03c1.44-.32,2.89-.9,4.34-.91,19.69-.06,39.37-.05,59.06-.01,1.38,0,2.75.43,4.44.72Z" style="fill: #beb696; stroke-width: 0px;"/>
  <path d="M88.63,108.3c-1.42.38-2.73,1.02-4.04,1.02-16.98.07-33.96.07-50.94,0-1.3,0-2.6-.67-4.23-1.12,1.83-22.8-1.99-45.28,2.28-67.9,1.8-.35,3.18-.84,4.55-.84,15.28-.05,30.56-.05,45.84,0,1.29,0,2.58.44,4.44.78.71,5.61,1.92,11.04,2,16.49.26,16.9.1,33.8.1,51.57Z" style="fill: #4a3726; stroke-width: 0px;"/>
  <path d="M82.08,75.42v27.55h-45.87v-27.55h45.87Z" style="fill: #beb696; stroke-width: 0px;"/>
  <g>
    <path d="M70.43,34.14c.13-.39.43-1.33.74-2.27,1.31-4.05,6.35-5.21,10.1-2.07,1.1-.18,2.4-.38,3.69-.62,4.41-.82,6.98,1.97,7.63,7.49.49,4.18,1.02,8.3,4.29,11.76,2.79,2.94,3.14,7.27,3.75,11.28.75,5,1.7,9.97,2.53,14.96.76,4.53,1.47,9.07,2.2,13.61.86,5.39,1.54,10.8,2.57,16.16.87,4.57,2.47,8.57,1.94,12.93-3.64,3.99-6.32,3.34-8.52-1.16-2.42-4.93-5.28-9.64-8.02-14.41-3.4-5.91-7.2-11.61-10.23-17.7-3.91-7.88-12.47-24.21-12.44-24.52.57-5.73-2.66-9.36-5.04-13.63-2.05-3.67-2.49-7-.24-8.85,1.3-1.07,2.92-1.74,5.05-2.95Z" style="fill: #4a3726; stroke-width: 0px;"/>
    <path d="M98.1,65.42c2.55,16.39,5.01,32.18,7.47,47.97-.12.14-.24.28-.35.42-.73-.69-1.66-1.25-2.14-2.08-4.54-7.76-9.01-15.57-13.49-23.38-.15-.26-.17-.6-.35-1.29.77-.49,1.55-1.09,2.42-1.52.7-.35,1.52-.45,2.25-.75,1.3-.52,2.66-1.2,2.08-2.93-.59-1.77-2.2-1.89-3.56-1.23-6.2,3.03-6.21,1.22-9.02-3.69-2.81-4.9-5.58-9.84-8.06-14.92-2.27-4.64-.28-10.59,4.14-13.52,5.68-3.78,12.63-1.84,15.55,4.42.8,1.71,1.46,3.53,1.87,5.37.34,1.56-.46,2.8-2.02,3.38-2.29.86-4.6,1.68-6.89,2.56-1.41.54-3.21,1.06-2.51,3.07.69,2,2.34,1.36,3.8.77,1.69-.68,3.37-1.41,5.1-1.97,1.06-.35,2.2-.42,3.71-.69Z" style="fill: #beb696; stroke-width: 0px;"/>
    <path d="M81.5,43.2c-1.1.36-2.08.68-3.53,1.15-1.22-3.59-2.45-6.83-3.34-10.16-.17-.64.82-1.89,1.57-2.37.44-.28,1.95.18,2.18.68,1.48,3.26,3.71,6.33,3.12,10.71Z" style="fill: #96a775; stroke-width: 0px;"/>
    <path d="M74.69,46.51c-.63.72-1.19,1.93-1.88,2-.84.09-2.12-.53-2.61-1.26-.97-1.42-1.6-3.1-2.23-4.72-.61-1.58-.41-3.06,1.33-3.8,1.79-.76,2.58.38,3.13,1.89.68,1.86,1.41,3.69,2.26,5.89Z" style="fill: #96a775; stroke-width: 0px;"/>
    <path d="M88.42,41.93c-2.12-1.08-3.7-5.08-3.03-8.52.83.34,1.76.45,2.25.98,1.21,1.33,1.6,6.24.78,7.54Z" style="fill: #96a775; stroke-width: 0px;"/>
  </g>
</svg>