<?xml version="1.0" encoding="UTF-8"?>
<svg id="uuid-6d9b39ef-d5a7-439d-b586-d81d98e5b0bc" data-name="fill_rye" xmlns="http://www.w3.org/2000/svg" xmlns:xlink="http://www.w3.org/1999/xlink" viewBox="0 0 128 128">
  <defs>
    <linearGradient id="uuid-3c9dd044-5961-4fa9-b50e-6e08cecf54fa" x1="-644.06" y1="-96.1" x2="-590.04" y2="-91.38" gradientTransform="translate(370 148) scale(.5)" gradientUnits="userSpaceOnUse">
      <stop offset="0" stop-color="#f5ea74"/>
      <stop offset="1" stop-color="#d5bd77"/>
    </linearGradient>
    <linearGradient id="uuid-54c1c9f0-fc59-41eb-aa1a-26ad484ae47a" x1="-598.96" y1="-260.54" x2="-606.4" y2="-207.6" gradientTransform="translate(370 148) scale(.5)" gradientUnits="userSpaceOnUse">
      <stop offset="0" stop-color="#f5ea74"/>
      <stop offset="1" stop-color="#d5bd77"/>
    </linearGradient>
    <linearGradient id="uuid-59543ea0-b3d4-4814-bc59-ee50062a5cc6" x1="-561.63" y1="-208.9" x2="-582.02" y2="-158.44" gradientTransform="translate(370 148) scale(.5)" gradientUnits="userSpaceOnUse">
      <stop offset="0" stop-color="#f5ea73"/>
      <stop offset="1" stop-color="#d5bd77"/>
    </linearGradient>
    <linearGradient id="uuid-262a61d9-f1e4-4f46-ac33-4c452b2c1139" x1="-533.9" y1="-160.72" x2="-555.18" y2="-110.59" gradientTransform="translate(370 148) scale(.5)" gradientUnits="userSpaceOnUse">
      <stop offset="0" stop-color="#f5ea73"/>
      <stop offset="1" stop-color="#d5bd77"/>
    </linearGradient>
    <linearGradient id="uuid-74d23b34-0f03-4036-a84f-62e1f0ac4b3a" x1="-696.41" y1="-206.78" x2="-647.79" y2="-183.06" gradientTransform="translate(370 148) scale(.5)" gradientUnits="userSpaceOnUse">
      <stop offset="0" stop-color="#f5ea73"/>
      <stop offset="1" stop-color="#d5bd77"/>
    </linearGradient>
    <linearGradient id="uuid-adee398a-2567-4601-a69b-6f5ced9ae227" x1="-668.51" y1="-267.53" x2="-642.78" y2="-222.78" gradientTransform="translate(370 148) scale(.5)" gradientUnits="userSpaceOnUse">
      <stop offset="0" stop-color="#f5e874"/>
      <stop offset="1" stop-color="#d5bd77"/>
    </linearGradient>
    <linearGradient id="uuid-88d90942-fd85-4868-911d-69300b553749" x1="33.45" y1="75.51" x2="63.51" y2="78.67" gradientUnits="userSpaceOnUse">
      <stop offset="0" stop-color="#f0ca4d"/>
      <stop offset=".29" stop-color="#ecc853"/>
      <stop offset=".69" stop-color="#e0c264"/>
      <stop offset="1" stop-color="#d5bd77"/>
    </linearGradient>
  </defs>
  <path d="M57.01,25.44l4.24-6c6.08-7.24,11.45-8.79,16.35.67,3.46,6.67,4.84,15.25,1.91,22.34,3.67-1.4,5.34-3.68,9.72-2.97,6.02.98,7.08,13.48,6.8,18.24-.21,3.54-1.05,7.25-3.02,10.22,4.43-1.17,7.72-5.13,12.64-3.39,3.74,1.32,4.6,4.44,4.88,8.12.98,13.09-3.71,29.04-20.02,24.27,2.12,4.5,8.7,11.75,7.97,16.71-.57,3.84-4.58,5.48-8.12,4.68s-8.38-12.17-10.36-15.39l-1.41,3.83c-4.48,10.6-17.39,8.78-25.74,4.07-6.62-3.73-12.94-9.27-5.09-15.89l6.24-4c-7.97-.05-16.35-4.91-21.25-11-3.18-3.96-3.07-7.76,1.09-10.92l6.17-3.08c-7.65.61-14.68-4.94-18.91-10.84-9.7-13.52,1.11-16.56,13.42-16.67-4.52-6.4-6.51-16.56-4.37-24.12,3.63-12.85,25.64,2.93,26.88,11.12Z" style="fill: #0c0d0c;"/>
  <path d="M50.16,41.58c1.54-1.79,4.64-1.4,5.77.69l38.84,67.16c3.41,4.7-2.26,9.34-5.67,4.17L49.9,45.81c-.61-1.17-.61-3.22.26-4.22Z" style="fill: #8f6829;"/>
  <path d="M57.66,110.3c-5.84-2.47-15.71-7.5-8.11-13.61,6.13-4.69,15.2-7.85,22.55-4.21,8.8,4.62,6.2,17.96-3.69,19.3-3.61.68-7.19,0-10.55-1.4l-.2-.08Z" style="fill: url(#uuid-3c9dd044-5961-4fa9-b50e-6e08cecf54fa);"/>
  <path d="M62.05,22.99c3.36-6.01,9.47-10.13,13.13-1.92,2.42,4.88,3.64,10.02,2.92,15.27-.35,7.38-7.2,12.26-14.26,9.58-9.9-3.56-5.64-16.02-1.89-22.77l.09-.16Z" style="fill: url(#uuid-54c1c9f0-fc59-41eb-aa1a-26ad484ae47a);"/>
  <path d="M76.11,50.16c4.19-5.64,13.46-13.37,16.31-2.59,1.82,6.9,2.05,15.36-3.21,20.94-5.82,6.33-17.08,1.92-17.58-6.46-.16-4,2.25-8.27,4.37-11.73l.11-.16Z" style="fill: url(#uuid-59543ea0-b3d4-4814-bc59-ee50062a5cc6);"/>
  <path d="M87.37,78.39c6.73-9.63,22.33-19.83,20.81.12-.45,8.63-5.41,18.86-14.96,16.43-7.22-1.85-10.32-10.32-5.95-16.38l.11-.17Z" style="fill: url(#uuid-262a61d9-f1e4-4f46-ac33-4c452b2c1139);"/>
  <path d="M21.05,50c-3.67-6.28,3.87-8.26,8.74-8.65,8.29-1.01,20.54,2.37,19.37,12.68-.69,6.29-6.79,10.79-13.2,8.78-5.89-1.73-11.64-7.85-14.84-12.69l-.07-.13Z" style="fill: url(#uuid-74d23b34-0f03-4036-a84f-62e1f0ac4b3a);"/>
  <path d="M32.62,16.42c1.52-7.61,9.48-2.94,13.48-.19,8.21,5.54,13.67,16.66,2.9,22.8-4.48,2.28-9.91.22-12.89-3.6-2.65-3.21-3.16-7.94-3.54-12.04-.15-2.3-.38-4.9,0-6.81l.03-.16Z" style="fill: url(#uuid-adee398a-2567-4601-a69b-6f5ced9ae227);"/>
  <path d="M57.62,87.08c-3.64,1.6-8.72.97-12.31-.97-2.5-1.45-5.39-3.98-8-5.92-2.14-1.71-3.77-3.34-3.78-5.31.34-7.48,19.53-9.82,24.48-6.44,7.68,3.39,7.23,15.23-.21,18.56l-.17.08Z" style="fill: url(#uuid-88d90942-fd85-4868-911d-69300b553749);"/>
  <path d="M33.81,23.45c.4-2.08.46-4.59,1.22-6.65.68-1.47,2.22-1.21,2.49.07.27,1-.13,2.21-.3,3.25-.7,3.84.67,7.46,1.47,11.09.34,2.75-3.14,1.67-3.93-.36-.91-2.21-1.3-4.83-.97-7.21l.02-.2Z" style="fill: #f7f1d9;"/>
  <path d="M59.01,109.29c-2.21-.6-9.31-3.74-9.07-6.24.35-1.46,1.9-1.57,3.01-.68,2.38,1.75,4.91,3.34,7.91,3.85,1.29.3,2.38.65,2.65,1.56.58,2.52-2.79,1.89-4.31,1.55l-.2-.04Z" style="fill: #fefcf7;"/>
  <path d="M41.59,78.1c1.7,1.51,4.09,2.75,6.02,3.97.9.62,1.53,1.37,1.56,1.94,0,1.14-1.61.99-2.46.81-3.65-1.04-7.38-3.3-9.69-6.39-.89-1.32-.52-3.1,1.42-2.37,1,.33,2.03,1.15,2.97,1.91l.17.14Z" style="fill: #fefcf7;"/>
  <path d="M62.86,23.22c.71-.51,1.84-.44,2.19.28.42,1.57-1.12,3.22-1.68,4.64-1.3,2.77-1.93,5.97-2.04,9.06,0,.81-.29,1.9-1.05,2.13-4.33.38.39-14.66,2.46-16.03l.12-.09Z" style="fill: #fefcf7;"/>
  <path d="M72.39,59.24c.23-1.73,1.31-3.3,2.12-4.84.98-2.02,1.95-3.65,3.81-5.23.75-.67,1.6-1.59,2.59-1.71,1.31-.05,1.41,1.5.64,2.36-2.86,2.46-4.66,5.5-5.82,9.18-.49,1.4-1.13,2.52-2.05,2.53-1.03-.02-1.39-1.16-1.31-2.1l.02-.19Z" style="fill: #fefcf7;"/>
  <path d="M94.28,71.84c1.17-.93,5.74-2.78,4.54.17-.77,1.3-2.32,1.98-3.53,2.84-1.87,1.25-3.39,2.98-4.69,4.74-.7.96-1.33,2.99-2.84,2.29-3.04-2.23,4.59-8.53,6.36-9.92l.16-.11Z" style="fill: #fefcf7;"/>
  <path d="M22.67,51c-1.09-1.39-.83-4.69,1.4-3.11.61.43,1.14,1.14,1.58,1.8,1.78,2.78,3.95,5.08,6.69,6.81,1.01.64,4.09,2.58,2.05,3.51-3.77.37-6.39-2.67-8.65-5.3-1.04-1.12-2.19-2.22-2.97-3.53l-.1-.18Z" style="fill: #fefcf7;"/>
</svg>