<?xml version="1.0" encoding="UTF-8"?>
<svg id="uuid-e3852c6d-d237-436c-840b-771aa966d130" data-name="fill_chicken" xmlns="http://www.w3.org/2000/svg" viewBox="0 0 128 128">
  <path d="M96.17,118.94c-5.99,7.36-12.53,8.81-20.39,4.6-9.39,5.36-15.5,5.37-23.25.03-9.44,3.92-14.75,2.76-20.52-4.44-30.91,4.02-13.18-31.34-10.21-47.77.76-22.37-2.04-43.18,21.48-55.16,3.08-.97,6.47-.77,9.26-3.83,2.13-17.52,26.26-14.79,27.96,1.69,23.14,8.98,26.76,30.1,25.19,52.28-.08,16.67,23.94,56.97-9.52,52.59Z" style="fill: #4a3726; stroke-width: 0px;"/>
  <path d="M75.13,110.96c-2.98,12.05-19.48,12.19-22.29-.12-4.42,12.2-17.02,8.94-16.69-3.48-4.99,4.56-9.74,7.2-15.6,1.91,1.78-13.8,6.43-26.44,9.26-39.95-.43-19.18-2.84-35.15,16.03-46.75,1.15,2.88,2.11,5.26,3.13,7.82-3.73,7.33-2.32,10.39,8.05,16.61-.87,3.3-1.5,6.42-5.74,7.66-6.09,1.92-5.59,10.64-.23,13.42-3.68,7.6-4.27,18.7,4.97,21.17,4.61-.09,8.9.32,13.31,1.86,13.98,1.53,10.97-14.12,8.87-22.82,9-16.43-6.58-9.61-6.81-21.08,7.28-5.99,4.24-13.25,2.05-20.16,1.83-2.06,3.44-3.86,5.05-5.66,21.61,8.81,20.46,26.76,19.55,47.15.46,11.09,22.33,59.06-6.17,38.83-.03,12.11-12.22,15.69-16.75,3.58Z" style="fill: #8e5b36; stroke-width: 0px;"/>
  <path d="M54.14,36.42c3.9-5.72,1.17-10.26-1.06-16.06,2.77-.97,4.78-1.67,6.94-2.43-3.92-17.15,20.78-10.15,10.46,2.09-5.63,3.83-3.63,10.67-1.64,16.04,1.71,9.47-11.46,4.79-14.7.37Z" style="fill: #ab5555; stroke-width: 0px;"/>
  <path d="M74.31,61.25c-3.88,2.4-7.03,4.34-10.3,6.36-3.34-2.02-6.59-3.99-10.29-6.23,6.14-1.6,8.36-6.18,10.2-11.93,2.01,5.39,3.78,10.22,10.39,11.8Z" style="fill: #cbb256; stroke-width: 0px;"/>
  <path d="M72.23,83.66c-6.36,1.92-5.09-5-5.92-9.21,1.39-.85,2.84-1.74,4.28-2.62,3.35,4.81,3.85,8.78,1.65,11.83Z" style="fill: #ab5555; stroke-width: 0px;"/>
  <path d="M62.24,74.66c.09,6.77-.69,7.87-5.12,7.45-2.29-2.5-2.15-5.95.46-10.01,1.52.84,3.05,1.68,4.66,2.57Z" style="fill: #ab5555; stroke-width: 0px;"/>
  <path d="M46.41,49.36c-2.16,7.04-9.7,5.41-10.02-.52.75-5.65,9.13-6.51,10.02.52Z" style="fill: #4a3726; stroke-width: 0px;"/>
  <path d="M81.57,49.15c.63-5.82,8.87-7.06,10.04.06-.54,6.21-9.5,6.24-10.04-.06Z" style="fill: #4a3726; stroke-width: 0px;"/>
</svg>