<?xml version="1.0" encoding="UTF-8"?>
<svg id="fill_potato" xmlns="http://www.w3.org/2000/svg" viewBox="0 0 128 128">
  <path d="M68.58,121.83c-11.69-.19-20.39-6.03-28.7-13.22-13.11-11.35-19.63-26.34-24.57-42.37-2.79-9.02-4.86-18.12-2.38-27.49,3.37-12.76,11.05-22.54,22.2-29.35,7.83-4.78,16.36-3.33,24.78-1.42,14.85,3.37,25.3,12.06,32.68,25.36,4.09,7.37,9.93,13.74,14.67,20.77,7.67,11.35,11.2,23.8,7.38,37.31-4.17,14.75-15.32,22.59-29.19,26.94-5.45,1.71-11.23,2.35-16.86,3.47Z" style="fill: #4a3726; stroke-width: 0px;"/>
  <path d="M68.32,113.01c-8.68.54-15.09-3.98-21.42-9.07-13.07-10.51-19.27-25-23.9-40.42-1.11-3.69-1.94-7.48-2.6-11.28-1.95-11.33,2.72-20.39,10.03-28.52,4.61-5.12,9.8-9.92,16.99-9.41,6.26.44,12.57,2.2,18.54,4.27,8.95,3.12,14.44,10.24,19.2,18.15,3.54,5.89,7.61,11.51,11.88,16.91,5.66,7.16,9.74,15.01,10.77,24.06,1.18,10.42-2.55,19.21-10.8,25.75-8.36,6.63-18.24,9.07-28.68,9.56Z" style="fill: #a5805b; stroke-width: 0px;"/>
  <path d="M86.67,91.08c.02,3.93-2.5,6.65-6.24,6.71-3.8.07-6.84-3.04-6.87-7.01-.02-3.08,3.33-6.22,6.68-6.25,3.71-.04,6.41,2.72,6.43,6.55Z" style="fill: #4a3726; stroke-width: 0px;"/>
  <path d="M34.02,58.07c-3.03.01-6.01-3.04-5.96-6.11.05-3.33,2.74-5.97,6.04-5.92,3.32.05,5.95,2.69,5.95,6.01,0,3.18-2.84,6.02-6.04,6.03Z" style="fill: #4a3726; stroke-width: 0px;"/>
  <path d="M93.01,71.59c-.09,2.95-2.61,5.37-5.5,5.31-2.77-.06-5.44-2.92-5.28-5.64.19-3.17,2.79-5.64,5.77-5.49,2.71.14,5.11,2.92,5.02,5.81Z" style="fill: #4a3726; stroke-width: 0px;"/>
  <path d="M63.76,82.75c-2.82-.06-4.47-1.81-4.34-4.61.12-2.7,2.07-4.5,4.73-4.37,2.49.12,4.66,2.4,4.53,4.75-.13,2.47-2.24,4.28-4.92,4.22Z" style="fill: #4a3726; stroke-width: 0px;"/>
  <path d="M39.35,39.22c-2.47,0-4.34-1.82-4.4-4.31-.06-2.41,1.82-4.43,4.21-4.51,2.5-.09,4.59,1.98,4.55,4.5-.04,2.56-1.82,4.31-4.36,4.32Z" style="fill: #4a3726; stroke-width: 0px;"/>
</svg>