<?xml version="1.0" encoding="UTF-8"?>
<svg id="uuid-28511d3f-6c64-4f8d-b2a6-c597a6468a04" data-name="fill_squarebalewood" xmlns="http://www.w3.org/2000/svg" xmlns:xlink="http://www.w3.org/1999/xlink" viewBox="0 0 128 128">
  <defs>
    <linearGradient id="uuid-a3c19a97-c6d4-4b2e-9b79-6776daa33178" x1="-797.7" y1="-612.29" x2="-1007.7" y2="-611.8" gradientTransform="translate(518 370) scale(.5)" gradientUnits="userSpaceOnUse">
      <stop offset="0" stop-color="#b38262"/>
      <stop offset="1" stop-color="#78584c"/>
    </linearGradient>
  </defs>
  <path d="M24.41,27.13c4.48-.17,9.37.99,14.34.87,6.42-.16,13.44.38,19.52.02,2.26-.13,5.35-1.1,7.46-1.05,3.03.07,6.78,1.32,9.94,1.34,3.45.02,7.72-1.28,11.08-1.23,4.57.07,13.18,1.85,17.1,4.31,2.02,1.27,3.22,3.23,5.5,4.5,2.46,1.37,4.97,1.63,7.49,3.01,1.08.59,5.45,3.6,6.16,4.34.97,1.01.43,7.1.48,9.02.31,12.6.01,25.21,0,38,.32,1.78.39,8.5-.43,9.53-1.33,1.68-9.62-.44-12.31-.32-2.9.13-6.56,1.46-9.54,1.48-4.68.03-9.7-1.07-14.95-.96-6.48.13-13.26-.32-19.52-.02-2.37.11-5.63,1.01-7.93.98-3.01-.04-7.09-1.51-10.05-1.5-3.3,0-7.64,1.57-10.93,1.52-4.5-.07-11.56-1.43-15.5-3.55-2.53-1.36-4.38-4.33-6.76-5.74-1.77-1.05-3.66-1.34-5.53-2.47-.68-.41-5.29-4.03-5.58-4.42-.94-1.28-.38-6.99-.44-9.06-.38-13.5-.78-27.5-.56-40.99.03-2.1.82-4.22.6-6.42.1-.41.36-.62.75-.75,2.15-.7,7.78.92,10.38.89,2.73-.03,6.36-1.21,9.21-1.32Z" style="fill: #0c0d0d;"/>
  <path d="M30.5,91.5c1.92-4.93,1.43-7.92,1.5-13.25.11-8.15.03-16.89-.5-25-.24-3.64.89-6.73-2.74-9.26-1.02-.71-2.52-.84-3.39-1.48-1.62-1.18-2.66-2.3-4.84-3.79-2.55-1.73-5.73-4.94-8.25-6.76-.7-.51-1.83-.14-1.77-.97,5.68.75,11.21-1.35,16.75-1,2.03.13,4.41.91,6.48,1.02,4.82.25,9.26-1.37,14.02-1.02,1.92.14,4.01.9,5.98,1.02,3.85.23,6.94-.88,10.5-1.04,4.65-.21,8.74,1.33,13.52,1.02,6.7-.43,10.82-1.5,17.89.11,6.35,1.45,8.29,5.01,13.02,7.48,2.48,1.29,5.02,1.5,7.5,3,.58.35,4.58,3.25,4.73,3.51.6,1.01-.41,3.34-.44,4.65-.28,12.95.3,27.02.54,40,.05,2.58-.03,5.17,0,7.75-3.83.14-7.41-.75-11.27-.52-6.88.4-8.96.58-15.98.03-5.29-.42-9.92,1.32-15.02,1.02-3.8-.22-6.82-1.32-11-1.04-6.97.46-8.91.58-15.98.02-7.75-.61-12.52,1.73-21.25,0-1.43-.49-1.79-5.45,0-5.5Z" style="fill: url(#uuid-a3c19a97-c6d4-4b2e-9b79-6776daa33178);"/>
  <path d="M30.5,97c-2.64-.52-5.27-1.04-7.67-2.58-2.09-1.34-3.42-3.78-5.86-5.14-1.47-.82-2.93-1-4.31-1.69-.83-.41-5.28-3.74-5.69-4.3-1.25-1.71.08-3.74.08-5.54,0-13.21,0-26.83-.57-39.98-.08-1.87-.11-3.94.27-5.77.95,1.77,3.2,1.69,4.4,2.47.67.43,1.15,1.96,2.39,2.73,4.15,2.59,7.11,5.37,11,8,.66.45,1.65.52,2.45,1.05,2.88,1.93,1.92,5.47,2.02,8.48.34,10.22.51,20.73.51,31,0,1.62-1.93,5.34.99,5.75-.39,1.01.28,4.14,0,5.5Z" style="fill: #623d31;"/>
  <path d="M113.45,47.95c-.83,1.24-7.79-.55-9.71-.49-2.54.07-5.34,1.11-8,1.07s-5.45-1.08-7.99-1.08c-2.89,0-5.95,1.15-9.02,1.07-2.41-.06-4.65-1.08-6.98-1.07-2.72,0-5.7,1.12-8.51,1.08-2.64-.04-5.29-1.11-8-1.07s-5.54,1.17-8.51,1.06c-1.55-.06-6.53-.69-7.89-1.12-1.57-.49-1.16-2.19.88-2.43,2.77-.33,7.18.62,10.52.52,18.62-.57,37.36.14,56.02-.52,1.62.63,9.31-.19,7.18,2.98Z" style="fill: #0c0d0d;"/>
</svg>