<?xml version="1.0" encoding="UTF-8"?>
<svg id="uuid-193435c1-6329-468f-98f5-e4775204949c" data-name="fill_pictureframe" xmlns="http://www.w3.org/2000/svg" viewBox="0 0 128 128">
  <path d="M101.6,41.64c3.57,0,6.47-.06,9.37.01,4.12.11,6.67,2.66,6.68,6.78.03,22.52.03,45.05,0,67.57,0,4.26-2.62,6.9-6.85,6.91-31.22.03-62.45.03-93.67,0-4.11,0-6.77-2.62-6.78-6.68-.04-22.62-.03-45.24,0-67.86,0-4.08,2.62-6.6,6.74-6.72,1.45-.04,2.9-.01,4.35-.01,1.45,0,2.89,0,4.89.46,9.93-10.16,19.85-20.33,29.78-30.49,1.55-1.59,3.14-3.15,4.74-4.7,2.55-2.47,3.8-2.48,6.35.05,10.92,10.82,21.83,21.64,32.72,32.49.75.75,1.31,1.69,1.69,2.19ZM36.45,41.48h55.23c-9.15-9.34-18.36-18.74-27.61-28.17-9.35,9.53-18.55,18.92-27.63,28.17Z" style="fill: #4a3726; stroke-width: 0px;"/>
  <path d="M17.02,48.17h93.99v68.03H17.02V48.17Z" style="fill: #a5805b; stroke-width: 0px;"/>
  <path d="M104.11,108.38H23.94v-52.5h80.16v52.5Z" style="fill: #4a3726; stroke-width: 0px;"/>
  <path d="M47.58,76.84c4.98,4.02,9.97,7.67,14.51,11.82,3.27,2.99,6.1,3.52,10,1.2,4.8-2.85,9.95-5.11,15.02-7.66,3.57,2.08,7.06,4.12,10.68,6.23v13.41H30.86v-12.32c5.3-4.02,10.83-8.2,16.72-12.67Z" style="fill: #50984f; stroke-width: 0px;"/>
  <path d="M67.73,84.63c-5.59-4.52-11.07-8.94-16.54-13.37-2.98-2.41-3.82-2.45-6.82-.2-4.4,3.29-8.8,6.6-13.51,10.13v-18.62h66.86v18.11c-2.28-1.31-4.56-2.36-6.52-3.81-2.73-2.02-5.17-1.75-8.01-.18-5.05,2.79-10.26,5.29-15.45,7.94Z" style="fill: #7ecde7; stroke-width: 0px;"/>
</svg>