<?xml version="1.0" encoding="UTF-8"?>
<svg id="uuid-222b505e-222d-4158-a466-268d139f3b9b" data-name="fill_cartonroll" xmlns="http://www.w3.org/2000/svg" xmlns:xlink="http://www.w3.org/1999/xlink" viewBox="0 0 128 128">
  <defs>
    <linearGradient id="uuid-2ba12a1b-128c-4ad3-bad8-30d56613d65a" x1="-1079.36" y1="-677.72" x2="-1079.75" y2="-533.72" gradientTransform="translate(592 370) scale(.5)" gradientUnits="userSpaceOnUse">
      <stop offset="0" stop-color="#d3a978"/>
      <stop offset=".28" stop-color="#d3a977"/>
      <stop offset=".8" stop-color="#a97635"/>
      <stop offset="1" stop-color="#a77533"/>
    </linearGradient>
    <linearGradient id="uuid-3bfb2ee3-1ec0-4f9f-b8ab-ed8a276a75ec" x1="-1044.23" y1="-696.74" x2="-971.56" y2="-588.95" gradientTransform="translate(592 370) scale(.5)" gradientUnits="userSpaceOnUse">
      <stop offset="0" stop-color="#b58346"/>
      <stop offset="1" stop-color="#6e512d"/>
    </linearGradient>
  </defs>
  <path d="M81.39,18.15c35.73-2.16,51.89,44.42,20.87,65.87-8.5,5.88-20.36,13.05-29.43,18.07C22.44,129.99-14.24,53.1,37.15,30.4c13.75-2.65,30.56-11.43,44.24-12.25Z" style="fill: #0c0d0c;"/>
  <path d="M46.89,30.64c42.07-4.79,58.76,50.07,23.62,69.62-29.3,16.3-63.19-11.03-54.15-43.15,3.74-13.29,16.66-24.89,30.53-26.47Z" style="fill: url(#uuid-2ba12a1b-128c-4ad3-bad8-30d56613d65a);"/>
  <path d="M85,91c1.98-3.49,4.09-7.05,5.36-10.89,7.98-24.13-8.92-50.33-34.36-52.11l8-2.75c20.09-9.18,45.51-2.86,51.17,20.33,5.67,23.24-10.34,35.27-28.52,44.81-.56.29-.87.79-1.65.6Z" style="fill: url(#uuid-3bfb2ee3-1ec0-4f9f-b8ab-ed8a276a75ec);"/>
  <path d="M85,91c.24.24-.46.8-.5.25-.01-.17.39-.36.5-.25Z" style="fill: #76572f;"/>
  <path d="M49.39,48.64c16.84-1.91,28.27,18.1,17.6,31.6-10.35,13.1-30.27,8.61-34.63-7.35-3.09-11.31,5.49-22.94,17.03-24.25Z" style="fill: #0c0d0c;"/>
  <path d="M34.36,36.09c1.45-.39,2.79.48,1.9,1.92-.3.48-3.83,2.43-4.77,3.23-1.6,1.35-3.84,3.66-5.25,5.25-1,1.13-2.29,4.44-3.99,4.01-2.36-.61,2.04-5.9,2.76-6.74,1.41-1.64,7.56-7.19,9.35-7.67Z" style="fill: #f2d7ac;"/>
  <path d="M46,32.5l-.02,2.48c-1.59-.45-7.42,2.79-7.98.76-.67-2.45,6.42-3.41,8-3.25Z" style="fill: #f2d7ac;"/>
  <path d="M47.87,51.62c13.67-2.18,24.39,10.29,19.15,23.15-6.62,16.24-31.29,12.31-32.51-5.52-.53-7.72,5.56-16.38,13.36-17.63Z" style="fill: #76572f;"/>
</svg>