<?xml version="1.0" encoding="UTF-8"?>
<svg id="uuid-ba0e7ab1-5881-4856-b0fe-2e65105d80e8" data-name="fill_strawpellets" xmlns="http://www.w3.org/2000/svg" viewBox="0 0 128 128">
  <path d="M58.99,105.76c-3.3.34-6.43.77-9.58.97-2.97.18-5.46-.65-6.24-4.28-5.95,0-11.84,0-17.73,0-2.65,0-5.3.02-7.95.03-5.79.02-10.7-1.9-13.46-7.21-2.81-5.4-1.96-10.88,1.32-15.8,3.37-5.06,7.06-9.91,10.68-14.8,8.91-12.05,17.88-24.07,26.8-36.12,9.97-13.47,31.66-14.02,41.83-.69,13.1,17.17,25.87,34.61,38.7,51.99,3.53,4.78,2.56,9.89.14,14.76-2.47,4.99-6.64,7.76-12.25,7.83-9.44.11-18.89-.07-28.34.07-1.71.02-3.54.73-5.08,1.56-2.08,1.12-4.09,2.49-5.86,4.06-2.52,2.26-5.08,2.08-7.78.67-1.87-.97-3.64-2.12-5.21-3.05Z" style="fill: #4a3726; stroke-width: 0px;"/>
  <path d="M50.71,55.98c-3.66-2.98-7.53-2.12-11.28-1.27-5.28,1.2-9.06,4.49-11.79,9.12-1.19,2.01-1.21,3.84-.18,5.96,3.9,8,7.67,16.06,11.48,24.09.26.54.46,1.11.79,1.93-.81.1-1.46.24-2.1.24-6.71.02-13.42.01-20.13.03-3.28,0-6.3-.82-7.82-3.92-1.55-3.16-.91-6.44,1.1-9.25,5.08-7.09,10.27-14.11,15.45-21.13,7.16-9.72,14.36-19.41,21.53-29.13,5.52-7.49,13.14-8.95,21.67-7.35,4.41.83,7.92,3.34,10.6,6.94,12.47,16.75,24.89,33.53,37.44,50.23,2.27,3.02,1.86,5.92.52,8.94-1.29,2.91-3.67,4.59-6.83,4.64-7.03.12-14.06.04-21.93.04,4.56-3.2,8.41-6.08,12.44-8.66,2.15-1.38,2.87-3.01,2.71-5.49-.57-8.88-5.63-15.86-13.13-17.49-1.28-.28-3,.05-4.12.73-3.23,1.96-6.25,4.25-9.77,6.69-.22-3.53-.29-6.73-.67-9.89-.18-1.5-.6-3.2-1.51-4.33-2.71-3.34-5.48-6.7-8.69-9.52-1.96-1.72-4.67-2.9-7.24-3.52-5.36-1.31-9.08,2.01-8.86,7.44.05,1.23.22,2.45.36,3.93Z" style="fill: #d5bd77; stroke-width: 0px;"/>
  <path d="M57.51,85.96c-.88,1.31-1.64,2.45-2.71,4.03,1.52-.58,2.55-.97,3.88-1.48.98,2.05,1.96,4.09,2.94,6.13-2.81,5.02-7.36,5.72-12.5,5.66-3.25-6.84-6.48-13.64-9.76-20.56,1.84-.99,3.45-1.86,5.59-3.01h-6.97c-1.59-3.31-3.11-6.46-4.65-9.66,2.59-4.69,6.53-6.73,12.02-6.49,4.02,8.39,8.04,16.79,12.15,25.38Z" style="fill: #d5bd77; stroke-width: 0px;"/>
  <path d="M87.75,84.66c.42,1.14.83,2.27,1.33,3.63-7.1,4.96-14.17,9.89-21.42,14.96-.9-.42-1.82-.86-3.31-1.56,4.76-4.26,4.82-8.9.96-13.8.29-.13.59-.25.88-.38,1.12.7,2.23,1.4,3.79,2.37-.48-1.49-.85-2.64-1.29-4.01,7.2-5.06,14.39-10.12,21.61-15.18,5.35,1.99,6.83,6.34,7.63,11.36-2.03,1.44-4.03,2.86-6.15,4.35-1.26-.72-2.47-1.41-3.67-2.1-.26-.02-.38.1-.36.36Z" style="fill: #d5bd77; stroke-width: 0px;"/>
  <path d="M62.51,80.63c-6.99-9.08-4.26-19.58-5.88-29.78,3.25-.19,5.57,1.4,7.11,3.45,1.54,2.06,2.23,4.75,3.29,7.14.1-.73.24-1.66.37-2.6.2-.11.4-.23.6-.34.77,1.34,2.05,2.61,2.2,4.02.51,4.53.6,9.11.86,13.83-3.03,1.41-4.85,5.06-8.56,4.28Z" style="fill: #d5bd77; stroke-width: 0px;"/>
</svg>