<?xml version="1.0" encoding="UTF-8"?>
<svg id="fill_manure" xmlns="http://www.w3.org/2000/svg" viewBox="0 0 128 128">
  <path d="M45.46,61.53c-1.25-22.23,20.58-23.09,4.33-42.99C43.94,10.61,52.74-.02,61.47,4.72c11.4,5.72,17.41,15.24,19.02,27.91,4.9-7.36-7.21-14.86-.17-21.77,18.42-14.42,38.61,26.75,11.66,38.45,1.66,5.82,3.26,11.39,5.15,18.03,5.63,3.4,9.78,9.34,10.87,17.17,17.46,11.4,8.99,40.47-12.09,39.92-21.19.04-42.38.02-63.57,0-22.32.69-30.2-30.78-10.59-40.88,1.4-3.22,2.71-6.22,4.1-9.42-10.31-12.5-6.97-35.19,9.07-41.44,9.09-3.78,16.86,6.43,11.16,14.34-2.98,4.75-4.45,11.2-1.07,15.94.52-.36.21-.99.44-1.45Z" style="fill: #4a3726; stroke-width: 0px;"/>
  <path d="M76.78,46.53c10.65,4.76,10.54,15.19,12.28,25.49,7.71,2.43,11.64,8.45,11.26,16.29,13.59,7.43,12.4,27.48-4.09,28.36-21.5.16-43,.11-64.5.04-15.1.37-19.43-23.34-2.95-27.67.96-3.4,1.81-6.39,2.52-8.9,7.38,1.1,14.51,3.2,17.13-5.68,2.99,4.55,6.53,8.14,10.97,10.92,7.29,3.56,15.23-5.72,11.57-12.83-5.65-9.37.04-18.26,5.82-26.03Z" style="fill: #876f47; stroke-width: 0px;"/>
  <path d="M63.46,78.46c-14.89-6.35-11.46-27.08-2.5-37.66,9.18-11.95-3.41-19.01-4.62-29.38,13.72,4.57,21.02,21.53,12.35,33.55-8.05,9.62-9.56,21.16-4.25,32.45l-.98,1.04Z" style="fill: #6f814f; stroke-width: 0px;"/>
  <path d="M41.05,74.19c-17.47-1.5-18.19-33.15-.76-34.14-7.34,17.07-5.86,17.66.76,34.14Z" style="fill: #6f814f; stroke-width: 0px;"/>
  <path d="M86.13,15.53c14.84-.14,14.75,28.19-1.25,26.91,4.9-9.91,5.28-16.51,1.25-26.91Z" style="fill: #6f814f; stroke-width: 0px;"/>
</svg>