<?xml version="1.0" encoding="UTF-8"?>
<svg id="uuid-933e6925-abd1-4c1f-ba5f-e51397a9ec22" data-name="fill_cereals" xmlns="http://www.w3.org/2000/svg" xmlns:xlink="http://www.w3.org/1999/xlink" viewBox="0 0 128 128">
  <defs>
    <linearGradient id="uuid-1163749b-3a31-4573-95bf-b31383174ec7" x1="745.52" y1="-1109.16" x2="745.56" y2="-1066.16" gradientTransform="translate(-296 592) scale(.5)" gradientUnits="userSpaceOnUse">
      <stop offset="0" stop-color="#65a03e"/>
      <stop offset="1" stop-color="#85bc65"/>
    </linearGradient>
    <linearGradient id="uuid-7f708efd-881d-42ff-8c4e-64b1959b909a" x1="753.5" y1="-1148.01" x2="753.5" y2="-1111.01" gradientTransform="translate(-296 592) scale(.5)" gradientUnits="userSpaceOnUse">
      <stop offset="0" stop-color="#85bc64"/>
      <stop offset="1" stop-color="#65a03e"/>
    </linearGradient>
    <linearGradient id="uuid-813ea1c6-f981-4f20-b2b5-19bd4d981ff9" x1="691.57" y1="-1167.21" x2="691.65" y2="-1129.21" gradientTransform="translate(-296 592) scale(.5)" gradientUnits="userSpaceOnUse">
      <stop offset="0" stop-color="#86bc65"/>
      <stop offset="1" stop-color="#66a241"/>
    </linearGradient>
  </defs>
  <path d="M85.57,16.43c1.37.11,2.8.14,4.18.06,8.62-.46,17.36-2.13,25.98-2.52,2.37-.11,3.77-.2,3.03,2.53-1.65,6.15-6.41,12.76-7.78,19.23l-.05,80.2c-.64.94-19.82,1.82-22.68,2.07-14.82,1.29-29.65,2.85-44.49,4.04l-21.75-9.29c-.83-.48-.93-1.08-1.03-1.97-.85-7.62,1.24-15.96,0-23.5-1.34-17.85,1.86-38.51.03-56.03-.23-2.2-1.9-5.55-2.77-7.73-.77-1.95-5.72-11.78-4.7-12.98l66.75-6c.95.02,1.42.88,1.82,1.62.82,1.53,3.02,9.97,3.46,10.29Z" style="fill: #0a0e0c;"/>
  <path d="M108.5,58.5v32.5c-5.09.35-56.07,5.14-63.5,5.5v-32.5c5.43-.25,54.33-4.79,63.5-5.5Z" style="fill: #ebe6a7;"/>
  <polygon points="108.5 94 108.5 114 45 119 45 99 108.5 94" style="fill: #7db55c;"/>
  <path d="M45.5,41.5l62.25-5.52c.96-.07.72-.01.75.75.08,1.73.11,3.81.02,5.54-.06,1.19-.49,2.27-.54,3.46-.11,2.67.46,6.65.02,9.02-.1.57-.18,1.01-.82,1.18l-61.93,5.57c-.45-.02-.25-6.57-.26-7.51.21-4.06.38-8.22.5-12.5Z" style="fill: url(#uuid-1163749b-3a31-4573-95bf-b31383174ec7);"/>
  <polygon points="115.5 17 108.63 33 46 38.5 52.12 23.37 53.34 22.09 115.5 17" style="fill: url(#uuid-7f708efd-881d-42ff-8c4e-64b1959b909a);"/>
  <path d="M79.95,7.55c-.05,1.53,3.24,8.8,2.55,9.45l-31.16,2.59c-2.08.6-2.23,7.49-4.59,7.91-1.06.19-2.36-.11-3.5,0-2.58.25-19.36,2.19-20.2,1.45l-6.03-15.22-.02-1.22,62.96-4.95Z" style="fill: url(#uuid-813ea1c6-f981-4f20-b2b5-19bd4d981ff9);"/>
  <polygon points="42.5 63.5 42.5 96 24 88 24 55.5 42.5 63.5" style="fill: #d8cf7c;"/>
  <path d="M42.5,118.5l-18.5-8.25v-19.25c.56-.09,1,.07,1.52.23,3.33,1.05,11.95,5.08,15.17,6.83.64.35,1.33.6,1.81,1.19v19.25Z" style="fill: #517a35;"/>
  <polygon points="42.5 60.5 24 52.25 24 33 42.5 41.25 42.5 60.5" style="fill: #517a35;"/>
  <path d="M81,61c2.36,2.44,4.11,10.64-.26,11.49-7.88,1.53-6.27-7.41-2.24-10.99.59-.05,1.49-.41,2.5-.5Z" style="fill: #aaa035;"/>
  <path d="M88,92.5c-1.26.12-2.72.38-4,.5l-11.78-20.49c-.9-1.76,1.28-2.82,2.54-1.52,3.69,6.23,7,13.05,10.84,19.16.59.93,1.07,2.34,2.4,2.35Z" style="fill: #aaa035;"/>
  <path d="M46.5,30c-.89,1.2-2.81,7.74-3.8,7.96l-14.2-5.97,5.25-.99,12.75-1Z" style="fill: #355124;"/>
  <path d="M72.5,61.5c.92,2.67,3.41,5.22.49,7.74-4.34,3.74-8.62-2.4-7.49-6.74,2.13-.19,4.64-.79,7-1Z" style="fill: #aaa035;"/>
  <path d="M71,94.5c1.69-4.5,9.87-6.59,12-1.5-3.7.33-8,1.16-12,1.5Z" style="fill: #aaa035;"/>
  <path d="M94.38,81.12c.79.82.74,3.93.62,5.13-.85,8.43-9.97,6.15-8.91.62.49-2.57,6.3-7.81,8.29-5.75Z" style="fill: #aaa035;"/>
  <path d="M86.36,71.08c3.43-.7,3.3,6.32,2.24,8.77-2.25,5.16-8.52,2.03-8.01-1.96.27-2.1,3.78-6.4,5.77-6.8Z" style="fill: #aaa035;"/>
  <path d="M64.9,70.62c3.46-.27,8.18,1.79,6.88,5.91-1.88,5.98-9.8,1.33-11.07-3.02-.67-2.3,2.32-2.74,4.19-2.89Z" style="fill: #aaa035;"/>
  <path d="M66.07,82.57c.39-.55,5.28-2,6.23-2.02,7.38-.18,6.77,10.28-.82,8.22-1.86-.51-6.95-4.01-5.41-6.2Z" style="fill: #aaa035;"/>
  <path d="M47.5,66.25c.54-1.9,2.35-.22,2.53,1.97.26,3.24.47,12.61-.04,15.52-.36,2.03-2.49,2.03-2.49,1.01v-18.5Z" style="fill: #fdfdf9;"/>
  <path d="M47.5,51.75c.17-.59,1.55-1.03,1.99-.75s1.92,10.34-1.99,8.5c.37-2.09-.51-5.95,0-7.75Z" style="fill: #b3d494;"/>
</svg>