<?xml version="1.0" encoding="UTF-8"?>
<svg id="fill_rye" xmlns="http://www.w3.org/2000/svg" viewBox="0 0 128 128">
  <path d="M59.5,123.24c0-5.47-.07-8.85-.07-14.14-.14-.07-.22-.12-.32-.15-.34-.09-.68-.16-1.02-.24-10.29-2.54-16.9-8.9-18.98-19.28-.85-4.24-.42-8.74-.63-13.11-.11-2.47.19-4.71,2.5-5.84-.69-2.24-1.68-4.25-1.87-6.33-.42-4.4-.41-8.85-.62-13.28-.12-2.47.2-4.71,2.37-5.8-.74-2.86-1.92-5.48-2.02-8.14-.31-8.57-.24-17.16-.25-25.73,0-1.63.76-2.98,2.26-3.8,2.97-1.63,6.52.28,6.66,3.66.11,2.73.02,5.47.02,8.28,4.43.72,8.31,2.44,11.91,5.23.03-.53.07-.81.07-1.09,0-4.69-.03-9.38.02-14.07.03-2.82,1.95-4.71,4.59-4.66,2.58.05,4.35,1.91,4.39,4.68.03,2.2,0,4.39,0,6.59,0,2.77,0,5.55,0,8.65,3.69-2.91,7.63-4.59,11.97-5.35,0-1.44,0-2.73,0-4.03,0-1.35-.04-2.7.01-4.04.1-2.89,2.46-4.83,5.25-4.38,2.27.37,3.73,2.15,3.73,4.71.03,7.64.02,15.27.01,22.91,0,.84-.02,1.71-.21,2.53-.64,2.65-1.36,5.27-1.97,7.6.76,1.29,2.01,2.47,2.07,3.7.19,4.68.23,9.39-.14,14.05-.22,2.72-1.31,5.37-2.04,8.15,1.78,1.02,2.41,2.76,2.35,4.94-.09,3.19.07,6.39-.05,9.58-.37,9.96-5.09,17.23-13.95,21.74-2.15,1.09-4.57,1.65-6.94,2.47v13.75M59.48,74.22c0-1.99.04-3.87,0-5.76-.17-6.33-4.61-12.21-10.65-14.1-.39-.12-.81-.16-1.23-.24-.87,10.81,3.89,18.92,11.89,20.1ZM68.59,99.78c3.64-.88,6.39-2.78,8.62-5.53,3.52-4.34,3.52-9.43,3.19-14.74-3.51.8-6.24,2.67-8.46,5.34-3.6,4.34-3.69,9.48-3.36,14.92ZM80.79,28.62c-7.33,1.56-13.73,8.06-12.14,20.1.14.01.3.06.43.03.34-.08.68-.17,1-.29,4.94-1.86,8.43-5.23,9.72-10.34.75-2.99.67-6.18.99-9.5ZM68.25,74.27c9.2-2.02,13.65-10.38,11.99-20.26-5.69,1.74-9.64,5.29-11.08,11.04-.73,2.89-.62,5.99-.91,9.21ZM47.62,28.76c-1.29,10.08,4.02,19.13,11.72,19.96,1.75-11.93-4.91-18.79-11.72-19.96ZM47.59,79.65c-.89,10.66,4.54,19.77,11.8,19.94,1.17-10.3-4.13-19.32-11.8-19.94Z" style="fill: #4a3726; stroke-width: 0px;"/>
  <path d="M59.48,74.22c-7.99-1.18-12.76-9.29-11.89-20.1.42.08.84.12,1.23.24,6.04,1.9,10.48,7.77,10.65,14.1.05,1.88,0,3.77,0,5.76Z" style="fill: #dccb94; stroke-width: 0px;"/>
  <path d="M68.59,99.78c-.33-5.44-.25-10.58,3.36-14.92,2.22-2.68,4.94-4.54,8.46-5.34.33,5.31.33,10.4-3.19,14.74-2.23,2.75-4.99,4.65-8.62,5.53Z" style="fill: #dccb94; stroke-width: 0px;"/>
  <path d="M80.79,28.62c-.32,3.32-.24,6.51-.99,9.5-1.28,5.11-4.78,8.48-9.72,10.34-.32.12-.66.22-1,.29-.14.03-.29-.02-.43-.03-1.59-12.04,4.81-18.54,12.14-20.1Z" style="fill: #dccb94; stroke-width: 0px;"/>
  <path d="M68.25,74.27c.29-3.22.18-6.32.91-9.21,1.44-5.76,5.39-9.31,11.08-11.04,1.66,9.88-2.78,18.24-11.99,20.26Z" style="fill: #d5bd77; stroke-width: 0px;"/>
  <path d="M47.62,28.76c6.81,1.17,13.46,8.03,11.72,19.96-7.69-.83-13-9.87-11.72-19.96Z" style="fill: #d5bd77; stroke-width: 0px;"/>
  <path d="M47.59,79.65c7.67.62,12.97,9.64,11.8,19.94-7.27-.16-12.69-9.27-11.8-19.94Z" style="fill: #d5bd77; stroke-width: 0px;"/>
</svg>