<?xml version="1.0" encoding="UTF-8"?>
<svg id="fill_plankslong" xmlns="http://www.w3.org/2000/svg" viewBox="0 0 128 128">
  <path d="M73.91,8.55c.27-.57.54-1.05.73-1.55,1.69-4.42,4.95-6.02,9.49-4.39,2.03.73,3.84,2.07,5.88,2.77,2.83.97,5.8,1.56,8.68,2.39,1.58.46,3.12,1.06,4.66,1.66,4.4,1.7,6.01,5.31,4.38,9.81-6.98,19.26-13.96,38.53-20.96,57.78-4.72,13-9.71,25.91-14.13,39.01-2.43,7.18-6.51,8.45-13.44,5.2-1.6-.75-3.24-1.43-4.96-2.18-.39,1.03-.62,1.71-.9,2.38-1.59,3.8-5.11,5.49-9.07,4.12-6.65-2.3-13.29-4.68-19.87-7.18-4.32-1.64-5.72-5.37-4.05-9.96,11.68-32.07,23.37-64.13,35.03-96.2,1.04-2.87,1.77-5.99,5.33-6.76,1.28-.27,2.74-.41,3.96-.06,3.07.87,6.06,2.05,9.24,3.16Z" style="fill: #4a3726; stroke-width: 0px;"/>
  <path d="M56.02,112.74c-3.86-1.37-7.36-2.61-11.22-3.98,12.15-33.38,24.23-66.59,36.38-99.98,1.02.33,1.87.6,3.02.97-2.22,6.15-4.37,12.17-6.55,18.18-1.9,5.26-3.84,10.5-5.74,15.76-1.13,3.14-.68,4.92,1.38,5.76,1.98.81,3.62-.38,4.74-3.46,3.89-10.68,7.78-21.36,11.67-32.04.19-.52.42-1.01.78-1.85,3.68,1.33,7.3,2.63,11.21,4.04-12.14,33.36-24.19,66.5-36.35,99.91-1.1-.36-2.02-.67-3.12-1.03,3.95-10.9,7.81-21.58,11.68-32.25.92-2.54,1.87-5.07,2.79-7.61.93-2.59.37-4.53-1.49-5.21-2-.74-3.63.21-4.6,2.85-3.53,9.62-7.02,19.25-10.53,28.88-1.3,3.57-2.61,7.15-4.04,11.08Z" style="fill: #a5805b; stroke-width: 0px;"/>
  <path d="M62.83,12c3.14,1.14,5.91,2.15,8.94,3.25-2.31,6.45-4.57,12.81-6.88,19.15-7.14,19.59-14.3,39.18-21.45,58.77-1.5,4.11-3.03,8.21-4.47,12.34-1.7,4.89-.37,7.73,4.49,9.75,1.2.5,2.42.94,3.81,1.47-.16.74-.31,1.4-.53,2.38-6.77-2.46-13.29-4.84-20.21-7.35,12.09-33.21,24.12-66.27,36.31-99.76Z" style="fill: #7b5b3b; stroke-width: 0px;"/>
</svg>