<?xml version="1.0" encoding="UTF-8"?>
<svg id="fill_canola" xmlns="http://www.w3.org/2000/svg" viewBox="0 0 128 128">
  <path d="M102.73,72.81c7.76-.17,12.85,10.93,10.9,18.22-1.45,5.42-4.77,9.61-8.57,13.48-2.51,2.57-5.23,4.93-7.81,7.44-2.03,1.98-4.29,3.28-7.44,2.75-.04.82-.1,1.5-.1,2.17-.05,5.12-3.4,9.29-8.26,10.24-4.97.97-9.92-1.6-11.79-6.4-2.28-5.85-4.34-11.78-6.5-17.68-.2-.56-.47-1.09-.77-1.81-3.55,4.96-8.12,7.54-14.12,7.19-5.27,4.55-11.18,5.86-17.53,2.91-6.18-2.87-8.86-8.12-8.79-14.91-4.45-5.22-5.81-11.09-2.77-17.45,2.89-6.04,7.96-8.79,14.83-8.61,4.31-3.97,9.47-5.29,15.59-3.74-.87-3.4-1.7-6.61-2.51-9.79-3.17-1.97-6.53-4.07-10.93-6.81-6.99-.23-13.28-3.86-15.95-12-2.46-7.48-.22-13.96,5.77-19.23.28-8.04,3.74-14.19,11.61-16.98,7.69-2.73,14.29-.48,19.62,5.58,8.31.36,14.48,3.97,17.15,12,2.5,7.51.21,13.96-5.64,19.2-.26,2.01-.51,4.02-.68,5.38,3.26-.9,6.64-1.8,9.99-2.79.74-.22,1.41-.73,2.07-1.19,9.01-6.28,20.96-1.07,22.64,9.8.25,1.6.93,3.22,1.76,4.62,3.13,5.27,2.9,11.56-.78,16.46-.42.56-.76,1.18-1.14,1.77-.11.24-.04.28.18.17Z" style="fill: #4a3726; stroke-width: 0px;"/>
  <path d="M40.9,42.41c-8.03.98-12.8-1.31-14.36-6.89-1.5-5.36,1.01-10.13,7.09-13.15-1.12-3.58-1.15-7.3,1.31-10.34,1.34-1.65,3.34-3.1,5.34-3.81,5.31-1.9,9.38.29,13.29,6.62,8.72-.45,12.48,1.33,14.23,6.74,1.73,5.37-.29,9.37-6.82,13.47.95,8.03-1,12.35-6.4,14.13-5.66,1.87-10.19-.37-13.68-6.78Z" style="fill: #e5dd75; stroke-width: 0px;"/>
  <path d="M36.82,77.99c3.4-4.81,7.32-6.27,11.49-4.36,4.28,1.96,5.7,5.82,4.19,11.39,5.27,4.59,6.34,7.98,3.93,12.37-2.04,3.71-6.02,4.95-10.98,3.43-4.67,5.09-7.85,6.23-11.92,4.29-3.9-1.86-5.13-5.42-4.01-11.62-4.81-3.54-6.22-7.46-4.17-11.6,2.04-4.11,6.07-5.52,11.46-3.89Z" style="fill: #e5dd75; stroke-width: 0px;"/>
  <path d="M74.94,62.54c-4.14-3.04-5.38-6.31-3.86-9.97,1.54-3.7,4.57-4.92,10.18-4.08,3.78-4.19,7.01-5.22,10.67-3.41,3.3,1.63,4.39,4.72,3.43,9.74,4.58,4.78,5.39,7.57,3.26,11.15-1.97,3.31-5.1,4.28-9.64,2.99-3.85,4.37-7.26,5.49-10.82,3.54-3.32-1.81-4.44-5.19-3.22-9.97Z" style="fill: #e5dd75; stroke-width: 0px;"/>
  <path d="M58.84,54.06c.95,1.33,2.35,2.62,2.94,4.21,5.94,16.07,11.75,32.2,17.59,48.31,1.25,3.46,2.48,6.92,3.64,10.17-.57,2.17-1.49,3.52-3.74,3.52-2.12,0-2.96-1.37-3.58-3.07-6.88-18.89-13.78-37.77-20.64-56.67-1.32-3.63-.68-4.89,3.79-6.47Z" style="fill: #29a45f; stroke-width: 0px;"/>
  <path d="M91.12,107.88c-4.22-3.73-5.34-9.16-1.86-13.62,3.82-4.9,8.56-9.08,12.92-13.56.29-.29.78-.39,1.12-.55,3.5,2.35,4.77,7.09,2.97,11.01-2.74,5.96-7.66,10.09-12.33,14.41-.9.83-1.9,1.55-2.83,2.3Z" style="fill: #29a45f; stroke-width: 0px;"/>
</svg>