<?xml version="1.0" encoding="UTF-8"?>
<svg id="uuid-708e3a98-d636-4747-a646-754cbfe66cd7" data-name="fill_anhydrous" xmlns="http://www.w3.org/2000/svg" xmlns:xlink="http://www.w3.org/1999/xlink" viewBox="0 0 128 128">
  <defs>
    <linearGradient id="uuid-dc3321ba-69fd-4c2b-bfdb-2a3d837bdfdf" x1="-1499.94" y1="161.97" x2="-1500.02" y2="386.3" gradientTransform="translate(814 -74) scale(.5)" gradientUnits="userSpaceOnUse">
      <stop offset="0" stop-color="#60ae56"/>
      <stop offset="1" stop-color="#3e9c32"/>
    </linearGradient>
  </defs>
  <path d="M105.92,44.87c-.25-8.12-1.67-15.06-9.76-18.74-1.42-.64-5.66-1.99-7.01-1.99h-7.75c-.22-7.35,1.96-19.13-8.22-20.03-4.56-.4-14.04-.45-18.54.02-10.42,1.1-8.04,12.54-8.24,20.01h-8.25c-1.09,0-5.64,1.55-6.86,2.14-5.94,2.85-9.3,8.65-9.41,15.09-.32,17.95.08,36,0,54.04.66,8.62,6.29,14.62,14.45,16.8.04,5.03-.86,10.23,5.07,11.93,15.2.17,30.37,0,45.5-.5,5.95-1.79,3.48-6.58,4.07-11.43,9.5-2.37,14.67-8.58,14.95-18.3.42-14.69.46-34.4,0-49.04ZM67.9,24.14h-8v-7.5h8v7.5Z" style="fill: #090b0e;"/>
  <path d="M78.4,27.14h11.75c.89,0,5.46,1.94,6.42,2.58,4.32,2.89,5.62,6.58,6.33,11.42.76,18.17.06,36.22,0,54.5.05,7.85-6.78,13.83-14.48,14.02-.26,2.97.3,6.28-.07,9.2-.26,2.13-1.23,2.16-3.18,2.3-11.88.83-30.66.83-42.54,0-.76-.05-1.76-.08-2.4-.48-1.62-1.02-.47-8.91-.85-11.02-7.69-.19-14.53-6.17-14.48-14.02-.17-18.17-.17-36.34,0-54.5.3-5.33,2.04-9.21,6.85-11.9.71-.4,4.49-2.1,4.9-2.1h12.75v-14.67c0-1.81.82-3.55,2.28-4.62,3.53-2.58,9.09-1.7,13.48-1.86,5.24.04,10.45-.54,12.77,4.24.32.66.47,1.4.47,2.14v14.77ZM57.22,14.29s.09,12.25.07,12.29h13.14c-.02-4.15.06-9.85-.13-12.25-1.03-.04-13.09-.04-13.09-.04ZM59.3,13.14" style="fill: url(#uuid-dc3321ba-69fd-4c2b-bfdb-2a3d837bdfdf);"/>
  <path d="M26.9,38.39c1.12-6.64,8.76-9.37,14.77-8.77,2.38.24,2.29,2.5.48,2.52-3.74.05-6.83.04-9.76,2.24-4.18,3.13-3.16,7.81-3.07,11.93.04,1.72-2.54,2.19-2.58-.28-.04-2.16-.16-5.71.17-7.64Z" style="fill: #8dce84;"/>
  <path d="M65.65,107.64h20c.99,0,.99,3,0,3h-20c-.84,0-1.18-2.56,0-3Z" style="fill: #090b0e;"/>
  <path d="M26.9,52.14c0-1.8,2.5-1.57,2.51-.21l-.04,13.21c.03,1.57-2.4,1.67-2.47,0,.04-4.44.05-8.74,0-13Z" style="fill: #8dce84;"/>
  <path d="M50.74,110.61c-1.89-.01-1.87-2.95-.09-2.97h8.5c1.36,0,1.36,3,0,3-2.32,0-6.28-.01-8.41-.03Z" style="fill: #090b0e;"/>
  <path d="M50.6,17.75c.05-.88,2.63-1.06,2.64.06.01,2.79-.01,3.48-.11,6.51-.03,1.03-2.61,1.24-2.59-.02.03-3.37.04-3.82.06-6.55Z" style="fill: #8dce84;"/>
  <g>
    <path d="M48.03,60.9v19.26h-4.81v-10.32c0-1.49-.04-2.39-.11-2.69-.07-.3-.27-.53-.59-.68-.32-.15-1.04-.23-2.15-.23h-.48v-2.25c2.32-.5,4.09-1.53,5.29-3.08h2.83Z" style="fill: #101314;"/>
    <path d="M61.23,67.42v6.42c0,1.46-.08,2.52-.24,3.19s-.49,1.29-.99,1.87c-.5.58-1.1,1-1.81,1.25-.71.25-1.5.38-2.37.38-1.15,0-2.1-.13-2.87-.4-.76-.27-1.37-.68-1.82-1.24-.45-.56-.77-1.16-.96-1.78s-.29-1.61-.29-2.97v-6.72c0-1.77.15-3.09.46-3.97.31-.88.91-1.59,1.82-2.12.91-.53,2.01-.8,3.3-.8,1.06,0,2,.18,2.83.55.83.37,1.45.82,1.87,1.35s.69,1.13.84,1.8c.15.67.22,1.73.22,3.19ZM56.43,65.8c0-1.02-.05-1.66-.15-1.92s-.33-.39-.7-.39-.59.14-.71.41c-.11.27-.17.91-.17,1.9v9.4c0,1.12.05,1.79.16,2.02s.34.34.7.34.59-.13.7-.4.17-.88.17-1.82v-9.54Z" style="fill: #101314;"/>
    <path d="M74.3,67.42v6.42c0,1.46-.08,2.52-.24,3.19s-.49,1.29-.99,1.87c-.5.58-1.1,1-1.81,1.25-.7.25-1.5.38-2.37.38-1.15,0-2.11-.13-2.87-.4-.76-.27-1.37-.68-1.82-1.24-.45-.56-.77-1.16-.96-1.78s-.29-1.61-.29-2.97v-6.72c0-1.77.15-3.09.46-3.97s.91-1.59,1.82-2.12,2.01-.8,3.3-.8c1.05,0,2,.18,2.83.55.83.37,1.45.82,1.87,1.35s.69,1.13.84,1.8c.15.67.22,1.73.22,3.19ZM69.49,65.8c0-1.02-.05-1.66-.15-1.92-.1-.26-.33-.39-.7-.39s-.59.14-.71.41c-.12.27-.17.91-.17,1.9v9.4c0,1.12.05,1.79.16,2.02.11.23.34.34.7.34s.59-.13.7-.4c.11-.27.17-.88.17-1.82v-9.54Z" style="fill: #101314;"/>
    <path d="M86.51,60.9v3.08h-5.96v3.27c.75-.88,1.71-1.32,2.88-1.32,1.32,0,2.32.37,3,1.11.68.74,1.01,2.17,1.01,4.28v2.75c0,1.36-.06,2.37-.19,3-.13.64-.41,1.23-.84,1.77s-1.03.96-1.79,1.25c-.77.29-1.7.43-2.8.43-1.24,0-2.33-.22-3.27-.65-.94-.43-1.61-1.08-2.01-1.93-.4-.86-.59-2.18-.59-3.97v-1.05h4.81v1.2c0,1.24.04,2.13.13,2.65.09.52.39.79.9.79.24,0,.43-.08.58-.23s.23-.31.24-.49.02-.93.04-2.27v-3.82c0-.72-.07-1.21-.22-1.47-.15-.26-.4-.39-.75-.39-.22,0-.41.07-.56.2-.15.13-.25.28-.29.43-.05.16-.07.51-.07,1.08h-4.76l.2-9.71h10.31Z" style="fill: #101314;"/>
  </g>
</svg>