<?xml version="1.0" encoding="UTF-8"?>
<svg id="uuid-993e78fe-904a-4319-8c16-13ed7c7ff19e" data-name="fill_sugar" xmlns="http://www.w3.org/2000/svg" xmlns:xlink="http://www.w3.org/1999/xlink" viewBox="0 0 128 128">
  <defs>
    <linearGradient id="uuid-49f911a9-ce4b-4cc5-8b05-15c4bb5661c1" x1="1232.99" y1="-1197.52" x2="1232" y2="-1118.53" gradientTransform="translate(-518 666) scale(.5)" gradientUnits="userSpaceOnUse">
      <stop offset="0" stop-color="#f3f3f3"/>
      <stop offset=".25" stop-color="#f2f3f3"/>
      <stop offset="1" stop-color="#bec6d5"/>
    </linearGradient>
    <linearGradient id="uuid-0921123b-4528-4b16-9a3b-1ddb1d01de19" x1="1138.34" y1="-1274.35" x2="1157.12" y2="-1206.91" gradientTransform="translate(-518 666) scale(.5)" gradientUnits="userSpaceOnUse">
      <stop offset="0" stop-color="#f3f3f3"/>
      <stop offset=".27" stop-color="#f2f3f3"/>
      <stop offset="1" stop-color="#bec6d5"/>
    </linearGradient>
    <linearGradient id="uuid-9ba6297b-b812-4490-9785-fabedf71b4c1" x1="1100.72" y1="-1181.61" x2="1100.22" y2="-1097.61" gradientTransform="translate(-518 666) scale(.5)" gradientUnits="userSpaceOnUse">
      <stop offset="0" stop-color="#f3f3f3"/>
      <stop offset="1" stop-color="#bec6d5"/>
    </linearGradient>
    <linearGradient id="uuid-311c5243-c97b-4c8f-b38c-ce0b5be56c49" x1="1160.58" y1="-1170.1" x2="1160.64" y2="-1097.1" gradientTransform="translate(-518 666) scale(.5)" gradientUnits="userSpaceOnUse">
      <stop offset="0" stop-color="#a4afc4"/>
      <stop offset="1" stop-color="#7f8aa2"/>
    </linearGradient>
    <linearGradient id="uuid-3d78aa8d-9c6e-4df4-9945-56ccc7ce39fe" x1="1193.33" y1="-1204.33" x2="1162.39" y2="-1146.03" gradientTransform="translate(-518 666) scale(.5)" gradientUnits="userSpaceOnUse">
      <stop offset="0" stop-color="#a4afc4"/>
      <stop offset="1" stop-color="#808ba2"/>
    </linearGradient>
    <linearGradient id="uuid-c68ed975-b4dc-4c69-86a7-5915a3b0daff" x1="1199.46" y1="-1308.01" x2="1200.48" y2="-1225.02" gradientTransform="translate(-518 666) scale(.5)" gradientUnits="userSpaceOnUse">
      <stop offset="0" stop-color="#a4b0c4"/>
      <stop offset="1" stop-color="#818ba3"/>
    </linearGradient>
  </defs>
  <path d="M78.5,112c-.56.95-.92.97-1.86,1.39-8.87,3.93-20.31,5.73-29.43,9.59l-30.7-10.24c-.73-.44-1.06-1.11-1.03-1.97.87-12.28-1.08-25.93.02-38.03.06-.71.14-1.85.87-2.25l21.61-7.02c-2.21-10.2-5.67-20.24-8.38-30.37l.37-1.88,17.18-15.83c9.66-2.7,19.18-5.98,28.84-8.66,1.26-.35,7.36-2.1,7.96-1.69l11.07,40.21-.28,2.24-6.74,8.5,15.85,2.9,17.14,10.85.56,1.49-6.09,38.97c-.04.54-.26.99-.68,1.34-1.45,1.24-31.52-5.35-35.79-5.55-.18,1.98-.35,3.98-.5,6Z" style="fill: #0d1011;"/>
  <polygon points="118.48 72.02 113 109 78 103 84 66 118.48 72.02" style="fill: url(#uuid-49f911a9-ce4b-4cc5-8b05-15c4bb5661c1);"/>
  <path d="M78,54c-2.59.43-11.91-2.93-13.53-1.78-.95.67-1.62,9.75-1.98,11.52-.33,1.64-1.17,1.34-2.51,1.05-3.39-.75-9.48-4.05-12.28-4.27-2.08-.16-4.85,1.9-6.37,1.45-1.41-.42-7.43-24.86-8.28-28.14l35.68-10.8,9.28,30.97Z" style="fill: url(#uuid-0921123b-4528-4b16-9a3b-1ddb1d01de19);"/>
  <path d="M45.5,119.5l-27-8.5v-37l27.43,9.07c.15,2.97.04,5.96.07,8.93.2,9.22.03,18.38-.5,27.5Z" style="fill: url(#uuid-9ba6297b-b812-4490-9785-fabedf71b4c1);"/>
  <path d="M48.5,83.25c.21-.73,9.45-3.53,11-3.75l-1.78,14,17.77,11.76c.82.99,1,4.99-.33,5.66l-26.67,8.58v-36.25Z" style="fill: url(#uuid-311c5243-c97b-4c8f-b38c-ce0b5be56c49);"/>
  <path d="M75.5,101.5l-15.04-9.32,5.54-36.18c.57-.09.97.03,1.48.27,2.43,1.1,7.03,4.39,9.48,6.02,1.2.81,3.84,2.11,4.05,3.48l-5.52,35.73Z" style="fill: url(#uuid-3d78aa8d-9c6e-4df4-9945-56ccc7ce39fe);"/>
  <path d="M85.4,54.89c-.76.45-3.86.13-4.44-.73l-8.99-31.43.8-2.71,9.48-10.52,9.77,35.26-.28,2.24-6.34,7.9Z" style="fill: url(#uuid-c68ed975-b4dc-4c69-86a7-5915a3b0daff);"/>
  <path d="M21.5,71.99l25.26-8.52c.79-.11,1.51.1,2.26.25,1.61.32,10.48,3.17,11.64,3.86.56.33.81.4.86,1.16s-1.09,7.16-1.51,7.51l-12.76,4.18-25.75-8.45Z" style="fill: #f1f1f1;"/>
  <path d="M36,29.5l11.86-11.38,30.63-8.87c-3.17,3.63-6.02,7.69-9.64,10.86l-32.85,9.39Z" style="fill: #f1f1f1;"/>
  <path d="M112.5,68l-28.91-4.84-11.09-7.15,28.52,4.72c3.99,1.7,8.32,4.34,11.48,7.27Z" style="fill: #f1f1f1;"/>
  <path d="M45.5,119.5l.5-27.5c.07,8.43.52,17.95.02,26.27-.03.5.17,1.22-.52,1.23Z" style="fill: #d4d8e1;"/>
  <path d="M89.35,77.57c2.74-.78,3.67,3.18,1.3,3.86-2.74.78-3.67-3.18-1.3-3.86Z" style="fill: #8a94ac;"/>
  <path d="M95.3,75.04c3-.93,2.57,3.01.44,2.85-.94-.07-1.97-2.37-.44-2.85Z" style="fill: #8a94ac;"/>
  <path d="M95,93c-.36-.36.19-2.23,1.24-2,1.85.41-.28,2.96-1.24,2Z" style="fill: #8a94ac;"/>
  <rect x="85" y="96" width="1" height="1.5" style="fill: #98a2b8;"/>
  <rect x="98.5" y="100.5" width="1.5" height="1" style="fill: #98a2b8;"/>
  <path d="M44.81,40.06c2.88-.95,3.47,2.39,2.22,3.22-2.72,1.81-4.28-2.54-2.22-3.22Z" style="fill: #8a94ac;"/>
  <path d="M50.96,33.04c1.38,1.92-2.48,3.62-2.96,1.7s2.23-2.71,2.96-1.7Z" style="fill: #8a94ac;"/>
  <path d="M62,51.5c.19,2.05.24,2.85-2,3l-.5-3h2.5Z" style="fill: #8a94ac;"/>
  <path d="M60.5,41c.36.36-.19,2.23-1.24,2-2.23-1.56.44-2.8,1.24-2Z" style="fill: #8a94ac;"/>
  <path d="M52,49c.36-.36,2.23.19,2,1.24-.41,1.85-2.96-.28-2-1.24Z" style="fill: #8a94ac;"/>
  <rect x="63.5" y="31" width="1" height="1.5" style="fill: #98a2b8;"/>
  <rect x="69.5" y="43.5" width="1" height="1.5" style="fill: #98a2b8;"/>
  <path d="M27.93,89.43c-.45.31-2.82.18-3.21-.39-1.7-3.94,3.94-4.05,3.69-.91-.02.23-.38,1.23-.48,1.3Z" style="fill: #8a94ac;"/>
  <path d="M33.46,85.96c-1.55,1.11-3.12-1.25-2.46-2.96,1.97-.8,3.89,1.93,2.46,2.96Z" style="fill: #8a94ac;"/>
  <path d="M41.46,102.04c1.02.73.16,3.42-1.7,2.96s-.22-4.34,1.7-2.96Z" style="fill: #8a94ac;"/>
  <path d="M31,99.5c2.67-.47,3.62,1.88.75,1.99-.78-.52-.87-1.08-.75-1.99Z" style="fill: #8a94ac;"/>
  <path d="M42,96.5c.36.36-.19,2.23-1.24,2-2.23-1.56.44-2.8,1.24-2Z" style="fill: #8a94ac;"/>
  <rect x="35" y="108.5" width="1" height="1.5" style="fill: #98a2b8;"/>
</svg>