<?xml version="1.0" encoding="UTF-8"?>
<svg id="uuid-a0708bea-8194-4f1e-add5-39668cddb2f4" data-name="fill_tomato" xmlns="http://www.w3.org/2000/svg" xmlns:xlink="http://www.w3.org/1999/xlink" viewBox="0 0 128 128">
  <defs>
    <linearGradient id="uuid-e73d7bb0-8977-4eea-bf26-ca722b3e376f" x1="-1944.13" y1="-225.92" x2="-1944.23" y2="-71.92" gradientTransform="translate(1036 148) scale(.5)" gradientUnits="userSpaceOnUse">
      <stop offset="0" stop-color="#d2341a"/>
      <stop offset="1" stop-color="#e95437"/>
    </linearGradient>
  </defs>
  <path d="M67.5,24c4.79,1.09,9.32.49,14-.75,1.68-.44,3.78-2.06,5.34-1.39,3.08,1.32,1.43,6.76.15,9.13,16.67,1.22,30.5,13.79,33.56,30.24,10.43,56.09-78.62,75.02-106.97,31.43-15.3-23.53-4.54-55.96,23.91-61.16-1.18-2.05-2.54-5.73-1.78-8.02,1.23-3.68,5.82-.52,8.4.16,3.96,1.05,8.33,1.42,12.31.3.73-1.08-.95-7.09-1.55-8.56-1.17-2.87-5.29-5.79-2.65-8.4.29-.29,6.74-3.8,7.13-3.89,3.38-.75,4.84,3.27,5.88,5.92.55,1.42,2.26,6.57,2.26,7.74v7.25Z" style="fill: #0c0c0b;"/>
  <path d="M54.94,45.54c.45,1.94,5.22,7.83,6.82,7.98,2.94.29,6.44-5.89,8.03-7.99,5.3,2.57,14.26,1.22,18.45-3.03,4.9-4.97.73-6.52-4.25-7.5,1.27-2.73,5.78-1.06,8.21-.46,22.32,5.56,31.59,29.19,23.38,49.8-16.49,41.44-94.44,39.48-105.25-5.93-4.08-17.11,3.8-35.67,20.53-42.29,1.7-.67,7.27-2.68,8.64-1.87.6.36.57.63,0,1.01-1.89,1.28-7.63.59-4.94,5.43,3.2,5.77,14.67,7.64,20.38,4.85Z" style="fill: url(#uuid-e73d7bb0-8977-4eea-bf26-ca722b3e376f);"/>
  <path d="M43.5,26.5c5.31,1.39,10.78,1.63,15.93-.57.13-5.93-1.37-12.2-5.42-16.68,0-.36,5.31-3.26,6.25-3.29s.6.21.88.67c1.25,2.1,2.91,6.36,3.23,8.75.28,2.08-.35,10.08.62,10.88,1.53,1.27,8.16,1.42,10.26,1.24,3.74-.33,7.15-2.13,10.75-2.99-.24,3.64-1.23,6.76-4.33,8.92l-4.16,2.08c3.17,1.46,6.51,2.6,10,3.01.68.62-2.52,3.2-3.15,3.59-4.64,2.89-12.34,2.94-16.34-1.1.23,2.29-3.87,9.26-5.84,9.43-1.69.14-6.39-7.33-5.66-9.43-1.27-.08-1.78,1.31-2.82,1.93-3.16,1.88-9.79,1.34-13.03-.32-.66-.34-4.84-3.26-3.65-4.1,2.89-.57,5.7-1.62,8.5-2.5,1.33,1.51-.03,2.55-4.05,3.13-.86,2.34,9.7-2.63,5.88-2.52l-.33-1.11c-4.88-2.33-9.18-4.7-8.5-11,.42-.44,3.95,1.77,4.5,2-3.32,3.6,9.33,3.87,10.55,3.29,1.78-.85-7.08-1.03-7.26-.89-1.75-.3-2.68-1.1-2.79-2.39Z" style="fill: #498e47;"/>
  <path d="M43,26.5c.14.06.36-.06.5,0,1.02.43,2.02,1.28,3.28,1.47,2.75.41,8.53-1.48,7.68,2.49-2,1.42-11.83-.03-12.89-1.51-.52-.73.04-2.69,1.43-2.44Z" style="fill: #8fc480;"/>
  <path d="M47,35.5c.45.22,2.79.2,2.48,1.7-.26,1.25-7.07,3.97-8.19,3.76-.81-.15-.97-1.46-.75-2.16.45-1.47,4.97-.51,4.96-2.79.49-.15.94-.5,1.5-.5Z" style="fill: #8fc480;"/>
  <path d="M25.96,44.04c.16.12.55,1.51.32,1.96-.2.39-4.46,3.74-5.49,5.05-5.08,6.39-6.06,14.19-4.66,22.08.23,1.28,1.87,6.04,1.78,6.56-.29,1.53-2.23,2.07-3.06-.28-3.56-10.1-2.57-22.96,4.66-31.14.93-1.05,4.94-5.32,6.45-4.23Z" style="fill: #fcf4f3;"/>
  <path d="M19.92,84.58c.16.11,1.23,2.85,1.67,3.57,1.63,2.65,3.82,5.29,6.16,7.34.78.68,4.86,2.47,2.76,3.78-2.66,1.65-8.55-5.62-9.92-7.61-.72-1.05-4.07-6.28-3.09-7.16.67.1,1.97-.24,2.43.08Z" style="fill: #fdf5f4;"/>
  <path d="M62,20.5c-.54-.04-1.2.12-1.69-.06-.77-.27-1.93-5.68-2.41-7.09-.51-1.49-1.93-2.41-1.39-4.36,2.36-.62,3.36,2.33,4.09,4.16.93,2.33,1.62,4.81,1.41,7.34Z" style="fill: #8fc480;"/>
</svg>