<?xml version="1.0" encoding="UTF-8"?>
<svg id="uuid-5f441ad6-81db-4ee5-9dee-fcbd41085a56" data-name="fill_popcorn" xmlns="http://www.w3.org/2000/svg" xmlns:xlink="http://www.w3.org/1999/xlink" viewBox="0 0 128 128">
  <defs>
    <linearGradient id="uuid-4363cde9-8e76-439e-bcf4-ca6a3f34b4cf" x1="101.38" y1="40.4" x2="89.84" y2="122.49" gradientUnits="userSpaceOnUse">
      <stop offset="0" stop-color="#ce5746"/>
      <stop offset="1" stop-color="#b83d2b"/>
    </linearGradient>
    <linearGradient id="uuid-079f83d4-947e-48b8-af97-05f35d3eb856" x1="84.13" y1="41.07" x2="77.05" y2="121.92" xlink:href="#uuid-4363cde9-8e76-439e-bcf4-ca6a3f34b4cf"/>
    <linearGradient id="uuid-32f181e7-8935-4151-aa41-2a52230971fe" x1="63.96" y1="96.8" x2="63.96" y2="121.86" gradientUnits="userSpaceOnUse">
      <stop offset="0" stop-color="#ce5746"/>
      <stop offset=".05" stop-color="#c95140"/>
      <stop offset=".22" stop-color="#bf4534"/>
      <stop offset=".45" stop-color="#b93e2d"/>
      <stop offset="1" stop-color="#b83d2b"/>
    </linearGradient>
    <linearGradient id="uuid-d04f7b02-e25e-4179-b68f-7abff5312d0e" x1="64.15" y1="41.37" x2="64.57" y2="65.38" gradientUnits="userSpaceOnUse">
      <stop offset="0" stop-color="#ce5746"/>
      <stop offset=".51" stop-color="#cc5443"/>
      <stop offset=".76" stop-color="#c54d3c"/>
      <stop offset=".96" stop-color="#bb402f"/>
      <stop offset="1" stop-color="#b83d2b"/>
    </linearGradient>
    <linearGradient id="uuid-dbe2c927-d0ec-42fc-be4f-00318e10f80e" x1="44.3" y1="41.15" x2="49.98" y2="122.36" xlink:href="#uuid-4363cde9-8e76-439e-bcf4-ca6a3f34b4cf"/>
    <linearGradient id="uuid-7ff27317-d7fe-4d9e-8fee-11d88c1f4e55" x1="26.64" y1="40.24" x2="38.23" y2="122.64" xlink:href="#uuid-4363cde9-8e76-439e-bcf4-ca6a3f34b4cf"/>
    <linearGradient id="uuid-16ff21f4-7bf4-4f25-91a4-79795e56a780" x1="45.16" y1="58.01" x2="84.87" y2="3.36" gradientUnits="userSpaceOnUse">
      <stop offset="0" stop-color="#ffe254"/>
      <stop offset=".15" stop-color="#fee45e"/>
      <stop offset="1" stop-color="#fef396"/>
    </linearGradient>
  </defs>
  <g>
    <path d="M104.31,20.43c.04-.37.06-.75.06-1.14,0-5.53-4.51-10.04-10.05-10.04-1.63,0-3.2.38-4.61,1.11-2.27-3.51-6.2-5.73-10.52-5.73-2.72,0-5.3.86-7.43,2.43-1.86-2.49-4.84-4.06-8.06-4.06s-5.98,1.45-7.86,3.79c-2.05-1.39-4.5-2.16-7.03-2.16-4.32,0-8.25,2.22-10.52,5.73-1.41-.73-2.98-1.11-4.62-1.11-5.54,0-10.04,4.51-10.04,10.04,0,.39.02.77.06,1.14-5.16,1.58-8.79,6.34-8.79,11.97,0,2.81.94,5.52,2.66,7.72l10.25,82.84c.14,1.17,1.13,2.04,2.3,2.04h67.78c1.17,0,2.16-.87,2.3-2.04l10.25-82.84c1.72-2.2,2.66-4.9,2.66-7.72,0-5.63-3.63-10.39-8.79-11.97Z" style="fill: #101314;"/>
    <path d="M80.51,80.99c0,9.11-7.41,16.51-16.51,16.51s-16.51-7.41-16.51-16.51,7.41-16.53,16.51-16.53,16.51,7.42,16.51,16.53Z" style="fill: #d6d6d5;"/>
    <polygon points="108.02 41.33 97.53 122.01 85.91 121.94 93.6 41.49 108.02 41.33" style="fill: url(#uuid-4363cde9-8e76-439e-bcf4-ca6a3f34b4cf);"/>
    <path d="M90.27,41.61l-6.18,80.1h-9.42l.74-25.55c4.6-3.47,7.58-8.98,7.58-15.17,0-5.79-2.6-10.97-6.69-14.46l.76-24.92h13.21Z" style="fill: url(#uuid-079f83d4-947e-48b8-af97-05f35d3eb856);"/>
    <path d="M73.13,97.33l-.51,24.53h-16.56l-1.27-25.06c2.08.79,4.54,3.03,9.21,3.18s7.05-1.86,9.13-2.65Z" style="fill: url(#uuid-32f181e7-8935-4151-aa41-2a52230971fe);"/>
    <path d="M74.58,41.78l-.91,23.44c-2.37-1.06-4.54-3.11-9.67-3.23-5.58-.13-7.14,1.56-9.51,2.62l-.76-23.06,20.85.23Z" style="fill: url(#uuid-d04f7b02-e25e-4179-b68f-7abff5312d0e);"/>
    <path d="M53.86,122.09l-9.87-.15-6.26-80.33h13.21l.76,24.92c-4.09,3.49-6.7,8.67-6.7,14.46,0,6.19,2.99,11.71,7.59,15.17l1.27,25.93Z" style="fill: url(#uuid-dbe2c927-d0ec-42fc-be4f-00318e10f80e);"/>
    <polygon points="42.16 122.09 30.39 122.01 20.32 41.13 34.54 41.34 42.16 122.09" style="fill: url(#uuid-7ff27317-d7fe-4d9e-8fee-11d88c1f4e55);"/>
    <path d="M102.96,22.9c-3.53-1.56-.17-4.36-1.82-7.06-1.88-3.87-9.27-4.05-10.8-.6-.63,1.43-.48,3.06-.02,4.53.45,1.21,1.08,4-.98,3.34-1.85-.87-2.4-3.46-1.9-5.36.39-1.71,1.15-3.77.45-5.47-2.26-4.54-9.16-7.18-13.02-4.01-1.19.89-1.83,2.2-3.42,1.86-1.42-.35-2.31-1.58-3.15-2.7-1.9-2.83-6.29-2.76-8.56-.34-1.16,1.03-2.29,1.98-3.9,2.27-2.7.33-6.51-3.91-10.97-1.66-2.33,1.06-3.51,2.23-4.79,4.21-1.09,1.76-2.84,1.02-4.41.23-5.79-2.66-11.9,3.06-10.1,9.09.45,1.96,1.6,4.06,3.75,4.55.76.24,1.89.27,2.49.76.41.36.33.92.05,1.32-.66.76-1.65.62-2.9.17-2.82-.67-4.85-5.82-7.83-3.39-3.88,2.71-5.06,9.88-2.55,14.05,3.24,1.16,34.62.06,60.07.43,10.09,0,19.07,0,24.58,0,3.24-.13,4.87.28,5.77-.19,3.48-5.46,1.87-13.29-4.25-14.7l-1.78-1.33Z" style="fill: url(#uuid-16ff21f4-7bf4-4f25-91a4-79795e56a780);"/>
  </g>
  <path d="M62.21,22.79c0,.76-.61,1.36-1.36,1.36s-1.37-.61-1.37-1.36c0-1.65-1.34-2.99-2.99-2.99-.81,0-1.58.32-2.15.91-.3.3-.72.45-1.14.4-.42-.05-.8-.29-1.02-.66-.41-.7-1.14-1.12-1.96-1.12-1.26,0-2.28,1.02-2.28,2.28s1.02,2.28,2.28,2.28c.76,0,1.37.61,1.37,1.36s-.61,1.37-1.37,1.37c-2.76,0-5.01-2.25-5.01-5.01s2.25-5.02,5.01-5.02c1.24,0,2.42.47,3.33,1.28.87-.53,1.88-.81,2.93-.81,3.16,0,5.72,2.57,5.72,5.72Z" style="fill: #e2d55a;"/>
</svg>