<?xml version="1.0" encoding="UTF-8"?>
<svg id="uuid-d949adf3-cf18-48f4-8a86-50bd6a04663f" data-name="fill_buffalomozzarella" xmlns="http://www.w3.org/2000/svg" xmlns:xlink="http://www.w3.org/1999/xlink" viewBox="0 0 128 128">
  <defs>
    <linearGradient id="uuid-45f83a16-1cc4-4187-aeeb-d333292a77b6" x1="-1582.54" y1="-440.48" x2="-1582.44" y2="-402.48" gradientTransform="translate(888 296) scale(.5)" gradientUnits="userSpaceOnUse">
      <stop offset="0" stop-color="#9d815c"/>
      <stop offset="1" stop-color="#b9a180"/>
    </linearGradient>
  </defs>
  <path d="M107.55,76.95c.11.13,2.96.87,3.27.89.64.05,2.56-.34,3.2-.59,2.24-.85,3.6-4.72,6.35-3.4,2.59,1.25,1.21,3.54,1.13,5.39-.06,1.46.19,3.09-.03,4.47-.18,1.15-1.3,2.34-1.3,3.03,0,2.1,2.85,5.56,2.32,10.5-.7,6.66-6.19,2.58-7.94,3.81-.23.16-1.55,4.37-1.98,5.27-.71,1.47-2.8,4.36-3.01,5.54-.24,1.33.62,3.87.42,5.88-.52,5.21-4.45,6.73-9.2,6.19-1.34-.15-2.73-.95-4.05-.95s-2.71.8-4.05.95c-3.68.42-8.23-.6-9.09-4.81-.5-2.44.43-5.01.25-6.82-.16-1.61-2.76-4.38-2.87-6.31-5.81,4.06-13.62,8.36-20.5,10.25-20.32,5.59-45.82-5.4-53.59-25.41-6.04-15.55,2.28-31.85,18.09-36.35C16.15,22.13,48.52,2.33,77.27,3.98c38.4,2.19,64.94,40.72,30.47,69.02-.31.61-.44,3.68-.2,3.96Z" style="fill: #070706;"/>
  <path d="M76,101.5c-1.74,4.19-6.91,8.32-11.01,10.24-17.81,8.34-42.89.11-52.9-16.59-10-16.69-2.33-34.49,16.4-38.91,16.83-3.97,35.46,3.07,45.5,17.01-3.21,1.31-2.92,7-2.46,9.97.2,1.3,1.44,2.47,1.44,3.53,0,.99-.98,1.84-1.22,2.75-1.2,4.51-2.46,12.34,4.25,12.01Z" style="fill: #d3d3d3;"/>
  <path d="M86.01,73.5c-9.74-20.53-36.75-29.36-57.5-21-1.18-13.53,9.17-24.59,21.62-28.13,23.5-6.67,55.63,10.38,51.66,37.66-.33,2.28-3.04,9.95-4.52,11.48s-6.26-2.31-9.28-1.29c-.53.18-1.85,1.43-1.97,1.29Z" style="fill: #d3d3d3;"/>
  <path d="M101.5,71.5c2.7-7.1,4.36-12.34,2.87-20.12C97.8,17.11,39.22,7.57,27.12,41.4c-.29.8.28,1.34-1.12,1.1.86-14.34,11.56-25.49,24.16-31.09,19.39-8.61,45.11-5.8,60.35,9.33,10.89,10.81,13.8,25.28,5.9,38.91-2.87,4.95-8.19,11.42-13.9,12.35-.68.24-1.22.31-1-.5Z" style="fill: #e8e8e8;"/>
  <path d="M105,75l-1.5,3.99c2.39.23,5.21.52,7.02,2.23,4.07,3.82-2.08,3.98-5.02,3.78,1.78,2.83,2.32,5.66,2,9-2.23.15-4.18-1.03-5.75-2.49-3.07,6.81-7.09,7.31-9.76,0-.57-.42-4.4,3.2-5.97,2.48-1.56-3.27,1.02-5.88,1.47-8.98-10.96.56-4.38-5.98,2-6l-1-4c2.67-1.08,6.46,2.47,8.25,2.47s5.58-3.54,8.25-2.47Z" style="fill: url(#uuid-45f83a16-1cc4-4187-aeeb-d333292a77b6);"/>
  <path d="M84.11,96.39c1.92,1.99,5.61-1.01,6.57-.82.45.09,3.5,4.24,5.59,4.45,2.83.28,5.55-4.25,6.46-4.35.68-.07,2.65,1.08,3.64,1.24,4.85.78,4.08-5.75,3.63-8.9.68.22,1.35,2.01,1.58,2.66,2.56,7.14-.37,12.6-3.6,18.83-1.75-.51-3.07-1.79-4.88-2.36-6-1.9-12.09-1.1-17.33,2.36-4.16-6.34-7.72-14.65-2.53-21.5.11,2.06-.71,6.75.86,8.38Z" style="fill: #a58b66;"/>
  <path d="M105,112q-1.24,1.21,0,0c.18.18,1.03-.07,1.62,1.12,1.43,2.9,1.39,6.92-2.2,8.04-2.98.93-5.13-.82-8.17-.7-2.03.08-3.87,1.21-5.94,1.01-4.7-.44-5.61-5.76-3.23-9.15,2.72-3.88,13.57-4.48,17.13-1.76.78.6.68,1.33.79,1.44Z" style="fill: #d3d3d3;"/>
  <path d="M50.75,52c11.99,1.22,26.93,10.51,32.39,21.13,1.31,2.55,2.86,5.06-1.38,4.91-2.99-.11-4.42-4.73-6.05-6.99-5.52-7.62-13.71-12.82-22.44-16.06l-12.77-2.98c3.3.24,7-.33,10.25,0Z" style="fill: #e8e8e8;"/>
  <path d="M78,98.5c-1.22-.15-3.98.57-4.43-.82-.73-2.23.37-7.35,2.16-9.07,4.82,1.09,2.64,2.63,2.27,6.14-.13,1.24.07,2.51,0,3.75Z" style="fill: #734c2b;"/>
  <path d="M119.45,98.45c-.37.32-3.12-.11-3.95.05.75-1.98-1.32-6.8-.95-8.18.26-.96,2.35-1.31,3.22-1.71,1.4.12,2.98,8.72,1.68,9.84Z" style="fill: #734c2b;"/>
  <path d="M77.59,79.9c.59.35,1.68,0,2.4.1-.05,1.49-1.45,1.49-1.55,3.24-.09,1.67.7,2.49,1.55,3.75-6.36-.13-5.68-5.09-5.5-10,1.29.04,2.88,2.77,3.09,2.9Z" style="fill: #d3d3d3;"/>
  <path d="M119,77c.25,4.13.5,9.54-5,9.5-.16-1.08.98-1.69.97-2.74,0-.97-1.01-2.13-1.43-3.01l5.46-3.74Z" style="fill: #d3d3d3;"/>
  <path d="M102.5,72c-.2.03-.73.83-1.5.5-.28-.92.46-.89.5-1l1,.5Z" style="fill: #d3d3d3;"/>
  <path d="M11,76.5c3.77-.65,2.25,3.55,2.55,6.2.31,2.69,1.85,6.42,3.24,8.76.71,1.2,5.29,5.9,2.95,6.54-1.86.51-5.73-5.87-6.49-7.51-.48-1.03-2.26-5.99-2.26-6.74v-7.25Z" style="fill: #e8e8e8;"/>
  <path d="M45,30.5c-.1.67.24,1.97-.07,2.43-.15.22-3.6,1.67-4.66,2.58-2.43,2.1-4.47,5.73-5.15,8.85-.48,2.23.89,4.59-2.61,4.14-.81-6.02,2.24-12.11,7.03-15.72.76-.57,4.8-3.01,5.47-2.28Z" style="fill: #e8e8e8;"/>
  <path d="M84.8,99.54c2.95-.99,2.78,3.42.45,3.48-1.64.04-1.74-3.05-.45-3.48Z" style="fill: #070706;"/>
  <path d="M107.3,99.54c2.2-.7,2.94,1.93,1.73,2.73-2.26,1.5-3.6-2.14-1.73-2.73Z" style="fill: #070706;"/>
  <path d="M90.46,112.04c.21.15.2,1.4.65,1.85.79.79,2.25-.12,1.9,1.85-.62,3.61-6.4-.97-4.8-3.26.36-.52,1.86-.71,2.25-.43Z" style="fill: #131010;"/>
  <path d="M105,112c.21,2.08-.07,4.32-2.37,4.89-1.86.46-2.85-1.28-2.09-2.35.17-.23,1.46-.17,1.84-.67.66-.86-.1-2.4,2.62-1.87Z" style="fill: #131010;"/>
</svg>