<?xml version="1.0" encoding="UTF-8"?>
<svg id="fill_olive" xmlns="http://www.w3.org/2000/svg" viewBox="0 0 128 128">
  <path d="M50.38,52.64c3.17-3.97,6.13-7.68,8.78-10.99-10.76,1.5-41.3,8.73-45.12-5.84-1.18-6.54,4.59-9.74,9.41-12.46C1.96,9.1,17.65-.22,36.34,2.11c9.49,1.13,38.46,2.53,39.02,14.71,4.11.25,7.46,1.75,8.95,5.76,9.79-4.86,29.04-16.22,30.6,2.24-.77,11.26-15.64,12.24-23.21,17.91-5.1,4.74-3.67,21.37-5.56,28.98,23.15,16.18,5.84,74.73-24.75,47.38-6.76-6.53-8.54-15.09-8.3-24.31-12.52,12.34-34.38,14.63-38.65-6.83-3.38-19.59,16.51-40.07,35.93-35.29Z" style="fill: #4a3726; stroke-width: 0px;"/>
  <path d="M90.44,98.11c-1.63,31.57-32.01,24.11-30.34-2.67,2.99-27.99,30.06-25.24,30.34,2.67Z" style="fill: #879247; stroke-width: 0px;"/>
  <path d="M43.96,58.74c26.97,1.36,6.99,37.91-10.24,38.57-5.67.89-11.01-3.26-12.29-9.64-2.85-13.93,9.15-27.97,22.54-28.94Z" style="fill: #879247; stroke-width: 0px;"/>
  <path d="M79.63,67.9c-1.33.44-2.09.68-2.82.92-7.99-3.2-.04-15.07-3.12-21.45-4.21,2.72-12.63,17.65-15.93,6.82,3.43-7.6,44.61-40.54,50.07-30.71.74,2.02-.32,3.58-2.64,4.72-28.44,13.03-21.62,10.95-25.57,39.69Z" style="fill: #7b5b3b; stroke-width: 0px;"/>
  <path d="M20.51,34.18c11.39-11.44,42.78-14.22,57.63-9.19-15.54,11.09-38.99,15.9-57.37,10.37-.09-.4-.17-.79-.26-1.19Z" style="fill: #6f814f; stroke-width: 0px;"/>
  <path d="M19.81,10.35c15.5-3.95,31.8-.25,46.7,5.46-10.54-.19-20.89.69-31.09,3.45-4.16,1.07-13.76-5.1-15.61-8.91Z" style="fill: #6f814f; stroke-width: 0px;"/>
</svg>