<?xml version="1.0" encoding="UTF-8"?>
<svg id="uuid-0d61c969-3300-47db-8ad3-77a91e503de7" data-name="fill_barley" xmlns="http://www.w3.org/2000/svg" viewBox="0 0 128 128">
  <path d="M43.99,86.98c-6.84-4.83-10.37-11.22-9.59-19.79-3.76-1.44-5.53-4.45-6.77-8.07-2.18-6.4-4.64-12.71-6.92-19.08-2.69-7.49-.16-12.42,7.46-14.72-.06-8.09,1.79-10.8,8.73-12.8-.17-5.87,1.85-9.57,6.16-11.25,4.49-1.75,8.46-.33,12.52,4.47,6.83-2.81,10.92-1.63,14.54,4.09,2.1-.42,4.16-1.22,6.19-1.16,4.2.12,7.29,2.28,8.78,6.28,2.75,7.33,5.59,14.64,8,22.09.85,2.64.56,5.65.9,9.77,5.57,7.57,6.6,11.6,4.56,20.28,7.79,4.82,10.56,12.05,9.03,20.77-1.5,8.57-7.22,14.02-14.98,17.83.94,2.63,1.92,5.29,2.85,7.95,1.97,5.67-.55,11.36-5.92,13.41-5.52,2.11-11.32-.5-13.55-6.15-1.04-2.64-1.97-5.32-2.98-8.07-8.24,1.7-15.98,1.23-22.69-4.24-6.66-5.44-9.11-13.79-6.31-21.6Z" style="fill: #4a3726; stroke-width: 0px;"/>
  <path d="M89.57,117.89c-.85.84-1.74,2.33-3.01,2.8-1.89.7-3.44-.37-4.16-2.34-2.23-6.09-4.47-12.19-6.69-18.29-2.87-7.85-5.74-15.69-8.58-23.55-.94-2.6-.3-4.25,1.8-5.1,1.96-.79,3.8.1,4.74,2.65,5.16,14.03,10.25,28.08,15.36,42.13.12.33.22.67.53,1.69Z" style="fill: #d3cb8c; stroke-width: 0px;"/>
  <path d="M41.64,67.6c11.89-1.01,18.43,4.2,20.85,14.71-4.07,2.34-11.77,1.29-16.08-2.08-4.04-3.16-6.41-9.24-4.77-12.63Z" style="fill: #d3cb8c; stroke-width: 0px;"/>
  <path d="M90.04,99.17c-5.41-9.35-2.31-20.96,6.55-25.21,3.76,3.43,5.06,7.71,4.15,12.67-1.13,6.14-5.22,9.79-10.7,12.54Z" style="fill: #d3cb8c; stroke-width: 0px;"/>
  <path d="M87.73,50.69c4.16,3.03,5.79,8.53,4.26,13.98-1.41,5.03-6.69,10.28-10.79,10.73-4.52-9.58-3.47-17.08,6.54-24.72Z" style="fill: #d3cb8c; stroke-width: 0px;"/>
  <path d="M71.17,105.84c-5.67,1.85-10.91,1.35-15.64-1.99-4.39-3.1-6.5-7.39-5.66-12.83,8.91-2.71,18.47,3.83,21.31,14.82Z" style="fill: #d3cb8c; stroke-width: 0px;"/>
  <path d="M66.66,64.26c-6.72-.54-10.63-4.65-10.4-11.2.13-3.66.87-7.3,1.75-11.05,4.94,3.15,9.73,6.24,11.66,11.77,1.34,3.85-.76,7.24-3.01,10.48Z" style="fill: #d3cb8c; stroke-width: 0px;"/>
  <path d="M72.5,17.73c1.08-.77,2.15-2.15,3.17-2.11,1.08.05,2.64,1.23,3.05,2.28,2.99,7.6,5.74,15.3,8.53,22.86-.44,1.85-1.25,3.5-3.17,3.01-1.17-.3-2.51-1.6-2.97-2.77-2.9-7.45-5.58-14.99-8.61-23.27Z" style="fill: #96a775; stroke-width: 0px;"/>
  <path d="M53.88,35.84c-.6-.87-1.84-2.11-2.42-3.59-1.97-5.06-3.71-10.21-5.54-15.32-.63-1.76-1.29-3.51-1.93-5.27-.66-1.81-.1-3.25,1.62-3.99,1.84-.79,3.26.2,3.88,1.85,2.78,7.42,5.49,14.87,8.08,22.36.84,2.44-.47,4.11-3.69,3.96Z" style="fill: #96a775; stroke-width: 0px;"/>
  <path d="M39.93,19.96c.93,2.42,2.01,5.1,3.01,7.82,1.95,5.25,3.83,10.53,5.8,15.77.7,1.88.43,3.48-1.43,4.27-1.95.83-3.3-.33-3.96-2.11-2.74-7.33-5.5-14.66-8.06-22.05-1-2.88.59-4.22,4.64-3.69Z" style="fill: #96a775; stroke-width: 0px;"/>
  <path d="M30.14,32.45c.46.45,1.75,1.15,2.15,2.19,2.78,7.23,5.39,14.51,8.02,21.8.66,1.84.21,3.51-1.69,4.22-1.97.73-3.23-.43-3.9-2.24-2.63-7.18-5.28-14.37-7.86-21.57-.94-2.62.11-4.39,3.28-4.4Z" style="fill: #96a775; stroke-width: 0px;"/>
  <path d="M72.47,37.27c-.69.63-1.52,2.01-2.5,2.12-1,.11-2.68-.77-3.12-1.68-1.36-2.78-2.3-5.78-3.37-8.7-1.69-4.59-3.39-9.18-5.01-13.79-.61-1.73-.15-3.24,1.72-3.9,1.87-.66,3.23.26,3.85,1.94,2.72,7.34,5.34,14.71,7.99,22.08.15.41.2.86.44,1.93Z" style="fill: #96a775; stroke-width: 0px;"/>
</svg>