<?xml version="1.0" encoding="UTF-8"?>
<svg id="uuid-c3112c58-3be9-409a-8f85-a26f0029a4cb" data-name="fill_sheep" xmlns="http://www.w3.org/2000/svg" xmlns:xlink="http://www.w3.org/1999/xlink" viewBox="0 0 128 128">
  <defs>
    <linearGradient id="uuid-5d8fb752-25a3-4700-8d76-ee9cecab514b" x1="128.5" y1="25.99" x2="128.51" y2="118.99" gradientTransform="scale(.5)" gradientUnits="userSpaceOnUse">
      <stop offset="0" stop-color="#baab96"/>
      <stop offset="1" stop-color="#988974"/>
    </linearGradient>
    <linearGradient id="uuid-aa1e0e69-a4f0-4bcd-b5c7-0d0b5d62ea6c" x1="128.01" y1="114.28" x2="127.77" y2="221.28" gradientTransform="scale(.5)" gradientUnits="userSpaceOnUse">
      <stop offset="0" stop-color="#c4b49b"/>
      <stop offset=".53" stop-color="#d7cab7"/>
      <stop offset="1" stop-color="#d7cab7"/>
    </linearGradient>
    <linearGradient id="uuid-2b7c7bff-136e-4220-8955-129c07d913dd" x1="168.61" y1="172.47" x2="236.87" y2="182.55" gradientTransform="scale(.5)" gradientUnits="userSpaceOnUse">
      <stop offset="0" stop-color="#998b76"/>
      <stop offset="1" stop-color="#baab96"/>
    </linearGradient>
    <linearGradient id="uuid-d5214e72-dcb3-4c24-8b91-3b82412d221d" x1="201.39" y1="112.23" x2="241.84" y2="118.92" gradientTransform="scale(.5)" gradientUnits="userSpaceOnUse">
      <stop offset="0" stop-color="#c8ad87"/>
      <stop offset="1" stop-color="#d6cab5"/>
    </linearGradient>
    <linearGradient id="uuid-1e24c4af-c4be-40be-8dbf-a0fc464392ee" x1="53.53" y1="112.18" x2="17.11" y2="118.68" gradientTransform="scale(.5)" gradientUnits="userSpaceOnUse">
      <stop offset="0" stop-color="#c8ad88"/>
      <stop offset="1" stop-color="#d5c8b3"/>
    </linearGradient>
  </defs>
  <path d="M113.5,49.5c4.05.48,13.17,1.35,12.41,7.12-.25,1.87-2.19,3.07-2.31,4.21-.08.79,1.67,3.96,1.86,5.46,1.73,13.28-6.11,24.27-19.46,25.71,5.49,7.05,2.44,16.96-4.04,22.21s-14.31,5.72-21.47,2.05c-1.12-.58-3.46-2.57-4.32-2.66-.51-.06-4.21,1.55-5.55,1.78-4.02.69-9.25.78-13.25,0-1.42-.28-5.05-1.88-5.64-1.87-.35,0-4.55,3.03-5.9,3.59-15.77,6.53-33.69-9.8-23.84-25.09-13.02-.83-22.37-13.8-19.27-26.52.3-1.23,1.61-3.58,1.68-4.32.14-1.5-4.29-3.97-1.42-7.92,1.81-2.5,8.55-3.38,11.51-3.74-1.37-4.39-2.29-7.07-.25-11.5,3.74-8.11,11.63-7.59,18.66-10.59.96-9.39,8.98-15.1,18.3-13.87,1.34.18,4.97,1.98,5.47,1.89s2.81-2.33,3.66-2.84c11.08-6.61,23.86-2.65,29.76,8.57.53,1.01.7,3.01,1.42,3.58.76.6,3.21,1.09,4.33,1.67,3.47,1.81,3.1,1.99,7.18,3.32,4.54,1.47,8.64,3.73,10.73,8.27s1.11,7.11-.25,11.5Z" style="fill: #0d0f0f;"/>
  <path d="M28.5,34c1.91-2.39,3.88-3.82,6.93-4.58.26-11.23,12.14-17.53,21.24-10.49,1.77-.66,2.71-2.3,4.17-3.35,9.71-6.98,21.68-3.46,26.76,7.07.59,1.23.74,3.34,1.37,4.13.71.9,5.01,1.65,6.67,2.72,13.18,8.49,5.48,30.98-13.13,25.73-1.22-.35-2.17-1.6-3.65-1.17-.78.23-2.01,1.99-2.9,2.64-6.65,4.87-14.36,6.42-21.98,2.56-2.02-1.02-6.65-6.22-8.46-6.11s-3.05,1.11-5.27,1.34c-6.57.69-12.25-2.49-13.76-9-.46-2.79-.4-9.15,2-11.5Z" style="fill: url(#uuid-5d8fb752-25a3-4700-8d76-ee9cecab514b);"/>
  <path d="M41.59,89.66c-2.01-3.67-4.89-6.49-6.99-10.01-4.46-7.49-5.49-15.63-3.59-24.15,2.08.81,5.08,1.92,7.3,1.95,1.93.03,6.23-1.7,7.34-1.38.79.23,2.45,2.42,3.4,3.14,7.99,6.11,18.81,6.56,27.12.7.93-.65,2.54-2.69,3.19-2.85.82-.21,2.88,1.02,4.04,1.29,3.94.92,5.64.78,9.49-.22.99-.26,3.66-1.63,3.87-1.62.34.02.68.81.75,1.24.88,5.26.21,12.29-1.76,17.24-2.23,5.6-6.72,9.75-9.5,15s-3.86,11.61-6.64,16.36c-3.09,5.27-8.3,6.48-14.1,6.65v-7.75c0-.32,3.97-3.67,4.53-4.48s.66-.72,0-1.53c-1.9-2.31-3.83,3.53-6.25,3.29-1.57-.15-3.84-4.24-4.96-4l-1.28,1.65,4.96,5.07v7.75c-4.05-.15-9.05-.8-11.99-3.78-2.51-2.54-5.65-13.59-8.92-19.55Z" style="fill: url(#uuid-aa1e0e69-a4f0-4bcd-b5c7-0d0b5d62ea6c);"/>
  <path d="M101.14,91.89c.44.96,3.52,2.15,4.47,5.25,4.26,13.78-16.85,25.43-26.58,14.54,1.43-2.06,2.78-3.69,3.9-6,2.12-4.39,3.07-9.34,5.3-13.7,2.59-5.07,7.02-8.94,9.36-14.14,1.81-4.03,2.94-8.93,2.92-13.34,7.03,3.32,14.74,2.56,20.99-2,5.07,12.72-2.41,25.01-15.8,26.94-1.63.23-6.01-.7-4.55,2.45Z" style="fill: url(#uuid-2b7c7bff-136e-4220-8955-129c07d913dd);"/>
  <path d="M46.85,113.6c-7.44,4.67-17.35,2.06-22.26-4.94-2.97-4.23-3.91-10.11-.59-14.41,1.17-1.52,3.61-2.11,2.95-3.94-.5-1.37-3.75-.67-5.15-.86-1.75-.24-5.27-1.44-5.8-1.68-9.56-4.28-13.65-15.7-9.49-25.27,1.86,1.08,4.43,2.97,6.49,3.5,1.85.48,5.82.68,7.75.5,2.32-.22,4.59-1.21,6.75-2-.03,4.4,1.1,9.3,2.91,13.34,2.18,4.84,6.13,8.28,8.68,12.82,3.31,5.91,4.18,12.95,8,18.5,1.57,2.29,3.3,2.21-.24,4.44Z" style="fill: #ab9c87;"/>
  <path d="M100.59,61.41l-1.02-7.06,3.78-4.27c6.21.99,12.52,2.48,18.63,4.2,3.77,2.1-2.73,6.68-4.79,7.67-5.56,2.66-11.23,2.46-16.6-.53Z" style="fill: url(#uuid-d5214e72-dcb3-4c24-8b91-3b82412d221d);"/>
  <path d="M24.74,49.98c.63.1,3.71,3.57,3.77,4.28l-1.1,7.15c-6.11,3.41-13.79,3.22-19.42-1.15-2.81-2.18-5.32-6.39.01-6.76,1.56-.21,16.74-3.52,16.74-3.52Z" style="fill: url(#uuid-1e24c4af-c4be-40be-8dbf-a0fc464392ee);"/>
  <path d="M23.49,47.49c-3.82.18-6.45,3.08-7.38-2.36-1.12-6.63,3.66-11.03,9.64-12.62-.11,1.22-1.2,2.16-1.65,3.34-1.54,4-1.18,7.5-.61,11.64Z" style="fill: #ab9c87;"/>
  <path d="M104.51,47.49c.98-5.24.58-9.61-1.5-14.49,5.74,1.04,9.89,6.17,8.88,12.13-.92,5.43-3.55,2.53-7.38,2.36Z" style="fill: #ab9c87;"/>
  <path d="M30.25,34.96c1.25-1.8,6.53-5.26,7.9-3.25-.1,1.09-1.34,1.74-2.18,2.48-2.02,1.42-3.99,3.28-4.44,5.8-.52,1.82-.07,4.94-2.32,5.52-3.48-.93-.85-8.33.9-10.38l.14-.17Z" style="fill: #e4dacc;"/>
  <path d="M50.15,52.61c1.89-1.95,5.62,1.29,7.88,2.44,2.06,1.15,4.34,2.2,4.9,3.23.76,2.03-2.94,1.25-4.01.78-1.99-.93-9.17-4.15-8.8-6.36l.03-.09Z" style="fill: #e4dacc;"/>
  <path d="M9.1,54.21c.56-.14.61-.14,1.32-.23,2.36.19,7.09-2.55,8.66-.23.08,2.09-3.72,2.23-6.56,3.05-1.02.23-2.1.52-3.12.56-2.53.28-2.56-2.47-.46-3.12l.15-.05Z" style="fill: #e4dacc;"/>
  <path d="M41.43,20.79c-.82-.85.47-2.1,1.27-2.57,3.42-1.82,8.05-1.1,11.16,1.11,1.18.68,2.49,3.14.18,2.95-1.46-.17-3.36-1.45-5.18-1.79-1.43-.33-2.89-.25-4.29.12-.92.22-2.27.7-3.04.25l-.09-.07Z" style="fill: #e4dacc;"/>
  <path d="M83.15,69.12c.07-.19,1.73-1.42,2.19-1.51,6.6-1.27,6.52,7.74.44,6.86-2.5-.36-3.48-3.14-2.63-5.35Z" style="fill: #0d0e0e;"/>
  <path d="M43.86,68.15c.24.21.94,1.41,1.02,1.73,1.44,6.08-8.1,6.33-7.16.6.47-2.88,4.1-4.08,6.15-2.32Z" style="fill: #0d0e0e;"/>
  <path d="M51.45,107.54c-1.63-2.17-4.54-7.43-2.87-10.07,1.44-1.23,2.25,1.97,2.61,2.96.32.99.71,1.97,1.27,2.85,1.12,1.98,3.27,3.19,4.05,5.23.41,2.58-4.26.22-4.93-.83l-.14-.15Z" style="fill: #e4dacc;"/>
  <path d="M18.06,86.56c-4.62-2.32-9.02-6.14-10.41-11.46-.19-.74-.23-1.72.25-2.29,1.77-1.47,2.94,4.01,4,5.01,1.32,1.77,2.81,3.13,4.59,4.52,1.83,1.33,4.06,2.03,6.26,2.45.89.14,1.94.42,2.47,1.08.49.56.45,1.25-.18,1.58-1.4.55-5.14-.31-6.82-.82l-.16-.06Z" style="fill: #e4dacc;"/>
  <path d="M26.82,93.56c.7-.24,2.05,0,2.19.7.25,1.28-4.36,4.41-2.39,9.39.36.91,2.77,3.92.14,3.87-1.81-.03-3.28-4.75-3.28-6.27,0-1.67,1.8-7.17,3.36-7.69Z" style="fill: #e4dacc;"/>
</svg>