<?xml version="1.0" encoding="UTF-8"?>
<svg id="fill_oil_olive" xmlns="http://www.w3.org/2000/svg" viewBox="0 0 128 128">
  <path d="M33.64,46.4c0-6.65.05-13.12-.05-19.59-.02-.95-.64-1.96-1.19-2.81-3.19-4.97-3.59-10.16-.89-15.36,2.66-5.11,7.07-7.83,12.88-7.92,6.38-.1,12.76-.09,19.14,0,5.79.09,10.2,2.71,12.92,7.85,2.78,5.25,2.2,10.41-.88,15.38-.53.85-1.01,1.74-1.74,3,7.11.21,12.46,3.14,16.88,7.92,4.41,4.76,6.66,10.3,5.88,17.06,6.09-.11,10.55,2.21,12.35,8.1,1.6,5.24-.36,9.43-4.69,12.8,4.92,6.97,8.28,14.6,9.61,23.01.45,2.84.58,5.76.47,8.64-.28,7.82-7.26,12.44-14.45,7.53-2.74,6.18-6.22,11.7-14.04,11.33-8.08-.39-12.5-5.6-15.24-12.93-5.66,3.89-11.5,6.18-17.36,3.09-2.99.51-5.29.98-7.62,1.27-1.33.16-2.72-.1-4.05.05-10.91,1.23-17.64-4.56-22.59-13.36-10.31-18.33-5.25-40.85,11.9-53.03.86-.61,1.71-1.24,2.78-2.01Z" style="fill: #4a3726; stroke-width: 0px;"/>
  <path d="M74.44,65.78c-2.74-2.21-5.37-4.44-8.11-6.53-4.69-3.59-7.1-8.27-7.1-14.18,0-9.66,0-19.31,0-29.21h-10.5c0,1.02,0,2.04,0,3.06,0,8.6-.03,17.2.02,25.8.03,6.25-2.34,11.29-7.55,14.76-8.67,5.77-13.1,13.65-12.37,24.16.4,5.68,2.62,10.63,6.52,14.76.69.73,1.97,1.17,3.01,1.26,2.29.19,4.6.06,6.85.06.63,2.53,1.2,4.85,1.77,7.18-6.8,2.47-14.93.16-19.19-5.54-11.36-15.19-8.11-36.14,7.52-46.93,4.17-2.88,6.05-6.28,5.84-11.35-.29-6.94-.07-13.9-.07-20.7-4.95-4.55-5.29-9.73-.75-12.82,1.4-.95,3.39-1.39,5.13-1.45,5.6-.18,11.21-.07,16.81-.07,4.13,0,6.74,1.44,7.88,4.61,1.23,3.44.48,6.45-2.44,8.81-.29.23-.49.58-.72.84v14.07c1.21-.46,2.16-.88,3.13-1.19,5.96-1.91,10.78.16,14.88,4.43,3.84,4,5.5,8.65,3.3,14.02-.61,1.49-1.88,2.86-3.16,3.91-3.55,2.91-7.26,5.61-10.7,8.24Z" style="fill: #aecace; stroke-width: 0px;"/>
  <path d="M46.9,92.62h-6.3c-4.62-5.72-5.48-11.9-2.75-18.83h28.64c-.91,1.89-1.8,3.72-2.69,5.56-9.73,3.03-10.15,3.36-16.89,13.26Z" style="fill: #d3cb8c; stroke-width: 0px;"/>
  <path d="M89.19,72.33v13.16c-2.48.12-4.82.23-7.43.35v-5.5c-1.84,1.66-3.21,2.9-4.65,4.19-1.83-1.41-3.56-2.73-5.41-4.14.36-.79.53-1.6,1.01-2.12,6.85-7.51,14.23-14.39,23.77-18.41,1.97-.83,4.03-.58,5.09,1.83.96,2.17.04,4.07-2.48,5.36-3.32,1.7-6.58,3.5-9.91,5.28Z" style="fill: #7b5b3b; stroke-width: 0px;"/>
  <path d="M77.56,104.26c.07-5.89,2.13-9.38,6.33-10.97,2.62-.99,4.75-.23,6.48,1.73,4.06,4.59,3.97,14.3-.1,18.86-2.7,3.02-7.46,2.73-9.93-1.04-1.62-2.47-3.04-8.47-2.78-8.58Z" style="fill: #879247; stroke-width: 0px;"/>
  <path d="M71.9,93.4c0,6.85-5.48,11.77-10.53,13.53-4.87,1.7-9.74-3.12-8.52-8.39,1.3-5.58,4.51-9.78,10.32-11.42,5.21-1.47,8.82,1.16,8.72,6.28Z" style="fill: #879247; stroke-width: 0px;"/>
  <path d="M96.92,76.87c6.59,4.75,11.99,23.33,8.76,29.8-.89-.79-1.94-1.36-2.46-2.24-4.91-8.36-6.81-17.42-6.3-27.56Z" style="fill: #6f814f; stroke-width: 0px;"/>
  <path d="M81.64,49.12c-.07,2.95-3.22,6.02-6.04,5.89-3.37-.17-7.26-4.09-7.13-7.19.13-3.02,2.87-5.74,5.79-5.75,2.95-.01,7.44,4.28,7.37,7.05Z" style="fill: #4a3726; stroke-width: 0px;"/>
</svg>