<?xml version="1.0" encoding="UTF-8"?>
<svg id="uuid-28b6dca5-2898-4981-b7c3-c889b8a66a9a" data-name="fill_spinachbags" xmlns="http://www.w3.org/2000/svg" xmlns:xlink="http://www.w3.org/1999/xlink" viewBox="0 0 128 128">
  <defs>
    <linearGradient id="uuid-c6172906-a256-483f-9f83-73c4f4d0d751" x1="-6531.83" y1="-1168.82" x2="-6532.15" y2="-945.82" gradientTransform="translate(3330 592) scale(.5)" gradientUnits="userSpaceOnUse">
      <stop offset="0" stop-color="#cae6e2"/>
      <stop offset=".43" stop-color="#cae6e2"/>
      <stop offset="1" stop-color="#9bbdbb"/>
    </linearGradient>
    <linearGradient id="uuid-890fccaf-1c6d-45b4-a248-0b8928a9e14c" x1="-6455.88" y1="-1109.57" x2="-6555.78" y2="-1005.86" gradientTransform="translate(3330 592) scale(.5)" gradientUnits="userSpaceOnUse">
      <stop offset="0" stop-color="#378431"/>
      <stop offset="1" stop-color="#56b14f"/>
    </linearGradient>
    <linearGradient id="uuid-f3d8dc02-fa0d-4380-8a25-c8f30cf5fdcc" x1="-6537.56" y1="-1126.6" x2="-6598.55" y2="-993.95" gradientTransform="translate(3330 592) scale(.5)" gradientUnits="userSpaceOnUse">
      <stop offset="0" stop-color="#378431"/>
      <stop offset="1" stop-color="#57b14f"/>
    </linearGradient>
  </defs>
  <path d="M56.89,4.14c15.59-.56,36.91.72,52.3,3.41,1.04.18,3.1.49,3.56,1.44,1.14,8.56,2.85,17.03,3.89,25.61,3.27,26.96,1.64,50.36-2.72,77.07-.34,2.11-.63,7.18-2.45,8.05-1.43.69-5.44.97-7.28,1.22-28.13,3.81-57.3,3.89-85.39-.5-1.16-.18-2.93-.44-3.54-1.46-1.64-10.21-3.57-20.51-4.71-30.79-1.61-14.43-1.82-28.96-.56-43.45,1.03-11.83,3.52-23.62,5.13-35.37.47-1.4,2.35-1.62,3.68-1.82,11.8-1.84,26.13-2.98,38.09-3.41Z" style="fill: #0b0d0e;"/>
  <path d="M110.5,10.5c1.22,12.44,4.01,24.78,5,37.25.96,12.14.76,25.35-.5,37.5-1.11,10.77-3.51,21.45-4.5,32.25l-35.25,3.5c-19.44.84-38.51-1.51-57.75-3.5-.84-9.15-2.87-18.19-3.94-27.31-1.63-13.91-2.18-28.51-1.06-42.44,1.01-12.47,3.77-24.81,5-37.25l35.73-3.52c19.32-.76,38.16,1.47,57.27,3.52Z" style="fill: url(#uuid-c6172906-a256-483f-9f83-73c4f4d0d751);"/>
  <path d="M65.51,32.5c.23-.01.51.08.73,0,.38-.15,4.05-3.74,5.03-4.47,16.96-12.75,30.9-3.64,33.68,15.79,1.87,13.09-2.61,39.59-14.78,47.11-5.8,3.58-11.13,2.68-17.62,2.14-1.77,4.66-3.42,17.3-11.04,11.69-4.03-2.96,1.51-11.29,1.98-15.24-3.08,1.9-6.74,2.18-10.21,2.95l-.31.38c-.78,5.15,2.97,15.04-5.23,14.91-6.95-.11-3.39-10.78-4.27-15.22-9-.9-15.16-4.71-18.49-13.26-5.36-13.77-1.59-39,8.02-50.5,10.64-12.73,24.94-10.29,32.5,3.74Z" style="fill: #0c110f;"/>
  <path d="M14,73c.07-6.08.24-12.25.5-18.5.07-2.11.63-14.17,1.48-14.77h1.53c1.25.86-.42,10.16-.52,12.02-.29,5.81-.28,11.79,0,17.5.06,1.25.2,3.37,0,4.5-.4,2.2-2.71,1.36-3-.75Z" style="fill: #e7f3f3;"/>
  <path d="M19,93.5c-2.73.93-3.12-3.63-3.45-5.8-.23-1.52-.73-6.14-.57-7.47.26-2.27,1.4-2.24,2.43-.38l1.6,13.65Z" style="fill: #e7f3f3;"/>
  <path d="M90.2,87.2c-6.09,5.06-11.86,4.13-19.19,2.3-.87,1.67-4,13.03-4.58,13.43-.72.51-3.21.05-3.71-.94-.84-1.67,4.02-11.05,3.73-13.66-5.27-3.26-10.46-5.62-12.48-12.05-4.07-12.99,7.4-36.14,17.29-44.77,8.77-7.65,20.49-10.43,27.33,1.15,7.74,13.12,3.53,44.64-8.39,54.54Z" style="fill: url(#uuid-890fccaf-1c6d-45b4-a248-0b8928a9e14c);"/>
  <path d="M46,90.5c-.68-.72-8.95-2.02-11.66-3.59-10.81-6.23-9.71-26.46-7.69-37.02,1.66-8.65,6.75-20.78,14.91-25.09,9.41-4.97,18.13,1.77,22.43,9.94.03.97-4.1,6.21-4.99,7.76-.51.51-.67.18-.5-1l-.87-.66c1.12-5.62-.11-13.45-.29-1.87-.4,2.36-1.69,5.03-3.33,6.77-1.07,1.13-3.36,3.39-4.52,1.75-.39,0-.98-.09-1-.34-.33-3.83-.54-13.75,0-17.32l1-.59c-.8.08-1.63,0-2.5-.25-.2,6.17-.37,12.34-.5,18.5-1.85,1.14-4.08-1.65-5.17-3.19-2.33-3.3-3-7.29-2.32-11.16-2.09-1.32-.77,5.34-.45,6.52,1.4,5.16,3.72,7.45,8.17,10.08l-.24,1.26c.35,3.92.41,7.82.18,11.71-.39.12-.79.05-1.18-.21-3.27,1.37-7.43-3.63-9.1-6.42-.36-1.17-4-10.13-2.62-4.96,1.79,6.7,6.26,11.8,13.06,13.75l.16,1.38c.39.11.96.26,1,.57.11.89.22,8.58,0,8.97s-.6.58-1,.71c-1.05,1.97-4.48-.3-5.94-1.33-2.55-1.8-4.22-4.16-5.24-7.09-1.25-.85-.81.46-.41,1.37,1.8,4.08,6.47,8.27,11.04,8.59l.56.96c1.45-.43,1.18,7.66,1,8.05-.17.37-.61.55-1,.7,1.31-.22,1.83-1.29,1.56-3.2-.23-3.05-.63-8.56,3.44-5.55,1.58,3.37,5.28,6.94,8.5,8.75-.69,1.54-8.4,1.66-10,2.25-.18,4.61-.35,9.28-.5,14-.96,1.51-2.54,1.51-3.5,0-.15-4.53-.32-9.03-.5-13.5Z" style="fill: url(#uuid-f3d8dc02-fa0d-4380-8a25-c8f30cf5fdcc);"/>
  <path d="M47,29c1.1-1.79,2.5-.2,2.5.25v18.25c3.78-.95,6.53-5.64,6.95-9.3.13-1.18-.42-5.84.81-6.19.71-.2,1.43.07,1.67.82.43,1.4.04,7.1-.42,8.67-.66,4.15-4.15,7.94-7.94,9.89-.02,3.07-.08,6.61-.18,10.63l.62.97c-.12.6-.47,2.19-.5,2.5-.09.62-.22,1.19-.56.63-.08,3.01-.05,6.1.19,9.13l.87,1.24c.04.18.85,2.19,1,2.5l-2.51.29c-.29,1.89.89,8.76-1.25,9.21-.49.1-1.24-.56-1.24-.75v-8.75c-5.04.67-12.79-6.52-13.02-11.24-.06-1.25,2.07-.94,2.44-.68.18.12,1.29,3.1,1.85,3.89,1.87,2.65,5.37,5.37,8.72,5.53v-10.25c-1.02-1.08-2.6-1-3.84-1.66-3.72-1.96-7.09-5.29-8.9-9.1-.63-1.33-3.35-7.95-.03-6.98.57.17,2.41,6.02,3.17,7.33,1.76,3.03,4.78,5.55,8.1,6.65.64.33,1.01.17,1.23-.5.27-.8.12-6.62.08-7.95-.03-1.02-.07-2.05-.3-3.06-.69-1.16-3.52-2.4-4.76-3.51-3.15-2.84-5.11-9.01-4.76-13.26.05-.65-.11-1.59.49-2.01s1.9-.39,2.31.26c.72,1.12-.16,2.58-.09,3.69.26,4.7,2.5,9.22,6.82,11.34.17-6.07.34-12.24.5-18.5Z" style="fill: #68b558;"/>
  <path d="M59,42.5c-3.01,5.26-6.84,14.59-8,20.5-1.64.04-1.45.36-1.5-1.23-.11-3.64.1-7.3-.02-10.95,3.45-1.69,7.9-5.53,9.02-9.33l.5,1Z" style="fill: #43993e;"/>
  <path d="M50.5,65.5c-.27,2.71-.15,8.39.5,11-1.64.04-1.45.36-1.5-1.23-.08-2.6-.1-5.45,0-8.04.04-.97-.52-2.01,1-1.73Z" style="fill: #43993e;"/>
  <path d="M50,104c.4-4.16-.54-9.24-.02-13.28.07-.52.03-.54.52-.72-.34,4.08.46,8.82.03,12.8-.08.77-.23.73-.53,1.2Z" style="fill: #43993e;"/>
  <path d="M46.5,104c-.3-.46-.45-.42-.53-1.2-.41-3.83.36-8.38.03-12.3.47.5.46.45.53,1.2.36,3.89-.32,8.34-.03,12.3Z" style="fill: #43993e;"/>
  <path d="M89.5,30.5c.95.85-5.14,16.01-5.5,18.5,6.22-.21,10.47-6.24,11-12,2.41-.16,2.69.31,2.28,2.52-.96,5.15-5.16,9.69-9.94,11.57-1.23.48-3.93.72-4.6,1.4-.43.43-4.18,11.09-3.74,11.51,4.44-.15,9.06-1.85,12.27-4.98,1.38-1.35,3.48-6.45,5.26-4.28.85,1.03-1.19,3.48-2.04,4.5-3.99,4.84-9.89,7.39-16.18,7.32l-.57.43-3.24,9.51c3.51.26,5.95.05,8.96-1.79,1.46-.89,4.19-4.32,5.54-3.46,1.67,1.07-1.59,3.72-2.54,4.46-3.51,2.7-8.56,4.57-12.93,3.31-.62,1.34-2.13,8.84-3.76,8.48-2.9-.65,1.43-7.51,1.2-9.43-4.56-1.1-9.67-10.73-8.39-14.74.31-.97,1.67-1.24,2.18-.33.77,1.38.91,5.23,2.04,7.45,1.02,2,3.06,3.85,4.95,5.04.62-.04,3.22-8.32,3.28-9.73-.14-1.01-2.14-2-3.04-3-1.8-1.98-4.12-5.67-4.75-8.25-.38-1.59-1.33-8.96.51-9.51,2.71-.8,1.56,5.47,1.79,7.21.55,4.2,3.57,8.38,6.96,10.79-.02-3.07,4.41-10.01,3.26-12.49-.35-.75-2.18-2.15-2.94-3.56-1.58-2.92-2.13-6.35-1.75-9.64.15-1.32,1.26-6.18,2.7-6.33,3.31-.33.17,4.43-.12,6.41-.42,2.92.06,5.69,1.46,8.28.3.56,1.65,2.91,2.41,2.34l5.52-17.48,2.48-.02Z" style="fill: #68b558;"/>
  <path d="M64.42,82.08c.28.4,0,1.35.08,1.92-4.66.48-9.37-5.57-9.96-9.79-.13-.92-.38-4.98.72-5.21,2.11-.44,1.7,4.27,1.96,5.53.42,2.02,2.24,4.4,3.82,5.68.79.63,3.26,1.71,3.38,1.87Z" style="fill: #9aca88;"/>
  <path d="M42,87.5c-6.9.4-12.74-4.96-13.99-11.48,3.43-1.8,3.24,2.57,5.22,4.99.8.97,2.19,2.12,3.31,2.69,2.34,1.19,6.11.65,5.45,3.8Z" style="fill: #9aca88;"/>
  <path d="M46.5,47.5c.46-5.5-.61-11.93-.03-17.3.08-.78.25-.74.53-1.2-.24,5.51.33,11.27,0,16.75-.04.61.3,1.72-.5,1.75Z" style="fill: #43993e;"/>
  <path d="M46.5,51c1.37,2.31.02,9,.5,12-.86.35-1.19-.4-1.5-.5,1.52.28.96-.76,1-1.73.13-3.25-.09-6.53,0-9.77Z" style="fill: #43993e;"/>
</svg>