<?xml version="1.0" encoding="UTF-8"?>
<svg id="uuid-7042a1f3-e608-4bff-92cd-4d00c635d29d" data-name="fill_greenbean" xmlns="http://www.w3.org/2000/svg" xmlns:xlink="http://www.w3.org/1999/xlink" viewBox="0 0 128 128">
  <defs>
    <linearGradient id="uuid-25cedbbf-e9fb-4da5-bac1-0ce0c1a4a7fc" x1="-5914.39" y1="205.6" x2="-5726.44" y2="386.69" gradientTransform="translate(2960 -74) scale(.5)" gradientUnits="userSpaceOnUse">
      <stop offset="0" stop-color="#91c25b"/>
      <stop offset="1" stop-color="#6eb32b"/>
    </linearGradient>
    <linearGradient id="uuid-239e5098-94a5-4c13-a945-50fc630a1e60" x1="-5807.15" y1="174.33" x2="-5715.76" y2="385.4" gradientTransform="translate(2960 -74) scale(.5)" gradientUnits="userSpaceOnUse">
      <stop offset="0" stop-color="#6fb32b"/>
      <stop offset="1" stop-color="#508424"/>
    </linearGradient>
  </defs>
  <path d="M67.5,83.5l-5.41-6.33c-4.77-5.42-4.05-12.53-5.93-18.57-1.05-3.36-3.71-6.05-4.88-9.62-2.55-7.77-.42-10.27.23-17.23.28-2.99-.69-5.6-.49-8.5.38-5.6,3.59-11.56,8.04-14.96,9.83-7.51,8.16,3.13,9.57,9.84,8.24,38.95,18.43,61.06,47.37,88.63,4.78,4.55,11.14,6.88.77,10.75-3.95,1.47-7.31,2.07-11.53,2.01-.99-.01-2.04-.57-2.88-.44s-4.37,2.43-6.08,2.94c-5.64,1.7-11.51,1.42-16.79-1.25-2.47-1.25-4.31-3.42-6.98-4.52-5.14-2.11-9.55-1.57-15.15-4.85-7.24-4.24-8.03-8.54-12.64-14.36-2.8-3.54-8.33-5.26-11.95-8.55-6.02-5.48-6.68-10.27-10.25-16.75-2.37-4.31-7.46-7.24-10.11-12.39-3.19-6.21-2.19-9.73-3.04-15.96-.43-3.19-2.46-6.51-3.15-9.85-1.28-6.24-.04-11.75,3.58-16.97,1.65-2.38,5.82-8.07,8.41-4.02,11.73,23.28,25.89,54.32,47.26,70.24.69.51.99.95,2.02.73ZM64.5,8.5c-5.73,2.06-10.03,7.57-10.52,13.73-.25,3.16.72,6.17.52,9.01-.32,4.55-2.04,7.51-1.5,13,.61,6.24,5.37,9.83,6.38,15.12,1.5,7.81,1.08,11.74,6.63,18.37,1.61,1.92,4.02,3.53,5.31,5.69,1.02,1.71,1.44,4.86,2.32,5.93,1.07,1.3,7.97,5.59,9.9,6.85,8.1,5.3,16.7,9.72,25.24,14.25,2.38,2.99-1.45,4.25-2.78,6.53,4.84.04,9.19-1.55,13.5-3.5-10.79-9.63-21.01-20-29.41-31.84-15.35-21.62-21.32-47.31-25.59-73.16ZM64.84,85.67c-9.18-7.65-15.83-14.71-22.74-24.51-10.41-14.75-18.3-31.04-26.34-47.15-5.42,4.66-8.17,10.96-7.21,18.2.43,3.25,2.88,6.79,3.33,10.17.99,7.37-.35,10.86,4.22,17.78,2.39,3.62,6.36,5.97,8.33,9.17,4.17,6.79,4.14,12.32,11.34,18.16,3.48,2.82,8.09,3.94,10.95,7.55,4.2,5.3,5.43,10.08,11.92,14.08,5.32,3.27,9.79,2.56,14.87,4.63,3.03,1.24,5.23,3.85,8.33,5.17,7.71,3.29,14.84,1.18,21.34-3.52.72-.52,3.53-2.31,3.34-3.15-5.09-2.75-10.33-5.26-15.34-8.17-9.32-5.4-18.23-11.67-26.33-18.42ZM69,85.5c.36-.7-.32-1.33-.49-1-.36.7.32,1.33.49,1Z" style="fill: #0a0d0b;"/>
  <path d="M64.84,85.67c8.1,6.76,17.01,13.02,26.33,18.42,5.01,2.9,10.25,5.42,15.34,8.17.19.84-2.62,2.63-3.34,3.15-6.49,4.7-13.62,6.8-21.34,3.52-3.1-1.32-5.3-3.94-8.33-5.17-5.08-2.07-9.55-1.36-14.87-4.63-6.5-4-7.73-8.77-11.92-14.08-2.86-3.61-7.46-4.73-10.95-7.55-7.2-5.84-7.17-11.37-11.34-18.16-1.97-3.2-5.94-5.56-8.33-9.17-4.57-6.92-3.22-10.41-4.22-17.78-.46-3.38-2.9-6.91-3.33-10.17-.96-7.24,1.79-13.54,7.21-18.2,8.04,16.11,15.93,32.4,26.34,47.15,6.91,9.8,13.57,16.85,22.74,24.51Z" style="fill: url(#uuid-25cedbbf-e9fb-4da5-bac1-0ce0c1a4a7fc);"/>
  <path d="M64.5,8.5c4.28,25.85,10.25,51.54,25.59,73.16,8.4,11.84,18.62,22.2,29.41,31.84-4.3,1.95-8.66,3.54-13.5,3.5,1.34-2.28,5.16-3.55,2.78-6.53-8.54-4.53-17.14-8.96-25.24-14.25-1.92-1.26-8.83-5.55-9.9-6.85-.88-1.07-1.3-4.22-2.32-5.93-1.29-2.16-3.7-3.77-5.31-5.69-5.55-6.64-5.12-10.56-6.63-18.37-1.02-5.28-5.77-8.87-6.38-15.12-.54-5.49,1.18-8.45,1.5-13,.2-2.85-.77-5.86-.52-9.01.49-6.16,4.79-11.68,10.52-13.73Z" style="fill: url(#uuid-239e5098-94a5-4c13-a945-50fc630a1e60);"/>
  <path d="M55.63,102.25c.82-.13,1.72.81,2.35,1.36,3.68,4.06,9.03,4.77,14.1,5.51,2.42.41,3.62,2.23.5,2.66-4.86.32-11.95-1.81-15.85-5.24-1.02-.89-2.76-3.24-1.23-4.27l.12-.03Z" style="fill: #c8de9f;"/>
  <path d="M33.48,76.42c.74.75,1.1,2.06,1.61,3.04,1.8,3.96,5.62,6.01,9.31,7.74,1.45.71,2.14,2.55.02,2.61-5.09-.76-10.89-5.82-12.81-10.7-.55-1.26.08-3.97,1.77-2.78l.11.1Z" style="fill: #c8de9f;"/>
  <path d="M12.62,23.66c.18.2.26.52.28.88-.06,1.83-.31,3.69-.17,5.53.11,1.81.48,3.63,1.47,5.44.47,1,1.24,2.06,1.28,3.15-.18,2.55-2.68.77-3.26-.61-1.74-3.17-2.56-7.84-2.27-11.37.02-1.36.9-3.99,2.59-3.12l.09.09Z" style="fill: #c8de9f;"/>
  <path d="M15.8,52.47c.74-.12,1.4.5,1.77,1.11,1.11,2.29,2.09,5.55,4.62,7.12,1.11.86,3.64,2.62,1.54,3.72-2.71.4-6.02-3.92-7.31-6.37-.91-1.86-2.3-4.86-.74-5.55l.13-.03Z" style="fill: #c8de9f;"/>
  <path d="M73.33,78.17c.34.55.22,1.24-.31,1.59-2.07,1.15-6.91-3.63-7.97-6-1.17-2.32-2.85-6.79-1.77-8.01,1.37-1.17,2.44,1.43,2.76,2.58.79,3.36,2.59,6.45,5.58,8.35.59.39,1.26.81,1.63,1.36l.08.12Z" style="fill: #c8de9f;"/>
  <path d="M56.35,33.89c2.4.46.1,7.41.95,9.19.17,2.01,1.6,3.52,1.98,5.38.07.94-1.01,1.78-1.86,1.27-3.73-2.4-3.95-15.32-1.17-15.83h.1Z" style="fill: #c8de9f;"/>
  <path d="M59.08,14.96c3.62-.24-1.7,6.25-.91,8.5,0,1.28.5,3.95-1.3,4.02-3.2-.68-.87-11.55,2.07-12.49l.14-.03Z" style="fill: #c8de9f;"/>
</svg>