<?xml version="1.0" encoding="UTF-8"?>
<svg id="fill_forage_mixing" xmlns="http://www.w3.org/2000/svg" viewBox="0 0 128 128">
  <path d="M70.68,113.15c-8.07,4.43-16.12,2.51-19.92-9.64-2-2.09-3.57-3.73-5.38-5.62-3.3,0-7.1.05-10.91-.03-1.41-.03-2.83-.3-4.23-.55-7-1.23-9.62-5.26-8.04-12.13-.61-1.66-1.35-3.2-1.74-4.82-.39-1.63-.44-3.33-.66-5.16-.07-.05-.26-.26-.49-.33-3.85-1.25-6.67-3.58-7.14-7.78-.46-4.1,1.86-6.92,5.07-9.05,1.69-1.12,3.52-2.02,5.55-3.16-.44-6.83,1.63-12.96,7.12-17.82-1.76-2.37-3.55-4.56-5.08-6.92-2.62-4.05-2.6-7.53-.19-10.65,2.37-3.07,5.8-3.87,10.41-2.45.58.18,1.16.35,1.71.52,5.81-8.84,11.7-9.85,16.68-3.15,4.71,1.24,8.86-.48,13.07-1.86,4.98-1.64,9.6-.89,14.06,1.86,2.46,1.52,5.19,2.61,7.75,3.98,1.31.7,2.53,1.58,3.89,2.45,7.32-2.83,13.4-.51,14.55,9.53,8.41,3.73,11.7,11.9,6.9,19.72-3.67,5.99-5.07,12.32-6.34,18.96-.86,4.51-2.62,8.84-3.76,13.3-.61,2.38-.83,4.88-1.09,7.34-.7,6.74-5.48,12.23-11.72,13.06-.28,2.37-.6,4.81-.86,7.26-.68,6.3-6.13,9.6-11.99,7.07-2.43-1.05-4.68-2.53-7.23-3.94Z" style="fill: #4a3726; stroke-width: 0px;"/>
  <path d="M91.33,95.24c-2.96-5.47-6.16-6.86-11.75-4.66-3.71,1.46-7.3,3.32-10.72,5.37-3.73,2.24-4.41,5.56-2.92,11.33-2.86,1.86-5.34,1.07-6.97-2.28-.62-1.28-.99-2.7-1.72-3.91-1.1-1.84-2.41-3.55-3.81-5.57,1.91-1.03,4.15-2.35,6.48-3.47,2.79-1.35,4.27-3.74,4.39-6.55.18-4.07.11-8.23-.58-12.23-.99-5.8-8.71-8.33-13.35-4.54-6.07,4.98-12.79,8.68-20.3,10.94-.66.2-1.35.35-2.55.65-.27-1.78-.5-3.33-.73-4.88.3.15.6.3.91.45,2.63-2.27,5.79-4.16,7.8-6.89,5.3-7.19,2.93-13.27-5.6-15.49-.59-4.98,1.19-8.8,5.51-11.63,2.45,1.89,5.1,3.78,7.57,5.9,2.19,1.87,4.53,2.33,7.18,1.45,2.77-.92,4.26-3.04,4.51-5.78.53-5.74.84-11.51,1.14-17.27.07-1.3-.26-2.62-.36-3.61,5.17-1.35,10.13-3,15.23-3.81,2.09-.33,4.59.91,6.7,1.88,2.77,1.28,5.34,3,8.15,4.62-3.72,2.96-5.89,6.96-5.11,12.17.67,4.48,3.45,7.6,7.01,9.95,3.61,2.38,7.84,3.02,11.23.13,2.93-2.49,4.96-6.02,7.61-9.36,1.75.89,2.81,2.83,2.55,5.47-.08.87-.23,1.9-.74,2.53-5.42,6.68-6.41,14.81-7.74,22.87-.45,2.69-1.07,5.45-2.17,7.93-1.78,3.99-2.3,8.15-2.67,12.4-.23,2.65-1.45,4.69-4.17,5.87Z" style="fill: #876f47; stroke-width: 0px;"/>
  <path d="M55.92,73.5c3.18,3.7.59,8.11,1.86,12.06-9.22,5.77-18.72,6.79-28.65,4.54-1.02-1.83-.46-3.01,1.05-3.41,9.09-2.4,17.1-6.8,24.32-12.73.19-.16.5-.17,1.42-.45Z" style="fill: #589058; stroke-width: 0px;"/>
  <path d="M29.47,24.18q2.29-.98,11.47,2.8c1.59-3.3,1.63-7.41,5.11-10.48.72,1.04,1.48,1.75,1.75,2.62,1.8,5.74,1.24,11.63.85,17.48-.13,1.98-.58,3.93-.95,6.39-7.19-5.65-14.24-10.59-18.24-18.81Z" style="fill: #589058; stroke-width: 0px;"/>
  <path d="M98.52,26.78c2.12,4.01.55,12.32-2.92,14.81-.95.68-2.78.91-3.86.48-5.7-2.29-6.49-8.51-1.45-11.9,2.45-1.65,4.78-4.16,8.23-3.39Z" style="fill: #6f814f; stroke-width: 0px;"/>
  <path d="M82.59,111.21c-6.04-1.5-10.45-5.48-10.62-9.52,3.84-1.91,7.86-3.9,11.87-5.89.28.27.56.53.84.8-.69,4.81-1.38,9.61-2.1,14.62Z" style="fill: #6f814f; stroke-width: 0px;"/>
  <path d="M19.07,66.38c1.26-3.33,7.98-6.51,11.76-5.57.83,2.87-.48,5.51-3.51,7.07-3.17,1.64-6.28,1.07-8.25-1.51Z" style="fill: #6f814f; stroke-width: 0px;"/>
  <path d="M59.55,50.07c-.15-3.11.93-6.61,5.03-8.42,3.73-1.64,7.77.11,9.91,3.88,2.32,4.07,4.4,8.43,7.44,11.91,2.55,2.92,6.18,5.05,9.63,6.99,5.6,3.15,5.6,6.13,4.78,10.05-.76,3.65-5.11,5.94-9.56,5.6-9.11-.69-16.49-4.5-21.86-12.01-3.63-5.08-5.33-10.77-5.37-18.01Z" style="fill: #4a3726; stroke-width: 0px;"/>
  <path d="M90.22,72.46c-.97.25-1.93.69-2.9.71-10.01.22-19.51-8.12-20.73-18.2-.27-2.25-.23-4.54-.33-6.82.44-.13.88-.26,1.32-.39.62.92,1.38,1.77,1.82,2.77,3.24,7.24,8.04,13.14,14.78,17.4,1.94,1.22,3.96,2.31,5.94,3.47l.09,1.07Z" style="fill: #589058; stroke-width: 0px;"/>
</svg>