<?xml version="1.0" encoding="UTF-8"?>
<svg id="uuid-216dd821-40e6-4527-bd1e-ec41b96560eb" data-name="fill_soupcanpotato" xmlns="http://www.w3.org/2000/svg" xmlns:xlink="http://www.w3.org/1999/xlink" viewBox="0 0 128 128">
  <defs>
    <linearGradient id="uuid-3ddffdc0-d587-4401-9431-1be466a4994c" x1="-1987.4" y1="-592.44" x2="-1887.41" y2="-592.17" gradientTransform="translate(1036 370) scale(.5)" gradientUnits="userSpaceOnUse">
      <stop offset="0" stop-color="#f8b571"/>
      <stop offset=".5" stop-color="#f9c59f"/>
      <stop offset="1" stop-color="#f6a95f"/>
    </linearGradient>
    <linearGradient id="uuid-d75264c0-d322-46b2-920c-3b6a9fc7ff91" x1="-1949.36" y1="-638.18" x2="-1925.38" y2="-548.32" gradientTransform="translate(1036 370) scale(.5)" gradientUnits="userSpaceOnUse">
      <stop offset="0" stop-color="#a2887b"/>
      <stop offset="1" stop-color="#83685b"/>
    </linearGradient>
  </defs>
  <path d="M64.39,16.64c8.22-.48,27.03,1.26,31.83,8.88.45.71.81,1.33.79,2.21l-.11,77.41c-1.2,5.32-11.66,8.63-16.38,9.62-9.83,2.06-31.36,1.79-38.97-5.57-3.39-3.28-2.24-4.86-2.55-8.95-1.67-22.22-.02-46.03.03-68.52,0-1.96-.75-2.5.11-4.85,2.76-7.49,18.27-9.83,25.26-10.24Z" style="fill: #0c0d0d;"/>
  <path d="M93.5,35l.6-.12c.13,22.88.09,46.09-.1,69.62-.3,2.67-3.46,4.1-5.66,5.09-10.65,4.78-33.32,5.09-43.3-1.38-.9-.58-3.54-2.43-3.54-3.46V34.5c11.08,6.88,26.48,7.81,39.11,5.36,3.92-.76,9.61-2.62,12.89-4.86Z" style="fill: url(#uuid-3ddffdc0-d587-4401-9431-1be466a4994c);"/>
  <path d="M61.73,19.48c7.03-.41,18.77.11,25.27,2.78,1.11.45,5.94,3.36,6.52,4.11,4.33,5.61-7.15,9.44-11.01,10.39-9.6,2.36-21.52,2.29-31.01-.5-3.35-.99-10.87-3.99-9.91-8.39.79-3.64,12.02-6.8,12.02-6.8-.54-.39,6.73-1.5,8.12-1.59Z" style="fill: #a9aaaa;"/>
  <path d="M57.71,21.11c2.41.1,4.46,2,.74,2.89-2.53.51-5.62,1.07-8.08,2.14-.6.22-1.2.43-1.8.55-2.04.44-2.76-.63-1.29-1.79,1.73-1.25,4.33-2.06,6.34-2.91,1.58-.62,2.75-.91,3.92-.88h.17Z" style="fill: #d0d1d1;"/>
  <path d="M94,104.5c-.2-22.24.27-44.51,0-66.76,0-.84.33-2.24-.51-2.74.15-.1.69-1.49,1-.75l-.5,70.25Z" style="fill: #f7b77a;"/>
  <path d="M56.18,96.32c-8.47-5.85-11.61-24.93-9.44-34.33,2.8-12.12,13.63-18.38,25.21-12.18,4.94,2.65,14.73,15.26,16.31,20.69,2.85,9.83,2.24,23.91-8.76,28.25-6.57,2.59-17.45,1.62-23.32-2.43Z" style="fill: #10100f;"/>
  <path d="M90.85,25.65c1.51,1.64,1.29,4.19-.47,5.53-2.78,2.11-9.66,2.03-12.15-.65-5.74-6.18,9.09-8.71,12.62-4.87Z" style="fill: #0c0d0d;"/>
  <path d="M58.86,50.61c3.08-.64,9.06-.17,11.82,1.46,2.53,1.5,11.81,12.45,13.26,15.24,4.18,8,5.23,24.03-4.44,28.44-7.51,3.42-19.45,2-24.71-4.79-4.52-5.83-6.47-18.94-5.73-26.15.49-4.8,4.67-13.13,9.8-14.2Z" style="fill: url(#uuid-d75264c0-d322-46b2-920c-3b6a9fc7ff91);"/>
  <path d="M82.37,26.62c9.88-1.73,7.54,5.67-.78,3.04-2.87-.91-1.73-2.6.78-3.04Z" style="fill: #6c6c6b;"/>
  <path d="M79.62,73.62c1.52-1.53,4.33.25,3.68,2.39-1.11,3.64-6.32.29-3.68-2.39Z" style="fill: #624e45;"/>
</svg>