<?xml version="1.0" encoding="UTF-8"?>
<svg id="uuid-768cdb7f-e4d3-4ebd-a82b-0758627d0bca" data-name="fill_preservedfoodparsnip" xmlns="http://www.w3.org/2000/svg" xmlns:xlink="http://www.w3.org/1999/xlink" viewBox="0 0 128 128">
  <defs>
    <linearGradient id="uuid-57a472e5-73c7-430f-acf7-6a53cb74c4cc" x1="64.23" y1="28.5" x2="64.23" y2="120.5" gradientUnits="userSpaceOnUse">
      <stop offset="0" stop-color="#eeeff4"/>
      <stop offset="1" stop-color="#c0c1d2"/>
    </linearGradient>
    <linearGradient id="uuid-5abe68b6-1063-454f-8367-2efb4b68f645" x1="243.6" y1="-1331.14" x2="306.5" y2="-1276.98" gradientTransform="translate(-74 666) scale(.5)" gradientUnits="userSpaceOnUse">
      <stop offset="0" stop-color="#af946b"/>
      <stop offset="1" stop-color="#ccb08f"/>
    </linearGradient>
    <linearGradient id="uuid-23a53a76-2b8e-4f85-a87b-2bb5511f26e8" x1="265.78" y1="-1312.09" x2="287.42" y2="-1265.91" gradientTransform="translate(-74 666) scale(.5)" gradientUnits="userSpaceOnUse">
      <stop offset="0" stop-color="#e1d8cb"/>
      <stop offset="1" stop-color="#ccb391"/>
    </linearGradient>
    <linearGradient id="uuid-551b0317-6a3a-4651-9a1b-6548add5fe05" x1="251.67" y1="-1221.26" x2="302.15" y2="-1105.81" gradientTransform="translate(-74 666) scale(.5)" gradientUnits="userSpaceOnUse">
      <stop offset="0" stop-color="#e4ddd3"/>
      <stop offset="1" stop-color="#cbb08e"/>
    </linearGradient>
    <linearGradient id="uuid-a02e1ad8-13f8-4860-8b03-e09c4fc875be" x1="243.51" y1="-1246.73" x2="308.2" y2="-1191.59" gradientTransform="translate(-74 666) scale(.5)" gradientUnits="userSpaceOnUse">
      <stop offset="0" stop-color="#af946b"/>
      <stop offset="1" stop-color="#cbb08f"/>
    </linearGradient>
  </defs>
  <path d="M54.39,5.14c9.16-.67,32.67-.51,39.78,5.43,3.03,2.54,2.79,8.85,2.29,12.63-.34,2.54-2.02,2.99-2.36,4.14-2.43,8.09,9.56,13.94,9.91,21.9v60.02c-.47,4.2-5.64,7.3-9.16,8.83-15.62,6.77-45.97,6.84-61.52-.16-3.58-1.61-7.31-3.95-8.71-7.79l-.12-60.89c.2-7.65,12.55-14.24,9.93-21.92-.31-.92-2.06-.86-2.39-3.1-.23-1.59-.3-10.12.07-11.37,1.48-4.98,17.72-7.37,22.3-7.7Z" style="fill: #040404;"/>
  <path d="M101.5,72.5c-.03-6.4.99-19.09-.64-24.61-2.01-6.81-11.15-11.31-9.86-19.39-12.14,4.13-25.07,3.54-37.75,3.5l-15.75-3c-.09,9.46-9.46,12.74-10.44,22.31-1.09,10.56-.11,24.74-.06,35.69.03,7.37-.11,14.77.1,22.15,2.38,4.73,7.97,6.82,12.79,8.21,14.62,4.2,34.54,4.22,49.11-.11,4.44-1.32,12.1-4.18,12.52-9.48.86-10.82.04-24.18-.02-35.27ZM96.41,106.98c-7.1,6.98-21.78,7.77-31.45,7.82-5.11.03-29.66-1.05-32.49-7.41-.89-6.28-1.05-12.69-.47-19.24l-1-1.15c1.03-10.12,1.39-20.29,1.08-30.51.11-5.82,25.42-6.95,29.72-7,10.87-.15,25.46-.07,34.33,6.12.05,5.79.5,11.59,1.37,17.39-1.04,11.27-1.41,22.6-1.09,33.98Z" style="fill: url(#uuid-57a472e5-73c7-430f-acf7-6a53cb74c4cc);"/>
  <path d="M59.39,7.64c7.73-.39,26.12.55,32.45,4.76,2.73,1.82,1.73,2.99-.82,4.37-10.63,5.73-42.11,5.57-53.03.48-2.85-1.33-4.77-2.4-1.75-4.75,4.29-3.34,17.56-4.57,23.14-4.86Z" style="fill: url(#uuid-5abe68b6-1063-454f-8367-2efb4b68f645);"/>
  <path d="M56.5,23.5c4.28.67,9.22.64,13.5,0,8.01-.24,16.28-1.31,23.5-5,1.15,6.58-2.04,7.33-7.49,8.76-11.7,3.08-37.45,3.42-48.5-1.52-3.9-1.74-3.3-3.16-2.75-7.25,6.56,3.77,14.26,4.7,21.75,5Z" style="fill: url(#uuid-23a53a76-2b8e-4f85-a87b-2bb5511f26e8);"/>
  <path d="M70,23.5c-.51.83-1.9.5-2.74.51-2.67.03-5.34.03-8.01,0-.84,0-2.24.33-2.74-.51,4.32.18,9.16.13,13.5,0Z" style="fill: #d6c4ad;"/>
  <path d="M97.5,73c.06,11.37.06,22.76-.12,34.13-.93,3.6-9.94,5.97-13.29,6.71-11.37,2.54-25.75,2.51-37.2.51-4.67-.81-15.1-2.56-15.85-8.15s-.02-13.46-.04-19.21c-.05-10.21-.05-20.44.1-30.65.33-1.48,1.89-2.64,3.13-3.37,10.03-5.85,39.39-5.08,50.87-2.84,3.11.61,11.76,2.52,12.39,6.11.04,5.58-.02,11.17,0,16.74Z" style="fill: #080807;"/>
  <path d="M94.5,61c.62,8.29.46,17.22,0,25.5.44,6.28.71,13.47,0,20-1.15,2.14-6.58,3.63-8.99,4.26-11.22,2.89-25.19,2.97-36.6,1.09-2.55-.42-14.33-2.92-14.9-5.35v-45.5c4.28,1.7,8.74,2.79,13.31,3.44,12.42,1.74,29.24,1.63,41.4-1.47,1.22-.31,5.25-2.03,5.79-1.96Z" style="fill: url(#uuid-551b0317-6a3a-4651-9a1b-6548add5fe05);"/>
  <path d="M94.48,56.02c1.16,1.67-3.07,3.26-4.09,3.62-11.71,4.09-40.58,4.12-52.28,0-1.49-.53-3.14-1.09-4.09-2.44-.39-1.85,6.54-3.62,7.97-3.96,12.84-2.99,33.35-3.03,46.11.4.87.23,6.18,2.1,6.37,2.38Z" style="fill: url(#uuid-a02e1ad8-13f8-4860-8b03-e09c4fc875be);"/>
  <path d="M39,69c.69,6.91.59,14.07,0,21-1.2,1.92-1.83,1.19-2.5-.5-.67-6.58-.59-13.41,0-20,.67-1.69,1.3-2.42,2.5-.5Z" style="fill: #efeff4;"/>
  <path d="M39,95.5v8.75c0,.94-2.5.94-2.5,0v-8c0-.66,1.84-.91,2.5-.75Z" style="fill: #efeff4;"/>
</svg>