<?xml version="1.0" encoding="UTF-8"?>
<svg id="fill_butter" xmlns="http://www.w3.org/2000/svg" viewBox="0 0 128 128">
  <path d="M17.37,56.96c-2.8-10.83-15.11-27.21.52-33.55,16.7-6.14,33.6-11.81,50.1-18.43,11.84-4.75,18.3-.85,21.45,10.03,2.48,9.55,7.51,17.81,9.01,27.7,6.39,4.3,5.22,13.29,8.98,18.8,2.76,13.35,20.84,35.31,1.93,43.27-82.73,29.23-62.25,36.95-92-47.83Z" style="fill: #4a3726; stroke-width: 0px;"/>
  <path d="M30.1,71.64c23.71.34,46.13-4.63,68.84-10.21,18.5,48.83,17.83,28.52-45.62,55.47-4.5,1.66-6.64.87-8.19-3.37-4.99-14.09-10.4-27.63-15.02-41.89Z" style="fill: #4883af; stroke-width: 0px;"/>
  <path d="M86.9,42.16l-2.94,1.84c-1.25.78-2.81.87-4.14.24l-5.1-2.41c-1.55-.74-3.45-.45-4.75.76l-3.04,2.83c-1.29,1.2-3.24,1.45-4.86.64-5.42-2.71-8.36-1.85-14.61-.15-.55.15-1.13.17-1.7.11-7.1-.73-11.59,4.57-17.92,5.59-2.07.33-4.04-.87-4.77-2.84-2.33-6.29-8.48-14.79-2.35-18.03,18.13-6.59,36.23-13.23,54.35-19.83,6.74-2.54,10.3,17.13,13.6,26.07.71,1.93-.02,4.08-1.76,5.17Z" style="fill: #d3cb8c; stroke-width: 0px;"/>
  <path d="M83.62,53.28c4.06-2.84,9.55-6.51,11.89-1.84.62,1.24-.09,2.75-1.43,3.11-21.45,5.74-42.97,9.47-65.22,9.6-.91,0-1.73-.56-2.08-1.4,0-.01-.01-.03-.02-.04-.57-1.41.43-2.95,1.95-3.03,6.87-.33,11.4-6.76,19.42-6.16.31.02.63-.02.93-.13,5.68-2.1,10.33-.28,15.58,2.6.83.46,1.87.32,2.56-.33l5.2-4.87c.64-.6,1.6-.76,2.42-.38,2.19,1.01,4.39,2.02,6.61,3.05.71.33,1.55.26,2.19-.19Z" style="fill: #aecace; stroke-width: 0px;"/>
</svg>