<?xml version="1.0" encoding="UTF-8"?>
<svg id="uuid-e545d5bd-bbe0-493f-b4d3-629f72c96904" data-name="fill_water" xmlns="http://www.w3.org/2000/svg" viewBox="0 0 128 128">
  <path d="M113.95,91.09c-1.62,51.6-77.3,42.67-66.35-7.44,5.49-18.14,14.95-34.98,22.23-52.47,3.59-10.4,18.13-10.23,20.94.41,4.94,19.33,23.29,40.47,23.18,59.51Z" style="fill: #4a3726; stroke-width: 0px;"/>
  <path d="M58.51,43.35c-.15,30.3-45.46,30.28-44.43-.14,1.63-11.89,8.2-22.79,12.84-33.76,2.06-4.73,5.32-7.31,9.61-7.2,4.3.12,7.4,3.02,9.32,7.63,4.8,10.97,12.93,33.39,12.66,33.47Z" style="fill: #4a3726; stroke-width: 0px;"/>
  <path d="M80.55,32.36c1.31,0-1.26,0,0,0,6.75,18.32,19.14,34.72,24.71,53.46,5.38,23.43-22.79,42.75-41.39,26.4-14.8-10.81-8.95-29.04-2.34-42.88,5.51-12.6,13.18-24.52,19.02-36.98Z" style="fill: #7ecde7; stroke-width: 0px;"/>
  <path d="M35.91,9.49c5.54,7.83,8.11,16.78,12.43,25.27,6.56,10.69-3.52,27.4-16.11,22.92-22.36-8.86-1.36-33.77,3.69-48.19Z" style="fill: #4883af; stroke-width: 0px;"/>
</svg>