<?xml version="1.0" encoding="UTF-8"?>
<svg id="uuid-53e21de9-92bf-43d4-a672-a5ce6db36bf4" data-name="fill_chair" xmlns="http://www.w3.org/2000/svg" xmlns:xlink="http://www.w3.org/1999/xlink" viewBox="0 0 128 128">
  <defs>
    <linearGradient id="uuid-d2dc1118-7e4f-4e1b-87e3-452c79b2e72e" x1="572" y1="-1073.01" x2="572" y2="-1040.01" gradientTransform="translate(-222 592) scale(.5)" gradientUnits="userSpaceOnUse">
      <stop offset="0" stop-color="#a87533"/>
      <stop offset="1" stop-color="#d0a673"/>
    </linearGradient>
    <linearGradient id="uuid-3a4d96ac-0796-4634-afa0-f42d77e2836c" x1="572.01" y1="-1164.95" x2="571.99" y2="-1123.95" gradientTransform="translate(-222 592) scale(.5)" gradientUnits="userSpaceOnUse">
      <stop offset="0" stop-color="#d3a978"/>
      <stop offset="1" stop-color="#ab7938"/>
    </linearGradient>
    <linearGradient id="uuid-9e767a26-64a1-4c7c-9ab9-9e8a84b47839" x1="516.9" y1="-1172.97" x2="514.42" y2="-1084.01" gradientTransform="translate(-222 592) scale(.5)" gradientUnits="userSpaceOnUse">
      <stop offset="0" stop-color="#d3a977"/>
      <stop offset=".39" stop-color="#d3a977"/>
      <stop offset="1" stop-color="#a97736"/>
    </linearGradient>
  </defs>
  <path d="M41,101.25c-.29,1.66-2.28,3.64-3.89,4.13-.49.15-1.45.02-1.59.13-.5.4.22,10.78,0,12.75-.69,6.08-8.89,5.98-9.53.5-1.23-10.65.93-23.63.03-34.53-2.4-10.91,4.05-21.96,4.97-32.48,1.29-14.68-.97-31.1.03-45.97,1.48-5.31,8.51-5.17,9.78.25h46.39c1.39-5.82,9.34-5.49,9.83.7,1.14,14.43-1.28,30.64-.02,45.02.64,7.27,4.26,15.61,5.24,22.99l-.27,44.48c-.72,4.59-8.84,5.12-9.49-.46-.24-2.06.53-12.85.01-13.26-.17-.14-2.49.25-3.97-1.28-.41-.43-1.53-2.6-1.53-2.97v-17.75h-46v17.75ZM87,35h-46v16.5h46v-16.5Z" style="fill: #0d0e0d;"/>
  <path d="M94.5,54.5l4.5,19H29c.29-2.6,4.03-17.54,4.09-18.67l.41-.33h61Z" style="fill: url(#uuid-d2dc1118-7e4f-4e1b-87e3-452c79b2e72e);"/>
  <path d="M41,9h46v23h-46c.29-4.47.23-21.06,0-23Z" style="fill: url(#uuid-3a4d96ac-0796-4634-afa0-f42d77e2836c);"/>
  <rect x="28.5" y="76" width="71" height="4.5" style="fill: #c89b66;"/>
  <path d="M33.5,22.5c.03-5.38-.11-10.77.1-16.15,1.08-2.47,4.12-2.4,4.43.37l-.03,44.78c-1.16-.04-2.34.05-3.5,0l-.56-.48c-.37-4.05-.35-8.05.06-12.02,0-5.68-.17-11.18-.5-16.5Z" style="fill: url(#uuid-9e767a26-64a1-4c7c-9ab9-9e8a84b47839);"/>
  <path d="M94.5,36c-.01,5.16.01,10.34,0,15.5h-4.22s-.28-15.5-.28-15.5c.77-9.29-1.02-20.18-.02-29.27.34-3.19,4.19-3.15,4.52.51.79,8.69.02,19.8,0,28.76Z" style="fill: #b58448;"/>
  <path d="M32.5,118.75c-.39,2.15-3.7,1.56-3.99-.51-.01-6.75-.03-13.5-.01-20.24.01-4.83-.01-9.68,0-14.5h4.22s.28,14.5.28,14.5c-1.14,6.74-.19,13.88-.5,20.75Z" style="fill: #b58448;"/>
  <path d="M99.5,97.5v20.74c-.42,2.45-4.08,2.45-4.49,0-.01-6.91-.03-13.83-.01-20.74.01-4.66-.01-9.34,0-14h4.22s.28,14,.28,14Z" style="fill: #b58448;"/>
  <path d="M42.05,15.55c.42-1.84.57-5.1,2.95-5.27,2.28-.09,6.59-.33,8.06.28,1.74,1.08-1.16,2.43-2.37,2.37-1.52.19-3.4-.23-4.6.95-.89.89-.99,2.94-1.85,3.62-1.1.89-2.43-.55-2.2-1.81v-.14Z" style="fill: #fad6a7;"/>
  <path d="M33.27,58.29c.23-.53.5-1.03.84-1.45.7-.9,2.12-1.19,2.41-.6.3,1.99-.86,6.72-1.26,9.02-.24,1.35-1.17,3.42-2.74,2.6-1.87-1.22-.79-3.67-.46-5.54.3-1.35.65-2.68,1.13-3.85l.07-.18Z" style="fill: #fad6a7;"/>
  <path d="M92.5,103c-3.19,0-2.76-3.84-2.52-6.27.13-1.31.26-10.94.02-13.23h2.5c-.05,3.99.25,17.69,0,19.5Z" style="fill: #765b38;"/>
  <path d="M37.92,101.67c-.22.68-1.44,1.28-2.17,1.33-.55.01-.26-9.92-.25-11,.02-2.83-.01-5.68,0-8.5h2.21s.29,8.5.29,8.5c-.44,2.54.65,7.5-.08,9.67Z" style="fill: #6a4e28;"/>
  <path d="M34,39c-.14.44-.31.43-.5,0-.03-5.49-.03-11.01,0-16.5.83.51.5,1.9.51,2.74.05,4.58-.02,9.18,0,13.76Z" style="fill: #c89b66;"/>
  <path d="M34.5,51.5c-.33-.02-.67.02-1,0-.02-4.16.02-8.34,0-12.5h.5c0,4.08-.41,8.58.5,12.5Z" style="fill: #b58448;"/>
  <path d="M57.15,25.35c-.22-.29-1.05-2.67-1.12-3.13-1.32-8.91,9.63-13.35,14.69-6.19,4.86,6.88-3.36,15.66-10.9,11.4-.27-.15-2.57-1.94-2.67-2.08Z" style="fill: #0d0e0d;"/>
  <path d="M61.83,15.34c3.37-1.15,8.19,1.25,8.12,5.27-.15,3.58-4.15,5.86-7.48,5.25-5.39-.84-6.02-8.69-.83-10.46l.19-.06Z" style="fill: #46301e;"/>
</svg>