<?xml version="1.0" encoding="UTF-8"?>
<svg id="uuid-cdad03f5-8e13-4caf-9857-85a27aac37fd" data-name="fill_grape" xmlns="http://www.w3.org/2000/svg" viewBox="0 0 128 128">
  <path d="M68.83,111.48c-10.99.63-17.47-6.67-18.26-15.38-16.43,1.98-25.24-19.39-10.92-29.52-6.03-12.56-2.61-21.63,9.86-25.83-.6-1.49-1.2-2.98-1.83-4.53-7.87.89-16.38,5.87-23.96,1.82-8.36-5.08-5.47-18.43,4.26-19.56,14.73-2.05,28.28-7.18,40.75-15.27,4.29-2.78,9.33-2.47,13.02.62,11.22,10.79-4.82,20.38-14.11,24.57.54,1.61,1.07,3.21,1.6,4.78,12.97-1.78,19.71,2.67,21.91,14.53,16.64-2,25.05,20.7,10.75,29.77,5.42,9.04,4.28,15.68-4.04,23.63,14.94,23.68-25.47,38.23-29.03,10.38Z" style="fill: #4a3726; stroke-width: 0px;"/>
  <path d="M52.01,27.5c-8.34,1.46-17.57,6.57-25.69,4.03-.76-4.54.13-5.83,4.29-6.41,14.58-1.66,27.8-7.97,40.38-15.15,3.54-1.95,4.9-2.02,7.07.59,1.51,6.75-14.42,10.2-18.94,14.08-.1,4.78,5.44,8.81,1.74,13.76-7.14,1.89-6.19-6.32-8.86-10.9Z" style="fill: #6f5b47; stroke-width: 0px;"/>
  <path d="M52.55,65.67c-11.65-.02-11.67-18.18.04-18.02,11.86.23,11.64,17.8-.04,18.02Z" style="fill: #5f679e; stroke-width: 0px;"/>
  <path d="M57.35,80.24c-.23,12.12-17.91,11.5-18.01-.29.15-11.39,18.39-11.41,18.01.29Z" style="fill: #5f679e; stroke-width: 0px;"/>
  <path d="M93.4,72.85c-11.87.2-11.82-18.28-.01-18.06,11.61.42,11.57,17.71.01,18.06Z" style="fill: #5f679e; stroke-width: 0px;"/>
  <path d="M79.84,71.94c-.26,11.93-17.69,11.76-18.06.08-.01-11.64,18.2-11.71,18.06-.08Z" style="fill: #5f679e; stroke-width: 0px;"/>
  <path d="M85.26,101.99c11.62.06,11.41,18.1-.52,17.71-11.61.01-11.32-18.28.52-17.71Z" style="fill: #5f679e; stroke-width: 0px;"/>
  <path d="M75.54,95.78c.24,11.62-18.44,11.43-17.73-.52-.13-11.42,18.53-11.44,17.73.52Z" style="fill: #5f679e; stroke-width: 0px;"/>
  <path d="M89.04,96.07c-11.71.6-11.17-18.03-.07-17.67,11.72-.51,11.98,18.57.07,17.67Z" style="fill: #5f679e; stroke-width: 0px;"/>
  <path d="M83.81,48.41c.36,11.74-17.83,11.8-17.76.13-.3-12.19,18.52-11.39,17.76-.13Z" style="fill: #5f679e; stroke-width: 0px;"/>
</svg>