<?xml version="1.0" encoding="UTF-8"?>
<svg id="fill_spelt" xmlns="http://www.w3.org/2000/svg" viewBox="0 0 128 128">
  <path d="M37.2,85.34c-2.42-2.19-4.76-4.12-6.87-6.26-4.41-4.46-4.21-5.99,1.01-9.59-2.5-2.36-5.1-4.61-7.47-7.08-3.56-3.71-3.2-5.7,1.24-8.35.36-.21.71-.45.97-.61-2.99-3.62-6.07-7.07-8.82-10.77-2.88-3.87-2.09-6.16,2.52-7.87,6.11-2.26,12.41-2.81,18.71-1.72-.29-4.3-.97-8.48-.72-12.61.22-3.61,1.22-7.25,2.34-10.72,1.13-3.49,3.5-4.15,6.63-2.17,6.61,4.16,12.05,9.47,15.43,16.06,4.62-3.08,9.11-6.13,13.66-9.08.98-.63,2.17-1.01,3.3-1.34,3.9-1.13,5.87.07,6.13,4.13.3,4.71.23,9.45.32,14.26-.02,0,.19.14.36.1,7.05-1.53,8.41-.37,7.78,6.86-.24,2.79-.74,5.55-1.17,8.63.73-.08,1.42-.19,2.1-.23,3.53-.24,5.18,1.14,4.99,4.64-.21,3.76-.76,7.49-1.18,11.43.75-.07,1.56-.17,2.37-.2,3.16-.13,4.63,1.24,4.6,4.41-.12,13.05-5.12,27.84-22.96,33.09-.3.09-.57.29-1.27.65,1.49,4.1,3,8.23,4.5,12.37.41,1.12.84,2.23,1.19,3.37.66,2.17.09,3.94-2.07,4.81-2.31.92-4.09.01-4.97-2.25-1.57-4.04-3-8.13-4.49-12.2-.4-1.1-.8-2.2-1.21-3.32-3.49.88-6.66,2.01-9.93,2.44-12.98,1.7-22.5-4.52-30.41-13.92-1.83-2.18-.74-4.2,3.37-6.96ZM78.7,21.98c-10.37,4.2-16.71,15.5-15.21,26.34,1.24-1.08,2.32-1.86,3.22-2.81,2.51-2.66,4.97-5.36,7.4-8.09.77-.86,1.77-1.77,2.03-2.81.95-3.94,1.64-7.94,2.56-12.63ZM46.16,16.7c-3.12,9.76,1.19,20.89,9.47,24.89,1.03-4.68,2.76-9.29-.04-14.06-2.48-4.21-5.26-8.03-9.43-10.83ZM53.63,52.11c-5.9-9.5-19.47-14.49-27.77-10.58,1.11,1.25,2.1,2.5,3.23,3.61,3.31,3.22,6.75,5.72,11.94,5.07,2.77-.35,5.72.75,8.59,1.2,1.11.18,2.21.38,4,.69ZM69.16,96.95c-6.44-7.13-18.11-9.65-25.39-5.65,6.09,7.14,17.19,9.68,25.39,5.65ZM97.15,71.68c-9.19,3.13-15.98,12.18-15.69,20.68,8.17-1.33,15.53-10.92,15.69-20.68ZM69.86,60.57c5.99-1.41,17.79-13.13,15.46-20.56-9.09,3.17-15.75,12.03-15.46,20.56ZM91.79,55.71c-9.58,3.02-17.16,13.18-15.96,21.13,1.23-.55,2.59-.84,3.52-1.63,1.88-1.6,3.28-3.86,5.32-5.16,5.21-3.32,5.97-8.58,7.12-14.33ZM57.4,65.11c-5.42-6.85-17.62-9.54-25.17-5.54,5.43,6.46,18.83,9.42,25.17,5.54ZM37.84,75.32c5.78,6.57,19.44,9.49,25.34,5.6-5.77-6.8-16.42-9.21-25.34-5.6Z" style="fill: #4a3726; stroke-width: 0px;"/>
  <path d="M78.7,21.98c-.93,4.69-1.61,8.7-2.56,12.63-.25,1.04-1.25,1.94-2.03,2.81-2.43,2.73-4.89,5.43-7.4,8.09-.9.95-1.97,1.73-3.22,2.81-1.5-10.84,4.84-22.14,15.21-26.34Z" style="fill: #ad996e; stroke-width: 0px;"/>
  <path d="M46.16,16.7c4.17,2.81,6.96,6.63,9.43,10.83,2.8,4.77,1.07,9.38.04,14.06-8.28-4.01-12.59-15.13-9.47-24.89Z" style="fill: #ad996e; stroke-width: 0px;"/>
  <path d="M53.63,52.11c-1.79-.31-2.89-.51-4-.69-2.87-.45-5.82-1.55-8.59-1.2-5.19.65-8.63-1.85-11.94-5.07-1.14-1.11-2.13-2.36-3.23-3.61,8.3-3.91,21.87,1.08,27.77,10.58Z" style="fill: #ad996e; stroke-width: 0px;"/>
  <path d="M69.16,96.95c-8.2,4.03-19.3,1.49-25.39-5.65,7.28-4,18.96-1.48,25.39,5.65Z" style="fill: #ad996e; stroke-width: 0px;"/>
  <path d="M97.15,71.68c-.16,9.75-7.53,19.35-15.69,20.68-.29-8.5,6.5-17.55,15.69-20.68Z" style="fill: #ad996e; stroke-width: 0px;"/>
  <path d="M69.86,60.57c-.29-8.53,6.38-17.39,15.46-20.56,2.33,7.43-9.47,19.15-15.46,20.56Z" style="fill: #ad996e; stroke-width: 0px;"/>
  <path d="M91.79,55.71c-1.15,5.75-1.9,11.01-7.12,14.33-2.04,1.3-3.44,3.56-5.32,5.16-.93.79-2.29,1.09-3.52,1.63-1.2-7.95,6.38-18.11,15.96-21.13Z" style="fill: #ad996e; stroke-width: 0px;"/>
  <path d="M57.4,65.11c-6.33,3.87-19.74.92-25.17-5.54,7.55-4,19.74-1.31,25.17,5.54Z" style="fill: #ad996e; stroke-width: 0px;"/>
  <path d="M37.84,75.32c8.92-3.61,19.56-1.2,25.34,5.6-5.9,3.9-19.56.97-25.34-5.6Z" style="fill: #ad996e; stroke-width: 0px;"/>
</svg>