<?xml version="1.0" encoding="UTF-8"?>
<svg id="uuid-eb23f9fd-1d5c-4b40-9e96-1e60153d84e3" data-name="fill_roundbalegrass" xmlns="http://www.w3.org/2000/svg" xmlns:xlink="http://www.w3.org/1999/xlink" viewBox="0 0 128 128">
  <defs>
    <linearGradient id="uuid-eed87d14-60c8-4b0c-bcdc-5ee2ceb6d431" x1="688.87" y1="-612.08" x2="827.87" y2="-611.93" gradientTransform="translate(-296 370) scale(.5)" gradientUnits="userSpaceOnUse">
      <stop offset="0" stop-color="#396c43"/>
      <stop offset="1" stop-color="#4d965c"/>
    </linearGradient>
  </defs>
  <path d="M19.17,100.33c-.5-.55-6-10.33-6.42-11.33s-3.76-13.99-3.75-14.75c.03-3.87-.26-5.37-.51-8.98-.14-2.01.77-13.52,1.28-15.26.97-3.31,1.54-5.83,2.38-9.12.27-1.07,6.13-12.15,6.85-13.01s8.28-7.06,9.15-7.49c1.85-.91,3.84-.54,5.49-1.01.68-.19,1.18-.94,1.84-1.16,2.78-.92,4.52,1.27,7.28,1.32,1.42.03,2.62-.53,3.98-.56,11.82-.33,23.74.55,35.52.55,2.81,0,5.47-.67,8.52-.55,4.8.19,11.93,1.45,16.08,3.92,1.58.94,8.57,9.77,9.42,11.58,1.2,2.58,2.26,6.09,3.48,9.02,1.52,3.64.84,5.26,1.29,8.71.22,1.67,1.29,3.22,1.46,5.03.22,2.28.18,10.61.02,13.03-.15,2.16-1.24,3.66-1.48,5.52-.42,3.27.29,4.87-1.17,8.33-3.25,7.7-4.91,11.68-10.16,18.34-2.2,2.79-6.85,4.57-10.22,5.78-4.43,1.6-7.03.1-11.27.24-13.47.43-27.26-.5-40.5,0-2.79.11-9.28,1.95-11.25,1.3-2.41-.79-2.54-.82-5.17-1.33-3.41-.66-9.76-5.49-12.13-8.12Z" style="fill: #090d0c;"/>
  <path d="M45.5,106c1.45-2.69,4.86-3.91,6.72-6.02.55-.62,5.54-9.8,6.03-10.97.99-2.38.75-4.84,1.37-7.13,1.63-6.01,1.89-4.21,1.87-11.12,0-1.54.91-3.5,1.02-5.48.19-3.27-1.03-5.66-1.02-8.02,0-1.6.73-2.88.46-4.96-.19-1.47-2.98-11.42-3.56-12.93-.41-1.05-5.67-10.76-6.17-11.33-1.86-2.11-5.27-3.33-6.72-6.02,3.48-1.63,7.03.53,10.25.53,2.44,0,4.5-1.24,7.52-1.06,2.08.13,3.88,1.1,5.98,1.06s4.03-1.11,6.51-1.07c2.25.04,4.44,1.07,6.49,1.07,1.65,0,3.43-.82,5.06-.98,2.52-.24,8.65.59,11.33,1.05s7.89,2.67,9.38,5.12c1.95,3.21,3.1,3.93,4.98,6.52.39.53,4.77,11.41,4.88,12.12,1.18,7.14,2.53,16.2,2.14,23.37-.21,3.9-2.8,12.56-4.28,16.26-.85,2.13-1.04,4.63-1.97,6.53-1.02,2.09-3.33,3.24-4.51,4.99-.8,1.19-.99,2.74-2.05,3.95s-9.77,4.93-11.48,5.05c-2.49.17-4.73-1.05-6.99-1.05-1.92,0-3.8,1-5.98,1.06-2.72.08-5.22-1.02-7.52-1.03-1.79,0-3.9,1.01-5.99,1.04-2.46.03-4.87-1.01-7.03-1.05-1.88-.04-3.98.95-5.96,1.04-3.78.17-6.99-1.85-10.77-.53Z" style="fill: url(#uuid-eed87d14-60c8-4b0c-bcdc-5ee2ceb6d431);"/>
  <path d="M29.87,22.62c1.41-.37,10.3-.33,11.66.1,2.27,2.44,6.43,4.73,8.49,7.01.41.45,5.58,9.82,5.87,10.63.8,2.2.6,4.54,1.24,6.76,3.97,13.76,2.81,26.05-.98,39.8-.63,2.29-2.28,3.41-3.26,5.24-.92,1.71-1.18,3.97-2.39,5.61-.32.43-7.45,6.61-8.03,6.97-.61.38-1,.63-1.75.75-1.65.26-9.4.29-10.86-.09-2.26-.59-5.94-5.85-8.64-6.86-1.13-3.51-5.21-8.27-6.25-11.25-.66-1.89-.48-3.92-1.01-5.99-.42-1.65-1.71-3.54-1.94-5.06-.27-1.79-1.14-11.39-1.04-12.96.19-2.99.62-8.71,1.04-11.49.23-1.52,1.52-3.41,1.94-5.06.5-1.96.35-3.87.87-5.63.87-2.93,5.25-7.79,6.16-11.34,2.59-1.1,6.7-6.55,8.88-7.12Z" style="fill: #1e4f28;"/>
  <path d="M33,64.5c.69-3.97-.88-6.43-2.05-9.95-1.32-.08-3.5-.3-4.62.41-.27.17-2.75,5.4-2.82,5.8-.93,5.3-.49,16.38,2.78,20.69,3.73,4.94,7.23,7.1,12.67,2.75,2.54-2.03,5.08-8.76,5.5-12,.51-3.89.34-9.56.04-13.46-.7-9.19-3.07-15.27-10.75-20.76-1.32-.95-2.73-.41-2.26-2.99,2.7-.68,2.99.75,4.53,1.72,3.7,2.34,7.11,5.52,8.63,9.87,2.66,7.61,2.74,13.81,2.85,21.66.05,3.84-2.94,14.66-5.76,17.24-2.5,2.29-7.15,4.62-10.53,3.53-3.99-1.29-8.66-7.4-9.6-11.4-1.73-7.39-2.04-16.23,1.78-22.98,1.31-2.32,4.69-3.61,7.24-3.06,3.47.75,5.77,9.06,4.79,12.09-.34,1.04-1.5.84-2.43.82Z" style="fill: #090d0c;"/>
</svg>