<?xml version="1.0" encoding="UTF-8"?>
<svg id="uuid-c21a01aa-3b19-4d37-bef8-026ee8cda9b1" data-name="fill_birdhouse" xmlns="http://www.w3.org/2000/svg" viewBox="0 0 128 128">
  <path d="M22.18,72.2c-7.81,1.82-14.23-1.33-16.27-8.3-1.46-5.01-.2-9.45,3.62-13.27,12.96-12.95,25.81-26.01,38.71-39.03,1.92-1.94,3.97-3.76,5.76-5.82C59.22-.22,68.37.01,73.83,5.64c14.94,15.38,30.17,30.48,45.19,45.78,6.84,6.97,3.62,18.59-5.83,20.98-2.33.59-4.94.09-7.61.09-.79,8.73-1.57,17.7-2.43,26.66-.69,7.13-1.25,14.29-2.29,21.37-.64,4.32-3.25,6.05-7.54,6.05-19.3,0-38.6-.14-57.9.09-5.88.07-8.45-3.59-8.85-8.2-1.18-13.52-2.35-27.05-3.56-40.57-.16-1.82-.52-3.63-.81-5.69Z" style="fill: #4a3726; stroke-width: 0px;"/>
  <path d="M29.54,66.05c11.5-11,23.24-22.23,34.53-33.03,11.13,10.67,22.86,21.9,34.33,32.9-1.68,17.96-3.31,35.31-4.95,52.83h-58.94c-1.63-17.25-3.26-34.57-4.97-52.7Z" style="fill: #a5805b; stroke-width: 0px;"/>
  <path d="M63.81,20.4c-2.78,3.02-5.24,5.88-7.9,8.56-11.19,11.28-22.42,22.52-33.7,33.7-1.18,1.17-2.79,1.91-4.44,3-1.73-1.27-3.17-2.33-4.33-3.18-.88-3.01.13-5.08,1.84-6.8,14.99-15.06,30.01-30.09,45.06-45.09,2.34-2.33,4.91-2.34,7.23-.02,14.91,14.86,29.81,29.74,44.64,44.69,3.02,3.04,3.5,5.58,1.68,7.68-.9,1.04-2.26,1.67-3.74,2.73-1.66-1.13-3.33-1.93-4.58-3.16-12.86-12.78-25.66-25.62-38.46-38.45-1.02-1.02-1.94-2.14-3.3-3.65Z" style="fill: #7b5b3b; stroke-width: 0px;"/>
  <path d="M77.45,74.28c-.02,7.58-6,13.64-13.48,13.65-7.61,0-13.53-6.1-13.49-13.91.04-7.49,6.2-13.61,13.61-13.53,7.44.08,13.38,6.21,13.35,13.79Z" style="fill: #4a3726; stroke-width: 0px;"/>
</svg>