<?xml version="1.0" encoding="UTF-8"?>
<svg id="uuid-c16a9339-b329-4585-b81b-dd92af864051" data-name="fill_chicken" xmlns="http://www.w3.org/2000/svg" xmlns:xlink="http://www.w3.org/1999/xlink" viewBox="0 0 128 128">
  <defs>
    <linearGradient id="uuid-50505b78-df3b-4c42-afef-86b48cdaefa5" x1="-1656.81" y1="1049.47" x2="-1657.1" y2="1108.58" gradientTransform="translate(888 -518) scale(.5)" gradientUnits="userSpaceOnUse">
      <stop offset="0" stop-color="#cb4646"/>
      <stop offset="1" stop-color="#b42323"/>
    </linearGradient>
    <linearGradient id="uuid-fb277be6-17ff-48d4-abd6-2619439e135b" x1="-1648" y1="1139.9" x2="-1647.77" y2="1165.9" gradientTransform="translate(888 -518) scale(.5)" gradientUnits="userSpaceOnUse">
      <stop offset="0" stop-color="#faea6a"/>
      <stop offset="1" stop-color="#f39941"/>
    </linearGradient>
  </defs>
  <path d="M71.48,13.78c-.12,1.18.79,2.22,1.98,2.22h5.28c3.41.75,4.66,2.88,5.6,4.9.52,1.12.45,3.48.76,3.99.1.16,2.04,1.11,2.63,1.62,14.87,12.95,12.31,31.27,13.78,49.22,4.15,8.17,13.69,22.12,12.44,31.48-.62,4.63-4.57,7.14-9.1,6.18-1.09-.23-5.95-3.48-6.36-2.89-1.72,8.83-7.62,15.48-16.46,8.71-.88-.67-3.53-3.88-4.28-3.71-6.31,12.29-21.55,13.27-27.26,0-.67-.49-3.92,3.24-4.83,3.91-6.83,5.05-11.62,2.82-15.03-4.3-.47-.97-1.1-4.43-1.91-4.61-3.43,1.96-8.58,4.88-12.19,1.71-5.57-4.9-.66-15.97,1.88-21.56,1.64-3.61,7.26-11.83,7.97-14.53.42-1.58-.02-3.67.12-5.38.74-9.44.86-20.64,3.86-29.64.86-2.58,3.13-6.19,3.52-8.48.77-4.51-1.59-11.93,2.64-14.86,3.18-2.21,9.54-.76,11.59-3.91,1.56-2.39,1.86-4.82,4.37-7.13,4.56-4.19,14.72-5.85,18.52,0,1.55,2.4.72,4.6.48,7.04Z" style="fill: #0b0b0b;"/>
  <path d="M84.51,28c.74-.18.82.16,1.25.49,14.59,11.29,11.21,32.37,13.35,48.65,3.47,7.48,12.43,19.86,12.43,28.11,0,3.37-2,6.43-5.68,5.65-2.37-.5-6.75-4.72-8.04-4.36-1.14.32-1.89,4.73-2.44,6.09-3.25,8.01-7.24,8.99-13.64,2.88-1.51-1.44-2.68-4.4-4.94-4.05-.29.05-2.16,4.2-2.89,5.2-5.67,7.7-13.76,7.96-19.62.29-.81-1.06-2.78-5.44-3.09-5.49-2.25-.35-3.43,2.61-4.94,4.05-6.11,5.83-10.25,5.35-13.51-2.52-.58-1.4-1.47-6.13-2.58-6.45-2-.57-7.3,6.87-11.66,3.7-4.55-3.31.19-13.82,2.06-17.92,2.4-5.25,5.68-10.06,8.32-15.18,1.96-16.35-1.88-43.6,18.6-49.4,10.02-2.84,13.84,4.72,15.99,13.03,8.73,1.55,18.42-4.26,21.03-12.77Z" style="fill: #87562c;"/>
  <path d="M64.53,5.73c7.16,1.67,3.84,5.4,4.01,9.48.22,5.29,8.24.21,13.26,5.84,4.24,4.75-3.52,13.26-8.35,15.64-1.5.74-7.15,2.94-8.2,1.33-.5-.77-1.14-4.13-1.87-5.62-3.46-7.05-10.32-9.51-17.76-7.04-2.71.9-6.46,4.09-8.93,5.64-.98.29-.68-5.06-.43-8.56.1-1.42,1.14-2.59,2.53-2.86,3.89-.73,9.64-1.35,11.45-4.1,1.42-2.16,1.17-3.05,3.27-5.48,0,0,4.16-5.87,11.03-4.27Z" style="fill: url(#uuid-50505b78-df3b-4c42-afef-86b48cdaefa5);"/>
  <path d="M64.5,81.5c-1.1,7.01-11.01,6.81-11.96-.29-.49-3.67.35-6.95,1.58-10.34.35-.98,1.93-3.42,1.81-4.05-.22-1.15-4.13-3.07-4.29-6.15s4.28-4.99,6.35-7.43c2.3-2.72,2.96-5.17,4.58-7.92,2.13-3.6,3.13,1.31,4.02,2.84.96,1.66,2.19,3.62,3.43,5.07,4.59,5.43,10.44,5.88,2.12,13.5,2.14,4.18,6.76,14.1.57,16.7-1.84.77-3.51.83-5.33-.06-1.18-.58-1.6-2.01-2.86-1.89Z" style="fill: #0b0b0b;"/>
  <path d="M33.47,72.62c.01.87-.8,1.6-1.63,1.34-.52-.16-.73-.61-.86-1.68-.43-3.59,0-12.84.55-16.49.27-1.73,2.55-3.77,2.9-1.45.51,3.36-1.04,12.18-.96,18.29Z" style="fill: #ba8e67;"/>
  <path d="M24.08,87.59c.91-.62,2.65.01,2.34,1.55-.38,1.93-3.38,6.64-4.3,9.23-.69,1.93-.91,4.64-1.71,6.29s-2.47,1.01-2.39-.84,2.13-8.26,2.89-10.16c.31-.79,2.89-5.87,3.18-6.06Z" style="fill: #ba8e67;"/>
  <path d="M82.36,46.09c6.01-1.31,6.25,9.02,0,7.82-4.45-.86-3.72-7.01,0-7.82Z" style="fill: #0b0b0b;"/>
  <path d="M43.86,46.09c4.48-.96,6.64,5.27,2.82,7.34-5.54,3.01-8.04-6.22-2.82-7.34Z" style="fill: #0b0b0b;"/>
  <path d="M54.73,59.99c1.87-2.13,4.53-4.07,6.26-6.25,1.17-1.48,1.65-3.25,2.48-4.43.95-1.35,1.3.94,1.76,1.71.56.93,1.11,1.87,1.78,2.73,1.37,1.73,5.52,4.83,6.26,6.28.3.6.24.9.04,1.51-.56,1.68-7.55,6.2-9.14,6.37s-5.08-2.44-6.38-3.43c0,0-3.6-2.56-3.06-4.48Z" style="fill: url(#uuid-fb277be6-17ff-48d4-abd6-2619439e135b);"/>
  <path d="M62.39,70.11c1.39,1.94.42,11.34-1.4,13.13-1.7,1.68-5.39.1-5.89-2.1-.93-4.14,1.47-8.86,2.93-12.61.44-.32,4.15,1.29,4.36,1.58Z" style="fill: #bd3030;"/>
  <path d="M65.58,70.07c.12-.16,3.44-1.59,3.69-1.58,1.5.03,3.5,6.37,3.69,7.79.2,1.51.42,3.52-.98,4.43-5.32,3.44-7.43-9.18-6.4-10.65Z" style="fill: #bd3030;"/>
  <path d="M37.91,26.41h0c-.55,0-1-.46-.99-1.01.02-3.14.51-3.73.67-3.92.52-.62,1.86-1.03,2.9-1.26.54-.12,1.07.22,1.19.76.12.54-.22,1.07-.76,1.2-.7.16-1.49.42-1.77.59-.12.4-.23,1.58-.24,2.66,0,.55-.45.99-1,.99ZM39.18,22.67h0Z" style="fill: #eb7977;"/>
  <path d="M52.82,15.29c-.1,0-.21-.02-.31-.05-.52-.17-.81-.73-.64-1.26.04-.12.96-2.87,4.13-5.14,3.67-2.64,6.98-2.33,7.12-2.32.55.06.95.55.89,1.1-.06.55-.54.95-1.1.89-.02,0-2.73-.22-5.75,1.95-2.6,1.87-3.39,4.12-3.39,4.15-.14.42-.53.68-.95.68Z" style="fill: #eb7977;"/>
  <path d="M78.35,22.21s-.05,0-.08,0l-3.99-.3c-1.94-.15-3.85-.75-5.52-1.73l-2.59-1.52c-.48-.28-.64-.89-.36-1.37.28-.48.89-.64,1.37-.36l2.59,1.52c1.42.83,3.03,1.33,4.66,1.46l3.99.3c.55.04.96.52.92,1.07-.04.52-.48.92-1,.92Z" style="fill: #eb7977;"/>
  <path d="M58.06,83.14c-.29,0-.58-.13-.78-.37l-1.32-1.65c-.59-1.1-.73-2.37-.39-3.57l.84-2.97c.15-.53.7-.84,1.23-.69.53.15.84.7.69,1.23l-.84,2.97c-.19.67-.12,1.38.18,2.01l1.15,1.41c.35.43.28,1.06-.15,1.41-.19.15-.41.22-.63.22Z" style="fill: #eb7977;"/>
  <path d="M56.43,61.67c-.13-.78-.07-2.64,1.18-2.44,1.32.21,5.4,3.45,6.86,5.03,1.65,1.79,0,2.2-1.9,1.52-.5-.18-5.98-3.22-6.14-4.11Z" style="fill: #f9e19b;"/>
</svg>