<?xml version="1.0" encoding="UTF-8"?>
<svg id="fill_boards" xmlns="http://www.w3.org/2000/svg" viewBox="0 0 128 128">
  <path d="M31.2,27.9c-.55-1.59-1.09-2.98-1.5-4.41-1.17-4,.56-7.98,4.43-9.43,10.98-4.13,21.99-8.17,33.04-12.1,4.51-1.6,8.51.64,10.29,5.51,6.13,16.79,12.21,33.6,18.31,50.4,3.43,9.45,6.86,18.89,10.3,28.34,2.5,6.87.97,10.18-5.95,12.75-1.07.4-2.14.79-3.36,1.24.52,1.39,1.01,2.61,1.43,3.85,1.44,4.32-.25,8.55-4.48,10.08-6.24,2.26-12.66,4.03-18.92,6.26-4.15,1.48-8.11,3.49-12.22,5.09-6.27,2.44-9.95.69-12.23-5.59-9.52-26.16-19.03-52.32-28.57-78.47-2.2-6.02-.58-9.69,5.39-11.97,1.31-.5,2.61-1,4.06-1.56Z" style="fill: #4a3726; stroke-width: 0px;"/>
  <path d="M86.16,96.68c-2.4.86-4.47,1.6-6.68,2.39-.85-2.27-1.63-4.33-2.39-6.42-.93-2.57-2.76-3.81-4.72-3.16-1.95.65-2.57,2.66-1.63,5.4.66,1.93,1.38,3.85,2.05,5.77.05.15-.05.34-.14.92-1.94.67-4.06,1.39-6.45,2.21-10.15-27.88-20.16-55.38-30.28-83.18,11.65-4.23,22.88-8.31,34.43-12.51,10.16,27.95,20.17,55.46,30.27,83.25-2.97,1.1-5.42,2-8.18,3.02-1.53-4.28-3.04-8.34-4.39-12.45-.24-.75.15-1.73.34-2.58,1.38-6.03-.39-10.59-5.33-14.25-.99-.73-1.83-1.91-2.31-3.05-1.26-3.03-2.26-6.17-3.41-9.26-.94-2.5-2.74-3.6-4.67-2.75-2.25.99-2.47,2.81-1.69,4.92,1.45,3.92,2.76,7.89,4.39,11.73.54,1.27,1.69,2.46,2.87,3.23,3.35,2.19,4.75,4.61,3.42,8.32-1.06,2.94-.32,5.34.66,7.93,1.29,3.4,2.5,6.82,3.83,10.5Z" style="fill: #a5805b; stroke-width: 0px;"/>
  <path d="M67.31,110.49c.6,1.72,1.12,3.22,1.82,5.26-3.8,1.37-7.53,2.71-11.52,4.15-10.19-28.02-20.19-55.5-30.27-83.2,2.35-.88,4.15-1.56,6.37-2.4,1.45,3.95,2.89,7.82,4.31,11.7,7.14,19.62,14.29,39.25,21.42,58.88,1.3,3.58,3.92,5.35,7.87,5.6Z" style="fill: #7b5b3b; stroke-width: 0px;"/>
  <path d="M90.27,102.3c.54,1.86.99,3.42,1.52,5.27-5.52,2-10.7,3.88-16.22,5.88-.72-1.82-1.29-3.24-1.99-4.98,5.59-2.07,10.94-4.04,16.69-6.17Z" style="fill: #7b5b3b; stroke-width: 0px;"/>
  <path d="M60.6,62.76c-.47-.46-1.83-1.22-2.26-2.33-2.65-6.87-5.11-13.81-7.59-20.74-.67-1.86-.05-3.44,1.77-4.13,1.86-.71,3.56-.28,4.35,1.82,1.9,5.06,3.77,10.13,5.65,15.2.71,1.91,1.52,3.79,2.08,5.75.72,2.49-.72,4.44-4,4.43Z" style="fill: #4a3726; stroke-width: 0px;"/>
  <path d="M71.55,36.85c-1.04.92-1.98,2.38-3.14,2.59-1.06.19-3.07-.68-3.44-1.59-2.23-5.41-4.24-10.92-5.96-16.51-.29-.94.94-3.17,1.87-3.44,1.16-.34,3.61.35,3.98,1.24,2.32,5.46,4.21,11.11,6.23,16.69.06.16.03.35.03.53.14.16.29.32.43.48Z" style="fill: #4a3726; stroke-width: 0px;"/>
</svg>