<?xml version="1.0" encoding="UTF-8"?>
<svg id="fill_soup_potato" xmlns="http://www.w3.org/2000/svg" viewBox="0 0 128 128">
  <path d="M26.48,63.08C29.44,24.76,12.06,4.57,62.53,2.37c9.78-.33,31.85,2.15,37.43,10.82,3.97,7.31,1.16,16.43,1.64,24.37-.3,23.64.32,47.33-.07,70.97-5.14,21.99-50.18,19.15-66.27,11.54-8.13-3.26-9.1-11.02-8.73-18.83.11-12.73.07-25.48-.06-38.17Z" style="fill: #583520; stroke-width: 0px;"/>
  <path d="M96.93,29.5c.62,25.38.04,50.47.24,75.83,1.11,14.45-17.6,13.26-27.56,14.93-10.96-.74-36.7,1.86-38.71-12.56.49-26.05-.84-52.27.55-78.21,21.8,7.77,43.34,8.23,65.48.02Z" style="fill: #beb696; stroke-width: 0px;"/>
  <path d="M71.34,8.09c-1.12,2.24-4.62,3.2-6.17,5.27-8.56,10.27,16.49,15.67,1.54,16.15-9.44-1.19-19.22-1.42-28.34-4.2-19.75-8,1.68-16.32,11.99-17.77,2.89-.4,21.15-3.34,20.98.55Z" style="fill: #d6d6d5; stroke-width: 0px;"/>
  <path d="M89.21,27.95c-5.41-1.6.76-7.79-.48-11.54-.48-2.35-2.62-4.44-2.79-6.83.26-5.59,12.7,4.6,12.47,7.45,1.04,4.9-4.93,10.13-9.2,10.92Z" style="fill: #d6d6d5; stroke-width: 0px;"/>
  <path d="M83.39,19.12c-2.26,3.7-16.21,3.79-13.38-2.46,2.24-2.82,14.79-3.48,13.38,2.46Z" style="fill: #d6d6d5; stroke-width: 0px;"/>
  <g>
    <path d="M66.15,110.23c-6.57-.11-11.45-3.38-16.12-7.42-7.36-6.38-11.02-14.8-13.8-23.8-1.56-5.07-2.73-10.18-1.34-15.44,1.89-7.16,6.2-12.66,12.47-16.48,4.4-2.69,9.19-1.87,13.92-.8,8.34,1.89,14.21,6.77,18.35,14.24,2.3,4.14,5.57,7.72,8.24,11.67,4.31,6.38,6.29,13.36,4.14,20.95-2.34,8.28-8.6,12.69-16.39,15.13-3.06.96-6.31,1.32-9.47,1.95Z" style="fill: #4a3726; stroke-width: 0px;"/>
    <path d="M66,105.28c-4.87.3-8.47-2.23-12.03-5.09-7.34-5.91-10.82-14.04-13.42-22.7-.62-2.07-1.09-4.2-1.46-6.34-1.09-6.36,1.53-11.45,5.63-16.02,2.59-2.88,5.5-5.57,9.54-5.29,3.52.25,7.06,1.23,10.41,2.4,5.03,1.75,8.11,5.75,10.78,10.2,1.99,3.31,4.27,6.46,6.67,9.5,3.18,4.02,5.47,8.43,6.05,13.51.67,5.85-1.43,10.79-6.07,14.46-4.7,3.72-10.24,5.09-16.11,5.37Z" style="fill: #a5805b; stroke-width: 0px;"/>
    <path d="M76.31,92.96c.01,2.21-1.4,3.73-3.5,3.77-2.13.04-3.84-1.71-3.86-3.94-.01-1.73,1.87-3.49,3.75-3.51,2.08-.02,3.6,1.53,3.61,3.68Z" style="fill: #4a3726; stroke-width: 0px;"/>
    <path d="M46.74,74.43c-1.7,0-3.37-1.71-3.35-3.43.03-1.87,1.54-3.35,3.39-3.33,1.87.03,3.34,1.51,3.34,3.37,0,1.79-1.59,3.38-3.39,3.38Z" style="fill: #4a3726; stroke-width: 0px;"/>
    <path d="M79.87,82.02c-.05,1.66-1.46,3.02-3.09,2.98-1.55-.03-3.06-1.64-2.97-3.17.11-1.78,1.56-3.17,3.24-3.08,1.52.08,2.87,1.64,2.82,3.27Z" style="fill: #4a3726; stroke-width: 0px;"/>
    <path d="M63.45,88.29c-1.58-.03-2.51-1.02-2.44-2.59.07-1.52,1.16-2.53,2.66-2.45,1.4.07,2.61,1.35,2.55,2.67-.07,1.39-1.26,2.4-2.76,2.37Z" style="fill: #4a3726; stroke-width: 0px;"/>
    <path d="M49.74,63.84c-1.39,0-2.44-1.02-2.47-2.42-.03-1.35,1.02-2.49,2.36-2.53,1.41-.05,2.58,1.11,2.55,2.53-.03,1.44-1.02,2.42-2.45,2.43Z" style="fill: #4a3726; stroke-width: 0px;"/>
  </g>
</svg>