<?xml version="1.0" encoding="UTF-8"?>
<svg id="uuid-0dae74cf-a6bf-4700-ba65-4ba30934cd79" data-name="fill_milkgoat" xmlns="http://www.w3.org/2000/svg" xmlns:xlink="http://www.w3.org/1999/xlink" viewBox="0 0 128 128">
  <defs>
    <linearGradient id="uuid-ec5376d7-9140-496e-b1b8-ea18850715a8" x1="572.03" y1="-537.79" x2="571.73" y2="-353.79" gradientTransform="translate(-222 296) scale(.5)" gradientUnits="userSpaceOnUse">
      <stop offset="0" stop-color="#e6e5e5"/>
      <stop offset="1" stop-color="#b8b8b8"/>
    </linearGradient>
  </defs>
  <path d="M102.69,27.06c-4.43-2.42-11.76,3.11-13.2,2.23-.74-.81-1.27-2.39-1.02-3.45.06-.22,1.73-.96,2.41-2.73,2.23-5.8-4-7.96-8.82-7.17-3.47-18.04-32.2-18.29-35.6.01-5.4-.36-11.44.08-9.85,7.2.44,2,2.71,2.49,2.86,3.15.14.62-1.29,2.18-.97,3.2-4.17-.76-9.34-4.81-13.48-2.23-3.71,2.32-4.08,7.36-.8,10.26,1.87,1.65,9.48,3.32,9.75,4.28.3,1.07-1.63,4.39-1.73,5.92,1.35,21.38-.83,43.55.06,64.83.23,5.71,3.86,11.05,9.93,11.46,13.79-1.16,29.96,1.5,43.47-.07,6.74-.79,9.39-6.52,9.82-12.68,1.42-20.25-1.12-42.12,0-62.54l-2.05-6.94c.05-.55,8.83-3.06,10.28-4.29,3.38-2.82,2.77-8.34-1.06-10.44ZM71.5,16h-15c2.15-6.05,13.36-6.45,15,0Z" style="fill: #0d100f;"/>
  <path d="M85.45,26.55l2.08,6.43c3.37.12,13.25-6.39,15.21-1.97,2.83,6.39-9.73,6.39-12.7,9.28l2.49,8.44c-1.34,20.73,1.72,43.56,0,64.04-.33,3.94-2.64,7.62-6.76,8.24-14.05-.97-29.69,1.24-43.54.01-4.88-.43-6.88-4.8-7.24-9.26-1.67-20.34,1.29-42.94.02-63.52l2.54-8.46c-3.35-2.16-14.97-2.7-12.27-8.77,1.87-4.2,11.26,1.55,14.45,1.95,1.35-.29,1.35-6.26,3.54-6.46l42.2.06Z" style="fill: url(#uuid-ec5376d7-9140-496e-b1b8-ea18850715a8);"/>
  <path d="M87.98,19.27c-1.48-1.3-6.31-.72-8.48-.77-.61-17.48-29.71-18.31-30.5-.5-.18-.01-1.04.5-1.73.5-3.11.02-10.16-1-7.93,4.39.45,1.08,1.88,1.06,2.89,1.13,14.23.99,29.63-.76,43.99-.05,2.4-.26,3.74-2.98,1.76-4.7ZM54.05,18.13c.03-3.55,3.29-8.05,6.66-8.6,8.03-1.31,11.93,1.51,13.5,8.32.04,0-20.16.28-20.16.28Z" style="fill: #b9b9ba;"/>
  <path d="M39.5,68.5c1.26.04,2.54.94,3.85,2.7,2.06.64,3.29,1.69,3.7,3.16-.38,7.33,1.99,14.06,7.13,20.19,3.58,14.11,16.06,14.12,19.65,0,4.95-6.87,7.88-12.81,7.44-21.43,2.4-1.11,4.41-2.66,6.03-4.65l1.2.02c.53,1.2.92,3.44,1,4.75,1.01,15.87-7.56,37.77-26.25,37.47-17.71-.29-25.64-22.52-24.75-37.47.08-1.3.47-3.56,1-4.75Z" style="fill: #63b248;"/>
  <path d="M48.5,50c3.62-1.61,8.69,3.07,10.84,5.96-.74,2.78,7.3,2.51,8.26,2.07,1.07-2.5,2.47-4.14,4.66-5.76,1.8-1.34,5.22-3.77,7.23-2.27,3.74-.57,6.51.88,3,4l-.04,1.11c-2.54,1.24-3.94,4.48-4.02,7.25l7.28-.82,1.28.96c.83,0,1.67,0,2.5,0,.14,2-.03,4.22-1,6-.43.8-2.48,2.92-3.25,3.5s-3.07,1.43-3.17,1.58c-.31.43,0,4.87-.13,6.12-.68,6.74-4.05,9.7-7.04,14.96-1.14,2.01-1.4,4.06-2.49,6.01-4.1,7.34-12.73,7.34-16.83,0-1.09-1.95-1.35-4-2.49-6.01-2.98-5.27-6.36-8.22-7.04-14.96-.13-1.25.17-5.68-.13-6.12-.1-.14-2.39-.99-3.17-1.58s-2.82-2.7-3.25-3.5c-.97-1.78-1.15-4-1-6,.83,0,1.67,0,2.5,0l1.28-.96,7.28.82c-.08-2.74-1.43-5.89-3.93-7.21l-.14-1.14c-3.54-3.12-.82-4.59,3-4Z" style="fill: #0d100f;"/>
  <path d="M79.5,50c-3.29.51-7.74,3.34-9.72,6.03-.5.68-1.23,2.8-1.36,2.89-.36.26-8.49.26-8.85,0-.13-.09-.86-2.21-1.36-2.89-1.98-2.69-6.42-5.52-9.72-6.03,8.08-9.43,22.91-9.44,31,0Z" style="fill: #63b248;"/>
  <path d="M45.5,54c.19.17,1.06.26,1.77.97,2.27,2.23,3.61,5.33,3.23,8.53-3.01-.43-6.47-.97-9.5-1,.82-2.98,2.21-6.35,4.5-8.5Z" style="fill: #62b047;"/>
  <path d="M82.5,54c2.29,2.15,3.68,5.52,4.5,8.5-3.02.03-6.49.57-9.5,1-.39-3.2.95-6.31,3.23-8.53.71-.7,1.58-.8,1.77-.97Z" style="fill: #62b047;"/>
  <path d="M38.54,47.45c-.22-.3-.04-1.15.06-1.58l5.35-14.58c.62-.87,3.08-.2,2.35,1.22-1.47,2.47-4.14,14.11-5.8,15.27-.41.29-1.86-.19-1.96-.33Z" style="fill: #fdfdfd;"/>
  <path d="M39.5,108.5c.03,2.02-.38,3.7.77,5.48,1.95,3.04,4.64,1.33,6.24,2.26.71.41.72,1.61,0,2.03-1.63.95-5.45.1-6.98-1.04-2.78-2.07-2.64-5.56-2.53-8.72h2.5Z" style="fill: #fbfbfb;"/>
  <path d="M79.08,72.07c-.54.76.48,3.88.46,5.18-.1,6.34-3.12,9.77-6.04,14.75-1.37,2.33-2.03,4.97-3.05,6.7-.56.94-1.64,1.12-1.83,1.42-.28.47-.04,1.31-.36,1.87-1.09,1.85-6.69,1.81-8.26.26-.49-.5-.55-1.39-1-2-1.98-2.74-2.74-5.25-4.5-8.25-2.92-4.98-5.94-8.41-6.04-14.75-.02-1.3,1-4.42.46-5.18-.72-1.02-8.43-2.68-7.42-7.07,3.11.25,7.78,1.52,10.74.99,1.05-.18,2.34-1.83,3.5-2.5,4.64-2.7,11.9-2.69,16.52,0,1.16.67,2.45,2.32,3.5,2.5,2.96.53,7.63-.74,10.74-.99,1.01,4.39-6.7,6.05-7.42,7.07Z" style="fill: #d5c8b5;"/>
  <path d="M53,61.5c-.04-3.01-1.68-5.73-3.5-8,2.32-.49,8.02,4.36,7.47,6.19-.24.8-3.69,2.21-3.97,1.81Z" style="fill: #cbbda8;"/>
  <path d="M78.5,53.5c-1.65,2.37-3.91,4.94-3.5,8-8.31-.89-.96-7.61,3.5-8Z" style="fill: #cbbda8;"/>
  <path d="M53.32,78.07c4.16-1.36,6.14,3.64,1.94,3.46-2.66-.12-3.91-2.81-1.94-3.46Z" style="fill: #0d100f;"/>
  <path d="M71.85,78.1c4.33-1.29,5.08,2.88,1.36,3.38s-3.3-2.8-1.36-3.38Z" style="fill: #0d100f;"/>
  <path d="M60.81,93.53c1.18-.27,2.05,2.75,2.99,2.96,1.5.32,2.34-4.62,4.24-2.25,1.43,1.78-2.44,5.39-4.72,5.15-1.85-.2-5.36-4.72-2.51-5.86Z" style="fill: #0d100f;"/>
</svg>