<?xml version="1.0" encoding="UTF-8"?>
<svg id="uuid-44cdc33e-787f-4fae-bb39-4e234efd392f" data-name="fill_onion" xmlns="http://www.w3.org/2000/svg" viewBox="0 0 128 128">
  <path d="M125,72.77c0-9.74-7.51-18.97-20.62-25.31-26.88-14.41-31.96-37.97-32.01-38.21l-.34-1.69h-16.07l-.33,1.7c-.05.23-5.04,23.76-31.97,38.18-13.13,6.35-20.66,15.58-20.66,25.33,0,16.79,21.56,30.17,52.43,32.53,1.22.1,2.32.17,3.39.23l-9.89,1.65c-1.15.19-1.92,1.27-1.73,2.42.17,1.03,1.06,1.75,2.07,1.75.12,0,.23-.01.35-.03l7.96-1.32-3.9,3.9c-.83.82-.83,2.15,0,2.97.41.41.94.62,1.48.62s1.08-.21,1.49-.62l5.25-5.24v6.7c0,1.16.94,2.11,2.1,2.11s2.1-.95,2.1-2.11v-6.7l5.25,5.24c.41.41.95.62,1.48.62s1.08-.21,1.49-.62c.82-.82.82-2.15,0-2.97l-3.92-3.92,7.91,1.58c.14.03.28.04.42.04.98,0,1.86-.69,2.06-1.69.22-1.14-.52-2.25-1.65-2.48l-9.27-1.85c.84-.04,1.72-.08,2.66-.13,30.89-1.77,52.47-15.2,52.47-32.68ZM78.03,56.1c-1.17-2.74-1.75-4.07-2.17-5.03-.48-1.09-.75-1.71-1.44-3.4-1.1-2.69-2.12-5.82-3.05-9.32-1.45-5.47-2.47-10.04-3.22-13.83,2.75,6.37,7.48,15.06,15.04,22.63,1.73,1.72,2.41,2.36,3.6,3.47,1.02.95,2.42,2.25,5.2,4.92,4.19,4.01,6.09,9.11,5.67,15.16-.89,12.68-11.81,23.21-24.01,28.31,4.14-5.84,6.86-14.85,7.15-24.99.2-7.09-.73-13.12-2.77-17.92ZM68.67,11.77c1.67,5.98,8.98,26.16,33.77,39.42l.07.04c11.62,5.62,18.28,13.47,18.28,21.54,0,13.48-16.7,24.56-40.69,27.74,11.42-6.27,20.87-16.92,21.76-29.51.51-7.25-1.9-13.65-6.96-18.5-2.8-2.69-4.21-4-5.24-4.96-1.16-1.08-1.82-1.69-3.5-3.37-9.18-9.18-13.94-20.2-15.97-25.95-.99-2.83-1.8-4.93-2.6-6.45h1.08ZM7.21,72.77c0-8.07,6.66-15.93,18.35-21.58,24.79-13.26,32.1-33.44,33.77-39.42h1.09c-.81,1.52-1.61,3.62-2.61,6.45-2.02,5.75-6.79,16.77-15.97,25.95-1.68,1.68-2.34,2.29-3.5,3.37-1.02.96-2.44,2.27-5.24,4.96-5.06,4.85-7.47,11.25-6.96,18.49.87,12.33,9.93,22.8,21.02,29.12-23.6-3.69-39.95-14.57-39.95-27.34ZM30.34,70.7c-.42-6.05,1.48-11.15,5.67-15.16,2.78-2.67,4.18-3.97,5.2-4.92,1.19-1.11,1.87-1.75,3.6-3.47,7.35-7.35,12.03-15.78,14.81-22.09-.74,3.68-1.73,8.08-3.11,13.3-.93,3.48-1.96,6.61-3.05,9.31-.7,1.7-.97,2.32-1.45,3.41-.42.97-1,2.3-2.16,5.02-2.05,4.8-2.98,10.83-2.77,17.92.28,10.09,2.98,19.06,7.08,24.91-12.12-5.13-22.93-15.62-23.82-28.23ZM64.23,101.5c-.2,0-.4,0-.6-.01-5.77-1.69-11.91-12.35-12.35-27.6-.18-6.38.66-11.96,2.44-16.14,1.15-2.71,1.72-4.03,2.14-4.98.5-1.13.78-1.77,1.49-3.52,1.16-2.85,2.25-6.16,3.22-9.81,1.53-5.75,2.6-10.58,3.37-14.51.76,3.93,1.84,8.76,3.36,14.51.98,3.66,2.06,6.96,3.22,9.81.72,1.75,1,2.38,1.49,3.5.42.96.99,2.28,2.15,5,1.77,4.18,2.62,9.76,2.44,16.14-.44,15.26-6.59,25.92-12.37,27.61Z" style="fill: #4a3726; stroke-width: 0px;"/>
  <path d="M120.79,72.77c0,13.48-16.7,24.56-40.69,27.74,11.42-6.27,20.87-16.92,21.76-29.51.51-7.25-1.9-13.65-6.96-18.5-2.8-2.69-4.21-4-5.24-4.96-1.16-1.08-1.82-1.69-3.5-3.37-9.18-9.18-13.94-20.2-15.97-25.95-.99-2.83-1.8-4.93-2.6-6.45h1.08c1.67,5.98,8.98,26.16,33.77,39.42l.07.04c11.62,5.62,18.28,13.47,18.28,21.54Z" style="fill: #d6d6d5; stroke-width: 0px;"/>
  <path d="M97.66,70.7c-.89,12.68-11.81,23.21-24.01,28.31,4.14-5.84,6.86-14.85,7.15-24.99.2-7.09-.73-13.12-2.77-17.92-1.17-2.74-1.75-4.07-2.17-5.03-.48-1.09-.75-1.71-1.44-3.4-1.1-2.69-2.12-5.82-3.05-9.32-1.45-5.47-2.47-10.04-3.22-13.83,2.75,6.37,7.48,15.06,15.04,22.63,1.73,1.72,2.41,2.36,3.6,3.47,1.02.95,2.42,2.25,5.2,4.92,4.19,4.01,6.09,9.11,5.67,15.16Z" style="fill: #d6d6d5; stroke-width: 0px;"/>
  <path d="M76.6,73.89c-.44,15.26-6.59,25.92-12.37,27.61-.2,0-.4,0-.6-.01-5.77-1.69-11.91-12.35-12.35-27.6-.18-6.38.66-11.96,2.44-16.14,1.15-2.71,1.72-4.03,2.14-4.98.5-1.13.78-1.77,1.49-3.52,1.16-2.85,2.25-6.16,3.22-9.81,1.53-5.75,2.6-10.58,3.37-14.51.76,3.93,1.84,8.76,3.36,14.51.98,3.66,2.06,6.96,3.22,9.81.72,1.75,1,2.38,1.49,3.5.42.96.99,2.28,2.15,5,1.77,4.18,2.62,9.76,2.44,16.14Z" style="fill: #d6d6d5; stroke-width: 0px;"/>
  <path d="M49.85,56.1c-2.05,4.8-2.98,10.83-2.77,17.92.28,10.09,2.98,19.06,7.08,24.91-12.12-5.13-22.93-15.62-23.82-28.23-.42-6.05,1.48-11.15,5.67-15.16,2.78-2.67,4.18-3.97,5.2-4.92,1.19-1.11,1.87-1.75,3.6-3.47,7.35-7.35,12.03-15.78,14.81-22.09-.74,3.68-1.73,8.08-3.11,13.3-.93,3.48-1.96,6.61-3.05,9.31-.7,1.7-.97,2.32-1.45,3.41-.42.97-1,2.3-2.16,5.02Z" style="fill: #d6d6d5; stroke-width: 0px;"/>
  <path d="M33.1,52.5c-5.06,4.85-7.47,11.25-6.96,18.49.87,12.33,9.93,22.8,21.02,29.12-23.6-3.69-39.95-14.57-39.95-27.34,0-8.07,6.66-15.93,18.35-21.58,24.79-13.26,32.1-33.44,33.77-39.42h1.09c-.81,1.52-1.61,3.62-2.61,6.45-2.02,5.75-6.79,16.77-15.97,25.95-1.68,1.68-2.34,2.29-3.5,3.37-1.02.96-2.44,2.27-5.24,4.96Z" style="fill: #d6d6d5; stroke-width: 0px;"/>
</svg>