<?xml version="1.0" encoding="UTF-8"?>
<svg id="uuid-2792f394-6c14-4574-8677-de4416527f2a" data-name="fill_barley" xmlns="http://www.w3.org/2000/svg" xmlns:xlink="http://www.w3.org/1999/xlink" viewBox="0 0 128 128">
  <defs>
    <linearGradient id="uuid-e7482e73-bcab-4647-ad0a-ce2d251bdb3e" x1="420.76" y1="1149.09" x2="487.95" y2="1267.18" gradientTransform="translate(-148 -518) scale(.5)" gradientUnits="userSpaceOnUse">
      <stop offset="0" stop-color="#af8f61"/>
      <stop offset="1" stop-color="#9c773d"/>
    </linearGradient>
    <linearGradient id="uuid-d2f1e658-a2fb-4016-94ab-c43b43905413" x1="386.71" y1="1091.59" x2="415.23" y2="1140.95" gradientTransform="translate(-148 -518) scale(.5)" gradientUnits="userSpaceOnUse">
      <stop offset="0" stop-color="#f8ef9d"/>
      <stop offset="1" stop-color="#c8a636"/>
    </linearGradient>
    <linearGradient id="uuid-63aec8c2-b93a-433a-8cf7-cc5c831ac0e2" x1="468.74" y1="1139.62" x2="483.89" y2="1187.97" gradientTransform="translate(-148 -518) scale(.5)" gradientUnits="userSpaceOnUse">
      <stop offset="0" stop-color="#fbf3a2"/>
      <stop offset=".18" stop-color="#f9f09e"/>
      <stop offset="1" stop-color="#c4a12f"/>
    </linearGradient>
    <linearGradient id="uuid-12af709c-8bbb-446a-9864-040aba30e8bf" x1="437.54" y1="1102" x2="462.55" y2="1144.63" gradientTransform="translate(-148 -518) scale(.5)" gradientUnits="userSpaceOnUse">
      <stop offset="0" stop-color="#fbf3a2"/>
      <stop offset=".22" stop-color="#faf1a0"/>
      <stop offset="1" stop-color="#c3a02e"/>
    </linearGradient>
    <linearGradient id="uuid-df1c4124-17da-4c50-ad3e-0bc87a1166c3" x1="496.61" y1="1182.03" x2="503.56" y2="1231.45" gradientTransform="translate(-148 -518) scale(.5)" gradientUnits="userSpaceOnUse">
      <stop offset="0" stop-color="#fbf3a2"/>
      <stop offset=".2" stop-color="#faf2a1"/>
      <stop offset="1" stop-color="#c3a02e"/>
    </linearGradient>
    <linearGradient id="uuid-87fef80a-8abf-4e86-aba8-456a4b8e9065" x1="388.65" y1="1187.59" x2="422.29" y2="1224.09" gradientTransform="translate(-148 -518) scale(.5)" gradientUnits="userSpaceOnUse">
      <stop offset="0" stop-color="#fbf3a2"/>
      <stop offset=".16" stop-color="#faf1a0"/>
      <stop offset="1" stop-color="#c4a12f"/>
    </linearGradient>
    <linearGradient id="uuid-870609c2-5173-4c87-89bf-591d38a84f87" x1="408.25" y1="1231.57" x2="446.45" y2="1262.26" gradientTransform="translate(-148 -518) scale(.5)" gradientUnits="userSpaceOnUse">
      <stop offset="0" stop-color="#fbf3a2"/>
      <stop offset=".18" stop-color="#fbf2a2"/>
      <stop offset="1" stop-color="#c3a12e"/>
    </linearGradient>
    <linearGradient id="uuid-baee42c8-e830-4890-ac04-df3521a0280d" x1="369.64" y1="1138.96" x2="394.27" y2="1181.49" gradientTransform="translate(-148 -518) scale(.5)" gradientUnits="userSpaceOnUse">
      <stop offset="0" stop-color="#fbf3a2"/>
      <stop offset=".22" stop-color="#faf2a1"/>
      <stop offset="1" stop-color="#c3a02e"/>
    </linearGradient>
  </defs>
  <path d="M61.41,56.27c1.71-.5,4.55-.63,5.46.96l32.39,54.91c2.53,3.8-4.79,7.8-7.64,4.21l-31.68-54.82c-.87-1.72-.57-4.65,1.46-5.26Z" style="fill: url(#uuid-e7482e73-bcab-4647-ad0a-ce2d251bdb3e);"/>
  <path d="M55.37,28.82c4.45,3.41,8.01,9.25,8.6,14.9,1.43,13.57-7.8,14.14-16.23,6.29-7.23-6.73-6.41-16.62-4.36-25.66,1.51-1.28,10.32,3.19,11.99,4.47Z" style="fill: url(#uuid-d2f1e658-a2fb-4016-94ab-c43b43905413);"/>
  <path d="M85.75,54.38c2.72-2.83,7.91-6.28,12.05-6.47,3,6.69,4.73,14.12,1.71,21.28-1.12,2.66-8.45,10.04-11.16,10.85-10.48,3.14-9.97-17.83-5.54-21.45.38-.67,2.95-4.21,2.95-4.21Z" style="fill: url(#uuid-63aec8c2-b93a-433a-8cf7-cc5c831ac0e2);"/>
  <path d="M73.27,31.71c.91-.7,6.15-5.47,7.16-5.27,7.07,8.51,8.34,19.74,1.57,29.24-8.85,12.42-15.36-3.71-13.99-12.49.32-2.02,2.96-9.7,5.26-11.47Z" style="fill: url(#uuid-12af709c-8bbb-446a-9864-040aba30e8bf);"/>
  <path d="M110.81,70.63c1.3.03,1.22,1.47,1.48,2.48,2.7,10.24-1.01,21.92-11.1,26.43s-11.89-9.27-9.77-15.49c1.83-5.36,17.5-13.45,19.39-13.42Z" style="fill: url(#uuid-df1c4124-17da-4c50-ad3e-0bc87a1166c3);"/>
  <path d="M52.52,75.76c5.22-.43,10.85,2.22,14.8,5.6,10.5,8.98-3.42,13.99-11.75,13.25-5.91-.53-12.85-4.76-16.43-9.28-.51-.64-1.18-2.78-.74-3.59,3.79-2.99,9.29-5.58,14.13-5.98Z" style="fill: url(#uuid-87fef80a-8abf-4e86-aba8-456a4b8e9065);"/>
  <path d="M80.73,103.28c4.92,6.46-6.94,11.22-11.98,11.72-7.2.71-15.6-3.37-19.76-9.25,2.78-4.16,10.36-8.29,15.27-8.74,5.21-.48,13.26,2.06,16.47,6.27Z" style="fill: url(#uuid-870609c2-5173-4c87-89bf-591d38a84f87);"/>
  <path d="M56.79,70.66c-3.19,3.33-13.43,2.49-17.47.77-5.45-2.31-11.18-9.36-12.28-15.11,6.04-3.3,14.67-5.01,20.98-2.12,4.6,2.1,13.76,11.27,8.77,16.46Z" style="fill: url(#uuid-baee42c8-e830-4890-ac04-df3521a0280d);"/>
  <path d="M78.02,21.82c-3.41-1.05-5.64-6.47-3.49-11.24,3.51.29,5.81,6.57,3.49,11.24Z" style="fill: #dfca6b;"/>
  <path d="M42.5,102c-3.61.64-6.28-2.16-6.99-5.5,3.33.52,6.45,1.75,6.99,5.5Z" style="fill: #dfca6b;"/>
  <path d="M40.47,18.91c-5.47-.7-7.05-6.34-6.82-9.58,4.93,1.08,7.05,6.34,6.82,9.58Z" style="fill: #dfca6b;"/>
  <path d="M93,32.5c3.32.91,3.91,6.09,1.75,8.49-2.54-2.53-2.67-5.13-1.75-8.49Z" style="fill: #dfca6b;"/>
  <path d="M23.91,52.06c-5.33-.3-8.39-4.44-8.17-7.95,4.98.48,8.42,4.82,8.17,7.95Z" style="fill: #dfca6b;"/>
  <path d="M32.08,78.74c-4.17.44-8.64-3.67-8.42-7.36,3.19.13,9.28,3.5,8.42,7.36Z" style="fill: #dfca6b;"/>
  <path d="M110.24,53.73c1.41,2.75,2.47,7.7.23,10.36-3.3-2.75-3.93-10.28-.23-10.36Z" style="fill: #dfca6b;"/>
  <path d="M87.78,56.32c.77-.44,1.94-.82,2.61-.09.58.72-1.03,2.46-2.22,3.92-1.41,1.59-2.29,3.53-3.19,5.43-.73,1.45-1.9,2.28-2.33,1.52-.39-.83-.12-1.75.06-2.69.59-3.11,2.54-6.17,4.91-7.99l.16-.09Z" style="fill: #fdfdfd;"/>
  <path d="M46.79,43.5c-.81.52-1.52-.67-1.87-1.34-1.38-3.07-1.54-8.27-.97-12.02.27-2.9,2.93-3.83,2.52-.12-.78,3.57-.54,7.37.53,10.77.16.82.36,1.99-.14,2.64l-.07.07Z" style="fill: #fdfdfd;"/>
  <path d="M73.71,35.44s.02,0,.03,0c1.05-.02,1.74,1.11,1.22,2.03-2.11,3.77-2.98,7.46-2.99,11.98-4.1,2.39-2.07-5.94-1.72-8.04.02-.11.89-2.17.93-2.27.44-.98,1.88-2.69,2.52-3.7Z" style="fill: #fdfdfd;"/>
  <path d="M101.58,76.77c6.75-.28-1.26,3.98-2.72,5.31-1.25,1.01-1.89,2.74-2.86,3.93-.53.64-1.59,1.2-2.06.3-.27-3.95,4.95-7.35,7.64-9.54Z" style="fill: #fdfdfd;"/>
  <path d="M56.84,89.71v1.99c-4.84.5-11.82-2.02-14.77-5.97-1.04-1.39-.87-2.93.94-2.45,2.79,2.9,8.83,7.13,13.84,6.43Z" style="fill: #fdfdfd;"/>
  <path d="M54.69,107.05c2.73.07,4.33,2.24,7.11,3.14,3.48,1.12,5.72.34,8.64.86,4.37.78-2.4,2.97-5.88,2.38-1.53-.26-12.18-4.04-9.86-6.38Z" style="fill: #fdfdfd;"/>
  <path d="M45.09,70.5c-3.08,1.31-19.08-11.04-12.99-12.26,2.93,3.49,5.74,7.04,9.87,9.13,1.77.35,3.83,1.22,3.12,3.13Z" style="fill: #fdfdfd;"/>
  <path d="M26.9,53.49c1.2-.71,7.19-2.21,8.8-2.45,3.44-.51,6.76-.19,10.2-.05-5.9-7.24-7.43-16.74-4.97-25.71,1.52-5.56,5.69-3.58,9.81-1.87s9.12,5,11.87,8.63c1.81,2.39,2.48,5.19,4.29,7.46,1.5-6.31,6.14-11.22,11-15.25-3.97-2.88-6.89-6.07-5.87-11.38.61-3.19,1.9-5.64,5.13-3.36,4.86,3.42,4.81,10.13,1.25,14.49,3.94-1.03,6.61,4.12,8.09,7.17,2.91,6.01,3.84,12.36,1.92,18.84,4.42-2.15,9.14-7.95,12.38-1.14,3.04,6.4,3.72,15.69.61,22.13,8.78-3.83,13.48-7.18,14.49,5.26.84,10.31-2.41,18.66-11.53,23.95-2.6,1.5-4.8,2.79-7.96,2.29,2.26,4.68,9.38,11.94,4.02,16.77-1.58,1.42-3.73,1.52-5.75,1.2-3.63-.59-6.95-8.95-8.78-11.97l-2.54,3.7c-10.44,8.16-24.14,6.64-33.46-2.45-6.05-5.9.64-7.89,4.67-11.34.52-.44,1.05-.49.83-1.41-3.52-.19-6.82-1.66-9.76-3.49s-9.92-7.84-9.77-11.25,4.93-4.55,7.39-6.14c.49-.31.89.05.64-1.12-5.53-.7-10.19-4.56-13.49-8.76-1.17-1.5-4.66-7.01-4.93-8.62-.14-.83.51-2.99.92-3.62l.5-.5ZM77.78,21.08c1.77-3.53.83-9.54-2.99-10.28-2.16,3.79-.42,9.24,2.99,10.28ZM55.45,29.31c-1.96-1.21-9.71-6.01-11.22-4.73-2.05,9.04-2.87,18.48,4.36,25.21,8.43,7.85,15.95,7.71,14.52-5.86-.59-5.64-2.89-11.68-7.66-14.62ZM68.5,42.92c-1.37,8.79,4.5,24.58,13.35,12.16,6.77-9.5,5.62-20.09-1.44-28.59-1.01-.2-4.84,3.76-6.27,5.44-1.88,2.21-5.32,8.97-5.64,10.99ZM83.39,59.12c-3.36,5.7-5.34,23.29,5.13,20.15,2.71-.81,9.04-7.29,10.16-9.95,3.02-7.16,1.75-14.03-1.51-20.76-3.22.29-10.82,6.27-13.79,10.56ZM56.33,70.83c4.99-5.19-3.4-13.59-8-15.69-6.31-2.88-14.18-1.96-20.22,1.34,1.09,5.75,6.51,12.21,11.96,14.53,4.04,1.71,13.06,3.15,16.26-.17ZM61.86,56.61c-2.04.6-2.34,3.54-1.46,5.26l32.69,53.92c2.85,3.6,8.11-.07,5.58-3.87l-32.44-53.88c-.91-1.58-2.65-1.93-4.36-1.43ZM97.5,78.32c-1.38,1.48-4.05,5-4.47,6.28-2.06,6.24-2.28,19.14,7.69,14.69,10.09-4.51,13.8-16.19,11.1-26.43-.27-1.01.06-2.19-1.24-2.22-1.88-.04-11.9,6.43-13.07,7.69ZM51.4,76.15c-4.84.4-8.88,2.54-12.66,5.54-.44.81.15,2.55.66,3.19,3.58,4.52,9.38,8.53,15.29,9.06,8.34.74,21.82-3.7,11.32-12.69-3.95-3.38-9.39-5.52-14.61-5.1ZM80.73,103.28c-3.21-4.21-11.27-6.76-16.47-6.27-4.91.46-11.44,4.35-14.21,8.52,4.16,5.87,11.5,10.18,18.7,9.47,5.04-.49,16.91-5.26,11.98-11.72Z" style="fill: #101314;"/>
  <path d="M25.5,53.5c-.24.14-.35.27-.5.5-6.92.32-12.25-4.24-11.44-11.43,7-1.46,12.81,3.69,11.94,10.93ZM23.27,51.58c.37-3.82-4.14-7.04-7.18-7.03-.51,4.13,3.85,6.89,7.18,7.03Z" style="fill: #101314;"/>
  <path d="M33.32,94.07c6.48-1.34,13.06,3.79,11.96,10.46-2.74,1.21-7.05.13-9.3-1.77-1.58-1.34-5.21-7.85-2.66-8.69ZM42.5,102c-.55-3.74-3.66-4.98-6.99-5.5.72,3.33,3.38,6.13,6.99,5.5Z" style="fill: #101314;"/>
  <path d="M32.55,7.56c4.05-.59,8.82,3.23,9.41,7.24.79,5.48-.1,8.45-5.53,5.03-4.54-2.86-5.26-7.32-3.88-12.27ZM39.96,18.63c.37-4.64-2.08-8.37-6.04-8.83-.23,3.25,1.94,8.4,6.04,8.83Z" style="fill: #101314;"/>
  <path d="M92.82,28.57c6.41,2.35,7.71,11.35,2.84,15.88-6.54-2.57-8.01-11.04-2.84-15.88ZM93,32.5c-.92,3.35-.79,5.96,1.75,8.49,2.17-2.4,1.58-7.58-1.75-8.49Z" style="fill: #101314;"/>
  <path d="M21.5,69.5c6.91-1.18,13.1,3.25,12.28,10.54-6.86,2.16-13.24-3.35-12.28-10.54ZM31.36,78.07c.27-3.51-3.59-6.41-7.35-6.44-.22,3.69,3.25,6.35,7.35,6.44Z" style="fill: #101314;"/>
  <path d="M108.35,51.06c2.22-.65,5.31,4.29,5.61,6.22,1.2,7.57-4.35,13.78-8.07,4.08-1.01-2.63-.36-9.47,2.46-10.3ZM109.57,53.91c-3.16,1.54-1.5,7.98.83,9.77,2.24-2.66.83-8.23-.83-9.77Z" style="fill: #101314;"/>
</svg>