<?xml version="1.0" encoding="UTF-8"?>
<svg id="uuid-c617bd24-3752-42c2-9985-4aff427562b7" data-name="fill_bathtub" xmlns="http://www.w3.org/2000/svg" xmlns:xlink="http://www.w3.org/1999/xlink" viewBox="0 0 128 128">
  <defs>
    <linearGradient id="uuid-fd5ac223-2ac6-41b6-8d3b-137bab6cf523" x1="-800.7" y1="-855.39" x2="-1017.7" y2="-855.02" gradientTransform="translate(518 518) scale(.5)" gradientUnits="userSpaceOnUse">
      <stop offset="0" stop-color="#a87635"/>
      <stop offset=".49" stop-color="#c19a6d"/>
      <stop offset="1" stop-color="#a87635"/>
    </linearGradient>
    <linearGradient id="uuid-e48d63a0-27f1-425d-923e-5fdb66507bd4" x1="-1017.01" y1="-929.52" x2="-800.01" y2="-929.49" gradientTransform="translate(518 518) scale(.5)" gradientUnits="userSpaceOnUse">
      <stop offset="0" stop-color="#a87635"/>
      <stop offset=".5" stop-color="#c19a6d"/>
      <stop offset="1" stop-color="#a87635"/>
    </linearGradient>
    <linearGradient id="uuid-40622417-1a21-4807-8a85-c5c3586c2b67" x1="-795.12" y1="-896.16" x2="-1007.12" y2="-894.84" gradientTransform="translate(518 518) scale(.5)" gradientUnits="userSpaceOnUse">
      <stop offset="0" stop-color="#706f6e"/>
      <stop offset=".52" stop-color="#a9a9a8"/>
      <stop offset="1" stop-color="#777675"/>
    </linearGradient>
  </defs>
  <path d="M122.07,52.93c.32.45,2.32.17,2.82,2.43.54,2.43.27,12.9-.5,15.28-.28.88-1.37,1.35-1.83,2.17-1.84,3.3.37,15.25-.66,19.84-.58,2.57-4.39,5.15-6.56,6.44-20.48,12.19-74.47,11.12-96.6,2.92-4.79-1.78-10.06-4.24-12.62-8.88-.85-5.82.74-13.25-.14-18.86-.3-1.92-1.69-2.27-2.36-3.64-.93-1.9-.89-11.85-.62-14.4.34-3.32,2.87-2.89,3.03-3.56-.11-5.64.06-11.3,0-16.94-.01-1.18-.58-2.13-.44-3.35.34-2.76,2.84-5.02,5.64-4.91,11.42.44,23.85,3.24,35.52,4.02,16.99,1.14,34.04.17,51-1.5,6.06-.6,13.09-2.3,19.02-2.53,2.51-.1,5.18,1.86,5.46,4.45.03,2.67-.82,20.09-.16,21Z" style="fill: #0e0e0d;"/>
  <path d="M54.5,105c-10.22-.24-20.75-1.29-30.61-4.14-5.78-1.67-11.48-3.87-15.39-8.61v-16.75c5.12,2.9,10.66,4.97,16.5,6v12.75c0,1.36,3,1.36,3,0v-11.75c5.11.32,10.15,1.55,15.25,2,6.37.57,12.89.11,19.2,1.05.48,1.62-1,6.76,1.3,6.98,3.05.29,1.32-5.6,1.75-7.53,11.63.49,23.04-.87,34.5-2.5v12.25c0,.93,2.38,1.16,2.9-.6.61-2.05-.39-11.99.14-12.61,5.8-1.11,11.3-3.2,16.46-6.04v16.75c-4.36,5.28-10.94,7.41-17.39,9.11-9.33,2.45-18.97,3.4-28.61,3.64-6.27.52-12.73.51-19,0Z" style="fill: url(#uuid-fd5ac223-2ac6-41b6-8d3b-137bab6cf523);"/>
  <path d="M119.5,38v18.75c0,3.18-13.41,7.85-16.5,7.75v-10.25c0-.99-3-.99-3,0v11.25l-19.25,2.5-15.25.5v-11.25c0-1.36-3-1.36-3,0v11.25l-15.25-.5-19.25-2.5v-11.25c0-.99-3-.99-3,0v10.25c-3.09.1-16.5-4.57-16.5-7.75v-18.75c3.74,2.4,7.49,4.58,11.73,6.02,22.97,7.82,74.88,8.36,96.12-3.92,1.09-.63,1.91-1.7,3.15-2.1Z" style="fill: url(#uuid-e48d63a0-27f1-425d-923e-5fdb66507bd4);"/>
  <path d="M7.5,70.5c1.17-1.98,1.5-4.43,1-7.33l1-.67c.15-.42.48-.42,1,0,2.22.33,2.66,1.68,3.38,1.97,21.6,8.7,70.17,8.41,92.63,2.29,6.11-1.66,12.15-4.01,15.99-9.26v11.25c0,2.23-7.52,6.17-9.51,6.99-22.29,9.25-75.27,9.19-97.63.14-1.91-.77-5.33-2.37-6.85-3.66-.88-.75-.89-1.6-1.02-1.72Z" style="fill: url(#uuid-40622417-1a21-4807-8a85-c5c3586c2b67);"/>
  <path d="M9.85,30.6c.99-.29,2.8-.16,3.9-.1,8.76.5,18.16,2.76,27,3.5,14.15,1.17,30.85,1.09,45,0,9.49-.73,19.64-3.05,28.98-3.52,3.22-.16,6.88.71,3.78,4.28-6.11,7.06-26.11,10.38-35.26,11.24-17.1,1.6-58,1.47-71.71-9.29-1.43-1.13-5.15-5.09-1.69-6.11Z" style="fill: #6b4c24;"/>
  <path d="M10.5,62.5c-.3-.04-.68,0-1,0l-.52.99c-1.38.18-1.63,2.24-.74,6.17l-.73.84c-.08-.08-.8-.05-1.23-.5-1.66-1.72-.34-9.84-.76-12.5l5,5Z" style="fill: #7e7c7c;"/>
  <path d="M73.5,105c-.51.83-1.9.5-2.74.51-4.5.05-9.01.05-13.51,0-.84,0-2.24.33-2.74-.51,6.21.14,12.79.16,19,0Z" style="fill: #b58853;"/>
  <path d="M14,79.5v11.25c0,.66-1.84.91-2.5.75v-11.75c0-.99,1.82-.52,2.5-.25Z" style="fill: #f9d5a5;"/>
  <path d="M11.5,57v-11.25c0-.94,2.5-.94,2.5,0v10.5c0,.66-1.84.91-2.5.75Z" style="fill: #f9d5a5;"/>
  <path d="M11.5,73v-8c1.84-.11,2.3-.12,2.52,1.73.27,2.28.74,7.23-2.52,6.27Z" style="fill: #c5c4c4;"/>
  <path d="M9.5,62.5c-.1,1.44.83,9.85-2,8-.51-.34-.73-6.29-.43-7.18.36-1.08,1.55-.8,2.43-.82Z" style="fill: #c5c4c4;"/>
</svg>