<?xml version="1.0" encoding="UTF-8"?>
<svg id="fill_oatmilk" xmlns="http://www.w3.org/2000/svg" viewBox="0 0 128 128">
  <path d="M31.81,106.01v-44.52s.06,0,.08,0v-8.13c-7.36-6.77-4.51-17.58,5.36-20-1.5-5.39.32-9.61,4.84-12.59,3.08-12.09,11.21-18.97,22.19-18.86,8.8.09,19.13,5.73,21.63,18.82,4.38,2.93,6.45,6.94,4.84,12.59,4.53,1.14,7.94,3.64,9.11,8.29,1.17,4.67-.32,8.59-3.68,11.49v8.29s.04,0,.06,0v45.97c2.18,8.48-5.44,18.43-16.04,18.62-10.73.19-21.47.14-32.21.01-8.09-.09-14.98-6.12-16.26-14.1-.29-1.82-.04-3.73-.04-5.59.05-.1.09-.19.14-.29Z" style="fill: #4a3726; stroke-width: 0px;"/>
  <path d="M38.99,102.02v-36.75h50.06v36.75h-50.06Z" style="fill: #4883af; stroke-width: 0px;"/>
  <path d="M47.78,39.49h32.59c.83,1.36,1.7,2.78,2.67,4.37,1.43-.9,2.72-1.84,4.12-2.57,1.89-.99,3.71-.89,5.03,1,1.29,1.85.81,3.94-1.23,5.41-1.45,1.05-2.99,1.97-4.7,3.09.96,2.18,1.9,4.3,2.96,6.73h-50.48c1-2.17,1.92-4.19,3.04-6.61-1.47-.99-3.01-2.01-4.52-3.07-2.26-1.58-2.76-3.62-1.41-5.57,1.23-1.79,3.31-2.07,5.55-.71,1.13.69,2.21,1.45,3.47,2.28,1.07-1.58,2.07-3.08,2.93-4.35Z" style="fill: #aeaeae; stroke-width: 0px;"/>
  <path d="M78.89,24.67c1.33.99,2.69,1.75,3.7,2.83.69.73,1.46,2.18,1.16,2.84-.39.87-1.74,1.62-2.79,1.8-1.66.3-3.4.09-5.11.09-9.21,0-18.42,0-27.63,0-1.6,0-3.74.27-3.88-1.81-.08-1.23,1.25-2.67,2.18-3.82.62-.77,1.66-1.21,2.51-1.8.77-11.31,8.52-15.82,15.68-15.57,7.89.28,13.29,6.11,14.18,15.44Z" style="fill: #aeaeae; stroke-width: 0px;"/>
  <path d="M48.67,118.51c-5.32.14-9.21-3.29-9.68-8.74h49.85c.4,4.8-3.93,8.83-9.43,8.75-1.67.16-29.03.16-30.74,0Z" style="fill: #aeaeae; stroke-width: 0px;"/>
  <path d="M70.81,22.3h-13.44c.55-3.26,3.1-5.5,6.36-5.67,3.26-.17,5.91,1.84,7.09,5.67Z" style="fill: #4a3726; stroke-width: 0px;"/>
  <g>
    <path d="M72.28,78.46c2.08-.19,3.19.5,4.11,2.63,3.82-1.22,12.69,2.1,6.36,5.94,1.27,2.88-1.31,5.43-4.09,3.77-.01.07-.2,0-.1.15,1.06,2.07.61,3.35-1.61,4.43,1.69,4.12-2.36,5.28-5.37,3.03,3.08,4.98-3.08,9.56-5.81,4.06-1.02-2.7-1.91-5.33-2.95-8.04-.72,3.56-4.83,5.03-6.02.91-2.04,1-4.18-.46-4.02-2.86-.8,3.2-4.78,3.88-5.67.23-2.46,1.15-5.13-1.46-3.63-3.81,1.15-1.94,2.49-3.71,4.55-4.77-2.2-7.49,5.8-4.79,9.79-3.43-.77-2.54-2.45-4.91-.51-7.31,2.18-3.13,4.3-6.32,6.37-9.53,1.53-3.13,6.23-2.6,6.69.98,2.72-.5,8.09-.18,8.42,3.17.03,1.28-.62,2.13-2.13,2.76,1.51,2.64-1.41,5.51-3.99,3.78-.04.06-.2.03-.13.17.77,1.26.65,2.42-.22,3.6,0,0-.06-.01-.06-.01,0,.04.04.08.07.1l-.03.06ZM56.38,87.42c-.83-.24-1.74-.51-2.52-.73-.19,1.51-.38,2.97-.56,4.44,1.15-.87,2.02-2.56,3.08-3.71ZM70.93,73.59c-1.31-.86-2.47-1.88-3.25-3.38-.59.9-1.15,1.74-1.63,2.46,1.63.37,3.22.72,4.8,1.08,0-.06.04-.12.09-.16ZM76.94,89.85c-1.07-.96-2.15-1.92-3.26-2.92-.42.63-.92,1.38-1.35,2.03,1.52.35,3.02.69,4.51,1.04,0-.06.04-.11.09-.15Z" style="fill: #4a3726; stroke-width: 0px;"/>
    <path d="M61.03,76.1c1.68,4.61,3.34,9.16,5.05,13.86,1.55-1.4,5.77-10.57,7.51-9.12.6.37.69,1.06.17,1.85-2.22,3.36-4.45,6.67-6.67,10.03.24,1.77,4.44,9.27,2.37,9.8-2.17.68-2.69-5.02-3.63-6.48-1.11-3.06-2.22-6.12-3.35-9.21-3.85-1.14-7.66-2.24-11.5-3.37-.9-.27-1.32-.82-1.14-1.48.18-2.38,9.6,2.02,11.6,2.09-.58-2.82-3.22-6.4-2.46-9.07,1.43-1.49,6.96-12.46,8.54-10.82,2.21.81-5.74,9.99-6.5,11.9Z" style="fill: #ad996e; stroke-width: 0px;"/>
    <path d="M75.44,84.12c1.33-1.54,5.4-1.04,7.19.19-.86.93-2.14.85-3.17,1.46.48.98.96,1.97,1.43,2.95-1.6.81-5.35-2.44-5.45-4.6Z" style="fill: #beb696; stroke-width: 0px;"/>
    <path d="M60.51,88.51c1.22,1.82.46,6.54-1.24,7.02-.26-1.04-.52-2.07-.8-3.2-1.11.38-2.18.74-3.31,1.12.06-1.71,3.15-5.39,5.36-4.94Z" style="fill: #beb696; stroke-width: 0px;"/>
    <path d="M63.63,76.18c1.17-1.49,4.91-1.2,7.3.14-.97.86-2.22.92-3.28,1.48.47.96.94,1.92,1.55,3.16-2.94-.09-5.53-2.94-5.57-4.78Z" style="fill: #beb696; stroke-width: 0px;"/>
    <path d="M50.76,85.84c1.57,1.62.22,6.02-1.14,7.23-.32-1.18-.6-2.24-.92-3.42-1.06.38-2.11.75-3.16,1.12-.48-1.79,3.09-5.03,5.22-4.93Z" style="fill: #beb696; stroke-width: 0px;"/>
    <path d="M76.5,67.88c-.32,1.08-2.18,1.06-3.12,1.58.5,1.07.97,2.07,1.48,3.17-2.1-.03-5.77-2.72-5.46-4.76,1.11-1.4,4.44-1.24,7.1,0Z" style="fill: #beb696; stroke-width: 0px;"/>
    <path d="M77.06,92.76c-1.2.47-2.23.87-3.33,1.31.49,1.05.95,2.05,1.45,3.12-1.96.08-5.88-2.78-5.46-4.77,1.31-1.63,5.72-.92,7.33.34Z" style="fill: #beb696; stroke-width: 0px;"/>
  </g>
</svg>