<?xml version="1.0" encoding="UTF-8"?>
<svg id="uuid-8fc0066b-7a28-403d-bf38-9e2f7ed39ff8" data-name="fill_sorghumcut" xmlns="http://www.w3.org/2000/svg" xmlns:xlink="http://www.w3.org/1999/xlink" viewBox="0 0 128 128">
  <defs>
    <linearGradient id="uuid-642293c0-bcaa-4cd7-b265-ad2c1b52b3ed" x1="-1202.9" y1="-400.5" x2="-1203.49" y2="-246.5" gradientTransform="translate(666 222) scale(.5)" gradientUnits="userSpaceOnUse">
      <stop offset="0" stop-color="#c19770"/>
      <stop offset="1" stop-color="#ae835a"/>
    </linearGradient>
    <linearGradient id="uuid-982be482-62e6-4dff-b27a-3ca79b0c9b4a" x1="-1151.95" y1="-301.94" x2="-1119.05" y2="-233.43" gradientTransform="translate(666 222) scale(.5)" gradientUnits="userSpaceOnUse">
      <stop offset="0" stop-color="#ae8359"/>
      <stop offset=".75" stop-color="#815226"/>
      <stop offset="1" stop-color="#7f5024"/>
    </linearGradient>
    <linearGradient id="uuid-b1f3146f-c52b-4ca0-b10b-449043dddcb4" x1="-1146.51" y1="-372.01" x2="-1178.15" y2="-333.23" gradientTransform="translate(666 222) scale(.5)" gradientUnits="userSpaceOnUse">
      <stop offset="0" stop-color="#86ad61"/>
      <stop offset="1" stop-color="#5b8730"/>
    </linearGradient>
    <linearGradient id="uuid-4286f66b-b638-4b24-b1f1-32f0049e2e0f" x1="-1298.68" y1="-354.33" x2="-1262.37" y2="-325.55" gradientTransform="translate(666 222) scale(.5)" gradientUnits="userSpaceOnUse">
      <stop offset="0" stop-color="#85ad61"/>
      <stop offset="1" stop-color="#5f8b35"/>
    </linearGradient>
    <linearGradient id="uuid-616b7692-37b5-4385-a400-916c9b0c01b8" x1="-1160.48" y1="-335.53" x2="-1183.41" y2="-265.17" gradientTransform="translate(666 222) scale(.5)" gradientUnits="userSpaceOnUse">
      <stop offset="0" stop-color="#ab8158"/>
      <stop offset="1" stop-color="#80572f"/>
    </linearGradient>
    <linearGradient id="uuid-955fdc1d-b1f7-4c4c-b183-7cbf51369d51" x1="-1205.21" y1="-355.15" x2="-1197.07" y2="-285.63" gradientTransform="translate(666 222) scale(.5)" gradientUnits="userSpaceOnUse">
      <stop offset="0" stop-color="#ab8057"/>
      <stop offset="1" stop-color="#81582e"/>
    </linearGradient>
    <linearGradient id="uuid-5f26eeae-348d-4088-aa5f-464f2c045e76" x1="120.02" y1="104.76" x2="102.11" y2="120.88" gradientTransform="matrix(1,0,0,1,0,0)" xlink:href="#uuid-4286f66b-b638-4b24-b1f1-32f0049e2e0f"/>
    <linearGradient id="uuid-e0dc9218-64ca-47bb-955c-14f6affb33d3" x1="81.38" y1="104.77" x2="99.7" y2="120.69" gradientTransform="matrix(1,0,0,1,0,0)" xlink:href="#uuid-b1f3146f-c52b-4ca0-b10b-449043dddcb4"/>
  </defs>
  <path d="M.78,85.23c.43-.83,1.06-1.59,1.47-2.44.76-1.55.66-3.09,1.71-4.23,1.4-1.54,3.48-2.56,4.69-4.29,1.16-1.53,1.56-3.48,2.49-5.14,1.6-3.4,7.04-4.77,6.58-9.15-.71-2.87-2.92-5.18-3.47-8.16-.7-2.92-1.99-7.11-.53-9.34,3.02-3.7,11.45-1.94,15.45-.81,1.02.28,2.26.62,3.16-.04,1.59-1.34,1.76-3.93,2.85-5.65,1.14-2.15,3.94-3.21,5.5-5.37,1.28-1.63,1.79-4.02,2.98-5.18,1.45-1.45,4.04-1.51,6.07-2.73,1.78-.93,3-2.79,4.88-3.51,1.98-.73,4.16.07,6.21-.13,2.35-.1,4.77-1.69,6.78-1.33,2.62.58,4.62,2.91,7.42,2.98,6.05.13,5.34,2.46,9.19,6,1.35,1.07,3.13,1.72,4.27,2.8.76.65,1.4,1.47,2.36,1.82,1.1.44,2.98-.04,4.4.54,3.26,1.53,2.6,6.3,2.66,9.34,0,3.57,2.43,7.06,5.42,8.99,2.53,1.75,2.82,4.93,4.28,7.41,1.34,2.29,4.33,3.42,5.61,5.72,1.15,1.87,1.45,4.25,2.85,5.96,1.43,1.77,4.09,3.04,5.28,5.23.84,1.36,1.2,2.97,2.07,4.31.72,1.22,2.3,1.94,3.02,2.96.64.87.55,1.97.52,3.01-.04,1.47.63,2.82.84,4.26.19,1.46-.39,3.17-.61,4.83-.22,1.16-.19,2.53-.89,3.49-.88,1-2.28,1.45-3.21,2.42-1.24,1.08-1.82,2.58-3.1,2.93-.74.32-1.93.34-2.61.64-.03.32,1.5.27,1.9.3,2.23-.08,4.62.22,5.82,1.71,1.55,1.74.75,4.56-1.1,5.87-6.18,3.84-12.35,7.37-17.59,12.53-2.75,2.63-8.37,2.28-11.17.05-4.55-4.49-9.62-8.11-15.3-11.14-1.9-1.05-4.68-2.98-4.36-5.34.3-3.02,4.9-3.85,7.68-3.86.93-.07.85-.33-.17-.53-1.74-.36-4.08.05-5.87.46-5.39,1.24-10.03.96-15.4-.1-2.1-.44-4.29-.38-6.38.1-5.52,1.29-10.38.89-15.85-.24-1.57-.26-3.19-.23-4.75.06-5.26,1.14-9.69,1.39-14.84.27-2.79-.83-5.33.6-7.82.65-1.15-.14-2.1-1.38-3.51-2.13-1.33-.79-2.69-.89-3.85-1.72-.87-.86-1.1-2.22-1.75-3.25-.89-1.63-2.41-2.63-2.48-4.5.1-2.3-.61-5.24.15-7.17l.07-.15Z" style="fill: #050403;"/>
  <path d="M41.5,88c.18-.15,4.17-.63,4.69-.45,1.3.46-.07,3.27,3.57,3.48,1.17.07,5.97-.64,6.5-1.52,1.08-1.83-.63-9.65-.78-12.24-.34-6.04,1.18-12.82.48-18.49-.06-.45-.18-1.08-.42-1.45-.72-1.14-8.67-1.74-9.16.8l-.88,3.37c-.41-1.99-.82-8.83-2.85-9.41-.98-.28-2.29.19-3.17-.33-.8-.47-2.8-6.1-4.77-6.77l-.14-.64c1.65-2.04,1.62-5.34,3.2-7.33,1.24-1.55,4.05-2.56,5.24-4.26.95-1.37,1.42-4.22,2.72-5.28,1.21-.98,3.91-1.14,5.45-2.05,1.39-.82,3.12-3.48,4.69-3.84.94-.21,4.37.63,6.35.37,1.5-.2,3.32-1.41,4.59-1.46,1.64-.06,3.7,2.32,5.17,2.78,1.68.52,5.07.1,6.52.98.96.58,2.33,3.84,3.16,4.59.64.58,5.26,2.52,5.36,2.9.26.96-.42.73-1,.98-3,1.24-6.05,2.15-8.52,4.5-4.19,3.97-7.18,15.4-4.59,20.63,1.38,2.78,4.53,1.31,7.11,1.65l-7.01,16.49-5.61-34.14c-.58-1.45-1.72-1.45-3.12-1.37-.86.05-3.7.41-4.41.62-2.03.59-1.95,2.98-1.85,4.64.35,5.85,1.98,12.77,2.87,18.63.49,3.25,1.81,17.27,3.11,18.88,1.5,1.85,3.08.8,5.02.74.68.68-2.7,4.63-1.25,7.01.66,1.09,7.21,3.6,8.52,2l16-36.5c-.18-2.97,1.54-3.85,2.95-6.05.64-1,.68-2.16,1.53-2.97.59,2.94,4.41,3.74,5.98,6.02,1.21,1.75,1.53,4.88,2.57,6.45,1.14,1.72,5,3.44,5.58,4.15.55.66,1.39,4.85,2.39,6.36,1.17,1.75,4.67,3.32,5.46,4.54.74,1.15,1.23,4.6,2.33,6.17.76,1.09,2.65,1.24,2.9,2.13.2.74-.66,2.15-.47,3.4.18,1.16,1.65,1.7,1.49,2.46s-2.2,1.77-2.36,2.62c-.14.73.85,2.42.34,3.14-.23.32-2.78.61-3.33,1.16-.62.62-.31,2.57-1.61,2.89.62-2.49.64-4.16-.14-6.61-1.57-4.94-4.15-9.48-5.88-14.12-.96-2.56-1.29-6.55-2.38-8.62-.49-.93-4.27-5.35-5.12-5.88-2.1-1.31-4.63-1.46-6.84-.38-1.57.77-5.72,6.04-6.25,7.75-.41,1.33-.19,2.51-.5,3.5-1.9,6.08-5.27,11.74-7.25,17.75-.84,2.55-.57,4.04-.14,6.61-4.58-.92-9.53,1.46-13.75,1.54-3.24.06-7.4-1.77-10.58-1.86s-7.55,1.79-10.92,1.86-7.41-1.77-10.58-1.86-7.27,1.72-10.44,1.84c-3.4.12-7.99-1.88-11.08-1.88-1.24,0-2.61,1.5-3.35,1.32-.69-.16-1.01-1.82-1.79-2.22-.99-.51-3.33-.06-3.49-.26-.11-.14-.12-2.45-.79-3.46-.57-.86-1.94-1.1-2.18-1.85-.31-.98.61-2.22.46-3.38-.12-.97-1.44-2-1.4-2.54.04-.59,2.03-1.63,2.3-2.59.33-1.16-.22-2.57.34-3.66.47-.91,3.79-2.5,4.77-3.73,1.41-1.77,1.56-5.1,2.77-6.73,1.59-2.15,6.46-3.39,6.22-7.04,2.62.38,4.78,2.11,7.49,2.78.96.24,1.7.11,2.51.23.44.14.43.31,0,.5-1.67-.1-7.18,2.26-7.75,3.51-.76,1.66.61,4.03,1.32,5.67,2.59,6.02,6.39,11.94,8.98,18.02,1.28,2.42,8.4-1.03,8.85-2.54.22-.73,0-2.57.09-2.66Z" style="fill: url(#uuid-642293c0-bcaa-4cd7-b265-ad2c1b52b3ed);"/>
  <path d="M86.07,98.18c-.29-.9-.17-3.8.04-4.82.34-1.65,2.03-2.81,2.29-3.71.31-1.09-.02-2.36.33-3.67.45-1.7,2.97-4.87,3.64-6.86,1.76-5.14.15-5.71,4.14-10.49,1.36-1.63.84-3.18,4.24-3.18s2.88,1.55,4.24,3.18c1.2,1.44,2.08,1.48,2.79,3.84,1.01,3.31,1.84,7.34,2.72,10.66.14.52,1.58.76,2.12,2,.71,1.63.06,3.13.47,4.53.22.74,1.21,1.18,1.62,1.88,1.23,2.08,1.1,5.84.06,7.99-.44.9-4.57,6.22-5.3,6.7s-4.76,2.44-5.69,2.81c-1.58.62-3.67.68-5.31.23-.75-.21-4.84-2.25-5.75-2.75-1.69-.94-2.85-1.67-3.95-3.49-1.61-1.63-2.4-3.86-2.71-4.84Z" style="fill: url(#uuid-982be482-62e6-4dff-b27a-3ca79b0c9b4a);"/>
  <path d="M82.47,36.82c2.42-1.34,7.96-2.88,11.39-2.61,1.9.44.9,4.33,1.14,5.91.33,4.09-.94,6.57-2.76,9.66-.48.86-1.09,1.81-2.12,1.99-1.75.26-4.07-1.66-5.86-.28-2.73,2.14-1.39,5.73-6.08,5.53-2.94.08-3.32-.48-3.18-3.37.06-2.61-.26-5.3.52-7.53.51-1.61,1.03-3.28,1.94-4.7,1.27-1.91,3.31-3.44,4.89-4.53l.11-.07Z" style="fill: url(#uuid-b1f3146f-c52b-4ca0-b10b-449043dddcb4);"/>
  <path d="M18.38,55.62c-1.65-2.47-2.39-6.79-2.52-10.2-.05-.86.19-1.7,1.11-1.96,6.04-1.41,13.55.36,17.63,5.13.91,1.22,2.54,3.38,1.18,4.72-.41.42-.86.94-1.03,1.68-.95,2.37,3.25,8.87-1.31,8.51-5.78-.22-12.1-2.34-14.99-7.75l-.08-.13Z" style="fill: url(#uuid-4286f66b-b638-4b24-b1f1-32f0049e2e0f);"/>
  <path d="M89.48,54.52c.18,1.23-.29,2.36-.73,3.47-2.97,7.44-6.71,14.72-9.94,22.06-1.57,3.56-3.09,7.26-4.31,10.95l-4.49-1.53,15.04-35.17c1.12-1.85,2.78.33,4.43.22Z" style="fill: url(#uuid-616b7692-37b5-4385-a400-916c9b0c01b8);"/>
  <polygon points="65 43 70.46 80.97 66.04 81.45 60.5 43.5 65 43" style="fill: url(#uuid-955fdc1d-b1f7-4c4c-b183-7cbf51369d51);"/>
  <path d="M53.5,59c-.04,7-1.07,14.23-.52,21.27.2,2.61,1.33,5.08,1.02,7.73l-4.5.5c-.55-5.59-1.68-11.11-1.5-16.75.03-.94.48-1.91.52-2.98.1-2.52-.44-6.27-.02-8.52.39-2.13,3.43-1,5-1.25Z" style="fill: #986c41;"/>
  <path d="M41.49,54.5c.94,3.83,1.41,7.76,2.12,11.64.43,2.33,1.53,5.36,1.85,7.65.45,3.25-.04,7.17,1.05,10.44,0,.34-2.98,1.06-3.55.56l-6-28.98,4.53-1.31Z" style="fill: #986c41;"/>
  <path d="M38.44,89.94c-.12.17-3.77,1.68-3.94,1.56l-9.48-20.96c1.35-.01,3.19-2.24,4.22-1.05l9.01,18.5c.17.53.48,1.54.18,1.96Z" style="fill: #986c41;"/>
  <path d="M30,65.5c2.18.31,4.14.74,6.45.55.19,2.38,3.86,16.45,3.04,17.45-.33.06-.54-.26-.74-.51-3.43-4.2-4.82-12.76-8.76-16.99v-.5Z" style="fill: #bd936c;"/>
  <path d="M122.5,107.51c-1.68,2.14-5.36,2.73-7.5,3.99-1.72,1.01-4.08,3.17-5.74,4.51-1.99,1.61-4.03,3.8-6.02,5.49-1.19.24-.79-1-.69-1.7.31-2.16.92-3.49,1.95-5.3,1.41-2.3,3.19-3.88,5-5,1.68-.99,3-1.61,5-2,2.61-.51,5.42-.86,8,.01Z" style="fill: url(#uuid-5f26eeae-348d-4088-aa5f-464f2c045e76);"/>
  <path d="M78.91,41.04c1.37-2.76,4.45-3.54,7.23-4.35.5-.13.99-.25,1.48-.28,1.71-.15,2.35,1.1,1.26,1.94-1.71,1.16-3.97,1.58-5.42,3.2-1.66,1.55-2.49,3.62-3.57,3.93-1.96.15-1.68-3.07-1.06-4.26l.09-.18Z" style="fill: #b3d78f;"/>
  <path d="M20.05,56.44c-.78-1.63-1.66-3.7-2.02-5.55-.27-2.25,2.08-2.24,2.71-.4.71,1.86,1.37,3.91,3.05,5.13,1.38,1.13,3.7,2.02,3.66,2.96-.16.87-1.34,1.02-2.11,1.12-2.2.24-4.19-1.26-5.19-3.09l-.09-.17Z" style="fill: #b3d78f;"/>
  <path d="M99,121.5c-.85.21-1-.33-1.5-.75-2.54-2.12-5.44-5.41-8-7.25-2.34-1.68-6.3-3.48-8.99-4.76-.59-.27-1.38-.48-1.51-1.24,3.98.03,7.23-.46,11,1,6.05,2.35,8.69,6.4,9,13Z" style="fill: url(#uuid-e0dc9218-64ca-47bb-955c-14f6affb33d3);"/>
  <path d="M87.48,98.71c-.03-.78-.05-1.96.28-2.74.55-1.01,1.66-.52,2.24.43,1.04,1.75,2.32,3.49,3.53,5.05.88.93,2.22,1.95,1.15,3.28-1.23,1.04-2.53-.9-3.47-1.61-1.57-1.04-3.29-2.43-3.72-4.27l-.02-.14Z" style="fill: #bd936c;"/>
  <path d="M105.63,114.72c.39-1.97,3.26-5.12,5.28-4.56,1.84.77-.18,2.44-1.03,3.15-.83.69-1.52,1.61-2.25,2.38-.4.4-.84.63-1.24.47-.53-.15-.72-.75-.77-1.28v-.17Z" style="fill: #b3d78f;"/>
  <path d="M41.5,88c-.24.24-.8-.46-.25-.5.17-.01.36.39.25.5Z" style="fill: #bd936c;"/>
  <path d="M107.37,101.88c.51-.41.49-2.06.91-2.85.38-.73,1.3-1.13,1.73-1.77.64-.95.98-4.05,2.23-3.76,2.66,1.96-.26,5.06-1.45,7.04-.4.66-.47,1.52-.86,2.14-1.46,2.33-5.18,2.39-4.43.07.22-.7,1.51-.57,1.87-.87Z" style="fill: #5d3a1a;"/>
  <path d="M95.54,80.39c-1.63.83-2.61-1.21-2.1-2.81.19-.99,1.14-1.87,1.33-2.74.15-1.01.06-2.2.61-3.19.49-1.27,2.81-2.88,3.55-1.16.23.93-1.51,2.17-1.34,3.49.26,1.98-1.04,3.37-1.56,5.16-.09.38-.14.85-.39,1.16l-.1.1Z" style="fill: #bd936c;"/>
  <path d="M109.37,85.13c1.44,1.44,1.63,6.29-.56,5.84-1.84-.38-1.14-3.83-1.3-3.97-.25-.22-3.07.61-3.02-1.25.06-2.37,3.63-1.87,4.89-.61Z" style="fill: #5d3a1a;"/>
</svg>