<?xml version="1.0" encoding="UTF-8"?>
<svg id="fill_parsnip" xmlns="http://www.w3.org/2000/svg" viewBox="0 0 128 128">
  <path d="M42.04,10.93c.17-.52.58-1.77.98-3.02,1.75-5.39,8.45-6.94,13.44-2.75,1.46-.25,3.19-.51,4.91-.83,5.87-1.09,9.3,2.62,10.16,9.97.65,5.56,1.36,11.05,5.72,15.66,3.71,3.91,4.18,9.68,4.99,15.02,1,6.65,2.27,13.27,3.37,19.91,1.01,6.03,1.96,12.07,2.93,18.11,1.15,7.17,2.05,14.38,3.42,21.51,1.16,6.08,3.29,11.4,2.59,17.22-4.85,5.32-8.41,4.45-11.35-1.54-3.22-6.56-7.02-12.84-10.67-19.18-4.52-7.86-9.58-15.45-13.61-23.56-5.21-10.49-16.61-32.22-16.56-32.65.76-7.63-3.54-12.46-6.71-18.15-2.73-4.88-3.32-9.32-.32-11.78,1.73-1.42,3.89-2.31,6.72-3.93Z" style="fill: #4a3726; stroke-width: 0px;"/>
  <path d="M78.87,52.58c3.4,21.82,6.67,42.83,9.94,63.85-.16.19-.31.37-.47.56-.97-.91-2.21-1.66-2.85-2.76-6.05-10.33-12-20.73-17.96-31.12-.2-.35-.22-.8-.46-1.72,1.02-.65,2.07-1.45,3.22-2.02.93-.46,2.02-.6,3-.99,1.73-.69,3.54-1.59,2.77-3.89-.79-2.36-2.92-2.52-4.74-1.63-8.26,4.03-8.26,1.63-12.01-4.91-3.74-6.53-7.42-13.1-10.73-19.86-3.02-6.18-.37-14.09,5.51-18,7.56-5.03,16.81-2.45,20.69,5.88,1.06,2.28,1.95,4.7,2.49,7.15.46,2.07-.62,3.72-2.69,4.5-3.05,1.15-6.13,2.24-9.17,3.41-1.88.72-4.27,1.42-3.35,4.09.92,2.66,3.12,1.81,5.06,1.03,2.25-.91,4.49-1.88,6.79-2.63,1.41-.46,2.93-.56,4.94-.92Z" style="fill: #beb696; stroke-width: 0px;"/>
  <path d="M56.77,23c-1.46.47-2.77.9-4.71,1.53-1.62-4.78-3.25-9.09-4.44-13.53-.23-.85,1.09-2.51,2.09-3.16.59-.38,2.6.24,2.9.9,1.97,4.33,4.94,8.43,4.15,14.26Z" style="fill: #96a775; stroke-width: 0px;"/>
  <path d="M47.71,27.41c-.84.96-1.59,2.57-2.5,2.67-1.12.12-2.82-.71-3.48-1.68-1.29-1.89-2.13-4.12-2.97-6.29-.81-2.1-.54-4.07,1.77-5.05,2.39-1.01,3.44.51,4.17,2.52.9,2.47,1.88,4.91,3,7.84Z" style="fill: #96a775; stroke-width: 0px;"/>
  <path d="M65.98,21.3c-2.82-1.44-4.92-6.76-4.03-11.35,1.1.46,2.35.6,2.99,1.31,1.61,1.78,2.13,8.31,1.04,10.03Z" style="fill: #96a775; stroke-width: 0px;"/>
</svg>