<?xml version="1.0" encoding="UTF-8"?>
<svg id="uuid-655b9737-923c-4c0a-9685-498087a37208" data-name="fill_soymilkbottled" xmlns="http://www.w3.org/2000/svg" xmlns:xlink="http://www.w3.org/1999/xlink" viewBox="0 0 128 128">
  <defs>
    <linearGradient id="uuid-34776e9b-e23c-44ad-873e-7ca9675bffce" x1="-2190.87" y1="701.7" x2="-2246.67" y2="803.52" gradientTransform="translate(1184 -296) scale(.5)" gradientUnits="userSpaceOnUse">
      <stop offset="0" stop-color="#ecdc66"/>
      <stop offset="1" stop-color="#ddbb42"/>
    </linearGradient>
    <linearGradient id="uuid-0199c549-c5c5-43ce-84e3-949100faa6e3" x1="-2209.25" y1="721.3" x2="-2287.98" y2="773.87" gradientTransform="translate(1184 -296) scale(.5)" gradientUnits="userSpaceOnUse">
      <stop offset="0" stop-color="#ddbb41"/>
      <stop offset=".38" stop-color="#ddbb42"/>
      <stop offset="1" stop-color="#ecdc66"/>
    </linearGradient>
    <linearGradient id="uuid-5664aa2a-9e74-4e24-a6e9-b5deab76671c" x1="-2248.26" y1="748.56" x2="-2231.36" y2="749.11" gradientTransform="translate(1184 -296) scale(.5)" gradientUnits="userSpaceOnUse">
      <stop offset="0" stop-color="#fef3b9"/>
      <stop offset="1" stop-color="#fedf6e"/>
    </linearGradient>
    <linearGradient id="uuid-da5c73c1-9911-49aa-85cf-ec5b9e62eec4" x1="-2256.91" y1="765.7" x2="-2277.7" y2="765.82" gradientTransform="translate(1184 -296) scale(.5)" gradientUnits="userSpaceOnUse">
      <stop offset="0" stop-color="#fedd69"/>
      <stop offset="1" stop-color="#fef5bd"/>
    </linearGradient>
  </defs>
  <path d="M48.83,5.24c9.38.37,19.65-.83,28.92-.12,2.04.16,3.35.55,3.7,2.8.23,1.49.27,6.51.02,7.96-.4,2.35-4.27,1.8-2.89,6.41l16.66,16.83,1.5,2.5.24,74.77c-.38,3.59-3.24,5.97-6.73,6.27-16.94,1.44-35.88-1.13-53.03,0-2.8-.32-5.01-2.5-6-5l-.21-75.24,1.71-3.29,16.5-16.49c2.02-4.45-2.45-4.39-2.77-7.22-.29-2.65-.68-9.27,2.37-10.18Z" style="fill: #030304;"/>
  <path d="M75.48,18.64c.13,1.41-.34,3.18.26,4.49.15.32,4.04,4.52,4.73,5.27,3.64,3.95,9.84,8.71,12.78,12.72.68.92,1.03,1.67,1.19,2.81l.06,71.47c-.41,3.15-2.17,4.49-5.24,4.76-16.24,1.43-34.57-1.13-51.04-.01-2.21-.25-3.83-1.38-4.5-3.5l-.12-73.15c.18-.98.54-1.61,1.11-2.39,2.95-4,9.15-8.77,12.78-12.72.69-.75,4.58-4.95,4.73-5.27.6-1.32.13-3.08.26-4.49h23Z" style="fill: #e4f6fb;"/>
  <path d="M49.8,7.71h28.36c1.33.43,1.06,7.24.35,7.71l-28.71.15c-1.27-.42-1.28-7.45,0-7.86Z" style="fill: #334ab5;"/>
  <path d="M89.22,71.55c-1.75-10.64-7.32-23.23-18.29-27.1-14.08-4.97-25.78,5.49-29.98,18.65-2.39,6.94-3.56,14.48-2.02,21.72,2.96,17.48,18.8,32.56,35.93,22.74,11.31-7.08,16.49-22.93,14.39-35.82l-.03-.2Z" style="fill: #9c9e00;"/>
  <path d="M50.49,8.64c3.51-1.55,2.93,6.16,1.74,6.5-2.74.78-1.51-5-1.74-6.5Z" style="fill: #859cfc;"/>
  <g>
    <path d="M55.09,94.99c-3.77,1.15-7.65,1.63-11.42.19-4.06-1.55-11.14-7.38-6.96-12.41,1.26-1.52,5.61-2.28,7.63-3.03,11.08-4.15,21.02-13.08,28.15-22.89,2.56-3.53,5.47-10.78,10.73-7.32,3.45,2.27,6.88,8.44,7.18,12.74.34,4.86-1.07,6.77-2.71,10.82-2.29,5.67-.4,10.68-3.96,16.19-1.72,2.66-4.45,4.12-6.39,6.35-1.08,1.23-2.01,4-3.04,5.54-4.15,6.23-11,6.71-17.46,4.74-2.62-.8-5.37-2.38-5.09-5.81.22-2.62,1.83-3.43,3.34-5.11Z" style="fill: #070603;"/>
    <path d="M76.02,95.13c-1.7,2.19-2.32,5.15-4.6,7.35-4.03,3.88-11.38,3.77-16.08,1.42-2.04-1.02-3.01-3.48-1.58-5.57.98-1.44,4.03-3.59,5.43-5.05,7.86-8.21,13.25-19.27,16.15-30.55.79-3.07,1.23-7.63,2.19-10.32s3.63-2.89,5.62-1.24c4.63,3.84,6.99,10.55,5.39,16.63-.74,2.83-2.96,5.83-3.4,8.77-.47,3.12.07,5.63-1.09,8.91-1.8,5.08-5.2,6.02-8.02,9.66Z" style="fill: url(#uuid-34776e9b-e23c-44ad-873e-7ca9675bffce);"/>
    <path d="M74.86,58.73c-.15.16-.54.19-.74.35-2.53,2.01-4.47,5.05-4.01,8.6.14,1.13,1.14,2.37,1.19,3.14s-.72,1.63-.73,2.44l-3.13-1.69c-8.94-2.03-15.13,13.54-3.64,13.97-.77.65-1.23,1.95-1.92,2.6-.63.59-1.31.59-1.94,1.03-1.79,1.26-2.32,2.93-4.68,4.04-5.94,2.8-14.48,1.39-17.92-4.98-1.25-2.31-.37-4.53,1.91-5.42s4.99-1.44,7.38-2.45c11.7-4.94,21.74-14.84,28.89-25.72.21.69-.31,3.68-.66,4.08Z" style="fill: url(#uuid-0199c549-c5c5-43ce-84e3-949100faa6e3);"/>
    <path d="M67.81,78.86c-.23.44-.54,1.08-.82,1.57-.48.83-1.69,3.02-2.41,3.37-1.64.79-4.24.11-5.18-1.56-2.77-4.9,4.27-11.33,8.68-9.03.33.17,1.41,1.21,1.49,1.53.12.49-1.41,3.43-1.76,4.12Z" style="fill: url(#uuid-5664aa2a-9e74-4e24-a6e9-b5deab76671c);"/>
    <path d="M73.68,62.18c.6.45,0,2.32-.22,3.07-.12.41-1.08,3.89-1.56,3.62-.88-.49-.56-3.3-.3-4.19.22-.73,1.18-3.17,2.08-2.5Z" style="fill: #fdf7d0;"/>
    <path d="M77.47,58.55c.47-.17,1.05.01,1.06.6.01.77-.78,3.92-1.03,4.86-.32,1.2-1.69,5.56-2.34,6.29-.6.66-1.34.42-1.18-.47.78-1.96,1.64-3.89,2.2-5.94.43-1.57.57-3.14.91-4.71.06-.28.06-.53.37-.64Z" style="fill: #fdf7d0;"/>
    <path d="M62.5,91.66c.56-.16.92.25.77.83-.03.12-1.3,1.7-1.53,1.98-.81.98-4.29,4.59-5.21,5.03-.85.41-1.6-.16-.98-1.05.28-.4,1.48-1.08,1.95-1.53.79-.76,4.54-5.13,4.99-5.27Z" style="fill: #fdf7d0;"/>
    <path d="M45.98,82.14c2.98-2.76,10.66-2.49,11.67,2.49,1.41,7.01-8.47,11.6-12.95,6.87-1.6-1.68-1.93-4.27-.92-6.42.26-.55,1.78-2.55,2.2-2.94Z" style="fill: #0c0b06;"/>
    <path d="M39.2,85.49c-.48.61-.07,1.81-1.52,1.48-.47-2.28,2.28-4.48,4.11-3.23.3,1.15-1.97.96-2.59,1.75Z" style="fill: #fdf7d0;"/>
    <path d="M61.3,75.9c.58-.18,1.2.08,1.01.82-.12.46-1.1,1.06-1.32,2.23-.15.78.59,2.59-.92,2.05-1.09-.38-.05-4.7,1.23-5.11Z" style="fill: #fefdf7;"/>
    <path d="M45.5,90.5c-1.86-1.99-.96-5.69,1.15-7.01.46-.29.9-.15,1.19-.31,1.15-.64,1.27-1.26,2.78-1.38,3.15-.25,6.72,1.41,5.75,5.38-1.05,4.3-7.97,6.43-10.87,3.32Z" style="fill: url(#uuid-da5c73c1-9911-49aa-85cf-ec5b9e62eec4);"/>
    <path d="M50.5,83.09c.26,1.53-.91,1.26-1.86,1.76s-1.44,1.07-1.95,2.06c-.14.27-.27,1.03-.32,1.07-.56.42-1.26-.08-1.09-1.02.14-.81,1.78-2.99,2.38-3.28.55-.27,1.1.36.91-.84l1.93.26Z" style="fill: #fefdf7;"/>
  </g>
</svg>