<?xml version="1.0" encoding="UTF-8"?>
<svg id="fill_liquidfertilizer" xmlns="http://www.w3.org/2000/svg" viewBox="0 0 128 128">
  <path d="M71.31,10.31c2.31-4.37,6.62-5.17,11.51-4.97,4.41.19,8.84.26,13.24,0,10.47-.75,13.74,9.58,9.73,17.4,5.79,8.66,8.87,17.91,8.8,28.24-.12,18.71-.04,37.43-.03,56.14,0,9.16-6.32,15.55-15.54,15.56-23.42.02-46.83.02-70.25,0-9.01,0-15.33-6.4-15.32-15.44.02-21.21-.21-42.42.25-63.62.16-7.5,1.68-15.03,3.17-22.43,1.59-7.87,8.07-12.83,16.14-12.92,9.69-.11,19.39-.18,29.08.06,2.97.07,5.9,1.22,9.22,1.96Z" style="fill: #4a3726; stroke-width: 0px;"/>
  <path d="M63.98,115.27c-11.51,0-23.03.01-34.54,0-5.84,0-8.6-2.77-8.6-8.62.02-20.82-.18-41.64.24-62.45.15-7.22,1.7-14.44,2.9-21.61.67-3.99,4.43-6.85,8.82-6.9,9.79-.12,19.57-.07,29.36,0,2.92.02,5.58,1.1,7.15,3.63,3.94,6.35,9.52,8.58,16.82,7.68,3.5-.43,7.12-.35,10.63.05,1.64.19,3.72,1.33,4.56,2.69,3.96,6.39,5.91,13.43,5.9,21.01-.04,18.33,0,36.65-.01,54.98,0,6.88-2.67,9.54-9.55,9.54-11.23,0-22.45,0-33.68,0Z" style="fill: #aecace; stroke-width: 0px;"/>
  <path d="M99.93,13.98c-.16,1.76-.32,3.5-.51,5.64-6.19,0-11.39,0-17.31,0-4.67,0-5.89-2.09-3.72-6.34,3.36-1.01,19.24-.66,21.54.7Z" style="fill: #4883af; stroke-width: 0px;"/>
  <path d="M48.27,95.11c-2.62,2.45-6.59,8.88-10.06,5.02-1.52-1.86-1.29-3.68.48-5.33,1.54-1.44,4.04-4.53,3.77-4.6.73-5.63.83-11.44,2.3-16.87,4.57-16.86,22.28-26.84,39.11-22.65,2.4.6,3.5,1.92,4.06,4.19,5.71,23.89-15.85,44.1-39.66,40.24Z" style="fill: #4a3726; stroke-width: 0px;"/>
  <path d="M47.59,22.75c3.26,0,6.53-.05,9.79.02,3.29.07,4.99,1.69,5.04,4.63.04,2.88-1.71,4.77-4.91,4.82-6.72.11-13.44.12-20.16,0-3.23-.05-4.9-1.88-4.88-4.83.02-2.93,1.74-4.57,5.04-4.63,3.36-.07,6.72-.01,10.08-.01Z" style="fill: #4a3726; stroke-width: 0px;"/>
  <path d="M55.59,87.91c2.33-2.82,8.32-5.99,4.69-9.72-3.79-3.54-6.55,2.56-9.57,4.39-.02-15.98,14.26-28.12,29.94-25.16,4.13,15.28-8.91,30.77-25.06,30.49Z" style="fill: #589058; stroke-width: 0px;"/>
</svg>