<?xml version="1.0" encoding="UTF-8"?>
<svg id="fill_def" xmlns="http://www.w3.org/2000/svg" viewBox="0 0 128 128">
  <path d="M93.79,53.73c.26-4.61,1.4-13.82,1.72-13.81-12.43-21.99,14.8-30.38,20.25-16.65,3.65,10.03,7.12,20.12,10.55,30.23,1.36,4,.57,6.58-2.7,11.03,1.87,22.33,5.58,54.49-27.61,48.12-2.93,9.71-7.12,12.81-17.22,12.81-13.5,0-27-.08-40.49.04-13.35,1.11-20.61-15.35-11.87-25.05v-55.59c-7.33.25-15.68.67-15.59-8.83-12.96.12-13.1-24.67,0-24.62-.56-7.7,7.04-9.62,13.31-8.76,7.67,0,9.51,1.55,10.6,8.95,7.56,1.13,8.01,1.73,9.41,12.86,24.89.47,51.77-6.54,47.81,29.15.72.16,1.4.01,1.95.37l-.13-.25Z" style="fill: #4a3726; stroke-width: 0px;"/>
  <path d="M103.91,40.61c-.7-5.28-8.56-13.52-.08-15.7,3.25-1.1,4.13-.71,5.2,2.35,2.76,7.9,5.52,15.81,8.26,23.72q2.12,6.1-1.98,11.2c1.13,10.8,2.56,22.58.83,33.54-7.16,20.79-32.81,7.6-26.3-12.15.3-5.64,4.14-16.21-5.4-15.24v35.69c5.72,3.5,4.43,13.87-3.2,13.83-14.6.06-29.19.05-43.79.01-7.69-.01-9.73-10.39-3.16-13.92,0-19.89,0-39.85,0-59.75,0-8,3.98-11.97,11.98-11.98,26.86,1.47,41.18-8.75,37.93,27.07,18.86,2.59,14.28,17.73,12.7,31.69-.25,3.65,2.28,6.8,5.43,7.16,11.7,1.15,4.96-25.15,5.69-32.61-3.33-10.64-11.02-11.8-4.12-24.92Z" style="fill: #7f827e; stroke-width: 0px;"/>
  <path d="M9.41,27.79v-8.16h9.1v-9.29h8.04v9.11h9.38v8.32h-9.17v9.07h-8.01v-9.05h-9.34Z" style="fill: #7ecde7; stroke-width: 0px;"/>
  <path d="M59.35,38.69c6.82.06,17.62-1.14,17.65,4.77s3.57,24.09-4.47,24.03c-8.98-.07-17.96.1-26.94,0-2.51-.03-4.42-2.32-4.49-5.44.76-19.6-6.13-24.51,18.25-23.37Z" style="fill: #4a3726; stroke-width: 0px;"/>
</svg>