<?xml version="1.0" encoding="UTF-8"?>
<svg id="uuid-9d62f4ee-b043-4aa1-bffa-1853b1b655c4" data-name="fill_dog" xmlns="http://www.w3.org/2000/svg" xmlns:xlink="http://www.w3.org/1999/xlink" viewBox="0 0 128 128">
  <defs>
    <linearGradient id="uuid-e3ddbfda-6092-4e0c-93b9-6ac75ebfbb88" x1="-611.72" y1="25.31" x2="-612.24" y2="241.31" gradientTransform="translate(370) scale(.5)" gradientUnits="userSpaceOnUse">
      <stop offset="0" stop-color="#fefefe"/>
      <stop offset=".45" stop-color="#fdfdfd"/>
      <stop offset="1" stop-color="#cdcecd"/>
    </linearGradient>
  </defs>
  <path d="M106.01,63.51c-.22,3.24-1.22,6.67-2.74,9.51-2.2,4.12-9.03,9.5-8.16,14.11,1.13,6.01,8.39,12.92,5.93,19.15-.55,1.39-1.9,1.9-2.28,2.72-.88,1.93,0,4.47-2,6.5-1.52,1.54-3.25,1.49-4.72,2.28-1.11.59-1.66,1.97-3.26,2.74-3.97,1.93-5.67-.28-7.46.08-.39.08-2.31,1.81-3.68,2.28-2.11.72-3.73.27-5.29.71-1.09.32-1.36,1.7-3.59,1.92-1.83.18-4.81-.07-7.01-.02-4.52.11-4.06-1.34-6.6-1.9-1.81-.4-3.15,0-5.28-.72-1.36-.46-3.28-2.2-3.68-2.28-.82-.16-2.71.9-3.94.9-3.29,0-4.65-2.34-6.78-3.72-1.49-.96-3.01-.8-4.47-2.53-2.05-2.43-.98-3.71-1.48-5.92-.09-.38-1.23-.71-1.75-1.35-4.98-6.11,4.44-15.42,5.01-21.47.38-3.94-5.29-8.69-7.36-12.18-.78-1.31-1.76-3.28-2.3-4.7-.41-1.1-1.46-5.86-1.72-6.04-.35-.25-1.86-.2-2.68-.56C4.71,56.88-.2,26.86,10.53,17.28c1.86-1.66,3.38-1.43,5.25-2.25,3.35-1.45,5.33-7.01,8.48-9.52,5.7-4.56,14.84-3.94,20.48.5,1.18.93,3.32,3.8,4.27,4.23,1.77.82,8.13-1.09,10.72-1.27,6.22-.42,12.37.74,18.5,1.53,1.33-.21,3.91-3.65,5.32-4.72,5.58-4.27,14.63-4.74,20.2-.28,3.06,2.45,4.63,7.09,7.5,9,1.33.88,2.75.79,4.11,1.39,8.54,3.79,8.39,21.66,6.6,29.3s-7.34,17.58-15.94,18.31Z" style="fill: #0d0d0d;"/>
  <path d="M67.8,13.1c.21,11.72-.46,24.05-.31,36.02,0,.25.05.5.17.73,1.63,3.08,6.4,5.4,8.85,7.88,7.5,7.59,10.63,20.29-1.53,25.02-3.84,1.49-8.69.25-7.39,5.9.1.42,1.85,3.14,2.01,3.24.73.43,4.11.63,5.74,1.51,3.14,1.68,3.7,4.58,1.14,6.18-.81.51-1.06,1.55-.53,2.34.83,1.22,1.83,2.45,2.19,3.67,1.41,4.68-.6,7.78-4.5,7.1-1.09-.19-2.06.73-1.91,1.83.21,1.5.42,2.95.12,4.6-.53,2.88-4.22,5.43-6.66,2.89-.11-.11-.19-.21-.25-.32-.5-.76-1.53-1.03-2.3-.53-2.72,1.76-7.16,1.26-7.08-2.82l.02-3.72c0-.92-.75-1.64-1.67-1.65-.37,0-.83-.05-1.44-.2-1.94-.47-2.49-1.19-2.81-2.81-1.69-4.21,1.16-7.03,2.06-7.78.16-.13.28-.28.37-.47.01-.02.02-.04.03-.07.4-.79.09-1.76-.69-2.17-2.59-1.36-1.83-4.5,1.19-6.1,2.47-1.31,6.95-1.23,7.75-4.75,1.31-5.74-3.68-4.39-7.73-6.06-12.16-5.01-8.31-18.01-.67-25.35,2.41-2.32,6.75-4.38,8.34-7.39.12-.22.17-.48.17-.73.16-11.95-.51-24.29-.31-36.02.01-.76,1.35-1.46,2.12-1.59,1.02-.17,2.37-.17,3.38,0,.76.13,2.1.83,2.11,1.59Z" style="fill: url(#uuid-e3ddbfda-6092-4e0c-93b9-6ac75ebfbb88);"/>
  <path d="M70,12l7,1c-2,4.69,3.27,5.75,6.8,6.45,4.2.83,4.36-1.14,5.96,4.05,3.56,11.59.45,27.16,9.73,36.77,1.09,1.13,3.95,2.55,4.03,3.49.13,1.61-1.9,6.67-2.76,8.26-2.82,5.21-8.91,8.67-8.2,15.19.56,5.12,6.4,11.41,6.37,16.56-.02,3.34-3.01,3.06-3.36,4.06-.68,1.94,1.12,5-1.6,6.4-1.03.53-2.52.39-3.44,1.06-.97.7-1.22,2.43-3,3-3.44,1.09-5.87-1.29-6.79-1.21-.34.03-1.54,2.5-2.87,3.06-1.13.47-2.18.44-3.37.38.19-.95-.28-4.57.05-4.96.26-.3,4.01-.44,5.68-3.06,1.84-2.89,1.17-5.26.29-8.25-.25-.85-1.38-2.54-1.36-2.98s1.38-1.84,1.62-2.75c.94-3.5-2.23-6.54-5.17-7.87-1.47-.67-6.08-1.09-5.61-3.36.14-.67,5.15-1.69,6.33-2.18,11.86-4.88,11.12-15.54,5.38-25.06-3.12-5.18-4.81-4.9-8.96-8.54-.98-.85-1.82-1.85-2.76-2.74V12Z" style="fill: #b37d48;"/>
  <path d="M58,12v36.75c-3.83,3.98-8.24,5.77-11.42,10.58-6.23,9.47-6.83,20.85,5.08,25.75,1.18.49,6.2,1.52,6.33,2.18.47,2.27-4.14,2.69-5.61,3.36-2.73,1.24-5.2,3.44-5.37,6.67-.09,1.79,1.78,3.27,1.82,3.95.03.44-1.11,2.13-1.36,2.98-.88,2.99-1.55,5.36.29,8.25,1.68,2.63,5.43,2.77,5.68,3.06.33.38-.14,4.01.05,4.96-1.19.06-2.24.09-3.37-.38-1.33-.55-2.53-3.03-2.87-3.06-.92-.08-3.35,2.3-6.79,1.21-1.78-.56-2.03-2.29-3-3-.92-.67-2.41-.53-3.44-1.06-2.71-1.4-.92-4.46-1.6-6.4-.31-.9-1.78-.76-2.47-1.53-3-3.33,2.78-11.53,4.12-14.94,4.15-10.53-2.65-11.57-6.85-19.33-.86-1.59-2.89-6.65-2.76-8.26.09-1.12,2.45-1.91,3.54-2.98,9.51-9.27,6.71-25.84,10.23-37.27,1.59-5.19,1.75-3.22,5.96-4.05,3.53-.69,8.8-1.76,6.8-6.45l7-1Z" style="fill: #b37d48;"/>
  <path d="M79.52,15.48c-.64-.89,2.04-4.24,2.73-4.98,3.42-3.69,8.37-5.99,13.46-5.44,9.36,1.01,9.12,9.63,15.18,12.32,2.5,1.11,3.86.45,5.84,3.16,7.24,9.89,3.67,31.78-6.55,38.89-8.87,6.16-13.88-9.99-15.01-16.32-1.24-6.94-.57-14.75-3.14-21.36-2.71-6.97-6.7-3.72-12.5-6.25Z" style="fill: #61340a;"/>
  <path d="M48.48,15.48c-3.87,2-8.72.15-11.4,3.86-3.8,5.24-3.07,17.23-4.21,23.79s-6.25,22.4-15.04,16.29c-10.24-7.12-13.8-28.58-6.75-38.58,2.14-3.04,3.27-2.23,6.04-3.46,6.05-2.69,5.82-11.31,15.18-12.32,5.09-.55,10.04,1.75,13.46,5.44.69.74,3.36,4.09,2.73,4.98Z" style="fill: #61340a;"/>
  <path d="M57.37,112.63c.91-1.01,1.84.21,2.06,1.14.52,1.67-.42,3.71.66,4.95.44.49,1.18.79,1.67,1.16.24.18.33.36.17.53-1.08.82-2.89.26-3.84-.64-1.61-1.52-2.26-5.13-.8-7.05l.08-.09Z" style="fill: #f4f5f5;"/>
  <path d="M53.5,101.97c.98-1.02,3.59-1.34,3.7.12.02,1-.76,1.78-1.29,2.6-.91,1.19-1.29,2.71-1.66,4.12-.31,1.49-2.02,2.19-2.95.96-1.75-2.43.36-5.81,2.05-7.67l.15-.13Z" style="fill: #f4f5f5;"/>
  <path d="M63.39,56.6c2.01-.18,7.26,1.41,7.51,3.73.19,1.76-4.46,5.43-6.19,5.66-2.93.39-9.07-3.88-7.16-6.67.92-1.34,4.26-2.58,5.84-2.72Z" style="fill: #131516;"/>
  <path d="M53.68,73.81c-.73-.51-3.86-3.71-1.9-4.29s3.63,2.98,6.46,3c2.64.02,4.41-2.44,5.53-2.55,2.07-.21,3.95,4.53,8.9,1.45.79-.49,1.5-1.63,2.17-1.84,2.87-.87,2.18,1.63.61,3.12-2.17,2.08-5.17,2.73-8.09,2.18-1.34-.25-2.44-1.44-3.61-1.44s-2.07,1.06-3.21,1.34c-2.34.58-4.86.41-6.85-.98Z" style="fill: #131516;"/>
  <path d="M81.39,31.12c9.16-1.08,10.09,10.67.75,12.26s-10.43-11.12-.75-12.26Z" style="fill: #0d0d0d;"/>
  <path d="M80.62,51.37c-3.23-3.04.59-8.53,4.66-5.9,4.6,2.97-1.4,8.98-4.66,5.9Z" style="fill: #0d0d0d;"/>
  <path d="M44.38,31.11c9.99-1.52,13.26,12.43,2.87,12.43-8.4,0-11.77-11.08-2.87-12.43Z" style="fill: #0d0d0d;"/>
  <path d="M42.12,51.37c-3.42-3.23,1.6-8.86,5.36-5.61s-2.31,8.48-5.36,5.61Z" style="fill: #0d0d0d;"/>
  <path d="M27.35,64.95c1.49-.14,2.07,1.72,2.57,2.87.73,1.9,1.4,3.64,2.59,5.12,1,1.7,2.71,2.5,3.85,3.96.33.6.15,1.51-.28,1.9-1.61,1.15-5.57-4.26-6.69-5.64-1.18-1.83-4.18-7.22-2.17-8.17l.13-.03Z" style="fill: #e3b281;"/>
  <path d="M36.82,90.07c1.18-.32,1.82.45,1.6,1.57-.16.79-3.4,7.16-4,8.03-1.17,1.66-2.46,1.91-2.46-.41,0-1.22,3.81-8.91,4.86-9.19Z" style="fill: #e3b281;"/>
  <path d="M97.8,41.04c2.79-.92,2.32,3.58,2.85,5.56.62,2.35,1.46,4.25,2.65,6.35.57,1.01,3.6,3.83,1.41,4.5-3.41,1.22-9.6-15.25-6.9-16.42Z" style="fill: #8a5a28;"/>
  <path d="M11.12,27c.74,0,1.31.64,1.24,1.37-.68,6.95-.62,12.9,1.9,19.62.75,2,2.47,3.73,2.24,6.01-2.23.5-3.05-1.62-3.93-3.32-3.58-6.94-3.44-14.97-2.69-22.56.06-.64.6-1.12,1.24-1.12h0Z" style="fill: #8a5a28;"/>
  <path d="M63.51,63.62c-1.68,1.31-4.74-1.8-4.55-3.41.89-2.41,5.61,1.66,4.62,3.31l-.07.1Z" style="fill: #f4f5f5;"/>
  <path d="M80.35,34.11c8.27-1.88,6.93,6.65.35,6.86-5.38.17-4.44-5.92-.35-6.86Z" style="fill: #dcb998;"/>
  <path d="M43.86,34.11c7.61-1.68,9.85,7.06,3.44,6.85-4.78-.15-7.65-5.92-3.44-6.85Z" style="fill: #dcb998;"/>
</svg>