<?xml version="1.0" encoding="UTF-8"?>
<svg id="fill_pig" xmlns="http://www.w3.org/2000/svg" viewBox="0 0 128 128">
  <path d="M14.49,53.65c-6.82-4.45-10.01-10.66-11.24-18.22C2.46,26.23-4.06-2.26,12.91,2.83c12.46,6.35,29.92,1.06,37.9,15.09h26.65c5.06-8.52,15.99-10.92,25.52-11.61,8.17-.72,21.35-10.13,23.25,3.19.8,15.15,1.82,34.76-12.4,44.21,4.14,27.79,8.18,58.82-25.49,68.61-25.59,6.86-62.69,5.51-74.38-22.76-5.26-14.88-.59-30.6.52-45.9Z" style="fill: #4a3726; stroke-width: 0px;"/>
  <path d="M66.52,24.88c4.85.64,9.69,1.28,14.72,1.95,5.66-17.36,24.82-9.16,36.92-17.19.29.18.58.36.87.54-1.15,14.78,3.43,31.17-13.43,39.26.88,15.86,6.71,32.59,1.34,48.06-10.8,23.31-42.19,22.83-63.74,17.88-31.86-6.93-23.55-42.03-20.55-66.04-15.39-5.68-13.51-25.57-13.12-39.01,12.5,5.9,31.94-.33,37.33,16.62,6.74-.09,13.35-4.21,19.65-2.08Z" style="fill: #d5b5ad; stroke-width: 0px;"/>
  <path d="M41.62,98.51c-.22-15.66,23.16-31.75,35.82-17.26,12.66,7.43,12.91,32.87-5.59,30.77-12.22-3.48-29.29,6.65-30.23-13.51Z" style="fill: #4a3726; stroke-width: 0px;"/>
  <path d="M110.45,20.48c-2.38,7.97-13.4,14.46-20.78,12.77-2.17-.5-2.65-1.87-1.85-3.73,3.55-9.16,14.51-7,22.63-9.04Z" style="fill: #4a3726; stroke-width: 0px;"/>
  <path d="M40.43,32.22c-6.22,4.14-21.33-3.59-22.36-11.77,7.86,1.95,22.88.45,22.36,11.77Z" style="fill: #4a3726; stroke-width: 0px;"/>
  <path d="M37.88,70.36c6.64.14,6.4,10.53-.29,10.14-6.42-.09-6.17-10.47.29-10.14Z" style="fill: #4a3726; stroke-width: 0px;"/>
  <path d="M90.4,80.5c-6.6-.07-6.48-10.42.29-10.13,6.46.06,6.18,10.37-.29,10.13Z" style="fill: #4a3726; stroke-width: 0px;"/>
  <path d="M63.96,102.54c-22.94,9.61-16.23-16.93-.7-19.68,16.45.34,25.52,29.78.7,19.68Z" style="fill: #d2938b; stroke-width: 0px;"/>
  <path d="M75.07,99.11c-2.79-.12-4.87-.21-6.93-.3-1.66-2.79-.78-4.81,1.18-6.84,3.49.82,4.39,3.58,5.74,7.14Z" style="fill: #4a3726; stroke-width: 0px;"/>
  <path d="M53.11,99.11c2.79-.12,4.87-.21,6.93-.3,1.66-2.79.78-4.81-1.18-6.84-3.49.82-4.39,3.58-5.74,7.14Z" style="fill: #4a3726; stroke-width: 0px;"/>
</svg>