<?xml version="1.0" encoding="UTF-8"?>
<svg id="uuid-786a8c47-4177-4fdf-acaf-5fd9f724d9a1" data-name="fill_whiskey" xmlns="http://www.w3.org/2000/svg" viewBox="0 0 128 128">
  <path d="M63.9,2.47c10.52,0,21.04.13,31.56-.07,3.59-.07,6.13,1.37,7.65,4.23,7.2,15.38,15.54,31.13,14.5,48.66-.25,3.87.74,7.82.61,11.71.13,19.78-5.82,38.58-16.24,55.31-1.27,2.36-3.49,3.31-6.2,3.3-21.25-.03-42.49-.03-63.74,0-2.7,0-4.79-.99-6.23-3.28-8.39-15.21-16.16-31.87-15.43-49.6-1.33-16.03-.76-32.6,5.45-47.76,2.55-6.18,5.67-12.13,8.73-18.09,1.63-3.18,4.31-4.57,8.11-4.49,10.41.21,20.83.07,31.24.07Z" style="fill: #4a3726; stroke-width: 0px;"/>
  <path d="M90.01,52.22h-22.33c0-5.06,0-10.02,0-14.97.06-2.94.45-7.31-3.61-7.28-2.52-.08-3.88,1.35-3.9,3.84-.15,6.16.22,12.17-.17,18.35h-22.52c.99-5.15,1.95-10.1,2.91-15.04.84-2.8,1.68-6.12-1.91-6.99-2.4-.75-4.17.42-4.75,2.78-1.5,6.46-2.92,12.71-3.83,19.33h-12.18c.84-9.04,2.72-17.64,5.95-25.99h81.06c1.95,8.37,3.95,16.96,6.04,25.96h-12.48c-.99-6.14-2.02-12.54-3.69-18.61-.62-2.56-2-4.17-4.87-3.55-6.49,1.29,1.71,16.88.29,22.18Z" style="fill: #a5805b; stroke-width: 0px;"/>
  <path d="M60.21,75.85c0,5.54-.03,10.83.02,16.12-.46,2.76,1.34,5.69,4,5.97,3.23-.45,4.19-3.63,3.74-6.65.03-5.05.01-10.11.01-15.4h22.47c-.85,4.58-1.63,8.93-2.46,13.26-.65,3.08-2.75,8.11,1.9,8.93,2.36.42,3.93-.78,4.41-2.96,1.34-6.43,2.66-12.65,3.71-19.16h12.56c-2.08,8.9-4.12,17.59-6.1,26.07H24.04c-3.46-8.03-5.16-16.81-6.29-26.07h11.99c1.17,5.7,2.32,11.37,3.5,17.03.42,2.91,2.26,6.28,5.6,4.96,2.12-.74,2.82-2.53,2.3-4.81-1.27-5.64-2.45-11.3-3.74-17.26h22.8Z" style="fill: #a5805b; stroke-width: 0px;"/>
  <path d="M17.19,67.91v-7.71h93.28v7.71H17.19Z" style="fill: #7f827e; stroke-width: 0px;"/>
  <path d="M96.24,10.13c1.55,2.71,3.07,5.38,4.8,8.42H26.79c1.69-3,3.22-5.71,4.75-8.42h64.69Z" style="fill: #7f827e; stroke-width: 0px;"/>
  <path d="M32.08,117.96c-1.52-2.57-3.07-5.21-4.91-8.33h73.44c-1.76,2.99-3.34,5.69-4.89,8.33h-63.64Z" style="fill: #7f827e; stroke-width: 0px;"/>
  <g>
    <path d="M86.74,86.25c3.06,4.39,3.99,10.8-2.19,13.23-7.52,3.57-18.58,6.66-18.5-5.5-17.18-4.45-17.01-23.73-21.25-37.67-.88-2.43-3.29-3.96-4.95-5.85-4.17-3.67-1.19-10.07,4.55-9.34-1-18.73,20.51-20.84,26.58-5.97,3.61-3.01,9.11-.23,8.67,4.5-.64,5.26.94,9.89,3.47,14.47,5.85,9.45,10.42,21.94,3.64,32.13Z" style="fill: #4a3726; stroke-width: 0px;"/>
    <path d="M42.61,45.39c5.11,1.19,12.78-1.4,16.06,3.54,6.15,12.59,12.92,24.96,18.76,37.67-12.78,9.75-23.44-4.69-24.99-16.97-2.05-6.18-1.78-13.63-6.13-18.72-1.36-1.74-3.52-2.87-4.2-5.07l.49-.45Z" style="fill: #589058; stroke-width: 0px;"/>
    <path d="M81.56,84.3c-5.37-10.39-10.2-20.43-15.51-30.75-3.39-6.5,5.11-10.42,8.21-15.74,2.92,4.21-1.12,8.65,4.04,16.2,4.55,8.47,12.99,22.69,3.26,30.3Z" style="fill: #589058; stroke-width: 0px;"/>
    <path d="M67.6,38.67c-1.79,2.39-3.53,4.71-5.43,7.24-.58-.16-1.4-.13-1.72-.51-2.17-2.67-5.3-2.5-8.33-2.82-2.96.01-3.41,0-3.58-4.13,1.22-12.57,16.02-11.71,19.06.22Z" style="fill: #e5dd75; stroke-width: 0px;"/>
    <path d="M73.61,98.64c-2.07.03-3.95-2.47-3.17-4.38,2.88-2.44,7.34-2.95,10.79-4.57,2.69-1.82,4.67,2.92,3.3,4.55-3.1,2.22-7.27,3.08-10.76,4.79-.05-.13-.1-.27-.16-.4Z" style="fill: #589058; stroke-width: 0px;"/>
  </g>
</svg>