<?xml version="1.0" encoding="UTF-8"?>
<svg id="uuid-428bdd5d-7550-495b-9211-30d07e9d1c62" data-name="fill_goat" xmlns="http://www.w3.org/2000/svg" xmlns:xlink="http://www.w3.org/1999/xlink" viewBox="0 0 128 128">
  <defs>
    <linearGradient id="uuid-824ba593-ed2f-4982-a4be-b6d8c6f2f2a9" x1="52.68" y1="101.05" x2="90.18" y2="114.97" gradientTransform="translate(74) scale(.5)" gradientUnits="userSpaceOnUse">
      <stop offset="0" stop-color="#c4b49a"/>
      <stop offset="1" stop-color="#d7cab7"/>
    </linearGradient>
    <linearGradient id="uuid-cc0aa2e9-00a5-4ae9-8495-f52dee56a922" x1="85.42" y1="24.86" x2="88.47" y2="17.67" gradientUnits="userSpaceOnUse">
      <stop offset="0" stop-color="#8f8370"/>
      <stop offset="1" stop-color="#d7cab7"/>
    </linearGradient>
    <linearGradient id="uuid-8dc67f1a-54aa-4293-a0c4-0078630f6d28" x1="42.6" y1="22.83" x2="39.61" y2="17.65" xlink:href="#uuid-cc0aa2e9-00a5-4ae9-8495-f52dee56a922"/>
  </defs>
  <path d="M61.5,127c-1.07-1-2.35-1.82-3.22-3.03-.65-.9-1.62-3.83-1.79-3.97-1.31-1.06-1.37,3.33-2.73,3.41-3.21.19-3.45-8.72-3.26-10.66.28-2.84,1.82-4.33-.02-7.36-.43-.71-2.02-1.45-2.9-2.73-2.15-3.11-2.25-6.98-4-10.5-2.43-4.88-6.75-9.59-9.49-14.51s-5.21-10.46-5.6-16.16c-8.36,1.9-16.99,1.16-23.74-4.51-1.34-1.13-5.75-5.64-3.76-7.24l20.37-8.13c1.24-1.91,2.27-1.64,3.64-2.36,1.1-.58-1.34-2.15-1.74-2.78-1.27-2.03-.96-4.75-.23-6.94,1.12-.78,8.09,2.48,9.74,2.46,2.8-.04.19-7.6-.4-9.13-1.96-5.07-5.98-9.63-10.73-12.27-1.7-.95-8.29-3.01-8.58-3.92-.91-2.76,1.83-3,3.9-3.45,13.64-2.96,27.43,2.04,33.05,15.27,5.73-1.71,11.72-2.44,17.72-1.99,2.69.2,7.73,2.03,9.54,1.98,1.26-.04,1.82-2.44,2.5-3.44,6.22-9.17,14.27-13.13,25.48-12.56,1.67.08,9.2.95,9.67,2.34,1.1,3.24-2.9,3.07-4.94,3.94-5.94,2.56-10.86,6.41-13.59,12.41-1.47,3.23-3.2,7.4-1.91,10.84,3.46-.85,6.84-2.33,10.45-2.46.57,1.64.87,3.9.42,5.6-.26.98-3.4,3.91-2.88,4.36,2.7-.73,2.61,1.24,4.13,2.12l20.37,8.13c2.13,1.72-3.71,7.07-5.25,8.26-6.1,4.67-15.03,5.2-22.25,3.5-.78,11.37-9.2,19.71-14.26,28.99-1.99,3.65-2.38,7.9-4.14,10.86-.9,1.52-2.36,2.35-3.32,3.68-2.72,3.76-.57,4.29-.26,8.2.18,2.23-.36,9.74-3.26,10.13-1.46.2-1.39-1.78-1.71-2.67-.8-2.2-1.63,1.24-2.35,2.26-1.13,1.62-2.27,2.72-3.71,4.04h-5Z" style="fill: #0c0e0e;"/>
  <path d="M100,59c.7-2.92.64-6.23.5-9.25-.03-.71-.74-2.4-.49-2.73.08-.1,1.81-.41,2.45-.81,1.37-.83,1.95-3.01,4.04-1.98,2.01,1.35,17.28,6.6,17.5,7.53-5.17,8-15.41,9.02-24,7.24Z" style="fill: url(#uuid-824ba593-ed2f-4982-a4be-b6d8c6f2f2a9);"/>
  <path d="M74.5,110.5l.5,8c-1.83-1.42-1.9-4.55-4.99-4-.27,2.96-.88,6.54-3,8.75-5.16,5.36-9.15-4.21-9-8.75-3.09-.55-3.16,2.58-4.99,4l.5-8c2,.19,3.43,1.33,5.47,1.78,2.91.64,6.73.68,9.65.09,2.2-.44,3.75-1.6,5.88-1.87Z" style="fill: #ccbea8;"/>
  <path d="M27.57,58.62c-1.9,1.71-5.09,1.36-7.52,1.39-4.53-.36-8.85-1.03-12.66-3.93-1.34-1.08-3.86-2.8-3-4.7.88-1.2,2.88-1.75,4.31-2.35,3.36-1.21,6.39-2.16,9.49-3.73,1.5-.69,3.17-1.45,4.82-1.13,2.16.53,4.61,1.89,5.11,4.1.33,1.99-.19,4.1,0,6.13.09,1.7.24,3.23-.46,4.11l-.09.11Z" style="fill: #d6c9b6;"/>
  <path d="M102.5,42.74c-.76,1.83-4.51,1.31-4.94,2.57-.68,2.01.56,6.43.46,8.96-.29,7.56-2.92,15.18-6.52,21.73-2.38,4.33-5.37,9.56-9.74,12-2.09-3.7-3.55-7.72-3.76-12-.11-2.24-.02-4.45.43-6.65-3.64-4.23-3.01,4.28-2.93,6.65.03.91-.08,1.82,0,2.73.72,7.57,8.58,15.12,1.93,22.95-4.43,5.2-8.71.63-13.26.48-4.93-.15-10.39,5.59-14.66-1.92-4.38-7.7,1.6-13.33,2.76-20.21.25-1.47.18-2.61.23-4.03.06-1.66.6-7.58-1.31-7.97-.55-.06-1.25.56-1.46.98-.17.35.38,6.26.27,7.74-.11,1.46-.58,3.82-1,5.25-.83,2.79-2.69,5.55-3.25,8.5-1.95-2.68-3.47-5.72-5.25-8.5-5.91-9.21-9.92-15.62-10.5-27.25-.1-2.09,1.15-9.17.01-10.01-.85-.64-3.81-.31-4.51-2-.33-.81.45-.82.99-.99,1.18-.36,6.39-.48,5.99-2.45-.29-1.4-8.61-2.48-7.48-6.8l9.16,2.43c3.5-4.12,6.6-8.36,11.38-11.14,11.56-6.73,29.98-6.22,40.47,2.45,3.03,2.51,5.19,5.82,7.83,8.69l9.16-2.43c1.13,4.32-7.19,5.4-7.48,6.8-.4,1.97,4.81,2.09,5.99,2.45.54.17,1.32.18.99.99Z" style="fill: #d6c9b6;"/>
  <path d="M94.45,19.43c-.54.57-2.8-2.02-3.94-2.99-1.42-1.19-3.64-1.92-5.5-2.44-.22-.08-.53-.23-.57-.46.02-.74.58-.97,1.05-1.52,1.33-1.05,2.72-2.92,4.52-3.02,2.41.11,5.99,3.55,6.44,5.74.17,1.57-1.62,3.21-1.93,4.61l-.06.08Z" style="fill: #ccbea8;"/>
  <path d="M74,106.5c-2.44,3.79-8.18,3.81-12.27,3.52-2.88-.2-6.17-.84-7.73-3.52,3.33.97,6.99-1.43,9.76-1.53,3.02-.11,6.86,2.39,10.24,1.53Z" style="fill: #ccbea8;"/>
  <path d="M91.51,27.28c-.39.12-.88-.24-1.21-.54-2.55-2.32-5.28-4.66-8.37-6.11-.49-.25-1.06-.48-1.23-.99-.23-.91.47-2.44.99-3.25.51-.74,1.44-.59,2.24-.39,4.88,1.14,9.47,4.48,8.45,9.7-.1.55-.31,1.3-.75,1.54l-.11.05Z" style="fill: url(#uuid-cc0aa2e9-00a5-4ae9-8495-f52dee56a922);"/>
  <path d="M45.97,16.03l1.53,3.92c-3.03.7-5.29,3.46-8.12,4.65-.86.31-1.96.64-2.84.33-.29-.6-.48-1.27-.71-1.89s-.68-1.09-.49-1.58c1.33-3.4,7.13-5.02,10.57-5.44h.06Z" style="fill: url(#uuid-8dc67f1a-54aa-4293-a0c4-0078630f6d28);"/>
  <path d="M93.06,7.43c-.26-.21.35-.61,1.19-.99,1.78-.8,5.25-1.65,6.8-.56,2.78,2.62,1.22,4.9-1.77,6.87-.17.11-.33.16-.48.15-.4-.03-.7-.63-1.02-1.05-1.19-1.78-2.49-3.71-4.64-4.36l-.09-.05Z" style="fill: #ccbea8;"/>
  <path d="M42.71,14.05c-2.55.76-4.65,1.77-6.66,3.46-.78.65-2.22,3.36-3.02,1.27-.53-1.32-1.73-2.57-1.42-4.03,1.73-3.14,5.21-7.91,8.97-4.53.71.64,1.82,1.74,2.45,2.41.68.62.84,1.28-.16,1.39l-.16.03Z" style="fill: #c4b49a;"/>
  <path d="M34.71,7.52c-.54.5-2.05,1.09-2.71,1.91-.98,1.18-2.51,2.88-4.14,2.32-1.03-.43-2.26-1.46-2.42-2.6-.03-.81.45-1.73.88-2.45.84-1.37,2.03-1.49,3.67-1.29.91.09,5.04.92,4.79,2.03l-.07.09Z" style="fill: #c4b49a;"/>
  <path d="M24.06,5.16c.17.86-.5,2.37-1.41,2.7-1.11.21-3.5-.74-4.27-1.49-.48-.97,1.67-1.08,2.31-1.22.92-.07,2.67-.57,3.32-.07l.05.09Z" style="fill: #c4b49a;"/>
  <path d="M109.5,5.5c.22,1.16-.1.8-.65,1.11-2.81,1.63-4.35,2.39-4.85-1.61l5.5.5Z" style="fill: #ccbea8;"/>
  <path d="M39.85,55.1c6.38-1.45,11.77,5.76,5.05,7.55-7.73,2.06-10.62-6.28-5.05-7.55Z" style="fill: #101211;"/>
  <path d="M84.87,55.12c8.5-1.43,7.68,7.64.37,7.91-6.3.23-7.06-6.78-.37-7.91Z" style="fill: #0c0e0e;"/>
  <path d="M57.26,90c1.8-.48,2.45,3.06,3.72,4.27,5.41,5.12,7.51-3.84,8.82-4.23,3.63-1.1.35,5.13-1.05,6.46-3.28,3.1-7.32,2.38-10.18-.82-.76-.85-3.52-5.08-1.32-5.67Z" style="fill: #101211;"/>
  <path d="M50.7,93.64c1.19,1.05,1.85,4.24,3.27,5.49,1,1.07,2.8,3.36.35,3.44-3.2-.5-5.53-4.37-5.31-7.46.08-.83.63-2.12,1.59-1.54l.1.07Z" style="fill: #e5e2df;"/>
  <path d="M26.5,9.65c.61.51,1.25.97,1.94,1.37.23.13.52.17.77.1.23-.06.48-.24.6-.46.12-.23.18-.51.1-.77s-.23-.47-.46-.6c-.48-.28-.95-.59-1.39-.93l.2.16c-.12-.09-.24-.19-.35-.28-.09-.1-.2-.17-.32-.21-.12-.06-.25-.09-.39-.09-.25,0-.54.11-.71.29s-.3.44-.29.71c.01.25.09.54.29.71h0Z" style="fill: #e5e2df;"/>
  <path d="M32.53,15.46c.44.61.83,1.25,1.16,1.93.1.22.37.4.6.46.24.07.56.04.77-.1s.4-.34.46-.6l.04-.27c0-.18-.05-.35-.14-.5-.33-.68-.71-1.32-1.16-1.93-.06-.12-.15-.21-.26-.28-.1-.09-.21-.15-.34-.18-.24-.07-.56-.04-.77.1s-.4.34-.46.6-.05.56.1.77h0Z" style="fill: #e5e2df;"/>
  <path d="M36.33,21.48l.4,1.61c.06.24.25.47.46.6s.53.18.77.1.48-.23.6-.46.17-.5.1-.77l-.4-1.61c-.06-.24-.25-.47-.46-.6s-.53-.18-.77-.1-.48.23-.6.46-.17.5-.1.77h0Z" style="fill: #e5e2df;"/>
  <path d="M34.06,50.67c1-5.04,2.02-10.25,4.76-14.68,2.49-4.02,6.21-7.1,10.54-8.94,1.18-.5.16-2.23-1.01-1.73-4.52,1.93-8.4,5.2-11.06,9.34-2.98,4.65-4.11,10.14-5.16,15.48-.25,1.26,1.68,1.8,1.93.53h0Z" style="fill: #e5e2df;"/>
  <path d="M9.66,52.23c2.11-1.17,4.31-2.05,6.66-2.65.52-.13.84-.72.7-1.23s-.71-.83-1.23-.7c-2.49.64-4.89,1.6-7.13,2.85-.47.26-.63.91-.36,1.37s.89.62,1.37.36h0Z" style="fill: #e5e2df;"/>
</svg>