<?xml version="1.0" encoding="UTF-8"?>
<svg id="uuid-279e8d63-22f2-47fe-9ad2-020f6f53cb2c" data-name="fill_easel" xmlns="http://www.w3.org/2000/svg" xmlns:xlink="http://www.w3.org/1999/xlink" viewBox="0 0 128 128">
  <defs>
    <linearGradient id="uuid-ae837978-87bf-492d-ac3f-0dad3e0d486f" x1="45.05" y1="-1147.8" x2="92.12" y2="-958.57" gradientTransform="translate(0 592) scale(.5)" gradientUnits="userSpaceOnUse">
      <stop offset="0" stop-color="#d3a977"/>
      <stop offset=".72" stop-color="#a87534"/>
      <stop offset="1" stop-color="#a77533"/>
    </linearGradient>
    <linearGradient id="uuid-7b8db9f1-17e2-4cca-8d60-f485a87e2306" x1="160.19" y1="-1159.07" x2="210.19" y2="-946.88" gradientTransform="translate(0 592) scale(.5)" gradientUnits="userSpaceOnUse">
      <stop offset="0" stop-color="#d3a977"/>
      <stop offset=".72" stop-color="#a87534"/>
      <stop offset="1" stop-color="#a77533"/>
    </linearGradient>
    <linearGradient id="uuid-de1c1cf5-687a-4cd5-b1ee-84c97e256557" x1="127.95" y1="-1165.11" x2="128.05" y2="-1059.11" gradientTransform="translate(0 592) scale(.5)" gradientUnits="userSpaceOnUse">
      <stop offset="0" stop-color="#d3a978"/>
      <stop offset="1" stop-color="#b9894d"/>
    </linearGradient>
    <linearGradient id="uuid-eeb90f63-b7fb-46db-9a41-de1abea5f64d" x1="63.77" y1="66.97" x2="63.77" y2="73.5" gradientTransform="matrix(1,0,0,1,0,0)" xlink:href="#uuid-ae837978-87bf-492d-ac3f-0dad3e0d486f"/>
    <linearGradient id="uuid-9cb9c4df-0dd7-4885-b173-6b5017cf2399" x1="105.25" y1="67" x2="105.25" y2="73.57" gradientTransform="matrix(1,0,0,1,0,0)" xlink:href="#uuid-ae837978-87bf-492d-ac3f-0dad3e0d486f"/>
    <linearGradient id="uuid-18dadd71-6517-4fcf-9272-6757992cfe8d" x1="22.47" y1="66.99" x2="22.47" y2="73.57" gradientTransform="matrix(1,0,0,1,0,0)" xlink:href="#uuid-ae837978-87bf-492d-ac3f-0dad3e0d486f"/>
  </defs>
  <path d="M69.5,97c-1.06,1.41-7.39,1.24-9.28,1.03-.67-.08-2.22-.66-2.22-1.28v-20.75h-19.25c-.45,0-.88,1.52-1.01,1.99-4.01,13.75-5.63,29.28-9.25,43.25-.03.5-.94,1.76-1.24,1.76h-10c-.67,0-.99-2-.7-2.68l9.95-44.32h-11.75c-.05,0-.75-.7-.75-.75v-10.75c.5.17,1.09-.5,1.25-.5h13.75l11.89-53.86c.15-.31.67-1.14.86-1.14h10c2.19,0-1.15,8.6-.75,10h7V6.75c0-.16.67-.75.5-1.25h10.75c1.36,0,.25,3.37.23,4.23-.09,3.08.12,6.19.02,9.27h7c-.13-2.2-2.03-6.36-1.97-8.28.02-.57.94-1.72,1.22-1.72h10l12.7,55.21c.63.93,4.15-.19,5.28-.23,3.32-.13,7.07-.19,10.27.52v10.75c0,.05-.7.75-.75.75h-12.25l9.87,43.88c.36,1.13.4,3.12-1.12,3.12h-10l-10.48-46.52c-.33-.52-.96-.46-1.5-.5-5.69-.46-12.01.39-17.77.02-.18,6.95-.34,13.95-.5,21ZM67,8h-6v56.5h6V8ZM49.5,12h-6.5s-23.5,108.5-23.5,108.5c2.03-.38,5.72,1.06,6.54-1.2L49.5,12ZM108,120.5L84.03,12.22l-6.03-.22,23.55,108.45,6.45.04ZM58,22h-8l-1,6h9v-6ZM78.5,28c-.55-1.25-.59-4.66-1.24-5.51-.81-1.07-5.74-.22-7.27-.49v6h8.5ZM58,31h-10l-7,33.5h17V31ZM70,34v30.5l16.51-.26-7.57-33.18-8.94-.06c0,1,.01,2,0,3ZM16.5,71c.01.83-.01,1.67,0,2.5,1.81-.31,10.05.61,10.78-.48.42-.62.11-1.43.22-2.02.24-1.37.36-2.73,1-4h-11.72c-.51.06-.29,3.24-.28,4ZM39.5,71.5c-.06.32-1.04,1.9-.25,2h49.24c.35-.82-.44-1.26-.5-1.5-.37-1.54-.43-3.19-.95-4.71l-.78-.32-45.8.25c-.75.53-.79,3.29-.97,4.28ZM100,71c.13.55-.2,1.39.22,2.02.74,1.1,9.43.17,11.28.48.01-.83-.01-1.67,0-2.5.02-1.33-.01-2.67,0-4h-12.5c.15,1.36.69,2.68,1,4ZM67,76h-6v19h6v-19Z" style="fill: #0d0e0d;"/>
  <path d="M69.5,97c.59-6.36-.79-14.09-.01-20.27.05-.4.02-.75.51-.73-.54,6.28.71,13.67.03,19.8-.09.78-.15.7-.53,1.2Z" style="fill: #7a7a7b;"/>
  <path d="M49.5,12l-23.46,107.29c-.82,2.27-4.51.83-6.54,1.2L43,12h6.5Z" style="fill: url(#uuid-ae837978-87bf-492d-ac3f-0dad3e0d486f);"/>
  <polygon points="108 120.5 101.55 120.45 78 12 84.03 12.22 108 120.5" style="fill: url(#uuid-7b8db9f1-17e2-4cca-8d60-f485a87e2306);"/>
  <rect x="61" y="8" width="6" height="56.5" style="fill: url(#uuid-de1c1cf5-687a-4cd5-b1ee-84c97e256557);"/>
  <rect x="61" y="76" width="6" height="19" style="fill: #a37232;"/>
  <path d="M88.5,73.5h-49.25c-.79-.1.19-1.68.25-2,.18-.99.22-3.75.97-4.28l45.8-.25.78.32c.52,1.52.58,3.17.95,4.71.06.24.85.68.5,1.5Z" style="fill: url(#uuid-eeb90f63-b7fb-46db-9a41-de1abea5f64d);"/>
  <polygon points="58 22 58 28 49 28 50 22 58 22" style="fill: #725530;"/>
  <path d="M111.5,71c-.01.83.01,1.67,0,2.5-1.85-.31-10.55.62-11.28-.48-.42-.63-.09-1.47-.22-2.02-.31-1.32-.85-2.64-1-4h12.5c-.01,1.33.02,2.67,0,4Z" style="fill: url(#uuid-9cb9c4df-0dd7-4885-b173-6b5017cf2399);"/>
  <path d="M78.5,28h-8.5v-6c1.52.27,6.46-.58,7.26.49.64.86.69,4.26,1.24,5.51Z" style="fill: #725530;"/>
  <path d="M27.28,73.02c-.73,1.09-8.98.18-10.78.48-.01-.83.01-1.67,0-2.5-.01-.76-.23-3.93.28-4.01h11.72c-.64,1.28-.76,2.64-1,4.01-.1.59.2,1.41-.22,2.02Z" style="fill: url(#uuid-18dadd71-6517-4fcf-9272-6757992cfe8d);"/>
  <path d="M70,64.5v-30.5c-.1,10.16.08,20.34,0,30.5Z" style="fill: #7a7a7b;"/>
</svg>