<?xml version="1.0" encoding="UTF-8"?>
<svg id="uuid-22a3a6ca-4afd-44bf-a628-e03fd4a22c1c" data-name="fill_dog" xmlns="http://www.w3.org/2000/svg" viewBox="0 0 128 128">
  <path d="M106.98,79.5c5.79,4.79,4.82,10.16-2.57,15.15,0,1.15.07,2.42-.01,3.67-.38,5.51-3.94,9.87-9.2,11.49-.91.28-1.74.89-2.56,1.42-2.22,1.43-4.28,3.19-6.65,4.27-1.75.79-3.9.7-5.72,1.22-4.28,1.62-8.51,3.42-12.87,4.8-3.19,1.01-6.14.37-8.77-2.13-1.27-1.21-3.28-1.68-5.01-2.35-1.43-.55-2.94-.9-4.42-1.33-6.57,1.67-11.59-1.1-16.13-5.63-6.22.53-11.18-6.74-9.43-16.9-7.52-6.39-8.12-9.2-2.71-15.42-5.16.38-9.02-1.22-11.95-5.14-3.15-4.2-2.44-8.51-.94-13.22-.75-1.25-1.49-2.7-2.43-4.01C.08,47.76,1,39.19,2.18,30.66c.2-1.41,1.62-2.8,2.75-3.91,8.31-8.18,17.81-14.36,29.16-17.57,3.26-.92,6.3-1.52,8.99-.06,14.24-4.34,28-3.92,42.33.02,2.27-1.23,5.16-1.25,8.12-.1,3.43,1.33,6.88,2.61,10.33,3.91,8.35,3.13,14.38,9.46,20.74,15.28,1.09,1,1.93,2.81,1.98,4.28.18,5.11.26,10.27-.25,15.35-.24,2.41-1.82,4.72-2.96,6.99-.8,1.6-1.88,3.05-2.88,4.65,1.33,4.44,2.42,8.86-.69,13.03-2.87,3.84-6.44,6.12-11.5,5.23-.44.58-.83,1.1-1.31,1.73Z" style="fill: #4a3726; stroke-width: 0px;"/>
  <path d="M93.68,102.85c.22-2.06.51-4.15-2.3-4.75-1.62,7.34-2.73,8.92-7.85,11.17,0-1.69.44-3.5-.13-4.91-.55-1.37-2.13-2.34-3.62-3.32-.63,3.81-.78,7.51-4.07,9.83-3.41,2.4-7.12,4.07-9.44,4.21-5.39-2.04-9.06-3.5-12.79-4.82-2.95-1.05-4.34-3.19-4.65-6.16-.09-.84-.01-1.7-.01-2.57-3.58.53-4.28,2.17-3.39,7.53-5.67.51-9.8-4.49-8.21-10.96-2.92-.04-3.5.39-5.64,4.37-1.95-2.09-2.36-4.46-1.4-6.81.88-2.14,2.35-4.04,3.9-6.61-1.02-.26-1.93-.63-2.86-.71-2.95-.24-5.41-1.22-7.04-3.82,4.85-4.69,4.98-5.39,1.67-10.66,12.37-13.9,16.48-31.09,17.6-48.82,2.49-2.01,4.57-3.68,6.57-5.29-.8-2.06-1.37-3.53-2.02-5.21,10.95-2.91,21.52-2.27,32.26-.01-.29,2.38-3.05,4.25-.71,6.38,1.57,1.43,3.39,2.6,5.36,4.09,1.17,17.8,5.36,34.79,17.49,48.76-3.27,7.19-3.02,9.42,1.49,12.5-2.72,3.88-6.57,3.23-10.65,2.73,3.17,2.86,5.6,6,4.21,10.34-.49,1.52-1.97,2.71-3,4.06-.26-.17-.52-.35-.78-.52Z" style="fill: #a5805b; stroke-width: 0px;"/>
  <path d="M109,71.19c-13.4-13.64-16.71-30.93-17.67-49.51-1.4-1.06-3.09-2.33-5.09-3.84.8-1.09,1.57-2.13,2.52-3.42,7.9,3.24,16.36,4.75,22.64,11.04,2.1,2.1,4.71,3.69,6.85,5.76,1,.97,1.97,2.51,2.01,3.81.11,4-.09,8.03-.51,12.02-.15,1.42-1.23,2.76-1.94,4.11-.4.75-.86,1.48-1.38,2.16-2.58,3.37-3.27,6.89-1.67,11.02,1.45,3.74-1.22,6.95-5.76,6.86Z" style="fill: #7b5b3b; stroke-width: 0px;"/>
  <path d="M18.25,71.49c-4.53-2.5-5.82-4.38-4.37-7.9,2.04-4.94-.75-8.28-2.76-12.1-1.24-2.36-2.52-4.9-2.87-7.48-.49-3.62-.12-7.35-.12-10.87,8.58-9.47,18.85-15.66,31.61-18.47.58.77,1.31,1.73,2.28,3.01-1.8,1.42-3.37,2.65-4.38,3.44-1.14,7.63-1.89,14.75-3.32,21.73-1.93,9.41-5.93,17.99-12.17,25.39-1.1,1.3-2.65,2.23-3.89,3.25Z" style="fill: #7b5b3b; stroke-width: 0px;"/>
  <path d="M64.2,73.13c1.14.9,2.13,1.45,2.82,2.26,1.71,1.98,3.8,2.69,6.22,1.93,2.38-.74,3.27-2.81,3.92-5.04.32-1.08.94-2.07,1.55-3.38,2.99,2.17,2.27,4.59,1.59,6.63-2.26,6.75-8.33,9.21-14.78,6.22-.39-.18-.78-.35-.74-.33-2.61.65-4.81,1.64-7.04,1.66-6.59.08-10.63-5.84-10.37-11.61.03-.75,1.05-1.95,1.73-2.03.66-.08,1.59.89,2.16,1.6.39.48.4,1.29.52,1.96.37,2.25,1.6,3.84,3.79,4.4,2.28.58,4.16-.4,5.79-1.99.77-.75,1.68-1.36,2.83-2.28Z" style="fill: #4a3726; stroke-width: 0px;"/>
  <path d="M64.61,58.53c2.09.58,4.34,1.05,6.47,1.83,1.85.67,2.33,2.17,1.52,3.99-1.6,3.59-4.61,5.56-8.21,6.4-2.96.69-8.99-4.67-8.77-7.74.08-1.07,1.24-2.54,2.26-2.95,2.02-.81,4.28-1.01,6.73-1.53Z" style="fill: #4a3726; stroke-width: 0px;"/>
  <path d="M75.55,86.37c.76.97,1.2,1.53,1.59,2.03-3.56,5.64-12.1,8.02-18.38,5.1-2.3-1.07-4.44-2.55-6.45-4.11-1.5-1.17-1.27-1.81.81-3.16,7.16,4.89,14.68,5.9,22.43.14Z" style="fill: #4a3726; stroke-width: 0px;"/>
  <path d="M46.85,43.56c2.25-.07,4.4,2.02,4.51,4.39.11,2.46-1.75,4.34-4.32,4.38-2.6.04-4.41-1.66-4.47-4.22-.06-2.27,2.02-4.48,4.29-4.55Z" style="fill: #4a3726; stroke-width: 0px;"/>
  <path d="M85.32,48.1c0,2.46-1.91,4.27-4.48,4.23-2.56-.04-4.3-1.81-4.29-4.4,0-2.28,2.14-4.38,4.44-4.36,2.26.02,4.32,2.18,4.32,4.53Z" style="fill: #4a3726; stroke-width: 0px;"/>
</svg>