<?xml version="1.0" encoding="UTF-8"?>
<svg id="uuid-d9bf6acc-2604-4b87-b528-26d7fdc3ac95" data-name="fill_snow" xmlns="http://www.w3.org/2000/svg" xmlns:xlink="http://www.w3.org/1999/xlink" viewBox="0 0 128 128">
  <defs>
    <linearGradient id="uuid-2d295bcd-6a31-4a5e-ac6e-6d91b5e454c5" x1="129.09" y1="-546.91" x2="127.79" y2="-392.91" gradientTransform="translate(0 296) scale(.5)" gradientUnits="userSpaceOnUse">
      <stop offset="0" stop-color="#ced8dd"/>
      <stop offset="1" stop-color="#b1b8ce"/>
    </linearGradient>
    <linearGradient id="uuid-2aaa5653-325a-4ab5-82c0-9180f3e2cc43" x1="128.15" y1="-517.52" x2="127.64" y2="-381.52" gradientTransform="translate(0 296) scale(.5)" gradientUnits="userSpaceOnUse">
      <stop offset="0" stop-color="#fefefe"/>
      <stop offset="1" stop-color="#b1b9ce"/>
    </linearGradient>
  </defs>
  <path d="M123.65,80.85c.32.37,1.12.59,1.62,1.11,1.93,2.04.49,2.67.73,4.74.14,1.22,1.41,2.27,1.27,3.34-.2,1.53-1.86,2.7-2.16,3.81-.27,1.02.11,2.19-.36,3.14-.44.9-2.22,1.26-3.02,1.98s-1.14,2.11-2.27,2.73c-1.51.83-2.84.11-3.97.49-.96.33-1.25,1.12-2.73,1.32-3.88.5-7.92-1.03-11.52-1.03-3.16,0-7.29,1.3-10.59,1.33s-7.62-1.31-10.91-1.32c-3.01,0-6.3,2.17-9.25,1-.32,8.81-12.94,8.77-13.01,0-.78,0-1.48.52-2.26.53-5.76.1-12.58-1.47-18.04-1.49-3.3,0-7.51,1.3-11.03,1.28-3.18-.02-7.04-1.33-9.91-1.32-1.38,0-3.07,1.12-4.27.79-1.07-.29-1.67-1.53-2.51-2.01-1.44-.82-3.12-.41-4.21-1.79-.72-.92-.71-2.35-1.23-3.15-.47-.73-1.81-.75-2.31-2.32-.53-1.7.21-2.48.13-3.71-.06-.91-.84-1.91-.88-3.09-.08-2.25,1.35-2.25,1.81-3.7.31-.98.05-2.07.48-3.02.5-1.12,3.93-3.59,4.96-5.04,1.22-1.72,1.84-4.22,3.06-5.94,1.39-1.95,4.1-3.62,5.44-5.56,1.15-1.68,1.41-3.76,2.56-5.44,1.22-1.78,3.67-3.28,4.94-5.06s1.84-4.22,3.06-5.94,3.67-3.27,4.94-5.06,1.83-4.22,3.06-5.94c1.3-1.82,3.39-2.65,4.72-4.28,1.19-1.45,1.96-3.93,3.22-5.28,1.6-1.7,4.28-2.16,6.23-3.27,1.43-.82,3.53-3.01,5.03-3.47,1.92-.6,4.27-.02,6.27-.23,1.81-.2,3.71-.99,5.5-1.03,2.6-.06,4.39,1.54,6.76,2.28,1.87.58,4.82.69,6.46,1.54,1.47.77,2.7,3.27,4.02,4.48,1.4,1.29,4.07,2.41,5.23,3.77,1.35,1.58,2.08,4.99,3.35,6.65,1.05,1.39,3.42,2.6,4.65,4.35s1.84,4.22,3.06,5.94,3.67,3.27,4.94,5.06,1.84,4.22,3.06,5.94,3.48,3.12,4.72,4.78c1.37,1.84,1.99,4.4,3.28,6.22s3.67,3.27,4.94,5.06c1.11,1.56,1.9,4.64,2.93,5.82Z" style="fill: #0e1011;"/>
  <path d="M84.3,31.2c2.71,2.41,3.19,4.84,5.19,7.55,1.33,1.79,3.58,3.21,4.72,4.78,1.4,1.91,1.74,4.51,3.06,6.44s3.78,3.08,4.95,4.55,1.85,4.27,3.05,5.95c1.32,1.85,4,3.5,5.23,5.27,1.05,1.51,1.72,4.23,2.76,5.74s3.47,2.55,4.73,4.27,1.5,3.73,2.58,5.42c.66,1.02,2.35,2.13,2.67,2.83.13.29,1.2,5.85,1.14,6.16-.14.77-1.49,1.73-1.76,2.7-.24.84.06,1.92-.36,2.64-.31.54-1.84.86-2.53,1.47-.89.8-1.06,2.39-2.51,2.54-.89.09-1.82-.53-2.42-.42-.55.1-1.2,1.19-1.93,1.52-1.89.84-10.36-.78-13.62-.62-6.84.33-9.43.62-16.5,0-.78-.07-3.58.14-3.75,0-.06-.05-.06-1.45,0-1.5.59-.5,5.47,1.21,7.93-2.33.45-.64,1-2.56,1.11-2.65.23-.17,2.81.51,3.71.51,4.73.02,7.43-4.66,6.03-9.07-.38-1.2-2.7-2.85-2.7-3.22,0-.2,1.69-2.16,1.9-3.53.51-3.42-1.87-5.69-1.82-6.47.03-.59,1.91-2.68,1.89-5.01-.01-2.03-2.13-4.59-2.04-4.97.05-.19,1.93-1.4,2.52-2.5,3.24-6.02-3.62-12.14-9.52-8.77-.34-4.22-5.24-6.48-9-5,.03-4.67-4.45-6.09-8.49-5.52-.28-8.8-12.74-8.83-13.04,0-3.25-.14-6.09-.31-7.92,2.83-.37.64-.53,2.06-.61,2.13-.31.28-3.8-.22-5.32.43-2.28.97-3.32,4.34-3.67,4.6-.4.3-5.27-1.83-8.18,1.06-2.4,2.38-2.48,6.68-.3,9.24.42.5,1.48.65,1.53.97.22,1.68-1.07,1.31-1.51,2.13-.66,1.24-.65,3.78-.27,5.14.28,1,1.79,2.52,1.69,3.14-.13.81-2.31,3-2.41,4.61-.04.65.53,2.99.83,3.6.5,1.03,1.94.82,1.65,2.12-7.82,3.97-.88,15.16,6.49,11.01.54,2.94,2.78,5.15,5.81,5.47,2.73.3,3.66-1.61,4.2,2.53-4.99-.04-9.72-1.27-14.75-1-2.29.12-5.19.94-7.48,1.03-3.08.11-6.48-.94-9.49-1.05-1.77-.06-3.9.62-5.02.53s-1.48-1.25-2.29-1.73c-.94-.55-2.63-.55-3.21-1.29-.4-.52-.39-1.54-.82-2.18-.55-.8-2.22-2.05-2.33-2.62s.45-1.56.42-2.43c-.03-1.24-.89-2.28-.94-3.11-.07-1.07,1.5-1.51,1.8-2.51,1.1-3.58.07-2.87,3.1-5.9,3.43-3.44,2.89-4.9,5.29-8.21,1.31-1.8,3.74-2.71,4.95-4.55,1.03-1.57,1.36-3.77,2.55-5.45,1.38-1.95,4.05-3.61,5.44-5.56,1.22-1.72,1.84-4.22,3.06-5.94s3.67-3.27,4.94-5.06,1.84-4.22,3.06-5.94,3.38-3.13,4.71-4.79c1.14-1.43,1.94-3.71,3.25-4.75.43-.34,9.08-5.26,9.61-5.39,1.11-.25,10.84-1.23,11.91-1.12,1.82.18,2.98,1.39,4.63,1.88,1.8.54,4.6.64,6.08,1.42s2.38,2.91,3.51,3.99c.84.8,1.98,1.18,2.82,1.93Z" style="fill: url(#uuid-2d295bcd-6a31-4a5e-ac6e-6d91b5e454c5);"/>
  <path d="M60,56.75c-.27-.95-6.65-6.06-7.73-7.77-2.4-3.82.89-8.12,4.91-5.91,1.07.59,1.67,1.93,2.81,2.43.08-3.32-1.02-9.33,3.76-9.54,5.24-.22,4.21,5.99,4.25,9.54,3.82-4.89,10.14-3.58,8,3.15-2.44,2.22-4.51,4.93-6.99,7.13-.61.54-1.51.63-1.51.72v8.5c1.5-.52,7-3.05,7.73-4.02,1.18-1.57,1.89-8.89,3.15-11.35.95-1.86,3.4-2.43,5.25-1.51,3.14,1.55,1.8,4.81.87,7.38.7.73,5.84-4.75,9.28-2.53,1.85,1.19,2.11,3.72.94,5.51-.83,1.27-6.23,3.41-6.23,3.78,4.99.82,8.8,5.69,2.85,8.39-2.17.98-9.36-3.03-12.55-2.63-.94.12-6.78,3.35-6.78,3.74,1.03.64,6.08,4.2,6.71,4.22,3.27.11,13.59-5.97,15.18-.62.43,1.42.13,3.76-1.2,4.6-.67.42-4.68.83-3.7,2.05.17.21,3.84,1.68,4.76,2.5,1.75,1.56,2.47,3.86.75,5.77-3.1,3.44-6.32-1.17-9.51-1.76-.45.49,2.13,5.48-1.63,7.12-6.27,2.74-6.6-9.32-8-12.99-2.62-1.32-4.97-3.41-7.87-4.13v8.25c0,.66,8.38,7.33,8.9,9.61.75,3.27-2.42,5.75-5.4,4.39-.92-.42-1.85-2.36-3-2.74.01,3.19.82,9.35-3.76,9.53-5.06.21-4.29-6.1-4.24-9.53-1.14.5-1.74,1.85-2.81,2.43-3.21,1.77-6.31-.72-5.68-4.17.33-1.81,8.5-8.38,8.5-9.01v-8.75l-7.22,4.03c-2.19,3.03-2.02,16.77-8.74,12.68-4-2.43-.42-6.48-1.04-7.21-2.78,1.98-10.27,5.62-10.52-.26-.17-4.12,3.93-4.33,6.51-6.49-2.28-1.29-5.72-1.37-5.49-4.96.41-6.39,9.47-1.46,12.87-.91,4.05.67,6.35-1.72,9.63-3.63,0-.42-6.34-4.17-7.22-4.19-3.31-.07-10.29,4.48-13.47,2.39-2.11-1.38-2.27-5.05,0-6.39.87-.51,4.59-.78,3.69-2.05-.16-.22-3.88-1.84-4.74-2.51-1.91-1.48-2.53-3.35-.99-5.49,3.11-4.32,8.97,2.32,9.74,1.49-.13-2.17-1.43-6.43,1.76-6.99,7.26-1.28,5.94,8.37,8,12.98l7.24,4.01c-.4-2.22.54-6.33,0-8.25Z" style="fill: url(#uuid-2aaa5653-325a-4ab5-82c0-9180f3e2cc43);"/>
  <path d="M57.5,83c.7,3.15-1.88,4.72-3.99,6.5.57-2.56.68-6.28,3.99-6.5Z" style="fill: #b9c2d2;"/>
  <path d="M72.86,59.36c-.22.27-2.11,1.4-2.35,1.13-.73-3.25,1.87-4.43,3.75-6.49l-1.4,5.35Z" style="fill: #b9c2d2;"/>
  <path d="M72.88,84.12c.49.6,1.1,3.88,1.11,4.88-1.99-1.47-4.19-3.2-3.49-6,.56.44,2.08.75,2.38,1.12Z" style="fill: #b9c2d2;"/>
  <path d="M57.5,60.5c-3.12-.77-2.52-2.42-3.5-5,2.61.04,3.99,2.55,3.5,5Z" style="fill: #b9c2d2;"/>
  <path d="M50.5,71c-.62,3.16-3.9,1.44-6,.99.51-1.58,5.44-1.75,6-.99Z" style="fill: #b9c2d2;"/>
  <path d="M83.5,71.5c-1.28,1.59-4.77,2.26-5.99.25,1.89-2.29,3.7-.39,5.99-.25Z" style="fill: #b9c2d2;"/>
</svg>