<?xml version="1.0" encoding="UTF-8"?>
<svg id="uuid-505beafb-863f-4d59-94ae-dc2841ec1c94" data-name="fill_potatochips" xmlns="http://www.w3.org/2000/svg" xmlns:xlink="http://www.w3.org/1999/xlink" viewBox="0 0 128 128">
  <defs>
    <linearGradient id="uuid-29027db2-c2b4-4930-88f3-719cf5cd22b1" x1="220.1" y1="-1306.21" x2="336.26" y2="-1101.93" gradientTransform="translate(-74 666) scale(.5)" gradientUnits="userSpaceOnUse">
      <stop offset="0" stop-color="#f9b732"/>
      <stop offset="1" stop-color="#de9146"/>
    </linearGradient>
    <linearGradient id="uuid-1f9d314d-dd71-4328-86d3-53cb7f60a372" x1="239.05" y1="-1191.46" x2="286.72" y2="-1138.84" gradientTransform="translate(-74 666) scale(.5)" gradientUnits="userSpaceOnUse">
      <stop offset="0" stop-color="#f2e0b3"/>
      <stop offset="1" stop-color="#d9ba82"/>
    </linearGradient>
    <linearGradient id="uuid-c94039ff-34bd-4c29-b56e-f5074fcd9560" x1="253.38" y1="-1255.99" x2="274.3" y2="-1211.68" gradientTransform="translate(-74 666) scale(.5)" gradientUnits="userSpaceOnUse">
      <stop offset="0" stop-color="#e9dab3"/>
      <stop offset="1" stop-color="#dabd86"/>
    </linearGradient>
  </defs>
  <path d="M24.82,13.07c2.85-.93,7.49,1.15,10.43,1.43,7.22.69,13.03-2.05,20.02-1.52,3.55.27,6.84,1.81,10.57,1.84s7.29-1.54,10.89-1.84c6.97-.59,12.75,2.28,19.97,1.47,1.86-.21,8.4-2.72,9.58-.99,1,1.48-2.17,7.42-2.56,9.51-1.31,7.02.77,12.72,1.71,19.34,1.57,11,2.58,21.29,1.56,32.44-.82,8.99-4.46,19.69-3.45,28.45.33,2.89,3.33,8.49,2.97,10.54-.4,2.28-3.49,1.52-5.14,1.89-1.56.35-3.19,1.1-4.66,1.34-7.68,1.25-14.34-2.4-21.93-1.43-1.67.21-3.69,1.14-5.59,1.41-7.47,1.06-13.5-2.35-20.91-1.41-1.85.24-3.93,1.27-6.04,1.46-5.44.48-8.97-.55-14.05-1.44-1.22-.21-2.85.34-3.74-.76-1.37-1.72,2.01-8.53,2.42-11.17,1.06-6.77-.83-11.65-1.73-18.02-1.89-13.36-2.4-25.85-.57-39.28,1.2-8.81,3.89-15.59,1.57-24.72-.45-1.76-3.62-7.78-1.32-8.54Z" style="fill: #0d0d0c;"/>
  <path d="M26.5,58c.35-11.37,4.92-24.58,2.86-35.11-.5-2.57-1.55-4.93-2.35-7.39,4.91.85,9.63,2.44,14.69,1.94,2.79-.28,5.83-1.62,8.61-1.89,5.44-.52,9.77,1.8,14.92,1.96,5.69.18,10.67-2.52,16.47-1.96,2.79.27,5.82,1.61,8.61,1.89,4.66.46,8.76-.82,13.19-1.94-.5,1.84-1.39,3.53-1.85,5.39-3.07,12.33,2.99,27.15,3.38,40.33.34,11.5-2.12,20.7-3.89,31.65-1.25,7.72.05,12.82,2.37,20.12-4.87.42-8.63,1.95-13.75,1.5-3.49-.31-7.41-1.97-11-2.04s-7.46,1.78-10.98,2.06c-5.89.48-10.21-1.96-15.52-2.06-3.8-.07-7.82,1.76-11.48,2.06-5.13.42-8.87-1.36-13.77-1.52.55-2.72,1.81-5.15,2.35-7.89,2.03-10.31-2.51-23.4-2.86-34.61-.49-4.09-.49-8.41,0-12.5Z" style="fill: url(#uuid-29027db2-c2b4-4930-88f3-719cf5cd22b1);"/>
  <path d="M78,46c6.72-4.26,19.82-6.2,23.23,3.01,4.15,11.21-8.03,25.45-18.16,29.06-.99,1.4,2.99,10.01-.25,13.26-2.71,2.71-8.68.13-12.14-.27-6.68-.76-14.11-.26-20.7,1.18-3.72.81-10.01,3.82-13.24,3.25-2.77-.49-3.21-5.36-3.28-7.71-.29-9.46,5.15-18.78,13.52-23.02-7-3.81-12.63-10.82-12.97-19.08-.26-6.25,5.08-4.25,8.7-4.15,7.66.21,14.43.09,21.78-2.27,2.56-.82,7.01-3.5,9.25-3.3,4.26.39,3.98,6.86,4.24,10.04Z" style="fill: #11120f;"/>
  <path d="M97.77,89.02c3.06-.91.82,6.4.71,8.21s-.12,4.25.03,6.02c.12,1.46,2.13,6.29-.26,6.27-1.93-.01-2.7-7.07-2.76-8.74-.07-1.83.8-11.31,2.29-11.76Z" style="fill: #e1c793;"/>
  <path d="M33.46,21.54c.89.59,1.16,9.19,1.04,10.7-.09,1.11-.52,5.57-2.19,5.22-2.33-.49-.23-6.31-.27-8.22-.03-1.57-1.64-6.83-.57-7.53.41-.27,1.65-.4,1.99-.18Z" style="fill: #e1c793;"/>
  <path d="M62.37,65.63c7.58-1,15.58,7.16,17.77,13.98.63,1.97,2.86,10.27-.36,10.35-13.7-3.35-28.09-2.55-41.08,3.05-1.18.09-2-.62-2.19-1.77-1.43-8.68,2.06-18.04,9.53-22.94,5.31-3.49,7-1.23,12.71-1.79,1.3-.13,2.45-.71,3.63-.87Z" style="fill: url(#uuid-1f9d314d-dd71-4328-86d3-53cb7f60a372);"/>
  <path d="M73.35,38.57c1.37-.08,1.59,3.15,1.67,4.16,1.71,22.1-27.57,28.83-36.11,10.61-.75-1.6-3.27-9.13-1.09-9.81.87-.27,6.79.92,8.41.99,9.3.37,18.82-1.92,27.12-5.95Z" style="fill: url(#uuid-c94039ff-34bd-4c29-b56e-f5074fcd9560);"/>
  <path d="M67.5,63.49l5.21-4.54c.81-1.34,1.82-2.56,2.55-3.95,2.16-4.14,1.04-5.29,5.9-7.6,14.31-6.81,23.39,2.07,15.05,16.05-3.33,5.59-8.6,9.78-14.47,12.5-3.26-5.46-7.89-10.73-14.24-12.46Z" style="fill: #e1c793;"/>
  <path d="M46.5,71.5c-.13,2.96-3.01,4.42-4.44,7.31-1.14,2.3-1.13,6.39-4.06,5.69-.85-.93,1.57-6.75,2.28-7.97.64-1.1,4.83-6.42,6.22-5.03Z" style="fill: #fce9d3;"/>
</svg>