<?xml version="1.0" encoding="UTF-8"?>
<svg id="uuid-102ea4c7-d807-44c2-a8db-135da56e3da8" data-name="fill_cheese" xmlns="http://www.w3.org/2000/svg" xmlns:xlink="http://www.w3.org/1999/xlink" viewBox="0 0 128 128">
  <defs>
    <linearGradient id="uuid-5afc6dc8-b8a3-4adf-94ed-cd3fedce3139" x1="-1607.26" y1="-553.02" x2="-1446.88" y2="-417.45" gradientTransform="translate(814 296) scale(.5)" gradientUnits="userSpaceOnUse">
      <stop offset="0" stop-color="#fad76b"/>
      <stop offset="1" stop-color="#fec91f"/>
    </linearGradient>
    <linearGradient id="uuid-91004855-b400-4bde-bbed-15d9683977ab" x1="-1445.09" y1="-391.22" x2="-1445.06" y2="-370.22" gradientTransform="translate(814 296) scale(.5)" gradientUnits="userSpaceOnUse">
      <stop offset="0" stop-color="#dfb9b7"/>
      <stop offset="1" stop-color="#da9d9a"/>
    </linearGradient>
  </defs>
  <path d="M34.65,22.85c1.73,1.57,4.11,1.34,5.87-.07,1.37-1.1,1.24-2.64,3.21-2.81,1.53-.14,9.74,1.71,10.93,2.51,1.29.86.69,4.23.89,5.73,1.53,11.38,15.97,16.18,24.28,8.13,1.73-1.68,3.41-6.47,5.48-6.69l27.39,6.41c.67.22,1.97.73,2.32,1.3,1.46,2.4-.12,13.93-.68,17.25-1.08,6.37-2.95,12.63-5.85,18.4,2.9-.18,10.07-.29,10.89,3.36,1.41,6.24-4.43,13.55-10.88,13.66,1.33,3.58-2.93,9.21-2.97,11.73-.01.91.8,1.99.92,3.05.64,5.47-.96,10.46-7.23,10.73-2.62.11-5.15-1.47-7.5-1.54-2.12-.06-4.49,1.3-6.54,1.48-5.23.47-8.8-2.79-8.94-7.96-5.98,3.18-12.48,5.91-19.14,7.36-2.88.63-15.27,2.76-17,1.02l-6.15-19.65c.01-3.06,5.07-2.33,5.53-6.03.39-3.14-1.59-5.33-4.74-5.25-1.89.04-3.61,1.39-4.87-1.09L8.48,14.75c.03-2.14,1.1-2.88,3.2-2.72,3.83.29,14.79,3.07,18.71,4.33,4.54,1.46,1.97,4.41,4.25,6.49ZM30.47,19.03c-5.73-.47-11.72-3.24-17.27-3.98-.76-.1-1.97-.45-1.69.69l20.59,65.92c.54,1.44,1.85.28,3.14.31,6.09.13,9.45,7.9,5.04,12.56-1,1.05-3.24,1.48-3.27,2.7l5.48,16.55c3.22.12,6.85-.36,10.11-.92,5.49-.94,11.13-2.57,16.24-4.76,1.8-.77,7.94-3.55,8.45-5.06.71-2.12-1.52-5.49-2.14-7.92-.32-1.25-.52-4.87-.69-5.06-.17-.21-3.74-.84-5.12-1.63-3.6-2.06-7.62-8.92-5.59-12.92,1.83-3.6,12.45-2.97,15.25,0-1.26-3.78,2.93-11.4,7.19-8.94,2.8,1.62,1.14,3.36,1.37,4.65.25,1.41,6.99.74,7.4.24.34-.41-.51-2.82,1.29-4.46,2.37-2.17,5.55.37,6.86,2.66l1.39,5.85c5.63-11.36,8.7-23.67,8.44-36.43l-27.14-6.49c-1.18,1.1-1.5,2.6-2.53,3.93-4.14,5.37-10.66,7.41-17.29,6.26-4.48-.78-10.12-5.01-11.83-9.17-1.1-2.67-1.73-6.18-1.69-9.06-2.26-.07-6.98-2.22-8.73-1.07-1.34.88-1.5,2.29-3.69,2.81-5.58,1.34-9.38-1.65-9.57-7.25ZM85.5,69c-2.92-.41-4.09,2.48-4,4.99.13.14,3.31-1.43,3.41-1.58.28-.42.17-2.62.58-3.41ZM101.5,74c.71-1.72-2.44-6.47-4-4.99-.13.12.49,3.27.58,3.41.1.16,3.28,1.72,3.41,1.58ZM105.5,87c4.52,1.49,9.41-1.48,10.86-5.89,1.09-3.33,1.13-4.85-2.73-5.49-4.15-.69-8.04,1.54-10.88,4.36-2.45-2.17-3.26-5.07-6.99-5.49-2-.23-7.97-.24-9.78.25-2.75.74-3.66,3.61-5.73,5.25-3.09-2.87-6.9-5.18-11.28-4.26-1.93.41-3.08.88-2.95,2.96.35,5.45,6.1,10.13,11.47,8.32-1.49,4.43.36,8.45,2.01,12.5,7.72-3.95,16.26-3.95,23.99,0,1.67-4.08,2.83-8.07,2.01-12.5ZM90.4,99.14c-5.39.26-11.63,2.06-11.44,8.61.23,7.81,9.44,3.38,13.82,3.73,2.38.19,3.85,1.23,6.5,1.05,5.07-.34,5.64-5.32,3.61-9.16-1.83-3.47-8.97-4.39-12.49-4.22Z" style="fill: #060503;"/>
  <path d="M30.47,19.03c.19,5.6,3.98,8.59,9.57,7.25,2.19-.53,2.36-1.94,3.69-2.81,1.75-1.15,6.47,1.01,8.73,1.07-.03,2.88.59,6.39,1.69,9.06,1.71,4.16,7.34,8.39,11.83,9.17,6.63,1.15,13.14-.89,17.29-6.26,1.03-1.34,1.35-2.83,2.53-3.93l27.14,6.49c.25,12.76-2.82,25.08-8.44,36.43l-1.39-5.85c-1.31-2.28-4.5-4.83-6.86-2.66-1.79,1.64-.95,4.05-1.29,4.46-.41.5-7.16,1.17-7.4-.24-.23-1.29,1.44-3.03-1.37-4.65-4.26-2.46-8.45,5.16-7.19,8.94-2.8-2.97-13.42-3.6-15.25,0-2.03,3.99,2,10.86,5.59,12.92,1.38.79,4.95,1.42,5.12,1.63.16.2.37,3.81.69,5.06.62,2.44,2.85,5.8,2.14,7.92-.51,1.51-6.64,4.29-8.45,5.06-5.11,2.19-10.75,3.82-16.24,4.76-3.26.56-6.89,1.04-10.11.92l-5.48-16.55c.03-1.22,2.27-1.64,3.27-2.7,4.41-4.66,1.05-12.43-5.04-12.56-1.29-.03-2.6,1.14-3.14-.31L11.5,15.74c-.27-1.14.93-.79,1.69-.69,5.55.74,11.54,3.51,17.27,3.98ZM19,28l8.6,27.15c.65,1.58,3.24,1.08,2.82-.77-1.78-3.07-8.05-25.33-9.41-26.13-.63-.37-1.33-.25-2.01-.24ZM108.5,44.5c.09-1.46.19-1.97-1.21-2.54-5.19-2.11-12.68-2.36-18.11-4.43-2.56-.24-3.27,1.68-.59,2.62,2.2.77,19.16,5.04,19.9,4.35ZM76.85,58.85c4.41-4.89-3.7-12.2-7.85-6.11-3.54,5.21,3.74,10.67,7.85,6.11ZM55.83,67.83c6.18-6.18,1.21-16.88-7.56-16.34-4.61.28-7.58,3.04-8.54,7.48-1.97,9.08,9.43,15.53,16.11,8.86ZM30.25,59c-.62.17-.79,1.12-.79,1.73,0,.93,3.34,11.11,3.92,12.12,1.1,1.89,2.7,1.42,2.6-.55-.03-.68-3.68-11.76-4.09-12.46s-.72-1.1-1.65-.84Z" style="fill: url(#uuid-5afc6dc8-b8a3-4adf-94ed-cd3fedce3139);"/>
  <path d="M105.5,87c.82,4.43-.34,8.41-2.01,12.5-7.73-3.95-16.26-3.95-23.99,0-1.65-4.05-3.5-8.07-2.01-12.5-5.37,1.81-11.12-2.87-11.47-8.32-.13-2.08,1.01-2.55,2.95-2.96,4.38-.93,8.19,1.39,11.28,4.26,2.07-1.64,2.98-4.51,5.73-5.25,1.81-.49,7.78-.47,9.78-.25,3.73.42,4.54,3.32,6.99,5.49,2.84-2.82,6.74-5.05,10.88-4.36,3.86.64,3.82,2.16,2.73,5.49-1.45,4.41-6.34,7.38-10.86,5.89Z" style="fill: #e4e4e4;"/>
  <path d="M90.4,99.14c3.52-.17,10.66.75,12.49,4.22,2.02,3.85,1.45,8.82-3.61,9.16-2.64.18-4.12-.86-6.5-1.05-4.38-.35-13.59,4.09-13.82-3.73-.19-6.55,6.05-8.35,11.44-8.61Z" style="fill: url(#uuid-91004855-b400-4bde-bbed-15d9683977ab);"/>
  <path d="M85.5,69c-.41.79-.31,2.99-.58,3.41-.1.16-3.28,1.72-3.41,1.58-.09-2.51,1.07-5.41,4-4.99Z" style="fill: #a58c66;"/>
  <path d="M101.5,74c-.13.14-3.31-1.43-3.41-1.58-.1-.14-.71-3.29-.58-3.41,1.56-1.47,4.71,3.28,4,4.99Z" style="fill: #a48b65;"/>
  <path d="M55.83,67.83c-6.67,6.67-18.07.22-16.11-8.86.96-4.44,3.94-7.19,8.54-7.48,8.78-.54,13.74,10.16,7.56,16.34ZM53.83,56.17c-3.43-3.44-10.32-1.75-11.22,3.2-1.86,10.24,12.9,11.06,13.21,1.8.05-1.4-1.01-4.02-2-5Z" style="fill: #060503;"/>
  <path d="M19,28c.67,0,1.38-.13,2.01.24,1.36.8,7.63,23.07,9.41,26.13.43,1.86-2.17,2.35-2.82.77l-8.6-27.15Z" style="fill: #feecb6;"/>
  <path d="M76.85,58.85c-4.12,4.56-11.4-.9-7.85-6.11,4.15-6.1,12.26,1.22,7.85,6.11ZM72.35,53.59c-1.64.49-1.87,2.89-.35,3.67,3.32,1.7,4.66-4.97.35-3.67Z" style="fill: #060503;"/>
  <path d="M108.5,44.5c-.75.7-17.7-3.57-19.9-4.35-2.68-.94-1.97-2.86.59-2.62,5.43,2.08,12.92,2.32,18.11,4.43,1.4.57,1.3,1.08,1.21,2.54Z" style="fill: #feecb6;"/>
  <path d="M30.25,59c.93-.26,1.22.12,1.65.84s4.05,11.77,4.09,12.46c.1,1.97-1.5,2.44-2.6.55-.59-1.01-3.93-11.19-3.92-12.12,0-.61.17-1.56.79-1.73Z" style="fill: #feecb6;"/>
  <path d="M81.57,90.93c-1.44-1,.14-4.64,2.45-3.2,2.5,1.55-.72,4.4-2.45,3.2Z" style="fill: #0e0b0b;"/>
  <path d="M101.43,88.07c1.82,2.63-3.69,4.67-3.3,1.26.22-1.91,2.57-2.32,3.3-1.26Z" style="fill: #0e0b0b;"/>
  <path d="M100,103.01c.92,1.32-1.55,2.27-1.99,2.77-.66.75-.29,2.3-2.27,2.03-2.5-.33-.01-5.22,2.51-5.26.25,0,1.7.38,1.75.46Z" style="fill: #0e0b0b;"/>
  <path d="M88,107.5c-3.32.59-2.02-.75-2.99-1.76-.5-.52-1.82-.6-1.96-.79-.29-.41-.1-1.88.41-2.24,2.21-1.51,5.44,2.6,4.53,4.78Z" style="fill: #0e0b0b;"/>
</svg>