<?xml version="1.0" encoding="UTF-8"?>
<svg id="fill_peppergrinder" xmlns="http://www.w3.org/2000/svg" viewBox="0 0 128 128">
  <path d="M52.31,67.34v-7.34c-7.99-2.99-11.13-10.77-5.46-18.59-8.09-13-4.56-25.73,7.94-28.62-.12-10.38,3.81-11.84,11.09-11.47,4.81.25,6.79,3.24,7.19,11.24,13.71,2.8,15.57,19.97,8.02,28.61,5.28,7.55,3.44,15.26-5.46,18.8v7.34c7.16,2,9.77,7.17,9.58,14.61-.27,10.81-.22,21.64-.01,32.46.12,6.59-5.5,12.78-12.22,12.34-6.25-.41-12.55-.08-18.83-.09-6.07,0-11.25-4.9-11.31-11.04-.11-12.36-.09-24.73,0-37.1.04-5.2,3.49-9.07,9.48-11.15Z" style="fill: #4a3726; stroke-width: 0px;"/>
  <path d="M78.19,97.27c0,5.5,0,11.01,0,16.51,0,4.27-1.53,6.17-5.75,6.32-5.69.2-11.4.22-17.09-.02-4.08-.17-5.57-2.07-5.57-6.19,0-11.2,0-22.41,0-33.61,0-4.26,1.56-6.17,5.76-6.31,5.79-.19,11.59-.17,17.38,0,3.53.1,5.26,2.23,5.27,5.91.02,5.79,0,11.59,0,17.38Z" style="fill: #a5805b; stroke-width: 0px;"/>
  <path d="M63.76,38.45c-1.93,0-3.86.03-5.79,0-5.38-.1-8.42-3.29-8.68-9.08-.26-5.76,2.78-9.66,8.11-9.94,4.33-.23,8.69-.19,13.03-.01,4.66.19,7.14,2.5,7.96,7.24,1.26,7.31-2.42,12.32-9.7,11.81-1.63-.11-3.28-.02-4.92-.02Z" style="fill: #a5805b; stroke-width: 0px;"/>
  <path d="M63.97,52.97c-2.89,0-5.79-.02-8.68.01-2.34.02-4.03-.91-4.3-3.33-.27-2.46,1.05-4.02,3.48-4.53.84-.18,1.71-.25,2.57-.26,4.63-.02,9.26-.05,13.88.01,1.13.01,2.3.21,3.39.53,2.07.62,2.87,2.26,2.65,4.26-.23,2.1-1.62,3.24-3.74,3.28-3.08.06-6.17.01-9.26.02Z" style="fill: #7b5b3b; stroke-width: 0px;"/>
  <path d="M67.33,59.92c2.3,1.76,1.92,4.08,1.22,5.9-.35.9-2.45,1.18-3.8,1.6-.61.19-1.34-.01-2,.04-2.74.22-3.75-1.03-3.74-3.74.01-2.61.77-4.04,3.63-3.83,1.61.12,3.24.02,4.7.02Z" style="fill: #a5805b; stroke-width: 0px;"/>
  <path d="M62.14,12.57v-4.52h3.63v4.52h-3.63Z" style="fill: #7b5b3b; stroke-width: 0px;"/>
</svg>