<?xml version="1.0" encoding="UTF-8"?>
<svg id="fill_wood" xmlns="http://www.w3.org/2000/svg" viewBox="0 0 128 128">
  <path d="M77.24,100.64c3.68,19.48,3.2,28.76-19.25,26.21-12.64-1.59-7.53-17.16-8.5-26.21-28.78,1.85-31.38-5.22-16.11-28.54-8.78-9.79,3.96-19.74,7.87-29.25-7.19-9.47,10.09-26.36,13.79-36.17,4.61-7.93,13.38-7.91,17.99.06,3.8,9.97,20.78,26.31,13.74,36.07,3.63,9.15,16.8,19.61,7.83,29.23,16.42,24.69,11.15,30.31-17.36,28.61Z" style="fill: #4a3726; stroke-width: 0px;"/>
  <path d="M43.9,67.56c-2.18-.35-4.2-.66-7.03-1.11,3.29-9.99,10.01-17.56,14.24-27.01-1.73-.51-3.29-.97-5.57-1.64,22.02-38.47,14.9-39.41,36.64-.04-1.86.62-3.45,1.14-5.4,1.79,4.17,9.38,11.3,16.91,14.29,26.85-2.61.44-4.62.79-7.17,1.22,4.04,8.66,11.25,15.98,12.96,25.41H31.14c1.71-9.55,9.28-16.62,12.76-25.47Z" style="fill: #306038; stroke-width: 0px;"/>
  <path d="M71.09,104.52v14.49c-3.72.96-14.75,3.21-14.81-2.71.28-5.64-.94-11.39.91-16.83,5.67-.3,9.38,3.56,13.9,5.05Z" style="fill: #7b5b3b; stroke-width: 0px;"/>
</svg>