<?xml version="1.0" encoding="UTF-8"?>
<svg id="uuid-7119efbf-971d-4458-a753-61883e410985" data-name="fill_staircaserailing" xmlns="http://www.w3.org/2000/svg" xmlns:xlink="http://www.w3.org/1999/xlink" viewBox="0 0 128 128">
  <defs>
    <linearGradient id="uuid-58b30002-c994-476f-85f3-3dd473b702d2" x1="-4674.27" y1="-951.35" x2="-4673.79" y2="-867.35" gradientTransform="translate(2368 518) scale(.5)" gradientUnits="userSpaceOnUse">
      <stop offset="0" stop-color="#cda16e"/>
      <stop offset="1" stop-color="#ae7d3e"/>
    </linearGradient>
    <linearGradient id="uuid-775504b1-0f76-4721-b7c9-efc6a0b235e1" x1="-4674" y1="-842" x2="-4674.01" y2="-827" gradientTransform="translate(2368 518) scale(.5)" gradientUnits="userSpaceOnUse">
      <stop offset="0" stop-color="#b07e41"/>
      <stop offset="1" stop-color="#ca9e69"/>
    </linearGradient>
    <linearGradient id="uuid-e8b8c5b2-6cfc-4c43-86ef-f36797f5fac1" x1="-4541.95" y1="-841.19" x2="-4542.02" y2="-826.19" gradientTransform="translate(2368 518) scale(.5)" gradientUnits="userSpaceOnUse">
      <stop offset="0" stop-color="#b07f41"/>
      <stop offset="1" stop-color="#ca9e69"/>
    </linearGradient>
    <linearGradient id="uuid-d04e6dca-0aaa-49c9-8462-63412948b749" x1="-4607.97" y1="-841.66" x2="-4608.01" y2="-826.66" gradientTransform="translate(2368 518) scale(.5)" gradientUnits="userSpaceOnUse">
      <stop offset="0" stop-color="#b07f41"/>
      <stop offset="1" stop-color="#ca9e69"/>
    </linearGradient>
    <linearGradient id="uuid-5e1ae616-05da-48b4-b185-c2c33a72efc0" x1="-4542.25" y1="-991.7" x2="-4542.24" y2="-976.27" gradientTransform="translate(2368 518) scale(.5)" gradientUnits="userSpaceOnUse">
      <stop offset="0" stop-color="#cba06b"/>
      <stop offset="1" stop-color="#b18143"/>
    </linearGradient>
    <linearGradient id="uuid-2c517aad-5be3-477a-bc45-68ee3ca0a9c4" x1="-4608.02" y1="-991.5" x2="-4607.97" y2="-976.5" gradientTransform="translate(2368 518) scale(.5)" gradientUnits="userSpaceOnUse">
      <stop offset="0" stop-color="#cba06b"/>
      <stop offset="1" stop-color="#b18143"/>
    </linearGradient>
    <linearGradient id="uuid-865c185c-c3a4-426e-9e04-e8288d1148ea" x1="-4674.09" y1="-991.22" x2="-4674.07" y2="-976.1" gradientTransform="translate(2368 518) scale(.5)" gradientUnits="userSpaceOnUse">
      <stop offset="0" stop-color="#cba06b"/>
      <stop offset="1" stop-color="#b18143"/>
    </linearGradient>
    <linearGradient id="uuid-54697c41-0352-4076-bb23-dad4f55b64e8" x1="-4607.86" y1="-951.58" x2="-4608.13" y2="-867.58" gradientTransform="translate(2368 518) scale(.5)" gradientUnits="userSpaceOnUse">
      <stop offset="0" stop-color="#cda16e"/>
      <stop offset="1" stop-color="#ae7d3e"/>
    </linearGradient>
  </defs>
  <path d="M117.06,7.64c.03,1.72.04,9.63-.02,12.63-.24,1.72-5.86,1.07-7.37,1.27-1.04.06-1.55.74-1.57,1.79-.03,2.02-.02,4.1-.68,6.05-.45,1.32-1.34,2.42-1.02,3.34.42,1.04,1.26,1.91,1.4,3.08.48,2.08-1.52,4.24-3.09,4.9-.51.31-1.17.43-1.18.91-.05,3.41.03,33.97,0,43.44.05.78-.23,1,.57,1.3.85.34,1.79.74,2.44,1.45,1.29,1.33,1.79,3.5.93,5.2-.62,1.32-1.84,1.7-1.55,2.44.41.94,1.31,1.75,1.76,2.68.92,2.18.06,5.44.47,7.93.12.43.5.45,1.35.46,1.02,0,2.63,0,3.78,0,2.8-.11,4.04-.01,3.83,2.44,0,2.27-.05,6.19-.03,9.07.06,1.22-.11,2.03-.84,2.48-8.8-.1-86.26.11-105.13.01-.1,0-.16-.11-.23-.53-.04-.36-.15-.89-.18-1.33-.22-3.69-1.19-8.04.42-11.38.38-.58.96-.75,1.62-.76,1.5-.03,4.98.01,6.3-.02.82-.03.91-.32.91-1.31.02-.7,0-1.64,0-2.42.03-2.32-.31-4.32,1.19-5.94.88-1.06.64-2.09-.22-3.04-2.17-2.77-.19-6.4,2.83-7.37.83-.33.74-.46.73-1.01-.01-10.65.01-31.17,0-40.64,0-.91,0-1.72,0-2.58-.06-.81.28-.8-.9-1.3-2.29-.86-4.28-3.3-3.21-5.81.51-1.46,1.55-2.1,1.18-3.15-.26-.84-.87-1.64-1.22-2.43-.67-1.31-.28-4-.38-5.79-.12-.95.31-1.85-.53-2.16-1.52-.17-4.69,0-6.5-.06-4.16.26-2.32-9.25-2.25-11.95.03-.52.15-1.09.21-1.51.06-.34.11-.48.19-.52,1.8-.03,30.2,0,57.14-.01,13.92,0,40.2-.11,48.85.1v.03ZM52.86,21.64c-.14-.12-.36-.14-.57-.14-1.68,0-7.88-.01-9.57,0-.65.02-.7.2-.71,1.09,0,1,0,2.37,0,3.46-.08,2.07.33,3-.76,4.55-.32.49-.82,1.08-.9,1.65-.12.78,1.06,1.59,1.45,2.85.26.77.25,1.65.05,2.35-.43,2.05-2.55,3.08-4.27,3.95-.25.51-.03,1.49-.1,3.19,0,9.4,0,30.36,0,41.06,0,.55-.16.53,1.13.97.63.23,1.29.54,1.83.97,1.56,1.1,1.85,3.12,1.16,4.81-.51,1.47-1.56,1.99-1.8,2.76.3,1.18,2.13,2.23,2.17,3.47.2,2.12-.15,5.53.15,7.63.11.2.37.22.61.23,1.73,0,8.18.02,9.69,0,.65-.05.56-.36.6-1.27,0-.99,0-2.23,0-3.28.02-1.99-.23-3.35.79-4.69.34-.52.91-1.11,1-1.71.01-1.23-1.65-2.16-1.74-3.5-.49-2.24.81-4.52,3-5.37.76-.38,1.23-.29,1.47-.72,0-3.71.01-33.38,0-43.94.01-.52.1-.62-.82-.92-4.23-1.36-4.59-4.9-2.28-8.38.42-1.31-1.28-2.58-1.36-3.72-.24-2.01.14-5.25-.17-7.28l-.04-.05ZM85.86,21.64c-.14-.12-.36-.14-.57-.14-1.68,0-7.88-.01-9.57,0-.66.02-.7.22-.71,1.12,0,.9,0,2.18,0,3.17-.07,1.66.22,2.5-.41,3.82-.44,1.01-1.49,2.15-1.25,3.05.25.68.81,1.16,1.13,1.84.52.95.65,2.29.35,3.24-.42,1.93-2.63,2.76-4.25,3.66-.26.52-.03,1.49-.1,3.2,0,9.37,0,30.12,0,40.83.01.55-.15.68.69.96.52.19,1.09.41,1.59.69,1.85.97,2.69,3.18,1.93,5.17-.28,1.1-1.58,2.06-1.82,2.99.01.33.15.52.39.83.27.33.61.75.87,1.12,1.39,1.73.72,4.35.87,6.65.13.93-.43,2.75.72,2.65,1.73,0,8.18.02,9.69,0,.63-.04.57-.32.6-1.19.02-1.97-.04-4.99.03-6.5.07-.95.79-1.67,1.22-2.49.83-1.38-.43-2.18-.89-3.5-.94-2.35-.12-5.01,2.37-5.98.55-.28,1.28-.41,1.73-.76.21-10.94,0-32.14.07-44.07,0-.46.11-.6-.6-.82-3.3-.68-4.98-3.91-3.3-7.07.29-.69,1.03-1.23,1-1.98-.11-.52-.61-1.06-.9-1.54-.84-1.24-.72-2.03-.72-3.99-.06-1.48.14-3.61-.1-4.9l-.04-.05Z" style="fill: #090a0b;"/>
  <rect x="13.5" y="10" width="101" height="8.5" style="fill: #745020;"/>
  <rect x="13.5" y="109.5" width="101" height="8.5" style="fill: #745020;"/>
  <rect x="93" y="41" width="8" height="45.5" style="fill: #ba8c56;"/>
  <path d="M27.5,41.5h7c.01,1.99-.03,4.01,0,6,.21,12.84.21,25.67,0,38.5-2,.45-4.89.41-7,0-.22-14.68-.22-29.51,0-44.5Z" style="fill: url(#uuid-58b30002-c994-476f-85f3-3dd473b702d2);"/>
  <path d="M39,99.5c.39,2.41.39,4.74,0,7-5.03.42-10.86.41-16,0-.4-2.2-.4-4.53,0-7,.51-1.83.73-2.66,2.98-3.27,1.89-.51,8.54-.48,10.43.1,2.14.66,2.1,1.4,2.58,3.17Z" style="fill: url(#uuid-775504b1-0f76-4721-b7c9-efc6a0b235e1);"/>
  <path d="M105,99.5c.29,2.27.53,4.84,0,7-5.03.42-10.86.41-16,0-.54-2.21-.29-5.07,0-7.5.6-1.65,1.14-2.35,2.97-2.78,1.89-.45,6.78-.44,8.8-.23,2.21.23,3.52,1.57,4.24,3.51Z" style="fill: url(#uuid-e8b8c5b2-6cfc-4c43-86ef-f36797f5fac1);"/>
  <path d="M72,99.5c.27,2.27.54,4.84,0,7-5.03.42-10.86.41-16,0-.54-2.21-.29-5.07,0-7.5,1.44-3.94,7.6-3.33,11.27-3.02,2.92.24,3.75.73,4.73,3.52Z" style="fill: url(#uuid-d04e6dca-0aaa-49c9-8462-63412948b749);"/>
  <path d="M88.74,29.05c-.58-2.43-.85-8.09-.85-8.09l17.97-.09s0,5.59-.54,7.86c-.21,1.5-2.02,2.61-3.54,2.79-1.94.22-8.68.26-10.42-.13-1.11-.25-2.41-1.22-2.62-2.34Z" style="fill: url(#uuid-5e1ae616-05da-48b4-b185-c2c33a72efc0);"/>
  <path d="M56,28.5c-.53-2.28-.35-4.77,0-7,5.03-.42,10.86-.41,16,0,.35,2.23.53,4.72,0,7-.32,2.39-1.52,2.85-3.73,3.02s-8,.3-9.92-.13c-1.51-.34-2.16-1.44-2.36-2.89Z" style="fill: url(#uuid-2c517aad-5be3-477a-bc45-68ee3ca0a9c4);"/>
  <path d="M22.5,24.5c.15-1.23-.3-2.42-.09-3.36.72-.38,16.62-.58,17.09.09.22.32-.19,6.78-.5,7.78-.18,1.28-1.09,2.12-2.35,2.4-1.43.32-10.58.32-11.64-.15-1.44-.64-2.54-5.83-2.51-6.74Z" style="fill: url(#uuid-865c185c-c3a4-426e-9e04-e8288d1148ea);"/>
  <path d="M56.75,89h14.5c1.53,0,1.53,4,0,4h-14.5c-1.26,0-1.84-3.38,0-4Z" style="fill: #ba8c56;"/>
  <path d="M56.75,34.5h14.5c1.53,0,1.53,4,0,4h-14.5c-1.26,0-1.84-3.38,0-4Z" style="fill: #ba8c56;"/>
  <path d="M23.75,34.5h14.5c1.53,0,1.53,4,0,4h-14.5c-1.06,0-1.61-3.37,0-4Z" style="fill: #ba8c56;"/>
  <path d="M23.75,93c-1.54-.48-1.38-4,.5-4h14c1.53,0,1.53,4,0,4h-14.5Z" style="fill: #ba8c56;"/>
  <path d="M104.5,38.5h-14.75c-1.53,0-1.53-4,0-4h14.5c1.31,0,1.12,3.12.25,4Z" style="fill: #ba8c56;"/>
  <path d="M103.75,89c2.5.42,1.42,4,.5,4h-14.5c-1.53,0-1.53-4,0-4,3.89,0,10.53-.58,14,0Z" style="fill: #ba8c56;"/>
  <rect x="60" y="41" width="8" height="45.5" style="fill: #ba8c56;"/>
  <path d="M27.5,41.5v44.5h7c-.12-12.82.16-25.68,0-38.5l.5,39h-8l.5-45Z" style="fill: #ba8c56;"/>
  <path d="M23.38,27.02c.18-1.17.15-3.43,1.4-3.96,1.37-.24,1.65,1.55,1.92,2.54.26,1.83,2.33,1.62,3.39,2.6.38.41.33,1.01-.02,1.41-1.02,1.49-6.67-.09-6.68-2.41v-.18Z" style="fill: #fad5a6;"/>
  <path d="M15.75,11h17.5c.99,0,.99,3,0,3H15.75c-.84,0-1.18-2.56,0-3Z" style="fill: #ba8c56;"/>
  <path d="M15.75,111h17.5c.99,0,.99,3,0,3H15.75c-.84,0-1.18-2.56,0-3Z" style="fill: #ba8c56;"/>
  <path d="M94.5,43.25c.34-1.18,2.5-.75,2.5,0v18.5c0,.94-2.5.94-2.5,0v-18.5Z" style="fill: #fad5a6;"/>
  <path d="M30.5,43c.65,6.05.57,12.41,0,18.5-.71,1.12-1.13,1.11-2.5,1,.51-5.77-.68-12.65-.03-18.28.2-1.73,1.09-2.35,2.52-1.23Z" style="fill: #fad5a6;"/>
  <path d="M26,104c-3.48.77-2.77-3.28-1.44-5.19,1.57-2.26,6.84-1.57,4.97.47-1.23,1.34-4.37.5-3.53,4.73Z" style="fill: #fad5a6;"/>
  <path d="M92,104c-4.02.79-2.99-5.34-.03-6.28,1.47-.46,5.33-.38,3.55,1.55-1.23,1.34-4.37.5-3.53,4.73Z" style="fill: #fad5a6;"/>
  <path d="M59.35,97.6c1.31-.39,4.22-.35,3.65,1.64-.31,1.09-2.77.44-3.28,1.22-.41.61.06,4.42-1.91,4.01-2.6-.54-.85-6.15,1.54-6.87Z" style="fill: #fad5a6;"/>
  <path d="M95.5,27.5v2.5c-1.38.05-3.73-.01-4.79-.97-1.26-1.14-2.19-6.79.53-6.03,1.2.34.23,5.91,4.26,4.5Z" style="fill: #fad5a6;"/>
  <path d="M57.11,28.39c-.13-.22-.58-3.13-.58-3.61,0-.6.24-1.94,1.22-1.8,2.29.33,1.34,2.74,2.2,3.82.78.99,3.64.37,3.05,2.44-.51,1.77-5.3.13-5.88-.86Z" style="fill: #fad5a6;"/>
  <rect x="60.5" y="41.5" width="7" height="44.5" style="fill: url(#uuid-54697c41-0352-4076-bb23-dad4f55b64e8);"/>
  <path d="M61.5,43c1.72-1.41,2.42.74,2.53,2.22.39,5.16-.34,10.81-.03,16.03-.06.89-.43,1.11-1.25,1.26-1.78.32-1.03-.47-1.25-1.01-.56-6.08-.65-12.44,0-18.5Z" style="fill: #fad5a6;"/>
</svg>