<?xml version="1.0" encoding="UTF-8"?>
<svg id="uuid-0da53ac8-cb4e-4f33-bba0-aa0c6857e093" data-name="fill_furniture" xmlns="http://www.w3.org/2000/svg" xmlns:xlink="http://www.w3.org/1999/xlink" viewBox="0 0 128 128">
  <defs>
    <linearGradient id="uuid-b2ba7279-7ce8-4b78-94b2-423101f848f6" x1="-410.69" y1="-1099.97" x2="-410.71" y2="-953.97" gradientTransform="translate(296 592) scale(.5)" gradientUnits="userSpaceOnUse">
      <stop offset="0" stop-color="#b68245"/>
      <stop offset=".38" stop-color="#cea478"/>
      <stop offset="1" stop-color="#cea479"/>
    </linearGradient>
    <linearGradient id="uuid-30226470-56f0-44ce-a34a-0000bcea8430" x1="-464" y1="-1158.99" x2="-464" y2="-1131.99" gradientTransform="translate(296 592) scale(.5)" gradientUnits="userSpaceOnUse">
      <stop offset="0" stop-color="#cda376"/>
      <stop offset="1" stop-color="#b58144"/>
    </linearGradient>
    <linearGradient id="uuid-ae053439-857a-4533-8303-e63beef2078c" x1="-503.49" y1="-1099.99" x2="-503.49" y2="-1051.99" gradientTransform="translate(296 592) scale(.5)" gradientUnits="userSpaceOnUse">
      <stop offset="0" stop-color="#8d5f3d"/>
      <stop offset="1" stop-color="#a97957"/>
    </linearGradient>
    <linearGradient id="uuid-2eaa9e1a-cb80-4d77-9298-ac4e9583ee16" x1="-557" y1="-1099.06" x2="-556.76" y2="-953.06" gradientTransform="translate(296 592) scale(.5)" gradientUnits="userSpaceOnUse">
      <stop offset="0" stop-color="#b58143"/>
      <stop offset=".36" stop-color="#cea478"/>
      <stop offset="1" stop-color="#cea479"/>
    </linearGradient>
  </defs>
  <path d="M24,114.5c-.02,1.05.36,5.5-.75,5.5h-11.5c-.05,0-.75-.7-.75-.75V41.5c-1.46-.25-6.61.54-7.28-.47-.94-1.41.38-9.31-.45-11.59,3.64-5.57,6.19-13.23,9.82-18.61.4-.59.82-1.17,1.42-1.58l98.64-.16c.95.4,1.43,1.24,1.95,2.05,3.55,5.57,6.26,12.8,9.68,18.58-.94,2.26.48,9.85-.49,11.3-.67,1.01-5.82.22-7.28.47v77.25c0,.09-1.16,1.25-1.25,1.25h-50.5c-.12,0-1.07-.96-1.14-1.31l.39-47.69c-12.63-.39-25.69-.62-38.5-.5-.47.03-.97-.14-1.43.07-.24.21,0,.74-.07.93-.57,14.23-.73,28.56-.5,43Z" style="fill: #0b0c0c;"/>
  <path d="M24,114.5c.27-13.38-.99-28.19-.03-41.31.07-1.01.29-1.05.53-1.69l-.5,43Z" style="fill: #505150;"/>
  <path d="M64.5,71l-38.5-.5c12.3-.78,25.38.59,37.77-.01l.73.51Z" style="fill: #797979;"/>
  <path d="M67,46c.03-1.49-.02-3.01,0-4.5h47.22c.53.07.27,3.68.28,4.5l-.25,71.16-46.91-.16-.34-.51c-.55-14.9-.02-30.52,0-45.5v-25Z" style="fill: url(#uuid-b2ba7279-7ce8-4b78-94b2-423101f848f6);"/>
  <path d="M112.5,12.5c3.01,4.66,5.37,10.02,8,15-.03.28-.06.5-.09.5-35.37.17-71.74.14-107.28,0-2.18.24-4.05.07-5.63-.5,2.72-5.15,4.87-10.05,8-15,.03-.26.06-.47.09-.47,31.85-.15,64.7-.15,96.56,0,.12,0,.23.2.35.47Z" style="fill: url(#uuid-30226470-56f0-44ce-a34a-0000bcea8430);"/>
  <path d="M64,41.5v26.17s-.5.33-.5.33c-12.96.48-26.03-.36-39,0v-26.5h39.5Z" style="fill: url(#uuid-ae053439-857a-4533-8303-e63beef2078c);"/>
  <rect x="6" y="31" width="116" height="8" style="fill: #ac7e48;"/>
  <path d="M13.5,44c.01-.83-.01-1.67,0-2.5h8s0,75.5,0,75.5c-1.1.49-7.49.37-7.75.02l-.25-73.02Z" style="fill: url(#uuid-2eaa9e1a-cb80-4d77-9298-ac4e9583ee16);"/>
  <path d="M114.5,46c.44,23.81-.33,47.69,0,71.5h-47.21c-.52.06-.28-.64-.3-1l47,.5.5-71Z" style="fill: #c89c6c;"/>
  <path d="M120.5,27.5c.06.12,1.2.39.25,1H7.25c-.95-.62.18-.88.25-1h113Z" style="fill: #ac7e48;"/>
  <path d="M15.5,12.5c.08-.13-.17-.76.05-.93h96.9c.22.18-.03.81.05.93H15.5Z" style="fill: #c89c6c;"/>
  <path d="M13.5,44l.5,73h7.5c.03.5-.32.46-.72.51-2.24.28-4.97-.23-7.28-.01.25-24.49-.33-49.02,0-73.5Z" style="fill: #c89c6c;"/>
  <path d="M64,41.5l.51,26.2c.06.52-.65.28-1.01.3l.5-26.5Z" style="fill: #ac7e48;"/>
  <path d="M67,71c.01-8.32-.16-16.69,0-25v25Z" style="fill: #c89c6c;"/>
  <path d="M106,74.5v9.25c0,.05-.7.75-.75.75h-29c-1.64,0-1.44-6.95-1.28-8.28.14-1.17.28-1.61,1.5-2l29.52.27Z" style="fill: #0b0c0c;"/>
  <path d="M77,92.5h27.5c.33.02.77,0,1.02.22.76.64.71,8.17.23,9.3-.11.26-.48.4-.75.49h-29.5c-.4-2.54-1.89-9.55,1.5-10Z" style="fill: #0b0c0c;"/>
  <path d="M105.5,66h-30c.23-1.43-.62-10,.75-10h29c1.09,0,.86,7.14.76,8.27-.06.62-.16,1.2-.51,1.73Z" style="fill: #0b0c0c;"/>
  <path d="M68.5,104.25c.36-1.27,2.03-.65,2.4.6.41,1.37-.18,7.37.1,7.65,2.53.22,6.09-1.18,5.5,2.5h-8c.51-2.81-.69-8.32,0-10.75Z" style="fill: #fbd7a8;"/>
  <path d="M17.29,14.04c1.46-.44,1.87.84,1.62,2.09-.11.54-3.61,8.06-3.98,8.55-1.31,1.71-2.75.68-2.35-1.32.18-.89,3.19-7.3,3.81-8.22.26-.38.38-.95.9-1.11Z" style="fill: #fbd7a8;"/>
  <rect x="78" y="77" width="25.5" height="5" style="fill: #ac7e48;"/>
  <rect x="78" y="95" width="25.5" height="5" style="fill: #ac7e48;"/>
  <rect x="78" y="58.5" width="25.5" height="5" style="fill: #ac7e48;"/>
</svg>