<?xml version="1.0" encoding="UTF-8"?>
<svg id="uuid-cb53040e-a18b-4b98-a08d-0179b7d1111b" data-name="fill_strawberry" xmlns="http://www.w3.org/2000/svg" viewBox="0 0 128 128">
  <path d="M20.96,42.69c-5.17-9.07-4.58-12.85,2.7-18.17.68-12.21,5-16.75,19.95-12.47,5.53-9.65,15.66-13.84,23.08-3.47,9.88.21,11.9,1.76,14.06,11.01,38.73,8.83,41.41,65.66,18.82,93C66.4,155.18-8.86,81.68,20.96,42.69Z" style="fill: #4a3726; stroke-width: 0px;"/>
  <path d="M26.64,47.42c10.3,3.12,9.73,2.86,16.81.73,8.92,1.78,16.49-.56,22.48-7.6,6.62-3.25,10.94-6.35,13.9-13.4,8.89.78,14.57,6.02,18.67,13.31,12.95,22.55,10.2,52.22-7.79,71.26C61.83,137.7,3.57,76.77,26.64,47.42Z" style="fill: #de5b47; stroke-width: 0px;"/>
  <path d="M42.89,40.15c-8.14,4.49-16.72,1.2-17.99-7.55,2.24-1.33,4.7-2.79,7.32-4.35-1.07-3.31-1.81-6.71.29-10.35,5.07-.31,9.76,1.26,14.1,3.21,5.83-8.36,9.51-18.15,16.5-3.92,3.1-.18,8.8-3.59,9.86,1.26,1.92,7.13-2.48,13.11-10.74,14.52-2.94,7.05-11.79,10.78-19.33,7.17Z" style="fill: #7fa95f; stroke-width: 0px;"/>
  <path d="M36.11,76.18c-4.5-.98-7.87-7.59-6.09-11.34,7.66-8.71,12.58,6.06,6.09,11.34Z" style="fill: #4a3726; stroke-width: 0px;"/>
  <path d="M93.21,55.27c-8.26,1.62-14.76-11.84-4.71-12.73,4.72,2.41,6.43,7.04,4.71,12.73Z" style="fill: #4a3726; stroke-width: 0px;"/>
  <path d="M66.67,72.11c-4.28-.54-8.49-5.68-8.05-9.68,5.38-10.76,13.73,2.46,8.05,9.68Z" style="fill: #4a3726; stroke-width: 0px;"/>
  <path d="M89.2,84.71c-5.01-1.53-7.79-7.02-6.24-11.86,8.42-7.43,11.98,7.16,6.24,11.86Z" style="fill: #4a3726; stroke-width: 0px;"/>
  <path d="M57,96.69c-13.93-4.16-8.12-18.57-.55-11.75,2.55,3.43,3.4,8.33.55,11.75Z" style="fill: #4a3726; stroke-width: 0px;"/>
  <path d="M79.72,109.94c-5.05-1.62-11.44-10.72-4.29-13.43,7.41-2.57,8.5,10.01,4.29,13.43Z" style="fill: #4a3726; stroke-width: 0px;"/>
</svg>