<?xml version="1.0" encoding="UTF-8"?>
<svg id="fill_sorghum" xmlns="http://www.w3.org/2000/svg" viewBox="0 0 128 128">
  <path d="M45.54,76.75c-2.05-3.32-2.2-6.89-1.25-10.74-5.18-3.55-7-8.44-5.45-14.45-9.26-10.09-7.41-19.66,4.02-23.29,1.43-2.92,2.73-5.58,4.22-8.62-2.73-7.49.27-14.72,7.92-17.16,6.79-2.17,13.23,1.65,15.62,8.75,2.81,1.25,5.45,2.41,8.37,3.71,10.51-4.99,20.92,3.95,17.88,15.05,5.63,5.1,6.36,7.1,5.45,14.9,9.63,6.99,6.84,19.9-3.75,22.99-.01,4.34-1.61,8.07-5.24,10.87,3.48,9.55,6.89,19,10.38,28.42,1.31,3.53,1.48,6.97-.47,10.3-2.89,4.92-8.24,6.33-14.39,3.88-4.78,6.12-9.71,6.34-15.02.73-13.02-13.76-28.48-23.64-46.5-29.59-2.28-.75-4.84-2.21-6.15-4.11-3.67-5.32.16-12.38,6.9-12.51,5.72-.11,11.45.78,17.18,1.23.09-.11.18-.23.27-.33Z" style="fill: #4a3726; stroke-width: 0px;"/>
  <path d="M26.79,83.75c.83-.35,1.65-.97,2.49-1,14.27-.52,27.03,3.41,37.96,12.87,7.07,6.12,12.07,13.58,15.24,22.26-1.33,1.93-2.22.74-3.11-.19-6.06-6.38-12.59-12.21-19.89-17.16-9.21-6.25-19.06-11.15-29.65-14.58-.93-.3-1.83-.7-2.74-1.05-.1-.38-.2-.76-.3-1.14Z" style="fill: #589058; stroke-width: 0px;"/>
  <path d="M97.56,111.71c.17,2.17-.97,3.44-2.87,3.82-2.12.42-3.49-.86-4.21-2.74-1.56-4.1-3.04-8.23-4.53-12.35-1.83-5.07-3.61-10.16-5.45-15.23-.77-2.12-.77-4.08,1.51-5.14,2.27-1.06,4.26.01,5.27,2.74,3.27,8.83,6.47,17.68,9.68,26.54.28.76.4,1.58.6,2.37Z" style="fill: #589058; stroke-width: 0px;"/>
  <path d="M70.01,29.42c-3.2.05-5.55-2.28-5.54-5.51,0-2.73,2.52-5.04,5.46-5.02,2.94.02,5.3,2.25,5.38,5.11.09,3.05-2.18,5.37-5.3,5.42Z" style="fill: #a5805b; stroke-width: 0px;"/>
  <path d="M90.27,26.07c-.02,3-2.54,5.49-5.42,5.36-2.96-.14-5.12-2.39-5.12-5.37,0-3.15,2.24-5.47,5.3-5.46,3.05.01,5.27,2.33,5.24,5.47Z" style="fill: #a5805b; stroke-width: 0px;"/>
  <path d="M56.07,55.43c0,2.82-2.61,5.31-5.52,5.26-2.8-.05-5.32-2.73-5.25-5.57.08-2.9,2.53-5.25,5.52-5.3,2.63-.04,5.24,2.76,5.25,5.61Z" style="fill: #a5805b; stroke-width: 0px;"/>
  <path d="M61.11,29.31c.02,2.99-2.28,5.34-5.33,5.46-2.71.1-5.14-2.37-5.2-5.28-.06-3.24,2.23-5.58,5.46-5.57,2.78.01,5.06,2.44,5.07,5.39Z" style="fill: #a5805b; stroke-width: 0px;"/>
  <path d="M61.24,49.51c-2.65.07-5.35-2.47-5.47-5.18-.14-2.95,2.48-5.57,5.56-5.57,2.84,0,5.14,2.3,5.24,5.24.1,2.83-2.42,5.43-5.33,5.51Z" style="fill: #a5805b; stroke-width: 0px;"/>
  <path d="M58.33,19.53c-3.21-.06-5.04-1.95-5-5.18.03-3.14,2.36-5.48,5.31-5.36,3.13.13,5.32,2.43,5.22,5.49-.1,3.15-2.25,5.11-5.53,5.05Z" style="fill: #a5805b; stroke-width: 0px;"/>
  <path d="M80.43,38.98c0,3.44-1.82,5.28-5.18,5.25-3.12-.03-5.41-2.3-5.35-5.32.06-2.91,2.35-5.2,5.23-5.22,3.15-.02,5.3,2.13,5.3,5.29Z" style="fill: #a5805b; stroke-width: 0px;"/>
  <path d="M40.12,40.42c.03-3.13,2.06-5.32,4.99-5.38,2.83-.06,5.48,2.52,5.5,5.36.02,3.01-2.3,5.38-5.31,5.43-2.94.05-5.21-2.32-5.18-5.42Z" style="fill: #a5805b; stroke-width: 0px;"/>
  <path d="M90.7,55.68c-.03-3.18,2.11-5.45,5.12-5.42,2.9.03,5.38,2.53,5.38,5.43,0,2.87-2.24,5.04-5.24,5.07-3.47.04-5.23-1.66-5.26-5.08Z" style="fill: #a5805b; stroke-width: 0px;"/>
  <path d="M61.51,69.81c.06,2.9-2.39,5.55-5.24,5.67-2.89.12-5.48-2.29-5.59-5.21-.11-2.87,2.1-5.18,5.03-5.26,3.29-.09,5.75,1.95,5.8,4.8Z" style="fill: #a5805b; stroke-width: 0px;"/>
  <path d="M85.19,40.91c-.03-3.15,2.12-5.42,5.2-5.47,2.82-.05,5.34,2.51,5.35,5.43,0,2.93-2.45,5.34-5.43,5.34-2.84,0-5.08-2.32-5.11-5.3Z" style="fill: #a5805b; stroke-width: 0px;"/>
  <path d="M66.64,64.09c-3.11.02-5.48-2.1-5.46-4.9.02-2.91,2.48-5.56,5.25-5.65,3-.09,5.61,2.49,5.57,5.52-.04,2.89-2.3,5-5.36,5.02Z" style="fill: #a5805b; stroke-width: 0px;"/>
  <path d="M71.81,78.92c-2.92-.01-5.21-2.26-5.18-5.1.03-3.05,2.3-5.37,5.31-5.43,2.94-.06,5.18,2.29,5.16,5.4-.03,3.38-1.85,5.14-5.29,5.13Z" style="fill: #a5805b; stroke-width: 0px;"/>
  <path d="M85.91,53.77c.02,3.16-2.18,5.35-5.33,5.33-2.95-.02-5.19-2.28-5.21-5.23-.02-3.1,2.27-5.37,5.37-5.33,2.94.04,5.15,2.27,5.17,5.23Z" style="fill: #a5805b; stroke-width: 0px;"/>
  <path d="M80.83,68.5c.01-3,2.2-5.14,5.21-5.11,3.12.03,5.41,2.33,5.34,5.37-.06,2.94-2.34,5.17-5.28,5.17-3.07,0-5.28-2.28-5.27-5.43Z" style="fill: #a5805b; stroke-width: 0px;"/>
</svg>