<?xml version="1.0" encoding="UTF-8"?>
<svg id="uuid-4e7a96de-e6e9-451f-aaa8-4d1fc8f257ca" data-name="fill_whitecabbage" xmlns="http://www.w3.org/2000/svg" viewBox="0 0 128 128">
  <path d="M9.77,50.14c1.02-9.32,5.88-14.67,15.33-16.99,3.67-9.18,10.38-12.72,23.29-12.28,10.31-11.41,23.82-10.57,36.58,2.26,12.2.63,19.26,4.79,20.99,12.45,7.14,3.02,11.38,8.36,12.23,16.18,9.72,4.61,10.74,18.92,2.19,24.64-1.85,1.24-3.07,3.59-4.23,5.64-9.73,17.73-24.9,29.31-45.81,30.93-5.46,3.24-13.08,2.22-20.49.9-16.08-2.75-27.55-13.19-33.58-28.18-1.84-4.73-4.09-8.63-8.97-11.49-8.54-5.03-6.66-19.65,2.47-24.05Z" style="fill: #4a3726; stroke-width: 0px;"/>
  <path d="M17.91,55.94c-4.07-18.25,17.8-22.01,21.79-2.44,6.72-3.67,15.32,2.93,11.78,10.21-6.47,14.59,1.7,32.72,14.5,40.93.71.49.65.51,1.02,1.62-25.23,6.3-40.65-12.18-48.69-32.99-.99-1.58-2.98-2.64-4.7-3.62-7.85-3.85-4.31-14.53,4.3-13.72Z" style="fill: #96a775; stroke-width: 0px;"/>
  <path d="M75.32,104.82c-2.8-3.16-5.07-5.73-7.48-8.45,15.44-6.85,15.95-22.48,11.66-36.11-.49-7.19,5.26-12.65,12.34-6.07.86-16.92,22.34-15.44,17.9,4.48,6.15-2.93,12.26,5.5,7.71,10.09-5.63,4.23-7.92,10.69-11.8,16.06-7.41,10.4-17.75,18.19-30.33,19.99Z" style="fill: #96a775; stroke-width: 0px;"/>
  <path d="M80,43.75c-2.8,4.06-5.49,7.15-7.23,10.72-2.76,13.22,10.24,31.03-11.07,36.01-14.19-20.65,8.38-28.64-10.08-43.61,2.66-4.07,5.97-4.46,11.56-1.21,1.94-7.97,14.29-9.85,16.81-1.91Z" style="fill: #96a775; stroke-width: 0px;"/>
  <path d="M87.57,42.68c-7-12.7-16.64-15.09-26.77-6.41q-8.97.79-15.92,6.66c-3.81-3.15-7.56-6.25-11.44-9.47,2.05-5.2,8.48-6.58,18.88-3.51,3.69-14.83,23.05-10.36,28.9.82,5.85-.33,11.72-.53,16.15,3.87-3.48,2.85-6.66,5.46-9.8,8.03Z" style="fill: #96a775; stroke-width: 0px;"/>
  <path d="M24.75,72.07c-3.4-12.54,14.89-15.13,18.23-1.68,5.62-2.52,12.82,2.01,9.85,7.02-5.41,10.03,1.43,22.49,12.13,28.13.59.33.54.35.85,1.12-21.11,4.33-34-8.37-40.73-22.67-.82-1.08-2.49-1.81-3.93-2.49-6.56-2.65-3.61-9.98,3.6-9.43Z" style="fill: #96a775; stroke-width: 0px;"/>
  <path d="M57.88,111c-15.2,0-27.92-8.79-35.72-25.02-.46-.36-1.57-.88-2.21-1.17l-.19-.09c-4.88-2.01-6.3-6.14-5.55-9.35.65-2.76,3.02-5.41,6.64-6.41.04-3,1.12-5.69,3.15-7.7,3.02-2.99,7.68-4.08,12.15-2.82,4.04,1.13,7.21,3.9,9.06,7.8,3.64-.36,7.37.91,9.73,3.56,2.39,2.67,2.75,6.25.95,9.34-2.03,3.81-1.55,7.61-.78,10.13,1.6,5.24,6,10.3,11.48,13.19l.09.05c1.35.76,1.85,1.52,2.29,2.65l1.66,4.1-4.12.85c-2.95.61-5.84.9-8.64.9ZM23.99,75.55c-1.8,0-2.83.81-2.97,1.41-.1.45.67.98,1.44,1.29l.44.2c1.63.76,3.67,1.71,4.97,3.41l.23.3.16.34c4.72,10.04,13.34,21.09,28.46,21.51-3.93-3.56-6.88-8.01-8.31-12.71-1.66-5.46-1.2-10.83,1.34-15.54l.07-.12c.26-.45.31-.71-.11-1.18-.86-.97-3.19-1.8-5.29-.86l-3.82,1.71-1.01-4.07c-1.06-4.28-3.79-5.64-5.33-6.07-2.02-.57-4.12-.15-5.33,1.05-1.39,1.38-1.19,3.44-.79,4.93l1.3,4.79-4.95-.38c-.17-.01-.33-.02-.49-.02Z" style="fill: #4a3726; stroke-width: 0px;"/>
  <path d="M103.81,69.87c3.4-12.54-14.89-15.13-18.23-1.68-5.62-2.52-12.82,2.01-9.85,7.02,5.41,10.03-1.43,22.49-12.13,28.13-.59.33-.54.35-.85,1.12,21.11,4.33,34-8.37,40.73-22.67.82-1.08,2.49-1.81,3.93-2.49,6.56-2.65,3.61-9.98-3.6-9.43Z" style="fill: #96a775; stroke-width: 0px;"/>
  <path d="M70.69,108.79c-2.8,0-5.69-.3-8.64-.9l-4.13-.85,1.66-4.1c.45-1.13.94-1.88,2.29-2.64l.1-.05c5.49-2.89,9.89-7.95,11.48-13.19.77-2.52,1.25-6.32-.78-10.13-1.8-3.1-1.43-6.67.95-9.34,2.36-2.65,6.09-3.93,9.73-3.56,1.85-3.9,5.02-6.67,9.06-7.8,4.48-1.25,9.13-.17,12.15,2.82,2.03,2.01,3.11,4.7,3.15,7.7,3.62.99,5.99,3.65,6.64,6.41.75,3.21-.67,7.34-5.55,9.35l-.2.09c-.63.29-1.74.81-2.2,1.18-7.8,16.23-20.53,25.02-35.72,25.02ZM82.18,70.97c-1.44,0-2.73.6-3.32,1.27-.42.47-.38.73-.11,1.18l.07.12c2.54,4.71,3,10.08,1.34,15.54-1.43,4.71-4.38,9.15-8.31,12.71,15.12-.42,23.74-11.47,28.46-21.51l.16-.34.22-.29c1.3-1.7,3.33-2.65,4.96-3.41l.44-.2c.77-.31,1.55-.85,1.44-1.3-.15-.66-1.36-1.55-3.46-1.39l-4.95.38,1.3-4.79c.4-1.49.6-3.56-.79-4.93-1.21-1.21-3.31-1.62-5.33-1.05-1.53.43-4.26,1.79-5.33,6.07l-1.01,4.06-3.82-1.71c-.65-.29-1.33-.42-1.97-.42Z" style="fill: #4a3726; stroke-width: 0px;"/>
</svg>