<?xml version="1.0" encoding="UTF-8"?>
<svg id="uuid-173c0667-126d-4706-a200-221e8112611b" data-name="fill_corncut" xmlns="http://www.w3.org/2000/svg" xmlns:xlink="http://www.w3.org/1999/xlink" viewBox="0 0 128 128">
  <defs>
    <linearGradient id="uuid-ffd40151-a5c7-41d4-b310-572721cf4cf2" x1="-1202.95" y1="-399.65" x2="-1203.24" y2="-246.63" gradientTransform="translate(666 222) scale(.5)" gradientUnits="userSpaceOnUse">
      <stop offset="0" stop-color="#f7ed9d"/>
      <stop offset="1" stop-color="#bfa84e"/>
    </linearGradient>
    <linearGradient id="uuid-41463ada-45b3-45da-aa3b-1270afeb52a5" x1="39.57" y1="55.47" x2="44.7" y2="84.58" gradientUnits="userSpaceOnUse">
      <stop offset="0" stop-color="#ded07c"/>
      <stop offset="1" stop-color="#bfa950"/>
    </linearGradient>
    <linearGradient id="uuid-0a8f6928-b267-4dca-9967-f90c0acf02dd" x1="49.93" y1="59.97" x2="51.95" y2="88.91" xlink:href="#uuid-41463ada-45b3-45da-aa3b-1270afeb52a5"/>
    <linearGradient id="uuid-b2e17617-747b-4eec-9968-1e3bc60869b8" x1="26.85" y1="69.65" x2="37.19" y2="91.82" xlink:href="#uuid-41463ada-45b3-45da-aa3b-1270afeb52a5"/>
    <linearGradient id="uuid-da1bb0b7-1c9a-4e24-bade-f86f0f6badb5" x1="85.53" y1="50.08" x2="75.4" y2="76.49" xlink:href="#uuid-41463ada-45b3-45da-aa3b-1270afeb52a5"/>
    <linearGradient id="uuid-d8967ba1-e2bd-40cb-b34f-45b83d4c0fac" x1="61.97" y1="43.87" x2="67.26" y2="68.78" xlink:href="#uuid-41463ada-45b3-45da-aa3b-1270afeb52a5"/>
    <linearGradient id="uuid-d0e5ed74-d066-4bf8-83d0-b29e13894d11" x1="-648.6" y1="507.5" x2="-630.27" y2="579.69" gradientTransform="translate(517.39 177.8) rotate(50.6) scale(.5)" gradientUnits="userSpaceOnUse">
      <stop offset="0" stop-color="#80bb64"/>
      <stop offset=".23" stop-color="#7fba63"/>
      <stop offset="1" stop-color="#4f952c"/>
    </linearGradient>
    <linearGradient id="uuid-abdc5bab-1386-4428-820a-07b040e442a4" x1="-701.06" y1="538.57" x2="-642.58" y2="584.69" gradientTransform="translate(517.39 177.8) rotate(50.6) scale(.5)" gradientUnits="userSpaceOnUse">
      <stop offset="0" stop-color="#80ba64"/>
      <stop offset="1" stop-color="#3b7222"/>
    </linearGradient>
    <linearGradient id="uuid-4cbc5e0d-413d-4727-9180-f4835f5a5713" x1="-697.46" y1="501.56" x2="-653.31" y2="537.36" gradientTransform="translate(517.39 177.8) rotate(50.6) scale(.5)" gradientUnits="userSpaceOnUse">
      <stop offset="0" stop-color="#fee27d"/>
      <stop offset="1" stop-color="#feca0e"/>
    </linearGradient>
  </defs>
  <path d="M.84,85.63c.21-.46.19-.46.39-.8,1.62-2.07,1.07-5.07,3.43-6.71,1.21-1.04,2.61-2.02,3.6-3.29,1.63-1.95,1.87-4.9,3.28-6.57,1.42-1.74,3.81-2.62,5.08-4.49,1.21-1.7,1.53-4.36,2.92-6.1,1.31-1.77,3.48-2.69,4.8-4.45,1.48-1.89,1.82-4.98,3.37-6.73,1.06-1.29,2.6-2.12,3.79-3.29,2.05-1.84,2.29-4.79,3.72-7.02,1.07-1.74,3.31-2.77,4.86-4.46,1.67-1.65,2.01-4.28,3.64-5.92,1.32-1.26,4.19-1.48,6.18-2.72,1.8-1,3.06-2.95,5.08-3.52,2.18-.57,4.5.33,6.71-.12,2.2-.32,4.37-1.64,6.22-1.21,1.77.34,3.55,2.01,5.41,2.57,2.74.81,6.14.1,7.97,2.7,1.3,1.66,2.44,3.46,4.35,4.49,1.42.88,3.1,1.52,4.05,2.95,1,1.52,1.43,4.22,2.89,5.93,1.34,1.75,3.47,2.82,4.62,4.26,1.48,1.79,1.74,4.28,3,6.2,1.34,2.24,4.21,3.3,5.46,5.42,1.09,1.71,1.42,3.85,2.55,5.54,1.22,1.9,3.41,2.91,4.8,4.67,2.04,2.5,2,5.93,4.62,7.83,1.25,1.03,2.79,1.87,3.81,3.16,1.62,1.95,1.61,5.03,3.82,6.72.84.72,1.82,1.48,2.14,2.55.38,1.4-.32,3.01.31,4.45.25.8.57,1.64.47,2.5-.09.8-.5,1.54-.86,2.25-.65,1.08-.72,2.39-.84,3.54-.2,1.47-1.47,2.57-1.96,4.28-.46,1.99-8.78,1.35-12.73,2.56-6.12,1.88-17.54-.53-32.81.23-3.8.19-14.48-.04-17.66-.54-3.97-.85-8,.96-11.97,1.37-3.6.37-7.16-1.18-10.69-1.55-3.91-.47-7.68,1.4-11.55,1.58-3.1.19-6.5-1.26-9.45-1.47-2.08-.3-4.01,1.54-6.02,1.03-.91-.32-1.61-1.33-2.65-1.97-1.1-.74-2.56-.74-3.61-1.55-1.14-.85-1.19-2.75-2.27-3.87-.69-.76-1.58-1.46-1.86-2.48-.39-1.79.68-3.67-.2-5.43-.32-.89-.5-1.68-.26-2.4l.04-.13Z" style="fill: #060603;"/>
  <path d="M90.17,39.22c1.06,1.25,3.23,2.18,4.32,3.33,1.68,1.8,1.89,4.65,3.23,6.69,1.1,1.74,3.56,2.85,4.91,4.3,1.35,1.46,1.7,3.55,2.46,5.33.97,3.13,4.68,3.81,6.41,6.27.86,1.46,1.25,4.26,2.56,5.95,2.02,2.66,5.61,3.54,6.19,6.98.31.97.55,2.04,1.06,2.9.56,1.05,1.66,1.59,2.46,2.41.99,1.06.29,2.72.7,4.07.19.96.85,1.9.42,2.86-.34.71-1.28,2.01-1.95,2.39-.56.23-.71,4.28-1.21,4.62-3.8,2.66-10.22,2.9-14.01,3.34-1.71.25-12.7-1.32-26.73-.61-4.48.23-14.2-.25-15.04.24-1.91.31-4.41-.86-6.41-.94-3.27-.33-7.27,1.49-10.74,1.69-2.07.14-4.09-.38-6.12-.86-1.92-.45-3.95-.98-5.86-.89-3.3.15-6.63,1.71-9.96,1.77-3.24.11-6.95-1.59-10.26-1.66-1.35-.07-2.66.94-3.98.67-.62-.2-1.11-.73-1.67-1.09-.97-.85-2.77-.65-3.63-1.39-.57-.61-.39-2.25-1.33-3.27-.51-.59-1.2-1-1.63-1.64-.49-.95.28-2.4-.09-3.5-.15-.77-.59-1.55-.51-2.33.14-.85.87-1.48,1.24-2.26.79-1.28.27-3.04.98-3.96,1.09-1.43,4.08-2.74,5.15-4.69,1.12-1.88,1.46-4.73,2.8-6.22,1.38-1.6,3.58-2.41,4.82-4.16,1.85-2.58,1.57-6.22,4.46-7.81,1.23-.9,2.82-1.72,3.73-2.93,1.16-1.62,1.32-3.83,2.36-5.55,1.2-2.26,3.95-3.29,5.33-5.11,1.41-1.8,1.62-4.31,2.9-6.2,1.44-2.28,4.38-3.1,5.62-5.37,1.16-1.75,1.27-4.53,3.52-5.26,1.56-.57,3.37-.88,4.78-1.85,2.67-2.04,3.82-4.12,7.43-3.33.98.1,1.98.18,2.95.07,2.17-.18,4.36-1.55,6.09-1,1.66.5,2.97,1.95,4.67,2.37,1.93.55,4.6.11,6.13,1.33,1.51,1.17,2.11,3.24,3.54,4.48,1.43,1.32,3.63,1.8,4.85,3.37,1.26,1.71,1.51,4.63,2.93,6.32l.12.14Z" style="fill: url(#uuid-ffd40151-a5c7-41d4-b310-572721cf4cf2);"/>
  <path d="M45.67,61.52c.97-.25.28-1.91.75-2.99.92-2.06,7.42-1.98,8.91-1.05,1.24.78.91,7.53.85,9.31-.11,3.61-.78,7.15-.54,11,.19,3.12,1.83,9.14.94,11.9-.41,1.29-5.36,1.94-6.66,1.86-3.6-.21-2.8-3.07-3.3-3.49-.6-.52-4.33.91-5.46.47,2.68,3.63-5.25,6.73-7.68,5.92-.53-.18-2.21-3.16-2.6-3.9-2.49-4.73-5.44-11-7.58-15.92-.61-1.4-1.54-3.22-1.16-4.76.09-.35,5.73-3.14,6.39-3.27.88-.17,1.17-.1,1.91.39,3.03,2.02,5.79,14.15,9.21,17.03l-4.93-29.69c.38-1.1,7.16-2.23,8.45-1.57,1.63.83,1.95,6.91,2.5,8.75Z" style="fill: #0b0905;"/>
  <path d="M83.02,47.1c1.55-.23,8.34,2.37,7.56,5.04-3.2,7.63-6.44,15.25-9.67,22.86-.6,1.41-.42,3.67-2.26,4.74-2.48,1.42-8.83-1.37-8.48-4.44l10.89-26.66c.32-.76,1.15-1.43,1.97-1.55Z" style="fill: #0b0905;"/>
  <path d="M71.04,70.39c-1.22,1.29-8.65,2.21-9.14-.36l-3.73-23.77c.11-1.04-.24-2.47-.01-3.4.32-1.33,9.37-3.24,9.79.12l3.74,24.8c.03.77-.12,2.04-.65,2.6Z" style="fill: #0b0905;"/>
  <path d="M45.75,84.14c-1.66,1.29-3.5-.56-3.58-2.41-1.07-5.68-2.17-11.41-3.35-17.06-.44-2.08-1-4.19-1.41-6.28-.23-1.13-.01-2.21,1.17-2.67,1.09-.4,2.34-.43,2.96.24.3.33.48.84.65,1.48.74,3.09,1.36,6.57,2.04,9.69,1.02,4.84,1.89,9.77,2.1,14.74.04.74.03,1.68-.47,2.16l-.1.1Z" style="fill: url(#uuid-41463ada-45b3-45da-aa3b-1270afeb52a5);"/>
  <path d="M53.72,88.45c-.88.55-3.07.72-3.75-.11-.4-.46-.47-1.16-.56-1.79-.44-4.13-1.69-9.14-1.51-13.1.11-1.47,1.07-2.51.95-3.99-.35-2.26-.32-4.83-.24-7.22-.03-1.25.59-2.23,2.04-2.31,1.01-.08,2.01.3,2.32,1.05.49,2.55.48,5.73-.06,8.17-.18.66-.39,1.33-.4,1.99-.07,1.1.71,2.39.76,4.24.03,2.78-.08,4.89.49,7.86.06,1.45,1.02,4.06.07,5.14l-.1.07Z" style="fill: url(#uuid-0a8f6928-b267-4dca-9967-f90c0acf02dd);"/>
  <path d="M38.38,90.81c-.59,1.09-2,1.43-3.08.89-1.26-.59-1.8-2.15-2.24-3.41-.91-2.84-2.82-4.73-3.94-7.57-.79-2.01-1.72-3.96-2.71-5.75-.76-1.39-1.81-3.51-.46-4.79,1.34-1.21,3.13-.31,4.02,1.02,2.4,3.89,4.16,8.58,6.04,12.57.94,2.09,3.42,4.46,2.44,6.9l-.07.13Z" style="fill: url(#uuid-b2e17617-747b-4eec-9968-1e3bc60869b8);"/>
  <path d="M87.47,51.42c.21.42.18.92,0,1.51-.56,1.54-1.56,3.42-2.22,5.03-1.93,4.65-3.9,10.87-6.27,15.41-.54.98-1.14,2.11-2.08,2.69-2.68,1.49-3.88-1.62-2.87-3.81,1.92-5.14,4.72-10.03,6.57-15.27.95-2.15,1.35-5.08,3.14-6.65,1.07-.64,3.03-.06,3.66.97l.07.12Z" style="fill: url(#uuid-da1bb0b7-1c9a-4e24-bade-f86f0f6badb5);"/>
  <path d="M68.91,68c-.8.9-3.09,1.1-4.13.68-.51-.25-.74-.7-.88-1.32-.76-5.14-1.31-10.41-2.13-15.55-.24-2.14-1.02-4.23-1.25-6.36-.13-1.9,2.55-1.79,3.85-1.4.49.2.76.57.92,1.11.32,1.36.37,3.21.83,4.65,1.55,5.22,1.73,10.78,2.85,16.08.12.67.32,1.46,0,2.01l-.07.11Z" style="fill: url(#uuid-d8967ba1-e2bd-40cb-b34f-45b83d4c0fac);"/>
  <g>
    <path d="M114.33,88.93c1.06-.3,4.3-.59,5.15-.09,1.51.91,2.04,2.62,1.08,4.09-1.05,1.61-2.76,3.34-3.96,5.01-2.33,3.25-4.45,6.78-6.22,10.36-2.48,4.99-3.36,10.18-9.64,11.94-1.03.29-4.52.17-4.73.28-.24.13-.85,1.85-1.45,2.43-.81.77-1.95,1.21-3.07,1.08-.8-.09-7.25-2.51-8.06-2.97-2.4-1.36-2.71-3.87-1.25-6.04-4.22-2.9-5.26-7.56-4.06-12.32,2.01-7.94,3.64-12.92,4.33-21.33.11-1.37-.35-3.2.75-4.28,2.51-2.49,5.1.9,6.8,2.67,1.41-2.01,2.55-4.19,4.1-6.12,3.45-4.31,10.23-10.61,16.07-6.95,5.52,3.46,5.42,12.85,4.63,18.55-.12.87-.64,2.27-.66,3.07,0,.28-.07.41.21.63Z" style="fill: #040502;"/>
    <path d="M119.17,90.26c.5.42.7,1.12.43,1.72-3.92,4.69-7.44,9.72-10.17,15.19-2.17,4.35-3.12,9.53-8.2,11.48-3.8,1.45-8.26,0-11.59-1.99-.25-.39,1.13-4.8,1.39-5.55,3.55-10.22,10.67-18.95,21.85-20.81,1.17-.2,5.48-.71,6.29-.04Z" style="fill: url(#uuid-d0e5ed74-d066-4bf8-83d0-b29e13894d11);"/>
    <path d="M95.62,99.46c-3.61,5.08-6.13,10.85-7.4,16.94-5.81-1.55-10.19-5.63-9.09-12.03.4-2.32,1.43-4.5,2.03-6.76,1.26-4.77,2.17-9.97,2.54-14.9.13-1.78-.72-6.09,2.23-5.02,6.74,5.28,9.94,13.37,9.69,21.77Z" style="fill: url(#uuid-abdc5bab-1386-4428-820a-07b040e442a4);"/>
    <path d="M112.86,87.4c-.09.47.13,1.27-.38,1.73-3.7.61-7.66,2.17-10.71,4.39-1.77,1.29-3.18,2.95-4.86,4.32-.12-6.11-1.94-12.22-5.95-16.94,2.74-5.04,8.76-13.65,14.99-13.94,9.47-.45,8.08,14.54,6.92,20.44Z" style="fill: url(#uuid-4cbc5e0d-413d-4727-9180-f4835f5a5713);"/>
    <path d="M83.33,115.67c1.57,1.45,3.81,1.57,5.61,2.26,1.19.46,2.32,1.08,3.5,1.56.98.4,2.31.2,1.84,1.51-.42,1.17-1.28,1.73-2.5,1.69-.83-.03-6.78-2.27-7.73-2.78-1.83-.98-1.82-2.69-.72-4.24Z" style="fill: #6eac50;"/>
    <path d="M110.25,92.97c-.37.86-1.71.99-2.49,1.4-1.95.85-4,2.21-5.54,3.74-.7.69-1.88.7-1.3-.47.85-1.49,8.14-6.8,9.33-4.71v.05Z" style="fill: #b8d8a9;"/>
    <path d="M83.89,94.29c-.9-.31-.34-2.51-.27-3.3.42-2.07.02-4.37.72-6.38.32-.64.78-.54,1.01.15.34,1.07.14,2.39.07,3.53-.26,1.66-.15,5.31-1.49,6.01h-.04Z" style="fill: #b8d8a9;"/>
    <path d="M107.16,88.75c.05.59-1.38,1.81-1.99,2.09-1.61.74-2.15-.31-2.76-.21-.37.06-1.09.68-1.66.91-1.53.61-2.78.02-3.72-1.25-.79-1.06-.98-2.78.43-3.36,1.05.81,0,1.87.67,2.78s2.32.95,2.94-.08c.32-.52-1.12-2.8.63-3.33.48,1.03,1,.65,1.81,1.05l-1.48.9c1.53,2.43,2.98,1.46,4.55-.25.14.24.55.52.57.75Z" style="fill: #fdd43b;"/>
    <path d="M100.24,79.9c-2.22,1.51-5.14-.06-4.87-2.83.05-.5.22-.89.8-.97.9-.12.24.92.24,1.25.02,1.51,1.75,2.65,3.13,1.8.64-.4.77-1.56,1.34-1.36.93.33.13,1.52.38,2.13.4.97,1.25,1.39,2.25,1.24,1.61-.26,1.29-1.3,1.71-1.54.27-.15.82.18.84.6.04.71-1.32,1.76-1.96,2.01-1.54.62-3.8-.61-3.86-2.32Z" style="fill: #fdd43b;"/>
    <path d="M102.07,68.76c1.09-.5,2.6-1.12,3.85-1.01.59.05.87.51.4.92-.45.48-1.64.7-2.51,1.05-1.59.57-2.76,1.92-4.32,2.62-1.68.55-.79-1.02-.07-1.6.79-.7,1.65-1.45,2.56-1.93l.09-.05Z" style="fill: #feefba;"/>
    <path d="M110.86,75.45c.75.53-.22,1.65-.71,2.02-2.06,1.59-5.37-.37-4.95-2.92.06-.4.39-1.36.97-.95.62.44,0,1.05.05,1.57.12,1.17,1.71,2.25,2.76,1.66.57-.32,1.38-1.72,1.87-1.37Z" style="fill: #fdd43b;"/>
  </g>
</svg>