<?xml version="1.0" encoding="UTF-8"?>
<svg id="uuid-96ab60b7-36d3-4f1c-98af-6508c29dcfee" data-name="fill_canolacut" xmlns="http://www.w3.org/2000/svg" xmlns:xlink="http://www.w3.org/1999/xlink" viewBox="0 0 128 128">
  <defs>
    <linearGradient id="uuid-fb7d7752-18e8-4da5-8b7b-4a73bce92615" x1="58.18" y1="20.48" x2="58.22" y2="100.5" gradientUnits="userSpaceOnUse">
      <stop offset="0" stop-color="#eed769"/>
      <stop offset="1" stop-color="#dbb654"/>
    </linearGradient>
    <radialGradient id="uuid-013b8b3e-0793-4bae-b78a-1f6ecf40d0da" cx="92.91" cy="101.71" fx="92.91" fy="101.71" r="20.24" gradientUnits="userSpaceOnUse">
      <stop offset="0" stop-color="#d9ad38"/>
      <stop offset="1" stop-color="#eed769"/>
    </radialGradient>
    <linearGradient id="uuid-c3a1b417-960f-4ed1-9ece-90ed5ae4490b" x1="-911.1" y1="-355.92" x2="-900.34" y2="-285.74" gradientTransform="translate(518 222) scale(.5)" gradientUnits="userSpaceOnUse">
      <stop offset="0" stop-color="#fdeda6"/>
      <stop offset="1" stop-color="#ecca6f"/>
    </linearGradient>
    <linearGradient id="uuid-807cdf1c-adce-4c34-80ee-461529805cdb" x1="-864.5" y1="-335.28" x2="-888.6" y2="-266.38" gradientTransform="translate(518 222) scale(.5)" gradientUnits="userSpaceOnUse">
      <stop offset="0" stop-color="#fdeda6"/>
      <stop offset="1" stop-color="#ebca6e"/>
    </linearGradient>
  </defs>
  <path d="M83.14,26.35c1.18,1.08,4.51,2.01,5.58,3.17,1.44,1.57,1.58,5.13,3.04,6.96,1.13,1.42,3.83,2.62,4.97,4.03,1.43,1.79,1.52,4.92,2.83,6.67,1.17,1.55,3.92,2.69,5.16,4.34,1.42,1.9,1.56,4.99,2.76,6.61,1.03,1.39,3.93,2.57,5.24,4.39,1.28,1.79,1.59,5.05,2.75,6.25,1.39,1.43,4.29.41,6.17.83,4.84,1.06.75,6.97,1.33,9.55.15.65,3.26,1.25,3.54,3.11.19,1.25-.59,2.39-.43,3.38.18,1.16,1.57,1.66,1.47,3.6-.1,2.01-1.86,2.21-2.29,3.23-.46,1.09,1.49,3.01-1.3,4.74-.73.45-1.88.48-2.46,1.04-.49.47-.57,1.4-.99,2.01-1.63,2.3-4.82.72-5.46,1.29-.08.07-.23,1.48-.61,2.13-1.89,3.2-4.3,4.57-7.72,5.79.81,4.58.51,8.69-2.94,12.05-6.14,5.97-17.44,2.64-18.27-6.02-8.73,2.9-16.59-3.31-15.49-12.5-4.73-.17-8.88-1.9-13.7-1.44-2.52.24-5.47,1.4-8.05,1.48-3.45.1-7.07-1.47-10.49-1.56-3.75-.1-7.47,1.45-11.01,1.56-3.27.1-6.91-1.59-10.01-1.58-1.77,0-2.83,1.17-4.5,1.09-2.22-.1-1.87-1.79-2.74-2.3-1.07-.63-3.45.13-4.54-1.46-.78-1.14-.18-2.42-.7-3.3-.46-.78-2.47-.66-3.06-2.47-.59-1.82.63-2.63.6-3.77-.02-.92-1.36-2.03-1.35-3.51.02-1.98,2.09-2.32,2.45-3.59.33-1.15-.22-2.57.34-3.66.52-1.01,4.19-2.71,5.26-4.24,1.25-1.79,1.5-4.9,2.55-6.45s4.32-2.76,5.67-4.83c1.13-1.73,1.17-4.07,2.27-5.73,1.16-1.76,4.71-3.34,5.53-4.59.93-1.41,1.34-4.55,2.26-6.12,1.03-1.77,4.14-3.06,5.43-4.57,1.5-1.75,1.57-5.1,3.05-6.95,1.18-1.47,4.2-2.83,5.25-4.25.92-1.25,1.68-4.69,2.61-5.64,1.04-1.06,4.54-1.43,6.05-2.2s4.26-4.06,5.17-4.33c1.78-.54,4.25.6,6.4.41s4.42-1.66,6.5-1.55c1.76.09,4.09,2.53,5.61,2.93,1.68.44,5.12.1,6.64.86,1.1.55,2.72,4.26,3.64,5.11Z" style="fill: #060503;"/>
  <path d="M109.02,62.73c-1.32-1.03-2.64-1.09-3.75-2.75-1.16-1.76-1.59-5.11-2.55-6.45-.89-1.24-4.93-3.13-5.75-4.38-1.05-1.59-1.47-5.28-2.53-6.84-.97-1.43-3.8-2.5-5.16-4.34-1.34-1.82-1.75-4.99-2.76-6.24-.95-1.18-3.55-1.62-4.78-2.72-1.12-1.01-2.78-4.68-3.74-5.26-1.05-.64-3.62-.05-5.14-.36-1.89-.39-3.96-2.67-5.65-2.88-2.34-.31-4.3,1.4-6.48,1.52-1.7.09-3.29-.83-4.96-.53-1.72.3-3.85,3.37-5.41,4.11-1.22.58-4.5.93-5.24,1.51-.63.51-1.49,4.29-2.61,5.64-1.39,1.68-4.3,2.66-5.44,4.56-1.04,1.74-1.17,4.62-2.33,6.17-1.14,1.52-4.32,2.86-5.47,4.53-1.18,1.7-1.42,4.93-2.55,6.45-.95,1.26-3.87,2.58-5,4-1.39,1.78-1.64,4.58-3,6.5-1.3,1.83-4.2,3-5.24,4.39-1.18,1.6-1.3,4.68-2.47,6.4-1,1.47-4.68,3.28-5.26,4.24-.59.97-.02,2.51-.34,3.66-.28.96-1.93,1.47-1.92,2.58,0,.88,1.29,1.65,1.4,2.58.11.94-1.35,2.98-.86,3.64.14.18,2.17.42,2.72,1.54.46.92.13,2.89.25,3,.12.12,2.29-.15,3.38.37,1.05.49,1.71,2.49,2.36,2.52.56.04,1.92-1.39,3.45-1.36,2.92.06,7.46,2,10.51,1.92,2.98-.07,7.46-1.95,10.55-1.95s7.78,2.04,10.95,1.95c3-.07,7.51-2.04,10.53-1.97,3.06.08,8.04,2.16,10.99,2,1.93-.1,2.18-1.73,3.26-2.75,1.75-1.63,3.42-3.17,6.01-3.24-.24-2.18-.17-5.06.44-7.46.16-.61,1.51-3.08,1.87-3.6,3.46-4.97,6.61-4.86,9.7-4.43-.54-5.65.99-9.94,4.51-14.24,1.31-1.6,4.02-4.8,6.14-4.17,2.18.64,6.47,8.88,6.35,11.41.16.25,4.87-1.06,4.93-1.74-1.18-2.62-1.51-5.67-3.91-7.53ZM91.77,57.02c-1.82,6.6-7.42,15.54-10.01,22.49-.36.97-3.78,6.84-3.71,7.91.05-.03-.01.56-.09.77-.56,1.42-1.74,5.1-3.22,5.33-1.52.23-7.2-1.84-7.66-3.37-.55-1.82,1.41-4.17,1.42-6.15-7,1.22-5.27-3.39-6.03-8.22-1.23-7.88-2.36-16.03-3.53-23.97-.81-5.55-4.46-10.75,3.81-11.3,1.54-.11,4.13-.42,4.65,1.34,1.51,11.22,3.17,22.42,4.6,33.65.19.43.36.44.5,0,4.19-7.8,6.9-16.4,10.97-24.27.88-1.76,7.27.75,8.05,1.5.87.85.56,3.16.25,4.29Z" style="fill: url(#uuid-fb7d7752-18e8-4da5-8b7b-4a73bce92615);"/>
  <path d="M83,85c2.35-3,5.82-4.68,9.61-2.96.33.15,1.88,1.19,2.42,1.67,2.11,1.87,3.16,5.54,2.97,8.29,2.01-.38,3.63-1.95,5.76-2.02s6.1,1.22,7.46,3.05c4.96,6.71-1.02,14.63-8.72,13.97.89,2.76,2.38,4.64,2.03,7.77-.18,1.55-2.06,4.75-3.36,5.64-3.15,2.18-6.69,2.21-9.83,0-3.17-2.23-3.03-5.31-3.99-8.54,0,0-3.77,1.31-4.71,1.5-8.17,1.64-13.3-8.42-7.14-14.38,1.58-1.53,5.37-2.75,8-2.5-.53-.59-.67-1.36-1-2,.11-.64-2.56-3.52.5-9.5Z" style="fill: url(#uuid-013b8b3e-0793-4bae-b78a-1f6ecf40d0da);"/>
  <polygon points="64.98 43.02 70.51 80.26 70.5 81 65.5 81.5 60.5 46.75 60.55 43.55 64.98 43.02" style="fill: url(#uuid-c3a1b417-960f-4ed1-9ece-90ed5ae4490b);"/>
  <path d="M89.49,54.52l-15.03,35.93c-.52.45-4.09-.59-4.4-1.02-1.15-1.57,13.94-31.46,14.99-35.88l4.43.96Z" style="fill: url(#uuid-807cdf1c-adce-4c34-80ee-461529805cdb);"/>
  <path d="M107,77c4.29-4.19,8.58-4.87,14.5-4.5-.9,4.9-2.17,10.23-6.34,13.41-.9.68-3.55,2.32-4.54,2.51-1.77.34-6.16-1.87-8.63-.92.38-4.15,2.08-7.64,5-10.5q1.05,1.1,0,0Z" style="fill: #91d194;"/>
  <path d="M100,85c-.65.09-.64.15-1.04-.32-.94-1.13-1.57-2.08-2.7-3.19-2.47-2.43-3.08-1.21-2.78-5.76.18-2.82,4.36-12.22,7.27-12.26,1.37-.02,4.38,6.48,4.62,7.9.69,4.01-.45,3.27-2.09,5.68s-3.15,5.1-3.29,7.96Z" style="fill: #91d194;"/>
  <path d="M122.44,94.94c-.32.47-2.4.34-2.84.66-.38.27-.85,2.71-1.12,3.39-3.89,0-2.61-1.3-3.59-4.12-.49-1.42-1.35-3-2.38-4.11,2.7-1.62,4.89-3.12,6.98-5.51.61-.7,1.73-3.07,2.31-3.2.5-.12,2.03.73,2.14,1.26.16.72-.94,1.91-.83,2.88s1.39,1.7,1.4,2.57c0,1.11-1.63,1.61-1.92,2.59-.3,1.05.17,3.12-.16,3.59Z" style="fill: #dab654;"/>
  <path d="M83.61,95.04c-2.72-2.54-2.35-8.29,1.26-10.07.96-.37,2.05.16,2,1.26-.08,1.12-.91,2.14-1.08,3.27-.44,2.04.9,4.7-.51,5.55-.55.3-.84.36-1.53.08l-.15-.09Z" style="fill: #f8f4df;"/>
  <path d="M78.07,99.12c1.13-.05,2.03.71,1.43,1.84-.7,1.29-2.06,2.66-2.4,4.26-.23.78-.34,1.66-.78,2.34-.63,1.03-1.85.74-2.1-.41-.39-2.25,1.14-7.62,3.68-8.02h.16Z" style="fill: #f9fcfa;"/>
  <path d="M45,60.5l1.47-3.28c.88-.99,6.39-1.01,7.69-.63,2.92.88,1.37,5.26,1.32,7.13-.1,3.7-.49,8.06-.49,11.52,0,3.41,1.33,7.98,1.52,11.52.09,1.69-.18,2.96-1.99,3.51-.75.23-4.52.79-5.23.72-3.26-.3-2.29-3.28-2.8-4-.16-.23-4.5,1.02-5.5.51,2.3,3.64-5.12,7.19-7.66,6.41-1.72-.53-5.7-10.54-6.75-12.75-.99-2.08-5.38-9.32-4.89-11.17.53-1.97,6.61-5.12,8.58-3.52l9.21,17.54-5.38-29.64c.1-1.7,2.37-1.8,3.88-2.12,7.51-1.56,5.93,2.19,7.01,8.25Z" style="fill: #0b0a05;"/>
  <path d="M102.43,98.83c.14.47-.07.95-.49,1.17-.05.03-.11.06-.16.08l-4.22,1.31c.19,1.78-.6,3.63-2.86,4.59l1.64,5.3c.14.47-.07.96-.49,1.18-.05.03-.12.05-.18.07-.52.16-1.09-.13-1.25-.66l-1.66-5.36c-1.79.19-3.44-.83-4.33-2.28l-4.62,1.43c-.52.16-1.09-.13-1.25-.66-.16-.52.13-1.09.66-1.25l4.55-1.41c-.11-1.18.25-2.44,1.34-3.5.34-.32.67-.61,1.02-.84l-1.47-4.76c-.17-.53.14-1.09.66-1.25.52-.16,1.09.13,1.25.65l1.39,4.49c2.19-.56,4.07.65,5,2.37l4.22-1.31c.53-.17,1.09.13,1.25.66Z" style="fill: #efe15f;"/>
  <path d="M91.86,98.6c5.93-1.34,5.52,8.14-.39,6.18-2.79-.93-2.63-5.49.39-6.18Z" style="fill: #eab821;"/>
  <path d="M107.15,78.06c1-1.07,2.61-1.94,4.11-2.41,1.09-.43,4.07-.27,2.86,1.46-1.34,1.3-4.43,2.51-5.63,4.53-1.25,1.59-1.66,2.91-3.1,2.9-.47-.07-.83-.38-.95-.86-.18-1.71,1.56-4.19,2.59-5.49l.11-.12Z" style="fill: #f9fcfa;"/>
  <path d="M99.68,67.69c.86,1.7-1.37,4-1.72,5.77-.7,1.93-.66,4.35-1.79,5.72-1.09,1.18-1.89-.6-1.85-1.69-.21-2.93,1.79-10.75,5.28-9.88l.08.07Z" style="fill: #f9fcfa;"/>
  <path d="M53,59c.61,6.36-1.01,13-.52,19.27.23,2.94,1.23,6.22,1.52,9.23l-5.01.51c.27-3.23-.84-6.56-1.02-9.73-.36-6.45.37-12.88.52-19.27h4.5Z" style="fill: #ebd365;"/>
  <path d="M41.5,54.5c.75,3.44.98,7.23,1.62,10.64.92,4.95,1.38,7.46,1.89,12.61.22,2.24,1.28,4.43.97,6.74l-3.22.53-5.78-28.76.02-1.25,4.5-.5Z" style="fill: #ebd365;"/>
  <path d="M28.99,68.5l.91,3.35,8.54,16.99c.11,1.2-3.63,2.64-4.38,2.1l-9.5-19.78c-.2-1.07,4.18-2.85,4.44-2.66Z" style="fill: #ebd365;"/>
</svg>