<?xml version="1.0" encoding="UTF-8"?>
<svg id="uuid-9a327ba3-07de-440e-a18e-d29ad80631fe" data-name="fill_treesaplings" xmlns="http://www.w3.org/2000/svg" xmlns:xlink="http://www.w3.org/1999/xlink" viewBox="0 0 128 128">
  <defs>
    <linearGradient id="uuid-476c09e4-5f1b-4b12-9231-712809cf5128" x1="-1944.34" y1="-428.23" x2="-1944.01" y2="-244.23" gradientTransform="translate(1036 222) scale(.5)" gradientUnits="userSpaceOnUse">
      <stop offset="0" stop-color="#7f8740"/>
      <stop offset="1" stop-color="#4b6226"/>
    </linearGradient>
    <linearGradient id="uuid-bb0b4830-4dab-4c91-88a0-81f564d4256f" x1="-1943.94" y1="-233.8" x2="-1943.99" y2="-202.8" gradientTransform="translate(1036 222) scale(.5)" gradientUnits="userSpaceOnUse">
      <stop offset="0" stop-color="#553415"/>
      <stop offset="1" stop-color="#6f422c"/>
    </linearGradient>
  </defs>
  <path d="M37.75,47.5c-1.41-.43-1.53-3.82-.34-4.84L61.98,3.36c1.03-1.14,3-1.15,4.05,0l24.39,38.97c1.42,1.07.8,5.16-.66,5.16h-7.75l14.38,23.4c1.38,1.33-1.07,4.1-2.13,4.1h-8.25l15.36,24.88c1.32,1.04-.13,4.62-1.11,4.62h-27.25v19.25c0,.23-.55,1.08-.87,1.25-1.41.74-12.26.75-14.39.51-.94-.11-1.82-.27-2.5-1-.77-6.65-.84-13.31-.74-20.01h-26.75c-.77,0-2.55-2.96-1.53-4.03l15.78-25.47h-8.75c-.86,0-2.16-1.78-2.03-2.75,4.17-8.59,10.28-16.27,14.78-24.75-2.15-.4-6.43.55-8.25,0Z" style="fill: #0a0d0c;"/>
  <path d="M39.5,45L64.25,5.5l24.25,39.5h-11l16,27h-11.25c-.3,0-1.06,1.03-.54,1.53l17.29,27.97H29l17.29-27.97c.52-.5-.24-1.53-.54-1.53h-11.25l16-27h-11Z" style="fill: url(#uuid-476c09e4-5f1b-4b12-9231-712809cf5128);"/>
  <path d="M57.5,122c-.22-5.81.16-11.69,0-17.5h13c-.21,5.81.28,11.7,0,17.5-3.64,1.23-9.37,1.24-13,0Z" style="fill: url(#uuid-bb0b4830-4dab-4c91-88a0-81f564d4256f);"/>
  <path d="M70.5,122c-.02.33.02.67,0,1h-12.71c-.52.07-.28-.64-.3-1,3.99.83,9.01.83,13,0Z" style="fill: #5e391d;"/>
  <polygon points="62.5 13.5 62.23 15.98 48.5 38.25 46.5 38.5 46.89 36.14 60.5 13.75 62.5 13.5" style="fill: #a2ad62;"/>
  <path d="M49.76,51.5c1.49-.32,1.3,1.79.85,2.86-.86,2.03-5.45,9.26-6.89,11.1-1.3,1.66-2.98,2.6-3.24-.2,1.62-1.69,8.07-13.5,9.28-13.76Z" style="fill: #a2ad62;"/>
</svg>