<?xml version="1.0" encoding="UTF-8"?>
<svg id="uuid-1e5c2c25-023f-441e-91f2-54af3a66f0c0" data-name="fill_oil_sunflower" xmlns="http://www.w3.org/2000/svg" viewBox="0 0 128 128">
  <path d="M32.56,45.72v-20.51c-3.21-3.93-4.71-8.41-3.5-13.63C30.59,4.94,36.24.28,43.26.17c6.38-.1,12.76-.09,19.14,0,5.93.08,10.43,2.82,13.05,8.1,2.55,5.13,2.11,10.27-1.05,15.12-.55.84-.94,1.78-1.55,2.96,9.5.52,16.01,5.33,20.28,12.95,4.51,8.06,2.77,15.81-2.3,22.38,2.6.59,5.81.49,7.82,1.99,2.09,1.56,3.03,4.66,4.76,7.56,8.67,2.26,9.44,6.1,7.36,13.61,6.74,6.96,5.83,10.58.12,16.08.92,10.77.32,11.81-8.14,14.1-3.32,9.42-4.16,9.91-14.08,8.2-5.06,5.21-9.01,7.17-16.06,0-9.74,1.69-11.26.81-13.95-8.16-1.65-.51-3.39-1.04-5.12-1.57v.53c-6.72,0-13.47.42-20.15-.12-6.24-.51-10.2-5.04-13.6-9.9-12.7-18.15-8.31-43.25,9.76-56.01,1.01-.72,1.98-1.5,3.01-2.28Z" style="fill: #4a3726; stroke-width: 0px;"/>
  <path d="M83.32,58.44c-.81-.6-1.65-1.21-2.79-2.05-2.62,2.23-5.3,4.51-7.96,6.77-7.44-1.62-14.4-10.35-14.46-18.29-.08-8.89-.02-17.79-.02-26.68,0-.94,0-1.88,0-2.94h-10.53v19.54c0,3-.07,6,.01,8.99.2,6.88-2.71,11.96-8.39,15.78-12.87,8.67-15.53,25.49-5.99,37.19.66.81,1.44,1.53,2.22,2.35h13.77c.52.53,1.17,1.2,1.71,1.76-.53,2.13-.96,3.89-1.43,5.79-5.03,0-9.97.31-14.85-.09-4.46-.37-6.91-4.04-9.13-7.41-10.25-15.48-6-35.68,9.6-45.98,3.24-2.14,4.95-5.01,4.94-8.91-.02-7.44,0-14.88,0-22.56-3.09-2.16-4.76-5.11-3.56-9.08,1.01-3.33,3.68-5.1,7.55-5.12,5.61-.02,11.21,0,16.82,0,4.61,0,7.19,1.49,8.35,4.81,1.14,3.28.07,6.36-3.29,9.26v14.02c10.65-2.77,16.41-.77,20.67,7.13,2.94,5.46,1.79,11.21-3.22,15.71Z" style="fill: #aecace; stroke-width: 0px;"/>
  <path d="M56.32,79.16c3.72-.4,6.61-.71,9.4-1.01.25-2.62.53-5.52.89-9.29,3.31,1.48,5.95,2.66,8.55,3.83,1.58-2.2,3.28-4.57,5.45-7.59,2.09,2.88,3.79,5.23,5.52,7.61,2.38-1.1,5-2.33,8.44-3.92.37,3.65.67,6.53.96,9.37,2.67.26,5.54.53,9.29.89-1.51,3.39-2.69,6.04-3.83,8.6,2.18,1.53,4.59,3.23,7.66,5.39-3.02,2.16-5.32,3.81-7.66,5.48,1.07,2.37,2.3,5.08,3.85,8.51-3.64.38-6.44.68-9.35.99-.22,2.59-.47,5.41-.79,9.18-3.26-1.37-5.9-2.48-8.61-3.61-1.52,2.06-3.25,4.4-5.48,7.42-2.14-2.94-3.84-5.29-5.5-7.57-2.36,1.09-5,2.32-8.41,3.91-.42-3.64-.74-6.51-1.07-9.37-2.66-.26-5.56-.54-9.26-.9,1.51-3.35,2.7-6.01,3.86-8.59-2.24-1.58-4.62-3.25-7.62-5.36,2.99-2.16,5.35-3.87,7.65-5.53-1.12-2.39-2.33-4.97-3.95-8.43Z" style="fill: #e5dd75; stroke-width: 0px;"/>
  <path d="M52.91,73.05c-1.71.73-2.81,1.2-4.12,1.76.63,3.42,1.26,6.81,1.9,10.3-1.98,2.27-4,4.58-5.98,6.85-5.24.64-5.95.3-8.05-4.4-2.15-4.82-2.12-9.65.2-14.51h16.05Z" style="fill: #d3cb8c; stroke-width: 0px;"/>
  <path d="M74.72,54.44c-3.39.02-7.32-3.69-7.35-6.93-.03-3.07,2.58-5.89,5.52-5.96,3.14-.08,7.75,4.15,7.71,7.07-.04,2.67-3.2,5.79-5.89,5.81Z" style="fill: #4a3726; stroke-width: 0px;"/>
  <path d="M95.97,93.12c0,8.86-6.64,15.38-15.64,15.36-8.32-.02-15.19-6.92-15.27-15.32-.07-8.49,7.07-15.59,15.67-15.58,8.5,0,15.23,6.88,15.24,15.54Z" style="fill: #4a3726; stroke-width: 0px;"/>
  <path d="M80.57,84.66c6.4,1.99,9.07,5.16,8.27,9.82-.6,3.46-4.81,6.99-8.24,6.9-3.61-.1-7.66-3.56-7.98-6.78-.42-4.36.93-8.93,7.95-9.94Z" style="fill: #7b5b3b; stroke-width: 0px;"/>
</svg>