<?xml version="1.0" encoding="UTF-8"?>
<svg id="uuid-bf4ffe38-100a-4ab7-842c-b979c7b528ca" data-name="fill_pigfood" xmlns="http://www.w3.org/2000/svg" xmlns:xlink="http://www.w3.org/1999/xlink" viewBox="0 0 128 128">
  <defs>
    <linearGradient id="uuid-04f93d17-3127-45b2-89fe-bffdd4ac7847" x1="-168.08" y1="-1015.03" x2="-168.02" y2="-799.03" gradientTransform="translate(148 518) scale(.5)" gradientUnits="userSpaceOnUse">
      <stop offset="0" stop-color="#7b6b59"/>
      <stop offset="1" stop-color="#5e4e39"/>
    </linearGradient>
  </defs>
  <path d="M22,31.5c-.86-.83-3.89,2.26-3.5-3.75s1.22-11.94,1.6-17.89c.98-3.89,5.99-3.5,9.16-3.38,21.15.82,42.32,1.54,63.46,2.54,4.43.21,12.61-1.63,13.28,4.72.5,4.66.24,10.25.49,15.01,1.47,28.33,2.62,56.67,4,85,.07,1.52,1.06,3.18.28,4.78l-17.05,4.49c-22.96-1.75-46.01-2.24-68.98-3.52-2.26-.13-4.89-.72-7.28-.72l4.53-87.28Z" style="fill: #0a0b0c;"/>
  <path d="M107.98,116.98c-6.39,1.1-11.09,3.25-17.75,3.04-18.12-.56-36.37-2.07-54.48-3.02-5.23-.27-10.52-.26-15.75-.5l4.5-85,72.19,2.94.71-.78,2.12-16.91c.11-1.21-1.97-1.78-2.57-.96-.87,2.08-1.04,15.45-2.28,15.73l-73.18-2.52c.28-3.97.18-8.32.5-12.25.13-1.55.46-6.02,1.22-6.78,1.73-1.72,3.15-.48,5-.45,14.7.2,29.34,1,44,1.5,8.66.3,19.12-.38,27.52.48.92.09,2.34.34,2.99,1.01l5.24,104.48Z" style="fill: url(#uuid-04f93d17-3127-45b2-89fe-bffdd4ac7847);"/>
  <path d="M63.01,50c2.03-.76,4.05-2.19,6.29-2.46,3.86-.47,4.45.32,5.08,3.84.81,4.55.61,9.57-1.3,13.8,1.66.92,5.18,7.22,6.03,7.72,1.86,1.08,6.98-1.4,10.13,3.12,3.38,4.85.01,17.47-5.28,20.18-2.09,1.07-3.91,1.29-6.22,1.33-5.28.08-5.81,1.03-10.62,2.33-12.5,3.36-25.76,2.84-32.69-9.52-5.45-9.73-4.16-20.7,3.1-29.07,2.34-2.7,5.69-6.13,8.23-8.77,5.06-5.27,14.39-15.55,17.26-2.49Z" style="fill: #0a0b0c;"/>
  <path d="M101,45.5c.39,3.3-.33,6.62-.5,9.75-1.1,19.64-2.24,39.26-3.6,58.9-3.02,4.11-2.52-3.24-2.42-5.42.72-16.45,2.45-33.02,3.52-49.48.3-4.55.38-9.19.5-13.75h2.5Z" style="fill: #3e3326;"/>
  <path d="M49.5,14c-7.41.32-14.79-.49-22.17-.58-1.69-1.18-.91-2.24.9-2.45,6.42-.74,13.55.91,20.03.52,1.42.11,1.33,1.3,1.25,2.5Z" style="fill: #9d8d7d;"/>
  <path d="M58.46,46.03c1.93,3.26,2.71,6.76,1.54,10.47l5.66-4.58c4.95-2.43,5.91-3.15,6.33,2.84.26,3.62-.17,7.65-2.44,10.59-.17.75,3.22,3.57,3.93,4.42.86,1.02,3.98,5.73,4.51,5.99,2.31,1.19,7.54-1.36,9.13,2.37,1.72,4.03-.34,13.45-4.59,15.65-4.04,2.09-4.94.07-7.71.37-1.09.12-3.54,1.57-4.93,1.99-11.91,3.61-26.83,5.36-33.48-7.79-4.4-8.71-3.03-18.1,3.33-25.35,1.34-1.53,3.27-2.73,4.46-4.04,4.24-4.64,7.99-10.79,14.26-12.93Z" style="fill: #db978f;"/>
  <path d="M56.36,72.6c6.92-1.53,5.43,8.95-.23,6.52-3.08-1.32-2.83-5.84.23-6.52Z" style="fill: #0a0b0c;"/>
</svg>