<?xml version="1.0" encoding="UTF-8"?>
<svg id="uuid-e058bb6c-91aa-4731-b38b-02c83b7a9eba" data-name="fill_cannedpeas" xmlns="http://www.w3.org/2000/svg" xmlns:xlink="http://www.w3.org/1999/xlink" viewBox="0 0 128 128">
  <defs>
    <linearGradient id="uuid-5764f209-b855-45c3-be34-98c06af638ae" x1="-4714.83" y1="-545.84" x2="-4799.92" y2="-361.53" gradientTransform="translate(2442 296) scale(.5)" gradientUnits="userSpaceOnUse">
      <stop offset="0" stop-color="#4fae3f"/>
      <stop offset="1" stop-color="#30742a"/>
    </linearGradient>
    <linearGradient id="uuid-eac8c994-7fe4-401e-8a3f-4b0f7d568252" x1="-4709.82" y1="-435.61" x2="-4721.84" y2="-410.19" gradientTransform="translate(2442 296) scale(.5)" gradientUnits="userSpaceOnUse">
      <stop offset="0" stop-color="#acd29c"/>
      <stop offset="1" stop-color="#5bb24b"/>
    </linearGradient>
    <linearGradient id="uuid-b57978d5-5f24-4950-bf35-d190f4b695ab" x1="-4760.76" y1="-458.12" x2="-4772.05" y2="-434.75" gradientTransform="translate(2442 296) scale(.5)" gradientUnits="userSpaceOnUse">
      <stop offset="0" stop-color="#aed39e"/>
      <stop offset="1" stop-color="#63b452"/>
    </linearGradient>
    <linearGradient id="uuid-3a992e76-211c-4344-87a7-79a3ba1b9c09" x1="-4744.53" y1="-489.45" x2="-4754.41" y2="-469.34" gradientTransform="translate(2442 296) scale(.5)" gradientUnits="userSpaceOnUse">
      <stop offset="0" stop-color="#aed39f"/>
      <stop offset="1" stop-color="#6eb85d"/>
    </linearGradient>
    <linearGradient id="uuid-604414da-5e85-4056-ac21-d7a7c51da7ad" x1="-4724.93" y1="-460.85" x2="-4736.71" y2="-436.18" gradientTransform="translate(2442 296) scale(.5)" gradientUnits="userSpaceOnUse">
      <stop offset="0" stop-color="#acd29c"/>
      <stop offset="1" stop-color="#5bb24b"/>
    </linearGradient>
  </defs>
  <path d="M99,19c-.06,8.94-.23,18.11-.5,27.5,0,21.76.33,43.69-.39,65.36-2.62,6.94-18.74,10.43-25.36,11.14-11.17,1.19-31.55.06-40.25-7.74-3.63-3.25-3.64-6.39-3.49-11,.61-18.75.69-37.69.52-56.52-.08-9.16-1.32-18.79-.54-28,.27-3.27,1.59-5.4,4.06-7.44,12.39-10.24,50.39-10.37,62.47.45,1.79,1.6,3.2,3.82,3.49,6.26Z" style="fill: #090d0d;"/>
  <path d="M96,25v85.25c0,.64-2.37,2.93-3.04,3.46-11.52,9.07-47.87,9.39-58.72-.7-.5-.47-2.24-2.29-2.24-2.76V25c3.33,2.85,7.34,4.53,11.5,5.75,11.57,3.38,25.26,3.58,37.01,1.01,5.51-1.21,11.12-3.12,15.49-6.76Z" style="fill: url(#uuid-5764f209-b855-45c3-be34-98c06af638ae);"/>
  <path d="M33.67,22.83c-7.46-7.87,10.55-13.18,15.72-14.19,9.81-1.91,23.98-1.56,33.61,1.11,4.88,1.35,17.52,6.27,11.51,13.01-9.54,10.7-50.95,10.5-60.84.07Z" style="fill: #a8a9a9;"/>
  <path d="M77.52,60.98c5.46.64,9.05,4.43,9.93,9.82.16.97-.18,3.19.13,3.63.11.16,2.52,1.07,3.44,1.81,8.85,7.2,2.31,21.33-9.22,19.72-1.18-.16-2.42-1.07-3.51-.96-1.41.14-3.68,2.76-7.03,3-2.34.17-5.32-1.26-6.41-1.03-.16.03-1.36,1.96-2.09,2.53-5.02,4-12.67,3.22-16.47-2.03-.6-.83-1.15-2.83-1.78-3.22-1.19-.73-4.08-.52-6.17-1.83-8.1-5.09-6.88-18,2.67-20.43-5.54-9.01.44-19.25,11.21-17.95.94.11,2.44,1.02,2.99.91.39-.08,2.88-4.93,4.84-6.15,8.91-5.57,19.12,2.23,17.48,12.19Z" style="fill: #090d0d;"/>
  <path d="M76.65,15.65c3.28-3.64,16.87-3.11,15.24,4-1.45,6.32-21.99,3.49-15.24-4Z" style="fill: #090d0d;"/>
  <path d="M55,10c-.09.65.32,1.61-.3,2.05-.48.35-6.6,1.06-8.32,1.59-1.89.58-4.86,2.51-6.25,2.78-1.64.32-2.34-1.21-.82-2.36,3.73-2.83,11.07-4.36,15.69-4.06Z" style="fill: #daead0;"/>
  <path d="M76.52,80.95c4.41-9.55,19.33-2.84,15.23,6.9-2.21,6.29-11.02,7.2-14.71,2.44-2.02-2.56-1.88-6.28-.61-9.16l.08-.18Z" style="fill: url(#uuid-eac8c994-7fe4-401e-8a3f-4b0f7d568252);"/>
  <path d="M47.17,89.59c.4-4.31,3.68-7.31,7.95-7.4,7.34-.58,11.86,8.86,6.9,14.18-5.68,6.18-15.87,1.84-14.87-6.59l.02-.19Z" style="fill: #64b35f;"/>
  <path d="M51.61,68.75c5.55-7.42,16.6-2.2,14.77,7.18-.46,2.1-2.56,5.73-4.97,5.34-1.34-.33-3.47-1.37-5.26-1.44-1.68-.19-3.72.47-4.77-.69-2.5-2.78-2.01-7.26.12-10.22l.12-.16Z" style="fill: url(#uuid-b57978d5-5f24-4950-bf35-d190f4b695ab);"/>
  <path d="M61.61,50.89c1.82-1.28,4.85-1.51,7.18-1.13,2.49.49,4.57,2.86,5.55,5.22.68,1.63,1.1,3.71.2,5.3-.64,1.14-2.16,1.45-3.62,2.28-2.48,1.19-3.59,4.42-6.67,2.36-2.35-1.36-4.96-1.55-5.86-4.27-1.19-3.35.64-7.53,3.09-9.65l.14-.11Z" style="fill: url(#uuid-3a992e76-211c-4344-87a7-79a3ba1b9c09);"/>
  <path d="M71.44,65.68c4.82-5.82,14.24-.1,13.5,6.59-.57,1.85-4.95,1.88-6.95,3.29-1.15.63-2.11,1.6-2.9,2.63-.55.7-1.11,1.54-2.01,1.62-1.3.07-2.65-.99-3.37-2.04-.86-1.24-.35-2.84-.56-4.7-.5-2.65.18-5.34,2.15-7.25l.13-.14Z" style="fill: url(#uuid-604414da-5e85-4056-ac21-d7a7c51da7ad);"/>
  <path d="M47.46,76.19c.38,1.3.37,2.79,1.44,3.83,1.38,1.51-.21,1.56-.94,2.54-.55.75-1.11,1.88-1.64,3.09-.82,1.84-1.43,3.9-1.75,4.99-.21.35-.57.39-1.02.4-9.47-.11-10.69-14.28-2.16-16.64,1.08-.33,1.72-.22,2.92.23.91.36,2.53.92,3.1,1.46l.06.09Z" style="fill: #64b35f;"/>
  <path d="M46.39,72.76c-.81.2-2.36-1.04-3.3-2.31-2.07-2.82-2.36-6.93-.46-9.91,2.23-3.57,7.63-5.07,11.38-3.02,1.27.91,2.19,3.41,1.69,4.9-.45,1.14-2.68,1.36-3.92,2.19-1.35.8-2.48,3-3.34,4.64-.86,1.64-1.18,3.26-1.94,3.48l-.1.03Z" style="fill: #64b35f;"/>
  <path d="M72.88,82.73c-.11,2.04-.26,3.98.62,6.01.31,1.75,3.93,4.31,1.59,5.38-2.55,1.21-5.11,1.9-7.77.71-1.65-1.06-.64-3.54-.99-5.11-.03-1.84-.73-3.82-1.75-5.43-.54-1.35.82-2.21,1.7-3.08.57-.46.96-1,1.64-1.11.88-.06,2.69,1.51,4.14,2.07.26.11.64.25.78.46l.06.1Z" style="fill: #64b35f;"/>
  <path d="M51.5,84.6c.87-.56,3.28-1.49,3.39.36-.06,1.01-1.41,2.2-2.13,3.54-.86,1.4-.7,3.36-1.37,4.85-.15.29-.32.51-.57.6-.66.3-1.65-.87-1.9-2.28-.5-2.62.5-5.66,2.43-6.97l.15-.1Z" style="fill: #daead0;"/>
  <path d="M77.03,85.72c-.63-3.13,1.63-7.89,4.3-7.57,1.08,1.03-.54,3.62-.8,5.82-.39,1.72,0,3.8-.73,5.35-.72,1.26-2.51-1.43-2.72-3.37l-.04-.22Z" style="fill: #daead0;"/>
  <path d="M61.98,51.91c1.02-.58,4.01-.42,3.34,1.49-.53,1.2-2,1.43-2.53,2.66-.8,1.42,0,3.98-1.71,4.41-1.85.63-2.03-1.46-2.05-3.13.12-2.21,1.19-4.1,2.79-5.35l.15-.09Z" style="fill: #daead0;"/>
  <path d="M71.63,67.55c1.08-.61,4.08-3.22,4.99-1.28.11,1.54-1.58,2.33-2.26,3.55-.86,1.25-.98,2.67-2.15,2.87-2.72.22-2.42-4.01-.69-5.05l.11-.09Z" style="fill: #daead0;"/>
  <path d="M46.93,68.66c-3.33,2.4-5.21-4.34-3.69-7.19.67-1.7,3.17-2.76,3.7-.46.1,1.47-1.71,2.81-.97,4.39.45,1.23,1.77,2.05,1.05,3.15l-.1.12Z" style="fill: #daead0;"/>
  <path d="M50.51,73.39c-.21-1.46.32-3.59,1.5-4.38.85-.49,1.97.33,1.94,1.46,0,1.03-.58,1.95-.54,2.98,0,1.02.59,2.07.5,3.1-.06.58-.42.96-.87.95-1.44-.16-2.06-2.62-2.49-3.92l-.03-.18Z" style="fill: #daead0;"/>
  <path d="M78.55,19.46c-1.57-2.27,3.22-3.33,4.78-3.42,1.17-.07,5.86.71,6.16,1.75,1.06,3.63-9.96,3.09-10.94,1.67Z" style="fill: #6c6b6a;"/>
  <path d="M40.35,84.24c.54.79,1.28,1.52,1.26,2.34-.03,1.06-.94,1.67-1.9,1.72-3.54-.13-4.4-8.38-1.41-10.19.84-.49,1.64-.12,1.78.98.28,1.42-.72,3.69.18,5l.09.14Z" style="fill: #daead0;"/>
</svg>