<?xml version="1.0" encoding="UTF-8"?>
<svg id="uuid-b32e603d-babe-4cc0-8b7e-6b3c103d0a09" data-name="fill_honey" xmlns="http://www.w3.org/2000/svg" viewBox="0 0 128 128">
  <path d="M19.19,46.8c-5.95-6.85-5.85-10.9.04-19.94-.1-10.15-2.43-24.21,10.93-24.93,22.53-.09,45.06-.09,67.59-.02,13.29.56,11.2,14.66,11.02,24.61,6.98,8.61,4.82,15.18.09,20.24-1.9,83.81,16.92,80.59-73.06,78.78-8.61-.09-16.4-7.56-16.52-16.2-.28-20.78-.09-41.57-.09-62.54Z" style="fill: #4a3726; stroke-width: 0px;"/>
  <path d="M100.47,50.41c0,15.23,0,30.27,0,45.31-.08,8.03,2.19,21.4-9.43,21.43-81.5-.43-60.87,11.65-63.47-66.63,18.3-9.96,24.27,9.92,43.21,4.04,11.39-4.43,16.98-10.34,29.68-4.14Z" style="fill: #cbb256; stroke-width: 0px;"/>
  <path d="M100.54,29.99c2.13,2.91,5.99,6.11,3.29,9.72-1.45,1.89-3.58,2.61-5.8,1.61-16.22-8.8-29.78,14.9-45.53,2.56-7.26-4.71-14.49-6.13-22.67-2.64-9.02.59-7.53-6.41-2.36-11.26h73.07Z" style="fill: #beb696; stroke-width: 0px;"/>
  <path d="M27.71,21.47v-10.27c22.21-3.17,45.37-.33,67.91-1.24,6.97-.58,4.39,6.9,4.87,11.5H27.71Z" style="fill: #beb696; stroke-width: 0px;"/>
  <path d="M53.5,75.35c.77-.92,1.4-1.66,2.24-2.67-1.11-3.34-4.81-8.9.23-10.87,5.32-1.63,5.81,4.51,7.63,8.25,3.04-2.68,2.03-7.92,6.78-8.57,4.63,1.13,4.71,1.52,1.96,11.22.64.8,1.38,1.71,2.09,2.6,25.78,1.77,24.46,40.92-3.02,28.35-4.76,2.8-9.72,3.17-14.26.28-28.43,11.73-29.47-26.77-3.66-28.59Z" style="fill: #4a3726; stroke-width: 0px;"/>
  <path d="M77.02,97.89c.48-4.98.87-9,1.25-12.99,8.53,2.91,10.19,14.52-1.25,12.99Z" style="fill: #aeaeae; stroke-width: 0px;"/>
  <path d="M49.54,83.61c.51,5.34.9,9.36,1.31,13.57-4.37,3.56-10.93-2.12-7.24-6.7,1.49-2.33,3.62-4.25,5.93-6.86Z" style="fill: #aeaeae; stroke-width: 0px;"/>
  <path d="M69.21,92.03c-.96,7.61-9.77,7.37-10.32,0h10.32Z" style="fill: #cbb256; stroke-width: 0px;"/>
  <path d="M58.86,82.45c1.47-1.79,2.94-3.58,5.07-6.18,2.17,2.56,3.67,4.35,5.18,6.13-.22.26-.44.52-.67.78h-8.84c-.25-.24-.49-.48-.74-.72Z" style="fill: #cbb256; stroke-width: 0px;"/>
</svg>