<?xml version="1.0" encoding="UTF-8"?>
<svg id="uuid-eba97b00-67a6-47f5-a757-865ebd3353a4" data-name="fill_emptybottle" xmlns="http://www.w3.org/2000/svg" viewBox="0 0 128 128">
  <path d="M48.83,5.24c9.38.37,19.65-.83,28.92-.12,2.04.16,3.35.55,3.7,2.8.23,1.49.27,6.51.02,7.96-.4,2.35-4.27,1.8-2.89,6.41l16.66,16.83,1.5,2.5.24,74.77c-.38,3.59-3.24,5.97-6.73,6.27-16.94,1.44-35.88-1.13-53.03,0-2.8-.32-5.01-2.5-6-5l-.21-75.24,1.71-3.29,16.5-16.49c2.02-4.45-2.45-4.39-2.77-7.22-.29-2.65-.68-9.27,2.37-10.18Z" style="fill: #030304;"/>
  <path d="M75.48,18.64c.13,1.41-.34,3.18.26,4.49.15.32,4.04,4.52,4.73,5.27,3.64,3.95,9.84,8.71,12.78,12.72.68.92,1.03,1.67,1.19,2.81l.06,71.47c-.41,3.15-2.17,4.49-5.24,4.76-16.24,1.43-34.57-1.13-51.04-.01-2.21-.25-3.83-1.38-4.5-3.5l-.12-73.15c.18-.98.54-1.61,1.11-2.39,2.95-4,9.15-8.77,12.78-12.72.69-.75,4.58-4.95,4.73-5.27.6-1.32.13-3.08.26-4.49h23Z" style="fill: #e4f6fb;"/>
  <path d="M49.8,7.71h28.36c1.33.43,1.06,7.24.35,7.71l-28.71.15c-1.27-.42-1.28-7.45,0-7.86Z" style="fill: #334ab5;"/>
  <path d="M50.49,8.64c3.51-1.55,2.93,6.16,1.74,6.5-2.74.78-1.51-5-1.74-6.5Z" style="fill: #859cfc;"/>
</svg>