<?xml version="1.0" encoding="UTF-8"?>
<svg id="fill_wine" xmlns="http://www.w3.org/2000/svg" viewBox="0 0 128 128">
  <path d="M63.9,2.47c10.52,0,21.04.13,31.56-.07,3.59-.07,6.13,1.37,7.65,4.23,7.2,15.38,15.54,31.13,14.5,48.66-.25,3.87.74,7.82.61,11.71.13,19.78-5.82,38.58-16.24,55.31-1.27,2.36-3.49,3.31-6.2,3.3-21.25-.03-42.49-.03-63.74,0-2.7,0-4.79-.99-6.23-3.28-8.39-15.21-16.16-31.87-15.43-49.6-1.33-16.03-.76-32.6,5.45-47.76,2.55-6.18,5.67-12.13,8.73-18.09,1.63-3.18,4.31-4.57,8.11-4.49,10.41.21,20.83.07,31.24.07Z" style="fill: #4a3726; stroke-width: 0px;"/>
  <path d="M90.01,52.22h-22.33c0-5.06,0-10.02,0-14.97.06-2.94.45-7.31-3.61-7.28-2.52-.08-3.88,1.35-3.9,3.84-.15,6.16.22,12.17-.17,18.35h-22.52c.99-5.15,1.95-10.1,2.91-15.04.84-2.8,1.68-6.12-1.91-6.99-2.4-.75-4.17.42-4.75,2.78-1.5,6.46-2.92,12.71-3.83,19.33h-12.18c.84-9.04,2.72-17.64,5.95-25.99h81.06c1.95,8.37,3.95,16.96,6.04,25.96h-12.48c-.99-6.14-2.02-12.54-3.69-18.61-.62-2.56-2-4.17-4.87-3.55-6.49,1.29,1.71,16.88.29,22.18Z" style="fill: #a5805b; stroke-width: 0px;"/>
  <path d="M60.21,75.85c0,5.54-.03,10.83.02,16.12-.46,2.76,1.34,5.69,4,5.97,3.23-.45,4.19-3.63,3.74-6.65.03-5.05.01-10.11.01-15.4h22.47c-.85,4.58-1.63,8.93-2.46,13.26-.65,3.08-2.75,8.11,1.9,8.93,2.36.42,3.93-.78,4.41-2.96,1.34-6.43,2.66-12.65,3.71-19.16h12.56c-2.08,8.9-4.12,17.59-6.1,26.07H24.04c-3.46-8.03-5.16-16.81-6.29-26.07h11.99c1.17,5.7,2.32,11.37,3.5,17.03.42,2.91,2.26,6.28,5.6,4.96,2.12-.74,2.82-2.53,2.3-4.81-1.27-5.64-2.45-11.3-3.74-17.26h22.8Z" style="fill: #a5805b; stroke-width: 0px;"/>
  <path d="M17.19,67.91v-7.71h93.28v7.71H17.19Z" style="fill: #7f827e; stroke-width: 0px;"/>
  <path d="M96.24,10.13c1.55,2.71,3.07,5.38,4.8,8.42H26.79c1.69-3,3.22-5.71,4.75-8.42h64.69Z" style="fill: #7f827e; stroke-width: 0px;"/>
  <path d="M32.08,117.96c-1.52-2.57-3.07-5.21-4.91-8.33h73.44c-1.76,2.99-3.34,5.69-4.89,8.33h-63.64Z" style="fill: #7f827e; stroke-width: 0px;"/>
  <g>
    <path d="M67.24,95.83c-7.37.42-11.72-4.47-12.25-10.31-11.02,1.33-16.92-13-7.32-19.79-4.04-8.42-1.75-14.5,6.61-17.32-.4-1-.81-1.99-1.23-3.04-5.28.6-10.98,3.93-16.06,1.22-5.61-3.4-3.66-12.35,2.85-13.11,9.87-1.37,18.96-4.81,27.32-10.23,2.88-1.87,6.26-1.66,8.73.41,7.52,7.24-3.23,13.66-9.46,16.47.36,1.08.72,2.15,1.07,3.21,8.69-1.19,13.21,1.79,14.69,9.74,11.15-1.34,16.8,13.88,7.21,19.96,3.63,6.06,2.87,10.51-2.71,15.84,10.01,15.87-17.08,25.63-19.46,6.96Z" style="fill: #4a3726; stroke-width: 0px;"/>
    <path d="M55.96,39.53c-5.59.98-11.78,4.4-17.22,2.7-.51-3.05.09-3.91,2.87-4.3,9.77-1.11,18.64-5.34,27.08-10.16,2.37-1.31,3.28-1.35,4.74.4,1.01,4.53-9.66,6.84-12.7,9.44-.07,3.2,3.65,5.91,1.17,9.22-4.79,1.27-4.15-4.24-5.94-7.31Z" style="fill: #6f5b47; stroke-width: 0px;"/>
    <path d="M56.32,65.12c-7.81-.02-7.82-12.19.03-12.08,7.95.15,7.81,11.94-.03,12.08Z" style="fill: #5f679e; stroke-width: 0px;"/>
    <path d="M59.54,74.89c-.15,8.12-12.01,7.71-12.07-.2.1-7.64,12.33-7.65,12.07.2Z" style="fill: #5f679e; stroke-width: 0px;"/>
    <path d="M83.71,69.94c-7.96.13-7.92-12.26,0-12.11,7.78.28,7.76,11.87,0,12.11Z" style="fill: #5f679e; stroke-width: 0px;"/>
    <path d="M74.62,69.32c-.17,8-11.86,7.88-12.11.05,0-7.81,12.2-7.85,12.11-.05Z" style="fill: #5f679e; stroke-width: 0px;"/>
    <path d="M78.25,89.47c7.79.04,7.65,12.13-.35,11.87-7.78,0-7.59-12.26.35-11.87Z" style="fill: #5f679e; stroke-width: 0px;"/>
    <path d="M71.74,85.31c.16,7.79-12.36,7.66-11.89-.35-.08-7.65,12.42-7.67,11.89.35Z" style="fill: #5f679e; stroke-width: 0px;"/>
    <path d="M80.79,85.5c-7.85.4-7.49-12.09-.05-11.85,7.86-.34,8.03,12.45.05,11.85Z" style="fill: #5f679e; stroke-width: 0px;"/>
    <path d="M77.28,53.55c.24,7.87-11.95,7.91-11.91.09-.2-8.17,12.42-7.64,11.91-.09Z" style="fill: #5f679e; stroke-width: 0px;"/>
  </g>
</svg>