<?xml version="1.0" encoding="UTF-8"?>
<svg id="uuid-4a9181d0-aa50-4973-8aad-c991f3f73b16" data-name="fill_ricerolls" xmlns="http://www.w3.org/2000/svg" xmlns:xlink="http://www.w3.org/1999/xlink" viewBox="0 0 128 128">
  <defs>
    <linearGradient id="uuid-6d826815-e464-4d9e-a485-24736895337b" x1="-6034.25" y1="-1121.74" x2="-5846.25" y2="-1120.98" gradientTransform="translate(3034 592) scale(.5)" gradientUnits="userSpaceOnUse">
      <stop offset="0" stop-color="#fef4d5"/>
      <stop offset="1" stop-color="#e8d8a2"/>
    </linearGradient>
    <linearGradient id="uuid-696e7627-889e-4698-a980-365f8bba5979" x1="-5846.01" y1="-1083.35" x2="-6033.97" y2="-1079.7" gradientTransform="translate(3034 592) scale(.5)" gradientUnits="userSpaceOnUse">
      <stop offset="0" stop-color="#e8d8a2"/>
      <stop offset="1" stop-color="#fef4d5"/>
    </linearGradient>
    <linearGradient id="uuid-d3840dad-c035-4a50-8aa7-f4db53b750c9" x1="-5845.78" y1="-986.34" x2="-6034.72" y2="-981.42" gradientTransform="translate(3034 592) scale(.5)" gradientUnits="userSpaceOnUse">
      <stop offset="0" stop-color="#e8d8a2"/>
      <stop offset="1" stop-color="#fef4d5"/>
    </linearGradient>
    <linearGradient id="uuid-5b0a9532-656f-4478-977c-9077793c2788" x1="-5846.37" y1="-1018.56" x2="-6034.32" y2="-1014.49" gradientTransform="translate(3034 592) scale(.5)" gradientUnits="userSpaceOnUse">
      <stop offset="0" stop-color="#e8d8a2"/>
      <stop offset="1" stop-color="#fef4d5"/>
    </linearGradient>
    <linearGradient id="uuid-c413ebc1-96bd-4f83-9bed-776700184360" x1="-5845.53" y1="-1053.03" x2="-6034.43" y2="-1046.76" gradientTransform="translate(3034 592) scale(.5)" gradientUnits="userSpaceOnUse">
      <stop offset="0" stop-color="#e8d7a2"/>
      <stop offset="1" stop-color="#fef4d5"/>
    </linearGradient>
  </defs>
  <path d="M54.39,11.64c13.12-.81,28.05-.05,40.72,3.5,7.27,2.04,19.69,6.83,20.41,15.59l-.06,67.48c-1.05,7.88-13.7,12.8-20.35,14.65-17.37,4.83-40.15,4.96-57.71.99-8.16-1.84-23.6-6.61-24.42-16.58-1.77-21.3,1.38-44.99,0-66.54.04-2.25,1.17-4.27,2.53-5.97,7.17-8.92,27.92-12.44,38.88-13.12Z" style="fill: #080706;"/>
  <path d="M59.39,14.14c13.23-.6,38.58,1.5,49.11,10.1,9.26,7.56,2.28,13.92-5.83,17.69-19.37,9.01-61.59,9.32-80.14-1.72-7.07-4.21-9.98-9.65-2.8-15.72,8.82-7.46,28.34-9.83,39.66-10.34Z" style="fill: url(#uuid-6d826815-e464-4d9e-a485-24736895337b);"/>
  <path d="M113,48.75c-.14.82-1.66,3.54-2.29,4.2-15.42,15.94-69.76,14.56-88.04,3.63-2.2-1.31-7.16-5.12-7.16-7.84v-10.25c1.84,1.03,3.25,2.59,5.04,3.71,16.44,10.27,50.53,10.55,69.05,6.64,8.47-1.79,17.23-4.58,23.4-10.85-.38,3.28.52,7.63,0,10.75Z" style="fill: url(#uuid-696e7627-889e-4698-a980-365f8bba5979);"/>
  <path d="M113,87.5v10.25c0,2.08-3.67,5.49-5.34,6.66-17.58,12.34-69.95,12.87-87.12-.2-1.42-1.08-5.04-4.74-5.04-6.46v-10.25c9.05,7.63,21.25,10.53,32.81,11.94,11.73,1.43,23.69,1.19,35.36-.51,10.43-1.52,21.21-4.45,29.33-11.42Z" style="fill: url(#uuid-d3840dad-c035-4a50-8aa7-f4db53b750c9);"/>
  <path d="M113,71v10.25c0,1.46-2.56,4.74-3.76,5.76-16.28,13.99-67.89,12.98-86.08,2.57-2.37-1.36-7.66-5.43-7.66-8.34v-10.25c6,5.68,14.06,8.41,21.99,10.26,16.47,3.84,36.98,3.7,53.51,0,7.94-1.78,15.98-4.6,21.99-10.26Z" style="fill: url(#uuid-5b0a9532-656f-4478-977c-9077793c2788);"/>
  <path d="M113,54.5v10.75c0,1.74-4.54,5.9-6.03,6.97-16.94,12.08-70.88,12.04-87.21-1.23-1.35-1.09-4.26-4.59-4.26-6.24v-10.25c1.2.67,1.96,1.88,3.04,2.71,18,13.88,73.41,13.89,91.42,0,1.08-.83,1.84-2.04,3.04-2.71Z" style="fill: url(#uuid-c413ebc1-96bd-4f83-9bed-776700184360);"/>
  <path d="M81,21.51c-1.58-.47-2.98-.74-4.64-.39s-4.02,2.98-4.55,2.86c-1.95-.43-1.06-2.5-.06-3.48,2.56-2.51,6.37-2.84,9.6-1.6,2.78,1.07,2.84,1.04,5.78,1.72,2.19.5,7.28,3.49,6.79,6.07-.09.48-1.07,1.41-1.62,1.3-1.08-.23-2.03-4.13-5.54-4.49-1.1-.11-2.21-.04-3.28.25-1.43.39-3.11,2.57-4.23,2.26-2.15-1.79,1.02-2.94,1.74-4.49Z" style="fill: #0d0c0a;"/>
  <path d="M62.84,32.68c2.68-.02,9.79,4.12,7.94,6.84-1.65,2.42-3.16-1.82-4.01-2.53-.76-.64-2.6-1.39-3.57-1.47-3.12-.25-5.67,3.32-6.94,2.98-1.83-1.23.33-3.13,1.49-4,1.35-1.01,3.4-1.81,5.09-1.82Z" style="fill: #0d0c0a;"/>
  <path d="M41.84,29.66c-1.73-1.76-4.42-2.1-6.69-1.27-1.05.38-4.4,4.49-4.68,1.35-.22-2.44,4.82-4.64,6.84-4.7,2.73-.08,7.97,2.81,8.21,5.75.05.62-.16,1.54-.76,1.71-1.67.46-2.08-1.99-2.91-2.83Z" style="fill: #0d0c0a;"/>
  <path d="M110,43.5v7.75c0,.62-2.21,1.8-2.52-.98-.26-2.29-.8-7.8,2.52-6.77Z" style="fill: #fdfdfb;"/>
  <path d="M107.5,93.25c.34-1.18,2.5-.75,2.5,0v7.5c0,.94-2.5.94-2.5,0,0-1.72-.35-6.27,0-7.5Z" style="fill: #fdfdfb;"/>
  <path d="M110,84.5c-3.32,1.03-2.79-4.48-2.52-6.77.32-2.77,2.52-1.6,2.52-.98v7.75Z" style="fill: #fdfdfb;"/>
  <path d="M107.5,60.25c.34-1.18,2.5-.75,2.5,0v7.5c0,.94-2.5.94-2.5,0,0-1.72-.35-6.27,0-7.5Z" style="fill: #fdfdfb;"/>
</svg>