<?xml version="1.0" encoding="UTF-8"?>
<svg id="uuid-9bd06ab0-9130-40ad-b0a1-da65ab2d9763" data-name="fill_beer" xmlns="http://www.w3.org/2000/svg" xmlns:xlink="http://www.w3.org/1999/xlink" viewBox="0 0 128 128">
  <defs>
    <linearGradient id="uuid-0c349ac9-9edb-4ead-b9fc-9dee02c13e26" x1="-380.63" y1="-417.6" x2="-549.67" y2="-417.43" gradientTransform="translate(296 296) scale(.5)" gradientUnits="userSpaceOnUse">
      <stop offset="0" stop-color="#a97737"/>
      <stop offset=".49" stop-color="#c19a6d"/>
      <stop offset="1" stop-color="#a97736"/>
    </linearGradient>
    <linearGradient id="uuid-5097d538-6e6d-4693-8edd-86c8b5408284" x1="-548.72" y1="-510.18" x2="-379.72" y2="-510.03" gradientTransform="translate(296 296) scale(.5)" gradientUnits="userSpaceOnUse">
      <stop offset="0" stop-color="#a97736"/>
      <stop offset=".5" stop-color="#c19a6d"/>
      <stop offset="1" stop-color="#a97737"/>
    </linearGradient>
    <linearGradient id="uuid-97de0aa0-a29c-4f9e-b218-01509a074bb7" x1="-374.77" y1="-463.69" x2="-545.79" y2="-463.65" gradientTransform="translate(296 296) scale(.5)" gradientUnits="userSpaceOnUse">
      <stop offset="0" stop-color="#71706f"/>
      <stop offset=".51" stop-color="#a9a9a8"/>
      <stop offset="1" stop-color="#777675"/>
    </linearGradient>
    <linearGradient id="uuid-14f5208f-16c0-4c80-bfa0-451a3f24570c" x1="27.08" y1="109.33" x2="100.64" y2="109.37" gradientUnits="userSpaceOnUse">
      <stop offset="0" stop-color="#7b7978"/>
      <stop offset=".47" stop-color="#aaaaa8"/>
      <stop offset="1" stop-color="#737271"/>
    </linearGradient>
    <linearGradient id="uuid-d5267820-c7ec-4b4f-81f3-8f8f58a5d1b2" x1="27.03" y1="19.2" x2="101.09" y2="19.22" gradientUnits="userSpaceOnUse">
      <stop offset="0" stop-color="#7a7978"/>
      <stop offset=".47" stop-color="#a9a9a8"/>
      <stop offset="1" stop-color="#737271"/>
    </linearGradient>
    <linearGradient id="uuid-d4dff7a3-6da5-4fe9-8a58-b2b5ca741f5c" x1="1012.5" y1="1744.93" x2="1062.03" y2="1831.98" gradientTransform="translate(-444 -814) scale(.5)" gradientUnits="userSpaceOnUse">
      <stop offset="0" stop-color="#af8f61"/>
      <stop offset="1" stop-color="#9c773d"/>
    </linearGradient>
    <linearGradient id="uuid-c4a14c19-888b-4836-af20-6ce889b91449" x1="987.4" y1="1702.55" x2="1008.42" y2="1738.93" gradientTransform="translate(-444 -814) scale(.5)" gradientUnits="userSpaceOnUse">
      <stop offset="0" stop-color="#f8ef9d"/>
      <stop offset="1" stop-color="#c8a636"/>
    </linearGradient>
    <linearGradient id="uuid-2ba56f66-0a28-4dd2-9060-7b250eb341f1" x1="1047.87" y1="1737.95" x2="1059.04" y2="1773.59" gradientTransform="translate(-444 -814) scale(.5)" gradientUnits="userSpaceOnUse">
      <stop offset="0" stop-color="#fbf3a2"/>
      <stop offset=".18" stop-color="#f9f09e"/>
      <stop offset="1" stop-color="#c4a12f"/>
    </linearGradient>
    <linearGradient id="uuid-994b702f-c2d9-4acd-a555-9b678d493140" x1="1024.87" y1="1710.22" x2="1043.31" y2="1741.64" gradientTransform="translate(-444 -814) scale(.5)" gradientUnits="userSpaceOnUse">
      <stop offset="0" stop-color="#fbf3a2"/>
      <stop offset=".22" stop-color="#faf1a0"/>
      <stop offset="1" stop-color="#c3a02e"/>
    </linearGradient>
    <linearGradient id="uuid-01684bde-56c4-44ea-9366-6a1d0aaab6be" x1="1068.41" y1="1769.21" x2="1073.54" y2="1805.64" gradientTransform="translate(-444 -814) scale(.5)" gradientUnits="userSpaceOnUse">
      <stop offset="0" stop-color="#fbf3a2"/>
      <stop offset=".2" stop-color="#faf2a1"/>
      <stop offset="1" stop-color="#c3a02e"/>
    </linearGradient>
    <linearGradient id="uuid-1b762d06-55a9-4bde-ab97-c128fbb6d421" x1="988.83" y1="1773.31" x2="1013.63" y2="1800.22" gradientTransform="translate(-444 -814) scale(.5)" gradientUnits="userSpaceOnUse">
      <stop offset="0" stop-color="#fbf3a2"/>
      <stop offset=".16" stop-color="#faf1a0"/>
      <stop offset="1" stop-color="#c4a12f"/>
    </linearGradient>
    <linearGradient id="uuid-57bf9fc0-225f-4a95-8a2e-8ce57ee9ae9d" x1="1003.29" y1="1805.73" x2="1031.44" y2="1828.36" gradientTransform="translate(-444 -814) scale(.5)" gradientUnits="userSpaceOnUse">
      <stop offset="0" stop-color="#fbf3a2"/>
      <stop offset=".18" stop-color="#fbf2a2"/>
      <stop offset="1" stop-color="#c3a12e"/>
    </linearGradient>
    <linearGradient id="uuid-bfe45ed0-9da7-4c0f-a51f-cda7aeb569b5" x1="974.82" y1="1737.47" x2="992.98" y2="1768.82" gradientTransform="translate(-444 -814) scale(.5)" gradientUnits="userSpaceOnUse">
      <stop offset="0" stop-color="#fbf3a2"/>
      <stop offset=".22" stop-color="#faf2a1"/>
      <stop offset="1" stop-color="#c3a02e"/>
    </linearGradient>
  </defs>
  <path d="M96.95,12.36l6.54,10.71c.52,2.27-.88,3.02-.82,3.81.05.7,2.59,5.57,3.07,6.94,1.58,4.52,2.95,9.49,3.88,14.17.23,1.18.5,5.83.72,6.21.44.77,1.63,1.08,2.27,1.76,1.31,1.38.38,2,.52,3.43.27,2.64.65,4.79.46,7.58-.08,1.22-.54,5.29-1.22,5.79-.54.39-1.48.25-1.79.81-1.12,7.25-2.53,14.5-4.97,21.42-.55,1.55-2.83,5.27-2.93,6.57-.06.78,1.25,1.32.82,3.29-.33,1.51-5.9,10.62-7.13,11.4-.48.31-.9.55-1.5.5l-63.28-.28-6.77-10.72c-.84-2.57.76-3.31.69-4.19-.04-.58-2.33-4.93-2.79-6.21-1.28-3.56-2.51-7.44-3.38-11.12-.59-2.49-1.03-8.47-1.85-10.15-.72-1.48-2.54-.99-2.9-4.1-.26-2.25-.32-10.39.12-12.41.44-2.01,2.21-2.03,2.79-3.21,1.04-2.13,1.9-10.73,2.86-14.14.65-2.31,1.55-4.85,2.37-7.13.46-1.27,2.75-5.64,2.79-6.21.05-.63-.78-1.19-.92-1.94-.35-1.88,1.59-4.67,2.6-6.38.62-1.06,3.46-5.68,4.04-6.2.55-.49,1.39-.58,2.1-.65,19.9,1.09,41.31-1.43,61.03-.02.86.06,1.92.06,2.59.66Z" style="fill: #0c0d0d;"/>
  <path d="M28.28,100.77c-4.17-7.6-6.82-16.55-7.62-25.2-.07-.64-.18-1.58.15-2.01.3-.4,1.12-.33,2.34-.34,1.93,0,4.66,0,6.37,0,1.23.03,1.98-.17,1.95,1.03.15,3.84,3.11,14.47,5.25,19.86.62,1.49.82,2.16,2.14,2.08,1.69-.05.89-1.71.56-2.92-1.96-5.85-4.32-11.61-4.8-17.77-.02-.71-.15-1.17.14-1.62,5.04-.41,13.92-.02,19.59-.15,2.83,0,5.27,0,6.7,0,1.58-.13,1.53.29,1.62,1.59.32,6.12-.8,12.68-.08,18.68.94,4.21,3.16,1.76,3.16-1.2.46-5.94-.77-12.67-.07-18.67.19-.58.72-.37,1.75-.41,1.59,0,2.89,0,4.82,0,6.02,0,15,0,20.51,0,.54-.02.78.06.82.61-.17,4.41-1.34,8.94-2.77,13.01-.53,2.21-4.09,7.47-1.61,9.06.25.09.51.03.73-.14,2.54-2.33,5.95-16.75,6.62-21.7.04-.84.3-1.37,1.21-1.32,1.75-.02,6.49-.01,8.55,0,1.49-.11,1.36,1.21,1.22,2.34-.89,8.7-3.41,18.19-7.99,25.61-5.06-.2-67.53.63-71.2-.33l-.05-.08Z" style="fill: url(#uuid-0c349ac9-9edb-4ead-b9fc-9dee02c13e26);"/>
  <path d="M29.7,26.93c22.52-.65,45.27.06,67.82.26,1.68.04,2.67.45,3.39,1.99,3.4,7.28,6.05,15.6,6.74,23.68.03.91.17,1.67-.56,2.13-2.33.55-6.34.11-8.66.22-1.47.06-1.85-1.04-1.93-2.35-.76-6.37-1.63-12.55-4.01-18.43-.51-1.42-2.26-3.21-2.65-.78-.08.66.09,1.49.29,2.17,1.68,5.95,4.04,12.3,3.4,18.51-.27.82-.98.64-2.1.65-5.53-.05-12.15-.12-17.81-.18-2.8-.03-5.2-.05-6.57-.07-1.85.24-1.48-1.47-1.59-2.75-.51-3.32,1.98-19.28-1.45-19.61-1.34.34-1.49,2.44-1.61,3.65-.28,5.1.39,10.76.28,15.96-.11,1.38.28,3.01-1.72,2.75-6.82.06-16.65.16-23.74.22-1.62-.05-2.47.3-2.69-.64-.26-1.4-.01-3.11.12-4.58.64-4.98,2.14-9.87,3.56-14.69.59-2.32-.86-3.9-2.3-1.34-2.54,5.26-3.67,12.78-4.34,18.53-.1,1.07-.44,2.09-1.57,2.36-1.49.41-4.46.48-6.64.46-1.76-.09-2.92.13-2.86-1.6.87-6.48,3.43-22.87,9.02-26.48l.15-.05Z" style="fill: url(#uuid-5097d538-6e6d-4693-8edd-86c8b5408284);"/>
  <path d="M64.73,57.74c7.44.21,15.09.57,22.77.39,6.85-.27,13.69-.5,20.51-.03,3.04.22,3.06,3.29,3.05,6.02,0,2.88.12,6.38-3.78,6.31-6.48.36-13.2.17-19.6-.12-18.91.45-38.32-.16-57.32.22-3.23,0-6.5-.04-9.66-.18-3.04.02-3.82-1.92-3.7-4.71.1-2.12-.13-5.62,1.21-6.8.64-.57,1.63-.72,2.52-.77,6.83-.3,13.7-.16,20.53.06,7.74-.12,15.56-.57,23.28-.4h.18Z" style="fill: url(#uuid-97de0aa0-a29c-4f9e-b218-01509a074bb7);"/>
  <path d="M98.5,108.88c-.7,1.2-3.1,5.15-4.15,5.35-17.92-.21-61.06.68-61.78.03-1.94-1.77-3.66-7.57-5.48-9.79,1.17-.48,50.68-.11,73.5-.25.43.43-1.68,3.93-2.09,4.66Z" style="fill: url(#uuid-14f5208f-16c0-4c80-bfa0-451a3f24570c);"/>
  <path d="M32.06,104.61c1.52.94,2.93,3.63,4.01,5.19.74,1.23,1.37,3.64-.53,4.02-2.39-.12-6.59-6.54-5.43-8.51.3-.69,1.05-1.12,1.82-.76l.13.06Z" style="fill: #c2c2c1;"/>
  <path d="M101.09,24.22c-22.99-.14-73.09.42-74.06-.06,1.9-2.34,3.72-7.54,5.83-9.43.73-.66.94-.59,1.69-.68,1.69.12,41.88.37,59.8.16.43,0,.69.23.99.51,2.08,2.02,3.92,7.03,5.75,9.5Z" style="fill: url(#uuid-d5267820-c7ec-4b4f-81f3-8f8f58a5d1b2);"/>
  <path d="M39.44,113.71c-.92-.72-1.89-2.75-2.7-3.89-.56-1.03-1.21-1.94-.82-2.93.2-.38.64-.61,1.07-.63,1.6.04,2.1,1.91,3,3.13.79,1.28,1.62,2.43.71,3.72-.26.37-.72.82-1.15.65l-.1-.05Z" style="fill: #c2c2c1;"/>
  <path d="M40.59,14.36c1.66,1.43-1.82,8.69-4.13,7.13-.87-1.27.62-2.95,1.25-4.2.79-.95,1.58-3.42,2.78-2.99l.1.07Z" style="fill: #c2c2c1;"/>
  <path d="M35.87,14.79c1.49,2.39-1.72,5.2-2.94,7.5-.33.5-.71,1.04-1.19,1.37-.95.71-2.29.32-2.43-.65-.31-1.86,4.15-9.7,6.47-8.3l.09.08Z" style="fill: #c2c2c1;"/>
  <path d="M31.26,99.57c-.73.66-1.93.37-2.34-.49-1.16-2.17-3.68-8.83-4.31-11.36-.45-1.27.57-3.31,1.97-2.01,1.71,1.98,1.72,5.01,2.8,7.34.6,1.95,2.89,4.39,1.96,6.42l-.09.1Z" style="fill: #f7d2a2;"/>
  <path d="M31.33,28.56c.98,1.33-.08,3.36-.64,4.76-1.49,2.85-2.12,6.05-3.37,9-.71,1.66-2.39,2.04-2.68-.08-.14-1.19.14-2.37.52-3.51.93-2.68,2.4-5.34,3.25-8,.33-1.16,1.48-3.4,2.83-2.26l.08.09Z" style="fill: #f7d2a2;"/>
  <path d="M19.99,59.54c.65-.85,1.94-.8,2.33.12.52,1.56.18,3.34.27,4.99-.02,2.82.33,5.67-2.2,4.61-.89-.74-.83-1.94-.91-3.17.04-1.94-.43-4.84.41-6.43l.09-.13Z" style="fill: #c2c2c1;"/>
  <path d="M25.62,59.13c2.97-.39,2.62,7.01.54,7.92-1.31.43-1.07-1.14-1.1-3.53.12-1.26-.34-3.6.47-4.34l.09-.05Z" style="fill: #c2c2c1;"/>
  <g>
    <path d="M61.54,58.26c1.26-.37,3.35-.46,4.02.71l23.88,40.48c1.87,2.8-3.53,5.75-5.63,3.1l-23.35-40.41c-.64-1.26-.42-3.43,1.08-3.87Z" style="fill: url(#uuid-d4dff7a3-6da5-4fe9-8a58-b2b5ca741f5c);"/>
    <path d="M57.08,38.03c3.28,2.51,5.9,6.82,6.34,10.98,1.05,10.01-5.75,10.42-11.96,4.64-5.33-4.96-4.73-12.25-3.22-18.92,1.11-.94,7.6,2.35,8.84,3.3Z" style="fill: url(#uuid-c4a14c19-888b-4836-af20-6ce889b91449);"/>
    <path d="M79.48,56.87c2.01-2.08,5.83-4.63,8.88-4.77,2.21,4.93,3.48,10.41,1.26,15.68-.83,1.96-6.23,7.4-8.23,8-7.72,2.31-7.35-13.14-4.08-15.81.28-.5,2.17-3.1,2.17-3.1Z" style="fill: url(#uuid-2ba56f66-0a28-4dd2-9060-7b250eb341f1);"/>
    <path d="M70.28,40.16c.67-.52,4.53-4.03,5.28-3.89,5.21,6.27,6.15,14.55,1.16,21.55-6.52,9.16-11.32-2.73-10.31-9.21.23-1.49,2.18-7.15,3.88-8.46Z" style="fill: url(#uuid-994b702f-c2d9-4acd-a555-9b678d493140);"/>
    <path d="M97.95,68.85c.96.02.9,1.09,1.09,1.83,1.99,7.55-.75,16.16-8.18,19.48s-8.76-6.84-7.2-11.42c1.35-3.95,12.9-9.92,14.29-9.89Z" style="fill: url(#uuid-01684bde-56c4-44ea-9366-6a1d0aaab6be);"/>
    <path d="M54.98,72.63c3.85-.32,8,1.64,10.91,4.13,7.74,6.62-2.52,10.31-8.66,9.77-4.36-.39-9.47-3.51-12.11-6.84-.37-.47-.87-2.05-.55-2.65,2.79-2.21,6.85-4.12,10.41-4.41Z" style="fill: url(#uuid-1b762d06-55a9-4bde-ab97-c128fbb6d421);"/>
    <path d="M75.78,92.92c3.63,4.76-5.12,8.27-8.83,8.64-5.31.52-11.5-2.49-14.57-6.82,2.05-3.07,7.63-6.11,11.26-6.45,3.84-.36,9.78,1.52,12.14,4.62Z" style="fill: url(#uuid-57bf9fc0-225f-4a95-8a2e-8ce57ee9ae9d);"/>
    <path d="M58.13,68.87c-2.35,2.45-9.9,1.83-12.88.57-4.02-1.7-8.24-6.9-9.05-11.14,4.45-2.43,10.81-3.69,15.47-1.56,3.39,1.55,10.14,8.31,6.47,12.13Z" style="fill: url(#uuid-bfe45ed0-9da7-4c0f-a51f-cda7aeb569b5);"/>
    <path d="M73.78,32.87c-2.51-.77-4.16-4.77-2.58-8.29,2.59.22,4.29,4.84,2.58,8.29Z" style="fill: #dfca6b;"/>
    <path d="M47.6,91.97c-2.66.47-4.63-1.6-5.16-4.05,2.46.38,4.75,1.29,5.16,4.05Z" style="fill: #dfca6b;"/>
    <path d="M46.1,30.72c-4.03-.51-5.2-4.67-5.03-7.06,3.63.8,5.2,4.67,5.03,7.06Z" style="fill: #dfca6b;"/>
    <path d="M84.83,40.74c2.45.67,2.89,4.49,1.29,6.26-1.87-1.87-1.96-3.78-1.29-6.26Z" style="fill: #dfca6b;"/>
    <path d="M33.89,55.16c-3.93-.22-6.19-3.27-6.03-5.86,3.67.36,6.21,3.55,6.03,5.86Z" style="fill: #dfca6b;"/>
    <path d="M39.92,74.82c-3.08.33-6.37-2.71-6.2-5.43,2.35.09,6.84,2.58,6.2,5.43Z" style="fill: #dfca6b;"/>
    <path d="M97.53,56.39c1.04,2.03,1.82,5.68.17,7.64-2.43-2.03-2.9-7.58-.17-7.64Z" style="fill: #dfca6b;"/>
    <path d="M80.97,58.3c.57-.33,1.43-.61,1.92-.07.43.53-.76,1.81-1.63,2.89-1.04,1.17-1.69,2.6-2.35,4-.54,1.07-1.4,1.68-1.72,1.12-.29-.61-.09-1.29.05-1.98.44-2.3,1.87-4.55,3.62-5.89l.11-.07Z" style="fill: #fdfdfd;"/>
    <path d="M50.76,48.85c-.6.38-1.12-.49-1.38-.99-1.02-2.26-1.13-6.1-.71-8.86.2-2.14,2.16-2.82,1.85-.09-.57,2.63-.4,5.44.39,7.94.12.6.27,1.47-.1,1.95l-.05.05Z" style="fill: #fdfdfd;"/>
    <path d="M70.6,42.91s.01,0,.02,0c.77-.02,1.28.82.9,1.5-1.56,2.78-2.2,5.5-2.2,8.83-3.02,1.76-1.52-4.38-1.26-5.93.01-.08.65-1.6.69-1.68.33-.72,1.38-1.99,1.86-2.73Z" style="fill: #fdfdfd;"/>
    <path d="M91.15,73.37c4.97-.21-.93,2.94-2,3.91-.92.74-1.39,2.02-2.11,2.9-.39.47-1.17.88-1.52.22-.2-2.91,3.65-5.42,5.63-7.03Z" style="fill: #fdfdfd;"/>
    <path d="M58.17,82.91v1.47c-3.57.37-8.71-1.49-10.89-4.4-.77-1.03-.64-2.16.69-1.8,2.06,2.13,6.51,5.26,10.2,4.74Z" style="fill: #fdfdfd;"/>
    <path d="M56.58,95.69c2.01.05,3.2,1.65,5.24,2.31,2.56.83,4.22.25,6.37.64,3.22.58-1.77,2.19-4.33,1.75-1.13-.19-8.97-2.98-7.27-4.7Z" style="fill: #fdfdfd;"/>
    <path d="M49.51,68.75c-2.27.97-14.06-8.14-9.57-9.04,2.16,2.57,4.23,5.19,7.28,6.73,1.3.26,2.82.9,2.3,2.31Z" style="fill: #fdfdfd;"/>
    <path d="M36.1,56.21c.89-.52,5.3-1.63,6.49-1.81,2.53-.37,4.98-.14,7.52-.04-4.35-5.33-5.48-12.34-3.66-18.95,1.12-4.1,4.2-2.64,7.23-1.38s6.72,3.69,8.75,6.36c1.33,1.76,1.83,3.83,3.16,5.5,1.1-4.65,4.52-8.27,8.11-11.24-2.93-2.12-5.08-4.47-4.33-8.39.45-2.35,1.4-4.16,3.78-2.48,3.58,2.52,3.55,7.47.92,10.68,2.91-.76,4.87,3.04,5.96,5.28,2.15,4.43,2.83,9.11,1.41,13.89,3.26-1.58,6.74-5.86,9.13-.84,2.24,4.72,2.74,11.56.45,16.32,6.48-2.82,9.94-5.3,10.68,3.88.62,7.6-1.77,13.76-8.5,17.66-1.91,1.11-3.54,2.05-5.87,1.69,1.66,3.45,6.92,8.8,2.97,12.36-1.16,1.05-2.75,1.12-4.24.88-2.67-.43-5.12-6.6-6.47-8.82l-1.87,2.73c-7.69,6.02-17.8,4.9-24.66-1.8-4.46-4.35.47-5.82,3.44-8.36.38-.33.77-.36.61-1.04-2.59-.14-5.03-1.23-7.2-2.57s-7.31-5.78-7.2-8.3c.11-2.61,3.64-3.35,5.45-4.53.36-.23.66.04.48-.82-4.07-.52-7.51-3.36-9.94-6.46-.87-1.1-3.44-5.17-3.63-6.35-.1-.61.38-2.21.68-2.67l.37-.37ZM73.61,32.32c1.3-2.6.61-7.03-2.2-7.58-1.6,2.79-.31,6.81,2.2,7.58ZM57.15,38.39c-1.44-.89-7.16-4.43-8.27-3.49-1.51,6.66-2.12,13.62,3.21,18.58,6.21,5.78,11.76,5.69,10.7-4.32-.44-4.16-2.13-8.61-5.64-10.78ZM66.76,48.42c-1.01,6.48,3.31,18.12,9.84,8.96,4.99-7,4.15-14.81-1.06-21.08-.74-.15-3.57,2.77-4.62,4.01-1.38,1.63-3.92,6.61-4.16,8.1ZM77.74,60.37c-2.47,4.2-3.94,17.17,3.78,14.85,2-.6,6.66-5.37,7.49-7.33,2.22-5.27,1.29-10.34-1.11-15.31-2.37.22-7.98,4.62-10.16,7.79ZM57.79,69c3.68-3.83-2.51-10.02-5.9-11.57-4.65-2.13-10.45-1.45-14.91.99.81,4.24,4.8,9,8.82,10.71,2.98,1.26,9.63,2.33,11.98-.13ZM61.87,58.51c-1.5.44-1.72,2.61-1.08,3.87l24.09,39.75c2.1,2.65,5.98-.05,4.11-2.86l-23.92-39.72c-.67-1.17-1.96-1.42-3.21-1.05ZM88.14,74.52c-1.01,1.09-2.99,3.68-3.3,4.63-1.52,4.6-1.68,14.11,5.67,10.83,7.44-3.32,10.17-11.93,8.18-19.48-.2-.74.04-1.62-.92-1.64-1.39-.03-8.77,4.74-9.64,5.67ZM54.16,72.92c-3.56.29-6.54,1.88-9.33,4.08-.32.59.11,1.88.48,2.35,2.64,3.33,6.92,6.29,11.27,6.68,6.14.55,16.08-2.73,8.35-9.35-2.91-2.49-6.92-4.07-10.77-3.76ZM75.78,92.92c-2.37-3.11-8.3-4.98-12.14-4.62-3.62.34-8.43,3.21-10.48,6.28,3.07,4.33,8.48,7.5,13.79,6.98,3.72-.36,12.46-3.87,8.83-8.64Z" style="fill: #101314;"/>
    <path d="M35.07,56.22c-.18.11-.26.2-.37.37-5.1.23-9.03-3.12-8.43-8.43,5.16-1.07,9.44,2.72,8.8,8.06ZM33.42,54.81c.27-2.81-3.05-5.19-5.29-5.19-.38,3.04,2.84,5.08,5.29,5.19Z" style="fill: #101314;"/>
    <path d="M40.83,86.13c4.78-.98,9.63,2.79,8.81,7.71-2.02.89-5.19.1-6.85-1.3-1.17-.99-3.84-5.79-1.96-6.41ZM47.6,91.97c-.4-2.76-2.7-3.67-5.16-4.05.53,2.46,2.5,4.52,5.16,4.05Z" style="fill: #101314;"/>
    <path d="M40.26,22.35c2.98-.44,6.5,2.38,6.93,5.34.58,4.04-.08,6.23-4.08,3.71-3.35-2.11-3.88-5.4-2.86-9.04ZM45.72,30.51c.27-3.42-1.53-6.17-4.45-6.51-.17,2.39,1.43,6.19,4.45,6.51Z" style="fill: #101314;"/>
    <path d="M84.69,37.84c4.73,1.73,5.69,8.37,2.09,11.71-4.82-1.89-5.91-8.14-2.09-11.71ZM84.83,40.74c-.68,2.47-.58,4.39,1.29,6.26,1.6-1.77,1.16-5.59-1.29-6.26Z" style="fill: #101314;"/>
    <path d="M32.12,68.01c5.09-.87,9.65,2.39,9.05,7.77-5.06,1.6-9.76-2.47-9.05-7.77ZM39.38,74.33c.2-2.59-2.65-4.72-5.42-4.74-.16,2.72,2.39,4.68,5.42,4.74Z" style="fill: #101314;"/>
    <path d="M96.14,54.43c1.63-.48,3.91,3.16,4.14,4.58.88,5.58-3.21,10.16-5.95,3.01-.74-1.94-.26-6.98,1.81-7.59ZM97.04,56.53c-2.33,1.13-1.11,5.88.61,7.2,1.65-1.96.61-6.07-.61-7.2Z" style="fill: #101314;"/>
  </g>
</svg>