<?xml version="1.0" encoding="UTF-8"?>
<svg id="uuid-d7f66f4d-ff38-46ce-b9dc-e9108d639f28" data-name="fill_sun" xmlns="http://www.w3.org/2000/svg" xmlns:xlink="http://www.w3.org/1999/xlink" viewBox="0 0 128 128">
  <defs>
    <radialGradient id="uuid-b9acce89-9b50-4b6a-b07b-d55c0b362a6b" cx="64" cy="64" fx="64" fy="64" r="57.52" gradientUnits="userSpaceOnUse">
      <stop offset="0" stop-color="#efcd24"/>
      <stop offset=".21" stop-color="#efce27"/>
      <stop offset=".4" stop-color="#f0d131"/>
      <stop offset=".57" stop-color="#f3d743"/>
      <stop offset=".73" stop-color="#f6df5c"/>
      <stop offset=".89" stop-color="#faea7c"/>
      <stop offset="1" stop-color="#fef396"/>
    </radialGradient>
    <radialGradient id="uuid-929437e5-65e2-4965-aa7c-cfda0ce4df77" cx="64" cy="64" fx="64" fy="64" r="25.76" gradientUnits="userSpaceOnUse">
      <stop offset="0" stop-color="#fef396"/>
      <stop offset="1" stop-color="#efcd24"/>
    </radialGradient>
  </defs>
  <g>
    <path d="M113.29,53.76c-3.2-1.95-8.54-5.2-9.18-6.71-.65-1.53.92-7.7,1.87-11.38,1.91-7.49,2.88-11.84.54-14.18s-6.69-1.37-14.26.55c-3.66.94-9.78,2.5-11.31,1.85-1.51-.64-4.77-5.99-6.71-9.18-4.2-6.92-6.76-10.84-10.24-10.84s-6.03,3.92-10.24,10.84c-1.95,3.2-5.2,8.54-6.71,9.18-1.53.66-7.68-.92-11.38-1.87-7.49-1.91-11.84-2.88-14.18-.54-2.34,2.34-1.37,6.69.54,14.18.95,3.68,2.52,9.85,1.87,11.38-.64,1.51-5.99,4.77-9.18,6.71-6.92,4.2-10.84,6.76-10.84,10.24s3.92,6.03,10.84,10.24c3.2,1.95,8.54,5.2,9.18,6.71.65,1.53-.92,7.7-1.87,11.38-1.91,7.49-2.88,11.84-.54,14.18s6.69,1.37,14.25-.55c3.67-.94,9.79-2.5,11.32-1.85,1.51.64,4.77,5.99,6.71,9.18,4.2,6.92,6.76,10.84,10.24,10.84s6.03-3.92,10.24-10.84c1.95-3.2,5.2-8.54,6.71-9.18,1.53-.65,7.67.92,11.38,1.87,7.49,1.91,11.84,2.89,14.18.54,2.34-2.34,1.37-6.69-.54-14.18-.95-3.68-2.52-9.85-1.87-11.38.64-1.51,5.99-4.77,9.18-6.71,6.92-4.2,10.84-6.76,10.84-10.24s-3.92-6.03-10.84-10.24ZM110.29,69.28c-5.22,3.17-10.14,6.17-11.52,9.4-1.41,3.35.05,9.04,1.59,15.09.6,2.36,1.65,6.47,1.77,8.36-1.88-.11-5.97-1.16-8.36-1.77-6.03-1.54-11.74-3-15.09-1.59-3.23,1.37-6.23,6.3-9.41,11.52-1.23,2.02-3.93,6.47-5.27,7.77-1.34-1.31-4.04-5.75-5.28-7.78-3.17-5.22-6.17-10.14-9.4-11.51-.92-.39-2.03-.58-3.4-.58-3.21,0-7.32,1.05-11.75,2.19-2.33.59-6.41,1.64-8.29,1.75.11-1.89,1.17-6,1.77-8.37,1.54-6.03,3-11.73,1.59-15.08-1.37-3.23-6.3-6.23-11.52-9.41-2.02-1.23-6.47-3.93-7.77-5.27,1.31-1.34,5.75-4.04,7.78-5.28,5.22-3.17,10.14-6.17,11.52-9.4,1.41-3.35-.05-9.04-1.59-15.09-.6-2.36-1.65-6.47-1.77-8.36,1.89.11,5.97,1.16,8.36,1.77,6.03,1.54,11.74,3.01,15.09,1.59,3.23-1.37,6.23-6.3,9.41-11.52,1.23-2.02,3.93-6.47,5.27-7.77,1.34,1.31,4.04,5.75,5.28,7.78,3.17,5.22,6.17,10.14,9.4,11.51,3.35,1.41,9.05-.05,15.1-1.59,2.35-.6,6.46-1.65,8.35-1.77-.11,1.89-1.17,6-1.77,8.37-1.54,6.03-3,11.73-1.59,15.08,1.37,3.23,6.3,6.23,11.52,9.41,2.02,1.23,6.47,3.93,7.77,5.27-1.31,1.34-5.75,4.04-7.78,5.28Z" style="fill: #101314;"/>
    <path d="M100.99,79.62c-1.5,3.56.05,9.62,1.69,16.05.64,2.51,1.76,6.88,1.88,8.89-2-.12-6.35-1.23-8.89-1.88-6.42-1.64-12.49-3.19-16.05-1.69-3.44,1.46-6.63,6.7-10.01,12.26-1.31,2.15-4.18,6.88-5.61,8.27-1.43-1.39-4.3-6.12-5.62-8.28-3.37-5.55-6.56-10.79-10-12.25-.98-.41-2.16-.62-3.62-.62-3.41,0-7.79,1.12-12.5,2.33-2.48.63-6.82,1.74-8.82,1.86.12-2.01,1.24-6.38,1.88-8.9,1.64-6.42,3.19-12.48,1.69-16.04-1.46-3.44-6.7-6.63-12.26-10.01-2.15-1.31-6.88-4.18-8.27-5.61,1.39-1.43,6.12-4.3,8.28-5.62,5.55-3.37,10.79-6.56,12.25-10,1.5-3.56-.05-9.62-1.69-16.05-.64-2.51-1.76-6.88-1.88-8.89,2.01.12,6.35,1.23,8.89,1.88,6.42,1.64,12.49,3.2,16.05,1.69,3.44-1.46,6.63-6.7,10.01-12.26,1.31-2.15,4.18-6.88,5.61-8.27,1.43,1.39,4.3,6.12,5.62,8.28,3.37,5.55,6.56,10.79,10,12.25,3.56,1.5,9.63-.05,16.06-1.69,2.5-.64,6.87-1.76,8.88-1.88-.12,2.01-1.24,6.38-1.88,8.9-1.64,6.42-3.19,12.48-1.69,16.04,1.46,3.44,6.7,6.63,12.26,10.01,2.15,1.31,6.88,4.18,8.27,5.61-1.39,1.43-6.12,4.3-8.28,5.62-5.55,3.37-10.79,6.56-12.25,10Z" style="fill: url(#uuid-b9acce89-9b50-4b6a-b07b-d55c0b362a6b);"/>
  </g>
  <g>
    <path d="M64,34.69c-16.16,0-29.31,13.15-29.31,29.31s13.15,29.31,29.31,29.31,29.31-13.15,29.31-29.31-13.15-29.31-29.31-29.31ZM64,86.93c-12.65,0-22.93-10.28-22.93-22.93s10.28-22.93,22.93-22.93,22.93,10.28,22.93,22.93-10.28,22.93-22.93,22.93Z" style="fill: #101314;"/>
    <path d="M89.76,64c0,14.21-11.55,25.76-25.76,25.76s-25.76-11.55-25.76-25.76,11.55-25.76,25.76-25.76,25.76,11.55,25.76,25.76Z" style="fill: url(#uuid-929437e5-65e2-4965-aa7c-cfda0ce4df77);"/>
  </g>
</svg>