<?xml version="1.0" encoding="UTF-8"?>
<svg id="uuid-14533ff4-e648-48c9-b3fa-94ca2c0dc08c" data-name="fill_armoire" xmlns="http://www.w3.org/2000/svg" xmlns:xlink="http://www.w3.org/1999/xlink" viewBox="0 0 128 128">
  <defs>
    <linearGradient id="uuid-d8886f5a-f5df-4101-a1aa-121dc879b761" x1="63.2" y1="545.85" x2="63.29" y2="624.14" gradientTransform="translate(0 -520.91)" gradientUnits="userSpaceOnUse">
      <stop offset="0" stop-color="#d1a774"/>
      <stop offset="1" stop-color="#ac7b3a"/>
    </linearGradient>
  </defs>
  <path d="M28.49,21.92h69.51s0,80.44,0,80.44H28.49V21.92Z" style="fill: url(#uuid-d8886f5a-f5df-4101-a1aa-121dc879b761);"/>
  <polygon points="98 104.09 98 118.54 93.5 118.54 93.5 111.07 33.5 111.07 33.5 118.54 28.5 118.54 28.5 104.09 98 104.09" style="fill: #785221;"/>
  <path d="M103,12.95l-2.23,6.51-75.03-.03c-2.02-.6-1.92-4.68-2.25-6.48h79.5Z" style="fill: #785221;"/>
  <path d="M67,39.84v-12.95c.79-.87,1.94-.79,2.42.33.09.84,0,9.01,0,12.24,0,1.35-1.48,1.48-2.43.38Z" style="fill: #f7d2a3;"/>
  <path d="M69.6,56.32c0-1.92,2.97-2.09,3.04-.17.07,1.87-.02,6.53,0,8.61.02,1.73-2.77,1.74-2.83,0-.13-3.99-.22-8.44-.22-8.44Z" style="fill: #101314;"/>
  <path d="M30.5,49.68v-24.39c0-.29.14-.56.37-.73.38-.27.74-.29,1.17-.16.36.11.63.43.69.8.63,3.7.23,22.94.24,24.19,0,1.01-.86,1.11-1.68,1.09-.44,0-.78-.37-.78-.8Z" style="fill: #f7d2a3;"/>
  <path d="M35.84,114.91l-.54,4.54c-.08.67-.59,1.21-1.25,1.33-2.83.52-7.57.59-8.03-2.03V23.74c0-.69-.43-1.35-1.1-1.5-2.71-.62-4.24-6.5-4.23-9.44,0-.83.7-1.5,1.53-1.5l81.62-.38c.76,0,1.41.54,1.53,1.3.45,2.84-1.07,8.92-3.81,9.89-.63.22-1.09.75-1.09,1.42l.02,96.33c-.02,1.53-5.02,1.54-7.39,1.19-.64-.09-1.16-.58-1.29-1.21l-1.05-5.04c-.15-.72-.78-1.23-1.51-1.23h-51.88c-.78,0-1.44.58-1.53,1.36ZM103,12.95H23.5c.33,1.8.23,5.88,2.25,6.48l75.03.03,2.23-6.51ZM28.49,21.76l.08,79.75h33.43V21.91s-33.51-.15-33.51-.15ZM64.49,21.76l.08,79.75h33.19l.24-79.59-33.51-.15ZM98,104.09H28.5v14.44h5v-7.47h60v7.47h4.5v-14.44Z" style="fill: #101314;"/>
  <path d="M52.72,56.15c0-1.92,2.97-2.09,3.04-.17.07,1.87-.02,6.53,0,8.61.02,1.73-2.77,1.74-2.83,0-.13-3.99-.22-8.44-.22-8.44Z" style="fill: #101314;"/>
</svg>