<?xml version="1.0" encoding="UTF-8"?>
<svg id="uuid-c398a35c-f40d-4f90-9d15-59650d1187bc" data-name="fill_sugarcane" xmlns="http://www.w3.org/2000/svg" xmlns:xlink="http://www.w3.org/1999/xlink" viewBox="0 0 128 128">
  <defs>
    <linearGradient id="uuid-4a98100a-e6a6-4cb3-8e6c-e307196d2d09" x1="-712.08" y1="-117.72" x2="-749.3" y2="-96.19" gradientTransform="translate(444 148) scale(.5)" gradientUnits="userSpaceOnUse">
      <stop offset="0" stop-color="#a0c971"/>
      <stop offset="1" stop-color="#c4da92"/>
    </linearGradient>
    <linearGradient id="uuid-a749b396-ab38-47bb-8911-befdfb24ed10" x1="-708.34" y1="-273.67" x2="-732.15" y2="-178.61" gradientTransform="translate(444 148) scale(.5)" gradientUnits="userSpaceOnUse">
      <stop offset="0" stop-color="#57a054"/>
      <stop offset="1" stop-color="#3b7938"/>
    </linearGradient>
    <linearGradient id="uuid-31edb22b-a7ac-4c66-a409-7d61e6c150ab" x1="-746.59" y1="-280.71" x2="-743.69" y2="-193.76" gradientTransform="translate(444 148) scale(.5)" gradientUnits="userSpaceOnUse">
      <stop offset="0" stop-color="#488544"/>
      <stop offset="1" stop-color="#275b26"/>
    </linearGradient>
  </defs>
  <path d="M79,19c.6.89.9-.27,1.11-.64,1.51-2.64,2.83-5.38,4.67-7.82,7.84-10.37,9.7-2.68,10.19,6.2.78,14.32-3.77,27.92-10.79,40.2-.82,1.43-5.25,7.25-5.08,8.21.12.71,1.46,2.23,1.62,3.29.57,3.84.45,3.88,2.57,7.51,5.56,9.53,11.5,18.92,16.68,28.7,3.74,1.73,5.79,4.65,3.63,8.7s-14.75,8.45-18.62,11.87c-5.59,1.45-8.36-2.48-8.25-7.7-6.95-9.47-11.92-23.63-18.79-32.71-1.25-1.65-3.5-1.42-4.55-4.45-.98-2.83.17-3.91,1.11-6.36-5.1,1.24-7.85-3.15-7.36-7.84-6.98-9.2-11.84-23.56-18.71-32.33-1.81-2.31-4.83-2.83-4.95-6.59-.1-3.21,1.77-4.35,4.07-5.94,3.29-2.28,11.03-6.85,14.61-8.39,3.82-1.63,7.59-.79,8.62,3.56,1.93,8.12,6.43,13.09,10.02,20.48l3.7,5.54c-2.18-10.8-3.04-21.4.15-32.11,4.17-14.02,8.65-6.68,12.45,2.27.55,1.3,1.63,5.92,1.91,6.34Z" style="fill: #0a0d0c;"/>
  <path d="M77.35,67.14c1.38,1.69-.1,3.26.52,4.7l20.19,34.85c.6,1.09,2.18.84,2.94,1.56,1.39,1.31,1.13,3.96-.52,4.98l-17.27,9.77c-1.69.11-3.6-1.59-3.69-3.28-.08-1.44.67-1.32-.25-3.23-5.5-11.42-13.97-22.45-19.54-33.98-.53-1.19-2.49-1.02-3.13-1.62-.81-.77-1.02-4.15.11-4.92l16.41-9.58c1.18-.82,3.39-.26,4.21.75Z" style="fill: url(#uuid-4a98100a-e6a6-4cb3-8e6c-e307196d2d09);"/>
  <path d="M68.62,55.88c.7.56,2.77.29,3.28,1.97.39,1.28.27,3.08-.88,3.93l-16.5,9.51c-5.55,1.15-3.81-3.43-5.07-6.48-4.43-10.67-14.24-22.1-19.02-32.98-1.61-2.21-6.32-2.72-3.66-6.81l16.37-9.62c2.05-.96,4.86-.54,5.29,1.98.2,1.16-.67,2.03-.19,3.1l20.38,35.41Z" style="fill: #b1d181;"/>
  <path d="M91,8.5c3.85,14.81-.2,29.97-7.07,43.18-2.02,3.89-4.35,8.25-7.42,11.32-1.7-17.06-.11-39.44,12.01-52.74.35-.38,2.03-2.34,2.49-1.76Z" style="fill: url(#uuid-a749b396-ab38-47bb-8911-befdfb24ed10);"/>
  <path d="M73.5,55c-1.5,1.62-4.29-6.58-4.51-7.24-4.23-13.07-5.61-29.79.76-42.25,3.08,3.63,5.32,8.8,6.61,13.38,1.89,6.73.13,6.93-1.21,13-1.24,5.61-1.44,10.18-1.65,15.85-.09,2.4-.9,4.57,0,7.25Z" style="fill: url(#uuid-31edb22b-a7ac-4c66-a409-7d61e6c150ab);"/>
  <path d="M74.4,104.01c-1.35-.89-2.43-3.74-3.42-5.43-.59-1.3-1.49-2.87-1.57-4.06.22-1.25,2.32-.34,2.86.7,1.42,2.27,3.41,4.73,4.1,7.02.24,1.07-.85,2.17-1.86,1.82l-.12-.05Z" style="fill: #fbfcf8;"/>
  <path d="M64.65,83.95c1.57-.28,7.57,8.81,3.25,7.9-1.71-.46-5.18-6.82-3.35-7.88l.1-.02Z" style="fill: #fbfcf8;"/>
  <path d="M42.32,45.47c.81-.19,1.63.62,2.07,1.24,1.32,1.82,4.96,8.2,5.96,10.32.45,1.06.97,2.83-.1,3.52-.63.31-1.48-.55-1.8-1.16-1.52-3.11-3.56-5.89-5.2-8.89-.52-1.25-2.76-4.04-1.08-5l.15-.04Z" style="fill: #fbfcf8;"/>
  <path d="M34.64,32.99c2.49-.35,2.59,1.51,4.16,3.92.81,1.42,1.6,2.82,1.9,3.41.38.83.6,1.58.61,2.43-.01,1.32-.85,1.87-1.88.84-1.37-1.54-5.87-9.39-4.9-10.56l.1-.03Z" style="fill: #fbfcf8;"/>
</svg>