<?xml version="1.0" encoding="UTF-8"?>
<svg id="fill_milk" xmlns="http://www.w3.org/2000/svg" viewBox="0 0 128 128">
  <path d="M31.81,106.01v-44.52s.06,0,.08,0v-8.13c-7.36-6.77-4.51-17.58,5.36-20-1.5-5.39.32-9.61,4.84-12.59,3.08-12.09,11.21-18.97,22.19-18.86,8.8.09,19.13,5.73,21.63,18.82,4.38,2.93,6.45,6.94,4.84,12.59,4.53,1.14,7.94,3.64,9.11,8.29,1.17,4.67-.32,8.59-3.68,11.49v8.29s.04,0,.06,0v45.97c2.18,8.48-5.44,18.43-16.04,18.62-10.73.19-21.47.14-32.21.01-8.09-.09-14.98-6.12-16.26-14.1-.29-1.82-.04-3.73-.04-5.59.05-.1.09-.19.14-.29Z" style="fill: #4a3726; stroke-width: 0px;"/>
  <path d="M38.99,102.02v-36.75h50.06v36.75h-50.06Z" style="fill: #4883af; stroke-width: 0px;"/>
  <path d="M47.78,39.49h32.59c.83,1.36,1.7,2.78,2.67,4.37,1.43-.9,2.72-1.84,4.12-2.57,1.89-.99,3.71-.89,5.03,1,1.29,1.85.81,3.94-1.23,5.41-1.45,1.05-2.99,1.97-4.7,3.09.96,2.18,1.9,4.3,2.96,6.73h-50.48c1-2.17,1.92-4.19,3.04-6.61-1.47-.99-3.01-2.01-4.52-3.07-2.26-1.58-2.76-3.62-1.41-5.57,1.23-1.79,3.31-2.07,5.55-.71,1.13.69,2.21,1.45,3.47,2.28,1.07-1.58,2.07-3.08,2.93-4.35Z" style="fill: #aeaeae; stroke-width: 0px;"/>
  <path d="M78.89,24.67c1.33.99,2.69,1.75,3.7,2.83.69.73,1.46,2.18,1.16,2.84-.39.87-1.74,1.62-2.79,1.8-1.66.3-3.4.09-5.11.09-9.21,0-18.42,0-27.63,0-1.6,0-3.74.27-3.88-1.81-.08-1.23,1.25-2.67,2.18-3.82.62-.77,1.66-1.21,2.51-1.8.77-11.31,8.52-15.82,15.68-15.57,7.89.28,13.29,6.11,14.18,15.44Z" style="fill: #aeaeae; stroke-width: 0px;"/>
  <path d="M48.67,118.51c-5.32.14-9.21-3.29-9.68-8.74h49.85c.4,4.8-3.93,8.83-9.43,8.75-1.67.16-29.03.16-30.74,0Z" style="fill: #aeaeae; stroke-width: 0px;"/>
  <path d="M70.81,22.3h-13.44c.55-3.26,3.1-5.5,6.36-5.67,3.26-.17,5.91,1.84,7.09,5.67Z" style="fill: #4a3726; stroke-width: 0px;"/>
</svg>