<?xml version="1.0" encoding="UTF-8"?>
<svg id="fill_soup_triple" xmlns="http://www.w3.org/2000/svg" viewBox="0 0 128 128">
  <path d="M26.48,63.08C29.44,24.76,12.06,4.57,62.53,2.37c9.78-.33,31.85,2.15,37.43,10.82,3.97,7.31,1.16,16.43,1.64,24.37-.3,23.64.32,47.33-.07,70.97-5.14,21.99-50.18,19.15-66.27,11.54-8.13-3.26-9.1-11.02-8.73-18.83.11-12.73.07-25.48-.06-38.17Z" style="fill: #583520; stroke-width: 0px;"/>
  <path d="M96.93,29.5c.62,25.38.04,50.47.24,75.83,1.11,14.45-17.6,13.26-27.56,14.93-10.96-.74-36.7,1.86-38.71-12.56.49-26.05-.84-52.27.55-78.21,21.8,7.77,43.34,8.23,65.48.02Z" style="fill: #ce4430; stroke-width: 0px;"/>
  <path d="M71.34,8.09c-1.12,2.24-4.62,3.2-6.17,5.27-8.56,10.27,16.49,15.67,1.54,16.15-9.44-1.19-19.22-1.42-28.34-4.2-19.75-8,1.68-16.32,11.99-17.77,2.89-.4,21.15-3.34,20.98.55Z" style="fill: #d6d6d5; stroke-width: 0px;"/>
  <path d="M89.21,27.95c-5.41-1.6.76-7.79-.48-11.54-.48-2.35-2.62-4.44-2.79-6.83.26-5.59,12.7,4.6,12.47,7.45,1.04,4.9-4.93,10.13-9.2,10.92Z" style="fill: #d6d6d5; stroke-width: 0px;"/>
  <path d="M83.39,19.12c-2.26,3.7-16.21,3.79-13.38-2.46,2.24-2.82,14.79-3.48,13.38,2.46Z" style="fill: #d6d6d5; stroke-width: 0px;"/>
  <ellipse cx="64" cy="76.87" rx="23.4" ry="31.59" style="fill: #4a3726; stroke-width: 0px;"/>
  <ellipse cx="64" cy="76.87" rx="19.42" ry="26.85" style="fill: #cbb256; stroke-width: 0px;"/>
</svg>