<?xml version="1.0" encoding="UTF-8"?>
<svg id="uuid-5c258f12-37d1-4a4d-b880-5074b04a3666" data-name="fill_buffalomilkbottled" xmlns="http://www.w3.org/2000/svg" xmlns:xlink="http://www.w3.org/1999/xlink" viewBox="0 0 128 128">
  <defs>
    <linearGradient id="uuid-bbce39f6-85e2-4cb7-ad2a-107d4698e748" x1="-20.02" y1="-483.71" x2="-20.11" y2="-445.71" gradientTransform="translate(74 296) scale(.5)" gradientUnits="userSpaceOnUse">
      <stop offset="0" stop-color="#9d815c"/>
      <stop offset="1" stop-color="#b9a17f"/>
    </linearGradient>
  </defs>
  <path d="M48.85,5.1c9.38.37,19.65-.83,28.92-.12,2.04.16,3.35.55,3.7,2.8.23,1.49.27,6.51.02,7.96-.4,2.35-4.27,1.8-2.89,6.41l16.66,16.83,1.5,2.5.24,74.77c-.38,3.59-3.24,5.97-6.73,6.27-16.94,1.44-35.88-1.13-53.03,0-2.8-.32-5.01-2.5-6-5l-.21-75.24,1.71-3.29,16.5-16.49c2.02-4.45-2.45-4.39-2.77-7.22-.29-2.65-.68-9.27,2.37-10.18Z" style="fill: #030304;"/>
  <path d="M75.5,18.5c.13,1.41-.34,3.18.26,4.49.15.32,4.04,4.52,4.73,5.27,3.64,3.95,9.84,8.71,12.78,12.72.68.92,1.03,1.67,1.19,2.81l.06,71.47c-.41,3.15-2.17,4.49-5.24,4.76-16.24,1.43-34.57-1.13-51.04-.01-2.21-.25-3.83-1.38-4.5-3.5l-.12-73.15c.18-.98.54-1.61,1.11-2.39,2.95-4,9.15-8.77,12.78-12.72.69-.75,4.58-4.95,4.73-5.27.6-1.32.13-3.08.26-4.49h23Z" style="fill: #e5f7fa;"/>
  <path d="M49.82,7.57h28.36c1.33.43,1.06,7.24.35,7.71l-28.71.15c-1.27-.42-1.28-7.45,0-7.86Z" style="fill: #334ab5;"/>
  <path d="M45,54.5l1.3-.26c1.57,1.5,4.12,1.32,5.75.23-.14-7.66,7.31-4.67,11.62-2.61l5.78-2.05c4.03-.84,6.78.33,5.89,4.84,1.93.85,5.2,1.33,6.44-.72l1.21.08c6.32-5.26,6.58,1.55,6.01,6.76-.18,1.59-1.09,2.88-1.03,4.48s1.17,3.38,1.48,5.06c.46,2.48.16,5.19.05,7.71-.8,2.37-3.11,3.2-6.92,2.48-1.9,3.68-3.44,7.41-4.6,11.17,2.46,9.37-5.52,14.01-13.75,10.81-10.64,3.16-16.41-1.29-14.41-12.38-1.85-3.07-3.44-6.26-4.77-9.56l-3.94.03c-1.56-.02-2.24-.53-2.6-2.04-.21-2.48-.77-4.45-.45-7.2.24-2.04,1.87-4.78,1.95-6.09.07-1.12-1.26-3.39-1.45-5.01-.23-1.98-.55-6.23.96-7.43,2.31-1.83,3.71.39,5.49,1.74Z" style="fill: #090805;"/>
  <path d="M38.5,78.5c2.04,1.84,4.95.64,7.44,1.06.09,3.27,4.61,8.36,4.97,10.8.21,1.42-.68,4.14-.37,6.35.48,3.44,3.32,5.55,6.72,5.81,2.54.19,4.56-1.11,6.99-1.05,1.89.04,3.62,1.07,5.5,1.08,4.53,0,7.69-3.33,7.77-7.81.02-1.1-.48-2-.54-3-.22-3.85,4.35-8.13,4.56-12.19,2.89-.33,5.79.89,7.96-1.55-1.83,39.34-43.3,44.4-50.36,7.11-.44-2.34-.45-4.32-.64-6.61Z" style="fill: #fcf52c;"/>
  <path d="M83,54c-.46.38-.7,1.34-1.52,1.73-.66.32-2.89.75-3.62.67-.31-.03-3.21-.81-3.32-.94-.95-1.09,2.29-5.76-4.57-4.73-1.63.24-5.57,2.24-6.15,2.17-1.69-.19-4.68-2.43-7.6-2.41-4.43.03-2.8,4.41-3.28,4.97-.12.14-3.19.88-3.61.88-2.22.02-2.91-.76-4.35-1.84,8.83-15.15,28.54-15,38-.5Z" style="fill: #fcf52c;"/>
  <path d="M50.5,8.5c3.51-1.55,2.93,6.16,1.74,6.5-2.74.78-1.51-5-1.74-6.5Z" style="fill: #859cfc;"/>
  <path d="M72,53.5l-1,4c3.62-.04,7.08,1.25,8.5,4.76-2.22,1.12-4.61,1.63-6.99.75-.35.33,1.32,2.47,1.6,3.15.84,2.07,1.27,4.23.38,6.33-2.32.12-3.89-1.45-5.72-2.48-3.41,7.25-6.46,6.82-10.02,0-1.88.96-3.37,2.85-5.74,2.5-.56-3.5.59-5.89,1.5-9-1.81.11-3.73-.03-5.36-.89-.43-.23-.83.14-.66-.87.43-2.53,6.11-4.76,8.52-4.25l-1.5-3.99c2.6-1.36,6.97,2.45,8.24,2.48,1.79.05,5.51-3.74,8.26-2.48Z" style="fill: url(#uuid-bbce39f6-85e2-4cb7-ad2a-107d4698e748);"/>
  <path d="M77.99,67c.15.11,1.25,2.96,1.37,3.39,1.82,6.43-1.48,12.19-4.61,17.6-5.28-4.19-13.68-4.58-19.61-1.59-1.07.54-1.52,1.72-2.64,1.6-2.95-6.36-7.45-13.8-2.75-20.5.53,1.56.23,6.21,1.23,7.26,1.98,2.06,5.6-.9,6.69-.69,1.4.26,2.48,3.98,6.07,3.97s5.11-3.77,6.06-3.96c.85-.17,3.23,1.31,4.48,1.4,3.58.23,3.69-5.69,2.7-8.22-.06-.43.92-.31,1-.25Z" style="fill: #a48965;"/>
  <path d="M62.4,87.14c3.77-.28,11.33,1.02,12.07,5.63.91,5.6-1.5,7.24-6.72,6.72-4.06-.4-3.42-.49-7.55-.05-4.69.5-7.77-.31-7.21-5.71.48-4.69,5.42-6.3,9.41-6.6Z" style="fill: #cfb4b4;"/>
  <path d="M46,68.01c-.81,1.57-.71,7.77-1.22,8.53-.4.6-3.25.71-3.71.4-1.43-.96.03-9.52,1.73-9.9.63-.14,2.17,1.27,3.2.98Z" style="fill: #734c2b;"/>
  <path d="M85.48,67.01c1.55,3.7,3.91,12.95-3,9.17.72-2.2-.93-6.11-.51-7.85.1-.43,3.33-1.45,3.5-1.31Z" style="fill: #734c2b;"/>
  <path d="M44.14,57.85c.62.46,2.05.52,2.86.65.23.19-2.48,3.19-1.26,5.51.46.87,1.74.61,1.76,1.48-5.68.14-7.03-5.3-6.5-9.99,2-.54,2.35,1.76,3.14,2.35Z" style="fill: #acad9e;"/>
  <path d="M85.35,63.35c-.43.58-2.95,1.59-3.35,1.15.48-2.3-.73-3.87-.99-5.98,1.27.63,5.28-3.78,5.49-3.52-.03,2.42.36,6.32-1.15,8.35Z" style="fill: #acad9e;"/>
  <path d="M74.32,78.06c2.59-.85,3.68,1.69,1.69,2.69-2.62,1.32-3.38-2.14-1.69-2.69Z" style="fill: #090805;"/>
  <path d="M51.8,78.04c2.2-.7,2.94,1.93,1.73,2.73-2.26,1.5-3.6-2.14-1.73-2.73Z" style="fill: #090805;"/>
  <path d="M58.13,92.37c.66.62,2.47-.08,1.87,2.63-2.82,1.41-6.62-3.45-4.01-4.77,1.67-.84,1.73,1.76,2.13,2.14Z" style="fill: #090805;"/>
  <path d="M71.38,94.37c-.77.73-3.54,1.04-3.87-.13-.53-1.84,1.59-1.43,2.05-2.07.73-1.02.22-3.15,2.93-.88.14.54-.73,2.72-1.1,3.08Z" style="fill: #090805;"/>
</svg>