<?xml version="1.0" encoding="UTF-8"?>
<svg id="uuid-a2604d90-f062-4cfc-9ddf-0ed56596e824" data-name="fill_ethanol" xmlns="http://www.w3.org/2000/svg" viewBox="0 0 128 128">
  <path d="M94.38,55.29v48.35c.06,0,.13,0,.19,0,0,4.57.34,9.17-.1,13.7-.41,4.23-4.63,7.55-8.94,7.57-14.31.06-28.62.07-42.93,0-5-.02-9.08-4.06-9.17-9.23-.06-3.82-.02-15.87-.04-18.07-.07-12.24-.03-24.48-.03-36.72,0-6.41-.12-12.83.05-19.24.05-1.89.48-4.07,1.51-5.58,3.66-5.33,7.67-10.43,11.09-15.02,0-3.41-.29-6.4.07-9.31.61-4.98,4.93-8.59,9.95-8.66,4.8-.06,9.6-.01,14.4-.01,9.88-.18,14.68,8.33,11.08,17.19,3.82,5.08,7.56,10.01,11.22,15,.76,1.04,1.65,2.31,1.69,3.5.18,5.41.08,10.84.08,16.26-.04.09-.08.18-.12.27Z" style="fill: #4a3726; stroke-width: 0px;"/>
  <path d="M87.15,100.02h-46.44v-40.97h46.44v40.97Z" style="fill: #aecace; stroke-width: 0px;"/>
  <path d="M76.8,26.01c3.42,4.6,6.92,9.01,10.03,13.69.82,1.23.5,3.26.56,4.92.08,2.16.02,4.32.02,6.71h-46.83c0-3.46-.03-6.91.03-10.37,0-.52.29-1.11.61-1.54,3.02-4.07,6.02-8.16,9.16-12.13.54-.69,1.73-1.21,2.62-1.22,7.81-.09,15.62-.05,23.8-.05Z" style="fill: #d6d6d5; stroke-width: 0px;"/>
  <path d="M87.27,108.06c-.02,2.64-.04,5.27-.06,7.91-1.22.93-2.64.85-4.06.85-11.96,0-23.92,0-35.88,0-1.2,0-6.74-.16-6.74-2.36,0-2.23,0-4.47,0-6.55.4-.25.54-.43.69-.43,15.17,0,30.35.02,45.52.04.18.17.35.35.51.54Z" style="fill: #d6d6d5; stroke-width: 0px;"/>
  <path d="M74.88,11.13c.37,3.35,1.24,7.84-3.37,7.73-4.97-.1-9.94,0-14.91-.05-2.48-.03-3.71-1.51-3.72-4.24,0-2.72,1.23-4.21,3.71-4.24,4.88-.05,9.75-.06,14.63.02,1.07.02,2.13.44,3.66.78Z" style="fill: #aecace; stroke-width: 0px;"/>
  <g>
    <path d="M46.05,87.28h4.21c0,1.58,0,2.57.03,2.98.02.41.11.76.26,1.04.15.28.35.42.61.42.22,0,.39-.13.53-.4s.22-.61.24-1.03c.02-.42.03-1.26.03-2.54v-5.4c-.21.91-.52,1.59-.94,2.04-.42.45-.94.68-1.55.68-.77,0-1.45-.42-2.04-1.26-.59-.84-.97-1.84-1.13-3.02-.16-1.17-.24-2.76-.24-4.75v-2.7c0-2.37.05-4.14.14-5.3.09-1.16.33-2.23.73-3.22.39-.98.93-1.75,1.62-2.29.69-.54,1.49-.82,2.4-.82,1.13,0,2.05.31,2.77.94.72.63,1.28,1.53,1.68,2.71.4,1.18.63,2.42.69,3.72.06,1.3.09,3.81.09,7.54v4.71c0,4.04-.03,6.73-.08,8.1-.06,1.36-.3,2.65-.73,3.86-.43,1.21-1.01,2.13-1.74,2.73-.73.61-1.57.91-2.53.91-1.19,0-2.16-.39-2.92-1.15-.76-.77-1.3-1.85-1.63-3.25-.33-1.4-.5-3.16-.5-5.28ZM50.26,76.71c0,1.42.09,2.31.28,2.64.18.34.37.5.57.5.29,0,.51-.21.64-.64.14-.42.2-1.26.2-2.5v-6.14c0-1.49-.06-2.47-.19-2.93-.13-.46-.34-.69-.64-.69-.18,0-.37.18-.56.53-.19.36-.29,1.32-.29,2.88v6.35Z" style="fill: #4a3726; stroke-width: 0px;"/>
    <path d="M67.56,73.86v11.31c0,2.57-.07,4.44-.21,5.61s-.43,2.27-.87,3.29-.97,1.75-1.59,2.2c-.62.44-1.31.67-2.08.67-1.01,0-1.85-.24-2.51-.7-.67-.47-1.2-1.2-1.6-2.19-.4-.99-.68-2.03-.84-3.13-.17-1.1-.25-2.84-.25-5.23v-11.84c0-3.11.13-5.45.4-6.99.27-1.55.8-2.79,1.6-3.73.8-.93,1.76-1.4,2.89-1.4.92,0,1.75.33,2.48.97.73.65,1.28,1.44,1.64,2.38s.61,1.99.74,3.16c.13,1.17.19,3.05.19,5.61ZM63.34,71.01c0-1.8-.04-2.93-.13-3.38-.09-.45-.29-.68-.61-.68s-.52.24-.62.72c-.1.48-.15,1.6-.15,3.34v16.55c0,1.97.05,3.16.14,3.56.09.41.3.61.61.61s.52-.24.62-.71c.1-.47.15-1.54.15-3.2v-16.8Z" style="fill: #4a3726; stroke-width: 0px;"/>
    <path d="M74.91,68.16v5.82c0,1.52-.07,2.66-.21,3.42-.14.76-.45,1.42-.92,1.99-.47.56-1.09.85-1.86.85-.89,0-1.57-.27-2.03-.81-.47-.54-.78-1.18-.94-1.94-.16-.75-.25-1.84-.25-3.25v-6.1c0-1.68.09-2.91.26-3.72.17-.8.5-1.46.99-1.96.49-.5,1.09-.75,1.8-.75.79,0,1.44.28,1.93.83.49.55.82,1.22.99,2,.17.78.25,1.98.25,3.6ZM72.24,66.67c0-.89-.02-1.45-.07-1.65-.05-.21-.17-.32-.37-.32-.19,0-.31.11-.36.34-.06.22-.08.77-.08,1.63v8.55c0,.98.02,1.56.07,1.76s.18.29.39.29c.18,0,.3-.11.35-.34.05-.22.08-.75.08-1.57v-8.69ZM79.82,61.73l-6.6,35.21h-1.61l6.63-35.21h1.58ZM82.74,84.54v5.84c0,1.51-.07,2.65-.21,3.41-.14.77-.45,1.44-.92,2-.47.57-1.09.85-1.86.85-.88,0-1.56-.27-2.03-.82-.47-.54-.79-1.19-.95-1.95-.16-.75-.24-1.83-.24-3.22v-6.12c0-1.66.08-2.89.26-3.7.17-.8.5-1.46.99-1.97.49-.51,1.09-.76,1.81-.76.8,0,1.45.28,1.94.84s.82,1.23.99,2.01c.16.78.25,1.98.25,3.58ZM80.07,83.07c0-.89-.02-1.45-.07-1.66-.04-.22-.17-.33-.37-.33-.19,0-.31.11-.36.34-.05.22-.08.78-.08,1.65v8.55c0,.97.02,1.54.07,1.74s.17.29.38.29c.19,0,.31-.11.35-.33.05-.22.07-.74.07-1.58v-8.67Z" style="fill: #4a3726; stroke-width: 0px;"/>
  </g>
</svg>