<?xml version="1.0" encoding="UTF-8"?>
<svg id="fill_cow" xmlns="http://www.w3.org/2000/svg" viewBox="0 0 128 128">
  <path d="M72.18,123.32c-9.62-.44-30.89,2.48-31.19-11.41-11.57-6.96-13.95-17.46-9.11-25.6-.34-4.97-.61-8.87-.89-12.95-6.6-5.09-7.38-11.48-6.85-18.44C-5.16,48.88-10.98,14.73,29.8,22.53c-1.38-5.93-2.73-14.57,4.14-17.11,3.83-1.64,7.79-.56,10.74,3.39,3.16,4.81,8.43,5.92,12.08,10.41h14.1c7.82-3.92,13.31-16.24,22.47-14.11,7.65,2.33,6.32,11.14,4.91,17.54,39.64-8.21,35.99,25.64,5.68,32.25.53,7.37-.63,14.02-6.92,18.28-.25,4.14-.49,7.96-.8,12.99,4.93,9.36,1.87,19.08-9.1,25.57.63,8.47-8.51,10.32-14.91,11.59Z" style="fill: #4a3726; stroke-width: 0px;"/>
  <path d="M93.01,47.01c13.08,20.92-5.31,15.44-2.79,33.07-9.65-.1-11.87-6.68-20.64-6.65-6.13.39-13.78-1.25-19.13,2.12-3.57,3.53-8.44,2.93-12.7,5,2.49-17.17-15.9-15.22-2.49-33.6-1.37.11-2.27,0-3.04.27C20.7,53.71-.75,34.21,10.41,29.41c25.66-7.19,23.35,12.56,30.35,5.43,4.31-5.4,10.18-7.82,16.68-8.81,25.76-5.16,30.89,17.13,36.03,8.04,1.62-3.45,4.4-4.59,7.83-5.24,5.87-1.05,23.15-2.6,18.53,7.54-4.66,9.84-15.33,14.03-26.82,10.65Z" style="fill: #d6d6d5; stroke-width: 0px;"/>
  <path d="M64.03,79.97c6.89-1.33,12.55,3.21,18.73,4.98,18.66,3.68,4.54,29-9.89,20.18-6.17-3.5-11.65-3.54-17.84.03-14.3,8.84-28.67-16.88-9.73-20.17,8.27-1.78,7.97-6.41,18.73-5.03h0Z" style="fill: #d5b5ad; stroke-width: 0px;"/>
  <path d="M47.96,112.93c6.04,1,10.67-2.77,15.99-4.6,5.27,1.74,9.96,5.63,16.08,4.59.08.26.17.53.25.79-1.72.81-3.42,2.25-5.17,2.31-9.05-.52-19.15,2.31-27.37-2.21.07-.29.14-.58.21-.87Z" style="fill: #d5b5ad; stroke-width: 0px;"/>
  <path d="M89.72,27.48c-3.78-2.19-7.4-4.29-11.16-6.47,5.22-.97,9.22-10.49,13.25-9.34,1.65,2.5.68,9.63-2.09,15.81Z" style="fill: #a5805b; stroke-width: 0px;"/>
  <path d="M36.56,11.08c5,2.47,7.18,7.81,12.53,10.05-3.57,2.12-7.13,4.22-11.01,6.52-1.09-5.15-3.65-10.16-2.56-15.76.35-.27.69-.54,1.04-.81Z" style="fill: #a5805b; stroke-width: 0px;"/>
  <path d="M46.28,54.46c5.5.05,5.71,8.75-.06,8.71-5.91.18-5.64-8.87.06-8.71Z" style="fill: #4a3726; stroke-width: 0px;"/>
  <path d="M86.16,58.9c.25,5.59-8.93,5.51-8.8,0,0-5.79,8.86-5.8,8.8,0Z" style="fill: #4a3726; stroke-width: 0px;"/>
  <path d="M75.28,95.4c-1.33,3.94-8.7,3.97-6.79-1.16,4.95-11.05,17.75-2.02,6.79,1.16Z" style="fill: #4a3726; stroke-width: 0px;"/>
  <path d="M53.11,95.4c1.33,3.94,8.7,3.97,6.79-1.16-4.95-11.05-17.75-2.02-6.79,1.16Z" style="fill: #4a3726; stroke-width: 0px;"/>
</svg>