<?xml version="1.0" encoding="UTF-8"?>
<svg id="uuid-02ad2095-364f-46ae-b956-2e0de52bea46" data-name="fill_spaghetti" xmlns="http://www.w3.org/2000/svg" viewBox="0 0 128 128">
  <g>
    <path d="M24.17,97.17c-4.19-3.67-8.39-6.9-12.05-10.66C4.29,78.49.3,68.84,1.22,57.49c.34-4.14,3.2-6.79,6.37-9,5.5-3.84,11.87-5.5,18.3-6.96,12.25-2.79,24.71-2.97,37.11-2.32,11.55.6,23.07,2.24,33.54,7.78,4.15,2.2,8.04,5.12,8.68,10.1.69,5.39-.02,10.78-2.09,15.96-3.85,9.66-10.77,16.62-19.12,22.41-.58.41-1.19.78-1.73,1.12,1.29,6.6.12,9.52-5.87,12.13-9.47,4.12-19.34,5.24-29.44,4.46-6.08-.47-11.95-2.27-17.55-4.83-5.21-2.38-6.85-5.86-5.26-11.16Z" style="fill: #4a3726; stroke-width: 0px;"/>
    <path d="M54.25,73.57c-12.91-.41-24.71-1.1-35.96-5.17-2.88-1.04-5.61-2.62-8.18-4.31-3.31-2.17-3.53-6.27-.6-8.99,4.03-3.73,9.13-5.33,14.3-6.6,8.09-1.99,16.3-2.93,24.65-3.11,12.09-.25,24.06.34,35.79,3.52,4.67,1.27,9.25,2.84,12.86,6.26,3.05,2.89,2.74,6.41-.58,8.94-5.15,3.93-11.2,5.66-17.39,6.78-5.43.98-10.94,1.47-16.43,2.06-3.16.34-6.34.47-8.44.61Z" style="fill: #ce4430; stroke-width: 0px;"/>
    <path d="M9.71,71.47c20.84,10.62,66.08,10.69,86.82.15-2.61,9.87-17.55,23.36-35.82,25.92-25.6,3.59-45.97-12.25-51-26.07Z" style="fill: #a5805b; stroke-width: 0px;"/>
    <path d="M76.21,99.47v2.3c-15.33,7.14-30.53,7.15-45.85.03v-2.29c15.31,6.24,30.44,6.28,45.85-.03Z" style="fill: #7b5b3b; stroke-width: 0px;"/>
  </g>
  <g>
    <g>
      <path d="M22.67,57.09c-1.16,0-2.3-.32-3.3-.92-3.03-1.82-4.02-5.77-2.2-8.81,4.15-6.91,10.36-15.41,16.34-16.63l.11-.02c.61-.12,1.23-.18,1.85-.18,4.3,0,8.07,2.69,11.71,5.29.79.56,2.15,1.53,3.25,2.21.6-.95,1.27-2.16,1.67-2.87,2.23-4,4.75-8.53,9.47-9.78.75-.2,1.51-.3,2.26-.3,4.47,0,8.06,3.41,10.95,6.14.27.25.58.55.91.86.16-.36.31-.7.44-.99,1.84-4.18,3.91-8.9,8.82-10.19.72-.19,1.45-.29,2.17-.29,4.49,0,7.6,3.54,10.1,6.51,0,0,0-.02.01-.03,1.55-3.71,3.3-7.88,7.16-9.72,1.14-.54,2.39-.82,3.73-.82,1.88,0,3.91.54,6.02,1.61,1.63.82,7.02,3.91,7.98,8.94.66,3.48-1.62,6.84-5.1,7.51-.4.08-.81.12-1.21.12-2.65,0-5.05-1.67-5.99-4.12-.03-.03-.06-.05-.09-.08-.24.55-.47,1.09-.64,1.51-1.67,3.97-3.95,9.41-9.21,10.42-.42.08-.86.13-1.3.15-.12,0-.25,0-.37,0-4.57,0-7.71-3.54-10.24-6.55-.03.06-.05.12-.08.18-1.93,4.4-4.33,9.87-10.2,10.39-.27.02-.54.04-.8.04-4.47,0-7.91-3.26-10.94-6.14-.38-.36-.88-.83-1.39-1.3-.45.76-.91,1.57-1.24,2.17-2.46,4.42-5.24,9.41-10.74,10.05-.38.05-.78.07-1.18.07-4.29,0-8.03-2.67-11.65-5.25-.74-.53-2.66-1.89-3.84-2.57-1.64,1.52-4.92,5.59-7.72,10.26-1.15,1.92-3.26,3.11-5.51,3.11Z" style="fill: #d3cb8c; stroke-width: 0px;"/>
      <path d="M108.12,18.55c1.56,0,3.29.47,5.13,1.39,1.02.51,6.12,3.29,6.93,7.55.46,2.41-1.12,4.74-3.53,5.21-.28.05-.56.08-.84.08-1.95,0-3.69-1.28-4.26-3.17-.46-.6-1.69-1.45-2.64-1.89-.54.96-1.2,2.53-1.64,3.58-1.59,3.79-3.54,8.43-7.77,9.24-.32.06-.66.1-1.01.12-.1,0-.19,0-.29,0-3.83,0-6.58-3.28-9.02-6.19-.47-.56-1.12-1.34-1.71-1.98-.49.94-1.01,2.13-1.39,2.98-1.81,4.13-3.87,8.8-8.57,9.22-.21.02-.42.03-.62.03-3.68,0-6.68-2.84-9.59-5.6-.89-.84-2.23-2.12-3.17-2.79-.79,1-1.85,2.89-2.54,4.13-2.33,4.18-4.75,8.53-9.25,9.05-.32.04-.64.06-.95.06-3.66,0-7.14-2.48-10.52-4.89-1.56-1.11-4.1-2.93-5.26-3.23-1.79,1.03-6.02,6.33-9.14,11.51-.84,1.39-2.31,2.16-3.82,2.16-.78,0-1.57-.2-2.28-.64-2.11-1.27-2.79-4-1.52-6.1,3.23-5.38,9.48-14.58,15.04-15.71.03,0,.06-.01.09-.02.5-.09.99-.14,1.48-.14,3.67,0,7.18,2.5,10.58,4.92,1.45,1.04,3.77,2.69,4.98,3.13.81-.88,2.02-3.06,2.79-4.44,2.14-3.84,4.35-7.8,8.25-8.84.6-.16,1.18-.23,1.76-.23,3.65,0,6.79,2.95,9.59,5.6.81.77,2,1.9,2.91,2.6.54-.97,1.17-2.4,1.6-3.37,1.74-3.95,3.53-8.03,7.51-9.07.58-.15,1.14-.22,1.67-.22,3.74,0,6.55,3.38,8.88,6.15.49.58,1.15,1.37,1.76,2.03.46-.93.95-2.09,1.3-2.93,1.48-3.52,3.01-7.17,6.18-8.68.87-.42,1.84-.62,2.88-.62M108.12,14.61c-1.64,0-3.18.34-4.58,1.01-3.49,1.66-5.42,4.74-6.89,7.9-2.39-2.51-5.44-4.86-9.53-4.86-.89,0-1.79.12-2.67.35-5.15,1.34-7.61,5.73-9.43,9.74-2.85-2.64-6.56-5.63-11.18-5.63-.93,0-1.86.12-2.76.36-5.52,1.46-8.38,6.6-10.68,10.73-.13.23-.34.61-.59,1.04-.6-.42-1.15-.81-1.46-1.03-3.72-2.65-7.93-5.66-12.86-5.66-.75,0-1.49.07-2.22.21l-.1.02c-5.4,1.1-11.33,7-17.67,17.55-2.38,3.96-1.09,9.12,2.87,11.51,1.3.78,2.8,1.2,4.31,1.2,2.93,0,5.69-1.56,7.19-4.06,2.28-3.8,4.76-7,6.34-8.76.92.61,1.92,1.33,2.39,1.66,3.7,2.64,7.89,5.62,12.8,5.62.48,0,.96-.03,1.43-.09,6.47-.76,9.65-6.45,12.2-11.03,3.07,2.9,6.85,6.26,11.86,6.26.32,0,.64-.01.96-.04,5.77-.51,8.67-4.86,10.65-8.95,2.42,2.54,5.52,4.93,9.7,4.93.15,0,.3,0,.46,0,.54-.02,1.07-.08,1.58-.18,5.48-1.05,8.18-5.92,9.93-9.88,1.51,1.37,3.51,2.19,5.64,2.19.53,0,1.06-.05,1.58-.15,2.2-.42,4.11-1.67,5.36-3.53s1.72-4.09,1.3-6.29c-1.13-5.91-7.19-9.4-9.02-10.32-2.38-1.21-4.71-1.82-6.91-1.82h0Z" style="fill: #4a3726; stroke-width: 0px;"/>
    </g>
    <g>
      <path d="M25.39,71.29c-1.16,0-2.3-.32-3.3-.92-3.03-1.82-4.02-5.77-2.2-8.81,4.15-6.91,10.35-15.41,16.33-16.63l.1-.02c.62-.12,1.24-.18,1.86-.18,4.3,0,8.07,2.69,11.71,5.28.79.56,2.15,1.54,3.25,2.21.6-.95,1.27-2.15,1.66-2.85,2.24-4.02,4.76-8.55,9.48-9.8.75-.2,1.51-.3,2.26-.3,4.47,0,8.06,3.41,10.95,6.14.27.25.58.55.91.86.16-.35.31-.69.44-.98,1.84-4.18,3.92-8.91,8.82-10.19.72-.19,1.45-.29,2.17-.29,4.49,0,7.6,3.53,10.1,6.51l.02-.05c1.55-3.69,3.3-7.86,7.15-9.7,1.13-.54,2.39-.82,3.73-.82,1.88,0,3.91.54,6.02,1.61,1.63.82,7.02,3.9,7.98,8.94.66,3.48-1.62,6.85-5.1,7.51-.4.08-.81.12-1.21.12-2.65,0-5.05-1.67-5.99-4.12-.03-.03-.06-.05-.09-.08-.24.54-.46,1.07-.64,1.51-1.67,3.97-3.95,9.41-9.21,10.42-.41.08-.84.13-1.29.15-.13,0-.25,0-.38,0-4.57,0-7.71-3.54-10.24-6.55-.03.06-.05.12-.08.18-1.93,4.4-4.33,9.87-10.2,10.39-.27.02-.54.04-.8.04-4.47,0-7.91-3.26-10.94-6.14-.41-.38-.9-.85-1.39-1.3-.45.75-.9,1.56-1.23,2.15-2.47,4.43-5.25,9.42-10.75,10.07-.38.05-.78.07-1.18.07-4.29,0-8.04-2.67-11.66-5.26-.74-.53-2.65-1.89-3.84-2.56-1.64,1.52-4.92,5.59-7.72,10.26-1.16,1.92-3.27,3.11-5.51,3.11Z" style="fill: #d3cb8c; stroke-width: 0px;"/>
      <path d="M110.83,32.75c1.56,0,3.29.47,5.13,1.39,1.02.51,6.12,3.29,6.93,7.55.46,2.41-1.12,4.74-3.53,5.21-.28.05-.56.08-.84.08-1.95,0-3.69-1.28-4.26-3.18-.46-.6-1.69-1.45-2.64-1.89-.54.96-1.2,2.53-1.64,3.58-1.59,3.79-3.54,8.43-7.77,9.24-.32.06-.66.1-1.01.12-.1,0-.19,0-.29,0-3.83,0-6.58-3.28-9.02-6.19-.47-.56-1.12-1.34-1.71-1.98-.49.94-1.01,2.13-1.39,2.98-1.81,4.13-3.87,8.8-8.57,9.22-.21.02-.42.03-.62.03-3.68,0-6.68-2.84-9.59-5.6-.89-.84-2.23-2.12-3.17-2.79-.79,1-1.85,2.89-2.54,4.13-2.33,4.18-4.75,8.53-9.25,9.05-.32.04-.64.06-.95.06-3.66,0-7.14-2.48-10.52-4.89-1.56-1.11-4.1-2.93-5.26-3.23-1.79,1.03-6.02,6.33-9.14,11.51-.84,1.39-2.31,2.16-3.82,2.16-.78,0-1.57-.2-2.28-.64-2.11-1.27-2.79-4-1.52-6.1,3.23-5.38,9.48-14.58,15.04-15.71.03,0,.06-.01.09-.02.5-.09.99-.14,1.48-.14,3.67,0,7.18,2.5,10.58,4.92,1.45,1.04,3.77,2.69,4.98,3.13.81-.88,2.02-3.06,2.79-4.44,2.14-3.84,4.35-7.8,8.25-8.84.6-.16,1.18-.23,1.76-.23,3.65,0,6.79,2.95,9.59,5.6.81.77,2,1.9,2.91,2.6.54-.97,1.17-2.4,1.6-3.37,1.74-3.95,3.53-8.03,7.51-9.07.58-.15,1.14-.22,1.67-.22,3.74,0,6.55,3.38,8.88,6.15.49.58,1.15,1.37,1.76,2.03.46-.93.95-2.09,1.3-2.93,1.48-3.52,3.01-7.17,6.18-8.68.87-.42,1.84-.62,2.88-.62M110.83,28.81c-1.64,0-3.18.34-4.58,1.01-3.49,1.66-5.42,4.74-6.89,7.9-2.39-2.51-5.44-4.86-9.53-4.86-.89,0-1.79.12-2.67.35-5.15,1.34-7.61,5.73-9.43,9.74-2.85-2.64-6.56-5.63-11.18-5.63-.93,0-1.86.12-2.76.36-5.52,1.46-8.38,6.6-10.68,10.73-.13.23-.34.61-.59,1.04-.6-.42-1.15-.81-1.46-1.03-3.72-2.65-7.93-5.66-12.86-5.66-.75,0-1.49.07-2.22.21l-.1.02c-5.4,1.1-11.33,7-17.67,17.55-2.38,3.96-1.09,9.12,2.87,11.51,1.3.78,2.8,1.2,4.31,1.2,2.93,0,5.69-1.56,7.19-4.06,2.28-3.8,4.76-7,6.34-8.76.92.61,1.92,1.33,2.39,1.66,3.7,2.64,7.89,5.62,12.8,5.62.48,0,.96-.03,1.43-.09,6.47-.76,9.65-6.45,12.2-11.03,3.07,2.9,6.85,6.26,11.86,6.26.32,0,.64-.01.96-.04,5.77-.51,8.67-4.86,10.65-8.95,2.42,2.54,5.52,4.93,9.7,4.93.15,0,.3,0,.46,0,.54-.02,1.07-.08,1.58-.18,5.48-1.05,8.18-5.91,9.93-9.88,1.51,1.37,3.51,2.19,5.64,2.19.53,0,1.06-.05,1.58-.15,2.2-.42,4.11-1.67,5.36-3.53,1.26-1.85,1.72-4.09,1.3-6.29-1.13-5.91-7.19-9.4-9.02-10.32-2.38-1.21-4.71-1.82-6.91-1.82h0Z" style="fill: #4a3726; stroke-width: 0px;"/>
    </g>
    <path d="M100.54,46c-.32.06-.66.1-1.01.12-3.98.17-6.81-3.21-9.31-6.19-.47-.56-1.12-1.34-1.71-1.98-.49.94-1.01,2.13-1.39,2.98-1.81,4.13-3.87,8.8-8.57,9.22-3.97.34-7.14-2.66-10.21-5.57-.89-.84-2.23-2.12-3.17-2.79-.79,1-1.85,2.89-2.54,4.13-2.33,4.18-4.75,8.53-9.25,9.05-4,.49-7.8-2.22-11.47-4.83-1.56-1.11-4.1-2.93-5.26-3.23-1.79,1.03-6.02,6.33-9.14,11.51-1.27,2.1-4,2.79-6.11,1.52-2.11-1.27-2.79-4-1.52-6.1,3.23-5.38,9.48-14.58,15.04-15.71l.09-.02c4.22-.81,8.2,2.03,12.06,4.78,1.45,1.04,3.77,2.69,4.98,3.13.81-.88,2.02-3.06,2.79-4.44,2.14-3.84,4.35-7.8,8.25-8.84,4.41-1.17,8.11,2.3,11.35,5.37.81.77,2,1.9,2.91,2.6.54-.97,1.17-2.4,1.6-3.37,1.74-3.95,3.53-8.03,7.51-9.07,4.59-1.21,7.89,2.76,10.55,5.93.49.58,1.15,1.37,1.76,2.03.46-.93.95-2.09,1.3-2.93,1.48-3.52,3.01-7.17,6.18-8.68,2.18-1.04,4.95-.78,8.01.77,1.02.51,6.12,3.29,6.93,7.55.46,2.41-1.12,4.74-3.53,5.21-2.26.43-4.46-.93-5.1-3.09-.46-.6-1.69-1.45-2.64-1.89-.54.96-1.2,2.53-1.64,3.58-1.59,3.79-3.54,8.43-7.77,9.24ZM100.04,37.37h0ZM36.47,46.87h0Z" style="fill: #f3f34e; stroke-width: 0px;"/>
  </g>
  <g>
    <ellipse cx="70.29" cy="58.28" rx="18.31" ry="16.7" style="fill: #674f47; stroke-width: 0px;"/>
    <path d="M70.29,76.55c-10.96,0-19.88-8.19-19.88-18.26s8.92-18.26,19.88-18.26,19.88,8.19,19.88,18.26-8.92,18.26-19.88,18.26ZM70.29,43.15c-9.23,0-16.75,6.79-16.75,15.13s7.51,15.13,16.75,15.13,16.75-6.79,16.75-15.13-7.51-15.13-16.75-15.13Z" style="fill: #4a3726; stroke-width: 0px;"/>
  </g>
</svg>