<?xml version="1.0" encoding="UTF-8"?>
<svg id="uuid-df041d39-cde2-439d-88e5-349c78d1e96c" data-name="look_prod_input" xmlns="http://www.w3.org/2000/svg" viewBox="0 0 128 128">
  <path d="M118.14,123.62H9.86c-1.66,0-3-1.34-3-3V54.15c0-1.66,1.34-3,3-3h40.6c1.66,0,3,1.34,3,3s-1.34,3-3,3H12.86v60.47h102.27v-60.47h-37.6c-3.88.07-3.9-6.06,0-6,0,0,40.6,0,40.6,0,6.52-3.46,1.52,68.25,3,69.47,0,1.66-1.35,3-3,3Z" style="fill: #2ac1ec; stroke-width: 0px;"/>
  <path d="M88.29,70.86l-24.29,26.12-24.29-26.12,4.35-4.05,16.94,18.22V7.38c0-1.65,1.35-3,3-3s3,1.35,3,3v77.65l16.94-18.22,4.35,4.05Z" style="fill: #2ac1ec; stroke-width: 0px;"/>
</svg>