<?xml version="1.0" encoding="UTF-8"?>
<svg id="uuid-ec8b33a5-8cec-4c33-b088-b63aab7c47da" data-name="look_speed" xmlns="http://www.w3.org/2000/svg" viewBox="0 0 128 128">
  <path d="M126.2,64.09c0,8.39-1.64,16.54-4.88,24.21-3.13,7.4-7.62,14.06-13.33,19.78-4.23,4.23-8.95,7.77-14.12,10.59l1.08,2.57-11.55,4.88-4.88-11.55,11.55-4.88.82,1.93c4.29-2.42,8.21-5.41,11.72-8.92,5.02-5.02,8.95-10.85,11.7-17.36,2.86-6.72,4.29-13.88,4.29-21.25s-1.43-14.53-4.29-21.25c-2.75-6.51-6.69-12.34-11.7-17.36-1.47-1.49-1.47-3.89,0-5.38,1.49-1.49,3.89-1.49,5.38,0,5.72,5.72,10.2,12.37,13.33,19.78,3.24,7.68,4.88,15.82,4.88,24.21Z" style="fill: #2ac1ec;"/>
  <path d="M90.24,11.76c-.82,1.93-3.06,2.84-4.99,2.02-6.72-2.86-13.88-4.3-21.25-4.3s-14.53,1.44-21.25,4.3c-6.51,2.75-12.34,6.69-17.36,11.7-5.02,5.02-8.95,10.85-11.7,17.36-2.86,6.72-4.29,13.88-4.29,21.25s1.43,14.53,4.29,21.25c2.75,6.51,6.69,12.34,11.7,17.36,3.51,3.51,7.43,6.51,11.72,8.92l.82-1.93,11.55,4.88-4.88,11.55-11.55-4.88,1.08-2.57c-5.17-2.83-9.9-6.37-14.12-10.59-5.72-5.72-10.2-12.37-13.33-19.78-3.24-7.68-4.88-15.82-4.88-24.21s1.64-16.54,4.88-24.21c3.13-7.4,7.62-14.06,13.33-19.78,5.72-5.72,12.37-10.2,19.78-13.33,7.68-3.24,15.82-4.89,24.21-4.89s16.54,1.66,24.21,4.89c1.93.82,2.84,3.06,2.02,4.99Z" style="fill: #2ac1ec;"/>
  <path d="M75.94,69.09c3.68-5.56,21.06-53.69,21.06-53.69,0,0-37.53,34.78-41.21,40.34-3.68,5.56-2.16,13.06,3.4,16.75,5.56,3.68,13.06,2.16,16.75-3.4Z" style="fill: #2ac1ec;"/>
</svg>