<?xml version="1.0" encoding="UTF-8"?>
<svg id="uuid-77388df7-7b56-4f88-b359-172c4f826651" data-name="look_electric" xmlns="http://www.w3.org/2000/svg" viewBox="0 0 128 128">
  <path d="M32.36,51.2c-4.87-5.91-5.37-25.19,0-30.65,6.57-6.68,30.84-6.62,37.46,0,5.42,5.42,5.96,25.83,0,30.65-7.28,5.89-31.51,7.23-37.46,0ZM64.6,45.55c3.42-3.42,3.76-16.31,0-19.35-5.27-4.26-22.3-4.79-27.09,0-3.42,3.42-3.04,15.59,0,19.35,4.26,5.27,22.3,4.79,27.09,0Z" style="fill: #2ac1ec;"/>
  <path d="M118.78,52.42c5.77-11.23.66-19.88-3.87-27.09,0,0-11.11-15.41-11.61-15.48-2.91-.48-4.77.18-7.74,0,.78,1.79,9.11,10.85,11.61,15.48-7.02,9.11-5.78,13.08,0,19.35,1.59,1.73,3.79,5.4,3.87,7.74.06,1.88.23,3.31.51,4.36v.02c.87,10.28,2.29,28.34,2.29,36.26,0,3.59-2.08,4.74-8.61,4.74-3.82,0-4.74,0-4.74-4.74,0-10.16-.21-24.38-2.05-30.72-1.01-3.48-5.25-6.47-7.56-7.86-.02-13.47-.04-26.79-.06-35.62v-1.26c0-14.25-2.91-14.3-25.62-14.64l-10.71-.03c-5.8,0-11.62,0-17.44.02-22.82.05-25.76.05-25.76,14.66v85.05c-.11,3.84-3.21,6.03-3.31,6.12l-1.34.88v1.61c0,11.74.79,13.63,11.67,13.77,1.07.02,2.28.03,3.72.06h58.05c13.25,0,14.61-1.36,14.61-14.61v-1.78l-1.56-.84s-2.31-1.36-2.31-4.77v-.26c.09-2.87.11-21.18.07-40.94.95.83,1.64,1.6,1.79,2.13,1.82,6.24,1.82,23.4,1.82,29.04,0,10.74,6.99,10.74,10.74,10.74s14.61,0,14.61-10.74c0-8.62-1.57-28.16-2.43-38.18.45-.73.9-1.56,1.37-2.46ZM88.12,118.51c-.57.57-4.37.57-8.04.57H22.11c-1.39-.03-2.62-.05-3.73-.06-2.37-.03-4.83-.06-5.3-.28-.38-.6-.42-3.15-.43-6.08,1.72-1.6,4.52-4.95,4.65-9.93V17.59c0-5.49.12-6.93,1.21-7.5,2.21-1.12,8.36-1.14,18.55-1.16,5.8-.02,11.61-.02,17.43-.02h8.66l1.96.03c10.17.16,16.3.25,18.51,1.38,1.08.55,1.2,1.97,1.2,7.26v1.27c.06,24.47.09,44.54.09,58.91s-.03,23.1-.09,24.86c-.15,4.53,1.95,7.65,3.87,9.36-.02,3.13-.08,6.03-.57,6.52Z" style="fill: #2ac1ec;"/>
  <polygon points="44.5 62.83 62.5 62.83 56.5 82.33 68.5 82.33 41.5 113.83 46 88.33 37 88.33 44.5 62.83" style="fill: #2ac1ec;"/>
</svg>