<?xml version="1.0" encoding="UTF-8"?>
<svg id="uuid-d755c71e-d7c3-4d75-8a40-14f0ce9ea680" data-name="look_paintable" xmlns="http://www.w3.org/2000/svg" viewBox="0 0 128 128">
  <path d="M55.53,8.18l-15.99,15.99-15.76-15.76c-1.44-1.43-3.76-1.43-5.2,0-1.43,1.44-1.43,3.76,0,5.2l15.76,15.76L5.7,58c-5,5-5,13.14,0,18.14l40.76,40.76c2.5,2.5,5.79,3.75,9.07,3.75s6.57-1.25,9.07-3.75l49.82-49.83L55.53,8.18ZM59.4,111.7c-2.13,2.13-5.6,2.13-7.73,0L10.9,70.94c-2.13-2.13-2.13-5.6,0-7.73l28.64-28.62,22.43,22.43c.72.72,1.66,1.07,2.6,1.07s1.88-.35,2.6-1.07c1.43-1.44,1.43-3.76,0-5.2l-22.43-22.43,10.79-10.8,48.5,48.5-44.63,44.63Z" style="fill: #2ac1ec; stroke-width: 0px;"/>
  <path d="M115.2,79.73s-10.56,18.43-10.85,25.31c-.12,2.86,1.74,8.69,3.62,10.85,1.32,1.53,5.21,3.62,7.23,3.62s5.91-2.09,7.23-3.62c1.87-2.16,3.74-7.99,3.62-10.85-.29-6.88-10.85-25.31-10.85-25.31Z" style="fill: #2ac1ec; stroke-width: 0px;"/>
</svg>