<?xml version="1.0" encoding="UTF-8"?>
<svg id="look_engine" xmlns="http://www.w3.org/2000/svg" viewBox="0 0 128 128">
  <path d="M44.93,64.17c.87.32,2.16-.39,4.13-2.77.75.27,1.33.89,1.59,2.2.49,2.5-.28,4.1-1.36,6.3-1.17,2.4-2.39,4.67-1.87,7.8-2.14.26-4.11.2-5.9-.24-1.02-.09-1.86-.03-2.48.22-.63.24-1.04.67-1.19,1.32-.36,2.43-1.31,3.97-2.29,5.47-.05,1.23-.02,2.43.46,3.43l.27.7.12,1.58c.17,2.11.92,3.88,2.63,1.02.18-1.09.01-2.19-.49-3.28l-.79-.36c.05-1.54.2-3.03.7-4.34.39-1.28,1.1-2.2,2.17-2.72l1.1-.12-.64,1.65c-.15,1.74-.37,3.33-.98,4.16-.34,1.22-.19,1.98.46,2.29.5.2.95,1.11,1.37,2.9.45,1.02,1.01,1.58,1.68,1.68.7-.18.83-1.57.55-3.79-.54-.66-1.08-.92-1.62-.98.1-1.18.05-2.32-.16-3.43.1-1.37.5-2.66,1.74-3.73.48,1.3,2.53,1.86,5.14,2.17l1.71-1.77c4.53,4.3,9.81,6.77,14.91,4.89.37.26.52,1.31.65,3.11,1.04,1.5,2.03,4.24,3.02,6.21.73,1.51.58,2.76-.12,3.85-1.58.67-3.08,1.69-4.02,2.79-1.52.07-2.67.14-3.63.63-.65.51-1.05,1.16-1.13,1.95l.79.31-.89,1.22c.32,1.06,1.35,1.35,3.38,1.26l1.18-2.03,2.26-.64c.83-1.65,2.16-3.24,4.98-4.67,1.89.1,2.89-.91,2.78-3.3-.95-2.17-1.3-4.24-.43-6.14,4-2.46,6.47-6.23,6.17-10.45,6.38-1.67-3.31,14.71,14.98,11.11,1.06-.21,2.16-.59,3.33-1.03-2.36-.4-9.16-2.09-10.36-4.95-3.06-4.34-6.27-7.51-9.68-9.02-2.32-2.94-6.4-4.08-11.43-4.25-1.5-.13-2.82-.53-3.85-1.34,1.04-7.36-6-10.98-.85-8.71-2.19-5.34-9.01-7.08-4.2-6.52-2.47-2.26-5.59-3.51-10.02-2.72-.94-1.37-3.2-4.31-2.51-.79l-1.13-1.01-.06,3.54c-1.34,1.03-2.08,4.44-3.12,6.66-.89.88-1.23,1.94-.95,3.58,1.39,1.79,3.58,1.35,3.89-.91h0Z" style="fill: #2ac1ec; fill-rule: evenodd; stroke-width: 0px;"/>
  <path d="M111.28,62.84v16.86h-4.94v-15.47h-10.36v-17.27h-13.82v-13.82h-12.92v-4.43h15.21v-15.51h-51.28v15.92h16.86v4.02h-14.97v13.82l-13.69-.06v20.78h-5.06v-15.21H.8v51.3h15.92v-16.86h4.65v17.09l3.05-.24c5.27-.42,10.91-.28,12.06.28.99.66,3.69,4.96,5.8,9.18l.78,1.57h63.29v-15.88h5.34v15.23h15.51v-51.3h-15.92ZM21.38,81.27h-10.29v16.86h-4.64v-40.02h4.23v15.21h10.7v7.94ZM38.82,23.49v-4.64h40v4.23h-15.21v10.07h-7.92v-9.66h-16.86ZM100.7,109.15h-54.17c-1.75-3.34-4.79-8.6-7.26-10-2.43-1.37-8.15-1.4-12.25-1.2v-45.37l13.69.04v-13.83h35.81v13.82h13.82v17.27h10.36v39.27ZM121.56,108.5h-4.23v-15.23h-10.98v-7.92h10.57v-16.86h4.64v40.02Z" style="fill: #2ac1ec; stroke-width: 0px;"/>
</svg>