<?xml version="1.0" encoding="UTF-8"?>
<svg id="look_prod_cycle" xmlns="http://www.w3.org/2000/svg" viewBox="0 0 128 128">
  <path d="M125.31,108.4l-1.7.62c-.77.28-1.62-.12-1.9-.88l-6.2-17.05c-2.72,5.26-6.24,10.05-10.48,14.29-5.35,5.35-11.56,9.54-18.49,12.47-7.18,3.04-14.8,4.58-22.65,4.58s-15.48-1.54-22.65-4.58c-6.93-2.93-13.15-7.12-18.49-12.47-5.31-5.31-9.49-11.49-12.42-18.37-.59-1.39-.05-3.08,1.31-3.74,1.45-.7,3.18-.04,3.8,1.43,2.64,6.26,6.44,11.89,11.27,16.71,4.83,4.84,10.45,8.62,16.71,11.27,6.48,2.75,13.36,4.13,20.47,4.13s13.99-1.38,20.47-4.13c6.26-2.65,11.89-6.44,16.71-11.27,3.62-3.61,6.66-7.66,9.07-12.11l-15.98,7.16c-.75.33-1.62,0-1.96-.75l-.74-1.64c-.33-.75,0-1.62.75-1.96l24.72-11.08,9.27,25.46c.28.77-.12,1.62-.88,1.9Z" style="fill: #2ac1ec; stroke-width: 0px;"/>
  <path d="M117.4,44.03c-.54.96-1.55,1.44-2.48,1.44-1.09,0-2.12-.63-2.58-1.71-2.64-6.26-6.44-11.89-11.27-16.71-4.83-4.84-10.45-8.62-16.71-11.27-6.48-2.75-13.36-4.13-20.47-4.13s-13.99,1.38-20.47,4.13c-6.26,2.65-11.89,6.44-16.71,11.27-3.62,3.61-6.66,7.66-9.07,12.11l16.03-7.18c.72-.32,1.57,0,1.9.72l.77,1.73c.32.72,0,1.57-.72,1.89l-24.77,11.1L1.56,21.92c-.27-.74.11-1.57.86-1.84l1.79-.65c.74-.27,1.57.11,1.84.86l6.22,17.09c2.72-5.26,6.24-10.05,10.48-14.29,5.35-5.35,11.56-9.54,18.49-12.47,7.18-3.04,14.8-4.58,22.65-4.58s15.48,1.54,22.65,4.58c6.93,2.93,13.15,7.12,18.49,12.47,5.33,5.33,9.51,11.53,12.44,18.43.34.81.36,1.75-.07,2.51Z" style="fill: #2ac1ec; stroke-width: 0px;"/>
</svg>