<?xml version="1.0" encoding="UTF-8"?>
<svg id="look_lights" xmlns="http://www.w3.org/2000/svg" viewBox="0 0 128 128">
  <path d="M101.7,25.17c-5.37-10.16-15.1-23.67-37.47-23.83h-.43c-24.48,0-32.68,15.48-37.09,23.83-2.76,5.23-4.02,16.93-1.48,22.65,2.95,6.62,6.78,11.55,9.85,15.5,3.12,4,5.58,7.16,5.58,10.06v16.67h47.09v-16.67c0-2.28,2.4-5.02,5.19-8.22,3.86-4.44,8.68-9.96,10.46-18,1.2-5.38,1.13-16.63-1.7-21.98ZM96.67,45.66c-1.39,6.31-5.4,10.9-8.93,14.96-3.53,4.06-6.89,7.89-6.89,12.75v9.77h-13.5l-.39-21c-.03-1.52-1.28-2.69-2.8-2.7-1.53.03-2.75,1.28-2.72,2.82l.37,20.89h-14.26v-9.77c0-5.27-3.26-9.45-7.02-14.3-2.99-3.85-6.39-8.21-9-14.06-1.59-3.59-.58-13.11,1.27-16.62,5.45-10.28,12.38-20.35,31.38-20.16,18.46.14,26.48,10.85,31.41,20.16,1.75,3.3,2.08,12.67,1.06,17.26Z" style="fill: #2ac1ec; stroke-width: 0px;"/>
  <path d="M75.28,40.55h-21.11c-1.52,0-2.76-1.24-2.76-2.76s1.24-2.76,2.76-2.76h21.11c1.52,0,2.76,1.24,2.76,2.76s-1.24,2.76-2.76,2.76Z" style="fill: #2ac1ec; stroke-width: 0px;"/>
  <path d="M75.28,52.04h-21.11c-1.52,0-2.76-1.24-2.76-2.76s1.24-2.76,2.76-2.76h21.11c1.52,0,2.76,1.24,2.76,2.76s-1.24,2.76-2.76,2.76Z" style="fill: #2ac1ec; stroke-width: 0px;"/>
  <path d="M85.16,113.86c1.57.79,2.65,2.43,2.65,4.31,0,2.66-2.15,4.83-4.83,4.83h-7.99c.11.29.17.59.17.91,0,1.52-1.24,2.76-2.76,2.76h-15.35c-1.52,0-2.76-1.24-2.76-2.76,0-.32.06-.62.17-.91h-7.99c-2.66,0-4.83-2.17-4.83-4.83,0-1.88,1.08-3.51,2.65-4.31-1.57-.8-2.65-2.43-2.65-4.31s1.08-3.51,2.65-4.31c-1.57-.8-2.65-2.43-2.65-4.31,0-2.66,2.17-4.83,4.83-4.83h36.51c2.68,0,4.83,2.17,4.83,4.83,0,1.88-1.08,3.52-2.65,4.31,1.57.79,2.65,2.43,2.65,4.31s-1.08,3.52-2.65,4.31Z" style="fill: #2ac1ec; stroke-width: 0px;"/>
</svg>