<?xml version="1.0" encoding="UTF-8"?>
<svg id="uuid-d9218a5b-71e7-4050-b65e-2813a024c09f" data-name="look_transmission" xmlns="http://www.w3.org/2000/svg" viewBox="0 0 128 128">
  <path d="M64,126.22C29.69,126.22,1.78,98.31,1.78,64S29.69,1.78,64,1.78s62.22,27.91,62.22,62.22-27.91,62.22-62.22,62.22ZM64,9.23c-30.2,0-54.77,24.57-54.77,54.77s24.57,54.77,54.77,54.77,54.77-24.57,54.77-54.77S94.2,9.23,64,9.23Z" style="fill: #2ac1ec;"/>
  <path d="M95.26,33.2c0,1.65-.72,3.14-1.88,4.17v30.35h-25.66v23.8c1.16,1.01,1.88,2.5,1.88,4.17,0,3.1-2.5,5.6-5.6,5.6s-5.6-2.5-5.6-5.6c0-1.67.72-3.16,1.88-4.17v-23.8h-18.21v23.8c1.16,1.01,1.88,2.5,1.88,4.17,0,3.1-2.5,5.6-5.6,5.6s-5.6-2.5-5.6-5.6c0-1.67.72-3.16,1.88-4.17v-53.74c-1.16-1.01-1.88-2.5-1.88-4.17,0-3.08,2.5-5.6,5.6-5.6s5.6,2.52,5.6,5.6c0,1.67-.72,3.16-1.88,4.17v22.5h18.21v-22.5c-1.16-1.01-1.88-2.5-1.88-4.17,0-3.08,2.5-5.6,5.6-5.6s5.6,2.52,5.6,5.6c0,1.67-.72,3.16-1.88,4.17v22.5h18.21v-22.9c-1.16-1.03-1.88-2.52-1.88-4.17,0-3.1,2.5-5.6,5.6-5.6s5.6,2.5,5.6,5.6Z" style="fill: #2ac1ec;"/>
</svg>