<?xml version="1.0" encoding="UTF-8"?>
<svg id="uuid-3b3fe6a6-03a4-47e2-9556-60b08013452a" data-name="look_methane" xmlns="http://www.w3.org/2000/svg" viewBox="0 0 128 128">
  <path d="M32.36,51.2c-4.87-5.91-5.37-25.19,0-30.65,6.57-6.68,30.84-6.62,37.46,0,5.42,5.42,5.96,25.83,0,30.65-7.28,5.89-31.51,7.23-37.46,0ZM64.6,45.55c3.42-3.42,3.76-16.31,0-19.35-5.27-4.26-22.3-4.79-27.09,0-3.42,3.42-3.04,15.59,0,19.35,4.26,5.27,22.3,4.79,27.09,0Z" style="fill: #2ac1ec;"/>
  <path d="M118.78,52.42c5.77-11.23.66-19.88-3.87-27.09,0,0-11.11-15.41-11.61-15.48-2.91-.48-4.77.18-7.74,0,.78,1.79,9.11,10.85,11.61,15.48-7.02,9.11-5.78,13.08,0,19.35,1.59,1.73,3.79,5.4,3.87,7.74.06,1.88.24,3.33.51,4.38.87,10.28,2.29,28.34,2.29,36.26,0,3.59-2.08,4.74-8.61,4.74-3.82,0-4.74,0-4.74-4.74,0-10.16-.21-24.38-2.05-30.72-1.01-3.48-5.25-6.47-7.56-7.86-.02-13.47-.04-26.79-.06-35.62v-1.26c0-14.25-2.91-14.3-25.62-14.64l-10.71-.03c-5.82,0-11.64,0-17.44.02-22.82.05-25.76.05-25.76,14.66v85.05c-.11,3.84-3.21,6.03-3.31,6.12l-1.34.88v1.61c0,11.74.79,13.63,11.67,13.77,1.08.02,2.28.03,3.72.06h58.05c13.25,0,14.61-1.36,14.61-14.61l-.05-1.73-1.47-.88c-.25-.15-2.36-1.5-2.36-4.77v-.27c.09-2.87.11-21.18.07-40.94.95.83,1.64,1.6,1.79,2.13,1.82,6.24,1.82,23.4,1.82,29.04,0,10.74,6.99,10.74,10.74,10.74s14.61,0,14.61-10.74c0-8.62-1.57-28.16-2.43-38.18.45-.73.9-1.56,1.37-2.46ZM88.12,118.51c-.57.57-4.37.57-8.04.57H22.11c-1.38-.03-2.62-.05-3.73-.06-2.37-.03-4.83-.06-5.3-.28-.38-.6-.42-3.15-.43-6.08,1.72-1.6,4.52-4.95,4.65-9.93V17.59c0-5.49.12-6.93,1.21-7.5,2.21-1.12,8.36-1.14,18.55-1.16,5.8-.02,11.61-.02,17.43-.02h8.66l1.96.03c10.17.16,16.3.25,18.51,1.38,1.08.55,1.2,1.97,1.2,7.26v1.27c.06,24.47.09,44.54.09,58.91s-.03,23.1-.09,24.86c-.15,4.53,1.95,7.65,3.87,9.36-.02,3.13-.08,6.03-.57,6.52Z" style="fill: #2ac1ec;"/>
  <g>
    <path d="M42.27,85h-6.72v-8.09c0-2.35-.07-3.82-.22-4.4s-.46-.88-.95-.88c-.55,0-.91.36-1.05,1.06-.15.71-.22,2.24-.22,4.6v21.61c0,2.26.07,3.74.22,4.43.15.69.48,1.03,1,1.03s.83-.35.98-1.04c.15-.69.23-2.31.23-4.87v-5.85h6.72v1.81c0,4.82-.19,8.23-.57,10.25-.38,2.01-1.21,3.78-2.5,5.3-1.29,1.51-2.88,2.27-4.78,2.27s-3.59-.64-4.86-1.92c-1.28-1.29-2.12-3.06-2.54-5.33-.41-2.27-.62-5.68-.62-10.24v-13.6c0-3.35.06-5.87.19-7.54.13-1.68.51-3.29,1.14-4.84.63-1.55,1.51-2.77,2.63-3.66,1.12-.89,2.41-1.34,3.87-1.34,1.98,0,3.61.69,4.9,2.07,1.29,1.38,2.13,3.1,2.54,5.15.4,2.06.61,5.26.61,9.6v4.42Z" style="fill: #2ac1ec;"/>
    <path d="M60.12,64.73v46.53h-6.72v-19.54h-2.01v19.54h-6.72v-46.53h6.72v16.64h2.01v-16.64h6.72Z" style="fill: #2ac1ec;"/>
    <path d="M75.77,64.73v30.41h1.84v7.93h-1.84v8.19h-6.45v-8.19h-7.66v-7.93l5.57-30.41h8.53ZM69.33,95.14v-19.8l-2.85,19.8h2.85Z" style="fill: #2ac1ec;"/>
  </g>
</svg>