<?xml version="1.0" encoding="UTF-8"?>
<svg id="uuid-d08af75e-da77-43cd-98da-f52eb5c00c3a" data-name="look_objects" xmlns="http://www.w3.org/2000/svg" viewBox="0 0 128 128">
  <path d="M125.06,82.39l-6.75-1.22v-18.97l6.72-1.02c1.53-.24,2.58-1.67,2.34-3.19-.22-1.53-1.67-2.58-3.18-2.35l-5.88.9v-18.44c0-3.58-2.91-6.51-6.51-6.51h-4.38l3.08-5.14c.8-1.33.36-3.05-.97-3.84-1.33-.8-3.04-.38-3.84.95l-4.82,8.02H31.28l-5.4-7.84c-.88-1.27-2.63-1.58-3.91-.71-1.26.88-1.58,2.63-.71,3.91l3.21,4.65h-10.81c-3.58,0-6.51,2.93-6.51,6.51v13.43l-2.6-1.18c-1.4-.63-3.07,0-3.7,1.41-.63,1.4-.01,3.07,1.4,3.7l4.9,2.21v3.93l-2.6-1.18c-1.4-.63-3.07,0-3.7,1.41-.63,1.4-.01,3.07,1.4,3.7l4.9,2.21v31.53c0,3.58,2.93,6.51,6.51,6.51h98.14c3.6,0,6.51-2.93,6.51-6.51v-12.42l5.75,1.04c.17.03.34.04.5.04,1.33,0,2.51-.94,2.74-2.3.28-1.53-.73-2.98-2.25-3.25ZM38.93,98.79H14.15v-27.89l5.96,2.69c.38.15.77.24,1.15.24,1.08,0,2.09-.62,2.56-1.65.63-1.41,0-3.07-1.41-3.7l-8.26-3.72v-3.93l5.96,2.69c.38.15.77.24,1.15.24,1.08,0,2.09-.62,2.56-1.65.63-1.41,0-3.07-1.41-3.7l-8.26-3.72v-16.09h15.16l3.08,4.47c.55.8,1.41,1.22,2.31,1.22.55,0,1.11-.17,1.58-.49,1.27-.88,1.6-2.63.71-3.91l-.88-1.29h2.81v60.2ZM82.5,98.79h-36.57v-60.2h36.57v60.2ZM111.31,57.6l-6.5.98c-1.53.24-2.58,1.67-2.35,3.19.21,1.39,1.41,2.38,2.77,2.38.14,0,.28-.01.42-.03l5.66-.85v16.63l-5.53-.99c-1.53-.28-2.98.74-3.25,2.25-.28,1.53.73,2.98,2.25,3.26l6.52,1.18v13.19h-21.81v-60.2h7.18l-1.06,1.78c-.8,1.33-.36,3.05.95,3.85.46.27.95.39,1.44.39.95,0,1.88-.49,2.41-1.36l2.8-4.66h8.09v19.01Z" style="fill: #2ac1ec; stroke-width: 0px;"/>
</svg>