<?xml version="1.0" encoding="UTF-8"?>
<svg id="uuid-b6eb2b8e-239c-4bbe-a179-3b1d1f37c0d4" data-name="look_info" xmlns="http://www.w3.org/2000/svg" viewBox="0 0 128 128">
  <path d="M64,125.45c-33.89,0-61.45-27.57-61.45-61.45S30.11,2.55,64,2.55s61.45,27.57,61.45,61.45-27.57,61.45-61.45,61.45ZM64,12.72c-28.28,0-51.28,23.01-51.28,51.28s23.01,51.28,51.28,51.28,51.28-23.01,51.28-51.28S92.28,12.72,64,12.72Z" style="fill: #2ac1ec; stroke-width: 0px;"/>
  <path d="M64,102.55c-4.06,0-7.34-3.29-7.34-7.35v-37.22c0-4.06,3.29-7.35,7.34-7.35s7.34,3.29,7.34,7.35v37.22c0,4.06-3.29,7.35-7.34,7.35Z" style="fill: #2ac1ec; stroke-width: 0px;"/>
  <path d="M64,44.55c-4.06,0-7.34-2.76-7.34-6.17v-3.13c0-3.41,3.29-6.17,7.34-6.17s7.34,2.76,7.34,6.17v3.13c0,3.41-3.29,6.17-7.34,6.17Z" style="fill: #2ac1ec; stroke-width: 0px;"/>
</svg>