<?xml version="1.0" encoding="UTF-8"?>
<svg id="uuid-560d2f4b-2957-4dbd-a6cb-42a25f359676" data-name="look_beacons" xmlns="http://www.w3.org/2000/svg" viewBox="0 0 128 128">
  <path d="M46.52,44.87c10.58-.42,22.13.06,33.44.14,1.82.01,3.4,1.22,3.84,2.99,4.04,16.13,8.3,33.9,12.21,51.02.57,2.5-1.33,4.87-3.9,4.87h-56.26c-2.46,0-4.37-2.21-3.96-4.63,2.95-17.38,7.61-35.02,10.92-51.2.37-1.79,1.87-3.11,3.7-3.18ZM44.18,95.35h2.44c1.62,0,3.02-1.12,3.39-2.69l7.97-34.54c.5-2.18-1.15-4.26-3.39-4.26h-2.44c-1.62,0-3.02,1.12-3.39,2.69l-7.97,34.54c-.5,2.18,1.15,4.26,3.39,4.26Z" style="fill: #2ac1ec; stroke-width: 0px;"/>
  <line x1="65.34" y1="36.13" x2="65.34" y2="9.47" style="fill: #2ac1ec; stroke: #2ac1ec; stroke-linecap: round; stroke-miterlimit: 10; stroke-width: 4px;"/>
  <line x1="125.31" y1="73.86" x2="109.46" y2="73.86" style="fill: #2ac1ec; stroke: #2ac1ec; stroke-linecap: round; stroke-miterlimit: 10; stroke-width: 4px;"/>
  <line x1="18.04" y1="73.86" x2="2.69" y2="73.86" style="fill: #2ac1ec; stroke: #2ac1ec; stroke-linecap: round; stroke-miterlimit: 10; stroke-width: 4px;"/>
  <line x1="30.09" y1="41.8" x2="14.09" y2="25.8" style="fill: #2ac1ec; stroke: #2ac1ec; stroke-linecap: round; stroke-miterlimit: 10; stroke-width: 4px;"/>
  <line x1="113.41" y1="25.8" x2="97.41" y2="41.8" style="fill: #2ac1ec; stroke: #2ac1ec; stroke-linecap: round; stroke-miterlimit: 10; stroke-width: 4px;"/>
  <line x1="22.19" y1="118.53" x2="105.93" y2="118.53" style="fill: #2ac1ec; stroke: #2ac1ec; stroke-miterlimit: 10; stroke-width: 9px;"/>
</svg>