<?xml version="1.0" encoding="UTF-8"?>
<svg id="look_key" xmlns="http://www.w3.org/2000/svg" viewBox="0 0 128 128">
  <path d="M28.91,90.95c-.19,0-.38,0-.58-.01-10.01-.31-20.17-6-25.29-14.14-3.21-5.12-2.38-16.67-.16-21.2,5.94-12.12,15.04-18.53,26.32-18.53h0c10.26,0,19.48,9.12,22.46,12.39h60.05c3.1-.39,4.19.11,4.56.27,3.6,1.61,8.77,8.94,10.27,11.15.74,1.08.71,2.51-.07,3.57-1.71,2.33-6.04,7.87-9.21,8.98-2.04.72-4.82.59-7.76.46-1.73-.08-3.52-.16-4.96-.05-2.62.19-4.27-2.03-5.72-4.01-.13-.18-.29-.4-.46-.62-.3.47-.61.99-.84,1.39-1.44,2.44-3.07,5.2-6.08,5.31-5.08.18-12.42.3-16.62.18-2.33-.07-3.81-1.91-5.17-3.87-.57,1.51-1.5,3.03-3.32,3.68-2.79.99-8.87.63-12.24.33-3.33,3.9-13.62,14.73-25.18,14.73ZM29.46,43.42h0c-8.79,0-15.71,5.02-20.56,14.93-1.69,3.45-1.78,12.45-.16,15.04,3.35,5.34,10.85,10.85,20.05,11.14.13,0,.26,0,.39,0,10.62,0,21.05-13.4,21.16-13.53.65-.85,1.7-1.29,2.76-1.18,3.89.43,8.8.61,10.63.27.17-.43.35-1.16.47-1.64.44-1.76,1.1-4.42,3.82-4.75,2.86-.34,4.59,2.16,6.12,4.37.36.53.92,1.34,1.3,1.77,3.94.09,10.36-.02,14.9-.17.42-.48,1.07-1.58,1.48-2.27,1.36-2.3,2.9-4.92,5.67-5.23,2.67-.31,4.34,1.95,5.81,3.95.31.42.78,1.06,1.12,1.45,1.56-.06,3.2.01,4.8.08,2,.09,4.48.2,5.39-.12.78-.35,2.89-2.54,4.88-5.01-2.39-3.29-4.95-6.22-6.12-6.97-.39,0-1.08.04-1.65.11-.13.02-.27.03-.4.03h-61.03c-.92,0-1.79-.41-2.37-1.12-.09-.11-9.28-11.15-18.48-11.15Z" style="fill: #2ac1ec; stroke-width: 0px;"/>
  <path d="M22,73.43c-5.49,0-9.95-4.23-9.95-9.43s4.47-9.43,9.95-9.43,9.95,4.23,9.95,9.43-4.47,9.43-9.95,9.43ZM22,60.75c-2.08,0-3.77,1.46-3.77,3.25s1.69,3.25,3.77,3.25,3.77-1.46,3.77-3.25-1.69-3.25-3.77-3.25Z" style="fill: #2ac1ec; stroke-width: 0px;"/>
</svg>