<?xml version="1.0" encoding="UTF-8"?>
<svg id="uuid-7141a43c-4d54-4205-b14f-f4a4cf0f87d3" data-name="look_width" xmlns="http://www.w3.org/2000/svg" viewBox="0 0 128 128">
  <path d="M5.69,105.84c-2.02,0-3.65-1.63-3.65-3.65V25.35c0-2.02,1.63-3.65,3.65-3.65s3.65,1.63,3.65,3.65v76.84c0,2.02-1.63,3.65-3.65,3.65Z" style="fill: #2ac1ec; stroke-width: 0px;"/>
  <path d="M122.97,105.84c-2.02,0-3.65-1.63-3.65-3.65V25.35c0-2.02,1.63-3.65,3.65-3.65s3.65,1.63,3.65,3.65v76.84c0,2.02-1.63,3.65-3.65,3.65Z" style="fill: #2ac1ec; stroke-width: 0px;"/>
  <polygon points="112.73 63.77 88.65 86.15 84.92 82.15 100.77 67.42 27.89 67.42 43.75 82.15 40.01 86.15 15.93 63.77 40.01 41.37 43.75 45.39 27.89 60.12 100.77 60.12 84.92 45.39 88.65 41.37 112.73 63.77" style="fill: #2ac1ec; stroke-width: 0px;"/>
</svg>