<?xml version="1.0" encoding="UTF-8"?>
<svg id="uuid-203532a0-683f-49af-b253-c1fd283cf893" data-name="ma_large" xmlns="http://www.w3.org/2000/svg" xmlns:xlink="http://www.w3.org/1999/xlink" viewBox="0 0 128 128">
  <defs>
    <linearGradient id="uuid-ad75c1da-7f1e-4032-8a17-5e619d54fec2" x1="65" y1="121.01" x2="63.01" y2="6.94" gradientUnits="userSpaceOnUse">
      <stop offset="0" stop-color="#27aae1"/>
      <stop offset=".12" stop-color="#2962ad"/>
      <stop offset=".19" stop-color="#2b3990"/>
      <stop offset=".48" stop-color="#2a3b91"/>
      <stop offset=".65" stop-color="#284498"/>
      <stop offset=".8" stop-color="#2452a2"/>
      <stop offset=".93" stop-color="#1f67b1"/>
      <stop offset="1" stop-color="#1c75bc"/>
    </linearGradient>
  </defs>
  <path d="M79.41,126.76c-.65,0-1.3-.02-1.95-.02-23.91,0-47.82,0-71.73,0-.37,0-.74.03-1.11.04-1.36-.24-2.69-.55-3.46-1.87-.52-.9-.8-1.86-.61-2.92,1.46-8.23,2.91-16.45,4.36-24.68,1.46-8.26,2.91-16.52,4.36-24.78,1.46-8.26,2.92-16.51,4.38-24.77,1.09-6.19,2.2-12.37,3.27-18.56.6-3.49,1.39-6.92,2.99-10.1,4.43-8.8,11.42-14.35,21.03-16.64,3.94-.94,7.92-1.34,11.97-1.34,23.21.03,46.43,0,69.64.04.99,0,2.05.22,2.95.61,1.57.68,2.21,2.7,1.96,4.26-.67,4.28-1.39,8.55-2.09,12.83-1.09,6.66-2.18,13.32-3.27,19.97-1.15,7.02-2.3,14.05-3.45,21.07-1.14,6.99-2.26,13.99-3.44,20.98-1.08,6.44-1.93,12.93-3.41,19.28-2.35,10.14-7.96,18.07-17.35,22.94-4.68,2.43-9.79,3.41-15.04,3.65Z" style="fill: #231f20; stroke-width: 0px;"/>
  <path d="M4.5,122.77c.24-1.42.46-2.72.69-4.02,1.15-6.54,2.3-13.09,3.45-19.63,1.02-5.75,2.04-11.5,3.06-17.25,1.08-6.12,2.17-12.23,3.24-18.35,1.15-6.51,2.29-13.03,3.43-19.54.92-5.23,1.71-10.49,2.77-15.7,2.11-10.31,7.97-17.54,18-21.12,4.12-1.47,8.42-1.94,12.78-1.94,23.56.01,47.11,0,70.67,0,.27,0,.54.02.91.04-.32,1.98-.62,3.89-.93,5.8-.78,4.76-1.56,9.51-2.34,14.27-.83,5.09-1.66,10.19-2.49,15.28-.84,5.12-1.69,10.24-2.53,15.37-.71,4.33-1.42,8.66-2.13,13-.97,5.92-1.91,11.84-2.91,17.76-.76,4.48-1.3,9.02-2.47,13.39-2.06,7.66-6.23,13.98-13.1,18.28-3.74,2.34-7.84,3.66-12.21,4.06-2.34.21-4.7.31-7.05.31-23.18.02-46.37.01-69.55.01-.4,0-.79,0-1.3,0Z" style="fill: #1c75bc; stroke-width: 0px;"/>
  <path d="M6.45,120.84c.24-1.37.45-2.63.67-3.89,1.11-6.33,2.22-12.66,3.34-18.99.98-5.56,1.98-11.12,2.96-16.69,1.05-5.92,2.09-11.83,3.14-17.75,1.11-6.3,2.21-12.6,3.32-18.9.89-5.06,1.65-10.15,2.68-15.18,2.04-9.98,7.71-16.96,17.41-20.43,3.99-1.43,8.14-1.88,12.36-1.88,22.78.01,45.56,0,68.35,0,.26,0,.53.02.88.04-.31,1.91-.6,3.76-.9,5.61-.75,4.6-1.51,9.2-2.26,13.8-.81,4.93-1.6,9.85-2.41,14.78-.81,4.95-1.63,9.91-2.44,14.86-.69,4.19-1.37,8.38-2.06,12.57-.94,5.73-1.85,11.45-2.82,17.17-.74,4.33-1.26,8.72-2.39,12.95-1.99,7.41-6.03,13.53-12.67,17.68-3.61,2.26-7.58,3.54-11.81,3.92-2.26.21-4.54.3-6.82.3-22.42.02-44.85.01-67.27.01-.38,0-.77,0-1.26,0Z" style="fill: url(#uuid-ad75c1da-7f1e-4032-8a17-5e619d54fec2); stroke-width: 0px;"/>
  <g>
    <path d="M54.97,13.54h9.33l-.75,4.24h-3.82l-.71,4.02h3.4l-.71,4.03h-3.4l-1.57,8.9h-5.51l3.74-21.18Z" style="fill: #fff; stroke-width: 0px;"/>
    <path d="M76.17,19.95h-5.12l.28-1.57c.13-.73.15-1.2.05-1.4-.1-.2-.3-.3-.6-.3-.33,0-.61.13-.82.41-.22.27-.38.68-.47,1.23-.12.71-.12,1.24,0,1.6.12.36.56.79,1.33,1.3,2.2,1.46,3.53,2.65,4,3.58.47.93.53,2.44.16,4.51-.27,1.51-.64,2.62-1.12,3.34-.48.72-1.27,1.32-2.37,1.8-1.1.48-2.32.73-3.66.73-1.47,0-2.68-.28-3.63-.84-.94-.56-1.5-1.27-1.67-2.13-.17-.86-.12-2.09.16-3.68l.24-1.39h5.12l-.45,2.58c-.14.79-.16,1.3-.05,1.53.1.23.34.34.71.34s.66-.14.89-.43c.23-.29.39-.72.5-1.28.22-1.25.19-2.06-.08-2.45-.28-.38-1.03-1.03-2.24-1.92-1.21-.91-2-1.57-2.37-1.98-.37-.41-.64-.98-.81-1.7-.17-.72-.15-1.65.05-2.77.29-1.62.7-2.81,1.25-3.56.55-.75,1.32-1.34,2.32-1.76s2.15-.63,3.46-.63c1.43,0,2.61.23,3.54.69.93.46,1.49,1.05,1.69,1.75s.16,1.9-.14,3.58l-.15.84Z" style="fill: #fff; stroke-width: 0px;"/>
    <path d="M90.75,21.34h-5.51l.34-1.92c.21-1.21.3-1.97.24-2.28-.05-.31-.27-.46-.66-.46-.34,0-.59.13-.76.39-.17.26-.35.93-.54,2.01l-1.79,10.17c-.17.95-.22,1.58-.15,1.88.07.3.29.45.65.45.4,0,.7-.17.91-.51.21-.34.39-1,.57-1.99l.44-2.51h-1.11l.57-3.22h6.45l-2,11.37h-3.46l-.24-1.52c-.49.65-1.05,1.14-1.68,1.47-.63.33-1.33.49-2.11.49-.93,0-1.75-.22-2.48-.67-.73-.45-1.24-1-1.55-1.67-.3-.66-.44-1.36-.42-2.09.02-.73.16-1.82.42-3.28l1.11-6.29c.36-2.02.72-3.49,1.1-4.41.38-.92,1.15-1.75,2.32-2.52,1.17-.76,2.57-1.15,4.21-1.15s2.89.33,3.84.99c.95.66,1.5,1.45,1.66,2.36.16.91.09,2.24-.22,3.97l-.16.92Z" style="fill: #fff; stroke-width: 0px;"/>
  </g>
  <g>
    <path d="M70.66,43.83l-10.33,58.56h-13.31l6.95-39.53-12.27,39.53h-9.44l1.22-38.63-6.83,38.63h-13.31l10.33-58.56h19.7c-.04,3.52-.17,7.67-.39,12.45l-.46,14.89,8.32-27.34h19.81Z" style="fill: #fff; stroke-width: 0px;"/>
    <path d="M103.1,43.83l-1.62,58.56h-15.56l1.04-10.53h-5.45l-2.77,10.53h-15.74l18.09-58.56h22.01ZM88.39,81.48c.4-6.63,1.07-14.83,2.02-24.59-3.53,11.21-5.95,19.41-7.26,24.59h5.24Z" style="fill: #fff; stroke-width: 0px;"/>
  </g>
</svg>