<?xml version="1.0" encoding="UTF-8"?>
<svg id="uuid-c40503ed-5288-403c-9bc8-9c5b3751ffbf" data-name="ma_small" xmlns="http://www.w3.org/2000/svg" xmlns:xlink="http://www.w3.org/1999/xlink" viewBox="0 0 128 128">
  <defs>
    <linearGradient id="uuid-cfc8a69e-e3eb-42b0-872e-25dcfd18f85d" x1="65.01" y1="121.66" x2="63" y2="6.38" gradientUnits="userSpaceOnUse">
      <stop offset="0" stop-color="#27aae1"/>
      <stop offset=".12" stop-color="#2962ad"/>
      <stop offset=".19" stop-color="#2b3990"/>
      <stop offset=".48" stop-color="#2a3b91"/>
      <stop offset=".65" stop-color="#284498"/>
      <stop offset=".8" stop-color="#2452a2"/>
      <stop offset=".93" stop-color="#1f67b1"/>
      <stop offset="1" stop-color="#1c75bc"/>
    </linearGradient>
  </defs>
  <path d="M79.27,126.23c-.64,0-1.29-.02-1.93-.02-23.69,0-47.39,0-71.08,0-.37,0-.73.03-1.1.04-1.35-.24-2.67-.55-3.43-1.85-.52-.89-.79-1.84-.6-2.89,1.44-8.15,2.88-16.3,4.32-24.46,1.44-8.18,2.88-16.37,4.32-24.55,1.44-8.18,2.89-16.36,4.34-24.55,1.08-6.13,2.18-12.26,3.24-18.39.6-3.46,1.38-6.86,2.97-10.01,4.39-8.72,11.32-14.22,20.84-16.49,3.91-.93,7.85-1.33,11.86-1.32,23,.03,46,0,69,.04.98,0,2.03.21,2.92.6,1.55.67,2.19,2.67,1.94,4.22-.66,4.24-1.38,8.47-2.07,12.71-1.08,6.6-2.16,13.19-3.24,19.79-1.14,6.96-2.28,13.92-3.42,20.88-1.13,6.93-2.24,13.86-3.41,20.79-1.07,6.38-1.91,12.81-3.37,19.1-2.33,10.04-7.88,17.9-17.19,22.73-4.64,2.41-9.7,3.38-14.91,3.62Z" style="fill: #231f20;"/>
  <path d="M5.84,121.49c.24-1.39.45-2.66.68-3.93,1.12-6.4,2.25-12.79,3.38-19.19.99-5.62,2-11.24,2.99-16.86,1.06-5.98,2.12-11.96,3.17-17.94,1.12-6.37,2.24-12.73,3.35-19.1.9-5.12,1.67-10.26,2.71-15.35,2.06-10.08,7.79-17.14,17.6-20.65,4.03-1.44,8.23-1.9,12.49-1.9,23.03.01,46.05,0,69.08,0,.27,0,.53.02.89.04-.31,1.93-.61,3.8-.91,5.67-.76,4.65-1.52,9.3-2.28,13.95-.81,4.98-1.62,9.96-2.44,14.94-.82,5.01-1.65,10.01-2.47,15.02-.69,4.23-1.39,8.47-2.08,12.7-.95,5.79-1.87,11.58-2.85,17.36-.74,4.38-1.27,8.82-2.42,13.09-2.01,7.49-6.09,13.67-12.8,17.86-3.65,2.28-7.66,3.58-11.94,3.96-2.29.21-4.59.3-6.89.31-22.66.02-45.32.01-67.99.01-.39,0-.77,0-1.27,0Z" style="fill: url(#uuid-cfc8a69e-e3eb-42b0-872e-25dcfd18f85d);"/>
  <g>
    <path d="M74.47,28.39l-14.09,73.69h-13.19l9.5-49.75-14.76,49.75h-9.35l3.76-48.61-9.32,48.61h-13.19L27.92,28.39h19.52c-.27,4.43-.67,9.65-1.21,15.67l-1.44,18.74,10.05-34.41h19.63Z" style="fill: #fff;"/>
    <path d="M106.61,28.39l-5.46,73.69h-15.42l1.72-13.24h-5.4l-3.44,13.24h-15.6l21.79-73.69h21.81ZM89.55,75.77c.83-8.35,2.04-18.66,3.62-30.95-4.24,14.11-7.17,24.43-8.81,30.95h5.19Z" style="fill: #fff;"/>
  </g>
</svg>