<?xml version="1.0" encoding="UTF-8"?>
<svg id="season_winter" xmlns="http://www.w3.org/2000/svg" viewBox="0 0 128 128">
  <path d="M125.49,76.14c2.31,1.92-.77,5.53-3.02,3.53,0,0-15.86-13.55-15.86-13.55h-36.77l25.99,25.99,20.99,1.81c3.03.22,2.59,4.92-.4,4.63,0,0-15.47-1.33-15.47-1.33,1.03,1.97,10.51,7.82,7.35,10.63-2.78,3.2-8.76-6.41-10.7-7.41l1.21,15.38c.29,3.01-4.44,3.37-4.63.37,0,0-1.64-20.82-1.64-20.82l-25.98-25.98v36.77l13.56,16.12c.82.98.7,2.45-.28,3.27-1,.84-2.44.71-3.29-.28,0,0-10-11.89-10-11.89-.6,2.12,1.8,13-2.32,12.73-4.12.3-1.73-10.72-2.33-12.8l-10.01,11.73c-1.93,2.31-5.52-.77-3.53-3.02,0,0,13.55-15.86,13.55-15.86v-36.77l-25.99,25.99-1.81,20.99c-.23,3.01-4.94,2.61-4.63-.4,0,0,1.33-15.47,1.33-15.47-1.97,1.02-7.83,10.52-10.63,7.35-3.18-2.79,6.41-8.75,7.41-10.7l-15.38,1.21c-3,.29-3.37-4.43-.37-4.63,0,0,20.82-1.64,20.82-1.64l25.98-25.98H21.86l-15.86,13.55c-2.25,1.99-5.34-1.61-3.02-3.53,0,0,11.73-10.01,11.73-10.01-2.12-.6-13.08,1.81-12.8-2.32-.3-4.12,10.65-1.73,12.73-2.33l-11.89-10c-2.33-1.91.7-5.54,2.99-3.56,0,0,16.12,13.56,16.12,13.56h36.77l-25.98-25.98-20.82-1.64c-2.98-.2-2.65-4.93.37-4.63,0,0,15.38,1.21,15.38,1.21-1.02-1.98-10.58-7.88-7.41-10.69,2.79-3.18,8.7,6.34,10.63,7.35l-1.33-15.47c-.3-3,4.43-3.43,4.63-.4,0,0,1.81,20.99,1.81,20.99l25.99,25.99V21.42l-13.55-15.86c-1.99-2.25,1.61-5.34,3.53-3.02,0,0,10.01,11.73,10.01,11.73.6-2.12-1.81-13.08,2.32-12.8,4.12-.3,1.73,10.65,2.33,12.73l10-11.89c1.91-2.33,5.54.7,3.56,2.99,0,0-13.56,16.12-13.56,16.12v36.77l25.98-25.98,1.64-20.82c.2-2.98,4.93-2.65,4.63.37,0,0-1.21,15.38-1.21,15.38,1.98-1.02,7.88-10.58,10.69-7.41,3.18,2.79-6.34,8.7-7.35,10.63l15.47-1.33c3.01-.3,3.43,4.42.4,4.63,0,0-20.99,1.81-20.99,1.81l-25.99,25.99h36.77l16.12-13.56c2.28-1.97,5.33,1.65,2.99,3.57,0,0-11.89,10-11.89,10,2.12.6,13-1.8,12.73,2.32.3,4.12-10.72,1.73-12.8,2.33l11.73,10.01Z" style="fill: #2ac1ec; stroke-width: 0px;"/>
</svg>