<?xml version="1.0" encoding="UTF-8"?>
<svg id="season_summer" xmlns="http://www.w3.org/2000/svg" viewBox="0 0 128 128">
  <path d="M64.45,95.35c-17.33,0-31.43-14.1-31.43-31.43s14.1-31.43,31.43-31.43,31.43,14.1,31.43,31.43-14.1,31.43-31.43,31.43ZM64.45,36.65c-15.03,0-27.26,12.23-27.26,27.26s12.23,27.26,27.26,27.26,27.26-12.23,27.26-27.26-12.23-27.26-27.26-27.26Z" style="fill: #2ac1ec; stroke-width: 0px;"/>
  <path d="M64.45,126.88c-3.17,0-5.75-3.99-10.04-11.04-2.4-3.95-5.69-9.37-7.6-10.17-1.96-.83-8.19.77-12.75,1.94-7.62,1.95-12.03,2.95-14.13.84-2.11-2.11-1.11-6.52.84-14.13,1.17-4.56,2.76-10.81,1.94-12.75-.81-1.91-6.22-5.2-10.17-7.6-7.05-4.29-11.04-6.87-11.04-10.04s3.99-5.75,11.04-10.04c3.95-2.4,9.37-5.69,10.17-7.6.83-1.95-.77-8.19-1.94-12.75-1.95-7.61-2.95-12.03-.84-14.13s6.52-1.11,14.13.84c4.56,1.17,10.81,2.77,12.75,1.94,1.91-.81,5.2-6.22,7.6-10.17,4.29-7.05,6.87-11.04,10.04-11.04s5.75,3.99,10.04,11.04c2.4,3.95,5.69,9.37,7.6,10.17,1.95.83,8.19-.77,12.75-1.94,7.62-1.95,12.03-2.95,14.13-.84,2.11,2.11,1.11,6.52-.84,14.13-1.17,4.56-2.76,10.81-1.94,12.75.81,1.91,6.22,5.2,10.17,7.6,7.05,4.29,11.04,6.87,11.04,10.04s-3.99,5.75-11.04,10.04c-3.95,2.4-9.37,5.69-10.17,7.6-.83,1.95.77,8.19,1.94,12.75,1.95,7.61,2.95,12.03.84,14.13-2.11,2.11-6.52,1.11-14.13-.84-4.56-1.17-10.8-2.77-12.75-1.94-1.91.81-5.2,6.22-7.6,10.17-4.29,7.05-6.87,11.04-10.04,11.04ZM45.21,101.29c1.24,0,2.33.16,3.23.53,3.15,1.33,6.25,6.44,9.54,11.85,1.9,3.13,5.05,8.3,6.47,9,1.43-.7,4.57-5.87,6.47-9,3.29-5.41,6.39-10.52,9.54-11.85,3.24-1.37,9.15.14,15.41,1.74,3.43.88,8.53,2.19,10.1,1.87.31-1.57-.99-6.66-1.87-10.1-1.6-6.26-3.11-12.17-1.74-15.41,1.33-3.15,6.44-6.25,11.85-9.54,3.13-1.9,8.3-5.05,9-6.47-.7-1.43-5.87-4.57-9-6.47-5.41-3.29-10.52-6.39-11.85-9.54-1.37-3.24.14-9.15,1.74-15.41.88-3.43,2.18-8.53,1.87-10.1-1.56-.31-6.66.99-10.1,1.87-6.26,1.6-12.17,3.11-15.41,1.74-3.15-1.33-6.25-6.44-9.54-11.85-1.9-3.13-5.05-8.3-6.47-9-1.43.7-4.57,5.87-6.47,9-3.29,5.41-6.39,10.52-9.54,11.85-3.24,1.37-9.15-.14-15.41-1.74-3.43-.88-8.52-2.18-10.1-1.87-.31,1.57.99,6.66,1.87,10.1,1.6,6.26,3.11,12.17,1.74,15.41-1.33,3.15-6.44,6.25-11.85,9.54-3.13,1.9-8.3,5.05-9,6.47.7,1.43,5.87,4.57,9,6.47,5.41,3.29,10.52,6.39,11.85,9.54,1.37,3.24-.14,9.15-1.74,15.41-.88,3.43-2.18,8.53-1.87,10.1,1.57.31,6.66-.99,10.1-1.87,4.54-1.16,8.9-2.27,12.19-2.27Z" style="fill: #2ac1ec; stroke-width: 0px;"/>
</svg>