<?xml version="1.0" encoding="UTF-8"?>
<svg id="uuid-4dd8056a-efa3-457e-b49e-e88cc4f6ea30" data-name="season_fall" xmlns="http://www.w3.org/2000/svg" viewBox="0 0 128 128">
  <path d="M85.28,38.08l-14.39-10.29,7.02-4.38c.78-.49,1.16-1.41.94-2.3-.21-.88-.97-1.53-1.86-1.61-2.05-.19-12.37-1.1-16.03-1.04-4.5.09-12.42,3.02-17,6.08-.48-.63-1.06-1.3-1.73-2.05-.64-.73-1.34-1.53-2.02-2.41-.93-1.16-1.82-2.46-2.49-3.87-.98-2.07-1.56-4.51-1.9-6.77-.32-1.99-.47-3.86-.57-5.19-.05-.65-.09-1.17-.13-1.56-.13-1.09-1.14-1.88-2.22-1.74-1.09.13-1.88,1.13-1.74,2.22.04.33.07.81.12,1.38.24,3.07.68,8.78,2.85,13.35,1.41,2.99,3.46,5.32,5.12,7.21.57.65,1.29,1.48,1.72,2.06-2.79,3.64-4.77,10.84-4.95,14.64-.05,1.13-.07,3.21-.07,5.47,0,4.2.05,9.08.07,9.88.01.88.55,1.65,1.37,1.96.81.32,1.74.09,2.33-.57l6.02-6.77,8.71,15.53c.37.68,1.09,1.09,1.85,1.09.12,0,.24,0,.35-.03.89-.15,1.58-.84,1.74-1.72l1.66-9.35.03-.35c0-.2.11-.31.19-.37.07-.07.19-.12.33-.09l18.73,7.62c.77.32,1.68.13,2.27-.45.6-.6.78-1.48.48-2.29l-7.47-19.03,9.54-.44c.9-.04,1.69-.65,1.94-1.52.27-.86-.05-1.8-.8-2.33ZM74.08,38.38c-1.08-.04-2.09.4-2.79,1.21-.74.84-1.05,1.96-.82,3.06l6.3,16.13-14.82-6.04-.24-.08c-1.36-.37-2.77-.08-3.87.77-1.06.81-1.69,2.01-1.76,3.34l-.72,4.04-6.68-11.94-.21-.29c-.64-.78-1.61-1.24-2.62-1.24-.08,0-.17,0-.25.01-1.02.07-1.96.61-2.54,1.44l-3.1,3.48c-.03-3.68-.04-8.39.04-10.29.16-3.83,2.5-10.96,4.67-12.97,3.07-2.87,12.1-6.49,16.37-6.57,1.81-.05,5.85.21,10.01.55l-1.58,1c-1.25.49-2.15,1.54-2.46,2.87-.32,1.42.12,2.87,1.17,3.87l10.37,7.45-4.48.2Z" style="fill: #2ac1ec; stroke-width: 0px;"/>
  <path d="M95.1,60.78c-1.08-.15-2.09.65-2.22,1.74-.04.37-.08.9-.13,1.54-.11,1.33-.25,3.19-.57,5.2-.35,2.26-.92,4.69-1.9,6.76-.66,1.42-1.56,2.73-2.49,3.88-.68.88-1.38,1.68-2.02,2.41-.56.63-1.06,1.2-1.49,1.74-4.47-3.19-12.83-6.34-17.5-6.44-3.38-.05-12.33.7-16.04,1.04-.9.09-1.65.74-1.86,1.62-.2.88.17,1.8.94,2.29l6.5,4.07.24.28.21.07-13.02,9.32c-.93.67-1.33,1.85-1.01,2.94s1.3,1.86,2.43,1.9l7.97.37-6.69,17.02c-.45,1.13-.17,2.42.69,3.27.86.86,2.15,1.12,3.29.65l16.7-6.81c.16-.01.27.05.35.11.08.07.19.17.19.37l1.56,8.94c.17,1,.96,1.78,1.96,1.94.13.03.25.04.39.04.86,0,1.66-.47,2.09-1.22l8.34-14.88,6.02,6.77c.6.65,1.5.88,2.34.57l1.36-.59v-1.37c.04-3.67.12-12.49,0-15.35-.15-3.62-1.98-10.33-4.58-14.11.44-.57,1.09-1.33,1.62-1.93,1.66-1.89,3.71-4.22,5.12-7.21,2.17-4.58,2.61-10.28,2.85-13.35.05-.57.08-1.05.12-1.38.13-1.09-.65-2.09-1.74-2.22ZM87.71,101.15c.08,1.86.08,6.41.05,10.29l-3.1-3.48c-.59-.84-1.53-1.37-2.55-1.45-1.12-.07-2.17.39-2.87,1.24l-6.89,12.24-.72-4.04c-.05-1.33-.68-2.54-1.74-3.34-1.12-.86-2.53-1.14-3.88-.77l-15.04,6.12,6.2-15.8.11-.33c.21-1.1-.08-2.22-.82-3.06-.72-.81-1.69-1.25-2.79-1.21l-4.5-.2,10.16-7.28.21-.17c1.06-1.01,1.5-2.45,1.17-3.87-.29-1.33-1.21-2.38-2.46-2.87l-1.57-1c3.7-.29,8.02-.59,10-.55,4.16.08,12.82,3.51,16.12,6.34.09.07.19.15.27.23.28.27.57.61.85,1.04,1.89,2.78,3.67,8.61,3.8,11.93Z" style="fill: #2ac1ec; stroke-width: 0px;"/>
</svg>