<?xml version="1.0" encoding="UTF-8"?>
<svg id="uuid-6a93f446-6afe-4ab9-9dca-c330b31ff87c" data-name="ver_22" xmlns="http://www.w3.org/2000/svg" xmlns:xlink="http://www.w3.org/1999/xlink" viewBox="0 0 128 128">
  <defs>
    <linearGradient id="uuid-293a4aa9-5dbb-4900-afce-a53fbad8d153" x1="27.47" y1="95.21" x2="105.83" y2="29.44" gradientUnits="userSpaceOnUse">
      <stop offset="0" stop-color="#0899d6"/>
      <stop offset="1" stop-color="#10bbfb"/>
    </linearGradient>
  </defs>
  <g>
    <path d="M.13,117.81c1.15-6.02,2.37-12.03,3.43-18.06,4.1-23.24,8.09-46.5,12.24-69.73,2.8-15.64,14.44-25.57,31.15-25.79,25.44-.33,50.89-.12,76.33-.09,3.38,0,5.03,2.17,4.47,5.68-2.01,12.39-4.05,24.77-6.08,37.15-2.6,15.91-5.27,31.81-7.76,47.74-2.84,18.17-15.58,29.23-33.98,29.23-24.7,0-49.39-.03-74.09.05-2.47,0-4.36-.6-5.71-2.67,0-1.16,0-2.33,0-3.49Z" style="fill: #231f20;"/>
    <path d="M5.24,113.5c1.06-5.54,2.18-11.07,3.16-16.62,3.77-21.38,7.44-42.78,11.26-64.16,2.57-14.39,13.28-23.53,28.66-23.73,23.41-.31,46.82-.11,70.23-.09,3.11,0,4.63,2,4.11,5.22-1.84,11.4-3.73,22.79-5.59,34.18-2.39,14.64-4.85,29.27-7.14,43.92-2.61,16.72-14.34,26.89-31.26,26.89-22.72,0-45.44-.03-68.16.04-2.27,0-4.01-.55-5.26-2.46,0-1.07,0-2.14,0-3.21Z" style="fill: #11c2f7;"/>
    <path d="M10.83,109.24c.95-4.98,1.96-9.96,2.84-14.96,3.39-19.24,6.7-38.5,10.14-57.74,2.31-12.95,11.95-21.18,25.79-21.36,21.06-.28,42.14-.1,63.2-.08,2.8,0,4.17,1.8,3.7,4.7-1.66,10.26-3.36,20.51-5.03,30.76-2.15,13.17-4.36,26.34-6.42,39.53-2.35,15.04-12.9,24.2-28.14,24.2-20.45,0-40.9-.02-61.35.04-2.04,0-3.61-.49-4.73-2.21,0-.96,0-1.93,0-2.89Z" style="fill: url(#uuid-293a4aa9-5dbb-4900-afce-a53fbad8d153);"/>
  </g>
  <g>
    <path d="M57.76,91.4l-2.14,11H21.73l1.81-9.31c.63-3.24,1.57-6.29,2.82-9.15,1.25-2.85,2.69-5.54,4.33-8.04,1.64-2.5,3.27-4.76,4.89-6.77,1.62-2.01,3.66-4.39,6.13-7.14,3.71-4.23,6.52-7.71,8.41-10.42,1.89-2.72,3.13-5.55,3.7-8.52.7-3.6-.16-5.4-2.56-5.4s-3.96,1.8-4.66,5.4l-2.12,10.9h-13.33l1.6-8.25c.84-4.3,2.04-7.83,3.62-10.58,1.58-2.75,3.33-4.81,5.26-6.19,1.93-1.38,3.89-2.28,5.9-2.7,2.01-.42,4.16-.63,6.47-.63,2.09,0,4.03.32,5.84.95,1.8.63,3.35,1.69,4.64,3.17,1.29,1.48,2.17,3.53,2.62,6.14s.31,5.82-.43,9.63c-.52,2.68-1.29,5.2-2.31,7.56-1.02,2.36-2.21,4.53-3.55,6.51-1.35,1.97-2.75,3.83-4.21,5.55s-3.27,3.76-5.44,6.08c-2.45,2.68-4.46,4.97-6.03,6.88-1.57,1.9-3.05,3.91-4.42,6.03-.16.28-.39.64-.69,1.06-.78,1.27-1.39,2.33-1.82,3.17-.43.85-.76,1.87-1,3.07h20.56Z" style="fill: #f1f2f2;"/>
    <path d="M95.02,91.4l-2.14,11h-33.89l1.81-9.31c.63-3.24,1.57-6.29,2.82-9.15,1.25-2.85,2.69-5.54,4.33-8.04,1.64-2.5,3.27-4.76,4.89-6.77,1.62-2.01,3.66-4.39,6.13-7.14,3.71-4.23,6.52-7.71,8.41-10.42,1.89-2.72,3.13-5.55,3.7-8.52.7-3.6-.16-5.4-2.56-5.4s-3.96,1.8-4.66,5.4l-2.12,10.9h-13.33l1.6-8.25c.84-4.3,2.04-7.83,3.62-10.58,1.58-2.75,3.33-4.81,5.26-6.19,1.93-1.38,3.89-2.28,5.9-2.7,2.01-.42,4.16-.63,6.47-.63,2.09,0,4.03.32,5.84.95,1.8.63,3.35,1.69,4.64,3.17,1.29,1.48,2.17,3.53,2.62,6.14s.31,5.82-.43,9.63c-.52,2.68-1.29,5.2-2.31,7.56-1.02,2.36-2.21,4.53-3.55,6.51-1.35,1.97-2.75,3.83-4.21,5.55-1.46,1.73-3.27,3.76-5.44,6.08-2.45,2.68-4.46,4.97-6.03,6.88-1.57,1.9-3.05,3.91-4.42,6.03-.16.28-.39.64-.69,1.06-.78,1.27-1.39,2.33-1.82,3.17-.43.85-.76,1.87-1,3.07h20.56Z" style="fill: #f1f2f2;"/>
  </g>
</svg>