<?xml version="1.0" encoding="UTF-8"?>
<svg id="ver_22" xmlns="http://www.w3.org/2000/svg" xmlns:xlink="http://www.w3.org/1999/xlink" viewBox="0 0 128 128">
  <defs>
    <linearGradient id="linear-gradient" x1="28.01" y1="94.75" x2="105.22" y2="29.95" gradientUnits="userSpaceOnUse">
      <stop offset="0" stop-color="#0899d6"/>
      <stop offset="1" stop-color="#10bbfb"/>
    </linearGradient>
  </defs>
  <g>
    <path d="M1.08,117.01c1.13-5.93,2.33-11.85,3.38-17.8,4.04-22.9,7.97-45.82,12.06-68.7,2.75-15.41,14.22-25.2,30.69-25.41,25.06-.33,50.14-.12,75.2-.09,3.33,0,4.96,2.14,4.4,5.59-1.98,12.2-4,24.4-5.99,36.6-2.56,15.68-5.19,31.34-7.64,47.04-2.8,17.9-15.35,28.79-33.48,28.8-24.33,0-48.66-.03-72.99.05-2.43,0-4.3-.59-5.63-2.63,0-1.15,0-2.29,0-3.44Z" style="fill: #231f20; stroke-width: 0px;"/>
    <path d="M6.11,112.77c1.04-5.46,2.15-10.9,3.11-16.37,3.72-21.07,7.33-42.15,11.1-63.21,2.53-14.18,13.08-23.18,28.23-23.38,23.06-.3,46.13-.11,69.19-.09,3.06,0,4.56,1.97,4.05,5.15-1.82,11.23-3.68,22.45-5.51,33.67-2.36,14.42-4.78,28.83-7.03,43.27-2.57,16.47-14.12,26.49-30.8,26.5-22.38,0-44.77-.02-67.15.04-2.24,0-3.95-.54-5.18-2.42,0-1.06,0-2.11,0-3.17Z" style="fill: #11c2f7; stroke-width: 0px;"/>
    <path d="M11.62,108.58c.94-4.91,1.93-9.81,2.8-14.74,3.34-18.96,6.6-37.94,9.99-56.89,2.28-12.76,11.78-20.86,25.41-21.04,20.75-.27,41.51-.1,62.27-.08,2.75,0,4.11,1.77,3.64,4.63-1.64,10.11-3.31,20.2-4.96,30.31-2.12,12.98-4.3,25.95-6.33,38.95-2.31,14.82-12.71,23.84-27.72,23.85-20.15,0-40.29-.02-60.44.04-2.01,0-3.56-.49-4.66-2.18,0-.95,0-1.9,0-2.85Z" style="fill: url(#linear-gradient); stroke-width: 0px;"/>
  </g>
  <g>
    <path d="M57.85,91l-2.11,10.84H22.36l1.78-9.17c.62-3.2,1.55-6.2,2.78-9.02,1.23-2.81,2.65-5.45,4.27-7.92,1.61-2.47,3.22-4.69,4.82-6.67,1.6-1.98,3.61-4.32,6.04-7.04,3.66-4.17,6.42-7.59,8.29-10.27s3.08-5.47,3.65-8.39c.69-3.54-.15-5.32-2.53-5.32s-3.91,1.77-4.59,5.32l-2.09,10.74h-13.13l1.58-8.13c.82-4.24,2.01-7.71,3.57-10.42,1.56-2.71,3.28-4.74,5.18-6.1,1.9-1.36,3.84-2.24,5.82-2.66,1.98-.42,4.1-.62,6.37-.62,2.06,0,3.97.31,5.75.94,1.78.62,3.3,1.67,4.57,3.13,1.27,1.46,2.13,3.47,2.58,6.05s.31,5.73-.42,9.49c-.51,2.64-1.27,5.12-2.28,7.45-1.01,2.33-2.17,4.47-3.5,6.41-1.33,1.95-2.71,3.77-4.15,5.47s-3.22,3.7-5.36,5.99c-2.41,2.64-4.39,4.9-5.95,6.77-1.55,1.87-3,3.86-4.36,5.94-.16.28-.39.63-.68,1.04-.77,1.25-1.37,2.29-1.79,3.13-.43.83-.75,1.84-.98,3.02h20.25Z" style="fill: #f1f2f2; stroke-width: 0px;"/>
    <path d="M94.56,91l-2.11,10.84h-33.39l1.78-9.17c.62-3.2,1.55-6.2,2.78-9.02,1.23-2.81,2.65-5.45,4.27-7.92,1.61-2.47,3.22-4.69,4.82-6.67,1.6-1.98,3.61-4.32,6.04-7.04,3.66-4.17,6.42-7.59,8.29-10.27s3.08-5.47,3.65-8.39c.69-3.54-.15-5.32-2.53-5.32s-3.91,1.77-4.59,5.32l-2.09,10.74h-13.13l1.58-8.13c.82-4.24,2.01-7.71,3.57-10.42,1.56-2.71,3.28-4.74,5.18-6.1,1.9-1.36,3.84-2.24,5.82-2.66,1.98-.42,4.1-.62,6.37-.62,2.06,0,3.97.31,5.75.94,1.78.62,3.3,1.67,4.57,3.13,1.27,1.46,2.13,3.47,2.58,6.05s.31,5.73-.42,9.49c-.51,2.64-1.27,5.12-2.28,7.45-1.01,2.33-2.17,4.47-3.5,6.41-1.33,1.95-2.71,3.77-4.15,5.47s-3.22,3.7-5.36,5.99c-2.41,2.64-4.39,4.9-5.95,6.77-1.55,1.87-3,3.86-4.36,5.94-.16.28-.39.63-.68,1.04-.77,1.25-1.37,2.29-1.79,3.13-.43.83-.75,1.84-.98,3.02h20.25Z" style="fill: #f1f2f2; stroke-width: 0px;"/>
  </g>
</svg>