<?xml version="1.0" encoding="UTF-8"?>
<svg id="uuid-17bd9b9b-2ff2-477b-b80b-1a4af82d1008" data-name="weather_6" xmlns="http://www.w3.org/2000/svg" viewBox="0 0 128 128">
  <path d="M47.7,3.31c9.57.27,17.29,3.9,24.01,10.61,1.24,1.23,2.58,3.43,4.34,3.93,1.91.55,4.76-.72,6.69-.96,3.86-.48,7.82-.24,11.53.95,7.33,2.35,13.42,8.55,16.04,15.77,1.59,4.39-.14,9.27,1.71,13.51,1.55,3.54,5.23,5.64,7.04,9.12,3.61,6.92,3.56,15.99-.64,22.63-2.45,3.87-5.92,7.07-10.1,8.98-3.17,1.45-10.17,2.99-13.22.64-1.33-1.03-2.23-3.26-1.16-4.71,1.24-1.7,4.7-1.97,6.53-2.49,3.81-1.08,7.47-2.66,9.89-5.93,5.44-7.37,2.06-16.34-5.07-20.84-3.08-1.94-4.41-2.7-3.16-6.4,1.49-4.42,1.78-8.27-.48-12.51-4.43-8.32-12.6-12.48-21.65-8.97-3.5,1.36-6.89,3.96-9.72.2-2.59-3.45-4.49-6.89-7.99-9.59-6.55-5.07-14.55-6.34-22.37-3.78-8.63,2.83-14.5,9.45-16.58,18.31-1.21,5.19-.57,10.5,1.62,15.33.71,1.58,2.01,3.28,1.07,5.01-.92,1.69-3.76,2.53-5.25,3.66-7.06,5.35-7.96,16.06-.92,21.91,3.73,3.1,8.27,3.11,12.51,4.99,1.78.79,2.63,2.1,1.81,3.99-1.02,2.37-3.21,2.78-5.53,3.03-8.71.93-18-6.6-20.92-14.52-2.61-7.09-1.56-16,3.18-21.98,1.19-1.5,3.14-2.66,3.99-4.38,1.03-2.09.03-4.12-.41-6.23-1.13-5.48-.48-11.24,1.19-16.53,2.82-8.92,9.78-16.24,18.3-20,4.31-1.9,9.01-2.79,13.72-2.75Z" style="fill: #f4f8f4; stroke-width: 0px;"/>
  <path d="M74.98,124.7c-2.72-.28-2.96-2.08-3.32-4.32-.36-2.25-1.13-2.12-3.02-1.24-2.01.93-3.96,1.33-4.67-1.47-.31-1.24-.02-2.26.83-3.2.59-.65,2.25-1.08,2.36-2.11.22-2.1-3.74-2.65-3.26-5.48.51-3.04,2.97-2.44,5.05-1.9,4.35,1.14,1.3-5.85,6.38-5.18,2.2.29,2.38,1.7,2.79,3.54.65,2.93,1.1,2.1,3.61,1.28,2.28-.74,4.71.96,4.05,3.54-.42,1.62-3.38,2.63-3.2,4.27.23,2.06,3.61,1.84,3.3,4.69-.27,2.55-2.17,3.24-4.24,2.35-1.75-.76-3-1.94-3.55.55-.49,2.25-.28,4.12-3.12,4.67Z" style="fill: #f4f8f4; stroke-width: 0px;"/>
  <path d="M84.55,88.32c-1.77-1.19-3.17-1.65-4.27.32-.44.8-.34,1.8-.84,2.58-.59.92-1.63,1.48-2.38,2.24-.74-.81-1.68-1.39-2.2-2.38-.4-.75-.35-1.67-.75-2.42-.74-1.39-1.41-1.5-2.88-1.26-1.6.26-3.34.65-4.16-1.4-.98-2.47,1.39-2.76,2.07-4.47,1.09-2.71-6.61-6.33-1.14-8.4,1.87-.71,3.19,1.29,4.8.92,1.63-.38,1.18-1.86,1.74-3.13,1.59-3.66,4.51-2.03,5.51.89.44,1.28.31,2.29,1.89,2.38.9.06,1.6-.84,2.48-.94.79-.09,1.7.28,2.38.61,1.97.95,2.3,2.1.92,3.8-1.49,1.84-3.64,2.05-2.08,4.24.62.87,2.42,1.83,2.54,3.13.16,1.76-2.19,2.41-3.62,3.29Z" style="fill: #f4f8f4; stroke-width: 0px;"/>
  <path d="M46.75,100.12c-2.01.89-3.38,1.63-5.61.86-1.72-.59-1.99-1.71-1.21-3.33.7-1.44,2.72-2.12,2.26-3.98-.42-1.7-2.96-1.85-2.73-4.07.45-4.3,5.3-.85,7.4-1.78,1.66-.74,1.18-2.43,2.01-3.66,1.13-1.66,2.94-1.32,3.92.33.79,1.33.05,2.63,1.92,3.01,1.56.32,2.83-.73,4.54.01,5.9,2.55-2.12,4.84-1.71,7.26.28,1.63,3.55,1.89,3.77,4,.2,1.95-1.9,3.54-3.69,3.32-1.43-.18-2.75-2.07-4.02-.86-.43.41-.28,1.42-.47,1.9-.46,1.2-1.33,1.85-2.1,2.84-1.92-1.93-3.05-3.38-4.29-5.84Z" style="fill: #f4f8f4; stroke-width: 0px;"/>
</svg>