<?xml version="1.0" encoding="UTF-8"?>
<svg id="weather_7" xmlns="http://www.w3.org/2000/svg" viewBox="0 0 128 128">
  <path d="M104.75,45.8c-.95,5.9,4.36,8.34,6.95,12.88,2.6,4.54,3.89,11.03,1.7,15.96-.95,2.14-2.63,4.75-5.33,3.45-3.02-1.44-2.88-5.21-2.8-7.99.15-5.27-1.44-9.13-5.98-12-1.91-1.21-4.39-2.13-4.54-4.7-.13-2.39,1.32-4.87,1.4-7.33.17-5.08-2.07-10.07-6.06-13.24-4.7-3.73-11.03-5.03-16.58-2.5-1.71.78-3.95,2.94-5.96,2.77-2.08-.17-2.98-2.84-3.86-4.37-5.45-9.44-16.58-14.61-27.3-11.73-9.69,2.6-16.13,11.14-16.9,20.97-.23,2.98-.18,5.99.56,8.9.61,2.4,3.44,5.77,2.05,8.15-1.14,1.94-4.12,2.95-5.79,4.46-2.03,1.84-3.33,4.12-3.95,6.79-1.12,4.84-.01,10.76,4.26,13.78,1.99,1.4,4.85,2.47,7.19,3.09,2.43.64,5.41.66,6.45,3.54,1.01,2.79-1.71,5.26-4.3,5.53-3.12.33-6.85-1.23-9.6-2.55-4.98-2.41-9.08-6.27-11.34-11.37-2.52-5.67-2.86-11.9-.1-17.54,2.52-5.13,9.11-9.82,5.68-16.07-1.36-17.76,10.22-35.07,28.72-37.17,9.03-1.03,19,2.09,25.17,8.93,1.44,1.6,2.66,3.67,4.64,4.65,2.38,1.18,5.06.34,7.56.12,4.7-.4,9.37-.48,13.74,1.56,8.76,4.09,14.31,13.55,14.31,23.03Z" style="fill: #f4f8f4; stroke-width: 0px;"/>
  <path d="M80.34,83.82c10.21,0,20.43,0,30.64,0,.9,0,1.81,0,2.71.03,2.13.09,3.44,1.24,3.63,3.31.2,2.16-.88,3.78-2.96,4.47-.95.31-2.05.24-3.08.24-20.82.01-41.63.03-62.45-.03-1.48,0-3.17-.25-4.4-.99-2.9-1.73-2.87-4.35.06-6.04,1.24-.72,2.93-.93,4.42-.94,10.47-.08,20.95-.04,31.42-.04Z" style="fill: #f4f8f4; stroke-width: 0px;"/>
  <path d="M65.22,98.77c6.22,0,12.45-.02,18.67,0,3,0,11.62-1.23,11.43,4.15-.18,4.98-9.74,3.48-12.7,3.49-6.23,0-12.46.01-18.69.01-6.23,0-12.46,0-18.69,0-3.25,0-9.81,1-9.73-3.95.08-5.02,7.19-3.68,10.5-3.7,6.4-.03,12.8,0,19.2,0Z" style="fill: #f4f8f4; stroke-width: 0px;"/>
  <path d="M45.46,69.28c3.99,0,7.97-.04,11.96,0,2.42.02,6.36-.36,7.1,2.72.72,3.01-2.04,4.61-4.58,4.84-4.15.38-8.48.07-12.65.07-4.22,0-8.43-.02-12.65-.04-3.52-.01-6.38.47-7.82-3.39-1.56-4.16,3.03-4.09,5.88-4.14,4.25-.07,8.5-.05,12.75-.05h0Z" style="fill: #f4f8f4; stroke-width: 0px;"/>
  <path d="M67.18,120.31c-3.72,0-16.47,2.26-16.08-4.32.18-2.99,2.99-4.02,5.51-4.12,3.72-.15,7.46-.1,11.19-.1,4.13,0,15.64-2.2,15.41,4.52-.22,6.29-12.08,3.96-16.03,3.96v.05Z" style="fill: #f4f8f4; stroke-width: 0px;"/>
  <path d="M113.36,98.83c3.08,0,12.02-1.4,11.64,4.04-.37,5.18-9.35,3.55-12.55,3.54-2.64,0-11.76,1.4-11.02-3.65.78-5.29,8.45-3.79,11.94-3.79,0-.05,0-.09,0-.14Z" style="fill: #f4f8f4; stroke-width: 0px;"/>
  <path d="M78.79,69.34c1.81,0,7.84-.38,8.29,2.63.16,1.06-1.5,3.64-2.43,4.16-1.53.85-4.41.58-6.07.56-3.1-.04-8.88.3-8.63-4.27.22-4.16,6.03-3.13,8.84-3.13,0,.02,0,.03,0,.05Z" style="fill: #f4f8f4; stroke-width: 0px;"/>
  <path d="M18.93,106.35c-2.78,0-7.63.9-8.13-2.97-.58-4.49,4.21-4.39,7.29-4.45,2.64-.05,8.75-1.05,9.24,2.7.64,4.89-5.31,4.69-8.4,4.89,0-.06,0-.12,0-.18Z" style="fill: #f4f8f4; stroke-width: 0px;"/>
</svg>