<?xml version="1.0" encoding="UTF-8"?>
<svg id="uuid-c32245a9-b70c-4015-90a3-f2659751c0ec" data-name="weather_9" xmlns="http://www.w3.org/2000/svg" viewBox="0 0 128 128">
  <path d="M94.03,99.55c-2.2,0-4.4.07-6.6-.02-2.68-.1-4.5-1.55-4.26-3.45.3-2.31,1.93-3.25,4.12-3.29,4.01-.07,8.02-.08,12.03-.12,7.02-.09,14.47-7.41,14.7-14.4.22-6.67-2.29-11.69-8.46-14.74-3.02-1.49-3.36-3.06-2.06-7.02,2.15-6.56-1.16-15.37-7.08-19.03-7.21-4.47-14.29-4.51-21.33.36-1.94,1.34-3.41.99-4.15-1.3-3.08-9.52-10.68-13.98-19.49-15.6-10.92-2.01-24.2,4.29-28.28,17.16-2,6.31-1.79,12.37.63,18.49,1.8,4.56,1.44,5.02-2.74,7.63-8.86,5.53-10.41,19.23.91,26.32,3.27,2.05,6.73,2.33,10.38,2.25,2.2-.04,4.48-.3,6.56.2,1.2.29,2.84,1.88,2.88,2.95.05,1.1-1.52,3.2-2.5,3.27-5.63.4-11.37,1.27-16.86-.9-6.16-2.42-10.95-6.57-13.4-12.7-3.45-8.61-2.21-16.73,4.55-23.42,2.81-2.78,2.96-5.5,2.07-9.09-.76-3.06-.89-6.43-.54-9.58.85-7.59,3.86-14.35,9.34-19.81,10.35-10.29,24.63-13.13,37.58-6.32,4.21,2.22,7.6,6.13,11.08,9.55,2.53,2.49,2.8,2.75,5.88,1.51,4.35-1.76,8.93-1.49,13.26-.38,3.02.78,6,2.41,8.52,4.31,5.88,4.43,9.85,10.09,9.52,17.93-.07,1.55.08,3.11-.02,4.66-.14,2.12.69,3.69,2.17,5.15,1.55,1.53,2.99,3.2,4.34,4.92,8.47,10.82,2.62,26.42-7.83,31.58q-5.96,2.94-14.92,2.94Z" style="fill: #f4f8f4; stroke-width: 0px;"/>
  <path d="M71.11,68c-1.09,4.34-1.91,8.37-3.12,12.28-1.85,6-1.91,6.18,3.3,9.75.84.58,1.79,1,2.71,1.45,1.66.81,2.13,1.73.59,3.19-6.28,5.94-12.52,11.92-18.79,17.86-.56.53-1.2,1.02-1.89,1.33-.64.29-1.39.31-2.1.46-.07-.69-.34-1.43-.17-2.05,1.37-4.91,2.61-9.88,4.32-14.68.9-2.54.2-3.93-1.87-5.09-1.46-.82-2.96-1.57-4.39-2.44-2.2-1.34-2.43-2.43-.64-4.25,6.33-6.43,12.71-12.8,19.12-19.15.44-.44,1.62-.87,1.84-.66.58.55.83,1.46,1.09,1.99ZM66.64,94.5c-1.56-2.03-3.72-3.64-5.12-5.76-1.05-1.58-.57-6-2.77-4.5-2.96,2.01.34,4.49,1.64,6.01,1.98,2.31,1.31,5.08,3.15,7.16,1.01-.94,2.02-1.88,3.11-2.9Z" style="fill: #f4f8f4; stroke-width: 0px;"/>
</svg>