<?xml version="1.0" encoding="UTF-8"?>
<svg id="uuid-233fa3d8-23ad-47ee-a198-98c80d5f0a56" data-name="weather_8" xmlns="http://www.w3.org/2000/svg" viewBox="0 0 128 128">
  <path d="M89.8,25.94c-4.13.05-7.69.8-10.92,3.06-2.75,1.92-4.75,1.31-6.03-1.97-1.99-5.09-5.45-8.91-10.06-11.43-14.06-7.68-30.27-2.63-36.91,12.97-3.04,7.15-1.33,13.91,1.1,20.64,1.52,4.19,1.46,3.77-2.42,6.06-2.66,1.57-4.96,4.06-6.82,6.58-2.42,3.28-3.76,4.3-6.06,3.08-2.98-1.58-3.78-4.21-1.84-7.55,1.15-1.97,2.76-3.73,4.41-5.33,1.86-1.81,2.48-3.61,1.76-6.23C11.16,28.07,22.6,10.21,38.74,4.78c13.01-4.38,24.95-1.55,34.99,8.14.56.54,1.16,1.05,1.64,1.65,2.39,2.99,4.82,3.81,8.99,2.72,7.74-2.03,15.06.19,21.44,5.17,6.89,5.38,10.48,12.31,9.99,21.11-.18,3.24.96,5.58,3.24,7.87,6.96,6.98,9.79,15.16,5.8,24.72-2.36,5.66-6.38,10.03-11.83,12.86-1.23.64-3.08.58-4.51.24-3.24-.78-4.05-3.76-1.85-6.23.59-.67,1.29-1.36,2.08-1.73,4.62-2.16,6.75-6.21,8.32-10.7,1.29-3.71-1.11-11.39-5.08-13.34-5.37-2.63-6.9-5.7-5.41-11.74,2.36-9.54-6.56-20.53-16.76-19.59Z" style="fill: #f4f8f4;"/>
  <path d="M56.86,85.65c9.06,0,18.12.23,27.17-.06,11.51-.36,22.67,9.16,22.06,22.84-.31,7.11-4.79,11.74-10.89,14.92-9.74,5.08-18.03-1.03-21.7-8.02-1.61-3.08-1.4-6.33.5-8.32,2.46-2.57,5.75-2.02,7.2,1.24.26.58.35,1.24.54,1.86,1.41,4.6,4.56,6.73,8.21,5.56,5.16-1.65,7.95-6.59,6.7-10.97-2.27-7.91-7.65-10.32-14.83-10.37-17.46-.11-34.93-.04-52.4-.04-1.29,0-2.6.04-3.87-.13-2.76-.38-4.43-2.28-4.23-4.63.19-2.17,2.42-4.1,4.89-4.1,2.33,0,4.65.2,6.98.21,7.89.03,15.78.01,23.67.01Z" style="fill: #f4f8f4;"/>
  <path d="M35.73,80.32c-9.26,0-18.53.16-27.79,0-2.56-.04-6.22-.21-6.57-3.5-.45-4.24,4.54-5.11,7.6-5.12,9.19,0,18.38,0,27.58,0,4.49,0,8.98,0,13.47,0,4.47,0,9.18.41,13.61-.33,2.78-.47,5.51-1.78,5.82-4.91.26-2.7-2.72-7.13-5.65-4.7-2.19,1.81-1.88,6.84-6.16,5.89-3.69-.82-4.18-5.05-3.24-8,4.34-13.61,24.13-7.5,24.36,5.25.13,7.27-5.58,14.19-12.75,15.41-4.47.76-9.56-.18-14.1-.17-5.39,0-10.78.19-16.17.19Z" style="fill: #f4f8f4;"/>
  <path d="M24.66,108.26c-4.66,0-10.77,1.06-15.22-.45-3.24-1.1-4.05-4.38-1.32-6.62,3.49-2.86,10.14-1.56,14.32-1.58,5.18-.02,10.39-.11,15.57.15,4.04.2,7.88,1.2,10.5,4.51,2.53,3.2,3.04,7.71.75,11.21-1.61,2.46-6.28,5.82-9.31,4.36-5.54-2.68-1.64-7.26.68-10.51-5.32-1.29-10.5-1.06-15.97-1.06v-.02Z" style="fill: #f4f8f4;"/>
</svg>