<?xml version="1.0" encoding="UTF-8"?>
<svg id="weather_5" xmlns="http://www.w3.org/2000/svg" viewBox="0 0 128 128">
  <path d="M22.07,43.8c.89,3.32,1.63,6.69,2.7,9.94,1.45,4.4,1.14,5.58-2.74,7.93-5.3,3.2-8.28,10.22-6.84,16.06,1.45,5.87,6.96,10.49,13.09,10.97.39.03.78,0,1.16.05,2.72.39,5.29,2.89,5.13,4.97-.18,2.37-3.66,4.96-6.39,4.4-12.73-2.61-22.24-10.93-21.79-24.96.18-5.85,2.3-11.22,6.68-15.2,2.33-2.11,2.6-4.23,1.92-6.9-4.25-16.71,5.22-34.03,21.1-39.7,12.82-4.58,26.81-1.94,36.65,10.04,1.67,2.03,3.03,3.09,6.37,2.36,15.01-3.27,25.98,3.69,31.42,17.33,1.13,2.84.26,6.42.81,9.57.38,2.15,1.12,4.67,2.6,6.12,13.65,13.4,8.66,35.2-10.85,40.46-2.62.71-5.34,2.04-7.55-.53-.98-1.13-2.24-3.55-1.8-4.09,1.35-1.64,3.37-3.53,5.3-3.75,6.31-.7,10.6-3.68,13.07-9.43,2.84-6.62-.64-15.54-7.33-18.19-2.66-1.06-3.52-2.21-2.82-5.19.91-3.87,1.96-7.58.44-11.99-3.73-10.76-15.19-15.59-25.77-9.63-4.2,2.36-5.08,2.09-6.88-2.21-3.79-9.07-17.4-17.59-29.91-12.87-11.94,4.5-17.62,15.31-17.76,24.43Z" style="fill: #f4f8f4; stroke-width: 0px;"/>
  <path d="M74.27,111.55c-.55-5.12,4.16-7.71,7.86-10.18,1.37-.91,3.77-2.36,5.35-.85,1.39,1.33.84,5.09.7,6.71-.32,3.92-1.94,10.02-6.27,11.28-4.35,1.26-8.1-2.86-7.64-6.96Z" style="fill: #f4f8f4; stroke-width: 0px;"/>
  <path d="M52.5,110.47c.9-2.27,1.52-3.49,3.38-5.22,1.76-1.65,3.9-3.94,6.14-4.9,5.5-2.37,5.07,5.2,4.57,8.36-.66,4.24-2.04,9.04-7.03,9.75-4.68.66-7.03-3.95-7.06-7.98Z" style="fill: #f4f8f4; stroke-width: 0px;"/>
  <path d="M45.49,105.17c-.84,4.73-.7,10.54-5.76,12.85-4.17,1.9-8.99-2.18-8.9-6.49.11-5.07,5.31-8.16,9.25-10.47,4.21-2.46,5.45-.24,5.41,4.11Z" style="fill: #f4f8f4; stroke-width: 0px;"/>
  <path d="M61.62,82.38c-.42,4.3-.25,9.01-4.35,11.58-3.99,2.49-8.43,1-9.76-3.66-1.42-4.97,2.72-8.34,6.23-11.09,1.38-1.08,3.95-3.73,5.85-2.84,2.05.96,1.8,4.18,2.02,6.02Z" style="fill: #f4f8f4; stroke-width: 0px;"/>
  <path d="M85.99,82.79c-.42,4.6-1.1,8.95-5.47,11.44-4.24,2.42-8.93-.82-9.13-5.55-.19-4.53,3.96-8.1,7.44-10.27,1.5-.94,3.85-2.9,5.62-1.81,1.93,1.19,1.46,4.31,1.54,6.2Z" style="fill: #f4f8f4; stroke-width: 0px;"/>
</svg>