<?xml version="1.0" encoding="UTF-8"?>
<svg id="uuid-56ce48f0-411c-4128-97e8-d8d578e718ad" data-name="weather_2" xmlns="http://www.w3.org/2000/svg" viewBox="0 0 128 128">
  <path d="M63.7,107.2c-10.97,0-21.94.27-32.89-.08-9.72-.31-17.23-5.18-21.28-13.92-4.05-8.74-2.49-17.26,4.21-24.38,2.35-2.49,3.43-4.71,1.83-8.04-.66-1.38-.56-3.2-.55-4.82.11-14.87,6.63-26.07,20.23-32.09,10.52-4.66,21.29-4.61,30.87,3.11,2.91,2.34,5.52,5.05,8.4,7.44.72.6,2.01,1.01,2.9.83,6.41-1.27,12.94-1.67,18.83,1.18,3.58,1.74,6.63,4.91,9.39,7.92,3.79,4.13,5.55,9.15,4.73,14.92-.49,3.45.55,6.07,3.59,8.44,5.04,3.93,8.04,15.14,6.14,21.71-3.24,11.22-14.29,18.24-25.4,17.85-10.32-.37-20.67-.08-31-.08ZM64.19,98.1c10.33,0,20.67.26,30.99-.14,3.61-.14,7.45-1.39,10.67-3.11,5.59-2.99,7.42-10.4,4.79-16.16-1.36-2.99-3.29-5.19-6.29-6.72-2.05-1.05-5.06-2.15-3.65-5.52,1.44-3.45,1.77-6.59.81-10.43-1.22-4.89-3.9-8.09-7.94-10.39-5.49-3.13-11.06-2.57-16.62.1-3.45,1.65-5.67,1.2-7.15-1.56-3.78-7.05-9.1-11.54-17.27-13.19-7.02-1.42-18.08,1.59-22.38,7.38-5.76,7.78-7.76,16.14-4.12,25.49,1.78,4.56,1.14,6.08-3.03,8.7-4.73,2.96-7.01,7.31-6.34,12.74.68,5.5,3.6,9.7,9.26,11.18,3.11.82,6.35,1.5,9.55,1.56,9.57.2,19.15.07,28.73.07Z" style="fill: #f4f8f4;"/>
</svg>